999
FreeCAD v0.21 33771 (Git)
  0
SECTION
  2
HEADER
  9
$ACADVER
  1
AC1014
  9
$ACADMAINTVER
 70
     9
  9
$DWGCODEPAGE
  3
ANSI_1252
  9
$TEXTSTYLE
  7
STANDARD
  9
$DIMSTYLE
  2
STANDARD
  9
$DIMTXSTY
  7
STANDARD
  9
$CMLSTYLE
  2
STANDARD
  9
$LUNITS
 70
2
  9
$INSUNITS
 70
4
  9
$PEXTMAX
 10
50
 20
50
 30
50
  9
$PEXTMIN
 10
0
 20
0
 30
0
  9
$HANDSEED
  5
FFFF
  0
ENDSEC
  0
SECTION
  2
CLASSES
  0
CLASS
  1
ACDBDICTIONARYWDFLT
  2
AcDbDictionaryWithDefault
  3
ObjectDBX Classes
 90
        0
280
     0
281
     0
  0
CLASS
  1
XRECORD
  2
AcDbXrecord
  3
ObjectDBX Classes
 90
        0
280
     0
281
     0
  0
CLASS
  1
LWPOLYLINE
  2
AcDbPolyline
  3
ObjectDBX Classes
 90
        0
280
     0
281
     1
  0
ENDSEC
  0
SECTION
  2
TABLES
  0
TABLE
  2
VPORT
  5
20
330
0
100
AcDbSymbolTable
 70
     1
  0
VPORT
  5
21
330
20
100
AcDbSymbolTableRecord
100
AcDbViewportTableRecord
  2
*ACTIVE
 70
     0
  0
ENDTAB
  0
TABLE
  2
LTYPE
  5
22
330
0
100
AcDbSymbolTable
 70
     1
  0
LTYPE
  5
23
330
21
100
AcDbSymbolTableRecord
100
AcDbLinetypeTableRecord
  2
BYBLOCK
 70
     0
  3

 72
    65
 73
     0
 40
0.0
  0
LTYPE
  5
24
330
21
100
AcDbSymbolTableRecord
100
AcDbLinetypeTableRecord
  2
BYLAYER
 70
     0
  3

 72
    65
 73
     0
 40
0.0
  0
LTYPE
  5
25
330
21
100
AcDbSymbolTableRecord
100
AcDbLinetypeTableRecord
  2
CONTINUOUS
 70
     0
  3
Solid line
 72
    65
 73
     0
 40
0.0
  0
ENDTAB
  0
TABLE
  2
LAYER
  5
B5C
330
0
100
AcDbSymbolTable
 70
3
  0
LAYER
  5
B5D
330
B5C
100
AcDbSymbolTableRecord
100
AcDbLayerTableRecord
  2
0
 70
   0
 62
   7
  6
CONTINUOUS
  0
LAYER
  5
B5E
330
B5C
100
AcDbSymbolTableRecord
100
AcDbLayerTableRecord
  2
none
 70
    0
 62
    7
  6
CONTINUOUS
  0
LAYER
  5
B5F
330
B5C
100
AcDbSymbolTableRecord
100
AcDbLayerTableRecord
  2
Mesh_cs001
 70
    0
 62
    7
  6
CONTINUOUS
  0
ENDTAB
  0
TABLE
  2
STYLE
  5
70
330
0
100
AcDbSymbolTable
 70
     2
  0
STYLE
  5
71
330
70
100
AcDbSymbolTableRecord
100
AcDbTextStyleTableRecord
  2
STANDARD
 70
     0
 40
0.0
 41
1.0
 50
0.0
 71
     0
 42
2.5
  3
arial.ttf
  4

  0
STYLE
  5
72
330
70
100
AcDbSymbolTableRecord
100
AcDbTextStyleTableRecord
  2
ANNOTATIVE
 70
     0
 40
0.0
 41
1.0
 50
0.0
 71
     0
 42
2.5
  3
arial.ttf
  4

  0
ENDTAB
  0
TABLE
  2
VIEW
  5
73
330
0
100
AcDbSymbolTable
 70
     0
  0
ENDTAB
  0
TABLE
  2
UCS
  5
74
330
0
100
AcDbSymbolTable
 70
     0
  0
ENDTAB
  0
TABLE
  2
APPID
  5
75
330
0
100
AcDbSymbolTable
 70
     2
  0
APPID
  5
76
330
75
100
AcDbSymbolTableRecord
100
AcDbRegAppTableRecord
  2
ACAD
 70
     0
  0
APPID
  5
77
330
75
100
AcDbSymbolTableRecord
100
AcDbRegAppTableRecord
  2
ACADANNOTATIVE
 70
     0
  0
ENDTAB
  0
TABLE
  2
DIMSTYLE
  5
78
330
0
100
AcDbSymbolTable
 70
     2
  0
DIMSTYLE
105
79
330
78
100
AcDbSymbolTableRecord
100
AcDbDimStyleTableRecord
  2
STANDARD
 70
     0
  3

  4

  5

  6

  7

 40
0.0
 41
2.5
 42
0.625
 43
3.75
 44
1.25
 45
0.0
 46
0.0
 47
0.0
 48
0.0
140
2.5
141
2.5
142
0.0
143
0.03937007874016
144
1.0
145
0.0
146
1.0
147
0.625
 71
     0
 72
     0
 73
     0
 74
     0
 75
     0
 76
     0
 77
     1
 78
     8
170
     0
171
     3
172
     1
173
     0
174
     0
175
     0
176
     0
177
     0
178
     0
270
     2
271
     2
272
     2
273
     2
274
     3
340
71
275
     0
280
     0
281
     0
282
     0
283
     0
284
     8
285
     0
286
     0
287
     3
288
     0
  0
ENDTAB
  0
TABLE
  2
BLOCK_RECORD
  5
A01
330
0
100
AcDbSymbolTable
  70
5
  0
BLOCK_RECORD
  5
A02
330
A01
100
AcDbSymbolTableRecord
100
AcDbBlockTableRecord
  2
*MODEL_SPACE
  0
BLOCK_RECORD
  5
A03
330
A01
100
AcDbSymbolTableRecord
100
AcDbBlockTableRecord
  2
*PAPER_SPACE
  0
ENDTAB
  0
ENDSEC
  0
SECTION
  2
BLOCKS
  0
BLOCK
  5
A04
330
A02
100
AcDbEntity
  8
0
100
AcDbBlockBegin
  2
*MODEL_SPACE
 70
   0
 10
0
 20
0
 30
0
  3
*MODEL_SPACE
  1
 
  0
ENDBLK
  5
A05
330
A02
100
AcDbEntity
  8
0
100
AcDbBlockEnd
  0
BLOCK
  5
A06
330
A03
100
AcDbEntity
 67
1
  8
0
100
AcDbBlockBegin
  2
*PAPER_SPACE
 70
   0
 10
0
 20
0
 30
0
  3
*PAPER_SPACE
  1
 
  0
ENDBLK
  5
A07
330
A03
100
AcDbEntity
 67
    1
  8
0
100
AcDbBlockEnd
  0
ENDSEC
  0
SECTION
  2
ENTITIES
  0
LINE
  5
A08
330
A02
100
AcDbEntity
  8
Mesh_cs001
100
AcDbLine
 10
253.067
 20
239.469
 30
9.1
 11
253.359
 21
239.871
 31
9.1
  0
LINE
  5
A09
330
A02
100
AcDbEntity
  8
Mesh_cs001
100
AcDbLine
 10
253.359
 20
239.871
 30
9.1
 11
261.825
 21
251.523
 31
9.1
  0
LINE
  5
A0A
330
A02
100
AcDbEntity
  8
Mesh_cs001
100
AcDbLine
 10
261.825
 20
251.523
 30
9.1
 11
262.227
 21
251.231
 31
9.1
  0
LINE
  5
A0B
330
A02
100
AcDbEntity
  8
Mesh_cs001
100
AcDbLine
 10
262.227
 20
251.231
 30
9.1
 11
273.879
 21
242.765
 31
9.1
  0
LINE
  5
A0C
330
A02
100
AcDbEntity
  8
Mesh_cs001
100
AcDbLine
 10
273.879
 20
242.765
 30
9.1
 11
265.413
 21
231.113
 31
9.1
  0
LINE
  5
A0D
330
A02
100
AcDbEntity
  8
Mesh_cs001
100
AcDbLine
 10
265.413
 20
231.113
 30
9.1
 11
265.121
 21
230.711
 31
9.1
  0
LINE
  5
A0E
330
A02
100
AcDbEntity
  8
Mesh_cs001
100
AcDbLine
 10
265.121
 20
230.711
 30
9.1
 11
264.719
 21
231.003
 31
9.1
  0
LINE
  5
A0F
330
A02
100
AcDbEntity
  8
Mesh_cs001
100
AcDbLine
 10
264.719
 20
231.003
 30
9.1
 11
253.067
 21
239.469
 31
9.1
  0
LINE
  5
A10
330
A02
100
AcDbEntity
  8
Mesh_cs001
100
AcDbLine
 10
196.83
 20
38.8028
 30
9.1
 11
196.553
 21
35.7847
 31
9.1
  0
LINE
  5
A11
330
A02
100
AcDbEntity
  8
Mesh_cs001
100
AcDbLine
 10
196.553
 20
35.7847
 30
9.1
 11
196.474
 21
34.822
 31
9.1
  0
LINE
  5
A12
330
A02
100
AcDbEntity
  8
Mesh_cs001
100
AcDbLine
 10
196.474
 20
34.822
 30
9.1
 11
196.226
 21
31.8014
 31
9.1
  0
LINE
  5
A13
330
A02
100
AcDbEntity
  8
Mesh_cs001
100
AcDbLine
 10
196.226
 20
31.8014
 30
9.1
 11
196.007
 21
28.7784
 31
9.1
  0
LINE
  5
A14
330
A02
100
AcDbEntity
  8
Mesh_cs001
100
AcDbLine
 10
196.007
 20
28.7784
 30
9.1
 11
195.938
 21
27.8151
 31
9.1
  0
LINE
  5
A15
330
A02
100
AcDbEntity
  8
Mesh_cs001
100
AcDbLine
 10
195.938
 20
27.8151
 30
9.1
 11
195.879
 21
27.7251
 31
9.1
  0
LINE
  5
A16
330
A02
100
AcDbEntity
  8
Mesh_cs001
100
AcDbLine
 10
195.879
 20
27.7251
 30
9.1
 11
195.695
 21
27.4428
 31
9.1
  0
LINE
  5
A17
330
A02
100
AcDbEntity
  8
Mesh_cs001
100
AcDbLine
 10
195.695
 20
27.4428
 30
9.1
 11
195.644
 21
27.348
 31
9.1
  0
LINE
  5
A18
330
A02
100
AcDbEntity
  8
Mesh_cs001
100
AcDbLine
 10
195.644
 20
27.348
 30
9.1
 11
195.486
 21
27.0505
 31
9.1
  0
LINE
  5
A19
330
A02
100
AcDbEntity
  8
Mesh_cs001
100
AcDbLine
 10
195.486
 20
27.0505
 30
9.1
 11
195.355
 21
26.74
 31
9.1
  0
LINE
  5
A1A
330
A02
100
AcDbEntity
  8
Mesh_cs001
100
AcDbLine
 10
195.355
 20
26.74
 30
9.1
 11
195.313
 21
26.6411
 31
9.1
  0
LINE
  5
A1B
330
A02
100
AcDbEntity
  8
Mesh_cs001
100
AcDbLine
 10
195.313
 20
26.6411
 30
9.1
 11
195.28
 21
26.5389
 31
9.1
  0
LINE
  5
A1C
330
A02
100
AcDbEntity
  8
Mesh_cs001
100
AcDbLine
 10
195.28
 20
26.5389
 30
9.1
 11
195.177
 21
26.218
 31
9.1
  0
LINE
  5
A1D
330
A02
100
AcDbEntity
  8
Mesh_cs001
100
AcDbLine
 10
195.177
 20
26.218
 30
9.1
 11
195.153
 21
26.1133
 31
9.1
  0
LINE
  5
A1E
330
A02
100
AcDbEntity
  8
Mesh_cs001
100
AcDbLine
 10
195.153
 20
26.1133
 30
9.1
 11
195.079
 21
25.7845
 31
9.1
  0
LINE
  5
A1F
330
A02
100
AcDbEntity
  8
Mesh_cs001
100
AcDbLine
 10
195.079
 20
25.7845
 30
9.1
 11
195.065
 21
25.6781
 31
9.1
  0
LINE
  5
A20
330
A02
100
AcDbEntity
  8
Mesh_cs001
100
AcDbLine
 10
195.065
 20
25.6781
 30
9.1
 11
195.02
 21
25.344
 31
9.1
  0
LINE
  5
A21
330
A02
100
AcDbEntity
  8
Mesh_cs001
100
AcDbLine
 10
195.02
 20
25.344
 30
9.1
 11
195
 21
24.9
 31
9.1
  0
LINE
  5
A22
330
A02
100
AcDbEntity
  8
Mesh_cs001
100
AcDbLine
 10
195
 20
24.9
 30
9.1
 11
194.337
 21
24.9
 31
9.1
  0
LINE
  5
A23
330
A02
100
AcDbEntity
  8
Mesh_cs001
100
AcDbLine
 10
194.337
 20
24.9
 30
9.1
 11
175.1
 21
24.9
 31
9.1
  0
LINE
  5
A24
330
A02
100
AcDbEntity
  8
Mesh_cs001
100
AcDbLine
 10
175.1
 20
24.9
 30
9.1
 11
174.778
 21
24.8893
 31
9.1
  0
LINE
  5
A25
330
A02
100
AcDbEntity
  8
Mesh_cs001
100
AcDbLine
 10
174.778
 20
24.8893
 30
9.1
 11
174.765
 21
24.8887
 31
9.1
  0
LINE
  5
A26
330
A02
100
AcDbEntity
  8
Mesh_cs001
100
AcDbLine
 10
174.765
 20
24.8887
 30
9.1
 11
174.436
 21
24.8555
 31
9.1
  0
LINE
  5
A27
330
A02
100
AcDbEntity
  8
Mesh_cs001
100
AcDbLine
 10
174.436
 20
24.8555
 30
9.1
 11
174.423
 21
24.8539
 31
9.1
  0
LINE
  5
A28
330
A02
100
AcDbEntity
  8
Mesh_cs001
100
AcDbLine
 10
174.423
 20
24.8539
 30
9.1
 11
174.003
 21
24.7779
 31
9.1
  0
LINE
  5
A29
330
A02
100
AcDbEntity
  8
Mesh_cs001
100
AcDbLine
 10
174.003
 20
24.7779
 30
9.1
 11
173.991
 21
24.7755
 31
9.1
  0
LINE
  5
A2A
330
A02
100
AcDbEntity
  8
Mesh_cs001
100
AcDbLine
 10
173.991
 20
24.7755
 30
9.1
 11
173.579
 21
24.6626
 31
9.1
  0
LINE
  5
A2B
330
A02
100
AcDbEntity
  8
Mesh_cs001
100
AcDbLine
 10
173.579
 20
24.6626
 30
9.1
 11
173.566
 21
24.6589
 31
9.1
  0
LINE
  5
A2C
330
A02
100
AcDbEntity
  8
Mesh_cs001
100
AcDbLine
 10
173.566
 20
24.6589
 30
9.1
 11
173.554
 21
24.6542
 31
9.1
  0
LINE
  5
A2D
330
A02
100
AcDbEntity
  8
Mesh_cs001
100
AcDbLine
 10
173.554
 20
24.6542
 30
9.1
 11
173.152
 21
24.505
 31
9.1
  0
LINE
  5
A2E
330
A02
100
AcDbEntity
  8
Mesh_cs001
100
AcDbLine
 10
173.152
 20
24.505
 30
9.1
 11
173.14
 21
24.4994
 31
9.1
  0
LINE
  5
A2F
330
A02
100
AcDbEntity
  8
Mesh_cs001
100
AcDbLine
 10
173.14
 20
24.4994
 30
9.1
 11
172.753
 21
24.3148
 31
9.1
  0
LINE
  5
A30
330
A02
100
AcDbEntity
  8
Mesh_cs001
100
AcDbLine
 10
172.753
 20
24.3148
 30
9.1
 11
172.741
 21
24.3082
 31
9.1
  0
LINE
  5
A31
330
A02
100
AcDbEntity
  8
Mesh_cs001
100
AcDbLine
 10
172.741
 20
24.3082
 30
9.1
 11
172.371
 21
24.0895
 31
9.1
  0
LINE
  5
A32
330
A02
100
AcDbEntity
  8
Mesh_cs001
100
AcDbLine
 10
172.371
 20
24.0895
 30
9.1
 11
172.36
 21
24.082
 31
9.1
  0
LINE
  5
A33
330
A02
100
AcDbEntity
  8
Mesh_cs001
100
AcDbLine
 10
172.36
 20
24.082
 30
9.1
 11
172.01
 21
23.8308
 31
9.1
  0
LINE
  5
A34
330
A02
100
AcDbEntity
  8
Mesh_cs001
100
AcDbLine
 10
172.01
 20
23.8308
 30
9.1
 11
172
 21
23.8224
 31
9.1
  0
LINE
  5
A35
330
A02
100
AcDbEntity
  8
Mesh_cs001
100
AcDbLine
 10
172
 20
23.8224
 30
9.1
 11
171.673
 21
23.5405
 31
9.1
  0
LINE
  5
A36
330
A02
100
AcDbEntity
  8
Mesh_cs001
100
AcDbLine
 10
171.673
 20
23.5405
 30
9.1
 11
171.662
 21
23.5302
 31
9.1
  0
LINE
  5
A37
330
A02
100
AcDbEntity
  8
Mesh_cs001
100
AcDbLine
 10
171.662
 20
23.5302
 30
9.1
 11
171.39
 21
23.2519
 31
9.1
  0
LINE
  5
A38
330
A02
100
AcDbEntity
  8
Mesh_cs001
100
AcDbLine
 10
171.39
 20
23.2519
 30
9.1
 11
171.38
 21
23.2407
 31
9.1
  0
LINE
  5
A39
330
A02
100
AcDbEntity
  8
Mesh_cs001
100
AcDbLine
 10
171.38
 20
23.2407
 30
9.1
 11
171.131
 21
22.9409
 31
9.1
  0
LINE
  5
A3A
330
A02
100
AcDbEntity
  8
Mesh_cs001
100
AcDbLine
 10
171.131
 20
22.9409
 30
9.1
 11
171.122
 21
22.9288
 31
9.1
  0
LINE
  5
A3B
330
A02
100
AcDbEntity
  8
Mesh_cs001
100
AcDbLine
 10
171.122
 20
22.9288
 30
9.1
 11
170.898
 21
22.6094
 31
9.1
  0
LINE
  5
A3C
330
A02
100
AcDbEntity
  8
Mesh_cs001
100
AcDbLine
 10
170.898
 20
22.6094
 30
9.1
 11
170.89
 21
22.5966
 31
9.1
  0
LINE
  5
A3D
330
A02
100
AcDbEntity
  8
Mesh_cs001
100
AcDbLine
 10
170.89
 20
22.5966
 30
9.1
 11
170.692
 21
22.2595
 31
9.1
  0
LINE
  5
A3E
330
A02
100
AcDbEntity
  8
Mesh_cs001
100
AcDbLine
 10
170.692
 20
22.2595
 30
9.1
 11
170.521
 21
21.9069
 31
9.1
  0
LINE
  5
A3F
330
A02
100
AcDbEntity
  8
Mesh_cs001
100
AcDbLine
 10
170.521
 20
21.9069
 30
9.1
 11
170.515
 21
21.8935
 31
9.1
  0
LINE
  5
A40
330
A02
100
AcDbEntity
  8
Mesh_cs001
100
AcDbLine
 10
170.515
 20
21.8935
 30
9.1
 11
170.373
 21
21.5276
 31
9.1
  0
LINE
  5
A41
330
A02
100
AcDbEntity
  8
Mesh_cs001
100
AcDbLine
 10
170.373
 20
21.5276
 30
9.1
 11
170.368
 21
21.5137
 31
9.1
  0
LINE
  5
A42
330
A02
100
AcDbEntity
  8
Mesh_cs001
100
AcDbLine
 10
170.368
 20
21.5137
 30
9.1
 11
170.256
 21
21.1368
 31
9.1
  0
LINE
  5
A43
330
A02
100
AcDbEntity
  8
Mesh_cs001
100
AcDbLine
 10
170.256
 20
21.1368
 30
9.1
 11
170.252
 21
21.1224
 31
9.1
  0
LINE
  5
A44
330
A02
100
AcDbEntity
  8
Mesh_cs001
100
AcDbLine
 10
170.252
 20
21.1224
 30
9.1
 11
170.171
 21
20.737
 31
9.1
  0
LINE
  5
A45
330
A02
100
AcDbEntity
  8
Mesh_cs001
100
AcDbLine
 10
170.171
 20
20.737
 30
9.1
 11
170.168
 21
20.7224
 31
9.1
  0
LINE
  5
A46
330
A02
100
AcDbEntity
  8
Mesh_cs001
100
AcDbLine
 10
170.168
 20
20.7224
 30
9.1
 11
170.118
 21
20.3179
 31
9.1
  0
LINE
  5
A47
330
A02
100
AcDbEntity
  8
Mesh_cs001
100
AcDbLine
 10
170.118
 20
20.3179
 30
9.1
 11
170.117
 21
20.3065
 31
9.1
  0
LINE
  5
A48
330
A02
100
AcDbEntity
  8
Mesh_cs001
100
AcDbLine
 10
170.117
 20
20.3065
 30
9.1
 11
170.1
 21
19.9115
 31
9.1
  0
LINE
  5
A49
330
A02
100
AcDbEntity
  8
Mesh_cs001
100
AcDbLine
 10
170.1
 20
19.9115
 30
9.1
 11
170.1
 21
19.9
 31
9.1
  0
LINE
  5
A4A
330
A02
100
AcDbEntity
  8
Mesh_cs001
100
AcDbLine
 10
170.1
 20
19.9
 30
9.1
 11
170.1
 21
19.2367
 31
9.1
  0
LINE
  5
A4B
330
A02
100
AcDbEntity
  8
Mesh_cs001
100
AcDbLine
 10
170.1
 20
19.2367
 30
9.1
 11
170.1
 21
4.61853e-14
 31
9.1
  0
LINE
  5
A4C
330
A02
100
AcDbEntity
  8
Mesh_cs001
100
AcDbLine
 10
170.1
 20
4.61667e-14
 30
9.1
 11
167.345
 21
4.67e-14
 31
9.1
  0
LINE
  5
A4D
330
A02
100
AcDbEntity
  8
Mesh_cs001
100
AcDbLine
 10
167.345
 20
4.67e-14
 30
9.1
 11
128.818
 21
5.84454e-14
 31
9.1
  0
LINE
  5
A4E
330
A02
100
AcDbEntity
  8
Mesh_cs001
100
AcDbLine
 10
128.818
 20
5.84454e-14
 30
9.1
 11
99.8636
 21
8.80909e-15
 31
9.1
  0
LINE
  5
A4F
330
A02
100
AcDbEntity
  8
Mesh_cs001
100
AcDbLine
 10
99.8636
 20
8.80909e-15
 30
9.1
 11
27.655
 21
4.75e-14
 31
9.1
  0
LINE
  5
A50
330
A02
100
AcDbEntity
  8
Mesh_cs001
100
AcDbLine
 10
27.655
 20
4.75e-14
 30
9.1
 11
24.9
 21
5.00333e-14
 31
9.1
  0
LINE
  5
A51
330
A02
100
AcDbEntity
  8
Mesh_cs001
100
AcDbLine
 10
24.9
 20
5.00333e-14
 30
9.1
 11
24.9
 21
0.663337
 31
9.1
  0
LINE
  5
A52
330
A02
100
AcDbEntity
  8
Mesh_cs001
100
AcDbLine
 10
24.9
 20
0.663337
 30
9.1
 11
24.9
 21
19.9
 31
9.1
  0
LINE
  5
A53
330
A02
100
AcDbEntity
  8
Mesh_cs001
100
AcDbLine
 10
24.9
 20
19.9
 30
9.1
 11
24.8994
 21
19.9145
 31
9.1
  0
LINE
  5
A54
330
A02
100
AcDbEntity
  8
Mesh_cs001
100
AcDbLine
 10
24.8994
 20
19.9145
 30
9.1
 11
24.881
 21
20.3358
 31
9.1
  0
LINE
  5
A55
330
A02
100
AcDbEntity
  8
Mesh_cs001
100
AcDbLine
 10
24.881
 20
20.3358
 30
9.1
 11
24.8791
 21
20.3502
 31
9.1
  0
LINE
  5
A56
330
A02
100
AcDbEntity
  8
Mesh_cs001
100
AcDbLine
 10
24.8791
 20
20.3502
 30
9.1
 11
24.824
 21
20.7682
 31
9.1
  0
LINE
  5
A57
330
A02
100
AcDbEntity
  8
Mesh_cs001
100
AcDbLine
 10
24.824
 20
20.7682
 30
9.1
 11
24.8209
 21
20.7824
 31
9.1
  0
LINE
  5
A58
330
A02
100
AcDbEntity
  8
Mesh_cs001
100
AcDbLine
 10
24.8209
 20
20.7824
 30
9.1
 11
24.7296
 21
21.1941
 31
9.1
  0
LINE
  5
A59
330
A02
100
AcDbEntity
  8
Mesh_cs001
100
AcDbLine
 10
24.7296
 20
21.1941
 30
9.1
 11
24.7253
 21
21.208
 31
9.1
  0
LINE
  5
A5A
330
A02
100
AcDbEntity
  8
Mesh_cs001
100
AcDbLine
 10
24.7253
 20
21.208
 30
9.1
 11
24.5985
 21
21.6101
 31
9.1
  0
LINE
  5
A5B
330
A02
100
AcDbEntity
  8
Mesh_cs001
100
AcDbLine
 10
24.5985
 20
21.6101
 30
9.1
 11
24.5929
 21
21.6235
 31
9.1
  0
LINE
  5
A5C
330
A02
100
AcDbEntity
  8
Mesh_cs001
100
AcDbLine
 10
24.5929
 20
21.6235
 30
9.1
 11
24.4315
 21
22.0131
 31
9.1
  0
LINE
  5
A5D
330
A02
100
AcDbEntity
  8
Mesh_cs001
100
AcDbLine
 10
24.4315
 20
22.0131
 30
9.1
 11
24.4248
 21
22.026
 31
9.1
  0
LINE
  5
A5E
330
A02
100
AcDbEntity
  8
Mesh_cs001
100
AcDbLine
 10
24.4248
 20
22.026
 30
9.1
 11
24.2301
 21
22.4
 31
9.1
  0
LINE
  5
A5F
330
A02
100
AcDbEntity
  8
Mesh_cs001
100
AcDbLine
 10
24.2301
 20
22.4
 30
9.1
 11
24.0036
 21
22.7556
 31
9.1
  0
LINE
  5
A60
330
A02
100
AcDbEntity
  8
Mesh_cs001
100
AcDbLine
 10
24.0036
 20
22.7556
 30
9.1
 11
23.9958
 21
22.7679
 31
9.1
  0
LINE
  5
A61
330
A02
100
AcDbEntity
  8
Mesh_cs001
100
AcDbLine
 10
23.9958
 20
22.7679
 30
9.1
 11
23.9869
 21
22.7794
 31
9.1
  0
LINE
  5
A62
330
A02
100
AcDbEntity
  8
Mesh_cs001
100
AcDbLine
 10
23.9869
 20
22.7794
 30
9.1
 11
23.7302
 21
23.1139
 31
9.1
  0
LINE
  5
A63
330
A02
100
AcDbEntity
  8
Mesh_cs001
100
AcDbLine
 10
23.7302
 20
23.1139
 30
9.1
 11
23.7204
 21
23.1247
 31
9.1
  0
LINE
  5
A64
330
A02
100
AcDbEntity
  8
Mesh_cs001
100
AcDbLine
 10
23.7204
 20
23.1247
 30
9.1
 11
23.4355
 21
23.4355
 31
9.1
  0
LINE
  5
A65
330
A02
100
AcDbEntity
  8
Mesh_cs001
100
AcDbLine
 10
23.4355
 20
23.4355
 30
9.1
 11
23.4248
 21
23.4454
 31
9.1
  0
LINE
  5
A66
330
A02
100
AcDbEntity
  8
Mesh_cs001
100
AcDbLine
 10
23.4248
 20
23.4454
 30
9.1
 11
23.1139
 21
23.7302
 31
9.1
  0
LINE
  5
A67
330
A02
100
AcDbEntity
  8
Mesh_cs001
100
AcDbLine
 10
23.1139
 20
23.7302
 30
9.1
 11
23.1024
 21
23.7391
 31
9.1
  0
LINE
  5
A68
330
A02
100
AcDbEntity
  8
Mesh_cs001
100
AcDbLine
 10
23.1024
 20
23.7391
 30
9.1
 11
22.7679
 21
23.9958
 31
9.1
  0
LINE
  5
A69
330
A02
100
AcDbEntity
  8
Mesh_cs001
100
AcDbLine
 10
22.7679
 20
23.9958
 30
9.1
 11
22.7556
 21
24.0036
 31
9.1
  0
LINE
  5
A6A
330
A02
100
AcDbEntity
  8
Mesh_cs001
100
AcDbLine
 10
22.7556
 20
24.0036
 30
9.1
 11
22.4
 21
24.2301
 31
9.1
  0
LINE
  5
A6B
330
A02
100
AcDbEntity
  8
Mesh_cs001
100
AcDbLine
 10
22.4
 20
24.2301
 30
9.1
 11
22.3871
 21
24.2368
 31
9.1
  0
LINE
  5
A6C
330
A02
100
AcDbEntity
  8
Mesh_cs001
100
AcDbLine
 10
22.3871
 20
24.2368
 30
9.1
 11
22.0131
 21
24.4315
 31
9.1
  0
LINE
  5
A6D
330
A02
100
AcDbEntity
  8
Mesh_cs001
100
AcDbLine
 10
22.0131
 20
24.4315
 30
9.1
 11
21.9997
 21
24.4371
 31
9.1
  0
LINE
  5
A6E
330
A02
100
AcDbEntity
  8
Mesh_cs001
100
AcDbLine
 10
21.9997
 20
24.4371
 30
9.1
 11
21.6101
 21
24.5985
 31
9.1
  0
LINE
  5
A6F
330
A02
100
AcDbEntity
  8
Mesh_cs001
100
AcDbLine
 10
21.6101
 20
24.5985
 30
9.1
 11
21.5962
 21
24.6028
 31
9.1
  0
LINE
  5
A70
330
A02
100
AcDbEntity
  8
Mesh_cs001
100
AcDbLine
 10
21.5962
 20
24.6028
 30
9.1
 11
21.1941
 21
24.7296
 31
9.1
  0
LINE
  5
A71
330
A02
100
AcDbEntity
  8
Mesh_cs001
100
AcDbLine
 10
21.1941
 20
24.7296
 30
9.1
 11
21.1799
 21
24.7328
 31
9.1
  0
LINE
  5
A72
330
A02
100
AcDbEntity
  8
Mesh_cs001
100
AcDbLine
 10
21.1799
 20
24.7328
 30
9.1
 11
20.7682
 21
24.824
 31
9.1
  0
LINE
  5
A73
330
A02
100
AcDbEntity
  8
Mesh_cs001
100
AcDbLine
 10
20.7682
 20
24.824
 30
9.1
 11
20.7538
 21
24.8259
 31
9.1
  0
LINE
  5
A74
330
A02
100
AcDbEntity
  8
Mesh_cs001
100
AcDbLine
 10
20.7538
 20
24.8259
 30
9.1
 11
20.3358
 21
24.881
 31
9.1
  0
LINE
  5
A75
330
A02
100
AcDbEntity
  8
Mesh_cs001
100
AcDbLine
 10
20.3358
 20
24.881
 30
9.1
 11
20.3213
 21
24.8816
 31
9.1
  0
LINE
  5
A76
330
A02
100
AcDbEntity
  8
Mesh_cs001
100
AcDbLine
 10
20.3213
 20
24.8816
 30
9.1
 11
19.9
 21
24.9
 31
9.1
  0
LINE
  5
A77
330
A02
100
AcDbEntity
  8
Mesh_cs001
100
AcDbLine
 10
19.9
 20
24.9
 30
9.1
 11
0.663337
 21
24.9
 31
9.1
  0
LINE
  5
A78
330
A02
100
AcDbEntity
  8
Mesh_cs001
100
AcDbLine
 10
0.663337
 20
24.9
 30
9.1
 11
0
 21
24.9
 31
9.1
  0
LINE
  5
A79
330
A02
100
AcDbEntity
  8
Mesh_cs001
100
AcDbLine
 10
0
 20
24.9
 30
9.1
 11
0
 21
33.2425
 31
9.1
  0
LINE
  5
A7A
330
A02
100
AcDbEntity
  8
Mesh_cs001
100
AcDbLine
 10
0
 20
33.2425
 30
9.1
 11
9.66667e-16
 21
275.174
 31
9.1
  0
LINE
  5
A7B
330
A02
100
AcDbEntity
  8
Mesh_cs001
100
AcDbLine
 10
9.66667e-16
 20
275.174
 30
9.1
 11
0.663337
 21
275.174
 31
9.1
  0
LINE
  5
A7C
330
A02
100
AcDbEntity
  8
Mesh_cs001
100
AcDbLine
 10
0.663337
 20
275.174
 30
9.1
 11
19.9
 21
275.174
 31
9.1
  0
LINE
  5
A7D
330
A02
100
AcDbEntity
  8
Mesh_cs001
100
AcDbLine
 10
19.9
 20
275.174
 30
9.1
 11
20.2219
 21
275.185
 31
9.1
  0
LINE
  5
A7E
330
A02
100
AcDbEntity
  8
Mesh_cs001
100
AcDbLine
 10
20.2219
 20
275.185
 30
9.1
 11
20.2353
 21
275.185
 31
9.1
  0
LINE
  5
A7F
330
A02
100
AcDbEntity
  8
Mesh_cs001
100
AcDbLine
 10
20.2353
 20
275.185
 30
9.1
 11
20.564
 21
275.219
 31
9.1
  0
LINE
  5
A80
330
A02
100
AcDbEntity
  8
Mesh_cs001
100
AcDbLine
 10
20.564
 20
275.219
 30
9.1
 11
20.5773
 21
275.22
 31
9.1
  0
LINE
  5
A81
330
A02
100
AcDbEntity
  8
Mesh_cs001
100
AcDbLine
 10
20.5773
 20
275.22
 30
9.1
 11
20.9969
 21
275.296
 31
9.1
  0
LINE
  5
A82
330
A02
100
AcDbEntity
  8
Mesh_cs001
100
AcDbLine
 10
20.9969
 20
275.296
 30
9.1
 11
21.0089
 21
275.299
 31
9.1
  0
LINE
  5
A83
330
A02
100
AcDbEntity
  8
Mesh_cs001
100
AcDbLine
 10
21.0089
 20
275.299
 30
9.1
 11
21.4209
 21
275.412
 31
9.1
  0
LINE
  5
A84
330
A02
100
AcDbEntity
  8
Mesh_cs001
100
AcDbLine
 10
21.4209
 20
275.412
 30
9.1
 11
21.4339
 21
275.415
 31
9.1
  0
LINE
  5
A85
330
A02
100
AcDbEntity
  8
Mesh_cs001
100
AcDbLine
 10
21.4339
 20
275.415
 30
9.1
 11
21.4464
 21
275.42
 31
9.1
  0
LINE
  5
A86
330
A02
100
AcDbEntity
  8
Mesh_cs001
100
AcDbLine
 10
21.4464
 20
275.42
 30
9.1
 11
21.8477
 21
275.569
 31
9.1
  0
LINE
  5
A87
330
A02
100
AcDbEntity
  8
Mesh_cs001
100
AcDbLine
 10
21.8477
 20
275.569
 30
9.1
 11
21.8599
 21
275.575
 31
9.1
  0
LINE
  5
A88
330
A02
100
AcDbEntity
  8
Mesh_cs001
100
AcDbLine
 10
21.8599
 20
275.575
 30
9.1
 11
22.2472
 21
275.759
 31
9.1
  0
LINE
  5
A89
330
A02
100
AcDbEntity
  8
Mesh_cs001
100
AcDbLine
 10
22.2472
 20
275.759
 30
9.1
 11
22.2589
 21
275.766
 31
9.1
  0
LINE
  5
A8A
330
A02
100
AcDbEntity
  8
Mesh_cs001
100
AcDbLine
 10
22.2589
 20
275.766
 30
9.1
 11
22.629
 21
275.985
 31
9.1
  0
LINE
  5
A8B
330
A02
100
AcDbEntity
  8
Mesh_cs001
100
AcDbLine
 10
22.629
 20
275.985
 30
9.1
 11
22.6401
 21
275.992
 31
9.1
  0
LINE
  5
A8C
330
A02
100
AcDbEntity
  8
Mesh_cs001
100
AcDbLine
 10
22.6401
 20
275.992
 30
9.1
 11
22.99
 21
276.243
 31
9.1
  0
LINE
  5
A8D
330
A02
100
AcDbEntity
  8
Mesh_cs001
100
AcDbLine
 10
22.99
 20
276.243
 30
9.1
 11
23.0004
 21
276.252
 31
9.1
  0
LINE
  5
A8E
330
A02
100
AcDbEntity
  8
Mesh_cs001
100
AcDbLine
 10
23.0004
 20
276.252
 30
9.1
 11
23.3272
 21
276.534
 31
9.1
  0
LINE
  5
A8F
330
A02
100
AcDbEntity
  8
Mesh_cs001
100
AcDbLine
 10
23.3272
 20
276.534
 30
9.1
 11
23.338
 21
276.544
 31
9.1
  0
LINE
  5
A90
330
A02
100
AcDbEntity
  8
Mesh_cs001
100
AcDbLine
 10
23.338
 20
276.544
 30
9.1
 11
23.61
 21
276.822
 31
9.1
  0
LINE
  5
A91
330
A02
100
AcDbEntity
  8
Mesh_cs001
100
AcDbLine
 10
23.61
 20
276.822
 30
9.1
 11
23.6198
 21
276.833
 31
9.1
  0
LINE
  5
A92
330
A02
100
AcDbEntity
  8
Mesh_cs001
100
AcDbLine
 10
23.6198
 20
276.833
 30
9.1
 11
23.869
 21
277.133
 31
9.1
  0
LINE
  5
A93
330
A02
100
AcDbEntity
  8
Mesh_cs001
100
AcDbLine
 10
23.869
 20
277.133
 30
9.1
 11
23.8778
 21
277.145
 31
9.1
  0
LINE
  5
A94
330
A02
100
AcDbEntity
  8
Mesh_cs001
100
AcDbLine
 10
23.8778
 20
277.145
 30
9.1
 11
24.1023
 21
277.465
 31
9.1
  0
LINE
  5
A95
330
A02
100
AcDbEntity
  8
Mesh_cs001
100
AcDbLine
 10
24.1023
 20
277.465
 30
9.1
 11
24.1099
 21
277.478
 31
9.1
  0
LINE
  5
A96
330
A02
100
AcDbEntity
  8
Mesh_cs001
100
AcDbLine
 10
24.1099
 20
277.478
 30
9.1
 11
24.3082
 21
277.815
 31
9.1
  0
LINE
  5
A97
330
A02
100
AcDbEntity
  8
Mesh_cs001
100
AcDbLine
 10
24.3082
 20
277.815
 30
9.1
 11
24.4789
 21
278.167
 31
9.1
  0
LINE
  5
A98
330
A02
100
AcDbEntity
  8
Mesh_cs001
100
AcDbLine
 10
24.4789
 20
278.167
 30
9.1
 11
24.4854
 21
278.181
 31
9.1
  0
LINE
  5
A99
330
A02
100
AcDbEntity
  8
Mesh_cs001
100
AcDbLine
 10
24.4854
 20
278.181
 30
9.1
 11
24.6272
 21
278.547
 31
9.1
  0
LINE
  5
A9A
330
A02
100
AcDbEntity
  8
Mesh_cs001
100
AcDbLine
 10
24.6272
 20
278.547
 30
9.1
 11
24.6324
 21
278.561
 31
9.1
  0
LINE
  5
A9B
330
A02
100
AcDbEntity
  8
Mesh_cs001
100
AcDbLine
 10
24.6324
 20
278.561
 30
9.1
 11
24.7442
 21
278.937
 31
9.1
  0
LINE
  5
A9C
330
A02
100
AcDbEntity
  8
Mesh_cs001
100
AcDbLine
 10
24.7442
 20
278.937
 30
9.1
 11
24.7482
 21
278.952
 31
9.1
  0
LINE
  5
A9D
330
A02
100
AcDbEntity
  8
Mesh_cs001
100
AcDbLine
 10
24.7482
 20
278.952
 30
9.1
 11
24.8291
 21
279.337
 31
9.1
  0
LINE
  5
A9E
330
A02
100
AcDbEntity
  8
Mesh_cs001
100
AcDbLine
 10
24.8291
 20
279.337
 30
9.1
 11
24.8318
 21
279.352
 31
9.1
  0
LINE
  5
A9F
330
A02
100
AcDbEntity
  8
Mesh_cs001
100
AcDbLine
 10
24.8318
 20
279.352
 30
9.1
 11
24.8822
 21
279.756
 31
9.1
  0
LINE
  5
AA0
330
A02
100
AcDbEntity
  8
Mesh_cs001
100
AcDbLine
 10
24.8822
 20
279.756
 30
9.1
 11
24.8834
 21
279.768
 31
9.1
  0
LINE
  5
AA1
330
A02
100
AcDbEntity
  8
Mesh_cs001
100
AcDbLine
 10
24.8834
 20
279.768
 30
9.1
 11
24.8996
 21
280.163
 31
9.1
  0
LINE
  5
AA2
330
A02
100
AcDbEntity
  8
Mesh_cs001
100
AcDbLine
 10
24.8996
 20
280.163
 30
9.1
 11
24.9
 21
280.174
 31
9.1
  0
LINE
  5
AA3
330
A02
100
AcDbEntity
  8
Mesh_cs001
100
AcDbLine
 10
24.9
 20
280.174
 30
9.1
 11
24.9
 21
280.837
 31
9.1
  0
LINE
  5
AA4
330
A02
100
AcDbEntity
  8
Mesh_cs001
100
AcDbLine
 10
24.9
 20
280.837
 30
9.1
 11
24.9
 21
300.074
 31
9.1
  0
LINE
  5
AA5
330
A02
100
AcDbEntity
  8
Mesh_cs001
100
AcDbLine
 10
24.9
 20
300.074
 30
9.1
 11
27.655
 21
300.074
 31
9.1
  0
LINE
  5
AA6
330
A02
100
AcDbEntity
  8
Mesh_cs001
100
AcDbLine
 10
27.655
 20
300.074
 30
9.1
 11
99.8636
 21
300.074
 31
9.1
  0
LINE
  5
AA7
330
A02
100
AcDbEntity
  8
Mesh_cs001
100
AcDbLine
 10
99.8636
 20
300.074
 30
9.1
 11
128.818
 21
300.074
 31
9.1
  0
LINE
  5
AA8
330
A02
100
AcDbEntity
  8
Mesh_cs001
100
AcDbLine
 10
128.818
 20
300.074
 30
9.1
 11
177.259
 21
300.074
 31
9.1
  0
LINE
  5
AA9
330
A02
100
AcDbEntity
  8
Mesh_cs001
100
AcDbLine
 10
177.259
 20
300.074
 30
9.1
 11
195
 21
300.074
 31
9.1
  0
LINE
  5
AAA
330
A02
100
AcDbEntity
  8
Mesh_cs001
100
AcDbLine
 10
195
 20
300.074
 30
9.1
 11
206.712
 21
291.565
 31
9.1
  0
LINE
  5
AAB
330
A02
100
AcDbEntity
  8
Mesh_cs001
100
AcDbLine
 10
206.712
 20
291.565
 30
9.1
 11
251.506
 21
259.02
 31
9.1
  0
LINE
  5
AAC
330
A02
100
AcDbEntity
  8
Mesh_cs001
100
AcDbLine
 10
251.506
 20
259.02
 30
9.1
 11
253.735
 21
257.401
 31
9.1
  0
LINE
  5
AAD
330
A02
100
AcDbEntity
  8
Mesh_cs001
100
AcDbLine
 10
253.735
 20
257.401
 30
9.1
 11
242.428
 21
241.838
 31
9.1
  0
LINE
  5
AAE
330
A02
100
AcDbEntity
  8
Mesh_cs001
100
AcDbLine
 10
242.428
 20
241.838
 30
9.1
 11
242.038
 21
241.301
 31
9.1
  0
LINE
  5
AAF
330
A02
100
AcDbEntity
  8
Mesh_cs001
100
AcDbLine
 10
242.038
 20
241.301
 30
9.1
 11
241.812
 21
240.963
 31
9.1
  0
LINE
  5
AB0
330
A02
100
AcDbEntity
  8
Mesh_cs001
100
AcDbLine
 10
241.812
 20
240.963
 30
9.1
 11
241.806
 21
240.953
 31
9.1
  0
LINE
  5
AB1
330
A02
100
AcDbEntity
  8
Mesh_cs001
100
AcDbLine
 10
241.806
 20
240.953
 30
9.1
 11
241.609
 21
240.596
 31
9.1
  0
LINE
  5
AB2
330
A02
100
AcDbEntity
  8
Mesh_cs001
100
AcDbLine
 10
241.609
 20
240.596
 30
9.1
 11
241.603
 21
240.583
 31
9.1
  0
LINE
  5
AB3
330
A02
100
AcDbEntity
  8
Mesh_cs001
100
AcDbLine
 10
241.603
 20
240.583
 30
9.1
 11
241.442
 21
240.223
 31
9.1
  0
LINE
  5
AB4
330
A02
100
AcDbEntity
  8
Mesh_cs001
100
AcDbLine
 10
241.442
 20
240.223
 30
9.1
 11
241.437
 21
240.209
 31
9.1
  0
LINE
  5
AB5
330
A02
100
AcDbEntity
  8
Mesh_cs001
100
AcDbLine
 10
241.437
 20
240.209
 30
9.1
 11
241.306
 21
239.839
 31
9.1
  0
LINE
  5
AB6
330
A02
100
AcDbEntity
  8
Mesh_cs001
100
AcDbLine
 10
241.306
 20
239.839
 30
9.1
 11
241.302
 21
239.824
 31
9.1
  0
LINE
  5
AB7
330
A02
100
AcDbEntity
  8
Mesh_cs001
100
AcDbLine
 10
241.302
 20
239.824
 30
9.1
 11
241.201
 21
239.445
 31
9.1
  0
LINE
  5
AB8
330
A02
100
AcDbEntity
  8
Mesh_cs001
100
AcDbLine
 10
241.201
 20
239.445
 30
9.1
 11
241.199
 21
239.43
 31
9.1
  0
LINE
  5
AB9
330
A02
100
AcDbEntity
  8
Mesh_cs001
100
AcDbLine
 10
241.199
 20
239.43
 30
9.1
 11
241.13
 21
239.045
 31
9.1
  0
LINE
  5
ABA
330
A02
100
AcDbEntity
  8
Mesh_cs001
100
AcDbLine
 10
241.13
 20
239.045
 30
9.1
 11
241.092
 21
238.656
 31
9.1
  0
LINE
  5
ABB
330
A02
100
AcDbEntity
  8
Mesh_cs001
100
AcDbLine
 10
241.092
 20
238.656
 30
9.1
 11
241.091
 21
238.641
 31
9.1
  0
LINE
  5
ABC
330
A02
100
AcDbEntity
  8
Mesh_cs001
100
AcDbLine
 10
241.091
 20
238.641
 30
9.1
 11
241.084
 21
238.25
 31
9.1
  0
LINE
  5
ABD
330
A02
100
AcDbEntity
  8
Mesh_cs001
100
AcDbLine
 10
241.084
 20
238.25
 30
9.1
 11
241.084
 21
238.235
 31
9.1
  0
LINE
  5
ABE
330
A02
100
AcDbEntity
  8
Mesh_cs001
100
AcDbLine
 10
241.084
 20
238.235
 30
9.1
 11
241.11
 21
237.846
 31
9.1
  0
LINE
  5
ABF
330
A02
100
AcDbEntity
  8
Mesh_cs001
100
AcDbLine
 10
241.11
 20
237.846
 30
9.1
 11
241.111
 21
237.832
 31
9.1
  0
LINE
  5
AC0
330
A02
100
AcDbEntity
  8
Mesh_cs001
100
AcDbLine
 10
241.111
 20
237.832
 30
9.1
 11
241.168
 21
237.447
 31
9.1
  0
LINE
  5
AC1
330
A02
100
AcDbEntity
  8
Mesh_cs001
100
AcDbLine
 10
241.168
 20
237.447
 30
9.1
 11
241.17
 21
237.432
 31
9.1
  0
LINE
  5
AC2
330
A02
100
AcDbEntity
  8
Mesh_cs001
100
AcDbLine
 10
241.17
 20
237.432
 30
9.1
 11
241.269
 21
237.012
 31
9.1
  0
LINE
  5
AC3
330
A02
100
AcDbEntity
  8
Mesh_cs001
100
AcDbLine
 10
241.269
 20
237.012
 30
9.1
 11
241.272
 21
236.999
 31
9.1
  0
LINE
  5
AC4
330
A02
100
AcDbEntity
  8
Mesh_cs001
100
AcDbLine
 10
241.272
 20
236.999
 30
9.1
 11
241.408
 21
236.59
 31
9.1
  0
LINE
  5
AC5
330
A02
100
AcDbEntity
  8
Mesh_cs001
100
AcDbLine
 10
241.408
 20
236.59
 30
9.1
 11
241.412
 21
236.577
 31
9.1
  0
LINE
  5
AC6
330
A02
100
AcDbEntity
  8
Mesh_cs001
100
AcDbLine
 10
241.412
 20
236.577
 30
9.1
 11
241.583
 21
236.183
 31
9.1
  0
LINE
  5
AC7
330
A02
100
AcDbEntity
  8
Mesh_cs001
100
AcDbLine
 10
241.583
 20
236.183
 30
9.1
 11
241.794
 21
235.794
 31
9.1
  0
LINE
  5
AC8
330
A02
100
AcDbEntity
  8
Mesh_cs001
100
AcDbLine
 10
241.794
 20
235.794
 30
9.1
 11
241.8
 21
235.782
 31
9.1
  0
LINE
  5
AC9
330
A02
100
AcDbEntity
  8
Mesh_cs001
100
AcDbLine
 10
241.8
 20
235.782
 30
9.1
 11
242.037
 21
235.425
 31
9.1
  0
LINE
  5
ACA
330
A02
100
AcDbEntity
  8
Mesh_cs001
100
AcDbLine
 10
242.037
 20
235.425
 30
9.1
 11
242.053
 21
235.404
 31
9.1
  0
LINE
  5
ACB
330
A02
100
AcDbEntity
  8
Mesh_cs001
100
AcDbLine
 10
242.053
 20
235.404
 30
9.1
 11
242.32
 21
235.07
 31
9.1
  0
LINE
  5
ACC
330
A02
100
AcDbEntity
  8
Mesh_cs001
100
AcDbLine
 10
242.32
 20
235.07
 30
9.1
 11
242.623
 21
234.753
 31
9.1
  0
LINE
  5
ACD
330
A02
100
AcDbEntity
  8
Mesh_cs001
100
AcDbLine
 10
242.623
 20
234.753
 30
9.1
 11
242.879
 21
234.524
 31
9.1
  0
LINE
  5
ACE
330
A02
100
AcDbEntity
  8
Mesh_cs001
100
AcDbLine
 10
242.879
 20
234.524
 30
9.1
 11
243.144
 21
234.317
 31
9.1
  0
LINE
  5
ACF
330
A02
100
AcDbEntity
  8
Mesh_cs001
100
AcDbLine
 10
243.144
 20
234.317
 30
9.1
 11
258.707
 21
223.01
 31
9.1
  0
LINE
  5
AD0
330
A02
100
AcDbEntity
  8
Mesh_cs001
100
AcDbLine
 10
258.707
 20
223.01
 30
9.1
 11
259.243
 21
222.621
 31
9.1
  0
LINE
  5
AD1
330
A02
100
AcDbEntity
  8
Mesh_cs001
100
AcDbLine
 10
259.243
 20
222.621
 30
9.1
 11
259.228
 21
222.598
 31
9.1
  0
LINE
  5
AD2
330
A02
100
AcDbEntity
  8
Mesh_cs001
100
AcDbLine
 10
259.228
 20
222.598
 30
9.1
 11
259.213
 21
222.575
 31
9.1
  0
LINE
  5
AD3
330
A02
100
AcDbEntity
  8
Mesh_cs001
100
AcDbLine
 10
259.213
 20
222.575
 30
9.1
 11
259.196
 21
222.551
 31
9.1
  0
LINE
  5
AD4
330
A02
100
AcDbEntity
  8
Mesh_cs001
100
AcDbLine
 10
259.196
 20
222.551
 30
9.1
 11
258.979
 21
222.213
 31
9.1
  0
LINE
  5
AD5
330
A02
100
AcDbEntity
  8
Mesh_cs001
100
AcDbLine
 10
258.979
 20
222.213
 30
9.1
 11
258.917
 21
222.109
 31
9.1
  0
LINE
  5
AD6
330
A02
100
AcDbEntity
  8
Mesh_cs001
100
AcDbLine
 10
258.917
 20
222.109
 30
9.1
 11
258.78
 21
221.829
 31
9.1
  0
LINE
  5
AD7
330
A02
100
AcDbEntity
  8
Mesh_cs001
100
AcDbLine
 10
258.78
 20
221.829
 30
9.1
 11
258.683
 21
221.628
 31
9.1
  0
LINE
  5
AD8
330
A02
100
AcDbEntity
  8
Mesh_cs001
100
AcDbLine
 10
258.683
 20
221.628
 30
9.1
 11
258.611
 21
221.434
 31
9.1
  0
LINE
  5
AD9
330
A02
100
AcDbEntity
  8
Mesh_cs001
100
AcDbLine
 10
258.611
 20
221.434
 30
9.1
 11
258.539
 21
221.245
 31
9.1
  0
LINE
  5
ADA
330
A02
100
AcDbEntity
  8
Mesh_cs001
100
AcDbLine
 10
258.539
 20
221.245
 30
9.1
 11
258.521
 21
221.184
 31
9.1
  0
LINE
  5
ADB
330
A02
100
AcDbEntity
  8
Mesh_cs001
100
AcDbLine
 10
258.521
 20
221.184
 30
9.1
 11
258.479
 21
221.04
 31
9.1
  0
LINE
  5
ADC
330
A02
100
AcDbEntity
  8
Mesh_cs001
100
AcDbLine
 10
258.479
 20
221.04
 30
9.1
 11
258.451
 21
220.945
 31
9.1
  0
LINE
  5
ADD
330
A02
100
AcDbEntity
  8
Mesh_cs001
100
AcDbLine
 10
258.451
 20
220.945
 30
9.1
 11
258.414
 21
220.78
 31
9.1
  0
LINE
  5
ADE
330
A02
100
AcDbEntity
  8
Mesh_cs001
100
AcDbLine
 10
258.414
 20
220.78
 30
9.1
 11
258.364
 21
220.548
 31
9.1
  0
LINE
  5
ADF
330
A02
100
AcDbEntity
  8
Mesh_cs001
100
AcDbLine
 10
258.364
 20
220.548
 30
9.1
 11
258.352
 21
220.462
 31
9.1
  0
LINE
  5
AE0
330
A02
100
AcDbEntity
  8
Mesh_cs001
100
AcDbLine
 10
258.352
 20
220.462
 30
9.1
 11
258.316
 21
220.202
 31
9.1
  0
LINE
  5
AE1
330
A02
100
AcDbEntity
  8
Mesh_cs001
100
AcDbLine
 10
258.316
 20
220.202
 30
9.1
 11
258.296
 21
219.886
 31
9.1
  0
LINE
  5
AE2
330
A02
100
AcDbEntity
  8
Mesh_cs001
100
AcDbLine
 10
258.296
 20
219.886
 30
9.1
 11
258.288
 21
219.711
 31
9.1
  0
LINE
  5
AE3
330
A02
100
AcDbEntity
  8
Mesh_cs001
100
AcDbLine
 10
258.288
 20
219.711
 30
9.1
 11
257.779
 21
218.891
 31
9.1
  0
LINE
  5
AE4
330
A02
100
AcDbEntity
  8
Mesh_cs001
100
AcDbLine
 10
257.779
 20
218.891
 30
9.1
 11
256.179
 21
216.317
 31
9.1
  0
LINE
  5
AE5
330
A02
100
AcDbEntity
  8
Mesh_cs001
100
AcDbLine
 10
256.179
 20
216.317
 30
9.1
 11
254.604
 21
213.727
 31
9.1
  0
LINE
  5
AE6
330
A02
100
AcDbEntity
  8
Mesh_cs001
100
AcDbLine
 10
254.604
 20
213.727
 30
9.1
 11
254.102
 21
212.902
 31
9.1
  0
LINE
  5
AE7
330
A02
100
AcDbEntity
  8
Mesh_cs001
100
AcDbLine
 10
254.102
 20
212.902
 30
9.1
 11
253.608
 21
212.072
 31
9.1
  0
LINE
  5
AE8
330
A02
100
AcDbEntity
  8
Mesh_cs001
100
AcDbLine
 10
253.608
 20
212.072
 30
9.1
 11
252.058
 21
209.467
 31
9.1
  0
LINE
  5
AE9
330
A02
100
AcDbEntity
  8
Mesh_cs001
100
AcDbLine
 10
252.058
 20
209.467
 30
9.1
 11
250.534
 21
206.847
 31
9.1
  0
LINE
  5
AEA
330
A02
100
AcDbEntity
  8
Mesh_cs001
100
AcDbLine
 10
250.534
 20
206.847
 30
9.1
 11
250.048
 21
206.013
 31
9.1
  0
LINE
  5
AEB
330
A02
100
AcDbEntity
  8
Mesh_cs001
100
AcDbLine
 10
250.048
 20
206.013
 30
9.1
 11
249.57
 21
205.173
 31
9.1
  0
LINE
  5
AEC
330
A02
100
AcDbEntity
  8
Mesh_cs001
100
AcDbLine
 10
249.57
 20
205.173
 30
9.1
 11
248.071
 21
202.539
 31
9.1
  0
LINE
  5
AED
330
A02
100
AcDbEntity
  8
Mesh_cs001
100
AcDbLine
 10
248.071
 20
202.539
 30
9.1
 11
247.602
 21
201.695
 31
9.1
  0
LINE
  5
AEE
330
A02
100
AcDbEntity
  8
Mesh_cs001
100
AcDbLine
 10
247.602
 20
201.695
 30
9.1
 11
246.128
 21
199.046
 31
9.1
  0
LINE
  5
AEF
330
A02
100
AcDbEntity
  8
Mesh_cs001
100
AcDbLine
 10
246.128
 20
199.046
 30
9.1
 11
245.667
 21
198.198
 31
9.1
  0
LINE
  5
AF0
330
A02
100
AcDbEntity
  8
Mesh_cs001
100
AcDbLine
 10
245.667
 20
198.198
 30
9.1
 11
244.219
 21
195.535
 31
9.1
  0
LINE
  5
AF1
330
A02
100
AcDbEntity
  8
Mesh_cs001
100
AcDbLine
 10
244.219
 20
195.535
 30
9.1
 11
243.766
 21
194.682
 31
9.1
  0
LINE
  5
AF2
330
A02
100
AcDbEntity
  8
Mesh_cs001
100
AcDbLine
 10
243.766
 20
194.682
 30
9.1
 11
242.344
 21
192.006
 31
9.1
  0
LINE
  5
AF3
330
A02
100
AcDbEntity
  8
Mesh_cs001
100
AcDbLine
 10
242.344
 20
192.006
 30
9.1
 11
241.899
 21
191.148
 31
9.1
  0
LINE
  5
AF4
330
A02
100
AcDbEntity
  8
Mesh_cs001
100
AcDbLine
 10
241.899
 20
191.148
 30
9.1
 11
240.503
 21
188.458
 31
9.1
  0
LINE
  5
AF5
330
A02
100
AcDbEntity
  8
Mesh_cs001
100
AcDbLine
 10
240.503
 20
188.458
 30
9.1
 11
240.066
 21
187.597
 31
9.1
  0
LINE
  5
AF6
330
A02
100
AcDbEntity
  8
Mesh_cs001
100
AcDbLine
 10
240.066
 20
187.597
 30
9.1
 11
238.697
 21
184.893
 31
9.1
  0
LINE
  5
AF7
330
A02
100
AcDbEntity
  8
Mesh_cs001
100
AcDbLine
 10
238.697
 20
184.893
 30
9.1
 11
238.268
 21
184.027
 31
9.1
  0
LINE
  5
AF8
330
A02
100
AcDbEntity
  8
Mesh_cs001
100
AcDbLine
 10
238.268
 20
184.027
 30
9.1
 11
236.925
 21
181.31
 31
9.1
  0
LINE
  5
AF9
330
A02
100
AcDbEntity
  8
Mesh_cs001
100
AcDbLine
 10
236.925
 20
181.31
 30
9.1
 11
235.607
 21
178.581
 31
9.1
  0
LINE
  5
AFA
330
A02
100
AcDbEntity
  8
Mesh_cs001
100
AcDbLine
 10
235.607
 20
178.581
 30
9.1
 11
235.188
 21
177.711
 31
9.1
  0
LINE
  5
AFB
330
A02
100
AcDbEntity
  8
Mesh_cs001
100
AcDbLine
 10
235.188
 20
177.711
 30
9.1
 11
234.776
 21
176.837
 31
9.1
  0
LINE
  5
AFC
330
A02
100
AcDbEntity
  8
Mesh_cs001
100
AcDbLine
 10
234.776
 20
176.837
 30
9.1
 11
233.485
 21
174.095
 31
9.1
  0
LINE
  5
AFD
330
A02
100
AcDbEntity
  8
Mesh_cs001
100
AcDbLine
 10
233.485
 20
174.095
 30
9.1
 11
233.082
 21
173.217
 31
9.1
  0
LINE
  5
AFE
330
A02
100
AcDbEntity
  8
Mesh_cs001
100
AcDbLine
 10
233.082
 20
173.217
 30
9.1
 11
231.818
 21
170.462
 31
9.1
  0
LINE
  5
AFF
330
A02
100
AcDbEntity
  8
Mesh_cs001
100
AcDbLine
 10
231.818
 20
170.462
 30
9.1
 11
230.581
 21
167.696
 31
9.1
  0
LINE
  5
B00
330
A02
100
AcDbEntity
  8
Mesh_cs001
100
AcDbLine
 10
230.581
 20
167.696
 30
9.1
 11
230.186
 21
166.814
 31
9.1
  0
LINE
  5
B01
330
A02
100
AcDbEntity
  8
Mesh_cs001
100
AcDbLine
 10
230.186
 20
166.814
 30
9.1
 11
229.8
 21
165.929
 31
9.1
  0
LINE
  5
B02
330
A02
100
AcDbEntity
  8
Mesh_cs001
100
AcDbLine
 10
229.8
 20
165.929
 30
9.1
 11
228.59
 21
163.15
 31
9.1
  0
LINE
  5
B03
330
A02
100
AcDbEntity
  8
Mesh_cs001
100
AcDbLine
 10
228.59
 20
163.15
 30
9.1
 11
228.212
 21
162.261
 31
9.1
  0
LINE
  5
B04
330
A02
100
AcDbEntity
  8
Mesh_cs001
100
AcDbLine
 10
228.212
 20
162.261
 30
9.1
 11
227.029
 21
159.471
 31
9.1
  0
LINE
  5
B05
330
A02
100
AcDbEntity
  8
Mesh_cs001
100
AcDbLine
 10
227.029
 20
159.471
 30
9.1
 11
226.66
 21
158.578
 31
9.1
  0
LINE
  5
B06
330
A02
100
AcDbEntity
  8
Mesh_cs001
100
AcDbLine
 10
226.66
 20
158.578
 30
9.1
 11
225.503
 21
155.777
 31
9.1
  0
LINE
  5
B07
330
A02
100
AcDbEntity
  8
Mesh_cs001
100
AcDbLine
 10
225.503
 20
155.777
 30
9.1
 11
225.143
 21
154.88
 31
9.1
  0
LINE
  5
B08
330
A02
100
AcDbEntity
  8
Mesh_cs001
100
AcDbLine
 10
225.143
 20
154.88
 30
9.1
 11
224.014
 21
152.068
 31
9.1
  0
LINE
  5
B09
330
A02
100
AcDbEntity
  8
Mesh_cs001
100
AcDbLine
 10
224.014
 20
152.068
 30
9.1
 11
222.912
 21
149.244
 31
9.1
  0
LINE
  5
B0A
330
A02
100
AcDbEntity
  8
Mesh_cs001
100
AcDbLine
 10
222.912
 20
149.244
 30
9.1
 11
222.56
 21
148.345
 31
9.1
  0
LINE
  5
B0B
330
A02
100
AcDbEntity
  8
Mesh_cs001
100
AcDbLine
 10
222.56
 20
148.345
 30
9.1
 11
222.218
 21
147.442
 31
9.1
  0
LINE
  5
B0C
330
A02
100
AcDbEntity
  8
Mesh_cs001
100
AcDbLine
 10
222.218
 20
147.442
 30
9.1
 11
221.143
 21
144.608
 31
9.1
  0
LINE
  5
B0D
330
A02
100
AcDbEntity
  8
Mesh_cs001
100
AcDbLine
 10
221.143
 20
144.608
 30
9.1
 11
220.809
 21
143.701
 31
9.1
  0
LINE
  5
B0E
330
A02
100
AcDbEntity
  8
Mesh_cs001
100
AcDbLine
 10
220.809
 20
143.701
 30
9.1
 11
219.762
 21
140.857
 31
9.1
  0
LINE
  5
B0F
330
A02
100
AcDbEntity
  8
Mesh_cs001
100
AcDbLine
 10
219.762
 20
140.857
 30
9.1
 11
219.437
 21
139.948
 31
9.1
  0
LINE
  5
B10
330
A02
100
AcDbEntity
  8
Mesh_cs001
100
AcDbLine
 10
219.437
 20
139.948
 30
9.1
 11
218.417
 21
137.094
 31
9.1
  0
LINE
  5
B11
330
A02
100
AcDbEntity
  8
Mesh_cs001
100
AcDbLine
 10
218.417
 20
137.094
 30
9.1
 11
218.101
 21
136.181
 31
9.1
  0
LINE
  5
B12
330
A02
100
AcDbEntity
  8
Mesh_cs001
100
AcDbLine
 10
218.101
 20
136.181
 30
9.1
 11
217.108
 21
133.317
 31
9.1
  0
LINE
  5
B13
330
A02
100
AcDbEntity
  8
Mesh_cs001
100
AcDbLine
 10
217.108
 20
133.317
 30
9.1
 11
216.801
 21
132.402
 31
9.1
  0
LINE
  5
B14
330
A02
100
AcDbEntity
  8
Mesh_cs001
100
AcDbLine
 10
216.801
 20
132.402
 30
9.1
 11
215.837
 21
129.528
 31
9.1
  0
LINE
  5
B15
330
A02
100
AcDbEntity
  8
Mesh_cs001
100
AcDbLine
 10
215.837
 20
129.528
 30
9.1
 11
215.538
 21
128.61
 31
9.1
  0
LINE
  5
B16
330
A02
100
AcDbEntity
  8
Mesh_cs001
100
AcDbLine
 10
215.538
 20
128.61
 30
9.1
 11
214.602
 21
125.727
 31
9.1
  0
LINE
  5
B17
330
A02
100
AcDbEntity
  8
Mesh_cs001
100
AcDbLine
 10
214.602
 20
125.727
 30
9.1
 11
214.312
 21
124.806
 31
9.1
  0
LINE
  5
B18
330
A02
100
AcDbEntity
  8
Mesh_cs001
100
AcDbLine
 10
214.312
 20
124.806
 30
9.1
 11
213.403
 21
121.914
 31
9.1
  0
LINE
  5
B19
330
A02
100
AcDbEntity
  8
Mesh_cs001
100
AcDbLine
 10
213.403
 20
121.914
 30
9.1
 11
213.123
 21
120.99
 31
9.1
  0
LINE
  5
B1A
330
A02
100
AcDbEntity
  8
Mesh_cs001
100
AcDbLine
 10
213.123
 20
120.99
 30
9.1
 11
212.242
 21
118.09
 31
9.1
  0
LINE
  5
B1B
330
A02
100
AcDbEntity
  8
Mesh_cs001
100
AcDbLine
 10
212.242
 20
118.09
 30
9.1
 11
211.39
 21
115.181
 31
9.1
  0
LINE
  5
B1C
330
A02
100
AcDbEntity
  8
Mesh_cs001
100
AcDbLine
 10
211.39
 20
115.181
 30
9.1
 11
211.118
 21
114.255
 31
9.1
  0
LINE
  5
B1D
330
A02
100
AcDbEntity
  8
Mesh_cs001
100
AcDbLine
 10
211.118
 20
114.255
 30
9.1
 11
210.855
 21
113.325
 31
9.1
  0
LINE
  5
B1E
330
A02
100
AcDbEntity
  8
Mesh_cs001
100
AcDbLine
 10
210.855
 20
113.325
 30
9.1
 11
210.031
 21
110.409
 31
9.1
  0
LINE
  5
B1F
330
A02
100
AcDbEntity
  8
Mesh_cs001
100
AcDbLine
 10
210.031
 20
110.409
 30
9.1
 11
209.777
 21
109.477
 31
9.1
  0
LINE
  5
B20
330
A02
100
AcDbEntity
  8
Mesh_cs001
100
AcDbLine
 10
209.777
 20
109.477
 30
9.1
 11
208.981
 21
106.552
 31
9.1
  0
LINE
  5
B21
330
A02
100
AcDbEntity
  8
Mesh_cs001
100
AcDbLine
 10
208.981
 20
106.552
 30
9.1
 11
208.736
 21
105.618
 31
9.1
  0
LINE
  5
B22
330
A02
100
AcDbEntity
  8
Mesh_cs001
100
AcDbLine
 10
208.736
 20
105.618
 30
9.1
 11
207.969
 21
102.686
 31
9.1
  0
LINE
  5
B23
330
A02
100
AcDbEntity
  8
Mesh_cs001
100
AcDbLine
 10
207.969
 20
102.686
 30
9.1
 11
207.733
 21
101.749
 31
9.1
  0
LINE
  5
B24
330
A02
100
AcDbEntity
  8
Mesh_cs001
100
AcDbLine
 10
207.733
 20
101.749
 30
9.1
 11
206.994
 21
98.8097
 31
9.1
  0
LINE
  5
B25
330
A02
100
AcDbEntity
  8
Mesh_cs001
100
AcDbLine
 10
206.994
 20
98.8097
 30
9.1
 11
206.767
 21
97.8708
 31
9.1
  0
LINE
  5
B26
330
A02
100
AcDbEntity
  8
Mesh_cs001
100
AcDbLine
 10
206.767
 20
97.8708
 30
9.1
 11
206.056
 21
94.9245
 31
9.1
  0
LINE
  5
B27
330
A02
100
AcDbEntity
  8
Mesh_cs001
100
AcDbLine
 10
206.056
 20
94.9245
 30
9.1
 11
205.839
 21
93.9834
 31
9.1
  0
LINE
  5
B28
330
A02
100
AcDbEntity
  8
Mesh_cs001
100
AcDbLine
 10
205.839
 20
93.9834
 30
9.1
 11
205.157
 21
91.0304
 31
9.1
  0
LINE
  5
B29
330
A02
100
AcDbEntity
  8
Mesh_cs001
100
AcDbLine
 10
205.157
 20
91.0304
 30
9.1
 11
204.948
 21
90.0872
 31
9.1
  0
LINE
  5
B2A
330
A02
100
AcDbEntity
  8
Mesh_cs001
100
AcDbLine
 10
204.948
 20
90.0872
 30
9.1
 11
204.295
 21
87.1277
 31
9.1
  0
LINE
  5
B2B
330
A02
100
AcDbEntity
  8
Mesh_cs001
100
AcDbLine
 10
204.295
 20
87.1277
 30
9.1
 11
204.095
 21
86.1826
 31
9.1
  0
LINE
  5
B2C
330
A02
100
AcDbEntity
  8
Mesh_cs001
100
AcDbLine
 10
204.095
 20
86.1826
 30
9.1
 11
203.47
 21
83.2169
 31
9.1
  0
LINE
  5
B2D
330
A02
100
AcDbEntity
  8
Mesh_cs001
100
AcDbLine
 10
203.47
 20
83.2169
 30
9.1
 11
203.28
 21
82.2699
 31
9.1
  0
LINE
  5
B2E
330
A02
100
AcDbEntity
  8
Mesh_cs001
100
AcDbLine
 10
203.28
 20
82.2699
 30
9.1
 11
202.684
 21
79.2983
 31
9.1
  0
LINE
  5
B2F
330
A02
100
AcDbEntity
  8
Mesh_cs001
100
AcDbLine
 10
202.684
 20
79.2983
 30
9.1
 11
202.503
 21
78.3495
 31
9.1
  0
LINE
  5
B30
330
A02
100
AcDbEntity
  8
Mesh_cs001
100
AcDbLine
 10
202.503
 20
78.3495
 30
9.1
 11
201.936
 21
75.3723
 31
9.1
  0
LINE
  5
B31
330
A02
100
AcDbEntity
  8
Mesh_cs001
100
AcDbLine
 10
201.936
 20
75.3723
 30
9.1
 11
201.764
 21
74.4218
 31
9.1
  0
LINE
  5
B32
330
A02
100
AcDbEntity
  8
Mesh_cs001
100
AcDbLine
 10
201.764
 20
74.4218
 30
9.1
 11
201.225
 21
71.4392
 31
9.1
  0
LINE
  5
B33
330
A02
100
AcDbEntity
  8
Mesh_cs001
100
AcDbLine
 10
201.225
 20
71.4392
 30
9.1
 11
201.063
 21
70.487
 31
9.1
  0
LINE
  5
B34
330
A02
100
AcDbEntity
  8
Mesh_cs001
100
AcDbLine
 10
201.063
 20
70.487
 30
9.1
 11
200.553
 21
67.4994
 31
9.1
  0
LINE
  5
B35
330
A02
100
AcDbEntity
  8
Mesh_cs001
100
AcDbLine
 10
200.553
 20
67.4994
 30
9.1
 11
200.4
 21
66.5457
 31
9.1
  0
LINE
  5
B36
330
A02
100
AcDbEntity
  8
Mesh_cs001
100
AcDbLine
 10
200.4
 20
66.5457
 30
9.1
 11
199.919
 21
63.5533
 31
9.1
  0
LINE
  5
B37
330
A02
100
AcDbEntity
  8
Mesh_cs001
100
AcDbLine
 10
199.919
 20
63.5533
 30
9.1
 11
199.775
 21
62.5982
 31
9.1
  0
LINE
  5
B38
330
A02
100
AcDbEntity
  8
Mesh_cs001
100
AcDbLine
 10
199.775
 20
62.5982
 30
9.1
 11
199.323
 21
59.6012
 31
9.1
  0
LINE
  5
B39
330
A02
100
AcDbEntity
  8
Mesh_cs001
100
AcDbLine
 10
199.323
 20
59.6012
 30
9.1
 11
199.188
 21
58.6448
 31
9.1
  0
LINE
  5
B3A
330
A02
100
AcDbEntity
  8
Mesh_cs001
100
AcDbLine
 10
199.188
 20
58.6448
 30
9.1
 11
198.765
 21
55.6436
 31
9.1
  0
LINE
  5
B3B
330
A02
100
AcDbEntity
  8
Mesh_cs001
100
AcDbLine
 10
198.765
 20
55.6436
 30
9.1
 11
198.64
 21
54.6859
 31
9.1
  0
LINE
  5
B3C
330
A02
100
AcDbEntity
  8
Mesh_cs001
100
AcDbLine
 10
198.64
 20
54.6859
 30
9.1
 11
198.246
 21
51.6807
 31
9.1
  0
LINE
  5
B3D
330
A02
100
AcDbEntity
  8
Mesh_cs001
100
AcDbLine
 10
198.246
 20
51.6807
 30
9.1
 11
198.13
 21
50.7219
 31
9.1
  0
LINE
  5
B3E
330
A02
100
AcDbEntity
  8
Mesh_cs001
100
AcDbLine
 10
198.13
 20
50.7219
 30
9.1
 11
197.765
 21
47.7131
 31
9.1
  0
LINE
  5
B3F
330
A02
100
AcDbEntity
  8
Mesh_cs001
100
AcDbLine
 10
197.765
 20
47.7131
 30
9.1
 11
197.658
 21
46.7531
 31
9.1
  0
LINE
  5
B40
330
A02
100
AcDbEntity
  8
Mesh_cs001
100
AcDbLine
 10
197.658
 20
46.7531
 30
9.1
 11
197.323
 21
43.7409
 31
9.1
  0
LINE
  5
B41
330
A02
100
AcDbEntity
  8
Mesh_cs001
100
AcDbLine
 10
197.323
 20
43.7409
 30
9.1
 11
197.225
 21
42.78
 31
9.1
  0
LINE
  5
B42
330
A02
100
AcDbEntity
  8
Mesh_cs001
100
AcDbLine
 10
197.225
 20
42.78
 30
9.1
 11
196.919
 21
39.7647
 31
9.1
  0
LINE
  5
B43
330
A02
100
AcDbEntity
  8
Mesh_cs001
100
AcDbLine
 10
196.919
 20
39.7647
 30
9.1
 11
196.83
 21
38.8028
 31
9.1
  0
LINE
  5
B44
330
A02
100
AcDbEntity
  8
Mesh_cs001
100
AcDbLine
 10
0.496668
 20
285.174
 30
9.1
 11
-1.94289e-15
 21
285.174
 31
9.1
  0
LINE
  5
B45
330
A02
100
AcDbEntity
  8
Mesh_cs001
100
AcDbLine
 10
-1.93333e-15
 20
285.174
 30
9.1
 11
-1.93333e-15
 21
285.671
 31
9.1
  0
LINE
  5
B46
330
A02
100
AcDbEntity
  8
Mesh_cs001
100
AcDbLine
 10
-1.93333e-15
 20
285.671
 30
9.1
 11
0
 21
300.074
 31
9.1
  0
LINE
  5
B47
330
A02
100
AcDbEntity
  8
Mesh_cs001
100
AcDbLine
 10
0
 20
300.074
 30
9.1
 11
14.4033
 21
300.074
 31
9.1
  0
LINE
  5
B48
330
A02
100
AcDbEntity
  8
Mesh_cs001
100
AcDbLine
 10
14.4033
 20
300.074
 30
9.1
 11
14.9
 21
300.074
 31
9.1
  0
LINE
  5
B49
330
A02
100
AcDbEntity
  8
Mesh_cs001
100
AcDbLine
 10
14.9
 20
300.074
 30
9.1
 11
14.9
 21
299.577
 31
9.1
  0
LINE
  5
B4A
330
A02
100
AcDbEntity
  8
Mesh_cs001
100
AcDbLine
 10
14.9
 20
299.577
 30
9.1
 11
14.9
 21
285.174
 31
9.1
  0
LINE
  5
B4B
330
A02
100
AcDbEntity
  8
Mesh_cs001
100
AcDbLine
 10
14.9
 20
285.174
 30
9.1
 11
0.496668
 21
285.174
 31
9.1
  0
LINE
  5
B4C
330
A02
100
AcDbEntity
  8
Mesh_cs001
100
AcDbLine
 10
180.1
 20
14.4033
 30
9.1
 11
180.1
 21
14.9
 31
9.1
  0
LINE
  5
B4D
330
A02
100
AcDbEntity
  8
Mesh_cs001
100
AcDbLine
 10
180.1
 20
14.9
 30
9.1
 11
194.503
 21
14.9
 31
9.1
  0
LINE
  5
B4E
330
A02
100
AcDbEntity
  8
Mesh_cs001
100
AcDbLine
 10
194.503
 20
14.9
 30
9.1
 11
195
 21
14.9
 31
9.1
  0
LINE
  5
B4F
330
A02
100
AcDbEntity
  8
Mesh_cs001
100
AcDbLine
 10
195
 20
14.9
 30
9.1
 11
195
 21
14.4033
 31
9.1
  0
LINE
  5
B50
330
A02
100
AcDbEntity
  8
Mesh_cs001
100
AcDbLine
 10
195
 20
14.4033
 30
9.1
 11
195
 21
5.15143e-14
 31
9.1
  0
LINE
  5
B51
330
A02
100
AcDbEntity
  8
Mesh_cs001
100
AcDbLine
 10
195
 20
5.1e-14
 30
9.1
 11
180.597
 21
5.1e-14
 31
9.1
  0
LINE
  5
B52
330
A02
100
AcDbEntity
  8
Mesh_cs001
100
AcDbLine
 10
180.597
 20
5.1e-14
 30
9.1
 11
180.1
 21
5.1e-14
 31
9.1
  0
LINE
  5
B53
330
A02
100
AcDbEntity
  8
Mesh_cs001
100
AcDbLine
 10
180.1
 20
5.1e-14
 30
9.1
 11
180.1
 21
14.4033
 31
9.1
  0
LINE
  5
B54
330
A02
100
AcDbEntity
  8
Mesh_cs001
100
AcDbLine
 10
14.4033
 20
14.9
 30
9.1
 11
14.9
 21
14.9
 31
9.1
  0
LINE
  5
B55
330
A02
100
AcDbEntity
  8
Mesh_cs001
100
AcDbLine
 10
14.9
 20
14.9
 30
9.1
 11
14.9
 21
0.496668
 31
9.1
  0
LINE
  5
B56
330
A02
100
AcDbEntity
  8
Mesh_cs001
100
AcDbLine
 10
14.9
 20
0.496668
 30
9.1
 11
14.9
 21
5.10147e-14
 31
9.1
  0
LINE
  5
B57
330
A02
100
AcDbEntity
  8
Mesh_cs001
100
AcDbLine
 10
14.9
 20
5.1e-14
 30
9.1
 11
14.4033
 21
5.11e-14
 31
9.1
  0
LINE
  5
B58
330
A02
100
AcDbEntity
  8
Mesh_cs001
100
AcDbLine
 10
14.4033
 20
5.11e-14
 30
9.1
 11
0
 21
5.4e-14
 31
9.1
  0
LINE
  5
B59
330
A02
100
AcDbEntity
  8
Mesh_cs001
100
AcDbLine
 10
0
 20
5.4e-14
 30
9.1
 11
0
 21
14.4033
 31
9.1
  0
LINE
  5
B5A
330
A02
100
AcDbEntity
  8
Mesh_cs001
100
AcDbLine
 10
0
 20
14.4033
 30
9.1
 11
0
 21
14.9
 31
9.1
  0
LINE
  5
B5B
330
A02
100
AcDbEntity
  8
Mesh_cs001
100
AcDbLine
 10
0
 20
14.9
 30
9.1
 11
14.4033
 21
14.9
 31
9.1
  0
ENDSEC
  0
SECTION
  2
OBJECTS
  0
DICTIONARY
  5
F000
330
0
100
AcDbDictionary
  3
ACAD_GROUP
350
F001
  0
DICTIONARY
  5
F001
330
F000
100
AcDbDictionary
  0
ENDSEC
  0
EOF