999
FreeCAD v0.21 33771 (Git)
  0
SECTION
  2
HEADER
  9
$ACADVER
  1
AC1014
  9
$ACADMAINTVER
 70
     9
  9
$DWGCODEPAGE
  3
ANSI_1252
  9
$TEXTSTYLE
  7
STANDARD
  9
$DIMSTYLE
  2
STANDARD
  9
$DIMTXSTY
  7
STANDARD
  9
$CMLSTYLE
  2
STANDARD
  9
$LUNITS
 70
2
  9
$INSUNITS
 70
4
  9
$PEXTMAX
 10
50
 20
50
 30
50
  9
$PEXTMIN
 10
0
 20
0
 30
0
  9
$HANDSEED
  5
FFFF
  0
ENDSEC
  0
SECTION
  2
CLASSES
  0
CLASS
  1
ACDBDICTIONARYWDFLT
  2
AcDbDictionaryWithDefault
  3
ObjectDBX Classes
 90
        0
280
     0
281
     0
  0
CLASS
  1
XRECORD
  2
AcDbXrecord
  3
ObjectDBX Classes
 90
        0
280
     0
281
     0
  0
CLASS
  1
LWPOLYLINE
  2
AcDbPolyline
  3
ObjectDBX Classes
 90
        0
280
     0
281
     1
  0
ENDSEC
  0
SECTION
  2
TABLES
  0
TABLE
  2
VPORT
  5
20
330
0
100
AcDbSymbolTable
 70
     1
  0
VPORT
  5
21
330
20
100
AcDbSymbolTableRecord
100
AcDbViewportTableRecord
  2
*ACTIVE
 70
     0
  0
ENDTAB
  0
TABLE
  2
LTYPE
  5
22
330
0
100
AcDbSymbolTable
 70
     1
  0
LTYPE
  5
23
330
21
100
AcDbSymbolTableRecord
100
AcDbLinetypeTableRecord
  2
BYBLOCK
 70
     0
  3

 72
    65
 73
     0
 40
0.0
  0
LTYPE
  5
24
330
21
100
AcDbSymbolTableRecord
100
AcDbLinetypeTableRecord
  2
BYLAYER
 70
     0
  3

 72
    65
 73
     0
 40
0.0
  0
LTYPE
  5
25
330
21
100
AcDbSymbolTableRecord
100
AcDbLinetypeTableRecord
  2
CONTINUOUS
 70
     0
  3
Solid line
 72
    65
 73
     0
 40
0.0
  0
ENDTAB
  0
TABLE
  2
LAYER
  5
B69
330
0
100
AcDbSymbolTable
 70
3
  0
LAYER
  5
B6A
330
B69
100
AcDbSymbolTableRecord
100
AcDbLayerTableRecord
  2
0
 70
   0
 62
   7
  6
CONTINUOUS
  0
LAYER
  5
B6B
330
B69
100
AcDbSymbolTableRecord
100
AcDbLayerTableRecord
  2
none
 70
    0
 62
    7
  6
CONTINUOUS
  0
LAYER
  5
B6C
330
B69
100
AcDbSymbolTableRecord
100
AcDbLayerTableRecord
  2
Mesh_cs002
 70
    0
 62
    7
  6
CONTINUOUS
  0
ENDTAB
  0
TABLE
  2
STYLE
  5
70
330
0
100
AcDbSymbolTable
 70
     2
  0
STYLE
  5
71
330
70
100
AcDbSymbolTableRecord
100
AcDbTextStyleTableRecord
  2
STANDARD
 70
     0
 40
0.0
 41
1.0
 50
0.0
 71
     0
 42
2.5
  3
arial.ttf
  4

  0
STYLE
  5
72
330
70
100
AcDbSymbolTableRecord
100
AcDbTextStyleTableRecord
  2
ANNOTATIVE
 70
     0
 40
0.0
 41
1.0
 50
0.0
 71
     0
 42
2.5
  3
arial.ttf
  4

  0
ENDTAB
  0
TABLE
  2
VIEW
  5
73
330
0
100
AcDbSymbolTable
 70
     0
  0
ENDTAB
  0
TABLE
  2
UCS
  5
74
330
0
100
AcDbSymbolTable
 70
     0
  0
ENDTAB
  0
TABLE
  2
APPID
  5
75
330
0
100
AcDbSymbolTable
 70
     2
  0
APPID
  5
76
330
75
100
AcDbSymbolTableRecord
100
AcDbRegAppTableRecord
  2
ACAD
 70
     0
  0
APPID
  5
77
330
75
100
AcDbSymbolTableRecord
100
AcDbRegAppTableRecord
  2
ACADANNOTATIVE
 70
     0
  0
ENDTAB
  0
TABLE
  2
DIMSTYLE
  5
78
330
0
100
AcDbSymbolTable
 70
     2
  0
DIMSTYLE
105
79
330
78
100
AcDbSymbolTableRecord
100
AcDbDimStyleTableRecord
  2
STANDARD
 70
     0
  3

  4

  5

  6

  7

 40
0.0
 41
2.5
 42
0.625
 43
3.75
 44
1.25
 45
0.0
 46
0.0
 47
0.0
 48
0.0
140
2.5
141
2.5
142
0.0
143
0.03937007874016
144
1.0
145
0.0
146
1.0
147
0.625
 71
     0
 72
     0
 73
     0
 74
     0
 75
     0
 76
     0
 77
     1
 78
     8
170
     0
171
     3
172
     1
173
     0
174
     0
175
     0
176
     0
177
     0
178
     0
270
     2
271
     2
272
     2
273
     2
274
     3
340
71
275
     0
280
     0
281
     0
282
     0
283
     0
284
     8
285
     0
286
     0
287
     3
288
     0
  0
ENDTAB
  0
TABLE
  2
BLOCK_RECORD
  5
A01
330
0
100
AcDbSymbolTable
  70
5
  0
BLOCK_RECORD
  5
A02
330
A01
100
AcDbSymbolTableRecord
100
AcDbBlockTableRecord
  2
*MODEL_SPACE
  0
BLOCK_RECORD
  5
A03
330
A01
100
AcDbSymbolTableRecord
100
AcDbBlockTableRecord
  2
*PAPER_SPACE
  0
ENDTAB
  0
ENDSEC
  0
SECTION
  2
BLOCKS
  0
BLOCK
  5
A04
330
A02
100
AcDbEntity
  8
0
100
AcDbBlockBegin
  2
*MODEL_SPACE
 70
   0
 10
0
 20
0
 30
0
  3
*MODEL_SPACE
  1
 
  0
ENDBLK
  5
A05
330
A02
100
AcDbEntity
  8
0
100
AcDbBlockEnd
  0
BLOCK
  5
A06
330
A03
100
AcDbEntity
 67
1
  8
0
100
AcDbBlockBegin
  2
*PAPER_SPACE
 70
   0
 10
0
 20
0
 30
0
  3
*PAPER_SPACE
  1
 
  0
ENDBLK
  5
A07
330
A03
100
AcDbEntity
 67
    1
  8
0
100
AcDbBlockEnd
  0
ENDSEC
  0
SECTION
  2
ENTITIES
  0
LINE
  5
A08
330
A02
100
AcDbEntity
  8
Mesh_cs002
100
AcDbLine
 10
195.898
 20
299.422
 30
5.1
 11
230.744
 21
274.105
 31
5.1
  0
LINE
  5
A09
330
A02
100
AcDbEntity
  8
Mesh_cs002
100
AcDbLine
 10
230.744
 20
274.105
 30
5.1
 11
243.872
 21
264.567
 31
5.1
  0
LINE
  5
A0A
330
A02
100
AcDbEntity
  8
Mesh_cs002
100
AcDbLine
 10
243.872
 20
264.567
 30
5.1
 11
262.464
 21
251.059
 31
5.1
  0
LINE
  5
A0B
330
A02
100
AcDbEntity
  8
Mesh_cs002
100
AcDbLine
 10
262.464
 20
251.059
 30
5.1
 11
267.048
 21
247.728
 31
5.1
  0
LINE
  5
A0C
330
A02
100
AcDbEntity
  8
Mesh_cs002
100
AcDbLine
 10
267.048
 20
247.728
 30
5.1
 11
273.879
 21
242.765
 31
5.1
  0
LINE
  5
A0D
330
A02
100
AcDbEntity
  8
Mesh_cs002
100
AcDbLine
 10
273.879
 20
242.765
 30
5.1
 11
268.916
 21
235.934
 31
5.1
  0
LINE
  5
A0E
330
A02
100
AcDbEntity
  8
Mesh_cs002
100
AcDbLine
 10
268.916
 20
235.934
 30
5.1
 11
262.574
 21
227.205
 31
5.1
  0
LINE
  5
A0F
330
A02
100
AcDbEntity
  8
Mesh_cs002
100
AcDbLine
 10
262.574
 20
227.205
 30
5.1
 11
259.243
 21
222.621
 31
5.1
  0
LINE
  5
A10
330
A02
100
AcDbEntity
  8
Mesh_cs002
100
AcDbLine
 10
259.243
 20
222.621
 30
5.1
 11
258.796
 21
221.848
 31
5.1
  0
LINE
  5
A11
330
A02
100
AcDbEntity
  8
Mesh_cs002
100
AcDbLine
 10
258.796
 20
221.848
 30
5.1
 11
258.727
 21
221.729
 31
5.1
  0
LINE
  5
A12
330
A02
100
AcDbEntity
  8
Mesh_cs002
100
AcDbLine
 10
258.727
 20
221.729
 30
5.1
 11
258.649
 21
221.491
 31
5.1
  0
LINE
  5
A13
330
A02
100
AcDbEntity
  8
Mesh_cs002
100
AcDbLine
 10
258.649
 20
221.491
 30
5.1
 11
258.505
 21
221.12
 31
5.1
  0
LINE
  5
A14
330
A02
100
AcDbEntity
  8
Mesh_cs002
100
AcDbLine
 10
258.505
 20
221.12
 30
5.1
 11
258.442
 21
220.898
 31
5.1
  0
LINE
  5
A15
330
A02
100
AcDbEntity
  8
Mesh_cs002
100
AcDbLine
 10
258.442
 20
220.898
 30
5.1
 11
258.37
 21
220.458
 31
5.1
  0
LINE
  5
A16
330
A02
100
AcDbEntity
  8
Mesh_cs002
100
AcDbLine
 10
258.37
 20
220.458
 30
5.1
 11
258.288
 21
219.711
 31
5.1
  0
LINE
  5
A17
330
A02
100
AcDbEntity
  8
Mesh_cs002
100
AcDbLine
 10
258.288
 20
219.711
 30
5.1
 11
254.488
 21
213.449
 31
5.1
  0
LINE
  5
A18
330
A02
100
AcDbEntity
  8
Mesh_cs002
100
AcDbLine
 10
254.488
 20
213.449
 30
5.1
 11
251.679
 21
208.821
 31
5.1
  0
LINE
  5
A19
330
A02
100
AcDbEntity
  8
Mesh_cs002
100
AcDbLine
 10
251.679
 20
208.821
 30
5.1
 11
248.073
 21
202.445
 31
5.1
  0
LINE
  5
A1A
330
A02
100
AcDbEntity
  8
Mesh_cs002
100
AcDbLine
 10
248.073
 20
202.445
 30
5.1
 11
245.408
 21
197.732
 31
5.1
  0
LINE
  5
A1B
330
A02
100
AcDbEntity
  8
Mesh_cs002
100
AcDbLine
 10
245.408
 20
197.732
 30
5.1
 11
242.001
 21
191.248
 31
5.1
  0
LINE
  5
A1C
330
A02
100
AcDbEntity
  8
Mesh_cs002
100
AcDbLine
 10
242.001
 20
191.248
 30
5.1
 11
239.483
 21
186.455
 31
5.1
  0
LINE
  5
A1D
330
A02
100
AcDbEntity
  8
Mesh_cs002
100
AcDbLine
 10
239.483
 20
186.455
 30
5.1
 11
237.113
 21
181.587
 31
5.1
  0
LINE
  5
A1E
330
A02
100
AcDbEntity
  8
Mesh_cs002
100
AcDbLine
 10
237.113
 20
181.587
 30
5.1
 11
233.908
 21
175
 31
5.1
  0
LINE
  5
A1F
330
A02
100
AcDbEntity
  8
Mesh_cs002
100
AcDbLine
 10
233.908
 20
175
 30
5.1
 11
230.907
 21
168.318
 31
5.1
  0
LINE
  5
A20
330
A02
100
AcDbEntity
  8
Mesh_cs002
100
AcDbLine
 10
230.907
 20
168.318
 30
5.1
 11
228.688
 21
163.38
 31
5.1
  0
LINE
  5
A21
330
A02
100
AcDbEntity
  8
Mesh_cs002
100
AcDbLine
 10
228.688
 20
163.38
 30
5.1
 11
225.895
 21
156.608
 31
5.1
  0
LINE
  5
A22
330
A02
100
AcDbEntity
  8
Mesh_cs002
100
AcDbLine
 10
225.895
 20
156.608
 30
5.1
 11
223.83
 21
151.603
 31
5.1
  0
LINE
  5
A23
330
A02
100
AcDbEntity
  8
Mesh_cs002
100
AcDbLine
 10
223.83
 20
151.603
 30
5.1
 11
221.921
 21
146.537
 31
5.1
  0
LINE
  5
A24
330
A02
100
AcDbEntity
  8
Mesh_cs002
100
AcDbLine
 10
221.921
 20
146.537
 30
5.1
 11
219.337
 21
139.683
 31
5.1
  0
LINE
  5
A25
330
A02
100
AcDbEntity
  8
Mesh_cs002
100
AcDbLine
 10
219.337
 20
139.683
 30
5.1
 11
216.967
 21
132.752
 31
5.1
  0
LINE
  5
A26
330
A02
100
AcDbEntity
  8
Mesh_cs002
100
AcDbLine
 10
216.967
 20
132.752
 30
5.1
 11
215.214
 21
127.629
 31
5.1
  0
LINE
  5
A27
330
A02
100
AcDbEntity
  8
Mesh_cs002
100
AcDbLine
 10
215.214
 20
127.629
 30
5.1
 11
213.059
 21
120.629
 31
5.1
  0
LINE
  5
A28
330
A02
100
AcDbEntity
  8
Mesh_cs002
100
AcDbLine
 10
213.059
 20
120.629
 30
5.1
 11
211.465
 21
115.454
 31
5.1
  0
LINE
  5
A29
330
A02
100
AcDbEntity
  8
Mesh_cs002
100
AcDbLine
 10
211.465
 20
115.454
 30
5.1
 11
210.032
 21
110.233
 31
5.1
  0
LINE
  5
A2A
330
A02
100
AcDbEntity
  8
Mesh_cs002
100
AcDbLine
 10
210.032
 20
110.233
 30
5.1
 11
208.093
 21
103.17
 31
5.1
  0
LINE
  5
A2B
330
A02
100
AcDbEntity
  8
Mesh_cs002
100
AcDbLine
 10
208.093
 20
103.17
 30
5.1
 11
206.373
 21
96.0494
 31
5.1
  0
LINE
  5
A2C
330
A02
100
AcDbEntity
  8
Mesh_cs002
100
AcDbLine
 10
206.373
 20
96.0494
 30
5.1
 11
205.102
 21
90.7867
 31
5.1
  0
LINE
  5
A2D
330
A02
100
AcDbEntity
  8
Mesh_cs002
100
AcDbLine
 10
205.102
 20
90.7867
 30
5.1
 11
203.602
 21
83.6169
 31
5.1
  0
LINE
  5
A2E
330
A02
100
AcDbEntity
  8
Mesh_cs002
100
AcDbLine
 10
203.602
 20
83.6169
 30
5.1
 11
202.493
 21
78.3175
 31
5.1
  0
LINE
  5
A2F
330
A02
100
AcDbEntity
  8
Mesh_cs002
100
AcDbLine
 10
202.493
 20
78.3175
 30
5.1
 11
201.215
 21
71.1048
 31
5.1
  0
LINE
  5
A30
330
A02
100
AcDbEntity
  8
Mesh_cs002
100
AcDbLine
 10
201.215
 20
71.1048
 30
5.1
 11
200.271
 21
65.7737
 31
5.1
  0
LINE
  5
A31
330
A02
100
AcDbEntity
  8
Mesh_cs002
100
AcDbLine
 10
200.271
 20
65.7737
 30
5.1
 11
199.216
 21
58.5251
 31
5.1
  0
LINE
  5
A32
330
A02
100
AcDbEntity
  8
Mesh_cs002
100
AcDbLine
 10
199.216
 20
58.5251
 30
5.1
 11
198.436
 21
53.1674
 31
5.1
  0
LINE
  5
A33
330
A02
100
AcDbEntity
  8
Mesh_cs002
100
AcDbLine
 10
198.436
 20
53.1674
 30
5.1
 11
197.606
 21
45.8897
 31
5.1
  0
LINE
  5
A34
330
A02
100
AcDbEntity
  8
Mesh_cs002
100
AcDbLine
 10
197.606
 20
45.8897
 30
5.1
 11
196.992
 21
40.5105
 31
5.1
  0
LINE
  5
A35
330
A02
100
AcDbEntity
  8
Mesh_cs002
100
AcDbLine
 10
196.992
 20
40.5105
 30
5.1
 11
196.544
 21
35.1149
 31
5.1
  0
LINE
  5
A36
330
A02
100
AcDbEntity
  8
Mesh_cs002
100
AcDbLine
 10
196.544
 20
35.1149
 30
5.1
 11
195.938
 21
27.8151
 31
5.1
  0
LINE
  5
A37
330
A02
100
AcDbEntity
  8
Mesh_cs002
100
AcDbLine
 10
195.938
 20
27.8151
 30
5.1
 11
195.719
 21
27.4328
 31
5.1
  0
LINE
  5
A38
330
A02
100
AcDbEntity
  8
Mesh_cs002
100
AcDbLine
 10
195.719
 20
27.4328
 30
5.1
 11
195.424
 21
26.9157
 31
5.1
  0
LINE
  5
A39
330
A02
100
AcDbEntity
  8
Mesh_cs002
100
AcDbLine
 10
195.424
 20
26.9157
 30
5.1
 11
195.242
 21
26.3489
 31
5.1
  0
LINE
  5
A3A
330
A02
100
AcDbEntity
  8
Mesh_cs002
100
AcDbLine
 10
195.242
 20
26.3489
 30
5.1
 11
195.107
 21
25.93
 31
5.1
  0
LINE
  5
A3B
330
A02
100
AcDbEntity
  8
Mesh_cs002
100
AcDbLine
 10
195.107
 20
25.93
 30
5.1
 11
195.046
 21
25.3463
 31
5.1
  0
LINE
  5
A3C
330
A02
100
AcDbEntity
  8
Mesh_cs002
100
AcDbLine
 10
195.046
 20
25.3463
 30
5.1
 11
195
 21
24.9
 31
5.1
  0
LINE
  5
A3D
330
A02
100
AcDbEntity
  8
Mesh_cs002
100
AcDbLine
 10
195
 20
24.9
 30
5.1
 11
195
 21
19.2333
 31
5.1
  0
LINE
  5
A3E
330
A02
100
AcDbEntity
  8
Mesh_cs002
100
AcDbLine
 10
195
 20
19.2333
 30
5.1
 11
195
 21
8.44333
 31
5.1
  0
LINE
  5
A3F
330
A02
100
AcDbEntity
  8
Mesh_cs002
100
AcDbLine
 10
195
 20
8.44333
 30
5.1
 11
195
 21
-1.77636e-15
 31
5.1
  0
LINE
  5
A40
330
A02
100
AcDbEntity
  8
Mesh_cs002
100
AcDbLine
 10
195
 20
-2.125e-15
 30
5.1
 11
186.557
 21
-1.13333e-15
 31
5.1
  0
LINE
  5
A41
330
A02
100
AcDbEntity
  8
Mesh_cs002
100
AcDbLine
 10
186.557
 20
-1.13333e-15
 30
5.1
 11
180.89
 21
-3.96667e-15
 31
5.1
  0
LINE
  5
A42
330
A02
100
AcDbEntity
  8
Mesh_cs002
100
AcDbLine
 10
180.89
 20
-3.96667e-15
 30
5.1
 11
157.909
 21
-2.31818e-15
 31
5.1
  0
LINE
  5
A43
330
A02
100
AcDbEntity
  8
Mesh_cs002
100
AcDbLine
 10
157.909
 20
-2.31818e-15
 30
5.1
 11
141.682
 21
-2.31818e-15
 31
5.1
  0
LINE
  5
A44
330
A02
100
AcDbEntity
  8
Mesh_cs002
100
AcDbLine
 10
141.682
 20
-2.31818e-15
 30
5.1
 11
98.61
 21
-2.26667e-15
 31
5.1
  0
LINE
  5
A45
330
A02
100
AcDbEntity
  8
Mesh_cs002
100
AcDbLine
 10
98.61
 20
-2.26667e-15
 30
5.1
 11
14.11
 21
1.37667e-14
 31
5.1
  0
LINE
  5
A46
330
A02
100
AcDbEntity
  8
Mesh_cs002
100
AcDbLine
 10
14.11
 20
1.37667e-14
 30
5.1
 11
8.44333
 21
1.49e-14
 31
5.1
  0
LINE
  5
A47
330
A02
100
AcDbEntity
  8
Mesh_cs002
100
AcDbLine
 10
8.44333
 20
1.49e-14
 30
5.1
 11
0
 21
3.6575e-14
 31
5.1
  0
LINE
  5
A48
330
A02
100
AcDbEntity
  8
Mesh_cs002
100
AcDbLine
 10
0
 20
3.6575e-14
 30
5.1
 11
0
 21
8.44333
 31
5.1
  0
LINE
  5
A49
330
A02
100
AcDbEntity
  8
Mesh_cs002
100
AcDbLine
 10
0
 20
8.44333
 30
5.1
 11
-4.33333e-16
 21
19.2333
 31
5.1
  0
LINE
  5
A4A
330
A02
100
AcDbEntity
  8
Mesh_cs002
100
AcDbLine
 10
-4.33333e-16
 20
19.2333
 30
5.1
 11
-1e-15
 21
24.9
 31
5.1
  0
LINE
  5
A4B
330
A02
100
AcDbEntity
  8
Mesh_cs002
100
AcDbLine
 10
-1e-15
 20
24.9
 30
5.1
 11
0.134231
 21
25.1985
 31
5.1
  0
LINE
  5
A4C
330
A02
100
AcDbEntity
  8
Mesh_cs002
100
AcDbLine
 10
0.134231
 20
25.1985
 30
5.1
 11
0.309764
 21
25.5889
 31
5.1
  0
LINE
  5
A4D
330
A02
100
AcDbEntity
  8
Mesh_cs002
100
AcDbLine
 10
0.309764
 20
25.5889
 30
5.1
 11
0.426176
 21
26.0073
 31
5.1
  0
LINE
  5
A4E
330
A02
100
AcDbEntity
  8
Mesh_cs002
100
AcDbLine
 10
0.426176
 20
26.0073
 30
5.1
 11
0.512219
 21
26.3166
 31
5.1
  0
LINE
  5
A4F
330
A02
100
AcDbEntity
  8
Mesh_cs002
100
AcDbLine
 10
0.512219
 20
26.3166
 30
5.1
 11
0.564272
 21
26.7478
 31
5.1
  0
LINE
  5
A50
330
A02
100
AcDbEntity
  8
Mesh_cs002
100
AcDbLine
 10
0.564272
 20
26.7478
 30
5.1
 11
0.602746
 21
27.0665
 31
5.1
  0
LINE
  5
A51
330
A02
100
AcDbEntity
  8
Mesh_cs002
100
AcDbLine
 10
0.602746
 20
27.0665
 30
5.1
 11
1.08911
 21
35.622
 31
5.1
  0
LINE
  5
A52
330
A02
100
AcDbEntity
  8
Mesh_cs002
100
AcDbLine
 10
1.08911
 20
35.622
 30
5.1
 11
1.44859
 21
41.9456
 31
5.1
  0
LINE
  5
A53
330
A02
100
AcDbEntity
  8
Mesh_cs002
100
AcDbLine
 10
1.44859
 20
41.9456
 30
5.1
 11
2.14449
 21
50.4866
 31
5.1
  0
LINE
  5
A54
330
A02
100
AcDbEntity
  8
Mesh_cs002
100
AcDbLine
 10
2.14449
 20
50.4866
 30
5.1
 11
2.65885
 21
56.7995
 31
5.1
  0
LINE
  5
A55
330
A02
100
AcDbEntity
  8
Mesh_cs002
100
AcDbLine
 10
2.65885
 20
56.7995
 30
5.1
 11
3.56388
 21
65.3209
 31
5.1
  0
LINE
  5
A56
330
A02
100
AcDbEntity
  8
Mesh_cs002
100
AcDbLine
 10
3.56388
 20
65.3209
 30
5.1
 11
4.23281
 21
71.6193
 31
5.1
  0
LINE
  5
A57
330
A02
100
AcDbEntity
  8
Mesh_cs002
100
AcDbLine
 10
4.23281
 20
71.6193
 30
5.1
 11
5.05592
 21
77.8994
 31
5.1
  0
LINE
  5
A58
330
A02
100
AcDbEntity
  8
Mesh_cs002
100
AcDbLine
 10
5.05592
 20
77.8994
 30
5.1
 11
6.16952
 21
86.3961
 31
5.1
  0
LINE
  5
A59
330
A02
100
AcDbEntity
  8
Mesh_cs002
100
AcDbLine
 10
6.16952
 20
86.3961
 30
5.1
 11
7.1463
 21
92.6541
 31
5.1
  0
LINE
  5
A5A
330
A02
100
AcDbEntity
  8
Mesh_cs002
100
AcDbLine
 10
7.1463
 20
92.6541
 30
5.1
 11
8.46782
 21
101.121
 31
5.1
  0
LINE
  5
A5B
330
A02
100
AcDbEntity
  8
Mesh_cs002
100
AcDbLine
 10
8.46782
 20
101.121
 30
5.1
 11
9.99645
 21
109.553
 31
5.1
  0
LINE
  5
A5C
330
A02
100
AcDbEntity
  8
Mesh_cs002
100
AcDbLine
 10
9.99645
 20
109.553
 30
5.1
 11
11.1263
 21
115.785
 31
5.1
  0
LINE
  5
A5D
330
A02
100
AcDbEntity
  8
Mesh_cs002
100
AcDbLine
 10
11.1263
 20
115.785
 30
5.1
 11
12.8612
 21
124.177
 31
5.1
  0
LINE
  5
A5E
330
A02
100
AcDbEntity
  8
Mesh_cs002
100
AcDbLine
 10
12.8612
 20
124.177
 30
5.1
 11
14.1434
 21
130.38
 31
5.1
  0
LINE
  5
A5F
330
A02
100
AcDbEntity
  8
Mesh_cs002
100
AcDbLine
 10
14.1434
 20
130.38
 30
5.1
 11
16.0834
 21
138.726
 31
5.1
  0
LINE
  5
A60
330
A02
100
AcDbEntity
  8
Mesh_cs002
100
AcDbLine
 10
16.0834
 20
138.726
 30
5.1
 11
17.5173
 21
144.896
 31
5.1
  0
LINE
  5
A61
330
A02
100
AcDbEntity
  8
Mesh_cs002
100
AcDbLine
 10
17.5173
 20
144.896
 30
5.1
 11
19.102
 21
151.028
 31
5.1
  0
LINE
  5
A62
330
A02
100
AcDbEntity
  8
Mesh_cs002
100
AcDbLine
 10
19.102
 20
151.028
 30
5.1
 11
21.246
 21
159.325
 31
5.1
  0
LINE
  5
A63
330
A02
100
AcDbEntity
  8
Mesh_cs002
100
AcDbLine
 10
21.246
 20
159.325
 30
5.1
 11
23.5927
 21
167.567
 31
5.1
  0
LINE
  5
A64
330
A02
100
AcDbEntity
  8
Mesh_cs002
100
AcDbLine
 10
23.5927
 20
167.567
 30
5.1
 11
25.3272
 21
173.658
 31
5.1
  0
LINE
  5
A65
330
A02
100
AcDbEntity
  8
Mesh_cs002
100
AcDbLine
 10
25.3272
 20
173.658
 30
5.1
 11
27.8752
 21
181.84
 31
5.1
  0
LINE
  5
A66
330
A02
100
AcDbEntity
  8
Mesh_cs002
100
AcDbLine
 10
27.8752
 20
181.84
 30
5.1
 11
29.7585
 21
187.887
 31
5.1
  0
LINE
  5
A67
330
A02
100
AcDbEntity
  8
Mesh_cs002
100
AcDbLine
 10
29.7585
 20
187.887
 30
5.1
 11
32.5062
 21
196.004
 31
5.1
  0
LINE
  5
A68
330
A02
100
AcDbEntity
  8
Mesh_cs002
100
AcDbLine
 10
32.5062
 20
196.004
 30
5.1
 11
34.5371
 21
202.004
 31
5.1
  0
LINE
  5
A69
330
A02
100
AcDbEntity
  8
Mesh_cs002
100
AcDbLine
 10
34.5371
 20
202.004
 30
5.1
 11
37.483
 21
210.051
 31
5.1
  0
LINE
  5
A6A
330
A02
100
AcDbEntity
  8
Mesh_cs002
100
AcDbLine
 10
37.483
 20
210.051
 30
5.1
 11
39.6604
 21
215.999
 31
5.1
  0
LINE
  5
A6B
330
A02
100
AcDbEntity
  8
Mesh_cs002
100
AcDbLine
 10
39.6604
 20
215.999
 30
5.1
 11
42.8026
 21
223.971
 31
5.1
  0
LINE
  5
A6C
330
A02
100
AcDbEntity
  8
Mesh_cs002
100
AcDbLine
 10
42.8026
 20
223.971
 30
5.1
 11
45.125
 21
229.864
 31
5.1
  0
LINE
  5
A6D
330
A02
100
AcDbEntity
  8
Mesh_cs002
100
AcDbLine
 10
45.125
 20
229.864
 30
5.1
 11
48.4617
 21
237.757
 31
5.1
  0
LINE
  5
A6E
330
A02
100
AcDbEntity
  8
Mesh_cs002
100
AcDbLine
 10
48.4617
 20
237.757
 30
5.1
 11
50.9279
 21
243.591
 31
5.1
  0
LINE
  5
A6F
330
A02
100
AcDbEntity
  8
Mesh_cs002
100
AcDbLine
 10
50.9279
 20
243.591
 30
5.1
 11
54.457
 21
251.4
 31
5.1
  0
LINE
  5
A70
330
A02
100
AcDbEntity
  8
Mesh_cs002
100
AcDbLine
 10
54.457
 20
251.4
 30
5.1
 11
57.0655
 21
257.171
 31
5.1
  0
LINE
  5
A71
330
A02
100
AcDbEntity
  8
Mesh_cs002
100
AcDbLine
 10
57.0655
 20
257.171
 30
5.1
 11
59.8146
 21
262.877
 31
5.1
  0
LINE
  5
A72
330
A02
100
AcDbEntity
  8
Mesh_cs002
100
AcDbLine
 10
59.8146
 20
262.877
 30
5.1
 11
63.5341
 21
270.597
 31
5.1
  0
LINE
  5
A73
330
A02
100
AcDbEntity
  8
Mesh_cs002
100
AcDbLine
 10
63.5341
 20
270.597
 30
5.1
 11
66.4222
 21
276.234
 31
5.1
  0
LINE
  5
A74
330
A02
100
AcDbEntity
  8
Mesh_cs002
100
AcDbLine
 10
66.4222
 20
276.234
 30
5.1
 11
70.3298
 21
283.861
 31
5.1
  0
LINE
  5
A75
330
A02
100
AcDbEntity
  8
Mesh_cs002
100
AcDbLine
 10
70.3298
 20
283.861
 30
5.1
 11
74.423
 21
291.389
 31
5.1
  0
LINE
  5
A76
330
A02
100
AcDbEntity
  8
Mesh_cs002
100
AcDbLine
 10
74.423
 20
291.389
 30
5.1
 11
77.4485
 21
296.954
 31
5.1
  0
LINE
  5
A77
330
A02
100
AcDbEntity
  8
Mesh_cs002
100
AcDbLine
 10
77.4485
 20
296.954
 30
5.1
 11
81.7251
 21
304.38
 31
5.1
  0
LINE
  5
A78
330
A02
100
AcDbEntity
  8
Mesh_cs002
100
AcDbLine
 10
81.7251
 20
304.38
 30
5.1
 11
84.886
 21
309.869
 31
5.1
  0
LINE
  5
A79
330
A02
100
AcDbEntity
  8
Mesh_cs002
100
AcDbLine
 10
84.886
 20
309.869
 30
5.1
 11
89.3433
 21
317.187
 31
5.1
  0
LINE
  5
A7A
330
A02
100
AcDbEntity
  8
Mesh_cs002
100
AcDbLine
 10
89.3433
 20
317.187
 30
5.1
 11
92.6378
 21
322.597
 31
5.1
  0
LINE
  5
A7B
330
A02
100
AcDbEntity
  8
Mesh_cs002
100
AcDbLine
 10
92.6378
 20
322.597
 30
5.1
 11
96.0639
 21
327.924
 31
5.1
  0
LINE
  5
A7C
330
A02
100
AcDbEntity
  8
Mesh_cs002
100
AcDbLine
 10
96.0639
 20
327.924
 30
5.1
 11
100.699
 21
335.132
 31
5.1
  0
LINE
  5
A7D
330
A02
100
AcDbEntity
  8
Mesh_cs002
100
AcDbLine
 10
100.699
 20
335.132
 30
5.1
 11
100.967
 21
335.611
 31
5.1
  0
LINE
  5
A7E
330
A02
100
AcDbEntity
  8
Mesh_cs002
100
AcDbLine
 10
100.967
 20
335.611
 30
5.1
 11
101.177
 21
336.056
 31
5.1
  0
LINE
  5
A7F
330
A02
100
AcDbEntity
  8
Mesh_cs002
100
AcDbLine
 10
101.177
 20
336.056
 30
5.1
 11
101.248
 21
336.287
 31
5.1
  0
LINE
  5
A80
330
A02
100
AcDbEntity
  8
Mesh_cs002
100
AcDbLine
 10
101.248
 20
336.287
 30
5.1
 11
101.485
 21
337.239
 31
5.1
  0
LINE
  5
A81
330
A02
100
AcDbEntity
  8
Mesh_cs002
100
AcDbLine
 10
101.485
 20
337.239
 30
5.1
 11
104.816
 21
341.823
 31
5.1
  0
LINE
  5
A82
330
A02
100
AcDbEntity
  8
Mesh_cs002
100
AcDbLine
 10
104.816
 20
341.823
 30
5.1
 11
111.158
 21
350.552
 31
5.1
  0
LINE
  5
A83
330
A02
100
AcDbEntity
  8
Mesh_cs002
100
AcDbLine
 10
111.158
 20
350.552
 30
5.1
 11
116.121
 21
357.383
 31
5.1
  0
LINE
  5
A84
330
A02
100
AcDbEntity
  8
Mesh_cs002
100
AcDbLine
 10
116.121
 20
357.383
 30
5.1
 11
122.952
 21
352.42
 31
5.1
  0
LINE
  5
A85
330
A02
100
AcDbEntity
  8
Mesh_cs002
100
AcDbLine
 10
122.952
 20
352.42
 30
5.1
 11
127.536
 21
349.09
 31
5.1
  0
LINE
  5
A86
330
A02
100
AcDbEntity
  8
Mesh_cs002
100
AcDbLine
 10
127.536
 20
349.09
 30
5.1
 11
195.898
 21
299.422
 31
5.1
  0
LINE
  5
A87
330
A02
100
AcDbEntity
  8
Mesh_cs002
100
AcDbLine
 10
179.835
 20
21.502
 30
5.1
 11
179.827
 21
21.5279
 31
5.1
  0
LINE
  5
A88
330
A02
100
AcDbEntity
  8
Mesh_cs002
100
AcDbLine
 10
179.827
 20
21.5279
 30
5.1
 11
179.333
 21
22.5581
 31
5.1
  0
LINE
  5
A89
330
A02
100
AcDbEntity
  8
Mesh_cs002
100
AcDbLine
 10
179.333
 20
22.5581
 30
5.1
 11
179.32
 21
22.5817
 31
5.1
  0
LINE
  5
A8A
330
A02
100
AcDbEntity
  8
Mesh_cs002
100
AcDbLine
 10
179.32
 20
22.5817
 30
5.1
 11
178.651
 21
23.4175
 31
5.1
  0
LINE
  5
A8B
330
A02
100
AcDbEntity
  8
Mesh_cs002
100
AcDbLine
 10
178.651
 20
23.4175
 30
5.1
 11
178.634
 21
23.4373
 31
5.1
  0
LINE
  5
A8C
330
A02
100
AcDbEntity
  8
Mesh_cs002
100
AcDbLine
 10
178.634
 20
23.4373
 30
5.1
 11
177.873
 21
24.0585
 31
5.1
  0
LINE
  5
A8D
330
A02
100
AcDbEntity
  8
Mesh_cs002
100
AcDbLine
 10
177.873
 20
24.0585
 30
5.1
 11
177.853
 21
24.0735
 31
5.1
  0
LINE
  5
A8E
330
A02
100
AcDbEntity
  8
Mesh_cs002
100
AcDbLine
 10
177.853
 20
24.0735
 30
5.1
 11
177.032
 21
24.5104
 31
5.1
  0
LINE
  5
A8F
330
A02
100
AcDbEntity
  8
Mesh_cs002
100
AcDbLine
 10
177.032
 20
24.5104
 30
5.1
 11
177.01
 21
24.5205
 31
5.1
  0
LINE
  5
A90
330
A02
100
AcDbEntity
  8
Mesh_cs002
100
AcDbLine
 10
177.01
 20
24.5205
 30
5.1
 11
176.038
 21
24.8096
 31
5.1
  0
LINE
  5
A91
330
A02
100
AcDbEntity
  8
Mesh_cs002
100
AcDbLine
 10
176.038
 20
24.8096
 30
5.1
 11
176.017
 21
24.8152
 31
5.1
  0
LINE
  5
A92
330
A02
100
AcDbEntity
  8
Mesh_cs002
100
AcDbLine
 10
176.017
 20
24.8152
 30
5.1
 11
176.005
 21
24.8167
 31
5.1
  0
LINE
  5
A93
330
A02
100
AcDbEntity
  8
Mesh_cs002
100
AcDbLine
 10
176.005
 20
24.8167
 30
5.1
 11
174.91
 21
24.8954
 31
5.1
  0
LINE
  5
A94
330
A02
100
AcDbEntity
  8
Mesh_cs002
100
AcDbLine
 10
174.91
 20
24.8954
 30
5.1
 11
174.899
 21
24.8959
 31
5.1
  0
LINE
  5
A95
330
A02
100
AcDbEntity
  8
Mesh_cs002
100
AcDbLine
 10
174.899
 20
24.8959
 30
5.1
 11
174.887
 21
24.8952
 31
5.1
  0
LINE
  5
A96
330
A02
100
AcDbEntity
  8
Mesh_cs002
100
AcDbLine
 10
174.887
 20
24.8952
 30
5.1
 11
174.874
 21
24.8934
 31
5.1
  0
LINE
  5
A97
330
A02
100
AcDbEntity
  8
Mesh_cs002
100
AcDbLine
 10
174.874
 20
24.8934
 30
5.1
 11
173.726
 21
24.7072
 31
5.1
  0
LINE
  5
A98
330
A02
100
AcDbEntity
  8
Mesh_cs002
100
AcDbLine
 10
173.726
 20
24.7072
 30
5.1
 11
173.702
 21
24.6996
 31
5.1
  0
LINE
  5
A99
330
A02
100
AcDbEntity
  8
Mesh_cs002
100
AcDbLine
 10
173.702
 20
24.6996
 30
5.1
 11
172.601
 21
24.2296
 31
5.1
  0
LINE
  5
A9A
330
A02
100
AcDbEntity
  8
Mesh_cs002
100
AcDbLine
 10
172.601
 20
24.2296
 30
5.1
 11
172.578
 21
24.2165
 31
5.1
  0
LINE
  5
A9B
330
A02
100
AcDbEntity
  8
Mesh_cs002
100
AcDbLine
 10
172.578
 20
24.2165
 30
5.1
 11
171.625
 21
23.4926
 31
5.1
  0
LINE
  5
A9C
330
A02
100
AcDbEntity
  8
Mesh_cs002
100
AcDbLine
 10
171.625
 20
23.4926
 30
5.1
 11
171.604
 21
23.4746
 31
5.1
  0
LINE
  5
A9D
330
A02
100
AcDbEntity
  8
Mesh_cs002
100
AcDbLine
 10
171.604
 20
23.4746
 30
5.1
 11
170.875
 21
22.5705
 31
5.1
  0
LINE
  5
A9E
330
A02
100
AcDbEntity
  8
Mesh_cs002
100
AcDbLine
 10
170.875
 20
22.5705
 30
5.1
 11
170.858
 21
22.5462
 31
5.1
  0
LINE
  5
A9F
330
A02
100
AcDbEntity
  8
Mesh_cs002
100
AcDbLine
 10
170.858
 20
22.5462
 30
5.1
 11
170.384
 21
21.5569
 31
5.1
  0
LINE
  5
AA0
330
A02
100
AcDbEntity
  8
Mesh_cs002
100
AcDbLine
 10
170.384
 20
21.5569
 30
5.1
 11
170.373
 21
21.5271
 31
5.1
  0
LINE
  5
AA1
330
A02
100
AcDbEntity
  8
Mesh_cs002
100
AcDbLine
 10
170.373
 20
21.5271
 30
5.1
 11
170.166
 21
20.7079
 31
5.1
  0
LINE
  5
AA2
330
A02
100
AcDbEntity
  8
Mesh_cs002
100
AcDbLine
 10
170.166
 20
20.7079
 30
5.1
 11
170.163
 21
20.6783
 31
5.1
  0
LINE
  5
AA3
330
A02
100
AcDbEntity
  8
Mesh_cs002
100
AcDbLine
 10
170.163
 20
20.6783
 30
5.1
 11
170.1
 21
19.9
 31
5.1
  0
LINE
  5
AA4
330
A02
100
AcDbEntity
  8
Mesh_cs002
100
AcDbLine
 10
170.1
 20
19.9
 30
5.1
 11
170.245
 21
18.7218
 31
5.1
  0
LINE
  5
AA5
330
A02
100
AcDbEntity
  8
Mesh_cs002
100
AcDbLine
 10
170.245
 20
18.7218
 30
5.1
 11
170.248
 21
18.6912
 31
5.1
  0
LINE
  5
AA6
330
A02
100
AcDbEntity
  8
Mesh_cs002
100
AcDbLine
 10
170.248
 20
18.6912
 30
5.1
 11
170.673
 21
17.584
 31
5.1
  0
LINE
  5
AA7
330
A02
100
AcDbEntity
  8
Mesh_cs002
100
AcDbLine
 10
170.673
 20
17.584
 30
5.1
 11
170.684
 21
17.5548
 31
5.1
  0
LINE
  5
AA8
330
A02
100
AcDbEntity
  8
Mesh_cs002
100
AcDbLine
 10
170.684
 20
17.5548
 30
5.1
 11
171.335
 21
16.614
 31
5.1
  0
LINE
  5
AA9
330
A02
100
AcDbEntity
  8
Mesh_cs002
100
AcDbLine
 10
171.335
 20
16.614
 30
5.1
 11
171.353
 21
16.5889
 31
5.1
  0
LINE
  5
AAA
330
A02
100
AcDbEntity
  8
Mesh_cs002
100
AcDbLine
 10
171.353
 20
16.5889
 30
5.1
 11
172.244
 21
15.7999
 31
5.1
  0
LINE
  5
AAB
330
A02
100
AcDbEntity
  8
Mesh_cs002
100
AcDbLine
 10
172.244
 20
15.7999
 30
5.1
 11
172.269
 21
15.779
 31
5.1
  0
LINE
  5
AAC
330
A02
100
AcDbEntity
  8
Mesh_cs002
100
AcDbLine
 10
172.269
 20
15.779
 30
5.1
 11
173.334
 21
15.2249
 31
5.1
  0
LINE
  5
AAD
330
A02
100
AcDbEntity
  8
Mesh_cs002
100
AcDbLine
 10
173.334
 20
15.2249
 30
5.1
 11
173.361
 21
15.2121
 31
5.1
  0
LINE
  5
AAE
330
A02
100
AcDbEntity
  8
Mesh_cs002
100
AcDbLine
 10
173.361
 20
15.2121
 30
5.1
 11
174.506
 21
14.938
 31
5.1
  0
LINE
  5
AAF
330
A02
100
AcDbEntity
  8
Mesh_cs002
100
AcDbLine
 10
174.506
 20
14.938
 30
5.1
 11
174.532
 21
14.9323
 31
5.1
  0
LINE
  5
AB0
330
A02
100
AcDbEntity
  8
Mesh_cs002
100
AcDbLine
 10
174.532
 20
14.9323
 30
5.1
 11
174.558
 21
14.9323
 31
5.1
  0
LINE
  5
AB1
330
A02
100
AcDbEntity
  8
Mesh_cs002
100
AcDbLine
 10
174.558
 20
14.9323
 30
5.1
 11
175.679
 21
14.9337
 31
5.1
  0
LINE
  5
AB2
330
A02
100
AcDbEntity
  8
Mesh_cs002
100
AcDbLine
 10
175.679
 20
14.9337
 30
5.1
 11
175.704
 21
14.9387
 31
5.1
  0
LINE
  5
AB3
330
A02
100
AcDbEntity
  8
Mesh_cs002
100
AcDbLine
 10
175.704
 20
14.9387
 30
5.1
 11
176.72
 21
15.1697
 31
5.1
  0
LINE
  5
AB4
330
A02
100
AcDbEntity
  8
Mesh_cs002
100
AcDbLine
 10
176.72
 20
15.1697
 30
5.1
 11
176.741
 21
15.1786
 31
5.1
  0
LINE
  5
AB5
330
A02
100
AcDbEntity
  8
Mesh_cs002
100
AcDbLine
 10
176.741
 20
15.1786
 30
5.1
 11
177.606
 21
15.5732
 31
5.1
  0
LINE
  5
AB6
330
A02
100
AcDbEntity
  8
Mesh_cs002
100
AcDbLine
 10
177.606
 20
15.5732
 30
5.1
 11
177.623
 21
15.5847
 31
5.1
  0
LINE
  5
AB7
330
A02
100
AcDbEntity
  8
Mesh_cs002
100
AcDbLine
 10
177.623
 20
15.5847
 30
5.1
 11
178.397
 21
16.141
 31
5.1
  0
LINE
  5
AB8
330
A02
100
AcDbEntity
  8
Mesh_cs002
100
AcDbLine
 10
178.397
 20
16.141
 30
5.1
 11
179.117
 21
16.9238
 31
5.1
  0
LINE
  5
AB9
330
A02
100
AcDbEntity
  8
Mesh_cs002
100
AcDbLine
 10
179.117
 20
16.9238
 30
5.1
 11
179.129
 21
16.9394
 31
5.1
  0
LINE
  5
ABA
330
A02
100
AcDbEntity
  8
Mesh_cs002
100
AcDbLine
 10
179.129
 20
16.9394
 30
5.1
 11
179.686
 21
17.9142
 31
5.1
  0
LINE
  5
ABB
330
A02
100
AcDbEntity
  8
Mesh_cs002
100
AcDbLine
 10
179.686
 20
17.9142
 30
5.1
 11
179.697
 21
17.9334
 31
5.1
  0
LINE
  5
ABC
330
A02
100
AcDbEntity
  8
Mesh_cs002
100
AcDbLine
 10
179.697
 20
17.9334
 30
5.1
 11
179.705
 21
17.9559
 31
5.1
  0
LINE
  5
ABD
330
A02
100
AcDbEntity
  8
Mesh_cs002
100
AcDbLine
 10
179.705
 20
17.9559
 30
5.1
 11
180.033
 21
19.087
 31
5.1
  0
LINE
  5
ABE
330
A02
100
AcDbEntity
  8
Mesh_cs002
100
AcDbLine
 10
180.033
 20
19.087
 30
5.1
 11
180.036
 21
19.1121
 31
5.1
  0
LINE
  5
ABF
330
A02
100
AcDbEntity
  8
Mesh_cs002
100
AcDbLine
 10
180.036
 20
19.1121
 30
5.1
 11
180.082
 21
20.3124
 31
5.1
  0
LINE
  5
AC0
330
A02
100
AcDbEntity
  8
Mesh_cs002
100
AcDbLine
 10
180.082
 20
20.3124
 30
5.1
 11
180.08
 21
20.3388
 31
5.1
  0
LINE
  5
AC1
330
A02
100
AcDbEntity
  8
Mesh_cs002
100
AcDbLine
 10
180.08
 20
20.3388
 30
5.1
 11
179.835
 21
21.502
 31
5.1
  0
LINE
  5
AC2
330
A02
100
AcDbEntity
  8
Mesh_cs002
100
AcDbLine
 10
14.9043
 20
19.9324
 30
5.1
 11
15.0704
 21
21.1941
 31
5.1
  0
LINE
  5
AC3
330
A02
100
AcDbEntity
  8
Mesh_cs002
100
AcDbLine
 10
15.0704
 20
21.1941
 30
5.1
 11
15.5574
 21
22.3699
 31
5.1
  0
LINE
  5
AC4
330
A02
100
AcDbEntity
  8
Mesh_cs002
100
AcDbLine
 10
15.5574
 20
22.3699
 30
5.1
 11
15.5699
 21
22.4
 31
5.1
  0
LINE
  5
AC5
330
A02
100
AcDbEntity
  8
Mesh_cs002
100
AcDbLine
 10
15.5699
 20
22.4
 30
5.1
 11
15.5897
 21
22.4259
 31
5.1
  0
LINE
  5
AC6
330
A02
100
AcDbEntity
  8
Mesh_cs002
100
AcDbLine
 10
15.5897
 20
22.4259
 30
5.1
 11
16.3645
 21
23.4355
 31
5.1
  0
LINE
  5
AC7
330
A02
100
AcDbEntity
  8
Mesh_cs002
100
AcDbLine
 10
16.3645
 20
23.4355
 30
5.1
 11
16.3904
 21
23.4554
 31
5.1
  0
LINE
  5
AC8
330
A02
100
AcDbEntity
  8
Mesh_cs002
100
AcDbLine
 10
16.3904
 20
23.4554
 30
5.1
 11
17.4
 21
24.2301
 31
5.1
  0
LINE
  5
AC9
330
A02
100
AcDbEntity
  8
Mesh_cs002
100
AcDbLine
 10
17.4
 20
24.2301
 30
5.1
 11
18.5758
 21
24.7171
 31
5.1
  0
LINE
  5
ACA
330
A02
100
AcDbEntity
  8
Mesh_cs002
100
AcDbLine
 10
18.5758
 20
24.7171
 30
5.1
 11
18.6059
 21
24.7296
 31
5.1
  0
LINE
  5
ACB
330
A02
100
AcDbEntity
  8
Mesh_cs002
100
AcDbLine
 10
18.6059
 20
24.7296
 30
5.1
 11
19.8676
 21
24.8957
 31
5.1
  0
LINE
  5
ACC
330
A02
100
AcDbEntity
  8
Mesh_cs002
100
AcDbLine
 10
19.8676
 20
24.8957
 30
5.1
 11
19.9
 21
24.9
 31
5.1
  0
LINE
  5
ACD
330
A02
100
AcDbEntity
  8
Mesh_cs002
100
AcDbLine
 10
19.9
 20
24.9
 30
5.1
 11
19.9324
 21
24.8957
 31
5.1
  0
LINE
  5
ACE
330
A02
100
AcDbEntity
  8
Mesh_cs002
100
AcDbLine
 10
19.9324
 20
24.8957
 30
5.1
 11
21.1941
 21
24.7296
 31
5.1
  0
LINE
  5
ACF
330
A02
100
AcDbEntity
  8
Mesh_cs002
100
AcDbLine
 10
21.1941
 20
24.7296
 30
5.1
 11
21.2242
 21
24.7171
 31
5.1
  0
LINE
  5
AD0
330
A02
100
AcDbEntity
  8
Mesh_cs002
100
AcDbLine
 10
21.2242
 20
24.7171
 30
5.1
 11
22.4
 21
24.2301
 31
5.1
  0
LINE
  5
AD1
330
A02
100
AcDbEntity
  8
Mesh_cs002
100
AcDbLine
 10
22.4
 20
24.2301
 30
5.1
 11
22.4259
 21
24.2103
 31
5.1
  0
LINE
  5
AD2
330
A02
100
AcDbEntity
  8
Mesh_cs002
100
AcDbLine
 10
22.4259
 20
24.2103
 30
5.1
 11
23.4355
 21
23.4355
 31
5.1
  0
LINE
  5
AD3
330
A02
100
AcDbEntity
  8
Mesh_cs002
100
AcDbLine
 10
23.4355
 20
23.4355
 30
5.1
 11
24.2103
 21
22.4259
 31
5.1
  0
LINE
  5
AD4
330
A02
100
AcDbEntity
  8
Mesh_cs002
100
AcDbLine
 10
24.2103
 20
22.4259
 30
5.1
 11
24.2301
 21
22.4
 31
5.1
  0
LINE
  5
AD5
330
A02
100
AcDbEntity
  8
Mesh_cs002
100
AcDbLine
 10
24.2301
 20
22.4
 30
5.1
 11
24.2426
 21
22.3699
 31
5.1
  0
LINE
  5
AD6
330
A02
100
AcDbEntity
  8
Mesh_cs002
100
AcDbLine
 10
24.2426
 20
22.3699
 30
5.1
 11
24.7296
 21
21.1941
 31
5.1
  0
LINE
  5
AD7
330
A02
100
AcDbEntity
  8
Mesh_cs002
100
AcDbLine
 10
24.7296
 20
21.1941
 30
5.1
 11
24.8957
 21
19.9324
 31
5.1
  0
LINE
  5
AD8
330
A02
100
AcDbEntity
  8
Mesh_cs002
100
AcDbLine
 10
24.8957
 20
19.9324
 30
5.1
 11
24.9
 21
19.9
 31
5.1
  0
LINE
  5
AD9
330
A02
100
AcDbEntity
  8
Mesh_cs002
100
AcDbLine
 10
24.9
 20
19.9
 30
5.1
 11
24.8957
 21
19.8676
 31
5.1
  0
LINE
  5
ADA
330
A02
100
AcDbEntity
  8
Mesh_cs002
100
AcDbLine
 10
24.8957
 20
19.8676
 30
5.1
 11
24.7296
 21
18.6059
 31
5.1
  0
LINE
  5
ADB
330
A02
100
AcDbEntity
  8
Mesh_cs002
100
AcDbLine
 10
24.7296
 20
18.6059
 30
5.1
 11
24.7171
 21
18.5758
 31
5.1
  0
LINE
  5
ADC
330
A02
100
AcDbEntity
  8
Mesh_cs002
100
AcDbLine
 10
24.7171
 20
18.5758
 30
5.1
 11
24.2301
 21
17.4
 31
5.1
  0
LINE
  5
ADD
330
A02
100
AcDbEntity
  8
Mesh_cs002
100
AcDbLine
 10
24.2301
 20
17.4
 30
5.1
 11
24.2103
 21
17.3741
 31
5.1
  0
LINE
  5
ADE
330
A02
100
AcDbEntity
  8
Mesh_cs002
100
AcDbLine
 10
24.2103
 20
17.3741
 30
5.1
 11
23.4355
 21
16.3645
 31
5.1
  0
LINE
  5
ADF
330
A02
100
AcDbEntity
  8
Mesh_cs002
100
AcDbLine
 10
23.4355
 20
16.3645
 30
5.1
 11
23.4096
 21
16.3446
 31
5.1
  0
LINE
  5
AE0
330
A02
100
AcDbEntity
  8
Mesh_cs002
100
AcDbLine
 10
23.4096
 20
16.3446
 30
5.1
 11
22.4
 21
15.5699
 31
5.1
  0
LINE
  5
AE1
330
A02
100
AcDbEntity
  8
Mesh_cs002
100
AcDbLine
 10
22.4
 20
15.5699
 30
5.1
 11
22.3699
 21
15.5574
 31
5.1
  0
LINE
  5
AE2
330
A02
100
AcDbEntity
  8
Mesh_cs002
100
AcDbLine
 10
22.3699
 20
15.5574
 30
5.1
 11
21.1941
 21
15.0704
 31
5.1
  0
LINE
  5
AE3
330
A02
100
AcDbEntity
  8
Mesh_cs002
100
AcDbLine
 10
21.1941
 20
15.0704
 30
5.1
 11
19.9324
 21
14.9043
 31
5.1
  0
LINE
  5
AE4
330
A02
100
AcDbEntity
  8
Mesh_cs002
100
AcDbLine
 10
19.9324
 20
14.9043
 30
5.1
 11
19.9
 21
14.9
 31
5.1
  0
LINE
  5
AE5
330
A02
100
AcDbEntity
  8
Mesh_cs002
100
AcDbLine
 10
19.9
 20
14.9
 30
5.1
 11
19.8676
 21
14.9043
 31
5.1
  0
LINE
  5
AE6
330
A02
100
AcDbEntity
  8
Mesh_cs002
100
AcDbLine
 10
19.8676
 20
14.9043
 30
5.1
 11
18.6059
 21
15.0704
 31
5.1
  0
LINE
  5
AE7
330
A02
100
AcDbEntity
  8
Mesh_cs002
100
AcDbLine
 10
18.6059
 20
15.0704
 30
5.1
 11
17.4301
 21
15.5574
 31
5.1
  0
LINE
  5
AE8
330
A02
100
AcDbEntity
  8
Mesh_cs002
100
AcDbLine
 10
17.4301
 20
15.5574
 30
5.1
 11
17.4
 21
15.5699
 31
5.1
  0
LINE
  5
AE9
330
A02
100
AcDbEntity
  8
Mesh_cs002
100
AcDbLine
 10
17.4
 20
15.5699
 30
5.1
 11
17.3741
 21
15.5897
 31
5.1
  0
LINE
  5
AEA
330
A02
100
AcDbEntity
  8
Mesh_cs002
100
AcDbLine
 10
17.3741
 20
15.5897
 30
5.1
 11
16.3645
 21
16.3645
 31
5.1
  0
LINE
  5
AEB
330
A02
100
AcDbEntity
  8
Mesh_cs002
100
AcDbLine
 10
16.3645
 20
16.3645
 30
5.1
 11
15.5897
 21
17.3741
 31
5.1
  0
LINE
  5
AEC
330
A02
100
AcDbEntity
  8
Mesh_cs002
100
AcDbLine
 10
15.5897
 20
17.3741
 30
5.1
 11
15.5699
 21
17.4
 31
5.1
  0
LINE
  5
AED
330
A02
100
AcDbEntity
  8
Mesh_cs002
100
AcDbLine
 10
15.5699
 20
17.4
 30
5.1
 11
15.5574
 21
17.4301
 31
5.1
  0
LINE
  5
AEE
330
A02
100
AcDbEntity
  8
Mesh_cs002
100
AcDbLine
 10
15.5574
 20
17.4301
 30
5.1
 11
15.0704
 21
18.6059
 31
5.1
  0
LINE
  5
AEF
330
A02
100
AcDbEntity
  8
Mesh_cs002
100
AcDbLine
 10
15.0704
 20
18.6059
 30
5.1
 11
15.0661
 21
18.6383
 31
5.1
  0
LINE
  5
AF0
330
A02
100
AcDbEntity
  8
Mesh_cs002
100
AcDbLine
 10
15.0661
 20
18.6383
 30
5.1
 11
14.9
 21
19.9
 31
5.1
  0
LINE
  5
AF1
330
A02
100
AcDbEntity
  8
Mesh_cs002
100
AcDbLine
 10
14.9
 20
19.9
 30
5.1
 11
14.9043
 21
19.9324
 31
5.1
  0
LINE
  5
AF2
330
A02
100
AcDbEntity
  8
Mesh_cs002
100
AcDbLine
 10
248.972
 20
234.283
 30
5.1
 11
248.95
 21
234.267
 31
5.1
  0
LINE
  5
AF3
330
A02
100
AcDbEntity
  8
Mesh_cs002
100
AcDbLine
 10
248.95
 20
234.267
 30
5.1
 11
247.945
 21
233.724
 31
5.1
  0
LINE
  5
AF4
330
A02
100
AcDbEntity
  8
Mesh_cs002
100
AcDbLine
 10
247.945
 20
233.724
 30
5.1
 11
247.92
 21
233.713
 31
5.1
  0
LINE
  5
AF5
330
A02
100
AcDbEntity
  8
Mesh_cs002
100
AcDbLine
 10
247.92
 20
233.713
 30
5.1
 11
246.888
 21
233.43
 31
5.1
  0
LINE
  5
AF6
330
A02
100
AcDbEntity
  8
Mesh_cs002
100
AcDbLine
 10
246.888
 20
233.43
 30
5.1
 11
246.862
 21
233.424
 31
5.1
  0
LINE
  5
AF7
330
A02
100
AcDbEntity
  8
Mesh_cs002
100
AcDbLine
 10
246.862
 20
233.424
 30
5.1
 11
245.882
 21
233.368
 31
5.1
  0
LINE
  5
AF8
330
A02
100
AcDbEntity
  8
Mesh_cs002
100
AcDbLine
 10
245.882
 20
233.368
 30
5.1
 11
245.857
 21
233.368
 31
5.1
  0
LINE
  5
AF9
330
A02
100
AcDbEntity
  8
Mesh_cs002
100
AcDbLine
 10
245.857
 20
233.368
 30
5.1
 11
244.936
 21
233.497
 31
5.1
  0
LINE
  5
AFA
330
A02
100
AcDbEntity
  8
Mesh_cs002
100
AcDbLine
 10
244.936
 20
233.497
 30
5.1
 11
244.912
 21
233.502
 31
5.1
  0
LINE
  5
AFB
330
A02
100
AcDbEntity
  8
Mesh_cs002
100
AcDbLine
 10
244.912
 20
233.502
 30
5.1
 11
243.956
 21
233.839
 31
5.1
  0
LINE
  5
AFC
330
A02
100
AcDbEntity
  8
Mesh_cs002
100
AcDbLine
 10
243.956
 20
233.839
 30
5.1
 11
243.935
 21
233.847
 31
5.1
  0
LINE
  5
AFD
330
A02
100
AcDbEntity
  8
Mesh_cs002
100
AcDbLine
 10
243.935
 20
233.847
 30
5.1
 11
243.925
 21
233.853
 31
5.1
  0
LINE
  5
AFE
330
A02
100
AcDbEntity
  8
Mesh_cs002
100
AcDbLine
 10
243.925
 20
233.853
 30
5.1
 11
242.993
 21
234.433
 31
5.1
  0
LINE
  5
AFF
330
A02
100
AcDbEntity
  8
Mesh_cs002
100
AcDbLine
 10
242.993
 20
234.433
 30
5.1
 11
242.984
 21
234.439
 31
5.1
  0
LINE
  5
B00
330
A02
100
AcDbEntity
  8
Mesh_cs002
100
AcDbLine
 10
242.984
 20
234.439
 30
5.1
 11
242.974
 21
234.447
 31
5.1
  0
LINE
  5
B01
330
A02
100
AcDbEntity
  8
Mesh_cs002
100
AcDbLine
 10
242.974
 20
234.447
 30
5.1
 11
242.965
 21
234.456
 31
5.1
  0
LINE
  5
B02
330
A02
100
AcDbEntity
  8
Mesh_cs002
100
AcDbLine
 10
242.965
 20
234.456
 30
5.1
 11
242.146
 21
235.281
 31
5.1
  0
LINE
  5
B03
330
A02
100
AcDbEntity
  8
Mesh_cs002
100
AcDbLine
 10
242.146
 20
235.281
 30
5.1
 11
242.131
 21
235.301
 31
5.1
  0
LINE
  5
B04
330
A02
100
AcDbEntity
  8
Mesh_cs002
100
AcDbLine
 10
242.131
 20
235.301
 30
5.1
 11
241.516
 21
236.329
 31
5.1
  0
LINE
  5
B05
330
A02
100
AcDbEntity
  8
Mesh_cs002
100
AcDbLine
 10
241.516
 20
236.329
 30
5.1
 11
241.505
 21
236.353
 31
5.1
  0
LINE
  5
B06
330
A02
100
AcDbEntity
  8
Mesh_cs002
100
AcDbLine
 10
241.505
 20
236.353
 30
5.1
 11
241.159
 21
237.499
 31
5.1
  0
LINE
  5
B07
330
A02
100
AcDbEntity
  8
Mesh_cs002
100
AcDbLine
 10
241.159
 20
237.499
 30
5.1
 11
241.154
 21
237.525
 31
5.1
  0
LINE
  5
B08
330
A02
100
AcDbEntity
  8
Mesh_cs002
100
AcDbLine
 10
241.154
 20
237.525
 30
5.1
 11
241.095
 21
238.685
 31
5.1
  0
LINE
  5
B09
330
A02
100
AcDbEntity
  8
Mesh_cs002
100
AcDbLine
 10
241.095
 20
238.685
 30
5.1
 11
241.096
 21
238.715
 31
5.1
  0
LINE
  5
B0A
330
A02
100
AcDbEntity
  8
Mesh_cs002
100
AcDbLine
 10
241.096
 20
238.715
 30
5.1
 11
241.294
 21
239.794
 31
5.1
  0
LINE
  5
B0B
330
A02
100
AcDbEntity
  8
Mesh_cs002
100
AcDbLine
 10
241.294
 20
239.794
 30
5.1
 11
241.302
 21
239.825
 31
5.1
  0
LINE
  5
B0C
330
A02
100
AcDbEntity
  8
Mesh_cs002
100
AcDbLine
 10
241.302
 20
239.825
 30
5.1
 11
241.616
 21
240.609
 31
5.1
  0
LINE
  5
B0D
330
A02
100
AcDbEntity
  8
Mesh_cs002
100
AcDbLine
 10
241.616
 20
240.609
 30
5.1
 11
241.631
 21
240.635
 31
5.1
  0
LINE
  5
B0E
330
A02
100
AcDbEntity
  8
Mesh_cs002
100
AcDbLine
 10
241.631
 20
240.635
 30
5.1
 11
242.038
 21
241.301
 31
5.1
  0
LINE
  5
B0F
330
A02
100
AcDbEntity
  8
Mesh_cs002
100
AcDbLine
 10
242.038
 20
241.301
 30
5.1
 11
242.847
 21
242.17
 31
5.1
  0
LINE
  5
B10
330
A02
100
AcDbEntity
  8
Mesh_cs002
100
AcDbLine
 10
242.847
 20
242.17
 30
5.1
 11
242.868
 21
242.192
 31
5.1
  0
LINE
  5
B11
330
A02
100
AcDbEntity
  8
Mesh_cs002
100
AcDbLine
 10
242.868
 20
242.192
 30
5.1
 11
243.862
 21
242.839
 31
5.1
  0
LINE
  5
B12
330
A02
100
AcDbEntity
  8
Mesh_cs002
100
AcDbLine
 10
243.862
 20
242.839
 30
5.1
 11
243.889
 21
242.855
 31
5.1
  0
LINE
  5
B13
330
A02
100
AcDbEntity
  8
Mesh_cs002
100
AcDbLine
 10
243.889
 20
242.855
 30
5.1
 11
244.969
 21
243.234
 31
5.1
  0
LINE
  5
B14
330
A02
100
AcDbEntity
  8
Mesh_cs002
100
AcDbLine
 10
244.969
 20
243.234
 30
5.1
 11
244.998
 21
243.243
 31
5.1
  0
LINE
  5
B15
330
A02
100
AcDbEntity
  8
Mesh_cs002
100
AcDbLine
 10
244.998
 20
243.243
 30
5.1
 11
246.182
 21
243.359
 31
5.1
  0
LINE
  5
B16
330
A02
100
AcDbEntity
  8
Mesh_cs002
100
AcDbLine
 10
246.182
 20
243.359
 30
5.1
 11
246.214
 21
243.361
 31
5.1
  0
LINE
  5
B17
330
A02
100
AcDbEntity
  8
Mesh_cs002
100
AcDbLine
 10
246.214
 20
243.361
 30
5.1
 11
247.402
 21
243.183
 31
5.1
  0
LINE
  5
B18
330
A02
100
AcDbEntity
  8
Mesh_cs002
100
AcDbLine
 10
247.402
 20
243.183
 30
5.1
 11
247.432
 21
243.177
 31
5.1
  0
LINE
  5
B19
330
A02
100
AcDbEntity
  8
Mesh_cs002
100
AcDbLine
 10
247.432
 20
243.177
 30
5.1
 11
248.519
 21
242.726
 31
5.1
  0
LINE
  5
B1A
330
A02
100
AcDbEntity
  8
Mesh_cs002
100
AcDbLine
 10
248.519
 20
242.726
 30
5.1
 11
248.543
 21
242.715
 31
5.1
  0
LINE
  5
B1B
330
A02
100
AcDbEntity
  8
Mesh_cs002
100
AcDbLine
 10
248.543
 20
242.715
 30
5.1
 11
248.564
 21
242.7
 31
5.1
  0
LINE
  5
B1C
330
A02
100
AcDbEntity
  8
Mesh_cs002
100
AcDbLine
 10
248.564
 20
242.7
 30
5.1
 11
249.471
 21
242.04
 31
5.1
  0
LINE
  5
B1D
330
A02
100
AcDbEntity
  8
Mesh_cs002
100
AcDbLine
 10
249.471
 20
242.04
 30
5.1
 11
249.487
 21
242.022
 31
5.1
  0
LINE
  5
B1E
330
A02
100
AcDbEntity
  8
Mesh_cs002
100
AcDbLine
 10
249.487
 20
242.022
 30
5.1
 11
250.174
 21
241.237
 31
5.1
  0
LINE
  5
B1F
330
A02
100
AcDbEntity
  8
Mesh_cs002
100
AcDbLine
 10
250.174
 20
241.237
 30
5.1
 11
250.186
 21
241.218
 31
5.1
  0
LINE
  5
B20
330
A02
100
AcDbEntity
  8
Mesh_cs002
100
AcDbLine
 10
250.186
 20
241.218
 30
5.1
 11
250.653
 21
240.39
 31
5.1
  0
LINE
  5
B21
330
A02
100
AcDbEntity
  8
Mesh_cs002
100
AcDbLine
 10
250.653
 20
240.39
 30
5.1
 11
250.661
 21
240.37
 31
5.1
  0
LINE
  5
B22
330
A02
100
AcDbEntity
  8
Mesh_cs002
100
AcDbLine
 10
250.661
 20
240.37
 30
5.1
 11
250.959
 21
239.466
 31
5.1
  0
LINE
  5
B23
330
A02
100
AcDbEntity
  8
Mesh_cs002
100
AcDbLine
 10
250.959
 20
239.466
 30
5.1
 11
250.963
 21
239.447
 31
5.1
  0
LINE
  5
B24
330
A02
100
AcDbEntity
  8
Mesh_cs002
100
AcDbLine
 10
250.963
 20
239.447
 30
5.1
 11
251.082
 21
238.409
 31
5.1
  0
LINE
  5
B25
330
A02
100
AcDbEntity
  8
Mesh_cs002
100
AcDbLine
 10
251.082
 20
238.409
 30
5.1
 11
251.083
 21
238.389
 31
5.1
  0
LINE
  5
B26
330
A02
100
AcDbEntity
  8
Mesh_cs002
100
AcDbLine
 10
251.083
 20
238.389
 30
5.1
 11
250.96
 21
237.273
 31
5.1
  0
LINE
  5
B27
330
A02
100
AcDbEntity
  8
Mesh_cs002
100
AcDbLine
 10
250.96
 20
237.273
 30
5.1
 11
250.958
 21
237.252
 31
5.1
  0
LINE
  5
B28
330
A02
100
AcDbEntity
  8
Mesh_cs002
100
AcDbLine
 10
250.958
 20
237.252
 30
5.1
 11
250.951
 21
237.229
 31
5.1
  0
LINE
  5
B29
330
A02
100
AcDbEntity
  8
Mesh_cs002
100
AcDbLine
 10
250.951
 20
237.229
 30
5.1
 11
250.552
 21
236.121
 31
5.1
  0
LINE
  5
B2A
330
A02
100
AcDbEntity
  8
Mesh_cs002
100
AcDbLine
 10
250.552
 20
236.121
 30
5.1
 11
250.54
 21
236.098
 31
5.1
  0
LINE
  5
B2B
330
A02
100
AcDbEntity
  8
Mesh_cs002
100
AcDbLine
 10
250.54
 20
236.098
 30
5.1
 11
249.871
 21
235.1
 31
5.1
  0
LINE
  5
B2C
330
A02
100
AcDbEntity
  8
Mesh_cs002
100
AcDbLine
 10
249.871
 20
235.1
 30
5.1
 11
249.854
 21
235.08
 31
5.1
  0
LINE
  5
B2D
330
A02
100
AcDbEntity
  8
Mesh_cs002
100
AcDbLine
 10
249.854
 20
235.08
 30
5.1
 11
248.972
 21
234.283
 31
5.1
  0
LINE
  5
B2E
330
A02
100
AcDbEntity
  8
Mesh_cs002
100
AcDbLine
 10
115.751
 20
331.074
 30
5.1
 11
115.742
 21
331.048
 31
5.1
  0
LINE
  5
B2F
330
A02
100
AcDbEntity
  8
Mesh_cs002
100
AcDbLine
 10
115.742
 20
331.048
 30
5.1
 11
115.536
 21
329.924
 31
5.1
  0
LINE
  5
B30
330
A02
100
AcDbEntity
  8
Mesh_cs002
100
AcDbLine
 10
115.536
 20
329.924
 30
5.1
 11
115.533
 21
329.898
 31
5.1
  0
LINE
  5
B31
330
A02
100
AcDbEntity
  8
Mesh_cs002
100
AcDbLine
 10
115.533
 20
329.898
 30
5.1
 11
115.583
 21
328.828
 31
5.1
  0
LINE
  5
B32
330
A02
100
AcDbEntity
  8
Mesh_cs002
100
AcDbLine
 10
115.583
 20
328.828
 30
5.1
 11
115.585
 21
328.802
 31
5.1
  0
LINE
  5
B33
330
A02
100
AcDbEntity
  8
Mesh_cs002
100
AcDbLine
 10
115.585
 20
328.802
 30
5.1
 11
115.835
 21
327.853
 31
5.1
  0
LINE
  5
B34
330
A02
100
AcDbEntity
  8
Mesh_cs002
100
AcDbLine
 10
115.835
 20
327.853
 30
5.1
 11
115.843
 21
327.829
 31
5.1
  0
LINE
  5
B35
330
A02
100
AcDbEntity
  8
Mesh_cs002
100
AcDbLine
 10
115.843
 20
327.829
 30
5.1
 11
116.251
 21
326.992
 31
5.1
  0
LINE
  5
B36
330
A02
100
AcDbEntity
  8
Mesh_cs002
100
AcDbLine
 10
116.251
 20
326.992
 30
5.1
 11
116.262
 21
326.972
 31
5.1
  0
LINE
  5
B37
330
A02
100
AcDbEntity
  8
Mesh_cs002
100
AcDbLine
 10
116.262
 20
326.972
 30
5.1
 11
116.879
 21
326.166
 31
5.1
  0
LINE
  5
B38
330
A02
100
AcDbEntity
  8
Mesh_cs002
100
AcDbLine
 10
116.879
 20
326.166
 30
5.1
 11
116.893
 21
326.149
 31
5.1
  0
LINE
  5
B39
330
A02
100
AcDbEntity
  8
Mesh_cs002
100
AcDbLine
 10
116.893
 20
326.149
 30
5.1
 11
116.901
 21
326.141
 31
5.1
  0
LINE
  5
B3A
330
A02
100
AcDbEntity
  8
Mesh_cs002
100
AcDbLine
 10
116.901
 20
326.141
 30
5.1
 11
117.741
 21
325.434
 31
5.1
  0
LINE
  5
B3B
330
A02
100
AcDbEntity
  8
Mesh_cs002
100
AcDbLine
 10
117.741
 20
325.434
 30
5.1
 11
117.75
 21
325.427
 31
5.1
  0
LINE
  5
B3C
330
A02
100
AcDbEntity
  8
Mesh_cs002
100
AcDbLine
 10
117.75
 20
325.427
 30
5.1
 11
117.76
 21
325.42
 31
5.1
  0
LINE
  5
B3D
330
A02
100
AcDbEntity
  8
Mesh_cs002
100
AcDbLine
 10
117.76
 20
325.42
 30
5.1
 11
117.771
 21
325.414
 31
5.1
  0
LINE
  5
B3E
330
A02
100
AcDbEntity
  8
Mesh_cs002
100
AcDbLine
 10
117.771
 20
325.414
 30
5.1
 11
118.809
 21
324.89
 31
5.1
  0
LINE
  5
B3F
330
A02
100
AcDbEntity
  8
Mesh_cs002
100
AcDbLine
 10
118.809
 20
324.89
 30
5.1
 11
118.833
 21
324.882
 31
5.1
  0
LINE
  5
B40
330
A02
100
AcDbEntity
  8
Mesh_cs002
100
AcDbLine
 10
118.833
 20
324.882
 30
5.1
 11
120
 21
324.615
 31
5.1
  0
LINE
  5
B41
330
A02
100
AcDbEntity
  8
Mesh_cs002
100
AcDbLine
 10
120
 20
324.615
 30
5.1
 11
120.027
 21
324.612
 31
5.1
  0
LINE
  5
B42
330
A02
100
AcDbEntity
  8
Mesh_cs002
100
AcDbLine
 10
120.027
 20
324.612
 30
5.1
 11
121.223
 21
324.638
 31
5.1
  0
LINE
  5
B43
330
A02
100
AcDbEntity
  8
Mesh_cs002
100
AcDbLine
 10
121.223
 20
324.638
 30
5.1
 11
121.25
 21
324.64
 31
5.1
  0
LINE
  5
B44
330
A02
100
AcDbEntity
  8
Mesh_cs002
100
AcDbLine
 10
121.25
 20
324.64
 30
5.1
 11
122.372
 21
324.943
 31
5.1
  0
LINE
  5
B45
330
A02
100
AcDbEntity
  8
Mesh_cs002
100
AcDbLine
 10
122.372
 20
324.943
 30
5.1
 11
122.4
 21
324.953
 31
5.1
  0
LINE
  5
B46
330
A02
100
AcDbEntity
  8
Mesh_cs002
100
AcDbLine
 10
122.4
 20
324.953
 30
5.1
 11
123.365
 21
325.475
 31
5.1
  0
LINE
  5
B47
330
A02
100
AcDbEntity
  8
Mesh_cs002
100
AcDbLine
 10
123.365
 20
325.475
 30
5.1
 11
123.391
 21
325.492
 31
5.1
  0
LINE
  5
B48
330
A02
100
AcDbEntity
  8
Mesh_cs002
100
AcDbLine
 10
123.391
 20
325.492
 30
5.1
 11
124.04
 21
326.033
 31
5.1
  0
LINE
  5
B49
330
A02
100
AcDbEntity
  8
Mesh_cs002
100
AcDbLine
 10
124.04
 20
326.033
 30
5.1
 11
124.06
 21
326.055
 31
5.1
  0
LINE
  5
B4A
330
A02
100
AcDbEntity
  8
Mesh_cs002
100
AcDbLine
 10
124.06
 20
326.055
 30
5.1
 11
124.568
 21
326.648
 31
5.1
  0
LINE
  5
B4B
330
A02
100
AcDbEntity
  8
Mesh_cs002
100
AcDbLine
 10
124.568
 20
326.648
 30
5.1
 11
125.144
 21
327.686
 31
5.1
  0
LINE
  5
B4C
330
A02
100
AcDbEntity
  8
Mesh_cs002
100
AcDbLine
 10
125.144
 20
327.686
 30
5.1
 11
125.159
 21
327.713
 31
5.1
  0
LINE
  5
B4D
330
A02
100
AcDbEntity
  8
Mesh_cs002
100
AcDbLine
 10
125.159
 20
327.713
 30
5.1
 11
125.466
 21
328.858
 31
5.1
  0
LINE
  5
B4E
330
A02
100
AcDbEntity
  8
Mesh_cs002
100
AcDbLine
 10
125.466
 20
328.858
 30
5.1
 11
125.474
 21
328.889
 31
5.1
  0
LINE
  5
B4F
330
A02
100
AcDbEntity
  8
Mesh_cs002
100
AcDbLine
 10
125.474
 20
328.889
 30
5.1
 11
125.5
 21
330.032
 31
5.1
  0
LINE
  5
B50
330
A02
100
AcDbEntity
  8
Mesh_cs002
100
AcDbLine
 10
125.5
 20
330.032
 30
5.1
 11
125.501
 21
330.063
 31
5.1
  0
LINE
  5
B51
330
A02
100
AcDbEntity
  8
Mesh_cs002
100
AcDbLine
 10
125.501
 20
330.063
 30
5.1
 11
125.244
 21
331.225
 31
5.1
  0
LINE
  5
B52
330
A02
100
AcDbEntity
  8
Mesh_cs002
100
AcDbLine
 10
125.244
 20
331.225
 30
5.1
 11
125.236
 21
331.257
 31
5.1
  0
LINE
  5
B53
330
A02
100
AcDbEntity
  8
Mesh_cs002
100
AcDbLine
 10
125.236
 20
331.257
 30
5.1
 11
124.7
 21
332.331
 31
5.1
  0
LINE
  5
B54
330
A02
100
AcDbEntity
  8
Mesh_cs002
100
AcDbLine
 10
124.7
 20
332.331
 30
5.1
 11
124.685
 21
332.358
 31
5.1
  0
LINE
  5
B55
330
A02
100
AcDbEntity
  8
Mesh_cs002
100
AcDbLine
 10
124.685
 20
332.358
 30
5.1
 11
123.921
 21
333.252
 31
5.1
  0
LINE
  5
B56
330
A02
100
AcDbEntity
  8
Mesh_cs002
100
AcDbLine
 10
123.921
 20
333.252
 30
5.1
 11
123.903
 21
333.272
 31
5.1
  0
LINE
  5
B57
330
A02
100
AcDbEntity
  8
Mesh_cs002
100
AcDbLine
 10
123.903
 20
333.272
 30
5.1
 11
123.882
 21
333.287
 31
5.1
  0
LINE
  5
B58
330
A02
100
AcDbEntity
  8
Mesh_cs002
100
AcDbLine
 10
123.882
 20
333.287
 30
5.1
 11
122.974
 21
333.945
 31
5.1
  0
LINE
  5
B59
330
A02
100
AcDbEntity
  8
Mesh_cs002
100
AcDbLine
 10
122.974
 20
333.945
 30
5.1
 11
122.951
 21
333.955
 31
5.1
  0
LINE
  5
B5A
330
A02
100
AcDbEntity
  8
Mesh_cs002
100
AcDbLine
 10
122.951
 20
333.955
 30
5.1
 11
121.993
 21
334.366
 31
5.1
  0
LINE
  5
B5B
330
A02
100
AcDbEntity
  8
Mesh_cs002
100
AcDbLine
 10
121.993
 20
334.366
 30
5.1
 11
121.971
 21
334.371
 31
5.1
  0
LINE
  5
B5C
330
A02
100
AcDbEntity
  8
Mesh_cs002
100
AcDbLine
 10
121.971
 20
334.371
 30
5.1
 11
121.04
 21
334.56
 31
5.1
  0
LINE
  5
B5D
330
A02
100
AcDbEntity
  8
Mesh_cs002
100
AcDbLine
 10
121.04
 20
334.56
 30
5.1
 11
121.018
 21
334.561
 31
5.1
  0
LINE
  5
B5E
330
A02
100
AcDbEntity
  8
Mesh_cs002
100
AcDbLine
 10
121.018
 20
334.561
 30
5.1
 11
120.066
 21
334.566
 31
5.1
  0
LINE
  5
B5F
330
A02
100
AcDbEntity
  8
Mesh_cs002
100
AcDbLine
 10
120.066
 20
334.566
 30
5.1
 11
119.023
 21
334.356
 31
5.1
  0
LINE
  5
B60
330
A02
100
AcDbEntity
  8
Mesh_cs002
100
AcDbLine
 10
119.023
 20
334.356
 30
5.1
 11
119.004
 21
334.35
 31
5.1
  0
LINE
  5
B61
330
A02
100
AcDbEntity
  8
Mesh_cs002
100
AcDbLine
 10
119.004
 20
334.35
 30
5.1
 11
117.98
 21
333.889
 31
5.1
  0
LINE
  5
B62
330
A02
100
AcDbEntity
  8
Mesh_cs002
100
AcDbLine
 10
117.98
 20
333.889
 30
5.1
 11
117.96
 21
333.88
 31
5.1
  0
LINE
  5
B63
330
A02
100
AcDbEntity
  8
Mesh_cs002
100
AcDbLine
 10
117.96
 20
333.88
 30
5.1
 11
117.941
 21
333.866
 31
5.1
  0
LINE
  5
B64
330
A02
100
AcDbEntity
  8
Mesh_cs002
100
AcDbLine
 10
117.941
 20
333.866
 30
5.1
 11
117.01
 21
333.144
 31
5.1
  0
LINE
  5
B65
330
A02
100
AcDbEntity
  8
Mesh_cs002
100
AcDbLine
 10
117.01
 20
333.144
 30
5.1
 11
116.993
 21
333.126
 31
5.1
  0
LINE
  5
B66
330
A02
100
AcDbEntity
  8
Mesh_cs002
100
AcDbLine
 10
116.993
 20
333.126
 30
5.1
 11
116.25
 21
332.182
 31
5.1
  0
LINE
  5
B67
330
A02
100
AcDbEntity
  8
Mesh_cs002
100
AcDbLine
 10
116.25
 20
332.182
 30
5.1
 11
116.236
 21
332.159
 31
5.1
  0
LINE
  5
B68
330
A02
100
AcDbEntity
  8
Mesh_cs002
100
AcDbLine
 10
116.236
 20
332.159
 30
5.1
 11
115.751
 21
331.074
 31
5.1
  0
ENDSEC
  0
SECTION
  2
OBJECTS
  0
DICTIONARY
  5
F000
330
0
100
AcDbDictionary
  3
ACAD_GROUP
350
F001
  0
DICTIONARY
  5
F001
330
F000
100
AcDbDictionary
  0
ENDSEC
  0
EOF