999
FreeCAD v0.21 33771 (Git)
  0
SECTION
  2
HEADER
  9
$ACADVER
  1
AC1014
  9
$ACADMAINTVER
 70
     9
  9
$DWGCODEPAGE
  3
ANSI_1252
  9
$TEXTSTYLE
  7
STANDARD
  9
$DIMSTYLE
  2
STANDARD
  9
$DIMTXSTY
  7
STANDARD
  9
$CMLSTYLE
  2
STANDARD
  9
$LUNITS
 70
2
  9
$INSUNITS
 70
4
  9
$PEXTMAX
 10
50
 20
50
 30
50
  9
$PEXTMIN
 10
0
 20
0
 30
0
  9
$HANDSEED
  5
FFFF
  0
ENDSEC
  0
SECTION
  2
CLASSES
  0
CLASS
  1
ACDBDICTIONARYWDFLT
  2
AcDbDictionaryWithDefault
  3
ObjectDBX Classes
 90
        0
280
     0
281
     0
  0
CLASS
  1
XRECORD
  2
AcDbXrecord
  3
ObjectDBX Classes
 90
        0
280
     0
281
     0
  0
CLASS
  1
LWPOLYLINE
  2
AcDbPolyline
  3
ObjectDBX Classes
 90
        0
280
     0
281
     1
  0
ENDSEC
  0
SECTION
  2
TABLES
  0
TABLE
  2
VPORT
  5
20
330
0
100
AcDbSymbolTable
 70
     1
  0
VPORT
  5
21
330
20
100
AcDbSymbolTableRecord
100
AcDbViewportTableRecord
  2
*ACTIVE
 70
     0
  0
ENDTAB
  0
TABLE
  2
LTYPE
  5
22
330
0
100
AcDbSymbolTable
 70
     1
  0
LTYPE
  5
23
330
21
100
AcDbSymbolTableRecord
100
AcDbLinetypeTableRecord
  2
BYBLOCK
 70
     0
  3

 72
    65
 73
     0
 40
0.0
  0
LTYPE
  5
24
330
21
100
AcDbSymbolTableRecord
100
AcDbLinetypeTableRecord
  2
BYLAYER
 70
     0
  3

 72
    65
 73
     0
 40
0.0
  0
LTYPE
  5
25
330
21
100
AcDbSymbolTableRecord
100
AcDbLinetypeTableRecord
  2
CONTINUOUS
 70
     0
  3
Solid line
 72
    65
 73
     0
 40
0.0
  0
ENDTAB
  0
TABLE
  2
LAYER
  5
C05
330
0
100
AcDbSymbolTable
 70
3
  0
LAYER
  5
C06
330
C05
100
AcDbSymbolTableRecord
100
AcDbLayerTableRecord
  2
0
 70
   0
 62
   7
  6
CONTINUOUS
  0
LAYER
  5
C07
330
C05
100
AcDbSymbolTableRecord
100
AcDbLayerTableRecord
  2
none
 70
    0
 62
    7
  6
CONTINUOUS
  0
LAYER
  5
C08
330
C05
100
AcDbSymbolTableRecord
100
AcDbLayerTableRecord
  2
Mesh_cs
 70
    0
 62
    7
  6
CONTINUOUS
  0
ENDTAB
  0
TABLE
  2
STYLE
  5
70
330
0
100
AcDbSymbolTable
 70
     2
  0
STYLE
  5
71
330
70
100
AcDbSymbolTableRecord
100
AcDbTextStyleTableRecord
  2
STANDARD
 70
     0
 40
0.0
 41
1.0
 50
0.0
 71
     0
 42
2.5
  3
arial.ttf
  4

  0
STYLE
  5
72
330
70
100
AcDbSymbolTableRecord
100
AcDbTextStyleTableRecord
  2
ANNOTATIVE
 70
     0
 40
0.0
 41
1.0
 50
0.0
 71
     0
 42
2.5
  3
arial.ttf
  4

  0
ENDTAB
  0
TABLE
  2
VIEW
  5
73
330
0
100
AcDbSymbolTable
 70
     0
  0
ENDTAB
  0
TABLE
  2
UCS
  5
74
330
0
100
AcDbSymbolTable
 70
     0
  0
ENDTAB
  0
TABLE
  2
APPID
  5
75
330
0
100
AcDbSymbolTable
 70
     2
  0
APPID
  5
76
330
75
100
AcDbSymbolTableRecord
100
AcDbRegAppTableRecord
  2
ACAD
 70
     0
  0
APPID
  5
77
330
75
100
AcDbSymbolTableRecord
100
AcDbRegAppTableRecord
  2
ACADANNOTATIVE
 70
     0
  0
ENDTAB
  0
TABLE
  2
DIMSTYLE
  5
78
330
0
100
AcDbSymbolTable
 70
     2
  0
DIMSTYLE
105
79
330
78
100
AcDbSymbolTableRecord
100
AcDbDimStyleTableRecord
  2
STANDARD
 70
     0
  3

  4

  5

  6

  7

 40
0.0
 41
2.5
 42
0.625
 43
3.75
 44
1.25
 45
0.0
 46
0.0
 47
0.0
 48
0.0
140
2.5
141
2.5
142
0.0
143
0.03937007874016
144
1.0
145
0.0
146
1.0
147
0.625
 71
     0
 72
     0
 73
     0
 74
     0
 75
     0
 76
     0
 77
     1
 78
     8
170
     0
171
     3
172
     1
173
     0
174
     0
175
     0
176
     0
177
     0
178
     0
270
     2
271
     2
272
     2
273
     2
274
     3
340
71
275
     0
280
     0
281
     0
282
     0
283
     0
284
     8
285
     0
286
     0
287
     3
288
     0
  0
ENDTAB
  0
TABLE
  2
BLOCK_RECORD
  5
A01
330
0
100
AcDbSymbolTable
  70
5
  0
BLOCK_RECORD
  5
A02
330
A01
100
AcDbSymbolTableRecord
100
AcDbBlockTableRecord
  2
*MODEL_SPACE
  0
BLOCK_RECORD
  5
A03
330
A01
100
AcDbSymbolTableRecord
100
AcDbBlockTableRecord
  2
*PAPER_SPACE
  0
ENDTAB
  0
ENDSEC
  0
SECTION
  2
BLOCKS
  0
BLOCK
  5
A04
330
A02
100
AcDbEntity
  8
0
100
AcDbBlockBegin
  2
*MODEL_SPACE
 70
   0
 10
0
 20
0
 30
0
  3
*MODEL_SPACE
  1
 
  0
ENDBLK
  5
A05
330
A02
100
AcDbEntity
  8
0
100
AcDbBlockEnd
  0
BLOCK
  5
A06
330
A03
100
AcDbEntity
 67
1
  8
0
100
AcDbBlockBegin
  2
*PAPER_SPACE
 70
   0
 10
0
 20
0
 30
0
  3
*PAPER_SPACE
  1
 
  0
ENDBLK
  5
A07
330
A03
100
AcDbEntity
 67
    1
  8
0
100
AcDbBlockEnd
  0
ENDSEC
  0
SECTION
  2
ENTITIES
  0
LINE
  5
A08
330
A02
100
AcDbEntity
  8
Mesh_cs
100
AcDbLine
 10
103.278
 20
155.043
 30
11.9
 11
104.476
 21
158.896
 31
11.9
  0
LINE
  5
A09
330
A02
100
AcDbEntity
  8
Mesh_cs
100
AcDbLine
 10
104.476
 20
158.896
 30
11.9
 11
104.612
 21
159.323
 31
11.9
  0
LINE
  5
A0A
330
A02
100
AcDbEntity
  8
Mesh_cs
100
AcDbLine
 10
104.612
 20
159.323
 30
11.9
 11
105.843
 21
163.166
 31
11.9
  0
LINE
  5
A0B
330
A02
100
AcDbEntity
  8
Mesh_cs
100
AcDbLine
 10
105.843
 20
163.166
 30
11.9
 11
58.6801
 21
178.49
 31
11.9
  0
LINE
  5
A0C
330
A02
100
AcDbEntity
  8
Mesh_cs
100
AcDbLine
 10
58.6801
 20
178.49
 30
11.9
 11
53.4398
 21
180.193
 31
11.9
  0
LINE
  5
A0D
330
A02
100
AcDbEntity
  8
Mesh_cs
100
AcDbLine
 10
53.4398
 20
180.193
 30
11.9
 11
53.2348
 21
179.562
 31
11.9
  0
LINE
  5
A0E
330
A02
100
AcDbEntity
  8
Mesh_cs
100
AcDbLine
 10
53.2348
 20
179.562
 30
11.9
 11
47.2903
 21
161.267
 31
11.9
  0
LINE
  5
A0F
330
A02
100
AcDbEntity
  8
Mesh_cs
100
AcDbLine
 10
47.2903
 20
161.267
 30
11.9
 11
47.1766
 21
160.954
 31
11.9
  0
LINE
  5
A10
330
A02
100
AcDbEntity
  8
Mesh_cs
100
AcDbLine
 10
47.1766
 20
160.954
 30
11.9
 11
47.1719
 21
160.941
 31
11.9
  0
LINE
  5
A11
330
A02
100
AcDbEntity
  8
Mesh_cs
100
AcDbLine
 10
47.1719
 20
160.941
 30
11.9
 11
47.0308
 21
160.624
 31
11.9
  0
LINE
  5
A12
330
A02
100
AcDbEntity
  8
Mesh_cs
100
AcDbLine
 10
47.0308
 20
160.624
 30
11.9
 11
46.8182
 21
160.232
 31
11.9
  0
LINE
  5
A13
330
A02
100
AcDbEntity
  8
Mesh_cs
100
AcDbLine
 10
46.8182
 20
160.232
 30
11.9
 11
46.5716
 21
159.861
 31
11.9
  0
LINE
  5
A14
330
A02
100
AcDbEntity
  8
Mesh_cs
100
AcDbLine
 10
46.5716
 20
159.861
 30
11.9
 11
46.2929
 21
159.514
 31
11.9
  0
LINE
  5
A15
330
A02
100
AcDbEntity
  8
Mesh_cs
100
AcDbLine
 10
46.2929
 20
159.514
 30
11.9
 11
45.9843
 21
159.192
 31
11.9
  0
LINE
  5
A16
330
A02
100
AcDbEntity
  8
Mesh_cs
100
AcDbLine
 10
45.9843
 20
159.192
 30
11.9
 11
45.9743
 21
159.183
 31
11.9
  0
LINE
  5
A17
330
A02
100
AcDbEntity
  8
Mesh_cs
100
AcDbLine
 10
45.9743
 20
159.183
 30
11.9
 11
45.6376
 21
158.892
 31
11.9
  0
LINE
  5
A18
330
A02
100
AcDbEntity
  8
Mesh_cs
100
AcDbLine
 10
45.6376
 20
158.892
 30
11.9
 11
45.2763
 21
158.631
 31
11.9
  0
LINE
  5
A19
330
A02
100
AcDbEntity
  8
Mesh_cs
100
AcDbLine
 10
45.2763
 20
158.631
 30
11.9
 11
44.8933
 21
158.403
 31
11.9
  0
LINE
  5
A1A
330
A02
100
AcDbEntity
  8
Mesh_cs
100
AcDbLine
 10
44.8933
 20
158.403
 30
11.9
 11
44.49
 21
158.21
 31
11.9
  0
LINE
  5
A1B
330
A02
100
AcDbEntity
  8
Mesh_cs
100
AcDbLine
 10
44.49
 20
158.21
 30
11.9
 11
44.1123
 21
158.068
 31
11.9
  0
LINE
  5
A1C
330
A02
100
AcDbEntity
  8
Mesh_cs
100
AcDbLine
 10
44.1123
 20
158.068
 30
11.9
 11
43.7242
 21
157.956
 31
11.9
  0
LINE
  5
A1D
330
A02
100
AcDbEntity
  8
Mesh_cs
100
AcDbLine
 10
43.7242
 20
157.956
 30
11.9
 11
43.3431
 21
157.878
 31
11.9
  0
LINE
  5
A1E
330
A02
100
AcDbEntity
  8
Mesh_cs
100
AcDbLine
 10
43.3431
 20
157.878
 30
11.9
 11
43.3284
 21
157.876
 31
11.9
  0
LINE
  5
A1F
330
A02
100
AcDbEntity
  8
Mesh_cs
100
AcDbLine
 10
43.3284
 20
157.876
 30
11.9
 11
42.9275
 21
157.828
 31
11.9
  0
LINE
  5
A20
330
A02
100
AcDbEntity
  8
Mesh_cs
100
AcDbLine
 10
42.9275
 20
157.828
 30
11.9
 11
42.5387
 21
157.812
 31
11.9
  0
LINE
  5
A21
330
A02
100
AcDbEntity
  8
Mesh_cs
100
AcDbLine
 10
42.5387
 20
157.812
 30
11.9
 11
42.1498
 21
157.827
 31
11.9
  0
LINE
  5
A22
330
A02
100
AcDbEntity
  8
Mesh_cs
100
AcDbLine
 10
42.1498
 20
157.827
 30
11.9
 11
42.1351
 21
157.828
 31
11.9
  0
LINE
  5
A23
330
A02
100
AcDbEntity
  8
Mesh_cs
100
AcDbLine
 10
42.1351
 20
157.828
 30
11.9
 11
41.7836
 21
157.869
 31
11.9
  0
LINE
  5
A24
330
A02
100
AcDbEntity
  8
Mesh_cs
100
AcDbLine
 10
41.7836
 20
157.869
 30
11.9
 11
41.769
 21
157.871
 31
11.9
  0
LINE
  5
A25
330
A02
100
AcDbEntity
  8
Mesh_cs
100
AcDbLine
 10
41.769
 20
157.871
 30
11.9
 11
41.3865
 21
157.946
 31
11.9
  0
LINE
  5
A26
330
A02
100
AcDbEntity
  8
Mesh_cs
100
AcDbLine
 10
41.3865
 20
157.946
 30
11.9
 11
41.3754
 21
157.948
 31
11.9
  0
LINE
  5
A27
330
A02
100
AcDbEntity
  8
Mesh_cs
100
AcDbLine
 10
41.3754
 20
157.948
 30
11.9
 11
41.0006
 21
158.054
 31
11.9
  0
LINE
  5
A28
330
A02
100
AcDbEntity
  8
Mesh_cs
100
AcDbLine
 10
41.0006
 20
158.054
 30
11.9
 11
40.99
 21
158.057
 31
11.9
  0
LINE
  5
A29
330
A02
100
AcDbEntity
  8
Mesh_cs
100
AcDbLine
 10
40.99
 20
158.057
 30
11.9
 11
23.1637
 21
163.849
 31
11.9
  0
LINE
  5
A2A
330
A02
100
AcDbEntity
  8
Mesh_cs
100
AcDbLine
 10
23.1637
 20
163.849
 30
11.9
 11
22.5329
 21
164.054
 31
11.9
  0
LINE
  5
A2B
330
A02
100
AcDbEntity
  8
Mesh_cs
100
AcDbLine
 10
22.5329
 20
164.054
 30
11.9
 11
22.0639
 21
164.206
 31
11.9
  0
LINE
  5
A2C
330
A02
100
AcDbEntity
  8
Mesh_cs
100
AcDbLine
 10
22.0639
 20
164.206
 30
11.9
 11
22.0678
 21
164.179
 31
11.9
  0
LINE
  5
A2D
330
A02
100
AcDbEntity
  8
Mesh_cs
100
AcDbLine
 10
22.0678
 20
164.179
 30
11.9
 11
22.0697
 21
164.166
 31
11.9
  0
LINE
  5
A2E
330
A02
100
AcDbEntity
  8
Mesh_cs
100
AcDbLine
 10
22.0697
 20
164.166
 30
11.9
 11
22.1217
 21
163.806
 31
11.9
  0
LINE
  5
A2F
330
A02
100
AcDbEntity
  8
Mesh_cs
100
AcDbLine
 10
22.1217
 20
163.806
 30
11.9
 11
22.1238
 21
163.779
 31
11.9
  0
LINE
  5
A30
330
A02
100
AcDbEntity
  8
Mesh_cs
100
AcDbLine
 10
22.1238
 20
163.779
 30
11.9
 11
22.1467
 21
163.414
 31
11.9
  0
LINE
  5
A31
330
A02
100
AcDbEntity
  8
Mesh_cs
100
AcDbLine
 10
22.1467
 20
163.414
 30
11.9
 11
22.1472
 21
163.386
 31
11.9
  0
LINE
  5
A32
330
A02
100
AcDbEntity
  8
Mesh_cs
100
AcDbLine
 10
22.1472
 20
163.386
 30
11.9
 11
22.1406
 21
163.024
 31
11.9
  0
LINE
  5
A33
330
A02
100
AcDbEntity
  8
Mesh_cs
100
AcDbLine
 10
22.1406
 20
163.024
 30
11.9
 11
22.1398
 21
162.999
 31
11.9
  0
LINE
  5
A34
330
A02
100
AcDbEntity
  8
Mesh_cs
100
AcDbLine
 10
22.1398
 20
162.999
 30
11.9
 11
22.1382
 21
162.978
 31
11.9
  0
LINE
  5
A35
330
A02
100
AcDbEntity
  8
Mesh_cs
100
AcDbLine
 10
22.1382
 20
162.978
 30
11.9
 11
22.1245
 21
162.874
 31
11.9
  0
LINE
  5
A36
330
A02
100
AcDbEntity
  8
Mesh_cs
100
AcDbLine
 10
22.1245
 20
162.874
 30
11.9
 11
22.0877
 21
162.518
 31
11.9
  0
LINE
  5
A37
330
A02
100
AcDbEntity
  8
Mesh_cs
100
AcDbLine
 10
22.0877
 20
162.518
 30
11.9
 11
22.0824
 21
162.488
 31
11.9
  0
LINE
  5
A38
330
A02
100
AcDbEntity
  8
Mesh_cs
100
AcDbLine
 10
22.0824
 20
162.488
 30
11.9
 11
22.0445
 21
162.278
 31
11.9
  0
LINE
  5
A39
330
A02
100
AcDbEntity
  8
Mesh_cs
100
AcDbLine
 10
22.0445
 20
162.278
 30
11.9
 11
21.9942
 21
162.072
 31
11.9
  0
LINE
  5
A3A
330
A02
100
AcDbEntity
  8
Mesh_cs
100
AcDbLine
 10
21.9942
 20
162.072
 30
11.9
 11
21.9869
 21
162.043
 31
11.9
  0
LINE
  5
A3B
330
A02
100
AcDbEntity
  8
Mesh_cs
100
AcDbLine
 10
21.9869
 20
162.043
 30
11.9
 11
21.9734
 21
161.986
 31
11.9
  0
LINE
  5
A3C
330
A02
100
AcDbEntity
  8
Mesh_cs
100
AcDbLine
 10
21.9734
 20
161.986
 30
11.9
 11
21.9711
 21
161.974
 31
11.9
  0
LINE
  5
A3D
330
A02
100
AcDbEntity
  8
Mesh_cs
100
AcDbLine
 10
21.9711
 20
161.974
 30
11.9
 11
21.9677
 21
161.959
 31
11.9
  0
LINE
  5
A3E
330
A02
100
AcDbEntity
  8
Mesh_cs
100
AcDbLine
 10
21.9677
 20
161.959
 30
11.9
 11
20.6953
 21
157.282
 31
11.9
  0
LINE
  5
A3F
330
A02
100
AcDbEntity
  8
Mesh_cs
100
AcDbLine
 10
20.6953
 20
157.282
 30
11.9
 11
20.6846
 21
157.243
 31
11.9
  0
LINE
  5
A40
330
A02
100
AcDbEntity
  8
Mesh_cs
100
AcDbLine
 10
20.6846
 20
157.243
 30
11.9
 11
20.6742
 21
157.204
 31
11.9
  0
LINE
  5
A41
330
A02
100
AcDbEntity
  8
Mesh_cs
100
AcDbLine
 10
20.6742
 20
157.204
 30
11.9
 11
19.4395
 21
152.516
 31
11.9
  0
LINE
  5
A42
330
A02
100
AcDbEntity
  8
Mesh_cs
100
AcDbLine
 10
19.4395
 20
152.516
 30
11.9
 11
19.4294
 21
152.477
 31
11.9
  0
LINE
  5
A43
330
A02
100
AcDbEntity
  8
Mesh_cs
100
AcDbLine
 10
19.4294
 20
152.477
 30
11.9
 11
18.2324
 21
147.78
 31
11.9
  0
LINE
  5
A44
330
A02
100
AcDbEntity
  8
Mesh_cs
100
AcDbLine
 10
18.2324
 20
147.78
 30
11.9
 11
18.2227
 21
147.74
 31
11.9
  0
LINE
  5
A45
330
A02
100
AcDbEntity
  8
Mesh_cs
100
AcDbLine
 10
18.2227
 20
147.74
 30
11.9
 11
17.0635
 21
143.033
 31
11.9
  0
LINE
  5
A46
330
A02
100
AcDbEntity
  8
Mesh_cs
100
AcDbLine
 10
17.0635
 20
143.033
 30
11.9
 11
17.054
 21
142.994
 31
11.9
  0
LINE
  5
A47
330
A02
100
AcDbEntity
  8
Mesh_cs
100
AcDbLine
 10
17.054
 20
142.994
 30
11.9
 11
15.9327
 21
138.278
 31
11.9
  0
LINE
  5
A48
330
A02
100
AcDbEntity
  8
Mesh_cs
100
AcDbLine
 10
15.9327
 20
138.278
 30
11.9
 11
14.8493
 21
133.554
 31
11.9
  0
LINE
  5
A49
330
A02
100
AcDbEntity
  8
Mesh_cs
100
AcDbLine
 10
14.8493
 20
133.554
 30
11.9
 11
14.8402
 21
133.514
 31
11.9
  0
LINE
  5
A4A
330
A02
100
AcDbEntity
  8
Mesh_cs
100
AcDbLine
 10
14.8402
 20
133.514
 30
11.9
 11
14.8314
 21
133.474
 31
11.9
  0
LINE
  5
A4B
330
A02
100
AcDbEntity
  8
Mesh_cs
100
AcDbLine
 10
14.8314
 20
133.474
 30
11.9
 11
13.786
 21
128.741
 31
11.9
  0
LINE
  5
A4C
330
A02
100
AcDbEntity
  8
Mesh_cs
100
AcDbLine
 10
13.786
 20
128.741
 30
11.9
 11
13.7776
 21
128.701
 31
11.9
  0
LINE
  5
A4D
330
A02
100
AcDbEntity
  8
Mesh_cs
100
AcDbLine
 10
13.7776
 20
128.701
 30
11.9
 11
12.7703
 21
123.96
 31
11.9
  0
LINE
  5
A4E
330
A02
100
AcDbEntity
  8
Mesh_cs
100
AcDbLine
 10
12.7703
 20
123.96
 30
11.9
 11
12.7621
 21
123.92
 31
11.9
  0
LINE
  5
A4F
330
A02
100
AcDbEntity
  8
Mesh_cs
100
AcDbLine
 10
12.7621
 20
123.92
 30
11.9
 11
11.793
 21
119.17
 31
11.9
  0
LINE
  5
A50
330
A02
100
AcDbEntity
  8
Mesh_cs
100
AcDbLine
 10
11.793
 20
119.17
 30
11.9
 11
10.862
 21
114.413
 31
11.9
  0
LINE
  5
A51
330
A02
100
AcDbEntity
  8
Mesh_cs
100
AcDbLine
 10
10.862
 20
114.413
 30
11.9
 11
10.8542
 21
114.373
 31
11.9
  0
LINE
  5
A52
330
A02
100
AcDbEntity
  8
Mesh_cs
100
AcDbLine
 10
10.8542
 20
114.373
 30
11.9
 11
10.8467
 21
114.333
 31
11.9
  0
LINE
  5
A53
330
A02
100
AcDbEntity
  8
Mesh_cs
100
AcDbLine
 10
10.8467
 20
114.333
 30
11.9
 11
9.95406
 21
109.569
 31
11.9
  0
LINE
  5
A54
330
A02
100
AcDbEntity
  8
Mesh_cs
100
AcDbLine
 10
9.95406
 20
109.569
 30
11.9
 11
9.94688
 21
109.529
 31
11.9
  0
LINE
  5
A55
330
A02
100
AcDbEntity
  8
Mesh_cs
100
AcDbLine
 10
9.94688
 20
109.529
 30
11.9
 11
9.09254
 21
104.758
 31
11.9
  0
LINE
  5
A56
330
A02
100
AcDbEntity
  8
Mesh_cs
100
AcDbLine
 10
9.09254
 20
104.758
 30
11.9
 11
9.08569
 21
104.717
 31
11.9
  0
LINE
  5
A57
330
A02
100
AcDbEntity
  8
Mesh_cs
100
AcDbLine
 10
9.08569
 20
104.717
 30
11.9
 11
8.26974
 21
99.9394
 31
11.9
  0
LINE
  5
A58
330
A02
100
AcDbEntity
  8
Mesh_cs
100
AcDbLine
 10
8.26974
 20
99.9394
 30
11.9
 11
7.49223
 21
95.155
 31
11.9
  0
LINE
  5
A59
330
A02
100
AcDbEntity
  8
Mesh_cs
100
AcDbLine
 10
7.49223
 20
95.155
 30
11.9
 11
7.48569
 21
95.1148
 31
11.9
  0
LINE
  5
A5A
330
A02
100
AcDbEntity
  8
Mesh_cs
100
AcDbLine
 10
7.48569
 20
95.1148
 30
11.9
 11
7.47948
 21
95.0745
 31
11.9
  0
LINE
  5
A5B
330
A02
100
AcDbEntity
  8
Mesh_cs
100
AcDbLine
 10
7.47948
 20
95.0745
 30
11.9
 11
6.74046
 21
90.2839
 31
11.9
  0
LINE
  5
A5C
330
A02
100
AcDbEntity
  8
Mesh_cs
100
AcDbLine
 10
6.74046
 20
90.2839
 30
11.9
 11
6.73457
 21
90.2436
 31
11.9
  0
LINE
  5
A5D
330
A02
100
AcDbEntity
  8
Mesh_cs
100
AcDbLine
 10
6.73457
 20
90.2436
 30
11.9
 11
6.03409
 21
85.4473
 31
11.9
  0
LINE
  5
A5E
330
A02
100
AcDbEntity
  8
Mesh_cs
100
AcDbLine
 10
6.03409
 20
85.4473
 30
11.9
 11
6.02852
 21
85.407
 31
11.9
  0
LINE
  5
A5F
330
A02
100
AcDbEntity
  8
Mesh_cs
100
AcDbLine
 10
6.02852
 20
85.407
 30
11.9
 11
5.36662
 21
80.6051
 31
11.9
  0
LINE
  5
A60
330
A02
100
AcDbEntity
  8
Mesh_cs
100
AcDbLine
 10
5.36662
 20
80.6051
 30
11.9
 11
4.74334
 21
75.7981
 31
11.9
  0
LINE
  5
A61
330
A02
100
AcDbEntity
  8
Mesh_cs
100
AcDbLine
 10
4.74334
 20
75.7981
 30
11.9
 11
4.7381
 21
75.7578
 31
11.9
  0
LINE
  5
A62
330
A02
100
AcDbEntity
  8
Mesh_cs
100
AcDbLine
 10
4.7381
 20
75.7578
 30
11.9
 11
4.73319
 21
75.7173
 31
11.9
  0
LINE
  5
A63
330
A02
100
AcDbEntity
  8
Mesh_cs
100
AcDbLine
 10
4.73319
 20
75.7173
 30
11.9
 11
4.14857
 21
70.9055
 31
11.9
  0
LINE
  5
A64
330
A02
100
AcDbEntity
  8
Mesh_cs
100
AcDbLine
 10
4.14857
 20
70.9055
 30
11.9
 11
4.14398
 21
70.865
 31
11.9
  0
LINE
  5
A65
330
A02
100
AcDbEntity
  8
Mesh_cs
100
AcDbLine
 10
4.14398
 20
70.865
 30
11.9
 11
3.59806
 21
66.0486
 31
11.9
  0
LINE
  5
A66
330
A02
100
AcDbEntity
  8
Mesh_cs
100
AcDbLine
 10
3.59806
 20
66.0486
 30
11.9
 11
3.5938
 21
66.0081
 31
11.9
  0
LINE
  5
A67
330
A02
100
AcDbEntity
  8
Mesh_cs
100
AcDbLine
 10
3.5938
 20
66.0081
 30
11.9
 11
3.08662
 21
61.1875
 31
11.9
  0
LINE
  5
A68
330
A02
100
AcDbEntity
  8
Mesh_cs
100
AcDbLine
 10
3.08662
 20
61.1875
 30
11.9
 11
3.08269
 21
61.1469
 31
11.9
  0
LINE
  5
A69
330
A02
100
AcDbEntity
  8
Mesh_cs
100
AcDbLine
 10
3.08269
 20
61.1469
 30
11.9
 11
2.61428
 21
56.3224
 31
11.9
  0
LINE
  5
A6A
330
A02
100
AcDbEntity
  8
Mesh_cs
100
AcDbLine
 10
2.61428
 20
56.3224
 30
11.9
 11
2.61067
 21
56.2818
 31
11.9
  0
LINE
  5
A6B
330
A02
100
AcDbEntity
  8
Mesh_cs
100
AcDbLine
 10
2.61067
 20
56.2818
 30
11.9
 11
2.18106
 21
51.4537
 31
11.9
  0
LINE
  5
A6C
330
A02
100
AcDbEntity
  8
Mesh_cs
100
AcDbLine
 10
2.18106
 20
51.4537
 30
11.9
 11
2.17777
 21
51.4131
 31
11.9
  0
LINE
  5
A6D
330
A02
100
AcDbEntity
  8
Mesh_cs
100
AcDbLine
 10
2.17777
 20
51.4131
 30
11.9
 11
1.78699
 21
46.5816
 31
11.9
  0
LINE
  5
A6E
330
A02
100
AcDbEntity
  8
Mesh_cs
100
AcDbLine
 10
1.78699
 20
46.5816
 30
11.9
 11
1.78404
 21
46.541
 31
11.9
  0
LINE
  5
A6F
330
A02
100
AcDbEntity
  8
Mesh_cs
100
AcDbLine
 10
1.78404
 20
46.541
 30
11.9
 11
1.43211
 21
41.7066
 31
11.9
  0
LINE
  5
A70
330
A02
100
AcDbEntity
  8
Mesh_cs
100
AcDbLine
 10
1.43211
 20
41.7066
 30
11.9
 11
1.42948
 21
41.6659
 31
11.9
  0
LINE
  5
A71
330
A02
100
AcDbEntity
  8
Mesh_cs
100
AcDbLine
 10
1.42948
 20
41.6659
 30
11.9
 11
1.11642
 21
36.8288
 31
11.9
  0
LINE
  5
A72
330
A02
100
AcDbEntity
  8
Mesh_cs
100
AcDbLine
 10
1.11642
 20
36.8288
 30
11.9
 11
1.11412
 21
36.7882
 31
11.9
  0
LINE
  5
A73
330
A02
100
AcDbEntity
  8
Mesh_cs
100
AcDbLine
 10
1.11412
 20
36.7882
 30
11.9
 11
0.839965
 21
31.9487
 31
11.9
  0
LINE
  5
A74
330
A02
100
AcDbEntity
  8
Mesh_cs
100
AcDbLine
 10
0.839965
 20
31.9487
 30
11.9
 11
0.837988
 21
31.908
 31
11.9
  0
LINE
  5
A75
330
A02
100
AcDbEntity
  8
Mesh_cs
100
AcDbLine
 10
0.837988
 20
31.908
 30
11.9
 11
0.602746
 21
27.0665
 31
11.9
  0
LINE
  5
A76
330
A02
100
AcDbEntity
  8
Mesh_cs
100
AcDbLine
 10
0.602746
 20
27.0665
 30
11.9
 11
0.571664
 21
26.6898
 31
11.9
  0
LINE
  5
A77
330
A02
100
AcDbEntity
  8
Mesh_cs
100
AcDbLine
 10
0.571664
 20
26.6898
 30
11.9
 11
0.512715
 21
26.3197
 31
11.9
  0
LINE
  5
A78
330
A02
100
AcDbEntity
  8
Mesh_cs
100
AcDbLine
 10
0.512715
 20
26.3197
 30
11.9
 11
0.425482
 21
25.952
 31
11.9
  0
LINE
  5
A79
330
A02
100
AcDbEntity
  8
Mesh_cs
100
AcDbLine
 10
0.425482
 20
25.952
 30
11.9
 11
0.310722
 21
25.5919
 31
11.9
  0
LINE
  5
A7A
330
A02
100
AcDbEntity
  8
Mesh_cs
100
AcDbLine
 10
0.310722
 20
25.5919
 30
11.9
 11
0.169092
 21
25.2415
 31
11.9
  0
LINE
  5
A7B
330
A02
100
AcDbEntity
  8
Mesh_cs
100
AcDbLine
 10
0.169092
 20
25.2415
 30
11.9
 11
0.162313
 21
25.2273
 31
11.9
  0
LINE
  5
A7C
330
A02
100
AcDbEntity
  8
Mesh_cs
100
AcDbLine
 10
0.162313
 20
25.2273
 30
11.9
 11
-8.88178e-16
 21
24.9
 31
11.9
  0
LINE
  5
A7D
330
A02
100
AcDbEntity
  8
Mesh_cs
100
AcDbLine
 10
-8.88178e-16
 20
24.9
 30
11.9
 11
0.493074
 21
24.9
 31
11.9
  0
LINE
  5
A7E
330
A02
100
AcDbEntity
  8
Mesh_cs
100
AcDbLine
 10
0.493074
 20
24.9
 30
11.9
 11
1.15641
 21
24.9
 31
11.9
  0
LINE
  5
A7F
330
A02
100
AcDbEntity
  8
Mesh_cs
100
AcDbLine
 10
1.15641
 20
24.9
 30
11.9
 11
19.9
 21
24.9
 31
11.9
  0
LINE
  5
A80
330
A02
100
AcDbEntity
  8
Mesh_cs
100
AcDbLine
 10
19.9
 20
24.9
 30
11.9
 11
19.9145
 21
24.8994
 31
11.9
  0
LINE
  5
A81
330
A02
100
AcDbEntity
  8
Mesh_cs
100
AcDbLine
 10
19.9145
 20
24.8994
 30
11.9
 11
20.3358
 21
24.881
 31
11.9
  0
LINE
  5
A82
330
A02
100
AcDbEntity
  8
Mesh_cs
100
AcDbLine
 10
20.3358
 20
24.881
 30
11.9
 11
20.3502
 21
24.8791
 31
11.9
  0
LINE
  5
A83
330
A02
100
AcDbEntity
  8
Mesh_cs
100
AcDbLine
 10
20.3502
 20
24.8791
 30
11.9
 11
20.7682
 21
24.824
 31
11.9
  0
LINE
  5
A84
330
A02
100
AcDbEntity
  8
Mesh_cs
100
AcDbLine
 10
20.7682
 20
24.824
 30
11.9
 11
20.7824
 21
24.8209
 31
11.9
  0
LINE
  5
A85
330
A02
100
AcDbEntity
  8
Mesh_cs
100
AcDbLine
 10
20.7824
 20
24.8209
 30
11.9
 11
21.1941
 21
24.7296
 31
11.9
  0
LINE
  5
A86
330
A02
100
AcDbEntity
  8
Mesh_cs
100
AcDbLine
 10
21.1941
 20
24.7296
 30
11.9
 11
21.208
 21
24.7253
 31
11.9
  0
LINE
  5
A87
330
A02
100
AcDbEntity
  8
Mesh_cs
100
AcDbLine
 10
21.208
 20
24.7253
 30
11.9
 11
21.6101
 21
24.5985
 31
11.9
  0
LINE
  5
A88
330
A02
100
AcDbEntity
  8
Mesh_cs
100
AcDbLine
 10
21.6101
 20
24.5985
 30
11.9
 11
22.0131
 21
24.4315
 31
11.9
  0
LINE
  5
A89
330
A02
100
AcDbEntity
  8
Mesh_cs
100
AcDbLine
 10
22.0131
 20
24.4315
 30
11.9
 11
22.4
 21
24.2301
 31
11.9
  0
LINE
  5
A8A
330
A02
100
AcDbEntity
  8
Mesh_cs
100
AcDbLine
 10
22.4
 20
24.2301
 30
11.9
 11
22.7679
 21
23.9958
 31
11.9
  0
LINE
  5
A8B
330
A02
100
AcDbEntity
  8
Mesh_cs
100
AcDbLine
 10
22.7679
 20
23.9958
 30
11.9
 11
23.1024
 21
23.7391
 31
11.9
  0
LINE
  5
A8C
330
A02
100
AcDbEntity
  8
Mesh_cs
100
AcDbLine
 10
23.1024
 20
23.7391
 30
11.9
 11
23.1139
 21
23.7302
 31
11.9
  0
LINE
  5
A8D
330
A02
100
AcDbEntity
  8
Mesh_cs
100
AcDbLine
 10
23.1139
 20
23.7302
 30
11.9
 11
23.4355
 21
23.4355
 31
11.9
  0
LINE
  5
A8E
330
A02
100
AcDbEntity
  8
Mesh_cs
100
AcDbLine
 10
23.4355
 20
23.4355
 30
11.9
 11
23.7302
 21
23.1139
 31
11.9
  0
LINE
  5
A8F
330
A02
100
AcDbEntity
  8
Mesh_cs
100
AcDbLine
 10
23.7302
 20
23.1139
 30
11.9
 11
23.9958
 21
22.7679
 31
11.9
  0
LINE
  5
A90
330
A02
100
AcDbEntity
  8
Mesh_cs
100
AcDbLine
 10
23.9958
 20
22.7679
 30
11.9
 11
24.2301
 21
22.4
 31
11.9
  0
LINE
  5
A91
330
A02
100
AcDbEntity
  8
Mesh_cs
100
AcDbLine
 10
24.2301
 20
22.4
 30
11.9
 11
24.4315
 21
22.0131
 31
11.9
  0
LINE
  5
A92
330
A02
100
AcDbEntity
  8
Mesh_cs
100
AcDbLine
 10
24.4315
 20
22.0131
 30
11.9
 11
24.5985
 21
21.6101
 31
11.9
  0
LINE
  5
A93
330
A02
100
AcDbEntity
  8
Mesh_cs
100
AcDbLine
 10
24.5985
 20
21.6101
 30
11.9
 11
24.7296
 21
21.1941
 31
11.9
  0
LINE
  5
A94
330
A02
100
AcDbEntity
  8
Mesh_cs
100
AcDbLine
 10
24.7296
 20
21.1941
 30
11.9
 11
24.824
 21
20.7682
 31
11.9
  0
LINE
  5
A95
330
A02
100
AcDbEntity
  8
Mesh_cs
100
AcDbLine
 10
24.824
 20
20.7682
 30
11.9
 11
24.881
 21
20.3358
 31
11.9
  0
LINE
  5
A96
330
A02
100
AcDbEntity
  8
Mesh_cs
100
AcDbLine
 10
24.881
 20
20.3358
 30
11.9
 11
24.8816
 21
20.3213
 31
11.9
  0
LINE
  5
A97
330
A02
100
AcDbEntity
  8
Mesh_cs
100
AcDbLine
 10
24.8816
 20
20.3213
 30
11.9
 11
24.9
 21
19.9
 31
11.9
  0
LINE
  5
A98
330
A02
100
AcDbEntity
  8
Mesh_cs
100
AcDbLine
 10
24.9
 20
19.9
 30
11.9
 11
24.9
 21
0.663337
 31
11.9
  0
LINE
  5
A99
330
A02
100
AcDbEntity
  8
Mesh_cs
100
AcDbLine
 10
24.9
 20
0.663337
 30
11.9
 11
24.9
 21
2.66454e-15
 31
11.9
  0
LINE
  5
A9A
330
A02
100
AcDbEntity
  8
Mesh_cs
100
AcDbLine
 10
24.9
 20
2.69414e-15
 30
11.9
 11
30.41
 21
2.64233e-15
 31
11.9
  0
LINE
  5
A9B
330
A02
100
AcDbEntity
  8
Mesh_cs
100
AcDbLine
 10
30.41
 20
2.64233e-15
 30
11.9
 11
80
 21
2.64233e-15
 31
11.9
  0
LINE
  5
A9C
330
A02
100
AcDbEntity
  8
Mesh_cs
100
AcDbLine
 10
80
 20
2.64233e-15
 30
11.9
 11
80.0019
 21
0.448324
 31
11.9
  0
LINE
  5
A9D
330
A02
100
AcDbEntity
  8
Mesh_cs
100
AcDbLine
 10
80.0019
 20
0.448324
 30
11.9
 11
80.019
 21
4.48322
 31
11.9
  0
LINE
  5
A9E
330
A02
100
AcDbEntity
  8
Mesh_cs
100
AcDbLine
 10
80.019
 20
4.48322
 30
11.9
 11
80.0247
 21
4.93152
 31
11.9
  0
LINE
  5
A9F
330
A02
100
AcDbEntity
  8
Mesh_cs
100
AcDbLine
 10
80.0247
 20
4.93152
 30
11.9
 11
80.0761
 21
8.96613
 31
11.9
  0
LINE
  5
AA0
330
A02
100
AcDbEntity
  8
Mesh_cs
100
AcDbLine
 10
80.0761
 20
8.96613
 30
11.9
 11
80.0856
 21
9.41435
 31
11.9
  0
LINE
  5
AA1
330
A02
100
AcDbEntity
  8
Mesh_cs
100
AcDbLine
 10
80.0856
 20
9.41435
 30
11.9
 11
80.1713
 21
13.4484
 31
11.9
  0
LINE
  5
AA2
330
A02
100
AcDbEntity
  8
Mesh_cs
100
AcDbLine
 10
80.1713
 20
13.4484
 30
11.9
 11
80.1846
 21
13.8965
 31
11.9
  0
LINE
  5
AA3
330
A02
100
AcDbEntity
  8
Mesh_cs
100
AcDbLine
 10
80.1846
 20
13.8965
 30
11.9
 11
80.3045
 21
17.9297
 31
11.9
  0
LINE
  5
AA4
330
A02
100
AcDbEntity
  8
Mesh_cs
100
AcDbLine
 10
80.3045
 20
17.9297
 30
11.9
 11
80.3216
 21
18.3777
 31
11.9
  0
LINE
  5
AA5
330
A02
100
AcDbEntity
  8
Mesh_cs
100
AcDbLine
 10
80.3216
 20
18.3777
 30
11.9
 11
80.4758
 21
22.4097
 31
11.9
  0
LINE
  5
AA6
330
A02
100
AcDbEntity
  8
Mesh_cs
100
AcDbLine
 10
80.4758
 20
22.4097
 30
11.9
 11
80.4967
 21
22.8575
 31
11.9
  0
LINE
  5
AA7
330
A02
100
AcDbEntity
  8
Mesh_cs
100
AcDbLine
 10
80.4967
 20
22.8575
 30
11.9
 11
80.6851
 21
26.888
 31
11.9
  0
LINE
  5
AA8
330
A02
100
AcDbEntity
  8
Mesh_cs
100
AcDbLine
 10
80.6851
 20
26.888
 30
11.9
 11
80.9076
 21
30.9168
 31
11.9
  0
LINE
  5
AA9
330
A02
100
AcDbEntity
  8
Mesh_cs
100
AcDbLine
 10
80.9076
 20
30.9168
 30
11.9
 11
80.9324
 21
31.3645
 31
11.9
  0
LINE
  5
AAA
330
A02
100
AcDbEntity
  8
Mesh_cs
100
AcDbLine
 10
80.9324
 20
31.3645
 30
11.9
 11
80.9609
 21
31.8119
 31
11.9
  0
LINE
  5
AAB
330
A02
100
AcDbEntity
  8
Mesh_cs
100
AcDbLine
 10
80.9609
 20
31.8119
 30
11.9
 11
81.2177
 21
35.8387
 31
11.9
  0
LINE
  5
AAC
330
A02
100
AcDbEntity
  8
Mesh_cs
100
AcDbLine
 10
81.2177
 20
35.8387
 30
11.9
 11
81.5086
 21
39.8631
 31
11.9
  0
LINE
  5
AAD
330
A02
100
AcDbEntity
  8
Mesh_cs
100
AcDbLine
 10
81.5086
 20
39.8631
 30
11.9
 11
81.5409
 21
40.3102
 31
11.9
  0
LINE
  5
AAE
330
A02
100
AcDbEntity
  8
Mesh_cs
100
AcDbLine
 10
81.5409
 20
40.3102
 30
11.9
 11
81.5771
 21
40.7571
 31
11.9
  0
LINE
  5
AAF
330
A02
100
AcDbEntity
  8
Mesh_cs
100
AcDbLine
 10
81.5771
 20
40.7571
 30
11.9
 11
81.9022
 21
44.7789
 31
11.9
  0
LINE
  5
AB0
330
A02
100
AcDbEntity
  8
Mesh_cs
100
AcDbLine
 10
81.9022
 20
44.7789
 30
11.9
 11
81.9421
 21
45.2255
 31
11.9
  0
LINE
  5
AB1
330
A02
100
AcDbEntity
  8
Mesh_cs
100
AcDbLine
 10
81.9421
 20
45.2255
 30
11.9
 11
82.3014
 21
49.2444
 31
11.9
  0
LINE
  5
AB2
330
A02
100
AcDbEntity
  8
Mesh_cs
100
AcDbLine
 10
82.3014
 20
49.2444
 30
11.9
 11
82.3451
 21
49.6906
 31
11.9
  0
LINE
  5
AB3
330
A02
100
AcDbEntity
  8
Mesh_cs
100
AcDbLine
 10
82.3451
 20
49.6906
 30
11.9
 11
82.7384
 21
53.7063
 31
11.9
  0
LINE
  5
AB4
330
A02
100
AcDbEntity
  8
Mesh_cs
100
AcDbLine
 10
82.7384
 20
53.7063
 30
11.9
 11
82.7859
 21
54.1521
 31
11.9
  0
LINE
  5
AB5
330
A02
100
AcDbEntity
  8
Mesh_cs
100
AcDbLine
 10
82.7859
 20
54.1521
 30
11.9
 11
83.2134
 21
58.1643
 31
11.9
  0
LINE
  5
AB6
330
A02
100
AcDbEntity
  8
Mesh_cs
100
AcDbLine
 10
83.2134
 20
58.1643
 30
11.9
 11
83.2646
 21
58.6097
 31
11.9
  0
LINE
  5
AB7
330
A02
100
AcDbEntity
  8
Mesh_cs
100
AcDbLine
 10
83.2646
 20
58.6097
 30
11.9
 11
83.7261
 21
62.6182
 31
11.9
  0
LINE
  5
AB8
330
A02
100
AcDbEntity
  8
Mesh_cs
100
AcDbLine
 10
83.7261
 20
62.6182
 30
11.9
 11
83.7812
 21
63.0631
 31
11.9
  0
LINE
  5
AB9
330
A02
100
AcDbEntity
  8
Mesh_cs
100
AcDbLine
 10
83.7812
 20
63.0631
 30
11.9
 11
84.2767
 21
67.0675
 31
11.9
  0
LINE
  5
ABA
330
A02
100
AcDbEntity
  8
Mesh_cs
100
AcDbLine
 10
84.2767
 20
67.0675
 30
11.9
 11
84.3355
 21
67.512
 31
11.9
  0
LINE
  5
ABB
330
A02
100
AcDbEntity
  8
Mesh_cs
100
AcDbLine
 10
84.3355
 20
67.512
 30
11.9
 11
84.865
 21
71.512
 31
11.9
  0
LINE
  5
ABC
330
A02
100
AcDbEntity
  8
Mesh_cs
100
AcDbLine
 10
84.865
 20
71.512
 30
11.9
 11
85.4285
 21
75.5074
 31
11.9
  0
LINE
  5
ABD
330
A02
100
AcDbEntity
  8
Mesh_cs
100
AcDbLine
 10
85.4285
 20
75.5074
 30
11.9
 11
85.4911
 21
75.9514
 31
11.9
  0
LINE
  5
ABE
330
A02
100
AcDbEntity
  8
Mesh_cs
100
AcDbLine
 10
85.4911
 20
75.9514
 30
11.9
 11
86.0884
 21
79.9418
 31
11.9
  0
LINE
  5
ABF
330
A02
100
AcDbEntity
  8
Mesh_cs
100
AcDbLine
 10
86.0884
 20
79.9418
 30
11.9
 11
86.1548
 21
80.3852
 31
11.9
  0
LINE
  5
AC0
330
A02
100
AcDbEntity
  8
Mesh_cs
100
AcDbLine
 10
86.1548
 20
80.3852
 30
11.9
 11
86.2249
 21
80.828
 31
11.9
  0
LINE
  5
AC1
330
A02
100
AcDbEntity
  8
Mesh_cs
100
AcDbLine
 10
86.2249
 20
80.828
 30
11.9
 11
86.8561
 21
84.8133
 31
11.9
  0
LINE
  5
AC2
330
A02
100
AcDbEntity
  8
Mesh_cs
100
AcDbLine
 10
86.8561
 20
84.8133
 30
11.9
 11
86.93
 21
85.2555
 31
11.9
  0
LINE
  5
AC3
330
A02
100
AcDbEntity
  8
Mesh_cs
100
AcDbLine
 10
86.93
 20
85.2555
 30
11.9
 11
87.595
 21
89.2352
 31
11.9
  0
LINE
  5
AC4
330
A02
100
AcDbEntity
  8
Mesh_cs
100
AcDbLine
 10
87.595
 20
89.2352
 30
11.9
 11
87.6727
 21
89.6768
 31
11.9
  0
LINE
  5
AC5
330
A02
100
AcDbEntity
  8
Mesh_cs
100
AcDbLine
 10
87.6727
 20
89.6768
 30
11.9
 11
88.3715
 21
93.6508
 31
11.9
  0
LINE
  5
AC6
330
A02
100
AcDbEntity
  8
Mesh_cs
100
AcDbLine
 10
88.3715
 20
93.6508
 30
11.9
 11
88.4529
 21
94.0916
 31
11.9
  0
LINE
  5
AC7
330
A02
100
AcDbEntity
  8
Mesh_cs
100
AcDbLine
 10
88.4529
 20
94.0916
 30
11.9
 11
89.1854
 21
98.0595
 31
11.9
  0
LINE
  5
AC8
330
A02
100
AcDbEntity
  8
Mesh_cs
100
AcDbLine
 10
89.1854
 20
98.0595
 30
11.9
 11
89.2705
 21
98.4997
 31
11.9
  0
LINE
  5
AC9
330
A02
100
AcDbEntity
  8
Mesh_cs
100
AcDbLine
 10
89.2705
 20
98.4997
 30
11.9
 11
90.0367
 21
102.461
 31
11.9
  0
LINE
  5
ACA
330
A02
100
AcDbEntity
  8
Mesh_cs
100
AcDbLine
 10
90.0367
 20
102.461
 30
11.9
 11
90.1255
 21
102.901
 31
11.9
  0
LINE
  5
ACB
330
A02
100
AcDbEntity
  8
Mesh_cs
100
AcDbLine
 10
90.1255
 20
102.901
 30
11.9
 11
90.9253
 21
106.856
 31
11.9
  0
LINE
  5
ACC
330
A02
100
AcDbEntity
  8
Mesh_cs
100
AcDbLine
 10
90.9253
 20
106.856
 30
11.9
 11
91.0179
 21
107.294
 31
11.9
  0
LINE
  5
ACD
330
A02
100
AcDbEntity
  8
Mesh_cs
100
AcDbLine
 10
91.0179
 20
107.294
 30
11.9
 11
91.8512
 21
111.242
 31
11.9
  0
LINE
  5
ACE
330
A02
100
AcDbEntity
  8
Mesh_cs
100
AcDbLine
 10
91.8512
 20
111.242
 30
11.9
 11
91.9475
 21
111.68
 31
11.9
  0
LINE
  5
ACF
330
A02
100
AcDbEntity
  8
Mesh_cs
100
AcDbLine
 10
91.9475
 20
111.68
 30
11.9
 11
92.8143
 21
115.621
 31
11.9
  0
LINE
  5
AD0
330
A02
100
AcDbEntity
  8
Mesh_cs
100
AcDbLine
 10
92.8143
 20
115.621
 30
11.9
 11
92.9144
 21
116.058
 31
11.9
  0
LINE
  5
AD1
330
A02
100
AcDbEntity
  8
Mesh_cs
100
AcDbLine
 10
92.9144
 20
116.058
 30
11.9
 11
93.8146
 21
119.991
 31
11.9
  0
LINE
  5
AD2
330
A02
100
AcDbEntity
  8
Mesh_cs
100
AcDbLine
 10
93.8146
 20
119.991
 30
11.9
 11
93.9183
 21
120.427
 31
11.9
  0
LINE
  5
AD3
330
A02
100
AcDbEntity
  8
Mesh_cs
100
AcDbLine
 10
93.9183
 20
120.427
 30
11.9
 11
94.852
 21
124.353
 31
11.9
  0
LINE
  5
AD4
330
A02
100
AcDbEntity
  8
Mesh_cs
100
AcDbLine
 10
94.852
 20
124.353
 30
11.9
 11
94.9594
 21
124.788
 31
11.9
  0
LINE
  5
AD5
330
A02
100
AcDbEntity
  8
Mesh_cs
100
AcDbLine
 10
94.9594
 20
124.788
 30
11.9
 11
95.9263
 21
128.705
 31
11.9
  0
LINE
  5
AD6
330
A02
100
AcDbEntity
  8
Mesh_cs
100
AcDbLine
 10
95.9263
 20
128.705
 30
11.9
 11
96.9264
 21
132.614
 31
11.9
  0
LINE
  5
AD7
330
A02
100
AcDbEntity
  8
Mesh_cs
100
AcDbLine
 10
96.9264
 20
132.614
 30
11.9
 11
97.0375
 21
133.049
 31
11.9
  0
LINE
  5
AD8
330
A02
100
AcDbEntity
  8
Mesh_cs
100
AcDbLine
 10
97.0375
 20
133.049
 30
11.9
 11
98.0708
 21
136.949
 31
11.9
  0
LINE
  5
AD9
330
A02
100
AcDbEntity
  8
Mesh_cs
100
AcDbLine
 10
98.0708
 20
136.949
 30
11.9
 11
98.1856
 21
137.382
 31
11.9
  0
LINE
  5
ADA
330
A02
100
AcDbEntity
  8
Mesh_cs
100
AcDbLine
 10
98.1856
 20
137.382
 30
11.9
 11
98.3041
 21
137.815
 31
11.9
  0
LINE
  5
ADB
330
A02
100
AcDbEntity
  8
Mesh_cs
100
AcDbLine
 10
98.3041
 20
137.815
 30
11.9
 11
99.3705
 21
141.706
 31
11.9
  0
LINE
  5
ADC
330
A02
100
AcDbEntity
  8
Mesh_cs
100
AcDbLine
 10
99.3705
 20
141.706
 30
11.9
 11
100.47
 21
145.589
 31
11.9
  0
LINE
  5
ADD
330
A02
100
AcDbEntity
  8
Mesh_cs
100
AcDbLine
 10
100.47
 20
145.589
 30
11.9
 11
100.592
 21
146.02
 31
11.9
  0
LINE
  5
ADE
330
A02
100
AcDbEntity
  8
Mesh_cs
100
AcDbLine
 10
100.592
 20
146.02
 30
11.9
 11
100.718
 21
146.45
 31
11.9
  0
LINE
  5
ADF
330
A02
100
AcDbEntity
  8
Mesh_cs
100
AcDbLine
 10
100.718
 20
146.45
 30
11.9
 11
101.85
 21
150.323
 31
11.9
  0
LINE
  5
AE0
330
A02
100
AcDbEntity
  8
Mesh_cs
100
AcDbLine
 10
101.85
 20
150.323
 30
11.9
 11
103.015
 21
154.186
 31
11.9
  0
LINE
  5
AE1
330
A02
100
AcDbEntity
  8
Mesh_cs
100
AcDbLine
 10
103.015
 20
154.186
 30
11.9
 11
103.145
 21
154.615
 31
11.9
  0
LINE
  5
AE2
330
A02
100
AcDbEntity
  8
Mesh_cs
100
AcDbLine
 10
103.145
 20
154.615
 30
11.9
 11
103.278
 21
155.043
 31
11.9
  0
LINE
  5
AE3
330
A02
100
AcDbEntity
  8
Mesh_cs
100
AcDbLine
 10
14.9
 20
14.9
 30
11.9
 11
14.9
 21
14.4033
 31
11.9
  0
LINE
  5
AE4
330
A02
100
AcDbEntity
  8
Mesh_cs
100
AcDbLine
 10
14.9
 20
14.4033
 30
11.9
 11
14.9
 21
1.77636e-15
 31
11.9
  0
LINE
  5
AE5
330
A02
100
AcDbEntity
  8
Mesh_cs
100
AcDbLine
 10
14.9
 20
2.64233e-15
 30
11.9
 11
0.496668
 21
3.73437e-14
 31
11.9
  0
LINE
  5
AE6
330
A02
100
AcDbEntity
  8
Mesh_cs
100
AcDbLine
 10
0.496668
 20
3.73437e-14
 30
11.9
 11
0
 21
3.85514e-14
 31
11.9
  0
LINE
  5
AE7
330
A02
100
AcDbEntity
  8
Mesh_cs
100
AcDbLine
 10
0
 20
3.85514e-14
 30
11.9
 11
0
 21
0.496668
 31
11.9
  0
LINE
  5
AE8
330
A02
100
AcDbEntity
  8
Mesh_cs
100
AcDbLine
 10
0
 20
0.496668
 30
11.9
 11
-5.13764e-16
 21
14.9
 31
11.9
  0
LINE
  5
AE9
330
A02
100
AcDbEntity
  8
Mesh_cs
100
AcDbLine
 10
-5.13764e-16
 20
14.9
 30
11.9
 11
0.17651
 21
14.9
 31
11.9
  0
LINE
  5
AEA
330
A02
100
AcDbEntity
  8
Mesh_cs
100
AcDbLine
 10
0.17651
 20
14.9
 30
11.9
 11
0.673178
 21
14.9
 31
11.9
  0
LINE
  5
AEB
330
A02
100
AcDbEntity
  8
Mesh_cs
100
AcDbLine
 10
0.673178
 20
14.9
 30
11.9
 11
14.9
 21
14.9
 31
11.9
  0
LINE
  5
AEC
330
A02
100
AcDbEntity
  8
Mesh_cs
100
AcDbLine
 10
198.372
 20
106.92
 30
11.9
 11
207.52
 21
103.948
 31
11.9
  0
LINE
  5
AED
330
A02
100
AcDbEntity
  8
Mesh_cs
100
AcDbLine
 10
207.52
 20
103.948
 30
11.9
 11
207.514
 21
103.927
 31
11.9
  0
LINE
  5
AEE
330
A02
100
AcDbEntity
  8
Mesh_cs
100
AcDbLine
 10
207.514
 20
103.927
 30
11.9
 11
207.505
 21
103.892
 31
11.9
  0
LINE
  5
AEF
330
A02
100
AcDbEntity
  8
Mesh_cs
100
AcDbLine
 10
207.505
 20
103.892
 30
11.9
 11
207.423
 21
103.606
 31
11.9
  0
LINE
  5
AF0
330
A02
100
AcDbEntity
  8
Mesh_cs
100
AcDbLine
 10
207.423
 20
103.606
 30
11.9
 11
207.359
 21
103.316
 31
11.9
  0
LINE
  5
AF1
330
A02
100
AcDbEntity
  8
Mesh_cs
100
AcDbLine
 10
207.359
 20
103.316
 30
11.9
 11
207.355
 21
103.289
 31
11.9
  0
LINE
  5
AF2
330
A02
100
AcDbEntity
  8
Mesh_cs
100
AcDbLine
 10
207.355
 20
103.289
 30
11.9
 11
207.303
 21
102.929
 31
11.9
  0
LINE
  5
AF3
330
A02
100
AcDbEntity
  8
Mesh_cs
100
AcDbLine
 10
207.303
 20
102.929
 30
11.9
 11
207.3
 21
102.902
 31
11.9
  0
LINE
  5
AF4
330
A02
100
AcDbEntity
  8
Mesh_cs
100
AcDbLine
 10
207.3
 20
102.902
 30
11.9
 11
207.298
 21
102.875
 31
11.9
  0
LINE
  5
AF5
330
A02
100
AcDbEntity
  8
Mesh_cs
100
AcDbLine
 10
207.298
 20
102.875
 30
11.9
 11
207.276
 21
102.511
 31
11.9
  0
LINE
  5
AF6
330
A02
100
AcDbEntity
  8
Mesh_cs
100
AcDbLine
 10
207.276
 20
102.511
 30
11.9
 11
207.276
 21
102.483
 31
11.9
  0
LINE
  5
AF7
330
A02
100
AcDbEntity
  8
Mesh_cs
100
AcDbLine
 10
207.276
 20
102.483
 30
11.9
 11
207.284
 21
102.118
 31
11.9
  0
LINE
  5
AF8
330
A02
100
AcDbEntity
  8
Mesh_cs
100
AcDbLine
 10
207.284
 20
102.118
 30
11.9
 11
207.285
 21
102.09
 31
11.9
  0
LINE
  5
AF9
330
A02
100
AcDbEntity
  8
Mesh_cs
100
AcDbLine
 10
207.285
 20
102.09
 30
11.9
 11
207.294
 21
102.007
 31
11.9
  0
LINE
  5
AFA
330
A02
100
AcDbEntity
  8
Mesh_cs
100
AcDbLine
 10
207.294
 20
102.007
 30
11.9
 11
207.327
 21
101.683
 31
11.9
  0
LINE
  5
AFB
330
A02
100
AcDbEntity
  8
Mesh_cs
100
AcDbLine
 10
207.327
 20
101.683
 30
11.9
 11
207.342
 21
101.602
 31
11.9
  0
LINE
  5
AFC
330
A02
100
AcDbEntity
  8
Mesh_cs
100
AcDbLine
 10
207.342
 20
101.602
 30
11.9
 11
207.396
 21
101.313
 31
11.9
  0
LINE
  5
AFD
330
A02
100
AcDbEntity
  8
Mesh_cs
100
AcDbLine
 10
207.396
 20
101.313
 30
11.9
 11
207.471
 21
101.038
 31
11.9
  0
LINE
  5
AFE
330
A02
100
AcDbEntity
  8
Mesh_cs
100
AcDbLine
 10
207.471
 20
101.038
 30
11.9
 11
207.497
 21
100.936
 31
11.9
  0
LINE
  5
AFF
330
A02
100
AcDbEntity
  8
Mesh_cs
100
AcDbLine
 10
207.497
 20
100.936
 30
11.9
 11
207.501
 21
100.921
 31
11.9
  0
LINE
  5
B00
330
A02
100
AcDbEntity
  8
Mesh_cs
100
AcDbLine
 10
207.501
 20
100.921
 30
11.9
 11
207.506
 21
100.906
 31
11.9
  0
LINE
  5
B01
330
A02
100
AcDbEntity
  8
Mesh_cs
100
AcDbLine
 10
207.506
 20
100.906
 30
11.9
 11
207.511
 21
100.886
 31
11.9
  0
LINE
  5
B02
330
A02
100
AcDbEntity
  8
Mesh_cs
100
AcDbLine
 10
207.511
 20
100.886
 30
11.9
 11
206.584
 21
97.1319
 31
11.9
  0
LINE
  5
B03
330
A02
100
AcDbEntity
  8
Mesh_cs
100
AcDbLine
 10
206.584
 20
97.1319
 30
11.9
 11
206.576
 21
97.1004
 31
11.9
  0
LINE
  5
B04
330
A02
100
AcDbEntity
  8
Mesh_cs
100
AcDbLine
 10
206.576
 20
97.1004
 30
11.9
 11
205.685
 21
93.338
 31
11.9
  0
LINE
  5
B05
330
A02
100
AcDbEntity
  8
Mesh_cs
100
AcDbLine
 10
205.685
 20
93.338
 30
11.9
 11
205.678
 21
93.3064
 31
11.9
  0
LINE
  5
B06
330
A02
100
AcDbEntity
  8
Mesh_cs
100
AcDbLine
 10
205.678
 20
93.3064
 30
11.9
 11
204.822
 21
89.5358
 31
11.9
  0
LINE
  5
B07
330
A02
100
AcDbEntity
  8
Mesh_cs
100
AcDbLine
 10
204.822
 20
89.5358
 30
11.9
 11
204.815
 21
89.5041
 31
11.9
  0
LINE
  5
B08
330
A02
100
AcDbEntity
  8
Mesh_cs
100
AcDbLine
 10
204.815
 20
89.5041
 30
11.9
 11
203.995
 21
85.7256
 31
11.9
  0
LINE
  5
B09
330
A02
100
AcDbEntity
  8
Mesh_cs
100
AcDbLine
 10
203.995
 20
85.7256
 30
11.9
 11
203.988
 21
85.6939
 31
11.9
  0
LINE
  5
B0A
330
A02
100
AcDbEntity
  8
Mesh_cs
100
AcDbLine
 10
203.988
 20
85.6939
 30
11.9
 11
203.203
 21
81.9078
 31
11.9
  0
LINE
  5
B0B
330
A02
100
AcDbEntity
  8
Mesh_cs
100
AcDbLine
 10
203.203
 20
81.9078
 30
11.9
 11
203.197
 21
81.876
 31
11.9
  0
LINE
  5
B0C
330
A02
100
AcDbEntity
  8
Mesh_cs
100
AcDbLine
 10
203.197
 20
81.876
 30
11.9
 11
202.448
 21
78.0826
 31
11.9
  0
LINE
  5
B0D
330
A02
100
AcDbEntity
  8
Mesh_cs
100
AcDbLine
 10
202.448
 20
78.0826
 30
11.9
 11
202.442
 21
78.0508
 31
11.9
  0
LINE
  5
B0E
330
A02
100
AcDbEntity
  8
Mesh_cs
100
AcDbLine
 10
202.442
 20
78.0508
 30
11.9
 11
201.729
 21
74.2505
 31
11.9
  0
LINE
  5
B0F
330
A02
100
AcDbEntity
  8
Mesh_cs
100
AcDbLine
 10
201.729
 20
74.2505
 30
11.9
 11
201.723
 21
74.2186
 31
11.9
  0
LINE
  5
B10
330
A02
100
AcDbEntity
  8
Mesh_cs
100
AcDbLine
 10
201.723
 20
74.2186
 30
11.9
 11
201.046
 21
70.4118
 31
11.9
  0
LINE
  5
B11
330
A02
100
AcDbEntity
  8
Mesh_cs
100
AcDbLine
 10
201.046
 20
70.4118
 30
11.9
 11
201.041
 21
70.3798
 31
11.9
  0
LINE
  5
B12
330
A02
100
AcDbEntity
  8
Mesh_cs
100
AcDbLine
 10
201.041
 20
70.3798
 30
11.9
 11
201.035
 21
70.3478
 31
11.9
  0
LINE
  5
B13
330
A02
100
AcDbEntity
  8
Mesh_cs
100
AcDbLine
 10
201.035
 20
70.3478
 30
11.9
 11
200.394
 21
66.5348
 31
11.9
  0
LINE
  5
B14
330
A02
100
AcDbEntity
  8
Mesh_cs
100
AcDbLine
 10
200.394
 20
66.5348
 30
11.9
 11
199.79
 21
62.7159
 31
11.9
  0
LINE
  5
B15
330
A02
100
AcDbEntity
  8
Mesh_cs
100
AcDbLine
 10
199.79
 20
62.7159
 30
11.9
 11
199.785
 21
62.6838
 31
11.9
  0
LINE
  5
B16
330
A02
100
AcDbEntity
  8
Mesh_cs
100
AcDbLine
 10
199.785
 20
62.6838
 30
11.9
 11
199.216
 21
58.8594
 31
11.9
  0
LINE
  5
B17
330
A02
100
AcDbEntity
  8
Mesh_cs
100
AcDbLine
 10
199.216
 20
58.8594
 30
11.9
 11
199.211
 21
58.8273
 31
11.9
  0
LINE
  5
B18
330
A02
100
AcDbEntity
  8
Mesh_cs
100
AcDbLine
 10
199.211
 20
58.8273
 30
11.9
 11
199.206
 21
58.7951
 31
11.9
  0
LINE
  5
B19
330
A02
100
AcDbEntity
  8
Mesh_cs
100
AcDbLine
 10
199.206
 20
58.7951
 30
11.9
 11
198.674
 21
54.9655
 31
11.9
  0
LINE
  5
B1A
330
A02
100
AcDbEntity
  8
Mesh_cs
100
AcDbLine
 10
198.674
 20
54.9655
 30
11.9
 11
198.67
 21
54.9333
 31
11.9
  0
LINE
  5
B1B
330
A02
100
AcDbEntity
  8
Mesh_cs
100
AcDbLine
 10
198.67
 20
54.9333
 30
11.9
 11
198.173
 21
51.0988
 31
11.9
  0
LINE
  5
B1C
330
A02
100
AcDbEntity
  8
Mesh_cs
100
AcDbLine
 10
198.173
 20
51.0988
 30
11.9
 11
197.713
 21
47.2598
 31
11.9
  0
LINE
  5
B1D
330
A02
100
AcDbEntity
  8
Mesh_cs
100
AcDbLine
 10
197.713
 20
47.2598
 30
11.9
 11
197.709
 21
47.2275
 31
11.9
  0
LINE
  5
B1E
330
A02
100
AcDbEntity
  8
Mesh_cs
100
AcDbLine
 10
197.709
 20
47.2275
 30
11.9
 11
197.705
 21
47.1952
 31
11.9
  0
LINE
  5
B1F
330
A02
100
AcDbEntity
  8
Mesh_cs
100
AcDbLine
 10
197.705
 20
47.1952
 30
11.9
 11
197.282
 21
43.3521
 31
11.9
  0
LINE
  5
B20
330
A02
100
AcDbEntity
  8
Mesh_cs
100
AcDbLine
 10
197.282
 20
43.3521
 30
11.9
 11
196.894
 21
39.5051
 31
11.9
  0
LINE
  5
B21
330
A02
100
AcDbEntity
  8
Mesh_cs
100
AcDbLine
 10
196.894
 20
39.5051
 30
11.9
 11
196.891
 21
39.4727
 31
11.9
  0
LINE
  5
B22
330
A02
100
AcDbEntity
  8
Mesh_cs
100
AcDbLine
 10
196.891
 20
39.4727
 30
11.9
 11
196.888
 21
39.4404
 31
11.9
  0
LINE
  5
B23
330
A02
100
AcDbEntity
  8
Mesh_cs
100
AcDbLine
 10
196.888
 20
39.4404
 30
11.9
 11
196.536
 21
35.5899
 31
11.9
  0
LINE
  5
B24
330
A02
100
AcDbEntity
  8
Mesh_cs
100
AcDbLine
 10
196.536
 20
35.5899
 30
11.9
 11
196.221
 21
31.7363
 31
11.9
  0
LINE
  5
B25
330
A02
100
AcDbEntity
  8
Mesh_cs
100
AcDbLine
 10
196.221
 20
31.7363
 30
11.9
 11
196.219
 21
31.7039
 31
11.9
  0
LINE
  5
B26
330
A02
100
AcDbEntity
  8
Mesh_cs
100
AcDbLine
 10
196.219
 20
31.7039
 30
11.9
 11
196.216
 21
31.6715
 31
11.9
  0
LINE
  5
B27
330
A02
100
AcDbEntity
  8
Mesh_cs
100
AcDbLine
 10
196.216
 20
31.6715
 30
11.9
 11
195.938
 21
27.8151
 31
11.9
  0
LINE
  5
B28
330
A02
100
AcDbEntity
  8
Mesh_cs
100
AcDbLine
 10
195.938
 20
27.8151
 30
11.9
 11
195.788
 21
27.5945
 31
11.9
  0
LINE
  5
B29
330
A02
100
AcDbEntity
  8
Mesh_cs
100
AcDbLine
 10
195.788
 20
27.5945
 30
11.9
 11
195.648
 21
27.3622
 31
11.9
  0
LINE
  5
B2A
330
A02
100
AcDbEntity
  8
Mesh_cs
100
AcDbLine
 10
195.648
 20
27.3622
 30
11.9
 11
195.448
 21
26.9689
 31
11.9
  0
LINE
  5
B2B
330
A02
100
AcDbEntity
  8
Mesh_cs
100
AcDbLine
 10
195.448
 20
26.9689
 30
11.9
 11
195.283
 21
26.5587
 31
11.9
  0
LINE
  5
B2C
330
A02
100
AcDbEntity
  8
Mesh_cs
100
AcDbLine
 10
195.283
 20
26.5587
 30
11.9
 11
195.155
 21
26.1344
 31
11.9
  0
LINE
  5
B2D
330
A02
100
AcDbEntity
  8
Mesh_cs
100
AcDbLine
 10
195.155
 20
26.1344
 30
11.9
 11
195.064
 21
25.699
 31
11.9
  0
LINE
  5
B2E
330
A02
100
AcDbEntity
  8
Mesh_cs
100
AcDbLine
 10
195.064
 20
25.699
 30
11.9
 11
195.016
 21
25.3029
 31
11.9
  0
LINE
  5
B2F
330
A02
100
AcDbEntity
  8
Mesh_cs
100
AcDbLine
 10
195.016
 20
25.3029
 30
11.9
 11
195.016
 21
25.2892
 31
11.9
  0
LINE
  5
B30
330
A02
100
AcDbEntity
  8
Mesh_cs
100
AcDbLine
 10
195.016
 20
25.2892
 30
11.9
 11
195
 21
24.9
 31
11.9
  0
LINE
  5
B31
330
A02
100
AcDbEntity
  8
Mesh_cs
100
AcDbLine
 10
195
 20
24.9
 30
11.9
 11
185.382
 21
24.9
 31
11.9
  0
LINE
  5
B32
330
A02
100
AcDbEntity
  8
Mesh_cs
100
AcDbLine
 10
185.382
 20
24.9
 30
11.9
 11
184.718
 21
24.9
 31
11.9
  0
LINE
  5
B33
330
A02
100
AcDbEntity
  8
Mesh_cs
100
AcDbLine
 10
184.718
 20
24.9
 30
11.9
 11
175.1
 21
24.9
 31
11.9
  0
LINE
  5
B34
330
A02
100
AcDbEntity
  8
Mesh_cs
100
AcDbLine
 10
175.1
 20
24.9
 30
11.9
 11
175.089
 21
24.8996
 31
11.9
  0
LINE
  5
B35
330
A02
100
AcDbEntity
  8
Mesh_cs
100
AcDbLine
 10
175.089
 20
24.8996
 30
11.9
 11
174.699
 21
24.8839
 31
11.9
  0
LINE
  5
B36
330
A02
100
AcDbEntity
  8
Mesh_cs
100
AcDbLine
 10
174.699
 20
24.8839
 30
11.9
 11
174.688
 21
24.8828
 31
11.9
  0
LINE
  5
B37
330
A02
100
AcDbEntity
  8
Mesh_cs
100
AcDbLine
 10
174.688
 20
24.8828
 30
11.9
 11
174.299
 21
24.8353
 31
11.9
  0
LINE
  5
B38
330
A02
100
AcDbEntity
  8
Mesh_cs
100
AcDbLine
 10
174.299
 20
24.8353
 30
11.9
 11
174.284
 21
24.8327
 31
11.9
  0
LINE
  5
B39
330
A02
100
AcDbEntity
  8
Mesh_cs
100
AcDbLine
 10
174.284
 20
24.8327
 30
11.9
 11
173.901
 21
24.7542
 31
11.9
  0
LINE
  5
B3A
330
A02
100
AcDbEntity
  8
Mesh_cs
100
AcDbLine
 10
173.901
 20
24.7542
 30
11.9
 11
173.887
 21
24.7503
 31
11.9
  0
LINE
  5
B3B
330
A02
100
AcDbEntity
  8
Mesh_cs
100
AcDbLine
 10
173.887
 20
24.7503
 30
11.9
 11
173.511
 21
24.6409
 31
11.9
  0
LINE
  5
B3C
330
A02
100
AcDbEntity
  8
Mesh_cs
100
AcDbLine
 10
173.511
 20
24.6409
 30
11.9
 11
173.497
 21
24.6357
 31
11.9
  0
LINE
  5
B3D
330
A02
100
AcDbEntity
  8
Mesh_cs
100
AcDbLine
 10
173.497
 20
24.6357
 30
11.9
 11
173.131
 21
24.496
 31
11.9
  0
LINE
  5
B3E
330
A02
100
AcDbEntity
  8
Mesh_cs
100
AcDbLine
 10
173.131
 20
24.496
 30
11.9
 11
173.118
 21
24.4897
 31
11.9
  0
LINE
  5
B3F
330
A02
100
AcDbEntity
  8
Mesh_cs
100
AcDbLine
 10
173.118
 20
24.4897
 30
11.9
 11
172.763
 21
24.3205
 31
11.9
  0
LINE
  5
B40
330
A02
100
AcDbEntity
  8
Mesh_cs
100
AcDbLine
 10
172.763
 20
24.3205
 30
11.9
 11
172.424
 21
24.1228
 31
11.9
  0
LINE
  5
B41
330
A02
100
AcDbEntity
  8
Mesh_cs
100
AcDbLine
 10
172.424
 20
24.1228
 30
11.9
 11
172.411
 21
24.1153
 31
11.9
  0
LINE
  5
B42
330
A02
100
AcDbEntity
  8
Mesh_cs
100
AcDbLine
 10
172.411
 20
24.1153
 30
11.9
 11
172.088
 21
23.8904
 31
11.9
  0
LINE
  5
B43
330
A02
100
AcDbEntity
  8
Mesh_cs
100
AcDbLine
 10
172.088
 20
23.8904
 30
11.9
 11
172.076
 21
23.8817
 31
11.9
  0
LINE
  5
B44
330
A02
100
AcDbEntity
  8
Mesh_cs
100
AcDbLine
 10
172.076
 20
23.8817
 30
11.9
 11
171.772
 21
23.6311
 31
11.9
  0
LINE
  5
B45
330
A02
100
AcDbEntity
  8
Mesh_cs
100
AcDbLine
 10
171.772
 20
23.6311
 30
11.9
 11
171.761
 21
23.6213
 31
11.9
  0
LINE
  5
B46
330
A02
100
AcDbEntity
  8
Mesh_cs
100
AcDbLine
 10
171.761
 20
23.6213
 30
11.9
 11
171.478
 21
23.3466
 31
11.9
  0
LINE
  5
B47
330
A02
100
AcDbEntity
  8
Mesh_cs
100
AcDbLine
 10
171.478
 20
23.3466
 30
11.9
 11
171.469
 21
23.337
 31
11.9
  0
LINE
  5
B48
330
A02
100
AcDbEntity
  8
Mesh_cs
100
AcDbLine
 10
171.469
 20
23.337
 30
11.9
 11
171.209
 21
23.04
 31
11.9
  0
LINE
  5
B49
330
A02
100
AcDbEntity
  8
Mesh_cs
100
AcDbLine
 10
171.209
 20
23.04
 30
11.9
 11
171.201
 21
23.0296
 31
11.9
  0
LINE
  5
B4A
330
A02
100
AcDbEntity
  8
Mesh_cs
100
AcDbLine
 10
171.201
 20
23.0296
 30
11.9
 11
170.966
 21
22.7124
 31
11.9
  0
LINE
  5
B4B
330
A02
100
AcDbEntity
  8
Mesh_cs
100
AcDbLine
 10
170.966
 20
22.7124
 30
11.9
 11
170.959
 21
22.7014
 31
11.9
  0
LINE
  5
B4C
330
A02
100
AcDbEntity
  8
Mesh_cs
100
AcDbLine
 10
170.959
 20
22.7014
 30
11.9
 11
170.751
 21
22.3663
 31
11.9
  0
LINE
  5
B4D
330
A02
100
AcDbEntity
  8
Mesh_cs
100
AcDbLine
 10
170.751
 20
22.3663
 30
11.9
 11
170.744
 21
22.3547
 31
11.9
  0
LINE
  5
B4E
330
A02
100
AcDbEntity
  8
Mesh_cs
100
AcDbLine
 10
170.744
 20
22.3547
 30
11.9
 11
170.58
 21
22.0377
 31
11.9
  0
LINE
  5
B4F
330
A02
100
AcDbEntity
  8
Mesh_cs
100
AcDbLine
 10
170.58
 20
22.0377
 30
11.9
 11
170.574
 21
22.0255
 31
11.9
  0
LINE
  5
B50
330
A02
100
AcDbEntity
  8
Mesh_cs
100
AcDbLine
 10
170.574
 20
22.0255
 30
11.9
 11
170.432
 21
21.6901
 31
11.9
  0
LINE
  5
B51
330
A02
100
AcDbEntity
  8
Mesh_cs
100
AcDbLine
 10
170.432
 20
21.6901
 30
11.9
 11
170.427
 21
21.6774
 31
11.9
  0
LINE
  5
B52
330
A02
100
AcDbEntity
  8
Mesh_cs
100
AcDbLine
 10
170.427
 20
21.6774
 30
11.9
 11
170.302
 21
21.3052
 31
11.9
  0
LINE
  5
B53
330
A02
100
AcDbEntity
  8
Mesh_cs
100
AcDbLine
 10
170.302
 20
21.3052
 30
11.9
 11
170.298
 21
21.2922
 31
11.9
  0
LINE
  5
B54
330
A02
100
AcDbEntity
  8
Mesh_cs
100
AcDbLine
 10
170.298
 20
21.2922
 30
11.9
 11
170.204
 21
20.912
 31
11.9
  0
LINE
  5
B55
330
A02
100
AcDbEntity
  8
Mesh_cs
100
AcDbLine
 10
170.204
 20
20.912
 30
11.9
 11
170.201
 21
20.8987
 31
11.9
  0
LINE
  5
B56
330
A02
100
AcDbEntity
  8
Mesh_cs
100
AcDbLine
 10
170.201
 20
20.8987
 30
11.9
 11
170.138
 21
20.5132
 31
11.9
  0
LINE
  5
B57
330
A02
100
AcDbEntity
  8
Mesh_cs
100
AcDbLine
 10
170.138
 20
20.5132
 30
11.9
 11
170.136
 21
20.4992
 31
11.9
  0
LINE
  5
B58
330
A02
100
AcDbEntity
  8
Mesh_cs
100
AcDbLine
 10
170.136
 20
20.4992
 30
11.9
 11
170.109
 21
20.2069
 31
11.9
  0
LINE
  5
B59
330
A02
100
AcDbEntity
  8
Mesh_cs
100
AcDbLine
 10
170.109
 20
20.2069
 30
11.9
 11
170.109
 21
20.1933
 31
11.9
  0
LINE
  5
B5A
330
A02
100
AcDbEntity
  8
Mesh_cs
100
AcDbLine
 10
170.109
 20
20.1933
 30
11.9
 11
170.1
 21
19.9
 31
11.9
  0
LINE
  5
B5B
330
A02
100
AcDbEntity
  8
Mesh_cs
100
AcDbLine
 10
170.1
 20
19.9
 30
11.9
 11
170.1
 21
17.4961
 31
11.9
  0
LINE
  5
B5C
330
A02
100
AcDbEntity
  8
Mesh_cs
100
AcDbLine
 10
170.1
 20
17.4961
 30
11.9
 11
170.1
 21
15.092
 31
11.9
  0
LINE
  5
B5D
330
A02
100
AcDbEntity
  8
Mesh_cs
100
AcDbLine
 10
170.1
 20
15.092
 30
11.9
 11
170.1
 21
12.6876
 31
11.9
  0
LINE
  5
B5E
330
A02
100
AcDbEntity
  8
Mesh_cs
100
AcDbLine
 10
170.1
 20
12.6876
 30
11.9
 11
170.1
 21
10.283
 31
11.9
  0
LINE
  5
B5F
330
A02
100
AcDbEntity
  8
Mesh_cs
100
AcDbLine
 10
170.1
 20
10.283
 30
11.9
 11
170.1
 21
9.61947
 31
11.9
  0
LINE
  5
B60
330
A02
100
AcDbEntity
  8
Mesh_cs
100
AcDbLine
 10
170.1
 20
9.61947
 30
11.9
 11
170.1
 21
7.21474
 31
11.9
  0
LINE
  5
B61
330
A02
100
AcDbEntity
  8
Mesh_cs
100
AcDbLine
 10
170.1
 20
7.21474
 30
11.9
 11
170.1
 21
4.80989
 31
11.9
  0
LINE
  5
B62
330
A02
100
AcDbEntity
  8
Mesh_cs
100
AcDbLine
 10
170.1
 20
4.80989
 30
11.9
 11
170.1
 21
2.40496
 31
11.9
  0
LINE
  5
B63
330
A02
100
AcDbEntity
  8
Mesh_cs
100
AcDbLine
 10
170.1
 20
2.40496
 30
11.9
 11
170.1
 21
2.66454e-15
 31
11.9
  0
LINE
  5
B64
330
A02
100
AcDbEntity
  8
Mesh_cs
100
AcDbLine
 10
170.1
 20
2.5757e-15
 30
11.9
 11
164.588
 21
2.64233e-15
 31
11.9
  0
LINE
  5
B65
330
A02
100
AcDbEntity
  8
Mesh_cs
100
AcDbLine
 10
164.588
 20
2.64233e-15
 30
11.9
 11
115
 21
2.64233e-15
 31
11.9
  0
LINE
  5
B66
330
A02
100
AcDbEntity
  8
Mesh_cs
100
AcDbLine
 10
115
 20
2.64233e-15
 30
11.9
 11
115.018
 21
3.98231
 31
11.9
  0
LINE
  5
B67
330
A02
100
AcDbEntity
  8
Mesh_cs
100
AcDbLine
 10
115.018
 20
3.98231
 30
11.9
 11
115.02
 21
4.42525
 31
11.9
  0
LINE
  5
B68
330
A02
100
AcDbEntity
  8
Mesh_cs
100
AcDbLine
 10
115.02
 20
4.42525
 30
11.9
 11
115.073
 21
8.40724
 31
11.9
  0
LINE
  5
B69
330
A02
100
AcDbEntity
  8
Mesh_cs
100
AcDbLine
 10
115.073
 20
8.40724
 30
11.9
 11
115.079
 21
8.85014
 31
11.9
  0
LINE
  5
B6A
330
A02
100
AcDbEntity
  8
Mesh_cs
100
AcDbLine
 10
115.079
 20
8.85014
 30
11.9
 11
115.169
 21
12.8315
 31
11.9
  0
LINE
  5
B6B
330
A02
100
AcDbEntity
  8
Mesh_cs
100
AcDbLine
 10
115.169
 20
12.8315
 30
11.9
 11
115.179
 21
13.2743
 31
11.9
  0
LINE
  5
B6C
330
A02
100
AcDbEntity
  8
Mesh_cs
100
AcDbLine
 10
115.179
 20
13.2743
 30
11.9
 11
115.304
 21
17.2547
 31
11.9
  0
LINE
  5
B6D
330
A02
100
AcDbEntity
  8
Mesh_cs
100
AcDbLine
 10
115.304
 20
17.2547
 30
11.9
 11
115.318
 21
17.6974
 31
11.9
  0
LINE
  5
B6E
330
A02
100
AcDbEntity
  8
Mesh_cs
100
AcDbLine
 10
115.318
 20
17.6974
 30
11.9
 11
115.479
 21
21.6765
 31
11.9
  0
LINE
  5
B6F
330
A02
100
AcDbEntity
  8
Mesh_cs
100
AcDbLine
 10
115.479
 20
21.6765
 30
11.9
 11
115.496
 21
22.1191
 31
11.9
  0
LINE
  5
B70
330
A02
100
AcDbEntity
  8
Mesh_cs
100
AcDbLine
 10
115.496
 20
22.1191
 30
11.9
 11
115.693
 21
26.0966
 31
11.9
  0
LINE
  5
B71
330
A02
100
AcDbEntity
  8
Mesh_cs
100
AcDbLine
 10
115.693
 20
26.0966
 30
11.9
 11
115.715
 21
26.539
 31
11.9
  0
LINE
  5
B72
330
A02
100
AcDbEntity
  8
Mesh_cs
100
AcDbLine
 10
115.715
 20
26.539
 30
11.9
 11
115.947
 21
30.5146
 31
11.9
  0
LINE
  5
B73
330
A02
100
AcDbEntity
  8
Mesh_cs
100
AcDbLine
 10
115.947
 20
30.5146
 30
11.9
 11
115.973
 21
30.9568
 31
11.9
  0
LINE
  5
B74
330
A02
100
AcDbEntity
  8
Mesh_cs
100
AcDbLine
 10
115.973
 20
30.9568
 30
11.9
 11
116.241
 21
34.9301
 31
11.9
  0
LINE
  5
B75
330
A02
100
AcDbEntity
  8
Mesh_cs
100
AcDbLine
 10
116.241
 20
34.9301
 30
11.9
 11
116.271
 21
35.372
 31
11.9
  0
LINE
  5
B76
330
A02
100
AcDbEntity
  8
Mesh_cs
100
AcDbLine
 10
116.271
 20
35.372
 30
11.9
 11
116.304
 21
35.8137
 31
11.9
  0
LINE
  5
B77
330
A02
100
AcDbEntity
  8
Mesh_cs
100
AcDbLine
 10
116.304
 20
35.8137
 30
11.9
 11
116.608
 21
39.7845
 31
11.9
  0
LINE
  5
B78
330
A02
100
AcDbEntity
  8
Mesh_cs
100
AcDbLine
 10
116.608
 20
39.7845
 30
11.9
 11
116.947
 21
43.7523
 31
11.9
  0
LINE
  5
B79
330
A02
100
AcDbEntity
  8
Mesh_cs
100
AcDbLine
 10
116.947
 20
43.7523
 30
11.9
 11
116.985
 21
44.1937
 31
11.9
  0
LINE
  5
B7A
330
A02
100
AcDbEntity
  8
Mesh_cs
100
AcDbLine
 10
116.985
 20
44.1937
 30
11.9
 11
117.36
 21
48.1583
 31
11.9
  0
LINE
  5
B7B
330
A02
100
AcDbEntity
  8
Mesh_cs
100
AcDbLine
 10
117.36
 20
48.1583
 30
11.9
 11
117.401
 21
48.5993
 31
11.9
  0
LINE
  5
B7C
330
A02
100
AcDbEntity
  8
Mesh_cs
100
AcDbLine
 10
117.401
 20
48.5993
 30
11.9
 11
117.812
 21
52.5605
 31
11.9
  0
LINE
  5
B7D
330
A02
100
AcDbEntity
  8
Mesh_cs
100
AcDbLine
 10
117.812
 20
52.5605
 30
11.9
 11
117.857
 21
53.0011
 31
11.9
  0
LINE
  5
B7E
330
A02
100
AcDbEntity
  8
Mesh_cs
100
AcDbLine
 10
117.857
 20
53.0011
 30
11.9
 11
118.303
 21
56.9584
 31
11.9
  0
LINE
  5
B7F
330
A02
100
AcDbEntity
  8
Mesh_cs
100
AcDbLine
 10
118.303
 20
56.9584
 30
11.9
 11
118.353
 21
57.3985
 31
11.9
  0
LINE
  5
B80
330
A02
100
AcDbEntity
  8
Mesh_cs
100
AcDbLine
 10
118.353
 20
57.3985
 30
11.9
 11
118.406
 21
57.8382
 31
11.9
  0
LINE
  5
B81
330
A02
100
AcDbEntity
  8
Mesh_cs
100
AcDbLine
 10
118.406
 20
57.8382
 30
11.9
 11
118.888
 21
61.7914
 31
11.9
  0
LINE
  5
B82
330
A02
100
AcDbEntity
  8
Mesh_cs
100
AcDbLine
 10
118.888
 20
61.7914
 30
11.9
 11
119.404
 21
65.74
 31
11.9
  0
LINE
  5
B83
330
A02
100
AcDbEntity
  8
Mesh_cs
100
AcDbLine
 10
119.404
 20
65.74
 30
11.9
 11
119.462
 21
66.1792
 31
11.9
  0
LINE
  5
B84
330
A02
100
AcDbEntity
  8
Mesh_cs
100
AcDbLine
 10
119.462
 20
66.1792
 30
11.9
 11
120.014
 21
70.1231
 31
11.9
  0
LINE
  5
B85
330
A02
100
AcDbEntity
  8
Mesh_cs
100
AcDbLine
 10
120.014
 20
70.1231
 30
11.9
 11
120.076
 21
70.5618
 31
11.9
  0
LINE
  5
B86
330
A02
100
AcDbEntity
  8
Mesh_cs
100
AcDbLine
 10
120.076
 20
70.5618
 30
11.9
 11
120.663
 21
74.5005
 31
11.9
  0
LINE
  5
B87
330
A02
100
AcDbEntity
  8
Mesh_cs
100
AcDbLine
 10
120.663
 20
74.5005
 30
11.9
 11
120.729
 21
74.9386
 31
11.9
  0
LINE
  5
B88
330
A02
100
AcDbEntity
  8
Mesh_cs
100
AcDbLine
 10
120.729
 20
74.9386
 30
11.9
 11
121.352
 21
78.8719
 31
11.9
  0
LINE
  5
B89
330
A02
100
AcDbEntity
  8
Mesh_cs
100
AcDbLine
 10
121.352
 20
78.8719
 30
11.9
 11
121.421
 21
79.3094
 31
11.9
  0
LINE
  5
B8A
330
A02
100
AcDbEntity
  8
Mesh_cs
100
AcDbLine
 10
121.421
 20
79.3094
 30
11.9
 11
122.079
 21
83.237
 31
11.9
  0
LINE
  5
B8B
330
A02
100
AcDbEntity
  8
Mesh_cs
100
AcDbLine
 10
122.079
 20
83.237
 30
11.9
 11
122.152
 21
83.6738
 31
11.9
  0
LINE
  5
B8C
330
A02
100
AcDbEntity
  8
Mesh_cs
100
AcDbLine
 10
122.152
 20
83.6738
 30
11.9
 11
122.229
 21
84.11
 31
11.9
  0
LINE
  5
B8D
330
A02
100
AcDbEntity
  8
Mesh_cs
100
AcDbLine
 10
122.229
 20
84.11
 30
11.9
 11
122.923
 21
88.0315
 31
11.9
  0
LINE
  5
B8E
330
A02
100
AcDbEntity
  8
Mesh_cs
100
AcDbLine
 10
122.923
 20
88.0315
 30
11.9
 11
123.652
 21
91.9466
 31
11.9
  0
LINE
  5
B8F
330
A02
100
AcDbEntity
  8
Mesh_cs
100
AcDbLine
 10
123.652
 20
91.9466
 30
11.9
 11
123.733
 21
92.3821
 31
11.9
  0
LINE
  5
B90
330
A02
100
AcDbEntity
  8
Mesh_cs
100
AcDbLine
 10
123.733
 20
92.3821
 30
11.9
 11
124.496
 21
96.2905
 31
11.9
  0
LINE
  5
B91
330
A02
100
AcDbEntity
  8
Mesh_cs
100
AcDbLine
 10
124.496
 20
96.2905
 30
11.9
 11
124.581
 21
96.7253
 31
11.9
  0
LINE
  5
B92
330
A02
100
AcDbEntity
  8
Mesh_cs
100
AcDbLine
 10
124.581
 20
96.7253
 30
11.9
 11
125.38
 21
100.627
 31
11.9
  0
LINE
  5
B93
330
A02
100
AcDbEntity
  8
Mesh_cs
100
AcDbLine
 10
125.38
 20
100.627
 30
11.9
 11
125.469
 21
101.061
 31
11.9
  0
LINE
  5
B94
330
A02
100
AcDbEntity
  8
Mesh_cs
100
AcDbLine
 10
125.469
 20
101.061
 30
11.9
 11
125.562
 21
101.494
 31
11.9
  0
LINE
  5
B95
330
A02
100
AcDbEntity
  8
Mesh_cs
100
AcDbLine
 10
125.562
 20
101.494
 30
11.9
 11
126.396
 21
105.388
 31
11.9
  0
LINE
  5
B96
330
A02
100
AcDbEntity
  8
Mesh_cs
100
AcDbLine
 10
126.396
 20
105.388
 30
11.9
 11
126.492
 21
105.82
 31
11.9
  0
LINE
  5
B97
330
A02
100
AcDbEntity
  8
Mesh_cs
100
AcDbLine
 10
126.492
 20
105.82
 30
11.9
 11
127.361
 21
109.707
 31
11.9
  0
LINE
  5
B98
330
A02
100
AcDbEntity
  8
Mesh_cs
100
AcDbLine
 10
127.361
 20
109.707
 30
11.9
 11
128.265
 21
113.585
 31
11.9
  0
LINE
  5
B99
330
A02
100
AcDbEntity
  8
Mesh_cs
100
AcDbLine
 10
128.265
 20
113.585
 30
11.9
 11
128.365
 21
114.016
 31
11.9
  0
LINE
  5
B9A
330
A02
100
AcDbEntity
  8
Mesh_cs
100
AcDbLine
 10
128.365
 20
114.016
 30
11.9
 11
128.469
 21
114.447
 31
11.9
  0
LINE
  5
B9B
330
A02
100
AcDbEntity
  8
Mesh_cs
100
AcDbLine
 10
128.469
 20
114.447
 30
11.9
 11
129.408
 21
118.317
 31
11.9
  0
LINE
  5
B9C
330
A02
100
AcDbEntity
  8
Mesh_cs
100
AcDbLine
 10
129.408
 20
118.317
 30
11.9
 11
129.516
 21
118.747
 31
11.9
  0
LINE
  5
B9D
330
A02
100
AcDbEntity
  8
Mesh_cs
100
AcDbLine
 10
129.516
 20
118.747
 30
11.9
 11
130.489
 21
122.608
 31
11.9
  0
LINE
  5
B9E
330
A02
100
AcDbEntity
  8
Mesh_cs
100
AcDbLine
 10
130.489
 20
122.608
 30
11.9
 11
131.497
 21
126.461
 31
11.9
  0
LINE
  5
B9F
330
A02
100
AcDbEntity
  8
Mesh_cs
100
AcDbLine
 10
131.497
 20
126.461
 30
11.9
 11
131.609
 21
126.89
 31
11.9
  0
LINE
  5
BA0
330
A02
100
AcDbEntity
  8
Mesh_cs
100
AcDbLine
 10
131.609
 20
126.89
 30
11.9
 11
131.725
 21
127.317
 31
11.9
  0
LINE
  5
BA1
330
A02
100
AcDbEntity
  8
Mesh_cs
100
AcDbLine
 10
131.725
 20
127.317
 30
11.9
 11
132.767
 21
131.161
 31
11.9
  0
LINE
  5
BA2
330
A02
100
AcDbEntity
  8
Mesh_cs
100
AcDbLine
 10
132.767
 20
131.161
 30
11.9
 11
132.887
 21
131.587
 31
11.9
  0
LINE
  5
BA3
330
A02
100
AcDbEntity
  8
Mesh_cs
100
AcDbLine
 10
132.887
 20
131.587
 30
11.9
 11
133.963
 21
135.421
 31
11.9
  0
LINE
  5
BA4
330
A02
100
AcDbEntity
  8
Mesh_cs
100
AcDbLine
 10
133.963
 20
135.421
 30
11.9
 11
135.074
 21
139.245
 31
11.9
  0
LINE
  5
BA5
330
A02
100
AcDbEntity
  8
Mesh_cs
100
AcDbLine
 10
135.074
 20
139.245
 30
11.9
 11
135.198
 21
139.671
 31
11.9
  0
LINE
  5
BA6
330
A02
100
AcDbEntity
  8
Mesh_cs
100
AcDbLine
 10
135.198
 20
139.671
 30
11.9
 11
135.325
 21
140.095
 31
11.9
  0
LINE
  5
BA7
330
A02
100
AcDbEntity
  8
Mesh_cs
100
AcDbLine
 10
135.325
 20
140.095
 30
11.9
 11
136.471
 21
143.909
 31
11.9
  0
LINE
  5
BA8
330
A02
100
AcDbEntity
  8
Mesh_cs
100
AcDbLine
 10
136.471
 20
143.909
 30
11.9
 11
136.602
 21
144.332
 31
11.9
  0
LINE
  5
BA9
330
A02
100
AcDbEntity
  8
Mesh_cs
100
AcDbLine
 10
136.602
 20
144.332
 30
11.9
 11
137.781
 21
148.136
 31
11.9
  0
LINE
  5
BAA
330
A02
100
AcDbEntity
  8
Mesh_cs
100
AcDbLine
 10
137.781
 20
148.136
 30
11.9
 11
138.995
 21
151.929
 31
11.9
  0
LINE
  5
BAB
330
A02
100
AcDbEntity
  8
Mesh_cs
100
AcDbLine
 10
138.995
 20
151.929
 30
11.9
 11
139.13
 21
152.351
 31
11.9
  0
LINE
  5
BAC
330
A02
100
AcDbEntity
  8
Mesh_cs
100
AcDbLine
 10
139.13
 20
152.351
 30
11.9
 11
186.291
 21
137.027
 31
11.9
  0
LINE
  5
BAD
330
A02
100
AcDbEntity
  8
Mesh_cs
100
AcDbLine
 10
186.291
 20
137.027
 30
11.9
 11
191.533
 21
135.324
 31
11.9
  0
LINE
  5
BAE
330
A02
100
AcDbEntity
  8
Mesh_cs
100
AcDbLine
 10
191.533
 20
135.324
 30
11.9
 11
190.79
 21
133.036
 31
11.9
  0
LINE
  5
BAF
330
A02
100
AcDbEntity
  8
Mesh_cs
100
AcDbLine
 10
190.79
 20
133.036
 30
11.9
 11
190.047
 21
130.749
 31
11.9
  0
LINE
  5
BB0
330
A02
100
AcDbEntity
  8
Mesh_cs
100
AcDbLine
 10
190.047
 20
130.749
 30
11.9
 11
189.304
 21
128.462
 31
11.9
  0
LINE
  5
BB1
330
A02
100
AcDbEntity
  8
Mesh_cs
100
AcDbLine
 10
189.304
 20
128.462
 30
11.9
 11
188.561
 21
126.175
 31
11.9
  0
LINE
  5
BB2
330
A02
100
AcDbEntity
  8
Mesh_cs
100
AcDbLine
 10
188.561
 20
126.175
 30
11.9
 11
188.356
 21
125.544
 31
11.9
  0
LINE
  5
BB3
330
A02
100
AcDbEntity
  8
Mesh_cs
100
AcDbLine
 10
188.356
 20
125.544
 30
11.9
 11
187.612
 21
123.257
 31
11.9
  0
LINE
  5
BB4
330
A02
100
AcDbEntity
  8
Mesh_cs
100
AcDbLine
 10
187.612
 20
123.257
 30
11.9
 11
186.869
 21
120.97
 31
11.9
  0
LINE
  5
BB5
330
A02
100
AcDbEntity
  8
Mesh_cs
100
AcDbLine
 10
186.869
 20
120.97
 30
11.9
 11
186.127
 21
118.684
 31
11.9
  0
LINE
  5
BB6
330
A02
100
AcDbEntity
  8
Mesh_cs
100
AcDbLine
 10
186.127
 20
118.684
 30
11.9
 11
185.384
 21
116.398
 31
11.9
  0
LINE
  5
BB7
330
A02
100
AcDbEntity
  8
Mesh_cs
100
AcDbLine
 10
185.384
 20
116.398
 30
11.9
 11
185.302
 21
116.116
 31
11.9
  0
LINE
  5
BB8
330
A02
100
AcDbEntity
  8
Mesh_cs
100
AcDbLine
 10
185.302
 20
116.116
 30
11.9
 11
185.298
 21
116.103
 31
11.9
  0
LINE
  5
BB9
330
A02
100
AcDbEntity
  8
Mesh_cs
100
AcDbLine
 10
185.298
 20
116.103
 30
11.9
 11
185.233
 21
115.817
 31
11.9
  0
LINE
  5
BBA
330
A02
100
AcDbEntity
  8
Mesh_cs
100
AcDbLine
 10
185.233
 20
115.817
 30
11.9
 11
185.23
 21
115.804
 31
11.9
  0
LINE
  5
BBB
330
A02
100
AcDbEntity
  8
Mesh_cs
100
AcDbLine
 10
185.23
 20
115.804
 30
11.9
 11
185.171
 21
115.418
 31
11.9
  0
LINE
  5
BBC
330
A02
100
AcDbEntity
  8
Mesh_cs
100
AcDbLine
 10
185.171
 20
115.418
 30
11.9
 11
185.17
 21
115.404
 31
11.9
  0
LINE
  5
BBD
330
A02
100
AcDbEntity
  8
Mesh_cs
100
AcDbLine
 10
185.17
 20
115.404
 30
11.9
 11
185.142
 21
115.013
 31
11.9
  0
LINE
  5
BBE
330
A02
100
AcDbEntity
  8
Mesh_cs
100
AcDbLine
 10
185.142
 20
115.013
 30
11.9
 11
185.141
 21
115
 31
11.9
  0
LINE
  5
BBF
330
A02
100
AcDbEntity
  8
Mesh_cs
100
AcDbLine
 10
185.141
 20
115
 30
11.9
 11
185.145
 21
114.607
 31
11.9
  0
LINE
  5
BC0
330
A02
100
AcDbEntity
  8
Mesh_cs
100
AcDbLine
 10
185.145
 20
114.607
 30
11.9
 11
185.146
 21
114.594
 31
11.9
  0
LINE
  5
BC1
330
A02
100
AcDbEntity
  8
Mesh_cs
100
AcDbLine
 10
185.146
 20
114.594
 30
11.9
 11
185.178
 21
114.23
 31
11.9
  0
LINE
  5
BC2
330
A02
100
AcDbEntity
  8
Mesh_cs
100
AcDbLine
 10
185.178
 20
114.23
 30
11.9
 11
185.18
 21
114.217
 31
11.9
  0
LINE
  5
BC3
330
A02
100
AcDbEntity
  8
Mesh_cs
100
AcDbLine
 10
185.18
 20
114.217
 30
11.9
 11
185.238
 21
113.864
 31
11.9
  0
LINE
  5
BC4
330
A02
100
AcDbEntity
  8
Mesh_cs
100
AcDbLine
 10
185.238
 20
113.864
 30
11.9
 11
185.241
 21
113.851
 31
11.9
  0
LINE
  5
BC5
330
A02
100
AcDbEntity
  8
Mesh_cs
100
AcDbLine
 10
185.241
 20
113.851
 30
11.9
 11
185.335
 21
113.468
 31
11.9
  0
LINE
  5
BC6
330
A02
100
AcDbEntity
  8
Mesh_cs
100
AcDbLine
 10
185.335
 20
113.468
 30
11.9
 11
185.339
 21
113.455
 31
11.9
  0
LINE
  5
BC7
330
A02
100
AcDbEntity
  8
Mesh_cs
100
AcDbLine
 10
185.339
 20
113.455
 30
11.9
 11
185.463
 21
113.081
 31
11.9
  0
LINE
  5
BC8
330
A02
100
AcDbEntity
  8
Mesh_cs
100
AcDbLine
 10
185.463
 20
113.081
 30
11.9
 11
185.468
 21
113.069
 31
11.9
  0
LINE
  5
BC9
330
A02
100
AcDbEntity
  8
Mesh_cs
100
AcDbLine
 10
185.468
 20
113.069
 30
11.9
 11
185.623
 21
112.706
 31
11.9
  0
LINE
  5
BCA
330
A02
100
AcDbEntity
  8
Mesh_cs
100
AcDbLine
 10
185.623
 20
112.706
 30
11.9
 11
185.629
 21
112.694
 31
11.9
  0
LINE
  5
BCB
330
A02
100
AcDbEntity
  8
Mesh_cs
100
AcDbLine
 10
185.629
 20
112.694
 30
11.9
 11
185.813
 21
112.345
 31
11.9
  0
LINE
  5
BCC
330
A02
100
AcDbEntity
  8
Mesh_cs
100
AcDbLine
 10
185.813
 20
112.345
 30
11.9
 11
185.821
 21
112.333
 31
11.9
  0
LINE
  5
BCD
330
A02
100
AcDbEntity
  8
Mesh_cs
100
AcDbLine
 10
185.821
 20
112.333
 30
11.9
 11
186.032
 21
112
 31
11.9
  0
LINE
  5
BCE
330
A02
100
AcDbEntity
  8
Mesh_cs
100
AcDbLine
 10
186.032
 20
112
 30
11.9
 11
186.041
 21
111.988
 31
11.9
  0
LINE
  5
BCF
330
A02
100
AcDbEntity
  8
Mesh_cs
100
AcDbLine
 10
186.041
 20
111.988
 30
11.9
 11
186.279
 21
111.675
 31
11.9
  0
LINE
  5
BD0
330
A02
100
AcDbEntity
  8
Mesh_cs
100
AcDbLine
 10
186.279
 20
111.675
 30
11.9
 11
186.289
 21
111.663
 31
11.9
  0
LINE
  5
BD1
330
A02
100
AcDbEntity
  8
Mesh_cs
100
AcDbLine
 10
186.289
 20
111.663
 30
11.9
 11
186.551
 21
111.37
 31
11.9
  0
LINE
  5
BD2
330
A02
100
AcDbEntity
  8
Mesh_cs
100
AcDbLine
 10
186.551
 20
111.37
 30
11.9
 11
186.835
 21
111.1
 31
11.9
  0
LINE
  5
BD3
330
A02
100
AcDbEntity
  8
Mesh_cs
100
AcDbLine
 10
186.835
 20
111.1
 30
11.9
 11
186.846
 21
111.09
 31
11.9
  0
LINE
  5
BD4
330
A02
100
AcDbEntity
  8
Mesh_cs
100
AcDbLine
 10
186.846
 20
111.09
 30
11.9
 11
187.151
 21
110.844
 31
11.9
  0
LINE
  5
BD5
330
A02
100
AcDbEntity
  8
Mesh_cs
100
AcDbLine
 10
187.151
 20
110.844
 30
11.9
 11
187.163
 21
110.835
 31
11.9
  0
LINE
  5
BD6
330
A02
100
AcDbEntity
  8
Mesh_cs
100
AcDbLine
 10
187.163
 20
110.835
 30
11.9
 11
187.487
 21
110.614
 31
11.9
  0
LINE
  5
BD7
330
A02
100
AcDbEntity
  8
Mesh_cs
100
AcDbLine
 10
187.487
 20
110.614
 30
11.9
 11
187.499
 21
110.606
 31
11.9
  0
LINE
  5
BD8
330
A02
100
AcDbEntity
  8
Mesh_cs
100
AcDbLine
 10
187.499
 20
110.606
 30
11.9
 11
187.839
 21
110.413
 31
11.9
  0
LINE
  5
BD9
330
A02
100
AcDbEntity
  8
Mesh_cs
100
AcDbLine
 10
187.839
 20
110.413
 30
11.9
 11
187.852
 21
110.406
 31
11.9
  0
LINE
  5
BDA
330
A02
100
AcDbEntity
  8
Mesh_cs
100
AcDbLine
 10
187.852
 20
110.406
 30
11.9
 11
188.208
 21
110.241
 31
11.9
  0
LINE
  5
BDB
330
A02
100
AcDbEntity
  8
Mesh_cs
100
AcDbLine
 10
188.208
 20
110.241
 30
11.9
 11
188.218
 21
110.236
 31
11.9
  0
LINE
  5
BDC
330
A02
100
AcDbEntity
  8
Mesh_cs
100
AcDbLine
 10
188.218
 20
110.236
 30
11.9
 11
188.583
 21
110.101
 31
11.9
  0
LINE
  5
BDD
330
A02
100
AcDbEntity
  8
Mesh_cs
100
AcDbLine
 10
188.583
 20
110.101
 30
11.9
 11
188.594
 21
110.097
 31
11.9
  0
LINE
  5
BDE
330
A02
100
AcDbEntity
  8
Mesh_cs
100
AcDbLine
 10
188.594
 20
110.097
 30
11.9
 11
197.741
 21
107.125
 31
11.9
  0
LINE
  5
BDF
330
A02
100
AcDbEntity
  8
Mesh_cs
100
AcDbLine
 10
197.741
 20
107.125
 30
11.9
 11
198.372
 21
106.92
 31
11.9
  0
LINE
  5
BE0
330
A02
100
AcDbEntity
  8
Mesh_cs
100
AcDbLine
 10
195
 20
14.9
 30
11.9
 11
195
 21
11.2981
 31
11.9
  0
LINE
  5
BE1
330
A02
100
AcDbEntity
  8
Mesh_cs
100
AcDbLine
 10
195
 20
11.2981
 30
11.9
 11
195
 21
7.69716
 31
11.9
  0
LINE
  5
BE2
330
A02
100
AcDbEntity
  8
Mesh_cs
100
AcDbLine
 10
195
 20
7.69716
 30
11.9
 11
195
 21
7.38671
 31
11.9
  0
LINE
  5
BE3
330
A02
100
AcDbEntity
  8
Mesh_cs
100
AcDbLine
 10
195
 20
7.38671
 30
11.9
 11
195
 21
3.69321
 31
11.9
  0
LINE
  5
BE4
330
A02
100
AcDbEntity
  8
Mesh_cs
100
AcDbLine
 10
195
 20
3.69321
 30
11.9
 11
195
 21
2.66454e-15
 31
11.9
  0
LINE
  5
BE5
330
A02
100
AcDbEntity
  8
Mesh_cs
100
AcDbLine
 10
195
 20
2.64233e-15
 30
11.9
 11
194.503
 21
2.62383e-15
 31
11.9
  0
LINE
  5
BE6
330
A02
100
AcDbEntity
  8
Mesh_cs
100
AcDbLine
 10
194.503
 20
2.62383e-15
 30
11.9
 11
180.1
 21
2.62382e-15
 31
11.9
  0
LINE
  5
BE7
330
A02
100
AcDbEntity
  8
Mesh_cs
100
AcDbLine
 10
180.1
 20
2.62382e-15
 30
11.9
 11
180.1
 21
3.60115
 31
11.9
  0
LINE
  5
BE8
330
A02
100
AcDbEntity
  8
Mesh_cs
100
AcDbLine
 10
180.1
 20
3.60115
 30
11.9
 11
180.1
 21
7.20216
 31
11.9
  0
LINE
  5
BE9
330
A02
100
AcDbEntity
  8
Mesh_cs
100
AcDbLine
 10
180.1
 20
7.20216
 30
11.9
 11
180.1
 21
7.69893
 31
11.9
  0
LINE
  5
BEA
330
A02
100
AcDbEntity
  8
Mesh_cs
100
AcDbLine
 10
180.1
 20
7.69893
 30
11.9
 11
180.1
 21
11.2997
 31
11.9
  0
LINE
  5
BEB
330
A02
100
AcDbEntity
  8
Mesh_cs
100
AcDbLine
 10
180.1
 20
11.2997
 30
11.9
 11
180.1
 21
14.9
 31
11.9
  0
LINE
  5
BEC
330
A02
100
AcDbEntity
  8
Mesh_cs
100
AcDbLine
 10
180.1
 20
14.9
 30
11.9
 11
194.503
 21
14.9
 31
11.9
  0
LINE
  5
BED
330
A02
100
AcDbEntity
  8
Mesh_cs
100
AcDbLine
 10
194.503
 20
14.9
 30
11.9
 11
195
 21
14.9
 31
11.9
  0
LINE
  5
BEE
330
A02
100
AcDbEntity
  8
Mesh_cs
100
AcDbLine
 10
25.7943
 20
173.509
 30
11.9
 11
25.322
 21
173.662
 31
11.9
  0
LINE
  5
BEF
330
A02
100
AcDbEntity
  8
Mesh_cs
100
AcDbLine
 10
25.322
 20
173.662
 30
11.9
 11
25.1541
 21
173.717
 31
11.9
  0
LINE
  5
BF0
330
A02
100
AcDbEntity
  8
Mesh_cs
100
AcDbLine
 10
25.1541
 20
173.717
 30
11.9
 11
29.605
 21
187.415
 31
11.9
  0
LINE
  5
BF1
330
A02
100
AcDbEntity
  8
Mesh_cs
100
AcDbLine
 10
29.605
 20
187.415
 30
11.9
 11
29.7585
 21
187.887
 31
11.9
  0
LINE
  5
BF2
330
A02
100
AcDbEntity
  8
Mesh_cs
100
AcDbLine
 10
29.7585
 20
187.887
 30
11.9
 11
30.2308
 21
187.734
 31
11.9
  0
LINE
  5
BF3
330
A02
100
AcDbEntity
  8
Mesh_cs
100
AcDbLine
 10
30.2308
 20
187.734
 30
11.9
 11
43.9292
 21
183.283
 31
11.9
  0
LINE
  5
BF4
330
A02
100
AcDbEntity
  8
Mesh_cs
100
AcDbLine
 10
43.9292
 20
183.283
 30
11.9
 11
39.4783
 21
169.585
 31
11.9
  0
LINE
  5
BF5
330
A02
100
AcDbEntity
  8
Mesh_cs
100
AcDbLine
 10
39.4783
 20
169.585
 30
11.9
 11
39.3248
 21
169.112
 31
11.9
  0
LINE
  5
BF6
330
A02
100
AcDbEntity
  8
Mesh_cs
100
AcDbLine
 10
39.3248
 20
169.112
 30
11.9
 11
25.7943
 21
173.509
 31
11.9
  0
LINE
  5
BF7
330
A02
100
AcDbEntity
  8
Mesh_cs
100
AcDbLine
 10
210.61
 20
113.458
 30
11.9
 11
211.723
 21
116.883
 31
11.9
  0
LINE
  5
BF8
330
A02
100
AcDbEntity
  8
Mesh_cs
100
AcDbLine
 10
211.723
 20
116.883
 30
11.9
 11
212.835
 21
120.307
 31
11.9
  0
LINE
  5
BF9
330
A02
100
AcDbEntity
  8
Mesh_cs
100
AcDbLine
 10
212.835
 20
120.307
 30
11.9
 11
212.931
 21
120.602
 31
11.9
  0
LINE
  5
BFA
330
A02
100
AcDbEntity
  8
Mesh_cs
100
AcDbLine
 10
212.931
 20
120.602
 30
11.9
 11
214.073
 21
124.116
 31
11.9
  0
LINE
  5
BFB
330
A02
100
AcDbEntity
  8
Mesh_cs
100
AcDbLine
 10
214.073
 20
124.116
 30
11.9
 11
215.214
 21
127.629
 31
11.9
  0
LINE
  5
BFC
330
A02
100
AcDbEntity
  8
Mesh_cs
100
AcDbLine
 10
215.214
 20
127.629
 30
11.9
 11
214.742
 21
127.783
 31
11.9
  0
LINE
  5
BFD
330
A02
100
AcDbEntity
  8
Mesh_cs
100
AcDbLine
 10
214.742
 20
127.783
 30
11.9
 11
201.044
 21
132.234
 31
11.9
  0
LINE
  5
BFE
330
A02
100
AcDbEntity
  8
Mesh_cs
100
AcDbLine
 10
201.044
 20
132.234
 30
11.9
 11
199.931
 21
128.809
 31
11.9
  0
LINE
  5
BFF
330
A02
100
AcDbEntity
  8
Mesh_cs
100
AcDbLine
 10
199.931
 20
128.809
 30
11.9
 11
198.818
 21
125.384
 31
11.9
  0
LINE
  5
C00
330
A02
100
AcDbEntity
  8
Mesh_cs
100
AcDbLine
 10
198.818
 20
125.384
 30
11.9
 11
198.665
 21
124.911
 31
11.9
  0
LINE
  5
C01
330
A02
100
AcDbEntity
  8
Mesh_cs
100
AcDbLine
 10
198.665
 20
124.911
 30
11.9
 11
197.552
 21
121.487
 31
11.9
  0
LINE
  5
C02
330
A02
100
AcDbEntity
  8
Mesh_cs
100
AcDbLine
 10
197.552
 20
121.487
 30
11.9
 11
196.439
 21
118.063
 31
11.9
  0
LINE
  5
C03
330
A02
100
AcDbEntity
  8
Mesh_cs
100
AcDbLine
 10
196.439
 20
118.063
 30
11.9
 11
210.138
 21
113.612
 31
11.9
  0
LINE
  5
C04
330
A02
100
AcDbEntity
  8
Mesh_cs
100
AcDbLine
 10
210.138
 20
113.612
 30
11.9
 11
210.61
 21
113.458
 31
11.9
  0
ENDSEC
  0
SECTION
  2
OBJECTS
  0
DICTIONARY
  5
F000
330
0
100
AcDbDictionary
  3
ACAD_GROUP
350
F001
  0
DICTIONARY
  5
F001
330
F000
100
AcDbDictionary
  0
ENDSEC
  0
EOF