999
FreeCAD v0.21 33771 (Git)
  0
SECTION
  2
HEADER
  9
$ACADVER
  1
AC1014
  9
$ACADMAINTVER
 70
     9
  9
$DWGCODEPAGE
  3
ANSI_1252
  9
$TEXTSTYLE
  7
STANDARD
  9
$DIMSTYLE
  2
STANDARD
  9
$DIMTXSTY
  7
STANDARD
  9
$CMLSTYLE
  2
STANDARD
  9
$LUNITS
 70
2
  9
$INSUNITS
 70
4
  9
$PEXTMAX
 10
50
 20
50
 30
50
  9
$PEXTMIN
 10
0
 20
0
 30
0
  9
$HANDSEED
  5
FFFF
  0
ENDSEC
  0
SECTION
  2
CLASSES
  0
CLASS
  1
ACDBDICTIONARYWDFLT
  2
AcDbDictionaryWithDefault
  3
ObjectDBX Classes
 90
        0
280
     0
281
     0
  0
CLASS
  1
XRECORD
  2
AcDbXrecord
  3
ObjectDBX Classes
 90
        0
280
     0
281
     0
  0
CLASS
  1
LWPOLYLINE
  2
AcDbPolyline
  3
ObjectDBX Classes
 90
        0
280
     0
281
     1
  0
ENDSEC
  0
SECTION
  2
TABLES
  0
TABLE
  2
VPORT
  5
20
330
0
100
AcDbSymbolTable
 70
     1
  0
VPORT
  5
21
330
20
100
AcDbSymbolTableRecord
100
AcDbViewportTableRecord
  2
*ACTIVE
 70
     0
  0
ENDTAB
  0
TABLE
  2
LTYPE
  5
22
330
0
100
AcDbSymbolTable
 70
     1
  0
LTYPE
  5
23
330
21
100
AcDbSymbolTableRecord
100
AcDbLinetypeTableRecord
  2
BYBLOCK
 70
     0
  3

 72
    65
 73
     0
 40
0.0
  0
LTYPE
  5
24
330
21
100
AcDbSymbolTableRecord
100
AcDbLinetypeTableRecord
  2
BYLAYER
 70
     0
  3

 72
    65
 73
     0
 40
0.0
  0
LTYPE
  5
25
330
21
100
AcDbSymbolTableRecord
100
AcDbLinetypeTableRecord
  2
CONTINUOUS
 70
     0
  3
Solid line
 72
    65
 73
     0
 40
0.0
  0
ENDTAB
  0
TABLE
  2
LAYER
  5
B95
330
0
100
AcDbSymbolTable
 70
3
  0
LAYER
  5
B96
330
B95
100
AcDbSymbolTableRecord
100
AcDbLayerTableRecord
  2
0
 70
   0
 62
   7
  6
CONTINUOUS
  0
LAYER
  5
B97
330
B95
100
AcDbSymbolTableRecord
100
AcDbLayerTableRecord
  2
none
 70
    0
 62
    7
  6
CONTINUOUS
  0
LAYER
  5
B98
330
B95
100
AcDbSymbolTableRecord
100
AcDbLayerTableRecord
  2
Mesh_cs001
 70
    0
 62
    7
  6
CONTINUOUS
  0
ENDTAB
  0
TABLE
  2
STYLE
  5
70
330
0
100
AcDbSymbolTable
 70
     2
  0
STYLE
  5
71
330
70
100
AcDbSymbolTableRecord
100
AcDbTextStyleTableRecord
  2
STANDARD
 70
     0
 40
0.0
 41
1.0
 50
0.0
 71
     0
 42
2.5
  3
arial.ttf
  4

  0
STYLE
  5
72
330
70
100
AcDbSymbolTableRecord
100
AcDbTextStyleTableRecord
  2
ANNOTATIVE
 70
     0
 40
0.0
 41
1.0
 50
0.0
 71
     0
 42
2.5
  3
arial.ttf
  4

  0
ENDTAB
  0
TABLE
  2
VIEW
  5
73
330
0
100
AcDbSymbolTable
 70
     0
  0
ENDTAB
  0
TABLE
  2
UCS
  5
74
330
0
100
AcDbSymbolTable
 70
     0
  0
ENDTAB
  0
TABLE
  2
APPID
  5
75
330
0
100
AcDbSymbolTable
 70
     2
  0
APPID
  5
76
330
75
100
AcDbSymbolTableRecord
100
AcDbRegAppTableRecord
  2
ACAD
 70
     0
  0
APPID
  5
77
330
75
100
AcDbSymbolTableRecord
100
AcDbRegAppTableRecord
  2
ACADANNOTATIVE
 70
     0
  0
ENDTAB
  0
TABLE
  2
DIMSTYLE
  5
78
330
0
100
AcDbSymbolTable
 70
     2
  0
DIMSTYLE
105
79
330
78
100
AcDbSymbolTableRecord
100
AcDbDimStyleTableRecord
  2
STANDARD
 70
     0
  3

  4

  5

  6

  7

 40
0.0
 41
2.5
 42
0.625
 43
3.75
 44
1.25
 45
0.0
 46
0.0
 47
0.0
 48
0.0
140
2.5
141
2.5
142
0.0
143
0.03937007874016
144
1.0
145
0.0
146
1.0
147
0.625
 71
     0
 72
     0
 73
     0
 74
     0
 75
     0
 76
     0
 77
     1
 78
     8
170
     0
171
     3
172
     1
173
     0
174
     0
175
     0
176
     0
177
     0
178
     0
270
     2
271
     2
272
     2
273
     2
274
     3
340
71
275
     0
280
     0
281
     0
282
     0
283
     0
284
     8
285
     0
286
     0
287
     3
288
     0
  0
ENDTAB
  0
TABLE
  2
BLOCK_RECORD
  5
A01
330
0
100
AcDbSymbolTable
  70
5
  0
BLOCK_RECORD
  5
A02
330
A01
100
AcDbSymbolTableRecord
100
AcDbBlockTableRecord
  2
*MODEL_SPACE
  0
BLOCK_RECORD
  5
A03
330
A01
100
AcDbSymbolTableRecord
100
AcDbBlockTableRecord
  2
*PAPER_SPACE
  0
ENDTAB
  0
ENDSEC
  0
SECTION
  2
BLOCKS
  0
BLOCK
  5
A04
330
A02
100
AcDbEntity
  8
0
100
AcDbBlockBegin
  2
*MODEL_SPACE
 70
   0
 10
0
 20
0
 30
0
  3
*MODEL_SPACE
  1
 
  0
ENDBLK
  5
A05
330
A02
100
AcDbEntity
  8
0
100
AcDbBlockEnd
  0
BLOCK
  5
A06
330
A03
100
AcDbEntity
 67
1
  8
0
100
AcDbBlockBegin
  2
*PAPER_SPACE
 70
   0
 10
0
 20
0
 30
0
  3
*PAPER_SPACE
  1
 
  0
ENDBLK
  5
A07
330
A03
100
AcDbEntity
 67
    1
  8
0
100
AcDbBlockEnd
  0
ENDSEC
  0
SECTION
  2
ENTITIES
  0
LINE
  5
A08
330
A02
100
AcDbEntity
  8
Mesh_cs001
100
AcDbLine
 10
-406.11
 20
573.513
 30
9.1
 11
-406.015
 21
573.48
 31
9.1
  0
LINE
  5
A09
330
A02
100
AcDbEntity
  8
Mesh_cs001
100
AcDbLine
 10
-406.015
 20
573.48
 30
9.1
 11
-406.166
 21
573.014
 31
9.1
  0
LINE
  5
A0A
330
A02
100
AcDbEntity
  8
Mesh_cs001
100
AcDbLine
 10
-406.166
 20
573.014
 30
9.1
 11
-410.563
 21
559.483
 31
9.1
  0
LINE
  5
A0B
330
A02
100
AcDbEntity
  8
Mesh_cs001
100
AcDbLine
 10
-410.563
 20
559.483
 30
9.1
 11
-424.261
 21
563.934
 31
9.1
  0
LINE
  5
A0C
330
A02
100
AcDbEntity
  8
Mesh_cs001
100
AcDbLine
 10
-424.261
 20
563.934
 30
9.1
 11
-424.734
 21
564.087
 31
9.1
  0
LINE
  5
A0D
330
A02
100
AcDbEntity
  8
Mesh_cs001
100
AcDbLine
 10
-424.734
 20
564.087
 30
9.1
 11
-424.58
 21
564.56
 31
9.1
  0
LINE
  5
A0E
330
A02
100
AcDbEntity
  8
Mesh_cs001
100
AcDbLine
 10
-424.58
 20
564.56
 30
9.1
 11
-420.129
 21
578.258
 31
9.1
  0
LINE
  5
A0F
330
A02
100
AcDbEntity
  8
Mesh_cs001
100
AcDbLine
 10
-420.129
 20
578.258
 30
9.1
 11
-416.932
 21
577.206
 31
9.1
  0
LINE
  5
A10
330
A02
100
AcDbEntity
  8
Mesh_cs001
100
AcDbLine
 10
-416.932
 20
577.206
 30
9.1
 11
-415.913
 21
576.871
 31
9.1
  0
LINE
  5
A11
330
A02
100
AcDbEntity
  8
Mesh_cs001
100
AcDbLine
 10
-415.913
 20
576.871
 30
9.1
 11
-412.723
 21
575.796
 31
9.1
  0
LINE
  5
A12
330
A02
100
AcDbEntity
  8
Mesh_cs001
100
AcDbLine
 10
-412.723
 20
575.796
 30
9.1
 11
-411.705
 21
575.453
 31
9.1
  0
LINE
  5
A13
330
A02
100
AcDbEntity
  8
Mesh_cs001
100
AcDbLine
 10
-411.705
 20
575.453
 30
9.1
 11
-406.205
 21
573.546
 31
9.1
  0
LINE
  5
A14
330
A02
100
AcDbEntity
  8
Mesh_cs001
100
AcDbLine
 10
-406.205
 20
573.546
 30
9.1
 11
-406.11
 21
573.513
 31
9.1
  0
LINE
  5
A15
330
A02
100
AcDbEntity
  8
Mesh_cs001
100
AcDbLine
 10
-272.416
 20
274.607
 30
9.1
 11
-287.978
 21
263.299
 31
9.1
  0
LINE
  5
A16
330
A02
100
AcDbEntity
  8
Mesh_cs001
100
AcDbLine
 10
-287.978
 20
263.299
 30
9.1
 11
-288.515
 21
262.91
 31
9.1
  0
LINE
  5
A17
330
A02
100
AcDbEntity
  8
Mesh_cs001
100
AcDbLine
 10
-288.515
 20
262.91
 30
9.1
 11
-288.532
 21
262.931
 31
9.1
  0
LINE
  5
A18
330
A02
100
AcDbEntity
  8
Mesh_cs001
100
AcDbLine
 10
-288.532
 20
262.931
 30
9.1
 11
-288.548
 21
262.952
 31
9.1
  0
LINE
  5
A19
330
A02
100
AcDbEntity
  8
Mesh_cs001
100
AcDbLine
 10
-288.548
 20
262.952
 30
9.1
 11
-288.714
 21
263.151
 31
9.1
  0
LINE
  5
A1A
330
A02
100
AcDbEntity
  8
Mesh_cs001
100
AcDbLine
 10
-288.714
 20
263.151
 30
9.1
 11
-288.899
 21
263.376
 31
9.1
  0
LINE
  5
A1B
330
A02
100
AcDbEntity
  8
Mesh_cs001
100
AcDbLine
 10
-288.899
 20
263.376
 30
9.1
 11
-289.124
 21
263.594
 31
9.1
  0
LINE
  5
A1C
330
A02
100
AcDbEntity
  8
Mesh_cs001
100
AcDbLine
 10
-289.124
 20
263.594
 30
9.1
 11
-289.285
 21
263.749
 31
9.1
  0
LINE
  5
A1D
330
A02
100
AcDbEntity
  8
Mesh_cs001
100
AcDbLine
 10
-289.285
 20
263.749
 30
9.1
 11
-289.447
 21
263.877
 31
9.1
  0
LINE
  5
A1E
330
A02
100
AcDbEntity
  8
Mesh_cs001
100
AcDbLine
 10
-289.447
 20
263.877
 30
9.1
 11
-289.606
 21
264.004
 31
9.1
  0
LINE
  5
A1F
330
A02
100
AcDbEntity
  8
Mesh_cs001
100
AcDbLine
 10
-289.606
 20
264.004
 30
9.1
 11
-289.657
 21
264.041
 31
9.1
  0
LINE
  5
A20
330
A02
100
AcDbEntity
  8
Mesh_cs001
100
AcDbLine
 10
-289.657
 20
264.041
 30
9.1
 11
-289.782
 21
264.125
 31
9.1
  0
LINE
  5
A21
330
A02
100
AcDbEntity
  8
Mesh_cs001
100
AcDbLine
 10
-289.782
 20
264.125
 30
9.1
 11
-289.864
 21
264.181
 31
9.1
  0
LINE
  5
A22
330
A02
100
AcDbEntity
  8
Mesh_cs001
100
AcDbLine
 10
-289.864
 20
264.181
 30
9.1
 11
-290.009
 21
264.267
 31
9.1
  0
LINE
  5
A23
330
A02
100
AcDbEntity
  8
Mesh_cs001
100
AcDbLine
 10
-290.009
 20
264.267
 30
9.1
 11
-290.214
 21
264.386
 31
9.1
  0
LINE
  5
A24
330
A02
100
AcDbEntity
  8
Mesh_cs001
100
AcDbLine
 10
-290.214
 20
264.386
 30
9.1
 11
-290.292
 21
264.425
 31
9.1
  0
LINE
  5
A25
330
A02
100
AcDbEntity
  8
Mesh_cs001
100
AcDbLine
 10
-290.292
 20
264.425
 30
9.1
 11
-290.528
 21
264.539
 31
9.1
  0
LINE
  5
A26
330
A02
100
AcDbEntity
  8
Mesh_cs001
100
AcDbLine
 10
-290.528
 20
264.539
 30
9.1
 11
-290.823
 21
264.656
 31
9.1
  0
LINE
  5
A27
330
A02
100
AcDbEntity
  8
Mesh_cs001
100
AcDbLine
 10
-290.823
 20
264.656
 30
9.1
 11
-290.987
 21
264.717
 31
9.1
  0
LINE
  5
A28
330
A02
100
AcDbEntity
  8
Mesh_cs001
100
AcDbLine
 10
-290.987
 20
264.717
 30
9.1
 11
-292.921
 21
267.01
 31
9.1
  0
LINE
  5
A29
330
A02
100
AcDbEntity
  8
Mesh_cs001
100
AcDbLine
 10
-292.921
 20
267.01
 30
9.1
 11
-293.537
 21
267.741
 31
9.1
  0
LINE
  5
A2A
330
A02
100
AcDbEntity
  8
Mesh_cs001
100
AcDbLine
 10
-293.537
 20
267.741
 30
9.1
 11
-295.494
 21
270.018
 31
9.1
  0
LINE
  5
A2B
330
A02
100
AcDbEntity
  8
Mesh_cs001
100
AcDbLine
 10
-295.494
 20
270.018
 30
9.1
 11
-296.118
 21
270.744
 31
9.1
  0
LINE
  5
A2C
330
A02
100
AcDbEntity
  8
Mesh_cs001
100
AcDbLine
 10
-296.118
 20
270.744
 30
9.1
 11
-298.149
 21
273.06
 31
9.1
  0
LINE
  5
A2D
330
A02
100
AcDbEntity
  8
Mesh_cs001
100
AcDbLine
 10
-298.149
 20
273.06
 30
9.1
 11
-298.796
 21
273.798
 31
9.1
  0
LINE
  5
A2E
330
A02
100
AcDbEntity
  8
Mesh_cs001
100
AcDbLine
 10
-298.796
 20
273.798
 30
9.1
 11
-300.85
 21
276.095
 31
9.1
  0
LINE
  5
A2F
330
A02
100
AcDbEntity
  8
Mesh_cs001
100
AcDbLine
 10
-300.85
 20
276.095
 30
9.1
 11
-301.504
 21
276.827
 31
9.1
  0
LINE
  5
A30
330
A02
100
AcDbEntity
  8
Mesh_cs001
100
AcDbLine
 10
-301.504
 20
276.827
 30
9.1
 11
-302.166
 21
277.552
 31
9.1
  0
LINE
  5
A31
330
A02
100
AcDbEntity
  8
Mesh_cs001
100
AcDbLine
 10
-302.166
 20
277.552
 30
9.1
 11
-304.242
 21
279.828
 31
9.1
  0
LINE
  5
A32
330
A02
100
AcDbEntity
  8
Mesh_cs001
100
AcDbLine
 10
-304.242
 20
279.828
 30
9.1
 11
-304.911
 21
280.547
 31
9.1
  0
LINE
  5
A33
330
A02
100
AcDbEntity
  8
Mesh_cs001
100
AcDbLine
 10
-304.911
 20
280.547
 30
9.1
 11
-307.009
 21
282.803
 31
9.1
  0
LINE
  5
A34
330
A02
100
AcDbEntity
  8
Mesh_cs001
100
AcDbLine
 10
-307.009
 20
282.803
 30
9.1
 11
-309.13
 21
285.038
 31
9.1
  0
LINE
  5
A35
330
A02
100
AcDbEntity
  8
Mesh_cs001
100
AcDbLine
 10
-309.13
 20
285.038
 30
9.1
 11
-309.806
 21
285.75
 31
9.1
  0
LINE
  5
A36
330
A02
100
AcDbEntity
  8
Mesh_cs001
100
AcDbLine
 10
-309.806
 20
285.75
 30
9.1
 11
-311.948
 21
287.964
 31
9.1
  0
LINE
  5
A37
330
A02
100
AcDbEntity
  8
Mesh_cs001
100
AcDbLine
 10
-311.948
 20
287.964
 30
9.1
 11
-312.631
 21
288.669
 31
9.1
  0
LINE
  5
A38
330
A02
100
AcDbEntity
  8
Mesh_cs001
100
AcDbLine
 10
-312.631
 20
288.669
 30
9.1
 11
-313.321
 21
289.368
 31
9.1
  0
LINE
  5
A39
330
A02
100
AcDbEntity
  8
Mesh_cs001
100
AcDbLine
 10
-313.321
 20
289.368
 30
9.1
 11
-315.485
 21
291.561
 31
9.1
  0
LINE
  5
A3A
330
A02
100
AcDbEntity
  8
Mesh_cs001
100
AcDbLine
 10
-315.485
 20
291.561
 30
9.1
 11
-316.181
 21
292.253
 31
9.1
  0
LINE
  5
A3B
330
A02
100
AcDbEntity
  8
Mesh_cs001
100
AcDbLine
 10
-316.181
 20
292.253
 30
9.1
 11
-318.367
 21
294.425
 31
9.1
  0
LINE
  5
A3C
330
A02
100
AcDbEntity
  8
Mesh_cs001
100
AcDbLine
 10
-318.367
 20
294.425
 30
9.1
 11
-320.574
 21
296.575
 31
9.1
  0
LINE
  5
A3D
330
A02
100
AcDbEntity
  8
Mesh_cs001
100
AcDbLine
 10
-320.574
 20
296.575
 30
9.1
 11
-321.278
 21
297.26
 31
9.1
  0
LINE
  5
A3E
330
A02
100
AcDbEntity
  8
Mesh_cs001
100
AcDbLine
 10
-321.278
 20
297.26
 30
9.1
 11
-323.506
 21
299.388
 31
9.1
  0
LINE
  5
A3F
330
A02
100
AcDbEntity
  8
Mesh_cs001
100
AcDbLine
 10
-323.506
 20
299.388
 30
9.1
 11
-324.216
 21
300.066
 31
9.1
  0
LINE
  5
A40
330
A02
100
AcDbEntity
  8
Mesh_cs001
100
AcDbLine
 10
-324.216
 20
300.066
 30
9.1
 11
-326.465
 21
302.173
 31
9.1
  0
LINE
  5
A41
330
A02
100
AcDbEntity
  8
Mesh_cs001
100
AcDbLine
 10
-326.465
 20
302.173
 30
9.1
 11
-327.182
 21
302.844
 31
9.1
  0
LINE
  5
A42
330
A02
100
AcDbEntity
  8
Mesh_cs001
100
AcDbLine
 10
-327.182
 20
302.844
 30
9.1
 11
-327.905
 21
303.508
 31
9.1
  0
LINE
  5
A43
330
A02
100
AcDbEntity
  8
Mesh_cs001
100
AcDbLine
 10
-327.905
 20
303.508
 30
9.1
 11
-330.175
 21
305.592
 31
9.1
  0
LINE
  5
A44
330
A02
100
AcDbEntity
  8
Mesh_cs001
100
AcDbLine
 10
-330.175
 20
305.592
 30
9.1
 11
-332.465
 21
307.654
 31
9.1
  0
LINE
  5
A45
330
A02
100
AcDbEntity
  8
Mesh_cs001
100
AcDbLine
 10
-332.465
 20
307.654
 30
9.1
 11
-333.195
 21
308.311
 31
9.1
  0
LINE
  5
A46
330
A02
100
AcDbEntity
  8
Mesh_cs001
100
AcDbLine
 10
-333.195
 20
308.311
 30
9.1
 11
-333.931
 21
308.961
 31
9.1
  0
LINE
  5
A47
330
A02
100
AcDbEntity
  8
Mesh_cs001
100
AcDbLine
 10
-333.931
 20
308.961
 30
9.1
 11
-336.242
 21
311
 31
9.1
  0
LINE
  5
A48
330
A02
100
AcDbEntity
  8
Mesh_cs001
100
AcDbLine
 10
-336.242
 20
311
 30
9.1
 11
-338.572
 21
313.016
 31
9.1
  0
LINE
  5
A49
330
A02
100
AcDbEntity
  8
Mesh_cs001
100
AcDbLine
 10
-338.572
 20
313.016
 30
9.1
 11
-339.315
 21
313.659
 31
9.1
  0
LINE
  5
A4A
330
A02
100
AcDbEntity
  8
Mesh_cs001
100
AcDbLine
 10
-339.315
 20
313.659
 30
9.1
 11
-341.665
 21
315.652
 31
9.1
  0
LINE
  5
A4B
330
A02
100
AcDbEntity
  8
Mesh_cs001
100
AcDbLine
 10
-341.665
 20
315.652
 30
9.1
 11
-342.414
 21
316.288
 31
9.1
  0
LINE
  5
A4C
330
A02
100
AcDbEntity
  8
Mesh_cs001
100
AcDbLine
 10
-342.414
 20
316.288
 30
9.1
 11
-344.784
 21
318.258
 31
9.1
  0
LINE
  5
A4D
330
A02
100
AcDbEntity
  8
Mesh_cs001
100
AcDbLine
 10
-344.784
 20
318.258
 30
9.1
 11
-345.539
 21
318.886
 31
9.1
  0
LINE
  5
A4E
330
A02
100
AcDbEntity
  8
Mesh_cs001
100
AcDbLine
 10
-345.539
 20
318.886
 30
9.1
 11
-346.3
 21
319.506
 31
9.1
  0
LINE
  5
A4F
330
A02
100
AcDbEntity
  8
Mesh_cs001
100
AcDbLine
 10
-346.3
 20
319.506
 30
9.1
 11
-348.689
 21
321.453
 31
9.1
  0
LINE
  5
A50
330
A02
100
AcDbEntity
  8
Mesh_cs001
100
AcDbLine
 10
-348.689
 20
321.453
 30
9.1
 11
-351.097
 21
323.376
 31
9.1
  0
LINE
  5
A51
330
A02
100
AcDbEntity
  8
Mesh_cs001
100
AcDbLine
 10
-351.097
 20
323.376
 30
9.1
 11
-351.865
 21
323.989
 31
9.1
  0
LINE
  5
A52
330
A02
100
AcDbEntity
  8
Mesh_cs001
100
AcDbLine
 10
-351.865
 20
323.989
 30
9.1
 11
-354.292
 21
325.889
 31
9.1
  0
LINE
  5
A53
330
A02
100
AcDbEntity
  8
Mesh_cs001
100
AcDbLine
 10
-354.292
 20
325.889
 30
9.1
 11
-355.065
 21
326.494
 31
9.1
  0
LINE
  5
A54
330
A02
100
AcDbEntity
  8
Mesh_cs001
100
AcDbLine
 10
-355.065
 20
326.494
 30
9.1
 11
-357.511
 21
328.37
 31
9.1
  0
LINE
  5
A55
330
A02
100
AcDbEntity
  8
Mesh_cs001
100
AcDbLine
 10
-357.511
 20
328.37
 30
9.1
 11
-358.29
 21
328.967
 31
9.1
  0
LINE
  5
A56
330
A02
100
AcDbEntity
  8
Mesh_cs001
100
AcDbLine
 10
-358.29
 20
328.967
 30
9.1
 11
-359.076
 21
329.557
 31
9.1
  0
LINE
  5
A57
330
A02
100
AcDbEntity
  8
Mesh_cs001
100
AcDbLine
 10
-359.076
 20
329.557
 30
9.1
 11
-361.54
 21
331.409
 31
9.1
  0
LINE
  5
A58
330
A02
100
AcDbEntity
  8
Mesh_cs001
100
AcDbLine
 10
-361.54
 20
331.409
 30
9.1
 11
-364.022
 21
333.236
 31
9.1
  0
LINE
  5
A59
330
A02
100
AcDbEntity
  8
Mesh_cs001
100
AcDbLine
 10
-364.022
 20
333.236
 30
9.1
 11
-364.813
 21
333.818
 31
9.1
  0
LINE
  5
A5A
330
A02
100
AcDbEntity
  8
Mesh_cs001
100
AcDbLine
 10
-364.813
 20
333.818
 30
9.1
 11
-367.062
 21
335.442
 31
9.1
  0
LINE
  5
A5B
330
A02
100
AcDbEntity
  8
Mesh_cs001
100
AcDbLine
 10
-367.062
 20
335.442
 30
9.1
 11
-367.779
 21
335.959
 31
9.1
  0
LINE
  5
A5C
330
A02
100
AcDbEntity
  8
Mesh_cs001
100
AcDbLine
 10
-367.779
 20
335.959
 30
9.1
 11
-368.501
 21
336.47
 31
9.1
  0
LINE
  5
A5D
330
A02
100
AcDbEntity
  8
Mesh_cs001
100
AcDbLine
 10
-368.501
 20
336.47
 30
9.1
 11
-370.764
 21
338.074
 31
9.1
  0
LINE
  5
A5E
330
A02
100
AcDbEntity
  8
Mesh_cs001
100
AcDbLine
 10
-370.764
 20
338.074
 30
9.1
 11
-373.042
 21
339.658
 31
9.1
  0
LINE
  5
A5F
330
A02
100
AcDbEntity
  8
Mesh_cs001
100
AcDbLine
 10
-373.042
 20
339.658
 30
9.1
 11
-373.768
 21
340.162
 31
9.1
  0
LINE
  5
A60
330
A02
100
AcDbEntity
  8
Mesh_cs001
100
AcDbLine
 10
-373.768
 20
340.162
 30
9.1
 11
-374.498
 21
340.66
 31
9.1
  0
LINE
  5
A61
330
A02
100
AcDbEntity
  8
Mesh_cs001
100
AcDbLine
 10
-374.498
 20
340.66
 30
9.1
 11
-376.79
 21
342.224
 31
9.1
  0
LINE
  5
A62
330
A02
100
AcDbEntity
  8
Mesh_cs001
100
AcDbLine
 10
-376.79
 20
342.224
 30
9.1
 11
-379.096
 21
343.767
 31
9.1
  0
LINE
  5
A63
330
A02
100
AcDbEntity
  8
Mesh_cs001
100
AcDbLine
 10
-379.096
 20
343.767
 30
9.1
 11
-379.831
 21
344.258
 31
9.1
  0
LINE
  5
A64
330
A02
100
AcDbEntity
  8
Mesh_cs001
100
AcDbLine
 10
-379.831
 20
344.258
 30
9.1
 11
-382.15
 21
345.781
 31
9.1
  0
LINE
  5
A65
330
A02
100
AcDbEntity
  8
Mesh_cs001
100
AcDbLine
 10
-382.15
 20
345.781
 30
9.1
 11
-382.889
 21
346.266
 31
9.1
  0
LINE
  5
A66
330
A02
100
AcDbEntity
  8
Mesh_cs001
100
AcDbLine
 10
-382.889
 20
346.266
 30
9.1
 11
-385.222
 21
347.768
 31
9.1
  0
LINE
  5
A67
330
A02
100
AcDbEntity
  8
Mesh_cs001
100
AcDbLine
 10
-385.222
 20
347.768
 30
9.1
 11
-385.965
 21
348.247
 31
9.1
  0
LINE
  5
A68
330
A02
100
AcDbEntity
  8
Mesh_cs001
100
AcDbLine
 10
-385.965
 20
348.247
 30
9.1
 11
-388.311
 21
349.728
 31
9.1
  0
LINE
  5
A69
330
A02
100
AcDbEntity
  8
Mesh_cs001
100
AcDbLine
 10
-388.311
 20
349.728
 30
9.1
 11
-389.059
 21
350.2
 31
9.1
  0
LINE
  5
A6A
330
A02
100
AcDbEntity
  8
Mesh_cs001
100
AcDbLine
 10
-389.059
 20
350.2
 30
9.1
 11
-389.81
 21
350.666
 31
9.1
  0
LINE
  5
A6B
330
A02
100
AcDbEntity
  8
Mesh_cs001
100
AcDbLine
 10
-389.81
 20
350.666
 30
9.1
 11
-392.169
 21
352.126
 31
9.1
  0
LINE
  5
A6C
330
A02
100
AcDbEntity
  8
Mesh_cs001
100
AcDbLine
 10
-392.169
 20
352.126
 30
9.1
 11
-392.925
 21
352.585
 31
9.1
  0
LINE
  5
A6D
330
A02
100
AcDbEntity
  8
Mesh_cs001
100
AcDbLine
 10
-392.925
 20
352.585
 30
9.1
 11
-395.297
 21
354.024
 31
9.1
  0
LINE
  5
A6E
330
A02
100
AcDbEntity
  8
Mesh_cs001
100
AcDbLine
 10
-395.297
 20
354.024
 30
9.1
 11
-397.682
 21
355.443
 31
9.1
  0
LINE
  5
A6F
330
A02
100
AcDbEntity
  8
Mesh_cs001
100
AcDbLine
 10
-397.682
 20
355.443
 30
9.1
 11
-398.442
 21
355.895
 31
9.1
  0
LINE
  5
A70
330
A02
100
AcDbEntity
  8
Mesh_cs001
100
AcDbLine
 10
-398.442
 20
355.895
 30
9.1
 11
-400.839
 21
357.292
 31
9.1
  0
LINE
  5
A71
330
A02
100
AcDbEntity
  8
Mesh_cs001
100
AcDbLine
 10
-400.839
 20
357.292
 30
9.1
 11
-401.603
 21
357.737
 31
9.1
  0
LINE
  5
A72
330
A02
100
AcDbEntity
  8
Mesh_cs001
100
AcDbLine
 10
-401.603
 20
357.737
 30
9.1
 11
-402.371
 21
358.176
 31
9.1
  0
LINE
  5
A73
330
A02
100
AcDbEntity
  8
Mesh_cs001
100
AcDbLine
 10
-402.371
 20
358.176
 30
9.1
 11
-404.78
 21
359.552
 31
9.1
  0
LINE
  5
A74
330
A02
100
AcDbEntity
  8
Mesh_cs001
100
AcDbLine
 10
-404.78
 20
359.552
 30
9.1
 11
-407.202
 21
360.907
 31
9.1
  0
LINE
  5
A75
330
A02
100
AcDbEntity
  8
Mesh_cs001
100
AcDbLine
 10
-407.202
 20
360.907
 30
9.1
 11
-407.974
 21
361.338
 31
9.1
  0
LINE
  5
A76
330
A02
100
AcDbEntity
  8
Mesh_cs001
100
AcDbLine
 10
-407.974
 20
361.338
 30
9.1
 11
-410.407
 21
362.672
 31
9.1
  0
LINE
  5
A77
330
A02
100
AcDbEntity
  8
Mesh_cs001
100
AcDbLine
 10
-410.407
 20
362.672
 30
9.1
 11
-411.183
 21
363.097
 31
9.1
  0
LINE
  5
A78
330
A02
100
AcDbEntity
  8
Mesh_cs001
100
AcDbLine
 10
-411.183
 20
363.097
 30
9.1
 11
-413.628
 21
364.408
 31
9.1
  0
LINE
  5
A79
330
A02
100
AcDbEntity
  8
Mesh_cs001
100
AcDbLine
 10
-413.628
 20
364.408
 30
9.1
 11
-414.407
 21
364.826
 31
9.1
  0
LINE
  5
A7A
330
A02
100
AcDbEntity
  8
Mesh_cs001
100
AcDbLine
 10
-414.407
 20
364.826
 30
9.1
 11
-416.864
 21
366.116
 31
9.1
  0
LINE
  5
A7B
330
A02
100
AcDbEntity
  8
Mesh_cs001
100
AcDbLine
 10
-416.864
 20
366.116
 30
9.1
 11
-417.647
 21
366.527
 31
9.1
  0
LINE
  5
A7C
330
A02
100
AcDbEntity
  8
Mesh_cs001
100
AcDbLine
 10
-417.647
 20
366.527
 30
9.1
 11
-420.115
 21
367.795
 31
9.1
  0
LINE
  5
A7D
330
A02
100
AcDbEntity
  8
Mesh_cs001
100
AcDbLine
 10
-420.115
 20
367.795
 30
9.1
 11
-420.902
 21
368.199
 31
9.1
  0
LINE
  5
A7E
330
A02
100
AcDbEntity
  8
Mesh_cs001
100
AcDbLine
 10
-420.902
 20
368.199
 30
9.1
 11
-423.382
 21
369.446
 31
9.1
  0
LINE
  5
A7F
330
A02
100
AcDbEntity
  8
Mesh_cs001
100
AcDbLine
 10
-423.382
 20
369.446
 30
9.1
 11
-424.172
 21
369.843
 31
9.1
  0
LINE
  5
A80
330
A02
100
AcDbEntity
  8
Mesh_cs001
100
AcDbLine
 10
-424.172
 20
369.843
 30
9.1
 11
-424.965
 21
370.233
 31
9.1
  0
LINE
  5
A81
330
A02
100
AcDbEntity
  8
Mesh_cs001
100
AcDbLine
 10
-424.965
 20
370.233
 30
9.1
 11
-427.456
 21
371.457
 31
9.1
  0
LINE
  5
A82
330
A02
100
AcDbEntity
  8
Mesh_cs001
100
AcDbLine
 10
-427.456
 20
371.457
 30
9.1
 11
-429.957
 21
372.659
 31
9.1
  0
LINE
  5
A83
330
A02
100
AcDbEntity
  8
Mesh_cs001
100
AcDbLine
 10
-429.957
 20
372.659
 30
9.1
 11
-430.754
 21
373.043
 31
9.1
  0
LINE
  5
A84
330
A02
100
AcDbEntity
  8
Mesh_cs001
100
AcDbLine
 10
-430.754
 20
373.043
 30
9.1
 11
-433.266
 21
374.223
 31
9.1
  0
LINE
  5
A85
330
A02
100
AcDbEntity
  8
Mesh_cs001
100
AcDbLine
 10
-433.266
 20
374.223
 30
9.1
 11
-434.067
 21
374.599
 31
9.1
  0
LINE
  5
A86
330
A02
100
AcDbEntity
  8
Mesh_cs001
100
AcDbLine
 10
-434.067
 20
374.599
 30
9.1
 11
-434.87
 21
374.968
 31
9.1
  0
LINE
  5
A87
330
A02
100
AcDbEntity
  8
Mesh_cs001
100
AcDbLine
 10
-434.87
 20
374.968
 30
9.1
 11
-437.393
 21
376.125
 31
9.1
  0
LINE
  5
A88
330
A02
100
AcDbEntity
  8
Mesh_cs001
100
AcDbLine
 10
-437.393
 20
376.125
 30
9.1
 11
-439.925
 21
377.261
 31
9.1
  0
LINE
  5
A89
330
A02
100
AcDbEntity
  8
Mesh_cs001
100
AcDbLine
 10
-439.925
 20
377.261
 30
9.1
 11
-440.732
 21
377.622
 31
9.1
  0
LINE
  5
A8A
330
A02
100
AcDbEntity
  8
Mesh_cs001
100
AcDbLine
 10
-440.732
 20
377.622
 30
9.1
 11
-443.275
 21
378.735
 31
9.1
  0
LINE
  5
A8B
330
A02
100
AcDbEntity
  8
Mesh_cs001
100
AcDbLine
 10
-443.275
 20
378.735
 30
9.1
 11
-444.085
 21
379.09
 31
9.1
  0
LINE
  5
A8C
330
A02
100
AcDbEntity
  8
Mesh_cs001
100
AcDbLine
 10
-444.085
 20
379.09
 30
9.1
 11
-446.637
 21
380.18
 31
9.1
  0
LINE
  5
A8D
330
A02
100
AcDbEntity
  8
Mesh_cs001
100
AcDbLine
 10
-446.637
 20
380.18
 30
9.1
 11
-447.451
 21
380.528
 31
9.1
  0
LINE
  5
A8E
330
A02
100
AcDbEntity
  8
Mesh_cs001
100
AcDbLine
 10
-447.451
 20
380.528
 30
9.1
 11
-450.015
 21
381.596
 31
9.1
  0
LINE
  5
A8F
330
A02
100
AcDbEntity
  8
Mesh_cs001
100
AcDbLine
 10
-450.015
 20
381.596
 30
9.1
 11
-450.833
 21
381.937
 31
9.1
  0
LINE
  5
A90
330
A02
100
AcDbEntity
  8
Mesh_cs001
100
AcDbLine
 10
-450.833
 20
381.937
 30
9.1
 11
-453.404
 21
382.982
 31
9.1
  0
LINE
  5
A91
330
A02
100
AcDbEntity
  8
Mesh_cs001
100
AcDbLine
 10
-453.404
 20
382.982
 30
9.1
 11
-454.224
 21
383.315
 31
9.1
  0
LINE
  5
A92
330
A02
100
AcDbEntity
  8
Mesh_cs001
100
AcDbLine
 10
-454.224
 20
383.315
 30
9.1
 11
-454.332
 21
383.452
 31
9.1
  0
LINE
  5
A93
330
A02
100
AcDbEntity
  8
Mesh_cs001
100
AcDbLine
 10
-454.332
 20
383.452
 30
9.1
 11
-454.535
 21
383.696
 31
9.1
  0
LINE
  5
A94
330
A02
100
AcDbEntity
  8
Mesh_cs001
100
AcDbLine
 10
-454.535
 20
383.696
 30
9.1
 11
-454.716
 21
383.885
 31
9.1
  0
LINE
  5
A95
330
A02
100
AcDbEntity
  8
Mesh_cs001
100
AcDbLine
 10
-454.716
 20
383.885
 30
9.1
 11
-454.777
 21
383.948
 31
9.1
  0
LINE
  5
A96
330
A02
100
AcDbEntity
  8
Mesh_cs001
100
AcDbLine
 10
-454.777
 20
383.948
 30
9.1
 11
-454.953
 21
384.106
 31
9.1
  0
LINE
  5
A97
330
A02
100
AcDbEntity
  8
Mesh_cs001
100
AcDbLine
 10
-454.953
 20
384.106
 30
9.1
 11
-455.081
 21
384.218
 31
9.1
  0
LINE
  5
A98
330
A02
100
AcDbEntity
  8
Mesh_cs001
100
AcDbLine
 10
-455.081
 20
384.218
 30
9.1
 11
-455.159
 21
384.278
 31
9.1
  0
LINE
  5
A99
330
A02
100
AcDbEntity
  8
Mesh_cs001
100
AcDbLine
 10
-455.159
 20
384.278
 30
9.1
 11
-455.277
 21
384.37
 31
9.1
  0
LINE
  5
A9A
330
A02
100
AcDbEntity
  8
Mesh_cs001
100
AcDbLine
 10
-455.277
 20
384.37
 30
9.1
 11
-455.328
 21
384.409
 31
9.1
  0
LINE
  5
A9B
330
A02
100
AcDbEntity
  8
Mesh_cs001
100
AcDbLine
 10
-455.328
 20
384.409
 30
9.1
 11
-455.497
 21
384.52
 31
9.1
  0
LINE
  5
A9C
330
A02
100
AcDbEntity
  8
Mesh_cs001
100
AcDbLine
 10
-455.497
 20
384.52
 30
9.1
 11
-455.669
 21
384.634
 31
9.1
  0
LINE
  5
A9D
330
A02
100
AcDbEntity
  8
Mesh_cs001
100
AcDbLine
 10
-455.669
 20
384.634
 30
9.1
 11
-455.866
 21
384.74
 31
9.1
  0
LINE
  5
A9E
330
A02
100
AcDbEntity
  8
Mesh_cs001
100
AcDbLine
 10
-455.866
 20
384.74
 30
9.1
 11
-456.142
 21
384.885
 31
9.1
  0
LINE
  5
A9F
330
A02
100
AcDbEntity
  8
Mesh_cs001
100
AcDbLine
 10
-456.142
 20
384.885
 30
9.1
 11
-456.253
 21
384.933
 31
9.1
  0
LINE
  5
AA0
330
A02
100
AcDbEntity
  8
Mesh_cs001
100
AcDbLine
 10
-456.253
 20
384.933
 30
9.1
 11
-456.627
 21
385.079
 31
9.1
  0
LINE
  5
AA1
330
A02
100
AcDbEntity
  8
Mesh_cs001
100
AcDbLine
 10
-456.627
 20
385.079
 30
9.1
 11
-456.655
 21
385.089
 31
9.1
  0
LINE
  5
AA2
330
A02
100
AcDbEntity
  8
Mesh_cs001
100
AcDbLine
 10
-456.655
 20
385.089
 30
9.1
 11
-456.681
 21
385.098
 31
9.1
  0
LINE
  5
AA3
330
A02
100
AcDbEntity
  8
Mesh_cs001
100
AcDbLine
 10
-456.681
 20
385.098
 30
9.1
 11
-456.706
 21
385.108
 31
9.1
  0
LINE
  5
AA4
330
A02
100
AcDbEntity
  8
Mesh_cs001
100
AcDbLine
 10
-456.706
 20
385.108
 30
9.1
 11
-456.501
 21
385.738
 31
9.1
  0
LINE
  5
AA5
330
A02
100
AcDbEntity
  8
Mesh_cs001
100
AcDbLine
 10
-456.501
 20
385.738
 30
9.1
 11
-450.557
 21
404.034
 31
9.1
  0
LINE
  5
AA6
330
A02
100
AcDbEntity
  8
Mesh_cs001
100
AcDbLine
 10
-450.557
 20
404.034
 30
9.1
 11
-450.467
 21
404.343
 31
9.1
  0
LINE
  5
AA7
330
A02
100
AcDbEntity
  8
Mesh_cs001
100
AcDbLine
 10
-450.467
 20
404.343
 30
9.1
 11
-450.464
 21
404.356
 31
9.1
  0
LINE
  5
AA8
330
A02
100
AcDbEntity
  8
Mesh_cs001
100
AcDbLine
 10
-450.464
 20
404.356
 30
9.1
 11
-450.394
 21
404.679
 31
9.1
  0
LINE
  5
AA9
330
A02
100
AcDbEntity
  8
Mesh_cs001
100
AcDbLine
 10
-450.394
 20
404.679
 30
9.1
 11
-450.391
 21
404.692
 31
9.1
  0
LINE
  5
AAA
330
A02
100
AcDbEntity
  8
Mesh_cs001
100
AcDbLine
 10
-450.391
 20
404.692
 30
9.1
 11
-450.334
 21
405.115
 31
9.1
  0
LINE
  5
AAB
330
A02
100
AcDbEntity
  8
Mesh_cs001
100
AcDbLine
 10
-450.334
 20
405.115
 30
9.1
 11
-450.332
 21
405.127
 31
9.1
  0
LINE
  5
AAC
330
A02
100
AcDbEntity
  8
Mesh_cs001
100
AcDbLine
 10
-450.332
 20
405.127
 30
9.1
 11
-450.313
 21
405.554
 31
9.1
  0
LINE
  5
AAD
330
A02
100
AcDbEntity
  8
Mesh_cs001
100
AcDbLine
 10
-450.313
 20
405.554
 30
9.1
 11
-450.312
 21
405.567
 31
9.1
  0
LINE
  5
AAE
330
A02
100
AcDbEntity
  8
Mesh_cs001
100
AcDbLine
 10
-450.312
 20
405.567
 30
9.1
 11
-450.313
 21
405.58
 31
9.1
  0
LINE
  5
AAF
330
A02
100
AcDbEntity
  8
Mesh_cs001
100
AcDbLine
 10
-450.313
 20
405.58
 30
9.1
 11
-450.33
 21
406.008
 31
9.1
  0
LINE
  5
AB0
330
A02
100
AcDbEntity
  8
Mesh_cs001
100
AcDbLine
 10
-450.33
 20
406.008
 30
9.1
 11
-450.332
 21
406.021
 31
9.1
  0
LINE
  5
AB1
330
A02
100
AcDbEntity
  8
Mesh_cs001
100
AcDbLine
 10
-450.332
 20
406.021
 30
9.1
 11
-450.388
 21
406.447
 31
9.1
  0
LINE
  5
AB2
330
A02
100
AcDbEntity
  8
Mesh_cs001
100
AcDbLine
 10
-450.388
 20
406.447
 30
9.1
 11
-450.391
 21
406.46
 31
9.1
  0
LINE
  5
AB3
330
A02
100
AcDbEntity
  8
Mesh_cs001
100
AcDbLine
 10
-450.391
 20
406.46
 30
9.1
 11
-450.484
 21
406.88
 31
9.1
  0
LINE
  5
AB4
330
A02
100
AcDbEntity
  8
Mesh_cs001
100
AcDbLine
 10
-450.484
 20
406.88
 30
9.1
 11
-450.488
 21
406.892
 31
9.1
  0
LINE
  5
AB5
330
A02
100
AcDbEntity
  8
Mesh_cs001
100
AcDbLine
 10
-450.488
 20
406.892
 30
9.1
 11
-450.619
 21
407.303
 31
9.1
  0
LINE
  5
AB6
330
A02
100
AcDbEntity
  8
Mesh_cs001
100
AcDbLine
 10
-450.619
 20
407.303
 30
9.1
 11
-450.623
 21
407.315
 31
9.1
  0
LINE
  5
AB7
330
A02
100
AcDbEntity
  8
Mesh_cs001
100
AcDbLine
 10
-450.623
 20
407.315
 30
9.1
 11
-450.791
 21
407.713
 31
9.1
  0
LINE
  5
AB8
330
A02
100
AcDbEntity
  8
Mesh_cs001
100
AcDbLine
 10
-450.791
 20
407.713
 30
9.1
 11
-450.797
 21
407.727
 31
9.1
  0
LINE
  5
AB9
330
A02
100
AcDbEntity
  8
Mesh_cs001
100
AcDbLine
 10
-450.797
 20
407.727
 30
9.1
 11
-450.978
 21
408.071
 31
9.1
  0
LINE
  5
ABA
330
A02
100
AcDbEntity
  8
Mesh_cs001
100
AcDbLine
 10
-450.978
 20
408.071
 30
9.1
 11
-450.985
 21
408.084
 31
9.1
  0
LINE
  5
ABB
330
A02
100
AcDbEntity
  8
Mesh_cs001
100
AcDbLine
 10
-450.985
 20
408.084
 30
9.1
 11
-451.193
 21
408.414
 31
9.1
  0
LINE
  5
ABC
330
A02
100
AcDbEntity
  8
Mesh_cs001
100
AcDbLine
 10
-451.193
 20
408.414
 30
9.1
 11
-451.202
 21
408.426
 31
9.1
  0
LINE
  5
ABD
330
A02
100
AcDbEntity
  8
Mesh_cs001
100
AcDbLine
 10
-451.202
 20
408.426
 30
9.1
 11
-451.437
 21
408.738
 31
9.1
  0
LINE
  5
ABE
330
A02
100
AcDbEntity
  8
Mesh_cs001
100
AcDbLine
 10
-451.437
 20
408.738
 30
9.1
 11
-451.446
 21
408.749
 31
9.1
  0
LINE
  5
ABF
330
A02
100
AcDbEntity
  8
Mesh_cs001
100
AcDbLine
 10
-451.446
 20
408.749
 30
9.1
 11
-451.706
 21
409.042
 31
9.1
  0
LINE
  5
AC0
330
A02
100
AcDbEntity
  8
Mesh_cs001
100
AcDbLine
 10
-451.706
 20
409.042
 30
9.1
 11
-451.988
 21
409.313
 31
9.1
  0
LINE
  5
AC1
330
A02
100
AcDbEntity
  8
Mesh_cs001
100
AcDbLine
 10
-451.988
 20
409.313
 30
9.1
 11
-451.999
 21
409.324
 31
9.1
  0
LINE
  5
AC2
330
A02
100
AcDbEntity
  8
Mesh_cs001
100
AcDbLine
 10
-451.999
 20
409.324
 30
9.1
 11
-452.303
 21
409.572
 31
9.1
  0
LINE
  5
AC3
330
A02
100
AcDbEntity
  8
Mesh_cs001
100
AcDbLine
 10
-452.303
 20
409.572
 30
9.1
 11
-452.315
 21
409.581
 31
9.1
  0
LINE
  5
AC4
330
A02
100
AcDbEntity
  8
Mesh_cs001
100
AcDbLine
 10
-452.315
 20
409.581
 30
9.1
 11
-452.639
 21
409.804
 31
9.1
  0
LINE
  5
AC5
330
A02
100
AcDbEntity
  8
Mesh_cs001
100
AcDbLine
 10
-452.639
 20
409.804
 30
9.1
 11
-452.651
 21
409.812
 31
9.1
  0
LINE
  5
AC6
330
A02
100
AcDbEntity
  8
Mesh_cs001
100
AcDbLine
 10
-452.651
 20
409.812
 30
9.1
 11
-452.993
 21
410.008
 31
9.1
  0
LINE
  5
AC7
330
A02
100
AcDbEntity
  8
Mesh_cs001
100
AcDbLine
 10
-452.993
 20
410.008
 30
9.1
 11
-453.006
 21
410.015
 31
9.1
  0
LINE
  5
AC8
330
A02
100
AcDbEntity
  8
Mesh_cs001
100
AcDbLine
 10
-453.006
 20
410.015
 30
9.1
 11
-453.375
 21
410.188
 31
9.1
  0
LINE
  5
AC9
330
A02
100
AcDbEntity
  8
Mesh_cs001
100
AcDbLine
 10
-453.375
 20
410.188
 30
9.1
 11
-453.385
 21
410.193
 31
9.1
  0
LINE
  5
ACA
330
A02
100
AcDbEntity
  8
Mesh_cs001
100
AcDbLine
 10
-453.385
 20
410.193
 30
9.1
 11
-453.756
 21
410.33
 31
9.1
  0
LINE
  5
ACB
330
A02
100
AcDbEntity
  8
Mesh_cs001
100
AcDbLine
 10
-453.756
 20
410.33
 30
9.1
 11
-453.767
 21
410.334
 31
9.1
  0
LINE
  5
ACC
330
A02
100
AcDbEntity
  8
Mesh_cs001
100
AcDbLine
 10
-453.767
 20
410.334
 30
9.1
 11
-454.398
 21
410.539
 31
9.1
  0
LINE
  5
ACD
330
A02
100
AcDbEntity
  8
Mesh_cs001
100
AcDbLine
 10
-454.398
 20
410.539
 30
9.1
 11
-472.693
 21
416.483
 31
9.1
  0
LINE
  5
ACE
330
A02
100
AcDbEntity
  8
Mesh_cs001
100
AcDbLine
 10
-472.693
 20
416.483
 30
9.1
 11
-471.842
 21
419.104
 31
9.1
  0
LINE
  5
ACF
330
A02
100
AcDbEntity
  8
Mesh_cs001
100
AcDbLine
 10
-471.842
 20
419.104
 30
9.1
 11
-459.936
 21
455.745
 31
9.1
  0
LINE
  5
AD0
330
A02
100
AcDbEntity
  8
Mesh_cs001
100
AcDbLine
 10
-459.936
 20
455.745
 30
9.1
 11
-450.989
 21
483.282
 31
9.1
  0
LINE
  5
AD1
330
A02
100
AcDbEntity
  8
Mesh_cs001
100
AcDbLine
 10
-450.989
 20
483.282
 30
9.1
 11
-428.675
 21
551.957
 31
9.1
  0
LINE
  5
AD2
330
A02
100
AcDbEntity
  8
Mesh_cs001
100
AcDbLine
 10
-428.675
 20
551.957
 30
9.1
 11
-427.824
 21
554.577
 31
9.1
  0
LINE
  5
AD3
330
A02
100
AcDbEntity
  8
Mesh_cs001
100
AcDbLine
 10
-427.824
 20
554.577
 30
9.1
 11
-427.193
 21
554.372
 31
9.1
  0
LINE
  5
AD4
330
A02
100
AcDbEntity
  8
Mesh_cs001
100
AcDbLine
 10
-427.193
 20
554.372
 30
9.1
 11
-408.898
 21
548.427
 31
9.1
  0
LINE
  5
AD5
330
A02
100
AcDbEntity
  8
Mesh_cs001
100
AcDbLine
 10
-408.898
 20
548.427
 30
9.1
 11
-408.506
 21
548.318
 31
9.1
  0
LINE
  5
AD6
330
A02
100
AcDbEntity
  8
Mesh_cs001
100
AcDbLine
 10
-408.506
 20
548.318
 30
9.1
 11
-408.495
 21
548.315
 31
9.1
  0
LINE
  5
AD7
330
A02
100
AcDbEntity
  8
Mesh_cs001
100
AcDbLine
 10
-408.495
 20
548.315
 30
9.1
 11
-408.095
 21
548.238
 31
9.1
  0
LINE
  5
AD8
330
A02
100
AcDbEntity
  8
Mesh_cs001
100
AcDbLine
 10
-408.095
 20
548.238
 30
9.1
 11
-408.08
 21
548.236
 31
9.1
  0
LINE
  5
AD9
330
A02
100
AcDbEntity
  8
Mesh_cs001
100
AcDbLine
 10
-408.08
 20
548.236
 30
9.1
 11
-407.688
 21
548.194
 31
9.1
  0
LINE
  5
ADA
330
A02
100
AcDbEntity
  8
Mesh_cs001
100
AcDbLine
 10
-407.688
 20
548.194
 30
9.1
 11
-407.673
 21
548.193
 31
9.1
  0
LINE
  5
ADB
330
A02
100
AcDbEntity
  8
Mesh_cs001
100
AcDbLine
 10
-407.673
 20
548.193
 30
9.1
 11
-407.28
 21
548.183
 31
9.1
  0
LINE
  5
ADC
330
A02
100
AcDbEntity
  8
Mesh_cs001
100
AcDbLine
 10
-407.28
 20
548.183
 30
9.1
 11
-407.265
 21
548.184
 31
9.1
  0
LINE
  5
ADD
330
A02
100
AcDbEntity
  8
Mesh_cs001
100
AcDbLine
 10
-407.265
 20
548.184
 30
9.1
 11
-406.874
 21
548.206
 31
9.1
  0
LINE
  5
ADE
330
A02
100
AcDbEntity
  8
Mesh_cs001
100
AcDbLine
 10
-406.874
 20
548.206
 30
9.1
 11
-406.859
 21
548.208
 31
9.1
  0
LINE
  5
ADF
330
A02
100
AcDbEntity
  8
Mesh_cs001
100
AcDbLine
 10
-406.859
 20
548.208
 30
9.1
 11
-406.471
 21
548.261
 31
9.1
  0
LINE
  5
AE0
330
A02
100
AcDbEntity
  8
Mesh_cs001
100
AcDbLine
 10
-406.471
 20
548.261
 30
9.1
 11
-406.089
 21
548.346
 31
9.1
  0
LINE
  5
AE1
330
A02
100
AcDbEntity
  8
Mesh_cs001
100
AcDbLine
 10
-406.089
 20
548.346
 30
9.1
 11
-406.074
 21
548.349
 31
9.1
  0
LINE
  5
AE2
330
A02
100
AcDbEntity
  8
Mesh_cs001
100
AcDbLine
 10
-406.074
 20
548.349
 30
9.1
 11
-405.701
 21
548.464
 31
9.1
  0
LINE
  5
AE3
330
A02
100
AcDbEntity
  8
Mesh_cs001
100
AcDbLine
 10
-405.701
 20
548.464
 30
9.1
 11
-405.687
 21
548.468
 31
9.1
  0
LINE
  5
AE4
330
A02
100
AcDbEntity
  8
Mesh_cs001
100
AcDbLine
 10
-405.687
 20
548.468
 30
9.1
 11
-405.325
 21
548.613
 31
9.1
  0
LINE
  5
AE5
330
A02
100
AcDbEntity
  8
Mesh_cs001
100
AcDbLine
 10
-405.325
 20
548.613
 30
9.1
 11
-405.311
 21
548.619
 31
9.1
  0
LINE
  5
AE6
330
A02
100
AcDbEntity
  8
Mesh_cs001
100
AcDbLine
 10
-405.311
 20
548.619
 30
9.1
 11
-404.962
 21
548.791
 31
9.1
  0
LINE
  5
AE7
330
A02
100
AcDbEntity
  8
Mesh_cs001
100
AcDbLine
 10
-404.962
 20
548.791
 30
9.1
 11
-404.949
 21
548.798
 31
9.1
  0
LINE
  5
AE8
330
A02
100
AcDbEntity
  8
Mesh_cs001
100
AcDbLine
 10
-404.949
 20
548.798
 30
9.1
 11
-404.58
 21
549.022
 31
9.1
  0
LINE
  5
AE9
330
A02
100
AcDbEntity
  8
Mesh_cs001
100
AcDbLine
 10
-404.58
 20
549.022
 30
9.1
 11
-404.569
 21
549.029
 31
9.1
  0
LINE
  5
AEA
330
A02
100
AcDbEntity
  8
Mesh_cs001
100
AcDbLine
 10
-404.569
 20
549.029
 30
9.1
 11
-404.222
 21
549.284
 31
9.1
  0
LINE
  5
AEB
330
A02
100
AcDbEntity
  8
Mesh_cs001
100
AcDbLine
 10
-404.222
 20
549.284
 30
9.1
 11
-404.211
 21
549.293
 31
9.1
  0
LINE
  5
AEC
330
A02
100
AcDbEntity
  8
Mesh_cs001
100
AcDbLine
 10
-404.211
 20
549.293
 30
9.1
 11
-403.889
 21
549.577
 31
9.1
  0
LINE
  5
AED
330
A02
100
AcDbEntity
  8
Mesh_cs001
100
AcDbLine
 10
-403.889
 20
549.577
 30
9.1
 11
-403.584
 21
549.897
 31
9.1
  0
LINE
  5
AEE
330
A02
100
AcDbEntity
  8
Mesh_cs001
100
AcDbLine
 10
-403.584
 20
549.897
 30
9.1
 11
-403.575
 21
549.907
 31
9.1
  0
LINE
  5
AEF
330
A02
100
AcDbEntity
  8
Mesh_cs001
100
AcDbLine
 10
-403.575
 20
549.907
 30
9.1
 11
-403.309
 21
550.243
 31
9.1
  0
LINE
  5
AF0
330
A02
100
AcDbEntity
  8
Mesh_cs001
100
AcDbLine
 10
-403.309
 20
550.243
 30
9.1
 11
-403.293
 21
550.264
 31
9.1
  0
LINE
  5
AF1
330
A02
100
AcDbEntity
  8
Mesh_cs001
100
AcDbLine
 10
-403.293
 20
550.264
 30
9.1
 11
-403.058
 21
550.622
 31
9.1
  0
LINE
  5
AF2
330
A02
100
AcDbEntity
  8
Mesh_cs001
100
AcDbLine
 10
-403.058
 20
550.622
 30
9.1
 11
-402.85
 21
551.008
 31
9.1
  0
LINE
  5
AF3
330
A02
100
AcDbEntity
  8
Mesh_cs001
100
AcDbLine
 10
-402.85
 20
551.008
 30
9.1
 11
-402.712
 21
551.322
 31
9.1
  0
LINE
  5
AF4
330
A02
100
AcDbEntity
  8
Mesh_cs001
100
AcDbLine
 10
-402.712
 20
551.322
 30
9.1
 11
-402.597
 21
551.638
 31
9.1
  0
LINE
  5
AF5
330
A02
100
AcDbEntity
  8
Mesh_cs001
100
AcDbLine
 10
-402.597
 20
551.638
 30
9.1
 11
-402.398
 21
552.252
 31
9.1
  0
LINE
  5
AF6
330
A02
100
AcDbEntity
  8
Mesh_cs001
100
AcDbLine
 10
-402.398
 20
552.252
 30
9.1
 11
-396.605
 21
570.079
 31
9.1
  0
LINE
  5
AF7
330
A02
100
AcDbEntity
  8
Mesh_cs001
100
AcDbLine
 10
-396.605
 20
570.079
 30
9.1
 11
-396.467
 21
570.027
 31
9.1
  0
LINE
  5
AF8
330
A02
100
AcDbEntity
  8
Mesh_cs001
100
AcDbLine
 10
-396.467
 20
570.027
 30
9.1
 11
-392.056
 21
568.37
 31
9.1
  0
LINE
  5
AF9
330
A02
100
AcDbEntity
  8
Mesh_cs001
100
AcDbLine
 10
-392.056
 20
568.37
 30
9.1
 11
-388.91
 21
567.164
 31
9.1
  0
LINE
  5
AFA
330
A02
100
AcDbEntity
  8
Mesh_cs001
100
AcDbLine
 10
-388.91
 20
567.164
 30
9.1
 11
-387.909
 21
566.777
 31
9.1
  0
LINE
  5
AFB
330
A02
100
AcDbEntity
  8
Mesh_cs001
100
AcDbLine
 10
-387.909
 20
566.777
 30
9.1
 11
-384.774
 21
565.549
 31
9.1
  0
LINE
  5
AFC
330
A02
100
AcDbEntity
  8
Mesh_cs001
100
AcDbLine
 10
-384.774
 20
565.549
 30
9.1
 11
-383.776
 21
565.155
 31
9.1
  0
LINE
  5
AFD
330
A02
100
AcDbEntity
  8
Mesh_cs001
100
AcDbLine
 10
-383.776
 20
565.155
 30
9.1
 11
-380.651
 21
563.904
 31
9.1
  0
LINE
  5
AFE
330
A02
100
AcDbEntity
  8
Mesh_cs001
100
AcDbLine
 10
-380.651
 20
563.904
 30
9.1
 11
-379.656
 21
563.502
 31
9.1
  0
LINE
  5
AFF
330
A02
100
AcDbEntity
  8
Mesh_cs001
100
AcDbLine
 10
-379.656
 20
563.502
 30
9.1
 11
-376.539
 21
562.229
 31
9.1
  0
LINE
  5
B00
330
A02
100
AcDbEntity
  8
Mesh_cs001
100
AcDbLine
 10
-376.539
 20
562.229
 30
9.1
 11
-375.547
 21
561.82
 31
9.1
  0
LINE
  5
B01
330
A02
100
AcDbEntity
  8
Mesh_cs001
100
AcDbLine
 10
-375.547
 20
561.82
 30
9.1
 11
-372.44
 21
560.523
 31
9.1
  0
LINE
  5
B02
330
A02
100
AcDbEntity
  8
Mesh_cs001
100
AcDbLine
 10
-372.44
 20
560.523
 30
9.1
 11
-371.451
 21
560.107
 31
9.1
  0
LINE
  5
B03
330
A02
100
AcDbEntity
  8
Mesh_cs001
100
AcDbLine
 10
-371.451
 20
560.107
 30
9.1
 11
-368.353
 21
558.788
 31
9.1
  0
LINE
  5
B04
330
A02
100
AcDbEntity
  8
Mesh_cs001
100
AcDbLine
 10
-368.353
 20
558.788
 30
9.1
 11
-367.367
 21
558.365
 31
9.1
  0
LINE
  5
B05
330
A02
100
AcDbEntity
  8
Mesh_cs001
100
AcDbLine
 10
-367.367
 20
558.365
 30
9.1
 11
-364.28
 21
557.023
 31
9.1
  0
LINE
  5
B06
330
A02
100
AcDbEntity
  8
Mesh_cs001
100
AcDbLine
 10
-364.28
 20
557.023
 30
9.1
 11
-363.297
 21
556.593
 31
9.1
  0
LINE
  5
B07
330
A02
100
AcDbEntity
  8
Mesh_cs001
100
AcDbLine
 10
-363.297
 20
556.593
 30
9.1
 11
-360.219
 21
555.229
 31
9.1
  0
LINE
  5
B08
330
A02
100
AcDbEntity
  8
Mesh_cs001
100
AcDbLine
 10
-360.219
 20
555.229
 30
9.1
 11
-359.239
 21
554.792
 31
9.1
  0
LINE
  5
B09
330
A02
100
AcDbEntity
  8
Mesh_cs001
100
AcDbLine
 10
-359.239
 20
554.792
 30
9.1
 11
-356.172
 21
553.405
 31
9.1
  0
LINE
  5
B0A
330
A02
100
AcDbEntity
  8
Mesh_cs001
100
AcDbLine
 10
-356.172
 20
553.405
 30
9.1
 11
-355.195
 21
552.96
 31
9.1
  0
LINE
  5
B0B
330
A02
100
AcDbEntity
  8
Mesh_cs001
100
AcDbLine
 10
-355.195
 20
552.96
 30
9.1
 11
-352.138
 21
551.551
 31
9.1
  0
LINE
  5
B0C
330
A02
100
AcDbEntity
  8
Mesh_cs001
100
AcDbLine
 10
-352.138
 20
551.551
 30
9.1
 11
-351.165
 21
551.1
 31
9.1
  0
LINE
  5
B0D
330
A02
100
AcDbEntity
  8
Mesh_cs001
100
AcDbLine
 10
-351.165
 20
551.1
 30
9.1
 11
-348.118
 21
549.668
 31
9.1
  0
LINE
  5
B0E
330
A02
100
AcDbEntity
  8
Mesh_cs001
100
AcDbLine
 10
-348.118
 20
549.668
 30
9.1
 11
-347.148
 21
549.21
 31
9.1
  0
LINE
  5
B0F
330
A02
100
AcDbEntity
  8
Mesh_cs001
100
AcDbLine
 10
-347.148
 20
549.21
 30
9.1
 11
-344.111
 21
547.756
 31
9.1
  0
LINE
  5
B10
330
A02
100
AcDbEntity
  8
Mesh_cs001
100
AcDbLine
 10
-344.111
 20
547.756
 30
9.1
 11
-343.145
 21
547.29
 31
9.1
  0
LINE
  5
B11
330
A02
100
AcDbEntity
  8
Mesh_cs001
100
AcDbLine
 10
-343.145
 20
547.29
 30
9.1
 11
-340.119
 21
545.815
 31
9.1
  0
LINE
  5
B12
330
A02
100
AcDbEntity
  8
Mesh_cs001
100
AcDbLine
 10
-340.119
 20
545.815
 30
9.1
 11
-339.156
 21
545.342
 31
9.1
  0
LINE
  5
B13
330
A02
100
AcDbEntity
  8
Mesh_cs001
100
AcDbLine
 10
-339.156
 20
545.342
 30
9.1
 11
-336.141
 21
543.844
 31
9.1
  0
LINE
  5
B14
330
A02
100
AcDbEntity
  8
Mesh_cs001
100
AcDbLine
 10
-336.141
 20
543.844
 30
9.1
 11
-335.182
 21
543.364
 31
9.1
  0
LINE
  5
B15
330
A02
100
AcDbEntity
  8
Mesh_cs001
100
AcDbLine
 10
-335.182
 20
543.364
 30
9.1
 11
-332.178
 21
541.845
 31
9.1
  0
LINE
  5
B16
330
A02
100
AcDbEntity
  8
Mesh_cs001
100
AcDbLine
 10
-332.178
 20
541.845
 30
9.1
 11
-331.222
 21
541.358
 31
9.1
  0
LINE
  5
B17
330
A02
100
AcDbEntity
  8
Mesh_cs001
100
AcDbLine
 10
-331.222
 20
541.358
 30
9.1
 11
-328.229
 21
539.817
 31
9.1
  0
LINE
  5
B18
330
A02
100
AcDbEntity
  8
Mesh_cs001
100
AcDbLine
 10
-328.229
 20
539.817
 30
9.1
 11
-327.277
 21
539.323
 31
9.1
  0
LINE
  5
B19
330
A02
100
AcDbEntity
  8
Mesh_cs001
100
AcDbLine
 10
-327.277
 20
539.323
 30
9.1
 11
-324.296
 21
537.76
 31
9.1
  0
LINE
  5
B1A
330
A02
100
AcDbEntity
  8
Mesh_cs001
100
AcDbLine
 10
-324.296
 20
537.76
 30
9.1
 11
-323.347
 21
537.259
 31
9.1
  0
LINE
  5
B1B
330
A02
100
AcDbEntity
  8
Mesh_cs001
100
AcDbLine
 10
-323.347
 20
537.259
 30
9.1
 11
-320.378
 21
535.674
 31
9.1
  0
LINE
  5
B1C
330
A02
100
AcDbEntity
  8
Mesh_cs001
100
AcDbLine
 10
-320.378
 20
535.674
 30
9.1
 11
-319.433
 21
535.166
 31
9.1
  0
LINE
  5
B1D
330
A02
100
AcDbEntity
  8
Mesh_cs001
100
AcDbLine
 10
-319.433
 20
535.166
 30
9.1
 11
-316.474
 21
533.56
 31
9.1
  0
LINE
  5
B1E
330
A02
100
AcDbEntity
  8
Mesh_cs001
100
AcDbLine
 10
-316.474
 20
533.56
 30
9.1
 11
-315.533
 21
533.045
 31
9.1
  0
LINE
  5
B1F
330
A02
100
AcDbEntity
  8
Mesh_cs001
100
AcDbLine
 10
-315.533
 20
533.045
 30
9.1
 11
-312.587
 21
531.417
 31
9.1
  0
LINE
  5
B20
330
A02
100
AcDbEntity
  8
Mesh_cs001
100
AcDbLine
 10
-312.587
 20
531.417
 30
9.1
 11
-311.65
 21
530.896
 31
9.1
  0
LINE
  5
B21
330
A02
100
AcDbEntity
  8
Mesh_cs001
100
AcDbLine
 10
-311.65
 20
530.896
 30
9.1
 11
-308.715
 21
529.246
 31
9.1
  0
LINE
  5
B22
330
A02
100
AcDbEntity
  8
Mesh_cs001
100
AcDbLine
 10
-308.715
 20
529.246
 30
9.1
 11
-307.782
 21
528.718
 31
9.1
  0
LINE
  5
B23
330
A02
100
AcDbEntity
  8
Mesh_cs001
100
AcDbLine
 10
-307.782
 20
528.718
 30
9.1
 11
-304.86
 21
527.047
 31
9.1
  0
LINE
  5
B24
330
A02
100
AcDbEntity
  8
Mesh_cs001
100
AcDbLine
 10
-304.86
 20
527.047
 30
9.1
 11
-303.93
 21
526.512
 31
9.1
  0
LINE
  5
B25
330
A02
100
AcDbEntity
  8
Mesh_cs001
100
AcDbLine
 10
-303.93
 20
526.512
 30
9.1
 11
-301.02
 21
524.82
 31
9.1
  0
LINE
  5
B26
330
A02
100
AcDbEntity
  8
Mesh_cs001
100
AcDbLine
 10
-301.02
 20
524.82
 30
9.1
 11
-300.095
 21
524.278
 31
9.1
  0
LINE
  5
B27
330
A02
100
AcDbEntity
  8
Mesh_cs001
100
AcDbLine
 10
-300.095
 20
524.278
 30
9.1
 11
-297.197
 21
522.565
 31
9.1
  0
LINE
  5
B28
330
A02
100
AcDbEntity
  8
Mesh_cs001
100
AcDbLine
 10
-297.197
 20
522.565
 30
9.1
 11
-296.174
 21
521.955
 31
9.1
  0
LINE
  5
B29
330
A02
100
AcDbEntity
  8
Mesh_cs001
100
AcDbLine
 10
-296.174
 20
521.955
 30
9.1
 11
-293.289
 21
520.221
 31
9.1
  0
LINE
  5
B2A
330
A02
100
AcDbEntity
  8
Mesh_cs001
100
AcDbLine
 10
-293.289
 20
520.221
 30
9.1
 11
-292.27
 21
519.603
 31
9.1
  0
LINE
  5
B2B
330
A02
100
AcDbEntity
  8
Mesh_cs001
100
AcDbLine
 10
-292.27
 20
519.603
 30
9.1
 11
-289.398
 21
517.847
 31
9.1
  0
LINE
  5
B2C
330
A02
100
AcDbEntity
  8
Mesh_cs001
100
AcDbLine
 10
-289.398
 20
517.847
 30
9.1
 11
-288.384
 21
517.221
 31
9.1
  0
LINE
  5
B2D
330
A02
100
AcDbEntity
  8
Mesh_cs001
100
AcDbLine
 10
-288.384
 20
517.221
 30
9.1
 11
-285.208
 21
515.246
 31
9.1
  0
LINE
  5
B2E
330
A02
100
AcDbEntity
  8
Mesh_cs001
100
AcDbLine
 10
-285.208
 20
515.246
 30
9.1
 11
-284.2
 21
514.611
 31
9.1
  0
LINE
  5
B2F
330
A02
100
AcDbEntity
  8
Mesh_cs001
100
AcDbLine
 10
-284.2
 20
514.611
 30
9.1
 11
-281.04
 21
512.611
 31
9.1
  0
LINE
  5
B30
330
A02
100
AcDbEntity
  8
Mesh_cs001
100
AcDbLine
 10
-281.04
 20
512.611
 30
9.1
 11
-280.037
 21
511.968
 31
9.1
  0
LINE
  5
B31
330
A02
100
AcDbEntity
  8
Mesh_cs001
100
AcDbLine
 10
-280.037
 20
511.968
 30
9.1
 11
-276.893
 21
509.942
 31
9.1
  0
LINE
  5
B32
330
A02
100
AcDbEntity
  8
Mesh_cs001
100
AcDbLine
 10
-276.893
 20
509.942
 30
9.1
 11
-275.895
 21
509.291
 31
9.1
  0
LINE
  5
B33
330
A02
100
AcDbEntity
  8
Mesh_cs001
100
AcDbLine
 10
-275.895
 20
509.291
 30
9.1
 11
-272.768
 21
507.24
 31
9.1
  0
LINE
  5
B34
330
A02
100
AcDbEntity
  8
Mesh_cs001
100
AcDbLine
 10
-272.768
 20
507.24
 30
9.1
 11
-271.776
 21
506.581
 31
9.1
  0
LINE
  5
B35
330
A02
100
AcDbEntity
  8
Mesh_cs001
100
AcDbLine
 10
-271.776
 20
506.581
 30
9.1
 11
-268.666
 21
504.504
 31
9.1
  0
LINE
  5
B36
330
A02
100
AcDbEntity
  8
Mesh_cs001
100
AcDbLine
 10
-268.666
 20
504.504
 30
9.1
 11
-267.678
 21
503.837
 31
9.1
  0
LINE
  5
B37
330
A02
100
AcDbEntity
  8
Mesh_cs001
100
AcDbLine
 10
-267.678
 20
503.837
 30
9.1
 11
-264.585
 21
501.736
 31
9.1
  0
LINE
  5
B38
330
A02
100
AcDbEntity
  8
Mesh_cs001
100
AcDbLine
 10
-264.585
 20
501.736
 30
9.1
 11
-263.603
 21
501.061
 31
9.1
  0
LINE
  5
B39
330
A02
100
AcDbEntity
  8
Mesh_cs001
100
AcDbLine
 10
-263.603
 20
501.061
 30
9.1
 11
-260.527
 21
498.934
 31
9.1
  0
LINE
  5
B3A
330
A02
100
AcDbEntity
  8
Mesh_cs001
100
AcDbLine
 10
-260.527
 20
498.934
 30
9.1
 11
-259.551
 21
498.251
 31
9.1
  0
LINE
  5
B3B
330
A02
100
AcDbEntity
  8
Mesh_cs001
100
AcDbLine
 10
-259.551
 20
498.251
 30
9.1
 11
-256.493
 21
496.099
 31
9.1
  0
LINE
  5
B3C
330
A02
100
AcDbEntity
  8
Mesh_cs001
100
AcDbLine
 10
-256.493
 20
496.099
 30
9.1
 11
-255.522
 21
495.409
 31
9.1
  0
LINE
  5
B3D
330
A02
100
AcDbEntity
  8
Mesh_cs001
100
AcDbLine
 10
-255.522
 20
495.409
 30
9.1
 11
-252.481
 21
493.232
 31
9.1
  0
LINE
  5
B3E
330
A02
100
AcDbEntity
  8
Mesh_cs001
100
AcDbLine
 10
-252.481
 20
493.232
 30
9.1
 11
-251.516
 21
492.534
 31
9.1
  0
LINE
  5
B3F
330
A02
100
AcDbEntity
  8
Mesh_cs001
100
AcDbLine
 10
-251.516
 20
492.534
 30
9.1
 11
-248.493
 21
490.333
 31
9.1
  0
LINE
  5
B40
330
A02
100
AcDbEntity
  8
Mesh_cs001
100
AcDbLine
 10
-248.493
 20
490.333
 30
9.1
 11
-247.533
 21
489.626
 31
9.1
  0
LINE
  5
B41
330
A02
100
AcDbEntity
  8
Mesh_cs001
100
AcDbLine
 10
-247.533
 20
489.626
 30
9.1
 11
-244.528
 21
487.401
 31
9.1
  0
LINE
  5
B42
330
A02
100
AcDbEntity
  8
Mesh_cs001
100
AcDbLine
 10
-244.528
 20
487.401
 30
9.1
 11
-243.575
 21
486.687
 31
9.1
  0
LINE
  5
B43
330
A02
100
AcDbEntity
  8
Mesh_cs001
100
AcDbLine
 10
-243.575
 20
486.687
 30
9.1
 11
-240.588
 21
484.438
 31
9.1
  0
LINE
  5
B44
330
A02
100
AcDbEntity
  8
Mesh_cs001
100
AcDbLine
 10
-240.588
 20
484.438
 30
9.1
 11
-239.64
 21
483.716
 31
9.1
  0
LINE
  5
B45
330
A02
100
AcDbEntity
  8
Mesh_cs001
100
AcDbLine
 10
-239.64
 20
483.716
 30
9.1
 11
-236.672
 21
481.442
 31
9.1
  0
LINE
  5
B46
330
A02
100
AcDbEntity
  8
Mesh_cs001
100
AcDbLine
 10
-236.672
 20
481.442
 30
9.1
 11
-235.729
 21
480.713
 31
9.1
  0
LINE
  5
B47
330
A02
100
AcDbEntity
  8
Mesh_cs001
100
AcDbLine
 10
-235.729
 20
480.713
 30
9.1
 11
-232.78
 21
478.415
 31
9.1
  0
LINE
  5
B48
330
A02
100
AcDbEntity
  8
Mesh_cs001
100
AcDbLine
 10
-232.78
 20
478.415
 30
9.1
 11
-231.844
 21
477.678
 31
9.1
  0
LINE
  5
B49
330
A02
100
AcDbEntity
  8
Mesh_cs001
100
AcDbLine
 10
-231.844
 20
477.678
 30
9.1
 11
-228.913
 21
475.357
 31
9.1
  0
LINE
  5
B4A
330
A02
100
AcDbEntity
  8
Mesh_cs001
100
AcDbLine
 10
-228.913
 20
475.357
 30
9.1
 11
-227.983
 21
474.612
 31
9.1
  0
LINE
  5
B4B
330
A02
100
AcDbEntity
  8
Mesh_cs001
100
AcDbLine
 10
-227.983
 20
474.612
 30
9.1
 11
-225.071
 21
472.267
 31
9.1
  0
LINE
  5
B4C
330
A02
100
AcDbEntity
  8
Mesh_cs001
100
AcDbLine
 10
-225.071
 20
472.267
 30
9.1
 11
-224.147
 21
471.515
 31
9.1
  0
LINE
  5
B4D
330
A02
100
AcDbEntity
  8
Mesh_cs001
100
AcDbLine
 10
-224.147
 20
471.515
 30
9.1
 11
-221.254
 21
469.146
 31
9.1
  0
LINE
  5
B4E
330
A02
100
AcDbEntity
  8
Mesh_cs001
100
AcDbLine
 10
-221.254
 20
469.146
 30
9.1
 11
-220.336
 21
468.387
 31
9.1
  0
LINE
  5
B4F
330
A02
100
AcDbEntity
  8
Mesh_cs001
100
AcDbLine
 10
-220.336
 20
468.387
 30
9.1
 11
-217.462
 21
465.995
 31
9.1
  0
LINE
  5
B50
330
A02
100
AcDbEntity
  8
Mesh_cs001
100
AcDbLine
 10
-217.462
 20
465.995
 30
9.1
 11
-216.551
 21
465.228
 31
9.1
  0
LINE
  5
B51
330
A02
100
AcDbEntity
  8
Mesh_cs001
100
AcDbLine
 10
-216.551
 20
465.228
 30
9.1
 11
-213.697
 21
462.813
 31
9.1
  0
LINE
  5
B52
330
A02
100
AcDbEntity
  8
Mesh_cs001
100
AcDbLine
 10
-213.697
 20
462.813
 30
9.1
 11
-212.791
 21
462.038
 31
9.1
  0
LINE
  5
B53
330
A02
100
AcDbEntity
  8
Mesh_cs001
100
AcDbLine
 10
-212.791
 20
462.038
 30
9.1
 11
-209.957
 21
459.6
 31
9.1
  0
LINE
  5
B54
330
A02
100
AcDbEntity
  8
Mesh_cs001
100
AcDbLine
 10
-209.957
 20
459.6
 30
9.1
 11
-209.058
 21
458.819
 31
9.1
  0
LINE
  5
B55
330
A02
100
AcDbEntity
  8
Mesh_cs001
100
AcDbLine
 10
-209.058
 20
458.819
 30
9.1
 11
-206.244
 21
456.358
 31
9.1
  0
LINE
  5
B56
330
A02
100
AcDbEntity
  8
Mesh_cs001
100
AcDbLine
 10
-206.244
 20
456.358
 30
9.1
 11
-205.351
 21
455.569
 31
9.1
  0
LINE
  5
B57
330
A02
100
AcDbEntity
  8
Mesh_cs001
100
AcDbLine
 10
-205.351
 20
455.569
 30
9.1
 11
-202.557
 21
453.085
 31
9.1
  0
LINE
  5
B58
330
A02
100
AcDbEntity
  8
Mesh_cs001
100
AcDbLine
 10
-202.557
 20
453.085
 30
9.1
 11
-201.671
 21
452.289
 31
9.1
  0
LINE
  5
B59
330
A02
100
AcDbEntity
  8
Mesh_cs001
100
AcDbLine
 10
-201.671
 20
452.289
 30
9.1
 11
-198.912
 21
449.797
 31
9.1
  0
LINE
  5
B5A
330
A02
100
AcDbEntity
  8
Mesh_cs001
100
AcDbLine
 10
-198.912
 20
449.797
 30
9.1
 11
-198.323
 21
449.26
 31
9.1
  0
LINE
  5
B5B
330
A02
100
AcDbEntity
  8
Mesh_cs001
100
AcDbLine
 10
-198.323
 20
449.26
 30
9.1
 11
-195.586
 21
446.748
 31
9.1
  0
LINE
  5
B5C
330
A02
100
AcDbEntity
  8
Mesh_cs001
100
AcDbLine
 10
-195.586
 20
446.748
 30
9.1
 11
-195
 21
446.208
 31
9.1
  0
LINE
  5
B5D
330
A02
100
AcDbEntity
  8
Mesh_cs001
100
AcDbLine
 10
-195
 20
446.208
 30
9.1
 11
-195
 21
349.217
 31
9.1
  0
LINE
  5
B5E
330
A02
100
AcDbEntity
  8
Mesh_cs001
100
AcDbLine
 10
-195
 20
349.217
 30
9.1
 11
-195
 21
323.976
 31
9.1
  0
LINE
  5
B5F
330
A02
100
AcDbEntity
  8
Mesh_cs001
100
AcDbLine
 10
-195
 20
323.976
 30
9.1
 11
-195
 21
300.074
 31
9.1
  0
LINE
  5
B60
330
A02
100
AcDbEntity
  8
Mesh_cs001
100
AcDbLine
 10
-195
 20
300.074
 30
9.1
 11
-206.712
 21
291.565
 31
9.1
  0
LINE
  5
B61
330
A02
100
AcDbEntity
  8
Mesh_cs001
100
AcDbLine
 10
-206.712
 20
291.565
 30
9.1
 11
-251.506
 21
259.02
 31
9.1
  0
LINE
  5
B62
330
A02
100
AcDbEntity
  8
Mesh_cs001
100
AcDbLine
 10
-251.506
 20
259.02
 30
9.1
 11
-253.735
 21
257.401
 31
9.1
  0
LINE
  5
B63
330
A02
100
AcDbEntity
  8
Mesh_cs001
100
AcDbLine
 10
-253.735
 20
257.401
 30
9.1
 11
-265.042
 21
272.964
 31
9.1
  0
LINE
  5
B64
330
A02
100
AcDbEntity
  8
Mesh_cs001
100
AcDbLine
 10
-265.042
 20
272.964
 30
9.1
 11
-265.432
 21
273.5
 31
9.1
  0
LINE
  5
B65
330
A02
100
AcDbEntity
  8
Mesh_cs001
100
AcDbLine
 10
-265.432
 20
273.5
 30
9.1
 11
-265.684
 21
273.819
 31
9.1
  0
LINE
  5
B66
330
A02
100
AcDbEntity
  8
Mesh_cs001
100
AcDbLine
 10
-265.684
 20
273.819
 30
9.1
 11
-265.692
 21
273.828
 31
9.1
  0
LINE
  5
B67
330
A02
100
AcDbEntity
  8
Mesh_cs001
100
AcDbLine
 10
-265.692
 20
273.828
 30
9.1
 11
-265.97
 21
274.126
 31
9.1
  0
LINE
  5
B68
330
A02
100
AcDbEntity
  8
Mesh_cs001
100
AcDbLine
 10
-265.97
 20
274.126
 30
9.1
 11
-265.981
 21
274.136
 31
9.1
  0
LINE
  5
B69
330
A02
100
AcDbEntity
  8
Mesh_cs001
100
AcDbLine
 10
-265.981
 20
274.136
 30
9.1
 11
-266.273
 21
274.4
 31
9.1
  0
LINE
  5
B6A
330
A02
100
AcDbEntity
  8
Mesh_cs001
100
AcDbLine
 10
-266.273
 20
274.4
 30
9.1
 11
-266.285
 21
274.409
 31
9.1
  0
LINE
  5
B6B
330
A02
100
AcDbEntity
  8
Mesh_cs001
100
AcDbLine
 10
-266.285
 20
274.409
 30
9.1
 11
-266.596
 21
274.649
 31
9.1
  0
LINE
  5
B6C
330
A02
100
AcDbEntity
  8
Mesh_cs001
100
AcDbLine
 10
-266.596
 20
274.649
 30
9.1
 11
-266.609
 21
274.657
 31
9.1
  0
LINE
  5
B6D
330
A02
100
AcDbEntity
  8
Mesh_cs001
100
AcDbLine
 10
-266.609
 20
274.657
 30
9.1
 11
-266.939
 21
274.869
 31
9.1
  0
LINE
  5
B6E
330
A02
100
AcDbEntity
  8
Mesh_cs001
100
AcDbLine
 10
-266.939
 20
274.869
 30
9.1
 11
-266.952
 21
274.876
 31
9.1
  0
LINE
  5
B6F
330
A02
100
AcDbEntity
  8
Mesh_cs001
100
AcDbLine
 10
-266.952
 20
274.876
 30
9.1
 11
-267.297
 21
275.061
 31
9.1
  0
LINE
  5
B70
330
A02
100
AcDbEntity
  8
Mesh_cs001
100
AcDbLine
 10
-267.297
 20
275.061
 30
9.1
 11
-267.656
 21
275.218
 31
9.1
  0
LINE
  5
B71
330
A02
100
AcDbEntity
  8
Mesh_cs001
100
AcDbLine
 10
-267.656
 20
275.218
 30
9.1
 11
-267.669
 21
275.223
 31
9.1
  0
LINE
  5
B72
330
A02
100
AcDbEntity
  8
Mesh_cs001
100
AcDbLine
 10
-267.669
 20
275.223
 30
9.1
 11
-268.039
 21
275.35
 31
9.1
  0
LINE
  5
B73
330
A02
100
AcDbEntity
  8
Mesh_cs001
100
AcDbLine
 10
-268.039
 20
275.35
 30
9.1
 11
-268.053
 21
275.354
 31
9.1
  0
LINE
  5
B74
330
A02
100
AcDbEntity
  8
Mesh_cs001
100
AcDbLine
 10
-268.053
 20
275.354
 30
9.1
 11
-268.431
 21
275.451
 31
9.1
  0
LINE
  5
B75
330
A02
100
AcDbEntity
  8
Mesh_cs001
100
AcDbLine
 10
-268.431
 20
275.451
 30
9.1
 11
-268.445
 21
275.454
 31
9.1
  0
LINE
  5
B76
330
A02
100
AcDbEntity
  8
Mesh_cs001
100
AcDbLine
 10
-268.445
 20
275.454
 30
9.1
 11
-268.829
 21
275.519
 31
9.1
  0
LINE
  5
B77
330
A02
100
AcDbEntity
  8
Mesh_cs001
100
AcDbLine
 10
-268.829
 20
275.519
 30
9.1
 11
-268.844
 21
275.521
 31
9.1
  0
LINE
  5
B78
330
A02
100
AcDbEntity
  8
Mesh_cs001
100
AcDbLine
 10
-268.844
 20
275.521
 30
9.1
 11
-269.274
 21
275.557
 31
9.1
  0
LINE
  5
B79
330
A02
100
AcDbEntity
  8
Mesh_cs001
100
AcDbLine
 10
-269.274
 20
275.557
 30
9.1
 11
-269.287
 21
275.558
 31
9.1
  0
LINE
  5
B7A
330
A02
100
AcDbEntity
  8
Mesh_cs001
100
AcDbLine
 10
-269.287
 20
275.558
 30
9.1
 11
-269.718
 21
275.555
 31
9.1
  0
LINE
  5
B7B
330
A02
100
AcDbEntity
  8
Mesh_cs001
100
AcDbLine
 10
-269.718
 20
275.555
 30
9.1
 11
-269.731
 21
275.555
 31
9.1
  0
LINE
  5
B7C
330
A02
100
AcDbEntity
  8
Mesh_cs001
100
AcDbLine
 10
-269.731
 20
275.555
 30
9.1
 11
-270.159
 21
275.514
 31
9.1
  0
LINE
  5
B7D
330
A02
100
AcDbEntity
  8
Mesh_cs001
100
AcDbLine
 10
-270.159
 20
275.514
 30
9.1
 11
-270.594
 21
275.434
 31
9.1
  0
LINE
  5
B7E
330
A02
100
AcDbEntity
  8
Mesh_cs001
100
AcDbLine
 10
-270.594
 20
275.434
 30
9.1
 11
-270.608
 21
275.432
 31
9.1
  0
LINE
  5
B7F
330
A02
100
AcDbEntity
  8
Mesh_cs001
100
AcDbLine
 10
-270.608
 20
275.432
 30
9.1
 11
-271.02
 21
275.317
 31
9.1
  0
LINE
  5
B80
330
A02
100
AcDbEntity
  8
Mesh_cs001
100
AcDbLine
 10
-271.02
 20
275.317
 30
9.1
 11
-271.046
 21
275.308
 31
9.1
  0
LINE
  5
B81
330
A02
100
AcDbEntity
  8
Mesh_cs001
100
AcDbLine
 10
-271.046
 20
275.308
 30
9.1
 11
-271.445
 21
275.158
 31
9.1
  0
LINE
  5
B82
330
A02
100
AcDbEntity
  8
Mesh_cs001
100
AcDbLine
 10
-271.445
 20
275.158
 30
9.1
 11
-271.84
 21
274.967
 31
9.1
  0
LINE
  5
B83
330
A02
100
AcDbEntity
  8
Mesh_cs001
100
AcDbLine
 10
-271.84
 20
274.967
 30
9.1
 11
-272.138
 21
274.794
 31
9.1
  0
LINE
  5
B84
330
A02
100
AcDbEntity
  8
Mesh_cs001
100
AcDbLine
 10
-272.138
 20
274.794
 30
9.1
 11
-272.416
 21
274.607
 31
9.1
  0
LINE
  5
B85
330
A02
100
AcDbEntity
  8
Mesh_cs001
100
AcDbLine
 10
-466.063
 20
388.67
 30
9.1
 11
-466.217
 21
388.198
 31
9.1
  0
LINE
  5
B86
330
A02
100
AcDbEntity
  8
Mesh_cs001
100
AcDbLine
 10
-466.217
 20
388.198
 30
9.1
 11
-466.689
 21
388.351
 31
9.1
  0
LINE
  5
B87
330
A02
100
AcDbEntity
  8
Mesh_cs001
100
AcDbLine
 10
-466.689
 20
388.351
 30
9.1
 11
-480.387
 21
392.802
 31
9.1
  0
LINE
  5
B88
330
A02
100
AcDbEntity
  8
Mesh_cs001
100
AcDbLine
 10
-480.387
 20
392.802
 30
9.1
 11
-475.937
 21
406.501
 31
9.1
  0
LINE
  5
B89
330
A02
100
AcDbEntity
  8
Mesh_cs001
100
AcDbLine
 10
-475.937
 20
406.501
 30
9.1
 11
-475.783
 21
406.973
 31
9.1
  0
LINE
  5
B8A
330
A02
100
AcDbEntity
  8
Mesh_cs001
100
AcDbLine
 10
-475.783
 20
406.973
 30
9.1
 11
-475.311
 21
406.819
 31
9.1
  0
LINE
  5
B8B
330
A02
100
AcDbEntity
  8
Mesh_cs001
100
AcDbLine
 10
-475.311
 20
406.819
 30
9.1
 11
-461.612
 21
402.369
 31
9.1
  0
LINE
  5
B8C
330
A02
100
AcDbEntity
  8
Mesh_cs001
100
AcDbLine
 10
-461.612
 20
402.369
 30
9.1
 11
-466.063
 21
388.67
 31
9.1
  0
LINE
  5
B8D
330
A02
100
AcDbEntity
  8
Mesh_cs001
100
AcDbLine
 10
-270.583
 20
263.577
 30
9.1
 11
-262.117
 21
251.925
 31
9.1
  0
LINE
  5
B8E
330
A02
100
AcDbEntity
  8
Mesh_cs001
100
AcDbLine
 10
-262.117
 20
251.925
 30
9.1
 11
-261.825
 21
251.523
 31
9.1
  0
LINE
  5
B8F
330
A02
100
AcDbEntity
  8
Mesh_cs001
100
AcDbLine
 10
-261.825
 20
251.523
 30
9.1
 11
-262.227
 21
251.231
 31
9.1
  0
LINE
  5
B90
330
A02
100
AcDbEntity
  8
Mesh_cs001
100
AcDbLine
 10
-262.227
 20
251.231
 30
9.1
 11
-273.879
 21
242.765
 31
9.1
  0
LINE
  5
B91
330
A02
100
AcDbEntity
  8
Mesh_cs001
100
AcDbLine
 10
-273.879
 20
242.765
 30
9.1
 11
-282.345
 21
254.418
 31
9.1
  0
LINE
  5
B92
330
A02
100
AcDbEntity
  8
Mesh_cs001
100
AcDbLine
 10
-282.345
 20
254.418
 30
9.1
 11
-282.637
 21
254.819
 31
9.1
  0
LINE
  5
B93
330
A02
100
AcDbEntity
  8
Mesh_cs001
100
AcDbLine
 10
-282.637
 20
254.819
 30
9.1
 11
-282.235
 21
255.111
 31
9.1
  0
LINE
  5
B94
330
A02
100
AcDbEntity
  8
Mesh_cs001
100
AcDbLine
 10
-282.235
 20
255.111
 30
9.1
 11
-270.583
 21
263.577
 31
9.1
  0
ENDSEC
  0
SECTION
  2
OBJECTS
  0
DICTIONARY
  5
F000
330
0
100
AcDbDictionary
  3
ACAD_GROUP
350
F001
  0
DICTIONARY
  5
F001
330
F000
100
AcDbDictionary
  0
ENDSEC
  0
EOF