999
FreeCAD v0.21 33771 (Git)
  0
SECTION
  2
HEADER
  9
$ACADVER
  1
AC1014
  9
$ACADMAINTVER
 70
     9
  9
$DWGCODEPAGE
  3
ANSI_1252
  9
$TEXTSTYLE
  7
STANDARD
  9
$DIMSTYLE
  2
STANDARD
  9
$DIMTXSTY
  7
STANDARD
  9
$CMLSTYLE
  2
STANDARD
  9
$LUNITS
 70
2
  9
$INSUNITS
 70
4
  9
$PEXTMAX
 10
50
 20
50
 30
50
  9
$PEXTMIN
 10
0
 20
0
 30
0
  9
$HANDSEED
  5
FFFF
  0
ENDSEC
  0
SECTION
  2
CLASSES
  0
CLASS
  1
ACDBDICTIONARYWDFLT
  2
AcDbDictionaryWithDefault
  3
ObjectDBX Classes
 90
        0
280
     0
281
     0
  0
CLASS
  1
XRECORD
  2
AcDbXrecord
  3
ObjectDBX Classes
 90
        0
280
     0
281
     0
  0
CLASS
  1
LWPOLYLINE
  2
AcDbPolyline
  3
ObjectDBX Classes
 90
        0
280
     0
281
     1
  0
ENDSEC
  0
SECTION
  2
TABLES
  0
TABLE
  2
VPORT
  5
20
330
0
100
AcDbSymbolTable
 70
     1
  0
VPORT
  5
21
330
20
100
AcDbSymbolTableRecord
100
AcDbViewportTableRecord
  2
*ACTIVE
 70
     0
  0
ENDTAB
  0
TABLE
  2
LTYPE
  5
22
330
0
100
AcDbSymbolTable
 70
     1
  0
LTYPE
  5
23
330
21
100
AcDbSymbolTableRecord
100
AcDbLinetypeTableRecord
  2
BYBLOCK
 70
     0
  3

 72
    65
 73
     0
 40
0.0
  0
LTYPE
  5
24
330
21
100
AcDbSymbolTableRecord
100
AcDbLinetypeTableRecord
  2
BYLAYER
 70
     0
  3

 72
    65
 73
     0
 40
0.0
  0
LTYPE
  5
25
330
21
100
AcDbSymbolTableRecord
100
AcDbLinetypeTableRecord
  2
CONTINUOUS
 70
     0
  3
Solid line
 72
    65
 73
     0
 40
0.0
  0
ENDTAB
  0
TABLE
  2
LAYER
  5
C40
330
0
100
AcDbSymbolTable
 70
3
  0
LAYER
  5
C41
330
C40
100
AcDbSymbolTableRecord
100
AcDbLayerTableRecord
  2
0
 70
   0
 62
   7
  6
CONTINUOUS
  0
LAYER
  5
C42
330
C40
100
AcDbSymbolTableRecord
100
AcDbLayerTableRecord
  2
none
 70
    0
 62
    7
  6
CONTINUOUS
  0
LAYER
  5
C43
330
C40
100
AcDbSymbolTableRecord
100
AcDbLayerTableRecord
  2
Mesh_cs
 70
    0
 62
    7
  6
CONTINUOUS
  0
ENDTAB
  0
TABLE
  2
STYLE
  5
70
330
0
100
AcDbSymbolTable
 70
     2
  0
STYLE
  5
71
330
70
100
AcDbSymbolTableRecord
100
AcDbTextStyleTableRecord
  2
STANDARD
 70
     0
 40
0.0
 41
1.0
 50
0.0
 71
     0
 42
2.5
  3
arial.ttf
  4

  0
STYLE
  5
72
330
70
100
AcDbSymbolTableRecord
100
AcDbTextStyleTableRecord
  2
ANNOTATIVE
 70
     0
 40
0.0
 41
1.0
 50
0.0
 71
     0
 42
2.5
  3
arial.ttf
  4

  0
ENDTAB
  0
TABLE
  2
VIEW
  5
73
330
0
100
AcDbSymbolTable
 70
     0
  0
ENDTAB
  0
TABLE
  2
UCS
  5
74
330
0
100
AcDbSymbolTable
 70
     0
  0
ENDTAB
  0
TABLE
  2
APPID
  5
75
330
0
100
AcDbSymbolTable
 70
     2
  0
APPID
  5
76
330
75
100
AcDbSymbolTableRecord
100
AcDbRegAppTableRecord
  2
ACAD
 70
     0
  0
APPID
  5
77
330
75
100
AcDbSymbolTableRecord
100
AcDbRegAppTableRecord
  2
ACADANNOTATIVE
 70
     0
  0
ENDTAB
  0
TABLE
  2
DIMSTYLE
  5
78
330
0
100
AcDbSymbolTable
 70
     2
  0
DIMSTYLE
105
79
330
78
100
AcDbSymbolTableRecord
100
AcDbDimStyleTableRecord
  2
STANDARD
 70
     0
  3

  4

  5

  6

  7

 40
0.0
 41
2.5
 42
0.625
 43
3.75
 44
1.25
 45
0.0
 46
0.0
 47
0.0
 48
0.0
140
2.5
141
2.5
142
0.0
143
0.03937007874016
144
1.0
145
0.0
146
1.0
147
0.625
 71
     0
 72
     0
 73
     0
 74
     0
 75
     0
 76
     0
 77
     1
 78
     8
170
     0
171
     3
172
     1
173
     0
174
     0
175
     0
176
     0
177
     0
178
     0
270
     2
271
     2
272
     2
273
     2
274
     3
340
71
275
     0
280
     0
281
     0
282
     0
283
     0
284
     8
285
     0
286
     0
287
     3
288
     0
  0
ENDTAB
  0
TABLE
  2
BLOCK_RECORD
  5
A01
330
0
100
AcDbSymbolTable
  70
5
  0
BLOCK_RECORD
  5
A02
330
A01
100
AcDbSymbolTableRecord
100
AcDbBlockTableRecord
  2
*MODEL_SPACE
  0
BLOCK_RECORD
  5
A03
330
A01
100
AcDbSymbolTableRecord
100
AcDbBlockTableRecord
  2
*PAPER_SPACE
  0
ENDTAB
  0
ENDSEC
  0
SECTION
  2
BLOCKS
  0
BLOCK
  5
A04
330
A02
100
AcDbEntity
  8
0
100
AcDbBlockBegin
  2
*MODEL_SPACE
 70
   0
 10
0
 20
0
 30
0
  3
*MODEL_SPACE
  1
 
  0
ENDBLK
  5
A05
330
A02
100
AcDbEntity
  8
0
100
AcDbBlockEnd
  0
BLOCK
  5
A06
330
A03
100
AcDbEntity
 67
1
  8
0
100
AcDbBlockBegin
  2
*PAPER_SPACE
 70
   0
 10
0
 20
0
 30
0
  3
*PAPER_SPACE
  1
 
  0
ENDBLK
  5
A07
330
A03
100
AcDbEntity
 67
    1
  8
0
100
AcDbBlockEnd
  0
ENDSEC
  0
SECTION
  2
ENTITIES
  0
LINE
  5
A08
330
A02
100
AcDbEntity
  8
Mesh_cs
100
AcDbLine
 10
-253.067
 20
239.469
 30
11.9
 11
-253.469
 21
239.177
 31
11.9
  0
LINE
  5
A09
330
A02
100
AcDbEntity
  8
Mesh_cs
100
AcDbLine
 10
-253.469
 20
239.177
 30
11.9
 11
-265.121
 21
230.711
 31
11.9
  0
LINE
  5
A0A
330
A02
100
AcDbEntity
  8
Mesh_cs
100
AcDbLine
 10
-265.121
 20
230.711
 30
11.9
 11
-273.587
 21
242.363
 31
11.9
  0
LINE
  5
A0B
330
A02
100
AcDbEntity
  8
Mesh_cs
100
AcDbLine
 10
-273.587
 20
242.363
 30
11.9
 11
-273.879
 21
242.765
 31
11.9
  0
LINE
  5
A0C
330
A02
100
AcDbEntity
  8
Mesh_cs
100
AcDbLine
 10
-273.879
 20
242.765
 30
11.9
 11
-273.477
 21
243.057
 31
11.9
  0
LINE
  5
A0D
330
A02
100
AcDbEntity
  8
Mesh_cs
100
AcDbLine
 10
-273.477
 20
243.057
 30
11.9
 11
-261.825
 21
251.523
 31
11.9
  0
LINE
  5
A0E
330
A02
100
AcDbEntity
  8
Mesh_cs
100
AcDbLine
 10
-261.825
 20
251.523
 30
11.9
 11
-253.359
 21
239.871
 31
11.9
  0
LINE
  5
A0F
330
A02
100
AcDbEntity
  8
Mesh_cs
100
AcDbLine
 10
-253.359
 20
239.871
 30
11.9
 11
-253.067
 21
239.469
 31
11.9
  0
LINE
  5
A10
330
A02
100
AcDbEntity
  8
Mesh_cs
100
AcDbLine
 10
-258.29
 20
219.732
 30
11.9
 11
-258.29
 21
219.747
 31
11.9
  0
LINE
  5
A11
330
A02
100
AcDbEntity
  8
Mesh_cs
100
AcDbLine
 10
-258.29
 20
219.747
 30
11.9
 11
-258.296
 21
219.851
 31
11.9
  0
LINE
  5
A12
330
A02
100
AcDbEntity
  8
Mesh_cs
100
AcDbLine
 10
-258.296
 20
219.851
 30
11.9
 11
-258.303
 21
220.048
 31
11.9
  0
LINE
  5
A13
330
A02
100
AcDbEntity
  8
Mesh_cs
100
AcDbLine
 10
-258.303
 20
220.048
 30
11.9
 11
-258.32
 21
220.244
 31
11.9
  0
LINE
  5
A14
330
A02
100
AcDbEntity
  8
Mesh_cs
100
AcDbLine
 10
-258.32
 20
220.244
 30
11.9
 11
-258.327
 21
220.3
 31
11.9
  0
LINE
  5
A15
330
A02
100
AcDbEntity
  8
Mesh_cs
100
AcDbLine
 10
-258.327
 20
220.3
 30
11.9
 11
-258.378
 21
220.609
 31
11.9
  0
LINE
  5
A16
330
A02
100
AcDbEntity
  8
Mesh_cs
100
AcDbLine
 10
-258.378
 20
220.609
 30
11.9
 11
-258.402
 21
220.741
 31
11.9
  0
LINE
  5
A17
330
A02
100
AcDbEntity
  8
Mesh_cs
100
AcDbLine
 10
-258.402
 20
220.741
 30
11.9
 11
-258.469
 21
221
 31
11.9
  0
LINE
  5
A18
330
A02
100
AcDbEntity
  8
Mesh_cs
100
AcDbLine
 10
-258.469
 20
221
 30
11.9
 11
-258.517
 21
221.175
 31
11.9
  0
LINE
  5
A19
330
A02
100
AcDbEntity
  8
Mesh_cs
100
AcDbLine
 10
-258.517
 20
221.175
 30
11.9
 11
-258.607
 21
221.428
 31
11.9
  0
LINE
  5
A1A
330
A02
100
AcDbEntity
  8
Mesh_cs
100
AcDbLine
 10
-258.607
 20
221.428
 30
11.9
 11
-258.656
 21
221.564
 31
11.9
  0
LINE
  5
A1B
330
A02
100
AcDbEntity
  8
Mesh_cs
100
AcDbLine
 10
-258.656
 20
221.564
 30
11.9
 11
-258.668
 21
221.591
 31
11.9
  0
LINE
  5
A1C
330
A02
100
AcDbEntity
  8
Mesh_cs
100
AcDbLine
 10
-258.668
 20
221.591
 30
11.9
 11
-258.818
 21
221.921
 31
11.9
  0
LINE
  5
A1D
330
A02
100
AcDbEntity
  8
Mesh_cs
100
AcDbLine
 10
-258.818
 20
221.921
 30
11.9
 11
-258.831
 21
221.946
 31
11.9
  0
LINE
  5
A1E
330
A02
100
AcDbEntity
  8
Mesh_cs
100
AcDbLine
 10
-258.831
 20
221.946
 30
11.9
 11
-259.007
 21
222.263
 31
11.9
  0
LINE
  5
A1F
330
A02
100
AcDbEntity
  8
Mesh_cs
100
AcDbLine
 10
-259.007
 20
222.263
 30
11.9
 11
-259.02
 21
222.286
 31
11.9
  0
LINE
  5
A20
330
A02
100
AcDbEntity
  8
Mesh_cs
100
AcDbLine
 10
-259.02
 20
222.286
 30
11.9
 11
-259.221
 21
222.587
 31
11.9
  0
LINE
  5
A21
330
A02
100
AcDbEntity
  8
Mesh_cs
100
AcDbLine
 10
-259.221
 20
222.587
 30
11.9
 11
-259.228
 21
222.598
 31
11.9
  0
LINE
  5
A22
330
A02
100
AcDbEntity
  8
Mesh_cs
100
AcDbLine
 10
-259.228
 20
222.598
 30
11.9
 11
-259.243
 21
222.621
 31
11.9
  0
LINE
  5
A23
330
A02
100
AcDbEntity
  8
Mesh_cs
100
AcDbLine
 10
-259.243
 20
222.621
 30
11.9
 11
-243.681
 21
233.928
 31
11.9
  0
LINE
  5
A24
330
A02
100
AcDbEntity
  8
Mesh_cs
100
AcDbLine
 10
-243.681
 20
233.928
 30
11.9
 11
-243.144
 21
234.317
 31
11.9
  0
LINE
  5
A25
330
A02
100
AcDbEntity
  8
Mesh_cs
100
AcDbLine
 10
-243.144
 20
234.317
 30
11.9
 11
-243.135
 21
234.324
 31
11.9
  0
LINE
  5
A26
330
A02
100
AcDbEntity
  8
Mesh_cs
100
AcDbLine
 10
-243.135
 20
234.324
 30
11.9
 11
-242.83
 21
234.566
 31
11.9
  0
LINE
  5
A27
330
A02
100
AcDbEntity
  8
Mesh_cs
100
AcDbLine
 10
-242.83
 20
234.566
 30
11.9
 11
-242.821
 21
234.573
 31
11.9
  0
LINE
  5
A28
330
A02
100
AcDbEntity
  8
Mesh_cs
100
AcDbLine
 10
-242.821
 20
234.573
 30
11.9
 11
-242.536
 21
234.839
 31
11.9
  0
LINE
  5
A29
330
A02
100
AcDbEntity
  8
Mesh_cs
100
AcDbLine
 10
-242.536
 20
234.839
 30
11.9
 11
-242.526
 21
234.849
 31
11.9
  0
LINE
  5
A2A
330
A02
100
AcDbEntity
  8
Mesh_cs
100
AcDbLine
 10
-242.526
 20
234.849
 30
11.9
 11
-242.286
 21
235.11
 31
11.9
  0
LINE
  5
A2B
330
A02
100
AcDbEntity
  8
Mesh_cs
100
AcDbLine
 10
-242.286
 20
235.11
 30
11.9
 11
-242.277
 21
235.121
 31
11.9
  0
LINE
  5
A2C
330
A02
100
AcDbEntity
  8
Mesh_cs
100
AcDbLine
 10
-242.277
 20
235.121
 30
11.9
 11
-242.036
 21
235.427
 31
11.9
  0
LINE
  5
A2D
330
A02
100
AcDbEntity
  8
Mesh_cs
100
AcDbLine
 10
-242.036
 20
235.427
 30
11.9
 11
-241.82
 21
235.751
 31
11.9
  0
LINE
  5
A2E
330
A02
100
AcDbEntity
  8
Mesh_cs
100
AcDbLine
 10
-241.82
 20
235.751
 30
11.9
 11
-241.812
 21
235.763
 31
11.9
  0
LINE
  5
A2F
330
A02
100
AcDbEntity
  8
Mesh_cs
100
AcDbLine
 10
-241.812
 20
235.763
 30
11.9
 11
-241.623
 21
236.103
 31
11.9
  0
LINE
  5
A30
330
A02
100
AcDbEntity
  8
Mesh_cs
100
AcDbLine
 10
-241.623
 20
236.103
 30
11.9
 11
-241.616
 21
236.116
 31
11.9
  0
LINE
  5
A31
330
A02
100
AcDbEntity
  8
Mesh_cs
100
AcDbLine
 10
-241.616
 20
236.116
 30
11.9
 11
-241.455
 21
236.47
 31
11.9
  0
LINE
  5
A32
330
A02
100
AcDbEntity
  8
Mesh_cs
100
AcDbLine
 10
-241.455
 20
236.47
 30
11.9
 11
-241.449
 21
236.484
 31
11.9
  0
LINE
  5
A33
330
A02
100
AcDbEntity
  8
Mesh_cs
100
AcDbLine
 10
-241.449
 20
236.484
 30
11.9
 11
-241.317
 21
236.85
 31
11.9
  0
LINE
  5
A34
330
A02
100
AcDbEntity
  8
Mesh_cs
100
AcDbLine
 10
-241.317
 20
236.85
 30
11.9
 11
-241.313
 21
236.864
 31
11.9
  0
LINE
  5
A35
330
A02
100
AcDbEntity
  8
Mesh_cs
100
AcDbLine
 10
-241.313
 20
236.864
 30
11.9
 11
-241.211
 21
237.239
 31
11.9
  0
LINE
  5
A36
330
A02
100
AcDbEntity
  8
Mesh_cs
100
AcDbLine
 10
-241.211
 20
237.239
 30
11.9
 11
-241.207
 21
237.254
 31
11.9
  0
LINE
  5
A37
330
A02
100
AcDbEntity
  8
Mesh_cs
100
AcDbLine
 10
-241.207
 20
237.254
 30
11.9
 11
-241.13
 21
237.679
 31
11.9
  0
LINE
  5
A38
330
A02
100
AcDbEntity
  8
Mesh_cs
100
AcDbLine
 10
-241.13
 20
237.679
 30
11.9
 11
-241.128
 21
237.692
 31
11.9
  0
LINE
  5
A39
330
A02
100
AcDbEntity
  8
Mesh_cs
100
AcDbLine
 10
-241.128
 20
237.692
 30
11.9
 11
-241.089
 21
238.123
 31
11.9
  0
LINE
  5
A3A
330
A02
100
AcDbEntity
  8
Mesh_cs
100
AcDbLine
 10
-241.089
 20
238.123
 30
11.9
 11
-241.088
 21
238.136
 31
11.9
  0
LINE
  5
A3B
330
A02
100
AcDbEntity
  8
Mesh_cs
100
AcDbLine
 10
-241.088
 20
238.136
 30
11.9
 11
-241.087
 21
238.568
 31
11.9
  0
LINE
  5
A3C
330
A02
100
AcDbEntity
  8
Mesh_cs
100
AcDbLine
 10
-241.087
 20
238.568
 30
11.9
 11
-241.088
 21
238.582
 31
11.9
  0
LINE
  5
A3D
330
A02
100
AcDbEntity
  8
Mesh_cs
100
AcDbLine
 10
-241.088
 20
238.582
 30
11.9
 11
-241.126
 21
239.012
 31
11.9
  0
LINE
  5
A3E
330
A02
100
AcDbEntity
  8
Mesh_cs
100
AcDbLine
 10
-241.126
 20
239.012
 30
11.9
 11
-241.127
 21
239.026
 31
11.9
  0
LINE
  5
A3F
330
A02
100
AcDbEntity
  8
Mesh_cs
100
AcDbLine
 10
-241.127
 20
239.026
 30
11.9
 11
-241.129
 21
239.039
 31
11.9
  0
LINE
  5
A40
330
A02
100
AcDbEntity
  8
Mesh_cs
100
AcDbLine
 10
-241.129
 20
239.039
 30
11.9
 11
-241.206
 21
239.464
 31
11.9
  0
LINE
  5
A41
330
A02
100
AcDbEntity
  8
Mesh_cs
100
AcDbLine
 10
-241.206
 20
239.464
 30
11.9
 11
-241.209
 21
239.477
 31
11.9
  0
LINE
  5
A42
330
A02
100
AcDbEntity
  8
Mesh_cs
100
AcDbLine
 10
-241.209
 20
239.477
 30
11.9
 11
-241.323
 21
239.894
 31
11.9
  0
LINE
  5
A43
330
A02
100
AcDbEntity
  8
Mesh_cs
100
AcDbLine
 10
-241.323
 20
239.894
 30
11.9
 11
-241.328
 21
239.907
 31
11.9
  0
LINE
  5
A44
330
A02
100
AcDbEntity
  8
Mesh_cs
100
AcDbLine
 10
-241.328
 20
239.907
 30
11.9
 11
-241.478
 21
240.311
 31
11.9
  0
LINE
  5
A45
330
A02
100
AcDbEntity
  8
Mesh_cs
100
AcDbLine
 10
-241.478
 20
240.311
 30
11.9
 11
-241.484
 21
240.324
 31
11.9
  0
LINE
  5
A46
330
A02
100
AcDbEntity
  8
Mesh_cs
100
AcDbLine
 10
-241.484
 20
240.324
 30
11.9
 11
-241.67
 21
240.714
 31
11.9
  0
LINE
  5
A47
330
A02
100
AcDbEntity
  8
Mesh_cs
100
AcDbLine
 10
-241.67
 20
240.714
 30
11.9
 11
-241.677
 21
240.726
 31
11.9
  0
LINE
  5
A48
330
A02
100
AcDbEntity
  8
Mesh_cs
100
AcDbLine
 10
-241.677
 20
240.726
 30
11.9
 11
-241.844
 21
241.014
 31
11.9
  0
LINE
  5
A49
330
A02
100
AcDbEntity
  8
Mesh_cs
100
AcDbLine
 10
-241.844
 20
241.014
 30
11.9
 11
-241.851
 21
241.026
 31
11.9
  0
LINE
  5
A4A
330
A02
100
AcDbEntity
  8
Mesh_cs
100
AcDbLine
 10
-241.851
 20
241.026
 30
11.9
 11
-242.038
 21
241.301
 31
11.9
  0
LINE
  5
A4B
330
A02
100
AcDbEntity
  8
Mesh_cs
100
AcDbLine
 10
-242.038
 20
241.301
 30
11.9
 11
-253.345
 21
256.864
 31
11.9
  0
LINE
  5
A4C
330
A02
100
AcDbEntity
  8
Mesh_cs
100
AcDbLine
 10
-253.345
 20
256.864
 30
11.9
 11
-253.735
 21
257.401
 31
11.9
  0
LINE
  5
A4D
330
A02
100
AcDbEntity
  8
Mesh_cs
100
AcDbLine
 10
-253.735
 20
257.401
 30
11.9
 11
-249.277
 21
260.64
 31
11.9
  0
LINE
  5
A4E
330
A02
100
AcDbEntity
  8
Mesh_cs
100
AcDbLine
 10
-249.277
 20
260.64
 30
11.9
 11
-209.158
 21
289.788
 31
11.9
  0
LINE
  5
A4F
330
A02
100
AcDbEntity
  8
Mesh_cs
100
AcDbLine
 10
-209.158
 20
289.788
 30
11.9
 11
-207.054
 21
286.867
 31
11.9
  0
LINE
  5
A50
330
A02
100
AcDbEntity
  8
Mesh_cs
100
AcDbLine
 10
-207.054
 20
286.867
 30
11.9
 11
-206.82
 21
286.543
 31
11.9
  0
LINE
  5
A51
330
A02
100
AcDbEntity
  8
Mesh_cs
100
AcDbLine
 10
-206.82
 20
286.543
 30
11.9
 11
-204.738
 21
283.602
 31
11.9
  0
LINE
  5
A52
330
A02
100
AcDbEntity
  8
Mesh_cs
100
AcDbLine
 10
-204.738
 20
283.602
 30
11.9
 11
-204.506
 21
283.275
 31
11.9
  0
LINE
  5
A53
330
A02
100
AcDbEntity
  8
Mesh_cs
100
AcDbLine
 10
-204.506
 20
283.275
 30
11.9
 11
-202.45
 21
280.321
 31
11.9
  0
LINE
  5
A54
330
A02
100
AcDbEntity
  8
Mesh_cs
100
AcDbLine
 10
-202.45
 20
280.321
 30
11.9
 11
-202.222
 21
279.993
 31
11.9
  0
LINE
  5
A55
330
A02
100
AcDbEntity
  8
Mesh_cs
100
AcDbLine
 10
-202.222
 20
279.993
 30
11.9
 11
-200.19
 21
277.022
 31
11.9
  0
LINE
  5
A56
330
A02
100
AcDbEntity
  8
Mesh_cs
100
AcDbLine
 10
-200.19
 20
277.022
 30
11.9
 11
-199.964
 21
276.692
 31
11.9
  0
LINE
  5
A57
330
A02
100
AcDbEntity
  8
Mesh_cs
100
AcDbLine
 10
-199.964
 20
276.692
 30
11.9
 11
-197.956
 21
273.705
 31
11.9
  0
LINE
  5
A58
330
A02
100
AcDbEntity
  8
Mesh_cs
100
AcDbLine
 10
-197.956
 20
273.705
 30
11.9
 11
-197.733
 21
273.373
 31
11.9
  0
LINE
  5
A59
330
A02
100
AcDbEntity
  8
Mesh_cs
100
AcDbLine
 10
-197.733
 20
273.373
 30
11.9
 11
-195.75
 21
270.37
 31
11.9
  0
LINE
  5
A5A
330
A02
100
AcDbEntity
  8
Mesh_cs
100
AcDbLine
 10
-195.75
 20
270.37
 30
11.9
 11
-195.529
 21
270.036
 31
11.9
  0
LINE
  5
A5B
330
A02
100
AcDbEntity
  8
Mesh_cs
100
AcDbLine
 10
-195.529
 20
270.036
 30
11.9
 11
-193.57
 21
267.017
 31
11.9
  0
LINE
  5
A5C
330
A02
100
AcDbEntity
  8
Mesh_cs
100
AcDbLine
 10
-193.57
 20
267.017
 30
11.9
 11
-193.353
 21
266.682
 31
11.9
  0
LINE
  5
A5D
330
A02
100
AcDbEntity
  8
Mesh_cs
100
AcDbLine
 10
-193.353
 20
266.682
 30
11.9
 11
-191.418
 21
263.647
 31
11.9
  0
LINE
  5
A5E
330
A02
100
AcDbEntity
  8
Mesh_cs
100
AcDbLine
 10
-191.418
 20
263.647
 30
11.9
 11
-191.203
 21
263.31
 31
11.9
  0
LINE
  5
A5F
330
A02
100
AcDbEntity
  8
Mesh_cs
100
AcDbLine
 10
-191.203
 20
263.31
 30
11.9
 11
-189.293
 21
260.259
 31
11.9
  0
LINE
  5
A60
330
A02
100
AcDbEntity
  8
Mesh_cs
100
AcDbLine
 10
-189.293
 20
260.259
 30
11.9
 11
-189.081
 21
259.92
 31
11.9
  0
LINE
  5
A61
330
A02
100
AcDbEntity
  8
Mesh_cs
100
AcDbLine
 10
-189.081
 20
259.92
 30
11.9
 11
-187.196
 21
256.855
 31
11.9
  0
LINE
  5
A62
330
A02
100
AcDbEntity
  8
Mesh_cs
100
AcDbLine
 10
-187.196
 20
256.855
 30
11.9
 11
-186.987
 21
256.514
 31
11.9
  0
LINE
  5
A63
330
A02
100
AcDbEntity
  8
Mesh_cs
100
AcDbLine
 10
-186.987
 20
256.514
 30
11.9
 11
-185.127
 21
253.433
 31
11.9
  0
LINE
  5
A64
330
A02
100
AcDbEntity
  8
Mesh_cs
100
AcDbLine
 10
-185.127
 20
253.433
 30
11.9
 11
-184.92
 21
253.091
 31
11.9
  0
LINE
  5
A65
330
A02
100
AcDbEntity
  8
Mesh_cs
100
AcDbLine
 10
-184.92
 20
253.091
 30
11.9
 11
-183.086
 21
249.995
 31
11.9
  0
LINE
  5
A66
330
A02
100
AcDbEntity
  8
Mesh_cs
100
AcDbLine
 10
-183.086
 20
249.995
 30
11.9
 11
-182.882
 21
249.651
 31
11.9
  0
LINE
  5
A67
330
A02
100
AcDbEntity
  8
Mesh_cs
100
AcDbLine
 10
-182.882
 20
249.651
 30
11.9
 11
-181.072
 21
246.541
 31
11.9
  0
LINE
  5
A68
330
A02
100
AcDbEntity
  8
Mesh_cs
100
AcDbLine
 10
-181.072
 20
246.541
 30
11.9
 11
-180.871
 21
246.195
 31
11.9
  0
LINE
  5
A69
330
A02
100
AcDbEntity
  8
Mesh_cs
100
AcDbLine
 10
-180.871
 20
246.195
 30
11.9
 11
-180.673
 21
245.848
 31
11.9
  0
LINE
  5
A6A
330
A02
100
AcDbEntity
  8
Mesh_cs
100
AcDbLine
 10
-180.673
 20
245.848
 30
11.9
 11
-178.888
 21
242.723
 31
11.9
  0
LINE
  5
A6B
330
A02
100
AcDbEntity
  8
Mesh_cs
100
AcDbLine
 10
-178.888
 20
242.723
 30
11.9
 11
-177.129
 21
239.583
 31
11.9
  0
LINE
  5
A6C
330
A02
100
AcDbEntity
  8
Mesh_cs
100
AcDbLine
 10
-177.129
 20
239.583
 30
11.9
 11
-176.934
 21
239.235
 31
11.9
  0
LINE
  5
A6D
330
A02
100
AcDbEntity
  8
Mesh_cs
100
AcDbLine
 10
-176.934
 20
239.235
 30
11.9
 11
-175.201
 21
236.081
 31
11.9
  0
LINE
  5
A6E
330
A02
100
AcDbEntity
  8
Mesh_cs
100
AcDbLine
 10
-175.201
 20
236.081
 30
11.9
 11
-175.008
 21
235.731
 31
11.9
  0
LINE
  5
A6F
330
A02
100
AcDbEntity
  8
Mesh_cs
100
AcDbLine
 10
-175.008
 20
235.731
 30
11.9
 11
-173.3
 21
232.564
 31
11.9
  0
LINE
  5
A70
330
A02
100
AcDbEntity
  8
Mesh_cs
100
AcDbLine
 10
-173.3
 20
232.564
 30
11.9
 11
-173.111
 21
232.212
 31
11.9
  0
LINE
  5
A71
330
A02
100
AcDbEntity
  8
Mesh_cs
100
AcDbLine
 10
-173.111
 20
232.212
 30
11.9
 11
-171.429
 21
229.031
 31
11.9
  0
LINE
  5
A72
330
A02
100
AcDbEntity
  8
Mesh_cs
100
AcDbLine
 10
-171.429
 20
229.031
 30
11.9
 11
-171.242
 21
228.677
 31
11.9
  0
LINE
  5
A73
330
A02
100
AcDbEntity
  8
Mesh_cs
100
AcDbLine
 10
-171.242
 20
228.677
 30
11.9
 11
-171.058
 21
228.322
 31
11.9
  0
LINE
  5
A74
330
A02
100
AcDbEntity
  8
Mesh_cs
100
AcDbLine
 10
-171.058
 20
228.322
 30
11.9
 11
-169.402
 21
225.128
 31
11.9
  0
LINE
  5
A75
330
A02
100
AcDbEntity
  8
Mesh_cs
100
AcDbLine
 10
-169.402
 20
225.128
 30
11.9
 11
-169.221
 21
224.771
 31
11.9
  0
LINE
  5
A76
330
A02
100
AcDbEntity
  8
Mesh_cs
100
AcDbLine
 10
-169.221
 20
224.771
 30
11.9
 11
-167.591
 21
221.563
 31
11.9
  0
LINE
  5
A77
330
A02
100
AcDbEntity
  8
Mesh_cs
100
AcDbLine
 10
-167.591
 20
221.563
 30
11.9
 11
-167.412
 21
221.206
 31
11.9
  0
LINE
  5
A78
330
A02
100
AcDbEntity
  8
Mesh_cs
100
AcDbLine
 10
-167.412
 20
221.206
 30
11.9
 11
-165.808
 21
217.985
 31
11.9
  0
LINE
  5
A79
330
A02
100
AcDbEntity
  8
Mesh_cs
100
AcDbLine
 10
-165.808
 20
217.985
 30
11.9
 11
-164.231
 21
214.751
 31
11.9
  0
LINE
  5
A7A
330
A02
100
AcDbEntity
  8
Mesh_cs
100
AcDbLine
 10
-164.231
 20
214.751
 30
11.9
 11
-164.055
 21
214.392
 31
11.9
  0
LINE
  5
A7B
330
A02
100
AcDbEntity
  8
Mesh_cs
100
AcDbLine
 10
-164.055
 20
214.392
 30
11.9
 11
-162.504
 21
211.145
 31
11.9
  0
LINE
  5
A7C
330
A02
100
AcDbEntity
  8
Mesh_cs
100
AcDbLine
 10
-162.504
 20
211.145
 30
11.9
 11
-162.332
 21
210.785
 31
11.9
  0
LINE
  5
A7D
330
A02
100
AcDbEntity
  8
Mesh_cs
100
AcDbLine
 10
-162.332
 20
210.785
 30
11.9
 11
-162.162
 21
210.423
 31
11.9
  0
LINE
  5
A7E
330
A02
100
AcDbEntity
  8
Mesh_cs
100
AcDbLine
 10
-162.162
 20
210.423
 30
11.9
 11
-160.637
 21
207.164
 31
11.9
  0
LINE
  5
A7F
330
A02
100
AcDbEntity
  8
Mesh_cs
100
AcDbLine
 10
-160.637
 20
207.164
 30
11.9
 11
-159.138
 21
203.893
 31
11.9
  0
LINE
  5
A80
330
A02
100
AcDbEntity
  8
Mesh_cs
100
AcDbLine
 10
-159.138
 20
203.893
 30
11.9
 11
-158.972
 21
203.53
 31
11.9
  0
LINE
  5
A81
330
A02
100
AcDbEntity
  8
Mesh_cs
100
AcDbLine
 10
-158.972
 20
203.53
 30
11.9
 11
-157.5
 21
200.247
 31
11.9
  0
LINE
  5
A82
330
A02
100
AcDbEntity
  8
Mesh_cs
100
AcDbLine
 10
-157.5
 20
200.247
 30
11.9
 11
-157.336
 21
199.882
 31
11.9
  0
LINE
  5
A83
330
A02
100
AcDbEntity
  8
Mesh_cs
100
AcDbLine
 10
-157.336
 20
199.882
 30
11.9
 11
-155.891
 21
196.587
 31
11.9
  0
LINE
  5
A84
330
A02
100
AcDbEntity
  8
Mesh_cs
100
AcDbLine
 10
-155.891
 20
196.587
 30
11.9
 11
-155.731
 21
196.221
 31
11.9
  0
LINE
  5
A85
330
A02
100
AcDbEntity
  8
Mesh_cs
100
AcDbLine
 10
-155.731
 20
196.221
 30
11.9
 11
-154.312
 21
192.915
 31
11.9
  0
LINE
  5
A86
330
A02
100
AcDbEntity
  8
Mesh_cs
100
AcDbLine
 10
-154.312
 20
192.915
 30
11.9
 11
-154.154
 21
192.547
 31
11.9
  0
LINE
  5
A87
330
A02
100
AcDbEntity
  8
Mesh_cs
100
AcDbLine
 10
-154.154
 20
192.547
 30
11.9
 11
-152.763
 21
189.23
 31
11.9
  0
LINE
  5
A88
330
A02
100
AcDbEntity
  8
Mesh_cs
100
AcDbLine
 10
-152.763
 20
189.23
 30
11.9
 11
-152.608
 21
188.861
 31
11.9
  0
LINE
  5
A89
330
A02
100
AcDbEntity
  8
Mesh_cs
100
AcDbLine
 10
-152.608
 20
188.861
 30
11.9
 11
-152.457
 21
188.491
 31
11.9
  0
LINE
  5
A8A
330
A02
100
AcDbEntity
  8
Mesh_cs
100
AcDbLine
 10
-152.457
 20
188.491
 30
11.9
 11
-151.092
 21
185.163
 31
11.9
  0
LINE
  5
A8B
330
A02
100
AcDbEntity
  8
Mesh_cs
100
AcDbLine
 10
-151.092
 20
185.163
 30
11.9
 11
-149.754
 21
181.823
 31
11.9
  0
LINE
  5
A8C
330
A02
100
AcDbEntity
  8
Mesh_cs
100
AcDbLine
 10
-149.754
 20
181.823
 30
11.9
 11
-149.606
 21
181.452
 31
11.9
  0
LINE
  5
A8D
330
A02
100
AcDbEntity
  8
Mesh_cs
100
AcDbLine
 10
-149.606
 20
181.452
 30
11.9
 11
-148.295
 21
178.102
 31
11.9
  0
LINE
  5
A8E
330
A02
100
AcDbEntity
  8
Mesh_cs
100
AcDbLine
 10
-148.295
 20
178.102
 30
11.9
 11
-148.15
 21
177.729
 31
11.9
  0
LINE
  5
A8F
330
A02
100
AcDbEntity
  8
Mesh_cs
100
AcDbLine
 10
-148.15
 20
177.729
 30
11.9
 11
-146.866
 21
174.369
 31
11.9
  0
LINE
  5
A90
330
A02
100
AcDbEntity
  8
Mesh_cs
100
AcDbLine
 10
-146.866
 20
174.369
 30
11.9
 11
-146.724
 21
173.995
 31
11.9
  0
LINE
  5
A91
330
A02
100
AcDbEntity
  8
Mesh_cs
100
AcDbLine
 10
-146.724
 20
173.995
 30
11.9
 11
-145.468
 21
170.624
 31
11.9
  0
LINE
  5
A92
330
A02
100
AcDbEntity
  8
Mesh_cs
100
AcDbLine
 10
-145.468
 20
170.624
 30
11.9
 11
-145.328
 21
170.25
 31
11.9
  0
LINE
  5
A93
330
A02
100
AcDbEntity
  8
Mesh_cs
100
AcDbLine
 10
-145.328
 20
170.25
 30
11.9
 11
-144.1
 21
166.869
 31
11.9
  0
LINE
  5
A94
330
A02
100
AcDbEntity
  8
Mesh_cs
100
AcDbLine
 10
-144.1
 20
166.869
 30
11.9
 11
-143.963
 21
166.493
 31
11.9
  0
LINE
  5
A95
330
A02
100
AcDbEntity
  8
Mesh_cs
100
AcDbLine
 10
-143.963
 20
166.493
 30
11.9
 11
-143.83
 21
166.116
 31
11.9
  0
LINE
  5
A96
330
A02
100
AcDbEntity
  8
Mesh_cs
100
AcDbLine
 10
-143.83
 20
166.116
 30
11.9
 11
-142.629
 21
162.725
 31
11.9
  0
LINE
  5
A97
330
A02
100
AcDbEntity
  8
Mesh_cs
100
AcDbLine
 10
-142.629
 20
162.725
 30
11.9
 11
-141.455
 21
159.325
 31
11.9
  0
LINE
  5
A98
330
A02
100
AcDbEntity
  8
Mesh_cs
100
AcDbLine
 10
-141.455
 20
159.325
 30
11.9
 11
-141.325
 21
158.947
 31
11.9
  0
LINE
  5
A99
330
A02
100
AcDbEntity
  8
Mesh_cs
100
AcDbLine
 10
-141.325
 20
158.947
 30
11.9
 11
-140.179
 21
155.538
 31
11.9
  0
LINE
  5
A9A
330
A02
100
AcDbEntity
  8
Mesh_cs
100
AcDbLine
 10
-140.179
 20
155.538
 30
11.9
 11
-140.052
 21
155.159
 31
11.9
  0
LINE
  5
A9B
330
A02
100
AcDbEntity
  8
Mesh_cs
100
AcDbLine
 10
-140.052
 20
155.159
 30
11.9
 11
-138.933
 21
151.74
 31
11.9
  0
LINE
  5
A9C
330
A02
100
AcDbEntity
  8
Mesh_cs
100
AcDbLine
 10
-138.933
 20
151.74
 30
11.9
 11
-138.809
 21
151.36
 31
11.9
  0
LINE
  5
A9D
330
A02
100
AcDbEntity
  8
Mesh_cs
100
AcDbLine
 10
-138.809
 20
151.36
 30
11.9
 11
-137.599
 21
147.551
 31
11.9
  0
LINE
  5
A9E
330
A02
100
AcDbEntity
  8
Mesh_cs
100
AcDbLine
 10
-137.599
 20
147.551
 30
11.9
 11
-137.465
 21
147.128
 31
11.9
  0
LINE
  5
A9F
330
A02
100
AcDbEntity
  8
Mesh_cs
100
AcDbLine
 10
-137.465
 20
147.128
 30
11.9
 11
-136.289
 21
143.308
 31
11.9
  0
LINE
  5
AA0
330
A02
100
AcDbEntity
  8
Mesh_cs
100
AcDbLine
 10
-136.289
 20
143.308
 30
11.9
 11
-136.159
 21
142.883
 31
11.9
  0
LINE
  5
AA1
330
A02
100
AcDbEntity
  8
Mesh_cs
100
AcDbLine
 10
-136.159
 20
142.883
 30
11.9
 11
-135.018
 21
139.053
 31
11.9
  0
LINE
  5
AA2
330
A02
100
AcDbEntity
  8
Mesh_cs
100
AcDbLine
 10
-135.018
 20
139.053
 30
11.9
 11
-134.891
 21
138.628
 31
11.9
  0
LINE
  5
AA3
330
A02
100
AcDbEntity
  8
Mesh_cs
100
AcDbLine
 10
-134.891
 20
138.628
 30
11.9
 11
-133.785
 21
134.787
 31
11.9
  0
LINE
  5
AA4
330
A02
100
AcDbEntity
  8
Mesh_cs
100
AcDbLine
 10
-133.785
 20
134.787
 30
11.9
 11
-133.662
 21
134.361
 31
11.9
  0
LINE
  5
AA5
330
A02
100
AcDbEntity
  8
Mesh_cs
100
AcDbLine
 10
-133.662
 20
134.361
 30
11.9
 11
-133.543
 21
133.933
 31
11.9
  0
LINE
  5
AA6
330
A02
100
AcDbEntity
  8
Mesh_cs
100
AcDbLine
 10
-133.543
 20
133.933
 30
11.9
 11
-132.471
 21
130.083
 31
11.9
  0
LINE
  5
AA7
330
A02
100
AcDbEntity
  8
Mesh_cs
100
AcDbLine
 10
-132.471
 20
130.083
 30
11.9
 11
-131.434
 21
126.224
 31
11.9
  0
LINE
  5
AA8
330
A02
100
AcDbEntity
  8
Mesh_cs
100
AcDbLine
 10
-131.434
 20
126.224
 30
11.9
 11
-131.319
 21
125.795
 31
11.9
  0
LINE
  5
AA9
330
A02
100
AcDbEntity
  8
Mesh_cs
100
AcDbLine
 10
-131.319
 20
125.795
 30
11.9
 11
-130.316
 21
121.926
 31
11.9
  0
LINE
  5
AAA
330
A02
100
AcDbEntity
  8
Mesh_cs
100
AcDbLine
 10
-130.316
 20
121.926
 30
11.9
 11
-130.205
 21
121.497
 31
11.9
  0
LINE
  5
AAB
330
A02
100
AcDbEntity
  8
Mesh_cs
100
AcDbLine
 10
-130.205
 20
121.497
 30
11.9
 11
-129.238
 21
117.619
 31
11.9
  0
LINE
  5
AAC
330
A02
100
AcDbEntity
  8
Mesh_cs
100
AcDbLine
 10
-129.238
 20
117.619
 30
11.9
 11
-129.13
 21
117.189
 31
11.9
  0
LINE
  5
AAD
330
A02
100
AcDbEntity
  8
Mesh_cs
100
AcDbLine
 10
-129.13
 20
117.189
 30
11.9
 11
-128.198
 21
113.303
 31
11.9
  0
LINE
  5
AAE
330
A02
100
AcDbEntity
  8
Mesh_cs
100
AcDbLine
 10
-128.198
 20
113.303
 30
11.9
 11
-128.094
 21
112.871
 31
11.9
  0
LINE
  5
AAF
330
A02
100
AcDbEntity
  8
Mesh_cs
100
AcDbLine
 10
-128.094
 20
112.871
 30
11.9
 11
-127.197
 21
108.977
 31
11.9
  0
LINE
  5
AB0
330
A02
100
AcDbEntity
  8
Mesh_cs
100
AcDbLine
 10
-127.197
 20
108.977
 30
11.9
 11
-127.097
 21
108.545
 31
11.9
  0
LINE
  5
AB1
330
A02
100
AcDbEntity
  8
Mesh_cs
100
AcDbLine
 10
-127.097
 20
108.545
 30
11.9
 11
-127.001
 21
108.111
 31
11.9
  0
LINE
  5
AB2
330
A02
100
AcDbEntity
  8
Mesh_cs
100
AcDbLine
 10
-127.001
 20
108.111
 30
11.9
 11
-126.139
 21
104.209
 31
11.9
  0
LINE
  5
AB3
330
A02
100
AcDbEntity
  8
Mesh_cs
100
AcDbLine
 10
-126.139
 20
104.209
 30
11.9
 11
-125.312
 21
100.3
 31
11.9
  0
LINE
  5
AB4
330
A02
100
AcDbEntity
  8
Mesh_cs
100
AcDbLine
 10
-125.312
 20
100.3
 30
11.9
 11
-125.22
 21
99.8657
 31
11.9
  0
LINE
  5
AB5
330
A02
100
AcDbEntity
  8
Mesh_cs
100
AcDbLine
 10
-125.22
 20
99.8657
 30
11.9
 11
-124.429
 21
95.9492
 31
11.9
  0
LINE
  5
AB6
330
A02
100
AcDbEntity
  8
Mesh_cs
100
AcDbLine
 10
-124.429
 20
95.9492
 30
11.9
 11
-124.341
 21
95.5141
 31
11.9
  0
LINE
  5
AB7
330
A02
100
AcDbEntity
  8
Mesh_cs
100
AcDbLine
 10
-124.341
 20
95.5141
 30
11.9
 11
-124.257
 21
95.0781
 31
11.9
  0
LINE
  5
AB8
330
A02
100
AcDbEntity
  8
Mesh_cs
100
AcDbLine
 10
-124.257
 20
95.0781
 30
11.9
 11
-123.5
 21
91.1548
 31
11.9
  0
LINE
  5
AB9
330
A02
100
AcDbEntity
  8
Mesh_cs
100
AcDbLine
 10
-123.5
 20
91.1548
 30
11.9
 11
-122.779
 21
87.2249
 31
11.9
  0
LINE
  5
ABA
330
A02
100
AcDbEntity
  8
Mesh_cs
100
AcDbLine
 10
-122.779
 20
87.2249
 30
11.9
 11
-122.699
 21
86.7882
 31
11.9
  0
LINE
  5
ABB
330
A02
100
AcDbEntity
  8
Mesh_cs
100
AcDbLine
 10
-122.699
 20
86.7882
 30
11.9
 11
-122.013
 21
82.8521
 31
11.9
  0
LINE
  5
ABC
330
A02
100
AcDbEntity
  8
Mesh_cs
100
AcDbLine
 10
-122.013
 20
82.8521
 30
11.9
 11
-121.937
 21
82.4147
 31
11.9
  0
LINE
  5
ABD
330
A02
100
AcDbEntity
  8
Mesh_cs
100
AcDbLine
 10
-121.937
 20
82.4147
 30
11.9
 11
-121.287
 21
78.4726
 31
11.9
  0
LINE
  5
ABE
330
A02
100
AcDbEntity
  8
Mesh_cs
100
AcDbLine
 10
-121.287
 20
78.4726
 30
11.9
 11
-121.215
 21
78.0346
 31
11.9
  0
LINE
  5
ABF
330
A02
100
AcDbEntity
  8
Mesh_cs
100
AcDbLine
 10
-121.215
 20
78.0346
 30
11.9
 11
-120.6
 21
74.0869
 31
11.9
  0
LINE
  5
AC0
330
A02
100
AcDbEntity
  8
Mesh_cs
100
AcDbLine
 10
-120.6
 20
74.0869
 30
11.9
 11
-120.532
 21
73.6482
 31
11.9
  0
LINE
  5
AC1
330
A02
100
AcDbEntity
  8
Mesh_cs
100
AcDbLine
 10
-120.532
 20
73.6482
 30
11.9
 11
-119.953
 21
69.6952
 31
11.9
  0
LINE
  5
AC2
330
A02
100
AcDbEntity
  8
Mesh_cs
100
AcDbLine
 10
-119.953
 20
69.6952
 30
11.9
 11
-119.889
 21
69.256
 31
11.9
  0
LINE
  5
AC3
330
A02
100
AcDbEntity
  8
Mesh_cs
100
AcDbLine
 10
-119.889
 20
69.256
 30
11.9
 11
-119.828
 21
68.8162
 31
11.9
  0
LINE
  5
AC4
330
A02
100
AcDbEntity
  8
Mesh_cs
100
AcDbLine
 10
-119.828
 20
68.8162
 30
11.9
 11
-119.285
 21
64.8582
 31
11.9
  0
LINE
  5
AC5
330
A02
100
AcDbEntity
  8
Mesh_cs
100
AcDbLine
 10
-119.285
 20
64.8582
 30
11.9
 11
-118.777
 21
60.8956
 31
11.9
  0
LINE
  5
AC6
330
A02
100
AcDbEntity
  8
Mesh_cs
100
AcDbLine
 10
-118.777
 20
60.8956
 30
11.9
 11
-118.721
 21
60.4553
 31
11.9
  0
LINE
  5
AC7
330
A02
100
AcDbEntity
  8
Mesh_cs
100
AcDbLine
 10
-118.721
 20
60.4553
 30
11.9
 11
-118.668
 21
60.0145
 31
11.9
  0
LINE
  5
AC8
330
A02
100
AcDbEntity
  8
Mesh_cs
100
AcDbLine
 10
-118.668
 20
60.0145
 30
11.9
 11
-118.196
 21
56.0476
 31
11.9
  0
LINE
  5
AC9
330
A02
100
AcDbEntity
  8
Mesh_cs
100
AcDbLine
 10
-118.196
 20
56.0476
 30
11.9
 11
-117.76
 21
52.0766
 31
11.9
  0
LINE
  5
ACA
330
A02
100
AcDbEntity
  8
Mesh_cs
100
AcDbLine
 10
-117.76
 20
52.0766
 30
11.9
 11
-117.711
 21
51.6354
 31
11.9
  0
LINE
  5
ACB
330
A02
100
AcDbEntity
  8
Mesh_cs
100
AcDbLine
 10
-117.711
 20
51.6354
 30
11.9
 11
-117.311
 21
47.6607
 31
11.9
  0
LINE
  5
ACC
330
A02
100
AcDbEntity
  8
Mesh_cs
100
AcDbLine
 10
-117.311
 20
47.6607
 30
11.9
 11
-117.266
 21
47.2191
 31
11.9
  0
LINE
  5
ACD
330
A02
100
AcDbEntity
  8
Mesh_cs
100
AcDbLine
 10
-117.266
 20
47.2191
 30
11.9
 11
-116.902
 21
43.2411
 31
11.9
  0
LINE
  5
ACE
330
A02
100
AcDbEntity
  8
Mesh_cs
100
AcDbLine
 10
-116.902
 20
43.2411
 30
11.9
 11
-116.861
 21
42.7991
 31
11.9
  0
LINE
  5
ACF
330
A02
100
AcDbEntity
  8
Mesh_cs
100
AcDbLine
 10
-116.861
 20
42.7991
 30
11.9
 11
-116.825
 21
42.3567
 31
11.9
  0
LINE
  5
AD0
330
A02
100
AcDbEntity
  8
Mesh_cs
100
AcDbLine
 10
-116.825
 20
42.3567
 30
11.9
 11
-116.496
 21
38.3757
 31
11.9
  0
LINE
  5
AD1
330
A02
100
AcDbEntity
  8
Mesh_cs
100
AcDbLine
 10
-116.496
 20
38.3757
 30
11.9
 11
-116.203
 21
34.3919
 31
11.9
  0
LINE
  5
AD2
330
A02
100
AcDbEntity
  8
Mesh_cs
100
AcDbLine
 10
-116.203
 20
34.3919
 30
11.9
 11
-116.17
 21
33.9492
 31
11.9
  0
LINE
  5
AD3
330
A02
100
AcDbEntity
  8
Mesh_cs
100
AcDbLine
 10
-116.17
 20
33.9492
 30
11.9
 11
-115.913
 21
29.9631
 31
11.9
  0
LINE
  5
AD4
330
A02
100
AcDbEntity
  8
Mesh_cs
100
AcDbLine
 10
-115.913
 20
29.9631
 30
11.9
 11
-115.885
 21
29.5201
 31
11.9
  0
LINE
  5
AD5
330
A02
100
AcDbEntity
  8
Mesh_cs
100
AcDbLine
 10
-115.885
 20
29.5201
 30
11.9
 11
-115.86
 21
29.077
 31
11.9
  0
LINE
  5
AD6
330
A02
100
AcDbEntity
  8
Mesh_cs
100
AcDbLine
 10
-115.86
 20
29.077
 30
11.9
 11
-115.639
 21
25.0888
 31
11.9
  0
LINE
  5
AD7
330
A02
100
AcDbEntity
  8
Mesh_cs
100
AcDbLine
 10
-115.639
 20
25.0888
 30
11.9
 11
-115.453
 21
21.0988
 31
11.9
  0
LINE
  5
AD8
330
A02
100
AcDbEntity
  8
Mesh_cs
100
AcDbLine
 10
-115.453
 20
21.0988
 30
11.9
 11
-115.433
 21
20.6554
 31
11.9
  0
LINE
  5
AD9
330
A02
100
AcDbEntity
  8
Mesh_cs
100
AcDbLine
 10
-115.433
 20
20.6554
 30
11.9
 11
-115.284
 21
16.664
 31
11.9
  0
LINE
  5
ADA
330
A02
100
AcDbEntity
  8
Mesh_cs
100
AcDbLine
 10
-115.284
 20
16.664
 30
11.9
 11
-115.267
 21
16.2205
 31
11.9
  0
LINE
  5
ADB
330
A02
100
AcDbEntity
  8
Mesh_cs
100
AcDbLine
 10
-115.267
 20
16.2205
 30
11.9
 11
-115.254
 21
15.7769
 31
11.9
  0
LINE
  5
ADC
330
A02
100
AcDbEntity
  8
Mesh_cs
100
AcDbLine
 10
-115.254
 20
15.7769
 30
11.9
 11
-115.141
 21
11.7844
 31
11.9
  0
LINE
  5
ADD
330
A02
100
AcDbEntity
  8
Mesh_cs
100
AcDbLine
 10
-115.141
 20
11.7844
 30
11.9
 11
-115.063
 21
7.7911
 31
11.9
  0
LINE
  5
ADE
330
A02
100
AcDbEntity
  8
Mesh_cs
100
AcDbLine
 10
-115.063
 20
7.7911
 30
11.9
 11
-115.055
 21
7.3474
 31
11.9
  0
LINE
  5
ADF
330
A02
100
AcDbEntity
  8
Mesh_cs
100
AcDbLine
 10
-115.055
 20
7.3474
 30
11.9
 11
-115.051
 21
6.97983
 31
11.9
  0
LINE
  5
AE0
330
A02
100
AcDbEntity
  8
Mesh_cs
100
AcDbLine
 10
-115.051
 20
6.97983
 30
11.9
 11
-115.014
 21
3.67169
 31
11.9
  0
LINE
  5
AE1
330
A02
100
AcDbEntity
  8
Mesh_cs
100
AcDbLine
 10
-115.014
 20
3.67169
 30
11.9
 11
-115.001
 21
0.36717
 31
11.9
  0
LINE
  5
AE2
330
A02
100
AcDbEntity
  8
Mesh_cs
100
AcDbLine
 10
-115.001
 20
0.36717
 30
11.9
 11
-115
 21
6.00076e-14
 31
11.9
  0
LINE
  5
AE3
330
A02
100
AcDbEntity
  8
Mesh_cs
100
AcDbLine
 10
-115
 20
6e-14
 30
11.9
 11
-164.59
 21
5.19e-14
 31
11.9
  0
LINE
  5
AE4
330
A02
100
AcDbEntity
  8
Mesh_cs
100
AcDbLine
 10
-164.59
 20
5.19e-14
 30
11.9
 11
-170.1
 21
5.08333e-14
 31
11.9
  0
LINE
  5
AE5
330
A02
100
AcDbEntity
  8
Mesh_cs
100
AcDbLine
 10
-170.1
 20
5.08333e-14
 30
11.9
 11
-170.1
 21
0.663337
 31
11.9
  0
LINE
  5
AE6
330
A02
100
AcDbEntity
  8
Mesh_cs
100
AcDbLine
 10
-170.1
 20
0.663337
 30
11.9
 11
-170.1
 21
19.9
 31
11.9
  0
LINE
  5
AE7
330
A02
100
AcDbEntity
  8
Mesh_cs
100
AcDbLine
 10
-170.1
 20
19.9
 30
11.9
 11
-170.111
 21
20.2327
 31
11.9
  0
LINE
  5
AE8
330
A02
100
AcDbEntity
  8
Mesh_cs
100
AcDbLine
 10
-170.111
 20
20.2327
 30
11.9
 11
-170.112
 21
20.2463
 31
11.9
  0
LINE
  5
AE9
330
A02
100
AcDbEntity
  8
Mesh_cs
100
AcDbLine
 10
-170.112
 20
20.2463
 30
11.9
 11
-170.146
 21
20.5778
 31
11.9
  0
LINE
  5
AEA
330
A02
100
AcDbEntity
  8
Mesh_cs
100
AcDbLine
 10
-170.146
 20
20.5778
 30
11.9
 11
-170.148
 21
20.5917
 31
11.9
  0
LINE
  5
AEB
330
A02
100
AcDbEntity
  8
Mesh_cs
100
AcDbLine
 10
-170.148
 20
20.5917
 30
11.9
 11
-170.227
 21
21.0165
 31
11.9
  0
LINE
  5
AEC
330
A02
100
AcDbEntity
  8
Mesh_cs
100
AcDbLine
 10
-170.227
 20
21.0165
 30
11.9
 11
-170.229
 21
21.0298
 31
11.9
  0
LINE
  5
AED
330
A02
100
AcDbEntity
  8
Mesh_cs
100
AcDbLine
 10
-170.229
 20
21.0298
 30
11.9
 11
-170.345
 21
21.4459
 31
11.9
  0
LINE
  5
AEE
330
A02
100
AcDbEntity
  8
Mesh_cs
100
AcDbLine
 10
-170.345
 20
21.4459
 30
11.9
 11
-170.349
 21
21.4589
 31
11.9
  0
LINE
  5
AEF
330
A02
100
AcDbEntity
  8
Mesh_cs
100
AcDbLine
 10
-170.349
 20
21.4589
 30
11.9
 11
-170.502
 21
21.863
 31
11.9
  0
LINE
  5
AF0
330
A02
100
AcDbEntity
  8
Mesh_cs
100
AcDbLine
 10
-170.502
 20
21.863
 30
11.9
 11
-170.507
 21
21.8756
 31
11.9
  0
LINE
  5
AF1
330
A02
100
AcDbEntity
  8
Mesh_cs
100
AcDbLine
 10
-170.507
 20
21.8756
 30
11.9
 11
-170.695
 21
22.2645
 31
11.9
  0
LINE
  5
AF2
330
A02
100
AcDbEntity
  8
Mesh_cs
100
AcDbLine
 10
-170.695
 20
22.2645
 30
11.9
 11
-170.701
 21
22.2767
 31
11.9
  0
LINE
  5
AF3
330
A02
100
AcDbEntity
  8
Mesh_cs
100
AcDbLine
 10
-170.701
 20
22.2767
 30
11.9
 11
-170.708
 21
22.2883
 31
11.9
  0
LINE
  5
AF4
330
A02
100
AcDbEntity
  8
Mesh_cs
100
AcDbLine
 10
-170.708
 20
22.2883
 30
11.9
 11
-170.93
 21
22.6588
 31
11.9
  0
LINE
  5
AF5
330
A02
100
AcDbEntity
  8
Mesh_cs
100
AcDbLine
 10
-170.93
 20
22.6588
 30
11.9
 11
-170.938
 21
22.6698
 31
11.9
  0
LINE
  5
AF6
330
A02
100
AcDbEntity
  8
Mesh_cs
100
AcDbLine
 10
-170.938
 20
22.6698
 30
11.9
 11
-171.192
 21
23.0191
 31
11.9
  0
LINE
  5
AF7
330
A02
100
AcDbEntity
  8
Mesh_cs
100
AcDbLine
 10
-171.192
 20
23.0191
 30
11.9
 11
-171.201
 21
23.0294
 31
11.9
  0
LINE
  5
AF8
330
A02
100
AcDbEntity
  8
Mesh_cs
100
AcDbLine
 10
-171.201
 20
23.0294
 30
11.9
 11
-171.485
 21
23.3546
 31
11.9
  0
LINE
  5
AF9
330
A02
100
AcDbEntity
  8
Mesh_cs
100
AcDbLine
 10
-171.485
 20
23.3546
 30
11.9
 11
-171.495
 21
23.3642
 31
11.9
  0
LINE
  5
AFA
330
A02
100
AcDbEntity
  8
Mesh_cs
100
AcDbLine
 10
-171.495
 20
23.3642
 30
11.9
 11
-171.807
 21
23.6627
 31
11.9
  0
LINE
  5
AFB
330
A02
100
AcDbEntity
  8
Mesh_cs
100
AcDbLine
 10
-171.807
 20
23.6627
 30
11.9
 11
-171.819
 21
23.6724
 31
11.9
  0
LINE
  5
AFC
330
A02
100
AcDbEntity
  8
Mesh_cs
100
AcDbLine
 10
-171.819
 20
23.6724
 30
11.9
 11
-172.122
 21
23.9162
 31
11.9
  0
LINE
  5
AFD
330
A02
100
AcDbEntity
  8
Mesh_cs
100
AcDbLine
 10
-172.122
 20
23.9162
 30
11.9
 11
-172.134
 21
23.9248
 31
11.9
  0
LINE
  5
AFE
330
A02
100
AcDbEntity
  8
Mesh_cs
100
AcDbLine
 10
-172.134
 20
23.9248
 30
11.9
 11
-172.456
 21
24.1435
 31
11.9
  0
LINE
  5
AFF
330
A02
100
AcDbEntity
  8
Mesh_cs
100
AcDbLine
 10
-172.456
 20
24.1435
 30
11.9
 11
-172.468
 21
24.151
 31
11.9
  0
LINE
  5
B00
330
A02
100
AcDbEntity
  8
Mesh_cs
100
AcDbLine
 10
-172.468
 20
24.151
 30
11.9
 11
-172.807
 21
24.3431
 31
11.9
  0
LINE
  5
B01
330
A02
100
AcDbEntity
  8
Mesh_cs
100
AcDbLine
 10
-172.807
 20
24.3431
 30
11.9
 11
-172.82
 21
24.3494
 31
11.9
  0
LINE
  5
B02
330
A02
100
AcDbEntity
  8
Mesh_cs
100
AcDbLine
 10
-172.82
 20
24.3494
 30
11.9
 11
-173.173
 21
24.5137
 31
11.9
  0
LINE
  5
B03
330
A02
100
AcDbEntity
  8
Mesh_cs
100
AcDbLine
 10
-173.173
 20
24.5137
 30
11.9
 11
-173.187
 21
24.5188
 31
11.9
  0
LINE
  5
B04
330
A02
100
AcDbEntity
  8
Mesh_cs
100
AcDbLine
 10
-173.187
 20
24.5188
 30
11.9
 11
-173.551
 21
24.6542
 31
11.9
  0
LINE
  5
B05
330
A02
100
AcDbEntity
  8
Mesh_cs
100
AcDbLine
 10
-173.551
 20
24.6542
 30
11.9
 11
-173.926
 21
24.7597
 31
11.9
  0
LINE
  5
B06
330
A02
100
AcDbEntity
  8
Mesh_cs
100
AcDbLine
 10
-173.926
 20
24.7597
 30
11.9
 11
-173.94
 21
24.7636
 31
11.9
  0
LINE
  5
B07
330
A02
100
AcDbEntity
  8
Mesh_cs
100
AcDbLine
 10
-173.94
 20
24.7636
 30
11.9
 11
-174.287
 21
24.8332
 31
11.9
  0
LINE
  5
B08
330
A02
100
AcDbEntity
  8
Mesh_cs
100
AcDbLine
 10
-174.287
 20
24.8332
 30
11.9
 11
-174.302
 21
24.8358
 31
11.9
  0
LINE
  5
B09
330
A02
100
AcDbEntity
  8
Mesh_cs
100
AcDbLine
 10
-174.302
 20
24.8358
 30
11.9
 11
-174.689
 21
24.8828
 31
11.9
  0
LINE
  5
B0A
330
A02
100
AcDbEntity
  8
Mesh_cs
100
AcDbLine
 10
-174.689
 20
24.8828
 30
11.9
 11
-174.7
 21
24.884
 31
11.9
  0
LINE
  5
B0B
330
A02
100
AcDbEntity
  8
Mesh_cs
100
AcDbLine
 10
-174.7
 20
24.884
 30
11.9
 11
-175.089
 21
24.8996
 31
11.9
  0
LINE
  5
B0C
330
A02
100
AcDbEntity
  8
Mesh_cs
100
AcDbLine
 10
-175.089
 20
24.8996
 30
11.9
 11
-175.1
 21
24.9
 31
11.9
  0
LINE
  5
B0D
330
A02
100
AcDbEntity
  8
Mesh_cs
100
AcDbLine
 10
-175.1
 20
24.9
 30
11.9
 11
-175.763
 21
24.9
 31
11.9
  0
LINE
  5
B0E
330
A02
100
AcDbEntity
  8
Mesh_cs
100
AcDbLine
 10
-175.763
 20
24.9
 30
11.9
 11
-195
 21
24.9
 31
11.9
  0
LINE
  5
B0F
330
A02
100
AcDbEntity
  8
Mesh_cs
100
AcDbLine
 10
-195
 20
24.9
 30
11.9
 11
-195.001
 21
24.927
 31
11.9
  0
LINE
  5
B10
330
A02
100
AcDbEntity
  8
Mesh_cs
100
AcDbLine
 10
-195.001
 20
24.927
 30
11.9
 11
-195.002
 21
24.9404
 31
11.9
  0
LINE
  5
B11
330
A02
100
AcDbEntity
  8
Mesh_cs
100
AcDbLine
 10
-195.002
 20
24.9404
 30
11.9
 11
-195.016
 21
25.3044
 31
11.9
  0
LINE
  5
B12
330
A02
100
AcDbEntity
  8
Mesh_cs
100
AcDbLine
 10
-195.016
 20
25.3044
 30
11.9
 11
-195.019
 21
25.3312
 31
11.9
  0
LINE
  5
B13
330
A02
100
AcDbEntity
  8
Mesh_cs
100
AcDbLine
 10
-195.019
 20
25.3312
 30
11.9
 11
-195.064
 21
25.6961
 31
11.9
  0
LINE
  5
B14
330
A02
100
AcDbEntity
  8
Mesh_cs
100
AcDbLine
 10
-195.064
 20
25.6961
 30
11.9
 11
-195.068
 21
25.7226
 31
11.9
  0
LINE
  5
B15
330
A02
100
AcDbEntity
  8
Mesh_cs
100
AcDbLine
 10
-195.068
 20
25.7226
 30
11.9
 11
-195.141
 21
26.0781
 31
11.9
  0
LINE
  5
B16
330
A02
100
AcDbEntity
  8
Mesh_cs
100
AcDbLine
 10
-195.141
 20
26.0781
 30
11.9
 11
-195.148
 21
26.1057
 31
11.9
  0
LINE
  5
B17
330
A02
100
AcDbEntity
  8
Mesh_cs
100
AcDbLine
 10
-195.148
 20
26.1057
 30
11.9
 11
-195.156
 21
26.1345
 31
11.9
  0
LINE
  5
B18
330
A02
100
AcDbEntity
  8
Mesh_cs
100
AcDbLine
 10
-195.156
 20
26.1345
 30
11.9
 11
-195.257
 21
26.4824
 31
11.9
  0
LINE
  5
B19
330
A02
100
AcDbEntity
  8
Mesh_cs
100
AcDbLine
 10
-195.257
 20
26.4824
 30
11.9
 11
-195.265
 21
26.5062
 31
11.9
  0
LINE
  5
B1A
330
A02
100
AcDbEntity
  8
Mesh_cs
100
AcDbLine
 10
-195.265
 20
26.5062
 30
11.9
 11
-195.41
 21
26.8811
 31
11.9
  0
LINE
  5
B1B
330
A02
100
AcDbEntity
  8
Mesh_cs
100
AcDbLine
 10
-195.41
 20
26.8811
 30
11.9
 11
-195.45
 21
26.9678
 31
11.9
  0
LINE
  5
B1C
330
A02
100
AcDbEntity
  8
Mesh_cs
100
AcDbLine
 10
-195.45
 20
26.9678
 30
11.9
 11
-195.469
 21
27.0078
 31
11.9
  0
LINE
  5
B1D
330
A02
100
AcDbEntity
  8
Mesh_cs
100
AcDbLine
 10
-195.469
 20
27.0078
 30
11.9
 11
-195.607
 21
27.2877
 31
11.9
  0
LINE
  5
B1E
330
A02
100
AcDbEntity
  8
Mesh_cs
100
AcDbLine
 10
-195.607
 20
27.2877
 30
11.9
 11
-195.636
 21
27.3405
 31
11.9
  0
LINE
  5
B1F
330
A02
100
AcDbEntity
  8
Mesh_cs
100
AcDbLine
 10
-195.636
 20
27.3405
 30
11.9
 11
-195.743
 21
27.5219
 31
11.9
  0
LINE
  5
B20
330
A02
100
AcDbEntity
  8
Mesh_cs
100
AcDbLine
 10
-195.743
 20
27.5219
 30
11.9
 11
-195.86
 21
27.6954
 31
11.9
  0
LINE
  5
B21
330
A02
100
AcDbEntity
  8
Mesh_cs
100
AcDbLine
 10
-195.86
 20
27.6954
 30
11.9
 11
-195.914
 21
27.7785
 31
11.9
  0
LINE
  5
B22
330
A02
100
AcDbEntity
  8
Mesh_cs
100
AcDbLine
 10
-195.914
 20
27.7785
 30
11.9
 11
-195.926
 21
27.7979
 31
11.9
  0
LINE
  5
B23
330
A02
100
AcDbEntity
  8
Mesh_cs
100
AcDbLine
 10
-195.926
 20
27.7979
 30
11.9
 11
-195.935
 21
27.8106
 31
11.9
  0
LINE
  5
B24
330
A02
100
AcDbEntity
  8
Mesh_cs
100
AcDbLine
 10
-195.935
 20
27.8106
 30
11.9
 11
-196.221
 21
31.7274
 31
11.9
  0
LINE
  5
B25
330
A02
100
AcDbEntity
  8
Mesh_cs
100
AcDbLine
 10
-196.221
 20
31.7274
 30
11.9
 11
-196.223
 21
31.7603
 31
11.9
  0
LINE
  5
B26
330
A02
100
AcDbEntity
  8
Mesh_cs
100
AcDbLine
 10
-196.223
 20
31.7603
 30
11.9
 11
-196.544
 21
35.6742
 31
11.9
  0
LINE
  5
B27
330
A02
100
AcDbEntity
  8
Mesh_cs
100
AcDbLine
 10
-196.544
 20
35.6742
 30
11.9
 11
-196.546
 21
35.7071
 31
11.9
  0
LINE
  5
B28
330
A02
100
AcDbEntity
  8
Mesh_cs
100
AcDbLine
 10
-196.546
 20
35.7071
 30
11.9
 11
-196.914
 21
39.7188
 31
11.9
  0
LINE
  5
B29
330
A02
100
AcDbEntity
  8
Mesh_cs
100
AcDbLine
 10
-196.914
 20
39.7188
 30
11.9
 11
-196.918
 21
39.7525
 31
11.9
  0
LINE
  5
B2A
330
A02
100
AcDbEntity
  8
Mesh_cs
100
AcDbLine
 10
-196.918
 20
39.7525
 30
11.9
 11
-197.325
 21
43.7604
 31
11.9
  0
LINE
  5
B2B
330
A02
100
AcDbEntity
  8
Mesh_cs
100
AcDbLine
 10
-197.325
 20
43.7604
 30
11.9
 11
-197.328
 21
43.7941
 31
11.9
  0
LINE
  5
B2C
330
A02
100
AcDbEntity
  8
Mesh_cs
100
AcDbLine
 10
-197.328
 20
43.7941
 30
11.9
 11
-197.775
 21
47.7979
 31
11.9
  0
LINE
  5
B2D
330
A02
100
AcDbEntity
  8
Mesh_cs
100
AcDbLine
 10
-197.775
 20
47.7979
 30
11.9
 11
-197.779
 21
47.8315
 31
11.9
  0
LINE
  5
B2E
330
A02
100
AcDbEntity
  8
Mesh_cs
100
AcDbLine
 10
-197.779
 20
47.8315
 30
11.9
 11
-197.783
 21
47.8651
 31
11.9
  0
LINE
  5
B2F
330
A02
100
AcDbEntity
  8
Mesh_cs
100
AcDbLine
 10
-197.783
 20
47.8651
 30
11.9
 11
-198.269
 21
51.8645
 31
11.9
  0
LINE
  5
B30
330
A02
100
AcDbEntity
  8
Mesh_cs
100
AcDbLine
 10
-198.269
 20
51.8645
 30
11.9
 11
-198.795
 21
55.8589
 31
11.9
  0
LINE
  5
B31
330
A02
100
AcDbEntity
  8
Mesh_cs
100
AcDbLine
 10
-198.795
 20
55.8589
 30
11.9
 11
-198.799
 21
55.8925
 31
11.9
  0
LINE
  5
B32
330
A02
100
AcDbEntity
  8
Mesh_cs
100
AcDbLine
 10
-198.799
 20
55.8925
 30
11.9
 11
-198.804
 21
55.926
 31
11.9
  0
LINE
  5
B33
330
A02
100
AcDbEntity
  8
Mesh_cs
100
AcDbLine
 10
-198.804
 20
55.926
 30
11.9
 11
-199.369
 21
59.9152
 31
11.9
  0
LINE
  5
B34
330
A02
100
AcDbEntity
  8
Mesh_cs
100
AcDbLine
 10
-199.369
 20
59.9152
 30
11.9
 11
-199.973
 21
63.8987
 31
11.9
  0
LINE
  5
B35
330
A02
100
AcDbEntity
  8
Mesh_cs
100
AcDbLine
 10
-199.973
 20
63.8987
 30
11.9
 11
-199.978
 21
63.9322
 31
11.9
  0
LINE
  5
B36
330
A02
100
AcDbEntity
  8
Mesh_cs
100
AcDbLine
 10
-199.978
 20
63.9322
 30
11.9
 11
-199.984
 21
63.9656
 31
11.9
  0
LINE
  5
B37
330
A02
100
AcDbEntity
  8
Mesh_cs
100
AcDbLine
 10
-199.984
 20
63.9656
 30
11.9
 11
-200.627
 21
67.9431
 31
11.9
  0
LINE
  5
B38
330
A02
100
AcDbEntity
  8
Mesh_cs
100
AcDbLine
 10
-200.627
 20
67.9431
 30
11.9
 11
-201.309
 21
71.9141
 31
11.9
  0
LINE
  5
B39
330
A02
100
AcDbEntity
  8
Mesh_cs
100
AcDbLine
 10
-201.309
 20
71.9141
 30
11.9
 11
-201.315
 21
71.9475
 31
11.9
  0
LINE
  5
B3A
330
A02
100
AcDbEntity
  8
Mesh_cs
100
AcDbLine
 10
-201.315
 20
71.9475
 30
11.9
 11
-202.036
 21
75.9117
 31
11.9
  0
LINE
  5
B3B
330
A02
100
AcDbEntity
  8
Mesh_cs
100
AcDbLine
 10
-202.036
 20
75.9117
 30
11.9
 11
-202.042
 21
75.9451
 31
11.9
  0
LINE
  5
B3C
330
A02
100
AcDbEntity
  8
Mesh_cs
100
AcDbLine
 10
-202.042
 20
75.9451
 30
11.9
 11
-202.049
 21
75.9783
 31
11.9
  0
LINE
  5
B3D
330
A02
100
AcDbEntity
  8
Mesh_cs
100
AcDbLine
 10
-202.049
 20
75.9783
 30
11.9
 11
-202.809
 21
79.9354
 31
11.9
  0
LINE
  5
B3E
330
A02
100
AcDbEntity
  8
Mesh_cs
100
AcDbLine
 10
-202.809
 20
79.9354
 30
11.9
 11
-203.609
 21
83.8848
 31
11.9
  0
LINE
  5
B3F
330
A02
100
AcDbEntity
  8
Mesh_cs
100
AcDbLine
 10
-203.609
 20
83.8848
 30
11.9
 11
-203.615
 21
83.918
 31
11.9
  0
LINE
  5
B40
330
A02
100
AcDbEntity
  8
Mesh_cs
100
AcDbLine
 10
-203.615
 20
83.918
 30
11.9
 11
-204.453
 21
87.8596
 31
11.9
  0
LINE
  5
B41
330
A02
100
AcDbEntity
  8
Mesh_cs
100
AcDbLine
 10
-204.453
 20
87.8596
 30
11.9
 11
-204.46
 21
87.8927
 31
11.9
  0
LINE
  5
B42
330
A02
100
AcDbEntity
  8
Mesh_cs
100
AcDbLine
 10
-204.46
 20
87.8927
 30
11.9
 11
-205.337
 21
91.8259
 31
11.9
  0
LINE
  5
B43
330
A02
100
AcDbEntity
  8
Mesh_cs
100
AcDbLine
 10
-205.337
 20
91.8259
 30
11.9
 11
-205.345
 21
91.8589
 31
11.9
  0
LINE
  5
B44
330
A02
100
AcDbEntity
  8
Mesh_cs
100
AcDbLine
 10
-205.345
 20
91.8589
 30
11.9
 11
-205.352
 21
91.8919
 31
11.9
  0
LINE
  5
B45
330
A02
100
AcDbEntity
  8
Mesh_cs
100
AcDbLine
 10
-205.352
 20
91.8919
 30
11.9
 11
-206.268
 21
95.8163
 31
11.9
  0
LINE
  5
B46
330
A02
100
AcDbEntity
  8
Mesh_cs
100
AcDbLine
 10
-206.268
 20
95.8163
 30
11.9
 11
-207.222
 21
99.7317
 31
11.9
  0
LINE
  5
B47
330
A02
100
AcDbEntity
  8
Mesh_cs
100
AcDbLine
 10
-207.222
 20
99.7317
 30
11.9
 11
-207.23
 21
99.7646
 31
11.9
  0
LINE
  5
B48
330
A02
100
AcDbEntity
  8
Mesh_cs
100
AcDbLine
 10
-207.23
 20
99.7646
 30
11.9
 11
-208.223
 21
103.67
 31
11.9
  0
LINE
  5
B49
330
A02
100
AcDbEntity
  8
Mesh_cs
100
AcDbLine
 10
-208.223
 20
103.67
 30
11.9
 11
-208.231
 21
103.703
 31
11.9
  0
LINE
  5
B4A
330
A02
100
AcDbEntity
  8
Mesh_cs
100
AcDbLine
 10
-208.231
 20
103.703
 30
11.9
 11
-208.24
 21
103.736
 31
11.9
  0
LINE
  5
B4B
330
A02
100
AcDbEntity
  8
Mesh_cs
100
AcDbLine
 10
-208.24
 20
103.736
 30
11.9
 11
-209.271
 21
107.632
 31
11.9
  0
LINE
  5
B4C
330
A02
100
AcDbEntity
  8
Mesh_cs
100
AcDbLine
 10
-209.271
 20
107.632
 30
11.9
 11
-210.34
 21
111.518
 31
11.9
  0
LINE
  5
B4D
330
A02
100
AcDbEntity
  8
Mesh_cs
100
AcDbLine
 10
-210.34
 20
111.518
 30
11.9
 11
-210.349
 21
111.55
 31
11.9
  0
LINE
  5
B4E
330
A02
100
AcDbEntity
  8
Mesh_cs
100
AcDbLine
 10
-210.349
 20
111.55
 30
11.9
 11
-211.457
 21
115.426
 31
11.9
  0
LINE
  5
B4F
330
A02
100
AcDbEntity
  8
Mesh_cs
100
AcDbLine
 10
-211.457
 20
115.426
 30
11.9
 11
-211.466
 21
115.458
 31
11.9
  0
LINE
  5
B50
330
A02
100
AcDbEntity
  8
Mesh_cs
100
AcDbLine
 10
-211.466
 20
115.458
 30
11.9
 11
-212.612
 21
119.322
 31
11.9
  0
LINE
  5
B51
330
A02
100
AcDbEntity
  8
Mesh_cs
100
AcDbLine
 10
-212.612
 20
119.322
 30
11.9
 11
-212.622
 21
119.355
 31
11.9
  0
LINE
  5
B52
330
A02
100
AcDbEntity
  8
Mesh_cs
100
AcDbLine
 10
-212.622
 20
119.355
 30
11.9
 11
-213.805
 21
123.208
 31
11.9
  0
LINE
  5
B53
330
A02
100
AcDbEntity
  8
Mesh_cs
100
AcDbLine
 10
-213.805
 20
123.208
 30
11.9
 11
-213.815
 21
123.24
 31
11.9
  0
LINE
  5
B54
330
A02
100
AcDbEntity
  8
Mesh_cs
100
AcDbLine
 10
-213.815
 20
123.24
 30
11.9
 11
-215.037
 21
127.081
 31
11.9
  0
LINE
  5
B55
330
A02
100
AcDbEntity
  8
Mesh_cs
100
AcDbLine
 10
-215.037
 20
127.081
 30
11.9
 11
-215.047
 21
127.113
 31
11.9
  0
LINE
  5
B56
330
A02
100
AcDbEntity
  8
Mesh_cs
100
AcDbLine
 10
-215.047
 20
127.113
 30
11.9
 11
-216.179
 21
130.56
 31
11.9
  0
LINE
  5
B57
330
A02
100
AcDbEntity
  8
Mesh_cs
100
AcDbLine
 10
-216.179
 20
130.56
 30
11.9
 11
-216.188
 21
130.589
 31
11.9
  0
LINE
  5
B58
330
A02
100
AcDbEntity
  8
Mesh_cs
100
AcDbLine
 10
-216.188
 20
130.589
 30
11.9
 11
-216.198
 21
130.618
 31
11.9
  0
LINE
  5
B59
330
A02
100
AcDbEntity
  8
Mesh_cs
100
AcDbLine
 10
-216.198
 20
130.618
 30
11.9
 11
-217.361
 21
134.054
 31
11.9
  0
LINE
  5
B5A
330
A02
100
AcDbEntity
  8
Mesh_cs
100
AcDbLine
 10
-217.361
 20
134.054
 30
11.9
 11
-218.553
 21
137.48
 31
11.9
  0
LINE
  5
B5B
330
A02
100
AcDbEntity
  8
Mesh_cs
100
AcDbLine
 10
-218.553
 20
137.48
 30
11.9
 11
-218.563
 21
137.509
 31
11.9
  0
LINE
  5
B5C
330
A02
100
AcDbEntity
  8
Mesh_cs
100
AcDbLine
 10
-218.563
 20
137.509
 30
11.9
 11
-219.786
 21
140.925
 31
11.9
  0
LINE
  5
B5D
330
A02
100
AcDbEntity
  8
Mesh_cs
100
AcDbLine
 10
-219.786
 20
140.925
 30
11.9
 11
-219.796
 21
140.953
 31
11.9
  0
LINE
  5
B5E
330
A02
100
AcDbEntity
  8
Mesh_cs
100
AcDbLine
 10
-219.796
 20
140.953
 30
11.9
 11
-221.05
 21
144.358
 31
11.9
  0
LINE
  5
B5F
330
A02
100
AcDbEntity
  8
Mesh_cs
100
AcDbLine
 10
-221.05
 20
144.358
 30
11.9
 11
-221.06
 21
144.387
 31
11.9
  0
LINE
  5
B60
330
A02
100
AcDbEntity
  8
Mesh_cs
100
AcDbLine
 10
-221.06
 20
144.387
 30
11.9
 11
-222.344
 21
147.78
 31
11.9
  0
LINE
  5
B61
330
A02
100
AcDbEntity
  8
Mesh_cs
100
AcDbLine
 10
-222.344
 20
147.78
 30
11.9
 11
-222.354
 21
147.809
 31
11.9
  0
LINE
  5
B62
330
A02
100
AcDbEntity
  8
Mesh_cs
100
AcDbLine
 10
-222.354
 20
147.809
 30
11.9
 11
-223.668
 21
151.191
 31
11.9
  0
LINE
  5
B63
330
A02
100
AcDbEntity
  8
Mesh_cs
100
AcDbLine
 10
-223.668
 20
151.191
 30
11.9
 11
-223.679
 21
151.219
 31
11.9
  0
LINE
  5
B64
330
A02
100
AcDbEntity
  8
Mesh_cs
100
AcDbLine
 10
-223.679
 20
151.219
 30
11.9
 11
-225.022
 21
154.589
 31
11.9
  0
LINE
  5
B65
330
A02
100
AcDbEntity
  8
Mesh_cs
100
AcDbLine
 10
-225.022
 20
154.589
 30
11.9
 11
-225.033
 21
154.618
 31
11.9
  0
LINE
  5
B66
330
A02
100
AcDbEntity
  8
Mesh_cs
100
AcDbLine
 10
-225.033
 20
154.618
 30
11.9
 11
-226.407
 21
157.976
 31
11.9
  0
LINE
  5
B67
330
A02
100
AcDbEntity
  8
Mesh_cs
100
AcDbLine
 10
-226.407
 20
157.976
 30
11.9
 11
-226.418
 21
158.004
 31
11.9
  0
LINE
  5
B68
330
A02
100
AcDbEntity
  8
Mesh_cs
100
AcDbLine
 10
-226.418
 20
158.004
 30
11.9
 11
-227.821
 21
161.35
 31
11.9
  0
LINE
  5
B69
330
A02
100
AcDbEntity
  8
Mesh_cs
100
AcDbLine
 10
-227.821
 20
161.35
 30
11.9
 11
-227.833
 21
161.378
 31
11.9
  0
LINE
  5
B6A
330
A02
100
AcDbEntity
  8
Mesh_cs
100
AcDbLine
 10
-227.833
 20
161.378
 30
11.9
 11
-229.265
 21
164.712
 31
11.9
  0
LINE
  5
B6B
330
A02
100
AcDbEntity
  8
Mesh_cs
100
AcDbLine
 10
-229.265
 20
164.712
 30
11.9
 11
-229.277
 21
164.74
 31
11.9
  0
LINE
  5
B6C
330
A02
100
AcDbEntity
  8
Mesh_cs
100
AcDbLine
 10
-229.277
 20
164.74
 30
11.9
 11
-230.739
 21
168.061
 31
11.9
  0
LINE
  5
B6D
330
A02
100
AcDbEntity
  8
Mesh_cs
100
AcDbLine
 10
-230.739
 20
168.061
 30
11.9
 11
-230.752
 21
168.089
 31
11.9
  0
LINE
  5
B6E
330
A02
100
AcDbEntity
  8
Mesh_cs
100
AcDbLine
 10
-230.752
 20
168.089
 30
11.9
 11
-230.764
 21
168.117
 31
11.9
  0
LINE
  5
B6F
330
A02
100
AcDbEntity
  8
Mesh_cs
100
AcDbLine
 10
-230.764
 20
168.117
 30
11.9
 11
-232.255
 21
171.424
 31
11.9
  0
LINE
  5
B70
330
A02
100
AcDbEntity
  8
Mesh_cs
100
AcDbLine
 10
-232.255
 20
171.424
 30
11.9
 11
-233.776
 21
174.719
 31
11.9
  0
LINE
  5
B71
330
A02
100
AcDbEntity
  8
Mesh_cs
100
AcDbLine
 10
-233.776
 20
174.719
 30
11.9
 11
-233.789
 21
174.747
 31
11.9
  0
LINE
  5
B72
330
A02
100
AcDbEntity
  8
Mesh_cs
100
AcDbLine
 10
-233.789
 20
174.747
 30
11.9
 11
-235.339
 21
178.028
 31
11.9
  0
LINE
  5
B73
330
A02
100
AcDbEntity
  8
Mesh_cs
100
AcDbLine
 10
-235.339
 20
178.028
 30
11.9
 11
-235.352
 21
178.055
 31
11.9
  0
LINE
  5
B74
330
A02
100
AcDbEntity
  8
Mesh_cs
100
AcDbLine
 10
-235.352
 20
178.055
 30
11.9
 11
-235.365
 21
178.083
 31
11.9
  0
LINE
  5
B75
330
A02
100
AcDbEntity
  8
Mesh_cs
100
AcDbLine
 10
-235.365
 20
178.083
 30
11.9
 11
-236.944
 21
181.35
 31
11.9
  0
LINE
  5
B76
330
A02
100
AcDbEntity
  8
Mesh_cs
100
AcDbLine
 10
-236.944
 20
181.35
 30
11.9
 11
-236.957
 21
181.377
 31
11.9
  0
LINE
  5
B77
330
A02
100
AcDbEntity
  8
Mesh_cs
100
AcDbLine
 10
-236.957
 20
181.377
 30
11.9
 11
-238.565
 21
184.63
 31
11.9
  0
LINE
  5
B78
330
A02
100
AcDbEntity
  8
Mesh_cs
100
AcDbLine
 10
-238.565
 20
184.63
 30
11.9
 11
-240.202
 21
187.869
 31
11.9
  0
LINE
  5
B79
330
A02
100
AcDbEntity
  8
Mesh_cs
100
AcDbLine
 10
-240.202
 20
187.869
 30
11.9
 11
-240.216
 21
187.896
 31
11.9
  0
LINE
  5
B7A
330
A02
100
AcDbEntity
  8
Mesh_cs
100
AcDbLine
 10
-240.216
 20
187.896
 30
11.9
 11
-240.23
 21
187.924
 31
11.9
  0
LINE
  5
B7B
330
A02
100
AcDbEntity
  8
Mesh_cs
100
AcDbLine
 10
-240.23
 20
187.924
 30
11.9
 11
-241.895
 21
191.148
 31
11.9
  0
LINE
  5
B7C
330
A02
100
AcDbEntity
  8
Mesh_cs
100
AcDbLine
 10
-241.895
 20
191.148
 30
11.9
 11
-243.589
 21
194.357
 31
11.9
  0
LINE
  5
B7D
330
A02
100
AcDbEntity
  8
Mesh_cs
100
AcDbLine
 10
-243.589
 20
194.357
 30
11.9
 11
-243.603
 21
194.384
 31
11.9
  0
LINE
  5
B7E
330
A02
100
AcDbEntity
  8
Mesh_cs
100
AcDbLine
 10
-243.603
 20
194.384
 30
11.9
 11
-245.325
 21
197.579
 31
11.9
  0
LINE
  5
B7F
330
A02
100
AcDbEntity
  8
Mesh_cs
100
AcDbLine
 10
-245.325
 20
197.579
 30
11.9
 11
-245.339
 21
197.606
 31
11.9
  0
LINE
  5
B80
330
A02
100
AcDbEntity
  8
Mesh_cs
100
AcDbLine
 10
-245.339
 20
197.606
 30
11.9
 11
-245.354
 21
197.632
 31
11.9
  0
LINE
  5
B81
330
A02
100
AcDbEntity
  8
Mesh_cs
100
AcDbLine
 10
-245.354
 20
197.632
 30
11.9
 11
-247.105
 21
200.811
 31
11.9
  0
LINE
  5
B82
330
A02
100
AcDbEntity
  8
Mesh_cs
100
AcDbLine
 10
-247.105
 20
200.811
 30
11.9
 11
-248.883
 21
203.975
 31
11.9
  0
LINE
  5
B83
330
A02
100
AcDbEntity
  8
Mesh_cs
100
AcDbLine
 10
-248.883
 20
203.975
 30
11.9
 11
-248.898
 21
204.001
 31
11.9
  0
LINE
  5
B84
330
A02
100
AcDbEntity
  8
Mesh_cs
100
AcDbLine
 10
-248.898
 20
204.001
 30
11.9
 11
-248.913
 21
204.028
 31
11.9
  0
LINE
  5
B85
330
A02
100
AcDbEntity
  8
Mesh_cs
100
AcDbLine
 10
-248.913
 20
204.028
 30
11.9
 11
-250.72
 21
207.176
 31
11.9
  0
LINE
  5
B86
330
A02
100
AcDbEntity
  8
Mesh_cs
100
AcDbLine
 10
-250.72
 20
207.176
 30
11.9
 11
-252.554
 21
210.307
 31
11.9
  0
LINE
  5
B87
330
A02
100
AcDbEntity
  8
Mesh_cs
100
AcDbLine
 10
-252.554
 20
210.307
 30
11.9
 11
-252.57
 21
210.334
 31
11.9
  0
LINE
  5
B88
330
A02
100
AcDbEntity
  8
Mesh_cs
100
AcDbLine
 10
-252.57
 20
210.334
 30
11.9
 11
-254.432
 21
213.449
 31
11.9
  0
LINE
  5
B89
330
A02
100
AcDbEntity
  8
Mesh_cs
100
AcDbLine
 10
-254.432
 20
213.449
 30
11.9
 11
-254.448
 21
213.475
 31
11.9
  0
LINE
  5
B8A
330
A02
100
AcDbEntity
  8
Mesh_cs
100
AcDbLine
 10
-254.448
 20
213.475
 30
11.9
 11
-256.339
 21
216.577
 31
11.9
  0
LINE
  5
B8B
330
A02
100
AcDbEntity
  8
Mesh_cs
100
AcDbLine
 10
-256.339
 20
216.577
 30
11.9
 11
-256.355
 21
216.603
 31
11.9
  0
LINE
  5
B8C
330
A02
100
AcDbEntity
  8
Mesh_cs
100
AcDbLine
 10
-256.355
 20
216.603
 30
11.9
 11
-258.272
 21
219.685
 31
11.9
  0
LINE
  5
B8D
330
A02
100
AcDbEntity
  8
Mesh_cs
100
AcDbLine
 10
-258.272
 20
219.685
 30
11.9
 11
-258.288
 21
219.711
 31
11.9
  0
LINE
  5
B8E
330
A02
100
AcDbEntity
  8
Mesh_cs
100
AcDbLine
 10
-141.368
 20
247.065
 30
11.9
 11
-143.123
 21
250.348
 31
11.9
  0
LINE
  5
B8F
330
A02
100
AcDbEntity
  8
Mesh_cs
100
AcDbLine
 10
-143.123
 20
250.348
 30
11.9
 11
-143.318
 21
250.713
 31
11.9
  0
LINE
  5
B90
330
A02
100
AcDbEntity
  8
Mesh_cs
100
AcDbLine
 10
-143.318
 20
250.713
 30
11.9
 11
-145.098
 21
253.982
 31
11.9
  0
LINE
  5
B91
330
A02
100
AcDbEntity
  8
Mesh_cs
100
AcDbLine
 10
-145.098
 20
253.982
 30
11.9
 11
-145.296
 21
254.345
 31
11.9
  0
LINE
  5
B92
330
A02
100
AcDbEntity
  8
Mesh_cs
100
AcDbLine
 10
-145.296
 20
254.345
 30
11.9
 11
-147.102
 21
257.6
 31
11.9
  0
LINE
  5
B93
330
A02
100
AcDbEntity
  8
Mesh_cs
100
AcDbLine
 10
-147.102
 20
257.6
 30
11.9
 11
-147.303
 21
257.962
 31
11.9
  0
LINE
  5
B94
330
A02
100
AcDbEntity
  8
Mesh_cs
100
AcDbLine
 10
-147.303
 20
257.962
 30
11.9
 11
-149.134
 21
261.203
 31
11.9
  0
LINE
  5
B95
330
A02
100
AcDbEntity
  8
Mesh_cs
100
AcDbLine
 10
-149.134
 20
261.203
 30
11.9
 11
-149.338
 21
261.563
 31
11.9
  0
LINE
  5
B96
330
A02
100
AcDbEntity
  8
Mesh_cs
100
AcDbLine
 10
-149.338
 20
261.563
 30
11.9
 11
-151.195
 21
264.79
 31
11.9
  0
LINE
  5
B97
330
A02
100
AcDbEntity
  8
Mesh_cs
100
AcDbLine
 10
-151.195
 20
264.79
 30
11.9
 11
-151.401
 21
265.148
 31
11.9
  0
LINE
  5
B98
330
A02
100
AcDbEntity
  8
Mesh_cs
100
AcDbLine
 10
-151.401
 20
265.148
 30
11.9
 11
-153.283
 21
268.361
 31
11.9
  0
LINE
  5
B99
330
A02
100
AcDbEntity
  8
Mesh_cs
100
AcDbLine
 10
-153.283
 20
268.361
 30
11.9
 11
-153.492
 21
268.717
 31
11.9
  0
LINE
  5
B9A
330
A02
100
AcDbEntity
  8
Mesh_cs
100
AcDbLine
 10
-153.492
 20
268.717
 30
11.9
 11
-155.399
 21
271.915
 31
11.9
  0
LINE
  5
B9B
330
A02
100
AcDbEntity
  8
Mesh_cs
100
AcDbLine
 10
-155.399
 20
271.915
 30
11.9
 11
-155.611
 21
272.27
 31
11.9
  0
LINE
  5
B9C
330
A02
100
AcDbEntity
  8
Mesh_cs
100
AcDbLine
 10
-155.611
 20
272.27
 30
11.9
 11
-157.543
 21
275.452
 31
11.9
  0
LINE
  5
B9D
330
A02
100
AcDbEntity
  8
Mesh_cs
100
AcDbLine
 10
-157.543
 20
275.452
 30
11.9
 11
-157.758
 21
275.806
 31
11.9
  0
LINE
  5
B9E
330
A02
100
AcDbEntity
  8
Mesh_cs
100
AcDbLine
 10
-157.758
 20
275.806
 30
11.9
 11
-159.715
 21
278.973
 31
11.9
  0
LINE
  5
B9F
330
A02
100
AcDbEntity
  8
Mesh_cs
100
AcDbLine
 10
-159.715
 20
278.973
 30
11.9
 11
-159.933
 21
279.325
 31
11.9
  0
LINE
  5
BA0
330
A02
100
AcDbEntity
  8
Mesh_cs
100
AcDbLine
 10
-159.933
 20
279.325
 30
11.9
 11
-161.915
 21
282.477
 31
11.9
  0
LINE
  5
BA1
330
A02
100
AcDbEntity
  8
Mesh_cs
100
AcDbLine
 10
-161.915
 20
282.477
 30
11.9
 11
-162.135
 21
282.827
 31
11.9
  0
LINE
  5
BA2
330
A02
100
AcDbEntity
  8
Mesh_cs
100
AcDbLine
 10
-162.135
 20
282.827
 30
11.9
 11
-164.141
 21
285.963
 31
11.9
  0
LINE
  5
BA3
330
A02
100
AcDbEntity
  8
Mesh_cs
100
AcDbLine
 10
-164.141
 20
285.963
 30
11.9
 11
-164.364
 21
286.311
 31
11.9
  0
LINE
  5
BA4
330
A02
100
AcDbEntity
  8
Mesh_cs
100
AcDbLine
 10
-164.364
 20
286.311
 30
11.9
 11
-166.395
 21
289.432
 31
11.9
  0
LINE
  5
BA5
330
A02
100
AcDbEntity
  8
Mesh_cs
100
AcDbLine
 10
-166.395
 20
289.432
 30
11.9
 11
-166.621
 21
289.779
 31
11.9
  0
LINE
  5
BA6
330
A02
100
AcDbEntity
  8
Mesh_cs
100
AcDbLine
 10
-166.621
 20
289.779
 30
11.9
 11
-168.677
 21
292.883
 31
11.9
  0
LINE
  5
BA7
330
A02
100
AcDbEntity
  8
Mesh_cs
100
AcDbLine
 10
-168.677
 20
292.883
 30
11.9
 11
-168.905
 21
293.228
 31
11.9
  0
LINE
  5
BA8
330
A02
100
AcDbEntity
  8
Mesh_cs
100
AcDbLine
 10
-168.905
 20
293.228
 30
11.9
 11
-170.986
 21
296.318
 31
11.9
  0
LINE
  5
BA9
330
A02
100
AcDbEntity
  8
Mesh_cs
100
AcDbLine
 10
-170.986
 20
296.318
 30
11.9
 11
-171.217
 21
296.661
 31
11.9
  0
LINE
  5
BAA
330
A02
100
AcDbEntity
  8
Mesh_cs
100
AcDbLine
 10
-171.217
 20
296.661
 30
11.9
 11
-173.321
 21
299.733
 31
11.9
  0
LINE
  5
BAB
330
A02
100
AcDbEntity
  8
Mesh_cs
100
AcDbLine
 10
-173.321
 20
299.733
 30
11.9
 11
-173.555
 21
300.074
 31
11.9
  0
LINE
  5
BAC
330
A02
100
AcDbEntity
  8
Mesh_cs
100
AcDbLine
 10
-173.555
 20
300.074
 30
11.9
 11
-167.699
 21
300.074
 31
11.9
  0
LINE
  5
BAD
330
A02
100
AcDbEntity
  8
Mesh_cs
100
AcDbLine
 10
-167.699
 20
300.074
 30
11.9
 11
-115
 21
300.074
 31
11.9
  0
LINE
  5
BAE
330
A02
100
AcDbEntity
  8
Mesh_cs
100
AcDbLine
 10
-115
 20
300.074
 30
11.9
 11
-115
 21
200.144
 31
11.9
  0
LINE
  5
BAF
330
A02
100
AcDbEntity
  8
Mesh_cs
100
AcDbLine
 10
-115
 20
200.144
 30
11.9
 11
-115
 21
189.04
 31
11.9
  0
LINE
  5
BB0
330
A02
100
AcDbEntity
  8
Mesh_cs
100
AcDbLine
 10
-115
 20
189.04
 30
11.9
 11
-116.405
 21
192.66
 31
11.9
  0
LINE
  5
BB1
330
A02
100
AcDbEntity
  8
Mesh_cs
100
AcDbLine
 10
-116.405
 20
192.66
 30
11.9
 11
-116.561
 21
193.062
 31
11.9
  0
LINE
  5
BB2
330
A02
100
AcDbEntity
  8
Mesh_cs
100
AcDbLine
 10
-116.561
 20
193.062
 30
11.9
 11
-117.996
 21
196.672
 31
11.9
  0
LINE
  5
BB3
330
A02
100
AcDbEntity
  8
Mesh_cs
100
AcDbLine
 10
-117.996
 20
196.672
 30
11.9
 11
-118.156
 21
197.073
 31
11.9
  0
LINE
  5
BB4
330
A02
100
AcDbEntity
  8
Mesh_cs
100
AcDbLine
 10
-118.156
 20
197.073
 30
11.9
 11
-119.716
 21
200.903
 31
11.9
  0
LINE
  5
BB5
330
A02
100
AcDbEntity
  8
Mesh_cs
100
AcDbLine
 10
-119.716
 20
200.903
 30
11.9
 11
-119.889
 21
201.328
 31
11.9
  0
LINE
  5
BB6
330
A02
100
AcDbEntity
  8
Mesh_cs
100
AcDbLine
 10
-119.889
 20
201.328
 30
11.9
 11
-121.483
 21
205.145
 31
11.9
  0
LINE
  5
BB7
330
A02
100
AcDbEntity
  8
Mesh_cs
100
AcDbLine
 10
-121.483
 20
205.145
 30
11.9
 11
-121.66
 21
205.569
 31
11.9
  0
LINE
  5
BB8
330
A02
100
AcDbEntity
  8
Mesh_cs
100
AcDbLine
 10
-121.66
 20
205.569
 30
11.9
 11
-123.286
 21
209.371
 31
11.9
  0
LINE
  5
BB9
330
A02
100
AcDbEntity
  8
Mesh_cs
100
AcDbLine
 10
-123.286
 20
209.371
 30
11.9
 11
-123.467
 21
209.793
 31
11.9
  0
LINE
  5
BBA
330
A02
100
AcDbEntity
  8
Mesh_cs
100
AcDbLine
 10
-123.467
 20
209.793
 30
11.9
 11
-125.127
 21
213.581
 31
11.9
  0
LINE
  5
BBB
330
A02
100
AcDbEntity
  8
Mesh_cs
100
AcDbLine
 10
-125.127
 20
213.581
 30
11.9
 11
-125.311
 21
214.002
 31
11.9
  0
LINE
  5
BBC
330
A02
100
AcDbEntity
  8
Mesh_cs
100
AcDbLine
 10
-125.311
 20
214.002
 30
11.9
 11
-127.004
 21
217.775
 31
11.9
  0
LINE
  5
BBD
330
A02
100
AcDbEntity
  8
Mesh_cs
100
AcDbLine
 10
-127.004
 20
217.775
 30
11.9
 11
-127.192
 21
218.194
 31
11.9
  0
LINE
  5
BBE
330
A02
100
AcDbEntity
  8
Mesh_cs
100
AcDbLine
 10
-127.192
 20
218.194
 30
11.9
 11
-128.917
 21
221.953
 31
11.9
  0
LINE
  5
BBF
330
A02
100
AcDbEntity
  8
Mesh_cs
100
AcDbLine
 10
-128.917
 20
221.953
 30
11.9
 11
-129.109
 21
222.371
 31
11.9
  0
LINE
  5
BC0
330
A02
100
AcDbEntity
  8
Mesh_cs
100
AcDbLine
 10
-129.109
 20
222.371
 30
11.9
 11
-130.867
 21
226.114
 31
11.9
  0
LINE
  5
BC1
330
A02
100
AcDbEntity
  8
Mesh_cs
100
AcDbLine
 10
-130.867
 20
226.114
 30
11.9
 11
-131.062
 21
226.53
 31
11.9
  0
LINE
  5
BC2
330
A02
100
AcDbEntity
  8
Mesh_cs
100
AcDbLine
 10
-131.062
 20
226.53
 30
11.9
 11
-132.853
 21
230.258
 31
11.9
  0
LINE
  5
BC3
330
A02
100
AcDbEntity
  8
Mesh_cs
100
AcDbLine
 10
-132.853
 20
230.258
 30
11.9
 11
-133.052
 21
230.672
 31
11.9
  0
LINE
  5
BC4
330
A02
100
AcDbEntity
  8
Mesh_cs
100
AcDbLine
 10
-133.052
 20
230.672
 30
11.9
 11
-134.875
 21
234.385
 31
11.9
  0
LINE
  5
BC5
330
A02
100
AcDbEntity
  8
Mesh_cs
100
AcDbLine
 10
-134.875
 20
234.385
 30
11.9
 11
-135.077
 21
234.797
 31
11.9
  0
LINE
  5
BC6
330
A02
100
AcDbEntity
  8
Mesh_cs
100
AcDbLine
 10
-135.077
 20
234.797
 30
11.9
 11
-136.932
 21
238.494
 31
11.9
  0
LINE
  5
BC7
330
A02
100
AcDbEntity
  8
Mesh_cs
100
AcDbLine
 10
-136.932
 20
238.494
 30
11.9
 11
-137.139
 21
238.905
 31
11.9
  0
LINE
  5
BC8
330
A02
100
AcDbEntity
  8
Mesh_cs
100
AcDbLine
 10
-137.139
 20
238.905
 30
11.9
 11
-139.026
 21
242.585
 31
11.9
  0
LINE
  5
BC9
330
A02
100
AcDbEntity
  8
Mesh_cs
100
AcDbLine
 10
-139.026
 20
242.585
 30
11.9
 11
-139.236
 21
242.994
 31
11.9
  0
LINE
  5
BCA
330
A02
100
AcDbEntity
  8
Mesh_cs
100
AcDbLine
 10
-139.236
 20
242.994
 30
11.9
 11
-141.155
 21
246.658
 31
11.9
  0
LINE
  5
BCB
330
A02
100
AcDbEntity
  8
Mesh_cs
100
AcDbLine
 10
-141.155
 20
246.658
 30
11.9
 11
-141.368
 21
247.065
 31
11.9
  0
LINE
  5
BCC
330
A02
100
AcDbEntity
  8
Mesh_cs
100
AcDbLine
 10
0
 20
24.9
 30
11.9
 11
0
 21
266.832
 31
11.9
  0
LINE
  5
BCD
330
A02
100
AcDbEntity
  8
Mesh_cs
100
AcDbLine
 10
0
 20
266.832
 30
11.9
 11
-3.33334e-17
 21
275.174
 31
11.9
  0
LINE
  5
BCE
330
A02
100
AcDbEntity
  8
Mesh_cs
100
AcDbLine
 10
-3.33334e-17
 20
275.174
 30
11.9
 11
-19.2367
 21
275.174
 31
11.9
  0
LINE
  5
BCF
330
A02
100
AcDbEntity
  8
Mesh_cs
100
AcDbLine
 10
-19.2367
 20
275.174
 30
11.9
 11
-19.9
 21
275.174
 31
11.9
  0
LINE
  5
BD0
330
A02
100
AcDbEntity
  8
Mesh_cs
100
AcDbLine
 10
-19.9
 20
275.174
 30
11.9
 11
-19.9111
 21
275.174
 31
11.9
  0
LINE
  5
BD1
330
A02
100
AcDbEntity
  8
Mesh_cs
100
AcDbLine
 10
-19.9111
 20
275.174
 30
11.9
 11
-20.3
 21
275.19
 31
11.9
  0
LINE
  5
BD2
330
A02
100
AcDbEntity
  8
Mesh_cs
100
AcDbLine
 10
-20.3
 20
275.19
 30
11.9
 11
-20.3114
 21
275.191
 31
11.9
  0
LINE
  5
BD3
330
A02
100
AcDbEntity
  8
Mesh_cs
100
AcDbLine
 10
-20.3114
 20
275.191
 30
11.9
 11
-20.6983
 21
275.238
 31
11.9
  0
LINE
  5
BD4
330
A02
100
AcDbEntity
  8
Mesh_cs
100
AcDbLine
 10
-20.6983
 20
275.238
 30
11.9
 11
-20.7128
 21
275.241
 31
11.9
  0
LINE
  5
BD5
330
A02
100
AcDbEntity
  8
Mesh_cs
100
AcDbLine
 10
-20.7128
 20
275.241
 30
11.9
 11
-21.0598
 21
275.311
 31
11.9
  0
LINE
  5
BD6
330
A02
100
AcDbEntity
  8
Mesh_cs
100
AcDbLine
 10
-21.0598
 20
275.311
 30
11.9
 11
-21.074
 21
275.314
 31
11.9
  0
LINE
  5
BD7
330
A02
100
AcDbEntity
  8
Mesh_cs
100
AcDbLine
 10
-21.074
 20
275.314
 30
11.9
 11
-21.4485
 21
275.42
 31
11.9
  0
LINE
  5
BD8
330
A02
100
AcDbEntity
  8
Mesh_cs
100
AcDbLine
 10
-21.4485
 20
275.42
 30
11.9
 11
-21.8134
 21
275.555
 31
11.9
  0
LINE
  5
BD9
330
A02
100
AcDbEntity
  8
Mesh_cs
100
AcDbLine
 10
-21.8134
 20
275.555
 30
11.9
 11
-21.8272
 21
275.561
 31
11.9
  0
LINE
  5
BDA
330
A02
100
AcDbEntity
  8
Mesh_cs
100
AcDbLine
 10
-21.8272
 20
275.561
 30
11.9
 11
-22.1799
 21
275.725
 31
11.9
  0
LINE
  5
BDB
330
A02
100
AcDbEntity
  8
Mesh_cs
100
AcDbLine
 10
-22.1799
 20
275.725
 30
11.9
 11
-22.1933
 21
275.731
 31
11.9
  0
LINE
  5
BDC
330
A02
100
AcDbEntity
  8
Mesh_cs
100
AcDbLine
 10
-22.1933
 20
275.731
 30
11.9
 11
-22.5316
 21
275.923
 31
11.9
  0
LINE
  5
BDD
330
A02
100
AcDbEntity
  8
Mesh_cs
100
AcDbLine
 10
-22.5316
 20
275.923
 30
11.9
 11
-22.5444
 21
275.931
 31
11.9
  0
LINE
  5
BDE
330
A02
100
AcDbEntity
  8
Mesh_cs
100
AcDbLine
 10
-22.5444
 20
275.931
 30
11.9
 11
-22.8661
 21
276.149
 31
11.9
  0
LINE
  5
BDF
330
A02
100
AcDbEntity
  8
Mesh_cs
100
AcDbLine
 10
-22.8661
 20
276.149
 30
11.9
 11
-22.8782
 21
276.158
 31
11.9
  0
LINE
  5
BE0
330
A02
100
AcDbEntity
  8
Mesh_cs
100
AcDbLine
 10
-22.8782
 20
276.158
 30
11.9
 11
-23.1813
 21
276.402
 31
11.9
  0
LINE
  5
BE1
330
A02
100
AcDbEntity
  8
Mesh_cs
100
AcDbLine
 10
-23.1813
 20
276.402
 30
11.9
 11
-23.1926
 21
276.411
 31
11.9
  0
LINE
  5
BE2
330
A02
100
AcDbEntity
  8
Mesh_cs
100
AcDbLine
 10
-23.1926
 20
276.411
 30
11.9
 11
-23.5052
 21
276.71
 31
11.9
  0
LINE
  5
BE3
330
A02
100
AcDbEntity
  8
Mesh_cs
100
AcDbLine
 10
-23.5052
 20
276.71
 30
11.9
 11
-23.5146
 21
276.72
 31
11.9
  0
LINE
  5
BE4
330
A02
100
AcDbEntity
  8
Mesh_cs
100
AcDbLine
 10
-23.5146
 20
276.72
 30
11.9
 11
-23.7992
 21
277.045
 31
11.9
  0
LINE
  5
BE5
330
A02
100
AcDbEntity
  8
Mesh_cs
100
AcDbLine
 10
-23.7992
 20
277.045
 30
11.9
 11
-23.8078
 21
277.055
 31
11.9
  0
LINE
  5
BE6
330
A02
100
AcDbEntity
  8
Mesh_cs
100
AcDbLine
 10
-23.8078
 20
277.055
 30
11.9
 11
-24.0622
 21
277.404
 31
11.9
  0
LINE
  5
BE7
330
A02
100
AcDbEntity
  8
Mesh_cs
100
AcDbLine
 10
-24.0622
 20
277.404
 30
11.9
 11
-24.07
 21
277.415
 31
11.9
  0
LINE
  5
BE8
330
A02
100
AcDbEntity
  8
Mesh_cs
100
AcDbLine
 10
-24.07
 20
277.415
 30
11.9
 11
-24.2922
 21
277.786
 31
11.9
  0
LINE
  5
BE9
330
A02
100
AcDbEntity
  8
Mesh_cs
100
AcDbLine
 10
-24.2922
 20
277.786
 30
11.9
 11
-24.299
 21
277.797
 31
11.9
  0
LINE
  5
BEA
330
A02
100
AcDbEntity
  8
Mesh_cs
100
AcDbLine
 10
-24.299
 20
277.797
 30
11.9
 11
-24.3049
 21
277.81
 31
11.9
  0
LINE
  5
BEB
330
A02
100
AcDbEntity
  8
Mesh_cs
100
AcDbLine
 10
-24.3049
 20
277.81
 30
11.9
 11
-24.4931
 21
278.199
 31
11.9
  0
LINE
  5
BEC
330
A02
100
AcDbEntity
  8
Mesh_cs
100
AcDbLine
 10
-24.4931
 20
278.199
 30
11.9
 11
-24.498
 21
278.211
 31
11.9
  0
LINE
  5
BED
330
A02
100
AcDbEntity
  8
Mesh_cs
100
AcDbLine
 10
-24.498
 20
278.211
 30
11.9
 11
-24.6508
 21
278.615
 31
11.9
  0
LINE
  5
BEE
330
A02
100
AcDbEntity
  8
Mesh_cs
100
AcDbLine
 10
-24.6508
 20
278.615
 30
11.9
 11
-24.6546
 21
278.628
 31
11.9
  0
LINE
  5
BEF
330
A02
100
AcDbEntity
  8
Mesh_cs
100
AcDbLine
 10
-24.6546
 20
278.628
 30
11.9
 11
-24.7707
 21
279.044
 31
11.9
  0
LINE
  5
BF0
330
A02
100
AcDbEntity
  8
Mesh_cs
100
AcDbLine
 10
-24.7707
 20
279.044
 30
11.9
 11
-24.7734
 21
279.058
 31
11.9
  0
LINE
  5
BF1
330
A02
100
AcDbEntity
  8
Mesh_cs
100
AcDbLine
 10
-24.7734
 20
279.058
 30
11.9
 11
-24.8519
 21
279.482
 31
11.9
  0
LINE
  5
BF2
330
A02
100
AcDbEntity
  8
Mesh_cs
100
AcDbLine
 10
-24.8519
 20
279.482
 30
11.9
 11
-24.8536
 21
279.496
 31
11.9
  0
LINE
  5
BF3
330
A02
100
AcDbEntity
  8
Mesh_cs
100
AcDbLine
 10
-24.8536
 20
279.496
 30
11.9
 11
-24.888
 21
279.828
 31
11.9
  0
LINE
  5
BF4
330
A02
100
AcDbEntity
  8
Mesh_cs
100
AcDbLine
 10
-24.888
 20
279.828
 30
11.9
 11
-24.8885
 21
279.841
 31
11.9
  0
LINE
  5
BF5
330
A02
100
AcDbEntity
  8
Mesh_cs
100
AcDbLine
 10
-24.8885
 20
279.841
 30
11.9
 11
-24.9
 21
280.174
 31
11.9
  0
LINE
  5
BF6
330
A02
100
AcDbEntity
  8
Mesh_cs
100
AcDbLine
 10
-24.9
 20
280.174
 30
11.9
 11
-24.9
 21
299.411
 31
11.9
  0
LINE
  5
BF7
330
A02
100
AcDbEntity
  8
Mesh_cs
100
AcDbLine
 10
-24.9
 20
299.411
 30
11.9
 11
-24.9
 21
300.074
 31
11.9
  0
LINE
  5
BF8
330
A02
100
AcDbEntity
  8
Mesh_cs
100
AcDbLine
 10
-24.9
 20
300.074
 30
11.9
 11
-30.41
 21
300.074
 31
11.9
  0
LINE
  5
BF9
330
A02
100
AcDbEntity
  8
Mesh_cs
100
AcDbLine
 10
-30.41
 20
300.074
 30
11.9
 11
-80
 21
300.074
 31
11.9
  0
LINE
  5
BFA
330
A02
100
AcDbEntity
  8
Mesh_cs
100
AcDbLine
 10
-80
 20
300.074
 30
11.9
 11
-80
 21
270.067
 31
11.9
  0
LINE
  5
BFB
330
A02
100
AcDbEntity
  8
Mesh_cs
100
AcDbLine
 10
-80
 20
270.067
 30
11.9
 11
-80
 21
0
 31
11.9
  0
LINE
  5
BFC
330
A02
100
AcDbEntity
  8
Mesh_cs
100
AcDbLine
 10
-80
 20
0
 30
11.9
 11
-30.41
 21
4.59e-14
 31
11.9
  0
LINE
  5
BFD
330
A02
100
AcDbEntity
  8
Mesh_cs
100
AcDbLine
 10
-30.41
 20
4.59e-14
 30
11.9
 11
-24.9
 21
5.09667e-14
 31
11.9
  0
LINE
  5
BFE
330
A02
100
AcDbEntity
  8
Mesh_cs
100
AcDbLine
 10
-24.9
 20
5.09667e-14
 30
11.9
 11
-24.9
 21
19.2367
 31
11.9
  0
LINE
  5
BFF
330
A02
100
AcDbEntity
  8
Mesh_cs
100
AcDbLine
 10
-24.9
 20
19.2367
 30
11.9
 11
-24.9
 21
19.9
 31
11.9
  0
LINE
  5
C00
330
A02
100
AcDbEntity
  8
Mesh_cs
100
AcDbLine
 10
-24.9
 20
19.9
 30
11.9
 11
-24.8838
 21
20.295
 31
11.9
  0
LINE
  5
C01
330
A02
100
AcDbEntity
  8
Mesh_cs
100
AcDbLine
 10
-24.8838
 20
20.295
 30
11.9
 11
-24.8833
 21
20.3086
 31
11.9
  0
LINE
  5
C02
330
A02
100
AcDbEntity
  8
Mesh_cs
100
AcDbLine
 10
-24.8833
 20
20.3086
 30
11.9
 11
-24.8329
 21
20.7131
 31
11.9
  0
LINE
  5
C03
330
A02
100
AcDbEntity
  8
Mesh_cs
100
AcDbLine
 10
-24.8329
 20
20.7131
 30
11.9
 11
-24.8311
 21
20.727
 31
11.9
  0
LINE
  5
C04
330
A02
100
AcDbEntity
  8
Mesh_cs
100
AcDbLine
 10
-24.8311
 20
20.727
 30
11.9
 11
-24.7502
 21
21.1124
 31
11.9
  0
LINE
  5
C05
330
A02
100
AcDbEntity
  8
Mesh_cs
100
AcDbLine
 10
-24.7502
 20
21.1124
 30
11.9
 11
-24.7474
 21
21.1257
 31
11.9
  0
LINE
  5
C06
330
A02
100
AcDbEntity
  8
Mesh_cs
100
AcDbLine
 10
-24.7474
 20
21.1257
 30
11.9
 11
-24.6356
 21
21.5026
 31
11.9
  0
LINE
  5
C07
330
A02
100
AcDbEntity
  8
Mesh_cs
100
AcDbLine
 10
-24.6356
 20
21.5026
 30
11.9
 11
-24.6318
 21
21.5156
 31
11.9
  0
LINE
  5
C08
330
A02
100
AcDbEntity
  8
Mesh_cs
100
AcDbLine
 10
-24.6318
 20
21.5156
 30
11.9
 11
-24.6269
 21
21.5282
 31
11.9
  0
LINE
  5
C09
330
A02
100
AcDbEntity
  8
Mesh_cs
100
AcDbLine
 10
-24.6269
 20
21.5282
 30
11.9
 11
-24.4851
 21
21.8941
 31
11.9
  0
LINE
  5
C0A
330
A02
100
AcDbEntity
  8
Mesh_cs
100
AcDbLine
 10
-24.4851
 20
21.8941
 30
11.9
 11
-24.3145
 21
22.2468
 31
11.9
  0
LINE
  5
C0B
330
A02
100
AcDbEntity
  8
Mesh_cs
100
AcDbLine
 10
-24.3145
 20
22.2468
 30
11.9
 11
-24.3086
 21
22.2589
 31
11.9
  0
LINE
  5
C0C
330
A02
100
AcDbEntity
  8
Mesh_cs
100
AcDbLine
 10
-24.3086
 20
22.2589
 30
11.9
 11
-24.3017
 21
22.2705
 31
11.9
  0
LINE
  5
C0D
330
A02
100
AcDbEntity
  8
Mesh_cs
100
AcDbLine
 10
-24.3017
 20
22.2705
 30
11.9
 11
-24.1034
 21
22.6076
 31
11.9
  0
LINE
  5
C0E
330
A02
100
AcDbEntity
  8
Mesh_cs
100
AcDbLine
 10
-24.1034
 20
22.6076
 30
11.9
 11
-23.8789
 21
22.9271
 31
11.9
  0
LINE
  5
C0F
330
A02
100
AcDbEntity
  8
Mesh_cs
100
AcDbLine
 10
-23.8789
 20
22.9271
 30
11.9
 11
-23.8712
 21
22.9381
 31
11.9
  0
LINE
  5
C10
330
A02
100
AcDbEntity
  8
Mesh_cs
100
AcDbLine
 10
-23.8712
 20
22.9381
 30
11.9
 11
-23.622
 21
23.2379
 31
11.9
  0
LINE
  5
C11
330
A02
100
AcDbEntity
  8
Mesh_cs
100
AcDbLine
 10
-23.622
 20
23.2379
 30
11.9
 11
-23.6134
 21
23.2482
 31
11.9
  0
LINE
  5
C12
330
A02
100
AcDbEntity
  8
Mesh_cs
100
AcDbLine
 10
-23.6134
 20
23.2482
 30
11.9
 11
-23.3414
 21
23.5265
 31
11.9
  0
LINE
  5
C13
330
A02
100
AcDbEntity
  8
Mesh_cs
100
AcDbLine
 10
-23.3414
 20
23.5265
 30
11.9
 11
-23.332
 21
23.5361
 31
11.9
  0
LINE
  5
C14
330
A02
100
AcDbEntity
  8
Mesh_cs
100
AcDbLine
 10
-23.332
 20
23.5361
 30
11.9
 11
-23.0052
 21
23.818
 31
11.9
  0
LINE
  5
C15
330
A02
100
AcDbEntity
  8
Mesh_cs
100
AcDbLine
 10
-23.0052
 20
23.818
 30
11.9
 11
-22.994
 21
23.8278
 31
11.9
  0
LINE
  5
C16
330
A02
100
AcDbEntity
  8
Mesh_cs
100
AcDbLine
 10
-22.994
 20
23.8278
 30
11.9
 11
-22.6441
 21
24.079
 31
11.9
  0
LINE
  5
C17
330
A02
100
AcDbEntity
  8
Mesh_cs
100
AcDbLine
 10
-22.6441
 20
24.079
 30
11.9
 11
-22.632
 21
24.0876
 31
11.9
  0
LINE
  5
C18
330
A02
100
AcDbEntity
  8
Mesh_cs
100
AcDbLine
 10
-22.632
 20
24.0876
 30
11.9
 11
-22.2619
 21
24.3063
 31
11.9
  0
LINE
  5
C19
330
A02
100
AcDbEntity
  8
Mesh_cs
100
AcDbLine
 10
-22.2619
 20
24.3063
 30
11.9
 11
-22.2491
 21
24.3138
 31
11.9
  0
LINE
  5
C1A
330
A02
100
AcDbEntity
  8
Mesh_cs
100
AcDbLine
 10
-22.2491
 20
24.3138
 30
11.9
 11
-22.2358
 21
24.3202
 31
11.9
  0
LINE
  5
C1B
330
A02
100
AcDbEntity
  8
Mesh_cs
100
AcDbLine
 10
-22.2358
 20
24.3202
 30
11.9
 11
-21.8485
 21
24.5047
 31
11.9
  0
LINE
  5
C1C
330
A02
100
AcDbEntity
  8
Mesh_cs
100
AcDbLine
 10
-21.8485
 20
24.5047
 30
11.9
 11
-21.4472
 21
24.6539
 31
11.9
  0
LINE
  5
C1D
330
A02
100
AcDbEntity
  8
Mesh_cs
100
AcDbLine
 10
-21.4472
 20
24.6539
 30
11.9
 11
-21.4333
 21
24.6591
 31
11.9
  0
LINE
  5
C1E
330
A02
100
AcDbEntity
  8
Mesh_cs
100
AcDbLine
 10
-21.4333
 20
24.6591
 30
11.9
 11
-21.4191
 21
24.663
 31
11.9
  0
LINE
  5
C1F
330
A02
100
AcDbEntity
  8
Mesh_cs
100
AcDbLine
 10
-21.4191
 20
24.663
 30
11.9
 11
-21.007
 21
24.7759
 31
11.9
  0
LINE
  5
C20
330
A02
100
AcDbEntity
  8
Mesh_cs
100
AcDbLine
 10
-21.007
 20
24.7759
 30
11.9
 11
-20.5875
 21
24.8519
 31
11.9
  0
LINE
  5
C21
330
A02
100
AcDbEntity
  8
Mesh_cs
100
AcDbLine
 10
-20.5875
 20
24.8519
 30
11.9
 11
-20.573
 21
24.8545
 31
11.9
  0
LINE
  5
C22
330
A02
100
AcDbEntity
  8
Mesh_cs
100
AcDbLine
 10
-20.573
 20
24.8545
 30
11.9
 11
-20.2443
 21
24.8878
 31
11.9
  0
LINE
  5
C23
330
A02
100
AcDbEntity
  8
Mesh_cs
100
AcDbLine
 10
-20.2443
 20
24.8878
 30
11.9
 11
-20.233
 21
24.8889
 31
11.9
  0
LINE
  5
C24
330
A02
100
AcDbEntity
  8
Mesh_cs
100
AcDbLine
 10
-20.233
 20
24.8889
 30
11.9
 11
-19.9111
 21
24.8996
 31
11.9
  0
LINE
  5
C25
330
A02
100
AcDbEntity
  8
Mesh_cs
100
AcDbLine
 10
-19.9111
 20
24.8996
 30
11.9
 11
-19.9
 21
24.9
 31
11.9
  0
LINE
  5
C26
330
A02
100
AcDbEntity
  8
Mesh_cs
100
AcDbLine
 10
-19.9
 20
24.9
 30
11.9
 11
-0.663337
 21
24.9
 31
11.9
  0
LINE
  5
C27
330
A02
100
AcDbEntity
  8
Mesh_cs
100
AcDbLine
 10
-0.663337
 20
24.9
 30
11.9
 11
0
 21
24.9
 31
11.9
  0
LINE
  5
C28
330
A02
100
AcDbEntity
  8
Mesh_cs
100
AcDbLine
 10
6.66669e-17
 20
285.174
 30
11.9
 11
6.6667e-17
 21
299.577
 31
11.9
  0
LINE
  5
C29
330
A02
100
AcDbEntity
  8
Mesh_cs
100
AcDbLine
 10
6.6667e-17
 20
299.577
 30
11.9
 11
0
 21
300.074
 31
11.9
  0
LINE
  5
C2A
330
A02
100
AcDbEntity
  8
Mesh_cs
100
AcDbLine
 10
0
 20
300.074
 30
11.9
 11
-0.496668
 21
300.074
 31
11.9
  0
LINE
  5
C2B
330
A02
100
AcDbEntity
  8
Mesh_cs
100
AcDbLine
 10
-0.496668
 20
300.074
 30
11.9
 11
-14.9
 21
300.074
 31
11.9
  0
LINE
  5
C2C
330
A02
100
AcDbEntity
  8
Mesh_cs
100
AcDbLine
 10
-14.9
 20
300.074
 30
11.9
 11
-14.9
 21
285.671
 31
11.9
  0
LINE
  5
C2D
330
A02
100
AcDbEntity
  8
Mesh_cs
100
AcDbLine
 10
-14.9
 20
285.671
 30
11.9
 11
-14.9
 21
285.174
 31
11.9
  0
LINE
  5
C2E
330
A02
100
AcDbEntity
  8
Mesh_cs
100
AcDbLine
 10
-14.9
 20
285.174
 30
11.9
 11
-14.4033
 21
285.174
 31
11.9
  0
LINE
  5
C2F
330
A02
100
AcDbEntity
  8
Mesh_cs
100
AcDbLine
 10
-14.4033
 20
285.174
 30
11.9
 11
0
 21
285.174
 31
11.9
  0
LINE
  5
C30
330
A02
100
AcDbEntity
  8
Mesh_cs
100
AcDbLine
 10
-180.1
 20
14.9
 30
11.9
 11
-180.1
 21
0.496668
 31
11.9
  0
LINE
  5
C31
330
A02
100
AcDbEntity
  8
Mesh_cs
100
AcDbLine
 10
-180.1
 20
0.496668
 30
11.9
 11
-180.1
 21
5.10147e-14
 31
11.9
  0
LINE
  5
C32
330
A02
100
AcDbEntity
  8
Mesh_cs
100
AcDbLine
 10
-180.1
 20
5.1e-14
 30
11.9
 11
-194.503
 21
5.1e-14
 31
11.9
  0
LINE
  5
C33
330
A02
100
AcDbEntity
  8
Mesh_cs
100
AcDbLine
 10
-194.503
 20
5.1e-14
 30
11.9
 11
-195
 21
5.1e-14
 31
11.9
  0
LINE
  5
C34
330
A02
100
AcDbEntity
  8
Mesh_cs
100
AcDbLine
 10
-195
 20
5.1e-14
 30
11.9
 11
-195
 21
0.496668
 31
11.9
  0
LINE
  5
C35
330
A02
100
AcDbEntity
  8
Mesh_cs
100
AcDbLine
 10
-195
 20
0.496668
 30
11.9
 11
-195
 21
14.9
 31
11.9
  0
LINE
  5
C36
330
A02
100
AcDbEntity
  8
Mesh_cs
100
AcDbLine
 10
-195
 20
14.9
 30
11.9
 11
-180.597
 21
14.9
 31
11.9
  0
LINE
  5
C37
330
A02
100
AcDbEntity
  8
Mesh_cs
100
AcDbLine
 10
-180.597
 20
14.9
 30
11.9
 11
-180.1
 21
14.9
 31
11.9
  0
LINE
  5
C38
330
A02
100
AcDbEntity
  8
Mesh_cs
100
AcDbLine
 10
-14.9
 20
14.9
 30
11.9
 11
-0.496668
 21
14.9
 31
11.9
  0
LINE
  5
C39
330
A02
100
AcDbEntity
  8
Mesh_cs
100
AcDbLine
 10
-0.496668
 20
14.9
 30
11.9
 11
0
 21
14.9
 31
11.9
  0
LINE
  5
C3A
330
A02
100
AcDbEntity
  8
Mesh_cs
100
AcDbLine
 10
0
 20
14.9
 30
11.9
 11
0
 21
0.496668
 31
11.9
  0
LINE
  5
C3B
330
A02
100
AcDbEntity
  8
Mesh_cs
100
AcDbLine
 10
0
 20
0.496668
 30
11.9
 11
0
 21
5.40124e-14
 31
11.9
  0
LINE
  5
C3C
330
A02
100
AcDbEntity
  8
Mesh_cs
100
AcDbLine
 10
0
 20
5.4e-14
 30
11.9
 11
-0.496668
 21
5.39e-14
 31
11.9
  0
LINE
  5
C3D
330
A02
100
AcDbEntity
  8
Mesh_cs
100
AcDbLine
 10
-0.496668
 20
5.39e-14
 30
11.9
 11
-14.9
 21
5.1e-14
 31
11.9
  0
LINE
  5
C3E
330
A02
100
AcDbEntity
  8
Mesh_cs
100
AcDbLine
 10
-14.9
 20
5.1e-14
 30
11.9
 11
-14.9
 21
0.496668
 31
11.9
  0
LINE
  5
C3F
330
A02
100
AcDbEntity
  8
Mesh_cs
100
AcDbLine
 10
-14.9
 20
0.496668
 30
11.9
 11
-14.9
 21
14.9
 31
11.9
  0
ENDSEC
  0
SECTION
  2
OBJECTS
  0
DICTIONARY
  5
F000
330
0
100
AcDbDictionary
  3
ACAD_GROUP
350
F001
  0
DICTIONARY
  5
F001
330
F000
100
AcDbDictionary
  0
ENDSEC
  0
EOF