999
FreeCAD v0.21 33771 (Git)
  0
SECTION
  2
HEADER
  9
$ACADVER
  1
AC1014
  9
$ACADMAINTVER
 70
     9
  9
$DWGCODEPAGE
  3
ANSI_1252
  9
$TEXTSTYLE
  7
STANDARD
  9
$DIMSTYLE
  2
STANDARD
  9
$DIMTXSTY
  7
STANDARD
  9
$CMLSTYLE
  2
STANDARD
  9
$LUNITS
 70
2
  9
$INSUNITS
 70
4
  9
$PEXTMAX
 10
50
 20
50
 30
50
  9
$PEXTMIN
 10
0
 20
0
 30
0
  9
$HANDSEED
  5
FFFF
  0
ENDSEC
  0
SECTION
  2
CLASSES
  0
CLASS
  1
ACDBDICTIONARYWDFLT
  2
AcDbDictionaryWithDefault
  3
ObjectDBX Classes
 90
        0
280
     0
281
     0
  0
CLASS
  1
XRECORD
  2
AcDbXrecord
  3
ObjectDBX Classes
 90
        0
280
     0
281
     0
  0
CLASS
  1
LWPOLYLINE
  2
AcDbPolyline
  3
ObjectDBX Classes
 90
        0
280
     0
281
     1
  0
ENDSEC
  0
SECTION
  2
TABLES
  0
TABLE
  2
VPORT
  5
20
330
0
100
AcDbSymbolTable
 70
     1
  0
VPORT
  5
21
330
20
100
AcDbSymbolTableRecord
100
AcDbViewportTableRecord
  2
*ACTIVE
 70
     0
  0
ENDTAB
  0
TABLE
  2
LTYPE
  5
22
330
0
100
AcDbSymbolTable
 70
     1
  0
LTYPE
  5
23
330
21
100
AcDbSymbolTableRecord
100
AcDbLinetypeTableRecord
  2
BYBLOCK
 70
     0
  3

 72
    65
 73
     0
 40
0.0
  0
LTYPE
  5
24
330
21
100
AcDbSymbolTableRecord
100
AcDbLinetypeTableRecord
  2
BYLAYER
 70
     0
  3

 72
    65
 73
     0
 40
0.0
  0
LTYPE
  5
25
330
21
100
AcDbSymbolTableRecord
100
AcDbLinetypeTableRecord
  2
CONTINUOUS
 70
     0
  3
Solid line
 72
    65
 73
     0
 40
0.0
  0
ENDTAB
  0
TABLE
  2
LAYER
  5
CA2
330
0
100
AcDbSymbolTable
 70
3
  0
LAYER
  5
CA3
330
CA2
100
AcDbSymbolTableRecord
100
AcDbLayerTableRecord
  2
0
 70
   0
 62
   7
  6
CONTINUOUS
  0
LAYER
  5
CA4
330
CA2
100
AcDbSymbolTableRecord
100
AcDbLayerTableRecord
  2
none
 70
    0
 62
    7
  6
CONTINUOUS
  0
LAYER
  5
CA5
330
CA2
100
AcDbSymbolTableRecord
100
AcDbLayerTableRecord
  2
Mesh_cs
 70
    0
 62
    7
  6
CONTINUOUS
  0
ENDTAB
  0
TABLE
  2
STYLE
  5
70
330
0
100
AcDbSymbolTable
 70
     2
  0
STYLE
  5
71
330
70
100
AcDbSymbolTableRecord
100
AcDbTextStyleTableRecord
  2
STANDARD
 70
     0
 40
0.0
 41
1.0
 50
0.0
 71
     0
 42
2.5
  3
arial.ttf
  4

  0
STYLE
  5
72
330
70
100
AcDbSymbolTableRecord
100
AcDbTextStyleTableRecord
  2
ANNOTATIVE
 70
     0
 40
0.0
 41
1.0
 50
0.0
 71
     0
 42
2.5
  3
arial.ttf
  4

  0
ENDTAB
  0
TABLE
  2
VIEW
  5
73
330
0
100
AcDbSymbolTable
 70
     0
  0
ENDTAB
  0
TABLE
  2
UCS
  5
74
330
0
100
AcDbSymbolTable
 70
     0
  0
ENDTAB
  0
TABLE
  2
APPID
  5
75
330
0
100
AcDbSymbolTable
 70
     2
  0
APPID
  5
76
330
75
100
AcDbSymbolTableRecord
100
AcDbRegAppTableRecord
  2
ACAD
 70
     0
  0
APPID
  5
77
330
75
100
AcDbSymbolTableRecord
100
AcDbRegAppTableRecord
  2
ACADANNOTATIVE
 70
     0
  0
ENDTAB
  0
TABLE
  2
DIMSTYLE
  5
78
330
0
100
AcDbSymbolTable
 70
     2
  0
DIMSTYLE
105
79
330
78
100
AcDbSymbolTableRecord
100
AcDbDimStyleTableRecord
  2
STANDARD
 70
     0
  3

  4

  5

  6

  7

 40
0.0
 41
2.5
 42
0.625
 43
3.75
 44
1.25
 45
0.0
 46
0.0
 47
0.0
 48
0.0
140
2.5
141
2.5
142
0.0
143
0.03937007874016
144
1.0
145
0.0
146
1.0
147
0.625
 71
     0
 72
     0
 73
     0
 74
     0
 75
     0
 76
     0
 77
     1
 78
     8
170
     0
171
     3
172
     1
173
     0
174
     0
175
     0
176
     0
177
     0
178
     0
270
     2
271
     2
272
     2
273
     2
274
     3
340
71
275
     0
280
     0
281
     0
282
     0
283
     0
284
     8
285
     0
286
     0
287
     3
288
     0
  0
ENDTAB
  0
TABLE
  2
BLOCK_RECORD
  5
A01
330
0
100
AcDbSymbolTable
  70
5
  0
BLOCK_RECORD
  5
A02
330
A01
100
AcDbSymbolTableRecord
100
AcDbBlockTableRecord
  2
*MODEL_SPACE
  0
BLOCK_RECORD
  5
A03
330
A01
100
AcDbSymbolTableRecord
100
AcDbBlockTableRecord
  2
*PAPER_SPACE
  0
ENDTAB
  0
ENDSEC
  0
SECTION
  2
BLOCKS
  0
BLOCK
  5
A04
330
A02
100
AcDbEntity
  8
0
100
AcDbBlockBegin
  2
*MODEL_SPACE
 70
   0
 10
0
 20
0
 30
0
  3
*MODEL_SPACE
  1
 
  0
ENDBLK
  5
A05
330
A02
100
AcDbEntity
  8
0
100
AcDbBlockEnd
  0
BLOCK
  5
A06
330
A03
100
AcDbEntity
 67
1
  8
0
100
AcDbBlockBegin
  2
*PAPER_SPACE
 70
   0
 10
0
 20
0
 30
0
  3
*PAPER_SPACE
  1
 
  0
ENDBLK
  5
A07
330
A03
100
AcDbEntity
 67
    1
  8
0
100
AcDbBlockEnd
  0
ENDSEC
  0
SECTION
  2
ENTITIES
  0
LINE
  5
A08
330
A02
100
AcDbEntity
  8
Mesh_cs
100
AcDbLine
 10
409.415
 20
574.666
 30
11.9
 11
409.544
 21
574.711
 31
11.9
  0
LINE
  5
A09
330
A02
100
AcDbEntity
  8
Mesh_cs
100
AcDbLine
 10
409.544
 20
574.711
 30
11.9
 11
413.039
 21
575.906
 31
11.9
  0
LINE
  5
A0A
330
A02
100
AcDbEntity
  8
Mesh_cs
100
AcDbLine
 10
413.039
 20
575.906
 30
11.9
 11
413.078
 21
575.919
 31
11.9
  0
LINE
  5
A0B
330
A02
100
AcDbEntity
  8
Mesh_cs
100
AcDbLine
 10
413.078
 20
575.919
 30
11.9
 11
416.581
 21
577.093
 31
11.9
  0
LINE
  5
A0C
330
A02
100
AcDbEntity
  8
Mesh_cs
100
AcDbLine
 10
416.581
 20
577.093
 30
11.9
 11
416.619
 21
577.106
 31
11.9
  0
LINE
  5
A0D
330
A02
100
AcDbEntity
  8
Mesh_cs
100
AcDbLine
 10
416.619
 20
577.106
 30
11.9
 11
420.129
 21
578.258
 31
11.9
  0
LINE
  5
A0E
330
A02
100
AcDbEntity
  8
Mesh_cs
100
AcDbLine
 10
420.129
 20
578.258
 30
11.9
 11
420.283
 21
577.786
 31
11.9
  0
LINE
  5
A0F
330
A02
100
AcDbEntity
  8
Mesh_cs
100
AcDbLine
 10
420.283
 20
577.786
 30
11.9
 11
424.734
 21
564.087
 31
11.9
  0
LINE
  5
A10
330
A02
100
AcDbEntity
  8
Mesh_cs
100
AcDbLine
 10
424.734
 20
564.087
 30
11.9
 11
411.035
 21
559.637
 31
11.9
  0
LINE
  5
A11
330
A02
100
AcDbEntity
  8
Mesh_cs
100
AcDbLine
 10
411.035
 20
559.637
 30
11.9
 11
410.563
 21
559.483
 31
11.9
  0
LINE
  5
A12
330
A02
100
AcDbEntity
  8
Mesh_cs
100
AcDbLine
 10
410.563
 20
559.483
 30
11.9
 11
410.411
 21
559.95
 31
11.9
  0
LINE
  5
A13
330
A02
100
AcDbEntity
  8
Mesh_cs
100
AcDbLine
 10
410.411
 20
559.95
 30
11.9
 11
406.015
 21
573.48
 31
11.9
  0
LINE
  5
A14
330
A02
100
AcDbEntity
  8
Mesh_cs
100
AcDbLine
 10
406.015
 20
573.48
 30
11.9
 11
409.415
 21
574.666
 31
11.9
  0
LINE
  5
A15
330
A02
100
AcDbEntity
  8
Mesh_cs
100
AcDbLine
 10
195
 20
446.208
 30
11.9
 11
198.55
 21
449.467
 31
11.9
  0
LINE
  5
A16
330
A02
100
AcDbEntity
  8
Mesh_cs
100
AcDbLine
 10
198.55
 20
449.467
 30
11.9
 11
198.58
 21
449.495
 31
11.9
  0
LINE
  5
A17
330
A02
100
AcDbEntity
  8
Mesh_cs
100
AcDbLine
 10
198.58
 20
449.495
 30
11.9
 11
202.156
 21
452.726
 31
11.9
  0
LINE
  5
A18
330
A02
100
AcDbEntity
  8
Mesh_cs
100
AcDbLine
 10
202.156
 20
452.726
 30
11.9
 11
202.186
 21
452.753
 31
11.9
  0
LINE
  5
A19
330
A02
100
AcDbEntity
  8
Mesh_cs
100
AcDbLine
 10
202.186
 20
452.753
 30
11.9
 11
205.787
 21
455.956
 31
11.9
  0
LINE
  5
A1A
330
A02
100
AcDbEntity
  8
Mesh_cs
100
AcDbLine
 10
205.787
 20
455.956
 30
11.9
 11
205.818
 21
455.983
 31
11.9
  0
LINE
  5
A1B
330
A02
100
AcDbEntity
  8
Mesh_cs
100
AcDbLine
 10
205.818
 20
455.983
 30
11.9
 11
209.445
 21
459.156
 31
11.9
  0
LINE
  5
A1C
330
A02
100
AcDbEntity
  8
Mesh_cs
100
AcDbLine
 10
209.445
 20
459.156
 30
11.9
 11
209.475
 21
459.183
 31
11.9
  0
LINE
  5
A1D
330
A02
100
AcDbEntity
  8
Mesh_cs
100
AcDbLine
 10
209.475
 20
459.183
 30
11.9
 11
213.128
 21
462.328
 31
11.9
  0
LINE
  5
A1E
330
A02
100
AcDbEntity
  8
Mesh_cs
100
AcDbLine
 10
213.128
 20
462.328
 30
11.9
 11
213.158
 21
462.354
 31
11.9
  0
LINE
  5
A1F
330
A02
100
AcDbEntity
  8
Mesh_cs
100
AcDbLine
 10
213.158
 20
462.354
 30
11.9
 11
216.836
 21
465.469
 31
11.9
  0
LINE
  5
A20
330
A02
100
AcDbEntity
  8
Mesh_cs
100
AcDbLine
 10
216.836
 20
465.469
 30
11.9
 11
216.867
 21
465.495
 31
11.9
  0
LINE
  5
A21
330
A02
100
AcDbEntity
  8
Mesh_cs
100
AcDbLine
 10
216.867
 20
465.495
 30
11.9
 11
220.569
 21
468.581
 31
11.9
  0
LINE
  5
A22
330
A02
100
AcDbEntity
  8
Mesh_cs
100
AcDbLine
 10
220.569
 20
468.581
 30
11.9
 11
220.6
 21
468.607
 31
11.9
  0
LINE
  5
A23
330
A02
100
AcDbEntity
  8
Mesh_cs
100
AcDbLine
 10
220.6
 20
468.607
 30
11.9
 11
224.327
 21
471.663
 31
11.9
  0
LINE
  5
A24
330
A02
100
AcDbEntity
  8
Mesh_cs
100
AcDbLine
 10
224.327
 20
471.663
 30
11.9
 11
224.358
 21
471.689
 31
11.9
  0
LINE
  5
A25
330
A02
100
AcDbEntity
  8
Mesh_cs
100
AcDbLine
 10
224.358
 20
471.689
 30
11.9
 11
228.109
 21
474.715
 31
11.9
  0
LINE
  5
A26
330
A02
100
AcDbEntity
  8
Mesh_cs
100
AcDbLine
 10
228.109
 20
474.715
 30
11.9
 11
228.141
 21
474.74
 31
11.9
  0
LINE
  5
A27
330
A02
100
AcDbEntity
  8
Mesh_cs
100
AcDbLine
 10
228.141
 20
474.74
 30
11.9
 11
231.916
 21
477.736
 31
11.9
  0
LINE
  5
A28
330
A02
100
AcDbEntity
  8
Mesh_cs
100
AcDbLine
 10
231.916
 20
477.736
 30
11.9
 11
231.948
 21
477.762
 31
11.9
  0
LINE
  5
A29
330
A02
100
AcDbEntity
  8
Mesh_cs
100
AcDbLine
 10
231.948
 20
477.762
 30
11.9
 11
235.746
 21
480.728
 31
11.9
  0
LINE
  5
A2A
330
A02
100
AcDbEntity
  8
Mesh_cs
100
AcDbLine
 10
235.746
 20
480.728
 30
11.9
 11
235.778
 21
480.752
 31
11.9
  0
LINE
  5
A2B
330
A02
100
AcDbEntity
  8
Mesh_cs
100
AcDbLine
 10
235.778
 20
480.752
 30
11.9
 11
239.601
 21
483.688
 31
11.9
  0
LINE
  5
A2C
330
A02
100
AcDbEntity
  8
Mesh_cs
100
AcDbLine
 10
239.601
 20
483.688
 30
11.9
 11
239.633
 21
483.712
 31
11.9
  0
LINE
  5
A2D
330
A02
100
AcDbEntity
  8
Mesh_cs
100
AcDbLine
 10
239.633
 20
483.712
 30
11.9
 11
243.479
 21
486.617
 31
11.9
  0
LINE
  5
A2E
330
A02
100
AcDbEntity
  8
Mesh_cs
100
AcDbLine
 10
243.479
 20
486.617
 30
11.9
 11
243.511
 21
486.642
 31
11.9
  0
LINE
  5
A2F
330
A02
100
AcDbEntity
  8
Mesh_cs
100
AcDbLine
 10
243.511
 20
486.642
 30
11.9
 11
247.38
 21
489.515
 31
11.9
  0
LINE
  5
A30
330
A02
100
AcDbEntity
  8
Mesh_cs
100
AcDbLine
 10
247.38
 20
489.515
 30
11.9
 11
247.413
 21
489.54
 31
11.9
  0
LINE
  5
A31
330
A02
100
AcDbEntity
  8
Mesh_cs
100
AcDbLine
 10
247.413
 20
489.54
 30
11.9
 11
251.304
 21
492.382
 31
11.9
  0
LINE
  5
A32
330
A02
100
AcDbEntity
  8
Mesh_cs
100
AcDbLine
 10
251.304
 20
492.382
 30
11.9
 11
251.337
 21
492.406
 31
11.9
  0
LINE
  5
A33
330
A02
100
AcDbEntity
  8
Mesh_cs
100
AcDbLine
 10
251.337
 20
492.406
 30
11.9
 11
255.252
 21
495.218
 31
11.9
  0
LINE
  5
A34
330
A02
100
AcDbEntity
  8
Mesh_cs
100
AcDbLine
 10
255.252
 20
495.218
 30
11.9
 11
255.285
 21
495.242
 31
11.9
  0
LINE
  5
A35
330
A02
100
AcDbEntity
  8
Mesh_cs
100
AcDbLine
 10
255.285
 20
495.242
 30
11.9
 11
259.221
 21
498.022
 31
11.9
  0
LINE
  5
A36
330
A02
100
AcDbEntity
  8
Mesh_cs
100
AcDbLine
 10
259.221
 20
498.022
 30
11.9
 11
259.254
 21
498.045
 31
11.9
  0
LINE
  5
A37
330
A02
100
AcDbEntity
  8
Mesh_cs
100
AcDbLine
 10
259.254
 20
498.045
 30
11.9
 11
263.213
 21
500.794
 31
11.9
  0
LINE
  5
A38
330
A02
100
AcDbEntity
  8
Mesh_cs
100
AcDbLine
 10
263.213
 20
500.794
 30
11.9
 11
263.247
 21
500.817
 31
11.9
  0
LINE
  5
A39
330
A02
100
AcDbEntity
  8
Mesh_cs
100
AcDbLine
 10
263.247
 20
500.817
 30
11.9
 11
267.227
 21
503.534
 31
11.9
  0
LINE
  5
A3A
330
A02
100
AcDbEntity
  8
Mesh_cs
100
AcDbLine
 10
267.227
 20
503.534
 30
11.9
 11
267.261
 21
503.557
 31
11.9
  0
LINE
  5
A3B
330
A02
100
AcDbEntity
  8
Mesh_cs
100
AcDbLine
 10
267.261
 20
503.557
 30
11.9
 11
271.263
 21
506.242
 31
11.9
  0
LINE
  5
A3C
330
A02
100
AcDbEntity
  8
Mesh_cs
100
AcDbLine
 10
271.263
 20
506.242
 30
11.9
 11
271.297
 21
506.265
 31
11.9
  0
LINE
  5
A3D
330
A02
100
AcDbEntity
  8
Mesh_cs
100
AcDbLine
 10
271.297
 20
506.265
 30
11.9
 11
275.32
 21
508.918
 31
11.9
  0
LINE
  5
A3E
330
A02
100
AcDbEntity
  8
Mesh_cs
100
AcDbLine
 10
275.32
 20
508.918
 30
11.9
 11
275.354
 21
508.94
 31
11.9
  0
LINE
  5
A3F
330
A02
100
AcDbEntity
  8
Mesh_cs
100
AcDbLine
 10
275.354
 20
508.94
 30
11.9
 11
279.399
 21
511.561
 31
11.9
  0
LINE
  5
A40
330
A02
100
AcDbEntity
  8
Mesh_cs
100
AcDbLine
 10
279.399
 20
511.561
 30
11.9
 11
279.433
 21
511.583
 31
11.9
  0
LINE
  5
A41
330
A02
100
AcDbEntity
  8
Mesh_cs
100
AcDbLine
 10
279.433
 20
511.583
 30
11.9
 11
283.498
 21
514.171
 31
11.9
  0
LINE
  5
A42
330
A02
100
AcDbEntity
  8
Mesh_cs
100
AcDbLine
 10
283.498
 20
514.171
 30
11.9
 11
283.532
 21
514.193
 31
11.9
  0
LINE
  5
A43
330
A02
100
AcDbEntity
  8
Mesh_cs
100
AcDbLine
 10
283.532
 20
514.193
 30
11.9
 11
287.618
 21
516.748
 31
11.9
  0
LINE
  5
A44
330
A02
100
AcDbEntity
  8
Mesh_cs
100
AcDbLine
 10
287.618
 20
516.748
 30
11.9
 11
287.653
 21
516.77
 31
11.9
  0
LINE
  5
A45
330
A02
100
AcDbEntity
  8
Mesh_cs
100
AcDbLine
 10
287.653
 20
516.77
 30
11.9
 11
291.759
 21
519.293
 31
11.9
  0
LINE
  5
A46
330
A02
100
AcDbEntity
  8
Mesh_cs
100
AcDbLine
 10
291.759
 20
519.293
 30
11.9
 11
291.794
 21
519.314
 31
11.9
  0
LINE
  5
A47
330
A02
100
AcDbEntity
  8
Mesh_cs
100
AcDbLine
 10
291.794
 20
519.314
 30
11.9
 11
295.92
 21
521.804
 31
11.9
  0
LINE
  5
A48
330
A02
100
AcDbEntity
  8
Mesh_cs
100
AcDbLine
 10
295.92
 20
521.804
 30
11.9
 11
295.955
 21
521.825
 31
11.9
  0
LINE
  5
A49
330
A02
100
AcDbEntity
  8
Mesh_cs
100
AcDbLine
 10
295.955
 20
521.825
 30
11.9
 11
300.101
 21
524.282
 31
11.9
  0
LINE
  5
A4A
330
A02
100
AcDbEntity
  8
Mesh_cs
100
AcDbLine
 10
300.101
 20
524.282
 30
11.9
 11
300.136
 21
524.303
 31
11.9
  0
LINE
  5
A4B
330
A02
100
AcDbEntity
  8
Mesh_cs
100
AcDbLine
 10
300.136
 20
524.303
 30
11.9
 11
304.302
 21
526.727
 31
11.9
  0
LINE
  5
A4C
330
A02
100
AcDbEntity
  8
Mesh_cs
100
AcDbLine
 10
304.302
 20
526.727
 30
11.9
 11
304.337
 21
526.747
 31
11.9
  0
LINE
  5
A4D
330
A02
100
AcDbEntity
  8
Mesh_cs
100
AcDbLine
 10
304.337
 20
526.747
 30
11.9
 11
308.521
 21
529.138
 31
11.9
  0
LINE
  5
A4E
330
A02
100
AcDbEntity
  8
Mesh_cs
100
AcDbLine
 10
308.521
 20
529.138
 30
11.9
 11
308.557
 21
529.158
 31
11.9
  0
LINE
  5
A4F
330
A02
100
AcDbEntity
  8
Mesh_cs
100
AcDbLine
 10
308.557
 20
529.158
 30
11.9
 11
312.76
 21
531.515
 31
11.9
  0
LINE
  5
A50
330
A02
100
AcDbEntity
  8
Mesh_cs
100
AcDbLine
 10
312.76
 20
531.515
 30
11.9
 11
312.796
 21
531.535
 31
11.9
  0
LINE
  5
A51
330
A02
100
AcDbEntity
  8
Mesh_cs
100
AcDbLine
 10
312.796
 20
531.535
 30
11.9
 11
317.018
 21
533.858
 31
11.9
  0
LINE
  5
A52
330
A02
100
AcDbEntity
  8
Mesh_cs
100
AcDbLine
 10
317.018
 20
533.858
 30
11.9
 11
317.054
 21
533.877
 31
11.9
  0
LINE
  5
A53
330
A02
100
AcDbEntity
  8
Mesh_cs
100
AcDbLine
 10
317.054
 20
533.877
 30
11.9
 11
321.295
 21
536.167
 31
11.9
  0
LINE
  5
A54
330
A02
100
AcDbEntity
  8
Mesh_cs
100
AcDbLine
 10
321.295
 20
536.167
 30
11.9
 11
321.331
 21
536.186
 31
11.9
  0
LINE
  5
A55
330
A02
100
AcDbEntity
  8
Mesh_cs
100
AcDbLine
 10
321.331
 20
536.186
 30
11.9
 11
325.59
 21
538.441
 31
11.9
  0
LINE
  5
A56
330
A02
100
AcDbEntity
  8
Mesh_cs
100
AcDbLine
 10
325.59
 20
538.441
 30
11.9
 11
325.626
 21
538.46
 31
11.9
  0
LINE
  5
A57
330
A02
100
AcDbEntity
  8
Mesh_cs
100
AcDbLine
 10
325.626
 20
538.46
 30
11.9
 11
329.903
 21
540.682
 31
11.9
  0
LINE
  5
A58
330
A02
100
AcDbEntity
  8
Mesh_cs
100
AcDbLine
 10
329.903
 20
540.682
 30
11.9
 11
329.939
 21
540.7
 31
11.9
  0
LINE
  5
A59
330
A02
100
AcDbEntity
  8
Mesh_cs
100
AcDbLine
 10
329.939
 20
540.7
 30
11.9
 11
334.233
 21
542.887
 31
11.9
  0
LINE
  5
A5A
330
A02
100
AcDbEntity
  8
Mesh_cs
100
AcDbLine
 10
334.233
 20
542.887
 30
11.9
 11
334.27
 21
542.906
 31
11.9
  0
LINE
  5
A5B
330
A02
100
AcDbEntity
  8
Mesh_cs
100
AcDbLine
 10
334.27
 20
542.906
 30
11.9
 11
338.582
 21
545.059
 31
11.9
  0
LINE
  5
A5C
330
A02
100
AcDbEntity
  8
Mesh_cs
100
AcDbLine
 10
338.582
 20
545.059
 30
11.9
 11
338.618
 21
545.077
 31
11.9
  0
LINE
  5
A5D
330
A02
100
AcDbEntity
  8
Mesh_cs
100
AcDbLine
 10
338.618
 20
545.077
 30
11.9
 11
342.947
 21
547.195
 31
11.9
  0
LINE
  5
A5E
330
A02
100
AcDbEntity
  8
Mesh_cs
100
AcDbLine
 10
342.947
 20
547.195
 30
11.9
 11
342.983
 21
547.213
 31
11.9
  0
LINE
  5
A5F
330
A02
100
AcDbEntity
  8
Mesh_cs
100
AcDbLine
 10
342.983
 20
547.213
 30
11.9
 11
347.329
 21
549.296
 31
11.9
  0
LINE
  5
A60
330
A02
100
AcDbEntity
  8
Mesh_cs
100
AcDbLine
 10
347.329
 20
549.296
 30
11.9
 11
347.366
 21
549.314
 31
11.9
  0
LINE
  5
A61
330
A02
100
AcDbEntity
  8
Mesh_cs
100
AcDbLine
 10
347.366
 20
549.314
 30
11.9
 11
351.728
 21
551.362
 31
11.9
  0
LINE
  5
A62
330
A02
100
AcDbEntity
  8
Mesh_cs
100
AcDbLine
 10
351.728
 20
551.362
 30
11.9
 11
351.765
 21
551.379
 31
11.9
  0
LINE
  5
A63
330
A02
100
AcDbEntity
  8
Mesh_cs
100
AcDbLine
 10
351.765
 20
551.379
 30
11.9
 11
356.144
 21
553.393
 31
11.9
  0
LINE
  5
A64
330
A02
100
AcDbEntity
  8
Mesh_cs
100
AcDbLine
 10
356.144
 20
553.393
 30
11.9
 11
356.181
 21
553.41
 31
11.9
  0
LINE
  5
A65
330
A02
100
AcDbEntity
  8
Mesh_cs
100
AcDbLine
 10
356.181
 20
553.41
 30
11.9
 11
360.575
 21
555.389
 31
11.9
  0
LINE
  5
A66
330
A02
100
AcDbEntity
  8
Mesh_cs
100
AcDbLine
 10
360.575
 20
555.389
 30
11.9
 11
360.612
 21
555.405
 31
11.9
  0
LINE
  5
A67
330
A02
100
AcDbEntity
  8
Mesh_cs
100
AcDbLine
 10
360.612
 20
555.405
 30
11.9
 11
365.022
 21
557.349
 31
11.9
  0
LINE
  5
A68
330
A02
100
AcDbEntity
  8
Mesh_cs
100
AcDbLine
 10
365.022
 20
557.349
 30
11.9
 11
365.059
 21
557.365
 31
11.9
  0
LINE
  5
A69
330
A02
100
AcDbEntity
  8
Mesh_cs
100
AcDbLine
 10
365.059
 20
557.365
 30
11.9
 11
369.485
 21
559.273
 31
11.9
  0
LINE
  5
A6A
330
A02
100
AcDbEntity
  8
Mesh_cs
100
AcDbLine
 10
369.485
 20
559.273
 30
11.9
 11
369.522
 21
559.289
 31
11.9
  0
LINE
  5
A6B
330
A02
100
AcDbEntity
  8
Mesh_cs
100
AcDbLine
 10
369.522
 20
559.289
 30
11.9
 11
373.963
 21
561.162
 31
11.9
  0
LINE
  5
A6C
330
A02
100
AcDbEntity
  8
Mesh_cs
100
AcDbLine
 10
373.963
 20
561.162
 30
11.9
 11
374.001
 21
561.178
 31
11.9
  0
LINE
  5
A6D
330
A02
100
AcDbEntity
  8
Mesh_cs
100
AcDbLine
 10
374.001
 20
561.178
 30
11.9
 11
378.456
 21
563.015
 31
11.9
  0
LINE
  5
A6E
330
A02
100
AcDbEntity
  8
Mesh_cs
100
AcDbLine
 10
378.456
 20
563.015
 30
11.9
 11
378.494
 21
563.031
 31
11.9
  0
LINE
  5
A6F
330
A02
100
AcDbEntity
  8
Mesh_cs
100
AcDbLine
 10
378.494
 20
563.031
 30
11.9
 11
382.964
 21
564.832
 31
11.9
  0
LINE
  5
A70
330
A02
100
AcDbEntity
  8
Mesh_cs
100
AcDbLine
 10
382.964
 20
564.832
 30
11.9
 11
383.001
 21
564.847
 31
11.9
  0
LINE
  5
A71
330
A02
100
AcDbEntity
  8
Mesh_cs
100
AcDbLine
 10
383.001
 20
564.847
 30
11.9
 11
387.486
 21
566.613
 31
11.9
  0
LINE
  5
A72
330
A02
100
AcDbEntity
  8
Mesh_cs
100
AcDbLine
 10
387.486
 20
566.613
 30
11.9
 11
387.523
 21
566.628
 31
11.9
  0
LINE
  5
A73
330
A02
100
AcDbEntity
  8
Mesh_cs
100
AcDbLine
 10
387.523
 20
566.628
 30
11.9
 11
392.022
 21
568.357
 31
11.9
  0
LINE
  5
A74
330
A02
100
AcDbEntity
  8
Mesh_cs
100
AcDbLine
 10
392.022
 20
568.357
 30
11.9
 11
392.06
 21
568.372
 31
11.9
  0
LINE
  5
A75
330
A02
100
AcDbEntity
  8
Mesh_cs
100
AcDbLine
 10
392.06
 20
568.372
 30
11.9
 11
392.207
 21
568.427
 31
11.9
  0
LINE
  5
A76
330
A02
100
AcDbEntity
  8
Mesh_cs
100
AcDbLine
 10
392.207
 20
568.427
 30
11.9
 11
396.605
 21
570.079
 31
11.9
  0
LINE
  5
A77
330
A02
100
AcDbEntity
  8
Mesh_cs
100
AcDbLine
 10
396.605
 20
570.079
 30
11.9
 11
396.805
 21
569.464
 31
11.9
  0
LINE
  5
A78
330
A02
100
AcDbEntity
  8
Mesh_cs
100
AcDbLine
 10
396.805
 20
569.464
 30
11.9
 11
402.597
 21
551.638
 31
11.9
  0
LINE
  5
A79
330
A02
100
AcDbEntity
  8
Mesh_cs
100
AcDbLine
 10
402.597
 20
551.638
 30
11.9
 11
402.601
 21
551.627
 31
11.9
  0
LINE
  5
A7A
330
A02
100
AcDbEntity
  8
Mesh_cs
100
AcDbLine
 10
402.601
 20
551.627
 30
11.9
 11
402.736
 21
551.262
 31
11.9
  0
LINE
  5
A7B
330
A02
100
AcDbEntity
  8
Mesh_cs
100
AcDbLine
 10
402.736
 20
551.262
 30
11.9
 11
402.741
 21
551.252
 31
11.9
  0
LINE
  5
A7C
330
A02
100
AcDbEntity
  8
Mesh_cs
100
AcDbLine
 10
402.741
 20
551.252
 30
11.9
 11
402.905
 21
550.898
 31
11.9
  0
LINE
  5
A7D
330
A02
100
AcDbEntity
  8
Mesh_cs
100
AcDbLine
 10
402.905
 20
550.898
 30
11.9
 11
402.912
 21
550.885
 31
11.9
  0
LINE
  5
A7E
330
A02
100
AcDbEntity
  8
Mesh_cs
100
AcDbLine
 10
402.912
 20
550.885
 30
11.9
 11
403.085
 21
550.577
 31
11.9
  0
LINE
  5
A7F
330
A02
100
AcDbEntity
  8
Mesh_cs
100
AcDbLine
 10
403.085
 20
550.577
 30
11.9
 11
403.094
 21
550.564
 31
11.9
  0
LINE
  5
A80
330
A02
100
AcDbEntity
  8
Mesh_cs
100
AcDbLine
 10
403.094
 20
550.564
 30
11.9
 11
403.31
 21
550.241
 31
11.9
  0
LINE
  5
A81
330
A02
100
AcDbEntity
  8
Mesh_cs
100
AcDbLine
 10
403.31
 20
550.241
 30
11.9
 11
403.551
 21
549.936
 31
11.9
  0
LINE
  5
A82
330
A02
100
AcDbEntity
  8
Mesh_cs
100
AcDbLine
 10
403.551
 20
549.936
 30
11.9
 11
403.56
 21
549.924
 31
11.9
  0
LINE
  5
A83
330
A02
100
AcDbEntity
  8
Mesh_cs
100
AcDbLine
 10
403.56
 20
549.924
 30
11.9
 11
403.825
 21
549.639
 31
11.9
  0
LINE
  5
A84
330
A02
100
AcDbEntity
  8
Mesh_cs
100
AcDbLine
 10
403.825
 20
549.639
 30
11.9
 11
403.836
 21
549.629
 31
11.9
  0
LINE
  5
A85
330
A02
100
AcDbEntity
  8
Mesh_cs
100
AcDbLine
 10
403.836
 20
549.629
 30
11.9
 11
404.123
 21
549.366
 31
11.9
  0
LINE
  5
A86
330
A02
100
AcDbEntity
  8
Mesh_cs
100
AcDbLine
 10
404.123
 20
549.366
 30
11.9
 11
404.134
 21
549.357
 31
11.9
  0
LINE
  5
A87
330
A02
100
AcDbEntity
  8
Mesh_cs
100
AcDbLine
 10
404.134
 20
549.357
 30
11.9
 11
404.441
 21
549.118
 31
11.9
  0
LINE
  5
A88
330
A02
100
AcDbEntity
  8
Mesh_cs
100
AcDbLine
 10
404.441
 20
549.118
 30
11.9
 11
404.453
 21
549.109
 31
11.9
  0
LINE
  5
A89
330
A02
100
AcDbEntity
  8
Mesh_cs
100
AcDbLine
 10
404.453
 20
549.109
 30
11.9
 11
404.779
 21
548.896
 31
11.9
  0
LINE
  5
A8A
330
A02
100
AcDbEntity
  8
Mesh_cs
100
AcDbLine
 10
404.779
 20
548.896
 30
11.9
 11
404.792
 21
548.889
 31
11.9
  0
LINE
  5
A8B
330
A02
100
AcDbEntity
  8
Mesh_cs
100
AcDbLine
 10
404.792
 20
548.889
 30
11.9
 11
405.172
 21
548.683
 31
11.9
  0
LINE
  5
A8C
330
A02
100
AcDbEntity
  8
Mesh_cs
100
AcDbLine
 10
405.172
 20
548.683
 30
11.9
 11
405.184
 21
548.677
 31
11.9
  0
LINE
  5
A8D
330
A02
100
AcDbEntity
  8
Mesh_cs
100
AcDbLine
 10
405.184
 20
548.677
 30
11.9
 11
405.581
 21
548.507
 31
11.9
  0
LINE
  5
A8E
330
A02
100
AcDbEntity
  8
Mesh_cs
100
AcDbLine
 10
405.581
 20
548.507
 30
11.9
 11
405.594
 21
548.502
 31
11.9
  0
LINE
  5
A8F
330
A02
100
AcDbEntity
  8
Mesh_cs
100
AcDbLine
 10
405.594
 20
548.502
 30
11.9
 11
406.005
 21
548.368
 31
11.9
  0
LINE
  5
A90
330
A02
100
AcDbEntity
  8
Mesh_cs
100
AcDbLine
 10
406.005
 20
548.368
 30
11.9
 11
406.017
 21
548.364
 31
11.9
  0
LINE
  5
A91
330
A02
100
AcDbEntity
  8
Mesh_cs
100
AcDbLine
 10
406.017
 20
548.364
 30
11.9
 11
406.438
 21
548.268
 31
11.9
  0
LINE
  5
A92
330
A02
100
AcDbEntity
  8
Mesh_cs
100
AcDbLine
 10
406.438
 20
548.268
 30
11.9
 11
406.452
 21
548.265
 31
11.9
  0
LINE
  5
A93
330
A02
100
AcDbEntity
  8
Mesh_cs
100
AcDbLine
 10
406.452
 20
548.265
 30
11.9
 11
406.465
 21
548.263
 31
11.9
  0
LINE
  5
A94
330
A02
100
AcDbEntity
  8
Mesh_cs
100
AcDbLine
 10
406.465
 20
548.263
 30
11.9
 11
406.893
 21
548.204
 31
11.9
  0
LINE
  5
A95
330
A02
100
AcDbEntity
  8
Mesh_cs
100
AcDbLine
 10
406.893
 20
548.204
 30
11.9
 11
406.907
 21
548.203
 31
11.9
  0
LINE
  5
A96
330
A02
100
AcDbEntity
  8
Mesh_cs
100
AcDbLine
 10
406.907
 20
548.203
 30
11.9
 11
407.338
 21
548.183
 31
11.9
  0
LINE
  5
A97
330
A02
100
AcDbEntity
  8
Mesh_cs
100
AcDbLine
 10
407.338
 20
548.183
 30
11.9
 11
407.352
 21
548.183
 31
11.9
  0
LINE
  5
A98
330
A02
100
AcDbEntity
  8
Mesh_cs
100
AcDbLine
 10
407.352
 20
548.183
 30
11.9
 11
407.783
 21
548.201
 31
11.9
  0
LINE
  5
A99
330
A02
100
AcDbEntity
  8
Mesh_cs
100
AcDbLine
 10
407.783
 20
548.201
 30
11.9
 11
407.797
 21
548.203
 31
11.9
  0
LINE
  5
A9A
330
A02
100
AcDbEntity
  8
Mesh_cs
100
AcDbLine
 10
407.797
 20
548.203
 30
11.9
 11
408.225
 21
548.259
 31
11.9
  0
LINE
  5
A9B
330
A02
100
AcDbEntity
  8
Mesh_cs
100
AcDbLine
 10
408.225
 20
548.259
 30
11.9
 11
408.239
 21
548.262
 31
11.9
  0
LINE
  5
A9C
330
A02
100
AcDbEntity
  8
Mesh_cs
100
AcDbLine
 10
408.239
 20
548.262
 30
11.9
 11
408.565
 21
548.332
 31
11.9
  0
LINE
  5
A9D
330
A02
100
AcDbEntity
  8
Mesh_cs
100
AcDbLine
 10
408.565
 20
548.332
 30
11.9
 11
408.578
 21
548.336
 31
11.9
  0
LINE
  5
A9E
330
A02
100
AcDbEntity
  8
Mesh_cs
100
AcDbLine
 10
408.578
 20
548.336
 30
11.9
 11
408.898
 21
548.427
 31
11.9
  0
LINE
  5
A9F
330
A02
100
AcDbEntity
  8
Mesh_cs
100
AcDbLine
 10
408.898
 20
548.427
 30
11.9
 11
409.529
 21
548.632
 31
11.9
  0
LINE
  5
AA0
330
A02
100
AcDbEntity
  8
Mesh_cs
100
AcDbLine
 10
409.529
 20
548.632
 30
11.9
 11
427.824
 21
554.577
 31
11.9
  0
LINE
  5
AA1
330
A02
100
AcDbEntity
  8
Mesh_cs
100
AcDbLine
 10
427.824
 20
554.577
 30
11.9
 11
429.526
 21
549.336
 31
11.9
  0
LINE
  5
AA2
330
A02
100
AcDbEntity
  8
Mesh_cs
100
AcDbLine
 10
429.526
 20
549.336
 30
11.9
 11
444.851
 21
502.174
 31
11.9
  0
LINE
  5
AA3
330
A02
100
AcDbEntity
  8
Mesh_cs
100
AcDbLine
 10
444.851
 20
502.174
 30
11.9
 11
444.42
 21
502.032
 31
11.9
  0
LINE
  5
AA4
330
A02
100
AcDbEntity
  8
Mesh_cs
100
AcDbLine
 10
444.42
 20
502.032
 30
11.9
 11
440.544
 21
500.754
 31
11.9
  0
LINE
  5
AA5
330
A02
100
AcDbEntity
  8
Mesh_cs
100
AcDbLine
 10
440.544
 20
500.754
 30
11.9
 11
440.114
 21
500.608
 31
11.9
  0
LINE
  5
AA6
330
A02
100
AcDbEntity
  8
Mesh_cs
100
AcDbLine
 10
440.114
 20
500.608
 30
11.9
 11
436.249
 21
499.297
 31
11.9
  0
LINE
  5
AA7
330
A02
100
AcDbEntity
  8
Mesh_cs
100
AcDbLine
 10
436.249
 20
499.297
 30
11.9
 11
435.821
 21
499.148
 31
11.9
  0
LINE
  5
AA8
330
A02
100
AcDbEntity
  8
Mesh_cs
100
AcDbLine
 10
435.821
 20
499.148
 30
11.9
 11
431.967
 21
497.803
 31
11.9
  0
LINE
  5
AA9
330
A02
100
AcDbEntity
  8
Mesh_cs
100
AcDbLine
 10
431.967
 20
497.803
 30
11.9
 11
431.54
 21
497.65
 31
11.9
  0
LINE
  5
AAA
330
A02
100
AcDbEntity
  8
Mesh_cs
100
AcDbLine
 10
431.54
 20
497.65
 30
11.9
 11
427.698
 21
496.273
 31
11.9
  0
LINE
  5
AAB
330
A02
100
AcDbEntity
  8
Mesh_cs
100
AcDbLine
 10
427.698
 20
496.273
 30
11.9
 11
427.272
 21
496.116
 31
11.9
  0
LINE
  5
AAC
330
A02
100
AcDbEntity
  8
Mesh_cs
100
AcDbLine
 10
427.272
 20
496.116
 30
11.9
 11
423.442
 21
494.706
 31
11.9
  0
LINE
  5
AAD
330
A02
100
AcDbEntity
  8
Mesh_cs
100
AcDbLine
 10
423.442
 20
494.706
 30
11.9
 11
423.018
 21
494.546
 31
11.9
  0
LINE
  5
AAE
330
A02
100
AcDbEntity
  8
Mesh_cs
100
AcDbLine
 10
423.018
 20
494.546
 30
11.9
 11
419.2
 21
493.102
 31
11.9
  0
LINE
  5
AAF
330
A02
100
AcDbEntity
  8
Mesh_cs
100
AcDbLine
 10
419.2
 20
493.102
 30
11.9
 11
418.777
 21
492.938
 31
11.9
  0
LINE
  5
AB0
330
A02
100
AcDbEntity
  8
Mesh_cs
100
AcDbLine
 10
418.777
 20
492.938
 30
11.9
 11
414.972
 21
491.462
 31
11.9
  0
LINE
  5
AB1
330
A02
100
AcDbEntity
  8
Mesh_cs
100
AcDbLine
 10
414.972
 20
491.462
 30
11.9
 11
414.551
 21
491.295
 31
11.9
  0
LINE
  5
AB2
330
A02
100
AcDbEntity
  8
Mesh_cs
100
AcDbLine
 10
414.551
 20
491.295
 30
11.9
 11
410.758
 21
489.786
 31
11.9
  0
LINE
  5
AB3
330
A02
100
AcDbEntity
  8
Mesh_cs
100
AcDbLine
 10
410.758
 20
489.786
 30
11.9
 11
410.338
 21
489.615
 31
11.9
  0
LINE
  5
AB4
330
A02
100
AcDbEntity
  8
Mesh_cs
100
AcDbLine
 10
410.338
 20
489.615
 30
11.9
 11
406.559
 21
488.074
 31
11.9
  0
LINE
  5
AB5
330
A02
100
AcDbEntity
  8
Mesh_cs
100
AcDbLine
 10
406.559
 20
488.074
 30
11.9
 11
406.14
 21
487.899
 31
11.9
  0
LINE
  5
AB6
330
A02
100
AcDbEntity
  8
Mesh_cs
100
AcDbLine
 10
406.14
 20
487.899
 30
11.9
 11
402.374
 21
486.326
 31
11.9
  0
LINE
  5
AB7
330
A02
100
AcDbEntity
  8
Mesh_cs
100
AcDbLine
 10
402.374
 20
486.326
 30
11.9
 11
401.958
 21
486.147
 31
11.9
  0
LINE
  5
AB8
330
A02
100
AcDbEntity
  8
Mesh_cs
100
AcDbLine
 10
401.958
 20
486.147
 30
11.9
 11
398.205
 21
484.542
 31
11.9
  0
LINE
  5
AB9
330
A02
100
AcDbEntity
  8
Mesh_cs
100
AcDbLine
 10
398.205
 20
484.542
 30
11.9
 11
397.79
 21
484.36
 31
11.9
  0
LINE
  5
ABA
330
A02
100
AcDbEntity
  8
Mesh_cs
100
AcDbLine
 10
397.79
 20
484.36
 30
11.9
 11
394.051
 21
482.722
 31
11.9
  0
LINE
  5
ABB
330
A02
100
AcDbEntity
  8
Mesh_cs
100
AcDbLine
 10
394.051
 20
482.722
 30
11.9
 11
393.638
 21
482.536
 31
11.9
  0
LINE
  5
ABC
330
A02
100
AcDbEntity
  8
Mesh_cs
100
AcDbLine
 10
393.638
 20
482.536
 30
11.9
 11
389.913
 21
480.866
 31
11.9
  0
LINE
  5
ABD
330
A02
100
AcDbEntity
  8
Mesh_cs
100
AcDbLine
 10
389.913
 20
480.866
 30
11.9
 11
389.501
 21
480.677
 31
11.9
  0
LINE
  5
ABE
330
A02
100
AcDbEntity
  8
Mesh_cs
100
AcDbLine
 10
389.501
 20
480.677
 30
11.9
 11
385.791
 21
478.975
 31
11.9
  0
LINE
  5
ABF
330
A02
100
AcDbEntity
  8
Mesh_cs
100
AcDbLine
 10
385.791
 20
478.975
 30
11.9
 11
385.381
 21
478.783
 31
11.9
  0
LINE
  5
AC0
330
A02
100
AcDbEntity
  8
Mesh_cs
100
AcDbLine
 10
385.381
 20
478.783
 30
11.9
 11
381.686
 21
477.049
 31
11.9
  0
LINE
  5
AC1
330
A02
100
AcDbEntity
  8
Mesh_cs
100
AcDbLine
 10
381.686
 20
477.049
 30
11.9
 11
381.277
 21
476.853
 31
11.9
  0
LINE
  5
AC2
330
A02
100
AcDbEntity
  8
Mesh_cs
100
AcDbLine
 10
381.277
 20
476.853
 30
11.9
 11
377.597
 21
475.088
 31
11.9
  0
LINE
  5
AC3
330
A02
100
AcDbEntity
  8
Mesh_cs
100
AcDbLine
 10
377.597
 20
475.088
 30
11.9
 11
377.19
 21
474.888
 31
11.9
  0
LINE
  5
AC4
330
A02
100
AcDbEntity
  8
Mesh_cs
100
AcDbLine
 10
377.19
 20
474.888
 30
11.9
 11
373.525
 21
473.091
 31
11.9
  0
LINE
  5
AC5
330
A02
100
AcDbEntity
  8
Mesh_cs
100
AcDbLine
 10
373.525
 20
473.091
 30
11.9
 11
373.12
 21
472.888
 31
11.9
  0
LINE
  5
AC6
330
A02
100
AcDbEntity
  8
Mesh_cs
100
AcDbLine
 10
373.12
 20
472.888
 30
11.9
 11
369.47
 21
471.06
 31
11.9
  0
LINE
  5
AC7
330
A02
100
AcDbEntity
  8
Mesh_cs
100
AcDbLine
 10
369.47
 20
471.06
 30
11.9
 11
369.067
 21
470.853
 31
11.9
  0
LINE
  5
AC8
330
A02
100
AcDbEntity
  8
Mesh_cs
100
AcDbLine
 10
369.067
 20
470.853
 30
11.9
 11
365.433
 21
468.994
 31
11.9
  0
LINE
  5
AC9
330
A02
100
AcDbEntity
  8
Mesh_cs
100
AcDbLine
 10
365.433
 20
468.994
 30
11.9
 11
365.032
 21
468.784
 31
11.9
  0
LINE
  5
ACA
330
A02
100
AcDbEntity
  8
Mesh_cs
100
AcDbLine
 10
365.032
 20
468.784
 30
11.9
 11
361.414
 21
466.893
 31
11.9
  0
LINE
  5
ACB
330
A02
100
AcDbEntity
  8
Mesh_cs
100
AcDbLine
 10
361.414
 20
466.893
 30
11.9
 11
361.014
 21
466.679
 31
11.9
  0
LINE
  5
ACC
330
A02
100
AcDbEntity
  8
Mesh_cs
100
AcDbLine
 10
361.014
 20
466.679
 30
11.9
 11
357.414
 21
464.758
 31
11.9
  0
LINE
  5
ACD
330
A02
100
AcDbEntity
  8
Mesh_cs
100
AcDbLine
 10
357.414
 20
464.758
 30
11.9
 11
357.015
 21
464.541
 31
11.9
  0
LINE
  5
ACE
330
A02
100
AcDbEntity
  8
Mesh_cs
100
AcDbLine
 10
357.015
 20
464.541
 30
11.9
 11
353.431
 21
462.588
 31
11.9
  0
LINE
  5
ACF
330
A02
100
AcDbEntity
  8
Mesh_cs
100
AcDbLine
 10
353.431
 20
462.588
 30
11.9
 11
353.035
 21
462.368
 31
11.9
  0
LINE
  5
AD0
330
A02
100
AcDbEntity
  8
Mesh_cs
100
AcDbLine
 10
353.035
 20
462.368
 30
11.9
 11
349.467
 21
460.385
 31
11.9
  0
LINE
  5
AD1
330
A02
100
AcDbEntity
  8
Mesh_cs
100
AcDbLine
 10
349.467
 20
460.385
 30
11.9
 11
349.073
 21
460.161
 31
11.9
  0
LINE
  5
AD2
330
A02
100
AcDbEntity
  8
Mesh_cs
100
AcDbLine
 10
349.073
 20
460.161
 30
11.9
 11
345.523
 21
458.147
 31
11.9
  0
LINE
  5
AD3
330
A02
100
AcDbEntity
  8
Mesh_cs
100
AcDbLine
 10
345.523
 20
458.147
 30
11.9
 11
345.13
 21
457.92
 31
11.9
  0
LINE
  5
AD4
330
A02
100
AcDbEntity
  8
Mesh_cs
100
AcDbLine
 10
345.13
 20
457.92
 30
11.9
 11
341.598
 21
455.876
 31
11.9
  0
LINE
  5
AD5
330
A02
100
AcDbEntity
  8
Mesh_cs
100
AcDbLine
 10
341.598
 20
455.876
 30
11.9
 11
341.207
 21
455.645
 31
11.9
  0
LINE
  5
AD6
330
A02
100
AcDbEntity
  8
Mesh_cs
100
AcDbLine
 10
341.207
 20
455.645
 30
11.9
 11
337.692
 21
453.571
 31
11.9
  0
LINE
  5
AD7
330
A02
100
AcDbEntity
  8
Mesh_cs
100
AcDbLine
 10
337.692
 20
453.571
 30
11.9
 11
337.304
 21
453.337
 31
11.9
  0
LINE
  5
AD8
330
A02
100
AcDbEntity
  8
Mesh_cs
100
AcDbLine
 10
337.304
 20
453.337
 30
11.9
 11
333.807
 21
451.232
 31
11.9
  0
LINE
  5
AD9
330
A02
100
AcDbEntity
  8
Mesh_cs
100
AcDbLine
 10
333.807
 20
451.232
 30
11.9
 11
333.42
 21
450.995
 31
11.9
  0
LINE
  5
ADA
330
A02
100
AcDbEntity
  8
Mesh_cs
100
AcDbLine
 10
333.42
 20
450.995
 30
11.9
 11
329.941
 21
448.86
 31
11.9
  0
LINE
  5
ADB
330
A02
100
AcDbEntity
  8
Mesh_cs
100
AcDbLine
 10
329.941
 20
448.86
 30
11.9
 11
329.557
 21
448.62
 31
11.9
  0
LINE
  5
ADC
330
A02
100
AcDbEntity
  8
Mesh_cs
100
AcDbLine
 10
329.557
 20
448.62
 30
11.9
 11
326.096
 21
446.456
 31
11.9
  0
LINE
  5
ADD
330
A02
100
AcDbEntity
  8
Mesh_cs
100
AcDbLine
 10
326.096
 20
446.456
 30
11.9
 11
325.714
 21
446.212
 31
11.9
  0
LINE
  5
ADE
330
A02
100
AcDbEntity
  8
Mesh_cs
100
AcDbLine
 10
325.714
 20
446.212
 30
11.9
 11
322.272
 21
444.018
 31
11.9
  0
LINE
  5
ADF
330
A02
100
AcDbEntity
  8
Mesh_cs
100
AcDbLine
 10
322.272
 20
444.018
 30
11.9
 11
321.892
 21
443.771
 31
11.9
  0
LINE
  5
AE0
330
A02
100
AcDbEntity
  8
Mesh_cs
100
AcDbLine
 10
321.892
 20
443.771
 30
11.9
 11
318.469
 21
441.547
 31
11.9
  0
LINE
  5
AE1
330
A02
100
AcDbEntity
  8
Mesh_cs
100
AcDbLine
 10
318.469
 20
441.547
 30
11.9
 11
318.091
 21
441.297
 31
11.9
  0
LINE
  5
AE2
330
A02
100
AcDbEntity
  8
Mesh_cs
100
AcDbLine
 10
318.091
 20
441.297
 30
11.9
 11
314.688
 21
439.044
 31
11.9
  0
LINE
  5
AE3
330
A02
100
AcDbEntity
  8
Mesh_cs
100
AcDbLine
 10
314.688
 20
439.044
 30
11.9
 11
314.312
 21
438.791
 31
11.9
  0
LINE
  5
AE4
330
A02
100
AcDbEntity
  8
Mesh_cs
100
AcDbLine
 10
314.312
 20
438.791
 30
11.9
 11
310.928
 21
436.509
 31
11.9
  0
LINE
  5
AE5
330
A02
100
AcDbEntity
  8
Mesh_cs
100
AcDbLine
 10
310.928
 20
436.509
 30
11.9
 11
310.554
 21
436.252
 31
11.9
  0
LINE
  5
AE6
330
A02
100
AcDbEntity
  8
Mesh_cs
100
AcDbLine
 10
310.554
 20
436.252
 30
11.9
 11
307.19
 21
433.941
 31
11.9
  0
LINE
  5
AE7
330
A02
100
AcDbEntity
  8
Mesh_cs
100
AcDbLine
 10
307.19
 20
433.941
 30
11.9
 11
306.818
 21
433.681
 31
11.9
  0
LINE
  5
AE8
330
A02
100
AcDbEntity
  8
Mesh_cs
100
AcDbLine
 10
306.818
 20
433.681
 30
11.9
 11
303.474
 21
431.341
 31
11.9
  0
LINE
  5
AE9
330
A02
100
AcDbEntity
  8
Mesh_cs
100
AcDbLine
 10
303.474
 20
431.341
 30
11.9
 11
303.104
 21
431.078
 31
11.9
  0
LINE
  5
AEA
330
A02
100
AcDbEntity
  8
Mesh_cs
100
AcDbLine
 10
303.104
 20
431.078
 30
11.9
 11
299.78
 21
428.71
 31
11.9
  0
LINE
  5
AEB
330
A02
100
AcDbEntity
  8
Mesh_cs
100
AcDbLine
 10
299.78
 20
428.71
 30
11.9
 11
299.413
 21
428.443
 31
11.9
  0
LINE
  5
AEC
330
A02
100
AcDbEntity
  8
Mesh_cs
100
AcDbLine
 10
299.413
 20
428.443
 30
11.9
 11
296.11
 21
426.047
 31
11.9
  0
LINE
  5
AED
330
A02
100
AcDbEntity
  8
Mesh_cs
100
AcDbLine
 10
296.11
 20
426.047
 30
11.9
 11
295.745
 21
425.777
 31
11.9
  0
LINE
  5
AEE
330
A02
100
AcDbEntity
  8
Mesh_cs
100
AcDbLine
 10
295.745
 20
425.777
 30
11.9
 11
292.462
 21
423.352
 31
11.9
  0
LINE
  5
AEF
330
A02
100
AcDbEntity
  8
Mesh_cs
100
AcDbLine
 10
292.462
 20
423.352
 30
11.9
 11
292.1
 21
423.079
 31
11.9
  0
LINE
  5
AF0
330
A02
100
AcDbEntity
  8
Mesh_cs
100
AcDbLine
 10
292.1
 20
423.079
 30
11.9
 11
288.838
 21
420.626
 31
11.9
  0
LINE
  5
AF1
330
A02
100
AcDbEntity
  8
Mesh_cs
100
AcDbLine
 10
288.838
 20
420.626
 30
11.9
 11
288.478
 21
420.35
 31
11.9
  0
LINE
  5
AF2
330
A02
100
AcDbEntity
  8
Mesh_cs
100
AcDbLine
 10
288.478
 20
420.35
 30
11.9
 11
285.237
 21
417.869
 31
11.9
  0
LINE
  5
AF3
330
A02
100
AcDbEntity
  8
Mesh_cs
100
AcDbLine
 10
285.237
 20
417.869
 30
11.9
 11
284.879
 21
417.591
 31
11.9
  0
LINE
  5
AF4
330
A02
100
AcDbEntity
  8
Mesh_cs
100
AcDbLine
 10
284.879
 20
417.591
 30
11.9
 11
281.66
 21
415.082
 31
11.9
  0
LINE
  5
AF5
330
A02
100
AcDbEntity
  8
Mesh_cs
100
AcDbLine
 10
281.66
 20
415.082
 30
11.9
 11
281.305
 21
414.8
 31
11.9
  0
LINE
  5
AF6
330
A02
100
AcDbEntity
  8
Mesh_cs
100
AcDbLine
 10
281.305
 20
414.8
 30
11.9
 11
278.107
 21
412.263
 31
11.9
  0
LINE
  5
AF7
330
A02
100
AcDbEntity
  8
Mesh_cs
100
AcDbLine
 10
278.107
 20
412.263
 30
11.9
 11
277.754
 21
411.979
 31
11.9
  0
LINE
  5
AF8
330
A02
100
AcDbEntity
  8
Mesh_cs
100
AcDbLine
 10
277.754
 20
411.979
 30
11.9
 11
274.578
 21
409.415
 31
11.9
  0
LINE
  5
AF9
330
A02
100
AcDbEntity
  8
Mesh_cs
100
AcDbLine
 10
274.578
 20
409.415
 30
11.9
 11
274.228
 21
409.127
 31
11.9
  0
LINE
  5
AFA
330
A02
100
AcDbEntity
  8
Mesh_cs
100
AcDbLine
 10
274.228
 20
409.127
 30
11.9
 11
271.074
 21
406.536
 31
11.9
  0
LINE
  5
AFB
330
A02
100
AcDbEntity
  8
Mesh_cs
100
AcDbLine
 10
271.074
 20
406.536
 30
11.9
 11
270.726
 21
406.245
 31
11.9
  0
LINE
  5
AFC
330
A02
100
AcDbEntity
  8
Mesh_cs
100
AcDbLine
 10
270.726
 20
406.245
 30
11.9
 11
267.595
 21
403.627
 31
11.9
  0
LINE
  5
AFD
330
A02
100
AcDbEntity
  8
Mesh_cs
100
AcDbLine
 10
267.595
 20
403.627
 30
11.9
 11
267.25
 21
403.333
 31
11.9
  0
LINE
  5
AFE
330
A02
100
AcDbEntity
  8
Mesh_cs
100
AcDbLine
 10
267.25
 20
403.333
 30
11.9
 11
264.141
 21
400.688
 31
11.9
  0
LINE
  5
AFF
330
A02
100
AcDbEntity
  8
Mesh_cs
100
AcDbLine
 10
264.141
 20
400.688
 30
11.9
 11
263.798
 21
400.391
 31
11.9
  0
LINE
  5
B00
330
A02
100
AcDbEntity
  8
Mesh_cs
100
AcDbLine
 10
263.798
 20
400.391
 30
11.9
 11
260.712
 21
397.72
 31
11.9
  0
LINE
  5
B01
330
A02
100
AcDbEntity
  8
Mesh_cs
100
AcDbLine
 10
260.712
 20
397.72
 30
11.9
 11
260.372
 21
397.42
 31
11.9
  0
LINE
  5
B02
330
A02
100
AcDbEntity
  8
Mesh_cs
100
AcDbLine
 10
260.372
 20
397.42
 30
11.9
 11
257.309
 21
394.723
 31
11.9
  0
LINE
  5
B03
330
A02
100
AcDbEntity
  8
Mesh_cs
100
AcDbLine
 10
257.309
 20
394.723
 30
11.9
 11
256.972
 21
394.42
 31
11.9
  0
LINE
  5
B04
330
A02
100
AcDbEntity
  8
Mesh_cs
100
AcDbLine
 10
256.972
 20
394.42
 30
11.9
 11
253.932
 21
391.696
 31
11.9
  0
LINE
  5
B05
330
A02
100
AcDbEntity
  8
Mesh_cs
100
AcDbLine
 10
253.932
 20
391.696
 30
11.9
 11
253.597
 21
391.39
 31
11.9
  0
LINE
  5
B06
330
A02
100
AcDbEntity
  8
Mesh_cs
100
AcDbLine
 10
253.597
 20
391.39
 30
11.9
 11
250.581
 21
388.64
 31
11.9
  0
LINE
  5
B07
330
A02
100
AcDbEntity
  8
Mesh_cs
100
AcDbLine
 10
250.581
 20
388.64
 30
11.9
 11
250.248
 21
388.332
 31
11.9
  0
LINE
  5
B08
330
A02
100
AcDbEntity
  8
Mesh_cs
100
AcDbLine
 10
250.248
 20
388.332
 30
11.9
 11
247.256
 21
385.556
 31
11.9
  0
LINE
  5
B09
330
A02
100
AcDbEntity
  8
Mesh_cs
100
AcDbLine
 10
247.256
 20
385.556
 30
11.9
 11
246.926
 21
385.245
 31
11.9
  0
LINE
  5
B0A
330
A02
100
AcDbEntity
  8
Mesh_cs
100
AcDbLine
 10
246.926
 20
385.245
 30
11.9
 11
243.958
 21
382.443
 31
11.9
  0
LINE
  5
B0B
330
A02
100
AcDbEntity
  8
Mesh_cs
100
AcDbLine
 10
243.958
 20
382.443
 30
11.9
 11
243.631
 21
382.129
 31
11.9
  0
LINE
  5
B0C
330
A02
100
AcDbEntity
  8
Mesh_cs
100
AcDbLine
 10
243.631
 20
382.129
 30
11.9
 11
240.687
 21
379.303
 31
11.9
  0
LINE
  5
B0D
330
A02
100
AcDbEntity
  8
Mesh_cs
100
AcDbLine
 10
240.687
 20
379.303
 30
11.9
 11
240.362
 21
378.986
 31
11.9
  0
LINE
  5
B0E
330
A02
100
AcDbEntity
  8
Mesh_cs
100
AcDbLine
 10
240.362
 20
378.986
 30
11.9
 11
237.443
 21
376.134
 31
11.9
  0
LINE
  5
B0F
330
A02
100
AcDbEntity
  8
Mesh_cs
100
AcDbLine
 10
237.443
 20
376.134
 30
11.9
 11
237.121
 21
375.814
 31
11.9
  0
LINE
  5
B10
330
A02
100
AcDbEntity
  8
Mesh_cs
100
AcDbLine
 10
237.121
 20
375.814
 30
11.9
 11
234.226
 21
372.937
 31
11.9
  0
LINE
  5
B11
330
A02
100
AcDbEntity
  8
Mesh_cs
100
AcDbLine
 10
234.226
 20
372.937
 30
11.9
 11
233.907
 21
372.615
 31
11.9
  0
LINE
  5
B12
330
A02
100
AcDbEntity
  8
Mesh_cs
100
AcDbLine
 10
233.907
 20
372.615
 30
11.9
 11
231.037
 21
369.713
 31
11.9
  0
LINE
  5
B13
330
A02
100
AcDbEntity
  8
Mesh_cs
100
AcDbLine
 10
231.037
 20
369.713
 30
11.9
 11
230.721
 21
369.388
 31
11.9
  0
LINE
  5
B14
330
A02
100
AcDbEntity
  8
Mesh_cs
100
AcDbLine
 10
230.721
 20
369.388
 30
11.9
 11
227.875
 21
366.462
 31
11.9
  0
LINE
  5
B15
330
A02
100
AcDbEntity
  8
Mesh_cs
100
AcDbLine
 10
227.875
 20
366.462
 30
11.9
 11
227.562
 21
366.134
 31
11.9
  0
LINE
  5
B16
330
A02
100
AcDbEntity
  8
Mesh_cs
100
AcDbLine
 10
227.562
 20
366.134
 30
11.9
 11
224.742
 21
363.183
 31
11.9
  0
LINE
  5
B17
330
A02
100
AcDbEntity
  8
Mesh_cs
100
AcDbLine
 10
224.742
 20
363.183
 30
11.9
 11
224.431
 21
362.853
 31
11.9
  0
LINE
  5
B18
330
A02
100
AcDbEntity
  8
Mesh_cs
100
AcDbLine
 10
224.431
 20
362.853
 30
11.9
 11
221.637
 21
359.878
 31
11.9
  0
LINE
  5
B19
330
A02
100
AcDbEntity
  8
Mesh_cs
100
AcDbLine
 10
221.637
 20
359.878
 30
11.9
 11
221.329
 21
359.545
 31
11.9
  0
LINE
  5
B1A
330
A02
100
AcDbEntity
  8
Mesh_cs
100
AcDbLine
 10
221.329
 20
359.545
 30
11.9
 11
218.56
 21
356.546
 31
11.9
  0
LINE
  5
B1B
330
A02
100
AcDbEntity
  8
Mesh_cs
100
AcDbLine
 10
218.56
 20
356.546
 30
11.9
 11
218.255
 21
356.21
 31
11.9
  0
LINE
  5
B1C
330
A02
100
AcDbEntity
  8
Mesh_cs
100
AcDbLine
 10
218.255
 20
356.21
 30
11.9
 11
215.512
 21
353.188
 31
11.9
  0
LINE
  5
B1D
330
A02
100
AcDbEntity
  8
Mesh_cs
100
AcDbLine
 10
215.512
 20
353.188
 30
11.9
 11
215.21
 21
352.85
 31
11.9
  0
LINE
  5
B1E
330
A02
100
AcDbEntity
  8
Mesh_cs
100
AcDbLine
 10
215.21
 20
352.85
 30
11.9
 11
212.493
 21
349.804
 31
11.9
  0
LINE
  5
B1F
330
A02
100
AcDbEntity
  8
Mesh_cs
100
AcDbLine
 10
212.493
 20
349.804
 30
11.9
 11
212.194
 21
349.463
 31
11.9
  0
LINE
  5
B20
330
A02
100
AcDbEntity
  8
Mesh_cs
100
AcDbLine
 10
212.194
 20
349.463
 30
11.9
 11
209.504
 21
346.394
 31
11.9
  0
LINE
  5
B21
330
A02
100
AcDbEntity
  8
Mesh_cs
100
AcDbLine
 10
209.504
 20
346.394
 30
11.9
 11
209.207
 21
346.051
 31
11.9
  0
LINE
  5
B22
330
A02
100
AcDbEntity
  8
Mesh_cs
100
AcDbLine
 10
209.207
 20
346.051
 30
11.9
 11
206.543
 21
342.959
 31
11.9
  0
LINE
  5
B23
330
A02
100
AcDbEntity
  8
Mesh_cs
100
AcDbLine
 10
206.543
 20
342.959
 30
11.9
 11
206.25
 21
342.613
 31
11.9
  0
LINE
  5
B24
330
A02
100
AcDbEntity
  8
Mesh_cs
100
AcDbLine
 10
206.25
 20
342.613
 30
11.9
 11
203.612
 21
339.498
 31
11.9
  0
LINE
  5
B25
330
A02
100
AcDbEntity
  8
Mesh_cs
100
AcDbLine
 10
203.612
 20
339.498
 30
11.9
 11
203.322
 21
339.149
 31
11.9
  0
LINE
  5
B26
330
A02
100
AcDbEntity
  8
Mesh_cs
100
AcDbLine
 10
203.322
 20
339.149
 30
11.9
 11
200.711
 21
336.012
 31
11.9
  0
LINE
  5
B27
330
A02
100
AcDbEntity
  8
Mesh_cs
100
AcDbLine
 10
200.711
 20
336.012
 30
11.9
 11
200.424
 21
335.661
 31
11.9
  0
LINE
  5
B28
330
A02
100
AcDbEntity
  8
Mesh_cs
100
AcDbLine
 10
200.424
 20
335.661
 30
11.9
 11
197.841
 21
332.501
 31
11.9
  0
LINE
  5
B29
330
A02
100
AcDbEntity
  8
Mesh_cs
100
AcDbLine
 10
197.841
 20
332.501
 30
11.9
 11
197.557
 21
332.148
 31
11.9
  0
LINE
  5
B2A
330
A02
100
AcDbEntity
  8
Mesh_cs
100
AcDbLine
 10
197.557
 20
332.148
 30
11.9
 11
195
 21
328.966
 31
11.9
  0
LINE
  5
B2B
330
A02
100
AcDbEntity
  8
Mesh_cs
100
AcDbLine
 10
195
 20
328.966
 30
11.9
 11
195
 21
434.484
 31
11.9
  0
LINE
  5
B2C
330
A02
100
AcDbEntity
  8
Mesh_cs
100
AcDbLine
 10
195
 20
434.484
 30
11.9
 11
195
 21
446.208
 31
11.9
  0
LINE
  5
B2D
330
A02
100
AcDbEntity
  8
Mesh_cs
100
AcDbLine
 10
454.237
 20
383.331
 30
11.9
 11
454.246
 21
383.343
 31
11.9
  0
LINE
  5
B2E
330
A02
100
AcDbEntity
  8
Mesh_cs
100
AcDbLine
 10
454.246
 20
383.343
 30
11.9
 11
454.312
 21
383.424
 31
11.9
  0
LINE
  5
B2F
330
A02
100
AcDbEntity
  8
Mesh_cs
100
AcDbLine
 10
454.312
 20
383.424
 30
11.9
 11
454.433
 21
383.579
 31
11.9
  0
LINE
  5
B30
330
A02
100
AcDbEntity
  8
Mesh_cs
100
AcDbLine
 10
454.433
 20
383.579
 30
11.9
 11
454.563
 21
383.728
 31
11.9
  0
LINE
  5
B31
330
A02
100
AcDbEntity
  8
Mesh_cs
100
AcDbLine
 10
454.563
 20
383.728
 30
11.9
 11
454.601
 21
383.769
 31
11.9
  0
LINE
  5
B32
330
A02
100
AcDbEntity
  8
Mesh_cs
100
AcDbLine
 10
454.601
 20
383.769
 30
11.9
 11
454.824
 21
383.989
 31
11.9
  0
LINE
  5
B33
330
A02
100
AcDbEntity
  8
Mesh_cs
100
AcDbLine
 10
454.824
 20
383.989
 30
11.9
 11
454.921
 21
384.081
 31
11.9
  0
LINE
  5
B34
330
A02
100
AcDbEntity
  8
Mesh_cs
100
AcDbLine
 10
454.921
 20
384.081
 30
11.9
 11
455.127
 21
384.252
 31
11.9
  0
LINE
  5
B35
330
A02
100
AcDbEntity
  8
Mesh_cs
100
AcDbLine
 10
455.127
 20
384.252
 30
11.9
 11
455.269
 21
384.365
 31
11.9
  0
LINE
  5
B36
330
A02
100
AcDbEntity
  8
Mesh_cs
100
AcDbLine
 10
455.269
 20
384.365
 30
11.9
 11
455.49
 21
384.517
 31
11.9
  0
LINE
  5
B37
330
A02
100
AcDbEntity
  8
Mesh_cs
100
AcDbLine
 10
455.49
 20
384.517
 30
11.9
 11
455.61
 21
384.598
 31
11.9
  0
LINE
  5
B38
330
A02
100
AcDbEntity
  8
Mesh_cs
100
AcDbLine
 10
455.61
 20
384.598
 30
11.9
 11
455.636
 21
384.613
 31
11.9
  0
LINE
  5
B39
330
A02
100
AcDbEntity
  8
Mesh_cs
100
AcDbLine
 10
455.636
 20
384.613
 30
11.9
 11
455.951
 21
384.791
 31
11.9
  0
LINE
  5
B3A
330
A02
100
AcDbEntity
  8
Mesh_cs
100
AcDbLine
 10
455.951
 20
384.791
 30
11.9
 11
455.976
 21
384.804
 31
11.9
  0
LINE
  5
B3B
330
A02
100
AcDbEntity
  8
Mesh_cs
100
AcDbLine
 10
455.976
 20
384.804
 30
11.9
 11
456.304
 21
384.957
 31
11.9
  0
LINE
  5
B3C
330
A02
100
AcDbEntity
  8
Mesh_cs
100
AcDbLine
 10
456.304
 20
384.957
 30
11.9
 11
456.329
 21
384.968
 31
11.9
  0
LINE
  5
B3D
330
A02
100
AcDbEntity
  8
Mesh_cs
100
AcDbLine
 10
456.329
 20
384.968
 30
11.9
 11
456.669
 21
385.094
 31
11.9
  0
LINE
  5
B3E
330
A02
100
AcDbEntity
  8
Mesh_cs
100
AcDbLine
 10
456.669
 20
385.094
 30
11.9
 11
456.681
 21
385.098
 31
11.9
  0
LINE
  5
B3F
330
A02
100
AcDbEntity
  8
Mesh_cs
100
AcDbLine
 10
456.681
 20
385.098
 30
11.9
 11
456.706
 21
385.108
 31
11.9
  0
LINE
  5
B40
330
A02
100
AcDbEntity
  8
Mesh_cs
100
AcDbLine
 10
456.706
 20
385.108
 30
11.9
 11
450.762
 21
403.403
 31
11.9
  0
LINE
  5
B41
330
A02
100
AcDbEntity
  8
Mesh_cs
100
AcDbLine
 10
450.762
 20
403.403
 30
11.9
 11
450.557
 21
404.034
 31
11.9
  0
LINE
  5
B42
330
A02
100
AcDbEntity
  8
Mesh_cs
100
AcDbLine
 10
450.557
 20
404.034
 30
11.9
 11
450.554
 21
404.044
 31
11.9
  0
LINE
  5
B43
330
A02
100
AcDbEntity
  8
Mesh_cs
100
AcDbLine
 10
450.554
 20
404.044
 30
11.9
 11
450.448
 21
404.419
 31
11.9
  0
LINE
  5
B44
330
A02
100
AcDbEntity
  8
Mesh_cs
100
AcDbLine
 10
450.448
 20
404.419
 30
11.9
 11
450.446
 21
404.43
 31
11.9
  0
LINE
  5
B45
330
A02
100
AcDbEntity
  8
Mesh_cs
100
AcDbLine
 10
450.446
 20
404.43
 30
11.9
 11
450.371
 21
404.813
 31
11.9
  0
LINE
  5
B46
330
A02
100
AcDbEntity
  8
Mesh_cs
100
AcDbLine
 10
450.371
 20
404.813
 30
11.9
 11
450.369
 21
404.827
 31
11.9
  0
LINE
  5
B47
330
A02
100
AcDbEntity
  8
Mesh_cs
100
AcDbLine
 10
450.369
 20
404.827
 30
11.9
 11
450.328
 21
405.179
 31
11.9
  0
LINE
  5
B48
330
A02
100
AcDbEntity
  8
Mesh_cs
100
AcDbLine
 10
450.328
 20
405.179
 30
11.9
 11
450.327
 21
405.194
 31
11.9
  0
LINE
  5
B49
330
A02
100
AcDbEntity
  8
Mesh_cs
100
AcDbLine
 10
450.327
 20
405.194
 30
11.9
 11
450.312
 21
405.582
 31
11.9
  0
LINE
  5
B4A
330
A02
100
AcDbEntity
  8
Mesh_cs
100
AcDbLine
 10
450.312
 20
405.582
 30
11.9
 11
450.328
 21
405.971
 31
11.9
  0
LINE
  5
B4B
330
A02
100
AcDbEntity
  8
Mesh_cs
100
AcDbLine
 10
450.328
 20
405.971
 30
11.9
 11
450.329
 21
405.986
 31
11.9
  0
LINE
  5
B4C
330
A02
100
AcDbEntity
  8
Mesh_cs
100
AcDbLine
 10
450.329
 20
405.986
 30
11.9
 11
450.376
 21
406.372
 31
11.9
  0
LINE
  5
B4D
330
A02
100
AcDbEntity
  8
Mesh_cs
100
AcDbLine
 10
450.376
 20
406.372
 30
11.9
 11
450.378
 21
406.387
 31
11.9
  0
LINE
  5
B4E
330
A02
100
AcDbEntity
  8
Mesh_cs
100
AcDbLine
 10
450.378
 20
406.387
 30
11.9
 11
450.456
 21
406.768
 31
11.9
  0
LINE
  5
B4F
330
A02
100
AcDbEntity
  8
Mesh_cs
100
AcDbLine
 10
450.456
 20
406.768
 30
11.9
 11
450.459
 21
406.782
 31
11.9
  0
LINE
  5
B50
330
A02
100
AcDbEntity
  8
Mesh_cs
100
AcDbLine
 10
450.459
 20
406.782
 30
11.9
 11
450.568
 21
407.156
 31
11.9
  0
LINE
  5
B51
330
A02
100
AcDbEntity
  8
Mesh_cs
100
AcDbLine
 10
450.568
 20
407.156
 30
11.9
 11
450.572
 21
407.17
 31
11.9
  0
LINE
  5
B52
330
A02
100
AcDbEntity
  8
Mesh_cs
100
AcDbLine
 10
450.572
 20
407.17
 30
11.9
 11
450.71
 21
407.534
 31
11.9
  0
LINE
  5
B53
330
A02
100
AcDbEntity
  8
Mesh_cs
100
AcDbLine
 10
450.71
 20
407.534
 30
11.9
 11
450.716
 21
407.547
 31
11.9
  0
LINE
  5
B54
330
A02
100
AcDbEntity
  8
Mesh_cs
100
AcDbLine
 10
450.716
 20
407.547
 30
11.9
 11
450.903
 21
407.937
 31
11.9
  0
LINE
  5
B55
330
A02
100
AcDbEntity
  8
Mesh_cs
100
AcDbLine
 10
450.903
 20
407.937
 30
11.9
 11
450.91
 21
407.949
 31
11.9
  0
LINE
  5
B56
330
A02
100
AcDbEntity
  8
Mesh_cs
100
AcDbLine
 10
450.91
 20
407.949
 30
11.9
 11
451.131
 21
408.32
 31
11.9
  0
LINE
  5
B57
330
A02
100
AcDbEntity
  8
Mesh_cs
100
AcDbLine
 10
451.131
 20
408.32
 30
11.9
 11
451.138
 21
408.331
 31
11.9
  0
LINE
  5
B58
330
A02
100
AcDbEntity
  8
Mesh_cs
100
AcDbLine
 10
451.138
 20
408.331
 30
11.9
 11
451.392
 21
408.681
 31
11.9
  0
LINE
  5
B59
330
A02
100
AcDbEntity
  8
Mesh_cs
100
AcDbLine
 10
451.392
 20
408.681
 30
11.9
 11
451.4
 21
408.692
 31
11.9
  0
LINE
  5
B5A
330
A02
100
AcDbEntity
  8
Mesh_cs
100
AcDbLine
 10
451.4
 20
408.692
 30
11.9
 11
451.683
 21
409.018
 31
11.9
  0
LINE
  5
B5B
330
A02
100
AcDbEntity
  8
Mesh_cs
100
AcDbLine
 10
451.683
 20
409.018
 30
11.9
 11
451.692
 21
409.028
 31
11.9
  0
LINE
  5
B5C
330
A02
100
AcDbEntity
  8
Mesh_cs
100
AcDbLine
 10
451.692
 20
409.028
 30
11.9
 11
451.702
 21
409.037
 31
11.9
  0
LINE
  5
B5D
330
A02
100
AcDbEntity
  8
Mesh_cs
100
AcDbLine
 10
451.702
 20
409.037
 30
11.9
 11
452.014
 21
409.337
 31
11.9
  0
LINE
  5
B5E
330
A02
100
AcDbEntity
  8
Mesh_cs
100
AcDbLine
 10
452.014
 20
409.337
 30
11.9
 11
452.024
 21
409.345
 31
11.9
  0
LINE
  5
B5F
330
A02
100
AcDbEntity
  8
Mesh_cs
100
AcDbLine
 10
452.024
 20
409.345
 30
11.9
 11
452.361
 21
409.615
 31
11.9
  0
LINE
  5
B60
330
A02
100
AcDbEntity
  8
Mesh_cs
100
AcDbLine
 10
452.361
 20
409.615
 30
11.9
 11
452.373
 21
409.623
 31
11.9
  0
LINE
  5
B61
330
A02
100
AcDbEntity
  8
Mesh_cs
100
AcDbLine
 10
452.373
 20
409.623
 30
11.9
 11
452.732
 21
409.862
 31
11.9
  0
LINE
  5
B62
330
A02
100
AcDbEntity
  8
Mesh_cs
100
AcDbLine
 10
452.732
 20
409.862
 30
11.9
 11
452.744
 21
409.869
 31
11.9
  0
LINE
  5
B63
330
A02
100
AcDbEntity
  8
Mesh_cs
100
AcDbLine
 10
452.744
 20
409.869
 30
11.9
 11
453.124
 21
410.074
 31
11.9
  0
LINE
  5
B64
330
A02
100
AcDbEntity
  8
Mesh_cs
100
AcDbLine
 10
453.124
 20
410.074
 30
11.9
 11
453.137
 21
410.08
 31
11.9
  0
LINE
  5
B65
330
A02
100
AcDbEntity
  8
Mesh_cs
100
AcDbLine
 10
453.137
 20
410.08
 30
11.9
 11
453.441
 21
410.216
 31
11.9
  0
LINE
  5
B66
330
A02
100
AcDbEntity
  8
Mesh_cs
100
AcDbLine
 10
453.441
 20
410.216
 30
11.9
 11
453.454
 21
410.22
 31
11.9
  0
LINE
  5
B67
330
A02
100
AcDbEntity
  8
Mesh_cs
100
AcDbLine
 10
453.454
 20
410.22
 30
11.9
 11
453.767
 21
410.334
 31
11.9
  0
LINE
  5
B68
330
A02
100
AcDbEntity
  8
Mesh_cs
100
AcDbLine
 10
453.767
 20
410.334
 30
11.9
 11
454.398
 21
410.539
 31
11.9
  0
LINE
  5
B69
330
A02
100
AcDbEntity
  8
Mesh_cs
100
AcDbLine
 10
454.398
 20
410.539
 30
11.9
 11
472.693
 21
416.483
 31
11.9
  0
LINE
  5
B6A
330
A02
100
AcDbEntity
  8
Mesh_cs
100
AcDbLine
 10
472.693
 20
416.483
 30
11.9
 11
470.99
 21
421.724
 31
11.9
  0
LINE
  5
B6B
330
A02
100
AcDbEntity
  8
Mesh_cs
100
AcDbLine
 10
470.99
 20
421.724
 30
11.9
 11
455.666
 21
468.887
 31
11.9
  0
LINE
  5
B6C
330
A02
100
AcDbEntity
  8
Mesh_cs
100
AcDbLine
 10
455.666
 20
468.887
 30
11.9
 11
451.884
 21
467.639
 31
11.9
  0
LINE
  5
B6D
330
A02
100
AcDbEntity
  8
Mesh_cs
100
AcDbLine
 10
451.884
 20
467.639
 30
11.9
 11
451.464
 21
467.5
 31
11.9
  0
LINE
  5
B6E
330
A02
100
AcDbEntity
  8
Mesh_cs
100
AcDbLine
 10
451.464
 20
467.5
 30
11.9
 11
447.693
 21
466.219
 31
11.9
  0
LINE
  5
B6F
330
A02
100
AcDbEntity
  8
Mesh_cs
100
AcDbLine
 10
447.693
 20
466.219
 30
11.9
 11
447.274
 21
466.076
 31
11.9
  0
LINE
  5
B70
330
A02
100
AcDbEntity
  8
Mesh_cs
100
AcDbLine
 10
447.274
 20
466.076
 30
11.9
 11
443.514
 21
464.761
 31
11.9
  0
LINE
  5
B71
330
A02
100
AcDbEntity
  8
Mesh_cs
100
AcDbLine
 10
443.514
 20
464.761
 30
11.9
 11
443.097
 21
464.615
 31
11.9
  0
LINE
  5
B72
330
A02
100
AcDbEntity
  8
Mesh_cs
100
AcDbLine
 10
443.097
 20
464.615
 30
11.9
 11
439.349
 21
463.266
 31
11.9
  0
LINE
  5
B73
330
A02
100
AcDbEntity
  8
Mesh_cs
100
AcDbLine
 10
439.349
 20
463.266
 30
11.9
 11
438.933
 21
463.116
 31
11.9
  0
LINE
  5
B74
330
A02
100
AcDbEntity
  8
Mesh_cs
100
AcDbLine
 10
438.933
 20
463.116
 30
11.9
 11
435.198
 21
461.733
 31
11.9
  0
LINE
  5
B75
330
A02
100
AcDbEntity
  8
Mesh_cs
100
AcDbLine
 10
435.198
 20
461.733
 30
11.9
 11
434.783
 21
461.579
 31
11.9
  0
LINE
  5
B76
330
A02
100
AcDbEntity
  8
Mesh_cs
100
AcDbLine
 10
434.783
 20
461.579
 30
11.9
 11
431.061
 21
460.163
 31
11.9
  0
LINE
  5
B77
330
A02
100
AcDbEntity
  8
Mesh_cs
100
AcDbLine
 10
431.061
 20
460.163
 30
11.9
 11
430.647
 21
460.006
 31
11.9
  0
LINE
  5
B78
330
A02
100
AcDbEntity
  8
Mesh_cs
100
AcDbLine
 10
430.647
 20
460.006
 30
11.9
 11
426.937
 21
458.556
 31
11.9
  0
LINE
  5
B79
330
A02
100
AcDbEntity
  8
Mesh_cs
100
AcDbLine
 10
426.937
 20
458.556
 30
11.9
 11
426.525
 21
458.395
 31
11.9
  0
LINE
  5
B7A
330
A02
100
AcDbEntity
  8
Mesh_cs
100
AcDbLine
 10
426.525
 20
458.395
 30
11.9
 11
422.829
 21
456.913
 31
11.9
  0
LINE
  5
B7B
330
A02
100
AcDbEntity
  8
Mesh_cs
100
AcDbLine
 10
422.829
 20
456.913
 30
11.9
 11
422.418
 21
456.748
 31
11.9
  0
LINE
  5
B7C
330
A02
100
AcDbEntity
  8
Mesh_cs
100
AcDbLine
 10
422.418
 20
456.748
 30
11.9
 11
422.009
 21
456.579
 31
11.9
  0
LINE
  5
B7D
330
A02
100
AcDbEntity
  8
Mesh_cs
100
AcDbLine
 10
422.009
 20
456.579
 30
11.9
 11
418.326
 21
455.063
 31
11.9
  0
LINE
  5
B7E
330
A02
100
AcDbEntity
  8
Mesh_cs
100
AcDbLine
 10
418.326
 20
455.063
 30
11.9
 11
414.656
 21
453.515
 31
11.9
  0
LINE
  5
B7F
330
A02
100
AcDbEntity
  8
Mesh_cs
100
AcDbLine
 10
414.656
 20
453.515
 30
11.9
 11
414.249
 21
453.342
 31
11.9
  0
LINE
  5
B80
330
A02
100
AcDbEntity
  8
Mesh_cs
100
AcDbLine
 10
414.249
 20
453.342
 30
11.9
 11
410.594
 21
451.761
 31
11.9
  0
LINE
  5
B81
330
A02
100
AcDbEntity
  8
Mesh_cs
100
AcDbLine
 10
410.594
 20
451.761
 30
11.9
 11
410.187
 21
451.585
 31
11.9
  0
LINE
  5
B82
330
A02
100
AcDbEntity
  8
Mesh_cs
100
AcDbLine
 10
410.187
 20
451.585
 30
11.9
 11
406.547
 21
449.97
 31
11.9
  0
LINE
  5
B83
330
A02
100
AcDbEntity
  8
Mesh_cs
100
AcDbLine
 10
406.547
 20
449.97
 30
11.9
 11
406.142
 21
449.791
 31
11.9
  0
LINE
  5
B84
330
A02
100
AcDbEntity
  8
Mesh_cs
100
AcDbLine
 10
406.142
 20
449.791
 30
11.9
 11
402.516
 21
448.144
 31
11.9
  0
LINE
  5
B85
330
A02
100
AcDbEntity
  8
Mesh_cs
100
AcDbLine
 10
402.516
 20
448.144
 30
11.9
 11
402.113
 21
447.961
 31
11.9
  0
LINE
  5
B86
330
A02
100
AcDbEntity
  8
Mesh_cs
100
AcDbLine
 10
402.113
 20
447.961
 30
11.9
 11
398.502
 21
446.281
 31
11.9
  0
LINE
  5
B87
330
A02
100
AcDbEntity
  8
Mesh_cs
100
AcDbLine
 10
398.502
 20
446.281
 30
11.9
 11
398.1
 21
446.095
 31
11.9
  0
LINE
  5
B88
330
A02
100
AcDbEntity
  8
Mesh_cs
100
AcDbLine
 10
398.1
 20
446.095
 30
11.9
 11
394.504
 21
444.383
 31
11.9
  0
LINE
  5
B89
330
A02
100
AcDbEntity
  8
Mesh_cs
100
AcDbLine
 10
394.504
 20
444.383
 30
11.9
 11
394.105
 21
444.193
 31
11.9
  0
LINE
  5
B8A
330
A02
100
AcDbEntity
  8
Mesh_cs
100
AcDbLine
 10
394.105
 20
444.193
 30
11.9
 11
390.524
 21
442.448
 31
11.9
  0
LINE
  5
B8B
330
A02
100
AcDbEntity
  8
Mesh_cs
100
AcDbLine
 10
390.524
 20
442.448
 30
11.9
 11
390.126
 21
442.255
 31
11.9
  0
LINE
  5
B8C
330
A02
100
AcDbEntity
  8
Mesh_cs
100
AcDbLine
 10
390.126
 20
442.255
 30
11.9
 11
386.562
 21
440.478
 31
11.9
  0
LINE
  5
B8D
330
A02
100
AcDbEntity
  8
Mesh_cs
100
AcDbLine
 10
386.562
 20
440.478
 30
11.9
 11
386.165
 21
440.281
 31
11.9
  0
LINE
  5
B8E
330
A02
100
AcDbEntity
  8
Mesh_cs
100
AcDbLine
 10
386.165
 20
440.281
 30
11.9
 11
382.617
 21
438.473
 31
11.9
  0
LINE
  5
B8F
330
A02
100
AcDbEntity
  8
Mesh_cs
100
AcDbLine
 10
382.617
 20
438.473
 30
11.9
 11
382.223
 21
438.272
 31
11.9
  0
LINE
  5
B90
330
A02
100
AcDbEntity
  8
Mesh_cs
100
AcDbLine
 10
382.223
 20
438.272
 30
11.9
 11
378.69
 21
436.432
 31
11.9
  0
LINE
  5
B91
330
A02
100
AcDbEntity
  8
Mesh_cs
100
AcDbLine
 10
378.69
 20
436.432
 30
11.9
 11
378.298
 21
436.228
 31
11.9
  0
LINE
  5
B92
330
A02
100
AcDbEntity
  8
Mesh_cs
100
AcDbLine
 10
378.298
 20
436.228
 30
11.9
 11
374.782
 21
434.356
 31
11.9
  0
LINE
  5
B93
330
A02
100
AcDbEntity
  8
Mesh_cs
100
AcDbLine
 10
374.782
 20
434.356
 30
11.9
 11
374.392
 21
434.148
 31
11.9
  0
LINE
  5
B94
330
A02
100
AcDbEntity
  8
Mesh_cs
100
AcDbLine
 10
374.392
 20
434.148
 30
11.9
 11
370.893
 21
432.245
 31
11.9
  0
LINE
  5
B95
330
A02
100
AcDbEntity
  8
Mesh_cs
100
AcDbLine
 10
370.893
 20
432.245
 30
11.9
 11
370.504
 21
432.034
 31
11.9
  0
LINE
  5
B96
330
A02
100
AcDbEntity
  8
Mesh_cs
100
AcDbLine
 10
370.504
 20
432.034
 30
11.9
 11
370.117
 21
431.819
 31
11.9
  0
LINE
  5
B97
330
A02
100
AcDbEntity
  8
Mesh_cs
100
AcDbLine
 10
370.117
 20
431.819
 30
11.9
 11
366.636
 21
429.884
 31
11.9
  0
LINE
  5
B98
330
A02
100
AcDbEntity
  8
Mesh_cs
100
AcDbLine
 10
366.636
 20
429.884
 30
11.9
 11
363.172
 21
427.919
 31
11.9
  0
LINE
  5
B99
330
A02
100
AcDbEntity
  8
Mesh_cs
100
AcDbLine
 10
363.172
 20
427.919
 30
11.9
 11
362.787
 21
427.701
 31
11.9
  0
LINE
  5
B9A
330
A02
100
AcDbEntity
  8
Mesh_cs
100
AcDbLine
 10
362.787
 20
427.701
 30
11.9
 11
359.341
 21
425.704
 31
11.9
  0
LINE
  5
B9B
330
A02
100
AcDbEntity
  8
Mesh_cs
100
AcDbLine
 10
359.341
 20
425.704
 30
11.9
 11
358.958
 21
425.482
 31
11.9
  0
LINE
  5
B9C
330
A02
100
AcDbEntity
  8
Mesh_cs
100
AcDbLine
 10
358.958
 20
425.482
 30
11.9
 11
358.577
 21
425.257
 31
11.9
  0
LINE
  5
B9D
330
A02
100
AcDbEntity
  8
Mesh_cs
100
AcDbLine
 10
358.577
 20
425.257
 30
11.9
 11
355.149
 21
423.23
 31
11.9
  0
LINE
  5
B9E
330
A02
100
AcDbEntity
  8
Mesh_cs
100
AcDbLine
 10
355.149
 20
423.23
 30
11.9
 11
351.739
 21
421.171
 31
11.9
  0
LINE
  5
B9F
330
A02
100
AcDbEntity
  8
Mesh_cs
100
AcDbLine
 10
351.739
 20
421.171
 30
11.9
 11
351.36
 21
420.943
 31
11.9
  0
LINE
  5
BA0
330
A02
100
AcDbEntity
  8
Mesh_cs
100
AcDbLine
 10
351.36
 20
420.943
 30
11.9
 11
347.969
 21
418.854
 31
11.9
  0
LINE
  5
BA1
330
A02
100
AcDbEntity
  8
Mesh_cs
100
AcDbLine
 10
347.969
 20
418.854
 30
11.9
 11
347.592
 21
418.622
 31
11.9
  0
LINE
  5
BA2
330
A02
100
AcDbEntity
  8
Mesh_cs
100
AcDbLine
 10
347.592
 20
418.622
 30
11.9
 11
347.217
 21
418.387
 31
11.9
  0
LINE
  5
BA3
330
A02
100
AcDbEntity
  8
Mesh_cs
100
AcDbLine
 10
347.217
 20
418.387
 30
11.9
 11
343.845
 21
416.268
 31
11.9
  0
LINE
  5
BA4
330
A02
100
AcDbEntity
  8
Mesh_cs
100
AcDbLine
 10
343.845
 20
416.268
 30
11.9
 11
340.492
 21
414.119
 31
11.9
  0
LINE
  5
BA5
330
A02
100
AcDbEntity
  8
Mesh_cs
100
AcDbLine
 10
340.492
 20
414.119
 30
11.9
 11
340.119
 21
413.88
 31
11.9
  0
LINE
  5
BA6
330
A02
100
AcDbEntity
  8
Mesh_cs
100
AcDbLine
 10
340.119
 20
413.88
 30
11.9
 11
336.786
 21
411.701
 31
11.9
  0
LINE
  5
BA7
330
A02
100
AcDbEntity
  8
Mesh_cs
100
AcDbLine
 10
336.786
 20
411.701
 30
11.9
 11
336.415
 21
411.458
 31
11.9
  0
LINE
  5
BA8
330
A02
100
AcDbEntity
  8
Mesh_cs
100
AcDbLine
 10
336.415
 20
411.458
 30
11.9
 11
336.047
 21
411.213
 31
11.9
  0
LINE
  5
BA9
330
A02
100
AcDbEntity
  8
Mesh_cs
100
AcDbLine
 10
336.047
 20
411.213
 30
11.9
 11
332.733
 21
409.004
 31
11.9
  0
LINE
  5
BAA
330
A02
100
AcDbEntity
  8
Mesh_cs
100
AcDbLine
 10
332.733
 20
409.004
 30
11.9
 11
329.439
 21
406.765
 31
11.9
  0
LINE
  5
BAB
330
A02
100
AcDbEntity
  8
Mesh_cs
100
AcDbLine
 10
329.439
 20
406.765
 30
11.9
 11
329.073
 21
406.517
 31
11.9
  0
LINE
  5
BAC
330
A02
100
AcDbEntity
  8
Mesh_cs
100
AcDbLine
 10
329.073
 20
406.517
 30
11.9
 11
328.709
 21
406.265
 31
11.9
  0
LINE
  5
BAD
330
A02
100
AcDbEntity
  8
Mesh_cs
100
AcDbLine
 10
328.709
 20
406.265
 30
11.9
 11
325.435
 21
403.997
 31
11.9
  0
LINE
  5
BAE
330
A02
100
AcDbEntity
  8
Mesh_cs
100
AcDbLine
 10
325.435
 20
403.997
 30
11.9
 11
322.182
 21
401.699
 31
11.9
  0
LINE
  5
BAF
330
A02
100
AcDbEntity
  8
Mesh_cs
100
AcDbLine
 10
322.182
 20
401.699
 30
11.9
 11
321.82
 21
401.444
 31
11.9
  0
LINE
  5
BB0
330
A02
100
AcDbEntity
  8
Mesh_cs
100
AcDbLine
 10
321.82
 20
401.444
 30
11.9
 11
321.461
 21
401.185
 31
11.9
  0
LINE
  5
BB1
330
A02
100
AcDbEntity
  8
Mesh_cs
100
AcDbLine
 10
321.461
 20
401.185
 30
11.9
 11
318.229
 21
398.859
 31
11.9
  0
LINE
  5
BB2
330
A02
100
AcDbEntity
  8
Mesh_cs
100
AcDbLine
 10
318.229
 20
398.859
 30
11.9
 11
315.017
 21
396.503
 31
11.9
  0
LINE
  5
BB3
330
A02
100
AcDbEntity
  8
Mesh_cs
100
AcDbLine
 10
315.017
 20
396.503
 30
11.9
 11
314.66
 21
396.242
 31
11.9
  0
LINE
  5
BB4
330
A02
100
AcDbEntity
  8
Mesh_cs
100
AcDbLine
 10
314.66
 20
396.242
 30
11.9
 11
314.306
 21
395.977
 31
11.9
  0
LINE
  5
BB5
330
A02
100
AcDbEntity
  8
Mesh_cs
100
AcDbLine
 10
314.306
 20
395.977
 30
11.9
 11
311.116
 21
393.593
 31
11.9
  0
LINE
  5
BB6
330
A02
100
AcDbEntity
  8
Mesh_cs
100
AcDbLine
 10
311.116
 20
393.593
 30
11.9
 11
307.947
 21
391.18
 31
11.9
  0
LINE
  5
BB7
330
A02
100
AcDbEntity
  8
Mesh_cs
100
AcDbLine
 10
307.947
 20
391.18
 30
11.9
 11
307.595
 21
390.912
 31
11.9
  0
LINE
  5
BB8
330
A02
100
AcDbEntity
  8
Mesh_cs
100
AcDbLine
 10
307.595
 20
390.912
 30
11.9
 11
304.448
 21
388.471
 31
11.9
  0
LINE
  5
BB9
330
A02
100
AcDbEntity
  8
Mesh_cs
100
AcDbLine
 10
304.448
 20
388.471
 30
11.9
 11
304.098
 21
388.199
 31
11.9
  0
LINE
  5
BBA
330
A02
100
AcDbEntity
  8
Mesh_cs
100
AcDbLine
 10
304.098
 20
388.199
 30
11.9
 11
300.973
 21
385.73
 31
11.9
  0
LINE
  5
BBB
330
A02
100
AcDbEntity
  8
Mesh_cs
100
AcDbLine
 10
300.973
 20
385.73
 30
11.9
 11
300.626
 21
385.456
 31
11.9
  0
LINE
  5
BBC
330
A02
100
AcDbEntity
  8
Mesh_cs
100
AcDbLine
 10
300.626
 20
385.456
 30
11.9
 11
300.281
 21
385.178
 31
11.9
  0
LINE
  5
BBD
330
A02
100
AcDbEntity
  8
Mesh_cs
100
AcDbLine
 10
300.281
 20
385.178
 30
11.9
 11
297.178
 21
382.681
 31
11.9
  0
LINE
  5
BBE
330
A02
100
AcDbEntity
  8
Mesh_cs
100
AcDbLine
 10
297.178
 20
382.681
 30
11.9
 11
294.098
 21
380.156
 31
11.9
  0
LINE
  5
BBF
330
A02
100
AcDbEntity
  8
Mesh_cs
100
AcDbLine
 10
294.098
 20
380.156
 30
11.9
 11
293.756
 21
379.876
 31
11.9
  0
LINE
  5
BC0
330
A02
100
AcDbEntity
  8
Mesh_cs
100
AcDbLine
 10
293.756
 20
379.876
 30
11.9
 11
290.699
 21
377.323
 31
11.9
  0
LINE
  5
BC1
330
A02
100
AcDbEntity
  8
Mesh_cs
100
AcDbLine
 10
290.699
 20
377.323
 30
11.9
 11
290.359
 21
377.04
 31
11.9
  0
LINE
  5
BC2
330
A02
100
AcDbEntity
  8
Mesh_cs
100
AcDbLine
 10
290.359
 20
377.04
 30
11.9
 11
290.022
 21
376.753
 31
11.9
  0
LINE
  5
BC3
330
A02
100
AcDbEntity
  8
Mesh_cs
100
AcDbLine
 10
290.022
 20
376.753
 30
11.9
 11
286.987
 21
374.173
 31
11.9
  0
LINE
  5
BC4
330
A02
100
AcDbEntity
  8
Mesh_cs
100
AcDbLine
 10
286.987
 20
374.173
 30
11.9
 11
283.976
 21
371.566
 31
11.9
  0
LINE
  5
BC5
330
A02
100
AcDbEntity
  8
Mesh_cs
100
AcDbLine
 10
283.976
 20
371.566
 30
11.9
 11
283.642
 21
371.277
 31
11.9
  0
LINE
  5
BC6
330
A02
100
AcDbEntity
  8
Mesh_cs
100
AcDbLine
 10
283.642
 20
371.277
 30
11.9
 11
280.654
 21
368.643
 31
11.9
  0
LINE
  5
BC7
330
A02
100
AcDbEntity
  8
Mesh_cs
100
AcDbLine
 10
280.654
 20
368.643
 30
11.9
 11
280.322
 21
368.35
 31
11.9
  0
LINE
  5
BC8
330
A02
100
AcDbEntity
  8
Mesh_cs
100
AcDbLine
 10
280.322
 20
368.35
 30
11.9
 11
277.359
 21
365.69
 31
11.9
  0
LINE
  5
BC9
330
A02
100
AcDbEntity
  8
Mesh_cs
100
AcDbLine
 10
277.359
 20
365.69
 30
11.9
 11
277.029
 21
365.394
 31
11.9
  0
LINE
  5
BCA
330
A02
100
AcDbEntity
  8
Mesh_cs
100
AcDbLine
 10
277.029
 20
365.394
 30
11.9
 11
274.09
 21
362.707
 31
11.9
  0
LINE
  5
BCB
330
A02
100
AcDbEntity
  8
Mesh_cs
100
AcDbLine
 10
274.09
 20
362.707
 30
11.9
 11
273.763
 21
362.408
 31
11.9
  0
LINE
  5
BCC
330
A02
100
AcDbEntity
  8
Mesh_cs
100
AcDbLine
 10
273.763
 20
362.408
 30
11.9
 11
273.439
 21
362.107
 31
11.9
  0
LINE
  5
BCD
330
A02
100
AcDbEntity
  8
Mesh_cs
100
AcDbLine
 10
273.439
 20
362.107
 30
11.9
 11
270.524
 21
359.394
 31
11.9
  0
LINE
  5
BCE
330
A02
100
AcDbEntity
  8
Mesh_cs
100
AcDbLine
 10
270.524
 20
359.394
 30
11.9
 11
267.632
 21
356.654
 31
11.9
  0
LINE
  5
BCF
330
A02
100
AcDbEntity
  8
Mesh_cs
100
AcDbLine
 10
267.632
 20
356.654
 30
11.9
 11
267.311
 21
356.35
 31
11.9
  0
LINE
  5
BD0
330
A02
100
AcDbEntity
  8
Mesh_cs
100
AcDbLine
 10
267.311
 20
356.35
 30
11.9
 11
266.993
 21
356.043
 31
11.9
  0
LINE
  5
BD1
330
A02
100
AcDbEntity
  8
Mesh_cs
100
AcDbLine
 10
266.993
 20
356.043
 30
11.9
 11
264.126
 21
353.277
 31
11.9
  0
LINE
  5
BD2
330
A02
100
AcDbEntity
  8
Mesh_cs
100
AcDbLine
 10
264.126
 20
353.277
 30
11.9
 11
261.285
 21
350.487
 31
11.9
  0
LINE
  5
BD3
330
A02
100
AcDbEntity
  8
Mesh_cs
100
AcDbLine
 10
261.285
 20
350.487
 30
11.9
 11
260.969
 21
350.176
 31
11.9
  0
LINE
  5
BD4
330
A02
100
AcDbEntity
  8
Mesh_cs
100
AcDbLine
 10
260.969
 20
350.176
 30
11.9
 11
258.153
 21
347.36
 31
11.9
  0
LINE
  5
BD5
330
A02
100
AcDbEntity
  8
Mesh_cs
100
AcDbLine
 10
258.153
 20
347.36
 30
11.9
 11
257.84
 21
347.047
 31
11.9
  0
LINE
  5
BD6
330
A02
100
AcDbEntity
  8
Mesh_cs
100
AcDbLine
 10
257.84
 20
347.047
 30
11.9
 11
257.53
 21
346.732
 31
11.9
  0
LINE
  5
BD7
330
A02
100
AcDbEntity
  8
Mesh_cs
100
AcDbLine
 10
257.53
 20
346.732
 30
11.9
 11
254.739
 21
343.89
 31
11.9
  0
LINE
  5
BD8
330
A02
100
AcDbEntity
  8
Mesh_cs
100
AcDbLine
 10
254.739
 20
343.89
 30
11.9
 11
251.974
 21
341.024
 31
11.9
  0
LINE
  5
BD9
330
A02
100
AcDbEntity
  8
Mesh_cs
100
AcDbLine
 10
251.974
 20
341.024
 30
11.9
 11
251.667
 21
340.705
 31
11.9
  0
LINE
  5
BDA
330
A02
100
AcDbEntity
  8
Mesh_cs
100
AcDbLine
 10
251.667
 20
340.705
 30
11.9
 11
251.362
 21
340.384
 31
11.9
  0
LINE
  5
BDB
330
A02
100
AcDbEntity
  8
Mesh_cs
100
AcDbLine
 10
251.362
 20
340.384
 30
11.9
 11
248.623
 21
337.493
 31
11.9
  0
LINE
  5
BDC
330
A02
100
AcDbEntity
  8
Mesh_cs
100
AcDbLine
 10
248.623
 20
337.493
 30
11.9
 11
245.91
 21
334.578
 31
11.9
  0
LINE
  5
BDD
330
A02
100
AcDbEntity
  8
Mesh_cs
100
AcDbLine
 10
245.91
 20
334.578
 30
11.9
 11
245.608
 21
334.254
 31
11.9
  0
LINE
  5
BDE
330
A02
100
AcDbEntity
  8
Mesh_cs
100
AcDbLine
 10
245.608
 20
334.254
 30
11.9
 11
245.31
 21
333.927
 31
11.9
  0
LINE
  5
BDF
330
A02
100
AcDbEntity
  8
Mesh_cs
100
AcDbLine
 10
245.31
 20
333.927
 30
11.9
 11
242.623
 21
330.987
 31
11.9
  0
LINE
  5
BE0
330
A02
100
AcDbEntity
  8
Mesh_cs
100
AcDbLine
 10
242.623
 20
330.987
 30
11.9
 11
239.962
 21
328.023
 31
11.9
  0
LINE
  5
BE1
330
A02
100
AcDbEntity
  8
Mesh_cs
100
AcDbLine
 10
239.962
 20
328.023
 30
11.9
 11
239.666
 21
327.694
 31
11.9
  0
LINE
  5
BE2
330
A02
100
AcDbEntity
  8
Mesh_cs
100
AcDbLine
 10
239.666
 20
327.694
 30
11.9
 11
237.033
 21
324.707
 31
11.9
  0
LINE
  5
BE3
330
A02
100
AcDbEntity
  8
Mesh_cs
100
AcDbLine
 10
237.033
 20
324.707
 30
11.9
 11
236.74
 21
324.375
 31
11.9
  0
LINE
  5
BE4
330
A02
100
AcDbEntity
  8
Mesh_cs
100
AcDbLine
 10
236.74
 20
324.375
 30
11.9
 11
234.133
 21
321.364
 31
11.9
  0
LINE
  5
BE5
330
A02
100
AcDbEntity
  8
Mesh_cs
100
AcDbLine
 10
234.133
 20
321.364
 30
11.9
 11
233.843
 21
321.029
 31
11.9
  0
LINE
  5
BE6
330
A02
100
AcDbEntity
  8
Mesh_cs
100
AcDbLine
 10
233.843
 20
321.029
 30
11.9
 11
233.557
 21
320.692
 31
11.9
  0
LINE
  5
BE7
330
A02
100
AcDbEntity
  8
Mesh_cs
100
AcDbLine
 10
233.557
 20
320.692
 30
11.9
 11
230.977
 21
317.658
 31
11.9
  0
LINE
  5
BE8
330
A02
100
AcDbEntity
  8
Mesh_cs
100
AcDbLine
 10
230.977
 20
317.658
 30
11.9
 11
228.424
 21
314.6
 31
11.9
  0
LINE
  5
BE9
330
A02
100
AcDbEntity
  8
Mesh_cs
100
AcDbLine
 10
228.424
 20
314.6
 30
11.9
 11
228.141
 21
314.261
 31
11.9
  0
LINE
  5
BEA
330
A02
100
AcDbEntity
  8
Mesh_cs
100
AcDbLine
 10
228.141
 20
314.261
 30
11.9
 11
227.86
 21
313.918
 31
11.9
  0
LINE
  5
BEB
330
A02
100
AcDbEntity
  8
Mesh_cs
100
AcDbLine
 10
227.86
 20
313.918
 30
11.9
 11
225.335
 21
310.838
 31
11.9
  0
LINE
  5
BEC
330
A02
100
AcDbEntity
  8
Mesh_cs
100
AcDbLine
 10
225.335
 20
310.838
 30
11.9
 11
225.058
 21
310.494
 31
11.9
  0
LINE
  5
BED
330
A02
100
AcDbEntity
  8
Mesh_cs
100
AcDbLine
 10
225.058
 20
310.494
 30
11.9
 11
222.561
 21
307.391
 31
11.9
  0
LINE
  5
BEE
330
A02
100
AcDbEntity
  8
Mesh_cs
100
AcDbLine
 10
222.561
 20
307.391
 30
11.9
 11
220.091
 21
304.266
 31
11.9
  0
LINE
  5
BEF
330
A02
100
AcDbEntity
  8
Mesh_cs
100
AcDbLine
 10
220.091
 20
304.266
 30
11.9
 11
219.817
 21
303.919
 31
11.9
  0
LINE
  5
BF0
330
A02
100
AcDbEntity
  8
Mesh_cs
100
AcDbLine
 10
219.817
 20
303.919
 30
11.9
 11
217.376
 21
300.772
 31
11.9
  0
LINE
  5
BF1
330
A02
100
AcDbEntity
  8
Mesh_cs
100
AcDbLine
 10
217.376
 20
300.772
 30
11.9
 11
217.105
 21
300.422
 31
11.9
  0
LINE
  5
BF2
330
A02
100
AcDbEntity
  8
Mesh_cs
100
AcDbLine
 10
217.105
 20
300.422
 30
11.9
 11
216.837
 21
300.07
 31
11.9
  0
LINE
  5
BF3
330
A02
100
AcDbEntity
  8
Mesh_cs
100
AcDbLine
 10
216.837
 20
300.07
 30
11.9
 11
214.424
 21
296.901
 31
11.9
  0
LINE
  5
BF4
330
A02
100
AcDbEntity
  8
Mesh_cs
100
AcDbLine
 10
214.424
 20
296.901
 30
11.9
 11
212.04
 21
293.711
 31
11.9
  0
LINE
  5
BF5
330
A02
100
AcDbEntity
  8
Mesh_cs
100
AcDbLine
 10
212.04
 20
293.711
 30
11.9
 11
211.775
 21
293.356
 31
11.9
  0
LINE
  5
BF6
330
A02
100
AcDbEntity
  8
Mesh_cs
100
AcDbLine
 10
211.775
 20
293.356
 30
11.9
 11
209.419
 21
290.145
 31
11.9
  0
LINE
  5
BF7
330
A02
100
AcDbEntity
  8
Mesh_cs
100
AcDbLine
 10
209.419
 20
290.145
 30
11.9
 11
209.158
 21
289.788
 31
11.9
  0
LINE
  5
BF8
330
A02
100
AcDbEntity
  8
Mesh_cs
100
AcDbLine
 10
209.158
 20
289.788
 30
11.9
 11
249.277
 21
260.64
 31
11.9
  0
LINE
  5
BF9
330
A02
100
AcDbEntity
  8
Mesh_cs
100
AcDbLine
 10
249.277
 20
260.64
 30
11.9
 11
253.735
 21
257.401
 31
11.9
  0
LINE
  5
BFA
330
A02
100
AcDbEntity
  8
Mesh_cs
100
AcDbLine
 10
253.735
 20
257.401
 30
11.9
 11
254.125
 21
257.938
 31
11.9
  0
LINE
  5
BFB
330
A02
100
AcDbEntity
  8
Mesh_cs
100
AcDbLine
 10
254.125
 20
257.938
 30
11.9
 11
265.432
 21
273.5
 31
11.9
  0
LINE
  5
BFC
330
A02
100
AcDbEntity
  8
Mesh_cs
100
AcDbLine
 10
265.432
 20
273.5
 30
11.9
 11
265.636
 21
273.763
 31
11.9
  0
LINE
  5
BFD
330
A02
100
AcDbEntity
  8
Mesh_cs
100
AcDbLine
 10
265.636
 20
273.763
 30
11.9
 11
265.645
 21
273.773
 31
11.9
  0
LINE
  5
BFE
330
A02
100
AcDbEntity
  8
Mesh_cs
100
AcDbLine
 10
265.645
 20
273.773
 30
11.9
 11
265.868
 21
274.021
 31
11.9
  0
LINE
  5
BFF
330
A02
100
AcDbEntity
  8
Mesh_cs
100
AcDbLine
 10
265.868
 20
274.021
 30
11.9
 11
265.877
 21
274.032
 31
11.9
  0
LINE
  5
C00
330
A02
100
AcDbEntity
  8
Mesh_cs
100
AcDbLine
 10
265.877
 20
274.032
 30
11.9
 11
266.19
 21
274.329
 31
11.9
  0
LINE
  5
C01
330
A02
100
AcDbEntity
  8
Mesh_cs
100
AcDbLine
 10
266.19
 20
274.329
 30
11.9
 11
266.2
 21
274.338
 31
11.9
  0
LINE
  5
C02
330
A02
100
AcDbEntity
  8
Mesh_cs
100
AcDbLine
 10
266.2
 20
274.338
 30
11.9
 11
266.539
 21
274.607
 31
11.9
  0
LINE
  5
C03
330
A02
100
AcDbEntity
  8
Mesh_cs
100
AcDbLine
 10
266.539
 20
274.607
 30
11.9
 11
266.549
 21
274.615
 31
11.9
  0
LINE
  5
C04
330
A02
100
AcDbEntity
  8
Mesh_cs
100
AcDbLine
 10
266.549
 20
274.615
 30
11.9
 11
266.911
 21
274.852
 31
11.9
  0
LINE
  5
C05
330
A02
100
AcDbEntity
  8
Mesh_cs
100
AcDbLine
 10
266.911
 20
274.852
 30
11.9
 11
266.922
 21
274.86
 31
11.9
  0
LINE
  5
C06
330
A02
100
AcDbEntity
  8
Mesh_cs
100
AcDbLine
 10
266.922
 20
274.86
 30
11.9
 11
267.303
 21
275.064
 31
11.9
  0
LINE
  5
C07
330
A02
100
AcDbEntity
  8
Mesh_cs
100
AcDbLine
 10
267.303
 20
275.064
 30
11.9
 11
267.315
 21
275.07
 31
11.9
  0
LINE
  5
C08
330
A02
100
AcDbEntity
  8
Mesh_cs
100
AcDbLine
 10
267.315
 20
275.07
 30
11.9
 11
267.327
 21
275.075
 31
11.9
  0
LINE
  5
C09
330
A02
100
AcDbEntity
  8
Mesh_cs
100
AcDbLine
 10
267.327
 20
275.075
 30
11.9
 11
267.725
 21
275.244
 31
11.9
  0
LINE
  5
C0A
330
A02
100
AcDbEntity
  8
Mesh_cs
100
AcDbLine
 10
267.725
 20
275.244
 30
11.9
 11
267.737
 21
275.249
 31
11.9
  0
LINE
  5
C0B
330
A02
100
AcDbEntity
  8
Mesh_cs
100
AcDbLine
 10
267.737
 20
275.249
 30
11.9
 11
268.149
 21
275.382
 31
11.9
  0
LINE
  5
C0C
330
A02
100
AcDbEntity
  8
Mesh_cs
100
AcDbLine
 10
268.149
 20
275.382
 30
11.9
 11
268.162
 21
275.385
 31
11.9
  0
LINE
  5
C0D
330
A02
100
AcDbEntity
  8
Mesh_cs
100
AcDbLine
 10
268.162
 20
275.385
 30
11.9
 11
268.583
 21
275.481
 31
11.9
  0
LINE
  5
C0E
330
A02
100
AcDbEntity
  8
Mesh_cs
100
AcDbLine
 10
268.583
 20
275.481
 30
11.9
 11
268.596
 21
275.483
 31
11.9
  0
LINE
  5
C0F
330
A02
100
AcDbEntity
  8
Mesh_cs
100
AcDbLine
 10
268.596
 20
275.483
 30
11.9
 11
269.025
 21
275.541
 31
11.9
  0
LINE
  5
C10
330
A02
100
AcDbEntity
  8
Mesh_cs
100
AcDbLine
 10
269.025
 20
275.541
 30
11.9
 11
269.039
 21
275.542
 31
11.9
  0
LINE
  5
C11
330
A02
100
AcDbEntity
  8
Mesh_cs
100
AcDbLine
 10
269.039
 20
275.542
 30
11.9
 11
269.428
 21
275.561
 31
11.9
  0
LINE
  5
C12
330
A02
100
AcDbEntity
  8
Mesh_cs
100
AcDbLine
 10
269.428
 20
275.561
 30
11.9
 11
269.443
 21
275.561
 31
11.9
  0
LINE
  5
C13
330
A02
100
AcDbEntity
  8
Mesh_cs
100
AcDbLine
 10
269.443
 20
275.561
 30
11.9
 11
269.832
 21
275.549
 31
11.9
  0
LINE
  5
C14
330
A02
100
AcDbEntity
  8
Mesh_cs
100
AcDbLine
 10
269.832
 20
275.549
 30
11.9
 11
269.846
 21
275.547
 31
11.9
  0
LINE
  5
C15
330
A02
100
AcDbEntity
  8
Mesh_cs
100
AcDbLine
 10
269.846
 20
275.547
 30
11.9
 11
270.233
 21
275.504
 31
11.9
  0
LINE
  5
C16
330
A02
100
AcDbEntity
  8
Mesh_cs
100
AcDbLine
 10
270.233
 20
275.504
 30
11.9
 11
270.247
 21
275.501
 31
11.9
  0
LINE
  5
C17
330
A02
100
AcDbEntity
  8
Mesh_cs
100
AcDbLine
 10
270.247
 20
275.501
 30
11.9
 11
270.629
 21
275.427
 31
11.9
  0
LINE
  5
C18
330
A02
100
AcDbEntity
  8
Mesh_cs
100
AcDbLine
 10
270.629
 20
275.427
 30
11.9
 11
270.644
 21
275.423
 31
11.9
  0
LINE
  5
C19
330
A02
100
AcDbEntity
  8
Mesh_cs
100
AcDbLine
 10
270.644
 20
275.423
 30
11.9
 11
271.018
 21
275.318
 31
11.9
  0
LINE
  5
C1A
330
A02
100
AcDbEntity
  8
Mesh_cs
100
AcDbLine
 10
271.018
 20
275.318
 30
11.9
 11
271.383
 21
275.183
 31
11.9
  0
LINE
  5
C1B
330
A02
100
AcDbEntity
  8
Mesh_cs
100
AcDbLine
 10
271.383
 20
275.183
 30
11.9
 11
271.397
 21
275.178
 31
11.9
  0
LINE
  5
C1C
330
A02
100
AcDbEntity
  8
Mesh_cs
100
AcDbLine
 10
271.397
 20
275.178
 30
11.9
 11
271.719
 21
275.03
 31
11.9
  0
LINE
  5
C1D
330
A02
100
AcDbEntity
  8
Mesh_cs
100
AcDbLine
 10
271.719
 20
275.03
 30
11.9
 11
271.732
 21
275.024
 31
11.9
  0
LINE
  5
C1E
330
A02
100
AcDbEntity
  8
Mesh_cs
100
AcDbLine
 10
271.732
 20
275.024
 30
11.9
 11
272.073
 21
274.834
 31
11.9
  0
LINE
  5
C1F
330
A02
100
AcDbEntity
  8
Mesh_cs
100
AcDbLine
 10
272.073
 20
274.834
 30
11.9
 11
272.083
 21
274.829
 31
11.9
  0
LINE
  5
C20
330
A02
100
AcDbEntity
  8
Mesh_cs
100
AcDbLine
 10
272.083
 20
274.829
 30
11.9
 11
272.406
 21
274.613
 31
11.9
  0
LINE
  5
C21
330
A02
100
AcDbEntity
  8
Mesh_cs
100
AcDbLine
 10
272.406
 20
274.613
 30
11.9
 11
272.416
 21
274.607
 31
11.9
  0
LINE
  5
C22
330
A02
100
AcDbEntity
  8
Mesh_cs
100
AcDbLine
 10
272.416
 20
274.607
 30
11.9
 11
272.952
 21
274.217
 31
11.9
  0
LINE
  5
C23
330
A02
100
AcDbEntity
  8
Mesh_cs
100
AcDbLine
 10
272.952
 20
274.217
 30
11.9
 11
288.515
 21
262.91
 31
11.9
  0
LINE
  5
C24
330
A02
100
AcDbEntity
  8
Mesh_cs
100
AcDbLine
 10
288.515
 20
262.91
 30
11.9
 11
288.783
 21
263.246
 31
11.9
  0
LINE
  5
C25
330
A02
100
AcDbEntity
  8
Mesh_cs
100
AcDbLine
 10
288.783
 20
263.246
 30
11.9
 11
288.792
 21
263.257
 31
11.9
  0
LINE
  5
C26
330
A02
100
AcDbEntity
  8
Mesh_cs
100
AcDbLine
 10
288.792
 20
263.257
 30
11.9
 11
289.096
 21
263.576
 31
11.9
  0
LINE
  5
C27
330
A02
100
AcDbEntity
  8
Mesh_cs
100
AcDbLine
 10
289.096
 20
263.576
 30
11.9
 11
289.43
 21
263.87
 31
11.9
  0
LINE
  5
C28
330
A02
100
AcDbEntity
  8
Mesh_cs
100
AcDbLine
 10
289.43
 20
263.87
 30
11.9
 11
289.789
 21
264.132
 31
11.9
  0
LINE
  5
C29
330
A02
100
AcDbEntity
  8
Mesh_cs
100
AcDbLine
 10
289.789
 20
264.132
 30
11.9
 11
290.172
 21
264.364
 31
11.9
  0
LINE
  5
C2A
330
A02
100
AcDbEntity
  8
Mesh_cs
100
AcDbLine
 10
290.172
 20
264.364
 30
11.9
 11
290.568
 21
264.557
 31
11.9
  0
LINE
  5
C2B
330
A02
100
AcDbEntity
  8
Mesh_cs
100
AcDbLine
 10
290.568
 20
264.557
 30
11.9
 11
290.984
 21
264.715
 31
11.9
  0
LINE
  5
C2C
330
A02
100
AcDbEntity
  8
Mesh_cs
100
AcDbLine
 10
290.984
 20
264.715
 30
11.9
 11
291.009
 21
264.742
 31
11.9
  0
LINE
  5
C2D
330
A02
100
AcDbEntity
  8
Mesh_cs
100
AcDbLine
 10
291.009
 20
264.742
 30
11.9
 11
293.564
 21
267.772
 31
11.9
  0
LINE
  5
C2E
330
A02
100
AcDbEntity
  8
Mesh_cs
100
AcDbLine
 10
293.564
 20
267.772
 30
11.9
 11
296.148
 21
270.777
 31
11.9
  0
LINE
  5
C2F
330
A02
100
AcDbEntity
  8
Mesh_cs
100
AcDbLine
 10
296.148
 20
270.777
 30
11.9
 11
296.169
 21
270.803
 31
11.9
  0
LINE
  5
C30
330
A02
100
AcDbEntity
  8
Mesh_cs
100
AcDbLine
 10
296.169
 20
270.803
 30
11.9
 11
298.783
 21
273.783
 31
11.9
  0
LINE
  5
C31
330
A02
100
AcDbEntity
  8
Mesh_cs
100
AcDbLine
 10
298.783
 20
273.783
 30
11.9
 11
298.805
 21
273.808
 31
11.9
  0
LINE
  5
C32
330
A02
100
AcDbEntity
  8
Mesh_cs
100
AcDbLine
 10
298.805
 20
273.808
 30
11.9
 11
301.446
 21
276.762
 31
11.9
  0
LINE
  5
C33
330
A02
100
AcDbEntity
  8
Mesh_cs
100
AcDbLine
 10
301.446
 20
276.762
 30
11.9
 11
301.469
 21
276.787
 31
11.9
  0
LINE
  5
C34
330
A02
100
AcDbEntity
  8
Mesh_cs
100
AcDbLine
 10
301.469
 20
276.787
 30
11.9
 11
304.139
 21
279.716
 31
11.9
  0
LINE
  5
C35
330
A02
100
AcDbEntity
  8
Mesh_cs
100
AcDbLine
 10
304.139
 20
279.716
 30
11.9
 11
304.161
 21
279.74
 31
11.9
  0
LINE
  5
C36
330
A02
100
AcDbEntity
  8
Mesh_cs
100
AcDbLine
 10
304.161
 20
279.74
 30
11.9
 11
306.86
 21
282.643
 31
11.9
  0
LINE
  5
C37
330
A02
100
AcDbEntity
  8
Mesh_cs
100
AcDbLine
 10
306.86
 20
282.643
 30
11.9
 11
306.883
 21
282.668
 31
11.9
  0
LINE
  5
C38
330
A02
100
AcDbEntity
  8
Mesh_cs
100
AcDbLine
 10
306.883
 20
282.668
 30
11.9
 11
309.609
 21
285.544
 31
11.9
  0
LINE
  5
C39
330
A02
100
AcDbEntity
  8
Mesh_cs
100
AcDbLine
 10
309.609
 20
285.544
 30
11.9
 11
309.632
 21
285.568
 31
11.9
  0
LINE
  5
C3A
330
A02
100
AcDbEntity
  8
Mesh_cs
100
AcDbLine
 10
309.632
 20
285.568
 30
11.9
 11
312.386
 21
288.418
 31
11.9
  0
LINE
  5
C3B
330
A02
100
AcDbEntity
  8
Mesh_cs
100
AcDbLine
 10
312.386
 20
288.418
 30
11.9
 11
312.409
 21
288.442
 31
11.9
  0
LINE
  5
C3C
330
A02
100
AcDbEntity
  8
Mesh_cs
100
AcDbLine
 10
312.409
 20
288.442
 30
11.9
 11
315.191
 21
291.266
 31
11.9
  0
LINE
  5
C3D
330
A02
100
AcDbEntity
  8
Mesh_cs
100
AcDbLine
 10
315.191
 20
291.266
 30
11.9
 11
315.214
 21
291.289
 31
11.9
  0
LINE
  5
C3E
330
A02
100
AcDbEntity
  8
Mesh_cs
100
AcDbLine
 10
315.214
 20
291.289
 30
11.9
 11
318.023
 21
294.086
 31
11.9
  0
LINE
  5
C3F
330
A02
100
AcDbEntity
  8
Mesh_cs
100
AcDbLine
 10
318.023
 20
294.086
 30
11.9
 11
318.047
 21
294.109
 31
11.9
  0
LINE
  5
C40
330
A02
100
AcDbEntity
  8
Mesh_cs
100
AcDbLine
 10
318.047
 20
294.109
 30
11.9
 11
320.883
 21
296.878
 31
11.9
  0
LINE
  5
C41
330
A02
100
AcDbEntity
  8
Mesh_cs
100
AcDbLine
 10
320.883
 20
296.878
 30
11.9
 11
320.906
 21
296.901
 31
11.9
  0
LINE
  5
C42
330
A02
100
AcDbEntity
  8
Mesh_cs
100
AcDbLine
 10
320.906
 20
296.901
 30
11.9
 11
323.769
 21
299.643
 31
11.9
  0
LINE
  5
C43
330
A02
100
AcDbEntity
  8
Mesh_cs
100
AcDbLine
 10
323.769
 20
299.643
 30
11.9
 11
323.793
 21
299.666
 31
11.9
  0
LINE
  5
C44
330
A02
100
AcDbEntity
  8
Mesh_cs
100
AcDbLine
 10
323.793
 20
299.666
 30
11.9
 11
326.682
 21
302.379
 31
11.9
  0
LINE
  5
C45
330
A02
100
AcDbEntity
  8
Mesh_cs
100
AcDbLine
 10
326.682
 20
302.379
 30
11.9
 11
326.706
 21
302.402
 31
11.9
  0
LINE
  5
C46
330
A02
100
AcDbEntity
  8
Mesh_cs
100
AcDbLine
 10
326.706
 20
302.402
 30
11.9
 11
329.621
 21
305.088
 31
11.9
  0
LINE
  5
C47
330
A02
100
AcDbEntity
  8
Mesh_cs
100
AcDbLine
 10
329.621
 20
305.088
 30
11.9
 11
329.645
 21
305.11
 31
11.9
  0
LINE
  5
C48
330
A02
100
AcDbEntity
  8
Mesh_cs
100
AcDbLine
 10
329.645
 20
305.11
 30
11.9
 11
332.586
 21
307.767
 31
11.9
  0
LINE
  5
C49
330
A02
100
AcDbEntity
  8
Mesh_cs
100
AcDbLine
 10
332.586
 20
307.767
 30
11.9
 11
332.611
 21
307.79
 31
11.9
  0
LINE
  5
C4A
330
A02
100
AcDbEntity
  8
Mesh_cs
100
AcDbLine
 10
332.611
 20
307.79
 30
11.9
 11
332.636
 21
307.812
 31
11.9
  0
LINE
  5
C4B
330
A02
100
AcDbEntity
  8
Mesh_cs
100
AcDbLine
 10
332.636
 20
307.812
 30
11.9
 11
335.602
 21
310.44
 31
11.9
  0
LINE
  5
C4C
330
A02
100
AcDbEntity
  8
Mesh_cs
100
AcDbLine
 10
335.602
 20
310.44
 30
11.9
 11
338.594
 21
313.04
 31
11.9
  0
LINE
  5
C4D
330
A02
100
AcDbEntity
  8
Mesh_cs
100
AcDbLine
 10
338.594
 20
313.04
 30
11.9
 11
338.619
 21
313.062
 31
11.9
  0
LINE
  5
C4E
330
A02
100
AcDbEntity
  8
Mesh_cs
100
AcDbLine
 10
338.619
 20
313.062
 30
11.9
 11
341.636
 21
315.633
 31
11.9
  0
LINE
  5
C4F
330
A02
100
AcDbEntity
  8
Mesh_cs
100
AcDbLine
 10
341.636
 20
315.633
 30
11.9
 11
341.661
 21
315.654
 31
11.9
  0
LINE
  5
C50
330
A02
100
AcDbEntity
  8
Mesh_cs
100
AcDbLine
 10
341.661
 20
315.654
 30
11.9
 11
341.687
 21
315.675
 31
11.9
  0
LINE
  5
C51
330
A02
100
AcDbEntity
  8
Mesh_cs
100
AcDbLine
 10
341.687
 20
315.675
 30
11.9
 11
344.728
 21
318.217
 31
11.9
  0
LINE
  5
C52
330
A02
100
AcDbEntity
  8
Mesh_cs
100
AcDbLine
 10
344.728
 20
318.217
 30
11.9
 11
347.794
 21
320.729
 31
11.9
  0
LINE
  5
C53
330
A02
100
AcDbEntity
  8
Mesh_cs
100
AcDbLine
 10
347.794
 20
320.729
 30
11.9
 11
347.82
 21
320.75
 31
11.9
  0
LINE
  5
C54
330
A02
100
AcDbEntity
  8
Mesh_cs
100
AcDbLine
 10
347.82
 20
320.75
 30
11.9
 11
350.91
 21
323.232
 31
11.9
  0
LINE
  5
C55
330
A02
100
AcDbEntity
  8
Mesh_cs
100
AcDbLine
 10
350.91
 20
323.232
 30
11.9
 11
350.936
 21
323.253
 31
11.9
  0
LINE
  5
C56
330
A02
100
AcDbEntity
  8
Mesh_cs
100
AcDbLine
 10
350.936
 20
323.253
 30
11.9
 11
350.962
 21
323.273
 31
11.9
  0
LINE
  5
C57
330
A02
100
AcDbEntity
  8
Mesh_cs
100
AcDbLine
 10
350.962
 20
323.273
 30
11.9
 11
354.076
 21
325.725
 31
11.9
  0
LINE
  5
C58
330
A02
100
AcDbEntity
  8
Mesh_cs
100
AcDbLine
 10
354.076
 20
325.725
 30
11.9
 11
357.213
 21
328.147
 31
11.9
  0
LINE
  5
C59
330
A02
100
AcDbEntity
  8
Mesh_cs
100
AcDbLine
 10
357.213
 20
328.147
 30
11.9
 11
357.24
 21
328.167
 31
11.9
  0
LINE
  5
C5A
330
A02
100
AcDbEntity
  8
Mesh_cs
100
AcDbLine
 10
357.24
 20
328.167
 30
11.9
 11
360.401
 21
330.558
 31
11.9
  0
LINE
  5
C5B
330
A02
100
AcDbEntity
  8
Mesh_cs
100
AcDbLine
 10
360.401
 20
330.558
 30
11.9
 11
360.427
 21
330.579
 31
11.9
  0
LINE
  5
C5C
330
A02
100
AcDbEntity
  8
Mesh_cs
100
AcDbLine
 10
360.427
 20
330.579
 30
11.9
 11
363.611
 21
332.939
 31
11.9
  0
LINE
  5
C5D
330
A02
100
AcDbEntity
  8
Mesh_cs
100
AcDbLine
 10
363.611
 20
332.939
 30
11.9
 11
363.638
 21
332.959
 31
11.9
  0
LINE
  5
C5E
330
A02
100
AcDbEntity
  8
Mesh_cs
100
AcDbLine
 10
363.638
 20
332.959
 30
11.9
 11
366.844
 21
335.289
 31
11.9
  0
LINE
  5
C5F
330
A02
100
AcDbEntity
  8
Mesh_cs
100
AcDbLine
 10
366.844
 20
335.289
 30
11.9
 11
366.871
 21
335.308
 31
11.9
  0
LINE
  5
C60
330
A02
100
AcDbEntity
  8
Mesh_cs
100
AcDbLine
 10
366.871
 20
335.308
 30
11.9
 11
370.1
 21
337.607
 31
11.9
  0
LINE
  5
C61
330
A02
100
AcDbEntity
  8
Mesh_cs
100
AcDbLine
 10
370.1
 20
337.607
 30
11.9
 11
370.127
 21
337.626
 31
11.9
  0
LINE
  5
C62
330
A02
100
AcDbEntity
  8
Mesh_cs
100
AcDbLine
 10
370.127
 20
337.626
 30
11.9
 11
373.378
 21
339.893
 31
11.9
  0
LINE
  5
C63
330
A02
100
AcDbEntity
  8
Mesh_cs
100
AcDbLine
 10
373.378
 20
339.893
 30
11.9
 11
373.405
 21
339.912
 31
11.9
  0
LINE
  5
C64
330
A02
100
AcDbEntity
  8
Mesh_cs
100
AcDbLine
 10
373.405
 20
339.912
 30
11.9
 11
376.678
 21
342.148
 31
11.9
  0
LINE
  5
C65
330
A02
100
AcDbEntity
  8
Mesh_cs
100
AcDbLine
 10
376.678
 20
342.148
 30
11.9
 11
376.706
 21
342.167
 31
11.9
  0
LINE
  5
C66
330
A02
100
AcDbEntity
  8
Mesh_cs
100
AcDbLine
 10
376.706
 20
342.167
 30
11.9
 11
380
 21
344.37
 31
11.9
  0
LINE
  5
C67
330
A02
100
AcDbEntity
  8
Mesh_cs
100
AcDbLine
 10
380
 20
344.37
 30
11.9
 11
380.028
 21
344.389
 31
11.9
  0
LINE
  5
C68
330
A02
100
AcDbEntity
  8
Mesh_cs
100
AcDbLine
 10
380.028
 20
344.389
 30
11.9
 11
380.055
 21
344.407
 31
11.9
  0
LINE
  5
C69
330
A02
100
AcDbEntity
  8
Mesh_cs
100
AcDbLine
 10
380.055
 20
344.407
 30
11.9
 11
383.371
 21
346.579
 31
11.9
  0
LINE
  5
C6A
330
A02
100
AcDbEntity
  8
Mesh_cs
100
AcDbLine
 10
383.371
 20
346.579
 30
11.9
 11
383.399
 21
346.597
 31
11.9
  0
LINE
  5
C6B
330
A02
100
AcDbEntity
  8
Mesh_cs
100
AcDbLine
 10
383.399
 20
346.597
 30
11.9
 11
386.735
 21
348.737
 31
11.9
  0
LINE
  5
C6C
330
A02
100
AcDbEntity
  8
Mesh_cs
100
AcDbLine
 10
386.735
 20
348.737
 30
11.9
 11
390.092
 21
350.844
 31
11.9
  0
LINE
  5
C6D
330
A02
100
AcDbEntity
  8
Mesh_cs
100
AcDbLine
 10
390.092
 20
350.844
 30
11.9
 11
390.12
 21
350.862
 31
11.9
  0
LINE
  5
C6E
330
A02
100
AcDbEntity
  8
Mesh_cs
100
AcDbLine
 10
390.12
 20
350.862
 30
11.9
 11
390.148
 21
350.879
 31
11.9
  0
LINE
  5
C6F
330
A02
100
AcDbEntity
  8
Mesh_cs
100
AcDbLine
 10
390.148
 20
350.879
 30
11.9
 11
393.526
 21
352.954
 31
11.9
  0
LINE
  5
C70
330
A02
100
AcDbEntity
  8
Mesh_cs
100
AcDbLine
 10
393.526
 20
352.954
 30
11.9
 11
393.554
 21
352.971
 31
11.9
  0
LINE
  5
C71
330
A02
100
AcDbEntity
  8
Mesh_cs
100
AcDbLine
 10
393.554
 20
352.971
 30
11.9
 11
396.951
 21
355.013
 31
11.9
  0
LINE
  5
C72
330
A02
100
AcDbEntity
  8
Mesh_cs
100
AcDbLine
 10
396.951
 20
355.013
 30
11.9
 11
400.368
 21
357.022
 31
11.9
  0
LINE
  5
C73
330
A02
100
AcDbEntity
  8
Mesh_cs
100
AcDbLine
 10
400.368
 20
357.022
 30
11.9
 11
400.396
 21
357.039
 31
11.9
  0
LINE
  5
C74
330
A02
100
AcDbEntity
  8
Mesh_cs
100
AcDbLine
 10
400.396
 20
357.039
 30
11.9
 11
400.425
 21
357.055
 31
11.9
  0
LINE
  5
C75
330
A02
100
AcDbEntity
  8
Mesh_cs
100
AcDbLine
 10
400.425
 20
357.055
 30
11.9
 11
403.861
 21
359.031
 31
11.9
  0
LINE
  5
C76
330
A02
100
AcDbEntity
  8
Mesh_cs
100
AcDbLine
 10
403.861
 20
359.031
 30
11.9
 11
403.89
 21
359.047
 31
11.9
  0
LINE
  5
C77
330
A02
100
AcDbEntity
  8
Mesh_cs
100
AcDbLine
 10
403.89
 20
359.047
 30
11.9
 11
407.345
 21
360.99
 31
11.9
  0
LINE
  5
C78
330
A02
100
AcDbEntity
  8
Mesh_cs
100
AcDbLine
 10
407.345
 20
360.99
 30
11.9
 11
410.818
 21
362.899
 31
11.9
  0
LINE
  5
C79
330
A02
100
AcDbEntity
  8
Mesh_cs
100
AcDbLine
 10
410.818
 20
362.899
 30
11.9
 11
410.847
 21
362.915
 31
11.9
  0
LINE
  5
C7A
330
A02
100
AcDbEntity
  8
Mesh_cs
100
AcDbLine
 10
410.847
 20
362.915
 30
11.9
 11
414.339
 21
364.79
 31
11.9
  0
LINE
  5
C7B
330
A02
100
AcDbEntity
  8
Mesh_cs
100
AcDbLine
 10
414.339
 20
364.79
 30
11.9
 11
414.368
 21
364.806
 31
11.9
  0
LINE
  5
C7C
330
A02
100
AcDbEntity
  8
Mesh_cs
100
AcDbLine
 10
414.368
 20
364.806
 30
11.9
 11
417.878
 21
366.647
 31
11.9
  0
LINE
  5
C7D
330
A02
100
AcDbEntity
  8
Mesh_cs
100
AcDbLine
 10
417.878
 20
366.647
 30
11.9
 11
417.908
 21
366.662
 31
11.9
  0
LINE
  5
C7E
330
A02
100
AcDbEntity
  8
Mesh_cs
100
AcDbLine
 10
417.908
 20
366.662
 30
11.9
 11
421.435
 21
368.47
 31
11.9
  0
LINE
  5
C7F
330
A02
100
AcDbEntity
  8
Mesh_cs
100
AcDbLine
 10
421.435
 20
368.47
 30
11.9
 11
421.465
 21
368.485
 31
11.9
  0
LINE
  5
C80
330
A02
100
AcDbEntity
  8
Mesh_cs
100
AcDbLine
 10
421.465
 20
368.485
 30
11.9
 11
425.009
 21
370.258
 31
11.9
  0
LINE
  5
C81
330
A02
100
AcDbEntity
  8
Mesh_cs
100
AcDbLine
 10
425.009
 20
370.258
 30
11.9
 11
425.039
 21
370.273
 31
11.9
  0
LINE
  5
C82
330
A02
100
AcDbEntity
  8
Mesh_cs
100
AcDbLine
 10
425.039
 20
370.273
 30
11.9
 11
428.601
 21
372.012
 31
11.9
  0
LINE
  5
C83
330
A02
100
AcDbEntity
  8
Mesh_cs
100
AcDbLine
 10
428.601
 20
372.012
 30
11.9
 11
428.631
 21
372.026
 31
11.9
  0
LINE
  5
C84
330
A02
100
AcDbEntity
  8
Mesh_cs
100
AcDbLine
 10
428.631
 20
372.026
 30
11.9
 11
432.209
 21
373.73
 31
11.9
  0
LINE
  5
C85
330
A02
100
AcDbEntity
  8
Mesh_cs
100
AcDbLine
 10
432.209
 20
373.73
 30
11.9
 11
432.239
 21
373.745
 31
11.9
  0
LINE
  5
C86
330
A02
100
AcDbEntity
  8
Mesh_cs
100
AcDbLine
 10
432.239
 20
373.745
 30
11.9
 11
435.834
 21
375.414
 31
11.9
  0
LINE
  5
C87
330
A02
100
AcDbEntity
  8
Mesh_cs
100
AcDbLine
 10
435.834
 20
375.414
 30
11.9
 11
435.864
 21
375.428
 31
11.9
  0
LINE
  5
C88
330
A02
100
AcDbEntity
  8
Mesh_cs
100
AcDbLine
 10
435.864
 20
375.428
 30
11.9
 11
439.475
 21
377.063
 31
11.9
  0
LINE
  5
C89
330
A02
100
AcDbEntity
  8
Mesh_cs
100
AcDbLine
 10
439.475
 20
377.063
 30
11.9
 11
439.505
 21
377.076
 31
11.9
  0
LINE
  5
C8A
330
A02
100
AcDbEntity
  8
Mesh_cs
100
AcDbLine
 10
439.505
 20
377.076
 30
11.9
 11
439.536
 21
377.09
 31
11.9
  0
LINE
  5
C8B
330
A02
100
AcDbEntity
  8
Mesh_cs
100
AcDbLine
 10
439.536
 20
377.09
 30
11.9
 11
443.162
 21
378.689
 31
11.9
  0
LINE
  5
C8C
330
A02
100
AcDbEntity
  8
Mesh_cs
100
AcDbLine
 10
443.162
 20
378.689
 30
11.9
 11
446.804
 21
380.254
 31
11.9
  0
LINE
  5
C8D
330
A02
100
AcDbEntity
  8
Mesh_cs
100
AcDbLine
 10
446.804
 20
380.254
 30
11.9
 11
446.834
 21
380.267
 31
11.9
  0
LINE
  5
C8E
330
A02
100
AcDbEntity
  8
Mesh_cs
100
AcDbLine
 10
446.834
 20
380.267
 30
11.9
 11
450.491
 21
381.796
 31
11.9
  0
LINE
  5
C8F
330
A02
100
AcDbEntity
  8
Mesh_cs
100
AcDbLine
 10
450.491
 20
381.796
 30
11.9
 11
450.521
 21
381.809
 31
11.9
  0
LINE
  5
C90
330
A02
100
AcDbEntity
  8
Mesh_cs
100
AcDbLine
 10
450.521
 20
381.809
 30
11.9
 11
454.193
 21
383.302
 31
11.9
  0
LINE
  5
C91
330
A02
100
AcDbEntity
  8
Mesh_cs
100
AcDbLine
 10
454.193
 20
383.302
 30
11.9
 11
454.224
 21
383.315
 31
11.9
  0
LINE
  5
C92
330
A02
100
AcDbEntity
  8
Mesh_cs
100
AcDbLine
 10
466.217
 20
388.198
 30
11.9
 11
479.915
 21
392.649
 31
11.9
  0
LINE
  5
C93
330
A02
100
AcDbEntity
  8
Mesh_cs
100
AcDbLine
 10
479.915
 20
392.649
 30
11.9
 11
480.387
 21
392.802
 31
11.9
  0
LINE
  5
C94
330
A02
100
AcDbEntity
  8
Mesh_cs
100
AcDbLine
 10
480.387
 20
392.802
 30
11.9
 11
480.234
 21
393.275
 31
11.9
  0
LINE
  5
C95
330
A02
100
AcDbEntity
  8
Mesh_cs
100
AcDbLine
 10
480.234
 20
393.275
 30
11.9
 11
475.783
 21
406.973
 31
11.9
  0
LINE
  5
C96
330
A02
100
AcDbEntity
  8
Mesh_cs
100
AcDbLine
 10
475.783
 20
406.973
 30
11.9
 11
462.085
 21
402.522
 31
11.9
  0
LINE
  5
C97
330
A02
100
AcDbEntity
  8
Mesh_cs
100
AcDbLine
 10
462.085
 20
402.522
 30
11.9
 11
461.612
 21
402.369
 31
11.9
  0
LINE
  5
C98
330
A02
100
AcDbEntity
  8
Mesh_cs
100
AcDbLine
 10
461.612
 20
402.369
 30
11.9
 11
461.766
 21
401.896
 31
11.9
  0
LINE
  5
C99
330
A02
100
AcDbEntity
  8
Mesh_cs
100
AcDbLine
 10
461.766
 20
401.896
 30
11.9
 11
466.217
 21
388.198
 31
11.9
  0
LINE
  5
C9A
330
A02
100
AcDbEntity
  8
Mesh_cs
100
AcDbLine
 10
262.117
 20
251.925
 30
11.9
 11
270.583
 21
263.577
 31
11.9
  0
LINE
  5
C9B
330
A02
100
AcDbEntity
  8
Mesh_cs
100
AcDbLine
 10
270.583
 20
263.577
 30
11.9
 11
270.985
 21
263.285
 31
11.9
  0
LINE
  5
C9C
330
A02
100
AcDbEntity
  8
Mesh_cs
100
AcDbLine
 10
270.985
 20
263.285
 30
11.9
 11
282.637
 21
254.819
 31
11.9
  0
LINE
  5
C9D
330
A02
100
AcDbEntity
  8
Mesh_cs
100
AcDbLine
 10
282.637
 20
254.819
 30
11.9
 11
274.171
 21
243.167
 31
11.9
  0
LINE
  5
C9E
330
A02
100
AcDbEntity
  8
Mesh_cs
100
AcDbLine
 10
274.171
 20
243.167
 30
11.9
 11
273.879
 21
242.765
 31
11.9
  0
LINE
  5
C9F
330
A02
100
AcDbEntity
  8
Mesh_cs
100
AcDbLine
 10
273.879
 20
242.765
 30
11.9
 11
273.477
 21
243.057
 31
11.9
  0
LINE
  5
CA0
330
A02
100
AcDbEntity
  8
Mesh_cs
100
AcDbLine
 10
273.477
 20
243.057
 30
11.9
 11
261.825
 21
251.523
 31
11.9
  0
LINE
  5
CA1
330
A02
100
AcDbEntity
  8
Mesh_cs
100
AcDbLine
 10
261.825
 20
251.523
 30
11.9
 11
262.117
 21
251.925
 31
11.9
  0
ENDSEC
  0
SECTION
  2
OBJECTS
  0
DICTIONARY
  5
F000
330
0
100
AcDbDictionary
  3
ACAD_GROUP
350
F001
  0
DICTIONARY
  5
F001
330
F000
100
AcDbDictionary
  0
ENDSEC
  0
EOF