999
FreeCAD v0.21 33771 (Git)
  0
SECTION
  2
HEADER
  9
$ACADVER
  1
AC1014
  9
$ACADMAINTVER
 70
     9
  9
$DWGCODEPAGE
  3
ANSI_1252
  9
$TEXTSTYLE
  7
STANDARD
  9
$DIMSTYLE
  2
STANDARD
  9
$DIMTXSTY
  7
STANDARD
  9
$CMLSTYLE
  2
STANDARD
  9
$LUNITS
 70
2
  9
$INSUNITS
 70
4
  9
$PEXTMAX
 10
50
 20
50
 30
50
  9
$PEXTMIN
 10
0
 20
0
 30
0
  9
$HANDSEED
  5
FFFF
  0
ENDSEC
  0
SECTION
  2
CLASSES
  0
CLASS
  1
ACDBDICTIONARYWDFLT
  2
AcDbDictionaryWithDefault
  3
ObjectDBX Classes
 90
        0
280
     0
281
     0
  0
CLASS
  1
XRECORD
  2
AcDbXrecord
  3
ObjectDBX Classes
 90
        0
280
     0
281
     0
  0
CLASS
  1
LWPOLYLINE
  2
AcDbPolyline
  3
ObjectDBX Classes
 90
        0
280
     0
281
     1
  0
ENDSEC
  0
SECTION
  2
TABLES
  0
TABLE
  2
VPORT
  5
20
330
0
100
AcDbSymbolTable
 70
     1
  0
VPORT
  5
21
330
20
100
AcDbSymbolTableRecord
100
AcDbViewportTableRecord
  2
*ACTIVE
 70
     0
  0
ENDTAB
  0
TABLE
  2
LTYPE
  5
22
330
0
100
AcDbSymbolTable
 70
     1
  0
LTYPE
  5
23
330
21
100
AcDbSymbolTableRecord
100
AcDbLinetypeTableRecord
  2
BYBLOCK
 70
     0
  3

 72
    65
 73
     0
 40
0.0
  0
LTYPE
  5
24
330
21
100
AcDbSymbolTableRecord
100
AcDbLinetypeTableRecord
  2
BYLAYER
 70
     0
  3

 72
    65
 73
     0
 40
0.0
  0
LTYPE
  5
25
330
21
100
AcDbSymbolTableRecord
100
AcDbLinetypeTableRecord
  2
CONTINUOUS
 70
     0
  3
Solid line
 72
    65
 73
     0
 40
0.0
  0
ENDTAB
  0
TABLE
  2
LAYER
  5
CE5
330
0
100
AcDbSymbolTable
 70
3
  0
LAYER
  5
CE6
330
CE5
100
AcDbSymbolTableRecord
100
AcDbLayerTableRecord
  2
0
 70
   0
 62
   7
  6
CONTINUOUS
  0
LAYER
  5
CE7
330
CE5
100
AcDbSymbolTableRecord
100
AcDbLayerTableRecord
  2
none
 70
    0
 62
    7
  6
CONTINUOUS
  0
LAYER
  5
CE8
330
CE5
100
AcDbSymbolTableRecord
100
AcDbLayerTableRecord
  2
Mesh_cs002
 70
    0
 62
    7
  6
CONTINUOUS
  0
ENDTAB
  0
TABLE
  2
STYLE
  5
70
330
0
100
AcDbSymbolTable
 70
     2
  0
STYLE
  5
71
330
70
100
AcDbSymbolTableRecord
100
AcDbTextStyleTableRecord
  2
STANDARD
 70
     0
 40
0.0
 41
1.0
 50
0.0
 71
     0
 42
2.5
  3
arial.ttf
  4

  0
STYLE
  5
72
330
70
100
AcDbSymbolTableRecord
100
AcDbTextStyleTableRecord
  2
ANNOTATIVE
 70
     0
 40
0.0
 41
1.0
 50
0.0
 71
     0
 42
2.5
  3
arial.ttf
  4

  0
ENDTAB
  0
TABLE
  2
VIEW
  5
73
330
0
100
AcDbSymbolTable
 70
     0
  0
ENDTAB
  0
TABLE
  2
UCS
  5
74
330
0
100
AcDbSymbolTable
 70
     0
  0
ENDTAB
  0
TABLE
  2
APPID
  5
75
330
0
100
AcDbSymbolTable
 70
     2
  0
APPID
  5
76
330
75
100
AcDbSymbolTableRecord
100
AcDbRegAppTableRecord
  2
ACAD
 70
     0
  0
APPID
  5
77
330
75
100
AcDbSymbolTableRecord
100
AcDbRegAppTableRecord
  2
ACADANNOTATIVE
 70
     0
  0
ENDTAB
  0
TABLE
  2
DIMSTYLE
  5
78
330
0
100
AcDbSymbolTable
 70
     2
  0
DIMSTYLE
105
79
330
78
100
AcDbSymbolTableRecord
100
AcDbDimStyleTableRecord
  2
STANDARD
 70
     0
  3

  4

  5

  6

  7

 40
0.0
 41
2.5
 42
0.625
 43
3.75
 44
1.25
 45
0.0
 46
0.0
 47
0.0
 48
0.0
140
2.5
141
2.5
142
0.0
143
0.03937007874016
144
1.0
145
0.0
146
1.0
147
0.625
 71
     0
 72
     0
 73
     0
 74
     0
 75
     0
 76
     0
 77
     1
 78
     8
170
     0
171
     3
172
     1
173
     0
174
     0
175
     0
176
     0
177
     0
178
     0
270
     2
271
     2
272
     2
273
     2
274
     3
340
71
275
     0
280
     0
281
     0
282
     0
283
     0
284
     8
285
     0
286
     0
287
     3
288
     0
  0
ENDTAB
  0
TABLE
  2
BLOCK_RECORD
  5
A01
330
0
100
AcDbSymbolTable
  70
5
  0
BLOCK_RECORD
  5
A02
330
A01
100
AcDbSymbolTableRecord
100
AcDbBlockTableRecord
  2
*MODEL_SPACE
  0
BLOCK_RECORD
  5
A03
330
A01
100
AcDbSymbolTableRecord
100
AcDbBlockTableRecord
  2
*PAPER_SPACE
  0
ENDTAB
  0
ENDSEC
  0
SECTION
  2
BLOCKS
  0
BLOCK
  5
A04
330
A02
100
AcDbEntity
  8
0
100
AcDbBlockBegin
  2
*MODEL_SPACE
 70
   0
 10
0
 20
0
 30
0
  3
*MODEL_SPACE
  1
 
  0
ENDBLK
  5
A05
330
A02
100
AcDbEntity
  8
0
100
AcDbBlockEnd
  0
BLOCK
  5
A06
330
A03
100
AcDbEntity
 67
1
  8
0
100
AcDbBlockBegin
  2
*PAPER_SPACE
 70
   0
 10
0
 20
0
 30
0
  3
*PAPER_SPACE
  1
 
  0
ENDBLK
  5
A07
330
A03
100
AcDbEntity
 67
    1
  8
0
100
AcDbBlockEnd
  0
ENDSEC
  0
SECTION
  2
ENTITIES
  0
LINE
  5
A08
330
A02
100
AcDbEntity
  8
Mesh_cs002
100
AcDbLine
 10
-209.729
 20
109.297
 30
5.1
 11
-209.271
 21
107.632
 31
5.1
  0
LINE
  5
A09
330
A02
100
AcDbEntity
  8
Mesh_cs002
100
AcDbLine
 10
-209.271
 20
107.632
 30
5.1
 11
-208.829
 21
105.962
 31
5.1
  0
LINE
  5
A0A
330
A02
100
AcDbEntity
  8
Mesh_cs002
100
AcDbLine
 10
-208.829
 20
105.962
 30
5.1
 11
-208.231
 21
103.703
 31
5.1
  0
LINE
  5
A0B
330
A02
100
AcDbEntity
  8
Mesh_cs002
100
AcDbLine
 10
-208.231
 20
103.703
 30
5.1
 11
-207.656
 21
101.439
 31
5.1
  0
LINE
  5
A0C
330
A02
100
AcDbEntity
  8
Mesh_cs002
100
AcDbLine
 10
-207.656
 20
101.439
 30
5.1
 11
-207.23
 21
99.7646
 31
5.1
  0
LINE
  5
A0D
330
A02
100
AcDbEntity
  8
Mesh_cs002
100
AcDbLine
 10
-207.23
 20
99.7646
 30
5.1
 11
-206.677
 21
97.4944
 31
5.1
  0
LINE
  5
A0E
330
A02
100
AcDbEntity
  8
Mesh_cs002
100
AcDbLine
 10
-206.677
 20
97.4944
 30
5.1
 11
-206.268
 21
95.8163
 31
5.1
  0
LINE
  5
A0F
330
A02
100
AcDbEntity
  8
Mesh_cs002
100
AcDbLine
 10
-206.268
 20
95.8163
 30
5.1
 11
-205.876
 21
94.1344
 31
5.1
  0
LINE
  5
A10
330
A02
100
AcDbEntity
  8
Mesh_cs002
100
AcDbLine
 10
-205.876
 20
94.1344
 30
5.1
 11
-205.345
 21
91.8589
 31
5.1
  0
LINE
  5
A11
330
A02
100
AcDbEntity
  8
Mesh_cs002
100
AcDbLine
 10
-205.345
 20
91.8589
 30
5.1
 11
-204.836
 21
89.5783
 31
5.1
  0
LINE
  5
A12
330
A02
100
AcDbEntity
  8
Mesh_cs002
100
AcDbLine
 10
-204.836
 20
89.5783
 30
5.1
 11
-204.46
 21
87.8927
 31
5.1
  0
LINE
  5
A13
330
A02
100
AcDbEntity
  8
Mesh_cs002
100
AcDbLine
 10
-204.46
 20
87.8927
 30
5.1
 11
-203.974
 21
85.6073
 31
5.1
  0
LINE
  5
A14
330
A02
100
AcDbEntity
  8
Mesh_cs002
100
AcDbLine
 10
-203.974
 20
85.6073
 30
5.1
 11
-203.615
 21
83.918
 31
5.1
  0
LINE
  5
A15
330
A02
100
AcDbEntity
  8
Mesh_cs002
100
AcDbLine
 10
-203.615
 20
83.918
 30
5.1
 11
-203.152
 21
81.628
 31
5.1
  0
LINE
  5
A16
330
A02
100
AcDbEntity
  8
Mesh_cs002
100
AcDbLine
 10
-203.152
 20
81.628
 30
5.1
 11
-202.809
 21
79.9354
 31
5.1
  0
LINE
  5
A17
330
A02
100
AcDbEntity
  8
Mesh_cs002
100
AcDbLine
 10
-202.809
 20
79.9354
 30
5.1
 11
-202.483
 21
78.2395
 31
5.1
  0
LINE
  5
A18
330
A02
100
AcDbEntity
  8
Mesh_cs002
100
AcDbLine
 10
-202.483
 20
78.2395
 30
5.1
 11
-202.042
 21
75.9451
 31
5.1
  0
LINE
  5
A19
330
A02
100
AcDbEntity
  8
Mesh_cs002
100
AcDbLine
 10
-202.042
 20
75.9451
 30
5.1
 11
-201.624
 21
73.6465
 31
5.1
  0
LINE
  5
A1A
330
A02
100
AcDbEntity
  8
Mesh_cs002
100
AcDbLine
 10
-201.624
 20
73.6465
 30
5.1
 11
-201.315
 21
71.9475
 31
5.1
  0
LINE
  5
A1B
330
A02
100
AcDbEntity
  8
Mesh_cs002
100
AcDbLine
 10
-201.315
 20
71.9475
 30
5.1
 11
-200.919
 21
69.645
 31
5.1
  0
LINE
  5
A1C
330
A02
100
AcDbEntity
  8
Mesh_cs002
100
AcDbLine
 10
-200.919
 20
69.645
 30
5.1
 11
-200.627
 21
67.9431
 31
5.1
  0
LINE
  5
A1D
330
A02
100
AcDbEntity
  8
Mesh_cs002
100
AcDbLine
 10
-200.627
 20
67.9431
 30
5.1
 11
-200.351
 21
66.2384
 31
5.1
  0
LINE
  5
A1E
330
A02
100
AcDbEntity
  8
Mesh_cs002
100
AcDbLine
 10
-200.351
 20
66.2384
 30
5.1
 11
-199.978
 21
63.9322
 31
5.1
  0
LINE
  5
A1F
330
A02
100
AcDbEntity
  8
Mesh_cs002
100
AcDbLine
 10
-199.978
 20
63.9322
 30
5.1
 11
-199.628
 21
61.6224
 31
5.1
  0
LINE
  5
A20
330
A02
100
AcDbEntity
  8
Mesh_cs002
100
AcDbLine
 10
-199.628
 20
61.6224
 30
5.1
 11
-199.369
 21
59.9152
 31
5.1
  0
LINE
  5
A21
330
A02
100
AcDbEntity
  8
Mesh_cs002
100
AcDbLine
 10
-199.369
 20
59.9152
 30
5.1
 11
-199.127
 21
58.2055
 31
5.1
  0
LINE
  5
A22
330
A02
100
AcDbEntity
  8
Mesh_cs002
100
AcDbLine
 10
-199.127
 20
58.2055
 30
5.1
 11
-198.799
 21
55.8925
 31
5.1
  0
LINE
  5
A23
330
A02
100
AcDbEntity
  8
Mesh_cs002
100
AcDbLine
 10
-198.799
 20
55.8925
 30
5.1
 11
-198.495
 21
53.5764
 31
5.1
  0
LINE
  5
A24
330
A02
100
AcDbEntity
  8
Mesh_cs002
100
AcDbLine
 10
-198.495
 20
53.5764
 30
5.1
 11
-198.269
 21
51.8645
 31
5.1
  0
LINE
  5
A25
330
A02
100
AcDbEntity
  8
Mesh_cs002
100
AcDbLine
 10
-198.269
 20
51.8645
 30
5.1
 11
-198.061
 21
50.1505
 31
5.1
  0
LINE
  5
A26
330
A02
100
AcDbEntity
  8
Mesh_cs002
100
AcDbLine
 10
-198.061
 20
50.1505
 30
5.1
 11
-197.779
 21
47.8315
 31
5.1
  0
LINE
  5
A27
330
A02
100
AcDbEntity
  8
Mesh_cs002
100
AcDbLine
 10
-197.779
 20
47.8315
 30
5.1
 11
-197.52
 21
45.51
 31
5.1
  0
LINE
  5
A28
330
A02
100
AcDbEntity
  8
Mesh_cs002
100
AcDbLine
 10
-197.52
 20
45.51
 30
5.1
 11
-197.328
 21
43.7941
 31
5.1
  0
LINE
  5
A29
330
A02
100
AcDbEntity
  8
Mesh_cs002
100
AcDbLine
 10
-197.328
 20
43.7941
 30
5.1
 11
-197.092
 21
41.4702
 31
5.1
  0
LINE
  5
A2A
330
A02
100
AcDbEntity
  8
Mesh_cs002
100
AcDbLine
 10
-197.092
 20
41.4702
 30
5.1
 11
-196.918
 21
39.7525
 31
5.1
  0
LINE
  5
A2B
330
A02
100
AcDbEntity
  8
Mesh_cs002
100
AcDbLine
 10
-196.918
 20
39.7525
 30
5.1
 11
-196.704
 21
37.4264
 31
5.1
  0
LINE
  5
A2C
330
A02
100
AcDbEntity
  8
Mesh_cs002
100
AcDbLine
 10
-196.704
 20
37.4264
 30
5.1
 11
-196.546
 21
35.7071
 31
5.1
  0
LINE
  5
A2D
330
A02
100
AcDbEntity
  8
Mesh_cs002
100
AcDbLine
 10
-196.546
 20
35.7071
 30
5.1
 11
-196.36
 21
33.4377
 31
5.1
  0
LINE
  5
A2E
330
A02
100
AcDbEntity
  8
Mesh_cs002
100
AcDbLine
 10
-196.36
 20
33.4377
 30
5.1
 11
-196.223
 21
31.7603
 31
5.1
  0
LINE
  5
A2F
330
A02
100
AcDbEntity
  8
Mesh_cs002
100
AcDbLine
 10
-196.223
 20
31.7603
 30
5.1
 11
-196.059
 21
29.4918
 31
5.1
  0
LINE
  5
A30
330
A02
100
AcDbEntity
  8
Mesh_cs002
100
AcDbLine
 10
-196.059
 20
29.4918
 30
5.1
 11
-195.938
 21
27.8151
 31
5.1
  0
LINE
  5
A31
330
A02
100
AcDbEntity
  8
Mesh_cs002
100
AcDbLine
 10
-195.938
 20
27.8151
 30
5.1
 11
-195.733
 21
27.5067
 31
5.1
  0
LINE
  5
A32
330
A02
100
AcDbEntity
  8
Mesh_cs002
100
AcDbLine
 10
-195.733
 20
27.5067
 30
5.1
 11
-195.727
 21
27.4957
 31
5.1
  0
LINE
  5
A33
330
A02
100
AcDbEntity
  8
Mesh_cs002
100
AcDbLine
 10
-195.727
 20
27.4957
 30
5.1
 11
-195.714
 21
27.4718
 31
5.1
  0
LINE
  5
A34
330
A02
100
AcDbEntity
  8
Mesh_cs002
100
AcDbLine
 10
-195.714
 20
27.4718
 30
5.1
 11
-195.686
 21
27.4233
 31
5.1
  0
LINE
  5
A35
330
A02
100
AcDbEntity
  8
Mesh_cs002
100
AcDbLine
 10
-195.686
 20
27.4233
 30
5.1
 11
-195.646
 21
27.3496
 31
5.1
  0
LINE
  5
A36
330
A02
100
AcDbEntity
  8
Mesh_cs002
100
AcDbLine
 10
-195.646
 20
27.3496
 30
5.1
 11
-195.5
 21
27.0796
 31
5.1
  0
LINE
  5
A37
330
A02
100
AcDbEntity
  8
Mesh_cs002
100
AcDbLine
 10
-195.5
 20
27.0796
 30
5.1
 11
-195.497
 21
27.0727
 31
5.1
  0
LINE
  5
A38
330
A02
100
AcDbEntity
  8
Mesh_cs002
100
AcDbLine
 10
-195.497
 20
27.0727
 30
5.1
 11
-195.46
 21
26.9848
 31
5.1
  0
LINE
  5
A39
330
A02
100
AcDbEntity
  8
Mesh_cs002
100
AcDbLine
 10
-195.46
 20
26.9848
 30
5.1
 11
-195.33
 21
26.6815
 31
5.1
  0
LINE
  5
A3A
330
A02
100
AcDbEntity
  8
Mesh_cs002
100
AcDbLine
 10
-195.33
 20
26.6815
 30
5.1
 11
-195.3
 21
26.6048
 31
5.1
  0
LINE
  5
A3B
330
A02
100
AcDbEntity
  8
Mesh_cs002
100
AcDbLine
 10
-195.3
 20
26.6048
 30
5.1
 11
-195.284
 21
26.5544
 31
5.1
  0
LINE
  5
A3C
330
A02
100
AcDbEntity
  8
Mesh_cs002
100
AcDbLine
 10
-195.284
 20
26.5544
 30
5.1
 11
-195.168
 21
26.1851
 31
5.1
  0
LINE
  5
A3D
330
A02
100
AcDbEntity
  8
Mesh_cs002
100
AcDbLine
 10
-195.168
 20
26.1851
 30
5.1
 11
-195.133
 21
26.0356
 31
5.1
  0
LINE
  5
A3E
330
A02
100
AcDbEntity
  8
Mesh_cs002
100
AcDbLine
 10
-195.133
 20
26.0356
 30
5.1
 11
-195.064
 21
25.6875
 31
5.1
  0
LINE
  5
A3F
330
A02
100
AcDbEntity
  8
Mesh_cs002
100
AcDbLine
 10
-195.064
 20
25.6875
 30
5.1
 11
-195.057
 21
25.6507
 31
5.1
  0
LINE
  5
A40
330
A02
100
AcDbEntity
  8
Mesh_cs002
100
AcDbLine
 10
-195.057
 20
25.6507
 30
5.1
 11
-195.052
 21
25.6192
 31
5.1
  0
LINE
  5
A41
330
A02
100
AcDbEntity
  8
Mesh_cs002
100
AcDbLine
 10
-195.052
 20
25.6192
 30
5.1
 11
-195.044
 21
25.5491
 31
5.1
  0
LINE
  5
A42
330
A02
100
AcDbEntity
  8
Mesh_cs002
100
AcDbLine
 10
-195.044
 20
25.5491
 30
5.1
 11
-195.019
 21
25.3298
 31
5.1
  0
LINE
  5
A43
330
A02
100
AcDbEntity
  8
Mesh_cs002
100
AcDbLine
 10
-195.019
 20
25.3298
 30
5.1
 11
-195.016
 21
25.3033
 31
5.1
  0
LINE
  5
A44
330
A02
100
AcDbEntity
  8
Mesh_cs002
100
AcDbLine
 10
-195.016
 20
25.3033
 30
5.1
 11
-195.014
 21
25.2505
 31
5.1
  0
LINE
  5
A45
330
A02
100
AcDbEntity
  8
Mesh_cs002
100
AcDbLine
 10
-195.014
 20
25.2505
 30
5.1
 11
-195
 21
24.9
 31
5.1
  0
LINE
  5
A46
330
A02
100
AcDbEntity
  8
Mesh_cs002
100
AcDbLine
 10
-195
 20
24.9
 30
5.1
 11
-195
 21
19.2333
 31
5.1
  0
LINE
  5
A47
330
A02
100
AcDbEntity
  8
Mesh_cs002
100
AcDbLine
 10
-195
 20
19.2333
 30
5.1
 11
-195
 21
8.44333
 31
5.1
  0
LINE
  5
A48
330
A02
100
AcDbEntity
  8
Mesh_cs002
100
AcDbLine
 10
-195
 20
8.44333
 30
5.1
 11
-195
 21
5.15143e-14
 31
5.1
  0
LINE
  5
A49
330
A02
100
AcDbEntity
  8
Mesh_cs002
100
AcDbLine
 10
-195
 20
5.1e-14
 30
5.1
 11
-186.557
 21
5.1e-14
 31
5.1
  0
LINE
  5
A4A
330
A02
100
AcDbEntity
  8
Mesh_cs002
100
AcDbLine
 10
-186.557
 20
5.1e-14
 30
5.1
 11
-180.89
 21
4.81667e-14
 31
5.1
  0
LINE
  5
A4B
330
A02
100
AcDbEntity
  8
Mesh_cs002
100
AcDbLine
 10
-180.89
 20
4.81667e-14
 30
5.1
 11
-157.909
 21
5.51727e-14
 31
5.1
  0
LINE
  5
A4C
330
A02
100
AcDbEntity
  8
Mesh_cs002
100
AcDbLine
 10
-157.909
 20
5.51727e-14
 30
5.1
 11
-141.682
 21
2.73545e-14
 31
5.1
  0
LINE
  5
A4D
330
A02
100
AcDbEntity
  8
Mesh_cs002
100
AcDbLine
 10
-141.682
 20
2.73545e-14
 30
5.1
 11
-98.61
 21
5.04333e-14
 31
5.1
  0
LINE
  5
A4E
330
A02
100
AcDbEntity
  8
Mesh_cs002
100
AcDbLine
 10
-98.61
 20
5.04333e-14
 30
5.1
 11
-14.11
 21
5.17333e-14
 31
5.1
  0
LINE
  5
A4F
330
A02
100
AcDbEntity
  8
Mesh_cs002
100
AcDbLine
 10
-14.11
 20
5.17333e-14
 30
5.1
 11
-8.44333
 21
5.23e-14
 31
5.1
  0
LINE
  5
A50
330
A02
100
AcDbEntity
  8
Mesh_cs002
100
AcDbLine
 10
-8.44333
 20
5.23e-14
 30
5.1
 11
0
 21
5.4e-14
 31
5.1
  0
LINE
  5
A51
330
A02
100
AcDbEntity
  8
Mesh_cs002
100
AcDbLine
 10
0
 20
5.4e-14
 30
5.1
 11
0
 21
8.44333
 31
5.1
  0
LINE
  5
A52
330
A02
100
AcDbEntity
  8
Mesh_cs002
100
AcDbLine
 10
0
 20
8.44333
 30
5.1
 11
0
 21
14.11
 31
5.1
  0
LINE
  5
A53
330
A02
100
AcDbEntity
  8
Mesh_cs002
100
AcDbLine
 10
0
 20
14.11
 30
5.1
 11
-5.66667e-16
 21
155.932
 31
5.1
  0
LINE
  5
A54
330
A02
100
AcDbEntity
  8
Mesh_cs002
100
AcDbLine
 10
-5.66667e-16
 20
155.932
 30
5.1
 11
-5.66667e-16
 21
285.964
 31
5.1
  0
LINE
  5
A55
330
A02
100
AcDbEntity
  8
Mesh_cs002
100
AcDbLine
 10
-5.66667e-16
 20
285.964
 30
5.1
 11
1.13333e-15
 21
291.631
 31
5.1
  0
LINE
  5
A56
330
A02
100
AcDbEntity
  8
Mesh_cs002
100
AcDbLine
 10
1.13333e-15
 20
291.631
 30
5.1
 11
-1.97215e-31
 21
300.074
 31
5.1
  0
LINE
  5
A57
330
A02
100
AcDbEntity
  8
Mesh_cs002
100
AcDbLine
 10
0
 20
300.074
 30
5.1
 11
-8.44333
 21
300.074
 31
5.1
  0
LINE
  5
A58
330
A02
100
AcDbEntity
  8
Mesh_cs002
100
AcDbLine
 10
-8.44333
 20
300.074
 30
5.1
 11
-14.11
 21
300.074
 31
5.1
  0
LINE
  5
A59
330
A02
100
AcDbEntity
  8
Mesh_cs002
100
AcDbLine
 10
-14.11
 20
300.074
 30
5.1
 11
-98.61
 21
300.074
 31
5.1
  0
LINE
  5
A5A
330
A02
100
AcDbEntity
  8
Mesh_cs002
100
AcDbLine
 10
-98.61
 20
300.074
 30
5.1
 11
-141.682
 21
300.074
 31
5.1
  0
LINE
  5
A5B
330
A02
100
AcDbEntity
  8
Mesh_cs002
100
AcDbLine
 10
-141.682
 20
300.074
 30
5.1
 11
-157.909
 21
300.074
 31
5.1
  0
LINE
  5
A5C
330
A02
100
AcDbEntity
  8
Mesh_cs002
100
AcDbLine
 10
-157.909
 20
300.074
 30
5.1
 11
-185.057
 21
300.074
 31
5.1
  0
LINE
  5
A5D
330
A02
100
AcDbEntity
  8
Mesh_cs002
100
AcDbLine
 10
-185.057
 20
300.074
 30
5.1
 11
-195
 21
300.074
 31
5.1
  0
LINE
  5
A5E
330
A02
100
AcDbEntity
  8
Mesh_cs002
100
AcDbLine
 10
-195
 20
300.074
 30
5.1
 11
-201.564
 21
295.305
 31
5.1
  0
LINE
  5
A5F
330
A02
100
AcDbEntity
  8
Mesh_cs002
100
AcDbLine
 10
-201.564
 20
295.305
 30
5.1
 11
-228.283
 21
275.893
 31
5.1
  0
LINE
  5
A60
330
A02
100
AcDbEntity
  8
Mesh_cs002
100
AcDbLine
 10
-228.283
 20
275.893
 30
5.1
 11
-262.464
 21
251.059
 31
5.1
  0
LINE
  5
A61
330
A02
100
AcDbEntity
  8
Mesh_cs002
100
AcDbLine
 10
-262.464
 20
251.059
 30
5.1
 11
-267.048
 21
247.728
 31
5.1
  0
LINE
  5
A62
330
A02
100
AcDbEntity
  8
Mesh_cs002
100
AcDbLine
 10
-267.048
 20
247.728
 30
5.1
 11
-273.879
 21
242.765
 31
5.1
  0
LINE
  5
A63
330
A02
100
AcDbEntity
  8
Mesh_cs002
100
AcDbLine
 10
-273.879
 20
242.765
 30
5.1
 11
-268.916
 21
235.934
 31
5.1
  0
LINE
  5
A64
330
A02
100
AcDbEntity
  8
Mesh_cs002
100
AcDbLine
 10
-268.916
 20
235.934
 30
5.1
 11
-262.574
 21
227.205
 31
5.1
  0
LINE
  5
A65
330
A02
100
AcDbEntity
  8
Mesh_cs002
100
AcDbLine
 10
-262.574
 20
227.205
 30
5.1
 11
-259.243
 21
222.621
 31
5.1
  0
LINE
  5
A66
330
A02
100
AcDbEntity
  8
Mesh_cs002
100
AcDbLine
 10
-259.243
 20
222.621
 30
5.1
 11
-259.051
 21
222.332
 31
5.1
  0
LINE
  5
A67
330
A02
100
AcDbEntity
  8
Mesh_cs002
100
AcDbLine
 10
-259.051
 20
222.332
 30
5.1
 11
-259.02
 21
222.286
 31
5.1
  0
LINE
  5
A68
330
A02
100
AcDbEntity
  8
Mesh_cs002
100
AcDbLine
 10
-259.02
 20
222.286
 30
5.1
 11
-258.925
 21
222.111
 31
5.1
  0
LINE
  5
A69
330
A02
100
AcDbEntity
  8
Mesh_cs002
100
AcDbLine
 10
-258.925
 20
222.111
 30
5.1
 11
-258.811
 21
221.89
 31
5.1
  0
LINE
  5
A6A
330
A02
100
AcDbEntity
  8
Mesh_cs002
100
AcDbLine
 10
-258.811
 20
221.89
 30
5.1
 11
-258.783
 21
221.842
 31
5.1
  0
LINE
  5
A6B
330
A02
100
AcDbEntity
  8
Mesh_cs002
100
AcDbLine
 10
-258.783
 20
221.842
 30
5.1
 11
-258.754
 21
221.787
 31
5.1
  0
LINE
  5
A6C
330
A02
100
AcDbEntity
  8
Mesh_cs002
100
AcDbLine
 10
-258.754
 20
221.787
 30
5.1
 11
-258.728
 21
221.731
 31
5.1
  0
LINE
  5
A6D
330
A02
100
AcDbEntity
  8
Mesh_cs002
100
AcDbLine
 10
-258.728
 20
221.731
 30
5.1
 11
-258.687
 21
221.637
 31
5.1
  0
LINE
  5
A6E
330
A02
100
AcDbEntity
  8
Mesh_cs002
100
AcDbLine
 10
-258.687
 20
221.637
 30
5.1
 11
-258.663
 21
221.579
 31
5.1
  0
LINE
  5
A6F
330
A02
100
AcDbEntity
  8
Mesh_cs002
100
AcDbLine
 10
-258.663
 20
221.579
 30
5.1
 11
-258.623
 21
221.48
 31
5.1
  0
LINE
  5
A70
330
A02
100
AcDbEntity
  8
Mesh_cs002
100
AcDbLine
 10
-258.623
 20
221.48
 30
5.1
 11
-258.609
 21
221.442
 31
5.1
  0
LINE
  5
A71
330
A02
100
AcDbEntity
  8
Mesh_cs002
100
AcDbLine
 10
-258.609
 20
221.442
 30
5.1
 11
-258.572
 21
221.341
 31
5.1
  0
LINE
  5
A72
330
A02
100
AcDbEntity
  8
Mesh_cs002
100
AcDbLine
 10
-258.572
 20
221.341
 30
5.1
 11
-258.559
 21
221.303
 31
5.1
  0
LINE
  5
A73
330
A02
100
AcDbEntity
  8
Mesh_cs002
100
AcDbLine
 10
-258.559
 20
221.303
 30
5.1
 11
-258.531
 21
221.219
 31
5.1
  0
LINE
  5
A74
330
A02
100
AcDbEntity
  8
Mesh_cs002
100
AcDbLine
 10
-258.531
 20
221.219
 30
5.1
 11
-258.444
 21
220.91
 31
5.1
  0
LINE
  5
A75
330
A02
100
AcDbEntity
  8
Mesh_cs002
100
AcDbLine
 10
-258.444
 20
220.91
 30
5.1
 11
-258.43
 21
220.863
 31
5.1
  0
LINE
  5
A76
330
A02
100
AcDbEntity
  8
Mesh_cs002
100
AcDbLine
 10
-258.43
 20
220.863
 30
5.1
 11
-258.379
 21
220.614
 31
5.1
  0
LINE
  5
A77
330
A02
100
AcDbEntity
  8
Mesh_cs002
100
AcDbLine
 10
-258.379
 20
220.614
 30
5.1
 11
-258.357
 21
220.507
 31
5.1
  0
LINE
  5
A78
330
A02
100
AcDbEntity
  8
Mesh_cs002
100
AcDbLine
 10
-258.357
 20
220.507
 30
5.1
 11
-258.354
 21
220.484
 31
5.1
  0
LINE
  5
A79
330
A02
100
AcDbEntity
  8
Mesh_cs002
100
AcDbLine
 10
-258.354
 20
220.484
 30
5.1
 11
-258.309
 21
220.127
 31
5.1
  0
LINE
  5
A7A
330
A02
100
AcDbEntity
  8
Mesh_cs002
100
AcDbLine
 10
-258.309
 20
220.127
 30
5.1
 11
-258.3
 21
219.986
 31
5.1
  0
LINE
  5
A7B
330
A02
100
AcDbEntity
  8
Mesh_cs002
100
AcDbLine
 10
-258.3
 20
219.986
 30
5.1
 11
-258.288
 21
219.711
 31
5.1
  0
LINE
  5
A7C
330
A02
100
AcDbEntity
  8
Mesh_cs002
100
AcDbLine
 10
-258.288
 20
219.711
 30
5.1
 11
-257.177
 21
217.924
 31
5.1
  0
LINE
  5
A7D
330
A02
100
AcDbEntity
  8
Mesh_cs002
100
AcDbLine
 10
-257.177
 20
217.924
 30
5.1
 11
-256.355
 21
216.603
 31
5.1
  0
LINE
  5
A7E
330
A02
100
AcDbEntity
  8
Mesh_cs002
100
AcDbLine
 10
-256.355
 20
216.603
 30
5.1
 11
-255.258
 21
214.805
 31
5.1
  0
LINE
  5
A7F
330
A02
100
AcDbEntity
  8
Mesh_cs002
100
AcDbLine
 10
-255.258
 20
214.805
 30
5.1
 11
-254.448
 21
213.475
 31
5.1
  0
LINE
  5
A80
330
A02
100
AcDbEntity
  8
Mesh_cs002
100
AcDbLine
 10
-254.448
 20
213.475
 30
5.1
 11
-253.368
 21
211.669
 31
5.1
  0
LINE
  5
A81
330
A02
100
AcDbEntity
  8
Mesh_cs002
100
AcDbLine
 10
-253.368
 20
211.669
 30
5.1
 11
-252.57
 21
210.334
 31
5.1
  0
LINE
  5
A82
330
A02
100
AcDbEntity
  8
Mesh_cs002
100
AcDbLine
 10
-252.57
 20
210.334
 30
5.1
 11
-251.506
 21
208.518
 31
5.1
  0
LINE
  5
A83
330
A02
100
AcDbEntity
  8
Mesh_cs002
100
AcDbLine
 10
-251.506
 20
208.518
 30
5.1
 11
-250.72
 21
207.176
 31
5.1
  0
LINE
  5
A84
330
A02
100
AcDbEntity
  8
Mesh_cs002
100
AcDbLine
 10
-250.72
 20
207.176
 30
5.1
 11
-249.946
 21
205.827
 31
5.1
  0
LINE
  5
A85
330
A02
100
AcDbEntity
  8
Mesh_cs002
100
AcDbLine
 10
-249.946
 20
205.827
 30
5.1
 11
-248.898
 21
204.001
 31
5.1
  0
LINE
  5
A86
330
A02
100
AcDbEntity
  8
Mesh_cs002
100
AcDbLine
 10
-248.898
 20
204.001
 30
5.1
 11
-247.867
 21
202.167
 31
5.1
  0
LINE
  5
A87
330
A02
100
AcDbEntity
  8
Mesh_cs002
100
AcDbLine
 10
-247.867
 20
202.167
 30
5.1
 11
-247.105
 21
200.811
 31
5.1
  0
LINE
  5
A88
330
A02
100
AcDbEntity
  8
Mesh_cs002
100
AcDbLine
 10
-247.105
 20
200.811
 30
5.1
 11
-246.354
 21
199.449
 31
5.1
  0
LINE
  5
A89
330
A02
100
AcDbEntity
  8
Mesh_cs002
100
AcDbLine
 10
-246.354
 20
199.449
 30
5.1
 11
-245.339
 21
197.606
 31
5.1
  0
LINE
  5
A8A
330
A02
100
AcDbEntity
  8
Mesh_cs002
100
AcDbLine
 10
-245.339
 20
197.606
 30
5.1
 11
-244.341
 21
195.753
 31
5.1
  0
LINE
  5
A8B
330
A02
100
AcDbEntity
  8
Mesh_cs002
100
AcDbLine
 10
-244.341
 20
195.753
 30
5.1
 11
-243.603
 21
194.384
 31
5.1
  0
LINE
  5
A8C
330
A02
100
AcDbEntity
  8
Mesh_cs002
100
AcDbLine
 10
-243.603
 20
194.384
 30
5.1
 11
-242.621
 21
192.523
 31
5.1
  0
LINE
  5
A8D
330
A02
100
AcDbEntity
  8
Mesh_cs002
100
AcDbLine
 10
-242.621
 20
192.523
 30
5.1
 11
-241.895
 21
191.148
 31
5.1
  0
LINE
  5
A8E
330
A02
100
AcDbEntity
  8
Mesh_cs002
100
AcDbLine
 10
-241.895
 20
191.148
 30
5.1
 11
-241.181
 21
189.766
 31
5.1
  0
LINE
  5
A8F
330
A02
100
AcDbEntity
  8
Mesh_cs002
100
AcDbLine
 10
-241.181
 20
189.766
 30
5.1
 11
-240.216
 21
187.896
 31
5.1
  0
LINE
  5
A90
330
A02
100
AcDbEntity
  8
Mesh_cs002
100
AcDbLine
 10
-240.216
 20
187.896
 30
5.1
 11
-239.267
 21
186.018
 31
5.1
  0
LINE
  5
A91
330
A02
100
AcDbEntity
  8
Mesh_cs002
100
AcDbLine
 10
-239.267
 20
186.018
 30
5.1
 11
-238.565
 21
184.63
 31
5.1
  0
LINE
  5
A92
330
A02
100
AcDbEntity
  8
Mesh_cs002
100
AcDbLine
 10
-238.565
 20
184.63
 30
5.1
 11
-237.876
 21
183.236
 31
5.1
  0
LINE
  5
A93
330
A02
100
AcDbEntity
  8
Mesh_cs002
100
AcDbLine
 10
-237.876
 20
183.236
 30
5.1
 11
-236.944
 21
181.35
 31
5.1
  0
LINE
  5
A94
330
A02
100
AcDbEntity
  8
Mesh_cs002
100
AcDbLine
 10
-236.944
 20
181.35
 30
5.1
 11
-236.267
 21
179.95
 31
5.1
  0
LINE
  5
A95
330
A02
100
AcDbEntity
  8
Mesh_cs002
100
AcDbLine
 10
-236.267
 20
179.95
 30
5.1
 11
-235.352
 21
178.055
 31
5.1
  0
LINE
  5
A96
330
A02
100
AcDbEntity
  8
Mesh_cs002
100
AcDbLine
 10
-235.352
 20
178.055
 30
5.1
 11
-234.453
 21
176.153
 31
5.1
  0
LINE
  5
A97
330
A02
100
AcDbEntity
  8
Mesh_cs002
100
AcDbLine
 10
-234.453
 20
176.153
 30
5.1
 11
-233.789
 21
174.747
 31
5.1
  0
LINE
  5
A98
330
A02
100
AcDbEntity
  8
Mesh_cs002
100
AcDbLine
 10
-233.789
 20
174.747
 30
5.1
 11
-232.907
 21
172.836
 31
5.1
  0
LINE
  5
A99
330
A02
100
AcDbEntity
  8
Mesh_cs002
100
AcDbLine
 10
-232.907
 20
172.836
 30
5.1
 11
-232.255
 21
171.424
 31
5.1
  0
LINE
  5
A9A
330
A02
100
AcDbEntity
  8
Mesh_cs002
100
AcDbLine
 10
-232.255
 20
171.424
 30
5.1
 11
-231.616
 21
170.007
 31
5.1
  0
LINE
  5
A9B
330
A02
100
AcDbEntity
  8
Mesh_cs002
100
AcDbLine
 10
-231.616
 20
170.007
 30
5.1
 11
-230.752
 21
168.089
 31
5.1
  0
LINE
  5
A9C
330
A02
100
AcDbEntity
  8
Mesh_cs002
100
AcDbLine
 10
-230.752
 20
168.089
 30
5.1
 11
-229.904
 21
166.163
 31
5.1
  0
LINE
  5
A9D
330
A02
100
AcDbEntity
  8
Mesh_cs002
100
AcDbLine
 10
-229.904
 20
166.163
 30
5.1
 11
-229.277
 21
164.74
 31
5.1
  0
LINE
  5
A9E
330
A02
100
AcDbEntity
  8
Mesh_cs002
100
AcDbLine
 10
-229.277
 20
164.74
 30
5.1
 11
-228.447
 21
162.807
 31
5.1
  0
LINE
  5
A9F
330
A02
100
AcDbEntity
  8
Mesh_cs002
100
AcDbLine
 10
-228.447
 20
162.807
 30
5.1
 11
-227.833
 21
161.378
 31
5.1
  0
LINE
  5
AA0
330
A02
100
AcDbEntity
  8
Mesh_cs002
100
AcDbLine
 10
-227.833
 20
161.378
 30
5.1
 11
-227.019
 21
159.438
 31
5.1
  0
LINE
  5
AA1
330
A02
100
AcDbEntity
  8
Mesh_cs002
100
AcDbLine
 10
-227.019
 20
159.438
 30
5.1
 11
-226.418
 21
158.004
 31
5.1
  0
LINE
  5
AA2
330
A02
100
AcDbEntity
  8
Mesh_cs002
100
AcDbLine
 10
-226.418
 20
158.004
 30
5.1
 11
-225.622
 21
156.057
 31
5.1
  0
LINE
  5
AA3
330
A02
100
AcDbEntity
  8
Mesh_cs002
100
AcDbLine
 10
-225.622
 20
156.057
 30
5.1
 11
-225.033
 21
154.618
 31
5.1
  0
LINE
  5
AA4
330
A02
100
AcDbEntity
  8
Mesh_cs002
100
AcDbLine
 10
-225.033
 20
154.618
 30
5.1
 11
-224.255
 21
152.663
 31
5.1
  0
LINE
  5
AA5
330
A02
100
AcDbEntity
  8
Mesh_cs002
100
AcDbLine
 10
-224.255
 20
152.663
 30
5.1
 11
-223.679
 21
151.219
 31
5.1
  0
LINE
  5
AA6
330
A02
100
AcDbEntity
  8
Mesh_cs002
100
AcDbLine
 10
-223.679
 20
151.219
 30
5.1
 11
-222.917
 21
149.258
 31
5.1
  0
LINE
  5
AA7
330
A02
100
AcDbEntity
  8
Mesh_cs002
100
AcDbLine
 10
-222.917
 20
149.258
 30
5.1
 11
-222.354
 21
147.809
 31
5.1
  0
LINE
  5
AA8
330
A02
100
AcDbEntity
  8
Mesh_cs002
100
AcDbLine
 10
-222.354
 20
147.809
 30
5.1
 11
-221.61
 21
145.841
 31
5.1
  0
LINE
  5
AA9
330
A02
100
AcDbEntity
  8
Mesh_cs002
100
AcDbLine
 10
-221.61
 20
145.841
 30
5.1
 11
-221.06
 21
144.387
 31
5.1
  0
LINE
  5
AAA
330
A02
100
AcDbEntity
  8
Mesh_cs002
100
AcDbLine
 10
-221.06
 20
144.387
 30
5.1
 11
-220.334
 21
142.412
 31
5.1
  0
LINE
  5
AAB
330
A02
100
AcDbEntity
  8
Mesh_cs002
100
AcDbLine
 10
-220.334
 20
142.412
 30
5.1
 11
-219.796
 21
140.953
 31
5.1
  0
LINE
  5
AAC
330
A02
100
AcDbEntity
  8
Mesh_cs002
100
AcDbLine
 10
-219.796
 20
140.953
 30
5.1
 11
-219.087
 21
138.973
 31
5.1
  0
LINE
  5
AAD
330
A02
100
AcDbEntity
  8
Mesh_cs002
100
AcDbLine
 10
-219.087
 20
138.973
 30
5.1
 11
-218.563
 21
137.509
 31
5.1
  0
LINE
  5
AAE
330
A02
100
AcDbEntity
  8
Mesh_cs002
100
AcDbLine
 10
-218.563
 20
137.509
 30
5.1
 11
-217.872
 21
135.523
 31
5.1
  0
LINE
  5
AAF
330
A02
100
AcDbEntity
  8
Mesh_cs002
100
AcDbLine
 10
-217.872
 20
135.523
 30
5.1
 11
-217.361
 21
134.054
 31
5.1
  0
LINE
  5
AB0
330
A02
100
AcDbEntity
  8
Mesh_cs002
100
AcDbLine
 10
-217.361
 20
134.054
 30
5.1
 11
-216.862
 21
132.581
 31
5.1
  0
LINE
  5
AB1
330
A02
100
AcDbEntity
  8
Mesh_cs002
100
AcDbLine
 10
-216.862
 20
132.581
 30
5.1
 11
-216.188
 21
130.589
 31
5.1
  0
LINE
  5
AB2
330
A02
100
AcDbEntity
  8
Mesh_cs002
100
AcDbLine
 10
-216.188
 20
130.589
 30
5.1
 11
-215.532
 21
128.59
 31
5.1
  0
LINE
  5
AB3
330
A02
100
AcDbEntity
  8
Mesh_cs002
100
AcDbLine
 10
-215.532
 20
128.59
 30
5.1
 11
-215.047
 21
127.113
 31
5.1
  0
LINE
  5
AB4
330
A02
100
AcDbEntity
  8
Mesh_cs002
100
AcDbLine
 10
-215.047
 20
127.113
 30
5.1
 11
-214.339
 21
124.886
 31
5.1
  0
LINE
  5
AB5
330
A02
100
AcDbEntity
  8
Mesh_cs002
100
AcDbLine
 10
-214.339
 20
124.886
 30
5.1
 11
-213.815
 21
123.24
 31
5.1
  0
LINE
  5
AB6
330
A02
100
AcDbEntity
  8
Mesh_cs002
100
AcDbLine
 10
-213.815
 20
123.24
 30
5.1
 11
-213.129
 21
121.006
 31
5.1
  0
LINE
  5
AB7
330
A02
100
AcDbEntity
  8
Mesh_cs002
100
AcDbLine
 10
-213.129
 20
121.006
 30
5.1
 11
-212.622
 21
119.355
 31
5.1
  0
LINE
  5
AB8
330
A02
100
AcDbEntity
  8
Mesh_cs002
100
AcDbLine
 10
-212.622
 20
119.355
 30
5.1
 11
-211.957
 21
117.114
 31
5.1
  0
LINE
  5
AB9
330
A02
100
AcDbEntity
  8
Mesh_cs002
100
AcDbLine
 10
-211.957
 20
117.114
 30
5.1
 11
-211.466
 21
115.458
 31
5.1
  0
LINE
  5
ABA
330
A02
100
AcDbEntity
  8
Mesh_cs002
100
AcDbLine
 10
-211.466
 20
115.458
 30
5.1
 11
-210.824
 21
113.211
 31
5.1
  0
LINE
  5
ABB
330
A02
100
AcDbEntity
  8
Mesh_cs002
100
AcDbLine
 10
-210.824
 20
113.211
 30
5.1
 11
-210.349
 21
111.55
 31
5.1
  0
LINE
  5
ABC
330
A02
100
AcDbEntity
  8
Mesh_cs002
100
AcDbLine
 10
-210.349
 20
111.55
 30
5.1
 11
-209.729
 21
109.297
 31
5.1
  0
LINE
  5
ABD
330
A02
100
AcDbEntity
  8
Mesh_cs002
100
AcDbLine
 10
-250.015
 20
235.274
 30
5.1
 11
-250.008
 21
235.266
 31
5.1
  0
LINE
  5
ABE
330
A02
100
AcDbEntity
  8
Mesh_cs002
100
AcDbLine
 10
-250.008
 20
235.266
 30
5.1
 11
-249.724
 21
234.936
 31
5.1
  0
LINE
  5
ABF
330
A02
100
AcDbEntity
  8
Mesh_cs002
100
AcDbLine
 10
-249.724
 20
234.936
 30
5.1
 11
-249.717
 21
234.929
 31
5.1
  0
LINE
  5
AC0
330
A02
100
AcDbEntity
  8
Mesh_cs002
100
AcDbLine
 10
-249.717
 20
234.929
 30
5.1
 11
-249.405
 21
234.627
 31
5.1
  0
LINE
  5
AC1
330
A02
100
AcDbEntity
  8
Mesh_cs002
100
AcDbLine
 10
-249.405
 20
234.627
 30
5.1
 11
-249.398
 21
234.62
 31
5.1
  0
LINE
  5
AC2
330
A02
100
AcDbEntity
  8
Mesh_cs002
100
AcDbLine
 10
-249.398
 20
234.62
 30
5.1
 11
-249.39
 21
234.613
 31
5.1
  0
LINE
  5
AC3
330
A02
100
AcDbEntity
  8
Mesh_cs002
100
AcDbLine
 10
-249.39
 20
234.613
 30
5.1
 11
-249.053
 21
234.341
 31
5.1
  0
LINE
  5
AC4
330
A02
100
AcDbEntity
  8
Mesh_cs002
100
AcDbLine
 10
-249.053
 20
234.341
 30
5.1
 11
-249.045
 21
234.335
 31
5.1
  0
LINE
  5
AC5
330
A02
100
AcDbEntity
  8
Mesh_cs002
100
AcDbLine
 10
-249.045
 20
234.335
 30
5.1
 11
-248.686
 21
234.094
 31
5.1
  0
LINE
  5
AC6
330
A02
100
AcDbEntity
  8
Mesh_cs002
100
AcDbLine
 10
-248.686
 20
234.094
 30
5.1
 11
-248.676
 21
234.088
 31
5.1
  0
LINE
  5
AC7
330
A02
100
AcDbEntity
  8
Mesh_cs002
100
AcDbLine
 10
-248.676
 20
234.088
 30
5.1
 11
-248.298
 21
233.88
 31
5.1
  0
LINE
  5
AC8
330
A02
100
AcDbEntity
  8
Mesh_cs002
100
AcDbLine
 10
-248.298
 20
233.88
 30
5.1
 11
-248.288
 21
233.875
 31
5.1
  0
LINE
  5
AC9
330
A02
100
AcDbEntity
  8
Mesh_cs002
100
AcDbLine
 10
-248.288
 20
233.875
 30
5.1
 11
-247.893
 21
233.702
 31
5.1
  0
LINE
  5
ACA
330
A02
100
AcDbEntity
  8
Mesh_cs002
100
AcDbLine
 10
-247.893
 20
233.702
 30
5.1
 11
-247.883
 21
233.698
 31
5.1
  0
LINE
  5
ACB
330
A02
100
AcDbEntity
  8
Mesh_cs002
100
AcDbLine
 10
-247.883
 20
233.698
 30
5.1
 11
-247.476
 21
233.56
 31
5.1
  0
LINE
  5
ACC
330
A02
100
AcDbEntity
  8
Mesh_cs002
100
AcDbLine
 10
-247.476
 20
233.56
 30
5.1
 11
-247.465
 21
233.558
 31
5.1
  0
LINE
  5
ACD
330
A02
100
AcDbEntity
  8
Mesh_cs002
100
AcDbLine
 10
-247.465
 20
233.558
 30
5.1
 11
-247.048
 21
233.457
 31
5.1
  0
LINE
  5
ACE
330
A02
100
AcDbEntity
  8
Mesh_cs002
100
AcDbLine
 10
-247.048
 20
233.457
 30
5.1
 11
-247.037
 21
233.455
 31
5.1
  0
LINE
  5
ACF
330
A02
100
AcDbEntity
  8
Mesh_cs002
100
AcDbLine
 10
-247.037
 20
233.455
 30
5.1
 11
-246.614
 21
233.391
 31
5.1
  0
LINE
  5
AD0
330
A02
100
AcDbEntity
  8
Mesh_cs002
100
AcDbLine
 10
-246.614
 20
233.391
 30
5.1
 11
-246.603
 21
233.39
 31
5.1
  0
LINE
  5
AD1
330
A02
100
AcDbEntity
  8
Mesh_cs002
100
AcDbLine
 10
-246.603
 20
233.39
 30
5.1
 11
-246.176
 21
233.363
 31
5.1
  0
LINE
  5
AD2
330
A02
100
AcDbEntity
  8
Mesh_cs002
100
AcDbLine
 10
-246.176
 20
233.363
 30
5.1
 11
-246.165
 21
233.364
 31
5.1
  0
LINE
  5
AD3
330
A02
100
AcDbEntity
  8
Mesh_cs002
100
AcDbLine
 10
-246.165
 20
233.364
 30
5.1
 11
-245.739
 21
233.374
 31
5.1
  0
LINE
  5
AD4
330
A02
100
AcDbEntity
  8
Mesh_cs002
100
AcDbLine
 10
-245.739
 20
233.374
 30
5.1
 11
-245.728
 21
233.376
 31
5.1
  0
LINE
  5
AD5
330
A02
100
AcDbEntity
  8
Mesh_cs002
100
AcDbLine
 10
-245.728
 20
233.376
 30
5.1
 11
-245.298
 21
233.424
 31
5.1
  0
LINE
  5
AD6
330
A02
100
AcDbEntity
  8
Mesh_cs002
100
AcDbLine
 10
-245.298
 20
233.424
 30
5.1
 11
-245.288
 21
233.427
 31
5.1
  0
LINE
  5
AD7
330
A02
100
AcDbEntity
  8
Mesh_cs002
100
AcDbLine
 10
-245.288
 20
233.427
 30
5.1
 11
-244.895
 21
233.506
 31
5.1
  0
LINE
  5
AD8
330
A02
100
AcDbEntity
  8
Mesh_cs002
100
AcDbLine
 10
-244.895
 20
233.506
 30
5.1
 11
-244.51
 21
233.617
 31
5.1
  0
LINE
  5
AD9
330
A02
100
AcDbEntity
  8
Mesh_cs002
100
AcDbLine
 10
-244.51
 20
233.617
 30
5.1
 11
-244.5
 21
233.62
 31
5.1
  0
LINE
  5
ADA
330
A02
100
AcDbEntity
  8
Mesh_cs002
100
AcDbLine
 10
-244.5
 20
233.62
 30
5.1
 11
-244.127
 21
233.762
 31
5.1
  0
LINE
  5
ADB
330
A02
100
AcDbEntity
  8
Mesh_cs002
100
AcDbLine
 10
-244.127
 20
233.762
 30
5.1
 11
-244.116
 21
233.765
 31
5.1
  0
LINE
  5
ADC
330
A02
100
AcDbEntity
  8
Mesh_cs002
100
AcDbLine
 10
-244.116
 20
233.765
 30
5.1
 11
-243.757
 21
233.937
 31
5.1
  0
LINE
  5
ADD
330
A02
100
AcDbEntity
  8
Mesh_cs002
100
AcDbLine
 10
-243.757
 20
233.937
 30
5.1
 11
-243.747
 21
233.942
 31
5.1
  0
LINE
  5
ADE
330
A02
100
AcDbEntity
  8
Mesh_cs002
100
AcDbLine
 10
-243.747
 20
233.942
 30
5.1
 11
-243.403
 21
234.142
 31
5.1
  0
LINE
  5
ADF
330
A02
100
AcDbEntity
  8
Mesh_cs002
100
AcDbLine
 10
-243.403
 20
234.142
 30
5.1
 11
-243.396
 21
234.146
 31
5.1
  0
LINE
  5
AE0
330
A02
100
AcDbEntity
  8
Mesh_cs002
100
AcDbLine
 10
-243.396
 20
234.146
 30
5.1
 11
-243.39
 21
234.15
 31
5.1
  0
LINE
  5
AE1
330
A02
100
AcDbEntity
  8
Mesh_cs002
100
AcDbLine
 10
-243.39
 20
234.15
 30
5.1
 11
-243.064
 21
234.377
 31
5.1
  0
LINE
  5
AE2
330
A02
100
AcDbEntity
  8
Mesh_cs002
100
AcDbLine
 10
-243.064
 20
234.377
 30
5.1
 11
-243.057
 21
234.382
 31
5.1
  0
LINE
  5
AE3
330
A02
100
AcDbEntity
  8
Mesh_cs002
100
AcDbLine
 10
-243.057
 20
234.382
 30
5.1
 11
-242.752
 21
234.634
 31
5.1
  0
LINE
  5
AE4
330
A02
100
AcDbEntity
  8
Mesh_cs002
100
AcDbLine
 10
-242.752
 20
234.634
 30
5.1
 11
-242.745
 21
234.64
 31
5.1
  0
LINE
  5
AE5
330
A02
100
AcDbEntity
  8
Mesh_cs002
100
AcDbLine
 10
-242.745
 20
234.64
 30
5.1
 11
-242.462
 21
234.915
 31
5.1
  0
LINE
  5
AE6
330
A02
100
AcDbEntity
  8
Mesh_cs002
100
AcDbLine
 10
-242.462
 20
234.915
 30
5.1
 11
-242.454
 21
234.923
 31
5.1
  0
LINE
  5
AE7
330
A02
100
AcDbEntity
  8
Mesh_cs002
100
AcDbLine
 10
-242.454
 20
234.923
 30
5.1
 11
-242.194
 21
235.22
 31
5.1
  0
LINE
  5
AE8
330
A02
100
AcDbEntity
  8
Mesh_cs002
100
AcDbLine
 10
-242.194
 20
235.22
 30
5.1
 11
-242.187
 21
235.229
 31
5.1
  0
LINE
  5
AE9
330
A02
100
AcDbEntity
  8
Mesh_cs002
100
AcDbLine
 10
-242.187
 20
235.229
 30
5.1
 11
-241.952
 21
235.545
 31
5.1
  0
LINE
  5
AEA
330
A02
100
AcDbEntity
  8
Mesh_cs002
100
AcDbLine
 10
-241.952
 20
235.545
 30
5.1
 11
-241.946
 21
235.555
 31
5.1
  0
LINE
  5
AEB
330
A02
100
AcDbEntity
  8
Mesh_cs002
100
AcDbLine
 10
-241.946
 20
235.555
 30
5.1
 11
-241.738
 21
235.889
 31
5.1
  0
LINE
  5
AEC
330
A02
100
AcDbEntity
  8
Mesh_cs002
100
AcDbLine
 10
-241.738
 20
235.889
 30
5.1
 11
-241.733
 21
235.898
 31
5.1
  0
LINE
  5
AED
330
A02
100
AcDbEntity
  8
Mesh_cs002
100
AcDbLine
 10
-241.733
 20
235.898
 30
5.1
 11
-241.552
 21
236.247
 31
5.1
  0
LINE
  5
AEE
330
A02
100
AcDbEntity
  8
Mesh_cs002
100
AcDbLine
 10
-241.552
 20
236.247
 30
5.1
 11
-241.548
 21
236.258
 31
5.1
  0
LINE
  5
AEF
330
A02
100
AcDbEntity
  8
Mesh_cs002
100
AcDbLine
 10
-241.548
 20
236.258
 30
5.1
 11
-241.381
 21
236.66
 31
5.1
  0
LINE
  5
AF0
330
A02
100
AcDbEntity
  8
Mesh_cs002
100
AcDbLine
 10
-241.381
 20
236.66
 30
5.1
 11
-241.378
 21
236.671
 31
5.1
  0
LINE
  5
AF1
330
A02
100
AcDbEntity
  8
Mesh_cs002
100
AcDbLine
 10
-241.378
 20
236.671
 30
5.1
 11
-241.248
 21
237.086
 31
5.1
  0
LINE
  5
AF2
330
A02
100
AcDbEntity
  8
Mesh_cs002
100
AcDbLine
 10
-241.248
 20
237.086
 30
5.1
 11
-241.246
 21
237.097
 31
5.1
  0
LINE
  5
AF3
330
A02
100
AcDbEntity
  8
Mesh_cs002
100
AcDbLine
 10
-241.246
 20
237.097
 30
5.1
 11
-241.154
 21
237.521
 31
5.1
  0
LINE
  5
AF4
330
A02
100
AcDbEntity
  8
Mesh_cs002
100
AcDbLine
 10
-241.154
 20
237.521
 30
5.1
 11
-241.153
 21
237.531
 31
5.1
  0
LINE
  5
AF5
330
A02
100
AcDbEntity
  8
Mesh_cs002
100
AcDbLine
 10
-241.153
 20
237.531
 30
5.1
 11
-241.099
 21
237.961
 31
5.1
  0
LINE
  5
AF6
330
A02
100
AcDbEntity
  8
Mesh_cs002
100
AcDbLine
 10
-241.099
 20
237.961
 30
5.1
 11
-241.098
 21
237.971
 31
5.1
  0
LINE
  5
AF7
330
A02
100
AcDbEntity
  8
Mesh_cs002
100
AcDbLine
 10
-241.098
 20
237.971
 30
5.1
 11
-241.083
 21
238.403
 31
5.1
  0
LINE
  5
AF8
330
A02
100
AcDbEntity
  8
Mesh_cs002
100
AcDbLine
 10
-241.083
 20
238.403
 30
5.1
 11
-241.083
 21
238.413
 31
5.1
  0
LINE
  5
AF9
330
A02
100
AcDbEntity
  8
Mesh_cs002
100
AcDbLine
 10
-241.083
 20
238.413
 30
5.1
 11
-241.106
 21
238.844
 31
5.1
  0
LINE
  5
AFA
330
A02
100
AcDbEntity
  8
Mesh_cs002
100
AcDbLine
 10
-241.106
 20
238.844
 30
5.1
 11
-241.107
 21
238.854
 31
5.1
  0
LINE
  5
AFB
330
A02
100
AcDbEntity
  8
Mesh_cs002
100
AcDbLine
 10
-241.107
 20
238.854
 30
5.1
 11
-241.168
 21
239.28
 31
5.1
  0
LINE
  5
AFC
330
A02
100
AcDbEntity
  8
Mesh_cs002
100
AcDbLine
 10
-241.168
 20
239.28
 30
5.1
 11
-241.17
 21
239.29
 31
5.1
  0
LINE
  5
AFD
330
A02
100
AcDbEntity
  8
Mesh_cs002
100
AcDbLine
 10
-241.17
 20
239.29
 30
5.1
 11
-241.268
 21
239.709
 31
5.1
  0
LINE
  5
AFE
330
A02
100
AcDbEntity
  8
Mesh_cs002
100
AcDbLine
 10
-241.268
 20
239.709
 30
5.1
 11
-241.27
 21
239.718
 31
5.1
  0
LINE
  5
AFF
330
A02
100
AcDbEntity
  8
Mesh_cs002
100
AcDbLine
 10
-241.27
 20
239.718
 30
5.1
 11
-241.404
 21
240.126
 31
5.1
  0
LINE
  5
B00
330
A02
100
AcDbEntity
  8
Mesh_cs002
100
AcDbLine
 10
-241.404
 20
240.126
 30
5.1
 11
-241.408
 21
240.135
 31
5.1
  0
LINE
  5
B01
330
A02
100
AcDbEntity
  8
Mesh_cs002
100
AcDbLine
 10
-241.408
 20
240.135
 30
5.1
 11
-241.576
 21
240.528
 31
5.1
  0
LINE
  5
B02
330
A02
100
AcDbEntity
  8
Mesh_cs002
100
AcDbLine
 10
-241.576
 20
240.528
 30
5.1
 11
-241.581
 21
240.537
 31
5.1
  0
LINE
  5
B03
330
A02
100
AcDbEntity
  8
Mesh_cs002
100
AcDbLine
 10
-241.581
 20
240.537
 30
5.1
 11
-241.783
 21
240.913
 31
5.1
  0
LINE
  5
B04
330
A02
100
AcDbEntity
  8
Mesh_cs002
100
AcDbLine
 10
-241.783
 20
240.913
 30
5.1
 11
-241.788
 21
240.922
 31
5.1
  0
LINE
  5
B05
330
A02
100
AcDbEntity
  8
Mesh_cs002
100
AcDbLine
 10
-241.788
 20
240.922
 30
5.1
 11
-241.907
 21
241.113
 31
5.1
  0
LINE
  5
B06
330
A02
100
AcDbEntity
  8
Mesh_cs002
100
AcDbLine
 10
-241.907
 20
241.113
 30
5.1
 11
-241.913
 21
241.121
 31
5.1
  0
LINE
  5
B07
330
A02
100
AcDbEntity
  8
Mesh_cs002
100
AcDbLine
 10
-241.913
 20
241.121
 30
5.1
 11
-242.038
 21
241.301
 31
5.1
  0
LINE
  5
B08
330
A02
100
AcDbEntity
  8
Mesh_cs002
100
AcDbLine
 10
-242.038
 20
241.301
 30
5.1
 11
-242.287
 21
241.616
 31
5.1
  0
LINE
  5
B09
330
A02
100
AcDbEntity
  8
Mesh_cs002
100
AcDbLine
 10
-242.287
 20
241.616
 30
5.1
 11
-242.293
 21
241.624
 31
5.1
  0
LINE
  5
B0A
330
A02
100
AcDbEntity
  8
Mesh_cs002
100
AcDbLine
 10
-242.293
 20
241.624
 30
5.1
 11
-242.58
 21
241.93
 31
5.1
  0
LINE
  5
B0B
330
A02
100
AcDbEntity
  8
Mesh_cs002
100
AcDbLine
 10
-242.58
 20
241.93
 30
5.1
 11
-242.588
 21
241.938
 31
5.1
  0
LINE
  5
B0C
330
A02
100
AcDbEntity
  8
Mesh_cs002
100
AcDbLine
 10
-242.588
 20
241.938
 30
5.1
 11
-242.885
 21
242.206
 31
5.1
  0
LINE
  5
B0D
330
A02
100
AcDbEntity
  8
Mesh_cs002
100
AcDbLine
 10
-242.885
 20
242.206
 30
5.1
 11
-242.892
 21
242.212
 31
5.1
  0
LINE
  5
B0E
330
A02
100
AcDbEntity
  8
Mesh_cs002
100
AcDbLine
 10
-242.892
 20
242.212
 30
5.1
 11
-243.21
 21
242.454
 31
5.1
  0
LINE
  5
B0F
330
A02
100
AcDbEntity
  8
Mesh_cs002
100
AcDbLine
 10
-243.21
 20
242.454
 30
5.1
 11
-243.218
 21
242.46
 31
5.1
  0
LINE
  5
B10
330
A02
100
AcDbEntity
  8
Mesh_cs002
100
AcDbLine
 10
-243.218
 20
242.46
 30
5.1
 11
-243.553
 21
242.675
 31
5.1
  0
LINE
  5
B11
330
A02
100
AcDbEntity
  8
Mesh_cs002
100
AcDbLine
 10
-243.553
 20
242.675
 30
5.1
 11
-243.562
 21
242.681
 31
5.1
  0
LINE
  5
B12
330
A02
100
AcDbEntity
  8
Mesh_cs002
100
AcDbLine
 10
-243.562
 20
242.681
 30
5.1
 11
-243.913
 21
242.867
 31
5.1
  0
LINE
  5
B13
330
A02
100
AcDbEntity
  8
Mesh_cs002
100
AcDbLine
 10
-243.913
 20
242.867
 30
5.1
 11
-243.922
 21
242.871
 31
5.1
  0
LINE
  5
B14
330
A02
100
AcDbEntity
  8
Mesh_cs002
100
AcDbLine
 10
-243.922
 20
242.871
 30
5.1
 11
-244.286
 21
243.028
 31
5.1
  0
LINE
  5
B15
330
A02
100
AcDbEntity
  8
Mesh_cs002
100
AcDbLine
 10
-244.286
 20
243.028
 30
5.1
 11
-244.296
 21
243.032
 31
5.1
  0
LINE
  5
B16
330
A02
100
AcDbEntity
  8
Mesh_cs002
100
AcDbLine
 10
-244.296
 20
243.032
 30
5.1
 11
-244.671
 21
243.159
 31
5.1
  0
LINE
  5
B17
330
A02
100
AcDbEntity
  8
Mesh_cs002
100
AcDbLine
 10
-244.671
 20
243.159
 30
5.1
 11
-244.68
 21
243.162
 31
5.1
  0
LINE
  5
B18
330
A02
100
AcDbEntity
  8
Mesh_cs002
100
AcDbLine
 10
-244.68
 20
243.162
 30
5.1
 11
-245.064
 21
243.257
 31
5.1
  0
LINE
  5
B19
330
A02
100
AcDbEntity
  8
Mesh_cs002
100
AcDbLine
 10
-245.064
 20
243.257
 30
5.1
 11
-245.074
 21
243.26
 31
5.1
  0
LINE
  5
B1A
330
A02
100
AcDbEntity
  8
Mesh_cs002
100
AcDbLine
 10
-245.074
 20
243.26
 30
5.1
 11
-245.463
 21
243.324
 31
5.1
  0
LINE
  5
B1B
330
A02
100
AcDbEntity
  8
Mesh_cs002
100
AcDbLine
 10
-245.463
 20
243.324
 30
5.1
 11
-245.866
 21
243.357
 31
5.1
  0
LINE
  5
B1C
330
A02
100
AcDbEntity
  8
Mesh_cs002
100
AcDbLine
 10
-245.866
 20
243.357
 30
5.1
 11
-246.269
 21
243.359
 31
5.1
  0
LINE
  5
B1D
330
A02
100
AcDbEntity
  8
Mesh_cs002
100
AcDbLine
 10
-246.269
 20
243.359
 30
5.1
 11
-246.279
 21
243.359
 31
5.1
  0
LINE
  5
B1E
330
A02
100
AcDbEntity
  8
Mesh_cs002
100
AcDbLine
 10
-246.279
 20
243.359
 30
5.1
 11
-246.671
 21
243.328
 31
5.1
  0
LINE
  5
B1F
330
A02
100
AcDbEntity
  8
Mesh_cs002
100
AcDbLine
 10
-246.671
 20
243.328
 30
5.1
 11
-246.691
 21
243.325
 31
5.1
  0
LINE
  5
B20
330
A02
100
AcDbEntity
  8
Mesh_cs002
100
AcDbLine
 10
-246.691
 20
243.325
 30
5.1
 11
-247.12
 21
243.254
 31
5.1
  0
LINE
  5
B21
330
A02
100
AcDbEntity
  8
Mesh_cs002
100
AcDbLine
 10
-247.12
 20
243.254
 30
5.1
 11
-247.552
 21
243.142
 31
5.1
  0
LINE
  5
B22
330
A02
100
AcDbEntity
  8
Mesh_cs002
100
AcDbLine
 10
-247.552
 20
243.142
 30
5.1
 11
-247.971
 21
242.992
 31
5.1
  0
LINE
  5
B23
330
A02
100
AcDbEntity
  8
Mesh_cs002
100
AcDbLine
 10
-247.971
 20
242.992
 30
5.1
 11
-248.374
 21
242.807
 31
5.1
  0
LINE
  5
B24
330
A02
100
AcDbEntity
  8
Mesh_cs002
100
AcDbLine
 10
-248.374
 20
242.807
 30
5.1
 11
-248.758
 21
242.586
 31
5.1
  0
LINE
  5
B25
330
A02
100
AcDbEntity
  8
Mesh_cs002
100
AcDbLine
 10
-248.758
 20
242.586
 30
5.1
 11
-249.121
 21
242.333
 31
5.1
  0
LINE
  5
B26
330
A02
100
AcDbEntity
  8
Mesh_cs002
100
AcDbLine
 10
-249.121
 20
242.333
 30
5.1
 11
-249.459
 21
242.05
 31
5.1
  0
LINE
  5
B27
330
A02
100
AcDbEntity
  8
Mesh_cs002
100
AcDbLine
 10
-249.459
 20
242.05
 30
5.1
 11
-249.771
 21
241.739
 31
5.1
  0
LINE
  5
B28
330
A02
100
AcDbEntity
  8
Mesh_cs002
100
AcDbLine
 10
-249.771
 20
241.739
 30
5.1
 11
-250.053
 21
241.402
 31
5.1
  0
LINE
  5
B29
330
A02
100
AcDbEntity
  8
Mesh_cs002
100
AcDbLine
 10
-250.053
 20
241.402
 30
5.1
 11
-250.304
 21
241.043
 31
5.1
  0
LINE
  5
B2A
330
A02
100
AcDbEntity
  8
Mesh_cs002
100
AcDbLine
 10
-250.304
 20
241.043
 30
5.1
 11
-250.522
 21
240.663
 31
5.1
  0
LINE
  5
B2B
330
A02
100
AcDbEntity
  8
Mesh_cs002
100
AcDbLine
 10
-250.522
 20
240.663
 30
5.1
 11
-250.707
 21
240.266
 31
5.1
  0
LINE
  5
B2C
330
A02
100
AcDbEntity
  8
Mesh_cs002
100
AcDbLine
 10
-250.707
 20
240.266
 30
5.1
 11
-250.844
 21
239.889
 31
5.1
  0
LINE
  5
B2D
330
A02
100
AcDbEntity
  8
Mesh_cs002
100
AcDbLine
 10
-250.844
 20
239.889
 30
5.1
 11
-250.953
 21
239.492
 31
5.1
  0
LINE
  5
B2E
330
A02
100
AcDbEntity
  8
Mesh_cs002
100
AcDbLine
 10
-250.953
 20
239.492
 30
5.1
 11
-251.029
 21
239.089
 31
5.1
  0
LINE
  5
B2F
330
A02
100
AcDbEntity
  8
Mesh_cs002
100
AcDbLine
 10
-251.029
 20
239.089
 30
5.1
 11
-251.072
 21
238.682
 31
5.1
  0
LINE
  5
B30
330
A02
100
AcDbEntity
  8
Mesh_cs002
100
AcDbLine
 10
-251.072
 20
238.682
 30
5.1
 11
-251.082
 21
238.274
 31
5.1
  0
LINE
  5
B31
330
A02
100
AcDbEntity
  8
Mesh_cs002
100
AcDbLine
 10
-251.082
 20
238.274
 30
5.1
 11
-251.058
 21
237.867
 31
5.1
  0
LINE
  5
B32
330
A02
100
AcDbEntity
  8
Mesh_cs002
100
AcDbLine
 10
-251.058
 20
237.867
 30
5.1
 11
-251.001
 21
237.464
 31
5.1
  0
LINE
  5
B33
330
A02
100
AcDbEntity
  8
Mesh_cs002
100
AcDbLine
 10
-251.001
 20
237.464
 30
5.1
 11
-251
 21
237.454
 31
5.1
  0
LINE
  5
B34
330
A02
100
AcDbEntity
  8
Mesh_cs002
100
AcDbLine
 10
-251
 20
237.454
 30
5.1
 11
-250.912
 21
237.068
 31
5.1
  0
LINE
  5
B35
330
A02
100
AcDbEntity
  8
Mesh_cs002
100
AcDbLine
 10
-250.912
 20
237.068
 30
5.1
 11
-250.91
 21
237.058
 31
5.1
  0
LINE
  5
B36
330
A02
100
AcDbEntity
  8
Mesh_cs002
100
AcDbLine
 10
-250.91
 20
237.058
 30
5.1
 11
-250.791
 21
236.682
 31
5.1
  0
LINE
  5
B37
330
A02
100
AcDbEntity
  8
Mesh_cs002
100
AcDbLine
 10
-250.791
 20
236.682
 30
5.1
 11
-250.64
 21
236.306
 31
5.1
  0
LINE
  5
B38
330
A02
100
AcDbEntity
  8
Mesh_cs002
100
AcDbLine
 10
-250.64
 20
236.306
 30
5.1
 11
-250.459
 21
235.945
 31
5.1
  0
LINE
  5
B39
330
A02
100
AcDbEntity
  8
Mesh_cs002
100
AcDbLine
 10
-250.459
 20
235.945
 30
5.1
 11
-250.455
 21
235.936
 31
5.1
  0
LINE
  5
B3A
330
A02
100
AcDbEntity
  8
Mesh_cs002
100
AcDbLine
 10
-250.455
 20
235.936
 30
5.1
 11
-250.25
 21
235.6
 31
5.1
  0
LINE
  5
B3B
330
A02
100
AcDbEntity
  8
Mesh_cs002
100
AcDbLine
 10
-250.25
 20
235.6
 30
5.1
 11
-250.015
 21
235.274
 31
5.1
  0
LINE
  5
B3C
330
A02
100
AcDbEntity
  8
Mesh_cs002
100
AcDbLine
 10
-14.9039
 20
279.976
 30
5.1
 11
-14.9403
 21
279.543
 31
5.1
  0
LINE
  5
B3D
330
A02
100
AcDbEntity
  8
Mesh_cs002
100
AcDbLine
 10
-14.9403
 20
279.543
 30
5.1
 11
-14.9413
 21
279.533
 31
5.1
  0
LINE
  5
B3E
330
A02
100
AcDbEntity
  8
Mesh_cs002
100
AcDbLine
 10
-14.9413
 20
279.533
 30
5.1
 11
-15.0161
 21
279.105
 31
5.1
  0
LINE
  5
B3F
330
A02
100
AcDbEntity
  8
Mesh_cs002
100
AcDbLine
 10
-15.0161
 20
279.105
 30
5.1
 11
-15.0179
 21
279.095
 31
5.1
  0
LINE
  5
B40
330
A02
100
AcDbEntity
  8
Mesh_cs002
100
AcDbLine
 10
-15.0179
 20
279.095
 30
5.1
 11
-15.0205
 21
279.085
 31
5.1
  0
LINE
  5
B41
330
A02
100
AcDbEntity
  8
Mesh_cs002
100
AcDbLine
 10
-15.0205
 20
279.085
 30
5.1
 11
-15.1328
 21
278.666
 31
5.1
  0
LINE
  5
B42
330
A02
100
AcDbEntity
  8
Mesh_cs002
100
AcDbLine
 10
-15.1328
 20
278.666
 30
5.1
 11
-15.1362
 21
278.657
 31
5.1
  0
LINE
  5
B43
330
A02
100
AcDbEntity
  8
Mesh_cs002
100
AcDbLine
 10
-15.1362
 20
278.657
 30
5.1
 11
-15.2848
 21
278.251
 31
5.1
  0
LINE
  5
B44
330
A02
100
AcDbEntity
  8
Mesh_cs002
100
AcDbLine
 10
-15.2848
 20
278.251
 30
5.1
 11
-15.2895
 21
278.24
 31
5.1
  0
LINE
  5
B45
330
A02
100
AcDbEntity
  8
Mesh_cs002
100
AcDbLine
 10
-15.2895
 20
278.24
 30
5.1
 11
-15.4732
 21
277.85
 31
5.1
  0
LINE
  5
B46
330
A02
100
AcDbEntity
  8
Mesh_cs002
100
AcDbLine
 10
-15.4732
 20
277.85
 30
5.1
 11
-15.4787
 21
277.84
 31
5.1
  0
LINE
  5
B47
330
A02
100
AcDbEntity
  8
Mesh_cs002
100
AcDbLine
 10
-15.4787
 20
277.84
 30
5.1
 11
-15.6957
 21
277.468
 31
5.1
  0
LINE
  5
B48
330
A02
100
AcDbEntity
  8
Mesh_cs002
100
AcDbLine
 10
-15.6957
 20
277.468
 30
5.1
 11
-15.7021
 21
277.459
 31
5.1
  0
LINE
  5
B49
330
A02
100
AcDbEntity
  8
Mesh_cs002
100
AcDbLine
 10
-15.7021
 20
277.459
 30
5.1
 11
-15.9506
 21
277.108
 31
5.1
  0
LINE
  5
B4A
330
A02
100
AcDbEntity
  8
Mesh_cs002
100
AcDbLine
 10
-15.9506
 20
277.108
 30
5.1
 11
-15.9577
 21
277.099
 31
5.1
  0
LINE
  5
B4B
330
A02
100
AcDbEntity
  8
Mesh_cs002
100
AcDbLine
 10
-15.9577
 20
277.099
 30
5.1
 11
-16.2356
 21
276.772
 31
5.1
  0
LINE
  5
B4C
330
A02
100
AcDbEntity
  8
Mesh_cs002
100
AcDbLine
 10
-16.2356
 20
276.772
 30
5.1
 11
-16.2434
 21
276.765
 31
5.1
  0
LINE
  5
B4D
330
A02
100
AcDbEntity
  8
Mesh_cs002
100
AcDbLine
 10
-16.2434
 20
276.765
 30
5.1
 11
-16.5482
 21
276.464
 31
5.1
  0
LINE
  5
B4E
330
A02
100
AcDbEntity
  8
Mesh_cs002
100
AcDbLine
 10
-16.5482
 20
276.464
 30
5.1
 11
-16.5567
 21
276.457
 31
5.1
  0
LINE
  5
B4F
330
A02
100
AcDbEntity
  8
Mesh_cs002
100
AcDbLine
 10
-16.5567
 20
276.457
 30
5.1
 11
-16.8859
 21
276.185
 31
5.1
  0
LINE
  5
B50
330
A02
100
AcDbEntity
  8
Mesh_cs002
100
AcDbLine
 10
-16.8859
 20
276.185
 30
5.1
 11
-16.895
 21
276.178
 31
5.1
  0
LINE
  5
B51
330
A02
100
AcDbEntity
  8
Mesh_cs002
100
AcDbLine
 10
-16.895
 20
276.178
 30
5.1
 11
-17.2459
 21
275.937
 31
5.1
  0
LINE
  5
B52
330
A02
100
AcDbEntity
  8
Mesh_cs002
100
AcDbLine
 10
-17.2459
 20
275.937
 30
5.1
 11
-17.2555
 21
275.931
 31
5.1
  0
LINE
  5
B53
330
A02
100
AcDbEntity
  8
Mesh_cs002
100
AcDbLine
 10
-17.2555
 20
275.931
 30
5.1
 11
-17.6321
 21
275.718
 31
5.1
  0
LINE
  5
B54
330
A02
100
AcDbEntity
  8
Mesh_cs002
100
AcDbLine
 10
-17.6321
 20
275.718
 30
5.1
 11
-17.6421
 21
275.713
 31
5.1
  0
LINE
  5
B55
330
A02
100
AcDbEntity
  8
Mesh_cs002
100
AcDbLine
 10
-17.6421
 20
275.713
 30
5.1
 11
-18.0065
 21
275.547
 31
5.1
  0
LINE
  5
B56
330
A02
100
AcDbEntity
  8
Mesh_cs002
100
AcDbLine
 10
-18.0065
 20
275.547
 30
5.1
 11
-18.3826
 21
275.41
 31
5.1
  0
LINE
  5
B57
330
A02
100
AcDbEntity
  8
Mesh_cs002
100
AcDbLine
 10
-18.3826
 20
275.41
 30
5.1
 11
-18.3929
 21
275.407
 31
5.1
  0
LINE
  5
B58
330
A02
100
AcDbEntity
  8
Mesh_cs002
100
AcDbLine
 10
-18.3929
 20
275.407
 30
5.1
 11
-18.7781
 21
275.302
 31
5.1
  0
LINE
  5
B59
330
A02
100
AcDbEntity
  8
Mesh_cs002
100
AcDbLine
 10
-18.7781
 20
275.302
 30
5.1
 11
-18.7887
 21
275.299
 31
5.1
  0
LINE
  5
B5A
330
A02
100
AcDbEntity
  8
Mesh_cs002
100
AcDbLine
 10
-18.7887
 20
275.299
 30
5.1
 11
-19.1804
 21
275.227
 31
5.1
  0
LINE
  5
B5B
330
A02
100
AcDbEntity
  8
Mesh_cs002
100
AcDbLine
 10
-19.1804
 20
275.227
 30
5.1
 11
-19.1912
 21
275.225
 31
5.1
  0
LINE
  5
B5C
330
A02
100
AcDbEntity
  8
Mesh_cs002
100
AcDbLine
 10
-19.1912
 20
275.225
 30
5.1
 11
-19.5868
 21
275.184
 31
5.1
  0
LINE
  5
B5D
330
A02
100
AcDbEntity
  8
Mesh_cs002
100
AcDbLine
 10
-19.5868
 20
275.184
 30
5.1
 11
-19.5948
 21
275.183
 31
5.1
  0
LINE
  5
B5E
330
A02
100
AcDbEntity
  8
Mesh_cs002
100
AcDbLine
 10
-19.5948
 20
275.183
 30
5.1
 11
-19.6026
 21
275.183
 31
5.1
  0
LINE
  5
B5F
330
A02
100
AcDbEntity
  8
Mesh_cs002
100
AcDbLine
 10
-19.6026
 20
275.183
 30
5.1
 11
-19.9995
 21
275.175
 31
5.1
  0
LINE
  5
B60
330
A02
100
AcDbEntity
  8
Mesh_cs002
100
AcDbLine
 10
-19.9995
 20
275.175
 30
5.1
 11
-20.0078
 21
275.175
 31
5.1
  0
LINE
  5
B61
330
A02
100
AcDbEntity
  8
Mesh_cs002
100
AcDbLine
 10
-20.0078
 20
275.175
 30
5.1
 11
-20.4033
 21
275.2
 31
5.1
  0
LINE
  5
B62
330
A02
100
AcDbEntity
  8
Mesh_cs002
100
AcDbLine
 10
-20.4033
 20
275.2
 30
5.1
 11
-20.4118
 21
275.2
 31
5.1
  0
LINE
  5
B63
330
A02
100
AcDbEntity
  8
Mesh_cs002
100
AcDbLine
 10
-20.4118
 20
275.2
 30
5.1
 11
-20.8033
 21
275.257
 31
5.1
  0
LINE
  5
B64
330
A02
100
AcDbEntity
  8
Mesh_cs002
100
AcDbLine
 10
-20.8033
 20
275.257
 30
5.1
 11
-20.8141
 21
275.259
 31
5.1
  0
LINE
  5
B65
330
A02
100
AcDbEntity
  8
Mesh_cs002
100
AcDbLine
 10
-20.8141
 20
275.259
 30
5.1
 11
-21.1992
 21
275.346
 31
5.1
  0
LINE
  5
B66
330
A02
100
AcDbEntity
  8
Mesh_cs002
100
AcDbLine
 10
-21.1992
 20
275.346
 30
5.1
 11
-21.2098
 21
275.349
 31
5.1
  0
LINE
  5
B67
330
A02
100
AcDbEntity
  8
Mesh_cs002
100
AcDbLine
 10
-21.2098
 20
275.349
 30
5.1
 11
-21.5859
 21
275.467
 31
5.1
  0
LINE
  5
B68
330
A02
100
AcDbEntity
  8
Mesh_cs002
100
AcDbLine
 10
-21.5859
 20
275.467
 30
5.1
 11
-21.5963
 21
275.471
 31
5.1
  0
LINE
  5
B69
330
A02
100
AcDbEntity
  8
Mesh_cs002
100
AcDbLine
 10
-21.5963
 20
275.471
 30
5.1
 11
-21.961
 21
275.619
 31
5.1
  0
LINE
  5
B6A
330
A02
100
AcDbEntity
  8
Mesh_cs002
100
AcDbLine
 10
-21.961
 20
275.619
 30
5.1
 11
-21.971
 21
275.623
 31
5.1
  0
LINE
  5
B6B
330
A02
100
AcDbEntity
  8
Mesh_cs002
100
AcDbLine
 10
-21.971
 20
275.623
 30
5.1
 11
-22.322
 21
275.8
 31
5.1
  0
LINE
  5
B6C
330
A02
100
AcDbEntity
  8
Mesh_cs002
100
AcDbLine
 10
-22.322
 20
275.8
 30
5.1
 11
-22.3316
 21
275.806
 31
5.1
  0
LINE
  5
B6D
330
A02
100
AcDbEntity
  8
Mesh_cs002
100
AcDbLine
 10
-22.3316
 20
275.806
 30
5.1
 11
-22.7029
 21
276.034
 31
5.1
  0
LINE
  5
B6E
330
A02
100
AcDbEntity
  8
Mesh_cs002
100
AcDbLine
 10
-22.7029
 20
276.034
 30
5.1
 11
-22.712
 21
276.04
 31
5.1
  0
LINE
  5
B6F
330
A02
100
AcDbEntity
  8
Mesh_cs002
100
AcDbLine
 10
-22.712
 20
276.04
 30
5.1
 11
-23.0608
 21
276.3
 31
5.1
  0
LINE
  5
B70
330
A02
100
AcDbEntity
  8
Mesh_cs002
100
AcDbLine
 10
-23.0608
 20
276.3
 30
5.1
 11
-23.0692
 21
276.307
 31
5.1
  0
LINE
  5
B71
330
A02
100
AcDbEntity
  8
Mesh_cs002
100
AcDbLine
 10
-23.0692
 20
276.307
 30
5.1
 11
-23.3928
 21
276.596
 31
5.1
  0
LINE
  5
B72
330
A02
100
AcDbEntity
  8
Mesh_cs002
100
AcDbLine
 10
-23.3928
 20
276.596
 30
5.1
 11
-23.3999
 21
276.604
 31
5.1
  0
LINE
  5
B73
330
A02
100
AcDbEntity
  8
Mesh_cs002
100
AcDbLine
 10
-23.3999
 20
276.604
 30
5.1
 11
-23.6959
 21
276.92
 31
5.1
  0
LINE
  5
B74
330
A02
100
AcDbEntity
  8
Mesh_cs002
100
AcDbLine
 10
-23.6959
 20
276.92
 30
5.1
 11
-23.7024
 21
276.928
 31
5.1
  0
LINE
  5
B75
330
A02
100
AcDbEntity
  8
Mesh_cs002
100
AcDbLine
 10
-23.7024
 20
276.928
 30
5.1
 11
-23.9687
 21
277.268
 31
5.1
  0
LINE
  5
B76
330
A02
100
AcDbEntity
  8
Mesh_cs002
100
AcDbLine
 10
-23.9687
 20
277.268
 30
5.1
 11
-23.9745
 21
277.276
 31
5.1
  0
LINE
  5
B77
330
A02
100
AcDbEntity
  8
Mesh_cs002
100
AcDbLine
 10
-23.9745
 20
277.276
 30
5.1
 11
-24.2092
 21
277.638
 31
5.1
  0
LINE
  5
B78
330
A02
100
AcDbEntity
  8
Mesh_cs002
100
AcDbLine
 10
-24.2092
 20
277.638
 30
5.1
 11
-24.2143
 21
277.647
 31
5.1
  0
LINE
  5
B79
330
A02
100
AcDbEntity
  8
Mesh_cs002
100
AcDbLine
 10
-24.2143
 20
277.647
 30
5.1
 11
-24.4156
 21
278.028
 31
5.1
  0
LINE
  5
B7A
330
A02
100
AcDbEntity
  8
Mesh_cs002
100
AcDbLine
 10
-24.4156
 20
278.028
 30
5.1
 11
-24.4201
 21
278.037
 31
5.1
  0
LINE
  5
B7B
330
A02
100
AcDbEntity
  8
Mesh_cs002
100
AcDbLine
 10
-24.4201
 20
278.037
 30
5.1
 11
-24.5867
 21
278.433
 31
5.1
  0
LINE
  5
B7C
330
A02
100
AcDbEntity
  8
Mesh_cs002
100
AcDbLine
 10
-24.5867
 20
278.433
 30
5.1
 11
-24.5904
 21
278.442
 31
5.1
  0
LINE
  5
B7D
330
A02
100
AcDbEntity
  8
Mesh_cs002
100
AcDbLine
 10
-24.5904
 20
278.442
 30
5.1
 11
-24.7213
 21
278.85
 31
5.1
  0
LINE
  5
B7E
330
A02
100
AcDbEntity
  8
Mesh_cs002
100
AcDbLine
 10
-24.7213
 20
278.85
 30
5.1
 11
-24.7242
 21
278.86
 31
5.1
  0
LINE
  5
B7F
330
A02
100
AcDbEntity
  8
Mesh_cs002
100
AcDbLine
 10
-24.7242
 20
278.86
 30
5.1
 11
-24.8186
 21
279.277
 31
5.1
  0
LINE
  5
B80
330
A02
100
AcDbEntity
  8
Mesh_cs002
100
AcDbLine
 10
-24.8186
 20
279.277
 30
5.1
 11
-24.8207
 21
279.287
 31
5.1
  0
LINE
  5
B81
330
A02
100
AcDbEntity
  8
Mesh_cs002
100
AcDbLine
 10
-24.8207
 20
279.287
 30
5.1
 11
-24.8781
 21
279.71
 31
5.1
  0
LINE
  5
B82
330
A02
100
AcDbEntity
  8
Mesh_cs002
100
AcDbLine
 10
-24.8781
 20
279.71
 30
5.1
 11
-24.8794
 21
279.721
 31
5.1
  0
LINE
  5
B83
330
A02
100
AcDbEntity
  8
Mesh_cs002
100
AcDbLine
 10
-24.8794
 20
279.721
 30
5.1
 11
-24.8947
 21
279.945
 31
5.1
  0
LINE
  5
B84
330
A02
100
AcDbEntity
  8
Mesh_cs002
100
AcDbLine
 10
-24.8947
 20
279.945
 30
5.1
 11
-24.8951
 21
279.955
 31
5.1
  0
LINE
  5
B85
330
A02
100
AcDbEntity
  8
Mesh_cs002
100
AcDbLine
 10
-24.8951
 20
279.955
 30
5.1
 11
-24.9
 21
280.174
 31
5.1
  0
LINE
  5
B86
330
A02
100
AcDbEntity
  8
Mesh_cs002
100
AcDbLine
 10
-24.9
 20
280.174
 30
5.1
 11
-24.8835
 21
280.575
 31
5.1
  0
LINE
  5
B87
330
A02
100
AcDbEntity
  8
Mesh_cs002
100
AcDbLine
 10
-24.8835
 20
280.575
 30
5.1
 11
-24.883
 21
280.586
 31
5.1
  0
LINE
  5
B88
330
A02
100
AcDbEntity
  8
Mesh_cs002
100
AcDbLine
 10
-24.883
 20
280.586
 30
5.1
 11
-24.8306
 21
281.002
 31
5.1
  0
LINE
  5
B89
330
A02
100
AcDbEntity
  8
Mesh_cs002
100
AcDbLine
 10
-24.8306
 20
281.002
 30
5.1
 11
-24.8292
 21
281.013
 31
5.1
  0
LINE
  5
B8A
330
A02
100
AcDbEntity
  8
Mesh_cs002
100
AcDbLine
 10
-24.8292
 20
281.013
 30
5.1
 11
-24.7461
 21
281.403
 31
5.1
  0
LINE
  5
B8B
330
A02
100
AcDbEntity
  8
Mesh_cs002
100
AcDbLine
 10
-24.7461
 20
281.403
 30
5.1
 11
-24.744
 21
281.414
 31
5.1
  0
LINE
  5
B8C
330
A02
100
AcDbEntity
  8
Mesh_cs002
100
AcDbLine
 10
-24.744
 20
281.414
 30
5.1
 11
-24.6294
 21
281.796
 31
5.1
  0
LINE
  5
B8D
330
A02
100
AcDbEntity
  8
Mesh_cs002
100
AcDbLine
 10
-24.6294
 20
281.796
 30
5.1
 11
-24.6264
 21
281.805
 31
5.1
  0
LINE
  5
B8E
330
A02
100
AcDbEntity
  8
Mesh_cs002
100
AcDbLine
 10
-24.6264
 20
281.805
 30
5.1
 11
-24.4813
 21
282.176
 31
5.1
  0
LINE
  5
B8F
330
A02
100
AcDbEntity
  8
Mesh_cs002
100
AcDbLine
 10
-24.4813
 20
282.176
 30
5.1
 11
-24.4775
 21
282.186
 31
5.1
  0
LINE
  5
B90
330
A02
100
AcDbEntity
  8
Mesh_cs002
100
AcDbLine
 10
-24.4775
 20
282.186
 30
5.1
 11
-24.303
 21
282.543
 31
5.1
  0
LINE
  5
B91
330
A02
100
AcDbEntity
  8
Mesh_cs002
100
AcDbLine
 10
-24.303
 20
282.543
 30
5.1
 11
-24.2985
 21
282.552
 31
5.1
  0
LINE
  5
B92
330
A02
100
AcDbEntity
  8
Mesh_cs002
100
AcDbLine
 10
-24.2985
 20
282.552
 30
5.1
 11
-24.0959
 21
282.893
 31
5.1
  0
LINE
  5
B93
330
A02
100
AcDbEntity
  8
Mesh_cs002
100
AcDbLine
 10
-24.0959
 20
282.893
 30
5.1
 11
-24.0907
 21
282.901
 31
5.1
  0
LINE
  5
B94
330
A02
100
AcDbEntity
  8
Mesh_cs002
100
AcDbLine
 10
-24.0907
 20
282.901
 30
5.1
 11
-23.8614
 21
283.224
 31
5.1
  0
LINE
  5
B95
330
A02
100
AcDbEntity
  8
Mesh_cs002
100
AcDbLine
 10
-23.8614
 20
283.224
 30
5.1
 11
-23.8555
 21
283.233
 31
5.1
  0
LINE
  5
B96
330
A02
100
AcDbEntity
  8
Mesh_cs002
100
AcDbLine
 10
-23.8555
 20
283.233
 30
5.1
 11
-23.6013
 21
283.535
 31
5.1
  0
LINE
  5
B97
330
A02
100
AcDbEntity
  8
Mesh_cs002
100
AcDbLine
 10
-23.6013
 20
283.535
 30
5.1
 11
-23.5947
 21
283.543
 31
5.1
  0
LINE
  5
B98
330
A02
100
AcDbEntity
  8
Mesh_cs002
100
AcDbLine
 10
-23.5947
 20
283.543
 30
5.1
 11
-23.3173
 21
283.824
 31
5.1
  0
LINE
  5
B99
330
A02
100
AcDbEntity
  8
Mesh_cs002
100
AcDbLine
 10
-23.3173
 20
283.824
 30
5.1
 11
-23.3102
 21
283.831
 31
5.1
  0
LINE
  5
B9A
330
A02
100
AcDbEntity
  8
Mesh_cs002
100
AcDbLine
 10
-23.3102
 20
283.831
 30
5.1
 11
-23.0115
 21
284.088
 31
5.1
  0
LINE
  5
B9B
330
A02
100
AcDbEntity
  8
Mesh_cs002
100
AcDbLine
 10
-23.0115
 20
284.088
 30
5.1
 11
-23.0038
 21
284.094
 31
5.1
  0
LINE
  5
B9C
330
A02
100
AcDbEntity
  8
Mesh_cs002
100
AcDbLine
 10
-23.0038
 20
284.094
 30
5.1
 11
-22.6859
 21
284.326
 31
5.1
  0
LINE
  5
B9D
330
A02
100
AcDbEntity
  8
Mesh_cs002
100
AcDbLine
 10
-22.6859
 20
284.326
 30
5.1
 11
-22.6777
 21
284.332
 31
5.1
  0
LINE
  5
B9E
330
A02
100
AcDbEntity
  8
Mesh_cs002
100
AcDbLine
 10
-22.6777
 20
284.332
 30
5.1
 11
-22.3427
 21
284.536
 31
5.1
  0
LINE
  5
B9F
330
A02
100
AcDbEntity
  8
Mesh_cs002
100
AcDbLine
 10
-22.3427
 20
284.536
 30
5.1
 11
-22.3341
 21
284.542
 31
5.1
  0
LINE
  5
BA0
330
A02
100
AcDbEntity
  8
Mesh_cs002
100
AcDbLine
 10
-22.3341
 20
284.542
 30
5.1
 11
-22.3251
 21
284.546
 31
5.1
  0
LINE
  5
BA1
330
A02
100
AcDbEntity
  8
Mesh_cs002
100
AcDbLine
 10
-22.3251
 20
284.546
 30
5.1
 11
-21.9356
 21
284.741
 31
5.1
  0
LINE
  5
BA2
330
A02
100
AcDbEntity
  8
Mesh_cs002
100
AcDbLine
 10
-21.9356
 20
284.741
 30
5.1
 11
-21.9253
 21
284.745
 31
5.1
  0
LINE
  5
BA3
330
A02
100
AcDbEntity
  8
Mesh_cs002
100
AcDbLine
 10
-21.9253
 20
284.745
 30
5.1
 11
-21.5208
 21
284.904
 31
5.1
  0
LINE
  5
BA4
330
A02
100
AcDbEntity
  8
Mesh_cs002
100
AcDbLine
 10
-21.5208
 20
284.904
 30
5.1
 11
-21.5101
 21
284.907
 31
5.1
  0
LINE
  5
BA5
330
A02
100
AcDbEntity
  8
Mesh_cs002
100
AcDbLine
 10
-21.5101
 20
284.907
 30
5.1
 11
-21.094
 21
285.03
 31
5.1
  0
LINE
  5
BA6
330
A02
100
AcDbEntity
  8
Mesh_cs002
100
AcDbLine
 10
-21.094
 20
285.03
 30
5.1
 11
-21.0831
 21
285.032
 31
5.1
  0
LINE
  5
BA7
330
A02
100
AcDbEntity
  8
Mesh_cs002
100
AcDbLine
 10
-21.0831
 20
285.032
 30
5.1
 11
-20.6585
 21
285.116
 31
5.1
  0
LINE
  5
BA8
330
A02
100
AcDbEntity
  8
Mesh_cs002
100
AcDbLine
 10
-20.6585
 20
285.116
 30
5.1
 11
-20.6475
 21
285.118
 31
5.1
  0
LINE
  5
BA9
330
A02
100
AcDbEntity
  8
Mesh_cs002
100
AcDbLine
 10
-20.6475
 20
285.118
 30
5.1
 11
-20.218
 21
285.164
 31
5.1
  0
LINE
  5
BAA
330
A02
100
AcDbEntity
  8
Mesh_cs002
100
AcDbLine
 10
-20.218
 20
285.164
 30
5.1
 11
-20.207
 21
285.164
 31
5.1
  0
LINE
  5
BAB
330
A02
100
AcDbEntity
  8
Mesh_cs002
100
AcDbLine
 10
-20.207
 20
285.164
 30
5.1
 11
-19.7759
 21
285.173
 31
5.1
  0
LINE
  5
BAC
330
A02
100
AcDbEntity
  8
Mesh_cs002
100
AcDbLine
 10
-19.7759
 20
285.173
 30
5.1
 11
-19.7649
 21
285.172
 31
5.1
  0
LINE
  5
BAD
330
A02
100
AcDbEntity
  8
Mesh_cs002
100
AcDbLine
 10
-19.7649
 20
285.172
 30
5.1
 11
-19.3357
 21
285.142
 31
5.1
  0
LINE
  5
BAE
330
A02
100
AcDbEntity
  8
Mesh_cs002
100
AcDbLine
 10
-19.3357
 20
285.142
 30
5.1
 11
-19.3248
 21
285.14
 31
5.1
  0
LINE
  5
BAF
330
A02
100
AcDbEntity
  8
Mesh_cs002
100
AcDbLine
 10
-19.3248
 20
285.14
 30
5.1
 11
-18.9008
 21
285.073
 31
5.1
  0
LINE
  5
BB0
330
A02
100
AcDbEntity
  8
Mesh_cs002
100
AcDbLine
 10
-18.9008
 20
285.073
 30
5.1
 11
-18.8901
 21
285.071
 31
5.1
  0
LINE
  5
BB1
330
A02
100
AcDbEntity
  8
Mesh_cs002
100
AcDbLine
 10
-18.8901
 20
285.071
 30
5.1
 11
-18.4746
 21
284.967
 31
5.1
  0
LINE
  5
BB2
330
A02
100
AcDbEntity
  8
Mesh_cs002
100
AcDbLine
 10
-18.4746
 20
284.967
 30
5.1
 11
-18.4642
 21
284.963
 31
5.1
  0
LINE
  5
BB3
330
A02
100
AcDbEntity
  8
Mesh_cs002
100
AcDbLine
 10
-18.4642
 20
284.963
 30
5.1
 11
-18.0603
 21
284.823
 31
5.1
  0
LINE
  5
BB4
330
A02
100
AcDbEntity
  8
Mesh_cs002
100
AcDbLine
 10
-18.0603
 20
284.823
 30
5.1
 11
-18.0503
 21
284.819
 31
5.1
  0
LINE
  5
BB5
330
A02
100
AcDbEntity
  8
Mesh_cs002
100
AcDbLine
 10
-18.0503
 20
284.819
 30
5.1
 11
-17.661
 21
284.645
 31
5.1
  0
LINE
  5
BB6
330
A02
100
AcDbEntity
  8
Mesh_cs002
100
AcDbLine
 10
-17.661
 20
284.645
 30
5.1
 11
-17.6515
 21
284.64
 31
5.1
  0
LINE
  5
BB7
330
A02
100
AcDbEntity
  8
Mesh_cs002
100
AcDbLine
 10
-17.6515
 20
284.64
 30
5.1
 11
-17.2779
 21
284.431
 31
5.1
  0
LINE
  5
BB8
330
A02
100
AcDbEntity
  8
Mesh_cs002
100
AcDbLine
 10
-17.2779
 20
284.431
 30
5.1
 11
-16.9453
 21
284.207
 31
5.1
  0
LINE
  5
BB9
330
A02
100
AcDbEntity
  8
Mesh_cs002
100
AcDbLine
 10
-16.9453
 20
284.207
 30
5.1
 11
-16.9362
 21
284.201
 31
5.1
  0
LINE
  5
BBA
330
A02
100
AcDbEntity
  8
Mesh_cs002
100
AcDbLine
 10
-16.9362
 20
284.201
 30
5.1
 11
-16.6239
 21
283.951
 31
5.1
  0
LINE
  5
BBB
330
A02
100
AcDbEntity
  8
Mesh_cs002
100
AcDbLine
 10
-16.6239
 20
283.951
 30
5.1
 11
-16.6154
 21
283.944
 31
5.1
  0
LINE
  5
BBC
330
A02
100
AcDbEntity
  8
Mesh_cs002
100
AcDbLine
 10
-16.6154
 20
283.944
 30
5.1
 11
-16.3252
 21
283.67
 31
5.1
  0
LINE
  5
BBD
330
A02
100
AcDbEntity
  8
Mesh_cs002
100
AcDbLine
 10
-16.3252
 20
283.67
 30
5.1
 11
-16.3174
 21
283.662
 31
5.1
  0
LINE
  5
BBE
330
A02
100
AcDbEntity
  8
Mesh_cs002
100
AcDbLine
 10
-16.3174
 20
283.662
 30
5.1
 11
-16.0511
 21
283.365
 31
5.1
  0
LINE
  5
BBF
330
A02
100
AcDbEntity
  8
Mesh_cs002
100
AcDbLine
 10
-16.0511
 20
283.365
 30
5.1
 11
-16.0443
 21
283.357
 31
5.1
  0
LINE
  5
BC0
330
A02
100
AcDbEntity
  8
Mesh_cs002
100
AcDbLine
 10
-16.0443
 20
283.357
 30
5.1
 11
-15.8036
 21
283.041
 31
5.1
  0
LINE
  5
BC1
330
A02
100
AcDbEntity
  8
Mesh_cs002
100
AcDbLine
 10
-15.8036
 20
283.041
 30
5.1
 11
-15.7975
 21
283.032
 31
5.1
  0
LINE
  5
BC2
330
A02
100
AcDbEntity
  8
Mesh_cs002
100
AcDbLine
 10
-15.7975
 20
283.032
 30
5.1
 11
-15.5838
 21
282.698
 31
5.1
  0
LINE
  5
BC3
330
A02
100
AcDbEntity
  8
Mesh_cs002
100
AcDbLine
 10
-15.5838
 20
282.698
 30
5.1
 11
-15.5784
 21
282.689
 31
5.1
  0
LINE
  5
BC4
330
A02
100
AcDbEntity
  8
Mesh_cs002
100
AcDbLine
 10
-15.5784
 20
282.689
 30
5.1
 11
-15.393
 21
282.339
 31
5.1
  0
LINE
  5
BC5
330
A02
100
AcDbEntity
  8
Mesh_cs002
100
AcDbLine
 10
-15.393
 20
282.339
 30
5.1
 11
-15.3884
 21
282.329
 31
5.1
  0
LINE
  5
BC6
330
A02
100
AcDbEntity
  8
Mesh_cs002
100
AcDbLine
 10
-15.3884
 20
282.329
 30
5.1
 11
-15.2323
 21
281.966
 31
5.1
  0
LINE
  5
BC7
330
A02
100
AcDbEntity
  8
Mesh_cs002
100
AcDbLine
 10
-15.2323
 20
281.966
 30
5.1
 11
-15.2284
 21
281.956
 31
5.1
  0
LINE
  5
BC8
330
A02
100
AcDbEntity
  8
Mesh_cs002
100
AcDbLine
 10
-15.2284
 20
281.956
 30
5.1
 11
-15.1025
 21
281.582
 31
5.1
  0
LINE
  5
BC9
330
A02
100
AcDbEntity
  8
Mesh_cs002
100
AcDbLine
 10
-15.1025
 20
281.582
 30
5.1
 11
-15.0994
 21
281.572
 31
5.1
  0
LINE
  5
BCA
330
A02
100
AcDbEntity
  8
Mesh_cs002
100
AcDbLine
 10
-15.0994
 20
281.572
 30
5.1
 11
-15.0044
 21
281.189
 31
5.1
  0
LINE
  5
BCB
330
A02
100
AcDbEntity
  8
Mesh_cs002
100
AcDbLine
 10
-15.0044
 20
281.189
 30
5.1
 11
-15.0021
 21
281.179
 31
5.1
  0
LINE
  5
BCC
330
A02
100
AcDbEntity
  8
Mesh_cs002
100
AcDbLine
 10
-15.0021
 20
281.179
 30
5.1
 11
-14.9384
 21
280.791
 31
5.1
  0
LINE
  5
BCD
330
A02
100
AcDbEntity
  8
Mesh_cs002
100
AcDbLine
 10
-14.9384
 20
280.791
 30
5.1
 11
-14.937
 21
280.781
 31
5.1
  0
LINE
  5
BCE
330
A02
100
AcDbEntity
  8
Mesh_cs002
100
AcDbLine
 10
-14.937
 20
280.781
 30
5.1
 11
-14.9049
 21
280.389
 31
5.1
  0
LINE
  5
BCF
330
A02
100
AcDbEntity
  8
Mesh_cs002
100
AcDbLine
 10
-14.9049
 20
280.389
 30
5.1
 11
-14.9042
 21
280.379
 31
5.1
  0
LINE
  5
BD0
330
A02
100
AcDbEntity
  8
Mesh_cs002
100
AcDbLine
 10
-14.9042
 20
280.379
 30
5.1
 11
-14.9037
 21
279.986
 31
5.1
  0
LINE
  5
BD1
330
A02
100
AcDbEntity
  8
Mesh_cs002
100
AcDbLine
 10
-180.096
 20
20.0978
 30
5.1
 11
-180.06
 21
20.5315
 31
5.1
  0
LINE
  5
BD2
330
A02
100
AcDbEntity
  8
Mesh_cs002
100
AcDbLine
 10
-180.06
 20
20.5315
 30
5.1
 11
-180.059
 21
20.5416
 31
5.1
  0
LINE
  5
BD3
330
A02
100
AcDbEntity
  8
Mesh_cs002
100
AcDbLine
 10
-180.059
 20
20.5416
 30
5.1
 11
-179.984
 21
20.9694
 31
5.1
  0
LINE
  5
BD4
330
A02
100
AcDbEntity
  8
Mesh_cs002
100
AcDbLine
 10
-179.984
 20
20.9694
 30
5.1
 11
-179.982
 21
20.9794
 31
5.1
  0
LINE
  5
BD5
330
A02
100
AcDbEntity
  8
Mesh_cs002
100
AcDbLine
 10
-179.982
 20
20.9794
 30
5.1
 11
-179.98
 21
20.9891
 31
5.1
  0
LINE
  5
BD6
330
A02
100
AcDbEntity
  8
Mesh_cs002
100
AcDbLine
 10
-179.98
 20
20.9891
 30
5.1
 11
-179.867
 21
21.4078
 31
5.1
  0
LINE
  5
BD7
330
A02
100
AcDbEntity
  8
Mesh_cs002
100
AcDbLine
 10
-179.867
 20
21.4078
 30
5.1
 11
-179.864
 21
21.4173
 31
5.1
  0
LINE
  5
BD8
330
A02
100
AcDbEntity
  8
Mesh_cs002
100
AcDbLine
 10
-179.864
 20
21.4173
 30
5.1
 11
-179.715
 21
21.8236
 31
5.1
  0
LINE
  5
BD9
330
A02
100
AcDbEntity
  8
Mesh_cs002
100
AcDbLine
 10
-179.715
 20
21.8236
 30
5.1
 11
-179.711
 21
21.8337
 31
5.1
  0
LINE
  5
BDA
330
A02
100
AcDbEntity
  8
Mesh_cs002
100
AcDbLine
 10
-179.711
 20
21.8337
 30
5.1
 11
-179.527
 21
22.2245
 31
5.1
  0
LINE
  5
BDB
330
A02
100
AcDbEntity
  8
Mesh_cs002
100
AcDbLine
 10
-179.527
 20
22.2245
 30
5.1
 11
-179.521
 21
22.2342
 31
5.1
  0
LINE
  5
BDC
330
A02
100
AcDbEntity
  8
Mesh_cs002
100
AcDbLine
 10
-179.521
 20
22.2342
 30
5.1
 11
-179.304
 21
22.6063
 31
5.1
  0
LINE
  5
BDD
330
A02
100
AcDbEntity
  8
Mesh_cs002
100
AcDbLine
 10
-179.304
 20
22.6063
 30
5.1
 11
-179.298
 21
22.6155
 31
5.1
  0
LINE
  5
BDE
330
A02
100
AcDbEntity
  8
Mesh_cs002
100
AcDbLine
 10
-179.298
 20
22.6155
 30
5.1
 11
-179.049
 21
22.9663
 31
5.1
  0
LINE
  5
BDF
330
A02
100
AcDbEntity
  8
Mesh_cs002
100
AcDbLine
 10
-179.049
 20
22.9663
 30
5.1
 11
-179.042
 21
22.9748
 31
5.1
  0
LINE
  5
BE0
330
A02
100
AcDbEntity
  8
Mesh_cs002
100
AcDbLine
 10
-179.042
 20
22.9748
 30
5.1
 11
-178.764
 21
23.3018
 31
5.1
  0
LINE
  5
BE1
330
A02
100
AcDbEntity
  8
Mesh_cs002
100
AcDbLine
 10
-178.764
 20
23.3018
 30
5.1
 11
-178.757
 21
23.3096
 31
5.1
  0
LINE
  5
BE2
330
A02
100
AcDbEntity
  8
Mesh_cs002
100
AcDbLine
 10
-178.757
 20
23.3096
 30
5.1
 11
-178.452
 21
23.6102
 31
5.1
  0
LINE
  5
BE3
330
A02
100
AcDbEntity
  8
Mesh_cs002
100
AcDbLine
 10
-178.452
 20
23.6102
 30
5.1
 11
-178.443
 21
23.6173
 31
5.1
  0
LINE
  5
BE4
330
A02
100
AcDbEntity
  8
Mesh_cs002
100
AcDbLine
 10
-178.443
 20
23.6173
 30
5.1
 11
-178.114
 21
23.8894
 31
5.1
  0
LINE
  5
BE5
330
A02
100
AcDbEntity
  8
Mesh_cs002
100
AcDbLine
 10
-178.114
 20
23.8894
 30
5.1
 11
-178.105
 21
23.8957
 31
5.1
  0
LINE
  5
BE6
330
A02
100
AcDbEntity
  8
Mesh_cs002
100
AcDbLine
 10
-178.105
 20
23.8957
 30
5.1
 11
-177.754
 21
24.1374
 31
5.1
  0
LINE
  5
BE7
330
A02
100
AcDbEntity
  8
Mesh_cs002
100
AcDbLine
 10
-177.754
 20
24.1374
 30
5.1
 11
-177.745
 21
24.1429
 31
5.1
  0
LINE
  5
BE8
330
A02
100
AcDbEntity
  8
Mesh_cs002
100
AcDbLine
 10
-177.745
 20
24.1429
 30
5.1
 11
-177.368
 21
24.3561
 31
5.1
  0
LINE
  5
BE9
330
A02
100
AcDbEntity
  8
Mesh_cs002
100
AcDbLine
 10
-177.368
 20
24.3561
 30
5.1
 11
-177.358
 21
24.3607
 31
5.1
  0
LINE
  5
BEA
330
A02
100
AcDbEntity
  8
Mesh_cs002
100
AcDbLine
 10
-177.358
 20
24.3607
 30
5.1
 11
-176.993
 21
24.5276
 31
5.1
  0
LINE
  5
BEB
330
A02
100
AcDbEntity
  8
Mesh_cs002
100
AcDbLine
 10
-176.993
 20
24.5276
 30
5.1
 11
-176.617
 21
24.6637
 31
5.1
  0
LINE
  5
BEC
330
A02
100
AcDbEntity
  8
Mesh_cs002
100
AcDbLine
 10
-176.617
 20
24.6637
 30
5.1
 11
-176.607
 21
24.6675
 31
5.1
  0
LINE
  5
BED
330
A02
100
AcDbEntity
  8
Mesh_cs002
100
AcDbLine
 10
-176.607
 20
24.6675
 30
5.1
 11
-176.222
 21
24.7721
 31
5.1
  0
LINE
  5
BEE
330
A02
100
AcDbEntity
  8
Mesh_cs002
100
AcDbLine
 10
-176.222
 20
24.7721
 30
5.1
 11
-176.211
 21
24.7749
 31
5.1
  0
LINE
  5
BEF
330
A02
100
AcDbEntity
  8
Mesh_cs002
100
AcDbLine
 10
-176.211
 20
24.7749
 30
5.1
 11
-175.82
 21
24.8476
 31
5.1
  0
LINE
  5
BF0
330
A02
100
AcDbEntity
  8
Mesh_cs002
100
AcDbLine
 10
-175.82
 20
24.8476
 30
5.1
 11
-175.809
 21
24.8495
 31
5.1
  0
LINE
  5
BF1
330
A02
100
AcDbEntity
  8
Mesh_cs002
100
AcDbLine
 10
-175.809
 20
24.8495
 30
5.1
 11
-175.413
 21
24.8899
 31
5.1
  0
LINE
  5
BF2
330
A02
100
AcDbEntity
  8
Mesh_cs002
100
AcDbLine
 10
-175.413
 20
24.8899
 30
5.1
 11
-175.405
 21
24.8907
 31
5.1
  0
LINE
  5
BF3
330
A02
100
AcDbEntity
  8
Mesh_cs002
100
AcDbLine
 10
-175.405
 20
24.8907
 30
5.1
 11
-175.397
 21
24.8909
 31
5.1
  0
LINE
  5
BF4
330
A02
100
AcDbEntity
  8
Mesh_cs002
100
AcDbLine
 10
-175.397
 20
24.8909
 30
5.1
 11
-175.001
 21
24.899
 31
5.1
  0
LINE
  5
BF5
330
A02
100
AcDbEntity
  8
Mesh_cs002
100
AcDbLine
 10
-175.001
 20
24.899
 30
5.1
 11
-174.992
 21
24.8987
 31
5.1
  0
LINE
  5
BF6
330
A02
100
AcDbEntity
  8
Mesh_cs002
100
AcDbLine
 10
-174.992
 20
24.8987
 30
5.1
 11
-174.597
 21
24.8745
 31
5.1
  0
LINE
  5
BF7
330
A02
100
AcDbEntity
  8
Mesh_cs002
100
AcDbLine
 10
-174.597
 20
24.8745
 30
5.1
 11
-174.588
 21
24.8737
 31
5.1
  0
LINE
  5
BF8
330
A02
100
AcDbEntity
  8
Mesh_cs002
100
AcDbLine
 10
-174.588
 20
24.8737
 30
5.1
 11
-174.197
 21
24.8176
 31
5.1
  0
LINE
  5
BF9
330
A02
100
AcDbEntity
  8
Mesh_cs002
100
AcDbLine
 10
-174.197
 20
24.8176
 30
5.1
 11
-174.186
 21
24.8156
 31
5.1
  0
LINE
  5
BFA
330
A02
100
AcDbEntity
  8
Mesh_cs002
100
AcDbLine
 10
-174.186
 20
24.8156
 30
5.1
 11
-173.801
 21
24.7282
 31
5.1
  0
LINE
  5
BFB
330
A02
100
AcDbEntity
  8
Mesh_cs002
100
AcDbLine
 10
-173.801
 20
24.7282
 30
5.1
 11
-173.79
 21
24.7252
 31
5.1
  0
LINE
  5
BFC
330
A02
100
AcDbEntity
  8
Mesh_cs002
100
AcDbLine
 10
-173.79
 20
24.7252
 30
5.1
 11
-173.414
 21
24.6071
 31
5.1
  0
LINE
  5
BFD
330
A02
100
AcDbEntity
  8
Mesh_cs002
100
AcDbLine
 10
-173.414
 20
24.6071
 30
5.1
 11
-173.404
 21
24.6033
 31
5.1
  0
LINE
  5
BFE
330
A02
100
AcDbEntity
  8
Mesh_cs002
100
AcDbLine
 10
-173.404
 20
24.6033
 30
5.1
 11
-173.039
 21
24.4554
 31
5.1
  0
LINE
  5
BFF
330
A02
100
AcDbEntity
  8
Mesh_cs002
100
AcDbLine
 10
-173.039
 20
24.4554
 30
5.1
 11
-173.029
 21
24.4507
 31
5.1
  0
LINE
  5
C00
330
A02
100
AcDbEntity
  8
Mesh_cs002
100
AcDbLine
 10
-173.029
 20
24.4507
 30
5.1
 11
-172.678
 21
24.2742
 31
5.1
  0
LINE
  5
C01
330
A02
100
AcDbEntity
  8
Mesh_cs002
100
AcDbLine
 10
-172.678
 20
24.2742
 30
5.1
 11
-172.668
 21
24.2685
 31
5.1
  0
LINE
  5
C02
330
A02
100
AcDbEntity
  8
Mesh_cs002
100
AcDbLine
 10
-172.668
 20
24.2685
 30
5.1
 11
-172.297
 21
24.0405
 31
5.1
  0
LINE
  5
C03
330
A02
100
AcDbEntity
  8
Mesh_cs002
100
AcDbLine
 10
-172.297
 20
24.0405
 30
5.1
 11
-172.288
 21
24.034
 31
5.1
  0
LINE
  5
C04
330
A02
100
AcDbEntity
  8
Mesh_cs002
100
AcDbLine
 10
-172.288
 20
24.034
 30
5.1
 11
-171.939
 21
23.7742
 31
5.1
  0
LINE
  5
C05
330
A02
100
AcDbEntity
  8
Mesh_cs002
100
AcDbLine
 10
-171.939
 20
23.7742
 30
5.1
 11
-171.931
 21
23.7669
 31
5.1
  0
LINE
  5
C06
330
A02
100
AcDbEntity
  8
Mesh_cs002
100
AcDbLine
 10
-171.931
 20
23.7669
 30
5.1
 11
-171.607
 21
23.4777
 31
5.1
  0
LINE
  5
C07
330
A02
100
AcDbEntity
  8
Mesh_cs002
100
AcDbLine
 10
-171.607
 20
23.4777
 30
5.1
 11
-171.6
 21
23.4705
 31
5.1
  0
LINE
  5
C08
330
A02
100
AcDbEntity
  8
Mesh_cs002
100
AcDbLine
 10
-171.6
 20
23.4705
 30
5.1
 11
-171.304
 21
23.1543
 31
5.1
  0
LINE
  5
C09
330
A02
100
AcDbEntity
  8
Mesh_cs002
100
AcDbLine
 10
-171.304
 20
23.1543
 30
5.1
 11
-171.298
 21
23.1465
 31
5.1
  0
LINE
  5
C0A
330
A02
100
AcDbEntity
  8
Mesh_cs002
100
AcDbLine
 10
-171.298
 20
23.1465
 30
5.1
 11
-171.031
 21
22.806
 31
5.1
  0
LINE
  5
C0B
330
A02
100
AcDbEntity
  8
Mesh_cs002
100
AcDbLine
 10
-171.031
 20
22.806
 30
5.1
 11
-171.025
 21
22.7978
 31
5.1
  0
LINE
  5
C0C
330
A02
100
AcDbEntity
  8
Mesh_cs002
100
AcDbLine
 10
-171.025
 20
22.7978
 30
5.1
 11
-170.791
 21
22.4358
 31
5.1
  0
LINE
  5
C0D
330
A02
100
AcDbEntity
  8
Mesh_cs002
100
AcDbLine
 10
-170.791
 20
22.4358
 30
5.1
 11
-170.786
 21
22.427
 31
5.1
  0
LINE
  5
C0E
330
A02
100
AcDbEntity
  8
Mesh_cs002
100
AcDbLine
 10
-170.786
 20
22.427
 30
5.1
 11
-170.584
 21
22.0465
 31
5.1
  0
LINE
  5
C0F
330
A02
100
AcDbEntity
  8
Mesh_cs002
100
AcDbLine
 10
-170.584
 20
22.0465
 30
5.1
 11
-170.58
 21
22.0374
 31
5.1
  0
LINE
  5
C10
330
A02
100
AcDbEntity
  8
Mesh_cs002
100
AcDbLine
 10
-170.58
 20
22.0374
 30
5.1
 11
-170.413
 21
21.6414
 31
5.1
  0
LINE
  5
C11
330
A02
100
AcDbEntity
  8
Mesh_cs002
100
AcDbLine
 10
-170.413
 20
21.6414
 30
5.1
 11
-170.41
 21
21.632
 31
5.1
  0
LINE
  5
C12
330
A02
100
AcDbEntity
  8
Mesh_cs002
100
AcDbLine
 10
-170.41
 20
21.632
 30
5.1
 11
-170.279
 21
21.2237
 31
5.1
  0
LINE
  5
C13
330
A02
100
AcDbEntity
  8
Mesh_cs002
100
AcDbLine
 10
-170.279
 20
21.2237
 30
5.1
 11
-170.276
 21
21.214
 31
5.1
  0
LINE
  5
C14
330
A02
100
AcDbEntity
  8
Mesh_cs002
100
AcDbLine
 10
-170.276
 20
21.214
 30
5.1
 11
-170.181
 21
20.7968
 31
5.1
  0
LINE
  5
C15
330
A02
100
AcDbEntity
  8
Mesh_cs002
100
AcDbLine
 10
-170.181
 20
20.7968
 30
5.1
 11
-170.179
 21
20.7868
 31
5.1
  0
LINE
  5
C16
330
A02
100
AcDbEntity
  8
Mesh_cs002
100
AcDbLine
 10
-170.179
 20
20.7868
 30
5.1
 11
-170.122
 21
20.3639
 31
5.1
  0
LINE
  5
C17
330
A02
100
AcDbEntity
  8
Mesh_cs002
100
AcDbLine
 10
-170.122
 20
20.3639
 30
5.1
 11
-170.121
 21
20.3535
 31
5.1
  0
LINE
  5
C18
330
A02
100
AcDbEntity
  8
Mesh_cs002
100
AcDbLine
 10
-170.121
 20
20.3535
 30
5.1
 11
-170.105
 21
20.1293
 31
5.1
  0
LINE
  5
C19
330
A02
100
AcDbEntity
  8
Mesh_cs002
100
AcDbLine
 10
-170.105
 20
20.1293
 30
5.1
 11
-170.105
 21
20.1191
 31
5.1
  0
LINE
  5
C1A
330
A02
100
AcDbEntity
  8
Mesh_cs002
100
AcDbLine
 10
-170.105
 20
20.1191
 30
5.1
 11
-170.1
 21
19.9
 31
5.1
  0
LINE
  5
C1B
330
A02
100
AcDbEntity
  8
Mesh_cs002
100
AcDbLine
 10
-170.1
 20
19.9
 30
5.1
 11
-170.117
 21
19.4989
 31
5.1
  0
LINE
  5
C1C
330
A02
100
AcDbEntity
  8
Mesh_cs002
100
AcDbLine
 10
-170.117
 20
19.4989
 30
5.1
 11
-170.117
 21
19.4886
 31
5.1
  0
LINE
  5
C1D
330
A02
100
AcDbEntity
  8
Mesh_cs002
100
AcDbLine
 10
-170.117
 20
19.4886
 30
5.1
 11
-170.169
 21
19.0724
 31
5.1
  0
LINE
  5
C1E
330
A02
100
AcDbEntity
  8
Mesh_cs002
100
AcDbLine
 10
-170.169
 20
19.0724
 30
5.1
 11
-170.171
 21
19.0616
 31
5.1
  0
LINE
  5
C1F
330
A02
100
AcDbEntity
  8
Mesh_cs002
100
AcDbLine
 10
-170.171
 20
19.0616
 30
5.1
 11
-170.254
 21
18.6707
 31
5.1
  0
LINE
  5
C20
330
A02
100
AcDbEntity
  8
Mesh_cs002
100
AcDbLine
 10
-170.254
 20
18.6707
 30
5.1
 11
-170.256
 21
18.6606
 31
5.1
  0
LINE
  5
C21
330
A02
100
AcDbEntity
  8
Mesh_cs002
100
AcDbLine
 10
-170.256
 20
18.6606
 30
5.1
 11
-170.371
 21
18.2786
 31
5.1
  0
LINE
  5
C22
330
A02
100
AcDbEntity
  8
Mesh_cs002
100
AcDbLine
 10
-170.371
 20
18.2786
 30
5.1
 11
-170.374
 21
18.2687
 31
5.1
  0
LINE
  5
C23
330
A02
100
AcDbEntity
  8
Mesh_cs002
100
AcDbLine
 10
-170.374
 20
18.2687
 30
5.1
 11
-170.519
 21
17.898
 31
5.1
  0
LINE
  5
C24
330
A02
100
AcDbEntity
  8
Mesh_cs002
100
AcDbLine
 10
-170.519
 20
17.898
 30
5.1
 11
-170.522
 21
17.8885
 31
5.1
  0
LINE
  5
C25
330
A02
100
AcDbEntity
  8
Mesh_cs002
100
AcDbLine
 10
-170.522
 20
17.8885
 30
5.1
 11
-170.697
 21
17.5316
 31
5.1
  0
LINE
  5
C26
330
A02
100
AcDbEntity
  8
Mesh_cs002
100
AcDbLine
 10
-170.697
 20
17.5316
 30
5.1
 11
-170.701
 21
17.5224
 31
5.1
  0
LINE
  5
C27
330
A02
100
AcDbEntity
  8
Mesh_cs002
100
AcDbLine
 10
-170.701
 20
17.5224
 30
5.1
 11
-170.904
 21
17.1814
 31
5.1
  0
LINE
  5
C28
330
A02
100
AcDbEntity
  8
Mesh_cs002
100
AcDbLine
 10
-170.904
 20
17.1814
 30
5.1
 11
-170.909
 21
17.1727
 31
5.1
  0
LINE
  5
C29
330
A02
100
AcDbEntity
  8
Mesh_cs002
100
AcDbLine
 10
-170.909
 20
17.1727
 30
5.1
 11
-171.139
 21
16.8499
 31
5.1
  0
LINE
  5
C2A
330
A02
100
AcDbEntity
  8
Mesh_cs002
100
AcDbLine
 10
-171.139
 20
16.8499
 30
5.1
 11
-171.145
 21
16.8416
 31
5.1
  0
LINE
  5
C2B
330
A02
100
AcDbEntity
  8
Mesh_cs002
100
AcDbLine
 10
-171.145
 20
16.8416
 30
5.1
 11
-171.399
 21
16.5389
 31
5.1
  0
LINE
  5
C2C
330
A02
100
AcDbEntity
  8
Mesh_cs002
100
AcDbLine
 10
-171.399
 20
16.5389
 30
5.1
 11
-171.405
 21
16.5312
 31
5.1
  0
LINE
  5
C2D
330
A02
100
AcDbEntity
  8
Mesh_cs002
100
AcDbLine
 10
-171.405
 20
16.5312
 30
5.1
 11
-171.683
 21
16.2506
 31
5.1
  0
LINE
  5
C2E
330
A02
100
AcDbEntity
  8
Mesh_cs002
100
AcDbLine
 10
-171.683
 20
16.2506
 30
5.1
 11
-171.69
 21
16.2434
 31
5.1
  0
LINE
  5
C2F
330
A02
100
AcDbEntity
  8
Mesh_cs002
100
AcDbLine
 10
-171.69
 20
16.2434
 30
5.1
 11
-171.989
 21
15.9866
 31
5.1
  0
LINE
  5
C30
330
A02
100
AcDbEntity
  8
Mesh_cs002
100
AcDbLine
 10
-171.989
 20
15.9866
 30
5.1
 11
-171.996
 21
15.98
 31
5.1
  0
LINE
  5
C31
330
A02
100
AcDbEntity
  8
Mesh_cs002
100
AcDbLine
 10
-171.996
 20
15.98
 30
5.1
 11
-172.314
 21
15.7485
 31
5.1
  0
LINE
  5
C32
330
A02
100
AcDbEntity
  8
Mesh_cs002
100
AcDbLine
 10
-172.314
 20
15.7485
 30
5.1
 11
-172.322
 21
15.7425
 31
5.1
  0
LINE
  5
C33
330
A02
100
AcDbEntity
  8
Mesh_cs002
100
AcDbLine
 10
-172.322
 20
15.7425
 30
5.1
 11
-172.657
 21
15.5377
 31
5.1
  0
LINE
  5
C34
330
A02
100
AcDbEntity
  8
Mesh_cs002
100
AcDbLine
 10
-172.657
 20
15.5377
 30
5.1
 11
-172.666
 21
15.5325
 31
5.1
  0
LINE
  5
C35
330
A02
100
AcDbEntity
  8
Mesh_cs002
100
AcDbLine
 10
-172.666
 20
15.5325
 30
5.1
 11
-172.675
 21
15.528
 31
5.1
  0
LINE
  5
C36
330
A02
100
AcDbEntity
  8
Mesh_cs002
100
AcDbLine
 10
-172.675
 20
15.528
 30
5.1
 11
-173.064
 21
15.3331
 31
5.1
  0
LINE
  5
C37
330
A02
100
AcDbEntity
  8
Mesh_cs002
100
AcDbLine
 10
-173.064
 20
15.3331
 30
5.1
 11
-173.075
 21
15.329
 31
5.1
  0
LINE
  5
C38
330
A02
100
AcDbEntity
  8
Mesh_cs002
100
AcDbLine
 10
-173.075
 20
15.329
 30
5.1
 11
-173.479
 21
15.17
 31
5.1
  0
LINE
  5
C39
330
A02
100
AcDbEntity
  8
Mesh_cs002
100
AcDbLine
 10
-173.479
 20
15.17
 30
5.1
 11
-173.49
 21
15.1668
 31
5.1
  0
LINE
  5
C3A
330
A02
100
AcDbEntity
  8
Mesh_cs002
100
AcDbLine
 10
-173.49
 20
15.1668
 30
5.1
 11
-173.906
 21
15.0447
 31
5.1
  0
LINE
  5
C3B
330
A02
100
AcDbEntity
  8
Mesh_cs002
100
AcDbLine
 10
-173.906
 20
15.0447
 30
5.1
 11
-173.917
 21
15.0424
 31
5.1
  0
LINE
  5
C3C
330
A02
100
AcDbEntity
  8
Mesh_cs002
100
AcDbLine
 10
-173.917
 20
15.0424
 30
5.1
 11
-174.341
 21
14.9579
 31
5.1
  0
LINE
  5
C3D
330
A02
100
AcDbEntity
  8
Mesh_cs002
100
AcDbLine
 10
-174.341
 20
14.9579
 30
5.1
 11
-174.352
 21
14.9566
 31
5.1
  0
LINE
  5
C3E
330
A02
100
AcDbEntity
  8
Mesh_cs002
100
AcDbLine
 10
-174.352
 20
14.9566
 30
5.1
 11
-174.782
 21
14.9101
 31
5.1
  0
LINE
  5
C3F
330
A02
100
AcDbEntity
  8
Mesh_cs002
100
AcDbLine
 10
-174.782
 20
14.9101
 30
5.1
 11
-174.793
 21
14.9099
 31
5.1
  0
LINE
  5
C40
330
A02
100
AcDbEntity
  8
Mesh_cs002
100
AcDbLine
 10
-174.793
 20
14.9099
 30
5.1
 11
-175.224
 21
14.9015
 31
5.1
  0
LINE
  5
C41
330
A02
100
AcDbEntity
  8
Mesh_cs002
100
AcDbLine
 10
-175.224
 20
14.9015
 30
5.1
 11
-175.235
 21
14.9023
 31
5.1
  0
LINE
  5
C42
330
A02
100
AcDbEntity
  8
Mesh_cs002
100
AcDbLine
 10
-175.235
 20
14.9023
 30
5.1
 11
-175.664
 21
14.9319
 31
5.1
  0
LINE
  5
C43
330
A02
100
AcDbEntity
  8
Mesh_cs002
100
AcDbLine
 10
-175.664
 20
14.9319
 30
5.1
 11
-175.675
 21
14.9336
 31
5.1
  0
LINE
  5
C44
330
A02
100
AcDbEntity
  8
Mesh_cs002
100
AcDbLine
 10
-175.675
 20
14.9336
 30
5.1
 11
-176.099
 21
15.0009
 31
5.1
  0
LINE
  5
C45
330
A02
100
AcDbEntity
  8
Mesh_cs002
100
AcDbLine
 10
-176.099
 20
15.0009
 30
5.1
 11
-176.11
 21
15.0035
 31
5.1
  0
LINE
  5
C46
330
A02
100
AcDbEntity
  8
Mesh_cs002
100
AcDbLine
 10
-176.11
 20
15.0035
 30
5.1
 11
-176.525
 21
15.1075
 31
5.1
  0
LINE
  5
C47
330
A02
100
AcDbEntity
  8
Mesh_cs002
100
AcDbLine
 10
-176.525
 20
15.1075
 30
5.1
 11
-176.536
 21
15.1111
 31
5.1
  0
LINE
  5
C48
330
A02
100
AcDbEntity
  8
Mesh_cs002
100
AcDbLine
 10
-176.536
 20
15.1111
 30
5.1
 11
-176.94
 21
15.2508
 31
5.1
  0
LINE
  5
C49
330
A02
100
AcDbEntity
  8
Mesh_cs002
100
AcDbLine
 10
-176.94
 20
15.2508
 30
5.1
 11
-176.95
 21
15.2552
 31
5.1
  0
LINE
  5
C4A
330
A02
100
AcDbEntity
  8
Mesh_cs002
100
AcDbLine
 10
-176.95
 20
15.2552
 30
5.1
 11
-177.339
 21
15.4293
 31
5.1
  0
LINE
  5
C4B
330
A02
100
AcDbEntity
  8
Mesh_cs002
100
AcDbLine
 10
-177.339
 20
15.4293
 30
5.1
 11
-177.349
 21
15.4346
 31
5.1
  0
LINE
  5
C4C
330
A02
100
AcDbEntity
  8
Mesh_cs002
100
AcDbLine
 10
-177.349
 20
15.4346
 30
5.1
 11
-177.722
 21
15.6427
 31
5.1
  0
LINE
  5
C4D
330
A02
100
AcDbEntity
  8
Mesh_cs002
100
AcDbLine
 10
-177.722
 20
15.6427
 30
5.1
 11
-178.055
 21
15.867
 31
5.1
  0
LINE
  5
C4E
330
A02
100
AcDbEntity
  8
Mesh_cs002
100
AcDbLine
 10
-178.055
 20
15.867
 30
5.1
 11
-178.064
 21
15.8731
 31
5.1
  0
LINE
  5
C4F
330
A02
100
AcDbEntity
  8
Mesh_cs002
100
AcDbLine
 10
-178.064
 20
15.8731
 30
5.1
 11
-178.376
 21
16.1233
 31
5.1
  0
LINE
  5
C50
330
A02
100
AcDbEntity
  8
Mesh_cs002
100
AcDbLine
 10
-178.376
 20
16.1233
 30
5.1
 11
-178.385
 21
16.1302
 31
5.1
  0
LINE
  5
C51
330
A02
100
AcDbEntity
  8
Mesh_cs002
100
AcDbLine
 10
-178.385
 20
16.1302
 30
5.1
 11
-178.675
 21
16.4046
 31
5.1
  0
LINE
  5
C52
330
A02
100
AcDbEntity
  8
Mesh_cs002
100
AcDbLine
 10
-178.675
 20
16.4046
 30
5.1
 11
-178.683
 21
16.4122
 31
5.1
  0
LINE
  5
C53
330
A02
100
AcDbEntity
  8
Mesh_cs002
100
AcDbLine
 10
-178.683
 20
16.4122
 30
5.1
 11
-178.949
 21
16.7089
 31
5.1
  0
LINE
  5
C54
330
A02
100
AcDbEntity
  8
Mesh_cs002
100
AcDbLine
 10
-178.949
 20
16.7089
 30
5.1
 11
-178.956
 21
16.7167
 31
5.1
  0
LINE
  5
C55
330
A02
100
AcDbEntity
  8
Mesh_cs002
100
AcDbLine
 10
-178.956
 20
16.7167
 30
5.1
 11
-179.196
 21
17.0335
 31
5.1
  0
LINE
  5
C56
330
A02
100
AcDbEntity
  8
Mesh_cs002
100
AcDbLine
 10
-179.196
 20
17.0335
 30
5.1
 11
-179.202
 21
17.0417
 31
5.1
  0
LINE
  5
C57
330
A02
100
AcDbEntity
  8
Mesh_cs002
100
AcDbLine
 10
-179.202
 20
17.0417
 30
5.1
 11
-179.416
 21
17.3765
 31
5.1
  0
LINE
  5
C58
330
A02
100
AcDbEntity
  8
Mesh_cs002
100
AcDbLine
 10
-179.416
 20
17.3765
 30
5.1
 11
-179.422
 21
17.3852
 31
5.1
  0
LINE
  5
C59
330
A02
100
AcDbEntity
  8
Mesh_cs002
100
AcDbLine
 10
-179.422
 20
17.3852
 30
5.1
 11
-179.607
 21
17.7356
 31
5.1
  0
LINE
  5
C5A
330
A02
100
AcDbEntity
  8
Mesh_cs002
100
AcDbLine
 10
-179.607
 20
17.7356
 30
5.1
 11
-179.612
 21
17.7447
 31
5.1
  0
LINE
  5
C5B
330
A02
100
AcDbEntity
  8
Mesh_cs002
100
AcDbLine
 10
-179.612
 20
17.7447
 30
5.1
 11
-179.768
 21
18.1084
 31
5.1
  0
LINE
  5
C5C
330
A02
100
AcDbEntity
  8
Mesh_cs002
100
AcDbLine
 10
-179.768
 20
18.1084
 30
5.1
 11
-179.772
 21
18.1179
 31
5.1
  0
LINE
  5
C5D
330
A02
100
AcDbEntity
  8
Mesh_cs002
100
AcDbLine
 10
-179.772
 20
18.1179
 30
5.1
 11
-179.897
 21
18.4923
 31
5.1
  0
LINE
  5
C5E
330
A02
100
AcDbEntity
  8
Mesh_cs002
100
AcDbLine
 10
-179.897
 20
18.4923
 30
5.1
 11
-179.901
 21
18.502
 31
5.1
  0
LINE
  5
C5F
330
A02
100
AcDbEntity
  8
Mesh_cs002
100
AcDbLine
 10
-179.901
 20
18.502
 30
5.1
 11
-179.996
 21
18.8848
 31
5.1
  0
LINE
  5
C60
330
A02
100
AcDbEntity
  8
Mesh_cs002
100
AcDbLine
 10
-179.996
 20
18.8848
 30
5.1
 11
-179.998
 21
18.8947
 31
5.1
  0
LINE
  5
C61
330
A02
100
AcDbEntity
  8
Mesh_cs002
100
AcDbLine
 10
-179.998
 20
18.8947
 30
5.1
 11
-180.062
 21
19.2833
 31
5.1
  0
LINE
  5
C62
330
A02
100
AcDbEntity
  8
Mesh_cs002
100
AcDbLine
 10
-180.062
 20
19.2833
 30
5.1
 11
-180.063
 21
19.2933
 31
5.1
  0
LINE
  5
C63
330
A02
100
AcDbEntity
  8
Mesh_cs002
100
AcDbLine
 10
-180.063
 20
19.2933
 30
5.1
 11
-180.095
 21
19.6851
 31
5.1
  0
LINE
  5
C64
330
A02
100
AcDbEntity
  8
Mesh_cs002
100
AcDbLine
 10
-180.095
 20
19.6851
 30
5.1
 11
-180.096
 21
19.6952
 31
5.1
  0
LINE
  5
C65
330
A02
100
AcDbEntity
  8
Mesh_cs002
100
AcDbLine
 10
-180.096
 20
19.6952
 30
5.1
 11
-180.096
 21
20.0877
 31
5.1
  0
LINE
  5
C66
330
A02
100
AcDbEntity
  8
Mesh_cs002
100
AcDbLine
 10
-14.9037
 20
20.0877
 30
5.1
 11
-14.9039
 21
20.0978
 31
5.1
  0
LINE
  5
C67
330
A02
100
AcDbEntity
  8
Mesh_cs002
100
AcDbLine
 10
-14.9039
 20
20.0978
 30
5.1
 11
-14.9403
 21
20.5315
 31
5.1
  0
LINE
  5
C68
330
A02
100
AcDbEntity
  8
Mesh_cs002
100
AcDbLine
 10
-14.9403
 20
20.5315
 30
5.1
 11
-14.9413
 21
20.5416
 31
5.1
  0
LINE
  5
C69
330
A02
100
AcDbEntity
  8
Mesh_cs002
100
AcDbLine
 10
-14.9413
 20
20.5416
 30
5.1
 11
-15.0161
 21
20.9694
 31
5.1
  0
LINE
  5
C6A
330
A02
100
AcDbEntity
  8
Mesh_cs002
100
AcDbLine
 10
-15.0161
 20
20.9694
 30
5.1
 11
-15.0179
 21
20.9794
 31
5.1
  0
LINE
  5
C6B
330
A02
100
AcDbEntity
  8
Mesh_cs002
100
AcDbLine
 10
-15.0179
 20
20.9794
 30
5.1
 11
-15.0205
 21
20.9891
 31
5.1
  0
LINE
  5
C6C
330
A02
100
AcDbEntity
  8
Mesh_cs002
100
AcDbLine
 10
-15.0205
 20
20.9891
 30
5.1
 11
-15.1328
 21
21.4078
 31
5.1
  0
LINE
  5
C6D
330
A02
100
AcDbEntity
  8
Mesh_cs002
100
AcDbLine
 10
-15.1328
 20
21.4078
 30
5.1
 11
-15.1362
 21
21.4173
 31
5.1
  0
LINE
  5
C6E
330
A02
100
AcDbEntity
  8
Mesh_cs002
100
AcDbLine
 10
-15.1362
 20
21.4173
 30
5.1
 11
-15.2848
 21
21.8236
 31
5.1
  0
LINE
  5
C6F
330
A02
100
AcDbEntity
  8
Mesh_cs002
100
AcDbLine
 10
-15.2848
 20
21.8236
 30
5.1
 11
-15.2895
 21
21.8337
 31
5.1
  0
LINE
  5
C70
330
A02
100
AcDbEntity
  8
Mesh_cs002
100
AcDbLine
 10
-15.2895
 20
21.8337
 30
5.1
 11
-15.4732
 21
22.2245
 31
5.1
  0
LINE
  5
C71
330
A02
100
AcDbEntity
  8
Mesh_cs002
100
AcDbLine
 10
-15.4732
 20
22.2245
 30
5.1
 11
-15.4787
 21
22.2342
 31
5.1
  0
LINE
  5
C72
330
A02
100
AcDbEntity
  8
Mesh_cs002
100
AcDbLine
 10
-15.4787
 20
22.2342
 30
5.1
 11
-15.6957
 21
22.6063
 31
5.1
  0
LINE
  5
C73
330
A02
100
AcDbEntity
  8
Mesh_cs002
100
AcDbLine
 10
-15.6957
 20
22.6063
 30
5.1
 11
-15.7021
 21
22.6155
 31
5.1
  0
LINE
  5
C74
330
A02
100
AcDbEntity
  8
Mesh_cs002
100
AcDbLine
 10
-15.7021
 20
22.6155
 30
5.1
 11
-15.9506
 21
22.9663
 31
5.1
  0
LINE
  5
C75
330
A02
100
AcDbEntity
  8
Mesh_cs002
100
AcDbLine
 10
-15.9506
 20
22.9663
 30
5.1
 11
-15.9577
 21
22.9748
 31
5.1
  0
LINE
  5
C76
330
A02
100
AcDbEntity
  8
Mesh_cs002
100
AcDbLine
 10
-15.9577
 20
22.9748
 30
5.1
 11
-16.2356
 21
23.3018
 31
5.1
  0
LINE
  5
C77
330
A02
100
AcDbEntity
  8
Mesh_cs002
100
AcDbLine
 10
-16.2356
 20
23.3018
 30
5.1
 11
-16.2434
 21
23.3096
 31
5.1
  0
LINE
  5
C78
330
A02
100
AcDbEntity
  8
Mesh_cs002
100
AcDbLine
 10
-16.2434
 20
23.3096
 30
5.1
 11
-16.5482
 21
23.6102
 31
5.1
  0
LINE
  5
C79
330
A02
100
AcDbEntity
  8
Mesh_cs002
100
AcDbLine
 10
-16.5482
 20
23.6102
 30
5.1
 11
-16.5567
 21
23.6173
 31
5.1
  0
LINE
  5
C7A
330
A02
100
AcDbEntity
  8
Mesh_cs002
100
AcDbLine
 10
-16.5567
 20
23.6173
 30
5.1
 11
-16.8859
 21
23.8894
 31
5.1
  0
LINE
  5
C7B
330
A02
100
AcDbEntity
  8
Mesh_cs002
100
AcDbLine
 10
-16.8859
 20
23.8894
 30
5.1
 11
-16.895
 21
23.8957
 31
5.1
  0
LINE
  5
C7C
330
A02
100
AcDbEntity
  8
Mesh_cs002
100
AcDbLine
 10
-16.895
 20
23.8957
 30
5.1
 11
-17.2459
 21
24.1374
 31
5.1
  0
LINE
  5
C7D
330
A02
100
AcDbEntity
  8
Mesh_cs002
100
AcDbLine
 10
-17.2459
 20
24.1374
 30
5.1
 11
-17.2555
 21
24.1429
 31
5.1
  0
LINE
  5
C7E
330
A02
100
AcDbEntity
  8
Mesh_cs002
100
AcDbLine
 10
-17.2555
 20
24.1429
 30
5.1
 11
-17.6321
 21
24.3561
 31
5.1
  0
LINE
  5
C7F
330
A02
100
AcDbEntity
  8
Mesh_cs002
100
AcDbLine
 10
-17.6321
 20
24.3561
 30
5.1
 11
-17.6421
 21
24.3607
 31
5.1
  0
LINE
  5
C80
330
A02
100
AcDbEntity
  8
Mesh_cs002
100
AcDbLine
 10
-17.6421
 20
24.3607
 30
5.1
 11
-18.0065
 21
24.5276
 31
5.1
  0
LINE
  5
C81
330
A02
100
AcDbEntity
  8
Mesh_cs002
100
AcDbLine
 10
-18.0065
 20
24.5276
 30
5.1
 11
-18.3826
 21
24.6637
 31
5.1
  0
LINE
  5
C82
330
A02
100
AcDbEntity
  8
Mesh_cs002
100
AcDbLine
 10
-18.3826
 20
24.6637
 30
5.1
 11
-18.3929
 21
24.6675
 31
5.1
  0
LINE
  5
C83
330
A02
100
AcDbEntity
  8
Mesh_cs002
100
AcDbLine
 10
-18.3929
 20
24.6675
 30
5.1
 11
-18.7781
 21
24.7721
 31
5.1
  0
LINE
  5
C84
330
A02
100
AcDbEntity
  8
Mesh_cs002
100
AcDbLine
 10
-18.7781
 20
24.7721
 30
5.1
 11
-18.7887
 21
24.7749
 31
5.1
  0
LINE
  5
C85
330
A02
100
AcDbEntity
  8
Mesh_cs002
100
AcDbLine
 10
-18.7887
 20
24.7749
 30
5.1
 11
-19.1804
 21
24.8476
 31
5.1
  0
LINE
  5
C86
330
A02
100
AcDbEntity
  8
Mesh_cs002
100
AcDbLine
 10
-19.1804
 20
24.8476
 30
5.1
 11
-19.1912
 21
24.8495
 31
5.1
  0
LINE
  5
C87
330
A02
100
AcDbEntity
  8
Mesh_cs002
100
AcDbLine
 10
-19.1912
 20
24.8495
 30
5.1
 11
-19.5868
 21
24.8899
 31
5.1
  0
LINE
  5
C88
330
A02
100
AcDbEntity
  8
Mesh_cs002
100
AcDbLine
 10
-19.5868
 20
24.8899
 30
5.1
 11
-19.5948
 21
24.8907
 31
5.1
  0
LINE
  5
C89
330
A02
100
AcDbEntity
  8
Mesh_cs002
100
AcDbLine
 10
-19.5948
 20
24.8907
 30
5.1
 11
-19.6026
 21
24.8909
 31
5.1
  0
LINE
  5
C8A
330
A02
100
AcDbEntity
  8
Mesh_cs002
100
AcDbLine
 10
-19.6026
 20
24.8909
 30
5.1
 11
-19.9995
 21
24.899
 31
5.1
  0
LINE
  5
C8B
330
A02
100
AcDbEntity
  8
Mesh_cs002
100
AcDbLine
 10
-19.9995
 20
24.899
 30
5.1
 11
-20.0078
 21
24.8987
 31
5.1
  0
LINE
  5
C8C
330
A02
100
AcDbEntity
  8
Mesh_cs002
100
AcDbLine
 10
-20.0078
 20
24.8987
 30
5.1
 11
-20.4033
 21
24.8745
 31
5.1
  0
LINE
  5
C8D
330
A02
100
AcDbEntity
  8
Mesh_cs002
100
AcDbLine
 10
-20.4033
 20
24.8745
 30
5.1
 11
-20.4118
 21
24.8737
 31
5.1
  0
LINE
  5
C8E
330
A02
100
AcDbEntity
  8
Mesh_cs002
100
AcDbLine
 10
-20.4118
 20
24.8737
 30
5.1
 11
-20.8033
 21
24.8176
 31
5.1
  0
LINE
  5
C8F
330
A02
100
AcDbEntity
  8
Mesh_cs002
100
AcDbLine
 10
-20.8033
 20
24.8176
 30
5.1
 11
-20.8141
 21
24.8156
 31
5.1
  0
LINE
  5
C90
330
A02
100
AcDbEntity
  8
Mesh_cs002
100
AcDbLine
 10
-20.8141
 20
24.8156
 30
5.1
 11
-21.1992
 21
24.7282
 31
5.1
  0
LINE
  5
C91
330
A02
100
AcDbEntity
  8
Mesh_cs002
100
AcDbLine
 10
-21.1992
 20
24.7282
 30
5.1
 11
-21.2098
 21
24.7252
 31
5.1
  0
LINE
  5
C92
330
A02
100
AcDbEntity
  8
Mesh_cs002
100
AcDbLine
 10
-21.2098
 20
24.7252
 30
5.1
 11
-21.5859
 21
24.6071
 31
5.1
  0
LINE
  5
C93
330
A02
100
AcDbEntity
  8
Mesh_cs002
100
AcDbLine
 10
-21.5859
 20
24.6071
 30
5.1
 11
-21.5963
 21
24.6033
 31
5.1
  0
LINE
  5
C94
330
A02
100
AcDbEntity
  8
Mesh_cs002
100
AcDbLine
 10
-21.5963
 20
24.6033
 30
5.1
 11
-21.961
 21
24.4554
 31
5.1
  0
LINE
  5
C95
330
A02
100
AcDbEntity
  8
Mesh_cs002
100
AcDbLine
 10
-21.961
 20
24.4554
 30
5.1
 11
-21.971
 21
24.4507
 31
5.1
  0
LINE
  5
C96
330
A02
100
AcDbEntity
  8
Mesh_cs002
100
AcDbLine
 10
-21.971
 20
24.4507
 30
5.1
 11
-22.322
 21
24.2742
 31
5.1
  0
LINE
  5
C97
330
A02
100
AcDbEntity
  8
Mesh_cs002
100
AcDbLine
 10
-22.322
 20
24.2742
 30
5.1
 11
-22.3316
 21
24.2685
 31
5.1
  0
LINE
  5
C98
330
A02
100
AcDbEntity
  8
Mesh_cs002
100
AcDbLine
 10
-22.3316
 20
24.2685
 30
5.1
 11
-22.7029
 21
24.0405
 31
5.1
  0
LINE
  5
C99
330
A02
100
AcDbEntity
  8
Mesh_cs002
100
AcDbLine
 10
-22.7029
 20
24.0405
 30
5.1
 11
-22.712
 21
24.034
 31
5.1
  0
LINE
  5
C9A
330
A02
100
AcDbEntity
  8
Mesh_cs002
100
AcDbLine
 10
-22.712
 20
24.034
 30
5.1
 11
-23.0608
 21
23.7742
 31
5.1
  0
LINE
  5
C9B
330
A02
100
AcDbEntity
  8
Mesh_cs002
100
AcDbLine
 10
-23.0608
 20
23.7742
 30
5.1
 11
-23.0692
 21
23.7669
 31
5.1
  0
LINE
  5
C9C
330
A02
100
AcDbEntity
  8
Mesh_cs002
100
AcDbLine
 10
-23.0692
 20
23.7669
 30
5.1
 11
-23.3928
 21
23.4777
 31
5.1
  0
LINE
  5
C9D
330
A02
100
AcDbEntity
  8
Mesh_cs002
100
AcDbLine
 10
-23.3928
 20
23.4777
 30
5.1
 11
-23.3999
 21
23.4705
 31
5.1
  0
LINE
  5
C9E
330
A02
100
AcDbEntity
  8
Mesh_cs002
100
AcDbLine
 10
-23.3999
 20
23.4705
 30
5.1
 11
-23.6959
 21
23.1543
 31
5.1
  0
LINE
  5
C9F
330
A02
100
AcDbEntity
  8
Mesh_cs002
100
AcDbLine
 10
-23.6959
 20
23.1543
 30
5.1
 11
-23.7024
 21
23.1465
 31
5.1
  0
LINE
  5
CA0
330
A02
100
AcDbEntity
  8
Mesh_cs002
100
AcDbLine
 10
-23.7024
 20
23.1465
 30
5.1
 11
-23.9687
 21
22.806
 31
5.1
  0
LINE
  5
CA1
330
A02
100
AcDbEntity
  8
Mesh_cs002
100
AcDbLine
 10
-23.9687
 20
22.806
 30
5.1
 11
-23.9745
 21
22.7978
 31
5.1
  0
LINE
  5
CA2
330
A02
100
AcDbEntity
  8
Mesh_cs002
100
AcDbLine
 10
-23.9745
 20
22.7978
 30
5.1
 11
-24.2092
 21
22.4358
 31
5.1
  0
LINE
  5
CA3
330
A02
100
AcDbEntity
  8
Mesh_cs002
100
AcDbLine
 10
-24.2092
 20
22.4358
 30
5.1
 11
-24.2143
 21
22.427
 31
5.1
  0
LINE
  5
CA4
330
A02
100
AcDbEntity
  8
Mesh_cs002
100
AcDbLine
 10
-24.2143
 20
22.427
 30
5.1
 11
-24.4156
 21
22.0465
 31
5.1
  0
LINE
  5
CA5
330
A02
100
AcDbEntity
  8
Mesh_cs002
100
AcDbLine
 10
-24.4156
 20
22.0465
 30
5.1
 11
-24.4201
 21
22.0374
 31
5.1
  0
LINE
  5
CA6
330
A02
100
AcDbEntity
  8
Mesh_cs002
100
AcDbLine
 10
-24.4201
 20
22.0374
 30
5.1
 11
-24.5867
 21
21.6414
 31
5.1
  0
LINE
  5
CA7
330
A02
100
AcDbEntity
  8
Mesh_cs002
100
AcDbLine
 10
-24.5867
 20
21.6414
 30
5.1
 11
-24.5904
 21
21.632
 31
5.1
  0
LINE
  5
CA8
330
A02
100
AcDbEntity
  8
Mesh_cs002
100
AcDbLine
 10
-24.5904
 20
21.632
 30
5.1
 11
-24.7213
 21
21.2237
 31
5.1
  0
LINE
  5
CA9
330
A02
100
AcDbEntity
  8
Mesh_cs002
100
AcDbLine
 10
-24.7213
 20
21.2237
 30
5.1
 11
-24.7242
 21
21.214
 31
5.1
  0
LINE
  5
CAA
330
A02
100
AcDbEntity
  8
Mesh_cs002
100
AcDbLine
 10
-24.7242
 20
21.214
 30
5.1
 11
-24.8186
 21
20.7968
 31
5.1
  0
LINE
  5
CAB
330
A02
100
AcDbEntity
  8
Mesh_cs002
100
AcDbLine
 10
-24.8186
 20
20.7968
 30
5.1
 11
-24.8207
 21
20.7868
 31
5.1
  0
LINE
  5
CAC
330
A02
100
AcDbEntity
  8
Mesh_cs002
100
AcDbLine
 10
-24.8207
 20
20.7868
 30
5.1
 11
-24.8781
 21
20.3639
 31
5.1
  0
LINE
  5
CAD
330
A02
100
AcDbEntity
  8
Mesh_cs002
100
AcDbLine
 10
-24.8781
 20
20.3639
 30
5.1
 11
-24.8794
 21
20.3535
 31
5.1
  0
LINE
  5
CAE
330
A02
100
AcDbEntity
  8
Mesh_cs002
100
AcDbLine
 10
-24.8794
 20
20.3535
 30
5.1
 11
-24.8947
 21
20.1293
 31
5.1
  0
LINE
  5
CAF
330
A02
100
AcDbEntity
  8
Mesh_cs002
100
AcDbLine
 10
-24.8947
 20
20.1293
 30
5.1
 11
-24.8951
 21
20.1191
 31
5.1
  0
LINE
  5
CB0
330
A02
100
AcDbEntity
  8
Mesh_cs002
100
AcDbLine
 10
-24.8951
 20
20.1191
 30
5.1
 11
-24.9
 21
19.9
 31
5.1
  0
LINE
  5
CB1
330
A02
100
AcDbEntity
  8
Mesh_cs002
100
AcDbLine
 10
-24.9
 20
19.9
 30
5.1
 11
-24.8835
 21
19.4989
 31
5.1
  0
LINE
  5
CB2
330
A02
100
AcDbEntity
  8
Mesh_cs002
100
AcDbLine
 10
-24.8835
 20
19.4989
 30
5.1
 11
-24.883
 21
19.4886
 31
5.1
  0
LINE
  5
CB3
330
A02
100
AcDbEntity
  8
Mesh_cs002
100
AcDbLine
 10
-24.883
 20
19.4886
 30
5.1
 11
-24.8306
 21
19.0724
 31
5.1
  0
LINE
  5
CB4
330
A02
100
AcDbEntity
  8
Mesh_cs002
100
AcDbLine
 10
-24.8306
 20
19.0724
 30
5.1
 11
-24.8292
 21
19.0616
 31
5.1
  0
LINE
  5
CB5
330
A02
100
AcDbEntity
  8
Mesh_cs002
100
AcDbLine
 10
-24.8292
 20
19.0616
 30
5.1
 11
-24.7461
 21
18.6707
 31
5.1
  0
LINE
  5
CB6
330
A02
100
AcDbEntity
  8
Mesh_cs002
100
AcDbLine
 10
-24.7461
 20
18.6707
 30
5.1
 11
-24.744
 21
18.6606
 31
5.1
  0
LINE
  5
CB7
330
A02
100
AcDbEntity
  8
Mesh_cs002
100
AcDbLine
 10
-24.744
 20
18.6606
 30
5.1
 11
-24.6294
 21
18.2786
 31
5.1
  0
LINE
  5
CB8
330
A02
100
AcDbEntity
  8
Mesh_cs002
100
AcDbLine
 10
-24.6294
 20
18.2786
 30
5.1
 11
-24.6264
 21
18.2687
 31
5.1
  0
LINE
  5
CB9
330
A02
100
AcDbEntity
  8
Mesh_cs002
100
AcDbLine
 10
-24.6264
 20
18.2687
 30
5.1
 11
-24.4813
 21
17.898
 31
5.1
  0
LINE
  5
CBA
330
A02
100
AcDbEntity
  8
Mesh_cs002
100
AcDbLine
 10
-24.4813
 20
17.898
 30
5.1
 11
-24.4775
 21
17.8885
 31
5.1
  0
LINE
  5
CBB
330
A02
100
AcDbEntity
  8
Mesh_cs002
100
AcDbLine
 10
-24.4775
 20
17.8885
 30
5.1
 11
-24.303
 21
17.5316
 31
5.1
  0
LINE
  5
CBC
330
A02
100
AcDbEntity
  8
Mesh_cs002
100
AcDbLine
 10
-24.303
 20
17.5316
 30
5.1
 11
-24.2985
 21
17.5224
 31
5.1
  0
LINE
  5
CBD
330
A02
100
AcDbEntity
  8
Mesh_cs002
100
AcDbLine
 10
-24.2985
 20
17.5224
 30
5.1
 11
-24.0959
 21
17.1814
 31
5.1
  0
LINE
  5
CBE
330
A02
100
AcDbEntity
  8
Mesh_cs002
100
AcDbLine
 10
-24.0959
 20
17.1814
 30
5.1
 11
-24.0907
 21
17.1727
 31
5.1
  0
LINE
  5
CBF
330
A02
100
AcDbEntity
  8
Mesh_cs002
100
AcDbLine
 10
-24.0907
 20
17.1727
 30
5.1
 11
-23.8614
 21
16.8499
 31
5.1
  0
LINE
  5
CC0
330
A02
100
AcDbEntity
  8
Mesh_cs002
100
AcDbLine
 10
-23.8614
 20
16.8499
 30
5.1
 11
-23.8555
 21
16.8416
 31
5.1
  0
LINE
  5
CC1
330
A02
100
AcDbEntity
  8
Mesh_cs002
100
AcDbLine
 10
-23.8555
 20
16.8416
 30
5.1
 11
-23.6013
 21
16.5389
 31
5.1
  0
LINE
  5
CC2
330
A02
100
AcDbEntity
  8
Mesh_cs002
100
AcDbLine
 10
-23.6013
 20
16.5389
 30
5.1
 11
-23.5947
 21
16.5312
 31
5.1
  0
LINE
  5
CC3
330
A02
100
AcDbEntity
  8
Mesh_cs002
100
AcDbLine
 10
-23.5947
 20
16.5312
 30
5.1
 11
-23.3173
 21
16.2506
 31
5.1
  0
LINE
  5
CC4
330
A02
100
AcDbEntity
  8
Mesh_cs002
100
AcDbLine
 10
-23.3173
 20
16.2506
 30
5.1
 11
-23.0115
 21
15.9866
 31
5.1
  0
LINE
  5
CC5
330
A02
100
AcDbEntity
  8
Mesh_cs002
100
AcDbLine
 10
-23.0115
 20
15.9866
 30
5.1
 11
-22.6859
 21
15.7485
 31
5.1
  0
LINE
  5
CC6
330
A02
100
AcDbEntity
  8
Mesh_cs002
100
AcDbLine
 10
-22.6859
 20
15.7485
 30
5.1
 11
-22.6777
 21
15.7425
 31
5.1
  0
LINE
  5
CC7
330
A02
100
AcDbEntity
  8
Mesh_cs002
100
AcDbLine
 10
-22.6777
 20
15.7425
 30
5.1
 11
-22.3427
 21
15.5377
 31
5.1
  0
LINE
  5
CC8
330
A02
100
AcDbEntity
  8
Mesh_cs002
100
AcDbLine
 10
-22.3427
 20
15.5377
 30
5.1
 11
-22.3251
 21
15.528
 31
5.1
  0
LINE
  5
CC9
330
A02
100
AcDbEntity
  8
Mesh_cs002
100
AcDbLine
 10
-22.3251
 20
15.528
 30
5.1
 11
-21.9356
 21
15.3331
 31
5.1
  0
LINE
  5
CCA
330
A02
100
AcDbEntity
  8
Mesh_cs002
100
AcDbLine
 10
-21.9356
 20
15.3331
 30
5.1
 11
-21.5208
 21
15.17
 31
5.1
  0
LINE
  5
CCB
330
A02
100
AcDbEntity
  8
Mesh_cs002
100
AcDbLine
 10
-21.5208
 20
15.17
 30
5.1
 11
-21.094
 21
15.0447
 31
5.1
  0
LINE
  5
CCC
330
A02
100
AcDbEntity
  8
Mesh_cs002
100
AcDbLine
 10
-21.094
 20
15.0447
 30
5.1
 11
-20.6585
 21
14.9579
 31
5.1
  0
LINE
  5
CCD
330
A02
100
AcDbEntity
  8
Mesh_cs002
100
AcDbLine
 10
-20.6585
 20
14.9579
 30
5.1
 11
-20.218
 21
14.9101
 31
5.1
  0
LINE
  5
CCE
330
A02
100
AcDbEntity
  8
Mesh_cs002
100
AcDbLine
 10
-20.218
 20
14.9101
 30
5.1
 11
-19.7759
 21
14.9015
 31
5.1
  0
LINE
  5
CCF
330
A02
100
AcDbEntity
  8
Mesh_cs002
100
AcDbLine
 10
-19.7759
 20
14.9015
 30
5.1
 11
-19.3357
 21
14.9319
 31
5.1
  0
LINE
  5
CD0
330
A02
100
AcDbEntity
  8
Mesh_cs002
100
AcDbLine
 10
-19.3357
 20
14.9319
 30
5.1
 11
-18.9008
 21
15.0009
 31
5.1
  0
LINE
  5
CD1
330
A02
100
AcDbEntity
  8
Mesh_cs002
100
AcDbLine
 10
-18.9008
 20
15.0009
 30
5.1
 11
-18.4746
 21
15.1075
 31
5.1
  0
LINE
  5
CD2
330
A02
100
AcDbEntity
  8
Mesh_cs002
100
AcDbLine
 10
-18.4746
 20
15.1075
 30
5.1
 11
-18.0603
 21
15.2508
 31
5.1
  0
LINE
  5
CD3
330
A02
100
AcDbEntity
  8
Mesh_cs002
100
AcDbLine
 10
-18.0603
 20
15.2508
 30
5.1
 11
-17.661
 21
15.4293
 31
5.1
  0
LINE
  5
CD4
330
A02
100
AcDbEntity
  8
Mesh_cs002
100
AcDbLine
 10
-17.661
 20
15.4293
 30
5.1
 11
-17.2779
 21
15.6427
 31
5.1
  0
LINE
  5
CD5
330
A02
100
AcDbEntity
  8
Mesh_cs002
100
AcDbLine
 10
-17.2779
 20
15.6427
 30
5.1
 11
-16.9453
 21
15.867
 31
5.1
  0
LINE
  5
CD6
330
A02
100
AcDbEntity
  8
Mesh_cs002
100
AcDbLine
 10
-16.9453
 20
15.867
 30
5.1
 11
-16.6239
 21
16.1233
 31
5.1
  0
LINE
  5
CD7
330
A02
100
AcDbEntity
  8
Mesh_cs002
100
AcDbLine
 10
-16.6239
 20
16.1233
 30
5.1
 11
-16.3252
 21
16.4046
 31
5.1
  0
LINE
  5
CD8
330
A02
100
AcDbEntity
  8
Mesh_cs002
100
AcDbLine
 10
-16.3252
 20
16.4046
 30
5.1
 11
-16.0511
 21
16.7089
 31
5.1
  0
LINE
  5
CD9
330
A02
100
AcDbEntity
  8
Mesh_cs002
100
AcDbLine
 10
-16.0511
 20
16.7089
 30
5.1
 11
-15.8036
 21
17.0335
 31
5.1
  0
LINE
  5
CDA
330
A02
100
AcDbEntity
  8
Mesh_cs002
100
AcDbLine
 10
-15.8036
 20
17.0335
 30
5.1
 11
-15.5838
 21
17.3765
 31
5.1
  0
LINE
  5
CDB
330
A02
100
AcDbEntity
  8
Mesh_cs002
100
AcDbLine
 10
-15.5838
 20
17.3765
 30
5.1
 11
-15.393
 21
17.7356
 31
5.1
  0
LINE
  5
CDC
330
A02
100
AcDbEntity
  8
Mesh_cs002
100
AcDbLine
 10
-15.393
 20
17.7356
 30
5.1
 11
-15.3884
 21
17.7447
 31
5.1
  0
LINE
  5
CDD
330
A02
100
AcDbEntity
  8
Mesh_cs002
100
AcDbLine
 10
-15.3884
 20
17.7447
 30
5.1
 11
-15.2323
 21
18.1084
 31
5.1
  0
LINE
  5
CDE
330
A02
100
AcDbEntity
  8
Mesh_cs002
100
AcDbLine
 10
-15.2323
 20
18.1084
 30
5.1
 11
-15.2284
 21
18.1179
 31
5.1
  0
LINE
  5
CDF
330
A02
100
AcDbEntity
  8
Mesh_cs002
100
AcDbLine
 10
-15.2284
 20
18.1179
 30
5.1
 11
-15.1025
 21
18.4923
 31
5.1
  0
LINE
  5
CE0
330
A02
100
AcDbEntity
  8
Mesh_cs002
100
AcDbLine
 10
-15.1025
 20
18.4923
 30
5.1
 11
-15.0044
 21
18.8848
 31
5.1
  0
LINE
  5
CE1
330
A02
100
AcDbEntity
  8
Mesh_cs002
100
AcDbLine
 10
-15.0044
 20
18.8848
 30
5.1
 11
-14.9384
 21
19.2833
 31
5.1
  0
LINE
  5
CE2
330
A02
100
AcDbEntity
  8
Mesh_cs002
100
AcDbLine
 10
-14.9384
 20
19.2833
 30
5.1
 11
-14.937
 21
19.2933
 31
5.1
  0
LINE
  5
CE3
330
A02
100
AcDbEntity
  8
Mesh_cs002
100
AcDbLine
 10
-14.937
 20
19.2933
 30
5.1
 11
-14.9049
 21
19.6851
 31
5.1
  0
LINE
  5
CE4
330
A02
100
AcDbEntity
  8
Mesh_cs002
100
AcDbLine
 10
-14.9049
 20
19.6851
 30
5.1
 11
-14.9037
 21
20.0877
 31
5.1
  0
ENDSEC
  0
SECTION
  2
OBJECTS
  0
DICTIONARY
  5
F000
330
0
100
AcDbDictionary
  3
ACAD_GROUP
350
F001
  0
DICTIONARY
  5
F001
330
F000
100
AcDbDictionary
  0
ENDSEC
  0
EOF