999
FreeCAD v0.21 33771 (Git)
  0
SECTION
  2
HEADER
  9
$ACADVER
  1
AC1014
  9
$ACADMAINTVER
 70
     9
  9
$DWGCODEPAGE
  3
ANSI_1252
  9
$TEXTSTYLE
  7
STANDARD
  9
$DIMSTYLE
  2
STANDARD
  9
$DIMTXSTY
  7
STANDARD
  9
$CMLSTYLE
  2
STANDARD
  9
$LUNITS
 70
2
  9
$INSUNITS
 70
4
  9
$PEXTMAX
 10
50
 20
50
 30
50
  9
$PEXTMIN
 10
0
 20
0
 30
0
  9
$HANDSEED
  5
FFFF
  0
ENDSEC
  0
SECTION
  2
CLASSES
  0
CLASS
  1
ACDBDICTIONARYWDFLT
  2
AcDbDictionaryWithDefault
  3
ObjectDBX Classes
 90
        0
280
     0
281
     0
  0
CLASS
  1
XRECORD
  2
AcDbXrecord
  3
ObjectDBX Classes
 90
        0
280
     0
281
     0
  0
CLASS
  1
LWPOLYLINE
  2
AcDbPolyline
  3
ObjectDBX Classes
 90
        0
280
     0
281
     1
  0
ENDSEC
  0
SECTION
  2
TABLES
  0
TABLE
  2
VPORT
  5
20
330
0
100
AcDbSymbolTable
 70
     1
  0
VPORT
  5
21
330
20
100
AcDbSymbolTableRecord
100
AcDbViewportTableRecord
  2
*ACTIVE
 70
     0
  0
ENDTAB
  0
TABLE
  2
LTYPE
  5
22
330
0
100
AcDbSymbolTable
 70
     1
  0
LTYPE
  5
23
330
21
100
AcDbSymbolTableRecord
100
AcDbLinetypeTableRecord
  2
BYBLOCK
 70
     0
  3

 72
    65
 73
     0
 40
0.0
  0
LTYPE
  5
24
330
21
100
AcDbSymbolTableRecord
100
AcDbLinetypeTableRecord
  2
BYLAYER
 70
     0
  3

 72
    65
 73
     0
 40
0.0
  0
LTYPE
  5
25
330
21
100
AcDbSymbolTableRecord
100
AcDbLinetypeTableRecord
  2
CONTINUOUS
 70
     0
  3
Solid line
 72
    65
 73
     0
 40
0.0
  0
ENDTAB
  0
TABLE
  2
LAYER
  5
B8A
330
0
100
AcDbSymbolTable
 70
3
  0
LAYER
  5
B8B
330
B8A
100
AcDbSymbolTableRecord
100
AcDbLayerTableRecord
  2
0
 70
   0
 62
   7
  6
CONTINUOUS
  0
LAYER
  5
B8C
330
B8A
100
AcDbSymbolTableRecord
100
AcDbLayerTableRecord
  2
none
 70
    0
 62
    7
  6
CONTINUOUS
  0
LAYER
  5
B8D
330
B8A
100
AcDbSymbolTableRecord
100
AcDbLayerTableRecord
  2
Mesh_cs001
 70
    0
 62
    7
  6
CONTINUOUS
  0
ENDTAB
  0
TABLE
  2
STYLE
  5
70
330
0
100
AcDbSymbolTable
 70
     2
  0
STYLE
  5
71
330
70
100
AcDbSymbolTableRecord
100
AcDbTextStyleTableRecord
  2
STANDARD
 70
     0
 40
0.0
 41
1.0
 50
0.0
 71
     0
 42
2.5
  3
arial.ttf
  4

  0
STYLE
  5
72
330
70
100
AcDbSymbolTableRecord
100
AcDbTextStyleTableRecord
  2
ANNOTATIVE
 70
     0
 40
0.0
 41
1.0
 50
0.0
 71
     0
 42
2.5
  3
arial.ttf
  4

  0
ENDTAB
  0
TABLE
  2
VIEW
  5
73
330
0
100
AcDbSymbolTable
 70
     0
  0
ENDTAB
  0
TABLE
  2
UCS
  5
74
330
0
100
AcDbSymbolTable
 70
     0
  0
ENDTAB
  0
TABLE
  2
APPID
  5
75
330
0
100
AcDbSymbolTable
 70
     2
  0
APPID
  5
76
330
75
100
AcDbSymbolTableRecord
100
AcDbRegAppTableRecord
  2
ACAD
 70
     0
  0
APPID
  5
77
330
75
100
AcDbSymbolTableRecord
100
AcDbRegAppTableRecord
  2
ACADANNOTATIVE
 70
     0
  0
ENDTAB
  0
TABLE
  2
DIMSTYLE
  5
78
330
0
100
AcDbSymbolTable
 70
     2
  0
DIMSTYLE
105
79
330
78
100
AcDbSymbolTableRecord
100
AcDbDimStyleTableRecord
  2
STANDARD
 70
     0
  3

  4

  5

  6

  7

 40
0.0
 41
2.5
 42
0.625
 43
3.75
 44
1.25
 45
0.0
 46
0.0
 47
0.0
 48
0.0
140
2.5
141
2.5
142
0.0
143
0.03937007874016
144
1.0
145
0.0
146
1.0
147
0.625
 71
     0
 72
     0
 73
     0
 74
     0
 75
     0
 76
     0
 77
     1
 78
     8
170
     0
171
     3
172
     1
173
     0
174
     0
175
     0
176
     0
177
     0
178
     0
270
     2
271
     2
272
     2
273
     2
274
     3
340
71
275
     0
280
     0
281
     0
282
     0
283
     0
284
     8
285
     0
286
     0
287
     3
288
     0
  0
ENDTAB
  0
TABLE
  2
BLOCK_RECORD
  5
A01
330
0
100
AcDbSymbolTable
  70
5
  0
BLOCK_RECORD
  5
A02
330
A01
100
AcDbSymbolTableRecord
100
AcDbBlockTableRecord
  2
*MODEL_SPACE
  0
BLOCK_RECORD
  5
A03
330
A01
100
AcDbSymbolTableRecord
100
AcDbBlockTableRecord
  2
*PAPER_SPACE
  0
ENDTAB
  0
ENDSEC
  0
SECTION
  2
BLOCKS
  0
BLOCK
  5
A04
330
A02
100
AcDbEntity
  8
0
100
AcDbBlockBegin
  2
*MODEL_SPACE
 70
   0
 10
0
 20
0
 30
0
  3
*MODEL_SPACE
  1
 
  0
ENDBLK
  5
A05
330
A02
100
AcDbEntity
  8
0
100
AcDbBlockEnd
  0
BLOCK
  5
A06
330
A03
100
AcDbEntity
 67
1
  8
0
100
AcDbBlockBegin
  2
*PAPER_SPACE
 70
   0
 10
0
 20
0
 30
0
  3
*PAPER_SPACE
  1
 
  0
ENDBLK
  5
A07
330
A03
100
AcDbEntity
 67
    1
  8
0
100
AcDbBlockEnd
  0
ENDSEC
  0
SECTION
  2
ENTITIES
  0
LINE
  5
A08
330
A02
100
AcDbEntity
  8
Mesh_cs001
100
AcDbLine
 10
207.366
 20
103.352
 30
9.1
 11
207.392
 21
103.471
 31
9.1
  0
LINE
  5
A09
330
A02
100
AcDbEntity
  8
Mesh_cs001
100
AcDbLine
 10
207.392
 20
103.471
 30
9.1
 11
207.495
 21
103.862
 31
9.1
  0
LINE
  5
A0A
330
A02
100
AcDbEntity
  8
Mesh_cs001
100
AcDbLine
 10
207.495
 20
103.862
 30
9.1
 11
207.507
 21
103.901
 31
9.1
  0
LINE
  5
A0B
330
A02
100
AcDbEntity
  8
Mesh_cs001
100
AcDbLine
 10
207.507
 20
103.901
 30
9.1
 11
207.514
 21
103.927
 31
9.1
  0
LINE
  5
A0C
330
A02
100
AcDbEntity
  8
Mesh_cs001
100
AcDbLine
 10
207.514
 20
103.927
 30
9.1
 11
207.52
 21
103.948
 31
9.1
  0
LINE
  5
A0D
330
A02
100
AcDbEntity
  8
Mesh_cs001
100
AcDbLine
 10
207.52
 20
103.948
 30
9.1
 11
207.204
 21
104.05
 31
9.1
  0
LINE
  5
A0E
330
A02
100
AcDbEntity
  8
Mesh_cs001
100
AcDbLine
 10
207.204
 20
104.05
 30
9.1
 11
188.909
 21
109.995
 31
9.1
  0
LINE
  5
A0F
330
A02
100
AcDbEntity
  8
Mesh_cs001
100
AcDbLine
 10
188.909
 20
109.995
 30
9.1
 11
188.594
 21
110.097
 31
9.1
  0
LINE
  5
A10
330
A02
100
AcDbEntity
  8
Mesh_cs001
100
AcDbLine
 10
188.594
 20
110.097
 30
9.1
 11
188.278
 21
110.212
 31
9.1
  0
LINE
  5
A11
330
A02
100
AcDbEntity
  8
Mesh_cs001
100
AcDbLine
 10
188.278
 20
110.212
 30
9.1
 11
187.964
 21
110.351
 31
9.1
  0
LINE
  5
A12
330
A02
100
AcDbEntity
  8
Mesh_cs001
100
AcDbLine
 10
187.964
 20
110.351
 30
9.1
 11
187.588
 21
110.552
 31
9.1
  0
LINE
  5
A13
330
A02
100
AcDbEntity
  8
Mesh_cs001
100
AcDbLine
 10
187.588
 20
110.552
 30
9.1
 11
187.577
 21
110.559
 31
9.1
  0
LINE
  5
A14
330
A02
100
AcDbEntity
  8
Mesh_cs001
100
AcDbLine
 10
187.577
 20
110.559
 30
9.1
 11
187.208
 21
110.801
 31
9.1
  0
LINE
  5
A15
330
A02
100
AcDbEntity
  8
Mesh_cs001
100
AcDbLine
 10
187.208
 20
110.801
 30
9.1
 11
186.873
 21
111.067
 31
9.1
  0
LINE
  5
A16
330
A02
100
AcDbEntity
  8
Mesh_cs001
100
AcDbLine
 10
186.873
 20
111.067
 30
9.1
 11
186.862
 21
111.076
 31
9.1
  0
LINE
  5
A17
330
A02
100
AcDbEntity
  8
Mesh_cs001
100
AcDbLine
 10
186.862
 20
111.076
 30
9.1
 11
186.551
 21
111.371
 31
9.1
  0
LINE
  5
A18
330
A02
100
AcDbEntity
  8
Mesh_cs001
100
AcDbLine
 10
186.551
 20
111.371
 30
9.1
 11
186.532
 21
111.39
 31
9.1
  0
LINE
  5
A19
330
A02
100
AcDbEntity
  8
Mesh_cs001
100
AcDbLine
 10
186.532
 20
111.39
 30
9.1
 11
186.24
 21
111.724
 31
9.1
  0
LINE
  5
A1A
330
A02
100
AcDbEntity
  8
Mesh_cs001
100
AcDbLine
 10
186.24
 20
111.724
 30
9.1
 11
185.984
 21
112.071
 31
9.1
  0
LINE
  5
A1B
330
A02
100
AcDbEntity
  8
Mesh_cs001
100
AcDbLine
 10
185.984
 20
112.071
 30
9.1
 11
185.977
 21
112.082
 31
9.1
  0
LINE
  5
A1C
330
A02
100
AcDbEntity
  8
Mesh_cs001
100
AcDbLine
 10
185.977
 20
112.082
 30
9.1
 11
185.753
 21
112.451
 31
9.1
  0
LINE
  5
A1D
330
A02
100
AcDbEntity
  8
Mesh_cs001
100
AcDbLine
 10
185.753
 20
112.451
 30
9.1
 11
185.747
 21
112.463
 31
9.1
  0
LINE
  5
A1E
330
A02
100
AcDbEntity
  8
Mesh_cs001
100
AcDbLine
 10
185.747
 20
112.463
 30
9.1
 11
185.574
 21
112.812
 31
9.1
  0
LINE
  5
A1F
330
A02
100
AcDbEntity
  8
Mesh_cs001
100
AcDbLine
 10
185.574
 20
112.812
 30
9.1
 11
185.569
 21
112.824
 31
9.1
  0
LINE
  5
A20
330
A02
100
AcDbEntity
  8
Mesh_cs001
100
AcDbLine
 10
185.569
 20
112.824
 30
9.1
 11
185.425
 21
113.187
 31
9.1
  0
LINE
  5
A21
330
A02
100
AcDbEntity
  8
Mesh_cs001
100
AcDbLine
 10
185.425
 20
113.187
 30
9.1
 11
185.42
 21
113.199
 31
9.1
  0
LINE
  5
A22
330
A02
100
AcDbEntity
  8
Mesh_cs001
100
AcDbLine
 10
185.42
 20
113.199
 30
9.1
 11
185.306
 21
113.573
 31
9.1
  0
LINE
  5
A23
330
A02
100
AcDbEntity
  8
Mesh_cs001
100
AcDbLine
 10
185.306
 20
113.573
 30
9.1
 11
185.302
 21
113.586
 31
9.1
  0
LINE
  5
A24
330
A02
100
AcDbEntity
  8
Mesh_cs001
100
AcDbLine
 10
185.302
 20
113.586
 30
9.1
 11
185.218
 21
113.968
 31
9.1
  0
LINE
  5
A25
330
A02
100
AcDbEntity
  8
Mesh_cs001
100
AcDbLine
 10
185.218
 20
113.968
 30
9.1
 11
185.216
 21
113.98
 31
9.1
  0
LINE
  5
A26
330
A02
100
AcDbEntity
  8
Mesh_cs001
100
AcDbLine
 10
185.216
 20
113.98
 30
9.1
 11
185.163
 21
114.368
 31
9.1
  0
LINE
  5
A27
330
A02
100
AcDbEntity
  8
Mesh_cs001
100
AcDbLine
 10
185.163
 20
114.368
 30
9.1
 11
185.161
 21
114.381
 31
9.1
  0
LINE
  5
A28
330
A02
100
AcDbEntity
  8
Mesh_cs001
100
AcDbLine
 10
185.161
 20
114.381
 30
9.1
 11
185.14
 21
114.772
 31
9.1
  0
LINE
  5
A29
330
A02
100
AcDbEntity
  8
Mesh_cs001
100
AcDbLine
 10
185.14
 20
114.772
 30
9.1
 11
185.14
 21
114.786
 31
9.1
  0
LINE
  5
A2A
330
A02
100
AcDbEntity
  8
Mesh_cs001
100
AcDbLine
 10
185.14
 20
114.786
 30
9.1
 11
185.15
 21
115.179
 31
9.1
  0
LINE
  5
A2B
330
A02
100
AcDbEntity
  8
Mesh_cs001
100
AcDbLine
 10
185.15
 20
115.179
 30
9.1
 11
185.151
 21
115.192
 31
9.1
  0
LINE
  5
A2C
330
A02
100
AcDbEntity
  8
Mesh_cs001
100
AcDbLine
 10
185.151
 20
115.192
 30
9.1
 11
185.193
 21
115.584
 31
9.1
  0
LINE
  5
A2D
330
A02
100
AcDbEntity
  8
Mesh_cs001
100
AcDbLine
 10
185.193
 20
115.584
 30
9.1
 11
185.195
 21
115.597
 31
9.1
  0
LINE
  5
A2E
330
A02
100
AcDbEntity
  8
Mesh_cs001
100
AcDbLine
 10
185.195
 20
115.597
 30
9.1
 11
185.272
 21
115.997
 31
9.1
  0
LINE
  5
A2F
330
A02
100
AcDbEntity
  8
Mesh_cs001
100
AcDbLine
 10
185.272
 20
115.997
 30
9.1
 11
185.274
 21
116.007
 31
9.1
  0
LINE
  5
A30
330
A02
100
AcDbEntity
  8
Mesh_cs001
100
AcDbLine
 10
185.274
 20
116.007
 30
9.1
 11
185.384
 21
116.398
 31
9.1
  0
LINE
  5
A31
330
A02
100
AcDbEntity
  8
Mesh_cs001
100
AcDbLine
 10
185.384
 20
116.398
 30
9.1
 11
185.409
 21
116.476
 31
9.1
  0
LINE
  5
A32
330
A02
100
AcDbEntity
  8
Mesh_cs001
100
AcDbLine
 10
185.409
 20
116.476
 30
9.1
 11
185.435
 21
116.555
 31
9.1
  0
LINE
  5
A33
330
A02
100
AcDbEntity
  8
Mesh_cs001
100
AcDbLine
 10
185.435
 20
116.555
 30
9.1
 11
185.461
 21
116.634
 31
9.1
  0
LINE
  5
A34
330
A02
100
AcDbEntity
  8
Mesh_cs001
100
AcDbLine
 10
185.461
 20
116.634
 30
9.1
 11
185.486
 21
116.713
 31
9.1
  0
LINE
  5
A35
330
A02
100
AcDbEntity
  8
Mesh_cs001
100
AcDbLine
 10
185.486
 20
116.713
 30
9.1
 11
191.431
 21
135.008
 31
9.1
  0
LINE
  5
A36
330
A02
100
AcDbEntity
  8
Mesh_cs001
100
AcDbLine
 10
191.431
 20
135.008
 30
9.1
 11
191.456
 21
135.087
 31
9.1
  0
LINE
  5
A37
330
A02
100
AcDbEntity
  8
Mesh_cs001
100
AcDbLine
 10
191.456
 20
135.087
 30
9.1
 11
191.482
 21
135.166
 31
9.1
  0
LINE
  5
A38
330
A02
100
AcDbEntity
  8
Mesh_cs001
100
AcDbLine
 10
191.482
 20
135.166
 30
9.1
 11
191.508
 21
135.245
 31
9.1
  0
LINE
  5
A39
330
A02
100
AcDbEntity
  8
Mesh_cs001
100
AcDbLine
 10
191.508
 20
135.245
 30
9.1
 11
191.533
 21
135.324
 31
9.1
  0
LINE
  5
A3A
330
A02
100
AcDbEntity
  8
Mesh_cs001
100
AcDbLine
 10
191.533
 20
135.324
 30
9.1
 11
188.913
 21
136.175
 31
9.1
  0
LINE
  5
A3B
330
A02
100
AcDbEntity
  8
Mesh_cs001
100
AcDbLine
 10
188.913
 20
136.175
 30
9.1
 11
152.272
 21
148.08
 31
9.1
  0
LINE
  5
A3C
330
A02
100
AcDbEntity
  8
Mesh_cs001
100
AcDbLine
 10
152.272
 20
148.08
 30
9.1
 11
124.734
 21
157.028
 31
9.1
  0
LINE
  5
A3D
330
A02
100
AcDbEntity
  8
Mesh_cs001
100
AcDbLine
 10
124.734
 20
157.028
 30
9.1
 11
56.0599
 21
179.342
 31
9.1
  0
LINE
  5
A3E
330
A02
100
AcDbEntity
  8
Mesh_cs001
100
AcDbLine
 10
56.0599
 20
179.342
 30
9.1
 11
53.4398
 21
180.193
 31
9.1
  0
LINE
  5
A3F
330
A02
100
AcDbEntity
  8
Mesh_cs001
100
AcDbLine
 10
53.4398
 20
180.193
 30
9.1
 11
47.4953
 21
161.898
 31
9.1
  0
LINE
  5
A40
330
A02
100
AcDbEntity
  8
Mesh_cs001
100
AcDbLine
 10
47.4953
 20
161.898
 30
9.1
 11
47.2903
 21
161.267
 31
9.1
  0
LINE
  5
A41
330
A02
100
AcDbEntity
  8
Mesh_cs001
100
AcDbLine
 10
47.2903
 20
161.267
 30
9.1
 11
47.2864
 21
161.256
 31
9.1
  0
LINE
  5
A42
330
A02
100
AcDbEntity
  8
Mesh_cs001
100
AcDbLine
 10
47.2864
 20
161.256
 30
9.1
 11
47.149
 21
160.885
 31
9.1
  0
LINE
  5
A43
330
A02
100
AcDbEntity
  8
Mesh_cs001
100
AcDbLine
 10
47.149
 20
160.885
 30
9.1
 11
47.1443
 21
160.875
 31
9.1
  0
LINE
  5
A44
330
A02
100
AcDbEntity
  8
Mesh_cs001
100
AcDbLine
 10
47.1443
 20
160.875
 30
9.1
 11
46.9714
 21
160.506
 31
9.1
  0
LINE
  5
A45
330
A02
100
AcDbEntity
  8
Mesh_cs001
100
AcDbLine
 10
46.9714
 20
160.506
 30
9.1
 11
46.9643
 21
160.493
 31
9.1
  0
LINE
  5
A46
330
A02
100
AcDbEntity
  8
Mesh_cs001
100
AcDbLine
 10
46.9643
 20
160.493
 30
9.1
 11
46.7682
 21
160.151
 31
9.1
  0
LINE
  5
A47
330
A02
100
AcDbEntity
  8
Mesh_cs001
100
AcDbLine
 10
46.7682
 20
160.151
 30
9.1
 11
46.76
 21
160.139
 31
9.1
  0
LINE
  5
A48
330
A02
100
AcDbEntity
  8
Mesh_cs001
100
AcDbLine
 10
46.76
 20
160.139
 30
9.1
 11
46.5372
 21
159.815
 31
9.1
  0
LINE
  5
A49
330
A02
100
AcDbEntity
  8
Mesh_cs001
100
AcDbLine
 10
46.5372
 20
159.815
 30
9.1
 11
46.5279
 21
159.803
 31
9.1
  0
LINE
  5
A4A
330
A02
100
AcDbEntity
  8
Mesh_cs001
100
AcDbLine
 10
46.5279
 20
159.803
 30
9.1
 11
46.28
 21
159.499
 31
9.1
  0
LINE
  5
A4B
330
A02
100
AcDbEntity
  8
Mesh_cs001
100
AcDbLine
 10
46.28
 20
159.499
 30
9.1
 11
46.2697
 21
159.488
 31
9.1
  0
LINE
  5
A4C
330
A02
100
AcDbEntity
  8
Mesh_cs001
100
AcDbLine
 10
46.2697
 20
159.488
 30
9.1
 11
45.9984
 21
159.206
 31
9.1
  0
LINE
  5
A4D
330
A02
100
AcDbEntity
  8
Mesh_cs001
100
AcDbLine
 10
45.9984
 20
159.206
 30
9.1
 11
45.7056
 21
158.946
 31
9.1
  0
LINE
  5
A4E
330
A02
100
AcDbEntity
  8
Mesh_cs001
100
AcDbLine
 10
45.7056
 20
158.946
 30
9.1
 11
45.6944
 21
158.937
 31
9.1
  0
LINE
  5
A4F
330
A02
100
AcDbEntity
  8
Mesh_cs001
100
AcDbLine
 10
45.6944
 20
158.937
 30
9.1
 11
45.3821
 21
158.702
 31
9.1
  0
LINE
  5
A50
330
A02
100
AcDbEntity
  8
Mesh_cs001
100
AcDbLine
 10
45.3821
 20
158.702
 30
9.1
 11
45.3701
 21
158.693
 31
9.1
  0
LINE
  5
A51
330
A02
100
AcDbEntity
  8
Mesh_cs001
100
AcDbLine
 10
45.3701
 20
158.693
 30
9.1
 11
45.0405
 21
158.485
 31
9.1
  0
LINE
  5
A52
330
A02
100
AcDbEntity
  8
Mesh_cs001
100
AcDbLine
 10
45.0405
 20
158.485
 30
9.1
 11
45.0277
 21
158.478
 31
9.1
  0
LINE
  5
A53
330
A02
100
AcDbEntity
  8
Mesh_cs001
100
AcDbLine
 10
45.0277
 20
158.478
 30
9.1
 11
44.683
 21
158.297
 31
9.1
  0
LINE
  5
A54
330
A02
100
AcDbEntity
  8
Mesh_cs001
100
AcDbLine
 10
44.683
 20
158.297
 30
9.1
 11
44.6696
 21
158.291
 31
9.1
  0
LINE
  5
A55
330
A02
100
AcDbEntity
  8
Mesh_cs001
100
AcDbLine
 10
44.6696
 20
158.291
 30
9.1
 11
44.2716
 21
158.123
 31
9.1
  0
LINE
  5
A56
330
A02
100
AcDbEntity
  8
Mesh_cs001
100
AcDbLine
 10
44.2716
 20
158.123
 30
9.1
 11
44.2591
 21
158.119
 31
9.1
  0
LINE
  5
A57
330
A02
100
AcDbEntity
  8
Mesh_cs001
100
AcDbLine
 10
44.2591
 20
158.119
 30
9.1
 11
43.8487
 21
157.988
 31
9.1
  0
LINE
  5
A58
330
A02
100
AcDbEntity
  8
Mesh_cs001
100
AcDbLine
 10
43.8487
 20
157.988
 30
9.1
 11
43.8358
 21
157.984
 31
9.1
  0
LINE
  5
A59
330
A02
100
AcDbEntity
  8
Mesh_cs001
100
AcDbLine
 10
43.8358
 20
157.984
 30
9.1
 11
43.4162
 21
157.891
 31
9.1
  0
LINE
  5
A5A
330
A02
100
AcDbEntity
  8
Mesh_cs001
100
AcDbLine
 10
43.4162
 20
157.891
 30
9.1
 11
43.4031
 21
157.888
 31
9.1
  0
LINE
  5
A5B
330
A02
100
AcDbEntity
  8
Mesh_cs001
100
AcDbLine
 10
43.4031
 20
157.888
 30
9.1
 11
42.9777
 21
157.832
 31
9.1
  0
LINE
  5
A5C
330
A02
100
AcDbEntity
  8
Mesh_cs001
100
AcDbLine
 10
42.9777
 20
157.832
 30
9.1
 11
42.9644
 21
157.83
 31
9.1
  0
LINE
  5
A5D
330
A02
100
AcDbEntity
  8
Mesh_cs001
100
AcDbLine
 10
42.9644
 20
157.83
 30
9.1
 11
42.5366
 21
157.813
 31
9.1
  0
LINE
  5
A5E
330
A02
100
AcDbEntity
  8
Mesh_cs001
100
AcDbLine
 10
42.5366
 20
157.813
 30
9.1
 11
42.5232
 21
157.812
 31
9.1
  0
LINE
  5
A5F
330
A02
100
AcDbEntity
  8
Mesh_cs001
100
AcDbLine
 10
42.5232
 20
157.812
 30
9.1
 11
42.5098
 21
157.813
 31
9.1
  0
LINE
  5
A60
330
A02
100
AcDbEntity
  8
Mesh_cs001
100
AcDbLine
 10
42.5098
 20
157.813
 30
9.1
 11
42.083
 21
157.832
 31
9.1
  0
LINE
  5
A61
330
A02
100
AcDbEntity
  8
Mesh_cs001
100
AcDbLine
 10
42.083
 20
157.832
 30
9.1
 11
42.0709
 21
157.834
 31
9.1
  0
LINE
  5
A62
330
A02
100
AcDbEntity
  8
Mesh_cs001
100
AcDbLine
 10
42.0709
 20
157.834
 30
9.1
 11
41.6484
 21
157.891
 31
9.1
  0
LINE
  5
A63
330
A02
100
AcDbEntity
  8
Mesh_cs001
100
AcDbLine
 10
41.6484
 20
157.891
 30
9.1
 11
41.6352
 21
157.894
 31
9.1
  0
LINE
  5
A64
330
A02
100
AcDbEntity
  8
Mesh_cs001
100
AcDbLine
 10
41.6352
 20
157.894
 30
9.1
 11
41.3123
 21
157.964
 31
9.1
  0
LINE
  5
A65
330
A02
100
AcDbEntity
  8
Mesh_cs001
100
AcDbLine
 10
41.3123
 20
157.964
 30
9.1
 11
41.2994
 21
157.967
 31
9.1
  0
LINE
  5
A66
330
A02
100
AcDbEntity
  8
Mesh_cs001
100
AcDbLine
 10
41.2994
 20
157.967
 30
9.1
 11
40.99
 21
158.057
 31
9.1
  0
LINE
  5
A67
330
A02
100
AcDbEntity
  8
Mesh_cs001
100
AcDbLine
 10
40.99
 20
158.057
 30
9.1
 11
40.3753
 21
158.256
 31
9.1
  0
LINE
  5
A68
330
A02
100
AcDbEntity
  8
Mesh_cs001
100
AcDbLine
 10
40.3753
 20
158.256
 30
9.1
 11
22.0639
 21
164.206
 31
9.1
  0
LINE
  5
A69
330
A02
100
AcDbEntity
  8
Mesh_cs001
100
AcDbLine
 10
22.0639
 20
164.206
 30
9.1
 11
22.0678
 21
164.179
 31
9.1
  0
LINE
  5
A6A
330
A02
100
AcDbEntity
  8
Mesh_cs001
100
AcDbLine
 10
22.0678
 20
164.179
 30
9.1
 11
22.0718
 21
164.152
 31
9.1
  0
LINE
  5
A6B
330
A02
100
AcDbEntity
  8
Mesh_cs001
100
AcDbLine
 10
22.0718
 20
164.152
 30
9.1
 11
22.0963
 21
163.974
 31
9.1
  0
LINE
  5
A6C
330
A02
100
AcDbEntity
  8
Mesh_cs001
100
AcDbLine
 10
22.0963
 20
163.974
 30
9.1
 11
22.1263
 21
163.761
 31
9.1
  0
LINE
  5
A6D
330
A02
100
AcDbEntity
  8
Mesh_cs001
100
AcDbLine
 10
22.1263
 20
163.761
 30
9.1
 11
22.136
 21
163.597
 31
9.1
  0
LINE
  5
A6E
330
A02
100
AcDbEntity
  8
Mesh_cs001
100
AcDbLine
 10
22.136
 20
163.597
 30
9.1
 11
22.1472
 21
163.389
 31
9.1
  0
LINE
  5
A6F
330
A02
100
AcDbEntity
  8
Mesh_cs001
100
AcDbLine
 10
22.1472
 20
163.389
 30
9.1
 11
22.1464
 21
163.213
 31
9.1
  0
LINE
  5
A70
330
A02
100
AcDbEntity
  8
Mesh_cs001
100
AcDbLine
 10
22.1464
 20
163.213
 30
9.1
 11
22.1433
 21
163.07
 31
9.1
  0
LINE
  5
A71
330
A02
100
AcDbEntity
  8
Mesh_cs001
100
AcDbLine
 10
22.1433
 20
163.07
 30
9.1
 11
22.1291
 21
162.861
 31
9.1
  0
LINE
  5
A72
330
A02
100
AcDbEntity
  8
Mesh_cs001
100
AcDbLine
 10
22.1291
 20
162.861
 30
9.1
 11
22.1274
 21
162.835
 31
9.1
  0
LINE
  5
A73
330
A02
100
AcDbEntity
  8
Mesh_cs001
100
AcDbLine
 10
22.1274
 20
162.835
 30
9.1
 11
22.0957
 21
162.625
 31
9.1
  0
LINE
  5
A74
330
A02
100
AcDbEntity
  8
Mesh_cs001
100
AcDbLine
 10
22.0957
 20
162.625
 30
9.1
 11
22.0759
 21
162.475
 31
9.1
  0
LINE
  5
A75
330
A02
100
AcDbEntity
  8
Mesh_cs001
100
AcDbLine
 10
22.0759
 20
162.475
 30
9.1
 11
22.0509
 21
162.31
 31
9.1
  0
LINE
  5
A76
330
A02
100
AcDbEntity
  8
Mesh_cs001
100
AcDbLine
 10
22.0509
 20
162.31
 30
9.1
 11
21.9987
 21
162.084
 31
9.1
  0
LINE
  5
A77
330
A02
100
AcDbEntity
  8
Mesh_cs001
100
AcDbLine
 10
21.9987
 20
162.084
 30
9.1
 11
21.9677
 21
161.959
 31
9.1
  0
LINE
  5
A78
330
A02
100
AcDbEntity
  8
Mesh_cs001
100
AcDbLine
 10
21.9677
 20
161.959
 30
9.1
 11
20.9947
 21
158.383
 31
9.1
  0
LINE
  5
A79
330
A02
100
AcDbEntity
  8
Mesh_cs001
100
AcDbLine
 10
20.9947
 20
158.383
 30
9.1
 11
20.6846
 21
157.243
 31
9.1
  0
LINE
  5
A7A
330
A02
100
AcDbEntity
  8
Mesh_cs001
100
AcDbLine
 10
20.6846
 20
157.243
 30
9.1
 11
20.3837
 21
156.101
 31
9.1
  0
LINE
  5
A7B
330
A02
100
AcDbEntity
  8
Mesh_cs001
100
AcDbLine
 10
20.3837
 20
156.101
 30
9.1
 11
19.4395
 21
152.516
 31
9.1
  0
LINE
  5
A7C
330
A02
100
AcDbEntity
  8
Mesh_cs001
100
AcDbLine
 10
19.4395
 20
152.516
 30
9.1
 11
19.1478
 21
151.372
 31
9.1
  0
LINE
  5
A7D
330
A02
100
AcDbEntity
  8
Mesh_cs001
100
AcDbLine
 10
19.1478
 20
151.372
 30
9.1
 11
18.2324
 21
147.78
 31
9.1
  0
LINE
  5
A7E
330
A02
100
AcDbEntity
  8
Mesh_cs001
100
AcDbLine
 10
18.2324
 20
147.78
 30
9.1
 11
17.9499
 21
146.633
 31
9.1
  0
LINE
  5
A7F
330
A02
100
AcDbEntity
  8
Mesh_cs001
100
AcDbLine
 10
17.9499
 20
146.633
 30
9.1
 11
17.0635
 21
143.033
 31
9.1
  0
LINE
  5
A80
330
A02
100
AcDbEntity
  8
Mesh_cs001
100
AcDbLine
 10
17.0635
 20
143.033
 30
9.1
 11
16.7902
 21
141.884
 31
9.1
  0
LINE
  5
A81
330
A02
100
AcDbEntity
  8
Mesh_cs001
100
AcDbLine
 10
16.7902
 20
141.884
 30
9.1
 11
15.9327
 21
138.278
 31
9.1
  0
LINE
  5
A82
330
A02
100
AcDbEntity
  8
Mesh_cs001
100
AcDbLine
 10
15.9327
 20
138.278
 30
9.1
 11
15.1042
 21
134.665
 31
9.1
  0
LINE
  5
A83
330
A02
100
AcDbEntity
  8
Mesh_cs001
100
AcDbLine
 10
15.1042
 20
134.665
 30
9.1
 11
14.8402
 21
133.514
 31
9.1
  0
LINE
  5
A84
330
A02
100
AcDbEntity
  8
Mesh_cs001
100
AcDbLine
 10
14.8402
 20
133.514
 30
9.1
 11
14.5854
 21
132.36
 31
9.1
  0
LINE
  5
A85
330
A02
100
AcDbEntity
  8
Mesh_cs001
100
AcDbLine
 10
14.5854
 20
132.36
 30
9.1
 11
13.786
 21
128.741
 31
9.1
  0
LINE
  5
A86
330
A02
100
AcDbEntity
  8
Mesh_cs001
100
AcDbLine
 10
13.786
 20
128.741
 30
9.1
 11
13.5406
 21
127.585
 31
9.1
  0
LINE
  5
A87
330
A02
100
AcDbEntity
  8
Mesh_cs001
100
AcDbLine
 10
13.5406
 20
127.585
 30
9.1
 11
12.7703
 21
123.96
 31
9.1
  0
LINE
  5
A88
330
A02
100
AcDbEntity
  8
Mesh_cs001
100
AcDbLine
 10
12.7703
 20
123.96
 30
9.1
 11
12.5341
 21
122.802
 31
9.1
  0
LINE
  5
A89
330
A02
100
AcDbEntity
  8
Mesh_cs001
100
AcDbLine
 10
12.5341
 20
122.802
 30
9.1
 11
11.793
 21
119.17
 31
9.1
  0
LINE
  5
A8A
330
A02
100
AcDbEntity
  8
Mesh_cs001
100
AcDbLine
 10
11.793
 20
119.17
 30
9.1
 11
11.0811
 21
115.533
 31
9.1
  0
LINE
  5
A8B
330
A02
100
AcDbEntity
  8
Mesh_cs001
100
AcDbLine
 10
11.0811
 20
115.533
 30
9.1
 11
10.8542
 21
114.373
 31
9.1
  0
LINE
  5
A8C
330
A02
100
AcDbEntity
  8
Mesh_cs001
100
AcDbLine
 10
10.8542
 20
114.373
 30
9.1
 11
10.6367
 21
113.212
 31
9.1
  0
LINE
  5
A8D
330
A02
100
AcDbEntity
  8
Mesh_cs001
100
AcDbLine
 10
10.6367
 20
113.212
 30
9.1
 11
9.95406
 21
109.569
 31
9.1
  0
LINE
  5
A8E
330
A02
100
AcDbEntity
  8
Mesh_cs001
100
AcDbLine
 10
9.95406
 20
109.569
 30
9.1
 11
9.74586
 21
108.406
 31
9.1
  0
LINE
  5
A8F
330
A02
100
AcDbEntity
  8
Mesh_cs001
100
AcDbLine
 10
9.74586
 20
108.406
 30
9.1
 11
9.09254
 21
104.758
 31
9.1
  0
LINE
  5
A90
330
A02
100
AcDbEntity
  8
Mesh_cs001
100
AcDbLine
 10
9.09254
 20
104.758
 30
9.1
 11
8.8937
 21
103.593
 31
9.1
  0
LINE
  5
A91
330
A02
100
AcDbEntity
  8
Mesh_cs001
100
AcDbLine
 10
8.8937
 20
103.593
 30
9.1
 11
8.26974
 21
99.9394
 31
9.1
  0
LINE
  5
A92
330
A02
100
AcDbEntity
  8
Mesh_cs001
100
AcDbLine
 10
8.26974
 20
99.9394
 30
9.1
 11
7.67517
 21
96.2807
 31
9.1
  0
LINE
  5
A93
330
A02
100
AcDbEntity
  8
Mesh_cs001
100
AcDbLine
 10
7.67517
 20
96.2807
 30
9.1
 11
7.48569
 21
95.1148
 31
9.1
  0
LINE
  5
A94
330
A02
100
AcDbEntity
  8
Mesh_cs001
100
AcDbLine
 10
7.48569
 20
95.1148
 30
9.1
 11
7.3056
 21
93.9473
 31
9.1
  0
LINE
  5
A95
330
A02
100
AcDbEntity
  8
Mesh_cs001
100
AcDbLine
 10
7.3056
 20
93.9473
 30
9.1
 11
6.74046
 21
90.2839
 31
9.1
  0
LINE
  5
A96
330
A02
100
AcDbEntity
  8
Mesh_cs001
100
AcDbLine
 10
6.74046
 20
90.2839
 30
9.1
 11
6.56975
 21
89.1151
 31
9.1
  0
LINE
  5
A97
330
A02
100
AcDbEntity
  8
Mesh_cs001
100
AcDbLine
 10
6.56975
 20
89.1151
 30
9.1
 11
6.03409
 21
85.4473
 31
9.1
  0
LINE
  5
A98
330
A02
100
AcDbEntity
  8
Mesh_cs001
100
AcDbLine
 10
6.03409
 20
85.4473
 30
9.1
 11
5.87278
 21
84.2771
 31
9.1
  0
LINE
  5
A99
330
A02
100
AcDbEntity
  8
Mesh_cs001
100
AcDbLine
 10
5.87278
 20
84.2771
 30
9.1
 11
5.36662
 21
80.6051
 31
9.1
  0
LINE
  5
A9A
330
A02
100
AcDbEntity
  8
Mesh_cs001
100
AcDbLine
 10
5.36662
 20
80.6051
 30
9.1
 11
4.88999
 21
76.9292
 31
9.1
  0
LINE
  5
A9B
330
A02
100
AcDbEntity
  8
Mesh_cs001
100
AcDbLine
 10
4.88999
 20
76.9292
 30
9.1
 11
4.7381
 21
75.7578
 31
9.1
  0
LINE
  5
A9C
330
A02
100
AcDbEntity
  8
Mesh_cs001
100
AcDbLine
 10
4.7381
 20
75.7578
 30
9.1
 11
4.59563
 21
74.5851
 31
9.1
  0
LINE
  5
A9D
330
A02
100
AcDbEntity
  8
Mesh_cs001
100
AcDbLine
 10
4.59563
 20
74.5851
 30
9.1
 11
4.14857
 21
70.9055
 31
9.1
  0
LINE
  5
A9E
330
A02
100
AcDbEntity
  8
Mesh_cs001
100
AcDbLine
 10
4.14857
 20
70.9055
 30
9.1
 11
4.01553
 21
69.7317
 31
9.1
  0
LINE
  5
A9F
330
A02
100
AcDbEntity
  8
Mesh_cs001
100
AcDbLine
 10
4.01553
 20
69.7317
 30
9.1
 11
3.59806
 21
66.0486
 31
9.1
  0
LINE
  5
AA0
330
A02
100
AcDbEntity
  8
Mesh_cs001
100
AcDbLine
 10
3.59806
 20
66.0486
 30
9.1
 11
3.47447
 21
64.8738
 31
9.1
  0
LINE
  5
AA1
330
A02
100
AcDbEntity
  8
Mesh_cs001
100
AcDbLine
 10
3.47447
 20
64.8738
 30
9.1
 11
3.08662
 21
61.1875
 31
9.1
  0
LINE
  5
AA2
330
A02
100
AcDbEntity
  8
Mesh_cs001
100
AcDbLine
 10
3.08662
 20
61.1875
 30
9.1
 11
2.97247
 21
60.0118
 31
9.1
  0
LINE
  5
AA3
330
A02
100
AcDbEntity
  8
Mesh_cs001
100
AcDbLine
 10
2.97247
 20
60.0118
 30
9.1
 11
2.61428
 21
56.3224
 31
9.1
  0
LINE
  5
AA4
330
A02
100
AcDbEntity
  8
Mesh_cs001
100
AcDbLine
 10
2.61428
 20
56.3224
 30
9.1
 11
2.50958
 21
55.1458
 31
9.1
  0
LINE
  5
AA5
330
A02
100
AcDbEntity
  8
Mesh_cs001
100
AcDbLine
 10
2.50958
 20
55.1458
 30
9.1
 11
2.18106
 21
51.4537
 31
9.1
  0
LINE
  5
AA6
330
A02
100
AcDbEntity
  8
Mesh_cs001
100
AcDbLine
 10
2.18106
 20
51.4537
 30
9.1
 11
2.08583
 21
50.2763
 31
9.1
  0
LINE
  5
AA7
330
A02
100
AcDbEntity
  8
Mesh_cs001
100
AcDbLine
 10
2.08583
 20
50.2763
 30
9.1
 11
1.78699
 21
46.5816
 31
9.1
  0
LINE
  5
AA8
330
A02
100
AcDbEntity
  8
Mesh_cs001
100
AcDbLine
 10
1.78699
 20
46.5816
 30
9.1
 11
1.70123
 21
45.4035
 31
9.1
  0
LINE
  5
AA9
330
A02
100
AcDbEntity
  8
Mesh_cs001
100
AcDbLine
 10
1.70123
 20
45.4035
 30
9.1
 11
1.43211
 21
41.7066
 31
9.1
  0
LINE
  5
AAA
330
A02
100
AcDbEntity
  8
Mesh_cs001
100
AcDbLine
 10
1.43211
 20
41.7066
 30
9.1
 11
1.35582
 21
40.5278
 31
9.1
  0
LINE
  5
AAB
330
A02
100
AcDbEntity
  8
Mesh_cs001
100
AcDbLine
 10
1.35582
 20
40.5278
 30
9.1
 11
1.11642
 21
36.8288
 31
9.1
  0
LINE
  5
AAC
330
A02
100
AcDbEntity
  8
Mesh_cs001
100
AcDbLine
 10
1.11642
 20
36.8288
 30
9.1
 11
1.04961
 21
35.6495
 31
9.1
  0
LINE
  5
AAD
330
A02
100
AcDbEntity
  8
Mesh_cs001
100
AcDbLine
 10
1.04961
 20
35.6495
 30
9.1
 11
0.839965
 21
31.9487
 31
9.1
  0
LINE
  5
AAE
330
A02
100
AcDbEntity
  8
Mesh_cs001
100
AcDbLine
 10
0.839965
 20
31.9487
 30
9.1
 11
0.782637
 21
30.7688
 31
9.1
  0
LINE
  5
AAF
330
A02
100
AcDbEntity
  8
Mesh_cs001
100
AcDbLine
 10
0.782637
 20
30.7688
 30
9.1
 11
0.602746
 21
27.0665
 31
9.1
  0
LINE
  5
AB0
330
A02
100
AcDbEntity
  8
Mesh_cs001
100
AcDbLine
 10
0.602746
 20
27.0665
 30
9.1
 11
0.595234
 21
26.9755
 31
9.1
  0
LINE
  5
AB1
330
A02
100
AcDbEntity
  8
Mesh_cs001
100
AcDbLine
 10
0.595234
 20
26.9755
 30
9.1
 11
0.571664
 21
26.6898
 31
9.1
  0
LINE
  5
AB2
330
A02
100
AcDbEntity
  8
Mesh_cs001
100
AcDbLine
 10
0.571664
 20
26.6898
 30
9.1
 11
0.526585
 21
26.4068
 31
9.1
  0
LINE
  5
AB3
330
A02
100
AcDbEntity
  8
Mesh_cs001
100
AcDbLine
 10
0.526585
 20
26.4068
 30
9.1
 11
0.512219
 21
26.3166
 31
9.1
  0
LINE
  5
AB4
330
A02
100
AcDbEntity
  8
Mesh_cs001
100
AcDbLine
 10
0.512219
 20
26.3166
 30
9.1
 11
0.445891
 21
26.0378
 31
9.1
  0
LINE
  5
AB5
330
A02
100
AcDbEntity
  8
Mesh_cs001
100
AcDbLine
 10
0.445891
 20
26.0378
 30
9.1
 11
0.424753
 21
25.9489
 31
9.1
  0
LINE
  5
AB6
330
A02
100
AcDbEntity
  8
Mesh_cs001
100
AcDbLine
 10
0.424753
 20
25.9489
 30
9.1
 11
0.337553
 21
25.6759
 31
9.1
  0
LINE
  5
AB7
330
A02
100
AcDbEntity
  8
Mesh_cs001
100
AcDbLine
 10
0.337553
 20
25.6759
 30
9.1
 11
0.309764
 21
25.5889
 31
9.1
  0
LINE
  5
AB8
330
A02
100
AcDbEntity
  8
Mesh_cs001
100
AcDbLine
 10
0.309764
 20
25.5889
 30
9.1
 11
0.202191
 21
25.3233
 31
9.1
  0
LINE
  5
AB9
330
A02
100
AcDbEntity
  8
Mesh_cs001
100
AcDbLine
 10
0.202191
 20
25.3233
 30
9.1
 11
0.16791
 21
25.2386
 31
9.1
  0
LINE
  5
ABA
330
A02
100
AcDbEntity
  8
Mesh_cs001
100
AcDbLine
 10
0.16791
 20
25.2386
 30
9.1
 11
0.00559701
 21
24.9113
 31
9.1
  0
LINE
  5
ABB
330
A02
100
AcDbEntity
  8
Mesh_cs001
100
AcDbLine
 10
0.00559701
 20
24.9113
 30
9.1
 11
-8.88178e-16
 21
24.9
 31
9.1
  0
LINE
  5
ABC
330
A02
100
AcDbEntity
  8
Mesh_cs001
100
AcDbLine
 10
-8.88178e-16
 20
24.9
 30
9.1
 11
0.0170026
 21
24.9
 31
9.1
  0
LINE
  5
ABD
330
A02
100
AcDbEntity
  8
Mesh_cs001
100
AcDbLine
 10
0.0170026
 20
24.9
 30
9.1
 11
19.2537
 21
24.9
 31
9.1
  0
LINE
  5
ABE
330
A02
100
AcDbEntity
  8
Mesh_cs001
100
AcDbLine
 10
19.2537
 20
24.9
 30
9.1
 11
19.9
 21
24.9
 31
9.1
  0
LINE
  5
ABF
330
A02
100
AcDbEntity
  8
Mesh_cs001
100
AcDbLine
 10
19.9
 20
24.9
 30
9.1
 11
20.3213
 21
24.8816
 31
9.1
  0
LINE
  5
AC0
330
A02
100
AcDbEntity
  8
Mesh_cs001
100
AcDbLine
 10
20.3213
 20
24.8816
 30
9.1
 11
20.3358
 21
24.881
 31
9.1
  0
LINE
  5
AC1
330
A02
100
AcDbEntity
  8
Mesh_cs001
100
AcDbLine
 10
20.3358
 20
24.881
 30
9.1
 11
20.7538
 21
24.8259
 31
9.1
  0
LINE
  5
AC2
330
A02
100
AcDbEntity
  8
Mesh_cs001
100
AcDbLine
 10
20.7538
 20
24.8259
 30
9.1
 11
20.7682
 21
24.824
 31
9.1
  0
LINE
  5
AC3
330
A02
100
AcDbEntity
  8
Mesh_cs001
100
AcDbLine
 10
20.7682
 20
24.824
 30
9.1
 11
21.1799
 21
24.7328
 31
9.1
  0
LINE
  5
AC4
330
A02
100
AcDbEntity
  8
Mesh_cs001
100
AcDbLine
 10
21.1799
 20
24.7328
 30
9.1
 11
21.1941
 21
24.7296
 31
9.1
  0
LINE
  5
AC5
330
A02
100
AcDbEntity
  8
Mesh_cs001
100
AcDbLine
 10
21.1941
 20
24.7296
 30
9.1
 11
21.5962
 21
24.6028
 31
9.1
  0
LINE
  5
AC6
330
A02
100
AcDbEntity
  8
Mesh_cs001
100
AcDbLine
 10
21.5962
 20
24.6028
 30
9.1
 11
21.6101
 21
24.5985
 31
9.1
  0
LINE
  5
AC7
330
A02
100
AcDbEntity
  8
Mesh_cs001
100
AcDbLine
 10
21.6101
 20
24.5985
 30
9.1
 11
21.9997
 21
24.4371
 31
9.1
  0
LINE
  5
AC8
330
A02
100
AcDbEntity
  8
Mesh_cs001
100
AcDbLine
 10
21.9997
 20
24.4371
 30
9.1
 11
22.0131
 21
24.4315
 31
9.1
  0
LINE
  5
AC9
330
A02
100
AcDbEntity
  8
Mesh_cs001
100
AcDbLine
 10
22.0131
 20
24.4315
 30
9.1
 11
22.3871
 21
24.2368
 31
9.1
  0
LINE
  5
ACA
330
A02
100
AcDbEntity
  8
Mesh_cs001
100
AcDbLine
 10
22.3871
 20
24.2368
 30
9.1
 11
22.4
 21
24.2301
 31
9.1
  0
LINE
  5
ACB
330
A02
100
AcDbEntity
  8
Mesh_cs001
100
AcDbLine
 10
22.4
 20
24.2301
 30
9.1
 11
22.7556
 21
24.0036
 31
9.1
  0
LINE
  5
ACC
330
A02
100
AcDbEntity
  8
Mesh_cs001
100
AcDbLine
 10
22.7556
 20
24.0036
 30
9.1
 11
22.7679
 21
23.9958
 31
9.1
  0
LINE
  5
ACD
330
A02
100
AcDbEntity
  8
Mesh_cs001
100
AcDbLine
 10
22.7679
 20
23.9958
 30
9.1
 11
22.7794
 21
23.9869
 31
9.1
  0
LINE
  5
ACE
330
A02
100
AcDbEntity
  8
Mesh_cs001
100
AcDbLine
 10
22.7794
 20
23.9869
 30
9.1
 11
23.1139
 21
23.7302
 31
9.1
  0
LINE
  5
ACF
330
A02
100
AcDbEntity
  8
Mesh_cs001
100
AcDbLine
 10
23.1139
 20
23.7302
 30
9.1
 11
23.4248
 21
23.4454
 31
9.1
  0
LINE
  5
AD0
330
A02
100
AcDbEntity
  8
Mesh_cs001
100
AcDbLine
 10
23.4248
 20
23.4454
 30
9.1
 11
23.4355
 21
23.4355
 31
9.1
  0
LINE
  5
AD1
330
A02
100
AcDbEntity
  8
Mesh_cs001
100
AcDbLine
 10
23.4355
 20
23.4355
 30
9.1
 11
23.7204
 21
23.1247
 31
9.1
  0
LINE
  5
AD2
330
A02
100
AcDbEntity
  8
Mesh_cs001
100
AcDbLine
 10
23.7204
 20
23.1247
 30
9.1
 11
23.7302
 21
23.1139
 31
9.1
  0
LINE
  5
AD3
330
A02
100
AcDbEntity
  8
Mesh_cs001
100
AcDbLine
 10
23.7302
 20
23.1139
 30
9.1
 11
23.9869
 21
22.7794
 31
9.1
  0
LINE
  5
AD4
330
A02
100
AcDbEntity
  8
Mesh_cs001
100
AcDbLine
 10
23.9869
 20
22.7794
 30
9.1
 11
23.9958
 21
22.7679
 31
9.1
  0
LINE
  5
AD5
330
A02
100
AcDbEntity
  8
Mesh_cs001
100
AcDbLine
 10
23.9958
 20
22.7679
 30
9.1
 11
24.2223
 21
22.4123
 31
9.1
  0
LINE
  5
AD6
330
A02
100
AcDbEntity
  8
Mesh_cs001
100
AcDbLine
 10
24.2223
 20
22.4123
 30
9.1
 11
24.2301
 21
22.4
 31
9.1
  0
LINE
  5
AD7
330
A02
100
AcDbEntity
  8
Mesh_cs001
100
AcDbLine
 10
24.2301
 20
22.4
 30
9.1
 11
24.4248
 21
22.026
 31
9.1
  0
LINE
  5
AD8
330
A02
100
AcDbEntity
  8
Mesh_cs001
100
AcDbLine
 10
24.4248
 20
22.026
 30
9.1
 11
24.4315
 21
22.0131
 31
9.1
  0
LINE
  5
AD9
330
A02
100
AcDbEntity
  8
Mesh_cs001
100
AcDbLine
 10
24.4315
 20
22.0131
 30
9.1
 11
24.5929
 21
21.6235
 31
9.1
  0
LINE
  5
ADA
330
A02
100
AcDbEntity
  8
Mesh_cs001
100
AcDbLine
 10
24.5929
 20
21.6235
 30
9.1
 11
24.5985
 21
21.6101
 31
9.1
  0
LINE
  5
ADB
330
A02
100
AcDbEntity
  8
Mesh_cs001
100
AcDbLine
 10
24.5985
 20
21.6101
 30
9.1
 11
24.7253
 21
21.208
 31
9.1
  0
LINE
  5
ADC
330
A02
100
AcDbEntity
  8
Mesh_cs001
100
AcDbLine
 10
24.7253
 20
21.208
 30
9.1
 11
24.7296
 21
21.1941
 31
9.1
  0
LINE
  5
ADD
330
A02
100
AcDbEntity
  8
Mesh_cs001
100
AcDbLine
 10
24.7296
 20
21.1941
 30
9.1
 11
24.8209
 21
20.7824
 31
9.1
  0
LINE
  5
ADE
330
A02
100
AcDbEntity
  8
Mesh_cs001
100
AcDbLine
 10
24.8209
 20
20.7824
 30
9.1
 11
24.824
 21
20.7682
 31
9.1
  0
LINE
  5
ADF
330
A02
100
AcDbEntity
  8
Mesh_cs001
100
AcDbLine
 10
24.824
 20
20.7682
 30
9.1
 11
24.8791
 21
20.3502
 31
9.1
  0
LINE
  5
AE0
330
A02
100
AcDbEntity
  8
Mesh_cs001
100
AcDbLine
 10
24.8791
 20
20.3502
 30
9.1
 11
24.881
 21
20.3358
 31
9.1
  0
LINE
  5
AE1
330
A02
100
AcDbEntity
  8
Mesh_cs001
100
AcDbLine
 10
24.881
 20
20.3358
 30
9.1
 11
24.8994
 21
19.9145
 31
9.1
  0
LINE
  5
AE2
330
A02
100
AcDbEntity
  8
Mesh_cs001
100
AcDbLine
 10
24.8994
 20
19.9145
 30
9.1
 11
24.9
 21
19.9
 31
9.1
  0
LINE
  5
AE3
330
A02
100
AcDbEntity
  8
Mesh_cs001
100
AcDbLine
 10
24.9
 20
19.9
 30
9.1
 11
24.9
 21
19.2367
 31
9.1
  0
LINE
  5
AE4
330
A02
100
AcDbEntity
  8
Mesh_cs001
100
AcDbLine
 10
24.9
 20
19.2367
 30
9.1
 11
24.9
 21
3.55271e-15
 31
9.1
  0
LINE
  5
AE5
330
A02
100
AcDbEntity
  8
Mesh_cs001
100
AcDbLine
 10
24.9
 20
3.52311e-15
 30
9.1
 11
27.655
 21
3.4972e-15
 31
9.1
  0
LINE
  5
AE6
330
A02
100
AcDbEntity
  8
Mesh_cs001
100
AcDbLine
 10
27.655
 20
3.4972e-15
 30
9.1
 11
99.8636
 21
2.02061e-15
 31
9.1
  0
LINE
  5
AE7
330
A02
100
AcDbEntity
  8
Mesh_cs001
100
AcDbLine
 10
99.8636
 20
2.02061e-15
 30
9.1
 11
128.818
 21
2.02061e-15
 31
9.1
  0
LINE
  5
AE8
330
A02
100
AcDbEntity
  8
Mesh_cs001
100
AcDbLine
 10
128.818
 20
2.02061e-15
 30
9.1
 11
167.345
 21
1.22125e-16
 31
9.1
  0
LINE
  5
AE9
330
A02
100
AcDbEntity
  8
Mesh_cs001
100
AcDbLine
 10
167.345
 20
1.22125e-16
 30
9.1
 11
170.1
 21
8.88174e-17
 31
9.1
  0
LINE
  5
AEA
330
A02
100
AcDbEntity
  8
Mesh_cs001
100
AcDbLine
 10
170.1
 20
8.88174e-17
 30
9.1
 11
170.1
 21
0.0829302
 31
9.1
  0
LINE
  5
AEB
330
A02
100
AcDbEntity
  8
Mesh_cs001
100
AcDbLine
 10
170.1
 20
0.0829302
 30
9.1
 11
170.1
 21
0.165859
 31
9.1
  0
LINE
  5
AEC
330
A02
100
AcDbEntity
  8
Mesh_cs001
100
AcDbLine
 10
170.1
 20
0.165859
 30
9.1
 11
170.1
 21
0.248785
 31
9.1
  0
LINE
  5
AED
330
A02
100
AcDbEntity
  8
Mesh_cs001
100
AcDbLine
 10
170.1
 20
0.248785
 30
9.1
 11
170.1
 21
0.331707
 31
9.1
  0
LINE
  5
AEE
330
A02
100
AcDbEntity
  8
Mesh_cs001
100
AcDbLine
 10
170.1
 20
0.331707
 30
9.1
 11
170.1
 21
19.5684
 31
9.1
  0
LINE
  5
AEF
330
A02
100
AcDbEntity
  8
Mesh_cs001
100
AcDbLine
 10
170.1
 20
19.5684
 30
9.1
 11
170.1
 21
19.6513
 31
9.1
  0
LINE
  5
AF0
330
A02
100
AcDbEntity
  8
Mesh_cs001
100
AcDbLine
 10
170.1
 20
19.6513
 30
9.1
 11
170.1
 21
19.7342
 31
9.1
  0
LINE
  5
AF1
330
A02
100
AcDbEntity
  8
Mesh_cs001
100
AcDbLine
 10
170.1
 20
19.7342
 30
9.1
 11
170.1
 21
19.8171
 31
9.1
  0
LINE
  5
AF2
330
A02
100
AcDbEntity
  8
Mesh_cs001
100
AcDbLine
 10
170.1
 20
19.8171
 30
9.1
 11
170.1
 21
19.9
 31
9.1
  0
LINE
  5
AF3
330
A02
100
AcDbEntity
  8
Mesh_cs001
100
AcDbLine
 10
170.1
 20
19.9
 30
9.1
 11
170.1
 21
19.9101
 31
9.1
  0
LINE
  5
AF4
330
A02
100
AcDbEntity
  8
Mesh_cs001
100
AcDbLine
 10
170.1
 20
19.9101
 30
9.1
 11
170.116
 21
20.3051
 31
9.1
  0
LINE
  5
AF5
330
A02
100
AcDbEntity
  8
Mesh_cs001
100
AcDbLine
 10
170.116
 20
20.3051
 30
9.1
 11
170.117
 21
20.3152
 31
9.1
  0
LINE
  5
AF6
330
A02
100
AcDbEntity
  8
Mesh_cs001
100
AcDbLine
 10
170.117
 20
20.3152
 30
9.1
 11
170.168
 21
20.7196
 31
9.1
  0
LINE
  5
AF7
330
A02
100
AcDbEntity
  8
Mesh_cs001
100
AcDbLine
 10
170.168
 20
20.7196
 30
9.1
 11
170.17
 21
20.7329
 31
9.1
  0
LINE
  5
AF8
330
A02
100
AcDbEntity
  8
Mesh_cs001
100
AcDbLine
 10
170.17
 20
20.7329
 30
9.1
 11
170.251
 21
21.1184
 31
9.1
  0
LINE
  5
AF9
330
A02
100
AcDbEntity
  8
Mesh_cs001
100
AcDbLine
 10
170.251
 20
21.1184
 30
9.1
 11
170.254
 21
21.1315
 31
9.1
  0
LINE
  5
AFA
330
A02
100
AcDbEntity
  8
Mesh_cs001
100
AcDbLine
 10
170.254
 20
21.1315
 30
9.1
 11
170.366
 21
21.5084
 31
9.1
  0
LINE
  5
AFB
330
A02
100
AcDbEntity
  8
Mesh_cs001
100
AcDbLine
 10
170.366
 20
21.5084
 30
9.1
 11
170.37
 21
21.5212
 31
9.1
  0
LINE
  5
AFC
330
A02
100
AcDbEntity
  8
Mesh_cs001
100
AcDbLine
 10
170.37
 20
21.5212
 30
9.1
 11
170.512
 21
21.8871
 31
9.1
  0
LINE
  5
AFD
330
A02
100
AcDbEntity
  8
Mesh_cs001
100
AcDbLine
 10
170.512
 20
21.8871
 30
9.1
 11
170.517
 21
21.8987
 31
9.1
  0
LINE
  5
AFE
330
A02
100
AcDbEntity
  8
Mesh_cs001
100
AcDbLine
 10
170.517
 20
21.8987
 30
9.1
 11
170.688
 21
22.2513
 31
9.1
  0
LINE
  5
AFF
330
A02
100
AcDbEntity
  8
Mesh_cs001
100
AcDbLine
 10
170.688
 20
22.2513
 30
9.1
 11
170.693
 21
22.2622
 31
9.1
  0
LINE
  5
B00
330
A02
100
AcDbEntity
  8
Mesh_cs001
100
AcDbLine
 10
170.693
 20
22.2622
 30
9.1
 11
170.892
 21
22.5993
 31
9.1
  0
LINE
  5
B01
330
A02
100
AcDbEntity
  8
Mesh_cs001
100
AcDbLine
 10
170.892
 20
22.5993
 30
9.1
 11
170.899
 21
22.6109
 31
9.1
  0
LINE
  5
B02
330
A02
100
AcDbEntity
  8
Mesh_cs001
100
AcDbLine
 10
170.899
 20
22.6109
 30
9.1
 11
171.123
 21
22.9303
 31
9.1
  0
LINE
  5
B03
330
A02
100
AcDbEntity
  8
Mesh_cs001
100
AcDbLine
 10
171.123
 20
22.9303
 30
9.1
 11
171.131
 21
22.9412
 31
9.1
  0
LINE
  5
B04
330
A02
100
AcDbEntity
  8
Mesh_cs001
100
AcDbLine
 10
171.131
 20
22.9412
 30
9.1
 11
171.38
 21
23.241
 31
9.1
  0
LINE
  5
B05
330
A02
100
AcDbEntity
  8
Mesh_cs001
100
AcDbLine
 10
171.38
 20
23.241
 30
9.1
 11
171.389
 21
23.2513
 31
9.1
  0
LINE
  5
B06
330
A02
100
AcDbEntity
  8
Mesh_cs001
100
AcDbLine
 10
171.389
 20
23.2513
 30
9.1
 11
171.661
 21
23.5296
 31
9.1
  0
LINE
  5
B07
330
A02
100
AcDbEntity
  8
Mesh_cs001
100
AcDbLine
 10
171.661
 20
23.5296
 30
9.1
 11
171.671
 21
23.539
 31
9.1
  0
LINE
  5
B08
330
A02
100
AcDbEntity
  8
Mesh_cs001
100
AcDbLine
 10
171.671
 20
23.539
 30
9.1
 11
171.998
 21
23.821
 31
9.1
  0
LINE
  5
B09
330
A02
100
AcDbEntity
  8
Mesh_cs001
100
AcDbLine
 10
171.998
 20
23.821
 30
9.1
 11
172.008
 21
23.8296
 31
9.1
  0
LINE
  5
B0A
330
A02
100
AcDbEntity
  8
Mesh_cs001
100
AcDbLine
 10
172.008
 20
23.8296
 30
9.1
 11
172.358
 21
24.0808
 31
9.1
  0
LINE
  5
B0B
330
A02
100
AcDbEntity
  8
Mesh_cs001
100
AcDbLine
 10
172.358
 20
24.0808
 30
9.1
 11
172.369
 21
24.0886
 31
9.1
  0
LINE
  5
B0C
330
A02
100
AcDbEntity
  8
Mesh_cs001
100
AcDbLine
 10
172.369
 20
24.0886
 30
9.1
 11
172.74
 21
24.3072
 31
9.1
  0
LINE
  5
B0D
330
A02
100
AcDbEntity
  8
Mesh_cs001
100
AcDbLine
 10
172.74
 20
24.3072
 30
9.1
 11
172.751
 21
24.314
 31
9.1
  0
LINE
  5
B0E
330
A02
100
AcDbEntity
  8
Mesh_cs001
100
AcDbLine
 10
172.751
 20
24.314
 30
9.1
 11
172.764
 21
24.3199
 31
9.1
  0
LINE
  5
B0F
330
A02
100
AcDbEntity
  8
Mesh_cs001
100
AcDbLine
 10
172.764
 20
24.3199
 30
9.1
 11
173.151
 21
24.5044
 31
9.1
  0
LINE
  5
B10
330
A02
100
AcDbEntity
  8
Mesh_cs001
100
AcDbLine
 10
173.151
 20
24.5044
 30
9.1
 11
173.163
 21
24.5092
 31
9.1
  0
LINE
  5
B11
330
A02
100
AcDbEntity
  8
Mesh_cs001
100
AcDbLine
 10
173.163
 20
24.5092
 30
9.1
 11
173.565
 21
24.6585
 31
9.1
  0
LINE
  5
B12
330
A02
100
AcDbEntity
  8
Mesh_cs001
100
AcDbLine
 10
173.565
 20
24.6585
 30
9.1
 11
173.578
 21
24.6622
 31
9.1
  0
LINE
  5
B13
330
A02
100
AcDbEntity
  8
Mesh_cs001
100
AcDbLine
 10
173.578
 20
24.6622
 30
9.1
 11
173.99
 21
24.7752
 31
9.1
  0
LINE
  5
B14
330
A02
100
AcDbEntity
  8
Mesh_cs001
100
AcDbLine
 10
173.99
 20
24.7752
 30
9.1
 11
174.003
 21
24.7779
 31
9.1
  0
LINE
  5
B15
330
A02
100
AcDbEntity
  8
Mesh_cs001
100
AcDbLine
 10
174.003
 20
24.7779
 30
9.1
 11
174.423
 21
24.8538
 31
9.1
  0
LINE
  5
B16
330
A02
100
AcDbEntity
  8
Mesh_cs001
100
AcDbLine
 10
174.423
 20
24.8538
 30
9.1
 11
174.436
 21
24.8555
 31
9.1
  0
LINE
  5
B17
330
A02
100
AcDbEntity
  8
Mesh_cs001
100
AcDbLine
 10
174.436
 20
24.8555
 30
9.1
 11
174.765
 21
24.8887
 31
9.1
  0
LINE
  5
B18
330
A02
100
AcDbEntity
  8
Mesh_cs001
100
AcDbLine
 10
174.765
 20
24.8887
 30
9.1
 11
174.778
 21
24.8893
 31
9.1
  0
LINE
  5
B19
330
A02
100
AcDbEntity
  8
Mesh_cs001
100
AcDbLine
 10
174.778
 20
24.8893
 30
9.1
 11
175.1
 21
24.9
 31
9.1
  0
LINE
  5
B1A
330
A02
100
AcDbEntity
  8
Mesh_cs001
100
AcDbLine
 10
175.1
 20
24.9
 30
9.1
 11
175.432
 21
24.9
 31
9.1
  0
LINE
  5
B1B
330
A02
100
AcDbEntity
  8
Mesh_cs001
100
AcDbLine
 10
175.432
 20
24.9
 30
9.1
 11
194.668
 21
24.9
 31
9.1
  0
LINE
  5
B1C
330
A02
100
AcDbEntity
  8
Mesh_cs001
100
AcDbLine
 10
194.668
 20
24.9
 30
9.1
 11
195
 21
24.9
 31
9.1
  0
LINE
  5
B1D
330
A02
100
AcDbEntity
  8
Mesh_cs001
100
AcDbLine
 10
195
 20
24.9
 30
9.1
 11
195.017
 21
25.3126
 31
9.1
  0
LINE
  5
B1E
330
A02
100
AcDbEntity
  8
Mesh_cs001
100
AcDbLine
 10
195.017
 20
25.3126
 30
9.1
 11
195.054
 21
25.6154
 31
9.1
  0
LINE
  5
B1F
330
A02
100
AcDbEntity
  8
Mesh_cs001
100
AcDbLine
 10
195.054
 20
25.6154
 30
9.1
 11
195.068
 21
25.7219
 31
9.1
  0
LINE
  5
B20
330
A02
100
AcDbEntity
  8
Mesh_cs001
100
AcDbLine
 10
195.068
 20
25.7219
 30
9.1
 11
195.137
 21
26.052
 31
9.1
  0
LINE
  5
B21
330
A02
100
AcDbEntity
  8
Mesh_cs001
100
AcDbLine
 10
195.137
 20
26.052
 30
9.1
 11
195.161
 21
26.1568
 31
9.1
  0
LINE
  5
B22
330
A02
100
AcDbEntity
  8
Mesh_cs001
100
AcDbLine
 10
195.161
 20
26.1568
 30
9.1
 11
195.258
 21
26.4785
 31
9.1
  0
LINE
  5
B23
330
A02
100
AcDbEntity
  8
Mesh_cs001
100
AcDbLine
 10
195.258
 20
26.4785
 30
9.1
 11
195.291
 21
26.5808
 31
9.1
  0
LINE
  5
B24
330
A02
100
AcDbEntity
  8
Mesh_cs001
100
AcDbLine
 10
195.291
 20
26.5808
 30
9.1
 11
195.416
 21
26.8918
 31
9.1
  0
LINE
  5
B25
330
A02
100
AcDbEntity
  8
Mesh_cs001
100
AcDbLine
 10
195.416
 20
26.8918
 30
9.1
 11
195.458
 21
26.9907
 31
9.1
  0
LINE
  5
B26
330
A02
100
AcDbEntity
  8
Mesh_cs001
100
AcDbLine
 10
195.458
 20
26.9907
 30
9.1
 11
195.61
 21
27.2889
 31
9.1
  0
LINE
  5
B27
330
A02
100
AcDbEntity
  8
Mesh_cs001
100
AcDbLine
 10
195.61
 20
27.2889
 30
9.1
 11
195.661
 21
27.3837
 31
9.1
  0
LINE
  5
B28
330
A02
100
AcDbEntity
  8
Mesh_cs001
100
AcDbLine
 10
195.661
 20
27.3837
 30
9.1
 11
195.766
 21
27.5588
 31
9.1
  0
LINE
  5
B29
330
A02
100
AcDbEntity
  8
Mesh_cs001
100
AcDbLine
 10
195.766
 20
27.5588
 30
9.1
 11
195.825
 21
27.6488
 31
9.1
  0
LINE
  5
B2A
330
A02
100
AcDbEntity
  8
Mesh_cs001
100
AcDbLine
 10
195.825
 20
27.6488
 30
9.1
 11
195.938
 21
27.8151
 31
9.1
  0
LINE
  5
B2B
330
A02
100
AcDbEntity
  8
Mesh_cs001
100
AcDbLine
 10
195.938
 20
27.8151
 30
9.1
 11
196.151
 21
30.7641
 31
9.1
  0
LINE
  5
B2C
330
A02
100
AcDbEntity
  8
Mesh_cs001
100
AcDbLine
 10
196.151
 20
30.7641
 30
9.1
 11
196.219
 21
31.7039
 31
9.1
  0
LINE
  5
B2D
330
A02
100
AcDbEntity
  8
Mesh_cs001
100
AcDbLine
 10
196.219
 20
31.7039
 30
9.1
 11
196.295
 21
32.643
 31
9.1
  0
LINE
  5
B2E
330
A02
100
AcDbEntity
  8
Mesh_cs001
100
AcDbLine
 10
196.295
 20
32.643
 30
9.1
 11
196.536
 21
35.5899
 31
9.1
  0
LINE
  5
B2F
330
A02
100
AcDbEntity
  8
Mesh_cs001
100
AcDbLine
 10
196.536
 20
35.5899
 30
9.1
 11
196.805
 21
38.5344
 31
9.1
  0
LINE
  5
B30
330
A02
100
AcDbEntity
  8
Mesh_cs001
100
AcDbLine
 10
196.805
 20
38.5344
 30
9.1
 11
196.891
 21
39.4727
 31
9.1
  0
LINE
  5
B31
330
A02
100
AcDbEntity
  8
Mesh_cs001
100
AcDbLine
 10
196.891
 20
39.4727
 30
9.1
 11
196.985
 21
40.4103
 31
9.1
  0
LINE
  5
B32
330
A02
100
AcDbEntity
  8
Mesh_cs001
100
AcDbLine
 10
196.985
 20
40.4103
 30
9.1
 11
197.282
 21
43.3521
 31
9.1
  0
LINE
  5
B33
330
A02
100
AcDbEntity
  8
Mesh_cs001
100
AcDbLine
 10
197.282
 20
43.3521
 30
9.1
 11
197.606
 21
46.291
 31
9.1
  0
LINE
  5
B34
330
A02
100
AcDbEntity
  8
Mesh_cs001
100
AcDbLine
 10
197.606
 20
46.291
 30
9.1
 11
197.709
 21
47.2275
 31
9.1
  0
LINE
  5
B35
330
A02
100
AcDbEntity
  8
Mesh_cs001
100
AcDbLine
 10
197.709
 20
47.2275
 30
9.1
 11
197.821
 21
48.1631
 31
9.1
  0
LINE
  5
B36
330
A02
100
AcDbEntity
  8
Mesh_cs001
100
AcDbLine
 10
197.821
 20
48.1631
 30
9.1
 11
198.173
 21
51.0988
 31
9.1
  0
LINE
  5
B37
330
A02
100
AcDbEntity
  8
Mesh_cs001
100
AcDbLine
 10
198.173
 20
51.0988
 30
9.1
 11
198.553
 21
54.031
 31
9.1
  0
LINE
  5
B38
330
A02
100
AcDbEntity
  8
Mesh_cs001
100
AcDbLine
 10
198.553
 20
54.031
 30
9.1
 11
198.674
 21
54.9655
 31
9.1
  0
LINE
  5
B39
330
A02
100
AcDbEntity
  8
Mesh_cs001
100
AcDbLine
 10
198.674
 20
54.9655
 30
9.1
 11
199.081
 21
57.894
 31
9.1
  0
LINE
  5
B3A
330
A02
100
AcDbEntity
  8
Mesh_cs001
100
AcDbLine
 10
199.081
 20
57.894
 30
9.1
 11
199.211
 21
58.8273
 31
9.1
  0
LINE
  5
B3B
330
A02
100
AcDbEntity
  8
Mesh_cs001
100
AcDbLine
 10
199.211
 20
58.8273
 30
9.1
 11
199.35
 21
59.7593
 31
9.1
  0
LINE
  5
B3C
330
A02
100
AcDbEntity
  8
Mesh_cs001
100
AcDbLine
 10
199.35
 20
59.7593
 30
9.1
 11
199.785
 21
62.6838
 31
9.1
  0
LINE
  5
B3D
330
A02
100
AcDbEntity
  8
Mesh_cs001
100
AcDbLine
 10
199.785
 20
62.6838
 30
9.1
 11
199.932
 21
63.6145
 31
9.1
  0
LINE
  5
B3E
330
A02
100
AcDbEntity
  8
Mesh_cs001
100
AcDbLine
 10
199.932
 20
63.6145
 30
9.1
 11
200.394
 21
66.5348
 31
9.1
  0
LINE
  5
B3F
330
A02
100
AcDbEntity
  8
Mesh_cs001
100
AcDbLine
 10
200.394
 20
66.5348
 30
9.1
 11
200.885
 21
69.4506
 31
9.1
  0
LINE
  5
B40
330
A02
100
AcDbEntity
  8
Mesh_cs001
100
AcDbLine
 10
200.885
 20
69.4506
 30
9.1
 11
201.041
 21
70.3798
 31
9.1
  0
LINE
  5
B41
330
A02
100
AcDbEntity
  8
Mesh_cs001
100
AcDbLine
 10
201.041
 20
70.3798
 30
9.1
 11
201.206
 21
71.3075
 31
9.1
  0
LINE
  5
B42
330
A02
100
AcDbEntity
  8
Mesh_cs001
100
AcDbLine
 10
201.206
 20
71.3075
 30
9.1
 11
201.723
 21
74.2186
 31
9.1
  0
LINE
  5
B43
330
A02
100
AcDbEntity
  8
Mesh_cs001
100
AcDbLine
 10
201.723
 20
74.2186
 30
9.1
 11
201.897
 21
75.1447
 31
9.1
  0
LINE
  5
B44
330
A02
100
AcDbEntity
  8
Mesh_cs001
100
AcDbLine
 10
201.897
 20
75.1447
 30
9.1
 11
202.442
 21
78.0508
 31
9.1
  0
LINE
  5
B45
330
A02
100
AcDbEntity
  8
Mesh_cs001
100
AcDbLine
 10
202.442
 20
78.0508
 30
9.1
 11
202.624
 21
78.9752
 31
9.1
  0
LINE
  5
B46
330
A02
100
AcDbEntity
  8
Mesh_cs001
100
AcDbLine
 10
202.624
 20
78.9752
 30
9.1
 11
203.197
 21
81.876
 31
9.1
  0
LINE
  5
B47
330
A02
100
AcDbEntity
  8
Mesh_cs001
100
AcDbLine
 10
203.197
 20
81.876
 30
9.1
 11
203.388
 21
82.7986
 31
9.1
  0
LINE
  5
B48
330
A02
100
AcDbEntity
  8
Mesh_cs001
100
AcDbLine
 10
203.388
 20
82.7986
 30
9.1
 11
203.988
 21
85.6939
 31
9.1
  0
LINE
  5
B49
330
A02
100
AcDbEntity
  8
Mesh_cs001
100
AcDbLine
 10
203.988
 20
85.6939
 30
9.1
 11
204.188
 21
86.6147
 31
9.1
  0
LINE
  5
B4A
330
A02
100
AcDbEntity
  8
Mesh_cs001
100
AcDbLine
 10
204.188
 20
86.6147
 30
9.1
 11
204.815
 21
89.5041
 31
9.1
  0
LINE
  5
B4B
330
A02
100
AcDbEntity
  8
Mesh_cs001
100
AcDbLine
 10
204.815
 20
89.5041
 30
9.1
 11
205.023
 21
90.423
 31
9.1
  0
LINE
  5
B4C
330
A02
100
AcDbEntity
  8
Mesh_cs001
100
AcDbLine
 10
205.023
 20
90.423
 30
9.1
 11
205.678
 21
93.3064
 31
9.1
  0
LINE
  5
B4D
330
A02
100
AcDbEntity
  8
Mesh_cs001
100
AcDbLine
 10
205.678
 20
93.3064
 30
9.1
 11
205.895
 21
94.2233
 31
9.1
  0
LINE
  5
B4E
330
A02
100
AcDbEntity
  8
Mesh_cs001
100
AcDbLine
 10
205.895
 20
94.2233
 30
9.1
 11
206.576
 21
97.1004
 31
9.1
  0
LINE
  5
B4F
330
A02
100
AcDbEntity
  8
Mesh_cs001
100
AcDbLine
 10
206.576
 20
97.1004
 30
9.1
 11
206.802
 21
98.0152
 31
9.1
  0
LINE
  5
B50
330
A02
100
AcDbEntity
  8
Mesh_cs001
100
AcDbLine
 10
206.802
 20
98.0152
 30
9.1
 11
207.511
 21
100.886
 31
9.1
  0
LINE
  5
B51
330
A02
100
AcDbEntity
  8
Mesh_cs001
100
AcDbLine
 10
207.511
 20
100.886
 30
9.1
 11
207.464
 21
101.054
 31
9.1
  0
LINE
  5
B52
330
A02
100
AcDbEntity
  8
Mesh_cs001
100
AcDbLine
 10
207.464
 20
101.054
 30
9.1
 11
207.385
 21
101.361
 31
9.1
  0
LINE
  5
B53
330
A02
100
AcDbEntity
  8
Mesh_cs001
100
AcDbLine
 10
207.385
 20
101.361
 30
9.1
 11
207.339
 21
101.619
 31
9.1
  0
LINE
  5
B54
330
A02
100
AcDbEntity
  8
Mesh_cs001
100
AcDbLine
 10
207.339
 20
101.619
 30
9.1
 11
207.324
 21
101.705
 31
9.1
  0
LINE
  5
B55
330
A02
100
AcDbEntity
  8
Mesh_cs001
100
AcDbLine
 10
207.324
 20
101.705
 30
9.1
 11
207.3
 21
101.941
 31
9.1
  0
LINE
  5
B56
330
A02
100
AcDbEntity
  8
Mesh_cs001
100
AcDbLine
 10
207.3
 20
101.941
 30
9.1
 11
207.285
 21
102.11
 31
9.1
  0
LINE
  5
B57
330
A02
100
AcDbEntity
  8
Mesh_cs001
100
AcDbLine
 10
207.285
 20
102.11
 30
9.1
 11
207.282
 21
102.209
 31
9.1
  0
LINE
  5
B58
330
A02
100
AcDbEntity
  8
Mesh_cs001
100
AcDbLine
 10
207.282
 20
102.209
 30
9.1
 11
207.276
 21
102.36
 31
9.1
  0
LINE
  5
B59
330
A02
100
AcDbEntity
  8
Mesh_cs001
100
AcDbLine
 10
207.276
 20
102.36
 30
9.1
 11
207.275
 21
102.424
 31
9.1
  0
LINE
  5
B5A
330
A02
100
AcDbEntity
  8
Mesh_cs001
100
AcDbLine
 10
207.275
 20
102.424
 30
9.1
 11
207.285
 21
102.624
 31
9.1
  0
LINE
  5
B5B
330
A02
100
AcDbEntity
  8
Mesh_cs001
100
AcDbLine
 10
207.285
 20
102.624
 30
9.1
 11
207.294
 21
102.83
 31
9.1
  0
LINE
  5
B5C
330
A02
100
AcDbEntity
  8
Mesh_cs001
100
AcDbLine
 10
207.294
 20
102.83
 30
9.1
 11
207.324
 21
103.052
 31
9.1
  0
LINE
  5
B5D
330
A02
100
AcDbEntity
  8
Mesh_cs001
100
AcDbLine
 10
207.324
 20
103.052
 30
9.1
 11
207.366
 21
103.352
 31
9.1
  0
LINE
  5
B5E
330
A02
100
AcDbEntity
  8
Mesh_cs001
100
AcDbLine
 10
14.9
 20
14.9
 30
9.1
 11
14.9
 21
0.496668
 31
9.1
  0
LINE
  5
B5F
330
A02
100
AcDbEntity
  8
Mesh_cs001
100
AcDbLine
 10
14.9
 20
0.496668
 30
9.1
 11
14.9
 21
1.9984e-15
 31
9.1
  0
LINE
  5
B60
330
A02
100
AcDbEntity
  8
Mesh_cs001
100
AcDbLine
 10
14.9
 20
2.02061e-15
 30
9.1
 11
14.4033
 21
3.21721e-15
 31
9.1
  0
LINE
  5
B61
330
A02
100
AcDbEntity
  8
Mesh_cs001
100
AcDbLine
 10
14.4033
 20
3.21721e-15
 30
9.1
 11
0
 21
3.82406e-14
 31
9.1
  0
LINE
  5
B62
330
A02
100
AcDbEntity
  8
Mesh_cs001
100
AcDbLine
 10
0
 20
3.82406e-14
 30
9.1
 11
0
 21
14.4033
 31
9.1
  0
LINE
  5
B63
330
A02
100
AcDbEntity
  8
Mesh_cs001
100
AcDbLine
 10
0
 20
14.4033
 30
9.1
 11
-1.77161e-17
 21
14.9
 31
9.1
  0
LINE
  5
B64
330
A02
100
AcDbEntity
  8
Mesh_cs001
100
AcDbLine
 10
-1.77161e-17
 20
14.9
 30
9.1
 11
14.4094
 21
14.9
 31
9.1
  0
LINE
  5
B65
330
A02
100
AcDbEntity
  8
Mesh_cs001
100
AcDbLine
 10
14.4094
 20
14.9
 30
9.1
 11
14.9
 21
14.9
 31
9.1
  0
LINE
  5
B66
330
A02
100
AcDbEntity
  8
Mesh_cs001
100
AcDbLine
 10
195
 20
14.9
 30
9.1
 11
195
 21
14.7758
 31
9.1
  0
LINE
  5
B67
330
A02
100
AcDbEntity
  8
Mesh_cs001
100
AcDbLine
 10
195
 20
14.7758
 30
9.1
 11
195
 21
14.6516
 31
9.1
  0
LINE
  5
B68
330
A02
100
AcDbEntity
  8
Mesh_cs001
100
AcDbLine
 10
195
 20
14.6516
 30
9.1
 11
195
 21
5.64866
 31
9.1
  0
LINE
  5
B69
330
A02
100
AcDbEntity
  8
Mesh_cs001
100
AcDbLine
 10
195
 20
5.64866
 30
9.1
 11
195
 21
2.82422
 31
9.1
  0
LINE
  5
B6A
330
A02
100
AcDbEntity
  8
Mesh_cs001
100
AcDbLine
 10
195
 20
2.82422
 30
9.1
 11
195
 21
2.22045e-15
 31
9.1
  0
LINE
  5
B6B
330
A02
100
AcDbEntity
  8
Mesh_cs001
100
AcDbLine
 10
195
 20
2.02061e-15
 30
9.1
 11
180.597
 21
1.484e-15
 31
9.1
  0
LINE
  5
B6C
330
A02
100
AcDbEntity
  8
Mesh_cs001
100
AcDbLine
 10
180.597
 20
1.484e-15
 30
9.1
 11
180.1
 21
1.484e-15
 31
9.1
  0
LINE
  5
B6D
330
A02
100
AcDbEntity
  8
Mesh_cs001
100
AcDbLine
 10
180.1
 20
1.484e-15
 30
9.1
 11
180.1
 21
0.124178
 31
9.1
  0
LINE
  5
B6E
330
A02
100
AcDbEntity
  8
Mesh_cs001
100
AcDbLine
 10
180.1
 20
0.124178
 30
9.1
 11
180.1
 21
0.248351
 31
9.1
  0
LINE
  5
B6F
330
A02
100
AcDbEntity
  8
Mesh_cs001
100
AcDbLine
 10
180.1
 20
0.248351
 30
9.1
 11
180.1
 21
14.6517
 31
9.1
  0
LINE
  5
B70
330
A02
100
AcDbEntity
  8
Mesh_cs001
100
AcDbLine
 10
180.1
 20
14.6517
 30
9.1
 11
180.1
 21
14.7758
 31
9.1
  0
LINE
  5
B71
330
A02
100
AcDbEntity
  8
Mesh_cs001
100
AcDbLine
 10
180.1
 20
14.7758
 30
9.1
 11
180.1
 21
14.9
 31
9.1
  0
LINE
  5
B72
330
A02
100
AcDbEntity
  8
Mesh_cs001
100
AcDbLine
 10
180.1
 20
14.9
 30
9.1
 11
180.597
 21
14.9
 31
9.1
  0
LINE
  5
B73
330
A02
100
AcDbEntity
  8
Mesh_cs001
100
AcDbLine
 10
180.597
 20
14.9
 30
9.1
 11
195
 21
14.9
 31
9.1
  0
LINE
  5
B74
330
A02
100
AcDbEntity
  8
Mesh_cs001
100
AcDbLine
 10
39.3248
 20
169.112
 30
9.1
 11
38.8583
 21
169.264
 31
9.1
  0
LINE
  5
B75
330
A02
100
AcDbEntity
  8
Mesh_cs001
100
AcDbLine
 10
38.8583
 20
169.264
 30
9.1
 11
25.1541
 21
173.717
 31
9.1
  0
LINE
  5
B76
330
A02
100
AcDbEntity
  8
Mesh_cs001
100
AcDbLine
 10
25.1541
 20
173.717
 30
9.1
 11
25.3076
 21
174.189
 31
9.1
  0
LINE
  5
B77
330
A02
100
AcDbEntity
  8
Mesh_cs001
100
AcDbLine
 10
25.3076
 20
174.189
 30
9.1
 11
29.7585
 21
187.887
 31
9.1
  0
LINE
  5
B78
330
A02
100
AcDbEntity
  8
Mesh_cs001
100
AcDbLine
 10
29.7585
 20
187.887
 30
9.1
 11
43.4568
 21
183.437
 31
9.1
  0
LINE
  5
B79
330
A02
100
AcDbEntity
  8
Mesh_cs001
100
AcDbLine
 10
43.4568
 20
183.437
 30
9.1
 11
43.9292
 21
183.283
 31
9.1
  0
LINE
  5
B7A
330
A02
100
AcDbEntity
  8
Mesh_cs001
100
AcDbLine
 10
43.9292
 20
183.283
 30
9.1
 11
43.7757
 21
182.811
 31
9.1
  0
LINE
  5
B7B
330
A02
100
AcDbEntity
  8
Mesh_cs001
100
AcDbLine
 10
43.7757
 20
182.811
 30
9.1
 11
39.3248
 21
169.112
 31
9.1
  0
LINE
  5
B7C
330
A02
100
AcDbEntity
  8
Mesh_cs001
100
AcDbLine
 10
210.61
 20
113.458
 30
9.1
 11
210.648
 21
113.576
 31
9.1
  0
LINE
  5
B7D
330
A02
100
AcDbEntity
  8
Mesh_cs001
100
AcDbLine
 10
210.648
 20
113.576
 30
9.1
 11
210.687
 21
113.695
 31
9.1
  0
LINE
  5
B7E
330
A02
100
AcDbEntity
  8
Mesh_cs001
100
AcDbLine
 10
210.687
 20
113.695
 30
9.1
 11
213.469
 21
122.256
 31
9.1
  0
LINE
  5
B7F
330
A02
100
AcDbEntity
  8
Mesh_cs001
100
AcDbLine
 10
213.469
 20
122.256
 30
9.1
 11
214.341
 21
124.942
 31
9.1
  0
LINE
  5
B80
330
A02
100
AcDbEntity
  8
Mesh_cs001
100
AcDbLine
 10
214.341
 20
124.942
 30
9.1
 11
215.214
 21
127.629
 31
9.1
  0
LINE
  5
B81
330
A02
100
AcDbEntity
  8
Mesh_cs001
100
AcDbLine
 10
215.214
 20
127.629
 30
9.1
 11
201.516
 21
132.08
 31
9.1
  0
LINE
  5
B82
330
A02
100
AcDbEntity
  8
Mesh_cs001
100
AcDbLine
 10
201.516
 20
132.08
 30
9.1
 11
201.044
 21
132.234
 31
9.1
  0
LINE
  5
B83
330
A02
100
AcDbEntity
  8
Mesh_cs001
100
AcDbLine
 10
201.044
 20
132.234
 30
9.1
 11
201.005
 21
132.115
 31
9.1
  0
LINE
  5
B84
330
A02
100
AcDbEntity
  8
Mesh_cs001
100
AcDbLine
 10
201.005
 20
132.115
 30
9.1
 11
200.967
 21
131.997
 31
9.1
  0
LINE
  5
B85
330
A02
100
AcDbEntity
  8
Mesh_cs001
100
AcDbLine
 10
200.967
 20
131.997
 30
9.1
 11
196.516
 21
118.299
 31
9.1
  0
LINE
  5
B86
330
A02
100
AcDbEntity
  8
Mesh_cs001
100
AcDbLine
 10
196.516
 20
118.299
 30
9.1
 11
196.478
 21
118.181
 31
9.1
  0
LINE
  5
B87
330
A02
100
AcDbEntity
  8
Mesh_cs001
100
AcDbLine
 10
196.478
 20
118.181
 30
9.1
 11
196.439
 21
118.063
 31
9.1
  0
LINE
  5
B88
330
A02
100
AcDbEntity
  8
Mesh_cs001
100
AcDbLine
 10
196.439
 20
118.063
 30
9.1
 11
196.912
 21
117.909
 31
9.1
  0
LINE
  5
B89
330
A02
100
AcDbEntity
  8
Mesh_cs001
100
AcDbLine
 10
196.912
 20
117.909
 30
9.1
 11
210.61
 21
113.458
 31
9.1
  0
ENDSEC
  0
SECTION
  2
OBJECTS
  0
DICTIONARY
  5
F000
330
0
100
AcDbDictionary
  3
ACAD_GROUP
350
F001
  0
DICTIONARY
  5
F001
330
F000
100
AcDbDictionary
  0
ENDSEC
  0
EOF