999
FreeCAD v0.21 33771 (Git)
  0
SECTION
  2
HEADER
  9
$ACADVER
  1
AC1014
  9
$ACADMAINTVER
 70
     9
  9
$DWGCODEPAGE
  3
ANSI_1252
  9
$TEXTSTYLE
  7
STANDARD
  9
$DIMSTYLE
  2
STANDARD
  9
$DIMTXSTY
  7
STANDARD
  9
$CMLSTYLE
  2
STANDARD
  9
$LUNITS
 70
2
  9
$INSUNITS
 70
4
  9
$PEXTMAX
 10
50
 20
50
 30
50
  9
$PEXTMIN
 10
0
 20
0
 30
0
  9
$HANDSEED
  5
FFFF
  0
ENDSEC
  0
SECTION
  2
CLASSES
  0
CLASS
  1
ACDBDICTIONARYWDFLT
  2
AcDbDictionaryWithDefault
  3
ObjectDBX Classes
 90
        0
280
     0
281
     0
  0
CLASS
  1
XRECORD
  2
AcDbXrecord
  3
ObjectDBX Classes
 90
        0
280
     0
281
     0
  0
CLASS
  1
LWPOLYLINE
  2
AcDbPolyline
  3
ObjectDBX Classes
 90
        0
280
     0
281
     1
  0
ENDSEC
  0
SECTION
  2
TABLES
  0
TABLE
  2
VPORT
  5
20
330
0
100
AcDbSymbolTable
 70
     1
  0
VPORT
  5
21
330
20
100
AcDbSymbolTableRecord
100
AcDbViewportTableRecord
  2
*ACTIVE
 70
     0
  0
ENDTAB
  0
TABLE
  2
LTYPE
  5
22
330
0
100
AcDbSymbolTable
 70
     1
  0
LTYPE
  5
23
330
21
100
AcDbSymbolTableRecord
100
AcDbLinetypeTableRecord
  2
BYBLOCK
 70
     0
  3

 72
    65
 73
     0
 40
0.0
  0
LTYPE
  5
24
330
21
100
AcDbSymbolTableRecord
100
AcDbLinetypeTableRecord
  2
BYLAYER
 70
     0
  3

 72
    65
 73
     0
 40
0.0
  0
LTYPE
  5
25
330
21
100
AcDbSymbolTableRecord
100
AcDbLinetypeTableRecord
  2
CONTINUOUS
 70
     0
  3
Solid line
 72
    65
 73
     0
 40
0.0
  0
ENDTAB
  0
TABLE
  2
LAYER
  5
ABB
330
0
100
AcDbSymbolTable
 70
3
  0
LAYER
  5
ABC
330
ABB
100
AcDbSymbolTableRecord
100
AcDbLayerTableRecord
  2
0
 70
   0
 62
   7
  6
CONTINUOUS
  0
LAYER
  5
ABD
330
ABB
100
AcDbSymbolTableRecord
100
AcDbLayerTableRecord
  2
none
 70
    0
 62
    7
  6
CONTINUOUS
  0
LAYER
  5
ABE
330
ABB
100
AcDbSymbolTableRecord
100
AcDbLayerTableRecord
  2
Mesh_cs003
 70
    0
 62
    7
  6
CONTINUOUS
  0
ENDTAB
  0
TABLE
  2
STYLE
  5
70
330
0
100
AcDbSymbolTable
 70
     2
  0
STYLE
  5
71
330
70
100
AcDbSymbolTableRecord
100
AcDbTextStyleTableRecord
  2
STANDARD
 70
     0
 40
0.0
 41
1.0
 50
0.0
 71
     0
 42
2.5
  3
arial.ttf
  4

  0
STYLE
  5
72
330
70
100
AcDbSymbolTableRecord
100
AcDbTextStyleTableRecord
  2
ANNOTATIVE
 70
     0
 40
0.0
 41
1.0
 50
0.0
 71
     0
 42
2.5
  3
arial.ttf
  4

  0
ENDTAB
  0
TABLE
  2
VIEW
  5
73
330
0
100
AcDbSymbolTable
 70
     0
  0
ENDTAB
  0
TABLE
  2
UCS
  5
74
330
0
100
AcDbSymbolTable
 70
     0
  0
ENDTAB
  0
TABLE
  2
APPID
  5
75
330
0
100
AcDbSymbolTable
 70
     2
  0
APPID
  5
76
330
75
100
AcDbSymbolTableRecord
100
AcDbRegAppTableRecord
  2
ACAD
 70
     0
  0
APPID
  5
77
330
75
100
AcDbSymbolTableRecord
100
AcDbRegAppTableRecord
  2
ACADANNOTATIVE
 70
     0
  0
ENDTAB
  0
TABLE
  2
DIMSTYLE
  5
78
330
0
100
AcDbSymbolTable
 70
     2
  0
DIMSTYLE
105
79
330
78
100
AcDbSymbolTableRecord
100
AcDbDimStyleTableRecord
  2
STANDARD
 70
     0
  3

  4

  5

  6

  7

 40
0.0
 41
2.5
 42
0.625
 43
3.75
 44
1.25
 45
0.0
 46
0.0
 47
0.0
 48
0.0
140
2.5
141
2.5
142
0.0
143
0.03937007874016
144
1.0
145
0.0
146
1.0
147
0.625
 71
     0
 72
     0
 73
     0
 74
     0
 75
     0
 76
     0
 77
     1
 78
     8
170
     0
171
     3
172
     1
173
     0
174
     0
175
     0
176
     0
177
     0
178
     0
270
     2
271
     2
272
     2
273
     2
274
     3
340
71
275
     0
280
     0
281
     0
282
     0
283
     0
284
     8
285
     0
286
     0
287
     3
288
     0
  0
ENDTAB
  0
TABLE
  2
BLOCK_RECORD
  5
A01
330
0
100
AcDbSymbolTable
  70
5
  0
BLOCK_RECORD
  5
A02
330
A01
100
AcDbSymbolTableRecord
100
AcDbBlockTableRecord
  2
*MODEL_SPACE
  0
BLOCK_RECORD
  5
A03
330
A01
100
AcDbSymbolTableRecord
100
AcDbBlockTableRecord
  2
*PAPER_SPACE
  0
ENDTAB
  0
ENDSEC
  0
SECTION
  2
BLOCKS
  0
BLOCK
  5
A04
330
A02
100
AcDbEntity
  8
0
100
AcDbBlockBegin
  2
*MODEL_SPACE
 70
   0
 10
0
 20
0
 30
0
  3
*MODEL_SPACE
  1
 
  0
ENDBLK
  5
A05
330
A02
100
AcDbEntity
  8
0
100
AcDbBlockEnd
  0
BLOCK
  5
A06
330
A03
100
AcDbEntity
 67
1
  8
0
100
AcDbBlockBegin
  2
*PAPER_SPACE
 70
   0
 10
0
 20
0
 30
0
  3
*PAPER_SPACE
  1
 
  0
ENDBLK
  5
A07
330
A03
100
AcDbEntity
 67
    1
  8
0
100
AcDbBlockEnd
  0
ENDSEC
  0
SECTION
  2
ENTITIES
  0
LINE
  5
A08
330
A02
100
AcDbEntity
  8
Mesh_cs003
100
AcDbLine
 10
367.338
 20
435.697
 30
0.0999999
 11
367.349
 21
435.736
 31
0.0999999
  0
LINE
  5
A09
330
A02
100
AcDbEntity
  8
Mesh_cs003
100
AcDbLine
 10
367.349
 20
435.736
 30
0.0999999
 11
368.644
 21
440.417
 31
0.0999999
  0
LINE
  5
A0A
330
A02
100
AcDbEntity
  8
Mesh_cs003
100
AcDbLine
 10
368.644
 20
440.417
 30
0.0999999
 11
368.654
 21
440.457
 31
0.0999999
  0
LINE
  5
A0B
330
A02
100
AcDbEntity
  8
Mesh_cs003
100
AcDbLine
 10
368.654
 20
440.457
 30
0.0999999
 11
369.911
 21
445.148
 31
0.0999999
  0
LINE
  5
A0C
330
A02
100
AcDbEntity
  8
Mesh_cs003
100
AcDbLine
 10
369.911
 20
445.148
 30
0.0999999
 11
369.921
 21
445.187
 31
0.0999999
  0
LINE
  5
A0D
330
A02
100
AcDbEntity
  8
Mesh_cs003
100
AcDbLine
 10
369.921
 20
445.187
 30
0.0999999
 11
371.141
 21
449.889
 31
0.0999999
  0
LINE
  5
A0E
330
A02
100
AcDbEntity
  8
Mesh_cs003
100
AcDbLine
 10
371.141
 20
449.889
 30
0.0999999
 11
371.151
 21
449.928
 31
0.0999999
  0
LINE
  5
A0F
330
A02
100
AcDbEntity
  8
Mesh_cs003
100
AcDbLine
 10
371.151
 20
449.928
 30
0.0999999
 11
372.332
 21
454.639
 31
0.0999999
  0
LINE
  5
A10
330
A02
100
AcDbEntity
  8
Mesh_cs003
100
AcDbLine
 10
372.332
 20
454.639
 30
0.0999999
 11
372.342
 21
454.679
 31
0.0999999
  0
LINE
  5
A11
330
A02
100
AcDbEntity
  8
Mesh_cs003
100
AcDbLine
 10
372.342
 20
454.679
 30
0.0999999
 11
373.485
 21
459.4
 31
0.0999999
  0
LINE
  5
A12
330
A02
100
AcDbEntity
  8
Mesh_cs003
100
AcDbLine
 10
373.485
 20
459.4
 30
0.0999999
 11
373.494
 21
459.439
 31
0.0999999
  0
LINE
  5
A13
330
A02
100
AcDbEntity
  8
Mesh_cs003
100
AcDbLine
 10
373.494
 20
459.439
 30
0.0999999
 11
374.599
 21
464.169
 31
0.0999999
  0
LINE
  5
A14
330
A02
100
AcDbEntity
  8
Mesh_cs003
100
AcDbLine
 10
374.599
 20
464.169
 30
0.0999999
 11
374.608
 21
464.208
 31
0.0999999
  0
LINE
  5
A15
330
A02
100
AcDbEntity
  8
Mesh_cs003
100
AcDbLine
 10
374.608
 20
464.208
 30
0.0999999
 11
375.676
 21
468.947
 31
0.0999999
  0
LINE
  5
A16
330
A02
100
AcDbEntity
  8
Mesh_cs003
100
AcDbLine
 10
375.676
 20
468.947
 30
0.0999999
 11
375.684
 21
468.986
 31
0.0999999
  0
LINE
  5
A17
330
A02
100
AcDbEntity
  8
Mesh_cs003
100
AcDbLine
 10
375.684
 20
468.986
 30
0.0999999
 11
376.713
 21
473.733
 31
0.0999999
  0
LINE
  5
A18
330
A02
100
AcDbEntity
  8
Mesh_cs003
100
AcDbLine
 10
376.713
 20
473.733
 30
0.0999999
 11
376.721
 21
473.773
 31
0.0999999
  0
LINE
  5
A19
330
A02
100
AcDbEntity
  8
Mesh_cs003
100
AcDbLine
 10
376.721
 20
473.773
 30
0.0999999
 11
377.712
 21
478.528
 31
0.0999999
  0
LINE
  5
A1A
330
A02
100
AcDbEntity
  8
Mesh_cs003
100
AcDbLine
 10
377.712
 20
478.528
 30
0.0999999
 11
377.72
 21
478.568
 31
0.0999999
  0
LINE
  5
A1B
330
A02
100
AcDbEntity
  8
Mesh_cs003
100
AcDbLine
 10
377.72
 20
478.568
 30
0.0999999
 11
378.672
 21
483.331
 31
0.0999999
  0
LINE
  5
A1C
330
A02
100
AcDbEntity
  8
Mesh_cs003
100
AcDbLine
 10
378.672
 20
483.331
 30
0.0999999
 11
378.68
 21
483.371
 31
0.0999999
  0
LINE
  5
A1D
330
A02
100
AcDbEntity
  8
Mesh_cs003
100
AcDbLine
 10
378.68
 20
483.371
 30
0.0999999
 11
379.594
 21
488.141
 31
0.0999999
  0
LINE
  5
A1E
330
A02
100
AcDbEntity
  8
Mesh_cs003
100
AcDbLine
 10
379.594
 20
488.141
 30
0.0999999
 11
379.601
 21
488.181
 31
0.0999999
  0
LINE
  5
A1F
330
A02
100
AcDbEntity
  8
Mesh_cs003
100
AcDbLine
 10
379.601
 20
488.181
 30
0.0999999
 11
380.477
 21
492.958
 31
0.0999999
  0
LINE
  5
A20
330
A02
100
AcDbEntity
  8
Mesh_cs003
100
AcDbLine
 10
380.477
 20
492.958
 30
0.0999999
 11
380.484
 21
492.998
 31
0.0999999
  0
LINE
  5
A21
330
A02
100
AcDbEntity
  8
Mesh_cs003
100
AcDbLine
 10
380.484
 20
492.998
 30
0.0999999
 11
381.321
 21
497.783
 31
0.0999999
  0
LINE
  5
A22
330
A02
100
AcDbEntity
  8
Mesh_cs003
100
AcDbLine
 10
381.321
 20
497.783
 30
0.0999999
 11
381.328
 21
497.823
 31
0.0999999
  0
LINE
  5
A23
330
A02
100
AcDbEntity
  8
Mesh_cs003
100
AcDbLine
 10
381.328
 20
497.823
 30
0.0999999
 11
382.126
 21
502.614
 31
0.0999999
  0
LINE
  5
A24
330
A02
100
AcDbEntity
  8
Mesh_cs003
100
AcDbLine
 10
382.126
 20
502.614
 30
0.0999999
 11
382.132
 21
502.654
 31
0.0999999
  0
LINE
  5
A25
330
A02
100
AcDbEntity
  8
Mesh_cs003
100
AcDbLine
 10
382.132
 20
502.654
 30
0.0999999
 11
382.892
 21
507.451
 31
0.0999999
  0
LINE
  5
A26
330
A02
100
AcDbEntity
  8
Mesh_cs003
100
AcDbLine
 10
382.892
 20
507.451
 30
0.0999999
 11
382.898
 21
507.491
 31
0.0999999
  0
LINE
  5
A27
330
A02
100
AcDbEntity
  8
Mesh_cs003
100
AcDbLine
 10
382.898
 20
507.491
 30
0.0999999
 11
383.619
 21
512.294
 31
0.0999999
  0
LINE
  5
A28
330
A02
100
AcDbEntity
  8
Mesh_cs003
100
AcDbLine
 10
383.619
 20
512.294
 30
0.0999999
 11
383.625
 21
512.335
 31
0.0999999
  0
LINE
  5
A29
330
A02
100
AcDbEntity
  8
Mesh_cs003
100
AcDbLine
 10
383.625
 20
512.335
 30
0.0999999
 11
384.308
 21
517.143
 31
0.0999999
  0
LINE
  5
A2A
330
A02
100
AcDbEntity
  8
Mesh_cs003
100
AcDbLine
 10
384.308
 20
517.143
 30
0.0999999
 11
384.313
 21
517.184
 31
0.0999999
  0
LINE
  5
A2B
330
A02
100
AcDbEntity
  8
Mesh_cs003
100
AcDbLine
 10
384.313
 20
517.184
 30
0.0999999
 11
384.957
 21
521.998
 31
0.0999999
  0
LINE
  5
A2C
330
A02
100
AcDbEntity
  8
Mesh_cs003
100
AcDbLine
 10
384.957
 20
521.998
 30
0.0999999
 11
384.962
 21
522.038
 31
0.0999999
  0
LINE
  5
A2D
330
A02
100
AcDbEntity
  8
Mesh_cs003
100
AcDbLine
 10
384.962
 20
522.038
 30
0.0999999
 11
385.567
 21
526.858
 31
0.0999999
  0
LINE
  5
A2E
330
A02
100
AcDbEntity
  8
Mesh_cs003
100
AcDbLine
 10
385.567
 20
526.858
 30
0.0999999
 11
385.571
 21
526.898
 31
0.0999999
  0
LINE
  5
A2F
330
A02
100
AcDbEntity
  8
Mesh_cs003
100
AcDbLine
 10
385.571
 20
526.898
 30
0.0999999
 11
386.137
 21
531.722
 31
0.0999999
  0
LINE
  5
A30
330
A02
100
AcDbEntity
  8
Mesh_cs003
100
AcDbLine
 10
386.137
 20
531.722
 30
0.0999999
 11
386.142
 21
531.762
 31
0.0999999
  0
LINE
  5
A31
330
A02
100
AcDbEntity
  8
Mesh_cs003
100
AcDbLine
 10
386.142
 20
531.762
 30
0.0999999
 11
386.669
 21
536.591
 31
0.0999999
  0
LINE
  5
A32
330
A02
100
AcDbEntity
  8
Mesh_cs003
100
AcDbLine
 10
386.669
 20
536.591
 30
0.0999999
 11
386.673
 21
536.631
 31
0.0999999
  0
LINE
  5
A33
330
A02
100
AcDbEntity
  8
Mesh_cs003
100
AcDbLine
 10
386.673
 20
536.631
 30
0.0999999
 11
387.161
 21
541.463
 31
0.0999999
  0
LINE
  5
A34
330
A02
100
AcDbEntity
  8
Mesh_cs003
100
AcDbLine
 10
387.161
 20
541.463
 30
0.0999999
 11
387.165
 21
541.504
 31
0.0999999
  0
LINE
  5
A35
330
A02
100
AcDbEntity
  8
Mesh_cs003
100
AcDbLine
 10
387.165
 20
541.504
 30
0.0999999
 11
387.614
 21
546.34
 31
0.0999999
  0
LINE
  5
A36
330
A02
100
AcDbEntity
  8
Mesh_cs003
100
AcDbLine
 10
387.614
 20
546.34
 30
0.0999999
 11
387.618
 21
546.381
 31
0.0999999
  0
LINE
  5
A37
330
A02
100
AcDbEntity
  8
Mesh_cs003
100
AcDbLine
 10
387.618
 20
546.381
 30
0.0999999
 11
388.028
 21
551.22
 31
0.0999999
  0
LINE
  5
A38
330
A02
100
AcDbEntity
  8
Mesh_cs003
100
AcDbLine
 10
388.028
 20
551.22
 30
0.0999999
 11
388.031
 21
551.261
 31
0.0999999
  0
LINE
  5
A39
330
A02
100
AcDbEntity
  8
Mesh_cs003
100
AcDbLine
 10
388.031
 20
551.261
 30
0.0999999
 11
388.403
 21
556.104
 31
0.0999999
  0
LINE
  5
A3A
330
A02
100
AcDbEntity
  8
Mesh_cs003
100
AcDbLine
 10
388.403
 20
556.104
 30
0.0999999
 11
388.405
 21
556.144
 31
0.0999999
  0
LINE
  5
A3B
330
A02
100
AcDbEntity
  8
Mesh_cs003
100
AcDbLine
 10
388.405
 20
556.144
 30
0.0999999
 11
388.738
 21
560.99
 31
0.0999999
  0
LINE
  5
A3C
330
A02
100
AcDbEntity
  8
Mesh_cs003
100
AcDbLine
 10
388.738
 20
560.99
 30
0.0999999
 11
388.74
 21
561.031
 31
0.0999999
  0
LINE
  5
A3D
330
A02
100
AcDbEntity
  8
Mesh_cs003
100
AcDbLine
 10
388.74
 20
561.031
 30
0.0999999
 11
389.033
 21
565.879
 31
0.0999999
  0
LINE
  5
A3E
330
A02
100
AcDbEntity
  8
Mesh_cs003
100
AcDbLine
 10
389.033
 20
565.879
 30
0.0999999
 11
389.036
 21
565.919
 31
0.0999999
  0
LINE
  5
A3F
330
A02
100
AcDbEntity
  8
Mesh_cs003
100
AcDbLine
 10
389.036
 20
565.919
 30
0.0999999
 11
389.29
 21
570.77
 31
0.0999999
  0
LINE
  5
A40
330
A02
100
AcDbEntity
  8
Mesh_cs003
100
AcDbLine
 10
389.29
 20
570.77
 30
0.0999999
 11
389.292
 21
570.823
 31
0.0999999
  0
LINE
  5
A41
330
A02
100
AcDbEntity
  8
Mesh_cs003
100
AcDbLine
 10
389.292
 20
570.823
 30
0.0999999
 11
389.507
 21
575.661
 31
0.0999999
  0
LINE
  5
A42
330
A02
100
AcDbEntity
  8
Mesh_cs003
100
AcDbLine
 10
389.507
 20
575.661
 30
0.0999999
 11
389.508
 21
575.692
 31
0.0999999
  0
LINE
  5
A43
330
A02
100
AcDbEntity
  8
Mesh_cs003
100
AcDbLine
 10
389.508
 20
575.692
 30
0.0999999
 11
389.683
 21
580.532
 31
0.0999999
  0
LINE
  5
A44
330
A02
100
AcDbEntity
  8
Mesh_cs003
100
AcDbLine
 10
389.683
 20
580.532
 30
0.0999999
 11
389.684
 21
580.563
 31
0.0999999
  0
LINE
  5
A45
330
A02
100
AcDbEntity
  8
Mesh_cs003
100
AcDbLine
 10
389.684
 20
580.563
 30
0.0999999
 11
389.821
 21
585.405
 31
0.0999999
  0
LINE
  5
A46
330
A02
100
AcDbEntity
  8
Mesh_cs003
100
AcDbLine
 10
389.821
 20
585.405
 30
0.0999999
 11
389.822
 21
585.454
 31
0.0999999
  0
LINE
  5
A47
330
A02
100
AcDbEntity
  8
Mesh_cs003
100
AcDbLine
 10
389.822
 20
585.454
 30
0.0999999
 11
389.92
 21
590.296
 31
0.0999999
  0
LINE
  5
A48
330
A02
100
AcDbEntity
  8
Mesh_cs003
100
AcDbLine
 10
389.92
 20
590.296
 30
0.0999999
 11
389.921
 21
590.342
 31
0.0999999
  0
LINE
  5
A49
330
A02
100
AcDbEntity
  8
Mesh_cs003
100
AcDbLine
 10
389.921
 20
590.342
 30
0.0999999
 11
389.921
 21
590.373
 31
0.0999999
  0
LINE
  5
A4A
330
A02
100
AcDbEntity
  8
Mesh_cs003
100
AcDbLine
 10
389.921
 20
590.373
 30
0.0999999
 11
389.98
 21
595.229
 31
0.0999999
  0
LINE
  5
A4B
330
A02
100
AcDbEntity
  8
Mesh_cs003
100
AcDbLine
 10
389.98
 20
595.229
 30
0.0999999
 11
389.98
 21
595.26
 31
0.0999999
  0
LINE
  5
A4C
330
A02
100
AcDbEntity
  8
Mesh_cs003
100
AcDbLine
 10
389.98
 20
595.26
 30
0.0999999
 11
390
 21
600.117
 31
0.0999999
  0
LINE
  5
A4D
330
A02
100
AcDbEntity
  8
Mesh_cs003
100
AcDbLine
 10
390
 20
600.117
 30
0.0999999
 11
390
 21
600.148
 31
0.0999999
  0
LINE
  5
A4E
330
A02
100
AcDbEntity
  8
Mesh_cs003
100
AcDbLine
 10
390
 20
600.148
 30
0.0999999
 11
389.834
 21
600.148
 31
0.0999999
  0
LINE
  5
A4F
330
A02
100
AcDbEntity
  8
Mesh_cs003
100
AcDbLine
 10
389.834
 20
600.148
 30
0.0999999
 11
389.723
 21
600.148
 31
0.0999999
  0
LINE
  5
A50
330
A02
100
AcDbEntity
  8
Mesh_cs003
100
AcDbLine
 10
389.723
 20
600.148
 30
0.0999999
 11
389.273
 21
600.148
 31
0.0999999
  0
LINE
  5
A51
330
A02
100
AcDbEntity
  8
Mesh_cs003
100
AcDbLine
 10
389.273
 20
600.148
 30
0.0999999
 11
388.955
 21
600.148
 31
0.0999999
  0
LINE
  5
A52
330
A02
100
AcDbEntity
  8
Mesh_cs003
100
AcDbLine
 10
388.955
 20
600.148
 30
0.0999999
 11
388.11
 21
600.148
 31
0.0999999
  0
LINE
  5
A53
330
A02
100
AcDbEntity
  8
Mesh_cs003
100
AcDbLine
 10
388.11
 20
600.148
 30
0.0999999
 11
195.277
 21
600.148
 31
0.0999999
  0
LINE
  5
A54
330
A02
100
AcDbEntity
  8
Mesh_cs003
100
AcDbLine
 10
195.277
 20
600.148
 30
0.0999999
 11
195.166
 21
600.148
 31
0.0999999
  0
LINE
  5
A55
330
A02
100
AcDbEntity
  8
Mesh_cs003
100
AcDbLine
 10
195.166
 20
600.148
 30
0.0999999
 11
195
 21
600.148
 31
0.0999999
  0
LINE
  5
A56
330
A02
100
AcDbEntity
  8
Mesh_cs003
100
AcDbLine
 10
195
 20
600.148
 30
0.0999999
 11
195
 21
599.983
 31
0.0999999
  0
LINE
  5
A57
330
A02
100
AcDbEntity
  8
Mesh_cs003
100
AcDbLine
 10
195
 20
599.983
 30
0.0999999
 11
195
 21
575.359
 31
0.0999999
  0
LINE
  5
A58
330
A02
100
AcDbEntity
  8
Mesh_cs003
100
AcDbLine
 10
195
 20
575.359
 30
0.0999999
 11
195
 21
575.248
 31
0.0999999
  0
LINE
  5
A59
330
A02
100
AcDbEntity
  8
Mesh_cs003
100
AcDbLine
 10
195
 20
575.248
 30
0.0999999
 11
195
 21
573.027
 31
0.0999999
  0
LINE
  5
A5A
330
A02
100
AcDbEntity
  8
Mesh_cs003
100
AcDbLine
 10
195
 20
573.027
 30
0.0999999
 11
195
 21
300.355
 31
0.0999999
  0
LINE
  5
A5B
330
A02
100
AcDbEntity
  8
Mesh_cs003
100
AcDbLine
 10
195
 20
300.355
 30
0.0999999
 11
195
 21
300.074
 31
0.0999999
  0
LINE
  5
A5C
330
A02
100
AcDbEntity
  8
Mesh_cs003
100
AcDbLine
 10
195
 20
300.074
 30
0.0999999
 11
195.129
 21
299.981
 31
0.0999999
  0
LINE
  5
A5D
330
A02
100
AcDbEntity
  8
Mesh_cs003
100
AcDbLine
 10
195.129
 20
299.981
 30
0.0999999
 11
195.653
 21
299.6
 31
0.0999999
  0
LINE
  5
A5E
330
A02
100
AcDbEntity
  8
Mesh_cs003
100
AcDbLine
 10
195.653
 20
299.6
 30
0.0999999
 11
273.655
 21
242.928
 31
0.0999999
  0
LINE
  5
A5F
330
A02
100
AcDbEntity
  8
Mesh_cs003
100
AcDbLine
 10
273.655
 20
242.928
 30
0.0999999
 11
273.745
 21
242.862
 31
0.0999999
  0
LINE
  5
A60
330
A02
100
AcDbEntity
  8
Mesh_cs003
100
AcDbLine
 10
273.745
 20
242.862
 30
0.0999999
 11
273.879
 21
242.765
 31
0.0999999
  0
LINE
  5
A61
330
A02
100
AcDbEntity
  8
Mesh_cs003
100
AcDbLine
 10
273.879
 20
242.765
 30
0.0999999
 11
273.897
 21
242.79
 31
0.0999999
  0
LINE
  5
A62
330
A02
100
AcDbEntity
  8
Mesh_cs003
100
AcDbLine
 10
273.897
 20
242.79
 30
0.0999999
 11
276.736
 21
246.731
 31
0.0999999
  0
LINE
  5
A63
330
A02
100
AcDbEntity
  8
Mesh_cs003
100
AcDbLine
 10
276.736
 20
246.731
 30
0.0999999
 11
276.754
 21
246.756
 31
0.0999999
  0
LINE
  5
A64
330
A02
100
AcDbEntity
  8
Mesh_cs003
100
AcDbLine
 10
276.754
 20
246.756
 30
0.0999999
 11
279.562
 21
250.72
 31
0.0999999
  0
LINE
  5
A65
330
A02
100
AcDbEntity
  8
Mesh_cs003
100
AcDbLine
 10
279.562
 20
250.72
 30
0.0999999
 11
279.579
 21
250.745
 31
0.0999999
  0
LINE
  5
A66
330
A02
100
AcDbEntity
  8
Mesh_cs003
100
AcDbLine
 10
279.579
 20
250.745
 30
0.0999999
 11
279.605
 21
250.782
 31
0.0999999
  0
LINE
  5
A67
330
A02
100
AcDbEntity
  8
Mesh_cs003
100
AcDbLine
 10
279.605
 20
250.782
 30
0.0999999
 11
282.373
 21
254.757
 31
0.0999999
  0
LINE
  5
A68
330
A02
100
AcDbEntity
  8
Mesh_cs003
100
AcDbLine
 10
282.373
 20
254.757
 30
0.0999999
 11
282.4
 21
254.798
 31
0.0999999
  0
LINE
  5
A69
330
A02
100
AcDbEntity
  8
Mesh_cs003
100
AcDbLine
 10
282.4
 20
254.798
 30
0.0999999
 11
285.136
 21
258.795
 31
0.0999999
  0
LINE
  5
A6A
330
A02
100
AcDbEntity
  8
Mesh_cs003
100
AcDbLine
 10
285.136
 20
258.795
 30
0.0999999
 11
285.153
 21
258.821
 31
0.0999999
  0
LINE
  5
A6B
330
A02
100
AcDbEntity
  8
Mesh_cs003
100
AcDbLine
 10
285.153
 20
258.821
 30
0.0999999
 11
287.856
 21
262.84
 31
0.0999999
  0
LINE
  5
A6C
330
A02
100
AcDbEntity
  8
Mesh_cs003
100
AcDbLine
 10
287.856
 20
262.84
 30
0.0999999
 11
287.873
 21
262.865
 31
0.0999999
  0
LINE
  5
A6D
330
A02
100
AcDbEntity
  8
Mesh_cs003
100
AcDbLine
 10
287.873
 20
262.865
 30
0.0999999
 11
290.544
 21
266.906
 31
0.0999999
  0
LINE
  5
A6E
330
A02
100
AcDbEntity
  8
Mesh_cs003
100
AcDbLine
 10
290.544
 20
266.906
 30
0.0999999
 11
290.573
 21
266.95
 31
0.0999999
  0
LINE
  5
A6F
330
A02
100
AcDbEntity
  8
Mesh_cs003
100
AcDbLine
 10
290.573
 20
266.95
 30
0.0999999
 11
293.218
 21
271.024
 31
0.0999999
  0
LINE
  5
A70
330
A02
100
AcDbEntity
  8
Mesh_cs003
100
AcDbLine
 10
293.218
 20
271.024
 30
0.0999999
 11
293.24
 21
271.058
 31
0.0999999
  0
LINE
  5
A71
330
A02
100
AcDbEntity
  8
Mesh_cs003
100
AcDbLine
 10
293.24
 20
271.058
 30
0.0999999
 11
295.853
 21
275.152
 31
0.0999999
  0
LINE
  5
A72
330
A02
100
AcDbEntity
  8
Mesh_cs003
100
AcDbLine
 10
295.853
 20
275.152
 30
0.0999999
 11
295.875
 21
275.187
 31
0.0999999
  0
LINE
  5
A73
330
A02
100
AcDbEntity
  8
Mesh_cs003
100
AcDbLine
 10
295.875
 20
275.187
 30
0.0999999
 11
298.454
 21
279.302
 31
0.0999999
  0
LINE
  5
A74
330
A02
100
AcDbEntity
  8
Mesh_cs003
100
AcDbLine
 10
298.454
 20
279.302
 30
0.0999999
 11
298.476
 21
279.337
 31
0.0999999
  0
LINE
  5
A75
330
A02
100
AcDbEntity
  8
Mesh_cs003
100
AcDbLine
 10
298.476
 20
279.337
 30
0.0999999
 11
301.022
 21
283.473
 31
0.0999999
  0
LINE
  5
A76
330
A02
100
AcDbEntity
  8
Mesh_cs003
100
AcDbLine
 10
301.022
 20
283.473
 30
0.0999999
 11
301.043
 21
283.508
 31
0.0999999
  0
LINE
  5
A77
330
A02
100
AcDbEntity
  8
Mesh_cs003
100
AcDbLine
 10
301.043
 20
283.508
 30
0.0999999
 11
303.556
 21
287.664
 31
0.0999999
  0
LINE
  5
A78
330
A02
100
AcDbEntity
  8
Mesh_cs003
100
AcDbLine
 10
303.556
 20
287.664
 30
0.0999999
 11
303.577
 21
287.699
 31
0.0999999
  0
LINE
  5
A79
330
A02
100
AcDbEntity
  8
Mesh_cs003
100
AcDbLine
 10
303.577
 20
287.699
 30
0.0999999
 11
306.056
 21
291.876
 31
0.0999999
  0
LINE
  5
A7A
330
A02
100
AcDbEntity
  8
Mesh_cs003
100
AcDbLine
 10
306.056
 20
291.876
 30
0.0999999
 11
306.077
 21
291.911
 31
0.0999999
  0
LINE
  5
A7B
330
A02
100
AcDbEntity
  8
Mesh_cs003
100
AcDbLine
 10
306.077
 20
291.911
 30
0.0999999
 11
308.522
 21
296.107
 31
0.0999999
  0
LINE
  5
A7C
330
A02
100
AcDbEntity
  8
Mesh_cs003
100
AcDbLine
 10
308.522
 20
296.107
 30
0.0999999
 11
308.543
 21
296.142
 31
0.0999999
  0
LINE
  5
A7D
330
A02
100
AcDbEntity
  8
Mesh_cs003
100
AcDbLine
 10
308.543
 20
296.142
 30
0.0999999
 11
310.954
 21
300.358
 31
0.0999999
  0
LINE
  5
A7E
330
A02
100
AcDbEntity
  8
Mesh_cs003
100
AcDbLine
 10
310.954
 20
300.358
 30
0.0999999
 11
310.974
 21
300.394
 31
0.0999999
  0
LINE
  5
A7F
330
A02
100
AcDbEntity
  8
Mesh_cs003
100
AcDbLine
 10
310.974
 20
300.394
 30
0.0999999
 11
313.352
 21
304.629
 31
0.0999999
  0
LINE
  5
A80
330
A02
100
AcDbEntity
  8
Mesh_cs003
100
AcDbLine
 10
313.352
 20
304.629
 30
0.0999999
 11
313.372
 21
304.664
 31
0.0999999
  0
LINE
  5
A81
330
A02
100
AcDbEntity
  8
Mesh_cs003
100
AcDbLine
 10
313.372
 20
304.664
 30
0.0999999
 11
315.715
 21
308.919
 31
0.0999999
  0
LINE
  5
A82
330
A02
100
AcDbEntity
  8
Mesh_cs003
100
AcDbLine
 10
315.715
 20
308.919
 30
0.0999999
 11
315.735
 21
308.954
 31
0.0999999
  0
LINE
  5
A83
330
A02
100
AcDbEntity
  8
Mesh_cs003
100
AcDbLine
 10
315.735
 20
308.954
 30
0.0999999
 11
318.044
 21
313.227
 31
0.0999999
  0
LINE
  5
A84
330
A02
100
AcDbEntity
  8
Mesh_cs003
100
AcDbLine
 10
318.044
 20
313.227
 30
0.0999999
 11
318.063
 21
313.263
 31
0.0999999
  0
LINE
  5
A85
330
A02
100
AcDbEntity
  8
Mesh_cs003
100
AcDbLine
 10
318.063
 20
313.263
 30
0.0999999
 11
320.337
 21
317.555
 31
0.0999999
  0
LINE
  5
A86
330
A02
100
AcDbEntity
  8
Mesh_cs003
100
AcDbLine
 10
320.337
 20
317.555
 30
0.0999999
 11
320.356
 21
317.591
 31
0.0999999
  0
LINE
  5
A87
330
A02
100
AcDbEntity
  8
Mesh_cs003
100
AcDbLine
 10
320.356
 20
317.591
 30
0.0999999
 11
322.596
 21
321.9
 31
0.0999999
  0
LINE
  5
A88
330
A02
100
AcDbEntity
  8
Mesh_cs003
100
AcDbLine
 10
322.596
 20
321.9
 30
0.0999999
 11
322.615
 21
321.937
 31
0.0999999
  0
LINE
  5
A89
330
A02
100
AcDbEntity
  8
Mesh_cs003
100
AcDbLine
 10
322.615
 20
321.937
 30
0.0999999
 11
324.82
 21
326.264
 31
0.0999999
  0
LINE
  5
A8A
330
A02
100
AcDbEntity
  8
Mesh_cs003
100
AcDbLine
 10
324.82
 20
326.264
 30
0.0999999
 11
324.838
 21
326.3
 31
0.0999999
  0
LINE
  5
A8B
330
A02
100
AcDbEntity
  8
Mesh_cs003
100
AcDbLine
 10
324.838
 20
326.3
 30
0.0999999
 11
327.008
 21
330.646
 31
0.0999999
  0
LINE
  5
A8C
330
A02
100
AcDbEntity
  8
Mesh_cs003
100
AcDbLine
 10
327.008
 20
330.646
 30
0.0999999
 11
327.027
 21
330.682
 31
0.0999999
  0
LINE
  5
A8D
330
A02
100
AcDbEntity
  8
Mesh_cs003
100
AcDbLine
 10
327.027
 20
330.682
 30
0.0999999
 11
329.162
 21
335.045
 31
0.0999999
  0
LINE
  5
A8E
330
A02
100
AcDbEntity
  8
Mesh_cs003
100
AcDbLine
 10
329.162
 20
335.045
 30
0.0999999
 11
329.18
 21
335.081
 31
0.0999999
  0
LINE
  5
A8F
330
A02
100
AcDbEntity
  8
Mesh_cs003
100
AcDbLine
 10
329.18
 20
335.081
 30
0.0999999
 11
331.279
 21
339.461
 31
0.0999999
  0
LINE
  5
A90
330
A02
100
AcDbEntity
  8
Mesh_cs003
100
AcDbLine
 10
331.279
 20
339.461
 30
0.0999999
 11
331.297
 21
339.498
 31
0.0999999
  0
LINE
  5
A91
330
A02
100
AcDbEntity
  8
Mesh_cs003
100
AcDbLine
 10
331.297
 20
339.498
 30
0.0999999
 11
333.361
 21
343.894
 31
0.0999999
  0
LINE
  5
A92
330
A02
100
AcDbEntity
  8
Mesh_cs003
100
AcDbLine
 10
333.361
 20
343.894
 30
0.0999999
 11
333.379
 21
343.931
 31
0.0999999
  0
LINE
  5
A93
330
A02
100
AcDbEntity
  8
Mesh_cs003
100
AcDbLine
 10
333.379
 20
343.931
 30
0.0999999
 11
335.408
 21
348.344
 31
0.0999999
  0
LINE
  5
A94
330
A02
100
AcDbEntity
  8
Mesh_cs003
100
AcDbLine
 10
335.408
 20
348.344
 30
0.0999999
 11
335.425
 21
348.381
 31
0.0999999
  0
LINE
  5
A95
330
A02
100
AcDbEntity
  8
Mesh_cs003
100
AcDbLine
 10
335.425
 20
348.381
 30
0.0999999
 11
337.418
 21
352.81
 31
0.0999999
  0
LINE
  5
A96
330
A02
100
AcDbEntity
  8
Mesh_cs003
100
AcDbLine
 10
337.418
 20
352.81
 30
0.0999999
 11
337.435
 21
352.847
 31
0.0999999
  0
LINE
  5
A97
330
A02
100
AcDbEntity
  8
Mesh_cs003
100
AcDbLine
 10
337.435
 20
352.847
 30
0.0999999
 11
339.392
 21
357.292
 31
0.0999999
  0
LINE
  5
A98
330
A02
100
AcDbEntity
  8
Mesh_cs003
100
AcDbLine
 10
339.392
 20
357.292
 30
0.0999999
 11
339.409
 21
357.329
 31
0.0999999
  0
LINE
  5
A99
330
A02
100
AcDbEntity
  8
Mesh_cs003
100
AcDbLine
 10
339.409
 20
357.329
 30
0.0999999
 11
341.331
 21
361.79
 31
0.0999999
  0
LINE
  5
A9A
330
A02
100
AcDbEntity
  8
Mesh_cs003
100
AcDbLine
 10
341.331
 20
361.79
 30
0.0999999
 11
341.347
 21
361.827
 31
0.0999999
  0
LINE
  5
A9B
330
A02
100
AcDbEntity
  8
Mesh_cs003
100
AcDbLine
 10
341.347
 20
361.827
 30
0.0999999
 11
343.232
 21
366.303
 31
0.0999999
  0
LINE
  5
A9C
330
A02
100
AcDbEntity
  8
Mesh_cs003
100
AcDbLine
 10
343.232
 20
366.303
 30
0.0999999
 11
343.248
 21
366.341
 31
0.0999999
  0
LINE
  5
A9D
330
A02
100
AcDbEntity
  8
Mesh_cs003
100
AcDbLine
 10
343.248
 20
366.341
 30
0.0999999
 11
345.098
 21
370.832
 31
0.0999999
  0
LINE
  5
A9E
330
A02
100
AcDbEntity
  8
Mesh_cs003
100
AcDbLine
 10
345.098
 20
370.832
 30
0.0999999
 11
345.113
 21
370.869
 31
0.0999999
  0
LINE
  5
A9F
330
A02
100
AcDbEntity
  8
Mesh_cs003
100
AcDbLine
 10
345.113
 20
370.869
 30
0.0999999
 11
346.927
 21
375.375
 31
0.0999999
  0
LINE
  5
AA0
330
A02
100
AcDbEntity
  8
Mesh_cs003
100
AcDbLine
 10
346.927
 20
375.375
 30
0.0999999
 11
346.942
 21
375.413
 31
0.0999999
  0
LINE
  5
AA1
330
A02
100
AcDbEntity
  8
Mesh_cs003
100
AcDbLine
 10
346.942
 20
375.413
 30
0.0999999
 11
348.719
 21
379.933
 31
0.0999999
  0
LINE
  5
AA2
330
A02
100
AcDbEntity
  8
Mesh_cs003
100
AcDbLine
 10
348.719
 20
379.933
 30
0.0999999
 11
348.734
 21
379.971
 31
0.0999999
  0
LINE
  5
AA3
330
A02
100
AcDbEntity
  8
Mesh_cs003
100
AcDbLine
 10
348.734
 20
379.971
 30
0.0999999
 11
350.474
 21
384.505
 31
0.0999999
  0
LINE
  5
AA4
330
A02
100
AcDbEntity
  8
Mesh_cs003
100
AcDbLine
 10
350.474
 20
384.505
 30
0.0999999
 11
350.489
 21
384.543
 31
0.0999999
  0
LINE
  5
AA5
330
A02
100
AcDbEntity
  8
Mesh_cs003
100
AcDbLine
 10
350.489
 20
384.543
 30
0.0999999
 11
352.193
 21
389.091
 31
0.0999999
  0
LINE
  5
AA6
330
A02
100
AcDbEntity
  8
Mesh_cs003
100
AcDbLine
 10
352.193
 20
389.091
 30
0.0999999
 11
352.207
 21
389.13
 31
0.0999999
  0
LINE
  5
AA7
330
A02
100
AcDbEntity
  8
Mesh_cs003
100
AcDbLine
 10
352.207
 20
389.13
 30
0.0999999
 11
353.875
 21
393.691
 31
0.0999999
  0
LINE
  5
AA8
330
A02
100
AcDbEntity
  8
Mesh_cs003
100
AcDbLine
 10
353.875
 20
393.691
 30
0.0999999
 11
353.889
 21
393.73
 31
0.0999999
  0
LINE
  5
AA9
330
A02
100
AcDbEntity
  8
Mesh_cs003
100
AcDbLine
 10
353.889
 20
393.73
 30
0.0999999
 11
355.519
 21
398.305
 31
0.0999999
  0
LINE
  5
AAA
330
A02
100
AcDbEntity
  8
Mesh_cs003
100
AcDbLine
 10
355.519
 20
398.305
 30
0.0999999
 11
355.533
 21
398.343
 31
0.0999999
  0
LINE
  5
AAB
330
A02
100
AcDbEntity
  8
Mesh_cs003
100
AcDbLine
 10
355.533
 20
398.343
 30
0.0999999
 11
357.126
 21
402.931
 31
0.0999999
  0
LINE
  5
AAC
330
A02
100
AcDbEntity
  8
Mesh_cs003
100
AcDbLine
 10
357.126
 20
402.931
 30
0.0999999
 11
357.14
 21
402.97
 31
0.0999999
  0
LINE
  5
AAD
330
A02
100
AcDbEntity
  8
Mesh_cs003
100
AcDbLine
 10
357.14
 20
402.97
 30
0.0999999
 11
358.696
 21
407.57
 31
0.0999999
  0
LINE
  5
AAE
330
A02
100
AcDbEntity
  8
Mesh_cs003
100
AcDbLine
 10
358.696
 20
407.57
 30
0.0999999
 11
358.709
 21
407.609
 31
0.0999999
  0
LINE
  5
AAF
330
A02
100
AcDbEntity
  8
Mesh_cs003
100
AcDbLine
 10
358.709
 20
407.609
 30
0.0999999
 11
360.229
 21
412.222
 31
0.0999999
  0
LINE
  5
AB0
330
A02
100
AcDbEntity
  8
Mesh_cs003
100
AcDbLine
 10
360.229
 20
412.222
 30
0.0999999
 11
360.242
 21
412.261
 31
0.0999999
  0
LINE
  5
AB1
330
A02
100
AcDbEntity
  8
Mesh_cs003
100
AcDbLine
 10
360.242
 20
412.261
 30
0.0999999
 11
360.254
 21
412.3
 31
0.0999999
  0
LINE
  5
AB2
330
A02
100
AcDbEntity
  8
Mesh_cs003
100
AcDbLine
 10
360.254
 20
412.3
 30
0.0999999
 11
361.736
 21
416.925
 31
0.0999999
  0
LINE
  5
AB3
330
A02
100
AcDbEntity
  8
Mesh_cs003
100
AcDbLine
 10
361.736
 20
416.925
 30
0.0999999
 11
361.748
 21
416.964
 31
0.0999999
  0
LINE
  5
AB4
330
A02
100
AcDbEntity
  8
Mesh_cs003
100
AcDbLine
 10
361.748
 20
416.964
 30
0.0999999
 11
363.193
 21
421.601
 31
0.0999999
  0
LINE
  5
AB5
330
A02
100
AcDbEntity
  8
Mesh_cs003
100
AcDbLine
 10
363.193
 20
421.601
 30
0.0999999
 11
363.205
 21
421.64
 31
0.0999999
  0
LINE
  5
AB6
330
A02
100
AcDbEntity
  8
Mesh_cs003
100
AcDbLine
 10
363.205
 20
421.64
 30
0.0999999
 11
364.613
 21
426.288
 31
0.0999999
  0
LINE
  5
AB7
330
A02
100
AcDbEntity
  8
Mesh_cs003
100
AcDbLine
 10
364.613
 20
426.288
 30
0.0999999
 11
364.624
 21
426.327
 31
0.0999999
  0
LINE
  5
AB8
330
A02
100
AcDbEntity
  8
Mesh_cs003
100
AcDbLine
 10
364.624
 20
426.327
 30
0.0999999
 11
365.994
 21
430.987
 31
0.0999999
  0
LINE
  5
AB9
330
A02
100
AcDbEntity
  8
Mesh_cs003
100
AcDbLine
 10
365.994
 20
430.987
 30
0.0999999
 11
366.005
 21
431.026
 31
0.0999999
  0
LINE
  5
ABA
330
A02
100
AcDbEntity
  8
Mesh_cs003
100
AcDbLine
 10
366.005
 20
431.026
 30
0.0999999
 11
367.338
 21
435.697
 31
0.0999999
  0
ENDSEC
  0
SECTION
  2
OBJECTS
  0
DICTIONARY
  5
F000
330
0
100
AcDbDictionary
  3
ACAD_GROUP
350
F001
  0
DICTIONARY
  5
F001
330
F000
100
AcDbDictionary
  0
ENDSEC
  0
EOF