999
FreeCAD v0.21 33771 (Git)
  0
SECTION
  2
HEADER
  9
$ACADVER
  1
AC1014
  9
$ACADMAINTVER
 70
     9
  9
$DWGCODEPAGE
  3
ANSI_1252
  9
$TEXTSTYLE
  7
STANDARD
  9
$DIMSTYLE
  2
STANDARD
  9
$DIMTXSTY
  7
STANDARD
  9
$CMLSTYLE
  2
STANDARD
  9
$LUNITS
 70
2
  9
$INSUNITS
 70
4
  9
$PEXTMAX
 10
50
 20
50
 30
50
  9
$PEXTMIN
 10
0
 20
0
 30
0
  9
$HANDSEED
  5
FFFF
  0
ENDSEC
  0
SECTION
  2
CLASSES
  0
CLASS
  1
ACDBDICTIONARYWDFLT
  2
AcDbDictionaryWithDefault
  3
ObjectDBX Classes
 90
        0
280
     0
281
     0
  0
CLASS
  1
XRECORD
  2
AcDbXrecord
  3
ObjectDBX Classes
 90
        0
280
     0
281
     0
  0
CLASS
  1
LWPOLYLINE
  2
AcDbPolyline
  3
ObjectDBX Classes
 90
        0
280
     0
281
     1
  0
ENDSEC
  0
SECTION
  2
TABLES
  0
TABLE
  2
VPORT
  5
20
330
0
100
AcDbSymbolTable
 70
     1
  0
VPORT
  5
21
330
20
100
AcDbSymbolTableRecord
100
AcDbViewportTableRecord
  2
*ACTIVE
 70
     0
  0
ENDTAB
  0
TABLE
  2
LTYPE
  5
22
330
0
100
AcDbSymbolTable
 70
     1
  0
LTYPE
  5
23
330
21
100
AcDbSymbolTableRecord
100
AcDbLinetypeTableRecord
  2
BYBLOCK
 70
     0
  3

 72
    65
 73
     0
 40
0.0
  0
LTYPE
  5
24
330
21
100
AcDbSymbolTableRecord
100
AcDbLinetypeTableRecord
  2
BYLAYER
 70
     0
  3

 72
    65
 73
     0
 40
0.0
  0
LTYPE
  5
25
330
21
100
AcDbSymbolTableRecord
100
AcDbLinetypeTableRecord
  2
CONTINUOUS
 70
     0
  3
Solid line
 72
    65
 73
     0
 40
0.0
  0
ENDTAB
  0
TABLE
  2
LAYER
  5
BB5
330
0
100
AcDbSymbolTable
 70
3
  0
LAYER
  5
BB6
330
BB5
100
AcDbSymbolTableRecord
100
AcDbLayerTableRecord
  2
0
 70
   0
 62
   7
  6
CONTINUOUS
  0
LAYER
  5
BB7
330
BB5
100
AcDbSymbolTableRecord
100
AcDbLayerTableRecord
  2
none
 70
    0
 62
    7
  6
CONTINUOUS
  0
LAYER
  5
BB8
330
BB5
100
AcDbSymbolTableRecord
100
AcDbLayerTableRecord
  2
Mesh_cs002
 70
    0
 62
    7
  6
CONTINUOUS
  0
ENDTAB
  0
TABLE
  2
STYLE
  5
70
330
0
100
AcDbSymbolTable
 70
     2
  0
STYLE
  5
71
330
70
100
AcDbSymbolTableRecord
100
AcDbTextStyleTableRecord
  2
STANDARD
 70
     0
 40
0.0
 41
1.0
 50
0.0
 71
     0
 42
2.5
  3
arial.ttf
  4

  0
STYLE
  5
72
330
70
100
AcDbSymbolTableRecord
100
AcDbTextStyleTableRecord
  2
ANNOTATIVE
 70
     0
 40
0.0
 41
1.0
 50
0.0
 71
     0
 42
2.5
  3
arial.ttf
  4

  0
ENDTAB
  0
TABLE
  2
VIEW
  5
73
330
0
100
AcDbSymbolTable
 70
     0
  0
ENDTAB
  0
TABLE
  2
UCS
  5
74
330
0
100
AcDbSymbolTable
 70
     0
  0
ENDTAB
  0
TABLE
  2
APPID
  5
75
330
0
100
AcDbSymbolTable
 70
     2
  0
APPID
  5
76
330
75
100
AcDbSymbolTableRecord
100
AcDbRegAppTableRecord
  2
ACAD
 70
     0
  0
APPID
  5
77
330
75
100
AcDbSymbolTableRecord
100
AcDbRegAppTableRecord
  2
ACADANNOTATIVE
 70
     0
  0
ENDTAB
  0
TABLE
  2
DIMSTYLE
  5
78
330
0
100
AcDbSymbolTable
 70
     2
  0
DIMSTYLE
105
79
330
78
100
AcDbSymbolTableRecord
100
AcDbDimStyleTableRecord
  2
STANDARD
 70
     0
  3

  4

  5

  6

  7

 40
0.0
 41
2.5
 42
0.625
 43
3.75
 44
1.25
 45
0.0
 46
0.0
 47
0.0
 48
0.0
140
2.5
141
2.5
142
0.0
143
0.03937007874016
144
1.0
145
0.0
146
1.0
147
0.625
 71
     0
 72
     0
 73
     0
 74
     0
 75
     0
 76
     0
 77
     1
 78
     8
170
     0
171
     3
172
     1
173
     0
174
     0
175
     0
176
     0
177
     0
178
     0
270
     2
271
     2
272
     2
273
     2
274
     3
340
71
275
     0
280
     0
281
     0
282
     0
283
     0
284
     8
285
     0
286
     0
287
     3
288
     0
  0
ENDTAB
  0
TABLE
  2
BLOCK_RECORD
  5
A01
330
0
100
AcDbSymbolTable
  70
5
  0
BLOCK_RECORD
  5
A02
330
A01
100
AcDbSymbolTableRecord
100
AcDbBlockTableRecord
  2
*MODEL_SPACE
  0
BLOCK_RECORD
  5
A03
330
A01
100
AcDbSymbolTableRecord
100
AcDbBlockTableRecord
  2
*PAPER_SPACE
  0
ENDTAB
  0
ENDSEC
  0
SECTION
  2
BLOCKS
  0
BLOCK
  5
A04
330
A02
100
AcDbEntity
  8
0
100
AcDbBlockBegin
  2
*MODEL_SPACE
 70
   0
 10
0
 20
0
 30
0
  3
*MODEL_SPACE
  1
 
  0
ENDBLK
  5
A05
330
A02
100
AcDbEntity
  8
0
100
AcDbBlockEnd
  0
BLOCK
  5
A06
330
A03
100
AcDbEntity
 67
1
  8
0
100
AcDbBlockBegin
  2
*PAPER_SPACE
 70
   0
 10
0
 20
0
 30
0
  3
*PAPER_SPACE
  1
 
  0
ENDBLK
  5
A07
330
A03
100
AcDbEntity
 67
    1
  8
0
100
AcDbBlockEnd
  0
ENDSEC
  0
SECTION
  2
ENTITIES
  0
LINE
  5
A08
330
A02
100
AcDbEntity
  8
Mesh_cs002
100
AcDbLine
 10
299.331
 20
595.185
 30
5.1
 11
292.5
 21
600.148
 31
5.1
  0
LINE
  5
A09
330
A02
100
AcDbEntity
  8
Mesh_cs002
100
AcDbLine
 10
292.5
 20
600.148
 30
5.1
 11
287.537
 21
593.317
 31
5.1
  0
LINE
  5
A0A
330
A02
100
AcDbEntity
  8
Mesh_cs002
100
AcDbLine
 10
287.537
 20
593.317
 30
5.1
 11
284.206
 21
588.733
 31
5.1
  0
LINE
  5
A0B
330
A02
100
AcDbEntity
  8
Mesh_cs002
100
AcDbLine
 10
284.206
 20
588.733
 30
5.1
 11
241.956
 21
530.581
 31
5.1
  0
LINE
  5
A0C
330
A02
100
AcDbEntity
  8
Mesh_cs002
100
AcDbLine
 10
241.956
 20
530.581
 30
5.1
 11
195
 21
465.951
 31
5.1
  0
LINE
  5
A0D
330
A02
100
AcDbEntity
  8
Mesh_cs002
100
AcDbLine
 10
195
 20
465.951
 30
5.1
 11
195
 21
402.848
 31
5.1
  0
LINE
  5
A0E
330
A02
100
AcDbEntity
  8
Mesh_cs002
100
AcDbLine
 10
195
 20
402.848
 30
5.1
 11
195
 21
313.878
 31
5.1
  0
LINE
  5
A0F
330
A02
100
AcDbEntity
  8
Mesh_cs002
100
AcDbLine
 10
195
 20
313.878
 30
5.1
 11
195
 21
300.074
 31
5.1
  0
LINE
  5
A10
330
A02
100
AcDbEntity
  8
Mesh_cs002
100
AcDbLine
 10
195
 20
300.074
 30
5.1
 11
201.564
 21
295.305
 31
5.1
  0
LINE
  5
A11
330
A02
100
AcDbEntity
  8
Mesh_cs002
100
AcDbLine
 10
201.564
 20
295.305
 30
5.1
 11
228.283
 21
275.893
 31
5.1
  0
LINE
  5
A12
330
A02
100
AcDbEntity
  8
Mesh_cs002
100
AcDbLine
 10
228.283
 20
275.893
 30
5.1
 11
262.464
 21
251.059
 31
5.1
  0
LINE
  5
A13
330
A02
100
AcDbEntity
  8
Mesh_cs002
100
AcDbLine
 10
262.464
 20
251.059
 30
5.1
 11
267.048
 21
247.728
 31
5.1
  0
LINE
  5
A14
330
A02
100
AcDbEntity
  8
Mesh_cs002
100
AcDbLine
 10
267.048
 20
247.728
 30
5.1
 11
273.879
 21
242.765
 31
5.1
  0
LINE
  5
A15
330
A02
100
AcDbEntity
  8
Mesh_cs002
100
AcDbLine
 10
273.879
 20
242.765
 30
5.1
 11
278.842
 21
249.596
 31
5.1
  0
LINE
  5
A16
330
A02
100
AcDbEntity
  8
Mesh_cs002
100
AcDbLine
 10
278.842
 20
249.596
 30
5.1
 11
282.173
 21
254.18
 31
5.1
  0
LINE
  5
A17
330
A02
100
AcDbEntity
  8
Mesh_cs002
100
AcDbLine
 10
282.173
 20
254.18
 30
5.1
 11
365.534
 21
368.917
 31
5.1
  0
LINE
  5
A18
330
A02
100
AcDbEntity
  8
Mesh_cs002
100
AcDbLine
 10
365.534
 20
368.917
 30
5.1
 11
441.965
 21
474.115
 31
5.1
  0
LINE
  5
A19
330
A02
100
AcDbEntity
  8
Mesh_cs002
100
AcDbLine
 10
441.965
 20
474.115
 30
5.1
 11
445.295
 21
478.699
 31
5.1
  0
LINE
  5
A1A
330
A02
100
AcDbEntity
  8
Mesh_cs002
100
AcDbLine
 10
445.295
 20
478.699
 30
5.1
 11
450.258
 21
485.53
 31
5.1
  0
LINE
  5
A1B
330
A02
100
AcDbEntity
  8
Mesh_cs002
100
AcDbLine
 10
450.258
 20
485.53
 30
5.1
 11
443.428
 21
490.493
 31
5.1
  0
LINE
  5
A1C
330
A02
100
AcDbEntity
  8
Mesh_cs002
100
AcDbLine
 10
443.428
 20
490.493
 30
5.1
 11
438.843
 21
493.824
 31
5.1
  0
LINE
  5
A1D
330
A02
100
AcDbEntity
  8
Mesh_cs002
100
AcDbLine
 10
438.843
 20
493.824
 30
5.1
 11
420.251
 21
507.332
 31
5.1
  0
LINE
  5
A1E
330
A02
100
AcDbEntity
  8
Mesh_cs002
100
AcDbLine
 10
420.251
 20
507.332
 30
5.1
 11
407.123
 21
516.87
 31
5.1
  0
LINE
  5
A1F
330
A02
100
AcDbEntity
  8
Mesh_cs002
100
AcDbLine
 10
407.123
 20
516.87
 30
5.1
 11
372.277
 21
542.187
 31
5.1
  0
LINE
  5
A20
330
A02
100
AcDbEntity
  8
Mesh_cs002
100
AcDbLine
 10
372.277
 20
542.187
 30
5.1
 11
303.915
 21
591.855
 31
5.1
  0
LINE
  5
A21
330
A02
100
AcDbEntity
  8
Mesh_cs002
100
AcDbLine
 10
303.915
 20
591.855
 30
5.1
 11
299.331
 21
595.185
 31
5.1
  0
LINE
  5
A22
330
A02
100
AcDbEntity
  8
Mesh_cs002
100
AcDbLine
 10
273.629
 20
267.777
 30
5.1
 11
273.635
 21
267.785
 31
5.1
  0
LINE
  5
A23
330
A02
100
AcDbEntity
  8
Mesh_cs002
100
AcDbLine
 10
273.635
 20
267.785
 30
5.1
 11
273.86
 21
268.157
 31
5.1
  0
LINE
  5
A24
330
A02
100
AcDbEntity
  8
Mesh_cs002
100
AcDbLine
 10
273.86
 20
268.157
 30
5.1
 11
273.865
 21
268.166
 31
5.1
  0
LINE
  5
A25
330
A02
100
AcDbEntity
  8
Mesh_cs002
100
AcDbLine
 10
273.865
 20
268.166
 30
5.1
 11
274.056
 21
268.556
 31
5.1
  0
LINE
  5
A26
330
A02
100
AcDbEntity
  8
Mesh_cs002
100
AcDbLine
 10
274.056
 20
268.556
 30
5.1
 11
274.061
 21
268.565
 31
5.1
  0
LINE
  5
A27
330
A02
100
AcDbEntity
  8
Mesh_cs002
100
AcDbLine
 10
274.061
 20
268.565
 30
5.1
 11
274.064
 21
268.574
 31
5.1
  0
LINE
  5
A28
330
A02
100
AcDbEntity
  8
Mesh_cs002
100
AcDbLine
 10
274.064
 20
268.574
 30
5.1
 11
274.22
 21
268.979
 31
5.1
  0
LINE
  5
A29
330
A02
100
AcDbEntity
  8
Mesh_cs002
100
AcDbLine
 10
274.22
 20
268.979
 30
5.1
 11
274.223
 21
268.989
 31
5.1
  0
LINE
  5
A2A
330
A02
100
AcDbEntity
  8
Mesh_cs002
100
AcDbLine
 10
274.223
 20
268.989
 30
5.1
 11
274.341
 21
269.405
 31
5.1
  0
LINE
  5
A2B
330
A02
100
AcDbEntity
  8
Mesh_cs002
100
AcDbLine
 10
274.341
 20
269.405
 30
5.1
 11
274.343
 21
269.416
 31
5.1
  0
LINE
  5
A2C
330
A02
100
AcDbEntity
  8
Mesh_cs002
100
AcDbLine
 10
274.343
 20
269.416
 30
5.1
 11
274.424
 21
269.84
 31
5.1
  0
LINE
  5
A2D
330
A02
100
AcDbEntity
  8
Mesh_cs002
100
AcDbLine
 10
274.424
 20
269.84
 30
5.1
 11
274.426
 21
269.851
 31
5.1
  0
LINE
  5
A2E
330
A02
100
AcDbEntity
  8
Mesh_cs002
100
AcDbLine
 10
274.426
 20
269.851
 30
5.1
 11
274.469
 21
270.28
 31
5.1
  0
LINE
  5
A2F
330
A02
100
AcDbEntity
  8
Mesh_cs002
100
AcDbLine
 10
274.469
 20
270.28
 30
5.1
 11
274.469
 21
270.291
 31
5.1
  0
LINE
  5
A30
330
A02
100
AcDbEntity
  8
Mesh_cs002
100
AcDbLine
 10
274.469
 20
270.291
 30
5.1
 11
274.474
 21
270.721
 31
5.1
  0
LINE
  5
A31
330
A02
100
AcDbEntity
  8
Mesh_cs002
100
AcDbLine
 10
274.474
 20
270.721
 30
5.1
 11
274.473
 21
270.732
 31
5.1
  0
LINE
  5
A32
330
A02
100
AcDbEntity
  8
Mesh_cs002
100
AcDbLine
 10
274.473
 20
270.732
 30
5.1
 11
274.441
 21
271.16
 31
5.1
  0
LINE
  5
A33
330
A02
100
AcDbEntity
  8
Mesh_cs002
100
AcDbLine
 10
274.441
 20
271.16
 30
5.1
 11
274.439
 21
271.171
 31
5.1
  0
LINE
  5
A34
330
A02
100
AcDbEntity
  8
Mesh_cs002
100
AcDbLine
 10
274.439
 20
271.171
 30
5.1
 11
274.369
 21
271.593
 31
5.1
  0
LINE
  5
A35
330
A02
100
AcDbEntity
  8
Mesh_cs002
100
AcDbLine
 10
274.369
 20
271.593
 30
5.1
 11
274.366
 21
271.604
 31
5.1
  0
LINE
  5
A36
330
A02
100
AcDbEntity
  8
Mesh_cs002
100
AcDbLine
 10
274.366
 20
271.604
 30
5.1
 11
274.26
 21
272.017
 31
5.1
  0
LINE
  5
A37
330
A02
100
AcDbEntity
  8
Mesh_cs002
100
AcDbLine
 10
274.26
 20
272.017
 30
5.1
 11
274.256
 21
272.028
 31
5.1
  0
LINE
  5
A38
330
A02
100
AcDbEntity
  8
Mesh_cs002
100
AcDbLine
 10
274.256
 20
272.028
 30
5.1
 11
274.115
 21
272.43
 31
5.1
  0
LINE
  5
A39
330
A02
100
AcDbEntity
  8
Mesh_cs002
100
AcDbLine
 10
274.115
 20
272.43
 30
5.1
 11
274.11
 21
272.44
 31
5.1
  0
LINE
  5
A3A
330
A02
100
AcDbEntity
  8
Mesh_cs002
100
AcDbLine
 10
274.11
 20
272.44
 30
5.1
 11
273.931
 21
272.833
 31
5.1
  0
LINE
  5
A3B
330
A02
100
AcDbEntity
  8
Mesh_cs002
100
AcDbLine
 10
273.931
 20
272.833
 30
5.1
 11
273.925
 21
272.843
 31
5.1
  0
LINE
  5
A3C
330
A02
100
AcDbEntity
  8
Mesh_cs002
100
AcDbLine
 10
273.925
 20
272.843
 30
5.1
 11
273.729
 21
273.192
 31
5.1
  0
LINE
  5
A3D
330
A02
100
AcDbEntity
  8
Mesh_cs002
100
AcDbLine
 10
273.729
 20
273.192
 30
5.1
 11
273.504
 21
273.524
 31
5.1
  0
LINE
  5
A3E
330
A02
100
AcDbEntity
  8
Mesh_cs002
100
AcDbLine
 10
273.504
 20
273.524
 30
5.1
 11
273.498
 21
273.533
 31
5.1
  0
LINE
  5
A3F
330
A02
100
AcDbEntity
  8
Mesh_cs002
100
AcDbLine
 10
273.498
 20
273.533
 30
5.1
 11
273.248
 21
273.844
 31
5.1
  0
LINE
  5
A40
330
A02
100
AcDbEntity
  8
Mesh_cs002
100
AcDbLine
 10
273.248
 20
273.844
 30
5.1
 11
273.241
 21
273.852
 31
5.1
  0
LINE
  5
A41
330
A02
100
AcDbEntity
  8
Mesh_cs002
100
AcDbLine
 10
273.241
 20
273.852
 30
5.1
 11
272.967
 21
274.141
 31
5.1
  0
LINE
  5
A42
330
A02
100
AcDbEntity
  8
Mesh_cs002
100
AcDbLine
 10
272.967
 20
274.141
 30
5.1
 11
272.959
 21
274.149
 31
5.1
  0
LINE
  5
A43
330
A02
100
AcDbEntity
  8
Mesh_cs002
100
AcDbLine
 10
272.959
 20
274.149
 30
5.1
 11
272.663
 21
274.414
 31
5.1
  0
LINE
  5
A44
330
A02
100
AcDbEntity
  8
Mesh_cs002
100
AcDbLine
 10
272.663
 20
274.414
 30
5.1
 11
272.657
 21
274.42
 31
5.1
  0
LINE
  5
A45
330
A02
100
AcDbEntity
  8
Mesh_cs002
100
AcDbLine
 10
272.657
 20
274.42
 30
5.1
 11
272.651
 21
274.424
 31
5.1
  0
LINE
  5
A46
330
A02
100
AcDbEntity
  8
Mesh_cs002
100
AcDbLine
 10
272.651
 20
274.424
 30
5.1
 11
272.335
 21
274.664
 31
5.1
  0
LINE
  5
A47
330
A02
100
AcDbEntity
  8
Mesh_cs002
100
AcDbLine
 10
272.335
 20
274.664
 30
5.1
 11
272.328
 21
274.669
 31
5.1
  0
LINE
  5
A48
330
A02
100
AcDbEntity
  8
Mesh_cs002
100
AcDbLine
 10
272.328
 20
274.669
 30
5.1
 11
271.993
 21
274.882
 31
5.1
  0
LINE
  5
A49
330
A02
100
AcDbEntity
  8
Mesh_cs002
100
AcDbLine
 10
271.993
 20
274.882
 30
5.1
 11
271.986
 21
274.886
 31
5.1
  0
LINE
  5
A4A
330
A02
100
AcDbEntity
  8
Mesh_cs002
100
AcDbLine
 10
271.986
 20
274.886
 30
5.1
 11
271.636
 21
275.071
 31
5.1
  0
LINE
  5
A4B
330
A02
100
AcDbEntity
  8
Mesh_cs002
100
AcDbLine
 10
271.636
 20
275.071
 30
5.1
 11
271.626
 21
275.076
 31
5.1
  0
LINE
  5
A4C
330
A02
100
AcDbEntity
  8
Mesh_cs002
100
AcDbLine
 10
271.626
 20
275.076
 30
5.1
 11
271.264
 21
275.231
 31
5.1
  0
LINE
  5
A4D
330
A02
100
AcDbEntity
  8
Mesh_cs002
100
AcDbLine
 10
271.264
 20
275.231
 30
5.1
 11
271.253
 21
275.235
 31
5.1
  0
LINE
  5
A4E
330
A02
100
AcDbEntity
  8
Mesh_cs002
100
AcDbLine
 10
271.253
 20
275.235
 30
5.1
 11
270.88
 21
275.361
 31
5.1
  0
LINE
  5
A4F
330
A02
100
AcDbEntity
  8
Mesh_cs002
100
AcDbLine
 10
270.88
 20
275.361
 30
5.1
 11
270.869
 21
275.364
 31
5.1
  0
LINE
  5
A50
330
A02
100
AcDbEntity
  8
Mesh_cs002
100
AcDbLine
 10
270.869
 20
275.364
 30
5.1
 11
270.487
 21
275.458
 31
5.1
  0
LINE
  5
A51
330
A02
100
AcDbEntity
  8
Mesh_cs002
100
AcDbLine
 10
270.487
 20
275.458
 30
5.1
 11
270.476
 21
275.46
 31
5.1
  0
LINE
  5
A52
330
A02
100
AcDbEntity
  8
Mesh_cs002
100
AcDbLine
 10
270.476
 20
275.46
 30
5.1
 11
270.088
 21
275.524
 31
5.1
  0
LINE
  5
A53
330
A02
100
AcDbEntity
  8
Mesh_cs002
100
AcDbLine
 10
270.088
 20
275.524
 30
5.1
 11
270.077
 21
275.525
 31
5.1
  0
LINE
  5
A54
330
A02
100
AcDbEntity
  8
Mesh_cs002
100
AcDbLine
 10
270.077
 20
275.525
 30
5.1
 11
269.643
 21
275.559
 31
5.1
  0
LINE
  5
A55
330
A02
100
AcDbEntity
  8
Mesh_cs002
100
AcDbLine
 10
269.643
 20
275.559
 30
5.1
 11
269.632
 21
275.559
 31
5.1
  0
LINE
  5
A56
330
A02
100
AcDbEntity
  8
Mesh_cs002
100
AcDbLine
 10
269.632
 20
275.559
 30
5.1
 11
269.197
 21
275.554
 31
5.1
  0
LINE
  5
A57
330
A02
100
AcDbEntity
  8
Mesh_cs002
100
AcDbLine
 10
269.197
 20
275.554
 30
5.1
 11
269.186
 21
275.553
 31
5.1
  0
LINE
  5
A58
330
A02
100
AcDbEntity
  8
Mesh_cs002
100
AcDbLine
 10
269.186
 20
275.553
 30
5.1
 11
268.754
 21
275.509
 31
5.1
  0
LINE
  5
A59
330
A02
100
AcDbEntity
  8
Mesh_cs002
100
AcDbLine
 10
268.754
 20
275.509
 30
5.1
 11
268.744
 21
275.507
 31
5.1
  0
LINE
  5
A5A
330
A02
100
AcDbEntity
  8
Mesh_cs002
100
AcDbLine
 10
268.744
 20
275.507
 30
5.1
 11
268.318
 21
275.425
 31
5.1
  0
LINE
  5
A5B
330
A02
100
AcDbEntity
  8
Mesh_cs002
100
AcDbLine
 10
268.318
 20
275.425
 30
5.1
 11
268.309
 21
275.423
 31
5.1
  0
LINE
  5
A5C
330
A02
100
AcDbEntity
  8
Mesh_cs002
100
AcDbLine
 10
268.309
 20
275.423
 30
5.1
 11
267.893
 21
275.304
 31
5.1
  0
LINE
  5
A5D
330
A02
100
AcDbEntity
  8
Mesh_cs002
100
AcDbLine
 10
267.893
 20
275.304
 30
5.1
 11
267.884
 21
275.301
 31
5.1
  0
LINE
  5
A5E
330
A02
100
AcDbEntity
  8
Mesh_cs002
100
AcDbLine
 10
267.884
 20
275.301
 30
5.1
 11
267.481
 21
275.146
 31
5.1
  0
LINE
  5
A5F
330
A02
100
AcDbEntity
  8
Mesh_cs002
100
AcDbLine
 10
267.481
 20
275.146
 30
5.1
 11
267.472
 21
275.142
 31
5.1
  0
LINE
  5
A60
330
A02
100
AcDbEntity
  8
Mesh_cs002
100
AcDbLine
 10
267.472
 20
275.142
 30
5.1
 11
267.085
 21
274.952
 31
5.1
  0
LINE
  5
A61
330
A02
100
AcDbEntity
  8
Mesh_cs002
100
AcDbLine
 10
267.085
 20
274.952
 30
5.1
 11
267.076
 21
274.947
 31
5.1
  0
LINE
  5
A62
330
A02
100
AcDbEntity
  8
Mesh_cs002
100
AcDbLine
 10
267.076
 20
274.947
 30
5.1
 11
266.709
 21
274.725
 31
5.1
  0
LINE
  5
A63
330
A02
100
AcDbEntity
  8
Mesh_cs002
100
AcDbLine
 10
266.709
 20
274.725
 30
5.1
 11
266.7
 21
274.72
 31
5.1
  0
LINE
  5
A64
330
A02
100
AcDbEntity
  8
Mesh_cs002
100
AcDbLine
 10
266.7
 20
274.72
 30
5.1
 11
266.354
 21
274.466
 31
5.1
  0
LINE
  5
A65
330
A02
100
AcDbEntity
  8
Mesh_cs002
100
AcDbLine
 10
266.354
 20
274.466
 30
5.1
 11
266.346
 21
274.46
 31
5.1
  0
LINE
  5
A66
330
A02
100
AcDbEntity
  8
Mesh_cs002
100
AcDbLine
 10
266.346
 20
274.46
 30
5.1
 11
266.025
 21
274.178
 31
5.1
  0
LINE
  5
A67
330
A02
100
AcDbEntity
  8
Mesh_cs002
100
AcDbLine
 10
266.025
 20
274.178
 30
5.1
 11
266.017
 21
274.171
 31
5.1
  0
LINE
  5
A68
330
A02
100
AcDbEntity
  8
Mesh_cs002
100
AcDbLine
 10
266.017
 20
274.171
 30
5.1
 11
265.722
 21
273.863
 31
5.1
  0
LINE
  5
A69
330
A02
100
AcDbEntity
  8
Mesh_cs002
100
AcDbLine
 10
265.722
 20
273.863
 30
5.1
 11
265.715
 21
273.855
 31
5.1
  0
LINE
  5
A6A
330
A02
100
AcDbEntity
  8
Mesh_cs002
100
AcDbLine
 10
265.715
 20
273.855
 30
5.1
 11
265.571
 21
273.683
 31
5.1
  0
LINE
  5
A6B
330
A02
100
AcDbEntity
  8
Mesh_cs002
100
AcDbLine
 10
265.571
 20
273.683
 30
5.1
 11
265.564
 21
273.675
 31
5.1
  0
LINE
  5
A6C
330
A02
100
AcDbEntity
  8
Mesh_cs002
100
AcDbLine
 10
265.564
 20
273.675
 30
5.1
 11
265.432
 21
273.5
 31
5.1
  0
LINE
  5
A6D
330
A02
100
AcDbEntity
  8
Mesh_cs002
100
AcDbLine
 10
265.432
 20
273.5
 30
5.1
 11
265.209
 21
273.166
 31
5.1
  0
LINE
  5
A6E
330
A02
100
AcDbEntity
  8
Mesh_cs002
100
AcDbLine
 10
265.209
 20
273.166
 30
5.1
 11
265.203
 21
273.158
 31
5.1
  0
LINE
  5
A6F
330
A02
100
AcDbEntity
  8
Mesh_cs002
100
AcDbLine
 10
265.203
 20
273.158
 30
5.1
 11
265.001
 21
272.79
 31
5.1
  0
LINE
  5
A70
330
A02
100
AcDbEntity
  8
Mesh_cs002
100
AcDbLine
 10
265.001
 20
272.79
 30
5.1
 11
264.996
 21
272.78
 31
5.1
  0
LINE
  5
A71
330
A02
100
AcDbEntity
  8
Mesh_cs002
100
AcDbLine
 10
264.996
 20
272.78
 30
5.1
 11
264.833
 21
272.415
 31
5.1
  0
LINE
  5
A72
330
A02
100
AcDbEntity
  8
Mesh_cs002
100
AcDbLine
 10
264.833
 20
272.415
 30
5.1
 11
264.829
 21
272.406
 31
5.1
  0
LINE
  5
A73
330
A02
100
AcDbEntity
  8
Mesh_cs002
100
AcDbLine
 10
264.829
 20
272.406
 30
5.1
 11
264.697
 21
272.03
 31
5.1
  0
LINE
  5
A74
330
A02
100
AcDbEntity
  8
Mesh_cs002
100
AcDbLine
 10
264.697
 20
272.03
 30
5.1
 11
264.694
 21
272.02
 31
5.1
  0
LINE
  5
A75
330
A02
100
AcDbEntity
  8
Mesh_cs002
100
AcDbLine
 10
264.694
 20
272.02
 30
5.1
 11
264.594
 21
271.635
 31
5.1
  0
LINE
  5
A76
330
A02
100
AcDbEntity
  8
Mesh_cs002
100
AcDbLine
 10
264.594
 20
271.635
 30
5.1
 11
264.591
 21
271.625
 31
5.1
  0
LINE
  5
A77
330
A02
100
AcDbEntity
  8
Mesh_cs002
100
AcDbLine
 10
264.591
 20
271.625
 30
5.1
 11
264.522
 21
271.233
 31
5.1
  0
LINE
  5
A78
330
A02
100
AcDbEntity
  8
Mesh_cs002
100
AcDbLine
 10
264.522
 20
271.233
 30
5.1
 11
264.521
 21
271.223
 31
5.1
  0
LINE
  5
A79
330
A02
100
AcDbEntity
  8
Mesh_cs002
100
AcDbLine
 10
264.521
 20
271.223
 30
5.1
 11
264.484
 21
270.828
 31
5.1
  0
LINE
  5
A7A
330
A02
100
AcDbEntity
  8
Mesh_cs002
100
AcDbLine
 10
264.484
 20
270.828
 30
5.1
 11
264.483
 21
270.818
 31
5.1
  0
LINE
  5
A7B
330
A02
100
AcDbEntity
  8
Mesh_cs002
100
AcDbLine
 10
264.483
 20
270.818
 30
5.1
 11
264.479
 21
270.422
 31
5.1
  0
LINE
  5
A7C
330
A02
100
AcDbEntity
  8
Mesh_cs002
100
AcDbLine
 10
264.479
 20
270.422
 30
5.1
 11
264.479
 21
270.412
 31
5.1
  0
LINE
  5
A7D
330
A02
100
AcDbEntity
  8
Mesh_cs002
100
AcDbLine
 10
264.479
 20
270.412
 30
5.1
 11
264.507
 21
270.018
 31
5.1
  0
LINE
  5
A7E
330
A02
100
AcDbEntity
  8
Mesh_cs002
100
AcDbLine
 10
264.507
 20
270.018
 30
5.1
 11
264.507
 21
270.008
 31
5.1
  0
LINE
  5
A7F
330
A02
100
AcDbEntity
  8
Mesh_cs002
100
AcDbLine
 10
264.507
 20
270.008
 30
5.1
 11
264.567
 21
269.618
 31
5.1
  0
LINE
  5
A80
330
A02
100
AcDbEntity
  8
Mesh_cs002
100
AcDbLine
 10
264.567
 20
269.618
 30
5.1
 11
264.659
 21
269.224
 31
5.1
  0
LINE
  5
A81
330
A02
100
AcDbEntity
  8
Mesh_cs002
100
AcDbLine
 10
264.659
 20
269.224
 30
5.1
 11
264.783
 21
268.84
 31
5.1
  0
LINE
  5
A82
330
A02
100
AcDbEntity
  8
Mesh_cs002
100
AcDbLine
 10
264.783
 20
268.84
 30
5.1
 11
264.786
 21
268.831
 31
5.1
  0
LINE
  5
A83
330
A02
100
AcDbEntity
  8
Mesh_cs002
100
AcDbLine
 10
264.786
 20
268.831
 30
5.1
 11
264.936
 21
268.468
 31
5.1
  0
LINE
  5
A84
330
A02
100
AcDbEntity
  8
Mesh_cs002
100
AcDbLine
 10
264.936
 20
268.468
 30
5.1
 11
264.945
 21
268.45
 31
5.1
  0
LINE
  5
A85
330
A02
100
AcDbEntity
  8
Mesh_cs002
100
AcDbLine
 10
264.945
 20
268.45
 30
5.1
 11
265.145
 21
268.063
 31
5.1
  0
LINE
  5
A86
330
A02
100
AcDbEntity
  8
Mesh_cs002
100
AcDbLine
 10
265.145
 20
268.063
 30
5.1
 11
265.385
 21
267.688
 31
5.1
  0
LINE
  5
A87
330
A02
100
AcDbEntity
  8
Mesh_cs002
100
AcDbLine
 10
265.385
 20
267.688
 30
5.1
 11
265.657
 21
267.335
 31
5.1
  0
LINE
  5
A88
330
A02
100
AcDbEntity
  8
Mesh_cs002
100
AcDbLine
 10
265.657
 20
267.335
 30
5.1
 11
265.958
 21
267.009
 31
5.1
  0
LINE
  5
A89
330
A02
100
AcDbEntity
  8
Mesh_cs002
100
AcDbLine
 10
265.958
 20
267.009
 30
5.1
 11
266.286
 21
266.711
 31
5.1
  0
LINE
  5
A8A
330
A02
100
AcDbEntity
  8
Mesh_cs002
100
AcDbLine
 10
266.286
 20
266.711
 30
5.1
 11
266.639
 21
266.445
 31
5.1
  0
LINE
  5
A8B
330
A02
100
AcDbEntity
  8
Mesh_cs002
100
AcDbLine
 10
266.639
 20
266.445
 30
5.1
 11
267.013
 21
266.211
 31
5.1
  0
LINE
  5
A8C
330
A02
100
AcDbEntity
  8
Mesh_cs002
100
AcDbLine
 10
267.013
 20
266.211
 30
5.1
 11
267.405
 21
266.011
 31
5.1
  0
LINE
  5
A8D
330
A02
100
AcDbEntity
  8
Mesh_cs002
100
AcDbLine
 10
267.405
 20
266.011
 30
5.1
 11
267.813
 21
265.846
 31
5.1
  0
LINE
  5
A8E
330
A02
100
AcDbEntity
  8
Mesh_cs002
100
AcDbLine
 10
267.813
 20
265.846
 30
5.1
 11
268.232
 21
265.719
 31
5.1
  0
LINE
  5
A8F
330
A02
100
AcDbEntity
  8
Mesh_cs002
100
AcDbLine
 10
268.232
 20
265.719
 30
5.1
 11
268.66
 21
265.629
 31
5.1
  0
LINE
  5
A90
330
A02
100
AcDbEntity
  8
Mesh_cs002
100
AcDbLine
 10
268.66
 20
265.629
 30
5.1
 11
269.096
 21
265.576
 31
5.1
  0
LINE
  5
A91
330
A02
100
AcDbEntity
  8
Mesh_cs002
100
AcDbLine
 10
269.096
 20
265.576
 30
5.1
 11
269.496
 21
265.562
 31
5.1
  0
LINE
  5
A92
330
A02
100
AcDbEntity
  8
Mesh_cs002
100
AcDbLine
 10
269.496
 20
265.562
 30
5.1
 11
269.907
 21
265.58
 31
5.1
  0
LINE
  5
A93
330
A02
100
AcDbEntity
  8
Mesh_cs002
100
AcDbLine
 10
269.907
 20
265.58
 30
5.1
 11
270.314
 21
265.632
 31
5.1
  0
LINE
  5
A94
330
A02
100
AcDbEntity
  8
Mesh_cs002
100
AcDbLine
 10
270.314
 20
265.632
 30
5.1
 11
270.715
 21
265.717
 31
5.1
  0
LINE
  5
A95
330
A02
100
AcDbEntity
  8
Mesh_cs002
100
AcDbLine
 10
270.715
 20
265.717
 30
5.1
 11
271.106
 21
265.835
 31
5.1
  0
LINE
  5
A96
330
A02
100
AcDbEntity
  8
Mesh_cs002
100
AcDbLine
 10
271.106
 20
265.835
 30
5.1
 11
271.485
 21
265.983
 31
5.1
  0
LINE
  5
A97
330
A02
100
AcDbEntity
  8
Mesh_cs002
100
AcDbLine
 10
271.485
 20
265.983
 30
5.1
 11
271.851
 21
266.161
 31
5.1
  0
LINE
  5
A98
330
A02
100
AcDbEntity
  8
Mesh_cs002
100
AcDbLine
 10
271.851
 20
266.161
 30
5.1
 11
271.86
 21
266.166
 31
5.1
  0
LINE
  5
A99
330
A02
100
AcDbEntity
  8
Mesh_cs002
100
AcDbLine
 10
271.86
 20
266.166
 30
5.1
 11
272.2
 21
266.368
 31
5.1
  0
LINE
  5
A9A
330
A02
100
AcDbEntity
  8
Mesh_cs002
100
AcDbLine
 10
272.2
 20
266.368
 30
5.1
 11
272.209
 21
266.374
 31
5.1
  0
LINE
  5
A9B
330
A02
100
AcDbEntity
  8
Mesh_cs002
100
AcDbLine
 10
272.209
 20
266.374
 30
5.1
 11
272.53
 21
266.603
 31
5.1
  0
LINE
  5
A9C
330
A02
100
AcDbEntity
  8
Mesh_cs002
100
AcDbLine
 10
272.53
 20
266.603
 30
5.1
 11
272.841
 21
266.863
 31
5.1
  0
LINE
  5
A9D
330
A02
100
AcDbEntity
  8
Mesh_cs002
100
AcDbLine
 10
272.841
 20
266.863
 30
5.1
 11
273.128
 21
267.146
 31
5.1
  0
LINE
  5
A9E
330
A02
100
AcDbEntity
  8
Mesh_cs002
100
AcDbLine
 10
273.128
 20
267.146
 30
5.1
 11
273.135
 21
267.153
 31
5.1
  0
LINE
  5
A9F
330
A02
100
AcDbEntity
  8
Mesh_cs002
100
AcDbLine
 10
273.135
 20
267.153
 30
5.1
 11
273.392
 21
267.452
 31
5.1
  0
LINE
  5
AA0
330
A02
100
AcDbEntity
  8
Mesh_cs002
100
AcDbLine
 10
273.392
 20
267.452
 30
5.1
 11
273.629
 21
267.777
 31
5.1
  0
LINE
  5
AA1
330
A02
100
AcDbEntity
  8
Mesh_cs002
100
AcDbLine
 10
426.388
 20
478.031
 30
5.1
 11
426.103
 21
477.702
 31
5.1
  0
LINE
  5
AA2
330
A02
100
AcDbEntity
  8
Mesh_cs002
100
AcDbLine
 10
426.103
 20
477.702
 30
5.1
 11
426.096
 21
477.694
 31
5.1
  0
LINE
  5
AA3
330
A02
100
AcDbEntity
  8
Mesh_cs002
100
AcDbLine
 10
426.096
 20
477.694
 30
5.1
 11
425.784
 21
477.392
 31
5.1
  0
LINE
  5
AA4
330
A02
100
AcDbEntity
  8
Mesh_cs002
100
AcDbLine
 10
425.784
 20
477.392
 30
5.1
 11
425.777
 21
477.385
 31
5.1
  0
LINE
  5
AA5
330
A02
100
AcDbEntity
  8
Mesh_cs002
100
AcDbLine
 10
425.777
 20
477.385
 30
5.1
 11
425.769
 21
477.378
 31
5.1
  0
LINE
  5
AA6
330
A02
100
AcDbEntity
  8
Mesh_cs002
100
AcDbLine
 10
425.769
 20
477.378
 30
5.1
 11
425.432
 21
477.106
 31
5.1
  0
LINE
  5
AA7
330
A02
100
AcDbEntity
  8
Mesh_cs002
100
AcDbLine
 10
425.432
 20
477.106
 30
5.1
 11
425.424
 21
477.1
 31
5.1
  0
LINE
  5
AA8
330
A02
100
AcDbEntity
  8
Mesh_cs002
100
AcDbLine
 10
425.424
 20
477.1
 30
5.1
 11
425.065
 21
476.859
 31
5.1
  0
LINE
  5
AA9
330
A02
100
AcDbEntity
  8
Mesh_cs002
100
AcDbLine
 10
425.065
 20
476.859
 30
5.1
 11
425.055
 21
476.853
 31
5.1
  0
LINE
  5
AAA
330
A02
100
AcDbEntity
  8
Mesh_cs002
100
AcDbLine
 10
425.055
 20
476.853
 30
5.1
 11
424.677
 21
476.645
 31
5.1
  0
LINE
  5
AAB
330
A02
100
AcDbEntity
  8
Mesh_cs002
100
AcDbLine
 10
424.677
 20
476.645
 30
5.1
 11
424.667
 21
476.641
 31
5.1
  0
LINE
  5
AAC
330
A02
100
AcDbEntity
  8
Mesh_cs002
100
AcDbLine
 10
424.667
 20
476.641
 30
5.1
 11
424.273
 21
476.467
 31
5.1
  0
LINE
  5
AAD
330
A02
100
AcDbEntity
  8
Mesh_cs002
100
AcDbLine
 10
424.273
 20
476.467
 30
5.1
 11
424.262
 21
476.463
 31
5.1
  0
LINE
  5
AAE
330
A02
100
AcDbEntity
  8
Mesh_cs002
100
AcDbLine
 10
424.262
 20
476.463
 30
5.1
 11
423.855
 21
476.326
 31
5.1
  0
LINE
  5
AAF
330
A02
100
AcDbEntity
  8
Mesh_cs002
100
AcDbLine
 10
423.855
 20
476.326
 30
5.1
 11
423.844
 21
476.323
 31
5.1
  0
LINE
  5
AB0
330
A02
100
AcDbEntity
  8
Mesh_cs002
100
AcDbLine
 10
423.844
 20
476.323
 30
5.1
 11
423.427
 21
476.222
 31
5.1
  0
LINE
  5
AB1
330
A02
100
AcDbEntity
  8
Mesh_cs002
100
AcDbLine
 10
423.427
 20
476.222
 30
5.1
 11
423.416
 21
476.22
 31
5.1
  0
LINE
  5
AB2
330
A02
100
AcDbEntity
  8
Mesh_cs002
100
AcDbLine
 10
423.416
 20
476.22
 30
5.1
 11
422.993
 21
476.156
 31
5.1
  0
LINE
  5
AB3
330
A02
100
AcDbEntity
  8
Mesh_cs002
100
AcDbLine
 10
422.993
 20
476.156
 30
5.1
 11
422.982
 21
476.155
 31
5.1
  0
LINE
  5
AB4
330
A02
100
AcDbEntity
  8
Mesh_cs002
100
AcDbLine
 10
422.982
 20
476.155
 30
5.1
 11
422.555
 21
476.129
 31
5.1
  0
LINE
  5
AB5
330
A02
100
AcDbEntity
  8
Mesh_cs002
100
AcDbLine
 10
422.555
 20
476.129
 30
5.1
 11
422.544
 21
476.129
 31
5.1
  0
LINE
  5
AB6
330
A02
100
AcDbEntity
  8
Mesh_cs002
100
AcDbLine
 10
422.544
 20
476.129
 30
5.1
 11
422.118
 21
476.139
 31
5.1
  0
LINE
  5
AB7
330
A02
100
AcDbEntity
  8
Mesh_cs002
100
AcDbLine
 10
422.118
 20
476.139
 30
5.1
 11
422.107
 21
476.141
 31
5.1
  0
LINE
  5
AB8
330
A02
100
AcDbEntity
  8
Mesh_cs002
100
AcDbLine
 10
422.107
 20
476.141
 30
5.1
 11
421.678
 21
476.19
 31
5.1
  0
LINE
  5
AB9
330
A02
100
AcDbEntity
  8
Mesh_cs002
100
AcDbLine
 10
421.678
 20
476.19
 30
5.1
 11
421.667
 21
476.192
 31
5.1
  0
LINE
  5
ABA
330
A02
100
AcDbEntity
  8
Mesh_cs002
100
AcDbLine
 10
421.667
 20
476.192
 30
5.1
 11
421.274
 21
476.271
 31
5.1
  0
LINE
  5
ABB
330
A02
100
AcDbEntity
  8
Mesh_cs002
100
AcDbLine
 10
421.274
 20
476.271
 30
5.1
 11
420.889
 21
476.382
 31
5.1
  0
LINE
  5
ABC
330
A02
100
AcDbEntity
  8
Mesh_cs002
100
AcDbLine
 10
420.889
 20
476.382
 30
5.1
 11
420.879
 21
476.385
 31
5.1
  0
LINE
  5
ABD
330
A02
100
AcDbEntity
  8
Mesh_cs002
100
AcDbLine
 10
420.879
 20
476.385
 30
5.1
 11
420.506
 21
476.527
 31
5.1
  0
LINE
  5
ABE
330
A02
100
AcDbEntity
  8
Mesh_cs002
100
AcDbLine
 10
420.506
 20
476.527
 30
5.1
 11
420.496
 21
476.531
 31
5.1
  0
LINE
  5
ABF
330
A02
100
AcDbEntity
  8
Mesh_cs002
100
AcDbLine
 10
420.496
 20
476.531
 30
5.1
 11
420.136
 21
476.702
 31
5.1
  0
LINE
  5
AC0
330
A02
100
AcDbEntity
  8
Mesh_cs002
100
AcDbLine
 10
420.136
 20
476.702
 30
5.1
 11
420.126
 21
476.707
 31
5.1
  0
LINE
  5
AC1
330
A02
100
AcDbEntity
  8
Mesh_cs002
100
AcDbLine
 10
420.126
 20
476.707
 30
5.1
 11
419.782
 21
476.907
 31
5.1
  0
LINE
  5
AC2
330
A02
100
AcDbEntity
  8
Mesh_cs002
100
AcDbLine
 10
419.782
 20
476.907
 30
5.1
 11
419.775
 21
476.911
 31
5.1
  0
LINE
  5
AC3
330
A02
100
AcDbEntity
  8
Mesh_cs002
100
AcDbLine
 10
419.775
 20
476.911
 30
5.1
 11
419.769
 21
476.915
 31
5.1
  0
LINE
  5
AC4
330
A02
100
AcDbEntity
  8
Mesh_cs002
100
AcDbLine
 10
419.769
 20
476.915
 30
5.1
 11
419.443
 21
477.142
 31
5.1
  0
LINE
  5
AC5
330
A02
100
AcDbEntity
  8
Mesh_cs002
100
AcDbLine
 10
419.443
 20
477.142
 30
5.1
 11
419.437
 21
477.147
 31
5.1
  0
LINE
  5
AC6
330
A02
100
AcDbEntity
  8
Mesh_cs002
100
AcDbLine
 10
419.437
 20
477.147
 30
5.1
 11
419.131
 21
477.399
 31
5.1
  0
LINE
  5
AC7
330
A02
100
AcDbEntity
  8
Mesh_cs002
100
AcDbLine
 10
419.131
 20
477.399
 30
5.1
 11
419.124
 21
477.405
 31
5.1
  0
LINE
  5
AC8
330
A02
100
AcDbEntity
  8
Mesh_cs002
100
AcDbLine
 10
419.124
 20
477.405
 30
5.1
 11
418.841
 21
477.68
 31
5.1
  0
LINE
  5
AC9
330
A02
100
AcDbEntity
  8
Mesh_cs002
100
AcDbLine
 10
418.841
 20
477.68
 30
5.1
 11
418.833
 21
477.688
 31
5.1
  0
LINE
  5
ACA
330
A02
100
AcDbEntity
  8
Mesh_cs002
100
AcDbLine
 10
418.833
 20
477.688
 30
5.1
 11
418.573
 21
477.985
 31
5.1
  0
LINE
  5
ACB
330
A02
100
AcDbEntity
  8
Mesh_cs002
100
AcDbLine
 10
418.573
 20
477.985
 30
5.1
 11
418.566
 21
477.994
 31
5.1
  0
LINE
  5
ACC
330
A02
100
AcDbEntity
  8
Mesh_cs002
100
AcDbLine
 10
418.566
 20
477.994
 30
5.1
 11
418.331
 21
478.31
 31
5.1
  0
LINE
  5
ACD
330
A02
100
AcDbEntity
  8
Mesh_cs002
100
AcDbLine
 10
418.331
 20
478.31
 30
5.1
 11
418.325
 21
478.32
 31
5.1
  0
LINE
  5
ACE
330
A02
100
AcDbEntity
  8
Mesh_cs002
100
AcDbLine
 10
418.325
 20
478.32
 30
5.1
 11
418.117
 21
478.654
 31
5.1
  0
LINE
  5
ACF
330
A02
100
AcDbEntity
  8
Mesh_cs002
100
AcDbLine
 10
418.117
 20
478.654
 30
5.1
 11
418.112
 21
478.663
 31
5.1
  0
LINE
  5
AD0
330
A02
100
AcDbEntity
  8
Mesh_cs002
100
AcDbLine
 10
418.112
 20
478.663
 30
5.1
 11
417.931
 21
479.013
 31
5.1
  0
LINE
  5
AD1
330
A02
100
AcDbEntity
  8
Mesh_cs002
100
AcDbLine
 10
417.931
 20
479.013
 30
5.1
 11
417.927
 21
479.023
 31
5.1
  0
LINE
  5
AD2
330
A02
100
AcDbEntity
  8
Mesh_cs002
100
AcDbLine
 10
417.927
 20
479.023
 30
5.1
 11
417.761
 21
479.425
 31
5.1
  0
LINE
  5
AD3
330
A02
100
AcDbEntity
  8
Mesh_cs002
100
AcDbLine
 10
417.761
 20
479.425
 30
5.1
 11
417.757
 21
479.436
 31
5.1
  0
LINE
  5
AD4
330
A02
100
AcDbEntity
  8
Mesh_cs002
100
AcDbLine
 10
417.757
 20
479.436
 30
5.1
 11
417.628
 21
479.851
 31
5.1
  0
LINE
  5
AD5
330
A02
100
AcDbEntity
  8
Mesh_cs002
100
AcDbLine
 10
417.628
 20
479.851
 30
5.1
 11
417.625
 21
479.862
 31
5.1
  0
LINE
  5
AD6
330
A02
100
AcDbEntity
  8
Mesh_cs002
100
AcDbLine
 10
417.625
 20
479.862
 30
5.1
 11
417.533
 21
480.286
 31
5.1
  0
LINE
  5
AD7
330
A02
100
AcDbEntity
  8
Mesh_cs002
100
AcDbLine
 10
417.533
 20
480.286
 30
5.1
 11
417.532
 21
480.296
 31
5.1
  0
LINE
  5
AD8
330
A02
100
AcDbEntity
  8
Mesh_cs002
100
AcDbLine
 10
417.532
 20
480.296
 30
5.1
 11
417.478
 21
480.726
 31
5.1
  0
LINE
  5
AD9
330
A02
100
AcDbEntity
  8
Mesh_cs002
100
AcDbLine
 10
417.478
 20
480.726
 30
5.1
 11
417.477
 21
480.736
 31
5.1
  0
LINE
  5
ADA
330
A02
100
AcDbEntity
  8
Mesh_cs002
100
AcDbLine
 10
417.477
 20
480.736
 30
5.1
 11
417.462
 21
481.168
 31
5.1
  0
LINE
  5
ADB
330
A02
100
AcDbEntity
  8
Mesh_cs002
100
AcDbLine
 10
417.462
 20
481.168
 30
5.1
 11
417.462
 21
481.178
 31
5.1
  0
LINE
  5
ADC
330
A02
100
AcDbEntity
  8
Mesh_cs002
100
AcDbLine
 10
417.462
 20
481.178
 30
5.1
 11
417.485
 21
481.609
 31
5.1
  0
LINE
  5
ADD
330
A02
100
AcDbEntity
  8
Mesh_cs002
100
AcDbLine
 10
417.485
 20
481.609
 30
5.1
 11
417.486
 21
481.619
 31
5.1
  0
LINE
  5
ADE
330
A02
100
AcDbEntity
  8
Mesh_cs002
100
AcDbLine
 10
417.486
 20
481.619
 30
5.1
 11
417.547
 21
482.045
 31
5.1
  0
LINE
  5
ADF
330
A02
100
AcDbEntity
  8
Mesh_cs002
100
AcDbLine
 10
417.547
 20
482.045
 30
5.1
 11
417.549
 21
482.055
 31
5.1
  0
LINE
  5
AE0
330
A02
100
AcDbEntity
  8
Mesh_cs002
100
AcDbLine
 10
417.549
 20
482.055
 30
5.1
 11
417.647
 21
482.474
 31
5.1
  0
LINE
  5
AE1
330
A02
100
AcDbEntity
  8
Mesh_cs002
100
AcDbLine
 10
417.647
 20
482.474
 30
5.1
 11
417.649
 21
482.483
 31
5.1
  0
LINE
  5
AE2
330
A02
100
AcDbEntity
  8
Mesh_cs002
100
AcDbLine
 10
417.649
 20
482.483
 30
5.1
 11
417.783
 21
482.891
 31
5.1
  0
LINE
  5
AE3
330
A02
100
AcDbEntity
  8
Mesh_cs002
100
AcDbLine
 10
417.783
 20
482.891
 30
5.1
 11
417.787
 21
482.9
 31
5.1
  0
LINE
  5
AE4
330
A02
100
AcDbEntity
  8
Mesh_cs002
100
AcDbLine
 10
417.787
 20
482.9
 30
5.1
 11
417.956
 21
483.293
 31
5.1
  0
LINE
  5
AE5
330
A02
100
AcDbEntity
  8
Mesh_cs002
100
AcDbLine
 10
417.956
 20
483.293
 30
5.1
 11
417.96
 21
483.303
 31
5.1
  0
LINE
  5
AE6
330
A02
100
AcDbEntity
  8
Mesh_cs002
100
AcDbLine
 10
417.96
 20
483.303
 30
5.1
 11
418.162
 21
483.678
 31
5.1
  0
LINE
  5
AE7
330
A02
100
AcDbEntity
  8
Mesh_cs002
100
AcDbLine
 10
418.162
 20
483.678
 30
5.1
 11
418.167
 21
483.688
 31
5.1
  0
LINE
  5
AE8
330
A02
100
AcDbEntity
  8
Mesh_cs002
100
AcDbLine
 10
418.167
 20
483.688
 30
5.1
 11
418.286
 21
483.878
 31
5.1
  0
LINE
  5
AE9
330
A02
100
AcDbEntity
  8
Mesh_cs002
100
AcDbLine
 10
418.286
 20
483.878
 30
5.1
 11
418.292
 21
483.886
 31
5.1
  0
LINE
  5
AEA
330
A02
100
AcDbEntity
  8
Mesh_cs002
100
AcDbLine
 10
418.292
 20
483.886
 30
5.1
 11
418.417
 21
484.067
 31
5.1
  0
LINE
  5
AEB
330
A02
100
AcDbEntity
  8
Mesh_cs002
100
AcDbLine
 10
418.417
 20
484.067
 30
5.1
 11
418.666
 21
484.381
 31
5.1
  0
LINE
  5
AEC
330
A02
100
AcDbEntity
  8
Mesh_cs002
100
AcDbLine
 10
418.666
 20
484.381
 30
5.1
 11
418.672
 21
484.389
 31
5.1
  0
LINE
  5
AED
330
A02
100
AcDbEntity
  8
Mesh_cs002
100
AcDbLine
 10
418.672
 20
484.389
 30
5.1
 11
418.96
 21
484.695
 31
5.1
  0
LINE
  5
AEE
330
A02
100
AcDbEntity
  8
Mesh_cs002
100
AcDbLine
 10
418.96
 20
484.695
 30
5.1
 11
418.967
 21
484.703
 31
5.1
  0
LINE
  5
AEF
330
A02
100
AcDbEntity
  8
Mesh_cs002
100
AcDbLine
 10
418.967
 20
484.703
 30
5.1
 11
419.264
 21
484.971
 31
5.1
  0
LINE
  5
AF0
330
A02
100
AcDbEntity
  8
Mesh_cs002
100
AcDbLine
 10
419.264
 20
484.971
 30
5.1
 11
419.272
 21
484.978
 31
5.1
  0
LINE
  5
AF1
330
A02
100
AcDbEntity
  8
Mesh_cs002
100
AcDbLine
 10
419.272
 20
484.978
 30
5.1
 11
419.589
 21
485.219
 31
5.1
  0
LINE
  5
AF2
330
A02
100
AcDbEntity
  8
Mesh_cs002
100
AcDbLine
 10
419.589
 20
485.219
 30
5.1
 11
419.597
 21
485.225
 31
5.1
  0
LINE
  5
AF3
330
A02
100
AcDbEntity
  8
Mesh_cs002
100
AcDbLine
 10
419.597
 20
485.225
 30
5.1
 11
419.932
 21
485.44
 31
5.1
  0
LINE
  5
AF4
330
A02
100
AcDbEntity
  8
Mesh_cs002
100
AcDbLine
 10
419.932
 20
485.44
 30
5.1
 11
419.941
 21
485.446
 31
5.1
  0
LINE
  5
AF5
330
A02
100
AcDbEntity
  8
Mesh_cs002
100
AcDbLine
 10
419.941
 20
485.446
 30
5.1
 11
420.292
 21
485.632
 31
5.1
  0
LINE
  5
AF6
330
A02
100
AcDbEntity
  8
Mesh_cs002
100
AcDbLine
 10
420.292
 20
485.632
 30
5.1
 11
420.301
 21
485.637
 31
5.1
  0
LINE
  5
AF7
330
A02
100
AcDbEntity
  8
Mesh_cs002
100
AcDbLine
 10
420.301
 20
485.637
 30
5.1
 11
420.665
 21
485.793
 31
5.1
  0
LINE
  5
AF8
330
A02
100
AcDbEntity
  8
Mesh_cs002
100
AcDbLine
 10
420.665
 20
485.793
 30
5.1
 11
420.675
 21
485.797
 31
5.1
  0
LINE
  5
AF9
330
A02
100
AcDbEntity
  8
Mesh_cs002
100
AcDbLine
 10
420.675
 20
485.797
 30
5.1
 11
421.05
 21
485.924
 31
5.1
  0
LINE
  5
AFA
330
A02
100
AcDbEntity
  8
Mesh_cs002
100
AcDbLine
 10
421.05
 20
485.924
 30
5.1
 11
421.06
 21
485.927
 31
5.1
  0
LINE
  5
AFB
330
A02
100
AcDbEntity
  8
Mesh_cs002
100
AcDbLine
 10
421.06
 20
485.927
 30
5.1
 11
421.443
 21
486.022
 31
5.1
  0
LINE
  5
AFC
330
A02
100
AcDbEntity
  8
Mesh_cs002
100
AcDbLine
 10
421.443
 20
486.022
 30
5.1
 11
421.453
 21
486.025
 31
5.1
  0
LINE
  5
AFD
330
A02
100
AcDbEntity
  8
Mesh_cs002
100
AcDbLine
 10
421.453
 20
486.025
 30
5.1
 11
421.842
 21
486.089
 31
5.1
  0
LINE
  5
AFE
330
A02
100
AcDbEntity
  8
Mesh_cs002
100
AcDbLine
 10
421.842
 20
486.089
 30
5.1
 11
421.852
 21
486.09
 31
5.1
  0
LINE
  5
AFF
330
A02
100
AcDbEntity
  8
Mesh_cs002
100
AcDbLine
 10
421.852
 20
486.09
 30
5.1
 11
422.245
 21
486.123
 31
5.1
  0
LINE
  5
B00
330
A02
100
AcDbEntity
  8
Mesh_cs002
100
AcDbLine
 10
422.245
 20
486.123
 30
5.1
 11
422.255
 21
486.123
 31
5.1
  0
LINE
  5
B01
330
A02
100
AcDbEntity
  8
Mesh_cs002
100
AcDbLine
 10
422.255
 20
486.123
 30
5.1
 11
422.648
 21
486.124
 31
5.1
  0
LINE
  5
B02
330
A02
100
AcDbEntity
  8
Mesh_cs002
100
AcDbLine
 10
422.648
 20
486.124
 30
5.1
 11
422.658
 21
486.124
 31
5.1
  0
LINE
  5
B03
330
A02
100
AcDbEntity
  8
Mesh_cs002
100
AcDbLine
 10
422.658
 20
486.124
 30
5.1
 11
423.05
 21
486.093
 31
5.1
  0
LINE
  5
B04
330
A02
100
AcDbEntity
  8
Mesh_cs002
100
AcDbLine
 10
423.05
 20
486.093
 30
5.1
 11
423.06
 21
486.092
 31
5.1
  0
LINE
  5
B05
330
A02
100
AcDbEntity
  8
Mesh_cs002
100
AcDbLine
 10
423.06
 20
486.092
 30
5.1
 11
423.07
 21
486.09
 31
5.1
  0
LINE
  5
B06
330
A02
100
AcDbEntity
  8
Mesh_cs002
100
AcDbLine
 10
423.07
 20
486.09
 30
5.1
 11
423.499
 21
486.019
 31
5.1
  0
LINE
  5
B07
330
A02
100
AcDbEntity
  8
Mesh_cs002
100
AcDbLine
 10
423.499
 20
486.019
 30
5.1
 11
423.51
 21
486.016
 31
5.1
  0
LINE
  5
B08
330
A02
100
AcDbEntity
  8
Mesh_cs002
100
AcDbLine
 10
423.51
 20
486.016
 30
5.1
 11
423.931
 21
485.907
 31
5.1
  0
LINE
  5
B09
330
A02
100
AcDbEntity
  8
Mesh_cs002
100
AcDbLine
 10
423.931
 20
485.907
 30
5.1
 11
423.941
 21
485.903
 31
5.1
  0
LINE
  5
B0A
330
A02
100
AcDbEntity
  8
Mesh_cs002
100
AcDbLine
 10
423.941
 20
485.903
 30
5.1
 11
424.35
 21
485.758
 31
5.1
  0
LINE
  5
B0B
330
A02
100
AcDbEntity
  8
Mesh_cs002
100
AcDbLine
 10
424.35
 20
485.758
 30
5.1
 11
424.36
 21
485.753
 31
5.1
  0
LINE
  5
B0C
330
A02
100
AcDbEntity
  8
Mesh_cs002
100
AcDbLine
 10
424.36
 20
485.753
 30
5.1
 11
424.753
 21
485.572
 31
5.1
  0
LINE
  5
B0D
330
A02
100
AcDbEntity
  8
Mesh_cs002
100
AcDbLine
 10
424.753
 20
485.572
 30
5.1
 11
424.763
 21
485.566
 31
5.1
  0
LINE
  5
B0E
330
A02
100
AcDbEntity
  8
Mesh_cs002
100
AcDbLine
 10
424.763
 20
485.566
 30
5.1
 11
425.138
 21
485.351
 31
5.1
  0
LINE
  5
B0F
330
A02
100
AcDbEntity
  8
Mesh_cs002
100
AcDbLine
 10
425.138
 20
485.351
 30
5.1
 11
425.147
 21
485.345
 31
5.1
  0
LINE
  5
B10
330
A02
100
AcDbEntity
  8
Mesh_cs002
100
AcDbLine
 10
425.147
 20
485.345
 30
5.1
 11
425.5
 21
485.099
 31
5.1
  0
LINE
  5
B11
330
A02
100
AcDbEntity
  8
Mesh_cs002
100
AcDbLine
 10
425.5
 20
485.099
 30
5.1
 11
425.509
 21
485.091
 31
5.1
  0
LINE
  5
B12
330
A02
100
AcDbEntity
  8
Mesh_cs002
100
AcDbLine
 10
425.509
 20
485.091
 30
5.1
 11
425.839
 21
484.815
 31
5.1
  0
LINE
  5
B13
330
A02
100
AcDbEntity
  8
Mesh_cs002
100
AcDbLine
 10
425.839
 20
484.815
 30
5.1
 11
425.846
 21
484.807
 31
5.1
  0
LINE
  5
B14
330
A02
100
AcDbEntity
  8
Mesh_cs002
100
AcDbLine
 10
425.846
 20
484.807
 30
5.1
 11
426.15
 21
484.504
 31
5.1
  0
LINE
  5
B15
330
A02
100
AcDbEntity
  8
Mesh_cs002
100
AcDbLine
 10
426.15
 20
484.504
 30
5.1
 11
426.157
 21
484.495
 31
5.1
  0
LINE
  5
B16
330
A02
100
AcDbEntity
  8
Mesh_cs002
100
AcDbLine
 10
426.157
 20
484.495
 30
5.1
 11
426.432
 21
484.167
 31
5.1
  0
LINE
  5
B17
330
A02
100
AcDbEntity
  8
Mesh_cs002
100
AcDbLine
 10
426.432
 20
484.167
 30
5.1
 11
426.438
 21
484.158
 31
5.1
  0
LINE
  5
B18
330
A02
100
AcDbEntity
  8
Mesh_cs002
100
AcDbLine
 10
426.438
 20
484.158
 30
5.1
 11
426.683
 21
483.808
 31
5.1
  0
LINE
  5
B19
330
A02
100
AcDbEntity
  8
Mesh_cs002
100
AcDbLine
 10
426.683
 20
483.808
 30
5.1
 11
426.689
 21
483.798
 31
5.1
  0
LINE
  5
B1A
330
A02
100
AcDbEntity
  8
Mesh_cs002
100
AcDbLine
 10
426.689
 20
483.798
 30
5.1
 11
426.901
 21
483.428
 31
5.1
  0
LINE
  5
B1B
330
A02
100
AcDbEntity
  8
Mesh_cs002
100
AcDbLine
 10
426.901
 20
483.428
 30
5.1
 11
426.906
 21
483.419
 31
5.1
  0
LINE
  5
B1C
330
A02
100
AcDbEntity
  8
Mesh_cs002
100
AcDbLine
 10
426.906
 20
483.419
 30
5.1
 11
427.086
 21
483.031
 31
5.1
  0
LINE
  5
B1D
330
A02
100
AcDbEntity
  8
Mesh_cs002
100
AcDbLine
 10
427.086
 20
483.031
 30
5.1
 11
427.223
 21
482.654
 31
5.1
  0
LINE
  5
B1E
330
A02
100
AcDbEntity
  8
Mesh_cs002
100
AcDbLine
 10
427.223
 20
482.654
 30
5.1
 11
427.227
 21
482.643
 31
5.1
  0
LINE
  5
B1F
330
A02
100
AcDbEntity
  8
Mesh_cs002
100
AcDbLine
 10
427.227
 20
482.643
 30
5.1
 11
427.332
 21
482.257
 31
5.1
  0
LINE
  5
B20
330
A02
100
AcDbEntity
  8
Mesh_cs002
100
AcDbLine
 10
427.332
 20
482.257
 30
5.1
 11
427.335
 21
482.247
 31
5.1
  0
LINE
  5
B21
330
A02
100
AcDbEntity
  8
Mesh_cs002
100
AcDbLine
 10
427.335
 20
482.247
 30
5.1
 11
427.409
 21
481.854
 31
5.1
  0
LINE
  5
B22
330
A02
100
AcDbEntity
  8
Mesh_cs002
100
AcDbLine
 10
427.409
 20
481.854
 30
5.1
 11
427.41
 21
481.844
 31
5.1
  0
LINE
  5
B23
330
A02
100
AcDbEntity
  8
Mesh_cs002
100
AcDbLine
 10
427.41
 20
481.844
 30
5.1
 11
427.451
 21
481.447
 31
5.1
  0
LINE
  5
B24
330
A02
100
AcDbEntity
  8
Mesh_cs002
100
AcDbLine
 10
427.451
 20
481.447
 30
5.1
 11
427.452
 21
481.437
 31
5.1
  0
LINE
  5
B25
330
A02
100
AcDbEntity
  8
Mesh_cs002
100
AcDbLine
 10
427.452
 20
481.437
 30
5.1
 11
427.461
 21
481.039
 31
5.1
  0
LINE
  5
B26
330
A02
100
AcDbEntity
  8
Mesh_cs002
100
AcDbLine
 10
427.461
 20
481.039
 30
5.1
 11
427.461
 21
481.029
 31
5.1
  0
LINE
  5
B27
330
A02
100
AcDbEntity
  8
Mesh_cs002
100
AcDbLine
 10
427.461
 20
481.029
 30
5.1
 11
427.437
 21
480.632
 31
5.1
  0
LINE
  5
B28
330
A02
100
AcDbEntity
  8
Mesh_cs002
100
AcDbLine
 10
427.437
 20
480.632
 30
5.1
 11
427.436
 21
480.622
 31
5.1
  0
LINE
  5
B29
330
A02
100
AcDbEntity
  8
Mesh_cs002
100
AcDbLine
 10
427.436
 20
480.622
 30
5.1
 11
427.38
 21
480.23
 31
5.1
  0
LINE
  5
B2A
330
A02
100
AcDbEntity
  8
Mesh_cs002
100
AcDbLine
 10
427.38
 20
480.23
 30
5.1
 11
427.379
 21
480.219
 31
5.1
  0
LINE
  5
B2B
330
A02
100
AcDbEntity
  8
Mesh_cs002
100
AcDbLine
 10
427.379
 20
480.219
 30
5.1
 11
427.291
 21
479.833
 31
5.1
  0
LINE
  5
B2C
330
A02
100
AcDbEntity
  8
Mesh_cs002
100
AcDbLine
 10
427.291
 20
479.833
 30
5.1
 11
427.289
 21
479.824
 31
5.1
  0
LINE
  5
B2D
330
A02
100
AcDbEntity
  8
Mesh_cs002
100
AcDbLine
 10
427.289
 20
479.824
 30
5.1
 11
427.171
 21
479.447
 31
5.1
  0
LINE
  5
B2E
330
A02
100
AcDbEntity
  8
Mesh_cs002
100
AcDbLine
 10
427.171
 20
479.447
 30
5.1
 11
427.167
 21
479.437
 31
5.1
  0
LINE
  5
B2F
330
A02
100
AcDbEntity
  8
Mesh_cs002
100
AcDbLine
 10
427.167
 20
479.437
 30
5.1
 11
427.019
 21
479.071
 31
5.1
  0
LINE
  5
B30
330
A02
100
AcDbEntity
  8
Mesh_cs002
100
AcDbLine
 10
427.019
 20
479.071
 30
5.1
 11
427.015
 21
479.062
 31
5.1
  0
LINE
  5
B31
330
A02
100
AcDbEntity
  8
Mesh_cs002
100
AcDbLine
 10
427.015
 20
479.062
 30
5.1
 11
426.838
 21
478.71
 31
5.1
  0
LINE
  5
B32
330
A02
100
AcDbEntity
  8
Mesh_cs002
100
AcDbLine
 10
426.838
 20
478.71
 30
5.1
 11
426.834
 21
478.701
 31
5.1
  0
LINE
  5
B33
330
A02
100
AcDbEntity
  8
Mesh_cs002
100
AcDbLine
 10
426.834
 20
478.701
 30
5.1
 11
426.629
 21
478.365
 31
5.1
  0
LINE
  5
B34
330
A02
100
AcDbEntity
  8
Mesh_cs002
100
AcDbLine
 10
426.629
 20
478.365
 30
5.1
 11
426.624
 21
478.357
 31
5.1
  0
LINE
  5
B35
330
A02
100
AcDbEntity
  8
Mesh_cs002
100
AcDbLine
 10
426.624
 20
478.357
 30
5.1
 11
426.394
 21
478.039
 31
5.1
  0
LINE
  5
B36
330
A02
100
AcDbEntity
  8
Mesh_cs002
100
AcDbLine
 10
292.75
 20
575.137
 30
5.1
 11
292.744
 21
575.128
 31
5.1
  0
LINE
  5
B37
330
A02
100
AcDbEntity
  8
Mesh_cs002
100
AcDbLine
 10
292.744
 20
575.128
 30
5.1
 11
292.519
 21
574.756
 31
5.1
  0
LINE
  5
B38
330
A02
100
AcDbEntity
  8
Mesh_cs002
100
AcDbLine
 10
292.519
 20
574.756
 30
5.1
 11
292.514
 21
574.747
 31
5.1
  0
LINE
  5
B39
330
A02
100
AcDbEntity
  8
Mesh_cs002
100
AcDbLine
 10
292.514
 20
574.747
 30
5.1
 11
292.323
 21
574.357
 31
5.1
  0
LINE
  5
B3A
330
A02
100
AcDbEntity
  8
Mesh_cs002
100
AcDbLine
 10
292.323
 20
574.357
 30
5.1
 11
292.318
 21
574.348
 31
5.1
  0
LINE
  5
B3B
330
A02
100
AcDbEntity
  8
Mesh_cs002
100
AcDbLine
 10
292.318
 20
574.348
 30
5.1
 11
292.315
 21
574.339
 31
5.1
  0
LINE
  5
B3C
330
A02
100
AcDbEntity
  8
Mesh_cs002
100
AcDbLine
 10
292.315
 20
574.339
 30
5.1
 11
292.159
 21
573.934
 31
5.1
  0
LINE
  5
B3D
330
A02
100
AcDbEntity
  8
Mesh_cs002
100
AcDbLine
 10
292.159
 20
573.934
 30
5.1
 11
292.157
 21
573.924
 31
5.1
  0
LINE
  5
B3E
330
A02
100
AcDbEntity
  8
Mesh_cs002
100
AcDbLine
 10
292.157
 20
573.924
 30
5.1
 11
292.038
 21
573.508
 31
5.1
  0
LINE
  5
B3F
330
A02
100
AcDbEntity
  8
Mesh_cs002
100
AcDbLine
 10
292.038
 20
573.508
 30
5.1
 11
292.036
 21
573.497
 31
5.1
  0
LINE
  5
B40
330
A02
100
AcDbEntity
  8
Mesh_cs002
100
AcDbLine
 10
292.036
 20
573.497
 30
5.1
 11
291.955
 21
573.073
 31
5.1
  0
LINE
  5
B41
330
A02
100
AcDbEntity
  8
Mesh_cs002
100
AcDbLine
 10
291.955
 20
573.073
 30
5.1
 11
291.954
 21
573.062
 31
5.1
  0
LINE
  5
B42
330
A02
100
AcDbEntity
  8
Mesh_cs002
100
AcDbLine
 10
291.954
 20
573.062
 30
5.1
 11
291.91
 21
572.634
 31
5.1
  0
LINE
  5
B43
330
A02
100
AcDbEntity
  8
Mesh_cs002
100
AcDbLine
 10
291.91
 20
572.634
 30
5.1
 11
291.91
 21
572.623
 31
5.1
  0
LINE
  5
B44
330
A02
100
AcDbEntity
  8
Mesh_cs002
100
AcDbLine
 10
291.91
 20
572.623
 30
5.1
 11
291.905
 21
572.193
 31
5.1
  0
LINE
  5
B45
330
A02
100
AcDbEntity
  8
Mesh_cs002
100
AcDbLine
 10
291.905
 20
572.193
 30
5.1
 11
291.906
 21
572.182
 31
5.1
  0
LINE
  5
B46
330
A02
100
AcDbEntity
  8
Mesh_cs002
100
AcDbLine
 10
291.906
 20
572.182
 30
5.1
 11
291.938
 21
571.754
 31
5.1
  0
LINE
  5
B47
330
A02
100
AcDbEntity
  8
Mesh_cs002
100
AcDbLine
 10
291.938
 20
571.754
 30
5.1
 11
291.94
 21
571.743
 31
5.1
  0
LINE
  5
B48
330
A02
100
AcDbEntity
  8
Mesh_cs002
100
AcDbLine
 10
291.94
 20
571.743
 30
5.1
 11
292.01
 21
571.32
 31
5.1
  0
LINE
  5
B49
330
A02
100
AcDbEntity
  8
Mesh_cs002
100
AcDbLine
 10
292.01
 20
571.32
 30
5.1
 11
292.013
 21
571.31
 31
5.1
  0
LINE
  5
B4A
330
A02
100
AcDbEntity
  8
Mesh_cs002
100
AcDbLine
 10
292.013
 20
571.31
 30
5.1
 11
292.119
 21
570.896
 31
5.1
  0
LINE
  5
B4B
330
A02
100
AcDbEntity
  8
Mesh_cs002
100
AcDbLine
 10
292.119
 20
570.896
 30
5.1
 11
292.123
 21
570.886
 31
5.1
  0
LINE
  5
B4C
330
A02
100
AcDbEntity
  8
Mesh_cs002
100
AcDbLine
 10
292.123
 20
570.886
 30
5.1
 11
292.265
 21
570.484
 31
5.1
  0
LINE
  5
B4D
330
A02
100
AcDbEntity
  8
Mesh_cs002
100
AcDbLine
 10
292.265
 20
570.484
 30
5.1
 11
292.269
 21
570.474
 31
5.1
  0
LINE
  5
B4E
330
A02
100
AcDbEntity
  8
Mesh_cs002
100
AcDbLine
 10
292.269
 20
570.474
 30
5.1
 11
292.449
 21
570.08
 31
5.1
  0
LINE
  5
B4F
330
A02
100
AcDbEntity
  8
Mesh_cs002
100
AcDbLine
 10
292.449
 20
570.08
 30
5.1
 11
292.454
 21
570.07
 31
5.1
  0
LINE
  5
B50
330
A02
100
AcDbEntity
  8
Mesh_cs002
100
AcDbLine
 10
292.454
 20
570.07
 30
5.1
 11
292.651
 21
569.721
 31
5.1
  0
LINE
  5
B51
330
A02
100
AcDbEntity
  8
Mesh_cs002
100
AcDbLine
 10
292.651
 20
569.721
 30
5.1
 11
292.875
 21
569.39
 31
5.1
  0
LINE
  5
B52
330
A02
100
AcDbEntity
  8
Mesh_cs002
100
AcDbLine
 10
292.875
 20
569.39
 30
5.1
 11
292.881
 21
569.381
 31
5.1
  0
LINE
  5
B53
330
A02
100
AcDbEntity
  8
Mesh_cs002
100
AcDbLine
 10
292.881
 20
569.381
 30
5.1
 11
293.131
 21
569.07
 31
5.1
  0
LINE
  5
B54
330
A02
100
AcDbEntity
  8
Mesh_cs002
100
AcDbLine
 10
293.131
 20
569.07
 30
5.1
 11
293.138
 21
569.061
 31
5.1
  0
LINE
  5
B55
330
A02
100
AcDbEntity
  8
Mesh_cs002
100
AcDbLine
 10
293.138
 20
569.061
 30
5.1
 11
293.412
 21
568.772
 31
5.1
  0
LINE
  5
B56
330
A02
100
AcDbEntity
  8
Mesh_cs002
100
AcDbLine
 10
293.412
 20
568.772
 30
5.1
 11
293.42
 21
568.764
 31
5.1
  0
LINE
  5
B57
330
A02
100
AcDbEntity
  8
Mesh_cs002
100
AcDbLine
 10
293.42
 20
568.764
 30
5.1
 11
293.716
 21
568.499
 31
5.1
  0
LINE
  5
B58
330
A02
100
AcDbEntity
  8
Mesh_cs002
100
AcDbLine
 10
293.716
 20
568.499
 30
5.1
 11
293.722
 21
568.494
 31
5.1
  0
LINE
  5
B59
330
A02
100
AcDbEntity
  8
Mesh_cs002
100
AcDbLine
 10
293.722
 20
568.494
 30
5.1
 11
293.728
 21
568.489
 31
5.1
  0
LINE
  5
B5A
330
A02
100
AcDbEntity
  8
Mesh_cs002
100
AcDbLine
 10
293.728
 20
568.489
 30
5.1
 11
294.045
 21
568.249
 31
5.1
  0
LINE
  5
B5B
330
A02
100
AcDbEntity
  8
Mesh_cs002
100
AcDbLine
 10
294.045
 20
568.249
 30
5.1
 11
294.052
 21
568.245
 31
5.1
  0
LINE
  5
B5C
330
A02
100
AcDbEntity
  8
Mesh_cs002
100
AcDbLine
 10
294.052
 20
568.245
 30
5.1
 11
294.386
 21
568.032
 31
5.1
  0
LINE
  5
B5D
330
A02
100
AcDbEntity
  8
Mesh_cs002
100
AcDbLine
 10
294.386
 20
568.032
 30
5.1
 11
294.393
 21
568.027
 31
5.1
  0
LINE
  5
B5E
330
A02
100
AcDbEntity
  8
Mesh_cs002
100
AcDbLine
 10
294.393
 20
568.027
 30
5.1
 11
294.743
 21
567.843
 31
5.1
  0
LINE
  5
B5F
330
A02
100
AcDbEntity
  8
Mesh_cs002
100
AcDbLine
 10
294.743
 20
567.843
 30
5.1
 11
294.753
 21
567.838
 31
5.1
  0
LINE
  5
B60
330
A02
100
AcDbEntity
  8
Mesh_cs002
100
AcDbLine
 10
294.753
 20
567.838
 30
5.1
 11
295.116
 21
567.682
 31
5.1
  0
LINE
  5
B61
330
A02
100
AcDbEntity
  8
Mesh_cs002
100
AcDbLine
 10
295.116
 20
567.682
 30
5.1
 11
295.126
 21
567.678
 31
5.1
  0
LINE
  5
B62
330
A02
100
AcDbEntity
  8
Mesh_cs002
100
AcDbLine
 10
295.126
 20
567.678
 30
5.1
 11
295.5
 21
567.553
 31
5.1
  0
LINE
  5
B63
330
A02
100
AcDbEntity
  8
Mesh_cs002
100
AcDbLine
 10
295.5
 20
567.553
 30
5.1
 11
295.51
 21
567.55
 31
5.1
  0
LINE
  5
B64
330
A02
100
AcDbEntity
  8
Mesh_cs002
100
AcDbLine
 10
295.51
 20
567.55
 30
5.1
 11
295.892
 21
567.455
 31
5.1
  0
LINE
  5
B65
330
A02
100
AcDbEntity
  8
Mesh_cs002
100
AcDbLine
 10
295.892
 20
567.455
 30
5.1
 11
295.903
 21
567.453
 31
5.1
  0
LINE
  5
B66
330
A02
100
AcDbEntity
  8
Mesh_cs002
100
AcDbLine
 10
295.903
 20
567.453
 30
5.1
 11
296.291
 21
567.39
 31
5.1
  0
LINE
  5
B67
330
A02
100
AcDbEntity
  8
Mesh_cs002
100
AcDbLine
 10
296.291
 20
567.39
 30
5.1
 11
296.302
 21
567.388
 31
5.1
  0
LINE
  5
B68
330
A02
100
AcDbEntity
  8
Mesh_cs002
100
AcDbLine
 10
296.302
 20
567.388
 30
5.1
 11
296.736
 21
567.355
 31
5.1
  0
LINE
  5
B69
330
A02
100
AcDbEntity
  8
Mesh_cs002
100
AcDbLine
 10
296.736
 20
567.355
 30
5.1
 11
296.748
 21
567.355
 31
5.1
  0
LINE
  5
B6A
330
A02
100
AcDbEntity
  8
Mesh_cs002
100
AcDbLine
 10
296.748
 20
567.355
 30
5.1
 11
297.182
 21
567.36
 31
5.1
  0
LINE
  5
B6B
330
A02
100
AcDbEntity
  8
Mesh_cs002
100
AcDbLine
 10
297.182
 20
567.36
 30
5.1
 11
297.194
 21
567.361
 31
5.1
  0
LINE
  5
B6C
330
A02
100
AcDbEntity
  8
Mesh_cs002
100
AcDbLine
 10
297.194
 20
567.361
 30
5.1
 11
297.625
 21
567.404
 31
5.1
  0
LINE
  5
B6D
330
A02
100
AcDbEntity
  8
Mesh_cs002
100
AcDbLine
 10
297.625
 20
567.404
 30
5.1
 11
297.635
 21
567.406
 31
5.1
  0
LINE
  5
B6E
330
A02
100
AcDbEntity
  8
Mesh_cs002
100
AcDbLine
 10
297.635
 20
567.406
 30
5.1
 11
298.061
 21
567.488
 31
5.1
  0
LINE
  5
B6F
330
A02
100
AcDbEntity
  8
Mesh_cs002
100
AcDbLine
 10
298.061
 20
567.488
 30
5.1
 11
298.07
 21
567.49
 31
5.1
  0
LINE
  5
B70
330
A02
100
AcDbEntity
  8
Mesh_cs002
100
AcDbLine
 10
298.07
 20
567.49
 30
5.1
 11
298.486
 21
567.609
 31
5.1
  0
LINE
  5
B71
330
A02
100
AcDbEntity
  8
Mesh_cs002
100
AcDbLine
 10
298.486
 20
567.609
 30
5.1
 11
298.496
 21
567.613
 31
5.1
  0
LINE
  5
B72
330
A02
100
AcDbEntity
  8
Mesh_cs002
100
AcDbLine
 10
298.496
 20
567.613
 30
5.1
 11
298.898
 21
567.768
 31
5.1
  0
LINE
  5
B73
330
A02
100
AcDbEntity
  8
Mesh_cs002
100
AcDbLine
 10
298.898
 20
567.768
 30
5.1
 11
298.908
 21
567.772
 31
5.1
  0
LINE
  5
B74
330
A02
100
AcDbEntity
  8
Mesh_cs002
100
AcDbLine
 10
298.908
 20
567.772
 30
5.1
 11
299.294
 21
567.961
 31
5.1
  0
LINE
  5
B75
330
A02
100
AcDbEntity
  8
Mesh_cs002
100
AcDbLine
 10
299.294
 20
567.961
 30
5.1
 11
299.303
 21
567.966
 31
5.1
  0
LINE
  5
B76
330
A02
100
AcDbEntity
  8
Mesh_cs002
100
AcDbLine
 10
299.303
 20
567.966
 30
5.1
 11
299.671
 21
568.188
 31
5.1
  0
LINE
  5
B77
330
A02
100
AcDbEntity
  8
Mesh_cs002
100
AcDbLine
 10
299.671
 20
568.188
 30
5.1
 11
299.679
 21
568.194
 31
5.1
  0
LINE
  5
B78
330
A02
100
AcDbEntity
  8
Mesh_cs002
100
AcDbLine
 10
299.679
 20
568.194
 30
5.1
 11
300.025
 21
568.447
 31
5.1
  0
LINE
  5
B79
330
A02
100
AcDbEntity
  8
Mesh_cs002
100
AcDbLine
 10
300.025
 20
568.447
 30
5.1
 11
300.033
 21
568.453
 31
5.1
  0
LINE
  5
B7A
330
A02
100
AcDbEntity
  8
Mesh_cs002
100
AcDbLine
 10
300.033
 20
568.453
 30
5.1
 11
300.355
 21
568.735
 31
5.1
  0
LINE
  5
B7B
330
A02
100
AcDbEntity
  8
Mesh_cs002
100
AcDbLine
 10
300.355
 20
568.735
 30
5.1
 11
300.362
 21
568.742
 31
5.1
  0
LINE
  5
B7C
330
A02
100
AcDbEntity
  8
Mesh_cs002
100
AcDbLine
 10
300.362
 20
568.742
 30
5.1
 11
300.657
 21
569.051
 31
5.1
  0
LINE
  5
B7D
330
A02
100
AcDbEntity
  8
Mesh_cs002
100
AcDbLine
 10
300.657
 20
569.051
 30
5.1
 11
300.664
 21
569.058
 31
5.1
  0
LINE
  5
B7E
330
A02
100
AcDbEntity
  8
Mesh_cs002
100
AcDbLine
 10
300.664
 20
569.058
 30
5.1
 11
300.809
 21
569.231
 31
5.1
  0
LINE
  5
B7F
330
A02
100
AcDbEntity
  8
Mesh_cs002
100
AcDbLine
 10
300.809
 20
569.231
 30
5.1
 11
300.815
 21
569.239
 31
5.1
  0
LINE
  5
B80
330
A02
100
AcDbEntity
  8
Mesh_cs002
100
AcDbLine
 10
300.815
 20
569.239
 30
5.1
 11
300.948
 21
569.413
 31
5.1
  0
LINE
  5
B81
330
A02
100
AcDbEntity
  8
Mesh_cs002
100
AcDbLine
 10
300.948
 20
569.413
 30
5.1
 11
301.17
 21
569.747
 31
5.1
  0
LINE
  5
B82
330
A02
100
AcDbEntity
  8
Mesh_cs002
100
AcDbLine
 10
301.17
 20
569.747
 30
5.1
 11
301.176
 21
569.756
 31
5.1
  0
LINE
  5
B83
330
A02
100
AcDbEntity
  8
Mesh_cs002
100
AcDbLine
 10
301.176
 20
569.756
 30
5.1
 11
301.378
 21
570.123
 31
5.1
  0
LINE
  5
B84
330
A02
100
AcDbEntity
  8
Mesh_cs002
100
AcDbLine
 10
301.378
 20
570.123
 30
5.1
 11
301.383
 21
570.133
 31
5.1
  0
LINE
  5
B85
330
A02
100
AcDbEntity
  8
Mesh_cs002
100
AcDbLine
 10
301.383
 20
570.133
 30
5.1
 11
301.546
 21
570.498
 31
5.1
  0
LINE
  5
B86
330
A02
100
AcDbEntity
  8
Mesh_cs002
100
AcDbLine
 10
301.546
 20
570.498
 30
5.1
 11
301.55
 21
570.507
 31
5.1
  0
LINE
  5
B87
330
A02
100
AcDbEntity
  8
Mesh_cs002
100
AcDbLine
 10
301.55
 20
570.507
 30
5.1
 11
301.682
 21
570.884
 31
5.1
  0
LINE
  5
B88
330
A02
100
AcDbEntity
  8
Mesh_cs002
100
AcDbLine
 10
301.682
 20
570.884
 30
5.1
 11
301.685
 21
570.894
 31
5.1
  0
LINE
  5
B89
330
A02
100
AcDbEntity
  8
Mesh_cs002
100
AcDbLine
 10
301.685
 20
570.894
 30
5.1
 11
301.786
 21
571.279
 31
5.1
  0
LINE
  5
B8A
330
A02
100
AcDbEntity
  8
Mesh_cs002
100
AcDbLine
 10
301.786
 20
571.279
 30
5.1
 11
301.788
 21
571.289
 31
5.1
  0
LINE
  5
B8B
330
A02
100
AcDbEntity
  8
Mesh_cs002
100
AcDbLine
 10
301.788
 20
571.289
 30
5.1
 11
301.857
 21
571.68
 31
5.1
  0
LINE
  5
B8C
330
A02
100
AcDbEntity
  8
Mesh_cs002
100
AcDbLine
 10
301.857
 20
571.68
 30
5.1
 11
301.859
 21
571.69
 31
5.1
  0
LINE
  5
B8D
330
A02
100
AcDbEntity
  8
Mesh_cs002
100
AcDbLine
 10
301.859
 20
571.69
 30
5.1
 11
301.895
 21
572.085
 31
5.1
  0
LINE
  5
B8E
330
A02
100
AcDbEntity
  8
Mesh_cs002
100
AcDbLine
 10
301.895
 20
572.085
 30
5.1
 11
301.896
 21
572.095
 31
5.1
  0
LINE
  5
B8F
330
A02
100
AcDbEntity
  8
Mesh_cs002
100
AcDbLine
 10
301.896
 20
572.095
 30
5.1
 11
301.9
 21
572.491
 31
5.1
  0
LINE
  5
B90
330
A02
100
AcDbEntity
  8
Mesh_cs002
100
AcDbLine
 10
301.9
 20
572.491
 30
5.1
 11
301.9
 21
572.501
 31
5.1
  0
LINE
  5
B91
330
A02
100
AcDbEntity
  8
Mesh_cs002
100
AcDbLine
 10
301.9
 20
572.501
 30
5.1
 11
301.872
 21
572.896
 31
5.1
  0
LINE
  5
B92
330
A02
100
AcDbEntity
  8
Mesh_cs002
100
AcDbLine
 10
301.872
 20
572.896
 30
5.1
 11
301.872
 21
572.906
 31
5.1
  0
LINE
  5
B93
330
A02
100
AcDbEntity
  8
Mesh_cs002
100
AcDbLine
 10
301.872
 20
572.906
 30
5.1
 11
301.812
 21
573.296
 31
5.1
  0
LINE
  5
B94
330
A02
100
AcDbEntity
  8
Mesh_cs002
100
AcDbLine
 10
301.812
 20
573.296
 30
5.1
 11
301.72
 21
573.689
 31
5.1
  0
LINE
  5
B95
330
A02
100
AcDbEntity
  8
Mesh_cs002
100
AcDbLine
 10
301.72
 20
573.689
 30
5.1
 11
301.597
 21
574.073
 31
5.1
  0
LINE
  5
B96
330
A02
100
AcDbEntity
  8
Mesh_cs002
100
AcDbLine
 10
301.597
 20
574.073
 30
5.1
 11
301.593
 21
574.083
 31
5.1
  0
LINE
  5
B97
330
A02
100
AcDbEntity
  8
Mesh_cs002
100
AcDbLine
 10
301.593
 20
574.083
 30
5.1
 11
301.443
 21
574.445
 31
5.1
  0
LINE
  5
B98
330
A02
100
AcDbEntity
  8
Mesh_cs002
100
AcDbLine
 10
301.443
 20
574.445
 30
5.1
 11
301.434
 21
574.464
 31
5.1
  0
LINE
  5
B99
330
A02
100
AcDbEntity
  8
Mesh_cs002
100
AcDbLine
 10
301.434
 20
574.464
 30
5.1
 11
301.234
 21
574.85
 31
5.1
  0
LINE
  5
B9A
330
A02
100
AcDbEntity
  8
Mesh_cs002
100
AcDbLine
 10
301.234
 20
574.85
 30
5.1
 11
300.994
 21
575.226
 31
5.1
  0
LINE
  5
B9B
330
A02
100
AcDbEntity
  8
Mesh_cs002
100
AcDbLine
 10
300.994
 20
575.226
 30
5.1
 11
300.722
 21
575.578
 31
5.1
  0
LINE
  5
B9C
330
A02
100
AcDbEntity
  8
Mesh_cs002
100
AcDbLine
 10
300.722
 20
575.578
 30
5.1
 11
300.421
 21
575.904
 31
5.1
  0
LINE
  5
B9D
330
A02
100
AcDbEntity
  8
Mesh_cs002
100
AcDbLine
 10
300.421
 20
575.904
 30
5.1
 11
300.093
 21
576.202
 31
5.1
  0
LINE
  5
B9E
330
A02
100
AcDbEntity
  8
Mesh_cs002
100
AcDbLine
 10
300.093
 20
576.202
 30
5.1
 11
299.74
 21
576.469
 31
5.1
  0
LINE
  5
B9F
330
A02
100
AcDbEntity
  8
Mesh_cs002
100
AcDbLine
 10
299.74
 20
576.469
 30
5.1
 11
299.366
 21
576.703
 31
5.1
  0
LINE
  5
BA0
330
A02
100
AcDbEntity
  8
Mesh_cs002
100
AcDbLine
 10
299.366
 20
576.703
 30
5.1
 11
298.974
 21
576.903
 31
5.1
  0
LINE
  5
BA1
330
A02
100
AcDbEntity
  8
Mesh_cs002
100
AcDbLine
 10
298.974
 20
576.903
 30
5.1
 11
298.566
 21
577.067
 31
5.1
  0
LINE
  5
BA2
330
A02
100
AcDbEntity
  8
Mesh_cs002
100
AcDbLine
 10
298.566
 20
577.067
 30
5.1
 11
298.147
 21
577.195
 31
5.1
  0
LINE
  5
BA3
330
A02
100
AcDbEntity
  8
Mesh_cs002
100
AcDbLine
 10
298.147
 20
577.195
 30
5.1
 11
297.719
 21
577.285
 31
5.1
  0
LINE
  5
BA4
330
A02
100
AcDbEntity
  8
Mesh_cs002
100
AcDbLine
 10
297.719
 20
577.285
 30
5.1
 11
297.284
 21
577.337
 31
5.1
  0
LINE
  5
BA5
330
A02
100
AcDbEntity
  8
Mesh_cs002
100
AcDbLine
 10
297.284
 20
577.337
 30
5.1
 11
296.883
 21
577.351
 31
5.1
  0
LINE
  5
BA6
330
A02
100
AcDbEntity
  8
Mesh_cs002
100
AcDbLine
 10
296.883
 20
577.351
 30
5.1
 11
296.472
 21
577.333
 31
5.1
  0
LINE
  5
BA7
330
A02
100
AcDbEntity
  8
Mesh_cs002
100
AcDbLine
 10
296.472
 20
577.333
 30
5.1
 11
296.065
 21
577.281
 31
5.1
  0
LINE
  5
BA8
330
A02
100
AcDbEntity
  8
Mesh_cs002
100
AcDbLine
 10
296.065
 20
577.281
 30
5.1
 11
295.664
 21
577.196
 31
5.1
  0
LINE
  5
BA9
330
A02
100
AcDbEntity
  8
Mesh_cs002
100
AcDbLine
 10
295.664
 20
577.196
 30
5.1
 11
295.273
 21
577.079
 31
5.1
  0
LINE
  5
BAA
330
A02
100
AcDbEntity
  8
Mesh_cs002
100
AcDbLine
 10
295.273
 20
577.079
 30
5.1
 11
294.894
 21
576.93
 31
5.1
  0
LINE
  5
BAB
330
A02
100
AcDbEntity
  8
Mesh_cs002
100
AcDbLine
 10
294.894
 20
576.93
 30
5.1
 11
294.528
 21
576.752
 31
5.1
  0
LINE
  5
BAC
330
A02
100
AcDbEntity
  8
Mesh_cs002
100
AcDbLine
 10
294.528
 20
576.752
 30
5.1
 11
294.519
 21
576.747
 31
5.1
  0
LINE
  5
BAD
330
A02
100
AcDbEntity
  8
Mesh_cs002
100
AcDbLine
 10
294.519
 20
576.747
 30
5.1
 11
294.179
 21
576.545
 31
5.1
  0
LINE
  5
BAE
330
A02
100
AcDbEntity
  8
Mesh_cs002
100
AcDbLine
 10
294.179
 20
576.545
 30
5.1
 11
294.171
 21
576.54
 31
5.1
  0
LINE
  5
BAF
330
A02
100
AcDbEntity
  8
Mesh_cs002
100
AcDbLine
 10
294.171
 20
576.54
 30
5.1
 11
293.849
 21
576.311
 31
5.1
  0
LINE
  5
BB0
330
A02
100
AcDbEntity
  8
Mesh_cs002
100
AcDbLine
 10
293.849
 20
576.311
 30
5.1
 11
293.539
 21
576.051
 31
5.1
  0
LINE
  5
BB1
330
A02
100
AcDbEntity
  8
Mesh_cs002
100
AcDbLine
 10
293.539
 20
576.051
 30
5.1
 11
293.251
 21
575.767
 31
5.1
  0
LINE
  5
BB2
330
A02
100
AcDbEntity
  8
Mesh_cs002
100
AcDbLine
 10
293.251
 20
575.767
 30
5.1
 11
293.244
 21
575.76
 31
5.1
  0
LINE
  5
BB3
330
A02
100
AcDbEntity
  8
Mesh_cs002
100
AcDbLine
 10
293.244
 20
575.76
 30
5.1
 11
292.988
 21
575.462
 31
5.1
  0
LINE
  5
BB4
330
A02
100
AcDbEntity
  8
Mesh_cs002
100
AcDbLine
 10
292.988
 20
575.462
 30
5.1
 11
292.75
 21
575.137
 31
5.1
  0
ENDSEC
  0
SECTION
  2
OBJECTS
  0
DICTIONARY
  5
F000
330
0
100
AcDbDictionary
  3
ACAD_GROUP
350
F001
  0
DICTIONARY
  5
F001
330
F000
100
AcDbDictionary
  0
ENDSEC
  0
EOF