999
FreeCAD v0.21 33771 (Git)
  0
SECTION
  2
HEADER
  9
$ACADVER
  1
AC1014
  9
$ACADMAINTVER
 70
     9
  9
$DWGCODEPAGE
  3
ANSI_1252
  9
$TEXTSTYLE
  7
STANDARD
  9
$DIMSTYLE
  2
STANDARD
  9
$DIMTXSTY
  7
STANDARD
  9
$CMLSTYLE
  2
STANDARD
  9
$LUNITS
 70
2
  9
$INSUNITS
 70
4
  9
$PEXTMAX
 10
50
 20
50
 30
50
  9
$PEXTMIN
 10
0
 20
0
 30
0
  9
$HANDSEED
  5
FFFF
  0
ENDSEC
  0
SECTION
  2
CLASSES
  0
CLASS
  1
ACDBDICTIONARYWDFLT
  2
AcDbDictionaryWithDefault
  3
ObjectDBX Classes
 90
        0
280
     0
281
     0
  0
CLASS
  1
XRECORD
  2
AcDbXrecord
  3
ObjectDBX Classes
 90
        0
280
     0
281
     0
  0
CLASS
  1
LWPOLYLINE
  2
AcDbPolyline
  3
ObjectDBX Classes
 90
        0
280
     0
281
     1
  0
ENDSEC
  0
SECTION
  2
TABLES
  0
TABLE
  2
VPORT
  5
20
330
0
100
AcDbSymbolTable
 70
     1
  0
VPORT
  5
21
330
20
100
AcDbSymbolTableRecord
100
AcDbViewportTableRecord
  2
*ACTIVE
 70
     0
  0
ENDTAB
  0
TABLE
  2
LTYPE
  5
22
330
0
100
AcDbSymbolTable
 70
     1
  0
LTYPE
  5
23
330
21
100
AcDbSymbolTableRecord
100
AcDbLinetypeTableRecord
  2
BYBLOCK
 70
     0
  3

 72
    65
 73
     0
 40
0.0
  0
LTYPE
  5
24
330
21
100
AcDbSymbolTableRecord
100
AcDbLinetypeTableRecord
  2
BYLAYER
 70
     0
  3

 72
    65
 73
     0
 40
0.0
  0
LTYPE
  5
25
330
21
100
AcDbSymbolTableRecord
100
AcDbLinetypeTableRecord
  2
CONTINUOUS
 70
     0
  3
Solid line
 72
    65
 73
     0
 40
0.0
  0
ENDTAB
  0
TABLE
  2
LAYER
  5
A7F
330
0
100
AcDbSymbolTable
 70
3
  0
LAYER
  5
A80
330
A7F
100
AcDbSymbolTableRecord
100
AcDbLayerTableRecord
  2
0
 70
   0
 62
   7
  6
CONTINUOUS
  0
LAYER
  5
A81
330
A7F
100
AcDbSymbolTableRecord
100
AcDbLayerTableRecord
  2
none
 70
    0
 62
    7
  6
CONTINUOUS
  0
LAYER
  5
A82
330
A7F
100
AcDbSymbolTableRecord
100
AcDbLayerTableRecord
  2
Mesh_cs
 70
    0
 62
    7
  6
CONTINUOUS
  0
ENDTAB
  0
TABLE
  2
STYLE
  5
70
330
0
100
AcDbSymbolTable
 70
     2
  0
STYLE
  5
71
330
70
100
AcDbSymbolTableRecord
100
AcDbTextStyleTableRecord
  2
STANDARD
 70
     0
 40
0.0
 41
1.0
 50
0.0
 71
     0
 42
2.5
  3
arial.ttf
  4

  0
STYLE
  5
72
330
70
100
AcDbSymbolTableRecord
100
AcDbTextStyleTableRecord
  2
ANNOTATIVE
 70
     0
 40
0.0
 41
1.0
 50
0.0
 71
     0
 42
2.5
  3
arial.ttf
  4

  0
ENDTAB
  0
TABLE
  2
VIEW
  5
73
330
0
100
AcDbSymbolTable
 70
     0
  0
ENDTAB
  0
TABLE
  2
UCS
  5
74
330
0
100
AcDbSymbolTable
 70
     0
  0
ENDTAB
  0
TABLE
  2
APPID
  5
75
330
0
100
AcDbSymbolTable
 70
     2
  0
APPID
  5
76
330
75
100
AcDbSymbolTableRecord
100
AcDbRegAppTableRecord
  2
ACAD
 70
     0
  0
APPID
  5
77
330
75
100
AcDbSymbolTableRecord
100
AcDbRegAppTableRecord
  2
ACADANNOTATIVE
 70
     0
  0
ENDTAB
  0
TABLE
  2
DIMSTYLE
  5
78
330
0
100
AcDbSymbolTable
 70
     2
  0
DIMSTYLE
105
79
330
78
100
AcDbSymbolTableRecord
100
AcDbDimStyleTableRecord
  2
STANDARD
 70
     0
  3

  4

  5

  6

  7

 40
0.0
 41
2.5
 42
0.625
 43
3.75
 44
1.25
 45
0.0
 46
0.0
 47
0.0
 48
0.0
140
2.5
141
2.5
142
0.0
143
0.03937007874016
144
1.0
145
0.0
146
1.0
147
0.625
 71
     0
 72
     0
 73
     0
 74
     0
 75
     0
 76
     0
 77
     1
 78
     8
170
     0
171
     3
172
     1
173
     0
174
     0
175
     0
176
     0
177
     0
178
     0
270
     2
271
     2
272
     2
273
     2
274
     3
340
71
275
     0
280
     0
281
     0
282
     0
283
     0
284
     8
285
     0
286
     0
287
     3
288
     0
  0
ENDTAB
  0
TABLE
  2
BLOCK_RECORD
  5
A01
330
0
100
AcDbSymbolTable
  70
5
  0
BLOCK_RECORD
  5
A02
330
A01
100
AcDbSymbolTableRecord
100
AcDbBlockTableRecord
  2
*MODEL_SPACE
  0
BLOCK_RECORD
  5
A03
330
A01
100
AcDbSymbolTableRecord
100
AcDbBlockTableRecord
  2
*PAPER_SPACE
  0
ENDTAB
  0
ENDSEC
  0
SECTION
  2
BLOCKS
  0
BLOCK
  5
A04
330
A02
100
AcDbEntity
  8
0
100
AcDbBlockBegin
  2
*MODEL_SPACE
 70
   0
 10
0
 20
0
 30
0
  3
*MODEL_SPACE
  1
 
  0
ENDBLK
  5
A05
330
A02
100
AcDbEntity
  8
0
100
AcDbBlockEnd
  0
BLOCK
  5
A06
330
A03
100
AcDbEntity
 67
1
  8
0
100
AcDbBlockBegin
  2
*PAPER_SPACE
 70
   0
 10
0
 20
0
 30
0
  3
*PAPER_SPACE
  1
 
  0
ENDBLK
  5
A07
330
A03
100
AcDbEntity
 67
    1
  8
0
100
AcDbBlockEnd
  0
ENDSEC
  0
SECTION
  2
ENTITIES
  0
LINE
  5
A08
330
A02
100
AcDbEntity
  8
Mesh_cs
100
AcDbLine
 10
14.9
 20
285.174
 30
9.1
 11
14.4033
 21
285.174
 31
9.1
  0
LINE
  5
A09
330
A02
100
AcDbEntity
  8
Mesh_cs
100
AcDbLine
 10
14.4033
 20
285.174
 30
9.1
 11
-1.77636e-15
 21
285.174
 31
9.1
  0
LINE
  5
A0A
330
A02
100
AcDbEntity
  8
Mesh_cs
100
AcDbLine
 10
-1.93333e-15
 20
285.174
 30
9.1
 11
-1.93333e-15
 21
285.671
 31
9.1
  0
LINE
  5
A0B
330
A02
100
AcDbEntity
  8
Mesh_cs
100
AcDbLine
 10
-1.93333e-15
 20
285.671
 30
9.1
 11
0
 21
300.074
 31
9.1
  0
LINE
  5
A0C
330
A02
100
AcDbEntity
  8
Mesh_cs
100
AcDbLine
 10
0
 20
300.074
 30
9.1
 11
14.4033
 21
300.074
 31
9.1
  0
LINE
  5
A0D
330
A02
100
AcDbEntity
  8
Mesh_cs
100
AcDbLine
 10
14.4033
 20
300.074
 30
9.1
 11
14.9
 21
300.074
 31
9.1
  0
LINE
  5
A0E
330
A02
100
AcDbEntity
  8
Mesh_cs
100
AcDbLine
 10
14.9
 20
300.074
 30
9.1
 11
14.9
 21
299.577
 31
9.1
  0
LINE
  5
A0F
330
A02
100
AcDbEntity
  8
Mesh_cs
100
AcDbLine
 10
14.9
 20
299.577
 30
9.1
 11
14.9
 21
285.174
 31
9.1
  0
LINE
  5
A10
330
A02
100
AcDbEntity
  8
Mesh_cs
100
AcDbLine
 10
195
 20
275.174
 30
9.1
 11
195
 21
266.832
 31
9.1
  0
LINE
  5
A11
330
A02
100
AcDbEntity
  8
Mesh_cs
100
AcDbLine
 10
195
 20
266.832
 30
9.1
 11
195
 21
24.9
 31
9.1
  0
LINE
  5
A12
330
A02
100
AcDbEntity
  8
Mesh_cs
100
AcDbLine
 10
195
 20
24.9
 30
9.1
 11
175.763
 21
24.9
 31
9.1
  0
LINE
  5
A13
330
A02
100
AcDbEntity
  8
Mesh_cs
100
AcDbLine
 10
175.763
 20
24.9
 30
9.1
 11
175.1
 21
24.9
 31
9.1
  0
LINE
  5
A14
330
A02
100
AcDbEntity
  8
Mesh_cs
100
AcDbLine
 10
175.1
 20
24.9
 30
9.1
 11
174.625
 21
24.8766
 31
9.1
  0
LINE
  5
A15
330
A02
100
AcDbEntity
  8
Mesh_cs
100
AcDbLine
 10
174.625
 20
24.8766
 30
9.1
 11
174.583
 21
24.8712
 31
9.1
  0
LINE
  5
A16
330
A02
100
AcDbEntity
  8
Mesh_cs
100
AcDbLine
 10
174.583
 20
24.8712
 30
9.1
 11
174.096
 21
24.7978
 31
9.1
  0
LINE
  5
A17
330
A02
100
AcDbEntity
  8
Mesh_cs
100
AcDbLine
 10
174.096
 20
24.7978
 30
9.1
 11
173.152
 21
24.5031
 31
9.1
  0
LINE
  5
A18
330
A02
100
AcDbEntity
  8
Mesh_cs
100
AcDbLine
 10
173.152
 20
24.5031
 30
9.1
 11
173.113
 21
24.4872
 31
9.1
  0
LINE
  5
A19
330
A02
100
AcDbEntity
  8
Mesh_cs
100
AcDbLine
 10
173.113
 20
24.4872
 30
9.1
 11
172.216
 21
23.9836
 31
9.1
  0
LINE
  5
A1A
330
A02
100
AcDbEntity
  8
Mesh_cs
100
AcDbLine
 10
172.216
 20
23.9836
 30
9.1
 11
172.182
 21
23.9582
 31
9.1
  0
LINE
  5
A1B
330
A02
100
AcDbEntity
  8
Mesh_cs
100
AcDbLine
 10
172.182
 20
23.9582
 30
9.1
 11
171.4
 21
23.2625
 31
9.1
  0
LINE
  5
A1C
330
A02
100
AcDbEntity
  8
Mesh_cs
100
AcDbLine
 10
171.4
 20
23.2625
 30
9.1
 11
171.373
 21
23.2293
 31
9.1
  0
LINE
  5
A1D
330
A02
100
AcDbEntity
  8
Mesh_cs
100
AcDbLine
 10
171.373
 20
23.2293
 30
9.1
 11
170.706
 21
22.2863
 31
9.1
  0
LINE
  5
A1E
330
A02
100
AcDbEntity
  8
Mesh_cs
100
AcDbLine
 10
170.706
 20
22.2863
 30
9.1
 11
170.689
 21
22.2475
 31
9.1
  0
LINE
  5
A1F
330
A02
100
AcDbEntity
  8
Mesh_cs
100
AcDbLine
 10
170.689
 20
22.2475
 30
9.1
 11
170.245
 21
21.0939
 31
9.1
  0
LINE
  5
A20
330
A02
100
AcDbEntity
  8
Mesh_cs
100
AcDbLine
 10
170.245
 20
21.0939
 30
9.1
 11
170.24
 21
21.0701
 31
9.1
  0
LINE
  5
A21
330
A02
100
AcDbEntity
  8
Mesh_cs
100
AcDbLine
 10
170.24
 20
21.0701
 30
9.1
 11
170.102
 21
19.9242
 31
9.1
  0
LINE
  5
A22
330
A02
100
AcDbEntity
  8
Mesh_cs
100
AcDbLine
 10
170.102
 20
19.9242
 30
9.1
 11
170.1
 21
19.9
 31
9.1
  0
LINE
  5
A23
330
A02
100
AcDbEntity
  8
Mesh_cs
100
AcDbLine
 10
170.1
 20
19.9
 30
9.1
 11
170.1
 21
0.663337
 31
9.1
  0
LINE
  5
A24
330
A02
100
AcDbEntity
  8
Mesh_cs
100
AcDbLine
 10
170.1
 20
0.663337
 30
9.1
 11
170.1
 21
-3.88578e-15
 31
9.1
  0
LINE
  5
A25
330
A02
100
AcDbEntity
  8
Mesh_cs
100
AcDbLine
 10
170.1
 20
-3.86667e-15
 30
9.1
 11
167.345
 21
-3.8e-15
 31
9.1
  0
LINE
  5
A26
330
A02
100
AcDbEntity
  8
Mesh_cs
100
AcDbLine
 10
167.345
 20
-3.8e-15
 30
9.1
 11
128.818
 21
0
 31
9.1
  0
LINE
  5
A27
330
A02
100
AcDbEntity
  8
Mesh_cs
100
AcDbLine
 10
128.818
 20
0
 30
9.1
 11
99.8636
 21
0
 31
9.1
  0
LINE
  5
A28
330
A02
100
AcDbEntity
  8
Mesh_cs
100
AcDbLine
 10
99.8636
 20
0
 30
9.1
 11
27.655
 21
0
 31
9.1
  0
LINE
  5
A29
330
A02
100
AcDbEntity
  8
Mesh_cs
100
AcDbLine
 10
27.655
 20
0
 30
9.1
 11
24.9
 21
0
 31
9.1
  0
LINE
  5
A2A
330
A02
100
AcDbEntity
  8
Mesh_cs
100
AcDbLine
 10
24.9
 20
0
 30
9.1
 11
24.9
 21
0.663337
 31
9.1
  0
LINE
  5
A2B
330
A02
100
AcDbEntity
  8
Mesh_cs
100
AcDbLine
 10
24.9
 20
0.663337
 30
9.1
 11
24.9
 21
19.9
 31
9.1
  0
LINE
  5
A2C
330
A02
100
AcDbEntity
  8
Mesh_cs
100
AcDbLine
 10
24.9
 20
19.9
 30
9.1
 11
24.8943
 21
19.9431
 31
9.1
  0
LINE
  5
A2D
330
A02
100
AcDbEntity
  8
Mesh_cs
100
AcDbLine
 10
24.8943
 20
19.9431
 30
9.1
 11
24.7296
 21
21.1941
 31
9.1
  0
LINE
  5
A2E
330
A02
100
AcDbEntity
  8
Mesh_cs
100
AcDbLine
 10
24.7296
 20
21.1941
 30
9.1
 11
24.713
 21
21.2343
 31
9.1
  0
LINE
  5
A2F
330
A02
100
AcDbEntity
  8
Mesh_cs
100
AcDbLine
 10
24.713
 20
21.2343
 30
9.1
 11
24.2301
 21
22.4
 31
9.1
  0
LINE
  5
A30
330
A02
100
AcDbEntity
  8
Mesh_cs
100
AcDbLine
 10
24.2301
 20
22.4
 30
9.1
 11
24.2036
 21
22.4345
 31
9.1
  0
LINE
  5
A31
330
A02
100
AcDbEntity
  8
Mesh_cs
100
AcDbLine
 10
24.2036
 20
22.4345
 30
9.1
 11
23.4355
 21
23.4355
 31
9.1
  0
LINE
  5
A32
330
A02
100
AcDbEntity
  8
Mesh_cs
100
AcDbLine
 10
23.4355
 20
23.4355
 30
9.1
 11
23.401
 21
23.462
 31
9.1
  0
LINE
  5
A33
330
A02
100
AcDbEntity
  8
Mesh_cs
100
AcDbLine
 10
23.401
 20
23.462
 30
9.1
 11
22.4
 21
24.2301
 31
9.1
  0
LINE
  5
A34
330
A02
100
AcDbEntity
  8
Mesh_cs
100
AcDbLine
 10
22.4
 20
24.2301
 30
9.1
 11
22.3598
 21
24.2468
 31
9.1
  0
LINE
  5
A35
330
A02
100
AcDbEntity
  8
Mesh_cs
100
AcDbLine
 10
22.3598
 20
24.2468
 30
9.1
 11
21.1941
 21
24.7296
 31
9.1
  0
LINE
  5
A36
330
A02
100
AcDbEntity
  8
Mesh_cs
100
AcDbLine
 10
21.1941
 20
24.7296
 30
9.1
 11
21.151
 21
24.7353
 31
9.1
  0
LINE
  5
A37
330
A02
100
AcDbEntity
  8
Mesh_cs
100
AcDbLine
 10
21.151
 20
24.7353
 30
9.1
 11
19.9
 21
24.9
 31
9.1
  0
LINE
  5
A38
330
A02
100
AcDbEntity
  8
Mesh_cs
100
AcDbLine
 10
19.9
 20
24.9
 30
9.1
 11
0.663337
 21
24.9
 31
9.1
  0
LINE
  5
A39
330
A02
100
AcDbEntity
  8
Mesh_cs
100
AcDbLine
 10
0.663337
 20
24.9
 30
9.1
 11
0
 21
24.9
 31
9.1
  0
LINE
  5
A3A
330
A02
100
AcDbEntity
  8
Mesh_cs
100
AcDbLine
 10
0
 20
24.9
 30
9.1
 11
9.66667e-16
 21
266.832
 31
9.1
  0
LINE
  5
A3B
330
A02
100
AcDbEntity
  8
Mesh_cs
100
AcDbLine
 10
9.66667e-16
 20
266.832
 30
9.1
 11
9.66667e-16
 21
275.174
 31
9.1
  0
LINE
  5
A3C
330
A02
100
AcDbEntity
  8
Mesh_cs
100
AcDbLine
 10
9.66667e-16
 20
275.174
 30
9.1
 11
0.663337
 21
275.174
 31
9.1
  0
LINE
  5
A3D
330
A02
100
AcDbEntity
  8
Mesh_cs
100
AcDbLine
 10
0.663337
 20
275.174
 30
9.1
 11
19.9
 21
275.174
 31
9.1
  0
LINE
  5
A3E
330
A02
100
AcDbEntity
  8
Mesh_cs
100
AcDbLine
 10
19.9
 20
275.174
 30
9.1
 11
20.375
 21
275.198
 31
9.1
  0
LINE
  5
A3F
330
A02
100
AcDbEntity
  8
Mesh_cs
100
AcDbLine
 10
20.375
 20
275.198
 30
9.1
 11
20.4171
 21
275.203
 31
9.1
  0
LINE
  5
A40
330
A02
100
AcDbEntity
  8
Mesh_cs
100
AcDbLine
 10
20.4171
 20
275.203
 30
9.1
 11
20.9045
 21
275.276
 31
9.1
  0
LINE
  5
A41
330
A02
100
AcDbEntity
  8
Mesh_cs
100
AcDbLine
 10
20.9045
 20
275.276
 30
9.1
 11
21.8476
 21
275.571
 31
9.1
  0
LINE
  5
A42
330
A02
100
AcDbEntity
  8
Mesh_cs
100
AcDbLine
 10
21.8476
 20
275.571
 30
9.1
 11
21.8871
 21
275.587
 31
9.1
  0
LINE
  5
A43
330
A02
100
AcDbEntity
  8
Mesh_cs
100
AcDbLine
 10
21.8871
 20
275.587
 30
9.1
 11
22.7836
 21
276.091
 31
9.1
  0
LINE
  5
A44
330
A02
100
AcDbEntity
  8
Mesh_cs
100
AcDbLine
 10
22.7836
 20
276.091
 30
9.1
 11
22.8178
 21
276.116
 31
9.1
  0
LINE
  5
A45
330
A02
100
AcDbEntity
  8
Mesh_cs
100
AcDbLine
 10
22.8178
 20
276.116
 30
9.1
 11
23.6
 21
276.812
 31
9.1
  0
LINE
  5
A46
330
A02
100
AcDbEntity
  8
Mesh_cs
100
AcDbLine
 10
23.6
 20
276.812
 30
9.1
 11
23.6266
 21
276.845
 31
9.1
  0
LINE
  5
A47
330
A02
100
AcDbEntity
  8
Mesh_cs
100
AcDbLine
 10
23.6266
 20
276.845
 30
9.1
 11
24.2936
 21
277.788
 31
9.1
  0
LINE
  5
A48
330
A02
100
AcDbEntity
  8
Mesh_cs
100
AcDbLine
 10
24.2936
 20
277.788
 30
9.1
 11
24.3109
 21
277.827
 31
9.1
  0
LINE
  5
A49
330
A02
100
AcDbEntity
  8
Mesh_cs
100
AcDbLine
 10
24.3109
 20
277.827
 30
9.1
 11
24.7552
 21
278.98
 31
9.1
  0
LINE
  5
A4A
330
A02
100
AcDbEntity
  8
Mesh_cs
100
AcDbLine
 10
24.7552
 20
278.98
 30
9.1
 11
24.7604
 21
279.004
 31
9.1
  0
LINE
  5
A4B
330
A02
100
AcDbEntity
  8
Mesh_cs
100
AcDbLine
 10
24.7604
 20
279.004
 30
9.1
 11
24.8982
 21
280.15
 31
9.1
  0
LINE
  5
A4C
330
A02
100
AcDbEntity
  8
Mesh_cs
100
AcDbLine
 10
24.8982
 20
280.15
 30
9.1
 11
24.9
 21
280.174
 31
9.1
  0
LINE
  5
A4D
330
A02
100
AcDbEntity
  8
Mesh_cs
100
AcDbLine
 10
24.9
 20
280.174
 30
9.1
 11
24.9
 21
280.837
 31
9.1
  0
LINE
  5
A4E
330
A02
100
AcDbEntity
  8
Mesh_cs
100
AcDbLine
 10
24.9
 20
280.837
 30
9.1
 11
24.9
 21
300.074
 31
9.1
  0
LINE
  5
A4F
330
A02
100
AcDbEntity
  8
Mesh_cs
100
AcDbLine
 10
24.9
 20
300.074
 30
9.1
 11
27.655
 21
300.074
 31
9.1
  0
LINE
  5
A50
330
A02
100
AcDbEntity
  8
Mesh_cs
100
AcDbLine
 10
27.655
 20
300.074
 30
9.1
 11
99.8636
 21
300.074
 31
9.1
  0
LINE
  5
A51
330
A02
100
AcDbEntity
  8
Mesh_cs
100
AcDbLine
 10
99.8636
 20
300.074
 30
9.1
 11
128.818
 21
300.074
 31
9.1
  0
LINE
  5
A52
330
A02
100
AcDbEntity
  8
Mesh_cs
100
AcDbLine
 10
128.818
 20
300.074
 30
9.1
 11
167.345
 21
300.074
 31
9.1
  0
LINE
  5
A53
330
A02
100
AcDbEntity
  8
Mesh_cs
100
AcDbLine
 10
167.345
 20
300.074
 30
9.1
 11
170.1
 21
300.074
 31
9.1
  0
LINE
  5
A54
330
A02
100
AcDbEntity
  8
Mesh_cs
100
AcDbLine
 10
170.1
 20
300.074
 30
9.1
 11
170.1
 21
280.837
 31
9.1
  0
LINE
  5
A55
330
A02
100
AcDbEntity
  8
Mesh_cs
100
AcDbLine
 10
170.1
 20
280.837
 30
9.1
 11
170.1
 21
280.174
 31
9.1
  0
LINE
  5
A56
330
A02
100
AcDbEntity
  8
Mesh_cs
100
AcDbLine
 10
170.1
 20
280.174
 30
9.1
 11
170.102
 21
280.15
 31
9.1
  0
LINE
  5
A57
330
A02
100
AcDbEntity
  8
Mesh_cs
100
AcDbLine
 10
170.102
 20
280.15
 30
9.1
 11
170.24
 21
279.004
 31
9.1
  0
LINE
  5
A58
330
A02
100
AcDbEntity
  8
Mesh_cs
100
AcDbLine
 10
170.24
 20
279.004
 30
9.1
 11
170.245
 21
278.98
 31
9.1
  0
LINE
  5
A59
330
A02
100
AcDbEntity
  8
Mesh_cs
100
AcDbLine
 10
170.245
 20
278.98
 30
9.1
 11
170.689
 21
277.827
 31
9.1
  0
LINE
  5
A5A
330
A02
100
AcDbEntity
  8
Mesh_cs
100
AcDbLine
 10
170.689
 20
277.827
 30
9.1
 11
170.706
 21
277.788
 31
9.1
  0
LINE
  5
A5B
330
A02
100
AcDbEntity
  8
Mesh_cs
100
AcDbLine
 10
170.706
 20
277.788
 30
9.1
 11
171.373
 21
276.845
 31
9.1
  0
LINE
  5
A5C
330
A02
100
AcDbEntity
  8
Mesh_cs
100
AcDbLine
 10
171.373
 20
276.845
 30
9.1
 11
171.4
 21
276.812
 31
9.1
  0
LINE
  5
A5D
330
A02
100
AcDbEntity
  8
Mesh_cs
100
AcDbLine
 10
171.4
 20
276.812
 30
9.1
 11
172.182
 21
276.116
 31
9.1
  0
LINE
  5
A5E
330
A02
100
AcDbEntity
  8
Mesh_cs
100
AcDbLine
 10
172.182
 20
276.116
 30
9.1
 11
172.216
 21
276.091
 31
9.1
  0
LINE
  5
A5F
330
A02
100
AcDbEntity
  8
Mesh_cs
100
AcDbLine
 10
172.216
 20
276.091
 30
9.1
 11
173.113
 21
275.587
 31
9.1
  0
LINE
  5
A60
330
A02
100
AcDbEntity
  8
Mesh_cs
100
AcDbLine
 10
173.113
 20
275.587
 30
9.1
 11
173.152
 21
275.571
 31
9.1
  0
LINE
  5
A61
330
A02
100
AcDbEntity
  8
Mesh_cs
100
AcDbLine
 10
173.152
 20
275.571
 30
9.1
 11
174.096
 21
275.276
 31
9.1
  0
LINE
  5
A62
330
A02
100
AcDbEntity
  8
Mesh_cs
100
AcDbLine
 10
174.096
 20
275.276
 30
9.1
 11
174.583
 21
275.203
 31
9.1
  0
LINE
  5
A63
330
A02
100
AcDbEntity
  8
Mesh_cs
100
AcDbLine
 10
174.583
 20
275.203
 30
9.1
 11
174.625
 21
275.198
 31
9.1
  0
LINE
  5
A64
330
A02
100
AcDbEntity
  8
Mesh_cs
100
AcDbLine
 10
174.625
 20
275.198
 30
9.1
 11
175.1
 21
275.174
 31
9.1
  0
LINE
  5
A65
330
A02
100
AcDbEntity
  8
Mesh_cs
100
AcDbLine
 10
175.1
 20
275.174
 30
9.1
 11
175.763
 21
275.174
 31
9.1
  0
LINE
  5
A66
330
A02
100
AcDbEntity
  8
Mesh_cs
100
AcDbLine
 10
175.763
 20
275.174
 30
9.1
 11
195
 21
275.174
 31
9.1
  0
LINE
  5
A67
330
A02
100
AcDbEntity
  8
Mesh_cs
100
AcDbLine
 10
14.9
 20
0.496668
 30
9.1
 11
14.9
 21
0
 31
9.1
  0
LINE
  5
A68
330
A02
100
AcDbEntity
  8
Mesh_cs
100
AcDbLine
 10
14.9
 20
0
 30
9.1
 11
14.4033
 21
0
 31
9.1
  0
LINE
  5
A69
330
A02
100
AcDbEntity
  8
Mesh_cs
100
AcDbLine
 10
14.4033
 20
0
 30
9.1
 11
0
 21
0
 31
9.1
  0
LINE
  5
A6A
330
A02
100
AcDbEntity
  8
Mesh_cs
100
AcDbLine
 10
0
 20
0
 30
9.1
 11
0
 21
14.4033
 31
9.1
  0
LINE
  5
A6B
330
A02
100
AcDbEntity
  8
Mesh_cs
100
AcDbLine
 10
0
 20
14.4033
 30
9.1
 11
0
 21
14.9
 31
9.1
  0
LINE
  5
A6C
330
A02
100
AcDbEntity
  8
Mesh_cs
100
AcDbLine
 10
0
 20
14.9
 30
9.1
 11
14.4033
 21
14.9
 31
9.1
  0
LINE
  5
A6D
330
A02
100
AcDbEntity
  8
Mesh_cs
100
AcDbLine
 10
14.4033
 20
14.9
 30
9.1
 11
14.9
 21
14.9
 31
9.1
  0
LINE
  5
A6E
330
A02
100
AcDbEntity
  8
Mesh_cs
100
AcDbLine
 10
14.9
 20
14.9
 30
9.1
 11
14.9
 21
0.496668
 31
9.1
  0
LINE
  5
A6F
330
A02
100
AcDbEntity
  8
Mesh_cs
100
AcDbLine
 10
195
 20
285.174
 30
9.1
 11
195
 21
285.671
 31
9.1
  0
LINE
  5
A70
330
A02
100
AcDbEntity
  8
Mesh_cs
100
AcDbLine
 10
195
 20
285.671
 30
9.1
 11
195
 21
300.074
 31
9.1
  0
LINE
  5
A71
330
A02
100
AcDbEntity
  8
Mesh_cs
100
AcDbLine
 10
195
 20
300.074
 30
9.1
 11
180.597
 21
300.074
 31
9.1
  0
LINE
  5
A72
330
A02
100
AcDbEntity
  8
Mesh_cs
100
AcDbLine
 10
180.597
 20
300.074
 30
9.1
 11
180.1
 21
300.074
 31
9.1
  0
LINE
  5
A73
330
A02
100
AcDbEntity
  8
Mesh_cs
100
AcDbLine
 10
180.1
 20
300.074
 30
9.1
 11
180.1
 21
299.577
 31
9.1
  0
LINE
  5
A74
330
A02
100
AcDbEntity
  8
Mesh_cs
100
AcDbLine
 10
180.1
 20
299.577
 30
9.1
 11
180.1
 21
285.174
 31
9.1
  0
LINE
  5
A75
330
A02
100
AcDbEntity
  8
Mesh_cs
100
AcDbLine
 10
180.1
 20
285.174
 30
9.1
 11
180.597
 21
285.174
 31
9.1
  0
LINE
  5
A76
330
A02
100
AcDbEntity
  8
Mesh_cs
100
AcDbLine
 10
180.597
 20
285.174
 30
9.1
 11
195
 21
285.174
 31
9.1
  0
LINE
  5
A77
330
A02
100
AcDbEntity
  8
Mesh_cs
100
AcDbLine
 10
195
 20
14.9
 30
9.1
 11
195
 21
14.4033
 31
9.1
  0
LINE
  5
A78
330
A02
100
AcDbEntity
  8
Mesh_cs
100
AcDbLine
 10
195
 20
14.4033
 30
9.1
 11
195
 21
0
 31
9.1
  0
LINE
  5
A79
330
A02
100
AcDbEntity
  8
Mesh_cs
100
AcDbLine
 10
195
 20
0
 30
9.1
 11
180.597
 21
0
 31
9.1
  0
LINE
  5
A7A
330
A02
100
AcDbEntity
  8
Mesh_cs
100
AcDbLine
 10
180.597
 20
0
 30
9.1
 11
180.1
 21
0
 31
9.1
  0
LINE
  5
A7B
330
A02
100
AcDbEntity
  8
Mesh_cs
100
AcDbLine
 10
180.1
 20
0
 30
9.1
 11
180.1
 21
0.496668
 31
9.1
  0
LINE
  5
A7C
330
A02
100
AcDbEntity
  8
Mesh_cs
100
AcDbLine
 10
180.1
 20
0.496668
 30
9.1
 11
180.1
 21
14.9
 31
9.1
  0
LINE
  5
A7D
330
A02
100
AcDbEntity
  8
Mesh_cs
100
AcDbLine
 10
180.1
 20
14.9
 30
9.1
 11
180.597
 21
14.9
 31
9.1
  0
LINE
  5
A7E
330
A02
100
AcDbEntity
  8
Mesh_cs
100
AcDbLine
 10
180.597
 20
14.9
 30
9.1
 11
195
 21
14.9
 31
9.1
  0
ENDSEC
  0
SECTION
  2
OBJECTS
  0
DICTIONARY
  5
F000
330
0
100
AcDbDictionary
  3
ACAD_GROUP
350
F001
  0
DICTIONARY
  5
F001
330
F000
100
AcDbDictionary
  0
ENDSEC
  0
EOF