999
FreeCAD v0.21 33771 (Git)
  0
SECTION
  2
HEADER
  9
$ACADVER
  1
AC1014
  9
$ACADMAINTVER
 70
     9
  9
$DWGCODEPAGE
  3
ANSI_1252
  9
$TEXTSTYLE
  7
STANDARD
  9
$DIMSTYLE
  2
STANDARD
  9
$DIMTXSTY
  7
STANDARD
  9
$CMLSTYLE
  2
STANDARD
  9
$LUNITS
 70
2
  9
$INSUNITS
 70
4
  9
$PEXTMAX
 10
50
 20
50
 30
50
  9
$PEXTMIN
 10
0
 20
0
 30
0
  9
$HANDSEED
  5
FFFF
  0
ENDSEC
  0
SECTION
  2
CLASSES
  0
CLASS
  1
ACDBDICTIONARYWDFLT
  2
AcDbDictionaryWithDefault
  3
ObjectDBX Classes
 90
        0
280
     0
281
     0
  0
CLASS
  1
XRECORD
  2
AcDbXrecord
  3
ObjectDBX Classes
 90
        0
280
     0
281
     0
  0
CLASS
  1
LWPOLYLINE
  2
AcDbPolyline
  3
ObjectDBX Classes
 90
        0
280
     0
281
     1
  0
ENDSEC
  0
SECTION
  2
TABLES
  0
TABLE
  2
VPORT
  5
20
330
0
100
AcDbSymbolTable
 70
     1
  0
VPORT
  5
21
330
20
100
AcDbSymbolTableRecord
100
AcDbViewportTableRecord
  2
*ACTIVE
 70
     0
  0
ENDTAB
  0
TABLE
  2
LTYPE
  5
22
330
0
100
AcDbSymbolTable
 70
     1
  0
LTYPE
  5
23
330
21
100
AcDbSymbolTableRecord
100
AcDbLinetypeTableRecord
  2
BYBLOCK
 70
     0
  3

 72
    65
 73
     0
 40
0.0
  0
LTYPE
  5
24
330
21
100
AcDbSymbolTableRecord
100
AcDbLinetypeTableRecord
  2
BYLAYER
 70
     0
  3

 72
    65
 73
     0
 40
0.0
  0
LTYPE
  5
25
330
21
100
AcDbSymbolTableRecord
100
AcDbLinetypeTableRecord
  2
CONTINUOUS
 70
     0
  3
Solid line
 72
    65
 73
     0
 40
0.0
  0
ENDTAB
  0
TABLE
  2
LAYER
  5
B8F
330
0
100
AcDbSymbolTable
 70
3
  0
LAYER
  5
B90
330
B8F
100
AcDbSymbolTableRecord
100
AcDbLayerTableRecord
  2
0
 70
   0
 62
   7
  6
CONTINUOUS
  0
LAYER
  5
B91
330
B8F
100
AcDbSymbolTableRecord
100
AcDbLayerTableRecord
  2
none
 70
    0
 62
    7
  6
CONTINUOUS
  0
LAYER
  5
B92
330
B8F
100
AcDbSymbolTableRecord
100
AcDbLayerTableRecord
  2
Mesh_cs001
 70
    0
 62
    7
  6
CONTINUOUS
  0
ENDTAB
  0
TABLE
  2
STYLE
  5
70
330
0
100
AcDbSymbolTable
 70
     2
  0
STYLE
  5
71
330
70
100
AcDbSymbolTableRecord
100
AcDbTextStyleTableRecord
  2
STANDARD
 70
     0
 40
0.0
 41
1.0
 50
0.0
 71
     0
 42
2.5
  3
arial.ttf
  4

  0
STYLE
  5
72
330
70
100
AcDbSymbolTableRecord
100
AcDbTextStyleTableRecord
  2
ANNOTATIVE
 70
     0
 40
0.0
 41
1.0
 50
0.0
 71
     0
 42
2.5
  3
arial.ttf
  4

  0
ENDTAB
  0
TABLE
  2
VIEW
  5
73
330
0
100
AcDbSymbolTable
 70
     0
  0
ENDTAB
  0
TABLE
  2
UCS
  5
74
330
0
100
AcDbSymbolTable
 70
     0
  0
ENDTAB
  0
TABLE
  2
APPID
  5
75
330
0
100
AcDbSymbolTable
 70
     2
  0
APPID
  5
76
330
75
100
AcDbSymbolTableRecord
100
AcDbRegAppTableRecord
  2
ACAD
 70
     0
  0
APPID
  5
77
330
75
100
AcDbSymbolTableRecord
100
AcDbRegAppTableRecord
  2
ACADANNOTATIVE
 70
     0
  0
ENDTAB
  0
TABLE
  2
DIMSTYLE
  5
78
330
0
100
AcDbSymbolTable
 70
     2
  0
DIMSTYLE
105
79
330
78
100
AcDbSymbolTableRecord
100
AcDbDimStyleTableRecord
  2
STANDARD
 70
     0
  3

  4

  5

  6

  7

 40
0.0
 41
2.5
 42
0.625
 43
3.75
 44
1.25
 45
0.0
 46
0.0
 47
0.0
 48
0.0
140
2.5
141
2.5
142
0.0
143
0.03937007874016
144
1.0
145
0.0
146
1.0
147
0.625
 71
     0
 72
     0
 73
     0
 74
     0
 75
     0
 76
     0
 77
     1
 78
     8
170
     0
171
     3
172
     1
173
     0
174
     0
175
     0
176
     0
177
     0
178
     0
270
     2
271
     2
272
     2
273
     2
274
     3
340
71
275
     0
280
     0
281
     0
282
     0
283
     0
284
     8
285
     0
286
     0
287
     3
288
     0
  0
ENDTAB
  0
TABLE
  2
BLOCK_RECORD
  5
A01
330
0
100
AcDbSymbolTable
  70
5
  0
BLOCK_RECORD
  5
A02
330
A01
100
AcDbSymbolTableRecord
100
AcDbBlockTableRecord
  2
*MODEL_SPACE
  0
BLOCK_RECORD
  5
A03
330
A01
100
AcDbSymbolTableRecord
100
AcDbBlockTableRecord
  2
*PAPER_SPACE
  0
ENDTAB
  0
ENDSEC
  0
SECTION
  2
BLOCKS
  0
BLOCK
  5
A04
330
A02
100
AcDbEntity
  8
0
100
AcDbBlockBegin
  2
*MODEL_SPACE
 70
   0
 10
0
 20
0
 30
0
  3
*MODEL_SPACE
  1
 
  0
ENDBLK
  5
A05
330
A02
100
AcDbEntity
  8
0
100
AcDbBlockEnd
  0
BLOCK
  5
A06
330
A03
100
AcDbEntity
 67
1
  8
0
100
AcDbBlockBegin
  2
*PAPER_SPACE
 70
   0
 10
0
 20
0
 30
0
  3
*PAPER_SPACE
  1
 
  0
ENDBLK
  5
A07
330
A03
100
AcDbEntity
 67
    1
  8
0
100
AcDbBlockEnd
  0
ENDSEC
  0
SECTION
  2
ENTITIES
  0
LINE
  5
A08
330
A02
100
AcDbEntity
  8
Mesh_cs001
100
AcDbLine
 10
406.132
 20
573.521
 30
9.1
 11
409.86
 21
574.82
 31
9.1
  0
LINE
  5
A09
330
A02
100
AcDbEntity
  8
Mesh_cs001
100
AcDbLine
 10
409.86
 20
574.82
 30
9.1
 11
412.533
 21
575.734
 31
9.1
  0
LINE
  5
A0A
330
A02
100
AcDbEntity
  8
Mesh_cs001
100
AcDbLine
 10
412.533
 20
575.734
 30
9.1
 11
413.648
 21
576.111
 31
9.1
  0
LINE
  5
A0B
330
A02
100
AcDbEntity
  8
Mesh_cs001
100
AcDbLine
 10
413.648
 20
576.111
 30
9.1
 11
416.327
 21
577.009
 31
9.1
  0
LINE
  5
A0C
330
A02
100
AcDbEntity
  8
Mesh_cs001
100
AcDbLine
 10
416.327
 20
577.009
 30
9.1
 11
417.445
 21
577.377
 31
9.1
  0
LINE
  5
A0D
330
A02
100
AcDbEntity
  8
Mesh_cs001
100
AcDbLine
 10
417.445
 20
577.377
 30
9.1
 11
420.129
 21
578.258
 31
9.1
  0
LINE
  5
A0E
330
A02
100
AcDbEntity
  8
Mesh_cs001
100
AcDbLine
 10
420.129
 20
578.258
 30
9.1
 11
424.58
 21
564.56
 31
9.1
  0
LINE
  5
A0F
330
A02
100
AcDbEntity
  8
Mesh_cs001
100
AcDbLine
 10
424.58
 20
564.56
 30
9.1
 11
424.734
 21
564.087
 31
9.1
  0
LINE
  5
A10
330
A02
100
AcDbEntity
  8
Mesh_cs001
100
AcDbLine
 10
424.734
 20
564.087
 30
9.1
 11
424.261
 21
563.934
 31
9.1
  0
LINE
  5
A11
330
A02
100
AcDbEntity
  8
Mesh_cs001
100
AcDbLine
 10
424.261
 20
563.934
 30
9.1
 11
410.563
 21
559.483
 31
9.1
  0
LINE
  5
A12
330
A02
100
AcDbEntity
  8
Mesh_cs001
100
AcDbLine
 10
410.563
 20
559.483
 30
9.1
 11
406.166
 21
573.014
 31
9.1
  0
LINE
  5
A13
330
A02
100
AcDbEntity
  8
Mesh_cs001
100
AcDbLine
 10
406.166
 20
573.014
 30
9.1
 11
406.015
 21
573.48
 31
9.1
  0
LINE
  5
A14
330
A02
100
AcDbEntity
  8
Mesh_cs001
100
AcDbLine
 10
406.015
 20
573.48
 30
9.1
 11
406.132
 21
573.521
 31
9.1
  0
LINE
  5
A15
330
A02
100
AcDbEntity
  8
Mesh_cs001
100
AcDbLine
 10
272.149
 20
274.787
 30
9.1
 11
272.416
 21
274.607
 31
9.1
  0
LINE
  5
A16
330
A02
100
AcDbEntity
  8
Mesh_cs001
100
AcDbLine
 10
272.416
 20
274.607
 30
9.1
 11
287.978
 21
263.299
 31
9.1
  0
LINE
  5
A17
330
A02
100
AcDbEntity
  8
Mesh_cs001
100
AcDbLine
 10
287.978
 20
263.299
 30
9.1
 11
288.515
 21
262.91
 31
9.1
  0
LINE
  5
A18
330
A02
100
AcDbEntity
  8
Mesh_cs001
100
AcDbLine
 10
288.515
 20
262.91
 30
9.1
 11
288.524
 21
262.921
 31
9.1
  0
LINE
  5
A19
330
A02
100
AcDbEntity
  8
Mesh_cs001
100
AcDbLine
 10
288.524
 20
262.921
 30
9.1
 11
288.792
 21
263.257
 31
9.1
  0
LINE
  5
A1A
330
A02
100
AcDbEntity
  8
Mesh_cs001
100
AcDbLine
 10
288.792
 20
263.257
 30
9.1
 11
289.025
 21
263.501
 31
9.1
  0
LINE
  5
A1B
330
A02
100
AcDbEntity
  8
Mesh_cs001
100
AcDbLine
 10
289.025
 20
263.501
 30
9.1
 11
289.099
 21
263.579
 31
9.1
  0
LINE
  5
A1C
330
A02
100
AcDbEntity
  8
Mesh_cs001
100
AcDbLine
 10
289.099
 20
263.579
 30
9.1
 11
289.352
 21
263.801
 31
9.1
  0
LINE
  5
A1D
330
A02
100
AcDbEntity
  8
Mesh_cs001
100
AcDbLine
 10
289.352
 20
263.801
 30
9.1
 11
289.433
 21
263.872
 31
9.1
  0
LINE
  5
A1E
330
A02
100
AcDbEntity
  8
Mesh_cs001
100
AcDbLine
 10
289.433
 20
263.872
 30
9.1
 11
289.705
 21
264.071
 31
9.1
  0
LINE
  5
A1F
330
A02
100
AcDbEntity
  8
Mesh_cs001
100
AcDbLine
 10
289.705
 20
264.071
 30
9.1
 11
289.792
 21
264.134
 31
9.1
  0
LINE
  5
A20
330
A02
100
AcDbEntity
  8
Mesh_cs001
100
AcDbLine
 10
289.792
 20
264.134
 30
9.1
 11
289.884
 21
264.19
 31
9.1
  0
LINE
  5
A21
330
A02
100
AcDbEntity
  8
Mesh_cs001
100
AcDbLine
 10
289.884
 20
264.19
 30
9.1
 11
290.172
 21
264.364
 31
9.1
  0
LINE
  5
A22
330
A02
100
AcDbEntity
  8
Mesh_cs001
100
AcDbLine
 10
290.172
 20
264.364
 30
9.1
 11
290.475
 21
264.511
 31
9.1
  0
LINE
  5
A23
330
A02
100
AcDbEntity
  8
Mesh_cs001
100
AcDbLine
 10
290.475
 20
264.511
 30
9.1
 11
290.572
 21
264.558
 31
9.1
  0
LINE
  5
A24
330
A02
100
AcDbEntity
  8
Mesh_cs001
100
AcDbLine
 10
290.572
 20
264.558
 30
9.1
 11
290.887
 21
264.678
 31
9.1
  0
LINE
  5
A25
330
A02
100
AcDbEntity
  8
Mesh_cs001
100
AcDbLine
 10
290.887
 20
264.678
 30
9.1
 11
290.987
 21
264.717
 31
9.1
  0
LINE
  5
A26
330
A02
100
AcDbEntity
  8
Mesh_cs001
100
AcDbLine
 10
290.987
 20
264.717
 30
9.1
 11
291.61
 21
265.455
 31
9.1
  0
LINE
  5
A27
330
A02
100
AcDbEntity
  8
Mesh_cs001
100
AcDbLine
 10
291.61
 20
265.455
 30
9.1
 11
293.564
 21
267.772
 31
9.1
  0
LINE
  5
A28
330
A02
100
AcDbEntity
  8
Mesh_cs001
100
AcDbLine
 10
293.564
 20
267.772
 30
9.1
 11
295.54
 21
270.07
 31
9.1
  0
LINE
  5
A29
330
A02
100
AcDbEntity
  8
Mesh_cs001
100
AcDbLine
 10
295.54
 20
270.07
 30
9.1
 11
296.169
 21
270.803
 31
9.1
  0
LINE
  5
A2A
330
A02
100
AcDbEntity
  8
Mesh_cs001
100
AcDbLine
 10
296.169
 20
270.803
 30
9.1
 11
298.168
 21
273.081
 31
9.1
  0
LINE
  5
A2B
330
A02
100
AcDbEntity
  8
Mesh_cs001
100
AcDbLine
 10
298.168
 20
273.081
 30
9.1
 11
298.805
 21
273.808
 31
9.1
  0
LINE
  5
A2C
330
A02
100
AcDbEntity
  8
Mesh_cs001
100
AcDbLine
 10
298.805
 20
273.808
 30
9.1
 11
300.825
 21
276.067
 31
9.1
  0
LINE
  5
A2D
330
A02
100
AcDbEntity
  8
Mesh_cs001
100
AcDbLine
 10
300.825
 20
276.067
 30
9.1
 11
301.469
 21
276.787
 31
9.1
  0
LINE
  5
A2E
330
A02
100
AcDbEntity
  8
Mesh_cs001
100
AcDbLine
 10
301.469
 20
276.787
 30
9.1
 11
303.511
 21
279.027
 31
9.1
  0
LINE
  5
A2F
330
A02
100
AcDbEntity
  8
Mesh_cs001
100
AcDbLine
 10
303.511
 20
279.027
 30
9.1
 11
304.161
 21
279.74
 31
9.1
  0
LINE
  5
A30
330
A02
100
AcDbEntity
  8
Mesh_cs001
100
AcDbLine
 10
304.161
 20
279.74
 30
9.1
 11
306.225
 21
281.96
 31
9.1
  0
LINE
  5
A31
330
A02
100
AcDbEntity
  8
Mesh_cs001
100
AcDbLine
 10
306.225
 20
281.96
 30
9.1
 11
306.883
 21
282.668
 31
9.1
  0
LINE
  5
A32
330
A02
100
AcDbEntity
  8
Mesh_cs001
100
AcDbLine
 10
306.883
 20
282.668
 30
9.1
 11
308.968
 21
284.867
 31
9.1
  0
LINE
  5
A33
330
A02
100
AcDbEntity
  8
Mesh_cs001
100
AcDbLine
 10
308.968
 20
284.867
 30
9.1
 11
309.632
 21
285.568
 31
9.1
  0
LINE
  5
A34
330
A02
100
AcDbEntity
  8
Mesh_cs001
100
AcDbLine
 10
309.632
 20
285.568
 30
9.1
 11
311.738
 21
287.748
 31
9.1
  0
LINE
  5
A35
330
A02
100
AcDbEntity
  8
Mesh_cs001
100
AcDbLine
 10
311.738
 20
287.748
 30
9.1
 11
312.409
 21
288.442
 31
9.1
  0
LINE
  5
A36
330
A02
100
AcDbEntity
  8
Mesh_cs001
100
AcDbLine
 10
312.409
 20
288.442
 30
9.1
 11
314.536
 21
290.601
 31
9.1
  0
LINE
  5
A37
330
A02
100
AcDbEntity
  8
Mesh_cs001
100
AcDbLine
 10
314.536
 20
290.601
 30
9.1
 11
315.214
 21
291.289
 31
9.1
  0
LINE
  5
A38
330
A02
100
AcDbEntity
  8
Mesh_cs001
100
AcDbLine
 10
315.214
 20
291.289
 30
9.1
 11
317.362
 21
293.428
 31
9.1
  0
LINE
  5
A39
330
A02
100
AcDbEntity
  8
Mesh_cs001
100
AcDbLine
 10
317.362
 20
293.428
 30
9.1
 11
318.047
 21
294.109
 31
9.1
  0
LINE
  5
A3A
330
A02
100
AcDbEntity
  8
Mesh_cs001
100
AcDbLine
 10
318.047
 20
294.109
 30
9.1
 11
320.215
 21
296.227
 31
9.1
  0
LINE
  5
A3B
330
A02
100
AcDbEntity
  8
Mesh_cs001
100
AcDbLine
 10
320.215
 20
296.227
 30
9.1
 11
320.906
 21
296.901
 31
9.1
  0
LINE
  5
A3C
330
A02
100
AcDbEntity
  8
Mesh_cs001
100
AcDbLine
 10
320.906
 20
296.901
 30
9.1
 11
323.095
 21
298.998
 31
9.1
  0
LINE
  5
A3D
330
A02
100
AcDbEntity
  8
Mesh_cs001
100
AcDbLine
 10
323.095
 20
298.998
 30
9.1
 11
323.793
 21
299.666
 31
9.1
  0
LINE
  5
A3E
330
A02
100
AcDbEntity
  8
Mesh_cs001
100
AcDbLine
 10
323.793
 20
299.666
 30
9.1
 11
326.002
 21
301.741
 31
9.1
  0
LINE
  5
A3F
330
A02
100
AcDbEntity
  8
Mesh_cs001
100
AcDbLine
 10
326.002
 20
301.741
 30
9.1
 11
326.706
 21
302.402
 31
9.1
  0
LINE
  5
A40
330
A02
100
AcDbEntity
  8
Mesh_cs001
100
AcDbLine
 10
326.706
 20
302.402
 30
9.1
 11
328.935
 21
304.456
 31
9.1
  0
LINE
  5
A41
330
A02
100
AcDbEntity
  8
Mesh_cs001
100
AcDbLine
 10
328.935
 20
304.456
 30
9.1
 11
329.645
 21
305.11
 31
9.1
  0
LINE
  5
A42
330
A02
100
AcDbEntity
  8
Mesh_cs001
100
AcDbLine
 10
329.645
 20
305.11
 30
9.1
 11
331.894
 21
307.142
 31
9.1
  0
LINE
  5
A43
330
A02
100
AcDbEntity
  8
Mesh_cs001
100
AcDbLine
 10
331.894
 20
307.142
 30
9.1
 11
332.611
 21
307.79
 31
9.1
  0
LINE
  5
A44
330
A02
100
AcDbEntity
  8
Mesh_cs001
100
AcDbLine
 10
332.611
 20
307.79
 30
9.1
 11
333.334
 21
308.43
 31
9.1
  0
LINE
  5
A45
330
A02
100
AcDbEntity
  8
Mesh_cs001
100
AcDbLine
 10
333.334
 20
308.43
 30
9.1
 11
335.602
 21
310.44
 31
9.1
  0
LINE
  5
A46
330
A02
100
AcDbEntity
  8
Mesh_cs001
100
AcDbLine
 10
335.602
 20
310.44
 30
9.1
 11
337.89
 21
312.428
 31
9.1
  0
LINE
  5
A47
330
A02
100
AcDbEntity
  8
Mesh_cs001
100
AcDbLine
 10
337.89
 20
312.428
 30
9.1
 11
338.619
 21
313.062
 31
9.1
  0
LINE
  5
A48
330
A02
100
AcDbEntity
  8
Mesh_cs001
100
AcDbLine
 10
338.619
 20
313.062
 30
9.1
 11
340.926
 21
315.028
 31
9.1
  0
LINE
  5
A49
330
A02
100
AcDbEntity
  8
Mesh_cs001
100
AcDbLine
 10
340.926
 20
315.028
 30
9.1
 11
341.661
 21
315.654
 31
9.1
  0
LINE
  5
A4A
330
A02
100
AcDbEntity
  8
Mesh_cs001
100
AcDbLine
 10
341.661
 20
315.654
 30
9.1
 11
342.402
 21
316.273
 31
9.1
  0
LINE
  5
A4B
330
A02
100
AcDbEntity
  8
Mesh_cs001
100
AcDbLine
 10
342.402
 20
316.273
 30
9.1
 11
344.728
 21
318.217
 31
9.1
  0
LINE
  5
A4C
330
A02
100
AcDbEntity
  8
Mesh_cs001
100
AcDbLine
 10
344.728
 20
318.217
 30
9.1
 11
347.073
 21
320.138
 31
9.1
  0
LINE
  5
A4D
330
A02
100
AcDbEntity
  8
Mesh_cs001
100
AcDbLine
 10
347.073
 20
320.138
 30
9.1
 11
347.82
 21
320.75
 31
9.1
  0
LINE
  5
A4E
330
A02
100
AcDbEntity
  8
Mesh_cs001
100
AcDbLine
 10
347.82
 20
320.75
 30
9.1
 11
350.183
 21
322.648
 31
9.1
  0
LINE
  5
A4F
330
A02
100
AcDbEntity
  8
Mesh_cs001
100
AcDbLine
 10
350.183
 20
322.648
 30
9.1
 11
350.936
 21
323.253
 31
9.1
  0
LINE
  5
A50
330
A02
100
AcDbEntity
  8
Mesh_cs001
100
AcDbLine
 10
350.936
 20
323.253
 30
9.1
 11
351.695
 21
323.85
 31
9.1
  0
LINE
  5
A51
330
A02
100
AcDbEntity
  8
Mesh_cs001
100
AcDbLine
 10
351.695
 20
323.85
 30
9.1
 11
354.076
 21
325.725
 31
9.1
  0
LINE
  5
A52
330
A02
100
AcDbEntity
  8
Mesh_cs001
100
AcDbLine
 10
354.076
 20
325.725
 30
9.1
 11
356.475
 21
327.577
 31
9.1
  0
LINE
  5
A53
330
A02
100
AcDbEntity
  8
Mesh_cs001
100
AcDbLine
 10
356.475
 20
327.577
 30
9.1
 11
357.24
 21
328.167
 31
9.1
  0
LINE
  5
A54
330
A02
100
AcDbEntity
  8
Mesh_cs001
100
AcDbLine
 10
357.24
 20
328.167
 30
9.1
 11
359.657
 21
329.996
 31
9.1
  0
LINE
  5
A55
330
A02
100
AcDbEntity
  8
Mesh_cs001
100
AcDbLine
 10
359.657
 20
329.996
 30
9.1
 11
360.427
 21
330.579
 31
9.1
  0
LINE
  5
A56
330
A02
100
AcDbEntity
  8
Mesh_cs001
100
AcDbLine
 10
360.427
 20
330.579
 30
9.1
 11
362.862
 21
332.384
 31
9.1
  0
LINE
  5
A57
330
A02
100
AcDbEntity
  8
Mesh_cs001
100
AcDbLine
 10
362.862
 20
332.384
 30
9.1
 11
363.638
 21
332.959
 31
9.1
  0
LINE
  5
A58
330
A02
100
AcDbEntity
  8
Mesh_cs001
100
AcDbLine
 10
363.638
 20
332.959
 30
9.1
 11
366.09
 21
334.74
 31
9.1
  0
LINE
  5
A59
330
A02
100
AcDbEntity
  8
Mesh_cs001
100
AcDbLine
 10
366.09
 20
334.74
 30
9.1
 11
366.871
 21
335.308
 31
9.1
  0
LINE
  5
A5A
330
A02
100
AcDbEntity
  8
Mesh_cs001
100
AcDbLine
 10
366.871
 20
335.308
 30
9.1
 11
369.34
 21
337.066
 31
9.1
  0
LINE
  5
A5B
330
A02
100
AcDbEntity
  8
Mesh_cs001
100
AcDbLine
 10
369.34
 20
337.066
 30
9.1
 11
370.127
 21
337.626
 31
9.1
  0
LINE
  5
A5C
330
A02
100
AcDbEntity
  8
Mesh_cs001
100
AcDbLine
 10
370.127
 20
337.626
 30
9.1
 11
372.613
 21
339.36
 31
9.1
  0
LINE
  5
A5D
330
A02
100
AcDbEntity
  8
Mesh_cs001
100
AcDbLine
 10
372.613
 20
339.36
 30
9.1
 11
373.405
 21
339.912
 31
9.1
  0
LINE
  5
A5E
330
A02
100
AcDbEntity
  8
Mesh_cs001
100
AcDbLine
 10
373.405
 20
339.912
 30
9.1
 11
375.908
 21
341.622
 31
9.1
  0
LINE
  5
A5F
330
A02
100
AcDbEntity
  8
Mesh_cs001
100
AcDbLine
 10
375.908
 20
341.622
 30
9.1
 11
376.706
 21
342.167
 31
9.1
  0
LINE
  5
A60
330
A02
100
AcDbEntity
  8
Mesh_cs001
100
AcDbLine
 10
376.706
 20
342.167
 30
9.1
 11
379.225
 21
343.852
 31
9.1
  0
LINE
  5
A61
330
A02
100
AcDbEntity
  8
Mesh_cs001
100
AcDbLine
 10
379.225
 20
343.852
 30
9.1
 11
380.028
 21
344.389
 31
9.1
  0
LINE
  5
A62
330
A02
100
AcDbEntity
  8
Mesh_cs001
100
AcDbLine
 10
380.028
 20
344.389
 30
9.1
 11
380.835
 21
344.918
 31
9.1
  0
LINE
  5
A63
330
A02
100
AcDbEntity
  8
Mesh_cs001
100
AcDbLine
 10
380.835
 20
344.918
 30
9.1
 11
383.371
 21
346.579
 31
9.1
  0
LINE
  5
A64
330
A02
100
AcDbEntity
  8
Mesh_cs001
100
AcDbLine
 10
383.371
 20
346.579
 30
9.1
 11
384.184
 21
347.1
 31
9.1
  0
LINE
  5
A65
330
A02
100
AcDbEntity
  8
Mesh_cs001
100
AcDbLine
 10
384.184
 20
347.1
 30
9.1
 11
386.735
 21
348.737
 31
9.1
  0
LINE
  5
A66
330
A02
100
AcDbEntity
  8
Mesh_cs001
100
AcDbLine
 10
386.735
 20
348.737
 30
9.1
 11
389.302
 21
350.348
 31
9.1
  0
LINE
  5
A67
330
A02
100
AcDbEntity
  8
Mesh_cs001
100
AcDbLine
 10
389.302
 20
350.348
 30
9.1
 11
390.12
 21
350.862
 31
9.1
  0
LINE
  5
A68
330
A02
100
AcDbEntity
  8
Mesh_cs001
100
AcDbLine
 10
390.12
 20
350.862
 30
9.1
 11
390.943
 21
351.367
 31
9.1
  0
LINE
  5
A69
330
A02
100
AcDbEntity
  8
Mesh_cs001
100
AcDbLine
 10
390.943
 20
351.367
 30
9.1
 11
393.526
 21
352.954
 31
9.1
  0
LINE
  5
A6A
330
A02
100
AcDbEntity
  8
Mesh_cs001
100
AcDbLine
 10
393.526
 20
352.954
 30
9.1
 11
394.353
 21
353.451
 31
9.1
  0
LINE
  5
A6B
330
A02
100
AcDbEntity
  8
Mesh_cs001
100
AcDbLine
 10
394.353
 20
353.451
 30
9.1
 11
396.951
 21
355.013
 31
9.1
  0
LINE
  5
A6C
330
A02
100
AcDbEntity
  8
Mesh_cs001
100
AcDbLine
 10
396.951
 20
355.013
 30
9.1
 11
399.564
 21
356.549
 31
9.1
  0
LINE
  5
A6D
330
A02
100
AcDbEntity
  8
Mesh_cs001
100
AcDbLine
 10
399.564
 20
356.549
 30
9.1
 11
400.396
 21
357.039
 31
9.1
  0
LINE
  5
A6E
330
A02
100
AcDbEntity
  8
Mesh_cs001
100
AcDbLine
 10
400.396
 20
357.039
 30
9.1
 11
401.234
 21
357.52
 31
9.1
  0
LINE
  5
A6F
330
A02
100
AcDbEntity
  8
Mesh_cs001
100
AcDbLine
 10
401.234
 20
357.52
 30
9.1
 11
403.861
 21
359.031
 31
9.1
  0
LINE
  5
A70
330
A02
100
AcDbEntity
  8
Mesh_cs001
100
AcDbLine
 10
403.861
 20
359.031
 30
9.1
 11
404.703
 21
359.504
 31
9.1
  0
LINE
  5
A71
330
A02
100
AcDbEntity
  8
Mesh_cs001
100
AcDbLine
 10
404.703
 20
359.504
 30
9.1
 11
407.345
 21
360.99
 31
9.1
  0
LINE
  5
A72
330
A02
100
AcDbEntity
  8
Mesh_cs001
100
AcDbLine
 10
407.345
 20
360.99
 30
9.1
 11
410.001
 21
362.449
 31
9.1
  0
LINE
  5
A73
330
A02
100
AcDbEntity
  8
Mesh_cs001
100
AcDbLine
 10
410.001
 20
362.449
 30
9.1
 11
410.847
 21
362.915
 31
9.1
  0
LINE
  5
A74
330
A02
100
AcDbEntity
  8
Mesh_cs001
100
AcDbLine
 10
410.847
 20
362.915
 30
9.1
 11
413.518
 21
364.349
 31
9.1
  0
LINE
  5
A75
330
A02
100
AcDbEntity
  8
Mesh_cs001
100
AcDbLine
 10
413.518
 20
364.349
 30
9.1
 11
414.368
 21
364.806
 31
9.1
  0
LINE
  5
A76
330
A02
100
AcDbEntity
  8
Mesh_cs001
100
AcDbLine
 10
414.368
 20
364.806
 30
9.1
 11
417.052
 21
366.214
 31
9.1
  0
LINE
  5
A77
330
A02
100
AcDbEntity
  8
Mesh_cs001
100
AcDbLine
 10
417.052
 20
366.214
 30
9.1
 11
417.908
 21
366.662
 31
9.1
  0
LINE
  5
A78
330
A02
100
AcDbEntity
  8
Mesh_cs001
100
AcDbLine
 10
417.908
 20
366.662
 30
9.1
 11
420.605
 21
368.044
 31
9.1
  0
LINE
  5
A79
330
A02
100
AcDbEntity
  8
Mesh_cs001
100
AcDbLine
 10
420.605
 20
368.044
 30
9.1
 11
421.465
 21
368.485
 31
9.1
  0
LINE
  5
A7A
330
A02
100
AcDbEntity
  8
Mesh_cs001
100
AcDbLine
 10
421.465
 20
368.485
 30
9.1
 11
424.175
 21
369.841
 31
9.1
  0
LINE
  5
A7B
330
A02
100
AcDbEntity
  8
Mesh_cs001
100
AcDbLine
 10
424.175
 20
369.841
 30
9.1
 11
425.039
 21
370.273
 31
9.1
  0
LINE
  5
A7C
330
A02
100
AcDbEntity
  8
Mesh_cs001
100
AcDbLine
 10
425.039
 20
370.273
 30
9.1
 11
427.763
 21
371.602
 31
9.1
  0
LINE
  5
A7D
330
A02
100
AcDbEntity
  8
Mesh_cs001
100
AcDbLine
 10
427.763
 20
371.602
 30
9.1
 11
428.631
 21
372.026
 31
9.1
  0
LINE
  5
A7E
330
A02
100
AcDbEntity
  8
Mesh_cs001
100
AcDbLine
 10
428.631
 20
372.026
 30
9.1
 11
431.367
 21
373.329
 31
9.1
  0
LINE
  5
A7F
330
A02
100
AcDbEntity
  8
Mesh_cs001
100
AcDbLine
 10
431.367
 20
373.329
 30
9.1
 11
432.239
 21
373.745
 31
9.1
  0
LINE
  5
A80
330
A02
100
AcDbEntity
  8
Mesh_cs001
100
AcDbLine
 10
432.239
 20
373.745
 30
9.1
 11
434.988
 21
375.021
 31
9.1
  0
LINE
  5
A81
330
A02
100
AcDbEntity
  8
Mesh_cs001
100
AcDbLine
 10
434.988
 20
375.021
 30
9.1
 11
435.864
 21
375.428
 31
9.1
  0
LINE
  5
A82
330
A02
100
AcDbEntity
  8
Mesh_cs001
100
AcDbLine
 10
435.864
 20
375.428
 30
9.1
 11
438.625
 21
376.678
 31
9.1
  0
LINE
  5
A83
330
A02
100
AcDbEntity
  8
Mesh_cs001
100
AcDbLine
 10
438.625
 20
376.678
 30
9.1
 11
439.505
 21
377.076
 31
9.1
  0
LINE
  5
A84
330
A02
100
AcDbEntity
  8
Mesh_cs001
100
AcDbLine
 10
439.505
 20
377.076
 30
9.1
 11
440.389
 21
377.466
 31
9.1
  0
LINE
  5
A85
330
A02
100
AcDbEntity
  8
Mesh_cs001
100
AcDbLine
 10
440.389
 20
377.466
 30
9.1
 11
443.162
 21
378.689
 31
9.1
  0
LINE
  5
A86
330
A02
100
AcDbEntity
  8
Mesh_cs001
100
AcDbLine
 10
443.162
 20
378.689
 30
9.1
 11
445.947
 21
379.886
 31
9.1
  0
LINE
  5
A87
330
A02
100
AcDbEntity
  8
Mesh_cs001
100
AcDbLine
 10
445.947
 20
379.886
 30
9.1
 11
446.834
 21
380.267
 31
9.1
  0
LINE
  5
A88
330
A02
100
AcDbEntity
  8
Mesh_cs001
100
AcDbLine
 10
446.834
 20
380.267
 30
9.1
 11
449.63
 21
381.436
 31
9.1
  0
LINE
  5
A89
330
A02
100
AcDbEntity
  8
Mesh_cs001
100
AcDbLine
 10
449.63
 20
381.436
 30
9.1
 11
450.521
 21
381.809
 31
9.1
  0
LINE
  5
A8A
330
A02
100
AcDbEntity
  8
Mesh_cs001
100
AcDbLine
 10
450.521
 20
381.809
 30
9.1
 11
453.329
 21
382.951
 31
9.1
  0
LINE
  5
A8B
330
A02
100
AcDbEntity
  8
Mesh_cs001
100
AcDbLine
 10
453.329
 20
382.951
 30
9.1
 11
454.224
 21
383.315
 31
9.1
  0
LINE
  5
A8C
330
A02
100
AcDbEntity
  8
Mesh_cs001
100
AcDbLine
 10
454.224
 20
383.315
 30
9.1
 11
454.332
 21
383.452
 31
9.1
  0
LINE
  5
A8D
330
A02
100
AcDbEntity
  8
Mesh_cs001
100
AcDbLine
 10
454.332
 20
383.452
 30
9.1
 11
454.535
 21
383.696
 31
9.1
  0
LINE
  5
A8E
330
A02
100
AcDbEntity
  8
Mesh_cs001
100
AcDbLine
 10
454.535
 20
383.696
 30
9.1
 11
454.716
 21
383.885
 31
9.1
  0
LINE
  5
A8F
330
A02
100
AcDbEntity
  8
Mesh_cs001
100
AcDbLine
 10
454.716
 20
383.885
 30
9.1
 11
454.777
 21
383.948
 31
9.1
  0
LINE
  5
A90
330
A02
100
AcDbEntity
  8
Mesh_cs001
100
AcDbLine
 10
454.777
 20
383.948
 30
9.1
 11
454.953
 21
384.106
 31
9.1
  0
LINE
  5
A91
330
A02
100
AcDbEntity
  8
Mesh_cs001
100
AcDbLine
 10
454.953
 20
384.106
 30
9.1
 11
455.081
 21
384.218
 31
9.1
  0
LINE
  5
A92
330
A02
100
AcDbEntity
  8
Mesh_cs001
100
AcDbLine
 10
455.081
 20
384.218
 30
9.1
 11
455.159
 21
384.278
 31
9.1
  0
LINE
  5
A93
330
A02
100
AcDbEntity
  8
Mesh_cs001
100
AcDbLine
 10
455.159
 20
384.278
 30
9.1
 11
455.277
 21
384.37
 31
9.1
  0
LINE
  5
A94
330
A02
100
AcDbEntity
  8
Mesh_cs001
100
AcDbLine
 10
455.277
 20
384.37
 30
9.1
 11
455.328
 21
384.409
 31
9.1
  0
LINE
  5
A95
330
A02
100
AcDbEntity
  8
Mesh_cs001
100
AcDbLine
 10
455.328
 20
384.409
 30
9.1
 11
455.497
 21
384.52
 31
9.1
  0
LINE
  5
A96
330
A02
100
AcDbEntity
  8
Mesh_cs001
100
AcDbLine
 10
455.497
 20
384.52
 30
9.1
 11
455.669
 21
384.634
 31
9.1
  0
LINE
  5
A97
330
A02
100
AcDbEntity
  8
Mesh_cs001
100
AcDbLine
 10
455.669
 20
384.634
 30
9.1
 11
455.866
 21
384.74
 31
9.1
  0
LINE
  5
A98
330
A02
100
AcDbEntity
  8
Mesh_cs001
100
AcDbLine
 10
455.866
 20
384.74
 30
9.1
 11
456.142
 21
384.885
 31
9.1
  0
LINE
  5
A99
330
A02
100
AcDbEntity
  8
Mesh_cs001
100
AcDbLine
 10
456.142
 20
384.885
 30
9.1
 11
456.253
 21
384.933
 31
9.1
  0
LINE
  5
A9A
330
A02
100
AcDbEntity
  8
Mesh_cs001
100
AcDbLine
 10
456.253
 20
384.933
 30
9.1
 11
456.627
 21
385.079
 31
9.1
  0
LINE
  5
A9B
330
A02
100
AcDbEntity
  8
Mesh_cs001
100
AcDbLine
 10
456.627
 20
385.079
 30
9.1
 11
456.655
 21
385.089
 31
9.1
  0
LINE
  5
A9C
330
A02
100
AcDbEntity
  8
Mesh_cs001
100
AcDbLine
 10
456.655
 20
385.089
 30
9.1
 11
456.681
 21
385.098
 31
9.1
  0
LINE
  5
A9D
330
A02
100
AcDbEntity
  8
Mesh_cs001
100
AcDbLine
 10
456.681
 20
385.098
 30
9.1
 11
456.706
 21
385.108
 31
9.1
  0
LINE
  5
A9E
330
A02
100
AcDbEntity
  8
Mesh_cs001
100
AcDbLine
 10
456.706
 20
385.108
 30
9.1
 11
456.501
 21
385.738
 31
9.1
  0
LINE
  5
A9F
330
A02
100
AcDbEntity
  8
Mesh_cs001
100
AcDbLine
 10
456.501
 20
385.738
 30
9.1
 11
450.557
 21
404.034
 31
9.1
  0
LINE
  5
AA0
330
A02
100
AcDbEntity
  8
Mesh_cs001
100
AcDbLine
 10
450.557
 20
404.034
 30
9.1
 11
450.464
 21
404.356
 31
9.1
  0
LINE
  5
AA1
330
A02
100
AcDbEntity
  8
Mesh_cs001
100
AcDbLine
 10
450.464
 20
404.356
 30
9.1
 11
450.391
 21
404.692
 31
9.1
  0
LINE
  5
AA2
330
A02
100
AcDbEntity
  8
Mesh_cs001
100
AcDbLine
 10
450.391
 20
404.692
 30
9.1
 11
450.332
 21
405.127
 31
9.1
  0
LINE
  5
AA3
330
A02
100
AcDbEntity
  8
Mesh_cs001
100
AcDbLine
 10
450.332
 20
405.127
 30
9.1
 11
450.313
 21
405.554
 31
9.1
  0
LINE
  5
AA4
330
A02
100
AcDbEntity
  8
Mesh_cs001
100
AcDbLine
 10
450.313
 20
405.554
 30
9.1
 11
450.313
 21
405.58
 31
9.1
  0
LINE
  5
AA5
330
A02
100
AcDbEntity
  8
Mesh_cs001
100
AcDbLine
 10
450.313
 20
405.58
 30
9.1
 11
450.33
 21
406.008
 31
9.1
  0
LINE
  5
AA6
330
A02
100
AcDbEntity
  8
Mesh_cs001
100
AcDbLine
 10
450.33
 20
406.008
 30
9.1
 11
450.332
 21
406.021
 31
9.1
  0
LINE
  5
AA7
330
A02
100
AcDbEntity
  8
Mesh_cs001
100
AcDbLine
 10
450.332
 20
406.021
 30
9.1
 11
450.391
 21
406.46
 31
9.1
  0
LINE
  5
AA8
330
A02
100
AcDbEntity
  8
Mesh_cs001
100
AcDbLine
 10
450.391
 20
406.46
 30
9.1
 11
450.484
 21
406.88
 31
9.1
  0
LINE
  5
AA9
330
A02
100
AcDbEntity
  8
Mesh_cs001
100
AcDbLine
 10
450.484
 20
406.88
 30
9.1
 11
450.488
 21
406.892
 31
9.1
  0
LINE
  5
AAA
330
A02
100
AcDbEntity
  8
Mesh_cs001
100
AcDbLine
 10
450.488
 20
406.892
 30
9.1
 11
450.619
 21
407.303
 31
9.1
  0
LINE
  5
AAB
330
A02
100
AcDbEntity
  8
Mesh_cs001
100
AcDbLine
 10
450.619
 20
407.303
 30
9.1
 11
450.623
 21
407.315
 31
9.1
  0
LINE
  5
AAC
330
A02
100
AcDbEntity
  8
Mesh_cs001
100
AcDbLine
 10
450.623
 20
407.315
 30
9.1
 11
450.791
 21
407.713
 31
9.1
  0
LINE
  5
AAD
330
A02
100
AcDbEntity
  8
Mesh_cs001
100
AcDbLine
 10
450.791
 20
407.713
 30
9.1
 11
450.797
 21
407.727
 31
9.1
  0
LINE
  5
AAE
330
A02
100
AcDbEntity
  8
Mesh_cs001
100
AcDbLine
 10
450.797
 20
407.727
 30
9.1
 11
450.978
 21
408.071
 31
9.1
  0
LINE
  5
AAF
330
A02
100
AcDbEntity
  8
Mesh_cs001
100
AcDbLine
 10
450.978
 20
408.071
 30
9.1
 11
450.985
 21
408.084
 31
9.1
  0
LINE
  5
AB0
330
A02
100
AcDbEntity
  8
Mesh_cs001
100
AcDbLine
 10
450.985
 20
408.084
 30
9.1
 11
451.193
 21
408.414
 31
9.1
  0
LINE
  5
AB1
330
A02
100
AcDbEntity
  8
Mesh_cs001
100
AcDbLine
 10
451.193
 20
408.414
 30
9.1
 11
451.202
 21
408.426
 31
9.1
  0
LINE
  5
AB2
330
A02
100
AcDbEntity
  8
Mesh_cs001
100
AcDbLine
 10
451.202
 20
408.426
 30
9.1
 11
451.437
 21
408.738
 31
9.1
  0
LINE
  5
AB3
330
A02
100
AcDbEntity
  8
Mesh_cs001
100
AcDbLine
 10
451.437
 20
408.738
 30
9.1
 11
451.446
 21
408.749
 31
9.1
  0
LINE
  5
AB4
330
A02
100
AcDbEntity
  8
Mesh_cs001
100
AcDbLine
 10
451.446
 20
408.749
 30
9.1
 11
451.706
 21
409.042
 31
9.1
  0
LINE
  5
AB5
330
A02
100
AcDbEntity
  8
Mesh_cs001
100
AcDbLine
 10
451.706
 20
409.042
 30
9.1
 11
451.988
 21
409.313
 31
9.1
  0
LINE
  5
AB6
330
A02
100
AcDbEntity
  8
Mesh_cs001
100
AcDbLine
 10
451.988
 20
409.313
 30
9.1
 11
451.999
 21
409.324
 31
9.1
  0
LINE
  5
AB7
330
A02
100
AcDbEntity
  8
Mesh_cs001
100
AcDbLine
 10
451.999
 20
409.324
 30
9.1
 11
452.303
 21
409.572
 31
9.1
  0
LINE
  5
AB8
330
A02
100
AcDbEntity
  8
Mesh_cs001
100
AcDbLine
 10
452.303
 20
409.572
 30
9.1
 11
452.315
 21
409.581
 31
9.1
  0
LINE
  5
AB9
330
A02
100
AcDbEntity
  8
Mesh_cs001
100
AcDbLine
 10
452.315
 20
409.581
 30
9.1
 11
452.639
 21
409.804
 31
9.1
  0
LINE
  5
ABA
330
A02
100
AcDbEntity
  8
Mesh_cs001
100
AcDbLine
 10
452.639
 20
409.804
 30
9.1
 11
452.651
 21
409.812
 31
9.1
  0
LINE
  5
ABB
330
A02
100
AcDbEntity
  8
Mesh_cs001
100
AcDbLine
 10
452.651
 20
409.812
 30
9.1
 11
452.993
 21
410.008
 31
9.1
  0
LINE
  5
ABC
330
A02
100
AcDbEntity
  8
Mesh_cs001
100
AcDbLine
 10
452.993
 20
410.008
 30
9.1
 11
453.006
 21
410.015
 31
9.1
  0
LINE
  5
ABD
330
A02
100
AcDbEntity
  8
Mesh_cs001
100
AcDbLine
 10
453.006
 20
410.015
 30
9.1
 11
453.375
 21
410.188
 31
9.1
  0
LINE
  5
ABE
330
A02
100
AcDbEntity
  8
Mesh_cs001
100
AcDbLine
 10
453.375
 20
410.188
 30
9.1
 11
453.385
 21
410.193
 31
9.1
  0
LINE
  5
ABF
330
A02
100
AcDbEntity
  8
Mesh_cs001
100
AcDbLine
 10
453.385
 20
410.193
 30
9.1
 11
453.767
 21
410.334
 31
9.1
  0
LINE
  5
AC0
330
A02
100
AcDbEntity
  8
Mesh_cs001
100
AcDbLine
 10
453.767
 20
410.334
 30
9.1
 11
472.062
 21
416.279
 31
9.1
  0
LINE
  5
AC1
330
A02
100
AcDbEntity
  8
Mesh_cs001
100
AcDbLine
 10
472.062
 20
416.279
 30
9.1
 11
472.693
 21
416.483
 31
9.1
  0
LINE
  5
AC2
330
A02
100
AcDbEntity
  8
Mesh_cs001
100
AcDbLine
 10
472.693
 20
416.483
 30
9.1
 11
471.842
 21
419.104
 31
9.1
  0
LINE
  5
AC3
330
A02
100
AcDbEntity
  8
Mesh_cs001
100
AcDbLine
 10
471.842
 20
419.104
 30
9.1
 11
459.936
 21
455.745
 31
9.1
  0
LINE
  5
AC4
330
A02
100
AcDbEntity
  8
Mesh_cs001
100
AcDbLine
 10
459.936
 20
455.745
 30
9.1
 11
450.989
 21
483.282
 31
9.1
  0
LINE
  5
AC5
330
A02
100
AcDbEntity
  8
Mesh_cs001
100
AcDbLine
 10
450.989
 20
483.282
 30
9.1
 11
428.675
 21
551.957
 31
9.1
  0
LINE
  5
AC6
330
A02
100
AcDbEntity
  8
Mesh_cs001
100
AcDbLine
 10
428.675
 20
551.957
 30
9.1
 11
427.824
 21
554.577
 31
9.1
  0
LINE
  5
AC7
330
A02
100
AcDbEntity
  8
Mesh_cs001
100
AcDbLine
 10
427.824
 20
554.577
 30
9.1
 11
427.193
 21
554.372
 31
9.1
  0
LINE
  5
AC8
330
A02
100
AcDbEntity
  8
Mesh_cs001
100
AcDbLine
 10
427.193
 20
554.372
 30
9.1
 11
408.898
 21
548.427
 31
9.1
  0
LINE
  5
AC9
330
A02
100
AcDbEntity
  8
Mesh_cs001
100
AcDbLine
 10
408.898
 20
548.427
 30
9.1
 11
408.887
 21
548.424
 31
9.1
  0
LINE
  5
ACA
330
A02
100
AcDbEntity
  8
Mesh_cs001
100
AcDbLine
 10
408.887
 20
548.424
 30
9.1
 11
408.506
 21
548.318
 31
9.1
  0
LINE
  5
ACB
330
A02
100
AcDbEntity
  8
Mesh_cs001
100
AcDbLine
 10
408.506
 20
548.318
 30
9.1
 11
408.495
 21
548.315
 31
9.1
  0
LINE
  5
ACC
330
A02
100
AcDbEntity
  8
Mesh_cs001
100
AcDbLine
 10
408.495
 20
548.315
 30
9.1
 11
408.095
 21
548.238
 31
9.1
  0
LINE
  5
ACD
330
A02
100
AcDbEntity
  8
Mesh_cs001
100
AcDbLine
 10
408.095
 20
548.238
 30
9.1
 11
408.08
 21
548.236
 31
9.1
  0
LINE
  5
ACE
330
A02
100
AcDbEntity
  8
Mesh_cs001
100
AcDbLine
 10
408.08
 20
548.236
 30
9.1
 11
407.688
 21
548.194
 31
9.1
  0
LINE
  5
ACF
330
A02
100
AcDbEntity
  8
Mesh_cs001
100
AcDbLine
 10
407.688
 20
548.194
 30
9.1
 11
407.673
 21
548.193
 31
9.1
  0
LINE
  5
AD0
330
A02
100
AcDbEntity
  8
Mesh_cs001
100
AcDbLine
 10
407.673
 20
548.193
 30
9.1
 11
407.28
 21
548.183
 31
9.1
  0
LINE
  5
AD1
330
A02
100
AcDbEntity
  8
Mesh_cs001
100
AcDbLine
 10
407.28
 20
548.183
 30
9.1
 11
407.265
 21
548.184
 31
9.1
  0
LINE
  5
AD2
330
A02
100
AcDbEntity
  8
Mesh_cs001
100
AcDbLine
 10
407.265
 20
548.184
 30
9.1
 11
406.874
 21
548.206
 31
9.1
  0
LINE
  5
AD3
330
A02
100
AcDbEntity
  8
Mesh_cs001
100
AcDbLine
 10
406.874
 20
548.206
 30
9.1
 11
406.859
 21
548.208
 31
9.1
  0
LINE
  5
AD4
330
A02
100
AcDbEntity
  8
Mesh_cs001
100
AcDbLine
 10
406.859
 20
548.208
 30
9.1
 11
406.471
 21
548.261
 31
9.1
  0
LINE
  5
AD5
330
A02
100
AcDbEntity
  8
Mesh_cs001
100
AcDbLine
 10
406.471
 20
548.261
 30
9.1
 11
406.089
 21
548.346
 31
9.1
  0
LINE
  5
AD6
330
A02
100
AcDbEntity
  8
Mesh_cs001
100
AcDbLine
 10
406.089
 20
548.346
 30
9.1
 11
406.074
 21
548.349
 31
9.1
  0
LINE
  5
AD7
330
A02
100
AcDbEntity
  8
Mesh_cs001
100
AcDbLine
 10
406.074
 20
548.349
 30
9.1
 11
405.701
 21
548.464
 31
9.1
  0
LINE
  5
AD8
330
A02
100
AcDbEntity
  8
Mesh_cs001
100
AcDbLine
 10
405.701
 20
548.464
 30
9.1
 11
405.687
 21
548.468
 31
9.1
  0
LINE
  5
AD9
330
A02
100
AcDbEntity
  8
Mesh_cs001
100
AcDbLine
 10
405.687
 20
548.468
 30
9.1
 11
405.325
 21
548.613
 31
9.1
  0
LINE
  5
ADA
330
A02
100
AcDbEntity
  8
Mesh_cs001
100
AcDbLine
 10
405.325
 20
548.613
 30
9.1
 11
405.311
 21
548.619
 31
9.1
  0
LINE
  5
ADB
330
A02
100
AcDbEntity
  8
Mesh_cs001
100
AcDbLine
 10
405.311
 20
548.619
 30
9.1
 11
404.962
 21
548.791
 31
9.1
  0
LINE
  5
ADC
330
A02
100
AcDbEntity
  8
Mesh_cs001
100
AcDbLine
 10
404.962
 20
548.791
 30
9.1
 11
404.949
 21
548.798
 31
9.1
  0
LINE
  5
ADD
330
A02
100
AcDbEntity
  8
Mesh_cs001
100
AcDbLine
 10
404.949
 20
548.798
 30
9.1
 11
404.58
 21
549.022
 31
9.1
  0
LINE
  5
ADE
330
A02
100
AcDbEntity
  8
Mesh_cs001
100
AcDbLine
 10
404.58
 20
549.022
 30
9.1
 11
404.569
 21
549.029
 31
9.1
  0
LINE
  5
ADF
330
A02
100
AcDbEntity
  8
Mesh_cs001
100
AcDbLine
 10
404.569
 20
549.029
 30
9.1
 11
404.222
 21
549.284
 31
9.1
  0
LINE
  5
AE0
330
A02
100
AcDbEntity
  8
Mesh_cs001
100
AcDbLine
 10
404.222
 20
549.284
 30
9.1
 11
404.211
 21
549.293
 31
9.1
  0
LINE
  5
AE1
330
A02
100
AcDbEntity
  8
Mesh_cs001
100
AcDbLine
 10
404.211
 20
549.293
 30
9.1
 11
403.889
 21
549.577
 31
9.1
  0
LINE
  5
AE2
330
A02
100
AcDbEntity
  8
Mesh_cs001
100
AcDbLine
 10
403.889
 20
549.577
 30
9.1
 11
403.879
 21
549.586
 31
9.1
  0
LINE
  5
AE3
330
A02
100
AcDbEntity
  8
Mesh_cs001
100
AcDbLine
 10
403.879
 20
549.586
 30
9.1
 11
403.584
 21
549.897
 31
9.1
  0
LINE
  5
AE4
330
A02
100
AcDbEntity
  8
Mesh_cs001
100
AcDbLine
 10
403.584
 20
549.897
 30
9.1
 11
403.575
 21
549.907
 31
9.1
  0
LINE
  5
AE5
330
A02
100
AcDbEntity
  8
Mesh_cs001
100
AcDbLine
 10
403.575
 20
549.907
 30
9.1
 11
403.309
 21
550.243
 31
9.1
  0
LINE
  5
AE6
330
A02
100
AcDbEntity
  8
Mesh_cs001
100
AcDbLine
 10
403.309
 20
550.243
 30
9.1
 11
403.301
 21
550.253
 31
9.1
  0
LINE
  5
AE7
330
A02
100
AcDbEntity
  8
Mesh_cs001
100
AcDbLine
 10
403.301
 20
550.253
 30
9.1
 11
403.293
 21
550.264
 31
9.1
  0
LINE
  5
AE8
330
A02
100
AcDbEntity
  8
Mesh_cs001
100
AcDbLine
 10
403.293
 20
550.264
 30
9.1
 11
403.058
 21
550.622
 31
9.1
  0
LINE
  5
AE9
330
A02
100
AcDbEntity
  8
Mesh_cs001
100
AcDbLine
 10
403.058
 20
550.622
 30
9.1
 11
403.052
 21
550.632
 31
9.1
  0
LINE
  5
AEA
330
A02
100
AcDbEntity
  8
Mesh_cs001
100
AcDbLine
 10
403.052
 20
550.632
 30
9.1
 11
402.85
 21
551.008
 31
9.1
  0
LINE
  5
AEB
330
A02
100
AcDbEntity
  8
Mesh_cs001
100
AcDbLine
 10
402.85
 20
551.008
 30
9.1
 11
402.845
 21
551.02
 31
9.1
  0
LINE
  5
AEC
330
A02
100
AcDbEntity
  8
Mesh_cs001
100
AcDbLine
 10
402.845
 20
551.02
 30
9.1
 11
402.712
 21
551.322
 31
9.1
  0
LINE
  5
AED
330
A02
100
AcDbEntity
  8
Mesh_cs001
100
AcDbLine
 10
402.712
 20
551.322
 30
9.1
 11
402.707
 21
551.335
 31
9.1
  0
LINE
  5
AEE
330
A02
100
AcDbEntity
  8
Mesh_cs001
100
AcDbLine
 10
402.707
 20
551.335
 30
9.1
 11
402.597
 21
551.638
 31
9.1
  0
LINE
  5
AEF
330
A02
100
AcDbEntity
  8
Mesh_cs001
100
AcDbLine
 10
402.597
 20
551.638
 30
9.1
 11
402.398
 21
552.252
 31
9.1
  0
LINE
  5
AF0
330
A02
100
AcDbEntity
  8
Mesh_cs001
100
AcDbLine
 10
402.398
 20
552.252
 30
9.1
 11
396.605
 21
570.079
 31
9.1
  0
LINE
  5
AF1
330
A02
100
AcDbEntity
  8
Mesh_cs001
100
AcDbLine
 10
396.605
 20
570.079
 30
9.1
 11
396.454
 21
570.022
 31
9.1
  0
LINE
  5
AF2
330
A02
100
AcDbEntity
  8
Mesh_cs001
100
AcDbLine
 10
396.454
 20
570.022
 30
9.1
 11
392.177
 21
568.417
 31
9.1
  0
LINE
  5
AF3
330
A02
100
AcDbEntity
  8
Mesh_cs001
100
AcDbLine
 10
392.177
 20
568.417
 30
9.1
 11
391.078
 21
567.995
 31
9.1
  0
LINE
  5
AF4
330
A02
100
AcDbEntity
  8
Mesh_cs001
100
AcDbLine
 10
391.078
 20
567.995
 30
9.1
 11
387.638
 21
566.672
 31
9.1
  0
LINE
  5
AF5
330
A02
100
AcDbEntity
  8
Mesh_cs001
100
AcDbLine
 10
387.638
 20
566.672
 30
9.1
 11
386.543
 21
566.242
 31
9.1
  0
LINE
  5
AF6
330
A02
100
AcDbEntity
  8
Mesh_cs001
100
AcDbLine
 10
386.543
 20
566.242
 30
9.1
 11
383.114
 21
564.892
 31
9.1
  0
LINE
  5
AF7
330
A02
100
AcDbEntity
  8
Mesh_cs001
100
AcDbLine
 10
383.114
 20
564.892
 30
9.1
 11
382.021
 21
564.453
 31
9.1
  0
LINE
  5
AF8
330
A02
100
AcDbEntity
  8
Mesh_cs001
100
AcDbLine
 10
382.021
 20
564.453
 30
9.1
 11
378.603
 21
563.075
 31
9.1
  0
LINE
  5
AF9
330
A02
100
AcDbEntity
  8
Mesh_cs001
100
AcDbLine
 10
378.603
 20
563.075
 30
9.1
 11
377.514
 21
562.627
 31
9.1
  0
LINE
  5
AFA
330
A02
100
AcDbEntity
  8
Mesh_cs001
100
AcDbLine
 10
377.514
 20
562.627
 30
9.1
 11
374.107
 21
561.222
 31
9.1
  0
LINE
  5
AFB
330
A02
100
AcDbEntity
  8
Mesh_cs001
100
AcDbLine
 10
374.107
 20
561.222
 30
9.1
 11
373.022
 21
560.766
 31
9.1
  0
LINE
  5
AFC
330
A02
100
AcDbEntity
  8
Mesh_cs001
100
AcDbLine
 10
373.022
 20
560.766
 30
9.1
 11
369.626
 21
559.334
 31
9.1
  0
LINE
  5
AFD
330
A02
100
AcDbEntity
  8
Mesh_cs001
100
AcDbLine
 10
369.626
 20
559.334
 30
9.1
 11
368.545
 21
558.868
 31
9.1
  0
LINE
  5
AFE
330
A02
100
AcDbEntity
  8
Mesh_cs001
100
AcDbLine
 10
368.545
 20
558.868
 30
9.1
 11
365.16
 21
557.409
 31
9.1
  0
LINE
  5
AFF
330
A02
100
AcDbEntity
  8
Mesh_cs001
100
AcDbLine
 10
365.16
 20
557.409
 30
9.1
 11
364.083
 21
556.935
 31
9.1
  0
LINE
  5
B00
330
A02
100
AcDbEntity
  8
Mesh_cs001
100
AcDbLine
 10
364.083
 20
556.935
 30
9.1
 11
360.71
 21
555.449
 31
9.1
  0
LINE
  5
B01
330
A02
100
AcDbEntity
  8
Mesh_cs001
100
AcDbLine
 10
360.71
 20
555.449
 30
9.1
 11
359.637
 21
554.967
 31
9.1
  0
LINE
  5
B02
330
A02
100
AcDbEntity
  8
Mesh_cs001
100
AcDbLine
 10
359.637
 20
554.967
 30
9.1
 11
356.276
 21
553.454
 31
9.1
  0
LINE
  5
B03
330
A02
100
AcDbEntity
  8
Mesh_cs001
100
AcDbLine
 10
356.276
 20
553.454
 30
9.1
 11
355.206
 21
552.962
 31
9.1
  0
LINE
  5
B04
330
A02
100
AcDbEntity
  8
Mesh_cs001
100
AcDbLine
 10
355.206
 20
552.962
 30
9.1
 11
351.858
 21
551.423
 31
9.1
  0
LINE
  5
B05
330
A02
100
AcDbEntity
  8
Mesh_cs001
100
AcDbLine
 10
351.858
 20
551.423
 30
9.1
 11
350.792
 21
550.923
 31
9.1
  0
LINE
  5
B06
330
A02
100
AcDbEntity
  8
Mesh_cs001
100
AcDbLine
 10
350.792
 20
550.923
 30
9.1
 11
347.456
 21
549.356
 31
9.1
  0
LINE
  5
B07
330
A02
100
AcDbEntity
  8
Mesh_cs001
100
AcDbLine
 10
347.456
 20
549.356
 30
9.1
 11
346.394
 21
548.848
 31
9.1
  0
LINE
  5
B08
330
A02
100
AcDbEntity
  8
Mesh_cs001
100
AcDbLine
 10
346.394
 20
548.848
 30
9.1
 11
343.071
 21
547.255
 31
9.1
  0
LINE
  5
B09
330
A02
100
AcDbEntity
  8
Mesh_cs001
100
AcDbLine
 10
343.071
 20
547.255
 30
9.1
 11
342.013
 21
546.738
 31
9.1
  0
LINE
  5
B0A
330
A02
100
AcDbEntity
  8
Mesh_cs001
100
AcDbLine
 10
342.013
 20
546.738
 30
9.1
 11
338.703
 21
545.119
 31
9.1
  0
LINE
  5
B0B
330
A02
100
AcDbEntity
  8
Mesh_cs001
100
AcDbLine
 10
338.703
 20
545.119
 30
9.1
 11
337.649
 21
544.593
 31
9.1
  0
LINE
  5
B0C
330
A02
100
AcDbEntity
  8
Mesh_cs001
100
AcDbLine
 10
337.649
 20
544.593
 30
9.1
 11
334.352
 21
542.947
 31
9.1
  0
LINE
  5
B0D
330
A02
100
AcDbEntity
  8
Mesh_cs001
100
AcDbLine
 10
334.352
 20
542.947
 30
9.1
 11
333.302
 21
542.414
 31
9.1
  0
LINE
  5
B0E
330
A02
100
AcDbEntity
  8
Mesh_cs001
100
AcDbLine
 10
333.302
 20
542.414
 30
9.1
 11
330.018
 21
540.741
 31
9.1
  0
LINE
  5
B0F
330
A02
100
AcDbEntity
  8
Mesh_cs001
100
AcDbLine
 10
330.018
 20
540.741
 30
9.1
 11
328.973
 21
540.199
 31
9.1
  0
LINE
  5
B10
330
A02
100
AcDbEntity
  8
Mesh_cs001
100
AcDbLine
 10
328.973
 20
540.199
 30
9.1
 11
325.702
 21
538.501
 31
9.1
  0
LINE
  5
B11
330
A02
100
AcDbEntity
  8
Mesh_cs001
100
AcDbLine
 10
325.702
 20
538.501
 30
9.1
 11
324.662
 21
537.95
 31
9.1
  0
LINE
  5
B12
330
A02
100
AcDbEntity
  8
Mesh_cs001
100
AcDbLine
 10
324.662
 20
537.95
 30
9.1
 11
321.405
 21
536.226
 31
9.1
  0
LINE
  5
B13
330
A02
100
AcDbEntity
  8
Mesh_cs001
100
AcDbLine
 10
321.405
 20
536.226
 30
9.1
 11
320.369
 21
535.667
 31
9.1
  0
LINE
  5
B14
330
A02
100
AcDbEntity
  8
Mesh_cs001
100
AcDbLine
 10
320.369
 20
535.667
 30
9.1
 11
317.125
 21
533.916
 31
9.1
  0
LINE
  5
B15
330
A02
100
AcDbEntity
  8
Mesh_cs001
100
AcDbLine
 10
317.125
 20
533.916
 30
9.1
 11
316.094
 21
533.349
 31
9.1
  0
LINE
  5
B16
330
A02
100
AcDbEntity
  8
Mesh_cs001
100
AcDbLine
 10
316.094
 20
533.349
 30
9.1
 11
312.865
 21
531.573
 31
9.1
  0
LINE
  5
B17
330
A02
100
AcDbEntity
  8
Mesh_cs001
100
AcDbLine
 10
312.865
 20
531.573
 30
9.1
 11
311.838
 21
530.998
 31
9.1
  0
LINE
  5
B18
330
A02
100
AcDbEntity
  8
Mesh_cs001
100
AcDbLine
 10
311.838
 20
530.998
 30
9.1
 11
308.623
 21
529.195
 31
9.1
  0
LINE
  5
B19
330
A02
100
AcDbEntity
  8
Mesh_cs001
100
AcDbLine
 10
308.623
 20
529.195
 30
9.1
 11
307.6
 21
528.612
 31
9.1
  0
LINE
  5
B1A
330
A02
100
AcDbEntity
  8
Mesh_cs001
100
AcDbLine
 10
307.6
 20
528.612
 30
9.1
 11
304.4
 21
526.784
 31
9.1
  0
LINE
  5
B1B
330
A02
100
AcDbEntity
  8
Mesh_cs001
100
AcDbLine
 10
304.4
 20
526.784
 30
9.1
 11
303.382
 21
526.192
 31
9.1
  0
LINE
  5
B1C
330
A02
100
AcDbEntity
  8
Mesh_cs001
100
AcDbLine
 10
303.382
 20
526.192
 30
9.1
 11
300.197
 21
524.339
 31
9.1
  0
LINE
  5
B1D
330
A02
100
AcDbEntity
  8
Mesh_cs001
100
AcDbLine
 10
300.197
 20
524.339
 30
9.1
 11
299.184
 21
523.739
 31
9.1
  0
LINE
  5
B1E
330
A02
100
AcDbEntity
  8
Mesh_cs001
100
AcDbLine
 10
299.184
 20
523.739
 30
9.1
 11
296.013
 21
521.86
 31
9.1
  0
LINE
  5
B1F
330
A02
100
AcDbEntity
  8
Mesh_cs001
100
AcDbLine
 10
296.013
 20
521.86
 30
9.1
 11
295.005
 21
521.253
 31
9.1
  0
LINE
  5
B20
330
A02
100
AcDbEntity
  8
Mesh_cs001
100
AcDbLine
 10
295.005
 20
521.253
 30
9.1
 11
291.85
 21
519.348
 31
9.1
  0
LINE
  5
B21
330
A02
100
AcDbEntity
  8
Mesh_cs001
100
AcDbLine
 10
291.85
 20
519.348
 30
9.1
 11
290.846
 21
518.733
 31
9.1
  0
LINE
  5
B22
330
A02
100
AcDbEntity
  8
Mesh_cs001
100
AcDbLine
 10
290.846
 20
518.733
 30
9.1
 11
287.706
 21
516.803
 31
9.1
  0
LINE
  5
B23
330
A02
100
AcDbEntity
  8
Mesh_cs001
100
AcDbLine
 10
287.706
 20
516.803
 30
9.1
 11
286.708
 21
516.179
 31
9.1
  0
LINE
  5
B24
330
A02
100
AcDbEntity
  8
Mesh_cs001
100
AcDbLine
 10
286.708
 20
516.179
 30
9.1
 11
283.583
 21
514.225
 31
9.1
  0
LINE
  5
B25
330
A02
100
AcDbEntity
  8
Mesh_cs001
100
AcDbLine
 10
283.583
 20
514.225
 30
9.1
 11
282.59
 21
513.593
 31
9.1
  0
LINE
  5
B26
330
A02
100
AcDbEntity
  8
Mesh_cs001
100
AcDbLine
 10
282.59
 20
513.593
 30
9.1
 11
279.481
 21
511.614
 31
9.1
  0
LINE
  5
B27
330
A02
100
AcDbEntity
  8
Mesh_cs001
100
AcDbLine
 10
279.481
 20
511.614
 30
9.1
 11
278.493
 21
510.974
 31
9.1
  0
LINE
  5
B28
330
A02
100
AcDbEntity
  8
Mesh_cs001
100
AcDbLine
 10
278.493
 20
510.974
 30
9.1
 11
275.4
 21
508.97
 31
9.1
  0
LINE
  5
B29
330
A02
100
AcDbEntity
  8
Mesh_cs001
100
AcDbLine
 10
275.4
 20
508.97
 30
9.1
 11
274.417
 21
508.322
 31
9.1
  0
LINE
  5
B2A
330
A02
100
AcDbEntity
  8
Mesh_cs001
100
AcDbLine
 10
274.417
 20
508.322
 30
9.1
 11
271.34
 21
506.294
 31
9.1
  0
LINE
  5
B2B
330
A02
100
AcDbEntity
  8
Mesh_cs001
100
AcDbLine
 10
271.34
 20
506.294
 30
9.1
 11
270.362
 21
505.638
 31
9.1
  0
LINE
  5
B2C
330
A02
100
AcDbEntity
  8
Mesh_cs001
100
AcDbLine
 10
270.362
 20
505.638
 30
9.1
 11
267.302
 21
503.585
 31
9.1
  0
LINE
  5
B2D
330
A02
100
AcDbEntity
  8
Mesh_cs001
100
AcDbLine
 10
267.302
 20
503.585
 30
9.1
 11
266.329
 21
502.922
 31
9.1
  0
LINE
  5
B2E
330
A02
100
AcDbEntity
  8
Mesh_cs001
100
AcDbLine
 10
266.329
 20
502.922
 30
9.1
 11
263.285
 21
500.844
 31
9.1
  0
LINE
  5
B2F
330
A02
100
AcDbEntity
  8
Mesh_cs001
100
AcDbLine
 10
263.285
 20
500.844
 30
9.1
 11
262.318
 21
500.173
 31
9.1
  0
LINE
  5
B30
330
A02
100
AcDbEntity
  8
Mesh_cs001
100
AcDbLine
 10
262.318
 20
500.173
 30
9.1
 11
259.291
 21
498.071
 31
9.1
  0
LINE
  5
B31
330
A02
100
AcDbEntity
  8
Mesh_cs001
100
AcDbLine
 10
259.291
 20
498.071
 30
9.1
 11
258.329
 21
497.392
 31
9.1
  0
LINE
  5
B32
330
A02
100
AcDbEntity
  8
Mesh_cs001
100
AcDbLine
 10
258.329
 20
497.392
 30
9.1
 11
255.319
 21
495.266
 31
9.1
  0
LINE
  5
B33
330
A02
100
AcDbEntity
  8
Mesh_cs001
100
AcDbLine
 10
255.319
 20
495.266
 30
9.1
 11
254.362
 21
494.579
 31
9.1
  0
LINE
  5
B34
330
A02
100
AcDbEntity
  8
Mesh_cs001
100
AcDbLine
 10
254.362
 20
494.579
 30
9.1
 11
251.369
 21
492.429
 31
9.1
  0
LINE
  5
B35
330
A02
100
AcDbEntity
  8
Mesh_cs001
100
AcDbLine
 10
251.369
 20
492.429
 30
9.1
 11
250.418
 21
491.735
 31
9.1
  0
LINE
  5
B36
330
A02
100
AcDbEntity
  8
Mesh_cs001
100
AcDbLine
 10
250.418
 20
491.735
 30
9.1
 11
247.442
 21
489.561
 31
9.1
  0
LINE
  5
B37
330
A02
100
AcDbEntity
  8
Mesh_cs001
100
AcDbLine
 10
247.442
 20
489.561
 30
9.1
 11
246.497
 21
488.86
 31
9.1
  0
LINE
  5
B38
330
A02
100
AcDbEntity
  8
Mesh_cs001
100
AcDbLine
 10
246.497
 20
488.86
 30
9.1
 11
243.539
 21
486.662
 31
9.1
  0
LINE
  5
B39
330
A02
100
AcDbEntity
  8
Mesh_cs001
100
AcDbLine
 10
243.539
 20
486.662
 30
9.1
 11
242.599
 21
485.953
 31
9.1
  0
LINE
  5
B3A
330
A02
100
AcDbEntity
  8
Mesh_cs001
100
AcDbLine
 10
242.599
 20
485.953
 30
9.1
 11
239.658
 21
483.732
 31
9.1
  0
LINE
  5
B3B
330
A02
100
AcDbEntity
  8
Mesh_cs001
100
AcDbLine
 10
239.658
 20
483.732
 30
9.1
 11
238.724
 21
483.015
 31
9.1
  0
LINE
  5
B3C
330
A02
100
AcDbEntity
  8
Mesh_cs001
100
AcDbLine
 10
238.724
 20
483.015
 30
9.1
 11
235.801
 21
480.77
 31
9.1
  0
LINE
  5
B3D
330
A02
100
AcDbEntity
  8
Mesh_cs001
100
AcDbLine
 10
235.801
 20
480.77
 30
9.1
 11
234.873
 21
480.046
 31
9.1
  0
LINE
  5
B3E
330
A02
100
AcDbEntity
  8
Mesh_cs001
100
AcDbLine
 10
234.873
 20
480.046
 30
9.1
 11
231.968
 21
477.778
 31
9.1
  0
LINE
  5
B3F
330
A02
100
AcDbEntity
  8
Mesh_cs001
100
AcDbLine
 10
231.968
 20
477.778
 30
9.1
 11
231.046
 21
477.046
 31
9.1
  0
LINE
  5
B40
330
A02
100
AcDbEntity
  8
Mesh_cs001
100
AcDbLine
 10
231.046
 20
477.046
 30
9.1
 11
228.159
 21
474.755
 31
9.1
  0
LINE
  5
B41
330
A02
100
AcDbEntity
  8
Mesh_cs001
100
AcDbLine
 10
228.159
 20
474.755
 30
9.1
 11
227.243
 21
474.016
 31
9.1
  0
LINE
  5
B42
330
A02
100
AcDbEntity
  8
Mesh_cs001
100
AcDbLine
 10
227.243
 20
474.016
 30
9.1
 11
224.374
 21
471.702
 31
9.1
  0
LINE
  5
B43
330
A02
100
AcDbEntity
  8
Mesh_cs001
100
AcDbLine
 10
224.374
 20
471.702
 30
9.1
 11
223.464
 21
470.956
 31
9.1
  0
LINE
  5
B44
330
A02
100
AcDbEntity
  8
Mesh_cs001
100
AcDbLine
 10
223.464
 20
470.956
 30
9.1
 11
220.614
 21
468.619
 31
9.1
  0
LINE
  5
B45
330
A02
100
AcDbEntity
  8
Mesh_cs001
100
AcDbLine
 10
220.614
 20
468.619
 30
9.1
 11
219.71
 21
467.865
 31
9.1
  0
LINE
  5
B46
330
A02
100
AcDbEntity
  8
Mesh_cs001
100
AcDbLine
 10
219.71
 20
467.865
 30
9.1
 11
216.879
 21
465.506
 31
9.1
  0
LINE
  5
B47
330
A02
100
AcDbEntity
  8
Mesh_cs001
100
AcDbLine
 10
216.879
 20
465.506
 30
9.1
 11
215.981
 21
464.745
 31
9.1
  0
LINE
  5
B48
330
A02
100
AcDbEntity
  8
Mesh_cs001
100
AcDbLine
 10
215.981
 20
464.745
 30
9.1
 11
213.168
 21
462.363
 31
9.1
  0
LINE
  5
B49
330
A02
100
AcDbEntity
  8
Mesh_cs001
100
AcDbLine
 10
213.168
 20
462.363
 30
9.1
 11
212.276
 21
461.595
 31
9.1
  0
LINE
  5
B4A
330
A02
100
AcDbEntity
  8
Mesh_cs001
100
AcDbLine
 10
212.276
 20
461.595
 30
9.1
 11
209.483
 21
459.19
 31
9.1
  0
LINE
  5
B4B
330
A02
100
AcDbEntity
  8
Mesh_cs001
100
AcDbLine
 10
209.483
 20
459.19
 30
9.1
 11
208.597
 21
458.415
 31
9.1
  0
LINE
  5
B4C
330
A02
100
AcDbEntity
  8
Mesh_cs001
100
AcDbLine
 10
208.597
 20
458.415
 30
9.1
 11
205.824
 21
455.988
 31
9.1
  0
LINE
  5
B4D
330
A02
100
AcDbEntity
  8
Mesh_cs001
100
AcDbLine
 10
205.824
 20
455.988
 30
9.1
 11
204.944
 21
455.206
 31
9.1
  0
LINE
  5
B4E
330
A02
100
AcDbEntity
  8
Mesh_cs001
100
AcDbLine
 10
204.944
 20
455.206
 30
9.1
 11
202.19
 21
452.757
 31
9.1
  0
LINE
  5
B4F
330
A02
100
AcDbEntity
  8
Mesh_cs001
100
AcDbLine
 10
202.19
 20
452.757
 30
9.1
 11
201.316
 21
451.968
 31
9.1
  0
LINE
  5
B50
330
A02
100
AcDbEntity
  8
Mesh_cs001
100
AcDbLine
 10
201.316
 20
451.968
 30
9.1
 11
198.582
 21
449.497
 31
9.1
  0
LINE
  5
B51
330
A02
100
AcDbEntity
  8
Mesh_cs001
100
AcDbLine
 10
198.582
 20
449.497
 30
9.1
 11
197.715
 21
448.701
 31
9.1
  0
LINE
  5
B52
330
A02
100
AcDbEntity
  8
Mesh_cs001
100
AcDbLine
 10
197.715
 20
448.701
 30
9.1
 11
195
 21
446.208
 31
9.1
  0
LINE
  5
B53
330
A02
100
AcDbEntity
  8
Mesh_cs001
100
AcDbLine
 10
195
 20
446.208
 30
9.1
 11
195
 21
349.217
 31
9.1
  0
LINE
  5
B54
330
A02
100
AcDbEntity
  8
Mesh_cs001
100
AcDbLine
 10
195
 20
349.217
 30
9.1
 11
195
 21
323.976
 31
9.1
  0
LINE
  5
B55
330
A02
100
AcDbEntity
  8
Mesh_cs001
100
AcDbLine
 10
195
 20
323.976
 30
9.1
 11
195
 21
300.074
 31
9.1
  0
LINE
  5
B56
330
A02
100
AcDbEntity
  8
Mesh_cs001
100
AcDbLine
 10
195
 20
300.074
 30
9.1
 11
206.712
 21
291.565
 31
9.1
  0
LINE
  5
B57
330
A02
100
AcDbEntity
  8
Mesh_cs001
100
AcDbLine
 10
206.712
 20
291.565
 30
9.1
 11
251.506
 21
259.02
 31
9.1
  0
LINE
  5
B58
330
A02
100
AcDbEntity
  8
Mesh_cs001
100
AcDbLine
 10
251.506
 20
259.02
 30
9.1
 11
253.735
 21
257.401
 31
9.1
  0
LINE
  5
B59
330
A02
100
AcDbEntity
  8
Mesh_cs001
100
AcDbLine
 10
253.735
 20
257.401
 30
9.1
 11
265.042
 21
272.964
 31
9.1
  0
LINE
  5
B5A
330
A02
100
AcDbEntity
  8
Mesh_cs001
100
AcDbLine
 10
265.042
 20
272.964
 30
9.1
 11
265.432
 21
273.5
 31
9.1
  0
LINE
  5
B5B
330
A02
100
AcDbEntity
  8
Mesh_cs001
100
AcDbLine
 10
265.432
 20
273.5
 30
9.1
 11
265.439
 21
273.509
 31
9.1
  0
LINE
  5
B5C
330
A02
100
AcDbEntity
  8
Mesh_cs001
100
AcDbLine
 10
265.439
 20
273.509
 30
9.1
 11
265.684
 21
273.819
 31
9.1
  0
LINE
  5
B5D
330
A02
100
AcDbEntity
  8
Mesh_cs001
100
AcDbLine
 10
265.684
 20
273.819
 30
9.1
 11
265.692
 21
273.828
 31
9.1
  0
LINE
  5
B5E
330
A02
100
AcDbEntity
  8
Mesh_cs001
100
AcDbLine
 10
265.692
 20
273.828
 30
9.1
 11
265.97
 21
274.126
 31
9.1
  0
LINE
  5
B5F
330
A02
100
AcDbEntity
  8
Mesh_cs001
100
AcDbLine
 10
265.97
 20
274.126
 30
9.1
 11
265.981
 21
274.136
 31
9.1
  0
LINE
  5
B60
330
A02
100
AcDbEntity
  8
Mesh_cs001
100
AcDbLine
 10
265.981
 20
274.136
 30
9.1
 11
266.273
 21
274.4
 31
9.1
  0
LINE
  5
B61
330
A02
100
AcDbEntity
  8
Mesh_cs001
100
AcDbLine
 10
266.273
 20
274.4
 30
9.1
 11
266.285
 21
274.409
 31
9.1
  0
LINE
  5
B62
330
A02
100
AcDbEntity
  8
Mesh_cs001
100
AcDbLine
 10
266.285
 20
274.409
 30
9.1
 11
266.596
 21
274.649
 31
9.1
  0
LINE
  5
B63
330
A02
100
AcDbEntity
  8
Mesh_cs001
100
AcDbLine
 10
266.596
 20
274.649
 30
9.1
 11
266.609
 21
274.657
 31
9.1
  0
LINE
  5
B64
330
A02
100
AcDbEntity
  8
Mesh_cs001
100
AcDbLine
 10
266.609
 20
274.657
 30
9.1
 11
266.939
 21
274.869
 31
9.1
  0
LINE
  5
B65
330
A02
100
AcDbEntity
  8
Mesh_cs001
100
AcDbLine
 10
266.939
 20
274.869
 30
9.1
 11
266.952
 21
274.876
 31
9.1
  0
LINE
  5
B66
330
A02
100
AcDbEntity
  8
Mesh_cs001
100
AcDbLine
 10
266.952
 20
274.876
 30
9.1
 11
267.297
 21
275.061
 31
9.1
  0
LINE
  5
B67
330
A02
100
AcDbEntity
  8
Mesh_cs001
100
AcDbLine
 10
267.297
 20
275.061
 30
9.1
 11
267.656
 21
275.218
 31
9.1
  0
LINE
  5
B68
330
A02
100
AcDbEntity
  8
Mesh_cs001
100
AcDbLine
 10
267.656
 20
275.218
 30
9.1
 11
267.669
 21
275.223
 31
9.1
  0
LINE
  5
B69
330
A02
100
AcDbEntity
  8
Mesh_cs001
100
AcDbLine
 10
267.669
 20
275.223
 30
9.1
 11
268.039
 21
275.35
 31
9.1
  0
LINE
  5
B6A
330
A02
100
AcDbEntity
  8
Mesh_cs001
100
AcDbLine
 10
268.039
 20
275.35
 30
9.1
 11
268.053
 21
275.354
 31
9.1
  0
LINE
  5
B6B
330
A02
100
AcDbEntity
  8
Mesh_cs001
100
AcDbLine
 10
268.053
 20
275.354
 30
9.1
 11
268.431
 21
275.451
 31
9.1
  0
LINE
  5
B6C
330
A02
100
AcDbEntity
  8
Mesh_cs001
100
AcDbLine
 10
268.431
 20
275.451
 30
9.1
 11
268.445
 21
275.454
 31
9.1
  0
LINE
  5
B6D
330
A02
100
AcDbEntity
  8
Mesh_cs001
100
AcDbLine
 10
268.445
 20
275.454
 30
9.1
 11
268.829
 21
275.519
 31
9.1
  0
LINE
  5
B6E
330
A02
100
AcDbEntity
  8
Mesh_cs001
100
AcDbLine
 10
268.829
 20
275.519
 30
9.1
 11
268.844
 21
275.521
 31
9.1
  0
LINE
  5
B6F
330
A02
100
AcDbEntity
  8
Mesh_cs001
100
AcDbLine
 10
268.844
 20
275.521
 30
9.1
 11
269.274
 21
275.557
 31
9.1
  0
LINE
  5
B70
330
A02
100
AcDbEntity
  8
Mesh_cs001
100
AcDbLine
 10
269.274
 20
275.557
 30
9.1
 11
269.287
 21
275.558
 31
9.1
  0
LINE
  5
B71
330
A02
100
AcDbEntity
  8
Mesh_cs001
100
AcDbLine
 10
269.287
 20
275.558
 30
9.1
 11
269.718
 21
275.555
 31
9.1
  0
LINE
  5
B72
330
A02
100
AcDbEntity
  8
Mesh_cs001
100
AcDbLine
 10
269.718
 20
275.555
 30
9.1
 11
269.731
 21
275.555
 31
9.1
  0
LINE
  5
B73
330
A02
100
AcDbEntity
  8
Mesh_cs001
100
AcDbLine
 10
269.731
 20
275.555
 30
9.1
 11
270.159
 21
275.514
 31
9.1
  0
LINE
  5
B74
330
A02
100
AcDbEntity
  8
Mesh_cs001
100
AcDbLine
 10
270.159
 20
275.514
 30
9.1
 11
270.173
 21
275.513
 31
9.1
  0
LINE
  5
B75
330
A02
100
AcDbEntity
  8
Mesh_cs001
100
AcDbLine
 10
270.173
 20
275.513
 30
9.1
 11
270.594
 21
275.434
 31
9.1
  0
LINE
  5
B76
330
A02
100
AcDbEntity
  8
Mesh_cs001
100
AcDbLine
 10
270.594
 20
275.434
 30
9.1
 11
270.608
 21
275.432
 31
9.1
  0
LINE
  5
B77
330
A02
100
AcDbEntity
  8
Mesh_cs001
100
AcDbLine
 10
270.608
 20
275.432
 30
9.1
 11
271.02
 21
275.317
 31
9.1
  0
LINE
  5
B78
330
A02
100
AcDbEntity
  8
Mesh_cs001
100
AcDbLine
 10
271.02
 20
275.317
 30
9.1
 11
271.033
 21
275.313
 31
9.1
  0
LINE
  5
B79
330
A02
100
AcDbEntity
  8
Mesh_cs001
100
AcDbLine
 10
271.033
 20
275.313
 30
9.1
 11
271.046
 21
275.308
 31
9.1
  0
LINE
  5
B7A
330
A02
100
AcDbEntity
  8
Mesh_cs001
100
AcDbLine
 10
271.046
 20
275.308
 30
9.1
 11
271.445
 21
275.158
 31
9.1
  0
LINE
  5
B7B
330
A02
100
AcDbEntity
  8
Mesh_cs001
100
AcDbLine
 10
271.445
 20
275.158
 30
9.1
 11
271.456
 21
275.152
 31
9.1
  0
LINE
  5
B7C
330
A02
100
AcDbEntity
  8
Mesh_cs001
100
AcDbLine
 10
271.456
 20
275.152
 30
9.1
 11
271.84
 21
274.967
 31
9.1
  0
LINE
  5
B7D
330
A02
100
AcDbEntity
  8
Mesh_cs001
100
AcDbLine
 10
271.84
 20
274.967
 30
9.1
 11
271.852
 21
274.961
 31
9.1
  0
LINE
  5
B7E
330
A02
100
AcDbEntity
  8
Mesh_cs001
100
AcDbLine
 10
271.852
 20
274.961
 30
9.1
 11
272.138
 21
274.794
 31
9.1
  0
LINE
  5
B7F
330
A02
100
AcDbEntity
  8
Mesh_cs001
100
AcDbLine
 10
466.217
 20
388.198
 30
9.1
 11
466.689
 21
388.351
 31
9.1
  0
LINE
  5
B80
330
A02
100
AcDbEntity
  8
Mesh_cs001
100
AcDbLine
 10
466.689
 20
388.351
 30
9.1
 11
480.387
 21
392.802
 31
9.1
  0
LINE
  5
B81
330
A02
100
AcDbEntity
  8
Mesh_cs001
100
AcDbLine
 10
480.387
 20
392.802
 30
9.1
 11
475.937
 21
406.501
 31
9.1
  0
LINE
  5
B82
330
A02
100
AcDbEntity
  8
Mesh_cs001
100
AcDbLine
 10
475.937
 20
406.501
 30
9.1
 11
475.783
 21
406.973
 31
9.1
  0
LINE
  5
B83
330
A02
100
AcDbEntity
  8
Mesh_cs001
100
AcDbLine
 10
475.783
 20
406.973
 30
9.1
 11
475.311
 21
406.819
 31
9.1
  0
LINE
  5
B84
330
A02
100
AcDbEntity
  8
Mesh_cs001
100
AcDbLine
 10
475.311
 20
406.819
 30
9.1
 11
461.612
 21
402.369
 31
9.1
  0
LINE
  5
B85
330
A02
100
AcDbEntity
  8
Mesh_cs001
100
AcDbLine
 10
461.612
 20
402.369
 30
9.1
 11
466.063
 21
388.67
 31
9.1
  0
LINE
  5
B86
330
A02
100
AcDbEntity
  8
Mesh_cs001
100
AcDbLine
 10
466.063
 20
388.67
 30
9.1
 11
466.217
 21
388.198
 31
9.1
  0
LINE
  5
B87
330
A02
100
AcDbEntity
  8
Mesh_cs001
100
AcDbLine
 10
270.291
 20
263.176
 30
9.1
 11
270.583
 21
263.577
 31
9.1
  0
LINE
  5
B88
330
A02
100
AcDbEntity
  8
Mesh_cs001
100
AcDbLine
 10
270.583
 20
263.577
 30
9.1
 11
282.235
 21
255.111
 31
9.1
  0
LINE
  5
B89
330
A02
100
AcDbEntity
  8
Mesh_cs001
100
AcDbLine
 10
282.235
 20
255.111
 30
9.1
 11
282.637
 21
254.819
 31
9.1
  0
LINE
  5
B8A
330
A02
100
AcDbEntity
  8
Mesh_cs001
100
AcDbLine
 10
282.637
 20
254.819
 30
9.1
 11
282.345
 21
254.418
 31
9.1
  0
LINE
  5
B8B
330
A02
100
AcDbEntity
  8
Mesh_cs001
100
AcDbLine
 10
282.345
 20
254.418
 30
9.1
 11
273.879
 21
242.765
 31
9.1
  0
LINE
  5
B8C
330
A02
100
AcDbEntity
  8
Mesh_cs001
100
AcDbLine
 10
273.879
 20
242.765
 30
9.1
 11
262.227
 21
251.231
 31
9.1
  0
LINE
  5
B8D
330
A02
100
AcDbEntity
  8
Mesh_cs001
100
AcDbLine
 10
262.227
 20
251.231
 30
9.1
 11
261.825
 21
251.523
 31
9.1
  0
LINE
  5
B8E
330
A02
100
AcDbEntity
  8
Mesh_cs001
100
AcDbLine
 10
261.825
 20
251.523
 30
9.1
 11
270.291
 21
263.176
 31
9.1
  0
ENDSEC
  0
SECTION
  2
OBJECTS
  0
DICTIONARY
  5
F000
330
0
100
AcDbDictionary
  3
ACAD_GROUP
350
F001
  0
DICTIONARY
  5
F001
330
F000
100
AcDbDictionary
  0
ENDSEC
  0
EOF