999
FreeCAD v0.21 33771 (Git)
  0
SECTION
  2
HEADER
  9
$ACADVER
  1
AC1014
  9
$ACADMAINTVER
 70
     9
  9
$DWGCODEPAGE
  3
ANSI_1252
  9
$TEXTSTYLE
  7
STANDARD
  9
$DIMSTYLE
  2
STANDARD
  9
$DIMTXSTY
  7
STANDARD
  9
$CMLSTYLE
  2
STANDARD
  9
$LUNITS
 70
2
  9
$INSUNITS
 70
4
  9
$PEXTMAX
 10
50
 20
50
 30
50
  9
$PEXTMIN
 10
0
 20
0
 30
0
  9
$HANDSEED
  5
FFFF
  0
ENDSEC
  0
SECTION
  2
CLASSES
  0
CLASS
  1
ACDBDICTIONARYWDFLT
  2
AcDbDictionaryWithDefault
  3
ObjectDBX Classes
 90
        0
280
     0
281
     0
  0
CLASS
  1
XRECORD
  2
AcDbXrecord
  3
ObjectDBX Classes
 90
        0
280
     0
281
     0
  0
CLASS
  1
LWPOLYLINE
  2
AcDbPolyline
  3
ObjectDBX Classes
 90
        0
280
     0
281
     1
  0
ENDSEC
  0
SECTION
  2
TABLES
  0
TABLE
  2
VPORT
  5
20
330
0
100
AcDbSymbolTable
 70
     1
  0
VPORT
  5
21
330
20
100
AcDbSymbolTableRecord
100
AcDbViewportTableRecord
  2
*ACTIVE
 70
     0
  0
ENDTAB
  0
TABLE
  2
LTYPE
  5
22
330
0
100
AcDbSymbolTable
 70
     1
  0
LTYPE
  5
23
330
21
100
AcDbSymbolTableRecord
100
AcDbLinetypeTableRecord
  2
BYBLOCK
 70
     0
  3

 72
    65
 73
     0
 40
0.0
  0
LTYPE
  5
24
330
21
100
AcDbSymbolTableRecord
100
AcDbLinetypeTableRecord
  2
BYLAYER
 70
     0
  3

 72
    65
 73
     0
 40
0.0
  0
LTYPE
  5
25
330
21
100
AcDbSymbolTableRecord
100
AcDbLinetypeTableRecord
  2
CONTINUOUS
 70
     0
  3
Solid line
 72
    65
 73
     0
 40
0.0
  0
ENDTAB
  0
TABLE
  2
LAYER
  5
B35
330
0
100
AcDbSymbolTable
 70
3
  0
LAYER
  5
B36
330
B35
100
AcDbSymbolTableRecord
100
AcDbLayerTableRecord
  2
0
 70
   0
 62
   7
  6
CONTINUOUS
  0
LAYER
  5
B37
330
B35
100
AcDbSymbolTableRecord
100
AcDbLayerTableRecord
  2
none
 70
    0
 62
    7
  6
CONTINUOUS
  0
LAYER
  5
B38
330
B35
100
AcDbSymbolTableRecord
100
AcDbLayerTableRecord
  2
Mesh_cs001
 70
    0
 62
    7
  6
CONTINUOUS
  0
ENDTAB
  0
TABLE
  2
STYLE
  5
70
330
0
100
AcDbSymbolTable
 70
     2
  0
STYLE
  5
71
330
70
100
AcDbSymbolTableRecord
100
AcDbTextStyleTableRecord
  2
STANDARD
 70
     0
 40
0.0
 41
1.0
 50
0.0
 71
     0
 42
2.5
  3
arial.ttf
  4

  0
STYLE
  5
72
330
70
100
AcDbSymbolTableRecord
100
AcDbTextStyleTableRecord
  2
ANNOTATIVE
 70
     0
 40
0.0
 41
1.0
 50
0.0
 71
     0
 42
2.5
  3
arial.ttf
  4

  0
ENDTAB
  0
TABLE
  2
VIEW
  5
73
330
0
100
AcDbSymbolTable
 70
     0
  0
ENDTAB
  0
TABLE
  2
UCS
  5
74
330
0
100
AcDbSymbolTable
 70
     0
  0
ENDTAB
  0
TABLE
  2
APPID
  5
75
330
0
100
AcDbSymbolTable
 70
     2
  0
APPID
  5
76
330
75
100
AcDbSymbolTableRecord
100
AcDbRegAppTableRecord
  2
ACAD
 70
     0
  0
APPID
  5
77
330
75
100
AcDbSymbolTableRecord
100
AcDbRegAppTableRecord
  2
ACADANNOTATIVE
 70
     0
  0
ENDTAB
  0
TABLE
  2
DIMSTYLE
  5
78
330
0
100
AcDbSymbolTable
 70
     2
  0
DIMSTYLE
105
79
330
78
100
AcDbSymbolTableRecord
100
AcDbDimStyleTableRecord
  2
STANDARD
 70
     0
  3

  4

  5

  6

  7

 40
0.0
 41
2.5
 42
0.625
 43
3.75
 44
1.25
 45
0.0
 46
0.0
 47
0.0
 48
0.0
140
2.5
141
2.5
142
0.0
143
0.03937007874016
144
1.0
145
0.0
146
1.0
147
0.625
 71
     0
 72
     0
 73
     0
 74
     0
 75
     0
 76
     0
 77
     1
 78
     8
170
     0
171
     3
172
     1
173
     0
174
     0
175
     0
176
     0
177
     0
178
     0
270
     2
271
     2
272
     2
273
     2
274
     3
340
71
275
     0
280
     0
281
     0
282
     0
283
     0
284
     8
285
     0
286
     0
287
     3
288
     0
  0
ENDTAB
  0
TABLE
  2
BLOCK_RECORD
  5
A01
330
0
100
AcDbSymbolTable
  70
5
  0
BLOCK_RECORD
  5
A02
330
A01
100
AcDbSymbolTableRecord
100
AcDbBlockTableRecord
  2
*MODEL_SPACE
  0
BLOCK_RECORD
  5
A03
330
A01
100
AcDbSymbolTableRecord
100
AcDbBlockTableRecord
  2
*PAPER_SPACE
  0
ENDTAB
  0
ENDSEC
  0
SECTION
  2
BLOCKS
  0
BLOCK
  5
A04
330
A02
100
AcDbEntity
  8
0
100
AcDbBlockBegin
  2
*MODEL_SPACE
 70
   0
 10
0
 20
0
 30
0
  3
*MODEL_SPACE
  1
 
  0
ENDBLK
  5
A05
330
A02
100
AcDbEntity
  8
0
100
AcDbBlockEnd
  0
BLOCK
  5
A06
330
A03
100
AcDbEntity
 67
1
  8
0
100
AcDbBlockBegin
  2
*PAPER_SPACE
 70
   0
 10
0
 20
0
 30
0
  3
*PAPER_SPACE
  1
 
  0
ENDBLK
  5
A07
330
A03
100
AcDbEntity
 67
    1
  8
0
100
AcDbBlockEnd
  0
ENDSEC
  0
SECTION
  2
ENTITIES
  0
LINE
  5
A08
330
A02
100
AcDbEntity
  8
Mesh_cs001
100
AcDbLine
 10
282.489
 20
254.927
 30
9.1
 11
270.98
 21
263.289
 31
9.1
  0
LINE
  5
A09
330
A02
100
AcDbEntity
  8
Mesh_cs001
100
AcDbLine
 10
270.98
 20
263.289
 30
9.1
 11
270.583
 21
263.577
 31
9.1
  0
LINE
  5
A0A
330
A02
100
AcDbEntity
  8
Mesh_cs001
100
AcDbLine
 10
270.583
 20
263.577
 30
9.1
 11
270.291
 21
263.176
 31
9.1
  0
LINE
  5
A0B
330
A02
100
AcDbEntity
  8
Mesh_cs001
100
AcDbLine
 10
270.291
 20
263.176
 30
9.1
 11
261.825
 21
251.523
 31
9.1
  0
LINE
  5
A0C
330
A02
100
AcDbEntity
  8
Mesh_cs001
100
AcDbLine
 10
261.825
 20
251.523
 30
9.1
 11
262.227
 21
251.231
 31
9.1
  0
LINE
  5
A0D
330
A02
100
AcDbEntity
  8
Mesh_cs001
100
AcDbLine
 10
262.227
 20
251.231
 30
9.1
 11
273.879
 21
242.765
 31
9.1
  0
LINE
  5
A0E
330
A02
100
AcDbEntity
  8
Mesh_cs001
100
AcDbLine
 10
273.879
 20
242.765
 30
9.1
 11
275.533
 21
245.056
 31
9.1
  0
LINE
  5
A0F
330
A02
100
AcDbEntity
  8
Mesh_cs001
100
AcDbLine
 10
275.533
 20
245.056
 30
9.1
 11
276.225
 21
246.016
 31
9.1
  0
LINE
  5
A10
330
A02
100
AcDbEntity
  8
Mesh_cs001
100
AcDbLine
 10
276.225
 20
246.016
 30
9.1
 11
277.864
 21
248.317
 31
9.1
  0
LINE
  5
A11
330
A02
100
AcDbEntity
  8
Mesh_cs001
100
AcDbLine
 10
277.864
 20
248.317
 30
9.1
 11
278.548
 21
249.283
 31
9.1
  0
LINE
  5
A12
330
A02
100
AcDbEntity
  8
Mesh_cs001
100
AcDbLine
 10
278.548
 20
249.283
 30
9.1
 11
280.173
 21
251.593
 31
9.1
  0
LINE
  5
A13
330
A02
100
AcDbEntity
  8
Mesh_cs001
100
AcDbLine
 10
280.173
 20
251.593
 30
9.1
 11
282.419
 21
254.825
 31
9.1
  0
LINE
  5
A14
330
A02
100
AcDbEntity
  8
Mesh_cs001
100
AcDbLine
 10
282.419
 20
254.825
 30
9.1
 11
282.489
 21
254.927
 31
9.1
  0
LINE
  5
A15
330
A02
100
AcDbEntity
  8
Mesh_cs001
100
AcDbLine
 10
370.1
 20
575.248
 30
9.1
 11
388.844
 21
575.248
 31
9.1
  0
LINE
  5
A16
330
A02
100
AcDbEntity
  8
Mesh_cs001
100
AcDbLine
 10
388.844
 20
575.248
 30
9.1
 11
389.49
 21
575.248
 31
9.1
  0
LINE
  5
A17
330
A02
100
AcDbEntity
  8
Mesh_cs001
100
AcDbLine
 10
389.49
 20
575.248
 30
9.1
 11
389.483
 21
575.086
 31
9.1
  0
LINE
  5
A18
330
A02
100
AcDbEntity
  8
Mesh_cs001
100
AcDbLine
 10
389.483
 20
575.086
 30
9.1
 11
389.275
 21
570.466
 31
9.1
  0
LINE
  5
A19
330
A02
100
AcDbEntity
  8
Mesh_cs001
100
AcDbLine
 10
389.275
 20
570.466
 30
9.1
 11
389.213
 21
569.284
 31
9.1
  0
LINE
  5
A1A
330
A02
100
AcDbEntity
  8
Mesh_cs001
100
AcDbLine
 10
389.213
 20
569.284
 30
9.1
 11
389.017
 21
565.584
 31
9.1
  0
LINE
  5
A1B
330
A02
100
AcDbEntity
  8
Mesh_cs001
100
AcDbLine
 10
389.017
 20
565.584
 30
9.1
 11
388.945
 21
564.403
 31
9.1
  0
LINE
  5
A1C
330
A02
100
AcDbEntity
  8
Mesh_cs001
100
AcDbLine
 10
388.945
 20
564.403
 30
9.1
 11
388.719
 21
560.705
 31
9.1
  0
LINE
  5
A1D
330
A02
100
AcDbEntity
  8
Mesh_cs001
100
AcDbLine
 10
388.719
 20
560.705
 30
9.1
 11
388.638
 21
559.524
 31
9.1
  0
LINE
  5
A1E
330
A02
100
AcDbEntity
  8
Mesh_cs001
100
AcDbLine
 10
388.638
 20
559.524
 30
9.1
 11
388.382
 21
555.828
 31
9.1
  0
LINE
  5
A1F
330
A02
100
AcDbEntity
  8
Mesh_cs001
100
AcDbLine
 10
388.382
 20
555.828
 30
9.1
 11
388.292
 21
554.648
 31
9.1
  0
LINE
  5
A20
330
A02
100
AcDbEntity
  8
Mesh_cs001
100
AcDbLine
 10
388.292
 20
554.648
 30
9.1
 11
388.007
 21
550.954
 31
9.1
  0
LINE
  5
A21
330
A02
100
AcDbEntity
  8
Mesh_cs001
100
AcDbLine
 10
388.007
 20
550.954
 30
9.1
 11
387.907
 21
549.774
 31
9.1
  0
LINE
  5
A22
330
A02
100
AcDbEntity
  8
Mesh_cs001
100
AcDbLine
 10
387.907
 20
549.774
 30
9.1
 11
387.591
 21
546.083
 31
9.1
  0
LINE
  5
A23
330
A02
100
AcDbEntity
  8
Mesh_cs001
100
AcDbLine
 10
387.591
 20
546.083
 30
9.1
 11
387.482
 21
544.904
 31
9.1
  0
LINE
  5
A24
330
A02
100
AcDbEntity
  8
Mesh_cs001
100
AcDbLine
 10
387.482
 20
544.904
 30
9.1
 11
387.137
 21
541.216
 31
9.1
  0
LINE
  5
A25
330
A02
100
AcDbEntity
  8
Mesh_cs001
100
AcDbLine
 10
387.137
 20
541.216
 30
9.1
 11
387.018
 21
540.038
 31
9.1
  0
LINE
  5
A26
330
A02
100
AcDbEntity
  8
Mesh_cs001
100
AcDbLine
 10
387.018
 20
540.038
 30
9.1
 11
386.644
 21
536.352
 31
9.1
  0
LINE
  5
A27
330
A02
100
AcDbEntity
  8
Mesh_cs001
100
AcDbLine
 10
386.644
 20
536.352
 30
9.1
 11
386.515
 21
535.176
 31
9.1
  0
LINE
  5
A28
330
A02
100
AcDbEntity
  8
Mesh_cs001
100
AcDbLine
 10
386.515
 20
535.176
 30
9.1
 11
386.111
 21
531.493
 31
9.1
  0
LINE
  5
A29
330
A02
100
AcDbEntity
  8
Mesh_cs001
100
AcDbLine
 10
386.111
 20
531.493
 30
9.1
 11
385.973
 21
530.317
 31
9.1
  0
LINE
  5
A2A
330
A02
100
AcDbEntity
  8
Mesh_cs001
100
AcDbLine
 10
385.973
 20
530.317
 30
9.1
 11
385.54
 21
526.638
 31
9.1
  0
LINE
  5
A2B
330
A02
100
AcDbEntity
  8
Mesh_cs001
100
AcDbLine
 10
385.54
 20
526.638
 30
9.1
 11
385.392
 21
525.463
 31
9.1
  0
LINE
  5
A2C
330
A02
100
AcDbEntity
  8
Mesh_cs001
100
AcDbLine
 10
385.392
 20
525.463
 30
9.1
 11
384.929
 21
521.788
 31
9.1
  0
LINE
  5
A2D
330
A02
100
AcDbEntity
  8
Mesh_cs001
100
AcDbLine
 10
384.929
 20
521.788
 30
9.1
 11
384.772
 21
520.615
 31
9.1
  0
LINE
  5
A2E
330
A02
100
AcDbEntity
  8
Mesh_cs001
100
AcDbLine
 10
384.772
 20
520.615
 30
9.1
 11
384.28
 21
516.943
 31
9.1
  0
LINE
  5
A2F
330
A02
100
AcDbEntity
  8
Mesh_cs001
100
AcDbLine
 10
384.28
 20
516.943
 30
9.1
 11
384.114
 21
515.771
 31
9.1
  0
LINE
  5
A30
330
A02
100
AcDbEntity
  8
Mesh_cs001
100
AcDbLine
 10
384.114
 20
515.771
 30
9.1
 11
383.591
 21
512.103
 31
9.1
  0
LINE
  5
A31
330
A02
100
AcDbEntity
  8
Mesh_cs001
100
AcDbLine
 10
383.591
 20
512.103
 30
9.1
 11
383.416
 21
510.932
 31
9.1
  0
LINE
  5
A32
330
A02
100
AcDbEntity
  8
Mesh_cs001
100
AcDbLine
 10
383.416
 20
510.932
 30
9.1
 11
382.864
 21
507.269
 31
9.1
  0
LINE
  5
A33
330
A02
100
AcDbEntity
  8
Mesh_cs001
100
AcDbLine
 10
382.864
 20
507.269
 30
9.1
 11
382.679
 21
506.1
 31
9.1
  0
LINE
  5
A34
330
A02
100
AcDbEntity
  8
Mesh_cs001
100
AcDbLine
 10
382.679
 20
506.1
 30
9.1
 11
382.098
 21
502.441
 31
9.1
  0
LINE
  5
A35
330
A02
100
AcDbEntity
  8
Mesh_cs001
100
AcDbLine
 10
382.098
 20
502.441
 30
9.1
 11
381.903
 21
501.273
 31
9.1
  0
LINE
  5
A36
330
A02
100
AcDbEntity
  8
Mesh_cs001
100
AcDbLine
 10
381.903
 20
501.273
 30
9.1
 11
381.293
 21
497.619
 31
9.1
  0
LINE
  5
A37
330
A02
100
AcDbEntity
  8
Mesh_cs001
100
AcDbLine
 10
381.293
 20
497.619
 30
9.1
 11
381.089
 21
496.453
 31
9.1
  0
LINE
  5
A38
330
A02
100
AcDbEntity
  8
Mesh_cs001
100
AcDbLine
 10
381.089
 20
496.453
 30
9.1
 11
380.449
 21
492.804
 31
9.1
  0
LINE
  5
A39
330
A02
100
AcDbEntity
  8
Mesh_cs001
100
AcDbLine
 10
380.449
 20
492.804
 30
9.1
 11
380.236
 21
491.64
 31
9.1
  0
LINE
  5
A3A
330
A02
100
AcDbEntity
  8
Mesh_cs001
100
AcDbLine
 10
380.236
 20
491.64
 30
9.1
 11
379.567
 21
487.996
 31
9.1
  0
LINE
  5
A3B
330
A02
100
AcDbEntity
  8
Mesh_cs001
100
AcDbLine
 10
379.567
 20
487.996
 30
9.1
 11
379.344
 21
486.833
 31
9.1
  0
LINE
  5
A3C
330
A02
100
AcDbEntity
  8
Mesh_cs001
100
AcDbLine
 10
379.344
 20
486.833
 30
9.1
 11
378.646
 21
483.195
 31
9.1
  0
LINE
  5
A3D
330
A02
100
AcDbEntity
  8
Mesh_cs001
100
AcDbLine
 10
378.646
 20
483.195
 30
9.1
 11
378.414
 21
482.034
 31
9.1
  0
LINE
  5
A3E
330
A02
100
AcDbEntity
  8
Mesh_cs001
100
AcDbLine
 10
378.414
 20
482.034
 30
9.1
 11
377.686
 21
478.401
 31
9.1
  0
LINE
  5
A3F
330
A02
100
AcDbEntity
  8
Mesh_cs001
100
AcDbLine
 10
377.686
 20
478.401
 30
9.1
 11
377.445
 21
477.243
 31
9.1
  0
LINE
  5
A40
330
A02
100
AcDbEntity
  8
Mesh_cs001
100
AcDbLine
 10
377.445
 20
477.243
 30
9.1
 11
376.688
 21
473.616
 31
9.1
  0
LINE
  5
A41
330
A02
100
AcDbEntity
  8
Mesh_cs001
100
AcDbLine
 10
376.688
 20
473.616
 30
9.1
 11
376.437
 21
472.459
 31
9.1
  0
LINE
  5
A42
330
A02
100
AcDbEntity
  8
Mesh_cs001
100
AcDbLine
 10
376.437
 20
472.459
 30
9.1
 11
375.652
 21
468.839
 31
9.1
  0
LINE
  5
A43
330
A02
100
AcDbEntity
  8
Mesh_cs001
100
AcDbLine
 10
375.652
 20
468.839
 30
9.1
 11
375.392
 21
467.684
 31
9.1
  0
LINE
  5
A44
330
A02
100
AcDbEntity
  8
Mesh_cs001
100
AcDbLine
 10
375.392
 20
467.684
 30
9.1
 11
374.577
 21
464.07
 31
9.1
  0
LINE
  5
A45
330
A02
100
AcDbEntity
  8
Mesh_cs001
100
AcDbLine
 10
374.577
 20
464.07
 30
9.1
 11
374.307
 21
462.917
 31
9.1
  0
LINE
  5
A46
330
A02
100
AcDbEntity
  8
Mesh_cs001
100
AcDbLine
 10
374.307
 20
462.917
 30
9.1
 11
373.464
 21
459.31
 31
9.1
  0
LINE
  5
A47
330
A02
100
AcDbEntity
  8
Mesh_cs001
100
AcDbLine
 10
373.464
 20
459.31
 30
9.1
 11
373.185
 21
458.159
 31
9.1
  0
LINE
  5
A48
330
A02
100
AcDbEntity
  8
Mesh_cs001
100
AcDbLine
 10
373.185
 20
458.159
 30
9.1
 11
372.312
 21
454.559
 31
9.1
  0
LINE
  5
A49
330
A02
100
AcDbEntity
  8
Mesh_cs001
100
AcDbLine
 10
372.312
 20
454.559
 30
9.1
 11
372.024
 21
453.411
 31
9.1
  0
LINE
  5
A4A
330
A02
100
AcDbEntity
  8
Mesh_cs001
100
AcDbLine
 10
372.024
 20
453.411
 30
9.1
 11
371.122
 21
449.817
 31
9.1
  0
LINE
  5
A4B
330
A02
100
AcDbEntity
  8
Mesh_cs001
100
AcDbLine
 10
371.122
 20
449.817
 30
9.1
 11
370.825
 21
448.672
 31
9.1
  0
LINE
  5
A4C
330
A02
100
AcDbEntity
  8
Mesh_cs001
100
AcDbLine
 10
370.825
 20
448.672
 30
9.1
 11
369.895
 21
445.086
 31
9.1
  0
LINE
  5
A4D
330
A02
100
AcDbEntity
  8
Mesh_cs001
100
AcDbLine
 10
369.895
 20
445.086
 30
9.1
 11
369.588
 21
443.942
 31
9.1
  0
LINE
  5
A4E
330
A02
100
AcDbEntity
  8
Mesh_cs001
100
AcDbLine
 10
369.588
 20
443.942
 30
9.1
 11
368.629
 21
440.364
 31
9.1
  0
LINE
  5
A4F
330
A02
100
AcDbEntity
  8
Mesh_cs001
100
AcDbLine
 10
368.629
 20
440.364
 30
9.1
 11
368.314
 21
439.223
 31
9.1
  0
LINE
  5
A50
330
A02
100
AcDbEntity
  8
Mesh_cs001
100
AcDbLine
 10
368.314
 20
439.223
 30
9.1
 11
367.325
 21
435.652
 31
9.1
  0
LINE
  5
A51
330
A02
100
AcDbEntity
  8
Mesh_cs001
100
AcDbLine
 10
367.325
 20
435.652
 30
9.1
 11
367.001
 21
434.514
 31
9.1
  0
LINE
  5
A52
330
A02
100
AcDbEntity
  8
Mesh_cs001
100
AcDbLine
 10
367.001
 20
434.514
 30
9.1
 11
365.984
 21
430.952
 31
9.1
  0
LINE
  5
A53
330
A02
100
AcDbEntity
  8
Mesh_cs001
100
AcDbLine
 10
365.984
 20
430.952
 30
9.1
 11
365.65
 21
429.816
 31
9.1
  0
LINE
  5
A54
330
A02
100
AcDbEntity
  8
Mesh_cs001
100
AcDbLine
 10
365.65
 20
429.816
 30
9.1
 11
364.605
 21
426.262
 31
9.1
  0
LINE
  5
A55
330
A02
100
AcDbEntity
  8
Mesh_cs001
100
AcDbLine
 10
364.605
 20
426.262
 30
9.1
 11
364.262
 21
425.129
 31
9.1
  0
LINE
  5
A56
330
A02
100
AcDbEntity
  8
Mesh_cs001
100
AcDbLine
 10
364.262
 20
425.129
 30
9.1
 11
363.188
 21
421.583
 31
9.1
  0
LINE
  5
A57
330
A02
100
AcDbEntity
  8
Mesh_cs001
100
AcDbLine
 10
363.188
 20
421.583
 30
9.1
 11
362.836
 21
420.453
 31
9.1
  0
LINE
  5
A58
330
A02
100
AcDbEntity
  8
Mesh_cs001
100
AcDbLine
 10
362.836
 20
420.453
 30
9.1
 11
361.733
 21
416.916
 31
9.1
  0
LINE
  5
A59
330
A02
100
AcDbEntity
  8
Mesh_cs001
100
AcDbLine
 10
361.733
 20
416.916
 30
9.1
 11
361.372
 21
415.789
 31
9.1
  0
LINE
  5
A5A
330
A02
100
AcDbEntity
  8
Mesh_cs001
100
AcDbLine
 10
361.372
 20
415.789
 30
9.1
 11
360.242
 21
412.261
 31
9.1
  0
LINE
  5
A5B
330
A02
100
AcDbEntity
  8
Mesh_cs001
100
AcDbLine
 10
360.242
 20
412.261
 30
9.1
 11
359.083
 21
408.742
 31
9.1
  0
LINE
  5
A5C
330
A02
100
AcDbEntity
  8
Mesh_cs001
100
AcDbLine
 10
359.083
 20
408.742
 30
9.1
 11
358.712
 21
407.618
 31
9.1
  0
LINE
  5
A5D
330
A02
100
AcDbEntity
  8
Mesh_cs001
100
AcDbLine
 10
358.712
 20
407.618
 30
9.1
 11
357.525
 21
404.108
 31
9.1
  0
LINE
  5
A5E
330
A02
100
AcDbEntity
  8
Mesh_cs001
100
AcDbLine
 10
357.525
 20
404.108
 30
9.1
 11
357.146
 21
402.987
 31
9.1
  0
LINE
  5
A5F
330
A02
100
AcDbEntity
  8
Mesh_cs001
100
AcDbLine
 10
357.146
 20
402.987
 30
9.1
 11
355.93
 21
399.487
 31
9.1
  0
LINE
  5
A60
330
A02
100
AcDbEntity
  8
Mesh_cs001
100
AcDbLine
 10
355.93
 20
399.487
 30
9.1
 11
355.542
 21
398.369
 31
9.1
  0
LINE
  5
A61
330
A02
100
AcDbEntity
  8
Mesh_cs001
100
AcDbLine
 10
355.542
 20
398.369
 30
9.1
 11
354.298
 21
394.879
 31
9.1
  0
LINE
  5
A62
330
A02
100
AcDbEntity
  8
Mesh_cs001
100
AcDbLine
 10
354.298
 20
394.879
 30
9.1
 11
353.901
 21
393.764
 31
9.1
  0
LINE
  5
A63
330
A02
100
AcDbEntity
  8
Mesh_cs001
100
AcDbLine
 10
353.901
 20
393.764
 30
9.1
 11
352.63
 21
390.285
 31
9.1
  0
LINE
  5
A64
330
A02
100
AcDbEntity
  8
Mesh_cs001
100
AcDbLine
 10
352.63
 20
390.285
 30
9.1
 11
352.223
 21
389.173
 31
9.1
  0
LINE
  5
A65
330
A02
100
AcDbEntity
  8
Mesh_cs001
100
AcDbLine
 10
352.223
 20
389.173
 30
9.1
 11
350.924
 21
385.703
 31
9.1
  0
LINE
  5
A66
330
A02
100
AcDbEntity
  8
Mesh_cs001
100
AcDbLine
 10
350.924
 20
385.703
 30
9.1
 11
350.509
 21
384.595
 31
9.1
  0
LINE
  5
A67
330
A02
100
AcDbEntity
  8
Mesh_cs001
100
AcDbLine
 10
350.509
 20
384.595
 30
9.1
 11
349.181
 21
381.136
 31
9.1
  0
LINE
  5
A68
330
A02
100
AcDbEntity
  8
Mesh_cs001
100
AcDbLine
 10
349.181
 20
381.136
 30
9.1
 11
348.757
 21
380.031
 31
9.1
  0
LINE
  5
A69
330
A02
100
AcDbEntity
  8
Mesh_cs001
100
AcDbLine
 10
348.757
 20
380.031
 30
9.1
 11
347.402
 21
376.583
 31
9.1
  0
LINE
  5
A6A
330
A02
100
AcDbEntity
  8
Mesh_cs001
100
AcDbLine
 10
347.402
 20
376.583
 30
9.1
 11
346.969
 21
375.481
 31
9.1
  0
LINE
  5
A6B
330
A02
100
AcDbEntity
  8
Mesh_cs001
100
AcDbLine
 10
346.969
 20
375.481
 30
9.1
 11
345.587
 21
372.044
 31
9.1
  0
LINE
  5
A6C
330
A02
100
AcDbEntity
  8
Mesh_cs001
100
AcDbLine
 10
345.587
 20
372.044
 30
9.1
 11
345.145
 21
370.946
 31
9.1
  0
LINE
  5
A6D
330
A02
100
AcDbEntity
  8
Mesh_cs001
100
AcDbLine
 10
345.145
 20
370.946
 30
9.1
 11
343.734
 21
367.52
 31
9.1
  0
LINE
  5
A6E
330
A02
100
AcDbEntity
  8
Mesh_cs001
100
AcDbLine
 10
343.734
 20
367.52
 30
9.1
 11
343.284
 21
366.426
 31
9.1
  0
LINE
  5
A6F
330
A02
100
AcDbEntity
  8
Mesh_cs001
100
AcDbLine
 10
343.284
 20
366.426
 30
9.1
 11
341.846
 21
363.011
 31
9.1
  0
LINE
  5
A70
330
A02
100
AcDbEntity
  8
Mesh_cs001
100
AcDbLine
 10
341.846
 20
363.011
 30
9.1
 11
341.386
 21
361.92
 31
9.1
  0
LINE
  5
A71
330
A02
100
AcDbEntity
  8
Mesh_cs001
100
AcDbLine
 10
341.386
 20
361.92
 30
9.1
 11
339.921
 21
358.518
 31
9.1
  0
LINE
  5
A72
330
A02
100
AcDbEntity
  8
Mesh_cs001
100
AcDbLine
 10
339.921
 20
358.518
 30
9.1
 11
339.453
 21
357.431
 31
9.1
  0
LINE
  5
A73
330
A02
100
AcDbEntity
  8
Mesh_cs001
100
AcDbLine
 10
339.453
 20
357.431
 30
9.1
 11
337.961
 21
354.04
 31
9.1
  0
LINE
  5
A74
330
A02
100
AcDbEntity
  8
Mesh_cs001
100
AcDbLine
 10
337.961
 20
354.04
 30
9.1
 11
337.483
 21
352.956
 31
9.1
  0
LINE
  5
A75
330
A02
100
AcDbEntity
  8
Mesh_cs001
100
AcDbLine
 10
337.483
 20
352.956
 30
9.1
 11
335.964
 21
349.578
 31
9.1
  0
LINE
  5
A76
330
A02
100
AcDbEntity
  8
Mesh_cs001
100
AcDbLine
 10
335.964
 20
349.578
 30
9.1
 11
335.478
 21
348.498
 31
9.1
  0
LINE
  5
A77
330
A02
100
AcDbEntity
  8
Mesh_cs001
100
AcDbLine
 10
335.478
 20
348.498
 30
9.1
 11
333.931
 21
345.132
 31
9.1
  0
LINE
  5
A78
330
A02
100
AcDbEntity
  8
Mesh_cs001
100
AcDbLine
 10
333.931
 20
345.132
 30
9.1
 11
333.437
 21
344.056
 31
9.1
  0
LINE
  5
A79
330
A02
100
AcDbEntity
  8
Mesh_cs001
100
AcDbLine
 10
333.437
 20
344.056
 30
9.1
 11
331.863
 21
340.702
 31
9.1
  0
LINE
  5
A7A
330
A02
100
AcDbEntity
  8
Mesh_cs001
100
AcDbLine
 10
331.863
 20
340.702
 30
9.1
 11
331.36
 21
339.631
 31
9.1
  0
LINE
  5
A7B
330
A02
100
AcDbEntity
  8
Mesh_cs001
100
AcDbLine
 10
331.36
 20
339.631
 30
9.1
 11
329.76
 21
336.29
 31
9.1
  0
LINE
  5
A7C
330
A02
100
AcDbEntity
  8
Mesh_cs001
100
AcDbLine
 10
329.76
 20
336.29
 30
9.1
 11
329.248
 21
335.222
 31
9.1
  0
LINE
  5
A7D
330
A02
100
AcDbEntity
  8
Mesh_cs001
100
AcDbLine
 10
329.248
 20
335.222
 30
9.1
 11
327.621
 21
331.894
 31
9.1
  0
LINE
  5
A7E
330
A02
100
AcDbEntity
  8
Mesh_cs001
100
AcDbLine
 10
327.621
 20
331.894
 30
9.1
 11
327.1
 21
330.831
 31
9.1
  0
LINE
  5
A7F
330
A02
100
AcDbEntity
  8
Mesh_cs001
100
AcDbLine
 10
327.1
 20
330.831
 30
9.1
 11
325.446
 21
327.516
 31
9.1
  0
LINE
  5
A80
330
A02
100
AcDbEntity
  8
Mesh_cs001
100
AcDbLine
 10
325.446
 20
327.516
 30
9.1
 11
324.917
 21
326.457
 31
9.1
  0
LINE
  5
A81
330
A02
100
AcDbEntity
  8
Mesh_cs001
100
AcDbLine
 10
324.917
 20
326.457
 30
9.1
 11
323.237
 21
323.155
 31
9.1
  0
LINE
  5
A82
330
A02
100
AcDbEntity
  8
Mesh_cs001
100
AcDbLine
 10
323.237
 20
323.155
 30
9.1
 11
322.699
 21
322.101
 31
9.1
  0
LINE
  5
A83
330
A02
100
AcDbEntity
  8
Mesh_cs001
100
AcDbLine
 10
322.699
 20
322.101
 30
9.1
 11
320.992
 21
318.813
 31
9.1
  0
LINE
  5
A84
330
A02
100
AcDbEntity
  8
Mesh_cs001
100
AcDbLine
 10
320.992
 20
318.813
 30
9.1
 11
320.446
 21
317.762
 31
9.1
  0
LINE
  5
A85
330
A02
100
AcDbEntity
  8
Mesh_cs001
100
AcDbLine
 10
320.446
 20
317.762
 30
9.1
 11
318.713
 21
314.488
 31
9.1
  0
LINE
  5
A86
330
A02
100
AcDbEntity
  8
Mesh_cs001
100
AcDbLine
 10
318.713
 20
314.488
 30
9.1
 11
318.159
 21
313.442
 31
9.1
  0
LINE
  5
A87
330
A02
100
AcDbEntity
  8
Mesh_cs001
100
AcDbLine
 10
318.159
 20
313.442
 30
9.1
 11
316.399
 21
310.182
 31
9.1
  0
LINE
  5
A88
330
A02
100
AcDbEntity
  8
Mesh_cs001
100
AcDbLine
 10
316.399
 20
310.182
 30
9.1
 11
315.836
 21
309.141
 31
9.1
  0
LINE
  5
A89
330
A02
100
AcDbEntity
  8
Mesh_cs001
100
AcDbLine
 10
315.836
 20
309.141
 30
9.1
 11
314.05
 21
305.895
 31
9.1
  0
LINE
  5
A8A
330
A02
100
AcDbEntity
  8
Mesh_cs001
100
AcDbLine
 10
314.05
 20
305.895
 30
9.1
 11
313.479
 21
304.858
 31
9.1
  0
LINE
  5
A8B
330
A02
100
AcDbEntity
  8
Mesh_cs001
100
AcDbLine
 10
313.479
 20
304.858
 30
9.1
 11
311.667
 21
301.626
 31
9.1
  0
LINE
  5
A8C
330
A02
100
AcDbEntity
  8
Mesh_cs001
100
AcDbLine
 10
311.667
 20
301.626
 30
9.1
 11
311.088
 21
300.594
 31
9.1
  0
LINE
  5
A8D
330
A02
100
AcDbEntity
  8
Mesh_cs001
100
AcDbLine
 10
311.088
 20
300.594
 30
9.1
 11
309.25
 21
297.377
 31
9.1
  0
LINE
  5
A8E
330
A02
100
AcDbEntity
  8
Mesh_cs001
100
AcDbLine
 10
309.25
 20
297.377
 30
9.1
 11
308.662
 21
296.35
 31
9.1
  0
LINE
  5
A8F
330
A02
100
AcDbEntity
  8
Mesh_cs001
100
AcDbLine
 10
308.662
 20
296.35
 30
9.1
 11
306.799
 21
293.148
 31
9.1
  0
LINE
  5
A90
330
A02
100
AcDbEntity
  8
Mesh_cs001
100
AcDbLine
 10
306.799
 20
293.148
 30
9.1
 11
306.203
 21
292.125
 31
9.1
  0
LINE
  5
A91
330
A02
100
AcDbEntity
  8
Mesh_cs001
100
AcDbLine
 10
306.203
 20
292.125
 30
9.1
 11
304.314
 21
288.938
 31
9.1
  0
LINE
  5
A92
330
A02
100
AcDbEntity
  8
Mesh_cs001
100
AcDbLine
 10
304.314
 20
288.938
 30
9.1
 11
303.709
 21
287.921
 31
9.1
  0
LINE
  5
A93
330
A02
100
AcDbEntity
  8
Mesh_cs001
100
AcDbLine
 10
303.709
 20
287.921
 30
9.1
 11
301.795
 21
284.749
 31
9.1
  0
LINE
  5
A94
330
A02
100
AcDbEntity
  8
Mesh_cs001
100
AcDbLine
 10
301.795
 20
284.749
 30
9.1
 11
301.182
 21
283.736
 31
9.1
  0
LINE
  5
A95
330
A02
100
AcDbEntity
  8
Mesh_cs001
100
AcDbLine
 10
301.182
 20
283.736
 30
9.1
 11
299.242
 21
280.58
 31
9.1
  0
LINE
  5
A96
330
A02
100
AcDbEntity
  8
Mesh_cs001
100
AcDbLine
 10
299.242
 20
280.58
 30
9.1
 11
298.622
 21
279.572
 31
9.1
  0
LINE
  5
A97
330
A02
100
AcDbEntity
  8
Mesh_cs001
100
AcDbLine
 10
298.622
 20
279.572
 30
9.1
 11
296.656
 21
276.431
 31
9.1
  0
LINE
  5
A98
330
A02
100
AcDbEntity
  8
Mesh_cs001
100
AcDbLine
 10
296.656
 20
276.431
 30
9.1
 11
296.027
 21
275.428
 31
9.1
  0
LINE
  5
A99
330
A02
100
AcDbEntity
  8
Mesh_cs001
100
AcDbLine
 10
296.027
 20
275.428
 30
9.1
 11
294.037
 21
272.304
 31
9.1
  0
LINE
  5
A9A
330
A02
100
AcDbEntity
  8
Mesh_cs001
100
AcDbLine
 10
294.037
 20
272.304
 30
9.1
 11
293.4
 21
271.306
 31
9.1
  0
LINE
  5
A9B
330
A02
100
AcDbEntity
  8
Mesh_cs001
100
AcDbLine
 10
293.4
 20
271.306
 30
9.1
 11
291.384
 21
268.198
 31
9.1
  0
LINE
  5
A9C
330
A02
100
AcDbEntity
  8
Mesh_cs001
100
AcDbLine
 10
291.384
 20
268.198
 30
9.1
 11
290.74
 21
267.205
 31
9.1
  0
LINE
  5
A9D
330
A02
100
AcDbEntity
  8
Mesh_cs001
100
AcDbLine
 10
290.74
 20
267.205
 30
9.1
 11
288.192
 21
263.345
 31
9.1
  0
LINE
  5
A9E
330
A02
100
AcDbEntity
  8
Mesh_cs001
100
AcDbLine
 10
288.192
 20
263.345
 30
9.1
 11
288.102
 21
263.209
 31
9.1
  0
LINE
  5
A9F
330
A02
100
AcDbEntity
  8
Mesh_cs001
100
AcDbLine
 10
288.102
 20
263.209
 30
9.1
 11
287.579
 21
263.589
 31
9.1
  0
LINE
  5
AA0
330
A02
100
AcDbEntity
  8
Mesh_cs001
100
AcDbLine
 10
287.579
 20
263.589
 30
9.1
 11
272.416
 21
274.607
 31
9.1
  0
LINE
  5
AA1
330
A02
100
AcDbEntity
  8
Mesh_cs001
100
AcDbLine
 10
272.416
 20
274.607
 30
9.1
 11
272.149
 21
274.787
 31
9.1
  0
LINE
  5
AA2
330
A02
100
AcDbEntity
  8
Mesh_cs001
100
AcDbLine
 10
272.149
 20
274.787
 30
9.1
 11
272.138
 21
274.794
 31
9.1
  0
LINE
  5
AA3
330
A02
100
AcDbEntity
  8
Mesh_cs001
100
AcDbLine
 10
272.138
 20
274.794
 30
9.1
 11
271.852
 21
274.961
 31
9.1
  0
LINE
  5
AA4
330
A02
100
AcDbEntity
  8
Mesh_cs001
100
AcDbLine
 10
271.852
 20
274.961
 30
9.1
 11
271.84
 21
274.967
 31
9.1
  0
LINE
  5
AA5
330
A02
100
AcDbEntity
  8
Mesh_cs001
100
AcDbLine
 10
271.84
 20
274.967
 30
9.1
 11
271.456
 21
275.152
 31
9.1
  0
LINE
  5
AA6
330
A02
100
AcDbEntity
  8
Mesh_cs001
100
AcDbLine
 10
271.456
 20
275.152
 30
9.1
 11
271.445
 21
275.158
 31
9.1
  0
LINE
  5
AA7
330
A02
100
AcDbEntity
  8
Mesh_cs001
100
AcDbLine
 10
271.445
 20
275.158
 30
9.1
 11
271.046
 21
275.308
 31
9.1
  0
LINE
  5
AA8
330
A02
100
AcDbEntity
  8
Mesh_cs001
100
AcDbLine
 10
271.046
 20
275.308
 30
9.1
 11
271.033
 21
275.313
 31
9.1
  0
LINE
  5
AA9
330
A02
100
AcDbEntity
  8
Mesh_cs001
100
AcDbLine
 10
271.033
 20
275.313
 30
9.1
 11
271.02
 21
275.317
 31
9.1
  0
LINE
  5
AAA
330
A02
100
AcDbEntity
  8
Mesh_cs001
100
AcDbLine
 10
271.02
 20
275.317
 30
9.1
 11
270.608
 21
275.432
 31
9.1
  0
LINE
  5
AAB
330
A02
100
AcDbEntity
  8
Mesh_cs001
100
AcDbLine
 10
270.608
 20
275.432
 30
9.1
 11
270.594
 21
275.434
 31
9.1
  0
LINE
  5
AAC
330
A02
100
AcDbEntity
  8
Mesh_cs001
100
AcDbLine
 10
270.594
 20
275.434
 30
9.1
 11
270.173
 21
275.513
 31
9.1
  0
LINE
  5
AAD
330
A02
100
AcDbEntity
  8
Mesh_cs001
100
AcDbLine
 10
270.173
 20
275.513
 30
9.1
 11
270.159
 21
275.514
 31
9.1
  0
LINE
  5
AAE
330
A02
100
AcDbEntity
  8
Mesh_cs001
100
AcDbLine
 10
270.159
 20
275.514
 30
9.1
 11
269.731
 21
275.555
 31
9.1
  0
LINE
  5
AAF
330
A02
100
AcDbEntity
  8
Mesh_cs001
100
AcDbLine
 10
269.731
 20
275.555
 30
9.1
 11
269.718
 21
275.555
 31
9.1
  0
LINE
  5
AB0
330
A02
100
AcDbEntity
  8
Mesh_cs001
100
AcDbLine
 10
269.718
 20
275.555
 30
9.1
 11
269.287
 21
275.558
 31
9.1
  0
LINE
  5
AB1
330
A02
100
AcDbEntity
  8
Mesh_cs001
100
AcDbLine
 10
269.287
 20
275.558
 30
9.1
 11
269.274
 21
275.557
 31
9.1
  0
LINE
  5
AB2
330
A02
100
AcDbEntity
  8
Mesh_cs001
100
AcDbLine
 10
269.274
 20
275.557
 30
9.1
 11
268.844
 21
275.521
 31
9.1
  0
LINE
  5
AB3
330
A02
100
AcDbEntity
  8
Mesh_cs001
100
AcDbLine
 10
268.844
 20
275.521
 30
9.1
 11
268.829
 21
275.519
 31
9.1
  0
LINE
  5
AB4
330
A02
100
AcDbEntity
  8
Mesh_cs001
100
AcDbLine
 10
268.829
 20
275.519
 30
9.1
 11
268.445
 21
275.454
 31
9.1
  0
LINE
  5
AB5
330
A02
100
AcDbEntity
  8
Mesh_cs001
100
AcDbLine
 10
268.445
 20
275.454
 30
9.1
 11
268.431
 21
275.451
 31
9.1
  0
LINE
  5
AB6
330
A02
100
AcDbEntity
  8
Mesh_cs001
100
AcDbLine
 10
268.431
 20
275.451
 30
9.1
 11
268.053
 21
275.354
 31
9.1
  0
LINE
  5
AB7
330
A02
100
AcDbEntity
  8
Mesh_cs001
100
AcDbLine
 10
268.053
 20
275.354
 30
9.1
 11
268.039
 21
275.35
 31
9.1
  0
LINE
  5
AB8
330
A02
100
AcDbEntity
  8
Mesh_cs001
100
AcDbLine
 10
268.039
 20
275.35
 30
9.1
 11
267.669
 21
275.223
 31
9.1
  0
LINE
  5
AB9
330
A02
100
AcDbEntity
  8
Mesh_cs001
100
AcDbLine
 10
267.669
 20
275.223
 30
9.1
 11
267.656
 21
275.218
 31
9.1
  0
LINE
  5
ABA
330
A02
100
AcDbEntity
  8
Mesh_cs001
100
AcDbLine
 10
267.656
 20
275.218
 30
9.1
 11
267.297
 21
275.061
 31
9.1
  0
LINE
  5
ABB
330
A02
100
AcDbEntity
  8
Mesh_cs001
100
AcDbLine
 10
267.297
 20
275.061
 30
9.1
 11
266.952
 21
274.876
 31
9.1
  0
LINE
  5
ABC
330
A02
100
AcDbEntity
  8
Mesh_cs001
100
AcDbLine
 10
266.952
 20
274.876
 30
9.1
 11
266.939
 21
274.869
 31
9.1
  0
LINE
  5
ABD
330
A02
100
AcDbEntity
  8
Mesh_cs001
100
AcDbLine
 10
266.939
 20
274.869
 30
9.1
 11
266.609
 21
274.657
 31
9.1
  0
LINE
  5
ABE
330
A02
100
AcDbEntity
  8
Mesh_cs001
100
AcDbLine
 10
266.609
 20
274.657
 30
9.1
 11
266.596
 21
274.649
 31
9.1
  0
LINE
  5
ABF
330
A02
100
AcDbEntity
  8
Mesh_cs001
100
AcDbLine
 10
266.596
 20
274.649
 30
9.1
 11
266.285
 21
274.409
 31
9.1
  0
LINE
  5
AC0
330
A02
100
AcDbEntity
  8
Mesh_cs001
100
AcDbLine
 10
266.285
 20
274.409
 30
9.1
 11
266.273
 21
274.4
 31
9.1
  0
LINE
  5
AC1
330
A02
100
AcDbEntity
  8
Mesh_cs001
100
AcDbLine
 10
266.273
 20
274.4
 30
9.1
 11
265.981
 21
274.136
 31
9.1
  0
LINE
  5
AC2
330
A02
100
AcDbEntity
  8
Mesh_cs001
100
AcDbLine
 10
265.981
 20
274.136
 30
9.1
 11
265.97
 21
274.126
 31
9.1
  0
LINE
  5
AC3
330
A02
100
AcDbEntity
  8
Mesh_cs001
100
AcDbLine
 10
265.97
 20
274.126
 30
9.1
 11
265.692
 21
273.828
 31
9.1
  0
LINE
  5
AC4
330
A02
100
AcDbEntity
  8
Mesh_cs001
100
AcDbLine
 10
265.692
 20
273.828
 30
9.1
 11
265.684
 21
273.819
 31
9.1
  0
LINE
  5
AC5
330
A02
100
AcDbEntity
  8
Mesh_cs001
100
AcDbLine
 10
265.684
 20
273.819
 30
9.1
 11
265.439
 21
273.509
 31
9.1
  0
LINE
  5
AC6
330
A02
100
AcDbEntity
  8
Mesh_cs001
100
AcDbLine
 10
265.439
 20
273.509
 30
9.1
 11
265.042
 21
272.964
 31
9.1
  0
LINE
  5
AC7
330
A02
100
AcDbEntity
  8
Mesh_cs001
100
AcDbLine
 10
265.042
 20
272.964
 30
9.1
 11
253.735
 21
257.401
 31
9.1
  0
LINE
  5
AC8
330
A02
100
AcDbEntity
  8
Mesh_cs001
100
AcDbLine
 10
253.735
 20
257.401
 30
9.1
 11
251.506
 21
259.02
 31
9.1
  0
LINE
  5
AC9
330
A02
100
AcDbEntity
  8
Mesh_cs001
100
AcDbLine
 10
251.506
 20
259.02
 30
9.1
 11
206.712
 21
291.565
 31
9.1
  0
LINE
  5
ACA
330
A02
100
AcDbEntity
  8
Mesh_cs001
100
AcDbLine
 10
206.712
 20
291.565
 30
9.1
 11
195
 21
300.074
 31
9.1
  0
LINE
  5
ACB
330
A02
100
AcDbEntity
  8
Mesh_cs001
100
AcDbLine
 10
195
 20
300.074
 30
9.1
 11
195
 21
325.594
 31
9.1
  0
LINE
  5
ACC
330
A02
100
AcDbEntity
  8
Mesh_cs001
100
AcDbLine
 10
195
 20
325.594
 30
9.1
 11
195
 21
373.124
 31
9.1
  0
LINE
  5
ACD
330
A02
100
AcDbEntity
  8
Mesh_cs001
100
AcDbLine
 10
195
 20
373.124
 30
9.1
 11
195
 21
563.032
 31
9.1
  0
LINE
  5
ACE
330
A02
100
AcDbEntity
  8
Mesh_cs001
100
AcDbLine
 10
195
 20
563.032
 30
9.1
 11
195
 21
575.248
 31
9.1
  0
LINE
  5
ACF
330
A02
100
AcDbEntity
  8
Mesh_cs001
100
AcDbLine
 10
195
 20
575.248
 30
9.1
 11
195.663
 21
575.248
 31
9.1
  0
LINE
  5
AD0
330
A02
100
AcDbEntity
  8
Mesh_cs001
100
AcDbLine
 10
195.663
 20
575.248
 30
9.1
 11
214.9
 21
575.248
 31
9.1
  0
LINE
  5
AD1
330
A02
100
AcDbEntity
  8
Mesh_cs001
100
AcDbLine
 10
214.9
 20
575.248
 30
9.1
 11
215.222
 21
575.259
 31
9.1
  0
LINE
  5
AD2
330
A02
100
AcDbEntity
  8
Mesh_cs001
100
AcDbLine
 10
215.222
 20
575.259
 30
9.1
 11
215.235
 21
575.26
 31
9.1
  0
LINE
  5
AD3
330
A02
100
AcDbEntity
  8
Mesh_cs001
100
AcDbLine
 10
215.235
 20
575.26
 30
9.1
 11
215.564
 21
575.293
 31
9.1
  0
LINE
  5
AD4
330
A02
100
AcDbEntity
  8
Mesh_cs001
100
AcDbLine
 10
215.564
 20
575.293
 30
9.1
 11
215.577
 21
575.294
 31
9.1
  0
LINE
  5
AD5
330
A02
100
AcDbEntity
  8
Mesh_cs001
100
AcDbLine
 10
215.577
 20
575.294
 30
9.1
 11
215.997
 21
575.37
 31
9.1
  0
LINE
  5
AD6
330
A02
100
AcDbEntity
  8
Mesh_cs001
100
AcDbLine
 10
215.997
 20
575.37
 30
9.1
 11
216.009
 21
575.373
 31
9.1
  0
LINE
  5
AD7
330
A02
100
AcDbEntity
  8
Mesh_cs001
100
AcDbLine
 10
216.009
 20
575.373
 30
9.1
 11
216.421
 21
575.486
 31
9.1
  0
LINE
  5
AD8
330
A02
100
AcDbEntity
  8
Mesh_cs001
100
AcDbLine
 10
216.421
 20
575.486
 30
9.1
 11
216.434
 21
575.489
 31
9.1
  0
LINE
  5
AD9
330
A02
100
AcDbEntity
  8
Mesh_cs001
100
AcDbLine
 10
216.434
 20
575.489
 30
9.1
 11
216.446
 21
575.494
 31
9.1
  0
LINE
  5
ADA
330
A02
100
AcDbEntity
  8
Mesh_cs001
100
AcDbLine
 10
216.446
 20
575.494
 30
9.1
 11
216.848
 21
575.643
 31
9.1
  0
LINE
  5
ADB
330
A02
100
AcDbEntity
  8
Mesh_cs001
100
AcDbLine
 10
216.848
 20
575.643
 30
9.1
 11
216.86
 21
575.649
 31
9.1
  0
LINE
  5
ADC
330
A02
100
AcDbEntity
  8
Mesh_cs001
100
AcDbLine
 10
216.86
 20
575.649
 30
9.1
 11
217.247
 21
575.833
 31
9.1
  0
LINE
  5
ADD
330
A02
100
AcDbEntity
  8
Mesh_cs001
100
AcDbLine
 10
217.247
 20
575.833
 30
9.1
 11
217.259
 21
575.84
 31
9.1
  0
LINE
  5
ADE
330
A02
100
AcDbEntity
  8
Mesh_cs001
100
AcDbLine
 10
217.259
 20
575.84
 30
9.1
 11
217.629
 21
576.059
 31
9.1
  0
LINE
  5
ADF
330
A02
100
AcDbEntity
  8
Mesh_cs001
100
AcDbLine
 10
217.629
 20
576.059
 30
9.1
 11
217.64
 21
576.066
 31
9.1
  0
LINE
  5
AE0
330
A02
100
AcDbEntity
  8
Mesh_cs001
100
AcDbLine
 10
217.64
 20
576.066
 30
9.1
 11
217.99
 21
576.318
 31
9.1
  0
LINE
  5
AE1
330
A02
100
AcDbEntity
  8
Mesh_cs001
100
AcDbLine
 10
217.99
 20
576.318
 30
9.1
 11
218
 21
576.326
 31
9.1
  0
LINE
  5
AE2
330
A02
100
AcDbEntity
  8
Mesh_cs001
100
AcDbLine
 10
218
 20
576.326
 30
9.1
 11
218.327
 21
576.608
 31
9.1
  0
LINE
  5
AE3
330
A02
100
AcDbEntity
  8
Mesh_cs001
100
AcDbLine
 10
218.327
 20
576.608
 30
9.1
 11
218.338
 21
576.618
 31
9.1
  0
LINE
  5
AE4
330
A02
100
AcDbEntity
  8
Mesh_cs001
100
AcDbLine
 10
218.338
 20
576.618
 30
9.1
 11
218.61
 21
576.896
 31
9.1
  0
LINE
  5
AE5
330
A02
100
AcDbEntity
  8
Mesh_cs001
100
AcDbLine
 10
218.61
 20
576.896
 30
9.1
 11
218.62
 21
576.908
 31
9.1
  0
LINE
  5
AE6
330
A02
100
AcDbEntity
  8
Mesh_cs001
100
AcDbLine
 10
218.62
 20
576.908
 30
9.1
 11
218.869
 21
577.207
 31
9.1
  0
LINE
  5
AE7
330
A02
100
AcDbEntity
  8
Mesh_cs001
100
AcDbLine
 10
218.869
 20
577.207
 30
9.1
 11
218.878
 21
577.219
 31
9.1
  0
LINE
  5
AE8
330
A02
100
AcDbEntity
  8
Mesh_cs001
100
AcDbLine
 10
218.878
 20
577.219
 30
9.1
 11
219.102
 21
577.539
 31
9.1
  0
LINE
  5
AE9
330
A02
100
AcDbEntity
  8
Mesh_cs001
100
AcDbLine
 10
219.102
 20
577.539
 30
9.1
 11
219.11
 21
577.552
 31
9.1
  0
LINE
  5
AEA
330
A02
100
AcDbEntity
  8
Mesh_cs001
100
AcDbLine
 10
219.11
 20
577.552
 30
9.1
 11
219.308
 21
577.889
 31
9.1
  0
LINE
  5
AEB
330
A02
100
AcDbEntity
  8
Mesh_cs001
100
AcDbLine
 10
219.308
 20
577.889
 30
9.1
 11
219.479
 21
578.241
 31
9.1
  0
LINE
  5
AEC
330
A02
100
AcDbEntity
  8
Mesh_cs001
100
AcDbLine
 10
219.479
 20
578.241
 30
9.1
 11
219.485
 21
578.255
 31
9.1
  0
LINE
  5
AED
330
A02
100
AcDbEntity
  8
Mesh_cs001
100
AcDbLine
 10
219.485
 20
578.255
 30
9.1
 11
219.627
 21
578.621
 31
9.1
  0
LINE
  5
AEE
330
A02
100
AcDbEntity
  8
Mesh_cs001
100
AcDbLine
 10
219.627
 20
578.621
 30
9.1
 11
219.632
 21
578.635
 31
9.1
  0
LINE
  5
AEF
330
A02
100
AcDbEntity
  8
Mesh_cs001
100
AcDbLine
 10
219.632
 20
578.635
 30
9.1
 11
219.744
 21
579.012
 31
9.1
  0
LINE
  5
AF0
330
A02
100
AcDbEntity
  8
Mesh_cs001
100
AcDbLine
 10
219.744
 20
579.012
 30
9.1
 11
219.748
 21
579.026
 31
9.1
  0
LINE
  5
AF1
330
A02
100
AcDbEntity
  8
Mesh_cs001
100
AcDbLine
 10
219.748
 20
579.026
 30
9.1
 11
219.829
 21
579.411
 31
9.1
  0
LINE
  5
AF2
330
A02
100
AcDbEntity
  8
Mesh_cs001
100
AcDbLine
 10
219.829
 20
579.411
 30
9.1
 11
219.832
 21
579.426
 31
9.1
  0
LINE
  5
AF3
330
A02
100
AcDbEntity
  8
Mesh_cs001
100
AcDbLine
 10
219.832
 20
579.426
 30
9.1
 11
219.882
 21
579.83
 31
9.1
  0
LINE
  5
AF4
330
A02
100
AcDbEntity
  8
Mesh_cs001
100
AcDbLine
 10
219.882
 20
579.83
 30
9.1
 11
219.883
 21
579.842
 31
9.1
  0
LINE
  5
AF5
330
A02
100
AcDbEntity
  8
Mesh_cs001
100
AcDbLine
 10
219.883
 20
579.842
 30
9.1
 11
219.9
 21
580.237
 31
9.1
  0
LINE
  5
AF6
330
A02
100
AcDbEntity
  8
Mesh_cs001
100
AcDbLine
 10
219.9
 20
580.237
 30
9.1
 11
219.9
 21
580.248
 31
9.1
  0
LINE
  5
AF7
330
A02
100
AcDbEntity
  8
Mesh_cs001
100
AcDbLine
 10
219.9
 20
580.248
 30
9.1
 11
219.9
 21
580.912
 31
9.1
  0
LINE
  5
AF8
330
A02
100
AcDbEntity
  8
Mesh_cs001
100
AcDbLine
 10
219.9
 20
580.912
 30
9.1
 11
219.9
 21
600.148
 31
9.1
  0
LINE
  5
AF9
330
A02
100
AcDbEntity
  8
Mesh_cs001
100
AcDbLine
 10
219.9
 20
600.148
 30
9.1
 11
222.655
 21
600.148
 31
9.1
  0
LINE
  5
AFA
330
A02
100
AcDbEntity
  8
Mesh_cs001
100
AcDbLine
 10
222.655
 20
600.148
 30
9.1
 11
294.864
 21
600.148
 31
9.1
  0
LINE
  5
AFB
330
A02
100
AcDbEntity
  8
Mesh_cs001
100
AcDbLine
 10
294.864
 20
600.148
 30
9.1
 11
323.818
 21
600.148
 31
9.1
  0
LINE
  5
AFC
330
A02
100
AcDbEntity
  8
Mesh_cs001
100
AcDbLine
 10
323.818
 20
600.148
 30
9.1
 11
362.345
 21
600.148
 31
9.1
  0
LINE
  5
AFD
330
A02
100
AcDbEntity
  8
Mesh_cs001
100
AcDbLine
 10
362.345
 20
600.148
 30
9.1
 11
365.1
 21
600.148
 31
9.1
  0
LINE
  5
AFE
330
A02
100
AcDbEntity
  8
Mesh_cs001
100
AcDbLine
 10
365.1
 20
600.148
 30
9.1
 11
365.1
 21
580.912
 31
9.1
  0
LINE
  5
AFF
330
A02
100
AcDbEntity
  8
Mesh_cs001
100
AcDbLine
 10
365.1
 20
580.912
 30
9.1
 11
365.1
 21
580.248
 31
9.1
  0
LINE
  5
B00
330
A02
100
AcDbEntity
  8
Mesh_cs001
100
AcDbLine
 10
365.1
 20
580.248
 30
9.1
 11
365.117
 21
579.842
 31
9.1
  0
LINE
  5
B01
330
A02
100
AcDbEntity
  8
Mesh_cs001
100
AcDbLine
 10
365.117
 20
579.842
 30
9.1
 11
365.118
 21
579.83
 31
9.1
  0
LINE
  5
B02
330
A02
100
AcDbEntity
  8
Mesh_cs001
100
AcDbLine
 10
365.118
 20
579.83
 30
9.1
 11
365.168
 21
579.426
 31
9.1
  0
LINE
  5
B03
330
A02
100
AcDbEntity
  8
Mesh_cs001
100
AcDbLine
 10
365.168
 20
579.426
 30
9.1
 11
365.171
 21
579.411
 31
9.1
  0
LINE
  5
B04
330
A02
100
AcDbEntity
  8
Mesh_cs001
100
AcDbLine
 10
365.171
 20
579.411
 30
9.1
 11
365.252
 21
579.026
 31
9.1
  0
LINE
  5
B05
330
A02
100
AcDbEntity
  8
Mesh_cs001
100
AcDbLine
 10
365.252
 20
579.026
 30
9.1
 11
365.256
 21
579.012
 31
9.1
  0
LINE
  5
B06
330
A02
100
AcDbEntity
  8
Mesh_cs001
100
AcDbLine
 10
365.256
 20
579.012
 30
9.1
 11
365.368
 21
578.635
 31
9.1
  0
LINE
  5
B07
330
A02
100
AcDbEntity
  8
Mesh_cs001
100
AcDbLine
 10
365.368
 20
578.635
 30
9.1
 11
365.373
 21
578.621
 31
9.1
  0
LINE
  5
B08
330
A02
100
AcDbEntity
  8
Mesh_cs001
100
AcDbLine
 10
365.373
 20
578.621
 30
9.1
 11
365.515
 21
578.255
 31
9.1
  0
LINE
  5
B09
330
A02
100
AcDbEntity
  8
Mesh_cs001
100
AcDbLine
 10
365.515
 20
578.255
 30
9.1
 11
365.521
 21
578.241
 31
9.1
  0
LINE
  5
B0A
330
A02
100
AcDbEntity
  8
Mesh_cs001
100
AcDbLine
 10
365.521
 20
578.241
 30
9.1
 11
365.692
 21
577.889
 31
9.1
  0
LINE
  5
B0B
330
A02
100
AcDbEntity
  8
Mesh_cs001
100
AcDbLine
 10
365.692
 20
577.889
 30
9.1
 11
365.89
 21
577.552
 31
9.1
  0
LINE
  5
B0C
330
A02
100
AcDbEntity
  8
Mesh_cs001
100
AcDbLine
 10
365.89
 20
577.552
 30
9.1
 11
365.898
 21
577.539
 31
9.1
  0
LINE
  5
B0D
330
A02
100
AcDbEntity
  8
Mesh_cs001
100
AcDbLine
 10
365.898
 20
577.539
 30
9.1
 11
366.122
 21
577.219
 31
9.1
  0
LINE
  5
B0E
330
A02
100
AcDbEntity
  8
Mesh_cs001
100
AcDbLine
 10
366.122
 20
577.219
 30
9.1
 11
366.131
 21
577.207
 31
9.1
  0
LINE
  5
B0F
330
A02
100
AcDbEntity
  8
Mesh_cs001
100
AcDbLine
 10
366.131
 20
577.207
 30
9.1
 11
366.38
 21
576.908
 31
9.1
  0
LINE
  5
B10
330
A02
100
AcDbEntity
  8
Mesh_cs001
100
AcDbLine
 10
366.38
 20
576.908
 30
9.1
 11
366.39
 21
576.896
 31
9.1
  0
LINE
  5
B11
330
A02
100
AcDbEntity
  8
Mesh_cs001
100
AcDbLine
 10
366.39
 20
576.896
 30
9.1
 11
366.662
 21
576.618
 31
9.1
  0
LINE
  5
B12
330
A02
100
AcDbEntity
  8
Mesh_cs001
100
AcDbLine
 10
366.662
 20
576.618
 30
9.1
 11
366.673
 21
576.608
 31
9.1
  0
LINE
  5
B13
330
A02
100
AcDbEntity
  8
Mesh_cs001
100
AcDbLine
 10
366.673
 20
576.608
 30
9.1
 11
367
 21
576.326
 31
9.1
  0
LINE
  5
B14
330
A02
100
AcDbEntity
  8
Mesh_cs001
100
AcDbLine
 10
367
 20
576.326
 30
9.1
 11
367.01
 21
576.318
 31
9.1
  0
LINE
  5
B15
330
A02
100
AcDbEntity
  8
Mesh_cs001
100
AcDbLine
 10
367.01
 20
576.318
 30
9.1
 11
367.36
 21
576.066
 31
9.1
  0
LINE
  5
B16
330
A02
100
AcDbEntity
  8
Mesh_cs001
100
AcDbLine
 10
367.36
 20
576.066
 30
9.1
 11
367.371
 21
576.059
 31
9.1
  0
LINE
  5
B17
330
A02
100
AcDbEntity
  8
Mesh_cs001
100
AcDbLine
 10
367.371
 20
576.059
 30
9.1
 11
367.741
 21
575.84
 31
9.1
  0
LINE
  5
B18
330
A02
100
AcDbEntity
  8
Mesh_cs001
100
AcDbLine
 10
367.741
 20
575.84
 30
9.1
 11
368.14
 21
575.649
 31
9.1
  0
LINE
  5
B19
330
A02
100
AcDbEntity
  8
Mesh_cs001
100
AcDbLine
 10
368.14
 20
575.649
 30
9.1
 11
368.152
 21
575.643
 31
9.1
  0
LINE
  5
B1A
330
A02
100
AcDbEntity
  8
Mesh_cs001
100
AcDbLine
 10
368.152
 20
575.643
 30
9.1
 11
368.554
 21
575.494
 31
9.1
  0
LINE
  5
B1B
330
A02
100
AcDbEntity
  8
Mesh_cs001
100
AcDbLine
 10
368.554
 20
575.494
 30
9.1
 11
368.579
 21
575.486
 31
9.1
  0
LINE
  5
B1C
330
A02
100
AcDbEntity
  8
Mesh_cs001
100
AcDbLine
 10
368.579
 20
575.486
 30
9.1
 11
368.991
 21
575.373
 31
9.1
  0
LINE
  5
B1D
330
A02
100
AcDbEntity
  8
Mesh_cs001
100
AcDbLine
 10
368.991
 20
575.373
 30
9.1
 11
369.423
 21
575.294
 31
9.1
  0
LINE
  5
B1E
330
A02
100
AcDbEntity
  8
Mesh_cs001
100
AcDbLine
 10
369.423
 20
575.294
 30
9.1
 11
369.765
 21
575.26
 31
9.1
  0
LINE
  5
B1F
330
A02
100
AcDbEntity
  8
Mesh_cs001
100
AcDbLine
 10
369.765
 20
575.26
 30
9.1
 11
370.1
 21
575.248
 31
9.1
  0
LINE
  5
B20
330
A02
100
AcDbEntity
  8
Mesh_cs001
100
AcDbLine
 10
390
 20
600.148
 30
9.1
 11
389.991
 21
597.323
 31
9.1
  0
LINE
  5
B21
330
A02
100
AcDbEntity
  8
Mesh_cs001
100
AcDbLine
 10
389.991
 20
597.323
 30
9.1
 11
389.987
 21
596.14
 31
9.1
  0
LINE
  5
B22
330
A02
100
AcDbEntity
  8
Mesh_cs001
100
AcDbLine
 10
389.987
 20
596.14
 30
9.1
 11
389.961
 21
593.315
 31
9.1
  0
LINE
  5
B23
330
A02
100
AcDbEntity
  8
Mesh_cs001
100
AcDbLine
 10
389.961
 20
593.315
 30
9.1
 11
389.946
 21
592.131
 31
9.1
  0
LINE
  5
B24
330
A02
100
AcDbEntity
  8
Mesh_cs001
100
AcDbLine
 10
389.946
 20
592.131
 30
9.1
 11
389.903
 21
589.306
 31
9.1
  0
LINE
  5
B25
330
A02
100
AcDbEntity
  8
Mesh_cs001
100
AcDbLine
 10
389.903
 20
589.306
 30
9.1
 11
389.82
 21
585.372
 31
9.1
  0
LINE
  5
B26
330
A02
100
AcDbEntity
  8
Mesh_cs001
100
AcDbLine
 10
389.82
 20
585.372
 30
9.1
 11
389.817
 21
585.248
 31
9.1
  0
LINE
  5
B27
330
A02
100
AcDbEntity
  8
Mesh_cs001
100
AcDbLine
 10
389.817
 20
585.248
 30
9.1
 11
375.591
 21
585.248
 31
9.1
  0
LINE
  5
B28
330
A02
100
AcDbEntity
  8
Mesh_cs001
100
AcDbLine
 10
375.591
 20
585.248
 30
9.1
 11
375.1
 21
585.248
 31
9.1
  0
LINE
  5
B29
330
A02
100
AcDbEntity
  8
Mesh_cs001
100
AcDbLine
 10
375.1
 20
585.248
 30
9.1
 11
375.1
 21
585.745
 31
9.1
  0
LINE
  5
B2A
330
A02
100
AcDbEntity
  8
Mesh_cs001
100
AcDbLine
 10
375.1
 20
585.745
 30
9.1
 11
375.1
 21
600.148
 31
9.1
  0
LINE
  5
B2B
330
A02
100
AcDbEntity
  8
Mesh_cs001
100
AcDbLine
 10
375.1
 20
600.148
 30
9.1
 11
375.597
 21
600.148
 31
9.1
  0
LINE
  5
B2C
330
A02
100
AcDbEntity
  8
Mesh_cs001
100
AcDbLine
 10
375.597
 20
600.148
 30
9.1
 11
390
 21
600.148
 31
9.1
  0
LINE
  5
B2D
330
A02
100
AcDbEntity
  8
Mesh_cs001
100
AcDbLine
 10
209.9
 20
585.248
 30
9.1
 11
209.403
 21
585.248
 31
9.1
  0
LINE
  5
B2E
330
A02
100
AcDbEntity
  8
Mesh_cs001
100
AcDbLine
 10
209.403
 20
585.248
 30
9.1
 11
195
 21
585.248
 31
9.1
  0
LINE
  5
B2F
330
A02
100
AcDbEntity
  8
Mesh_cs001
100
AcDbLine
 10
195
 20
585.248
 30
9.1
 11
195
 21
585.745
 31
9.1
  0
LINE
  5
B30
330
A02
100
AcDbEntity
  8
Mesh_cs001
100
AcDbLine
 10
195
 20
585.745
 30
9.1
 11
195
 21
600.148
 31
9.1
  0
LINE
  5
B31
330
A02
100
AcDbEntity
  8
Mesh_cs001
100
AcDbLine
 10
195
 20
600.148
 30
9.1
 11
209.403
 21
600.148
 31
9.1
  0
LINE
  5
B32
330
A02
100
AcDbEntity
  8
Mesh_cs001
100
AcDbLine
 10
209.403
 20
600.148
 30
9.1
 11
209.9
 21
600.148
 31
9.1
  0
LINE
  5
B33
330
A02
100
AcDbEntity
  8
Mesh_cs001
100
AcDbLine
 10
209.9
 20
600.148
 30
9.1
 11
209.9
 21
599.652
 31
9.1
  0
LINE
  5
B34
330
A02
100
AcDbEntity
  8
Mesh_cs001
100
AcDbLine
 10
209.9
 20
599.652
 30
9.1
 11
209.9
 21
585.248
 31
9.1
  0
ENDSEC
  0
SECTION
  2
OBJECTS
  0
DICTIONARY
  5
F000
330
0
100
AcDbDictionary
  3
ACAD_GROUP
350
F001
  0
DICTIONARY
  5
F001
330
F000
100
AcDbDictionary
  0
ENDSEC
  0
EOF