999
FreeCAD v0.21 33771 (Git)
  0
SECTION
  2
HEADER
  9
$ACADVER
  1
AC1014
  9
$ACADMAINTVER
 70
     9
  9
$DWGCODEPAGE
  3
ANSI_1252
  9
$TEXTSTYLE
  7
STANDARD
  9
$DIMSTYLE
  2
STANDARD
  9
$DIMTXSTY
  7
STANDARD
  9
$CMLSTYLE
  2
STANDARD
  9
$LUNITS
 70
2
  9
$INSUNITS
 70
4
  9
$PEXTMAX
 10
50
 20
50
 30
50
  9
$PEXTMIN
 10
0
 20
0
 30
0
  9
$HANDSEED
  5
FFFF
  0
ENDSEC
  0
SECTION
  2
CLASSES
  0
CLASS
  1
ACDBDICTIONARYWDFLT
  2
AcDbDictionaryWithDefault
  3
ObjectDBX Classes
 90
        0
280
     0
281
     0
  0
CLASS
  1
XRECORD
  2
AcDbXrecord
  3
ObjectDBX Classes
 90
        0
280
     0
281
     0
  0
CLASS
  1
LWPOLYLINE
  2
AcDbPolyline
  3
ObjectDBX Classes
 90
        0
280
     0
281
     1
  0
ENDSEC
  0
SECTION
  2
TABLES
  0
TABLE
  2
VPORT
  5
20
330
0
100
AcDbSymbolTable
 70
     1
  0
VPORT
  5
21
330
20
100
AcDbSymbolTableRecord
100
AcDbViewportTableRecord
  2
*ACTIVE
 70
     0
  0
ENDTAB
  0
TABLE
  2
LTYPE
  5
22
330
0
100
AcDbSymbolTable
 70
     1
  0
LTYPE
  5
23
330
21
100
AcDbSymbolTableRecord
100
AcDbLinetypeTableRecord
  2
BYBLOCK
 70
     0
  3

 72
    65
 73
     0
 40
0.0
  0
LTYPE
  5
24
330
21
100
AcDbSymbolTableRecord
100
AcDbLinetypeTableRecord
  2
BYLAYER
 70
     0
  3

 72
    65
 73
     0
 40
0.0
  0
LTYPE
  5
25
330
21
100
AcDbSymbolTableRecord
100
AcDbLinetypeTableRecord
  2
CONTINUOUS
 70
     0
  3
Solid line
 72
    65
 73
     0
 40
0.0
  0
ENDTAB
  0
TABLE
  2
LAYER
  5
ADE
330
0
100
AcDbSymbolTable
 70
3
  0
LAYER
  5
ADF
330
ADE
100
AcDbSymbolTableRecord
100
AcDbLayerTableRecord
  2
0
 70
   0
 62
   7
  6
CONTINUOUS
  0
LAYER
  5
AE0
330
ADE
100
AcDbSymbolTableRecord
100
AcDbLayerTableRecord
  2
none
 70
    0
 62
    7
  6
CONTINUOUS
  0
LAYER
  5
AE1
330
ADE
100
AcDbSymbolTableRecord
100
AcDbLayerTableRecord
  2
Mesh_cs001
 70
    0
 62
    7
  6
CONTINUOUS
  0
ENDTAB
  0
TABLE
  2
STYLE
  5
70
330
0
100
AcDbSymbolTable
 70
     2
  0
STYLE
  5
71
330
70
100
AcDbSymbolTableRecord
100
AcDbTextStyleTableRecord
  2
STANDARD
 70
     0
 40
0.0
 41
1.0
 50
0.0
 71
     0
 42
2.5
  3
arial.ttf
  4

  0
STYLE
  5
72
330
70
100
AcDbSymbolTableRecord
100
AcDbTextStyleTableRecord
  2
ANNOTATIVE
 70
     0
 40
0.0
 41
1.0
 50
0.0
 71
     0
 42
2.5
  3
arial.ttf
  4

  0
ENDTAB
  0
TABLE
  2
VIEW
  5
73
330
0
100
AcDbSymbolTable
 70
     0
  0
ENDTAB
  0
TABLE
  2
UCS
  5
74
330
0
100
AcDbSymbolTable
 70
     0
  0
ENDTAB
  0
TABLE
  2
APPID
  5
75
330
0
100
AcDbSymbolTable
 70
     2
  0
APPID
  5
76
330
75
100
AcDbSymbolTableRecord
100
AcDbRegAppTableRecord
  2
ACAD
 70
     0
  0
APPID
  5
77
330
75
100
AcDbSymbolTableRecord
100
AcDbRegAppTableRecord
  2
ACADANNOTATIVE
 70
     0
  0
ENDTAB
  0
TABLE
  2
DIMSTYLE
  5
78
330
0
100
AcDbSymbolTable
 70
     2
  0
DIMSTYLE
105
79
330
78
100
AcDbSymbolTableRecord
100
AcDbDimStyleTableRecord
  2
STANDARD
 70
     0
  3

  4

  5

  6

  7

 40
0.0
 41
2.5
 42
0.625
 43
3.75
 44
1.25
 45
0.0
 46
0.0
 47
0.0
 48
0.0
140
2.5
141
2.5
142
0.0
143
0.03937007874016
144
1.0
145
0.0
146
1.0
147
0.625
 71
     0
 72
     0
 73
     0
 74
     0
 75
     0
 76
     0
 77
     1
 78
     8
170
     0
171
     3
172
     1
173
     0
174
     0
175
     0
176
     0
177
     0
178
     0
270
     2
271
     2
272
     2
273
     2
274
     3
340
71
275
     0
280
     0
281
     0
282
     0
283
     0
284
     8
285
     0
286
     0
287
     3
288
     0
  0
ENDTAB
  0
TABLE
  2
BLOCK_RECORD
  5
A01
330
0
100
AcDbSymbolTable
  70
5
  0
BLOCK_RECORD
  5
A02
330
A01
100
AcDbSymbolTableRecord
100
AcDbBlockTableRecord
  2
*MODEL_SPACE
  0
BLOCK_RECORD
  5
A03
330
A01
100
AcDbSymbolTableRecord
100
AcDbBlockTableRecord
  2
*PAPER_SPACE
  0
ENDTAB
  0
ENDSEC
  0
SECTION
  2
BLOCKS
  0
BLOCK
  5
A04
330
A02
100
AcDbEntity
  8
0
100
AcDbBlockBegin
  2
*MODEL_SPACE
 70
   0
 10
0
 20
0
 30
0
  3
*MODEL_SPACE
  1
 
  0
ENDBLK
  5
A05
330
A02
100
AcDbEntity
  8
0
100
AcDbBlockEnd
  0
BLOCK
  5
A06
330
A03
100
AcDbEntity
 67
1
  8
0
100
AcDbBlockBegin
  2
*PAPER_SPACE
 70
   0
 10
0
 20
0
 30
0
  3
*PAPER_SPACE
  1
 
  0
ENDBLK
  5
A07
330
A03
100
AcDbEntity
 67
    1
  8
0
100
AcDbBlockEnd
  0
ENDSEC
  0
SECTION
  2
ENTITIES
  0
LINE
  5
A08
330
A02
100
AcDbEntity
  8
Mesh_cs001
100
AcDbLine
 10
14.4094
 20
14.9
 30
9.1
 11
14.9
 21
14.9
 31
9.1
  0
LINE
  5
A09
330
A02
100
AcDbEntity
  8
Mesh_cs001
100
AcDbLine
 10
14.9
 20
14.9
 30
9.1
 11
14.9
 21
0.496668
 31
9.1
  0
LINE
  5
A0A
330
A02
100
AcDbEntity
  8
Mesh_cs001
100
AcDbLine
 10
14.9
 20
0.496668
 30
9.1
 11
14.9
 21
-2.05391e-15
 31
9.1
  0
LINE
  5
A0B
330
A02
100
AcDbEntity
  8
Mesh_cs001
100
AcDbLine
 10
14.9
 20
-2.03333e-15
 30
9.1
 11
14.4033
 21
-7.33329e-16
 31
9.1
  0
LINE
  5
A0C
330
A02
100
AcDbEntity
  8
Mesh_cs001
100
AcDbLine
 10
14.4033
 20
-7.33329e-16
 30
9.1
 11
0
 21
3.62417e-14
 31
9.1
  0
LINE
  5
A0D
330
A02
100
AcDbEntity
  8
Mesh_cs001
100
AcDbLine
 10
0
 20
3.62417e-14
 30
9.1
 11
0
 21
14.4033
 31
9.1
  0
LINE
  5
A0E
330
A02
100
AcDbEntity
  8
Mesh_cs001
100
AcDbLine
 10
0
 20
14.4033
 30
9.1
 11
-3.33334e-17
 21
14.9
 31
9.1
  0
LINE
  5
A0F
330
A02
100
AcDbEntity
  8
Mesh_cs001
100
AcDbLine
 10
-3.33334e-17
 20
14.9
 30
9.1
 11
14.4094
 21
14.9
 31
9.1
  0
LINE
  5
A10
330
A02
100
AcDbEntity
  8
Mesh_cs001
100
AcDbLine
 10
136.265
 20
342.747
 30
9.1
 11
138.494
 21
341.128
 31
9.1
  0
LINE
  5
A11
330
A02
100
AcDbEntity
  8
Mesh_cs001
100
AcDbLine
 10
138.494
 20
341.128
 30
9.1
 11
196.912
 21
298.685
 31
9.1
  0
LINE
  5
A12
330
A02
100
AcDbEntity
  8
Mesh_cs001
100
AcDbLine
 10
196.912
 20
298.685
 30
9.1
 11
220.337
 21
281.666
 31
9.1
  0
LINE
  5
A13
330
A02
100
AcDbEntity
  8
Mesh_cs001
100
AcDbLine
 10
220.337
 20
281.666
 30
9.1
 11
251.506
 21
259.02
 31
9.1
  0
LINE
  5
A14
330
A02
100
AcDbEntity
  8
Mesh_cs001
100
AcDbLine
 10
251.506
 20
259.02
 30
9.1
 11
253.735
 21
257.401
 31
9.1
  0
LINE
  5
A15
330
A02
100
AcDbEntity
  8
Mesh_cs001
100
AcDbLine
 10
253.735
 20
257.401
 30
9.1
 11
242.428
 21
241.838
 31
9.1
  0
LINE
  5
A16
330
A02
100
AcDbEntity
  8
Mesh_cs001
100
AcDbLine
 10
242.428
 20
241.838
 30
9.1
 11
242.038
 21
241.301
 31
9.1
  0
LINE
  5
A17
330
A02
100
AcDbEntity
  8
Mesh_cs001
100
AcDbLine
 10
242.038
 20
241.301
 30
9.1
 11
242.025
 21
241.281
 31
9.1
  0
LINE
  5
A18
330
A02
100
AcDbEntity
  8
Mesh_cs001
100
AcDbLine
 10
242.025
 20
241.281
 30
9.1
 11
241.463
 21
240.273
 31
9.1
  0
LINE
  5
A19
330
A02
100
AcDbEntity
  8
Mesh_cs001
100
AcDbLine
 10
241.463
 20
240.273
 30
9.1
 11
241.453
 21
240.251
 31
9.1
  0
LINE
  5
A1A
330
A02
100
AcDbEntity
  8
Mesh_cs001
100
AcDbLine
 10
241.453
 20
240.251
 30
9.1
 11
241.134
 21
239.056
 31
9.1
  0
LINE
  5
A1B
330
A02
100
AcDbEntity
  8
Mesh_cs001
100
AcDbLine
 10
241.134
 20
239.056
 30
9.1
 11
241.126
 21
239.014
 31
9.1
  0
LINE
  5
A1C
330
A02
100
AcDbEntity
  8
Mesh_cs001
100
AcDbLine
 10
241.126
 20
239.014
 30
9.1
 11
241.111
 21
237.86
 31
9.1
  0
LINE
  5
A1D
330
A02
100
AcDbEntity
  8
Mesh_cs001
100
AcDbLine
 10
241.111
 20
237.86
 30
9.1
 11
241.113
 21
237.817
 31
9.1
  0
LINE
  5
A1E
330
A02
100
AcDbEntity
  8
Mesh_cs001
100
AcDbLine
 10
241.113
 20
237.817
 30
9.1
 11
241.337
 21
236.794
 31
9.1
  0
LINE
  5
A1F
330
A02
100
AcDbEntity
  8
Mesh_cs001
100
AcDbLine
 10
241.337
 20
236.794
 30
9.1
 11
241.35
 21
236.754
 31
9.1
  0
LINE
  5
A20
330
A02
100
AcDbEntity
  8
Mesh_cs001
100
AcDbLine
 10
241.35
 20
236.754
 30
9.1
 11
241.779
 21
235.819
 31
9.1
  0
LINE
  5
A21
330
A02
100
AcDbEntity
  8
Mesh_cs001
100
AcDbLine
 10
241.779
 20
235.819
 30
9.1
 11
241.801
 21
235.783
 31
9.1
  0
LINE
  5
A22
330
A02
100
AcDbEntity
  8
Mesh_cs001
100
AcDbLine
 10
241.801
 20
235.783
 30
9.1
 11
242.391
 21
234.991
 31
9.1
  0
LINE
  5
A23
330
A02
100
AcDbEntity
  8
Mesh_cs001
100
AcDbLine
 10
242.391
 20
234.991
 30
9.1
 11
242.742
 21
234.645
 31
9.1
  0
LINE
  5
A24
330
A02
100
AcDbEntity
  8
Mesh_cs001
100
AcDbLine
 10
242.742
 20
234.645
 30
9.1
 11
242.773
 21
234.616
 31
9.1
  0
LINE
  5
A25
330
A02
100
AcDbEntity
  8
Mesh_cs001
100
AcDbLine
 10
242.773
 20
234.616
 30
9.1
 11
243.144
 21
234.317
 31
9.1
  0
LINE
  5
A26
330
A02
100
AcDbEntity
  8
Mesh_cs001
100
AcDbLine
 10
243.144
 20
234.317
 30
9.1
 11
258.707
 21
223.01
 31
9.1
  0
LINE
  5
A27
330
A02
100
AcDbEntity
  8
Mesh_cs001
100
AcDbLine
 10
258.707
 20
223.01
 30
9.1
 11
259.243
 21
222.621
 31
9.1
  0
LINE
  5
A28
330
A02
100
AcDbEntity
  8
Mesh_cs001
100
AcDbLine
 10
259.243
 20
222.621
 30
9.1
 11
259.209
 21
222.561
 31
9.1
  0
LINE
  5
A29
330
A02
100
AcDbEntity
  8
Mesh_cs001
100
AcDbLine
 10
259.209
 20
222.561
 30
9.1
 11
258.727
 21
221.728
 31
9.1
  0
LINE
  5
A2A
330
A02
100
AcDbEntity
  8
Mesh_cs001
100
AcDbLine
 10
258.727
 20
221.728
 30
9.1
 11
258.643
 21
221.513
 31
9.1
  0
LINE
  5
A2B
330
A02
100
AcDbEntity
  8
Mesh_cs001
100
AcDbLine
 10
258.643
 20
221.513
 30
9.1
 11
258.483
 21
221.039
 31
9.1
  0
LINE
  5
A2C
330
A02
100
AcDbEntity
  8
Mesh_cs001
100
AcDbLine
 10
258.483
 20
221.039
 30
9.1
 11
258.354
 21
220.306
 31
9.1
  0
LINE
  5
A2D
330
A02
100
AcDbEntity
  8
Mesh_cs001
100
AcDbLine
 10
258.354
 20
220.306
 30
9.1
 11
258.288
 21
219.711
 31
9.1
  0
LINE
  5
A2E
330
A02
100
AcDbEntity
  8
Mesh_cs001
100
AcDbLine
 10
258.288
 20
219.711
 30
9.1
 11
256.691
 21
217.079
 31
9.1
  0
LINE
  5
A2F
330
A02
100
AcDbEntity
  8
Mesh_cs001
100
AcDbLine
 10
256.691
 20
217.079
 30
9.1
 11
251.679
 21
208.821
 31
9.1
  0
LINE
  5
A30
330
A02
100
AcDbEntity
  8
Mesh_cs001
100
AcDbLine
 10
251.679
 20
208.821
 30
9.1
 11
250.163
 21
206.141
 31
9.1
  0
LINE
  5
A31
330
A02
100
AcDbEntity
  8
Mesh_cs001
100
AcDbLine
 10
250.163
 20
206.141
 30
9.1
 11
245.408
 21
197.732
 31
9.1
  0
LINE
  5
A32
330
A02
100
AcDbEntity
  8
Mesh_cs001
100
AcDbLine
 10
245.408
 20
197.732
 30
9.1
 11
243.976
 21
195.007
 31
9.1
  0
LINE
  5
A33
330
A02
100
AcDbEntity
  8
Mesh_cs001
100
AcDbLine
 10
243.976
 20
195.007
 30
9.1
 11
239.483
 21
186.455
 31
9.1
  0
LINE
  5
A34
330
A02
100
AcDbEntity
  8
Mesh_cs001
100
AcDbLine
 10
239.483
 20
186.455
 30
9.1
 11
235.255
 21
177.769
 31
9.1
  0
LINE
  5
A35
330
A02
100
AcDbEntity
  8
Mesh_cs001
100
AcDbLine
 10
235.255
 20
177.769
 30
9.1
 11
233.908
 21
175
 31
9.1
  0
LINE
  5
A36
330
A02
100
AcDbEntity
  8
Mesh_cs001
100
AcDbLine
 10
233.908
 20
175
 30
9.1
 11
232.646
 21
172.192
 31
9.1
  0
LINE
  5
A37
330
A02
100
AcDbEntity
  8
Mesh_cs001
100
AcDbLine
 10
232.646
 20
172.192
 30
9.1
 11
228.688
 21
163.38
 31
9.1
  0
LINE
  5
A38
330
A02
100
AcDbEntity
  8
Mesh_cs001
100
AcDbLine
 10
228.688
 20
163.38
 30
9.1
 11
227.514
 21
160.534
 31
9.1
  0
LINE
  5
A39
330
A02
100
AcDbEntity
  8
Mesh_cs001
100
AcDbLine
 10
227.514
 20
160.534
 30
9.1
 11
223.83
 21
151.603
 31
9.1
  0
LINE
  5
A3A
330
A02
100
AcDbEntity
  8
Mesh_cs001
100
AcDbLine
 10
223.83
 20
151.603
 30
9.1
 11
220.423
 21
142.563
 31
9.1
  0
LINE
  5
A3B
330
A02
100
AcDbEntity
  8
Mesh_cs001
100
AcDbLine
 10
220.423
 20
142.563
 30
9.1
 11
219.337
 21
139.683
 31
9.1
  0
LINE
  5
A3C
330
A02
100
AcDbEntity
  8
Mesh_cs001
100
AcDbLine
 10
219.337
 20
139.683
 30
9.1
 11
218.341
 21
136.77
 31
9.1
  0
LINE
  5
A3D
330
A02
100
AcDbEntity
  8
Mesh_cs001
100
AcDbLine
 10
218.341
 20
136.77
 30
9.1
 11
215.214
 21
127.629
 31
9.1
  0
LINE
  5
A3E
330
A02
100
AcDbEntity
  8
Mesh_cs001
100
AcDbLine
 10
215.214
 20
127.629
 30
9.1
 11
214.308
 21
124.687
 31
9.1
  0
LINE
  5
A3F
330
A02
100
AcDbEntity
  8
Mesh_cs001
100
AcDbLine
 10
214.308
 20
124.687
 30
9.1
 11
211.465
 21
115.454
 31
9.1
  0
LINE
  5
A40
330
A02
100
AcDbEntity
  8
Mesh_cs001
100
AcDbLine
 10
211.465
 20
115.454
 30
9.1
 11
208.908
 21
106.138
 31
9.1
  0
LINE
  5
A41
330
A02
100
AcDbEntity
  8
Mesh_cs001
100
AcDbLine
 10
208.908
 20
106.138
 30
9.1
 11
208.093
 21
103.17
 31
9.1
  0
LINE
  5
A42
330
A02
100
AcDbEntity
  8
Mesh_cs001
100
AcDbLine
 10
208.093
 20
103.17
 30
9.1
 11
207.37
 21
100.177
 31
9.1
  0
LINE
  5
A43
330
A02
100
AcDbEntity
  8
Mesh_cs001
100
AcDbLine
 10
207.37
 20
100.177
 30
9.1
 11
205.102
 21
90.7867
 31
9.1
  0
LINE
  5
A44
330
A02
100
AcDbEntity
  8
Mesh_cs001
100
AcDbLine
 10
205.102
 20
90.7867
 30
9.1
 11
204.471
 21
87.7733
 31
9.1
  0
LINE
  5
A45
330
A02
100
AcDbEntity
  8
Mesh_cs001
100
AcDbLine
 10
204.471
 20
87.7733
 30
9.1
 11
202.493
 21
78.3175
 31
9.1
  0
LINE
  5
A46
330
A02
100
AcDbEntity
  8
Mesh_cs001
100
AcDbLine
 10
202.493
 20
78.3175
 30
9.1
 11
201.956
 21
75.2861
 31
9.1
  0
LINE
  5
A47
330
A02
100
AcDbEntity
  8
Mesh_cs001
100
AcDbLine
 10
201.956
 20
75.2861
 30
9.1
 11
200.271
 21
65.7737
 31
9.1
  0
LINE
  5
A48
330
A02
100
AcDbEntity
  8
Mesh_cs001
100
AcDbLine
 10
200.271
 20
65.7737
 30
9.1
 11
199.828
 21
62.7272
 31
9.1
  0
LINE
  5
A49
330
A02
100
AcDbEntity
  8
Mesh_cs001
100
AcDbLine
 10
199.828
 20
62.7272
 30
9.1
 11
198.436
 21
53.1674
 31
9.1
  0
LINE
  5
A4A
330
A02
100
AcDbEntity
  8
Mesh_cs001
100
AcDbLine
 10
198.436
 20
53.1674
 30
9.1
 11
198.087
 21
50.1087
 31
9.1
  0
LINE
  5
A4B
330
A02
100
AcDbEntity
  8
Mesh_cs001
100
AcDbLine
 10
198.087
 20
50.1087
 30
9.1
 11
196.992
 21
40.5105
 31
9.1
  0
LINE
  5
A4C
330
A02
100
AcDbEntity
  8
Mesh_cs001
100
AcDbLine
 10
196.992
 20
40.5105
 30
9.1
 11
196.192
 21
30.8831
 31
9.1
  0
LINE
  5
A4D
330
A02
100
AcDbEntity
  8
Mesh_cs001
100
AcDbLine
 10
196.192
 20
30.8831
 30
9.1
 11
195.938
 21
27.8151
 31
9.1
  0
LINE
  5
A4E
330
A02
100
AcDbEntity
  8
Mesh_cs001
100
AcDbLine
 10
195.938
 20
27.8151
 30
9.1
 11
195.548
 21
27.1331
 31
9.1
  0
LINE
  5
A4F
330
A02
100
AcDbEntity
  8
Mesh_cs001
100
AcDbLine
 10
195.548
 20
27.1331
 30
9.1
 11
195.424
 21
26.9157
 31
9.1
  0
LINE
  5
A50
330
A02
100
AcDbEntity
  8
Mesh_cs001
100
AcDbLine
 10
195.424
 20
26.9157
 30
9.1
 11
195.348
 21
26.6775
 31
9.1
  0
LINE
  5
A51
330
A02
100
AcDbEntity
  8
Mesh_cs001
100
AcDbLine
 10
195.348
 20
26.6775
 30
9.1
 11
195.107
 21
25.93
 31
9.1
  0
LINE
  5
A52
330
A02
100
AcDbEntity
  8
Mesh_cs001
100
AcDbLine
 10
195.107
 20
25.93
 30
9.1
 11
195.004
 21
24.9343
 31
9.1
  0
LINE
  5
A53
330
A02
100
AcDbEntity
  8
Mesh_cs001
100
AcDbLine
 10
195.004
 20
24.9343
 30
9.1
 11
195
 21
24.9
 31
9.1
  0
LINE
  5
A54
330
A02
100
AcDbEntity
  8
Mesh_cs001
100
AcDbLine
 10
195
 20
24.9
 30
9.1
 11
194.337
 21
24.9
 31
9.1
  0
LINE
  5
A55
330
A02
100
AcDbEntity
  8
Mesh_cs001
100
AcDbLine
 10
194.337
 20
24.9
 30
9.1
 11
175.1
 21
24.9
 31
9.1
  0
LINE
  5
A56
330
A02
100
AcDbEntity
  8
Mesh_cs001
100
AcDbLine
 10
175.1
 20
24.9
 30
9.1
 11
174.625
 21
24.8766
 31
9.1
  0
LINE
  5
A57
330
A02
100
AcDbEntity
  8
Mesh_cs001
100
AcDbLine
 10
174.625
 20
24.8766
 30
9.1
 11
174.583
 21
24.8712
 31
9.1
  0
LINE
  5
A58
330
A02
100
AcDbEntity
  8
Mesh_cs001
100
AcDbLine
 10
174.583
 20
24.8712
 30
9.1
 11
174.096
 21
24.7978
 31
9.1
  0
LINE
  5
A59
330
A02
100
AcDbEntity
  8
Mesh_cs001
100
AcDbLine
 10
174.096
 20
24.7978
 30
9.1
 11
173.152
 21
24.5031
 31
9.1
  0
LINE
  5
A5A
330
A02
100
AcDbEntity
  8
Mesh_cs001
100
AcDbLine
 10
173.152
 20
24.5031
 30
9.1
 11
173.113
 21
24.4872
 31
9.1
  0
LINE
  5
A5B
330
A02
100
AcDbEntity
  8
Mesh_cs001
100
AcDbLine
 10
173.113
 20
24.4872
 30
9.1
 11
172.216
 21
23.9836
 31
9.1
  0
LINE
  5
A5C
330
A02
100
AcDbEntity
  8
Mesh_cs001
100
AcDbLine
 10
172.216
 20
23.9836
 30
9.1
 11
172.182
 21
23.9582
 31
9.1
  0
LINE
  5
A5D
330
A02
100
AcDbEntity
  8
Mesh_cs001
100
AcDbLine
 10
172.182
 20
23.9582
 30
9.1
 11
171.4
 21
23.2625
 31
9.1
  0
LINE
  5
A5E
330
A02
100
AcDbEntity
  8
Mesh_cs001
100
AcDbLine
 10
171.4
 20
23.2625
 30
9.1
 11
171.373
 21
23.2293
 31
9.1
  0
LINE
  5
A5F
330
A02
100
AcDbEntity
  8
Mesh_cs001
100
AcDbLine
 10
171.373
 20
23.2293
 30
9.1
 11
170.706
 21
22.2863
 31
9.1
  0
LINE
  5
A60
330
A02
100
AcDbEntity
  8
Mesh_cs001
100
AcDbLine
 10
170.706
 20
22.2863
 30
9.1
 11
170.689
 21
22.2475
 31
9.1
  0
LINE
  5
A61
330
A02
100
AcDbEntity
  8
Mesh_cs001
100
AcDbLine
 10
170.689
 20
22.2475
 30
9.1
 11
170.245
 21
21.0939
 31
9.1
  0
LINE
  5
A62
330
A02
100
AcDbEntity
  8
Mesh_cs001
100
AcDbLine
 10
170.245
 20
21.0939
 30
9.1
 11
170.24
 21
21.0701
 31
9.1
  0
LINE
  5
A63
330
A02
100
AcDbEntity
  8
Mesh_cs001
100
AcDbLine
 10
170.24
 20
21.0701
 30
9.1
 11
170.102
 21
19.9242
 31
9.1
  0
LINE
  5
A64
330
A02
100
AcDbEntity
  8
Mesh_cs001
100
AcDbLine
 10
170.102
 20
19.9242
 30
9.1
 11
170.1
 21
19.9
 31
9.1
  0
LINE
  5
A65
330
A02
100
AcDbEntity
  8
Mesh_cs001
100
AcDbLine
 10
170.1
 20
19.9
 30
9.1
 11
170.1
 21
19.2367
 31
9.1
  0
LINE
  5
A66
330
A02
100
AcDbEntity
  8
Mesh_cs001
100
AcDbLine
 10
170.1
 20
19.2367
 30
9.1
 11
170.1
 21
-7.10543e-15
 31
9.1
  0
LINE
  5
A67
330
A02
100
AcDbEntity
  8
Mesh_cs001
100
AcDbLine
 10
170.1
 20
-6.86667e-15
 30
9.1
 11
167.345
 21
-6.9e-15
 31
9.1
  0
LINE
  5
A68
330
A02
100
AcDbEntity
  8
Mesh_cs001
100
AcDbLine
 10
167.345
 20
-6.9e-15
 30
9.1
 11
128.818
 21
-4.13636e-15
 31
9.1
  0
LINE
  5
A69
330
A02
100
AcDbEntity
  8
Mesh_cs001
100
AcDbLine
 10
128.818
 20
-4.13636e-15
 30
9.1
 11
99.8636
 21
-4.13636e-15
 31
9.1
  0
LINE
  5
A6A
330
A02
100
AcDbEntity
  8
Mesh_cs001
100
AcDbLine
 10
99.8636
 20
-4.13636e-15
 30
9.1
 11
27.655
 21
-4.05e-15
 31
9.1
  0
LINE
  5
A6B
330
A02
100
AcDbEntity
  8
Mesh_cs001
100
AcDbLine
 10
27.655
 20
-4.05e-15
 30
9.1
 11
24.9
 21
-3.96667e-15
 31
9.1
  0
LINE
  5
A6C
330
A02
100
AcDbEntity
  8
Mesh_cs001
100
AcDbLine
 10
24.9
 20
-3.96667e-15
 30
9.1
 11
24.9
 21
0.663337
 31
9.1
  0
LINE
  5
A6D
330
A02
100
AcDbEntity
  8
Mesh_cs001
100
AcDbLine
 10
24.9
 20
0.663337
 30
9.1
 11
24.9
 21
19.9
 31
9.1
  0
LINE
  5
A6E
330
A02
100
AcDbEntity
  8
Mesh_cs001
100
AcDbLine
 10
24.9
 20
19.9
 30
9.1
 11
24.7353
 21
21.151
 31
9.1
  0
LINE
  5
A6F
330
A02
100
AcDbEntity
  8
Mesh_cs001
100
AcDbLine
 10
24.7353
 20
21.151
 30
9.1
 11
24.7296
 21
21.1941
 31
9.1
  0
LINE
  5
A70
330
A02
100
AcDbEntity
  8
Mesh_cs001
100
AcDbLine
 10
24.7296
 20
21.1941
 30
9.1
 11
24.713
 21
21.2343
 31
9.1
  0
LINE
  5
A71
330
A02
100
AcDbEntity
  8
Mesh_cs001
100
AcDbLine
 10
24.713
 20
21.2343
 30
9.1
 11
24.2301
 21
22.4
 31
9.1
  0
LINE
  5
A72
330
A02
100
AcDbEntity
  8
Mesh_cs001
100
AcDbLine
 10
24.2301
 20
22.4
 30
9.1
 11
24.2036
 21
22.4345
 31
9.1
  0
LINE
  5
A73
330
A02
100
AcDbEntity
  8
Mesh_cs001
100
AcDbLine
 10
24.2036
 20
22.4345
 30
9.1
 11
23.4355
 21
23.4355
 31
9.1
  0
LINE
  5
A74
330
A02
100
AcDbEntity
  8
Mesh_cs001
100
AcDbLine
 10
23.4355
 20
23.4355
 30
9.1
 11
23.401
 21
23.462
 31
9.1
  0
LINE
  5
A75
330
A02
100
AcDbEntity
  8
Mesh_cs001
100
AcDbLine
 10
23.401
 20
23.462
 30
9.1
 11
22.4
 21
24.2301
 31
9.1
  0
LINE
  5
A76
330
A02
100
AcDbEntity
  8
Mesh_cs001
100
AcDbLine
 10
22.4
 20
24.2301
 30
9.1
 11
22.3598
 21
24.2468
 31
9.1
  0
LINE
  5
A77
330
A02
100
AcDbEntity
  8
Mesh_cs001
100
AcDbLine
 10
22.3598
 20
24.2468
 30
9.1
 11
21.1941
 21
24.7296
 31
9.1
  0
LINE
  5
A78
330
A02
100
AcDbEntity
  8
Mesh_cs001
100
AcDbLine
 10
21.1941
 20
24.7296
 30
9.1
 11
21.151
 21
24.7353
 31
9.1
  0
LINE
  5
A79
330
A02
100
AcDbEntity
  8
Mesh_cs001
100
AcDbLine
 10
21.151
 20
24.7353
 30
9.1
 11
19.9
 21
24.9
 31
9.1
  0
LINE
  5
A7A
330
A02
100
AcDbEntity
  8
Mesh_cs001
100
AcDbLine
 10
19.9
 20
24.9
 30
9.1
 11
19.2537
 21
24.9
 31
9.1
  0
LINE
  5
A7B
330
A02
100
AcDbEntity
  8
Mesh_cs001
100
AcDbLine
 10
19.2537
 20
24.9
 30
9.1
 11
0.0170026
 21
24.9
 31
9.1
  0
LINE
  5
A7C
330
A02
100
AcDbEntity
  8
Mesh_cs001
100
AcDbLine
 10
0.0170026
 20
24.9
 30
9.1
 11
-9.99201e-16
 21
24.9
 31
9.1
  0
LINE
  5
A7D
330
A02
100
AcDbEntity
  8
Mesh_cs001
100
AcDbLine
 10
-1e-15
 20
24.9
 30
9.1
 11
0.0103255
 21
24.923
 31
9.1
  0
LINE
  5
A7E
330
A02
100
AcDbEntity
  8
Mesh_cs001
100
AcDbLine
 10
0.0103255
 20
24.923
 30
9.1
 11
0.309764
 21
25.5889
 31
9.1
  0
LINE
  5
A7F
330
A02
100
AcDbEntity
  8
Mesh_cs001
100
AcDbLine
 10
0.309764
 20
25.5889
 30
9.1
 11
0.358691
 21
25.7648
 31
9.1
  0
LINE
  5
A80
330
A02
100
AcDbEntity
  8
Mesh_cs001
100
AcDbLine
 10
0.358691
 20
25.7648
 30
9.1
 11
0.512219
 21
26.3166
 31
9.1
  0
LINE
  5
A81
330
A02
100
AcDbEntity
  8
Mesh_cs001
100
AcDbLine
 10
0.512219
 20
26.3166
 30
9.1
 11
0.534097
 21
26.4978
 31
9.1
  0
LINE
  5
A82
330
A02
100
AcDbEntity
  8
Mesh_cs001
100
AcDbLine
 10
0.534097
 20
26.4978
 30
9.1
 11
0.602746
 21
27.0665
 31
9.1
  0
LINE
  5
A83
330
A02
100
AcDbEntity
  8
Mesh_cs001
100
AcDbLine
 10
0.602746
 20
27.0665
 30
9.1
 11
0.807158
 21
30.6623
 31
9.1
  0
LINE
  5
A84
330
A02
100
AcDbEntity
  8
Mesh_cs001
100
AcDbLine
 10
0.807158
 20
30.6623
 30
9.1
 11
1.44859
 21
41.9456
 31
9.1
  0
LINE
  5
A85
330
A02
100
AcDbEntity
  8
Mesh_cs001
100
AcDbLine
 10
1.44859
 20
41.9456
 30
9.1
 11
1.74107
 21
45.5353
 31
9.1
  0
LINE
  5
A86
330
A02
100
AcDbEntity
  8
Mesh_cs001
100
AcDbLine
 10
1.74107
 20
45.5353
 30
9.1
 11
2.65885
 21
56.7995
 31
9.1
  0
LINE
  5
A87
330
A02
100
AcDbEntity
  8
Mesh_cs001
100
AcDbLine
 10
2.65885
 20
56.7995
 30
9.1
 11
3.03923
 21
60.381
 31
9.1
  0
LINE
  5
A88
330
A02
100
AcDbEntity
  8
Mesh_cs001
100
AcDbLine
 10
3.03923
 20
60.381
 30
9.1
 11
4.23281
 21
71.6193
 31
9.1
  0
LINE
  5
A89
330
A02
100
AcDbEntity
  8
Mesh_cs001
100
AcDbLine
 10
4.23281
 20
71.6193
 30
9.1
 11
5.70149
 21
82.825
 31
9.1
  0
LINE
  5
A8A
330
A02
100
AcDbEntity
  8
Mesh_cs001
100
AcDbLine
 10
5.70149
 20
82.825
 30
9.1
 11
6.16952
 21
86.3961
 31
9.1
  0
LINE
  5
A8B
330
A02
100
AcDbEntity
  8
Mesh_cs001
100
AcDbLine
 10
6.16952
 20
86.3961
 30
9.1
 11
7.9124
 21
97.5624
 31
9.1
  0
LINE
  5
A8C
330
A02
100
AcDbEntity
  8
Mesh_cs001
100
AcDbLine
 10
7.9124
 20
97.5624
 30
9.1
 11
8.46782
 21
101.121
 31
9.1
  0
LINE
  5
A8D
330
A02
100
AcDbEntity
  8
Mesh_cs001
100
AcDbLine
 10
8.46782
 20
101.121
 30
9.1
 11
9.11029
 21
104.665
 31
9.1
  0
LINE
  5
A8E
330
A02
100
AcDbEntity
  8
Mesh_cs001
100
AcDbLine
 10
9.11029
 20
104.665
 30
9.1
 11
11.1263
 21
115.785
 31
9.1
  0
LINE
  5
A8F
330
A02
100
AcDbEntity
  8
Mesh_cs001
100
AcDbLine
 10
11.1263
 20
115.785
 30
9.1
 11
11.8554
 21
119.312
 31
9.1
  0
LINE
  5
A90
330
A02
100
AcDbEntity
  8
Mesh_cs001
100
AcDbLine
 10
11.8554
 20
119.312
 30
9.1
 11
14.1434
 21
130.38
 31
9.1
  0
LINE
  5
A91
330
A02
100
AcDbEntity
  8
Mesh_cs001
100
AcDbLine
 10
14.1434
 20
130.38
 30
9.1
 11
14.9588
 21
133.888
 31
9.1
  0
LINE
  5
A92
330
A02
100
AcDbEntity
  8
Mesh_cs001
100
AcDbLine
 10
14.9588
 20
133.888
 30
9.1
 11
17.5173
 21
144.896
 31
9.1
  0
LINE
  5
A93
330
A02
100
AcDbEntity
  8
Mesh_cs001
100
AcDbLine
 10
17.5173
 20
144.896
 30
9.1
 11
20.3449
 21
155.838
 31
9.1
  0
LINE
  5
A94
330
A02
100
AcDbEntity
  8
Mesh_cs001
100
AcDbLine
 10
20.3449
 20
155.838
 30
9.1
 11
21.246
 21
159.325
 31
9.1
  0
LINE
  5
A95
330
A02
100
AcDbEntity
  8
Mesh_cs001
100
AcDbLine
 10
21.246
 20
159.325
 30
9.1
 11
22.2323
 21
162.789
 31
9.1
  0
LINE
  5
A96
330
A02
100
AcDbEntity
  8
Mesh_cs001
100
AcDbLine
 10
22.2323
 20
162.789
 30
9.1
 11
25.3272
 21
173.658
 31
9.1
  0
LINE
  5
A97
330
A02
100
AcDbEntity
  8
Mesh_cs001
100
AcDbLine
 10
25.3272
 20
173.658
 30
9.1
 11
26.3981
 21
177.097
 31
9.1
  0
LINE
  5
A98
330
A02
100
AcDbEntity
  8
Mesh_cs001
100
AcDbLine
 10
26.3981
 20
177.097
 30
9.1
 11
29.7585
 21
187.887
 31
9.1
  0
LINE
  5
A99
330
A02
100
AcDbEntity
  8
Mesh_cs001
100
AcDbLine
 10
29.7585
 20
187.887
 30
9.1
 11
30.9133
 21
191.299
 31
9.1
  0
LINE
  5
A9A
330
A02
100
AcDbEntity
  8
Mesh_cs001
100
AcDbLine
 10
30.9133
 20
191.299
 30
9.1
 11
34.5371
 21
202.004
 31
9.1
  0
LINE
  5
A9B
330
A02
100
AcDbEntity
  8
Mesh_cs001
100
AcDbLine
 10
34.5371
 20
202.004
 30
9.1
 11
35.7752
 21
205.386
 31
9.1
  0
LINE
  5
A9C
330
A02
100
AcDbEntity
  8
Mesh_cs001
100
AcDbLine
 10
35.7752
 20
205.386
 30
9.1
 11
39.6604
 21
215.999
 31
9.1
  0
LINE
  5
A9D
330
A02
100
AcDbEntity
  8
Mesh_cs001
100
AcDbLine
 10
39.6604
 20
215.999
 30
9.1
 11
40.981
 21
219.349
 31
9.1
  0
LINE
  5
A9E
330
A02
100
AcDbEntity
  8
Mesh_cs001
100
AcDbLine
 10
40.981
 20
219.349
 30
9.1
 11
45.125
 21
229.864
 31
9.1
  0
LINE
  5
A9F
330
A02
100
AcDbEntity
  8
Mesh_cs001
100
AcDbLine
 10
45.125
 20
229.864
 30
9.1
 11
46.5274
 21
233.181
 31
9.1
  0
LINE
  5
AA0
330
A02
100
AcDbEntity
  8
Mesh_cs001
100
AcDbLine
 10
46.5274
 20
233.181
 30
9.1
 11
50.9279
 21
243.591
 31
9.1
  0
LINE
  5
AA1
330
A02
100
AcDbEntity
  8
Mesh_cs001
100
AcDbLine
 10
50.9279
 20
243.591
 30
9.1
 11
52.4112
 21
246.873
 31
9.1
  0
LINE
  5
AA2
330
A02
100
AcDbEntity
  8
Mesh_cs001
100
AcDbLine
 10
52.4112
 20
246.873
 30
9.1
 11
57.0655
 21
257.171
 31
9.1
  0
LINE
  5
AA3
330
A02
100
AcDbEntity
  8
Mesh_cs001
100
AcDbLine
 10
57.0655
 20
257.171
 30
9.1
 11
61.9708
 21
267.353
 31
9.1
  0
LINE
  5
AA4
330
A02
100
AcDbEntity
  8
Mesh_cs001
100
AcDbLine
 10
61.9708
 20
267.353
 30
9.1
 11
63.5341
 21
270.597
 31
9.1
  0
LINE
  5
AA5
330
A02
100
AcDbEntity
  8
Mesh_cs001
100
AcDbLine
 10
63.5341
 20
270.597
 30
9.1
 11
68.6875
 21
280.656
 31
9.1
  0
LINE
  5
AA6
330
A02
100
AcDbEntity
  8
Mesh_cs001
100
AcDbLine
 10
68.6875
 20
280.656
 30
9.1
 11
70.3298
 21
283.861
 31
9.1
  0
LINE
  5
AA7
330
A02
100
AcDbEntity
  8
Mesh_cs001
100
AcDbLine
 10
70.3298
 20
283.861
 30
9.1
 11
72.0501
 21
287.025
 31
9.1
  0
LINE
  5
AA8
330
A02
100
AcDbEntity
  8
Mesh_cs001
100
AcDbLine
 10
72.0501
 20
287.025
 30
9.1
 11
77.4485
 21
296.954
 31
9.1
  0
LINE
  5
AA9
330
A02
100
AcDbEntity
  8
Mesh_cs001
100
AcDbLine
 10
77.4485
 20
296.954
 30
9.1
 11
79.2459
 21
300.075
 31
9.1
  0
LINE
  5
AAA
330
A02
100
AcDbEntity
  8
Mesh_cs001
100
AcDbLine
 10
79.2459
 20
300.075
 30
9.1
 11
84.886
 21
309.869
 31
9.1
  0
LINE
  5
AAB
330
A02
100
AcDbEntity
  8
Mesh_cs001
100
AcDbLine
 10
84.886
 20
309.869
 30
9.1
 11
86.7593
 21
312.945
 31
9.1
  0
LINE
  5
AAC
330
A02
100
AcDbEntity
  8
Mesh_cs001
100
AcDbLine
 10
86.7593
 20
312.945
 30
9.1
 11
92.6378
 21
322.597
 31
9.1
  0
LINE
  5
AAD
330
A02
100
AcDbEntity
  8
Mesh_cs001
100
AcDbLine
 10
92.6378
 20
322.597
 30
9.1
 11
98.751
 21
332.102
 31
9.1
  0
LINE
  5
AAE
330
A02
100
AcDbEntity
  8
Mesh_cs001
100
AcDbLine
 10
98.751
 20
332.102
 30
9.1
 11
100.699
 21
335.132
 31
9.1
  0
LINE
  5
AAF
330
A02
100
AcDbEntity
  8
Mesh_cs001
100
AcDbLine
 10
100.699
 20
335.132
 30
9.1
 11
100.912
 21
335.514
 31
9.1
  0
LINE
  5
AB0
330
A02
100
AcDbEntity
  8
Mesh_cs001
100
AcDbLine
 10
100.912
 20
335.514
 30
9.1
 11
101.154
 21
336
 31
9.1
  0
LINE
  5
AB1
330
A02
100
AcDbEntity
  8
Mesh_cs001
100
AcDbLine
 10
101.154
 20
336
 30
9.1
 11
101.467
 21
337.165
 31
9.1
  0
LINE
  5
AB2
330
A02
100
AcDbEntity
  8
Mesh_cs001
100
AcDbLine
 10
101.467
 20
337.165
 30
9.1
 11
101.485
 21
337.239
 31
9.1
  0
LINE
  5
AB3
330
A02
100
AcDbEntity
  8
Mesh_cs001
100
AcDbLine
 10
101.485
 20
337.239
 30
9.1
 11
117.062
 21
325.922
 31
9.1
  0
LINE
  5
AB4
330
A02
100
AcDbEntity
  8
Mesh_cs001
100
AcDbLine
 10
117.062
 20
325.922
 30
9.1
 11
117.584
 21
325.542
 31
9.1
  0
LINE
  5
AB5
330
A02
100
AcDbEntity
  8
Mesh_cs001
100
AcDbLine
 10
117.584
 20
325.542
 30
9.1
 11
117.982
 21
325.281
 31
9.1
  0
LINE
  5
AB6
330
A02
100
AcDbEntity
  8
Mesh_cs001
100
AcDbLine
 10
117.982
 20
325.281
 30
9.1
 11
118.02
 21
325.261
 31
9.1
  0
LINE
  5
AB7
330
A02
100
AcDbEntity
  8
Mesh_cs001
100
AcDbLine
 10
118.02
 20
325.261
 30
9.1
 11
118.457
 21
325.034
 31
9.1
  0
LINE
  5
AB8
330
A02
100
AcDbEntity
  8
Mesh_cs001
100
AcDbLine
 10
118.457
 20
325.034
 30
9.1
 11
119.393
 21
324.718
 31
9.1
  0
LINE
  5
AB9
330
A02
100
AcDbEntity
  8
Mesh_cs001
100
AcDbLine
 10
119.393
 20
324.718
 30
9.1
 11
119.435
 21
324.708
 31
9.1
  0
LINE
  5
ABA
330
A02
100
AcDbEntity
  8
Mesh_cs001
100
AcDbLine
 10
119.435
 20
324.708
 30
9.1
 11
120.456
 21
324.588
 31
9.1
  0
LINE
  5
ABB
330
A02
100
AcDbEntity
  8
Mesh_cs001
100
AcDbLine
 10
120.456
 20
324.588
 30
9.1
 11
120.499
 21
324.589
 31
9.1
  0
LINE
  5
ABC
330
A02
100
AcDbEntity
  8
Mesh_cs001
100
AcDbLine
 10
120.499
 20
324.589
 30
9.1
 11
121.54
 21
324.692
 31
9.1
  0
LINE
  5
ABD
330
A02
100
AcDbEntity
  8
Mesh_cs001
100
AcDbLine
 10
121.54
 20
324.692
 30
9.1
 11
121.581
 21
324.703
 31
9.1
  0
LINE
  5
ABE
330
A02
100
AcDbEntity
  8
Mesh_cs001
100
AcDbLine
 10
121.581
 20
324.703
 30
9.1
 11
122.675
 21
325.074
 31
9.1
  0
LINE
  5
ABF
330
A02
100
AcDbEntity
  8
Mesh_cs001
100
AcDbLine
 10
122.675
 20
325.074
 30
9.1
 11
122.712
 21
325.095
 31
9.1
  0
LINE
  5
AC0
330
A02
100
AcDbEntity
  8
Mesh_cs001
100
AcDbLine
 10
122.712
 20
325.095
 30
9.1
 11
123.75
 21
325.767
 31
9.1
  0
LINE
  5
AC1
330
A02
100
AcDbEntity
  8
Mesh_cs001
100
AcDbLine
 10
123.75
 20
325.767
 30
9.1
 11
123.768
 21
325.783
 31
9.1
  0
LINE
  5
AC2
330
A02
100
AcDbEntity
  8
Mesh_cs001
100
AcDbLine
 10
123.768
 20
325.783
 30
9.1
 11
124.553
 21
326.629
 31
9.1
  0
LINE
  5
AC3
330
A02
100
AcDbEntity
  8
Mesh_cs001
100
AcDbLine
 10
124.553
 20
326.629
 30
9.1
 11
124.568
 21
326.648
 31
9.1
  0
LINE
  5
AC4
330
A02
100
AcDbEntity
  8
Mesh_cs001
100
AcDbLine
 10
124.568
 20
326.648
 30
9.1
 11
135.875
 21
342.211
 31
9.1
  0
LINE
  5
AC5
330
A02
100
AcDbEntity
  8
Mesh_cs001
100
AcDbLine
 10
135.875
 20
342.211
 30
9.1
 11
136.265
 21
342.747
 31
9.1
  0
LINE
  5
AC6
330
A02
100
AcDbEntity
  8
Mesh_cs001
100
AcDbLine
 10
194.503
 20
14.9
 30
9.1
 11
195
 21
14.9
 31
9.1
  0
LINE
  5
AC7
330
A02
100
AcDbEntity
  8
Mesh_cs001
100
AcDbLine
 10
195
 20
14.9
 30
9.1
 11
195
 21
14.4033
 31
9.1
  0
LINE
  5
AC8
330
A02
100
AcDbEntity
  8
Mesh_cs001
100
AcDbLine
 10
195
 20
14.4033
 30
9.1
 11
195
 21
-3.55271e-15
 31
9.1
  0
LINE
  5
AC9
330
A02
100
AcDbEntity
  8
Mesh_cs001
100
AcDbLine
 10
195
 20
-3.79167e-15
 30
9.1
 11
180.597
 21
-2.1e-15
 31
9.1
  0
LINE
  5
ACA
330
A02
100
AcDbEntity
  8
Mesh_cs001
100
AcDbLine
 10
180.597
 20
-2.1e-15
 30
9.1
 11
180.1
 21
-2.03333e-15
 31
9.1
  0
LINE
  5
ACB
330
A02
100
AcDbEntity
  8
Mesh_cs001
100
AcDbLine
 10
180.1
 20
-2.03333e-15
 30
9.1
 11
180.1
 21
0.496668
 31
9.1
  0
LINE
  5
ACC
330
A02
100
AcDbEntity
  8
Mesh_cs001
100
AcDbLine
 10
180.1
 20
0.496668
 30
9.1
 11
180.1
 21
14.9
 31
9.1
  0
LINE
  5
ACD
330
A02
100
AcDbEntity
  8
Mesh_cs001
100
AcDbLine
 10
180.1
 20
14.9
 30
9.1
 11
194.503
 21
14.9
 31
9.1
  0
LINE
  5
ACE
330
A02
100
AcDbEntity
  8
Mesh_cs001
100
AcDbLine
 10
253.067
 20
239.469
 30
9.1
 11
261.533
 21
251.121
 31
9.1
  0
LINE
  5
ACF
330
A02
100
AcDbEntity
  8
Mesh_cs001
100
AcDbLine
 10
261.533
 20
251.121
 30
9.1
 11
261.825
 21
251.523
 31
9.1
  0
LINE
  5
AD0
330
A02
100
AcDbEntity
  8
Mesh_cs001
100
AcDbLine
 10
261.825
 20
251.523
 30
9.1
 11
262.227
 21
251.231
 31
9.1
  0
LINE
  5
AD1
330
A02
100
AcDbEntity
  8
Mesh_cs001
100
AcDbLine
 10
262.227
 20
251.231
 30
9.1
 11
273.879
 21
242.765
 31
9.1
  0
LINE
  5
AD2
330
A02
100
AcDbEntity
  8
Mesh_cs001
100
AcDbLine
 10
273.879
 20
242.765
 30
9.1
 11
265.413
 21
231.113
 31
9.1
  0
LINE
  5
AD3
330
A02
100
AcDbEntity
  8
Mesh_cs001
100
AcDbLine
 10
265.413
 20
231.113
 30
9.1
 11
265.121
 21
230.711
 31
9.1
  0
LINE
  5
AD4
330
A02
100
AcDbEntity
  8
Mesh_cs001
100
AcDbLine
 10
265.121
 20
230.711
 30
9.1
 11
264.719
 21
231.003
 31
9.1
  0
LINE
  5
AD5
330
A02
100
AcDbEntity
  8
Mesh_cs001
100
AcDbLine
 10
264.719
 20
231.003
 30
9.1
 11
253.067
 21
239.469
 31
9.1
  0
LINE
  5
AD6
330
A02
100
AcDbEntity
  8
Mesh_cs001
100
AcDbLine
 10
119.417
 20
336.571
 30
9.1
 11
119.02
 21
336.859
 31
9.1
  0
LINE
  5
AD7
330
A02
100
AcDbEntity
  8
Mesh_cs001
100
AcDbLine
 10
119.02
 20
336.859
 30
9.1
 11
107.363
 21
345.329
 31
9.1
  0
LINE
  5
AD8
330
A02
100
AcDbEntity
  8
Mesh_cs001
100
AcDbLine
 10
107.363
 20
345.329
 30
9.1
 11
107.655
 21
345.731
 31
9.1
  0
LINE
  5
AD9
330
A02
100
AcDbEntity
  8
Mesh_cs001
100
AcDbLine
 10
107.655
 20
345.731
 30
9.1
 11
116.121
 21
357.383
 31
9.1
  0
LINE
  5
ADA
330
A02
100
AcDbEntity
  8
Mesh_cs001
100
AcDbLine
 10
116.121
 20
357.383
 30
9.1
 11
127.773
 21
348.917
 31
9.1
  0
LINE
  5
ADB
330
A02
100
AcDbEntity
  8
Mesh_cs001
100
AcDbLine
 10
127.773
 20
348.917
 30
9.1
 11
128.175
 21
348.625
 31
9.1
  0
LINE
  5
ADC
330
A02
100
AcDbEntity
  8
Mesh_cs001
100
AcDbLine
 10
128.175
 20
348.625
 30
9.1
 11
127.883
 21
348.223
 31
9.1
  0
LINE
  5
ADD
330
A02
100
AcDbEntity
  8
Mesh_cs001
100
AcDbLine
 10
127.883
 20
348.223
 30
9.1
 11
119.417
 21
336.571
 31
9.1
  0
ENDSEC
  0
SECTION
  2
OBJECTS
  0
DICTIONARY
  5
F000
330
0
100
AcDbDictionary
  3
ACAD_GROUP
350
F001
  0
DICTIONARY
  5
F001
330
F000
100
AcDbDictionary
  0
ENDSEC
  0
EOF