999
FreeCAD v0.21 33771 (Git)
  0
SECTION
  2
HEADER
  9
$ACADVER
  1
AC1014
  9
$ACADMAINTVER
 70
     9
  9
$DWGCODEPAGE
  3
ANSI_1252
  9
$TEXTSTYLE
  7
STANDARD
  9
$DIMSTYLE
  2
STANDARD
  9
$DIMTXSTY
  7
STANDARD
  9
$CMLSTYLE
  2
STANDARD
  9
$LUNITS
 70
2
  9
$INSUNITS
 70
4
  9
$PEXTMAX
 10
50
 20
50
 30
50
  9
$PEXTMIN
 10
0
 20
0
 30
0
  9
$HANDSEED
  5
FFFF
  0
ENDSEC
  0
SECTION
  2
CLASSES
  0
CLASS
  1
ACDBDICTIONARYWDFLT
  2
AcDbDictionaryWithDefault
  3
ObjectDBX Classes
 90
        0
280
     0
281
     0
  0
CLASS
  1
XRECORD
  2
AcDbXrecord
  3
ObjectDBX Classes
 90
        0
280
     0
281
     0
  0
CLASS
  1
LWPOLYLINE
  2
AcDbPolyline
  3
ObjectDBX Classes
 90
        0
280
     0
281
     1
  0
ENDSEC
  0
SECTION
  2
TABLES
  0
TABLE
  2
VPORT
  5
20
330
0
100
AcDbSymbolTable
 70
     1
  0
VPORT
  5
21
330
20
100
AcDbSymbolTableRecord
100
AcDbViewportTableRecord
  2
*ACTIVE
 70
     0
  0
ENDTAB
  0
TABLE
  2
LTYPE
  5
22
330
0
100
AcDbSymbolTable
 70
     1
  0
LTYPE
  5
23
330
21
100
AcDbSymbolTableRecord
100
AcDbLinetypeTableRecord
  2
BYBLOCK
 70
     0
  3

 72
    65
 73
     0
 40
0.0
  0
LTYPE
  5
24
330
21
100
AcDbSymbolTableRecord
100
AcDbLinetypeTableRecord
  2
BYLAYER
 70
     0
  3

 72
    65
 73
     0
 40
0.0
  0
LTYPE
  5
25
330
21
100
AcDbSymbolTableRecord
100
AcDbLinetypeTableRecord
  2
CONTINUOUS
 70
     0
  3
Solid line
 72
    65
 73
     0
 40
0.0
  0
ENDTAB
  0
TABLE
  2
LAYER
  5
C23
330
0
100
AcDbSymbolTable
 70
3
  0
LAYER
  5
C24
330
C23
100
AcDbSymbolTableRecord
100
AcDbLayerTableRecord
  2
0
 70
   0
 62
   7
  6
CONTINUOUS
  0
LAYER
  5
C25
330
C23
100
AcDbSymbolTableRecord
100
AcDbLayerTableRecord
  2
none
 70
    0
 62
    7
  6
CONTINUOUS
  0
LAYER
  5
C26
330
C23
100
AcDbSymbolTableRecord
100
AcDbLayerTableRecord
  2
Mesh_cs
 70
    0
 62
    7
  6
CONTINUOUS
  0
ENDTAB
  0
TABLE
  2
STYLE
  5
70
330
0
100
AcDbSymbolTable
 70
     2
  0
STYLE
  5
71
330
70
100
AcDbSymbolTableRecord
100
AcDbTextStyleTableRecord
  2
STANDARD
 70
     0
 40
0.0
 41
1.0
 50
0.0
 71
     0
 42
2.5
  3
arial.ttf
  4

  0
STYLE
  5
72
330
70
100
AcDbSymbolTableRecord
100
AcDbTextStyleTableRecord
  2
ANNOTATIVE
 70
     0
 40
0.0
 41
1.0
 50
0.0
 71
     0
 42
2.5
  3
arial.ttf
  4

  0
ENDTAB
  0
TABLE
  2
VIEW
  5
73
330
0
100
AcDbSymbolTable
 70
     0
  0
ENDTAB
  0
TABLE
  2
UCS
  5
74
330
0
100
AcDbSymbolTable
 70
     0
  0
ENDTAB
  0
TABLE
  2
APPID
  5
75
330
0
100
AcDbSymbolTable
 70
     2
  0
APPID
  5
76
330
75
100
AcDbSymbolTableRecord
100
AcDbRegAppTableRecord
  2
ACAD
 70
     0
  0
APPID
  5
77
330
75
100
AcDbSymbolTableRecord
100
AcDbRegAppTableRecord
  2
ACADANNOTATIVE
 70
     0
  0
ENDTAB
  0
TABLE
  2
DIMSTYLE
  5
78
330
0
100
AcDbSymbolTable
 70
     2
  0
DIMSTYLE
105
79
330
78
100
AcDbSymbolTableRecord
100
AcDbDimStyleTableRecord
  2
STANDARD
 70
     0
  3

  4

  5

  6

  7

 40
0.0
 41
2.5
 42
0.625
 43
3.75
 44
1.25
 45
0.0
 46
0.0
 47
0.0
 48
0.0
140
2.5
141
2.5
142
0.0
143
0.03937007874016
144
1.0
145
0.0
146
1.0
147
0.625
 71
     0
 72
     0
 73
     0
 74
     0
 75
     0
 76
     0
 77
     1
 78
     8
170
     0
171
     3
172
     1
173
     0
174
     0
175
     0
176
     0
177
     0
178
     0
270
     2
271
     2
272
     2
273
     2
274
     3
340
71
275
     0
280
     0
281
     0
282
     0
283
     0
284
     8
285
     0
286
     0
287
     3
288
     0
  0
ENDTAB
  0
TABLE
  2
BLOCK_RECORD
  5
A01
330
0
100
AcDbSymbolTable
  70
5
  0
BLOCK_RECORD
  5
A02
330
A01
100
AcDbSymbolTableRecord
100
AcDbBlockTableRecord
  2
*MODEL_SPACE
  0
BLOCK_RECORD
  5
A03
330
A01
100
AcDbSymbolTableRecord
100
AcDbBlockTableRecord
  2
*PAPER_SPACE
  0
ENDTAB
  0
ENDSEC
  0
SECTION
  2
BLOCKS
  0
BLOCK
  5
A04
330
A02
100
AcDbEntity
  8
0
100
AcDbBlockBegin
  2
*MODEL_SPACE
 70
   0
 10
0
 20
0
 30
0
  3
*MODEL_SPACE
  1
 
  0
ENDBLK
  5
A05
330
A02
100
AcDbEntity
  8
0
100
AcDbBlockEnd
  0
BLOCK
  5
A06
330
A03
100
AcDbEntity
 67
1
  8
0
100
AcDbBlockBegin
  2
*PAPER_SPACE
 70
   0
 10
0
 20
0
 30
0
  3
*PAPER_SPACE
  1
 
  0
ENDBLK
  5
A07
330
A03
100
AcDbEntity
 67
    1
  8
0
100
AcDbBlockEnd
  0
ENDSEC
  0
SECTION
  2
ENTITIES
  0
LINE
  5
A08
330
A02
100
AcDbEntity
  8
Mesh_cs
100
AcDbLine
 10
253.067
 20
239.469
 30
11.9
 11
261.533
 21
251.121
 31
11.9
  0
LINE
  5
A09
330
A02
100
AcDbEntity
  8
Mesh_cs
100
AcDbLine
 10
261.533
 20
251.121
 30
11.9
 11
261.825
 21
251.523
 31
11.9
  0
LINE
  5
A0A
330
A02
100
AcDbEntity
  8
Mesh_cs
100
AcDbLine
 10
261.825
 20
251.523
 30
11.9
 11
273.477
 21
243.057
 31
11.9
  0
LINE
  5
A0B
330
A02
100
AcDbEntity
  8
Mesh_cs
100
AcDbLine
 10
273.477
 20
243.057
 30
11.9
 11
273.879
 21
242.765
 31
11.9
  0
LINE
  5
A0C
330
A02
100
AcDbEntity
  8
Mesh_cs
100
AcDbLine
 10
273.879
 20
242.765
 30
11.9
 11
273.587
 21
242.363
 31
11.9
  0
LINE
  5
A0D
330
A02
100
AcDbEntity
  8
Mesh_cs
100
AcDbLine
 10
273.587
 20
242.363
 30
11.9
 11
265.121
 21
230.711
 31
11.9
  0
LINE
  5
A0E
330
A02
100
AcDbEntity
  8
Mesh_cs
100
AcDbLine
 10
265.121
 20
230.711
 30
11.9
 11
253.469
 21
239.177
 31
11.9
  0
LINE
  5
A0F
330
A02
100
AcDbEntity
  8
Mesh_cs
100
AcDbLine
 10
253.469
 20
239.177
 30
11.9
 11
253.067
 21
239.469
 31
11.9
  0
LINE
  5
A10
330
A02
100
AcDbEntity
  8
Mesh_cs
100
AcDbLine
 10
258.288
 20
219.711
 30
11.9
 11
258.271
 21
219.683
 31
11.9
  0
LINE
  5
A11
330
A02
100
AcDbEntity
  8
Mesh_cs
100
AcDbLine
 10
258.271
 20
219.683
 30
11.9
 11
256.179
 21
216.317
 31
11.9
  0
LINE
  5
A12
330
A02
100
AcDbEntity
  8
Mesh_cs
100
AcDbLine
 10
256.179
 20
216.317
 30
11.9
 11
254.119
 21
212.93
 31
11.9
  0
LINE
  5
A13
330
A02
100
AcDbEntity
  8
Mesh_cs
100
AcDbLine
 10
254.119
 20
212.93
 30
11.9
 11
254.102
 21
212.902
 31
11.9
  0
LINE
  5
A14
330
A02
100
AcDbEntity
  8
Mesh_cs
100
AcDbLine
 10
254.102
 20
212.902
 30
11.9
 11
254.085
 21
212.873
 31
11.9
  0
LINE
  5
A15
330
A02
100
AcDbEntity
  8
Mesh_cs
100
AcDbLine
 10
254.085
 20
212.873
 30
11.9
 11
252.058
 21
209.467
 31
11.9
  0
LINE
  5
A16
330
A02
100
AcDbEntity
  8
Mesh_cs
100
AcDbLine
 10
252.058
 20
209.467
 30
11.9
 11
250.065
 21
206.041
 31
11.9
  0
LINE
  5
A17
330
A02
100
AcDbEntity
  8
Mesh_cs
100
AcDbLine
 10
250.065
 20
206.041
 30
11.9
 11
250.048
 21
206.013
 31
11.9
  0
LINE
  5
A18
330
A02
100
AcDbEntity
  8
Mesh_cs
100
AcDbLine
 10
250.048
 20
206.013
 30
11.9
 11
250.032
 21
205.984
 31
11.9
  0
LINE
  5
A19
330
A02
100
AcDbEntity
  8
Mesh_cs
100
AcDbLine
 10
250.032
 20
205.984
 30
11.9
 11
248.071
 21
202.539
 31
11.9
  0
LINE
  5
A1A
330
A02
100
AcDbEntity
  8
Mesh_cs
100
AcDbLine
 10
248.071
 20
202.539
 30
11.9
 11
248.055
 21
202.51
 31
11.9
  0
LINE
  5
A1B
330
A02
100
AcDbEntity
  8
Mesh_cs
100
AcDbLine
 10
248.055
 20
202.51
 30
11.9
 11
246.128
 21
199.046
 31
11.9
  0
LINE
  5
A1C
330
A02
100
AcDbEntity
  8
Mesh_cs
100
AcDbLine
 10
246.128
 20
199.046
 30
11.9
 11
246.112
 21
199.017
 31
11.9
  0
LINE
  5
A1D
330
A02
100
AcDbEntity
  8
Mesh_cs
100
AcDbLine
 10
246.112
 20
199.017
 30
11.9
 11
244.219
 21
195.535
 31
11.9
  0
LINE
  5
A1E
330
A02
100
AcDbEntity
  8
Mesh_cs
100
AcDbLine
 10
244.219
 20
195.535
 30
11.9
 11
244.203
 21
195.506
 31
11.9
  0
LINE
  5
A1F
330
A02
100
AcDbEntity
  8
Mesh_cs
100
AcDbLine
 10
244.203
 20
195.506
 30
11.9
 11
242.344
 21
192.006
 31
11.9
  0
LINE
  5
A20
330
A02
100
AcDbEntity
  8
Mesh_cs
100
AcDbLine
 10
242.344
 20
192.006
 30
11.9
 11
242.329
 21
191.976
 31
11.9
  0
LINE
  5
A21
330
A02
100
AcDbEntity
  8
Mesh_cs
100
AcDbLine
 10
242.329
 20
191.976
 30
11.9
 11
240.503
 21
188.458
 31
11.9
  0
LINE
  5
A22
330
A02
100
AcDbEntity
  8
Mesh_cs
100
AcDbLine
 10
240.503
 20
188.458
 30
11.9
 11
240.488
 21
188.428
 31
11.9
  0
LINE
  5
A23
330
A02
100
AcDbEntity
  8
Mesh_cs
100
AcDbLine
 10
240.488
 20
188.428
 30
11.9
 11
238.697
 21
184.893
 31
11.9
  0
LINE
  5
A24
330
A02
100
AcDbEntity
  8
Mesh_cs
100
AcDbLine
 10
238.697
 20
184.893
 30
11.9
 11
238.682
 21
184.863
 31
11.9
  0
LINE
  5
A25
330
A02
100
AcDbEntity
  8
Mesh_cs
100
AcDbLine
 10
238.682
 20
184.863
 30
11.9
 11
236.925
 21
181.31
 31
11.9
  0
LINE
  5
A26
330
A02
100
AcDbEntity
  8
Mesh_cs
100
AcDbLine
 10
236.925
 20
181.31
 30
11.9
 11
235.202
 21
177.741
 31
11.9
  0
LINE
  5
A27
330
A02
100
AcDbEntity
  8
Mesh_cs
100
AcDbLine
 10
235.202
 20
177.741
 30
11.9
 11
235.188
 21
177.711
 31
11.9
  0
LINE
  5
A28
330
A02
100
AcDbEntity
  8
Mesh_cs
100
AcDbLine
 10
235.188
 20
177.711
 30
11.9
 11
235.173
 21
177.681
 31
11.9
  0
LINE
  5
A29
330
A02
100
AcDbEntity
  8
Mesh_cs
100
AcDbLine
 10
235.173
 20
177.681
 30
11.9
 11
233.485
 21
174.095
 31
11.9
  0
LINE
  5
A2A
330
A02
100
AcDbEntity
  8
Mesh_cs
100
AcDbLine
 10
233.485
 20
174.095
 30
11.9
 11
233.471
 21
174.065
 31
11.9
  0
LINE
  5
A2B
330
A02
100
AcDbEntity
  8
Mesh_cs
100
AcDbLine
 10
233.471
 20
174.065
 30
11.9
 11
231.818
 21
170.462
 31
11.9
  0
LINE
  5
A2C
330
A02
100
AcDbEntity
  8
Mesh_cs
100
AcDbLine
 10
231.818
 20
170.462
 30
11.9
 11
230.2
 21
166.844
 31
11.9
  0
LINE
  5
A2D
330
A02
100
AcDbEntity
  8
Mesh_cs
100
AcDbLine
 10
230.2
 20
166.844
 30
11.9
 11
230.186
 21
166.814
 31
11.9
  0
LINE
  5
A2E
330
A02
100
AcDbEntity
  8
Mesh_cs
100
AcDbLine
 10
230.186
 20
166.814
 30
11.9
 11
230.173
 21
166.784
 31
11.9
  0
LINE
  5
A2F
330
A02
100
AcDbEntity
  8
Mesh_cs
100
AcDbLine
 10
230.173
 20
166.784
 30
11.9
 11
228.59
 21
163.15
 31
11.9
  0
LINE
  5
A30
330
A02
100
AcDbEntity
  8
Mesh_cs
100
AcDbLine
 10
228.59
 20
163.15
 30
11.9
 11
228.577
 21
163.119
 31
11.9
  0
LINE
  5
A31
330
A02
100
AcDbEntity
  8
Mesh_cs
100
AcDbLine
 10
228.577
 20
163.119
 30
11.9
 11
227.029
 21
159.471
 31
11.9
  0
LINE
  5
A32
330
A02
100
AcDbEntity
  8
Mesh_cs
100
AcDbLine
 10
227.029
 20
159.471
 30
11.9
 11
227.016
 21
159.44
 31
11.9
  0
LINE
  5
A33
330
A02
100
AcDbEntity
  8
Mesh_cs
100
AcDbLine
 10
227.016
 20
159.44
 30
11.9
 11
225.503
 21
155.777
 31
11.9
  0
LINE
  5
A34
330
A02
100
AcDbEntity
  8
Mesh_cs
100
AcDbLine
 10
225.503
 20
155.777
 30
11.9
 11
225.491
 21
155.746
 31
11.9
  0
LINE
  5
A35
330
A02
100
AcDbEntity
  8
Mesh_cs
100
AcDbLine
 10
225.491
 20
155.746
 30
11.9
 11
224.014
 21
152.068
 31
11.9
  0
LINE
  5
A36
330
A02
100
AcDbEntity
  8
Mesh_cs
100
AcDbLine
 10
224.014
 20
152.068
 30
11.9
 11
222.572
 21
148.376
 31
11.9
  0
LINE
  5
A37
330
A02
100
AcDbEntity
  8
Mesh_cs
100
AcDbLine
 10
222.572
 20
148.376
 30
11.9
 11
222.56
 21
148.345
 31
11.9
  0
LINE
  5
A38
330
A02
100
AcDbEntity
  8
Mesh_cs
100
AcDbLine
 10
222.56
 20
148.345
 30
11.9
 11
222.549
 21
148.314
 31
11.9
  0
LINE
  5
A39
330
A02
100
AcDbEntity
  8
Mesh_cs
100
AcDbLine
 10
222.549
 20
148.314
 30
11.9
 11
221.143
 21
144.608
 31
11.9
  0
LINE
  5
A3A
330
A02
100
AcDbEntity
  8
Mesh_cs
100
AcDbLine
 10
221.143
 20
144.608
 30
11.9
 11
221.131
 21
144.577
 31
11.9
  0
LINE
  5
A3B
330
A02
100
AcDbEntity
  8
Mesh_cs
100
AcDbLine
 10
221.131
 20
144.577
 30
11.9
 11
219.762
 21
140.857
 31
11.9
  0
LINE
  5
A3C
330
A02
100
AcDbEntity
  8
Mesh_cs
100
AcDbLine
 10
219.762
 20
140.857
 30
11.9
 11
219.75
 21
140.826
 31
11.9
  0
LINE
  5
A3D
330
A02
100
AcDbEntity
  8
Mesh_cs
100
AcDbLine
 10
219.75
 20
140.826
 30
11.9
 11
218.417
 21
137.094
 31
11.9
  0
LINE
  5
A3E
330
A02
100
AcDbEntity
  8
Mesh_cs
100
AcDbLine
 10
218.417
 20
137.094
 30
11.9
 11
218.406
 21
137.062
 31
11.9
  0
LINE
  5
A3F
330
A02
100
AcDbEntity
  8
Mesh_cs
100
AcDbLine
 10
218.406
 20
137.062
 30
11.9
 11
217.108
 21
133.317
 31
11.9
  0
LINE
  5
A40
330
A02
100
AcDbEntity
  8
Mesh_cs
100
AcDbLine
 10
217.108
 20
133.317
 30
11.9
 11
217.098
 21
133.286
 31
11.9
  0
LINE
  5
A41
330
A02
100
AcDbEntity
  8
Mesh_cs
100
AcDbLine
 10
217.098
 20
133.286
 30
11.9
 11
215.837
 21
129.528
 31
11.9
  0
LINE
  5
A42
330
A02
100
AcDbEntity
  8
Mesh_cs
100
AcDbLine
 10
215.837
 20
129.528
 30
11.9
 11
215.826
 21
129.497
 31
11.9
  0
LINE
  5
A43
330
A02
100
AcDbEntity
  8
Mesh_cs
100
AcDbLine
 10
215.826
 20
129.497
 30
11.9
 11
214.602
 21
125.727
 31
11.9
  0
LINE
  5
A44
330
A02
100
AcDbEntity
  8
Mesh_cs
100
AcDbLine
 10
214.602
 20
125.727
 30
11.9
 11
214.592
 21
125.695
 31
11.9
  0
LINE
  5
A45
330
A02
100
AcDbEntity
  8
Mesh_cs
100
AcDbLine
 10
214.592
 20
125.695
 30
11.9
 11
213.403
 21
121.914
 31
11.9
  0
LINE
  5
A46
330
A02
100
AcDbEntity
  8
Mesh_cs
100
AcDbLine
 10
213.403
 20
121.914
 30
11.9
 11
213.394
 21
121.882
 31
11.9
  0
LINE
  5
A47
330
A02
100
AcDbEntity
  8
Mesh_cs
100
AcDbLine
 10
213.394
 20
121.882
 30
11.9
 11
212.242
 21
118.09
 31
11.9
  0
LINE
  5
A48
330
A02
100
AcDbEntity
  8
Mesh_cs
100
AcDbLine
 10
212.242
 20
118.09
 30
11.9
 11
211.127
 21
114.287
 31
11.9
  0
LINE
  5
A49
330
A02
100
AcDbEntity
  8
Mesh_cs
100
AcDbLine
 10
211.127
 20
114.287
 30
11.9
 11
211.118
 21
114.255
 31
11.9
  0
LINE
  5
A4A
330
A02
100
AcDbEntity
  8
Mesh_cs
100
AcDbLine
 10
211.118
 20
114.255
 30
11.9
 11
211.109
 21
114.223
 31
11.9
  0
LINE
  5
A4B
330
A02
100
AcDbEntity
  8
Mesh_cs
100
AcDbLine
 10
211.109
 20
114.223
 30
11.9
 11
210.031
 21
110.409
 31
11.9
  0
LINE
  5
A4C
330
A02
100
AcDbEntity
  8
Mesh_cs
100
AcDbLine
 10
210.031
 20
110.409
 30
11.9
 11
210.022
 21
110.376
 31
11.9
  0
LINE
  5
A4D
330
A02
100
AcDbEntity
  8
Mesh_cs
100
AcDbLine
 10
210.022
 20
110.376
 30
11.9
 11
208.981
 21
106.552
 31
11.9
  0
LINE
  5
A4E
330
A02
100
AcDbEntity
  8
Mesh_cs
100
AcDbLine
 10
208.981
 20
106.552
 30
11.9
 11
208.973
 21
106.52
 31
11.9
  0
LINE
  5
A4F
330
A02
100
AcDbEntity
  8
Mesh_cs
100
AcDbLine
 10
208.973
 20
106.52
 30
11.9
 11
207.969
 21
102.686
 31
11.9
  0
LINE
  5
A50
330
A02
100
AcDbEntity
  8
Mesh_cs
100
AcDbLine
 10
207.969
 20
102.686
 30
11.9
 11
207.961
 21
102.653
 31
11.9
  0
LINE
  5
A51
330
A02
100
AcDbEntity
  8
Mesh_cs
100
AcDbLine
 10
207.961
 20
102.653
 30
11.9
 11
206.994
 21
98.8097
 31
11.9
  0
LINE
  5
A52
330
A02
100
AcDbEntity
  8
Mesh_cs
100
AcDbLine
 10
206.994
 20
98.8097
 30
11.9
 11
206.986
 21
98.7774
 31
11.9
  0
LINE
  5
A53
330
A02
100
AcDbEntity
  8
Mesh_cs
100
AcDbLine
 10
206.986
 20
98.7774
 30
11.9
 11
206.056
 21
94.9245
 31
11.9
  0
LINE
  5
A54
330
A02
100
AcDbEntity
  8
Mesh_cs
100
AcDbLine
 10
206.056
 20
94.9245
 30
11.9
 11
206.049
 21
94.8921
 31
11.9
  0
LINE
  5
A55
330
A02
100
AcDbEntity
  8
Mesh_cs
100
AcDbLine
 10
206.049
 20
94.8921
 30
11.9
 11
205.157
 21
91.0304
 31
11.9
  0
LINE
  5
A56
330
A02
100
AcDbEntity
  8
Mesh_cs
100
AcDbLine
 10
205.157
 20
91.0304
 30
11.9
 11
205.149
 21
90.9978
 31
11.9
  0
LINE
  5
A57
330
A02
100
AcDbEntity
  8
Mesh_cs
100
AcDbLine
 10
205.149
 20
90.9978
 30
11.9
 11
204.295
 21
87.1277
 31
11.9
  0
LINE
  5
A58
330
A02
100
AcDbEntity
  8
Mesh_cs
100
AcDbLine
 10
204.295
 20
87.1277
 30
11.9
 11
204.288
 21
87.0951
 31
11.9
  0
LINE
  5
A59
330
A02
100
AcDbEntity
  8
Mesh_cs
100
AcDbLine
 10
204.288
 20
87.0951
 30
11.9
 11
203.47
 21
83.2169
 31
11.9
  0
LINE
  5
A5A
330
A02
100
AcDbEntity
  8
Mesh_cs
100
AcDbLine
 10
203.47
 20
83.2169
 30
11.9
 11
203.464
 21
83.1842
 31
11.9
  0
LINE
  5
A5B
330
A02
100
AcDbEntity
  8
Mesh_cs
100
AcDbLine
 10
203.464
 20
83.1842
 30
11.9
 11
202.684
 21
79.2983
 31
11.9
  0
LINE
  5
A5C
330
A02
100
AcDbEntity
  8
Mesh_cs
100
AcDbLine
 10
202.684
 20
79.2983
 30
11.9
 11
202.678
 21
79.2656
 31
11.9
  0
LINE
  5
A5D
330
A02
100
AcDbEntity
  8
Mesh_cs
100
AcDbLine
 10
202.678
 20
79.2656
 30
11.9
 11
201.936
 21
75.3723
 31
11.9
  0
LINE
  5
A5E
330
A02
100
AcDbEntity
  8
Mesh_cs
100
AcDbLine
 10
201.936
 20
75.3723
 30
11.9
 11
201.93
 21
75.3395
 31
11.9
  0
LINE
  5
A5F
330
A02
100
AcDbEntity
  8
Mesh_cs
100
AcDbLine
 10
201.93
 20
75.3395
 30
11.9
 11
201.225
 21
71.4392
 31
11.9
  0
LINE
  5
A60
330
A02
100
AcDbEntity
  8
Mesh_cs
100
AcDbLine
 10
201.225
 20
71.4392
 30
11.9
 11
201.22
 21
71.4063
 31
11.9
  0
LINE
  5
A61
330
A02
100
AcDbEntity
  8
Mesh_cs
100
AcDbLine
 10
201.22
 20
71.4063
 30
11.9
 11
200.553
 21
67.4994
 31
11.9
  0
LINE
  5
A62
330
A02
100
AcDbEntity
  8
Mesh_cs
100
AcDbLine
 10
200.553
 20
67.4994
 30
11.9
 11
200.548
 21
67.4665
 31
11.9
  0
LINE
  5
A63
330
A02
100
AcDbEntity
  8
Mesh_cs
100
AcDbLine
 10
200.548
 20
67.4665
 30
11.9
 11
199.919
 21
63.5533
 31
11.9
  0
LINE
  5
A64
330
A02
100
AcDbEntity
  8
Mesh_cs
100
AcDbLine
 10
199.919
 20
63.5533
 30
11.9
 11
199.914
 21
63.5203
 31
11.9
  0
LINE
  5
A65
330
A02
100
AcDbEntity
  8
Mesh_cs
100
AcDbLine
 10
199.914
 20
63.5203
 30
11.9
 11
199.323
 21
59.6012
 31
11.9
  0
LINE
  5
A66
330
A02
100
AcDbEntity
  8
Mesh_cs
100
AcDbLine
 10
199.323
 20
59.6012
 30
11.9
 11
199.318
 21
59.5682
 31
11.9
  0
LINE
  5
A67
330
A02
100
AcDbEntity
  8
Mesh_cs
100
AcDbLine
 10
199.318
 20
59.5682
 30
11.9
 11
198.765
 21
55.6436
 31
11.9
  0
LINE
  5
A68
330
A02
100
AcDbEntity
  8
Mesh_cs
100
AcDbLine
 10
198.765
 20
55.6436
 30
11.9
 11
198.761
 21
55.6106
 31
11.9
  0
LINE
  5
A69
330
A02
100
AcDbEntity
  8
Mesh_cs
100
AcDbLine
 10
198.761
 20
55.6106
 30
11.9
 11
198.246
 21
51.6807
 31
11.9
  0
LINE
  5
A6A
330
A02
100
AcDbEntity
  8
Mesh_cs
100
AcDbLine
 10
198.246
 20
51.6807
 30
11.9
 11
198.242
 21
51.6477
 31
11.9
  0
LINE
  5
A6B
330
A02
100
AcDbEntity
  8
Mesh_cs
100
AcDbLine
 10
198.242
 20
51.6477
 30
11.9
 11
197.765
 21
47.7131
 31
11.9
  0
LINE
  5
A6C
330
A02
100
AcDbEntity
  8
Mesh_cs
100
AcDbLine
 10
197.765
 20
47.7131
 30
11.9
 11
197.762
 21
47.68
 31
11.9
  0
LINE
  5
A6D
330
A02
100
AcDbEntity
  8
Mesh_cs
100
AcDbLine
 10
197.762
 20
47.68
 30
11.9
 11
197.323
 21
43.7409
 31
11.9
  0
LINE
  5
A6E
330
A02
100
AcDbEntity
  8
Mesh_cs
100
AcDbLine
 10
197.323
 20
43.7409
 30
11.9
 11
197.319
 21
43.7078
 31
11.9
  0
LINE
  5
A6F
330
A02
100
AcDbEntity
  8
Mesh_cs
100
AcDbLine
 10
197.319
 20
43.7078
 30
11.9
 11
196.919
 21
39.7647
 31
11.9
  0
LINE
  5
A70
330
A02
100
AcDbEntity
  8
Mesh_cs
100
AcDbLine
 10
196.919
 20
39.7647
 30
11.9
 11
196.916
 21
39.7315
 31
11.9
  0
LINE
  5
A71
330
A02
100
AcDbEntity
  8
Mesh_cs
100
AcDbLine
 10
196.916
 20
39.7315
 30
11.9
 11
196.553
 21
35.7847
 31
11.9
  0
LINE
  5
A72
330
A02
100
AcDbEntity
  8
Mesh_cs
100
AcDbLine
 10
196.553
 20
35.7847
 30
11.9
 11
196.55
 21
35.7515
 31
11.9
  0
LINE
  5
A73
330
A02
100
AcDbEntity
  8
Mesh_cs
100
AcDbLine
 10
196.55
 20
35.7515
 30
11.9
 11
196.226
 21
31.8014
 31
11.9
  0
LINE
  5
A74
330
A02
100
AcDbEntity
  8
Mesh_cs
100
AcDbLine
 10
196.226
 20
31.8014
 30
11.9
 11
195.94
 21
27.8483
 31
11.9
  0
LINE
  5
A75
330
A02
100
AcDbEntity
  8
Mesh_cs
100
AcDbLine
 10
195.94
 20
27.8483
 30
11.9
 11
195.936
 21
27.812
 31
11.9
  0
LINE
  5
A76
330
A02
100
AcDbEntity
  8
Mesh_cs
100
AcDbLine
 10
195.936
 20
27.812
 30
11.9
 11
195.693
 21
27.4395
 31
11.9
  0
LINE
  5
A77
330
A02
100
AcDbEntity
  8
Mesh_cs
100
AcDbLine
 10
195.693
 20
27.4395
 30
11.9
 11
195.486
 21
27.0505
 31
11.9
  0
LINE
  5
A78
330
A02
100
AcDbEntity
  8
Mesh_cs
100
AcDbLine
 10
195.486
 20
27.0505
 30
11.9
 11
195.312
 21
26.6376
 31
11.9
  0
LINE
  5
A79
330
A02
100
AcDbEntity
  8
Mesh_cs
100
AcDbLine
 10
195.312
 20
26.6376
 30
11.9
 11
195.176
 21
26.2144
 31
11.9
  0
LINE
  5
A7A
330
A02
100
AcDbEntity
  8
Mesh_cs
100
AcDbLine
 10
195.176
 20
26.2144
 30
11.9
 11
195.078
 21
25.7808
 31
11.9
  0
LINE
  5
A7B
330
A02
100
AcDbEntity
  8
Mesh_cs
100
AcDbLine
 10
195.078
 20
25.7808
 30
11.9
 11
195.02
 21
25.344
 31
11.9
  0
LINE
  5
A7C
330
A02
100
AcDbEntity
  8
Mesh_cs
100
AcDbLine
 10
195.02
 20
25.344
 30
11.9
 11
195.019
 21
25.3292
 31
11.9
  0
LINE
  5
A7D
330
A02
100
AcDbEntity
  8
Mesh_cs
100
AcDbLine
 10
195.019
 20
25.3292
 30
11.9
 11
195
 21
24.9
 31
11.9
  0
LINE
  5
A7E
330
A02
100
AcDbEntity
  8
Mesh_cs
100
AcDbLine
 10
195
 20
24.9
 30
11.9
 11
175.763
 21
24.9
 31
11.9
  0
LINE
  5
A7F
330
A02
100
AcDbEntity
  8
Mesh_cs
100
AcDbLine
 10
175.763
 20
24.9
 30
11.9
 11
175.1
 21
24.9
 31
11.9
  0
LINE
  5
A80
330
A02
100
AcDbEntity
  8
Mesh_cs
100
AcDbLine
 10
175.1
 20
24.9
 30
11.9
 11
175.089
 21
24.8996
 31
11.9
  0
LINE
  5
A81
330
A02
100
AcDbEntity
  8
Mesh_cs
100
AcDbLine
 10
175.089
 20
24.8996
 30
11.9
 11
174.7
 21
24.884
 31
11.9
  0
LINE
  5
A82
330
A02
100
AcDbEntity
  8
Mesh_cs
100
AcDbLine
 10
174.7
 20
24.884
 30
11.9
 11
174.689
 21
24.8828
 31
11.9
  0
LINE
  5
A83
330
A02
100
AcDbEntity
  8
Mesh_cs
100
AcDbLine
 10
174.689
 20
24.8828
 30
11.9
 11
174.302
 21
24.8358
 31
11.9
  0
LINE
  5
A84
330
A02
100
AcDbEntity
  8
Mesh_cs
100
AcDbLine
 10
174.302
 20
24.8358
 30
11.9
 11
174.287
 21
24.8332
 31
11.9
  0
LINE
  5
A85
330
A02
100
AcDbEntity
  8
Mesh_cs
100
AcDbLine
 10
174.287
 20
24.8332
 30
11.9
 11
173.94
 21
24.7636
 31
11.9
  0
LINE
  5
A86
330
A02
100
AcDbEntity
  8
Mesh_cs
100
AcDbLine
 10
173.94
 20
24.7636
 30
11.9
 11
173.926
 21
24.7597
 31
11.9
  0
LINE
  5
A87
330
A02
100
AcDbEntity
  8
Mesh_cs
100
AcDbLine
 10
173.926
 20
24.7597
 30
11.9
 11
173.551
 21
24.6542
 31
11.9
  0
LINE
  5
A88
330
A02
100
AcDbEntity
  8
Mesh_cs
100
AcDbLine
 10
173.551
 20
24.6542
 30
11.9
 11
173.187
 21
24.5188
 31
11.9
  0
LINE
  5
A89
330
A02
100
AcDbEntity
  8
Mesh_cs
100
AcDbLine
 10
173.187
 20
24.5188
 30
11.9
 11
173.173
 21
24.5137
 31
11.9
  0
LINE
  5
A8A
330
A02
100
AcDbEntity
  8
Mesh_cs
100
AcDbLine
 10
173.173
 20
24.5137
 30
11.9
 11
172.82
 21
24.3494
 31
11.9
  0
LINE
  5
A8B
330
A02
100
AcDbEntity
  8
Mesh_cs
100
AcDbLine
 10
172.82
 20
24.3494
 30
11.9
 11
172.807
 21
24.3431
 31
11.9
  0
LINE
  5
A8C
330
A02
100
AcDbEntity
  8
Mesh_cs
100
AcDbLine
 10
172.807
 20
24.3431
 30
11.9
 11
172.468
 21
24.151
 31
11.9
  0
LINE
  5
A8D
330
A02
100
AcDbEntity
  8
Mesh_cs
100
AcDbLine
 10
172.468
 20
24.151
 30
11.9
 11
172.456
 21
24.1435
 31
11.9
  0
LINE
  5
A8E
330
A02
100
AcDbEntity
  8
Mesh_cs
100
AcDbLine
 10
172.456
 20
24.1435
 30
11.9
 11
172.134
 21
23.9248
 31
11.9
  0
LINE
  5
A8F
330
A02
100
AcDbEntity
  8
Mesh_cs
100
AcDbLine
 10
172.134
 20
23.9248
 30
11.9
 11
172.122
 21
23.9162
 31
11.9
  0
LINE
  5
A90
330
A02
100
AcDbEntity
  8
Mesh_cs
100
AcDbLine
 10
172.122
 20
23.9162
 30
11.9
 11
171.819
 21
23.6724
 31
11.9
  0
LINE
  5
A91
330
A02
100
AcDbEntity
  8
Mesh_cs
100
AcDbLine
 10
171.819
 20
23.6724
 30
11.9
 11
171.807
 21
23.6627
 31
11.9
  0
LINE
  5
A92
330
A02
100
AcDbEntity
  8
Mesh_cs
100
AcDbLine
 10
171.807
 20
23.6627
 30
11.9
 11
171.495
 21
23.3642
 31
11.9
  0
LINE
  5
A93
330
A02
100
AcDbEntity
  8
Mesh_cs
100
AcDbLine
 10
171.495
 20
23.3642
 30
11.9
 11
171.485
 21
23.3546
 31
11.9
  0
LINE
  5
A94
330
A02
100
AcDbEntity
  8
Mesh_cs
100
AcDbLine
 10
171.485
 20
23.3546
 30
11.9
 11
171.201
 21
23.0294
 31
11.9
  0
LINE
  5
A95
330
A02
100
AcDbEntity
  8
Mesh_cs
100
AcDbLine
 10
171.201
 20
23.0294
 30
11.9
 11
171.192
 21
23.0191
 31
11.9
  0
LINE
  5
A96
330
A02
100
AcDbEntity
  8
Mesh_cs
100
AcDbLine
 10
171.192
 20
23.0191
 30
11.9
 11
170.938
 21
22.6698
 31
11.9
  0
LINE
  5
A97
330
A02
100
AcDbEntity
  8
Mesh_cs
100
AcDbLine
 10
170.938
 20
22.6698
 30
11.9
 11
170.93
 21
22.6588
 31
11.9
  0
LINE
  5
A98
330
A02
100
AcDbEntity
  8
Mesh_cs
100
AcDbLine
 10
170.93
 20
22.6588
 30
11.9
 11
170.708
 21
22.2883
 31
11.9
  0
LINE
  5
A99
330
A02
100
AcDbEntity
  8
Mesh_cs
100
AcDbLine
 10
170.708
 20
22.2883
 30
11.9
 11
170.701
 21
22.2767
 31
11.9
  0
LINE
  5
A9A
330
A02
100
AcDbEntity
  8
Mesh_cs
100
AcDbLine
 10
170.701
 20
22.2767
 30
11.9
 11
170.695
 21
22.2645
 31
11.9
  0
LINE
  5
A9B
330
A02
100
AcDbEntity
  8
Mesh_cs
100
AcDbLine
 10
170.695
 20
22.2645
 30
11.9
 11
170.507
 21
21.8756
 31
11.9
  0
LINE
  5
A9C
330
A02
100
AcDbEntity
  8
Mesh_cs
100
AcDbLine
 10
170.507
 20
21.8756
 30
11.9
 11
170.502
 21
21.863
 31
11.9
  0
LINE
  5
A9D
330
A02
100
AcDbEntity
  8
Mesh_cs
100
AcDbLine
 10
170.502
 20
21.863
 30
11.9
 11
170.349
 21
21.4589
 31
11.9
  0
LINE
  5
A9E
330
A02
100
AcDbEntity
  8
Mesh_cs
100
AcDbLine
 10
170.349
 20
21.4589
 30
11.9
 11
170.345
 21
21.4459
 31
11.9
  0
LINE
  5
A9F
330
A02
100
AcDbEntity
  8
Mesh_cs
100
AcDbLine
 10
170.345
 20
21.4459
 30
11.9
 11
170.229
 21
21.0298
 31
11.9
  0
LINE
  5
AA0
330
A02
100
AcDbEntity
  8
Mesh_cs
100
AcDbLine
 10
170.229
 20
21.0298
 30
11.9
 11
170.227
 21
21.0165
 31
11.9
  0
LINE
  5
AA1
330
A02
100
AcDbEntity
  8
Mesh_cs
100
AcDbLine
 10
170.227
 20
21.0165
 30
11.9
 11
170.148
 21
20.5917
 31
11.9
  0
LINE
  5
AA2
330
A02
100
AcDbEntity
  8
Mesh_cs
100
AcDbLine
 10
170.148
 20
20.5917
 30
11.9
 11
170.146
 21
20.5778
 31
11.9
  0
LINE
  5
AA3
330
A02
100
AcDbEntity
  8
Mesh_cs
100
AcDbLine
 10
170.146
 20
20.5778
 30
11.9
 11
170.112
 21
20.2463
 31
11.9
  0
LINE
  5
AA4
330
A02
100
AcDbEntity
  8
Mesh_cs
100
AcDbLine
 10
170.112
 20
20.2463
 30
11.9
 11
170.111
 21
20.2327
 31
11.9
  0
LINE
  5
AA5
330
A02
100
AcDbEntity
  8
Mesh_cs
100
AcDbLine
 10
170.111
 20
20.2327
 30
11.9
 11
170.1
 21
19.9
 31
11.9
  0
LINE
  5
AA6
330
A02
100
AcDbEntity
  8
Mesh_cs
100
AcDbLine
 10
170.1
 20
19.9
 30
11.9
 11
170.1
 21
0.663337
 31
11.9
  0
LINE
  5
AA7
330
A02
100
AcDbEntity
  8
Mesh_cs
100
AcDbLine
 10
170.1
 20
0.663337
 30
11.9
 11
170.1
 21
5.08482e-14
 31
11.9
  0
LINE
  5
AA8
330
A02
100
AcDbEntity
  8
Mesh_cs
100
AcDbLine
 10
170.1
 20
5.08333e-14
 30
11.9
 11
164.59
 21
5.19e-14
 31
11.9
  0
LINE
  5
AA9
330
A02
100
AcDbEntity
  8
Mesh_cs
100
AcDbLine
 10
164.59
 20
5.19e-14
 30
11.9
 11
115
 21
6e-14
 31
11.9
  0
LINE
  5
AAA
330
A02
100
AcDbEntity
  8
Mesh_cs
100
AcDbLine
 10
115
 20
6e-14
 30
11.9
 11
115.002
 21
0.442526
 31
11.9
  0
LINE
  5
AAB
330
A02
100
AcDbEntity
  8
Mesh_cs
100
AcDbLine
 10
115.002
 20
0.442526
 30
11.9
 11
115.02
 21
4.42525
 31
11.9
  0
LINE
  5
AAC
330
A02
100
AcDbEntity
  8
Mesh_cs
100
AcDbLine
 10
115.02
 20
4.42525
 30
11.9
 11
115.026
 21
4.86774
 31
11.9
  0
LINE
  5
AAD
330
A02
100
AcDbEntity
  8
Mesh_cs
100
AcDbLine
 10
115.026
 20
4.86774
 30
11.9
 11
115.079
 21
8.85014
 31
11.9
  0
LINE
  5
AAE
330
A02
100
AcDbEntity
  8
Mesh_cs
100
AcDbLine
 10
115.079
 20
8.85014
 30
11.9
 11
115.169
 21
12.8319
 31
11.9
  0
LINE
  5
AAF
330
A02
100
AcDbEntity
  8
Mesh_cs
100
AcDbLine
 10
115.169
 20
12.8319
 30
11.9
 11
115.179
 21
13.2743
 31
11.9
  0
LINE
  5
AB0
330
A02
100
AcDbEntity
  8
Mesh_cs
100
AcDbLine
 10
115.179
 20
13.2743
 30
11.9
 11
115.304
 21
17.2551
 31
11.9
  0
LINE
  5
AB1
330
A02
100
AcDbEntity
  8
Mesh_cs
100
AcDbLine
 10
115.304
 20
17.2551
 30
11.9
 11
115.318
 21
17.6974
 31
11.9
  0
LINE
  5
AB2
330
A02
100
AcDbEntity
  8
Mesh_cs
100
AcDbLine
 10
115.318
 20
17.6974
 30
11.9
 11
115.336
 21
18.1396
 31
11.9
  0
LINE
  5
AB3
330
A02
100
AcDbEntity
  8
Mesh_cs
100
AcDbLine
 10
115.336
 20
18.1396
 30
11.9
 11
115.496
 21
22.1191
 31
11.9
  0
LINE
  5
AB4
330
A02
100
AcDbEntity
  8
Mesh_cs
100
AcDbLine
 10
115.496
 20
22.1191
 30
11.9
 11
115.693
 21
26.097
 31
11.9
  0
LINE
  5
AB5
330
A02
100
AcDbEntity
  8
Mesh_cs
100
AcDbLine
 10
115.693
 20
26.097
 30
11.9
 11
115.715
 21
26.539
 31
11.9
  0
LINE
  5
AB6
330
A02
100
AcDbEntity
  8
Mesh_cs
100
AcDbLine
 10
115.715
 20
26.539
 30
11.9
 11
115.947
 21
30.515
 31
11.9
  0
LINE
  5
AB7
330
A02
100
AcDbEntity
  8
Mesh_cs
100
AcDbLine
 10
115.947
 20
30.515
 30
11.9
 11
115.973
 21
30.9568
 31
11.9
  0
LINE
  5
AB8
330
A02
100
AcDbEntity
  8
Mesh_cs
100
AcDbLine
 10
115.973
 20
30.9568
 30
11.9
 11
116.003
 21
31.3983
 31
11.9
  0
LINE
  5
AB9
330
A02
100
AcDbEntity
  8
Mesh_cs
100
AcDbLine
 10
116.003
 20
31.3983
 30
11.9
 11
116.271
 21
35.372
 31
11.9
  0
LINE
  5
ABA
330
A02
100
AcDbEntity
  8
Mesh_cs
100
AcDbLine
 10
116.271
 20
35.372
 30
11.9
 11
116.304
 21
35.8133
 31
11.9
  0
LINE
  5
ABB
330
A02
100
AcDbEntity
  8
Mesh_cs
100
AcDbLine
 10
116.304
 20
35.8133
 30
11.9
 11
116.608
 21
39.7845
 31
11.9
  0
LINE
  5
ABC
330
A02
100
AcDbEntity
  8
Mesh_cs
100
AcDbLine
 10
116.608
 20
39.7845
 30
11.9
 11
116.947
 21
43.7527
 31
11.9
  0
LINE
  5
ABD
330
A02
100
AcDbEntity
  8
Mesh_cs
100
AcDbLine
 10
116.947
 20
43.7527
 30
11.9
 11
116.985
 21
44.1937
 31
11.9
  0
LINE
  5
ABE
330
A02
100
AcDbEntity
  8
Mesh_cs
100
AcDbLine
 10
116.985
 20
44.1937
 30
11.9
 11
117.026
 21
44.6342
 31
11.9
  0
LINE
  5
ABF
330
A02
100
AcDbEntity
  8
Mesh_cs
100
AcDbLine
 10
117.026
 20
44.6342
 30
11.9
 11
117.401
 21
48.5993
 31
11.9
  0
LINE
  5
AC0
330
A02
100
AcDbEntity
  8
Mesh_cs
100
AcDbLine
 10
117.401
 20
48.5993
 30
11.9
 11
117.812
 21
52.5609
 31
11.9
  0
LINE
  5
AC1
330
A02
100
AcDbEntity
  8
Mesh_cs
100
AcDbLine
 10
117.812
 20
52.5609
 30
11.9
 11
117.857
 21
53.0011
 31
11.9
  0
LINE
  5
AC2
330
A02
100
AcDbEntity
  8
Mesh_cs
100
AcDbLine
 10
117.857
 20
53.0011
 30
11.9
 11
117.907
 21
53.4408
 31
11.9
  0
LINE
  5
AC3
330
A02
100
AcDbEntity
  8
Mesh_cs
100
AcDbLine
 10
117.907
 20
53.4408
 30
11.9
 11
118.353
 21
57.3985
 31
11.9
  0
LINE
  5
AC4
330
A02
100
AcDbEntity
  8
Mesh_cs
100
AcDbLine
 10
118.353
 20
57.3985
 30
11.9
 11
118.834
 21
61.3521
 31
11.9
  0
LINE
  5
AC5
330
A02
100
AcDbEntity
  8
Mesh_cs
100
AcDbLine
 10
118.834
 20
61.3521
 30
11.9
 11
118.888
 21
61.7914
 31
11.9
  0
LINE
  5
AC6
330
A02
100
AcDbEntity
  8
Mesh_cs
100
AcDbLine
 10
118.888
 20
61.7914
 30
11.9
 11
118.945
 21
62.2302
 31
11.9
  0
LINE
  5
AC7
330
A02
100
AcDbEntity
  8
Mesh_cs
100
AcDbLine
 10
118.945
 20
62.2302
 30
11.9
 11
119.462
 21
66.1792
 31
11.9
  0
LINE
  5
AC8
330
A02
100
AcDbEntity
  8
Mesh_cs
100
AcDbLine
 10
119.462
 20
66.1792
 30
11.9
 11
120.014
 21
70.1235
 31
11.9
  0
LINE
  5
AC9
330
A02
100
AcDbEntity
  8
Mesh_cs
100
AcDbLine
 10
120.014
 20
70.1235
 30
11.9
 11
120.076
 21
70.5618
 31
11.9
  0
LINE
  5
ACA
330
A02
100
AcDbEntity
  8
Mesh_cs
100
AcDbLine
 10
120.076
 20
70.5618
 30
11.9
 11
120.141
 21
70.9995
 31
11.9
  0
LINE
  5
ACB
330
A02
100
AcDbEntity
  8
Mesh_cs
100
AcDbLine
 10
120.141
 20
70.9995
 30
11.9
 11
120.729
 21
74.9386
 31
11.9
  0
LINE
  5
ACC
330
A02
100
AcDbEntity
  8
Mesh_cs
100
AcDbLine
 10
120.729
 20
74.9386
 30
11.9
 11
120.798
 21
75.3757
 31
11.9
  0
LINE
  5
ACD
330
A02
100
AcDbEntity
  8
Mesh_cs
100
AcDbLine
 10
120.798
 20
75.3757
 30
11.9
 11
121.421
 21
79.3094
 31
11.9
  0
LINE
  5
ACE
330
A02
100
AcDbEntity
  8
Mesh_cs
100
AcDbLine
 10
121.421
 20
79.3094
 30
11.9
 11
121.494
 21
79.7459
 31
11.9
  0
LINE
  5
ACF
330
A02
100
AcDbEntity
  8
Mesh_cs
100
AcDbLine
 10
121.494
 20
79.7459
 30
11.9
 11
122.152
 21
83.6738
 31
11.9
  0
LINE
  5
AD0
330
A02
100
AcDbEntity
  8
Mesh_cs
100
AcDbLine
 10
122.152
 20
83.6738
 30
11.9
 11
122.229
 21
84.1096
 31
11.9
  0
LINE
  5
AD1
330
A02
100
AcDbEntity
  8
Mesh_cs
100
AcDbLine
 10
122.229
 20
84.1096
 30
11.9
 11
122.923
 21
88.0315
 31
11.9
  0
LINE
  5
AD2
330
A02
100
AcDbEntity
  8
Mesh_cs
100
AcDbLine
 10
122.923
 20
88.0315
 30
11.9
 11
123.004
 21
88.4666
 31
11.9
  0
LINE
  5
AD3
330
A02
100
AcDbEntity
  8
Mesh_cs
100
AcDbLine
 10
123.004
 20
88.4666
 30
11.9
 11
123.733
 21
92.3821
 31
11.9
  0
LINE
  5
AD4
330
A02
100
AcDbEntity
  8
Mesh_cs
100
AcDbLine
 10
123.733
 20
92.3821
 30
11.9
 11
124.497
 21
96.2909
 31
11.9
  0
LINE
  5
AD5
330
A02
100
AcDbEntity
  8
Mesh_cs
100
AcDbLine
 10
124.497
 20
96.2909
 30
11.9
 11
124.581
 21
96.7253
 31
11.9
  0
LINE
  5
AD6
330
A02
100
AcDbEntity
  8
Mesh_cs
100
AcDbLine
 10
124.581
 20
96.7253
 30
11.9
 11
124.67
 21
97.1588
 31
11.9
  0
LINE
  5
AD7
330
A02
100
AcDbEntity
  8
Mesh_cs
100
AcDbLine
 10
124.67
 20
97.1588
 30
11.9
 11
125.469
 21
101.061
 31
11.9
  0
LINE
  5
AD8
330
A02
100
AcDbEntity
  8
Mesh_cs
100
AcDbLine
 10
125.469
 20
101.061
 30
11.9
 11
126.303
 21
104.955
 31
11.9
  0
LINE
  5
AD9
330
A02
100
AcDbEntity
  8
Mesh_cs
100
AcDbLine
 10
126.303
 20
104.955
 30
11.9
 11
126.396
 21
105.388
 31
11.9
  0
LINE
  5
ADA
330
A02
100
AcDbEntity
  8
Mesh_cs
100
AcDbLine
 10
126.396
 20
105.388
 30
11.9
 11
126.492
 21
105.82
 31
11.9
  0
LINE
  5
ADB
330
A02
100
AcDbEntity
  8
Mesh_cs
100
AcDbLine
 10
126.492
 20
105.82
 30
11.9
 11
127.361
 21
109.707
 31
11.9
  0
LINE
  5
ADC
330
A02
100
AcDbEntity
  8
Mesh_cs
100
AcDbLine
 10
127.361
 20
109.707
 30
11.9
 11
127.461
 21
110.138
 31
11.9
  0
LINE
  5
ADD
330
A02
100
AcDbEntity
  8
Mesh_cs
100
AcDbLine
 10
127.461
 20
110.138
 30
11.9
 11
128.365
 21
114.016
 31
11.9
  0
LINE
  5
ADE
330
A02
100
AcDbEntity
  8
Mesh_cs
100
AcDbLine
 10
128.365
 20
114.016
 30
11.9
 11
129.303
 21
117.887
 31
11.9
  0
LINE
  5
ADF
330
A02
100
AcDbEntity
  8
Mesh_cs
100
AcDbLine
 10
129.303
 20
117.887
 30
11.9
 11
129.408
 21
118.317
 31
11.9
  0
LINE
  5
AE0
330
A02
100
AcDbEntity
  8
Mesh_cs
100
AcDbLine
 10
129.408
 20
118.317
 30
11.9
 11
129.516
 21
118.746
 31
11.9
  0
LINE
  5
AE1
330
A02
100
AcDbEntity
  8
Mesh_cs
100
AcDbLine
 10
129.516
 20
118.746
 30
11.9
 11
130.489
 21
122.608
 31
11.9
  0
LINE
  5
AE2
330
A02
100
AcDbEntity
  8
Mesh_cs
100
AcDbLine
 10
130.489
 20
122.608
 30
11.9
 11
131.497
 21
126.461
 31
11.9
  0
LINE
  5
AE3
330
A02
100
AcDbEntity
  8
Mesh_cs
100
AcDbLine
 10
131.497
 20
126.461
 30
11.9
 11
131.609
 21
126.89
 31
11.9
  0
LINE
  5
AE4
330
A02
100
AcDbEntity
  8
Mesh_cs
100
AcDbLine
 10
131.609
 20
126.89
 30
11.9
 11
131.725
 21
127.317
 31
11.9
  0
LINE
  5
AE5
330
A02
100
AcDbEntity
  8
Mesh_cs
100
AcDbLine
 10
131.725
 20
127.317
 30
11.9
 11
132.767
 21
131.161
 31
11.9
  0
LINE
  5
AE6
330
A02
100
AcDbEntity
  8
Mesh_cs
100
AcDbLine
 10
132.767
 20
131.161
 30
11.9
 11
132.887
 21
131.587
 31
11.9
  0
LINE
  5
AE7
330
A02
100
AcDbEntity
  8
Mesh_cs
100
AcDbLine
 10
132.887
 20
131.587
 30
11.9
 11
133.963
 21
135.421
 31
11.9
  0
LINE
  5
AE8
330
A02
100
AcDbEntity
  8
Mesh_cs
100
AcDbLine
 10
133.963
 20
135.421
 30
11.9
 11
135.074
 21
139.246
 31
11.9
  0
LINE
  5
AE9
330
A02
100
AcDbEntity
  8
Mesh_cs
100
AcDbLine
 10
135.074
 20
139.246
 30
11.9
 11
135.198
 21
139.671
 31
11.9
  0
LINE
  5
AEA
330
A02
100
AcDbEntity
  8
Mesh_cs
100
AcDbLine
 10
135.198
 20
139.671
 30
11.9
 11
136.343
 21
143.485
 31
11.9
  0
LINE
  5
AEB
330
A02
100
AcDbEntity
  8
Mesh_cs
100
AcDbLine
 10
136.343
 20
143.485
 30
11.9
 11
136.471
 21
143.909
 31
11.9
  0
LINE
  5
AEC
330
A02
100
AcDbEntity
  8
Mesh_cs
100
AcDbLine
 10
136.471
 20
143.909
 30
11.9
 11
137.65
 21
147.713
 31
11.9
  0
LINE
  5
AED
330
A02
100
AcDbEntity
  8
Mesh_cs
100
AcDbLine
 10
137.65
 20
147.713
 30
11.9
 11
137.781
 21
148.136
 31
11.9
  0
LINE
  5
AEE
330
A02
100
AcDbEntity
  8
Mesh_cs
100
AcDbLine
 10
137.781
 20
148.136
 30
11.9
 11
137.916
 21
148.557
 31
11.9
  0
LINE
  5
AEF
330
A02
100
AcDbEntity
  8
Mesh_cs
100
AcDbLine
 10
137.916
 20
148.557
 30
11.9
 11
139.13
 21
152.351
 31
11.9
  0
LINE
  5
AF0
330
A02
100
AcDbEntity
  8
Mesh_cs
100
AcDbLine
 10
139.13
 20
152.351
 30
11.9
 11
139.269
 21
152.771
 31
11.9
  0
LINE
  5
AF1
330
A02
100
AcDbEntity
  8
Mesh_cs
100
AcDbLine
 10
139.269
 20
152.771
 30
11.9
 11
140.516
 21
156.553
 31
11.9
  0
LINE
  5
AF2
330
A02
100
AcDbEntity
  8
Mesh_cs
100
AcDbLine
 10
140.516
 20
156.553
 30
11.9
 11
141.798
 21
160.324
 31
11.9
  0
LINE
  5
AF3
330
A02
100
AcDbEntity
  8
Mesh_cs
100
AcDbLine
 10
141.798
 20
160.324
 30
11.9
 11
141.94
 21
160.743
 31
11.9
  0
LINE
  5
AF4
330
A02
100
AcDbEntity
  8
Mesh_cs
100
AcDbLine
 10
141.94
 20
160.743
 30
11.9
 11
142.087
 21
161.161
 31
11.9
  0
LINE
  5
AF5
330
A02
100
AcDbEntity
  8
Mesh_cs
100
AcDbLine
 10
142.087
 20
161.161
 30
11.9
 11
143.402
 21
164.92
 31
11.9
  0
LINE
  5
AF6
330
A02
100
AcDbEntity
  8
Mesh_cs
100
AcDbLine
 10
143.402
 20
164.92
 30
11.9
 11
144.751
 21
168.667
 31
11.9
  0
LINE
  5
AF7
330
A02
100
AcDbEntity
  8
Mesh_cs
100
AcDbLine
 10
144.751
 20
168.667
 30
11.9
 11
144.901
 21
169.084
 31
11.9
  0
LINE
  5
AF8
330
A02
100
AcDbEntity
  8
Mesh_cs
100
AcDbLine
 10
144.901
 20
169.084
 30
11.9
 11
145.055
 21
169.499
 31
11.9
  0
LINE
  5
AF9
330
A02
100
AcDbEntity
  8
Mesh_cs
100
AcDbLine
 10
145.055
 20
169.499
 30
11.9
 11
146.437
 21
173.234
 31
11.9
  0
LINE
  5
AFA
330
A02
100
AcDbEntity
  8
Mesh_cs
100
AcDbLine
 10
146.437
 20
173.234
 30
11.9
 11
147.853
 21
176.956
 31
11.9
  0
LINE
  5
AFB
330
A02
100
AcDbEntity
  8
Mesh_cs
100
AcDbLine
 10
147.853
 20
176.956
 30
11.9
 11
148.011
 21
177.37
 31
11.9
  0
LINE
  5
AFC
330
A02
100
AcDbEntity
  8
Mesh_cs
100
AcDbLine
 10
148.011
 20
177.37
 30
11.9
 11
149.46
 21
181.079
 31
11.9
  0
LINE
  5
AFD
330
A02
100
AcDbEntity
  8
Mesh_cs
100
AcDbLine
 10
149.46
 20
181.079
 30
11.9
 11
149.621
 21
181.492
 31
11.9
  0
LINE
  5
AFE
330
A02
100
AcDbEntity
  8
Mesh_cs
100
AcDbLine
 10
149.621
 20
181.492
 30
11.9
 11
149.786
 21
181.902
 31
11.9
  0
LINE
  5
AFF
330
A02
100
AcDbEntity
  8
Mesh_cs
100
AcDbLine
 10
149.786
 20
181.902
 30
11.9
 11
151.269
 21
185.599
 31
11.9
  0
LINE
  5
B00
330
A02
100
AcDbEntity
  8
Mesh_cs
100
AcDbLine
 10
151.269
 20
185.599
 30
11.9
 11
151.437
 21
186.008
 31
11.9
  0
LINE
  5
B01
330
A02
100
AcDbEntity
  8
Mesh_cs
100
AcDbLine
 10
151.437
 20
186.008
 30
11.9
 11
152.953
 21
189.691
 31
11.9
  0
LINE
  5
B02
330
A02
100
AcDbEntity
  8
Mesh_cs
100
AcDbLine
 10
152.953
 20
189.691
 30
11.9
 11
153.125
 21
190.099
 31
11.9
  0
LINE
  5
B03
330
A02
100
AcDbEntity
  8
Mesh_cs
100
AcDbLine
 10
153.125
 20
190.099
 30
11.9
 11
154.674
 21
193.768
 31
11.9
  0
LINE
  5
B04
330
A02
100
AcDbEntity
  8
Mesh_cs
100
AcDbLine
 10
154.674
 20
193.768
 30
11.9
 11
154.85
 21
194.174
 31
11.9
  0
LINE
  5
B05
330
A02
100
AcDbEntity
  8
Mesh_cs
100
AcDbLine
 10
154.85
 20
194.174
 30
11.9
 11
156.432
 21
197.829
 31
11.9
  0
LINE
  5
B06
330
A02
100
AcDbEntity
  8
Mesh_cs
100
AcDbLine
 10
156.432
 20
197.829
 30
11.9
 11
158.046
 21
201.47
 31
11.9
  0
LINE
  5
B07
330
A02
100
AcDbEntity
  8
Mesh_cs
100
AcDbLine
 10
158.046
 20
201.47
 30
11.9
 11
158.226
 21
201.875
 31
11.9
  0
LINE
  5
B08
330
A02
100
AcDbEntity
  8
Mesh_cs
100
AcDbLine
 10
158.226
 20
201.875
 30
11.9
 11
158.409
 21
202.278
 31
11.9
  0
LINE
  5
B09
330
A02
100
AcDbEntity
  8
Mesh_cs
100
AcDbLine
 10
158.409
 20
202.278
 30
11.9
 11
160.056
 21
205.904
 31
11.9
  0
LINE
  5
B0A
330
A02
100
AcDbEntity
  8
Mesh_cs
100
AcDbLine
 10
160.056
 20
205.904
 30
11.9
 11
161.735
 21
209.515
 31
11.9
  0
LINE
  5
B0B
330
A02
100
AcDbEntity
  8
Mesh_cs
100
AcDbLine
 10
161.735
 20
209.515
 30
11.9
 11
161.922
 21
209.916
 31
11.9
  0
LINE
  5
B0C
330
A02
100
AcDbEntity
  8
Mesh_cs
100
AcDbLine
 10
161.922
 20
209.916
 30
11.9
 11
162.112
 21
210.316
 31
11.9
  0
LINE
  5
B0D
330
A02
100
AcDbEntity
  8
Mesh_cs
100
AcDbLine
 10
162.112
 20
210.316
 30
11.9
 11
163.824
 21
213.912
 31
11.9
  0
LINE
  5
B0E
330
A02
100
AcDbEntity
  8
Mesh_cs
100
AcDbLine
 10
163.824
 20
213.912
 30
11.9
 11
164.018
 21
214.31
 31
11.9
  0
LINE
  5
B0F
330
A02
100
AcDbEntity
  8
Mesh_cs
100
AcDbLine
 10
164.018
 20
214.31
 30
11.9
 11
165.762
 21
217.89
 31
11.9
  0
LINE
  5
B10
330
A02
100
AcDbEntity
  8
Mesh_cs
100
AcDbLine
 10
165.762
 20
217.89
 30
11.9
 11
165.959
 21
218.286
 31
11.9
  0
LINE
  5
B11
330
A02
100
AcDbEntity
  8
Mesh_cs
100
AcDbLine
 10
165.959
 20
218.286
 30
11.9
 11
167.736
 21
221.851
 31
11.9
  0
LINE
  5
B12
330
A02
100
AcDbEntity
  8
Mesh_cs
100
AcDbLine
 10
167.736
 20
221.851
 30
11.9
 11
167.936
 21
222.245
 31
11.9
  0
LINE
  5
B13
330
A02
100
AcDbEntity
  8
Mesh_cs
100
AcDbLine
 10
167.936
 20
222.245
 30
11.9
 11
169.745
 21
225.794
 31
11.9
  0
LINE
  5
B14
330
A02
100
AcDbEntity
  8
Mesh_cs
100
AcDbLine
 10
169.745
 20
225.794
 30
11.9
 11
171.584
 21
229.326
 31
11.9
  0
LINE
  5
B15
330
A02
100
AcDbEntity
  8
Mesh_cs
100
AcDbLine
 10
171.584
 20
229.326
 30
11.9
 11
171.789
 21
229.719
 31
11.9
  0
LINE
  5
B16
330
A02
100
AcDbEntity
  8
Mesh_cs
100
AcDbLine
 10
171.789
 20
229.719
 30
11.9
 11
173.66
 21
233.234
 31
11.9
  0
LINE
  5
B17
330
A02
100
AcDbEntity
  8
Mesh_cs
100
AcDbLine
 10
173.66
 20
233.234
 30
11.9
 11
173.868
 21
233.625
 31
11.9
  0
LINE
  5
B18
330
A02
100
AcDbEntity
  8
Mesh_cs
100
AcDbLine
 10
173.868
 20
233.625
 30
11.9
 11
174.08
 21
234.014
 31
11.9
  0
LINE
  5
B19
330
A02
100
AcDbEntity
  8
Mesh_cs
100
AcDbLine
 10
174.08
 20
234.014
 30
11.9
 11
175.983
 21
237.513
 31
11.9
  0
LINE
  5
B1A
330
A02
100
AcDbEntity
  8
Mesh_cs
100
AcDbLine
 10
175.983
 20
237.513
 30
11.9
 11
176.198
 21
237.899
 31
11.9
  0
LINE
  5
B1B
330
A02
100
AcDbEntity
  8
Mesh_cs
100
AcDbLine
 10
176.198
 20
237.899
 30
11.9
 11
178.132
 21
241.381
 31
11.9
  0
LINE
  5
B1C
330
A02
100
AcDbEntity
  8
Mesh_cs
100
AcDbLine
 10
178.132
 20
241.381
 30
11.9
 11
178.351
 21
241.766
 31
11.9
  0
LINE
  5
B1D
330
A02
100
AcDbEntity
  8
Mesh_cs
100
AcDbLine
 10
178.351
 20
241.766
 30
11.9
 11
180.316
 21
245.23
 31
11.9
  0
LINE
  5
B1E
330
A02
100
AcDbEntity
  8
Mesh_cs
100
AcDbLine
 10
180.316
 20
245.23
 30
11.9
 11
180.538
 21
245.613
 31
11.9
  0
LINE
  5
B1F
330
A02
100
AcDbEntity
  8
Mesh_cs
100
AcDbLine
 10
180.538
 20
245.613
 30
11.9
 11
182.534
 21
249.059
 31
11.9
  0
LINE
  5
B20
330
A02
100
AcDbEntity
  8
Mesh_cs
100
AcDbLine
 10
182.534
 20
249.059
 30
11.9
 11
184.562
 21
252.487
 31
11.9
  0
LINE
  5
B21
330
A02
100
AcDbEntity
  8
Mesh_cs
100
AcDbLine
 10
184.562
 20
252.487
 30
11.9
 11
184.787
 21
252.868
 31
11.9
  0
LINE
  5
B22
330
A02
100
AcDbEntity
  8
Mesh_cs
100
AcDbLine
 10
184.787
 20
252.868
 30
11.9
 11
185.016
 21
253.247
 31
11.9
  0
LINE
  5
B23
330
A02
100
AcDbEntity
  8
Mesh_cs
100
AcDbLine
 10
185.016
 20
253.247
 30
11.9
 11
187.074
 21
256.657
 31
11.9
  0
LINE
  5
B24
330
A02
100
AcDbEntity
  8
Mesh_cs
100
AcDbLine
 10
187.074
 20
256.657
 30
11.9
 11
187.306
 21
257.033
 31
11.9
  0
LINE
  5
B25
330
A02
100
AcDbEntity
  8
Mesh_cs
100
AcDbLine
 10
187.306
 20
257.033
 30
11.9
 11
189.395
 21
260.425
 31
11.9
  0
LINE
  5
B26
330
A02
100
AcDbEntity
  8
Mesh_cs
100
AcDbLine
 10
189.395
 20
260.425
 30
11.9
 11
191.513
 21
263.797
 31
11.9
  0
LINE
  5
B27
330
A02
100
AcDbEntity
  8
Mesh_cs
100
AcDbLine
 10
191.513
 20
263.797
 30
11.9
 11
191.749
 21
264.172
 31
11.9
  0
LINE
  5
B28
330
A02
100
AcDbEntity
  8
Mesh_cs
100
AcDbLine
 10
191.749
 20
264.172
 30
11.9
 11
191.988
 21
264.544
 31
11.9
  0
LINE
  5
B29
330
A02
100
AcDbEntity
  8
Mesh_cs
100
AcDbLine
 10
191.988
 20
264.544
 30
11.9
 11
194.137
 21
267.897
 31
11.9
  0
LINE
  5
B2A
330
A02
100
AcDbEntity
  8
Mesh_cs
100
AcDbLine
 10
194.137
 20
267.897
 30
11.9
 11
194.379
 21
268.268
 31
11.9
  0
LINE
  5
B2B
330
A02
100
AcDbEntity
  8
Mesh_cs
100
AcDbLine
 10
194.379
 20
268.268
 30
11.9
 11
196.558
 21
271.601
 31
11.9
  0
LINE
  5
B2C
330
A02
100
AcDbEntity
  8
Mesh_cs
100
AcDbLine
 10
196.558
 20
271.601
 30
11.9
 11
196.804
 21
271.97
 31
11.9
  0
LINE
  5
B2D
330
A02
100
AcDbEntity
  8
Mesh_cs
100
AcDbLine
 10
196.804
 20
271.97
 30
11.9
 11
199.013
 21
275.284
 31
11.9
  0
LINE
  5
B2E
330
A02
100
AcDbEntity
  8
Mesh_cs
100
AcDbLine
 10
199.013
 20
275.284
 30
11.9
 11
199.261
 21
275.65
 31
11.9
  0
LINE
  5
B2F
330
A02
100
AcDbEntity
  8
Mesh_cs
100
AcDbLine
 10
199.261
 20
275.65
 30
11.9
 11
201.5
 21
278.944
 31
11.9
  0
LINE
  5
B30
330
A02
100
AcDbEntity
  8
Mesh_cs
100
AcDbLine
 10
201.5
 20
278.944
 30
11.9
 11
201.752
 21
279.307
 31
11.9
  0
LINE
  5
B31
330
A02
100
AcDbEntity
  8
Mesh_cs
100
AcDbLine
 10
201.752
 20
279.307
 30
11.9
 11
204.02
 21
282.581
 31
11.9
  0
LINE
  5
B32
330
A02
100
AcDbEntity
  8
Mesh_cs
100
AcDbLine
 10
204.02
 20
282.581
 30
11.9
 11
204.275
 21
282.943
 31
11.9
  0
LINE
  5
B33
330
A02
100
AcDbEntity
  8
Mesh_cs
100
AcDbLine
 10
204.275
 20
282.943
 30
11.9
 11
206.573
 21
286.196
 31
11.9
  0
LINE
  5
B34
330
A02
100
AcDbEntity
  8
Mesh_cs
100
AcDbLine
 10
206.573
 20
286.196
 30
11.9
 11
206.831
 21
286.555
 31
11.9
  0
LINE
  5
B35
330
A02
100
AcDbEntity
  8
Mesh_cs
100
AcDbLine
 10
206.831
 20
286.555
 30
11.9
 11
209.158
 21
289.788
 31
11.9
  0
LINE
  5
B36
330
A02
100
AcDbEntity
  8
Mesh_cs
100
AcDbLine
 10
209.158
 20
289.788
 30
11.9
 11
249.277
 21
260.64
 31
11.9
  0
LINE
  5
B37
330
A02
100
AcDbEntity
  8
Mesh_cs
100
AcDbLine
 10
249.277
 20
260.64
 30
11.9
 11
253.735
 21
257.401
 31
11.9
  0
LINE
  5
B38
330
A02
100
AcDbEntity
  8
Mesh_cs
100
AcDbLine
 10
253.735
 20
257.401
 30
11.9
 11
253.345
 21
256.864
 31
11.9
  0
LINE
  5
B39
330
A02
100
AcDbEntity
  8
Mesh_cs
100
AcDbLine
 10
253.345
 20
256.864
 30
11.9
 11
242.038
 21
241.301
 31
11.9
  0
LINE
  5
B3A
330
A02
100
AcDbEntity
  8
Mesh_cs
100
AcDbLine
 10
242.038
 20
241.301
 30
11.9
 11
241.851
 21
241.026
 31
11.9
  0
LINE
  5
B3B
330
A02
100
AcDbEntity
  8
Mesh_cs
100
AcDbLine
 10
241.851
 20
241.026
 30
11.9
 11
241.844
 21
241.014
 31
11.9
  0
LINE
  5
B3C
330
A02
100
AcDbEntity
  8
Mesh_cs
100
AcDbLine
 10
241.844
 20
241.014
 30
11.9
 11
241.677
 21
240.726
 31
11.9
  0
LINE
  5
B3D
330
A02
100
AcDbEntity
  8
Mesh_cs
100
AcDbLine
 10
241.677
 20
240.726
 30
11.9
 11
241.67
 21
240.714
 31
11.9
  0
LINE
  5
B3E
330
A02
100
AcDbEntity
  8
Mesh_cs
100
AcDbLine
 10
241.67
 20
240.714
 30
11.9
 11
241.484
 21
240.324
 31
11.9
  0
LINE
  5
B3F
330
A02
100
AcDbEntity
  8
Mesh_cs
100
AcDbLine
 10
241.484
 20
240.324
 30
11.9
 11
241.478
 21
240.311
 31
11.9
  0
LINE
  5
B40
330
A02
100
AcDbEntity
  8
Mesh_cs
100
AcDbLine
 10
241.478
 20
240.311
 30
11.9
 11
241.328
 21
239.907
 31
11.9
  0
LINE
  5
B41
330
A02
100
AcDbEntity
  8
Mesh_cs
100
AcDbLine
 10
241.328
 20
239.907
 30
11.9
 11
241.323
 21
239.894
 31
11.9
  0
LINE
  5
B42
330
A02
100
AcDbEntity
  8
Mesh_cs
100
AcDbLine
 10
241.323
 20
239.894
 30
11.9
 11
241.209
 21
239.477
 31
11.9
  0
LINE
  5
B43
330
A02
100
AcDbEntity
  8
Mesh_cs
100
AcDbLine
 10
241.209
 20
239.477
 30
11.9
 11
241.206
 21
239.464
 31
11.9
  0
LINE
  5
B44
330
A02
100
AcDbEntity
  8
Mesh_cs
100
AcDbLine
 10
241.206
 20
239.464
 30
11.9
 11
241.129
 21
239.039
 31
11.9
  0
LINE
  5
B45
330
A02
100
AcDbEntity
  8
Mesh_cs
100
AcDbLine
 10
241.129
 20
239.039
 30
11.9
 11
241.127
 21
239.026
 31
11.9
  0
LINE
  5
B46
330
A02
100
AcDbEntity
  8
Mesh_cs
100
AcDbLine
 10
241.127
 20
239.026
 30
11.9
 11
241.126
 21
239.012
 31
11.9
  0
LINE
  5
B47
330
A02
100
AcDbEntity
  8
Mesh_cs
100
AcDbLine
 10
241.126
 20
239.012
 30
11.9
 11
241.088
 21
238.582
 31
11.9
  0
LINE
  5
B48
330
A02
100
AcDbEntity
  8
Mesh_cs
100
AcDbLine
 10
241.088
 20
238.582
 30
11.9
 11
241.087
 21
238.568
 31
11.9
  0
LINE
  5
B49
330
A02
100
AcDbEntity
  8
Mesh_cs
100
AcDbLine
 10
241.087
 20
238.568
 30
11.9
 11
241.088
 21
238.136
 31
11.9
  0
LINE
  5
B4A
330
A02
100
AcDbEntity
  8
Mesh_cs
100
AcDbLine
 10
241.088
 20
238.136
 30
11.9
 11
241.089
 21
238.123
 31
11.9
  0
LINE
  5
B4B
330
A02
100
AcDbEntity
  8
Mesh_cs
100
AcDbLine
 10
241.089
 20
238.123
 30
11.9
 11
241.128
 21
237.692
 31
11.9
  0
LINE
  5
B4C
330
A02
100
AcDbEntity
  8
Mesh_cs
100
AcDbLine
 10
241.128
 20
237.692
 30
11.9
 11
241.13
 21
237.679
 31
11.9
  0
LINE
  5
B4D
330
A02
100
AcDbEntity
  8
Mesh_cs
100
AcDbLine
 10
241.13
 20
237.679
 30
11.9
 11
241.207
 21
237.254
 31
11.9
  0
LINE
  5
B4E
330
A02
100
AcDbEntity
  8
Mesh_cs
100
AcDbLine
 10
241.207
 20
237.254
 30
11.9
 11
241.211
 21
237.239
 31
11.9
  0
LINE
  5
B4F
330
A02
100
AcDbEntity
  8
Mesh_cs
100
AcDbLine
 10
241.211
 20
237.239
 30
11.9
 11
241.313
 21
236.864
 31
11.9
  0
LINE
  5
B50
330
A02
100
AcDbEntity
  8
Mesh_cs
100
AcDbLine
 10
241.313
 20
236.864
 30
11.9
 11
241.317
 21
236.85
 31
11.9
  0
LINE
  5
B51
330
A02
100
AcDbEntity
  8
Mesh_cs
100
AcDbLine
 10
241.317
 20
236.85
 30
11.9
 11
241.449
 21
236.484
 31
11.9
  0
LINE
  5
B52
330
A02
100
AcDbEntity
  8
Mesh_cs
100
AcDbLine
 10
241.449
 20
236.484
 30
11.9
 11
241.455
 21
236.47
 31
11.9
  0
LINE
  5
B53
330
A02
100
AcDbEntity
  8
Mesh_cs
100
AcDbLine
 10
241.455
 20
236.47
 30
11.9
 11
241.616
 21
236.116
 31
11.9
  0
LINE
  5
B54
330
A02
100
AcDbEntity
  8
Mesh_cs
100
AcDbLine
 10
241.616
 20
236.116
 30
11.9
 11
241.623
 21
236.103
 31
11.9
  0
LINE
  5
B55
330
A02
100
AcDbEntity
  8
Mesh_cs
100
AcDbLine
 10
241.623
 20
236.103
 30
11.9
 11
241.812
 21
235.763
 31
11.9
  0
LINE
  5
B56
330
A02
100
AcDbEntity
  8
Mesh_cs
100
AcDbLine
 10
241.812
 20
235.763
 30
11.9
 11
241.82
 21
235.751
 31
11.9
  0
LINE
  5
B57
330
A02
100
AcDbEntity
  8
Mesh_cs
100
AcDbLine
 10
241.82
 20
235.751
 30
11.9
 11
242.036
 21
235.427
 31
11.9
  0
LINE
  5
B58
330
A02
100
AcDbEntity
  8
Mesh_cs
100
AcDbLine
 10
242.036
 20
235.427
 30
11.9
 11
242.277
 21
235.121
 31
11.9
  0
LINE
  5
B59
330
A02
100
AcDbEntity
  8
Mesh_cs
100
AcDbLine
 10
242.277
 20
235.121
 30
11.9
 11
242.286
 21
235.11
 31
11.9
  0
LINE
  5
B5A
330
A02
100
AcDbEntity
  8
Mesh_cs
100
AcDbLine
 10
242.286
 20
235.11
 30
11.9
 11
242.526
 21
234.849
 31
11.9
  0
LINE
  5
B5B
330
A02
100
AcDbEntity
  8
Mesh_cs
100
AcDbLine
 10
242.526
 20
234.849
 30
11.9
 11
242.536
 21
234.839
 31
11.9
  0
LINE
  5
B5C
330
A02
100
AcDbEntity
  8
Mesh_cs
100
AcDbLine
 10
242.536
 20
234.839
 30
11.9
 11
242.821
 21
234.573
 31
11.9
  0
LINE
  5
B5D
330
A02
100
AcDbEntity
  8
Mesh_cs
100
AcDbLine
 10
242.821
 20
234.573
 30
11.9
 11
242.83
 21
234.566
 31
11.9
  0
LINE
  5
B5E
330
A02
100
AcDbEntity
  8
Mesh_cs
100
AcDbLine
 10
242.83
 20
234.566
 30
11.9
 11
243.135
 21
234.324
 31
11.9
  0
LINE
  5
B5F
330
A02
100
AcDbEntity
  8
Mesh_cs
100
AcDbLine
 10
243.135
 20
234.324
 30
11.9
 11
243.144
 21
234.317
 31
11.9
  0
LINE
  5
B60
330
A02
100
AcDbEntity
  8
Mesh_cs
100
AcDbLine
 10
243.144
 20
234.317
 30
11.9
 11
243.681
 21
233.928
 31
11.9
  0
LINE
  5
B61
330
A02
100
AcDbEntity
  8
Mesh_cs
100
AcDbLine
 10
243.681
 20
233.928
 30
11.9
 11
259.243
 21
222.621
 31
11.9
  0
LINE
  5
B62
330
A02
100
AcDbEntity
  8
Mesh_cs
100
AcDbLine
 10
259.243
 20
222.621
 30
11.9
 11
259.228
 21
222.598
 31
11.9
  0
LINE
  5
B63
330
A02
100
AcDbEntity
  8
Mesh_cs
100
AcDbLine
 10
259.228
 20
222.598
 30
11.9
 11
259.221
 21
222.587
 31
11.9
  0
LINE
  5
B64
330
A02
100
AcDbEntity
  8
Mesh_cs
100
AcDbLine
 10
259.221
 20
222.587
 30
11.9
 11
259.02
 21
222.286
 31
11.9
  0
LINE
  5
B65
330
A02
100
AcDbEntity
  8
Mesh_cs
100
AcDbLine
 10
259.02
 20
222.286
 30
11.9
 11
259.007
 21
222.263
 31
11.9
  0
LINE
  5
B66
330
A02
100
AcDbEntity
  8
Mesh_cs
100
AcDbLine
 10
259.007
 20
222.263
 30
11.9
 11
258.831
 21
221.946
 31
11.9
  0
LINE
  5
B67
330
A02
100
AcDbEntity
  8
Mesh_cs
100
AcDbLine
 10
258.831
 20
221.946
 30
11.9
 11
258.818
 21
221.921
 31
11.9
  0
LINE
  5
B68
330
A02
100
AcDbEntity
  8
Mesh_cs
100
AcDbLine
 10
258.818
 20
221.921
 30
11.9
 11
258.668
 21
221.591
 31
11.9
  0
LINE
  5
B69
330
A02
100
AcDbEntity
  8
Mesh_cs
100
AcDbLine
 10
258.668
 20
221.591
 30
11.9
 11
258.656
 21
221.564
 31
11.9
  0
LINE
  5
B6A
330
A02
100
AcDbEntity
  8
Mesh_cs
100
AcDbLine
 10
258.656
 20
221.564
 30
11.9
 11
258.607
 21
221.428
 31
11.9
  0
LINE
  5
B6B
330
A02
100
AcDbEntity
  8
Mesh_cs
100
AcDbLine
 10
258.607
 20
221.428
 30
11.9
 11
258.517
 21
221.175
 31
11.9
  0
LINE
  5
B6C
330
A02
100
AcDbEntity
  8
Mesh_cs
100
AcDbLine
 10
258.517
 20
221.175
 30
11.9
 11
258.469
 21
221
 31
11.9
  0
LINE
  5
B6D
330
A02
100
AcDbEntity
  8
Mesh_cs
100
AcDbLine
 10
258.469
 20
221
 30
11.9
 11
258.402
 21
220.741
 31
11.9
  0
LINE
  5
B6E
330
A02
100
AcDbEntity
  8
Mesh_cs
100
AcDbLine
 10
258.402
 20
220.741
 30
11.9
 11
258.378
 21
220.609
 31
11.9
  0
LINE
  5
B6F
330
A02
100
AcDbEntity
  8
Mesh_cs
100
AcDbLine
 10
258.378
 20
220.609
 30
11.9
 11
258.327
 21
220.3
 31
11.9
  0
LINE
  5
B70
330
A02
100
AcDbEntity
  8
Mesh_cs
100
AcDbLine
 10
258.327
 20
220.3
 30
11.9
 11
258.32
 21
220.244
 31
11.9
  0
LINE
  5
B71
330
A02
100
AcDbEntity
  8
Mesh_cs
100
AcDbLine
 10
258.32
 20
220.244
 30
11.9
 11
258.303
 21
220.048
 31
11.9
  0
LINE
  5
B72
330
A02
100
AcDbEntity
  8
Mesh_cs
100
AcDbLine
 10
258.303
 20
220.048
 30
11.9
 11
258.296
 21
219.851
 31
11.9
  0
LINE
  5
B73
330
A02
100
AcDbEntity
  8
Mesh_cs
100
AcDbLine
 10
258.296
 20
219.851
 30
11.9
 11
258.29
 21
219.747
 31
11.9
  0
LINE
  5
B74
330
A02
100
AcDbEntity
  8
Mesh_cs
100
AcDbLine
 10
258.29
 20
219.747
 30
11.9
 11
258.29
 21
219.732
 31
11.9
  0
LINE
  5
B75
330
A02
100
AcDbEntity
  8
Mesh_cs
100
AcDbLine
 10
140.758
 20
245.905
 30
11.9
 11
138.887
 21
242.32
 31
11.9
  0
LINE
  5
B76
330
A02
100
AcDbEntity
  8
Mesh_cs
100
AcDbLine
 10
138.887
 20
242.32
 30
11.9
 11
138.682
 21
241.919
 31
11.9
  0
LINE
  5
B77
330
A02
100
AcDbEntity
  8
Mesh_cs
100
AcDbLine
 10
138.682
 20
241.919
 30
11.9
 11
136.842
 21
238.318
 31
11.9
  0
LINE
  5
B78
330
A02
100
AcDbEntity
  8
Mesh_cs
100
AcDbLine
 10
136.842
 20
238.318
 30
11.9
 11
136.64
 21
237.916
 31
11.9
  0
LINE
  5
B79
330
A02
100
AcDbEntity
  8
Mesh_cs
100
AcDbLine
 10
136.64
 20
237.916
 30
11.9
 11
134.83
 21
234.3
 31
11.9
  0
LINE
  5
B7A
330
A02
100
AcDbEntity
  8
Mesh_cs
100
AcDbLine
 10
134.83
 20
234.3
 30
11.9
 11
134.633
 21
233.896
 31
11.9
  0
LINE
  5
B7B
330
A02
100
AcDbEntity
  8
Mesh_cs
100
AcDbLine
 10
134.633
 20
233.896
 30
11.9
 11
132.854
 21
230.264
 31
11.9
  0
LINE
  5
B7C
330
A02
100
AcDbEntity
  8
Mesh_cs
100
AcDbLine
 10
132.854
 20
230.264
 30
11.9
 11
132.659
 21
229.859
 31
11.9
  0
LINE
  5
B7D
330
A02
100
AcDbEntity
  8
Mesh_cs
100
AcDbLine
 10
132.659
 20
229.859
 30
11.9
 11
130.911
 21
226.212
 31
11.9
  0
LINE
  5
B7E
330
A02
100
AcDbEntity
  8
Mesh_cs
100
AcDbLine
 10
130.911
 20
226.212
 30
11.9
 11
130.72
 21
225.805
 31
11.9
  0
LINE
  5
B7F
330
A02
100
AcDbEntity
  8
Mesh_cs
100
AcDbLine
 10
130.72
 20
225.805
 30
11.9
 11
129.003
 21
222.143
 31
11.9
  0
LINE
  5
B80
330
A02
100
AcDbEntity
  8
Mesh_cs
100
AcDbLine
 10
129.003
 20
222.143
 30
11.9
 11
128.816
 21
221.735
 31
11.9
  0
LINE
  5
B81
330
A02
100
AcDbEntity
  8
Mesh_cs
100
AcDbLine
 10
128.816
 20
221.735
 30
11.9
 11
127.13
 21
218.059
 31
11.9
  0
LINE
  5
B82
330
A02
100
AcDbEntity
  8
Mesh_cs
100
AcDbLine
 10
127.13
 20
218.059
 30
11.9
 11
126.946
 21
217.649
 31
11.9
  0
LINE
  5
B83
330
A02
100
AcDbEntity
  8
Mesh_cs
100
AcDbLine
 10
126.946
 20
217.649
 30
11.9
 11
125.292
 21
213.958
 31
11.9
  0
LINE
  5
B84
330
A02
100
AcDbEntity
  8
Mesh_cs
100
AcDbLine
 10
125.292
 20
213.958
 30
11.9
 11
125.111
 21
213.546
 31
11.9
  0
LINE
  5
B85
330
A02
100
AcDbEntity
  8
Mesh_cs
100
AcDbLine
 10
125.111
 20
213.546
 30
11.9
 11
123.488
 21
209.842
 31
11.9
  0
LINE
  5
B86
330
A02
100
AcDbEntity
  8
Mesh_cs
100
AcDbLine
 10
123.488
 20
209.842
 30
11.9
 11
123.311
 21
209.429
 31
11.9
  0
LINE
  5
B87
330
A02
100
AcDbEntity
  8
Mesh_cs
100
AcDbLine
 10
123.311
 20
209.429
 30
11.9
 11
121.72
 21
205.711
 31
11.9
  0
LINE
  5
B88
330
A02
100
AcDbEntity
  8
Mesh_cs
100
AcDbLine
 10
121.72
 20
205.711
 30
11.9
 11
121.547
 21
205.296
 31
11.9
  0
LINE
  5
B89
330
A02
100
AcDbEntity
  8
Mesh_cs
100
AcDbLine
 10
121.547
 20
205.296
 30
11.9
 11
119.987
 21
201.565
 31
11.9
  0
LINE
  5
B8A
330
A02
100
AcDbEntity
  8
Mesh_cs
100
AcDbLine
 10
119.987
 20
201.565
 30
11.9
 11
119.817
 21
201.149
 31
11.9
  0
LINE
  5
B8B
330
A02
100
AcDbEntity
  8
Mesh_cs
100
AcDbLine
 10
119.817
 20
201.149
 30
11.9
 11
118.289
 21
197.404
 31
11.9
  0
LINE
  5
B8C
330
A02
100
AcDbEntity
  8
Mesh_cs
100
AcDbLine
 10
118.289
 20
197.404
 30
11.9
 11
118.123
 21
196.987
 31
11.9
  0
LINE
  5
B8D
330
A02
100
AcDbEntity
  8
Mesh_cs
100
AcDbLine
 10
118.123
 20
196.987
 30
11.9
 11
116.627
 21
193.229
 31
11.9
  0
LINE
  5
B8E
330
A02
100
AcDbEntity
  8
Mesh_cs
100
AcDbLine
 10
116.627
 20
193.229
 30
11.9
 11
116.464
 21
192.81
 31
11.9
  0
LINE
  5
B8F
330
A02
100
AcDbEntity
  8
Mesh_cs
100
AcDbLine
 10
116.464
 20
192.81
 30
11.9
 11
115
 21
189.04
 31
11.9
  0
LINE
  5
B90
330
A02
100
AcDbEntity
  8
Mesh_cs
100
AcDbLine
 10
115
 20
189.04
 30
11.9
 11
115
 21
200.144
 31
11.9
  0
LINE
  5
B91
330
A02
100
AcDbEntity
  8
Mesh_cs
100
AcDbLine
 10
115
 20
200.144
 30
11.9
 11
115
 21
300.074
 31
11.9
  0
LINE
  5
B92
330
A02
100
AcDbEntity
  8
Mesh_cs
100
AcDbLine
 10
115
 20
300.074
 30
11.9
 11
167.699
 21
300.074
 31
11.9
  0
LINE
  5
B93
330
A02
100
AcDbEntity
  8
Mesh_cs
100
AcDbLine
 10
167.699
 20
300.074
 30
11.9
 11
173.555
 21
300.074
 31
11.9
  0
LINE
  5
B94
330
A02
100
AcDbEntity
  8
Mesh_cs
100
AcDbLine
 10
173.555
 20
300.074
 30
11.9
 11
173.301
 21
299.703
 31
11.9
  0
LINE
  5
B95
330
A02
100
AcDbEntity
  8
Mesh_cs
100
AcDbLine
 10
173.301
 20
299.703
 30
11.9
 11
171.017
 21
296.366
 31
11.9
  0
LINE
  5
B96
330
A02
100
AcDbEntity
  8
Mesh_cs
100
AcDbLine
 10
171.017
 20
296.366
 30
11.9
 11
170.766
 21
295.993
 31
11.9
  0
LINE
  5
B97
330
A02
100
AcDbEntity
  8
Mesh_cs
100
AcDbLine
 10
170.766
 20
295.993
 30
11.9
 11
168.51
 21
292.636
 31
11.9
  0
LINE
  5
B98
330
A02
100
AcDbEntity
  8
Mesh_cs
100
AcDbLine
 10
168.51
 20
292.636
 30
11.9
 11
168.263
 21
292.261
 31
11.9
  0
LINE
  5
B99
330
A02
100
AcDbEntity
  8
Mesh_cs
100
AcDbLine
 10
168.263
 20
292.261
 30
11.9
 11
166.036
 21
288.885
 31
11.9
  0
LINE
  5
B9A
330
A02
100
AcDbEntity
  8
Mesh_cs
100
AcDbLine
 10
166.036
 20
288.885
 30
11.9
 11
165.792
 21
288.508
 31
11.9
  0
LINE
  5
B9B
330
A02
100
AcDbEntity
  8
Mesh_cs
100
AcDbLine
 10
165.792
 20
288.508
 30
11.9
 11
163.593
 21
285.113
 31
11.9
  0
LINE
  5
B9C
330
A02
100
AcDbEntity
  8
Mesh_cs
100
AcDbLine
 10
163.593
 20
285.113
 30
11.9
 11
163.352
 21
284.734
 31
11.9
  0
LINE
  5
B9D
330
A02
100
AcDbEntity
  8
Mesh_cs
100
AcDbLine
 10
163.352
 20
284.734
 30
11.9
 11
161.183
 21
281.32
 31
11.9
  0
LINE
  5
B9E
330
A02
100
AcDbEntity
  8
Mesh_cs
100
AcDbLine
 10
161.183
 20
281.32
 30
11.9
 11
160.945
 21
280.939
 31
11.9
  0
LINE
  5
B9F
330
A02
100
AcDbEntity
  8
Mesh_cs
100
AcDbLine
 10
160.945
 20
280.939
 30
11.9
 11
158.805
 21
277.507
 31
11.9
  0
LINE
  5
BA0
330
A02
100
AcDbEntity
  8
Mesh_cs
100
AcDbLine
 10
158.805
 20
277.507
 30
11.9
 11
158.57
 21
277.124
 31
11.9
  0
LINE
  5
BA1
330
A02
100
AcDbEntity
  8
Mesh_cs
100
AcDbLine
 10
158.57
 20
277.124
 30
11.9
 11
156.459
 21
273.674
 31
11.9
  0
LINE
  5
BA2
330
A02
100
AcDbEntity
  8
Mesh_cs
100
AcDbLine
 10
156.459
 20
273.674
 30
11.9
 11
156.228
 21
273.289
 31
11.9
  0
LINE
  5
BA3
330
A02
100
AcDbEntity
  8
Mesh_cs
100
AcDbLine
 10
156.228
 20
273.289
 30
11.9
 11
154.147
 21
269.821
 31
11.9
  0
LINE
  5
BA4
330
A02
100
AcDbEntity
  8
Mesh_cs
100
AcDbLine
 10
154.147
 20
269.821
 30
11.9
 11
153.919
 21
269.434
 31
11.9
  0
LINE
  5
BA5
330
A02
100
AcDbEntity
  8
Mesh_cs
100
AcDbLine
 10
153.919
 20
269.434
 30
11.9
 11
151.867
 21
265.949
 31
11.9
  0
LINE
  5
BA6
330
A02
100
AcDbEntity
  8
Mesh_cs
100
AcDbLine
 10
151.867
 20
265.949
 30
11.9
 11
151.642
 21
265.56
 31
11.9
  0
LINE
  5
BA7
330
A02
100
AcDbEntity
  8
Mesh_cs
100
AcDbLine
 10
151.642
 20
265.56
 30
11.9
 11
149.62
 21
262.057
 31
11.9
  0
LINE
  5
BA8
330
A02
100
AcDbEntity
  8
Mesh_cs
100
AcDbLine
 10
149.62
 20
262.057
 30
11.9
 11
149.399
 21
261.666
 31
11.9
  0
LINE
  5
BA9
330
A02
100
AcDbEntity
  8
Mesh_cs
100
AcDbLine
 10
149.399
 20
261.666
 30
11.9
 11
147.406
 21
258.147
 31
11.9
  0
LINE
  5
BAA
330
A02
100
AcDbEntity
  8
Mesh_cs
100
AcDbLine
 10
147.406
 20
258.147
 30
11.9
 11
147.188
 21
257.754
 31
11.9
  0
LINE
  5
BAB
330
A02
100
AcDbEntity
  8
Mesh_cs
100
AcDbLine
 10
147.188
 20
257.754
 30
11.9
 11
145.226
 21
254.217
 31
11.9
  0
LINE
  5
BAC
330
A02
100
AcDbEntity
  8
Mesh_cs
100
AcDbLine
 10
145.226
 20
254.217
 30
11.9
 11
145.011
 21
253.822
 31
11.9
  0
LINE
  5
BAD
330
A02
100
AcDbEntity
  8
Mesh_cs
100
AcDbLine
 10
145.011
 20
253.822
 30
11.9
 11
143.079
 21
250.269
 31
11.9
  0
LINE
  5
BAE
330
A02
100
AcDbEntity
  8
Mesh_cs
100
AcDbLine
 10
143.079
 20
250.269
 30
11.9
 11
142.868
 21
249.873
 31
11.9
  0
LINE
  5
BAF
330
A02
100
AcDbEntity
  8
Mesh_cs
100
AcDbLine
 10
142.868
 20
249.873
 30
11.9
 11
140.966
 21
246.303
 31
11.9
  0
LINE
  5
BB0
330
A02
100
AcDbEntity
  8
Mesh_cs
100
AcDbLine
 10
140.966
 20
246.303
 30
11.9
 11
140.758
 21
245.905
 31
11.9
  0
LINE
  5
BB1
330
A02
100
AcDbEntity
  8
Mesh_cs
100
AcDbLine
 10
0
 20
24.9
 30
11.9
 11
0
 21
266.832
 31
11.9
  0
LINE
  5
BB2
330
A02
100
AcDbEntity
  8
Mesh_cs
100
AcDbLine
 10
0
 20
266.832
 30
11.9
 11
3.33334e-17
 21
275.174
 31
11.9
  0
LINE
  5
BB3
330
A02
100
AcDbEntity
  8
Mesh_cs
100
AcDbLine
 10
3.33334e-17
 20
275.174
 30
11.9
 11
19.2367
 21
275.174
 31
11.9
  0
LINE
  5
BB4
330
A02
100
AcDbEntity
  8
Mesh_cs
100
AcDbLine
 10
19.2367
 20
275.174
 30
11.9
 11
19.9
 21
275.174
 31
11.9
  0
LINE
  5
BB5
330
A02
100
AcDbEntity
  8
Mesh_cs
100
AcDbLine
 10
19.9
 20
275.174
 30
11.9
 11
19.9111
 21
275.174
 31
11.9
  0
LINE
  5
BB6
330
A02
100
AcDbEntity
  8
Mesh_cs
100
AcDbLine
 10
19.9111
 20
275.174
 30
11.9
 11
20.3
 21
275.19
 31
11.9
  0
LINE
  5
BB7
330
A02
100
AcDbEntity
  8
Mesh_cs
100
AcDbLine
 10
20.3
 20
275.19
 30
11.9
 11
20.3114
 21
275.191
 31
11.9
  0
LINE
  5
BB8
330
A02
100
AcDbEntity
  8
Mesh_cs
100
AcDbLine
 10
20.3114
 20
275.191
 30
11.9
 11
20.6983
 21
275.238
 31
11.9
  0
LINE
  5
BB9
330
A02
100
AcDbEntity
  8
Mesh_cs
100
AcDbLine
 10
20.6983
 20
275.238
 30
11.9
 11
20.7128
 21
275.241
 31
11.9
  0
LINE
  5
BBA
330
A02
100
AcDbEntity
  8
Mesh_cs
100
AcDbLine
 10
20.7128
 20
275.241
 30
11.9
 11
21.0598
 21
275.311
 31
11.9
  0
LINE
  5
BBB
330
A02
100
AcDbEntity
  8
Mesh_cs
100
AcDbLine
 10
21.0598
 20
275.311
 30
11.9
 11
21.074
 21
275.314
 31
11.9
  0
LINE
  5
BBC
330
A02
100
AcDbEntity
  8
Mesh_cs
100
AcDbLine
 10
21.074
 20
275.314
 30
11.9
 11
21.4485
 21
275.42
 31
11.9
  0
LINE
  5
BBD
330
A02
100
AcDbEntity
  8
Mesh_cs
100
AcDbLine
 10
21.4485
 20
275.42
 30
11.9
 11
21.8134
 21
275.555
 31
11.9
  0
LINE
  5
BBE
330
A02
100
AcDbEntity
  8
Mesh_cs
100
AcDbLine
 10
21.8134
 20
275.555
 30
11.9
 11
21.8272
 21
275.561
 31
11.9
  0
LINE
  5
BBF
330
A02
100
AcDbEntity
  8
Mesh_cs
100
AcDbLine
 10
21.8272
 20
275.561
 30
11.9
 11
22.1799
 21
275.725
 31
11.9
  0
LINE
  5
BC0
330
A02
100
AcDbEntity
  8
Mesh_cs
100
AcDbLine
 10
22.1799
 20
275.725
 30
11.9
 11
22.1933
 21
275.731
 31
11.9
  0
LINE
  5
BC1
330
A02
100
AcDbEntity
  8
Mesh_cs
100
AcDbLine
 10
22.1933
 20
275.731
 30
11.9
 11
22.5316
 21
275.923
 31
11.9
  0
LINE
  5
BC2
330
A02
100
AcDbEntity
  8
Mesh_cs
100
AcDbLine
 10
22.5316
 20
275.923
 30
11.9
 11
22.5444
 21
275.931
 31
11.9
  0
LINE
  5
BC3
330
A02
100
AcDbEntity
  8
Mesh_cs
100
AcDbLine
 10
22.5444
 20
275.931
 30
11.9
 11
22.8661
 21
276.149
 31
11.9
  0
LINE
  5
BC4
330
A02
100
AcDbEntity
  8
Mesh_cs
100
AcDbLine
 10
22.8661
 20
276.149
 30
11.9
 11
22.8782
 21
276.158
 31
11.9
  0
LINE
  5
BC5
330
A02
100
AcDbEntity
  8
Mesh_cs
100
AcDbLine
 10
22.8782
 20
276.158
 30
11.9
 11
23.1813
 21
276.402
 31
11.9
  0
LINE
  5
BC6
330
A02
100
AcDbEntity
  8
Mesh_cs
100
AcDbLine
 10
23.1813
 20
276.402
 30
11.9
 11
23.1926
 21
276.411
 31
11.9
  0
LINE
  5
BC7
330
A02
100
AcDbEntity
  8
Mesh_cs
100
AcDbLine
 10
23.1926
 20
276.411
 30
11.9
 11
23.5052
 21
276.71
 31
11.9
  0
LINE
  5
BC8
330
A02
100
AcDbEntity
  8
Mesh_cs
100
AcDbLine
 10
23.5052
 20
276.71
 30
11.9
 11
23.5146
 21
276.72
 31
11.9
  0
LINE
  5
BC9
330
A02
100
AcDbEntity
  8
Mesh_cs
100
AcDbLine
 10
23.5146
 20
276.72
 30
11.9
 11
23.7992
 21
277.045
 31
11.9
  0
LINE
  5
BCA
330
A02
100
AcDbEntity
  8
Mesh_cs
100
AcDbLine
 10
23.7992
 20
277.045
 30
11.9
 11
23.8078
 21
277.055
 31
11.9
  0
LINE
  5
BCB
330
A02
100
AcDbEntity
  8
Mesh_cs
100
AcDbLine
 10
23.8078
 20
277.055
 30
11.9
 11
24.0622
 21
277.404
 31
11.9
  0
LINE
  5
BCC
330
A02
100
AcDbEntity
  8
Mesh_cs
100
AcDbLine
 10
24.0622
 20
277.404
 30
11.9
 11
24.07
 21
277.415
 31
11.9
  0
LINE
  5
BCD
330
A02
100
AcDbEntity
  8
Mesh_cs
100
AcDbLine
 10
24.07
 20
277.415
 30
11.9
 11
24.2922
 21
277.786
 31
11.9
  0
LINE
  5
BCE
330
A02
100
AcDbEntity
  8
Mesh_cs
100
AcDbLine
 10
24.2922
 20
277.786
 30
11.9
 11
24.299
 21
277.797
 31
11.9
  0
LINE
  5
BCF
330
A02
100
AcDbEntity
  8
Mesh_cs
100
AcDbLine
 10
24.299
 20
277.797
 30
11.9
 11
24.3049
 21
277.81
 31
11.9
  0
LINE
  5
BD0
330
A02
100
AcDbEntity
  8
Mesh_cs
100
AcDbLine
 10
24.3049
 20
277.81
 30
11.9
 11
24.4931
 21
278.199
 31
11.9
  0
LINE
  5
BD1
330
A02
100
AcDbEntity
  8
Mesh_cs
100
AcDbLine
 10
24.4931
 20
278.199
 30
11.9
 11
24.498
 21
278.211
 31
11.9
  0
LINE
  5
BD2
330
A02
100
AcDbEntity
  8
Mesh_cs
100
AcDbLine
 10
24.498
 20
278.211
 30
11.9
 11
24.6508
 21
278.615
 31
11.9
  0
LINE
  5
BD3
330
A02
100
AcDbEntity
  8
Mesh_cs
100
AcDbLine
 10
24.6508
 20
278.615
 30
11.9
 11
24.6546
 21
278.628
 31
11.9
  0
LINE
  5
BD4
330
A02
100
AcDbEntity
  8
Mesh_cs
100
AcDbLine
 10
24.6546
 20
278.628
 30
11.9
 11
24.7707
 21
279.044
 31
11.9
  0
LINE
  5
BD5
330
A02
100
AcDbEntity
  8
Mesh_cs
100
AcDbLine
 10
24.7707
 20
279.044
 30
11.9
 11
24.7734
 21
279.058
 31
11.9
  0
LINE
  5
BD6
330
A02
100
AcDbEntity
  8
Mesh_cs
100
AcDbLine
 10
24.7734
 20
279.058
 30
11.9
 11
24.8519
 21
279.482
 31
11.9
  0
LINE
  5
BD7
330
A02
100
AcDbEntity
  8
Mesh_cs
100
AcDbLine
 10
24.8519
 20
279.482
 30
11.9
 11
24.8536
 21
279.496
 31
11.9
  0
LINE
  5
BD8
330
A02
100
AcDbEntity
  8
Mesh_cs
100
AcDbLine
 10
24.8536
 20
279.496
 30
11.9
 11
24.888
 21
279.828
 31
11.9
  0
LINE
  5
BD9
330
A02
100
AcDbEntity
  8
Mesh_cs
100
AcDbLine
 10
24.888
 20
279.828
 30
11.9
 11
24.8885
 21
279.841
 31
11.9
  0
LINE
  5
BDA
330
A02
100
AcDbEntity
  8
Mesh_cs
100
AcDbLine
 10
24.8885
 20
279.841
 30
11.9
 11
24.9
 21
280.174
 31
11.9
  0
LINE
  5
BDB
330
A02
100
AcDbEntity
  8
Mesh_cs
100
AcDbLine
 10
24.9
 20
280.174
 30
11.9
 11
24.9
 21
299.411
 31
11.9
  0
LINE
  5
BDC
330
A02
100
AcDbEntity
  8
Mesh_cs
100
AcDbLine
 10
24.9
 20
299.411
 30
11.9
 11
24.9
 21
300.074
 31
11.9
  0
LINE
  5
BDD
330
A02
100
AcDbEntity
  8
Mesh_cs
100
AcDbLine
 10
24.9
 20
300.074
 30
11.9
 11
30.41
 21
300.074
 31
11.9
  0
LINE
  5
BDE
330
A02
100
AcDbEntity
  8
Mesh_cs
100
AcDbLine
 10
30.41
 20
300.074
 30
11.9
 11
80
 21
300.074
 31
11.9
  0
LINE
  5
BDF
330
A02
100
AcDbEntity
  8
Mesh_cs
100
AcDbLine
 10
80
 20
300.074
 30
11.9
 11
80
 21
270.067
 31
11.9
  0
LINE
  5
BE0
330
A02
100
AcDbEntity
  8
Mesh_cs
100
AcDbLine
 10
80
 20
270.067
 30
11.9
 11
80
 21
0
 31
11.9
  0
LINE
  5
BE1
330
A02
100
AcDbEntity
  8
Mesh_cs
100
AcDbLine
 10
80
 20
0
 30
11.9
 11
30.41
 21
4.59e-14
 31
11.9
  0
LINE
  5
BE2
330
A02
100
AcDbEntity
  8
Mesh_cs
100
AcDbLine
 10
30.41
 20
4.59e-14
 30
11.9
 11
24.9
 21
5.09667e-14
 31
11.9
  0
LINE
  5
BE3
330
A02
100
AcDbEntity
  8
Mesh_cs
100
AcDbLine
 10
24.9
 20
5.09667e-14
 30
11.9
 11
24.9
 21
19.2367
 31
11.9
  0
LINE
  5
BE4
330
A02
100
AcDbEntity
  8
Mesh_cs
100
AcDbLine
 10
24.9
 20
19.2367
 30
11.9
 11
24.9
 21
19.9
 31
11.9
  0
LINE
  5
BE5
330
A02
100
AcDbEntity
  8
Mesh_cs
100
AcDbLine
 10
24.9
 20
19.9
 30
11.9
 11
24.8816
 21
20.3213
 31
11.9
  0
LINE
  5
BE6
330
A02
100
AcDbEntity
  8
Mesh_cs
100
AcDbLine
 10
24.8816
 20
20.3213
 30
11.9
 11
24.881
 21
20.3358
 31
11.9
  0
LINE
  5
BE7
330
A02
100
AcDbEntity
  8
Mesh_cs
100
AcDbLine
 10
24.881
 20
20.3358
 30
11.9
 11
24.8259
 21
20.7538
 31
11.9
  0
LINE
  5
BE8
330
A02
100
AcDbEntity
  8
Mesh_cs
100
AcDbLine
 10
24.8259
 20
20.7538
 30
11.9
 11
24.824
 21
20.7682
 31
11.9
  0
LINE
  5
BE9
330
A02
100
AcDbEntity
  8
Mesh_cs
100
AcDbLine
 10
24.824
 20
20.7682
 30
11.9
 11
24.7328
 21
21.1799
 31
11.9
  0
LINE
  5
BEA
330
A02
100
AcDbEntity
  8
Mesh_cs
100
AcDbLine
 10
24.7328
 20
21.1799
 30
11.9
 11
24.7296
 21
21.1941
 31
11.9
  0
LINE
  5
BEB
330
A02
100
AcDbEntity
  8
Mesh_cs
100
AcDbLine
 10
24.7296
 20
21.1941
 30
11.9
 11
24.6028
 21
21.5962
 31
11.9
  0
LINE
  5
BEC
330
A02
100
AcDbEntity
  8
Mesh_cs
100
AcDbLine
 10
24.6028
 20
21.5962
 30
11.9
 11
24.5985
 21
21.6101
 31
11.9
  0
LINE
  5
BED
330
A02
100
AcDbEntity
  8
Mesh_cs
100
AcDbLine
 10
24.5985
 20
21.6101
 30
11.9
 11
24.4371
 21
21.9997
 31
11.9
  0
LINE
  5
BEE
330
A02
100
AcDbEntity
  8
Mesh_cs
100
AcDbLine
 10
24.4371
 20
21.9997
 30
11.9
 11
24.4315
 21
22.0131
 31
11.9
  0
LINE
  5
BEF
330
A02
100
AcDbEntity
  8
Mesh_cs
100
AcDbLine
 10
24.4315
 20
22.0131
 30
11.9
 11
24.2368
 21
22.3871
 31
11.9
  0
LINE
  5
BF0
330
A02
100
AcDbEntity
  8
Mesh_cs
100
AcDbLine
 10
24.2368
 20
22.3871
 30
11.9
 11
24.2301
 21
22.4
 31
11.9
  0
LINE
  5
BF1
330
A02
100
AcDbEntity
  8
Mesh_cs
100
AcDbLine
 10
24.2301
 20
22.4
 30
11.9
 11
24.2223
 21
22.4123
 31
11.9
  0
LINE
  5
BF2
330
A02
100
AcDbEntity
  8
Mesh_cs
100
AcDbLine
 10
24.2223
 20
22.4123
 30
11.9
 11
23.9958
 21
22.7679
 31
11.9
  0
LINE
  5
BF3
330
A02
100
AcDbEntity
  8
Mesh_cs
100
AcDbLine
 10
23.9958
 20
22.7679
 30
11.9
 11
23.7391
 21
23.1024
 31
11.9
  0
LINE
  5
BF4
330
A02
100
AcDbEntity
  8
Mesh_cs
100
AcDbLine
 10
23.7391
 20
23.1024
 30
11.9
 11
23.7302
 21
23.1139
 31
11.9
  0
LINE
  5
BF5
330
A02
100
AcDbEntity
  8
Mesh_cs
100
AcDbLine
 10
23.7302
 20
23.1139
 30
11.9
 11
23.4454
 21
23.4248
 31
11.9
  0
LINE
  5
BF6
330
A02
100
AcDbEntity
  8
Mesh_cs
100
AcDbLine
 10
23.4454
 20
23.4248
 30
11.9
 11
23.4355
 21
23.4355
 31
11.9
  0
LINE
  5
BF7
330
A02
100
AcDbEntity
  8
Mesh_cs
100
AcDbLine
 10
23.4355
 20
23.4355
 30
11.9
 11
23.1247
 21
23.7204
 31
11.9
  0
LINE
  5
BF8
330
A02
100
AcDbEntity
  8
Mesh_cs
100
AcDbLine
 10
23.1247
 20
23.7204
 30
11.9
 11
23.1139
 21
23.7302
 31
11.9
  0
LINE
  5
BF9
330
A02
100
AcDbEntity
  8
Mesh_cs
100
AcDbLine
 10
23.1139
 20
23.7302
 30
11.9
 11
22.7794
 21
23.9869
 31
11.9
  0
LINE
  5
BFA
330
A02
100
AcDbEntity
  8
Mesh_cs
100
AcDbLine
 10
22.7794
 20
23.9869
 30
11.9
 11
22.7679
 21
23.9958
 31
11.9
  0
LINE
  5
BFB
330
A02
100
AcDbEntity
  8
Mesh_cs
100
AcDbLine
 10
22.7679
 20
23.9958
 30
11.9
 11
22.4123
 21
24.2223
 31
11.9
  0
LINE
  5
BFC
330
A02
100
AcDbEntity
  8
Mesh_cs
100
AcDbLine
 10
22.4123
 20
24.2223
 30
11.9
 11
22.4
 21
24.2301
 31
11.9
  0
LINE
  5
BFD
330
A02
100
AcDbEntity
  8
Mesh_cs
100
AcDbLine
 10
22.4
 20
24.2301
 30
11.9
 11
22.026
 21
24.4248
 31
11.9
  0
LINE
  5
BFE
330
A02
100
AcDbEntity
  8
Mesh_cs
100
AcDbLine
 10
22.026
 20
24.4248
 30
11.9
 11
22.0131
 21
24.4315
 31
11.9
  0
LINE
  5
BFF
330
A02
100
AcDbEntity
  8
Mesh_cs
100
AcDbLine
 10
22.0131
 20
24.4315
 30
11.9
 11
21.6235
 21
24.5929
 31
11.9
  0
LINE
  5
C00
330
A02
100
AcDbEntity
  8
Mesh_cs
100
AcDbLine
 10
21.6235
 20
24.5929
 30
11.9
 11
21.6101
 21
24.5985
 31
11.9
  0
LINE
  5
C01
330
A02
100
AcDbEntity
  8
Mesh_cs
100
AcDbLine
 10
21.6101
 20
24.5985
 30
11.9
 11
21.208
 21
24.7253
 31
11.9
  0
LINE
  5
C02
330
A02
100
AcDbEntity
  8
Mesh_cs
100
AcDbLine
 10
21.208
 20
24.7253
 30
11.9
 11
21.1941
 21
24.7296
 31
11.9
  0
LINE
  5
C03
330
A02
100
AcDbEntity
  8
Mesh_cs
100
AcDbLine
 10
21.1941
 20
24.7296
 30
11.9
 11
20.7824
 21
24.8209
 31
11.9
  0
LINE
  5
C04
330
A02
100
AcDbEntity
  8
Mesh_cs
100
AcDbLine
 10
20.7824
 20
24.8209
 30
11.9
 11
20.7682
 21
24.824
 31
11.9
  0
LINE
  5
C05
330
A02
100
AcDbEntity
  8
Mesh_cs
100
AcDbLine
 10
20.7682
 20
24.824
 30
11.9
 11
20.3502
 21
24.8791
 31
11.9
  0
LINE
  5
C06
330
A02
100
AcDbEntity
  8
Mesh_cs
100
AcDbLine
 10
20.3502
 20
24.8791
 30
11.9
 11
20.3358
 21
24.881
 31
11.9
  0
LINE
  5
C07
330
A02
100
AcDbEntity
  8
Mesh_cs
100
AcDbLine
 10
20.3358
 20
24.881
 30
11.9
 11
19.9145
 21
24.8994
 31
11.9
  0
LINE
  5
C08
330
A02
100
AcDbEntity
  8
Mesh_cs
100
AcDbLine
 10
19.9145
 20
24.8994
 30
11.9
 11
19.9
 21
24.9
 31
11.9
  0
LINE
  5
C09
330
A02
100
AcDbEntity
  8
Mesh_cs
100
AcDbLine
 10
19.9
 20
24.9
 30
11.9
 11
19.2367
 21
24.9
 31
11.9
  0
LINE
  5
C0A
330
A02
100
AcDbEntity
  8
Mesh_cs
100
AcDbLine
 10
19.2367
 20
24.9
 30
11.9
 11
0
 21
24.9
 31
11.9
  0
LINE
  5
C0B
330
A02
100
AcDbEntity
  8
Mesh_cs
100
AcDbLine
 10
14.4033
 20
285.174
 30
11.9
 11
0
 21
285.174
 31
11.9
  0
LINE
  5
C0C
330
A02
100
AcDbEntity
  8
Mesh_cs
100
AcDbLine
 10
-6.66669e-17
 20
285.174
 30
11.9
 11
-6.6667e-17
 21
299.577
 31
11.9
  0
LINE
  5
C0D
330
A02
100
AcDbEntity
  8
Mesh_cs
100
AcDbLine
 10
-6.6667e-17
 20
299.577
 30
11.9
 11
0
 21
300.074
 31
11.9
  0
LINE
  5
C0E
330
A02
100
AcDbEntity
  8
Mesh_cs
100
AcDbLine
 10
0
 20
300.074
 30
11.9
 11
0.496668
 21
300.074
 31
11.9
  0
LINE
  5
C0F
330
A02
100
AcDbEntity
  8
Mesh_cs
100
AcDbLine
 10
0.496668
 20
300.074
 30
11.9
 11
14.9
 21
300.074
 31
11.9
  0
LINE
  5
C10
330
A02
100
AcDbEntity
  8
Mesh_cs
100
AcDbLine
 10
14.9
 20
300.074
 30
11.9
 11
14.9
 21
285.671
 31
11.9
  0
LINE
  5
C11
330
A02
100
AcDbEntity
  8
Mesh_cs
100
AcDbLine
 10
14.9
 20
285.671
 30
11.9
 11
14.9
 21
285.174
 31
11.9
  0
LINE
  5
C12
330
A02
100
AcDbEntity
  8
Mesh_cs
100
AcDbLine
 10
14.9
 20
285.174
 30
11.9
 11
14.4033
 21
285.174
 31
11.9
  0
LINE
  5
C13
330
A02
100
AcDbEntity
  8
Mesh_cs
100
AcDbLine
 10
180.1
 20
0.496668
 30
11.9
 11
180.1
 21
14.9
 31
11.9
  0
LINE
  5
C14
330
A02
100
AcDbEntity
  8
Mesh_cs
100
AcDbLine
 10
180.1
 20
14.9
 30
11.9
 11
180.597
 21
14.9
 31
11.9
  0
LINE
  5
C15
330
A02
100
AcDbEntity
  8
Mesh_cs
100
AcDbLine
 10
180.597
 20
14.9
 30
11.9
 11
195
 21
14.9
 31
11.9
  0
LINE
  5
C16
330
A02
100
AcDbEntity
  8
Mesh_cs
100
AcDbLine
 10
195
 20
14.9
 30
11.9
 11
195
 21
0.496668
 31
11.9
  0
LINE
  5
C17
330
A02
100
AcDbEntity
  8
Mesh_cs
100
AcDbLine
 10
195
 20
0.496668
 30
11.9
 11
195
 21
5.10147e-14
 31
11.9
  0
LINE
  5
C18
330
A02
100
AcDbEntity
  8
Mesh_cs
100
AcDbLine
 10
195
 20
5.1e-14
 30
11.9
 11
194.503
 21
5.1e-14
 31
11.9
  0
LINE
  5
C19
330
A02
100
AcDbEntity
  8
Mesh_cs
100
AcDbLine
 10
194.503
 20
5.1e-14
 30
11.9
 11
180.1
 21
5.1e-14
 31
11.9
  0
LINE
  5
C1A
330
A02
100
AcDbEntity
  8
Mesh_cs
100
AcDbLine
 10
180.1
 20
5.1e-14
 30
11.9
 11
180.1
 21
0.496668
 31
11.9
  0
LINE
  5
C1B
330
A02
100
AcDbEntity
  8
Mesh_cs
100
AcDbLine
 10
0.496668
 20
14.9
 30
11.9
 11
14.9
 21
14.9
 31
11.9
  0
LINE
  5
C1C
330
A02
100
AcDbEntity
  8
Mesh_cs
100
AcDbLine
 10
14.9
 20
14.9
 30
11.9
 11
14.9
 21
14.4033
 31
11.9
  0
LINE
  5
C1D
330
A02
100
AcDbEntity
  8
Mesh_cs
100
AcDbLine
 10
14.9
 20
14.4033
 30
11.9
 11
14.9
 21
5.15143e-14
 31
11.9
  0
LINE
  5
C1E
330
A02
100
AcDbEntity
  8
Mesh_cs
100
AcDbLine
 10
14.9
 20
5.1e-14
 30
11.9
 11
0.496668
 21
5.39e-14
 31
11.9
  0
LINE
  5
C1F
330
A02
100
AcDbEntity
  8
Mesh_cs
100
AcDbLine
 10
0.496668
 20
5.39e-14
 30
11.9
 11
0
 21
5.4e-14
 31
11.9
  0
LINE
  5
C20
330
A02
100
AcDbEntity
  8
Mesh_cs
100
AcDbLine
 10
0
 20
5.4e-14
 30
11.9
 11
0
 21
0.496668
 31
11.9
  0
LINE
  5
C21
330
A02
100
AcDbEntity
  8
Mesh_cs
100
AcDbLine
 10
0
 20
0.496668
 30
11.9
 11
0
 21
14.9
 31
11.9
  0
LINE
  5
C22
330
A02
100
AcDbEntity
  8
Mesh_cs
100
AcDbLine
 10
0
 20
14.9
 30
11.9
 11
0.496668
 21
14.9
 31
11.9
  0
ENDSEC
  0
SECTION
  2
OBJECTS
  0
DICTIONARY
  5
F000
330
0
100
AcDbDictionary
  3
ACAD_GROUP
350
F001
  0
DICTIONARY
  5
F001
330
F000
100
AcDbDictionary
  0
ENDSEC
  0
EOF