999
FreeCAD v0.21 33771 (Git)
  0
SECTION
  2
HEADER
  9
$ACADVER
  1
AC1014
  9
$ACADMAINTVER
 70
     9
  9
$DWGCODEPAGE
  3
ANSI_1252
  9
$TEXTSTYLE
  7
STANDARD
  9
$DIMSTYLE
  2
STANDARD
  9
$DIMTXSTY
  7
STANDARD
  9
$CMLSTYLE
  2
STANDARD
  9
$LUNITS
 70
2
  9
$INSUNITS
 70
4
  9
$PEXTMAX
 10
50
 20
50
 30
50
  9
$PEXTMIN
 10
0
 20
0
 30
0
  9
$HANDSEED
  5
FFFF
  0
ENDSEC
  0
SECTION
  2
CLASSES
  0
CLASS
  1
ACDBDICTIONARYWDFLT
  2
AcDbDictionaryWithDefault
  3
ObjectDBX Classes
 90
        0
280
     0
281
     0
  0
CLASS
  1
XRECORD
  2
AcDbXrecord
  3
ObjectDBX Classes
 90
        0
280
     0
281
     0
  0
CLASS
  1
LWPOLYLINE
  2
AcDbPolyline
  3
ObjectDBX Classes
 90
        0
280
     0
281
     1
  0
ENDSEC
  0
SECTION
  2
TABLES
  0
TABLE
  2
VPORT
  5
20
330
0
100
AcDbSymbolTable
 70
     1
  0
VPORT
  5
21
330
20
100
AcDbSymbolTableRecord
100
AcDbViewportTableRecord
  2
*ACTIVE
 70
     0
  0
ENDTAB
  0
TABLE
  2
LTYPE
  5
22
330
0
100
AcDbSymbolTable
 70
     1
  0
LTYPE
  5
23
330
21
100
AcDbSymbolTableRecord
100
AcDbLinetypeTableRecord
  2
BYBLOCK
 70
     0
  3

 72
    65
 73
     0
 40
0.0
  0
LTYPE
  5
24
330
21
100
AcDbSymbolTableRecord
100
AcDbLinetypeTableRecord
  2
BYLAYER
 70
     0
  3

 72
    65
 73
     0
 40
0.0
  0
LTYPE
  5
25
330
21
100
AcDbSymbolTableRecord
100
AcDbLinetypeTableRecord
  2
CONTINUOUS
 70
     0
  3
Solid line
 72
    65
 73
     0
 40
0.0
  0
ENDTAB
  0
TABLE
  2
LAYER
  5
CE6
330
0
100
AcDbSymbolTable
 70
3
  0
LAYER
  5
CE7
330
CE6
100
AcDbSymbolTableRecord
100
AcDbLayerTableRecord
  2
0
 70
   0
 62
   7
  6
CONTINUOUS
  0
LAYER
  5
CE8
330
CE6
100
AcDbSymbolTableRecord
100
AcDbLayerTableRecord
  2
none
 70
    0
 62
    7
  6
CONTINUOUS
  0
LAYER
  5
CE9
330
CE6
100
AcDbSymbolTableRecord
100
AcDbLayerTableRecord
  2
Mesh_cs002
 70
    0
 62
    7
  6
CONTINUOUS
  0
ENDTAB
  0
TABLE
  2
STYLE
  5
70
330
0
100
AcDbSymbolTable
 70
     2
  0
STYLE
  5
71
330
70
100
AcDbSymbolTableRecord
100
AcDbTextStyleTableRecord
  2
STANDARD
 70
     0
 40
0.0
 41
1.0
 50
0.0
 71
     0
 42
2.5
  3
arial.ttf
  4

  0
STYLE
  5
72
330
70
100
AcDbSymbolTableRecord
100
AcDbTextStyleTableRecord
  2
ANNOTATIVE
 70
     0
 40
0.0
 41
1.0
 50
0.0
 71
     0
 42
2.5
  3
arial.ttf
  4

  0
ENDTAB
  0
TABLE
  2
VIEW
  5
73
330
0
100
AcDbSymbolTable
 70
     0
  0
ENDTAB
  0
TABLE
  2
UCS
  5
74
330
0
100
AcDbSymbolTable
 70
     0
  0
ENDTAB
  0
TABLE
  2
APPID
  5
75
330
0
100
AcDbSymbolTable
 70
     2
  0
APPID
  5
76
330
75
100
AcDbSymbolTableRecord
100
AcDbRegAppTableRecord
  2
ACAD
 70
     0
  0
APPID
  5
77
330
75
100
AcDbSymbolTableRecord
100
AcDbRegAppTableRecord
  2
ACADANNOTATIVE
 70
     0
  0
ENDTAB
  0
TABLE
  2
DIMSTYLE
  5
78
330
0
100
AcDbSymbolTable
 70
     2
  0
DIMSTYLE
105
79
330
78
100
AcDbSymbolTableRecord
100
AcDbDimStyleTableRecord
  2
STANDARD
 70
     0
  3

  4

  5

  6

  7

 40
0.0
 41
2.5
 42
0.625
 43
3.75
 44
1.25
 45
0.0
 46
0.0
 47
0.0
 48
0.0
140
2.5
141
2.5
142
0.0
143
0.03937007874016
144
1.0
145
0.0
146
1.0
147
0.625
 71
     0
 72
     0
 73
     0
 74
     0
 75
     0
 76
     0
 77
     1
 78
     8
170
     0
171
     3
172
     1
173
     0
174
     0
175
     0
176
     0
177
     0
178
     0
270
     2
271
     2
272
     2
273
     2
274
     3
340
71
275
     0
280
     0
281
     0
282
     0
283
     0
284
     8
285
     0
286
     0
287
     3
288
     0
  0
ENDTAB
  0
TABLE
  2
BLOCK_RECORD
  5
A01
330
0
100
AcDbSymbolTable
  70
5
  0
BLOCK_RECORD
  5
A02
330
A01
100
AcDbSymbolTableRecord
100
AcDbBlockTableRecord
  2
*MODEL_SPACE
  0
BLOCK_RECORD
  5
A03
330
A01
100
AcDbSymbolTableRecord
100
AcDbBlockTableRecord
  2
*PAPER_SPACE
  0
ENDTAB
  0
ENDSEC
  0
SECTION
  2
BLOCKS
  0
BLOCK
  5
A04
330
A02
100
AcDbEntity
  8
0
100
AcDbBlockBegin
  2
*MODEL_SPACE
 70
   0
 10
0
 20
0
 30
0
  3
*MODEL_SPACE
  1
 
  0
ENDBLK
  5
A05
330
A02
100
AcDbEntity
  8
0
100
AcDbBlockEnd
  0
BLOCK
  5
A06
330
A03
100
AcDbEntity
 67
1
  8
0
100
AcDbBlockBegin
  2
*PAPER_SPACE
 70
   0
 10
0
 20
0
 30
0
  3
*PAPER_SPACE
  1
 
  0
ENDBLK
  5
A07
330
A03
100
AcDbEntity
 67
    1
  8
0
100
AcDbBlockEnd
  0
ENDSEC
  0
SECTION
  2
ENTITIES
  0
LINE
  5
A08
330
A02
100
AcDbEntity
  8
Mesh_cs002
100
AcDbLine
 10
207.29
 20
102.778
 30
5.1
 11
207.295
 21
102.841
 31
5.1
  0
LINE
  5
A09
330
A02
100
AcDbEntity
  8
Mesh_cs002
100
AcDbLine
 10
207.295
 20
102.841
 30
5.1
 11
207.304
 21
102.942
 31
5.1
  0
LINE
  5
A0A
330
A02
100
AcDbEntity
  8
Mesh_cs002
100
AcDbLine
 10
207.304
 20
102.942
 30
5.1
 11
207.312
 21
103.004
 31
5.1
  0
LINE
  5
A0B
330
A02
100
AcDbEntity
  8
Mesh_cs002
100
AcDbLine
 10
207.312
 20
103.004
 30
5.1
 11
207.323
 21
103.065
 31
5.1
  0
LINE
  5
A0C
330
A02
100
AcDbEntity
  8
Mesh_cs002
100
AcDbLine
 10
207.323
 20
103.065
 30
5.1
 11
207.335
 21
103.12
 31
5.1
  0
LINE
  5
A0D
330
A02
100
AcDbEntity
  8
Mesh_cs002
100
AcDbLine
 10
207.335
 20
103.12
 30
5.1
 11
207.374
 21
103.364
 31
5.1
  0
LINE
  5
A0E
330
A02
100
AcDbEntity
  8
Mesh_cs002
100
AcDbLine
 10
207.374
 20
103.364
 30
5.1
 11
207.411
 21
103.561
 31
5.1
  0
LINE
  5
A0F
330
A02
100
AcDbEntity
  8
Mesh_cs002
100
AcDbLine
 10
207.411
 20
103.561
 30
5.1
 11
207.426
 21
103.614
 31
5.1
  0
LINE
  5
A10
330
A02
100
AcDbEntity
  8
Mesh_cs002
100
AcDbLine
 10
207.426
 20
103.614
 30
5.1
 11
207.52
 21
103.948
 31
5.1
  0
LINE
  5
A11
330
A02
100
AcDbEntity
  8
Mesh_cs002
100
AcDbLine
 10
207.52
 20
103.948
 30
5.1
 11
209.271
 21
109.337
 31
5.1
  0
LINE
  5
A12
330
A02
100
AcDbEntity
  8
Mesh_cs002
100
AcDbLine
 10
209.271
 20
109.337
 30
5.1
 11
212.605
 21
119.599
 31
5.1
  0
LINE
  5
A13
330
A02
100
AcDbEntity
  8
Mesh_cs002
100
AcDbLine
 10
212.605
 20
119.599
 30
5.1
 11
214.236
 21
124.618
 31
5.1
  0
LINE
  5
A14
330
A02
100
AcDbEntity
  8
Mesh_cs002
100
AcDbLine
 10
214.236
 20
124.618
 30
5.1
 11
214.725
 21
126.123
 31
5.1
  0
LINE
  5
A15
330
A02
100
AcDbEntity
  8
Mesh_cs002
100
AcDbLine
 10
214.725
 20
126.123
 30
5.1
 11
215.214
 21
127.629
 31
5.1
  0
LINE
  5
A16
330
A02
100
AcDbEntity
  8
Mesh_cs002
100
AcDbLine
 10
215.214
 20
127.629
 30
5.1
 11
207.184
 21
130.238
 31
5.1
  0
LINE
  5
A17
330
A02
100
AcDbEntity
  8
Mesh_cs002
100
AcDbLine
 10
207.184
 20
130.238
 30
5.1
 11
201.795
 21
131.989
 31
5.1
  0
LINE
  5
A18
330
A02
100
AcDbEntity
  8
Mesh_cs002
100
AcDbLine
 10
201.795
 20
131.989
 30
5.1
 11
179.939
 21
139.091
 31
5.1
  0
LINE
  5
A19
330
A02
100
AcDbEntity
  8
Mesh_cs002
100
AcDbLine
 10
179.939
 20
139.091
 30
5.1
 11
164.506
 21
144.105
 31
5.1
  0
LINE
  5
A1A
330
A02
100
AcDbEntity
  8
Mesh_cs002
100
AcDbLine
 10
164.506
 20
144.105
 30
5.1
 11
123.542
 21
157.415
 31
5.1
  0
LINE
  5
A1B
330
A02
100
AcDbEntity
  8
Mesh_cs002
100
AcDbLine
 10
123.542
 20
157.415
 30
5.1
 11
43.1779
 21
183.527
 31
5.1
  0
LINE
  5
A1C
330
A02
100
AcDbEntity
  8
Mesh_cs002
100
AcDbLine
 10
43.1779
 20
183.527
 30
5.1
 11
37.7885
 21
185.278
 31
5.1
  0
LINE
  5
A1D
330
A02
100
AcDbEntity
  8
Mesh_cs002
100
AcDbLine
 10
37.7885
 20
185.278
 30
5.1
 11
29.7585
 21
187.887
 31
5.1
  0
LINE
  5
A1E
330
A02
100
AcDbEntity
  8
Mesh_cs002
100
AcDbLine
 10
29.7585
 20
187.887
 30
5.1
 11
27.1493
 21
179.857
 31
5.1
  0
LINE
  5
A1F
330
A02
100
AcDbEntity
  8
Mesh_cs002
100
AcDbLine
 10
27.1493
 20
179.857
 30
5.1
 11
23.815
 21
169.595
 31
5.1
  0
LINE
  5
A20
330
A02
100
AcDbEntity
  8
Mesh_cs002
100
AcDbLine
 10
23.815
 20
169.595
 30
5.1
 11
22.0639
 21
164.206
 31
5.1
  0
LINE
  5
A21
330
A02
100
AcDbEntity
  8
Mesh_cs002
100
AcDbLine
 10
22.0639
 20
164.206
 30
5.1
 11
22.1015
 21
163.946
 31
5.1
  0
LINE
  5
A22
330
A02
100
AcDbEntity
  8
Mesh_cs002
100
AcDbLine
 10
22.1015
 20
163.946
 30
5.1
 11
22.1285
 21
163.686
 31
5.1
  0
LINE
  5
A23
330
A02
100
AcDbEntity
  8
Mesh_cs002
100
AcDbLine
 10
22.1285
 20
163.686
 30
5.1
 11
22.1345
 21
163.651
 31
5.1
  0
LINE
  5
A24
330
A02
100
AcDbEntity
  8
Mesh_cs002
100
AcDbLine
 10
22.1345
 20
163.651
 30
5.1
 11
22.1398
 21
163.581
 31
5.1
  0
LINE
  5
A25
330
A02
100
AcDbEntity
  8
Mesh_cs002
100
AcDbLine
 10
22.1398
 20
163.581
 30
5.1
 11
22.1453
 21
163.335
 31
5.1
  0
LINE
  5
A26
330
A02
100
AcDbEntity
  8
Mesh_cs002
100
AcDbLine
 10
22.1453
 20
163.335
 30
5.1
 11
22.1478
 21
163.272
 31
5.1
  0
LINE
  5
A27
330
A02
100
AcDbEntity
  8
Mesh_cs002
100
AcDbLine
 10
22.1478
 20
163.272
 30
5.1
 11
22.148
 21
163.23
 31
5.1
  0
LINE
  5
A28
330
A02
100
AcDbEntity
  8
Mesh_cs002
100
AcDbLine
 10
22.148
 20
163.23
 30
5.1
 11
22.134
 21
162.936
 31
5.1
  0
LINE
  5
A29
330
A02
100
AcDbEntity
  8
Mesh_cs002
100
AcDbLine
 10
22.134
 20
162.936
 30
5.1
 11
22.1304
 21
162.869
 31
5.1
  0
LINE
  5
A2A
330
A02
100
AcDbEntity
  8
Mesh_cs002
100
AcDbLine
 10
22.1304
 20
162.869
 30
5.1
 11
22.1281
 21
162.85
 31
5.1
  0
LINE
  5
A2B
330
A02
100
AcDbEntity
  8
Mesh_cs002
100
AcDbLine
 10
22.1281
 20
162.85
 30
5.1
 11
22.0979
 21
162.585
 31
5.1
  0
LINE
  5
A2C
330
A02
100
AcDbEntity
  8
Mesh_cs002
100
AcDbLine
 10
22.0979
 20
162.585
 30
5.1
 11
22.0775
 21
162.464
 31
5.1
  0
LINE
  5
A2D
330
A02
100
AcDbEntity
  8
Mesh_cs002
100
AcDbLine
 10
22.0775
 20
162.464
 30
5.1
 11
22.0396
 21
162.256
 31
5.1
  0
LINE
  5
A2E
330
A02
100
AcDbEntity
  8
Mesh_cs002
100
AcDbLine
 10
22.0396
 20
162.256
 30
5.1
 11
22.0165
 21
162.155
 31
5.1
  0
LINE
  5
A2F
330
A02
100
AcDbEntity
  8
Mesh_cs002
100
AcDbLine
 10
22.0165
 20
162.155
 30
5.1
 11
21.9677
 21
161.959
 31
5.1
  0
LINE
  5
A30
330
A02
100
AcDbEntity
  8
Mesh_cs002
100
AcDbLine
 10
21.9677
 20
161.959
 30
5.1
 11
21.4224
 21
159.955
 31
5.1
  0
LINE
  5
A31
330
A02
100
AcDbEntity
  8
Mesh_cs002
100
AcDbLine
 10
21.4224
 20
159.955
 30
5.1
 11
20.6846
 21
157.243
 31
5.1
  0
LINE
  5
A32
330
A02
100
AcDbEntity
  8
Mesh_cs002
100
AcDbLine
 10
20.6846
 20
157.243
 30
5.1
 11
19.9687
 21
154.525
 31
5.1
  0
LINE
  5
A33
330
A02
100
AcDbEntity
  8
Mesh_cs002
100
AcDbLine
 10
19.9687
 20
154.525
 30
5.1
 11
19.4395
 21
152.516
 31
5.1
  0
LINE
  5
A34
330
A02
100
AcDbEntity
  8
Mesh_cs002
100
AcDbLine
 10
19.4395
 20
152.516
 30
5.1
 11
18.7454
 21
149.793
 31
5.1
  0
LINE
  5
A35
330
A02
100
AcDbEntity
  8
Mesh_cs002
100
AcDbLine
 10
18.7454
 20
149.793
 30
5.1
 11
18.2324
 21
147.78
 31
5.1
  0
LINE
  5
A36
330
A02
100
AcDbEntity
  8
Mesh_cs002
100
AcDbLine
 10
18.2324
 20
147.78
 30
5.1
 11
17.5603
 21
145.051
 31
5.1
  0
LINE
  5
A37
330
A02
100
AcDbEntity
  8
Mesh_cs002
100
AcDbLine
 10
17.5603
 20
145.051
 30
5.1
 11
17.0635
 21
143.033
 31
5.1
  0
LINE
  5
A38
330
A02
100
AcDbEntity
  8
Mesh_cs002
100
AcDbLine
 10
17.0635
 20
143.033
 30
5.1
 11
16.4133
 21
140.299
 31
5.1
  0
LINE
  5
A39
330
A02
100
AcDbEntity
  8
Mesh_cs002
100
AcDbLine
 10
16.4133
 20
140.299
 30
5.1
 11
15.9327
 21
138.278
 31
5.1
  0
LINE
  5
A3A
330
A02
100
AcDbEntity
  8
Mesh_cs002
100
AcDbLine
 10
15.9327
 20
138.278
 30
5.1
 11
15.4684
 21
136.253
 31
5.1
  0
LINE
  5
A3B
330
A02
100
AcDbEntity
  8
Mesh_cs002
100
AcDbLine
 10
15.4684
 20
136.253
 30
5.1
 11
14.8402
 21
133.514
 31
5.1
  0
LINE
  5
A3C
330
A02
100
AcDbEntity
  8
Mesh_cs002
100
AcDbLine
 10
14.8402
 20
133.514
 30
5.1
 11
14.2341
 21
130.769
 31
5.1
  0
LINE
  5
A3D
330
A02
100
AcDbEntity
  8
Mesh_cs002
100
AcDbLine
 10
14.2341
 20
130.769
 30
5.1
 11
13.786
 21
128.741
 31
5.1
  0
LINE
  5
A3E
330
A02
100
AcDbEntity
  8
Mesh_cs002
100
AcDbLine
 10
13.786
 20
128.741
 30
5.1
 11
13.202
 21
125.992
 31
5.1
  0
LINE
  5
A3F
330
A02
100
AcDbEntity
  8
Mesh_cs002
100
AcDbLine
 10
13.202
 20
125.992
 30
5.1
 11
12.7703
 21
123.96
 31
5.1
  0
LINE
  5
A40
330
A02
100
AcDbEntity
  8
Mesh_cs002
100
AcDbLine
 10
12.7703
 20
123.96
 30
5.1
 11
12.2083
 21
121.206
 31
5.1
  0
LINE
  5
A41
330
A02
100
AcDbEntity
  8
Mesh_cs002
100
AcDbLine
 10
12.2083
 20
121.206
 30
5.1
 11
11.793
 21
119.17
 31
5.1
  0
LINE
  5
A42
330
A02
100
AcDbEntity
  8
Mesh_cs002
100
AcDbLine
 10
11.793
 20
119.17
 30
5.1
 11
11.394
 21
117.132
 31
5.1
  0
LINE
  5
A43
330
A02
100
AcDbEntity
  8
Mesh_cs002
100
AcDbLine
 10
11.394
 20
117.132
 30
5.1
 11
10.8542
 21
114.373
 31
5.1
  0
LINE
  5
A44
330
A02
100
AcDbEntity
  8
Mesh_cs002
100
AcDbLine
 10
10.8542
 20
114.373
 30
5.1
 11
10.3366
 21
111.611
 31
5.1
  0
LINE
  5
A45
330
A02
100
AcDbEntity
  8
Mesh_cs002
100
AcDbLine
 10
10.3366
 20
111.611
 30
5.1
 11
9.95406
 21
109.569
 31
5.1
  0
LINE
  5
A46
330
A02
100
AcDbEntity
  8
Mesh_cs002
100
AcDbLine
 10
9.95406
 20
109.569
 30
5.1
 11
9.45869
 21
106.802
 31
5.1
  0
LINE
  5
A47
330
A02
100
AcDbEntity
  8
Mesh_cs002
100
AcDbLine
 10
9.45869
 20
106.802
 30
5.1
 11
9.09254
 21
104.758
 31
5.1
  0
LINE
  5
A48
330
A02
100
AcDbEntity
  8
Mesh_cs002
100
AcDbLine
 10
9.09254
 20
104.758
 30
5.1
 11
8.61943
 21
101.987
 31
5.1
  0
LINE
  5
A49
330
A02
100
AcDbEntity
  8
Mesh_cs002
100
AcDbLine
 10
8.61943
 20
101.987
 30
5.1
 11
8.26974
 21
99.9394
 31
5.1
  0
LINE
  5
A4A
330
A02
100
AcDbEntity
  8
Mesh_cs002
100
AcDbLine
 10
8.26974
 20
99.9394
 30
5.1
 11
7.93652
 21
97.8889
 31
5.1
  0
LINE
  5
A4B
330
A02
100
AcDbEntity
  8
Mesh_cs002
100
AcDbLine
 10
7.93652
 20
97.8889
 30
5.1
 11
7.48569
 21
95.1148
 31
5.1
  0
LINE
  5
A4C
330
A02
100
AcDbEntity
  8
Mesh_cs002
100
AcDbLine
 10
7.48569
 20
95.1148
 30
5.1
 11
7.05718
 21
92.337
 31
5.1
  0
LINE
  5
A4D
330
A02
100
AcDbEntity
  8
Mesh_cs002
100
AcDbLine
 10
7.05718
 20
92.337
 30
5.1
 11
6.74046
 21
90.2839
 31
5.1
  0
LINE
  5
A4E
330
A02
100
AcDbEntity
  8
Mesh_cs002
100
AcDbLine
 10
6.74046
 20
90.2839
 30
5.1
 11
6.3343
 21
87.5029
 31
5.1
  0
LINE
  5
A4F
330
A02
100
AcDbEntity
  8
Mesh_cs002
100
AcDbLine
 10
6.3343
 20
87.5029
 30
5.1
 11
6.03409
 21
85.4473
 31
5.1
  0
LINE
  5
A50
330
A02
100
AcDbEntity
  8
Mesh_cs002
100
AcDbLine
 10
6.03409
 20
85.4473
 30
5.1
 11
5.65029
 21
82.6631
 31
5.1
  0
LINE
  5
A51
330
A02
100
AcDbEntity
  8
Mesh_cs002
100
AcDbLine
 10
5.65029
 20
82.6631
 30
5.1
 11
5.36662
 21
80.6051
 31
5.1
  0
LINE
  5
A52
330
A02
100
AcDbEntity
  8
Mesh_cs002
100
AcDbLine
 10
5.36662
 20
80.6051
 30
5.1
 11
5.0995
 21
78.545
 31
5.1
  0
LINE
  5
A53
330
A02
100
AcDbEntity
  8
Mesh_cs002
100
AcDbLine
 10
5.0995
 20
78.545
 30
5.1
 11
4.7381
 21
75.7578
 31
5.1
  0
LINE
  5
A54
330
A02
100
AcDbEntity
  8
Mesh_cs002
100
AcDbLine
 10
4.7381
 20
75.7578
 30
5.1
 11
4.39912
 21
72.9677
 31
5.1
  0
LINE
  5
A55
330
A02
100
AcDbEntity
  8
Mesh_cs002
100
AcDbLine
 10
4.39912
 20
72.9677
 30
5.1
 11
4.14857
 21
70.9055
 31
5.1
  0
LINE
  5
A56
330
A02
100
AcDbEntity
  8
Mesh_cs002
100
AcDbLine
 10
4.14857
 20
70.9055
 30
5.1
 11
3.83203
 21
68.1128
 31
5.1
  0
LINE
  5
A57
330
A02
100
AcDbEntity
  8
Mesh_cs002
100
AcDbLine
 10
3.83203
 20
68.1128
 30
5.1
 11
3.59806
 21
66.0486
 31
5.1
  0
LINE
  5
A58
330
A02
100
AcDbEntity
  8
Mesh_cs002
100
AcDbLine
 10
3.59806
 20
66.0486
 30
5.1
 11
3.30399
 21
63.2535
 31
5.1
  0
LINE
  5
A59
330
A02
100
AcDbEntity
  8
Mesh_cs002
100
AcDbLine
 10
3.30399
 20
63.2535
 30
5.1
 11
3.08662
 21
61.1875
 31
5.1
  0
LINE
  5
A5A
330
A02
100
AcDbEntity
  8
Mesh_cs002
100
AcDbLine
 10
3.08662
 20
61.1875
 30
5.1
 11
2.81502
 21
58.3901
 31
5.1
  0
LINE
  5
A5B
330
A02
100
AcDbEntity
  8
Mesh_cs002
100
AcDbLine
 10
2.81502
 20
58.3901
 30
5.1
 11
2.61428
 21
56.3224
 31
5.1
  0
LINE
  5
A5C
330
A02
100
AcDbEntity
  8
Mesh_cs002
100
AcDbLine
 10
2.61428
 20
56.3224
 30
5.1
 11
2.36518
 21
53.5229
 31
5.1
  0
LINE
  5
A5D
330
A02
100
AcDbEntity
  8
Mesh_cs002
100
AcDbLine
 10
2.36518
 20
53.5229
 30
5.1
 11
2.18106
 21
51.4537
 31
5.1
  0
LINE
  5
A5E
330
A02
100
AcDbEntity
  8
Mesh_cs002
100
AcDbLine
 10
2.18106
 20
51.4537
 30
5.1
 11
1.95447
 21
48.6523
 31
5.1
  0
LINE
  5
A5F
330
A02
100
AcDbEntity
  8
Mesh_cs002
100
AcDbLine
 10
1.95447
 20
48.6523
 30
5.1
 11
1.78699
 21
46.5816
 31
5.1
  0
LINE
  5
A60
330
A02
100
AcDbEntity
  8
Mesh_cs002
100
AcDbLine
 10
1.78699
 20
46.5816
 30
5.1
 11
1.58293
 21
43.7785
 31
5.1
  0
LINE
  5
A61
330
A02
100
AcDbEntity
  8
Mesh_cs002
100
AcDbLine
 10
1.58293
 20
43.7785
 30
5.1
 11
1.43211
 21
41.7066
 31
5.1
  0
LINE
  5
A62
330
A02
100
AcDbEntity
  8
Mesh_cs002
100
AcDbLine
 10
1.43211
 20
41.7066
 30
5.1
 11
1.25059
 21
38.9019
 31
5.1
  0
LINE
  5
A63
330
A02
100
AcDbEntity
  8
Mesh_cs002
100
AcDbLine
 10
1.25059
 20
38.9019
 30
5.1
 11
1.11642
 21
36.8288
 31
5.1
  0
LINE
  5
A64
330
A02
100
AcDbEntity
  8
Mesh_cs002
100
AcDbLine
 10
1.11642
 20
36.8288
 30
5.1
 11
0.95746
 21
34.0228
 31
5.1
  0
LINE
  5
A65
330
A02
100
AcDbEntity
  8
Mesh_cs002
100
AcDbLine
 10
0.95746
 20
34.0228
 30
5.1
 11
0.839965
 21
31.9487
 31
5.1
  0
LINE
  5
A66
330
A02
100
AcDbEntity
  8
Mesh_cs002
100
AcDbLine
 10
0.839965
 20
31.9487
 30
5.1
 11
0.703564
 21
29.1414
 31
5.1
  0
LINE
  5
A67
330
A02
100
AcDbEntity
  8
Mesh_cs002
100
AcDbLine
 10
0.703564
 20
29.1414
 30
5.1
 11
0.602746
 21
27.0665
 31
5.1
  0
LINE
  5
A68
330
A02
100
AcDbEntity
  8
Mesh_cs002
100
AcDbLine
 10
0.602746
 20
27.0665
 30
5.1
 11
0.584874
 21
26.8499
 31
5.1
  0
LINE
  5
A69
330
A02
100
AcDbEntity
  8
Mesh_cs002
100
AcDbLine
 10
0.584874
 20
26.8499
 30
5.1
 11
0.571664
 21
26.6898
 31
5.1
  0
LINE
  5
A6A
330
A02
100
AcDbEntity
  8
Mesh_cs002
100
AcDbLine
 10
0.571664
 20
26.6898
 30
5.1
 11
0.5464
 21
26.5312
 31
5.1
  0
LINE
  5
A6B
330
A02
100
AcDbEntity
  8
Mesh_cs002
100
AcDbLine
 10
0.5464
 20
26.5312
 30
5.1
 11
0.512219
 21
26.3166
 31
5.1
  0
LINE
  5
A6C
330
A02
100
AcDbEntity
  8
Mesh_cs002
100
AcDbLine
 10
0.512219
 20
26.3166
 30
5.1
 11
0.475046
 21
26.1603
 31
5.1
  0
LINE
  5
A6D
330
A02
100
AcDbEntity
  8
Mesh_cs002
100
AcDbLine
 10
0.475046
 20
26.1603
 30
5.1
 11
0.424753
 21
25.9489
 31
5.1
  0
LINE
  5
A6E
330
A02
100
AcDbEntity
  8
Mesh_cs002
100
AcDbLine
 10
0.424753
 20
25.9489
 30
5.1
 11
0.375883
 21
25.7959
 31
5.1
  0
LINE
  5
A6F
330
A02
100
AcDbEntity
  8
Mesh_cs002
100
AcDbLine
 10
0.375883
 20
25.7959
 30
5.1
 11
0.309764
 21
25.5889
 31
5.1
  0
LINE
  5
A70
330
A02
100
AcDbEntity
  8
Mesh_cs002
100
AcDbLine
 10
0.309764
 20
25.5889
 30
5.1
 11
0.249476
 21
25.44
 31
5.1
  0
LINE
  5
A71
330
A02
100
AcDbEntity
  8
Mesh_cs002
100
AcDbLine
 10
0.249476
 20
25.44
 30
5.1
 11
0.16791
 21
25.2386
 31
5.1
  0
LINE
  5
A72
330
A02
100
AcDbEntity
  8
Mesh_cs002
100
AcDbLine
 10
0.16791
 20
25.2386
 30
5.1
 11
0.0727608
 21
25.0467
 31
5.1
  0
LINE
  5
A73
330
A02
100
AcDbEntity
  8
Mesh_cs002
100
AcDbLine
 10
0.0727608
 20
25.0467
 30
5.1
 11
-8.88178e-16
 21
24.9
 31
5.1
  0
LINE
  5
A74
330
A02
100
AcDbEntity
  8
Mesh_cs002
100
AcDbLine
 10
-8.88178e-16
 20
24.9
 30
5.1
 11
-3.84877e-16
 21
19.2333
 31
5.1
  0
LINE
  5
A75
330
A02
100
AcDbEntity
  8
Mesh_cs002
100
AcDbLine
 10
-3.84877e-16
 20
19.2333
 30
5.1
 11
0
 21
8.44333
 31
5.1
  0
LINE
  5
A76
330
A02
100
AcDbEntity
  8
Mesh_cs002
100
AcDbLine
 10
0
 20
8.44333
 30
5.1
 11
0
 21
3.73035e-14
 31
5.1
  0
LINE
  5
A77
330
A02
100
AcDbEntity
  8
Mesh_cs002
100
AcDbLine
 10
0
 20
3.77965e-14
 30
5.1
 11
8.44333
 21
1.72655e-14
 31
5.1
  0
LINE
  5
A78
330
A02
100
AcDbEntity
  8
Mesh_cs002
100
AcDbLine
 10
8.44333
 20
1.72655e-14
 30
5.1
 11
14.11
 21
1.81463e-14
 31
5.1
  0
LINE
  5
A79
330
A02
100
AcDbEntity
  8
Mesh_cs002
100
AcDbLine
 10
14.11
 20
1.81463e-14
 30
5.1
 11
98.61
 21
2.0132e-15
 31
5.1
  0
LINE
  5
A7A
330
A02
100
AcDbEntity
  8
Mesh_cs002
100
AcDbLine
 10
98.61
 20
2.0132e-15
 30
5.1
 11
141.682
 21
1.13243e-15
 31
5.1
  0
LINE
  5
A7B
330
A02
100
AcDbEntity
  8
Mesh_cs002
100
AcDbLine
 10
141.682
 20
1.13243e-15
 30
5.1
 11
157.909
 21
1.13243e-15
 31
5.1
  0
LINE
  5
A7C
330
A02
100
AcDbEntity
  8
Mesh_cs002
100
AcDbLine
 10
157.909
 20
1.13243e-15
 30
5.1
 11
180.89
 21
0
 31
5.1
  0
LINE
  5
A7D
330
A02
100
AcDbEntity
  8
Mesh_cs002
100
AcDbLine
 10
180.89
 20
0
 30
5.1
 11
186.557
 21
8.17864e-16
 31
5.1
  0
LINE
  5
A7E
330
A02
100
AcDbEntity
  8
Mesh_cs002
100
AcDbLine
 10
186.557
 20
8.17864e-16
 30
5.1
 11
195
 21
1.13243e-15
 31
5.1
  0
LINE
  5
A7F
330
A02
100
AcDbEntity
  8
Mesh_cs002
100
AcDbLine
 10
195
 20
1.13243e-15
 30
5.1
 11
195
 21
1.5828
 31
5.1
  0
LINE
  5
A80
330
A02
100
AcDbEntity
  8
Mesh_cs002
100
AcDbLine
 10
195
 20
1.5828
 30
5.1
 11
195
 21
3.16574
 31
5.1
  0
LINE
  5
A81
330
A02
100
AcDbEntity
  8
Mesh_cs002
100
AcDbLine
 10
195
 20
3.16574
 30
5.1
 11
195
 21
8.44333
 31
5.1
  0
LINE
  5
A82
330
A02
100
AcDbEntity
  8
Mesh_cs002
100
AcDbLine
 10
195
 20
8.44333
 30
5.1
 11
195
 21
19.2333
 31
5.1
  0
LINE
  5
A83
330
A02
100
AcDbEntity
  8
Mesh_cs002
100
AcDbLine
 10
195
 20
19.2333
 30
5.1
 11
195
 21
24.9
 31
5.1
  0
LINE
  5
A84
330
A02
100
AcDbEntity
  8
Mesh_cs002
100
AcDbLine
 10
195
 20
24.9
 30
5.1
 11
195.009
 21
25.0924
 31
5.1
  0
LINE
  5
A85
330
A02
100
AcDbEntity
  8
Mesh_cs002
100
AcDbLine
 10
195.009
 20
25.0924
 30
5.1
 11
195.018
 21
25.3264
 31
5.1
  0
LINE
  5
A86
330
A02
100
AcDbEntity
  8
Mesh_cs002
100
AcDbLine
 10
195.018
 20
25.3264
 30
5.1
 11
195.039
 21
25.4961
 31
5.1
  0
LINE
  5
A87
330
A02
100
AcDbEntity
  8
Mesh_cs002
100
AcDbLine
 10
195.039
 20
25.4961
 30
5.1
 11
195.073
 21
25.7494
 31
5.1
  0
LINE
  5
A88
330
A02
100
AcDbEntity
  8
Mesh_cs002
100
AcDbLine
 10
195.073
 20
25.7494
 30
5.1
 11
195.111
 21
25.9344
 31
5.1
  0
LINE
  5
A89
330
A02
100
AcDbEntity
  8
Mesh_cs002
100
AcDbLine
 10
195.111
 20
25.9344
 30
5.1
 11
195.168
 21
26.1837
 31
5.1
  0
LINE
  5
A8A
330
A02
100
AcDbEntity
  8
Mesh_cs002
100
AcDbLine
 10
195.168
 20
26.1837
 30
5.1
 11
195.222
 21
26.364
 31
5.1
  0
LINE
  5
A8B
330
A02
100
AcDbEntity
  8
Mesh_cs002
100
AcDbLine
 10
195.222
 20
26.364
 30
5.1
 11
195.301
 21
26.6073
 31
5.1
  0
LINE
  5
A8C
330
A02
100
AcDbEntity
  8
Mesh_cs002
100
AcDbLine
 10
195.301
 20
26.6073
 30
5.1
 11
195.371
 21
26.7816
 31
5.1
  0
LINE
  5
A8D
330
A02
100
AcDbEntity
  8
Mesh_cs002
100
AcDbLine
 10
195.371
 20
26.7816
 30
5.1
 11
195.47
 21
27.017
 31
5.1
  0
LINE
  5
A8E
330
A02
100
AcDbEntity
  8
Mesh_cs002
100
AcDbLine
 10
195.47
 20
27.017
 30
5.1
 11
195.556
 21
27.1841
 31
5.1
  0
LINE
  5
A8F
330
A02
100
AcDbEntity
  8
Mesh_cs002
100
AcDbLine
 10
195.556
 20
27.1841
 30
5.1
 11
195.676
 21
27.4097
 31
5.1
  0
LINE
  5
A90
330
A02
100
AcDbEntity
  8
Mesh_cs002
100
AcDbLine
 10
195.676
 20
27.4097
 30
5.1
 11
195.735
 21
27.5078
 31
5.1
  0
LINE
  5
A91
330
A02
100
AcDbEntity
  8
Mesh_cs002
100
AcDbLine
 10
195.735
 20
27.5078
 30
5.1
 11
195.874
 21
27.7219
 31
5.1
  0
LINE
  5
A92
330
A02
100
AcDbEntity
  8
Mesh_cs002
100
AcDbLine
 10
195.874
 20
27.7219
 30
5.1
 11
195.938
 21
27.8151
 31
5.1
  0
LINE
  5
A93
330
A02
100
AcDbEntity
  8
Mesh_cs002
100
AcDbLine
 10
195.938
 20
27.8151
 30
5.1
 11
196.057
 21
29.4678
 31
5.1
  0
LINE
  5
A94
330
A02
100
AcDbEntity
  8
Mesh_cs002
100
AcDbLine
 10
196.057
 20
29.4678
 30
5.1
 11
196.219
 21
31.7039
 31
5.1
  0
LINE
  5
A95
330
A02
100
AcDbEntity
  8
Mesh_cs002
100
AcDbLine
 10
196.219
 20
31.7039
 30
5.1
 11
196.401
 21
33.9384
 31
5.1
  0
LINE
  5
A96
330
A02
100
AcDbEntity
  8
Mesh_cs002
100
AcDbLine
 10
196.401
 20
33.9384
 30
5.1
 11
196.536
 21
35.5899
 31
5.1
  0
LINE
  5
A97
330
A02
100
AcDbEntity
  8
Mesh_cs002
100
AcDbLine
 10
196.536
 20
35.5899
 30
5.1
 11
196.687
 21
37.2401
 31
5.1
  0
LINE
  5
A98
330
A02
100
AcDbEntity
  8
Mesh_cs002
100
AcDbLine
 10
196.687
 20
37.2401
 30
5.1
 11
196.891
 21
39.4727
 31
5.1
  0
LINE
  5
A99
330
A02
100
AcDbEntity
  8
Mesh_cs002
100
AcDbLine
 10
196.891
 20
39.4727
 30
5.1
 11
197.115
 21
41.7034
 31
5.1
  0
LINE
  5
A9A
330
A02
100
AcDbEntity
  8
Mesh_cs002
100
AcDbLine
 10
197.115
 20
41.7034
 30
5.1
 11
197.282
 21
43.3521
 31
5.1
  0
LINE
  5
A9B
330
A02
100
AcDbEntity
  8
Mesh_cs002
100
AcDbLine
 10
197.282
 20
43.3521
 30
5.1
 11
197.463
 21
44.9991
 31
5.1
  0
LINE
  5
A9C
330
A02
100
AcDbEntity
  8
Mesh_cs002
100
AcDbLine
 10
197.463
 20
44.9991
 30
5.1
 11
197.709
 21
47.2275
 31
5.1
  0
LINE
  5
A9D
330
A02
100
AcDbEntity
  8
Mesh_cs002
100
AcDbLine
 10
197.709
 20
47.2275
 30
5.1
 11
197.976
 21
49.4535
 31
5.1
  0
LINE
  5
A9E
330
A02
100
AcDbEntity
  8
Mesh_cs002
100
AcDbLine
 10
197.976
 20
49.4535
 30
5.1
 11
198.173
 21
51.0988
 31
5.1
  0
LINE
  5
A9F
330
A02
100
AcDbEntity
  8
Mesh_cs002
100
AcDbLine
 10
198.173
 20
51.0988
 30
5.1
 11
198.386
 21
52.7421
 31
5.1
  0
LINE
  5
AA0
330
A02
100
AcDbEntity
  8
Mesh_cs002
100
AcDbLine
 10
198.386
 20
52.7421
 30
5.1
 11
198.674
 21
54.9655
 31
5.1
  0
LINE
  5
AA1
330
A02
100
AcDbEntity
  8
Mesh_cs002
100
AcDbLine
 10
198.674
 20
54.9655
 30
5.1
 11
198.902
 21
56.6067
 31
5.1
  0
LINE
  5
AA2
330
A02
100
AcDbEntity
  8
Mesh_cs002
100
AcDbLine
 10
198.902
 20
56.6067
 30
5.1
 11
199.211
 21
58.8273
 31
5.1
  0
LINE
  5
AA3
330
A02
100
AcDbEntity
  8
Mesh_cs002
100
AcDbLine
 10
199.211
 20
58.8273
 30
5.1
 11
199.541
 21
61.0448
 31
5.1
  0
LINE
  5
AA4
330
A02
100
AcDbEntity
  8
Mesh_cs002
100
AcDbLine
 10
199.541
 20
61.0448
 30
5.1
 11
199.785
 21
62.6838
 31
5.1
  0
LINE
  5
AA5
330
A02
100
AcDbEntity
  8
Mesh_cs002
100
AcDbLine
 10
199.785
 20
62.6838
 30
5.1
 11
200.135
 21
64.8981
 31
5.1
  0
LINE
  5
AA6
330
A02
100
AcDbEntity
  8
Mesh_cs002
100
AcDbLine
 10
200.135
 20
64.8981
 30
5.1
 11
200.394
 21
66.5348
 31
5.1
  0
LINE
  5
AA7
330
A02
100
AcDbEntity
  8
Mesh_cs002
100
AcDbLine
 10
200.394
 20
66.5348
 30
5.1
 11
200.669
 21
68.1689
 31
5.1
  0
LINE
  5
AA8
330
A02
100
AcDbEntity
  8
Mesh_cs002
100
AcDbLine
 10
200.669
 20
68.1689
 30
5.1
 11
201.041
 21
70.3798
 31
5.1
  0
LINE
  5
AA9
330
A02
100
AcDbEntity
  8
Mesh_cs002
100
AcDbLine
 10
201.041
 20
70.3798
 30
5.1
 11
201.433
 21
72.5871
 31
5.1
  0
LINE
  5
AAA
330
A02
100
AcDbEntity
  8
Mesh_cs002
100
AcDbLine
 10
201.433
 20
72.5871
 30
5.1
 11
201.723
 21
74.2186
 31
5.1
  0
LINE
  5
AAB
330
A02
100
AcDbEntity
  8
Mesh_cs002
100
AcDbLine
 10
201.723
 20
74.2186
 30
5.1
 11
202.136
 21
76.4221
 31
5.1
  0
LINE
  5
AAC
330
A02
100
AcDbEntity
  8
Mesh_cs002
100
AcDbLine
 10
202.136
 20
76.4221
 30
5.1
 11
202.442
 21
78.0508
 31
5.1
  0
LINE
  5
AAD
330
A02
100
AcDbEntity
  8
Mesh_cs002
100
AcDbLine
 10
202.442
 20
78.0508
 30
5.1
 11
202.876
 21
80.2503
 31
5.1
  0
LINE
  5
AAE
330
A02
100
AcDbEntity
  8
Mesh_cs002
100
AcDbLine
 10
202.876
 20
80.2503
 30
5.1
 11
203.197
 21
81.876
 31
5.1
  0
LINE
  5
AAF
330
A02
100
AcDbEntity
  8
Mesh_cs002
100
AcDbLine
 10
203.197
 20
81.876
 30
5.1
 11
203.652
 21
84.0713
 31
5.1
  0
LINE
  5
AB0
330
A02
100
AcDbEntity
  8
Mesh_cs002
100
AcDbLine
 10
203.652
 20
84.0713
 30
5.1
 11
203.988
 21
85.6939
 31
5.1
  0
LINE
  5
AB1
330
A02
100
AcDbEntity
  8
Mesh_cs002
100
AcDbLine
 10
203.988
 20
85.6939
 30
5.1
 11
204.463
 21
87.8848
 31
5.1
  0
LINE
  5
AB2
330
A02
100
AcDbEntity
  8
Mesh_cs002
100
AcDbLine
 10
204.463
 20
87.8848
 30
5.1
 11
204.815
 21
89.5041
 31
5.1
  0
LINE
  5
AB3
330
A02
100
AcDbEntity
  8
Mesh_cs002
100
AcDbLine
 10
204.815
 20
89.5041
 30
5.1
 11
205.311
 21
91.6904
 31
5.1
  0
LINE
  5
AB4
330
A02
100
AcDbEntity
  8
Mesh_cs002
100
AcDbLine
 10
205.311
 20
91.6904
 30
5.1
 11
205.678
 21
93.3064
 31
5.1
  0
LINE
  5
AB5
330
A02
100
AcDbEntity
  8
Mesh_cs002
100
AcDbLine
 10
205.678
 20
93.3064
 30
5.1
 11
206.194
 21
95.4879
 31
5.1
  0
LINE
  5
AB6
330
A02
100
AcDbEntity
  8
Mesh_cs002
100
AcDbLine
 10
206.194
 20
95.4879
 30
5.1
 11
206.576
 21
97.1004
 31
5.1
  0
LINE
  5
AB7
330
A02
100
AcDbEntity
  8
Mesh_cs002
100
AcDbLine
 10
206.576
 20
97.1004
 30
5.1
 11
207.114
 21
99.2769
 31
5.1
  0
LINE
  5
AB8
330
A02
100
AcDbEntity
  8
Mesh_cs002
100
AcDbLine
 10
207.114
 20
99.2769
 30
5.1
 11
207.511
 21
100.886
 31
5.1
  0
LINE
  5
AB9
330
A02
100
AcDbEntity
  8
Mesh_cs002
100
AcDbLine
 10
207.511
 20
100.886
 30
5.1
 11
207.436
 21
101.151
 31
5.1
  0
LINE
  5
ABA
330
A02
100
AcDbEntity
  8
Mesh_cs002
100
AcDbLine
 10
207.436
 20
101.151
 30
5.1
 11
207.402
 21
101.288
 31
5.1
  0
LINE
  5
ABB
330
A02
100
AcDbEntity
  8
Mesh_cs002
100
AcDbLine
 10
207.402
 20
101.288
 30
5.1
 11
207.334
 21
101.641
 31
5.1
  0
LINE
  5
ABC
330
A02
100
AcDbEntity
  8
Mesh_cs002
100
AcDbLine
 10
207.334
 20
101.641
 30
5.1
 11
207.33
 21
101.664
 31
5.1
  0
LINE
  5
ABD
330
A02
100
AcDbEntity
  8
Mesh_cs002
100
AcDbLine
 10
207.33
 20
101.664
 30
5.1
 11
207.318
 21
101.772
 31
5.1
  0
LINE
  5
ABE
330
A02
100
AcDbEntity
  8
Mesh_cs002
100
AcDbLine
 10
207.318
 20
101.772
 30
5.1
 11
207.29
 21
102.025
 31
5.1
  0
LINE
  5
ABF
330
A02
100
AcDbEntity
  8
Mesh_cs002
100
AcDbLine
 10
207.29
 20
102.025
 30
5.1
 11
207.288
 21
102.074
 31
5.1
  0
LINE
  5
AC0
330
A02
100
AcDbEntity
  8
Mesh_cs002
100
AcDbLine
 10
207.288
 20
102.074
 30
5.1
 11
207.275
 21
102.395
 31
5.1
  0
LINE
  5
AC1
330
A02
100
AcDbEntity
  8
Mesh_cs002
100
AcDbLine
 10
207.275
 20
102.395
 30
5.1
 11
207.276
 21
102.483
 31
5.1
  0
LINE
  5
AC2
330
A02
100
AcDbEntity
  8
Mesh_cs002
100
AcDbLine
 10
207.276
 20
102.483
 30
5.1
 11
207.277
 21
102.523
 31
5.1
  0
LINE
  5
AC3
330
A02
100
AcDbEntity
  8
Mesh_cs002
100
AcDbLine
 10
207.277
 20
102.523
 30
5.1
 11
207.281
 21
102.631
 31
5.1
  0
LINE
  5
AC4
330
A02
100
AcDbEntity
  8
Mesh_cs002
100
AcDbLine
 10
207.281
 20
102.631
 30
5.1
 11
207.282
 21
102.671
 31
5.1
  0
LINE
  5
AC5
330
A02
100
AcDbEntity
  8
Mesh_cs002
100
AcDbLine
 10
207.282
 20
102.671
 30
5.1
 11
207.29
 21
102.778
 31
5.1
  0
LINE
  5
AC6
330
A02
100
AcDbEntity
  8
Mesh_cs002
100
AcDbLine
 10
14.905
 20
20.123
 30
5.1
 11
14.9431
 21
20.5526
 31
5.1
  0
LINE
  5
AC7
330
A02
100
AcDbEntity
  8
Mesh_cs002
100
AcDbLine
 10
14.9431
 20
20.5526
 30
5.1
 11
14.9443
 21
20.5637
 31
5.1
  0
LINE
  5
AC8
330
A02
100
AcDbEntity
  8
Mesh_cs002
100
AcDbLine
 10
14.9443
 20
20.5637
 30
5.1
 11
15.0202
 21
20.9882
 31
5.1
  0
LINE
  5
AC9
330
A02
100
AcDbEntity
  8
Mesh_cs002
100
AcDbLine
 10
15.0202
 20
20.9882
 30
5.1
 11
15.0223
 21
20.9991
 31
5.1
  0
LINE
  5
ACA
330
A02
100
AcDbEntity
  8
Mesh_cs002
100
AcDbLine
 10
15.0223
 20
20.9991
 30
5.1
 11
15.1355
 21
21.4153
 31
5.1
  0
LINE
  5
ACB
330
A02
100
AcDbEntity
  8
Mesh_cs002
100
AcDbLine
 10
15.1355
 20
21.4153
 30
5.1
 11
15.1386
 21
21.426
 31
5.1
  0
LINE
  5
ACC
330
A02
100
AcDbEntity
  8
Mesh_cs002
100
AcDbLine
 10
15.1386
 20
21.426
 30
5.1
 11
15.2881
 21
21.8305
 31
5.1
  0
LINE
  5
ACD
330
A02
100
AcDbEntity
  8
Mesh_cs002
100
AcDbLine
 10
15.2881
 20
21.8305
 30
5.1
 11
15.2921
 21
21.8409
 31
5.1
  0
LINE
  5
ACE
330
A02
100
AcDbEntity
  8
Mesh_cs002
100
AcDbLine
 10
15.2921
 20
21.8409
 30
5.1
 11
15.4767
 21
22.2306
 31
5.1
  0
LINE
  5
ACF
330
A02
100
AcDbEntity
  8
Mesh_cs002
100
AcDbLine
 10
15.4767
 20
22.2306
 30
5.1
 11
15.4817
 21
22.2406
 31
5.1
  0
LINE
  5
AD0
330
A02
100
AcDbEntity
  8
Mesh_cs002
100
AcDbLine
 10
15.4817
 20
22.2406
 30
5.1
 11
15.7001
 21
22.6124
 31
5.1
  0
LINE
  5
AD1
330
A02
100
AcDbEntity
  8
Mesh_cs002
100
AcDbLine
 10
15.7001
 20
22.6124
 30
5.1
 11
15.7058
 21
22.6219
 31
5.1
  0
LINE
  5
AD2
330
A02
100
AcDbEntity
  8
Mesh_cs002
100
AcDbLine
 10
15.7058
 20
22.6219
 30
5.1
 11
15.9562
 21
22.9731
 31
5.1
  0
LINE
  5
AD3
330
A02
100
AcDbEntity
  8
Mesh_cs002
100
AcDbLine
 10
15.9562
 20
22.9731
 30
5.1
 11
15.9629
 21
22.982
 31
5.1
  0
LINE
  5
AD4
330
A02
100
AcDbEntity
  8
Mesh_cs002
100
AcDbLine
 10
15.9629
 20
22.982
 30
5.1
 11
16.2433
 21
23.3096
 31
5.1
  0
LINE
  5
AD5
330
A02
100
AcDbEntity
  8
Mesh_cs002
100
AcDbLine
 10
16.2433
 20
23.3096
 30
5.1
 11
16.2507
 21
23.3179
 31
5.1
  0
LINE
  5
AD6
330
A02
100
AcDbEntity
  8
Mesh_cs002
100
AcDbLine
 10
16.2507
 20
23.3179
 30
5.1
 11
16.559
 21
23.6195
 31
5.1
  0
LINE
  5
AD7
330
A02
100
AcDbEntity
  8
Mesh_cs002
100
AcDbLine
 10
16.559
 20
23.6195
 30
5.1
 11
16.5671
 21
23.6271
 31
5.1
  0
LINE
  5
AD8
330
A02
100
AcDbEntity
  8
Mesh_cs002
100
AcDbLine
 10
16.5671
 20
23.6271
 30
5.1
 11
16.9008
 21
23.9003
 31
5.1
  0
LINE
  5
AD9
330
A02
100
AcDbEntity
  8
Mesh_cs002
100
AcDbLine
 10
16.9008
 20
23.9003
 30
5.1
 11
16.9096
 21
23.9071
 31
5.1
  0
LINE
  5
ADA
330
A02
100
AcDbEntity
  8
Mesh_cs002
100
AcDbLine
 10
16.9096
 20
23.9071
 30
5.1
 11
17.2662
 21
24.1497
 31
5.1
  0
LINE
  5
ADB
330
A02
100
AcDbEntity
  8
Mesh_cs002
100
AcDbLine
 10
17.2662
 20
24.1497
 30
5.1
 11
17.2755
 21
24.1558
 31
5.1
  0
LINE
  5
ADC
330
A02
100
AcDbEntity
  8
Mesh_cs002
100
AcDbLine
 10
17.2755
 20
24.1558
 30
5.1
 11
17.6521
 21
24.3659
 31
5.1
  0
LINE
  5
ADD
330
A02
100
AcDbEntity
  8
Mesh_cs002
100
AcDbLine
 10
17.6521
 20
24.3659
 30
5.1
 11
17.6619
 21
24.3711
 31
5.1
  0
LINE
  5
ADE
330
A02
100
AcDbEntity
  8
Mesh_cs002
100
AcDbLine
 10
17.6619
 20
24.3711
 30
5.1
 11
18.0556
 21
24.5471
 31
5.1
  0
LINE
  5
ADF
330
A02
100
AcDbEntity
  8
Mesh_cs002
100
AcDbLine
 10
18.0556
 20
24.5471
 30
5.1
 11
18.0659
 21
24.5514
 31
5.1
  0
LINE
  5
AE0
330
A02
100
AcDbEntity
  8
Mesh_cs002
100
AcDbLine
 10
18.0659
 20
24.5514
 30
5.1
 11
18.4736
 21
24.6919
 31
5.1
  0
LINE
  5
AE1
330
A02
100
AcDbEntity
  8
Mesh_cs002
100
AcDbLine
 10
18.4736
 20
24.6919
 30
5.1
 11
18.4842
 21
24.6953
 31
5.1
  0
LINE
  5
AE2
330
A02
100
AcDbEntity
  8
Mesh_cs002
100
AcDbLine
 10
18.4842
 20
24.6953
 30
5.1
 11
18.9028
 21
24.7993
 31
5.1
  0
LINE
  5
AE3
330
A02
100
AcDbEntity
  8
Mesh_cs002
100
AcDbLine
 10
18.9028
 20
24.7993
 30
5.1
 11
18.9136
 21
24.8017
 31
5.1
  0
LINE
  5
AE4
330
A02
100
AcDbEntity
  8
Mesh_cs002
100
AcDbLine
 10
18.9136
 20
24.8017
 30
5.1
 11
19.3397
 21
24.8682
 31
5.1
  0
LINE
  5
AE5
330
A02
100
AcDbEntity
  8
Mesh_cs002
100
AcDbLine
 10
19.3397
 20
24.8682
 30
5.1
 11
19.3507
 21
24.8697
 31
5.1
  0
LINE
  5
AE6
330
A02
100
AcDbEntity
  8
Mesh_cs002
100
AcDbLine
 10
19.3507
 20
24.8697
 30
5.1
 11
19.7811
 21
24.8983
 31
5.1
  0
LINE
  5
AE7
330
A02
100
AcDbEntity
  8
Mesh_cs002
100
AcDbLine
 10
19.7811
 20
24.8983
 30
5.1
 11
19.7922
 21
24.8988
 31
5.1
  0
LINE
  5
AE8
330
A02
100
AcDbEntity
  8
Mesh_cs002
100
AcDbLine
 10
19.7922
 20
24.8988
 30
5.1
 11
20.2233
 21
24.8893
 31
5.1
  0
LINE
  5
AE9
330
A02
100
AcDbEntity
  8
Mesh_cs002
100
AcDbLine
 10
20.2233
 20
24.8893
 30
5.1
 11
20.2342
 21
24.8888
 31
5.1
  0
LINE
  5
AEA
330
A02
100
AcDbEntity
  8
Mesh_cs002
100
AcDbLine
 10
20.2342
 20
24.8888
 30
5.1
 11
20.6629
 21
24.8412
 31
5.1
  0
LINE
  5
AEB
330
A02
100
AcDbEntity
  8
Mesh_cs002
100
AcDbLine
 10
20.6629
 20
24.8412
 30
5.1
 11
20.6737
 21
24.8398
 31
5.1
  0
LINE
  5
AEC
330
A02
100
AcDbEntity
  8
Mesh_cs002
100
AcDbLine
 10
20.6737
 20
24.8398
 30
5.1
 11
21.0964
 21
24.7545
 31
5.1
  0
LINE
  5
AED
330
A02
100
AcDbEntity
  8
Mesh_cs002
100
AcDbLine
 10
21.0964
 20
24.7545
 30
5.1
 11
21.1071
 21
24.7521
 31
5.1
  0
LINE
  5
AEE
330
A02
100
AcDbEntity
  8
Mesh_cs002
100
AcDbLine
 10
21.1071
 20
24.7521
 30
5.1
 11
21.5206
 21
24.6298
 31
5.1
  0
LINE
  5
AEF
330
A02
100
AcDbEntity
  8
Mesh_cs002
100
AcDbLine
 10
21.5206
 20
24.6298
 30
5.1
 11
21.531
 21
24.6265
 31
5.1
  0
LINE
  5
AF0
330
A02
100
AcDbEntity
  8
Mesh_cs002
100
AcDbLine
 10
21.531
 20
24.6265
 30
5.1
 11
21.9322
 21
24.4681
 31
5.1
  0
LINE
  5
AF1
330
A02
100
AcDbEntity
  8
Mesh_cs002
100
AcDbLine
 10
21.9322
 20
24.4681
 30
5.1
 11
21.9422
 21
24.4639
 31
5.1
  0
LINE
  5
AF2
330
A02
100
AcDbEntity
  8
Mesh_cs002
100
AcDbLine
 10
21.9422
 20
24.4639
 30
5.1
 11
22.3278
 21
24.2707
 31
5.1
  0
LINE
  5
AF3
330
A02
100
AcDbEntity
  8
Mesh_cs002
100
AcDbLine
 10
22.3278
 20
24.2707
 30
5.1
 11
22.3375
 21
24.2656
 31
5.1
  0
LINE
  5
AF4
330
A02
100
AcDbEntity
  8
Mesh_cs002
100
AcDbLine
 10
22.3375
 20
24.2656
 30
5.1
 11
22.7044
 21
24.0391
 31
5.1
  0
LINE
  5
AF5
330
A02
100
AcDbEntity
  8
Mesh_cs002
100
AcDbLine
 10
22.7044
 20
24.0391
 30
5.1
 11
22.7136
 21
24.0332
 31
5.1
  0
LINE
  5
AF6
330
A02
100
AcDbEntity
  8
Mesh_cs002
100
AcDbLine
 10
22.7136
 20
24.0332
 30
5.1
 11
23.0592
 21
23.7751
 31
5.1
  0
LINE
  5
AF7
330
A02
100
AcDbEntity
  8
Mesh_cs002
100
AcDbLine
 10
23.0592
 20
23.7751
 30
5.1
 11
23.0678
 21
23.7685
 31
5.1
  0
LINE
  5
AF8
330
A02
100
AcDbEntity
  8
Mesh_cs002
100
AcDbLine
 10
23.0678
 20
23.7685
 30
5.1
 11
23.3892
 21
23.4808
 31
5.1
  0
LINE
  5
AF9
330
A02
100
AcDbEntity
  8
Mesh_cs002
100
AcDbLine
 10
23.3892
 20
23.4808
 30
5.1
 11
23.3972
 21
23.4735
 31
5.1
  0
LINE
  5
AFA
330
A02
100
AcDbEntity
  8
Mesh_cs002
100
AcDbLine
 10
23.3972
 20
23.4735
 30
5.1
 11
23.6919
 21
23.1585
 31
5.1
  0
LINE
  5
AFB
330
A02
100
AcDbEntity
  8
Mesh_cs002
100
AcDbLine
 10
23.6919
 20
23.1585
 30
5.1
 11
23.6992
 21
23.1505
 31
5.1
  0
LINE
  5
AFC
330
A02
100
AcDbEntity
  8
Mesh_cs002
100
AcDbLine
 10
23.6992
 20
23.1505
 30
5.1
 11
23.9649
 21
22.8108
 31
5.1
  0
LINE
  5
AFD
330
A02
100
AcDbEntity
  8
Mesh_cs002
100
AcDbLine
 10
23.9649
 20
22.8108
 30
5.1
 11
23.9716
 21
22.8021
 31
5.1
  0
LINE
  5
AFE
330
A02
100
AcDbEntity
  8
Mesh_cs002
100
AcDbLine
 10
23.9716
 20
22.8021
 30
5.1
 11
24.2062
 21
22.4403
 31
5.1
  0
LINE
  5
AFF
330
A02
100
AcDbEntity
  8
Mesh_cs002
100
AcDbLine
 10
24.2062
 20
22.4403
 30
5.1
 11
24.212
 21
22.4311
 31
5.1
  0
LINE
  5
B00
330
A02
100
AcDbEntity
  8
Mesh_cs002
100
AcDbLine
 10
24.212
 20
22.4311
 30
5.1
 11
24.4138
 21
22.0499
 31
5.1
  0
LINE
  5
B01
330
A02
100
AcDbEntity
  8
Mesh_cs002
100
AcDbLine
 10
24.4138
 20
22.0499
 30
5.1
 11
24.4188
 21
22.0402
 31
5.1
  0
LINE
  5
B02
330
A02
100
AcDbEntity
  8
Mesh_cs002
100
AcDbLine
 10
24.4188
 20
22.0402
 30
5.1
 11
24.586
 21
21.6427
 31
5.1
  0
LINE
  5
B03
330
A02
100
AcDbEntity
  8
Mesh_cs002
100
AcDbLine
 10
24.586
 20
21.6427
 30
5.1
 11
24.5902
 21
21.6326
 31
5.1
  0
LINE
  5
B04
330
A02
100
AcDbEntity
  8
Mesh_cs002
100
AcDbLine
 10
24.5902
 20
21.6326
 30
5.1
 11
24.7217
 21
21.2218
 31
5.1
  0
LINE
  5
B05
330
A02
100
AcDbEntity
  8
Mesh_cs002
100
AcDbLine
 10
24.7217
 20
21.2218
 30
5.1
 11
24.7249
 21
21.2115
 31
5.1
  0
LINE
  5
B06
330
A02
100
AcDbEntity
  8
Mesh_cs002
100
AcDbLine
 10
24.7249
 20
21.2115
 30
5.1
 11
24.8196
 21
20.7907
 31
5.1
  0
LINE
  5
B07
330
A02
100
AcDbEntity
  8
Mesh_cs002
100
AcDbLine
 10
24.8196
 20
20.7907
 30
5.1
 11
24.8219
 21
20.78
 31
5.1
  0
LINE
  5
B08
330
A02
100
AcDbEntity
  8
Mesh_cs002
100
AcDbLine
 10
24.8219
 20
20.78
 30
5.1
 11
24.879
 21
20.3526
 31
5.1
  0
LINE
  5
B09
330
A02
100
AcDbEntity
  8
Mesh_cs002
100
AcDbLine
 10
24.879
 20
20.3526
 30
5.1
 11
24.8804
 21
20.3417
 31
5.1
  0
LINE
  5
B0A
330
A02
100
AcDbEntity
  8
Mesh_cs002
100
AcDbLine
 10
24.8804
 20
20.3417
 30
5.1
 11
24.8995
 21
19.9109
 31
5.1
  0
LINE
  5
B0B
330
A02
100
AcDbEntity
  8
Mesh_cs002
100
AcDbLine
 10
24.8995
 20
19.9109
 30
5.1
 11
24.9
 21
19.9
 31
5.1
  0
LINE
  5
B0C
330
A02
100
AcDbEntity
  8
Mesh_cs002
100
AcDbLine
 10
24.9
 20
19.9
 30
5.1
 11
24.8809
 21
19.4691
 31
5.1
  0
LINE
  5
B0D
330
A02
100
AcDbEntity
  8
Mesh_cs002
100
AcDbLine
 10
24.8809
 20
19.4691
 30
5.1
 11
24.8804
 21
19.458
 31
5.1
  0
LINE
  5
B0E
330
A02
100
AcDbEntity
  8
Mesh_cs002
100
AcDbLine
 10
24.8804
 20
19.458
 30
5.1
 11
24.8233
 21
19.0306
 31
5.1
  0
LINE
  5
B0F
330
A02
100
AcDbEntity
  8
Mesh_cs002
100
AcDbLine
 10
24.8233
 20
19.0306
 30
5.1
 11
24.8219
 21
19.0196
 31
5.1
  0
LINE
  5
B10
330
A02
100
AcDbEntity
  8
Mesh_cs002
100
AcDbLine
 10
24.8219
 20
19.0196
 30
5.1
 11
24.7272
 21
18.5988
 31
5.1
  0
LINE
  5
B11
330
A02
100
AcDbEntity
  8
Mesh_cs002
100
AcDbLine
 10
24.7272
 20
18.5988
 30
5.1
 11
24.7248
 21
18.588
 31
5.1
  0
LINE
  5
B12
330
A02
100
AcDbEntity
  8
Mesh_cs002
100
AcDbLine
 10
24.7248
 20
18.588
 30
5.1
 11
24.5933
 21
18.1772
 31
5.1
  0
LINE
  5
B13
330
A02
100
AcDbEntity
  8
Mesh_cs002
100
AcDbLine
 10
24.5933
 20
18.1772
 30
5.1
 11
24.5899
 21
18.1666
 31
5.1
  0
LINE
  5
B14
330
A02
100
AcDbEntity
  8
Mesh_cs002
100
AcDbLine
 10
24.5899
 20
18.1666
 30
5.1
 11
24.4227
 21
17.7691
 31
5.1
  0
LINE
  5
B15
330
A02
100
AcDbEntity
  8
Mesh_cs002
100
AcDbLine
 10
24.4227
 20
17.7691
 30
5.1
 11
24.4184
 21
17.7589
 31
5.1
  0
LINE
  5
B16
330
A02
100
AcDbEntity
  8
Mesh_cs002
100
AcDbLine
 10
24.4184
 20
17.7589
 30
5.1
 11
24.2166
 21
17.3777
 31
5.1
  0
LINE
  5
B17
330
A02
100
AcDbEntity
  8
Mesh_cs002
100
AcDbLine
 10
24.2166
 20
17.3777
 30
5.1
 11
24.2114
 21
17.3679
 31
5.1
  0
LINE
  5
B18
330
A02
100
AcDbEntity
  8
Mesh_cs002
100
AcDbLine
 10
24.2114
 20
17.3679
 30
5.1
 11
23.9768
 21
17.006
 31
5.1
  0
LINE
  5
B19
330
A02
100
AcDbEntity
  8
Mesh_cs002
100
AcDbLine
 10
23.9768
 20
17.006
 30
5.1
 11
23.9707
 21
16.9967
 31
5.1
  0
LINE
  5
B1A
330
A02
100
AcDbEntity
  8
Mesh_cs002
100
AcDbLine
 10
23.9707
 20
16.9967
 30
5.1
 11
23.705
 21
16.657
 31
5.1
  0
LINE
  5
B1B
330
A02
100
AcDbEntity
  8
Mesh_cs002
100
AcDbLine
 10
23.705
 20
16.657
 30
5.1
 11
23.6982
 21
16.6482
 31
5.1
  0
LINE
  5
B1C
330
A02
100
AcDbEntity
  8
Mesh_cs002
100
AcDbLine
 10
23.6982
 20
16.6482
 30
5.1
 11
23.4035
 21
16.3333
 31
5.1
  0
LINE
  5
B1D
330
A02
100
AcDbEntity
  8
Mesh_cs002
100
AcDbLine
 10
23.4035
 20
16.3333
 30
5.1
 11
23.3959
 21
16.3252
 31
5.1
  0
LINE
  5
B1E
330
A02
100
AcDbEntity
  8
Mesh_cs002
100
AcDbLine
 10
23.3959
 20
16.3252
 30
5.1
 11
23.0745
 21
16.0376
 31
5.1
  0
LINE
  5
B1F
330
A02
100
AcDbEntity
  8
Mesh_cs002
100
AcDbLine
 10
23.0745
 20
16.0376
 30
5.1
 11
23.0662
 21
16.0302
 31
5.1
  0
LINE
  5
B20
330
A02
100
AcDbEntity
  8
Mesh_cs002
100
AcDbLine
 10
23.0662
 20
16.0302
 30
5.1
 11
22.7207
 21
15.7721
 31
5.1
  0
LINE
  5
B21
330
A02
100
AcDbEntity
  8
Mesh_cs002
100
AcDbLine
 10
22.7207
 20
15.7721
 30
5.1
 11
22.7118
 21
15.7655
 31
5.1
  0
LINE
  5
B22
330
A02
100
AcDbEntity
  8
Mesh_cs002
100
AcDbLine
 10
22.7118
 20
15.7655
 30
5.1
 11
22.3448
 21
15.539
 31
5.1
  0
LINE
  5
B23
330
A02
100
AcDbEntity
  8
Mesh_cs002
100
AcDbLine
 10
22.3448
 20
15.539
 30
5.1
 11
22.3353
 21
15.5332
 31
5.1
  0
LINE
  5
B24
330
A02
100
AcDbEntity
  8
Mesh_cs002
100
AcDbLine
 10
22.3353
 20
15.5332
 30
5.1
 11
21.9498
 21
15.3399
 31
5.1
  0
LINE
  5
B25
330
A02
100
AcDbEntity
  8
Mesh_cs002
100
AcDbLine
 10
21.9498
 20
15.3399
 30
5.1
 11
21.9398
 21
15.335
 31
5.1
  0
LINE
  5
B26
330
A02
100
AcDbEntity
  8
Mesh_cs002
100
AcDbLine
 10
21.9398
 20
15.335
 30
5.1
 11
21.5387
 21
15.1766
 31
5.1
  0
LINE
  5
B27
330
A02
100
AcDbEntity
  8
Mesh_cs002
100
AcDbLine
 10
21.5387
 20
15.1766
 30
5.1
 11
21.5283
 21
15.1726
 31
5.1
  0
LINE
  5
B28
330
A02
100
AcDbEntity
  8
Mesh_cs002
100
AcDbLine
 10
21.5283
 20
15.1726
 30
5.1
 11
21.1148
 21
15.0502
 31
5.1
  0
LINE
  5
B29
330
A02
100
AcDbEntity
  8
Mesh_cs002
100
AcDbLine
 10
21.1148
 20
15.0502
 30
5.1
 11
21.1041
 21
15.0471
 31
5.1
  0
LINE
  5
B2A
330
A02
100
AcDbEntity
  8
Mesh_cs002
100
AcDbLine
 10
21.1041
 20
15.0471
 30
5.1
 11
20.6813
 21
14.9618
 31
5.1
  0
LINE
  5
B2B
330
A02
100
AcDbEntity
  8
Mesh_cs002
100
AcDbLine
 10
20.6813
 20
14.9618
 30
5.1
 11
20.6704
 21
14.9597
 31
5.1
  0
LINE
  5
B2C
330
A02
100
AcDbEntity
  8
Mesh_cs002
100
AcDbLine
 10
20.6704
 20
14.9597
 30
5.1
 11
20.2418
 21
14.9121
 31
5.1
  0
LINE
  5
B2D
330
A02
100
AcDbEntity
  8
Mesh_cs002
100
AcDbLine
 10
20.2418
 20
14.9121
 30
5.1
 11
20.2307
 21
14.911
 31
5.1
  0
LINE
  5
B2E
330
A02
100
AcDbEntity
  8
Mesh_cs002
100
AcDbLine
 10
20.2307
 20
14.911
 30
5.1
 11
19.7996
 21
14.9014
 31
5.1
  0
LINE
  5
B2F
330
A02
100
AcDbEntity
  8
Mesh_cs002
100
AcDbLine
 10
19.7996
 20
14.9014
 30
5.1
 11
19.7885
 21
14.9012
 31
5.1
  0
LINE
  5
B30
330
A02
100
AcDbEntity
  8
Mesh_cs002
100
AcDbLine
 10
19.7885
 20
14.9012
 30
5.1
 11
19.3581
 21
14.9299
 31
5.1
  0
LINE
  5
B31
330
A02
100
AcDbEntity
  8
Mesh_cs002
100
AcDbLine
 10
19.3581
 20
14.9299
 30
5.1
 11
19.347
 21
14.9307
 31
5.1
  0
LINE
  5
B32
330
A02
100
AcDbEntity
  8
Mesh_cs002
100
AcDbLine
 10
19.347
 20
14.9307
 30
5.1
 11
18.9209
 21
14.9972
 31
5.1
  0
LINE
  5
B33
330
A02
100
AcDbEntity
  8
Mesh_cs002
100
AcDbLine
 10
18.9209
 20
14.9972
 30
5.1
 11
18.91
 21
14.999
 31
5.1
  0
LINE
  5
B34
330
A02
100
AcDbEntity
  8
Mesh_cs002
100
AcDbLine
 10
18.91
 20
14.999
 30
5.1
 11
18.4914
 21
15.1029
 31
5.1
  0
LINE
  5
B35
330
A02
100
AcDbEntity
  8
Mesh_cs002
100
AcDbLine
 10
18.4914
 20
15.1029
 30
5.1
 11
18.4806
 21
15.1057
 31
5.1
  0
LINE
  5
B36
330
A02
100
AcDbEntity
  8
Mesh_cs002
100
AcDbLine
 10
18.4806
 20
15.1057
 30
5.1
 11
18.0729
 21
15.2462
 31
5.1
  0
LINE
  5
B37
330
A02
100
AcDbEntity
  8
Mesh_cs002
100
AcDbLine
 10
18.0729
 20
15.2462
 30
5.1
 11
18.0624
 21
15.2499
 31
5.1
  0
LINE
  5
B38
330
A02
100
AcDbEntity
  8
Mesh_cs002
100
AcDbLine
 10
18.0624
 20
15.2499
 30
5.1
 11
17.6687
 21
15.4259
 31
5.1
  0
LINE
  5
B39
330
A02
100
AcDbEntity
  8
Mesh_cs002
100
AcDbLine
 10
17.6687
 20
15.4259
 30
5.1
 11
17.6586
 21
15.4305
 31
5.1
  0
LINE
  5
B3A
330
A02
100
AcDbEntity
  8
Mesh_cs002
100
AcDbLine
 10
17.6586
 20
15.4305
 30
5.1
 11
17.282
 21
15.6406
 31
5.1
  0
LINE
  5
B3B
330
A02
100
AcDbEntity
  8
Mesh_cs002
100
AcDbLine
 10
17.282
 20
15.6406
 30
5.1
 11
17.2723
 21
15.6462
 31
5.1
  0
LINE
  5
B3C
330
A02
100
AcDbEntity
  8
Mesh_cs002
100
AcDbLine
 10
17.2723
 20
15.6462
 30
5.1
 11
16.9157
 21
15.8887
 31
5.1
  0
LINE
  5
B3D
330
A02
100
AcDbEntity
  8
Mesh_cs002
100
AcDbLine
 10
16.9157
 20
15.8887
 30
5.1
 11
16.9066
 21
15.8951
 31
5.1
  0
LINE
  5
B3E
330
A02
100
AcDbEntity
  8
Mesh_cs002
100
AcDbLine
 10
16.9066
 20
15.8951
 30
5.1
 11
16.5728
 21
16.1682
 31
5.1
  0
LINE
  5
B3F
330
A02
100
AcDbEntity
  8
Mesh_cs002
100
AcDbLine
 10
16.5728
 20
16.1682
 30
5.1
 11
16.5643
 21
16.1753
 31
5.1
  0
LINE
  5
B40
330
A02
100
AcDbEntity
  8
Mesh_cs002
100
AcDbLine
 10
16.5643
 20
16.1753
 30
5.1
 11
16.256
 21
16.4769
 31
5.1
  0
LINE
  5
B41
330
A02
100
AcDbEntity
  8
Mesh_cs002
100
AcDbLine
 10
16.256
 20
16.4769
 30
5.1
 11
16.2481
 21
16.4848
 31
5.1
  0
LINE
  5
B42
330
A02
100
AcDbEntity
  8
Mesh_cs002
100
AcDbLine
 10
16.2481
 20
16.4848
 30
5.1
 11
15.9677
 21
16.8124
 31
5.1
  0
LINE
  5
B43
330
A02
100
AcDbEntity
  8
Mesh_cs002
100
AcDbLine
 10
15.9677
 20
16.8124
 30
5.1
 11
15.9606
 21
16.8209
 31
5.1
  0
LINE
  5
B44
330
A02
100
AcDbEntity
  8
Mesh_cs002
100
AcDbLine
 10
15.9606
 20
16.8209
 30
5.1
 11
15.7102
 21
17.1721
 31
5.1
  0
LINE
  5
B45
330
A02
100
AcDbEntity
  8
Mesh_cs002
100
AcDbLine
 10
15.7102
 20
17.1721
 30
5.1
 11
15.7038
 21
17.1812
 31
5.1
  0
LINE
  5
B46
330
A02
100
AcDbEntity
  8
Mesh_cs002
100
AcDbLine
 10
15.7038
 20
17.1812
 30
5.1
 11
15.4854
 21
17.5531
 31
5.1
  0
LINE
  5
B47
330
A02
100
AcDbEntity
  8
Mesh_cs002
100
AcDbLine
 10
15.4854
 20
17.5531
 30
5.1
 11
15.4799
 21
17.5627
 31
5.1
  0
LINE
  5
B48
330
A02
100
AcDbEntity
  8
Mesh_cs002
100
AcDbLine
 10
15.4799
 20
17.5627
 30
5.1
 11
15.2953
 21
17.9525
 31
5.1
  0
LINE
  5
B49
330
A02
100
AcDbEntity
  8
Mesh_cs002
100
AcDbLine
 10
15.2953
 20
17.9525
 30
5.1
 11
15.2906
 21
17.9626
 31
5.1
  0
LINE
  5
B4A
330
A02
100
AcDbEntity
  8
Mesh_cs002
100
AcDbLine
 10
15.2906
 20
17.9626
 30
5.1
 11
15.1411
 21
18.3671
 31
5.1
  0
LINE
  5
B4B
330
A02
100
AcDbEntity
  8
Mesh_cs002
100
AcDbLine
 10
15.1411
 20
18.3671
 30
5.1
 11
15.1374
 21
18.3776
 31
5.1
  0
LINE
  5
B4C
330
A02
100
AcDbEntity
  8
Mesh_cs002
100
AcDbLine
 10
15.1374
 20
18.3776
 30
5.1
 11
15.0243
 21
18.7937
 31
5.1
  0
LINE
  5
B4D
330
A02
100
AcDbEntity
  8
Mesh_cs002
100
AcDbLine
 10
15.0243
 20
18.7937
 30
5.1
 11
15.0215
 21
18.8045
 31
5.1
  0
LINE
  5
B4E
330
A02
100
AcDbEntity
  8
Mesh_cs002
100
AcDbLine
 10
15.0215
 20
18.8045
 30
5.1
 11
14.9456
 21
19.229
 31
5.1
  0
LINE
  5
B4F
330
A02
100
AcDbEntity
  8
Mesh_cs002
100
AcDbLine
 10
14.9456
 20
19.229
 30
5.1
 11
14.9438
 21
19.24
 31
5.1
  0
LINE
  5
B50
330
A02
100
AcDbEntity
  8
Mesh_cs002
100
AcDbLine
 10
14.9438
 20
19.24
 30
5.1
 11
14.9056
 21
19.6696
 31
5.1
  0
LINE
  5
B51
330
A02
100
AcDbEntity
  8
Mesh_cs002
100
AcDbLine
 10
14.9056
 20
19.6696
 30
5.1
 11
14.9048
 21
19.6807
 31
5.1
  0
LINE
  5
B52
330
A02
100
AcDbEntity
  8
Mesh_cs002
100
AcDbLine
 10
14.9048
 20
19.6807
 30
5.1
 11
14.9048
 21
20.1119
 31
5.1
  0
LINE
  5
B53
330
A02
100
AcDbEntity
  8
Mesh_cs002
100
AcDbLine
 10
37.7253
 20
164.177
 30
5.1
 11
37.7224
 21
164.168
 31
5.1
  0
LINE
  5
B54
330
A02
100
AcDbEntity
  8
Mesh_cs002
100
AcDbLine
 10
37.7224
 20
164.168
 30
5.1
 11
37.623
 21
163.744
 31
5.1
  0
LINE
  5
B55
330
A02
100
AcDbEntity
  8
Mesh_cs002
100
AcDbLine
 10
37.623
 20
163.744
 30
5.1
 11
37.6208
 21
163.734
 31
5.1
  0
LINE
  5
B56
330
A02
100
AcDbEntity
  8
Mesh_cs002
100
AcDbLine
 10
37.6208
 20
163.734
 30
5.1
 11
37.5597
 21
163.304
 31
5.1
  0
LINE
  5
B57
330
A02
100
AcDbEntity
  8
Mesh_cs002
100
AcDbLine
 10
37.5597
 20
163.304
 30
5.1
 11
37.5583
 21
163.294
 31
5.1
  0
LINE
  5
B58
330
A02
100
AcDbEntity
  8
Mesh_cs002
100
AcDbLine
 10
37.5583
 20
163.294
 30
5.1
 11
37.5578
 21
163.284
 31
5.1
  0
LINE
  5
B59
330
A02
100
AcDbEntity
  8
Mesh_cs002
100
AcDbLine
 10
37.5578
 20
163.284
 30
5.1
 11
37.5352
 21
162.851
 31
5.1
  0
LINE
  5
B5A
330
A02
100
AcDbEntity
  8
Mesh_cs002
100
AcDbLine
 10
37.5352
 20
162.851
 30
5.1
 11
37.5355
 21
162.841
 31
5.1
  0
LINE
  5
B5B
330
A02
100
AcDbEntity
  8
Mesh_cs002
100
AcDbLine
 10
37.5355
 20
162.841
 30
5.1
 11
37.5513
 21
162.409
 31
5.1
  0
LINE
  5
B5C
330
A02
100
AcDbEntity
  8
Mesh_cs002
100
AcDbLine
 10
37.5513
 20
162.409
 30
5.1
 11
37.5526
 21
162.398
 31
5.1
  0
LINE
  5
B5D
330
A02
100
AcDbEntity
  8
Mesh_cs002
100
AcDbLine
 10
37.5526
 20
162.398
 30
5.1
 11
37.6066
 21
161.969
 31
5.1
  0
LINE
  5
B5E
330
A02
100
AcDbEntity
  8
Mesh_cs002
100
AcDbLine
 10
37.6066
 20
161.969
 30
5.1
 11
37.6088
 21
161.958
 31
5.1
  0
LINE
  5
B5F
330
A02
100
AcDbEntity
  8
Mesh_cs002
100
AcDbLine
 10
37.6088
 20
161.958
 30
5.1
 11
37.7003
 21
161.537
 31
5.1
  0
LINE
  5
B60
330
A02
100
AcDbEntity
  8
Mesh_cs002
100
AcDbLine
 10
37.7003
 20
161.537
 30
5.1
 11
37.7035
 21
161.527
 31
5.1
  0
LINE
  5
B61
330
A02
100
AcDbEntity
  8
Mesh_cs002
100
AcDbLine
 10
37.7035
 20
161.527
 30
5.1
 11
37.8314
 21
161.116
 31
5.1
  0
LINE
  5
B62
330
A02
100
AcDbEntity
  8
Mesh_cs002
100
AcDbLine
 10
37.8314
 20
161.116
 30
5.1
 11
37.8355
 21
161.106
 31
5.1
  0
LINE
  5
B63
330
A02
100
AcDbEntity
  8
Mesh_cs002
100
AcDbLine
 10
37.8355
 20
161.106
 30
5.1
 11
37.9988
 21
160.709
 31
5.1
  0
LINE
  5
B64
330
A02
100
AcDbEntity
  8
Mesh_cs002
100
AcDbLine
 10
37.9988
 20
160.709
 30
5.1
 11
38.0038
 21
160.699
 31
5.1
  0
LINE
  5
B65
330
A02
100
AcDbEntity
  8
Mesh_cs002
100
AcDbLine
 10
38.0038
 20
160.699
 30
5.1
 11
38.2008
 21
160.319
 31
5.1
  0
LINE
  5
B66
330
A02
100
AcDbEntity
  8
Mesh_cs002
100
AcDbLine
 10
38.2008
 20
160.319
 30
5.1
 11
38.2066
 21
160.31
 31
5.1
  0
LINE
  5
B67
330
A02
100
AcDbEntity
  8
Mesh_cs002
100
AcDbLine
 10
38.2066
 20
160.31
 30
5.1
 11
38.4357
 21
159.949
 31
5.1
  0
LINE
  5
B68
330
A02
100
AcDbEntity
  8
Mesh_cs002
100
AcDbLine
 10
38.4357
 20
159.949
 30
5.1
 11
38.4423
 21
159.94
 31
5.1
  0
LINE
  5
B69
330
A02
100
AcDbEntity
  8
Mesh_cs002
100
AcDbLine
 10
38.4423
 20
159.94
 30
5.1
 11
38.7014
 21
159.602
 31
5.1
  0
LINE
  5
B6A
330
A02
100
AcDbEntity
  8
Mesh_cs002
100
AcDbLine
 10
38.7014
 20
159.602
 30
5.1
 11
38.7088
 21
159.594
 31
5.1
  0
LINE
  5
B6B
330
A02
100
AcDbEntity
  8
Mesh_cs002
100
AcDbLine
 10
38.7088
 20
159.594
 30
5.1
 11
39.0011
 21
159.275
 31
5.1
  0
LINE
  5
B6C
330
A02
100
AcDbEntity
  8
Mesh_cs002
100
AcDbLine
 10
39.0011
 20
159.275
 30
5.1
 11
39.0092
 21
159.267
 31
5.1
  0
LINE
  5
B6D
330
A02
100
AcDbEntity
  8
Mesh_cs002
100
AcDbLine
 10
39.0092
 20
159.267
 30
5.1
 11
39.3042
 21
158.996
 31
5.1
  0
LINE
  5
B6E
330
A02
100
AcDbEntity
  8
Mesh_cs002
100
AcDbLine
 10
39.3042
 20
158.996
 30
5.1
 11
39.6199
 21
158.75
 31
5.1
  0
LINE
  5
B6F
330
A02
100
AcDbEntity
  8
Mesh_cs002
100
AcDbLine
 10
39.6199
 20
158.75
 30
5.1
 11
39.6285
 21
158.744
 31
5.1
  0
LINE
  5
B70
330
A02
100
AcDbEntity
  8
Mesh_cs002
100
AcDbLine
 10
39.6285
 20
158.744
 30
5.1
 11
39.9625
 21
158.525
 31
5.1
  0
LINE
  5
B71
330
A02
100
AcDbEntity
  8
Mesh_cs002
100
AcDbLine
 10
39.9625
 20
158.525
 30
5.1
 11
39.9717
 21
158.519
 31
5.1
  0
LINE
  5
B72
330
A02
100
AcDbEntity
  8
Mesh_cs002
100
AcDbLine
 10
39.9717
 20
158.519
 30
5.1
 11
40.3218
 21
158.329
 31
5.1
  0
LINE
  5
B73
330
A02
100
AcDbEntity
  8
Mesh_cs002
100
AcDbLine
 10
40.3218
 20
158.329
 30
5.1
 11
40.3314
 21
158.324
 31
5.1
  0
LINE
  5
B74
330
A02
100
AcDbEntity
  8
Mesh_cs002
100
AcDbLine
 10
40.3314
 20
158.324
 30
5.1
 11
40.6952
 21
158.163
 31
5.1
  0
LINE
  5
B75
330
A02
100
AcDbEntity
  8
Mesh_cs002
100
AcDbLine
 10
40.6952
 20
158.163
 30
5.1
 11
40.7026
 21
158.16
 31
5.1
  0
LINE
  5
B76
330
A02
100
AcDbEntity
  8
Mesh_cs002
100
AcDbLine
 10
40.7026
 20
158.16
 30
5.1
 11
40.71
 21
158.157
 31
5.1
  0
LINE
  5
B77
330
A02
100
AcDbEntity
  8
Mesh_cs002
100
AcDbLine
 10
40.71
 20
158.157
 30
5.1
 11
41.0849
 21
158.027
 31
5.1
  0
LINE
  5
B78
330
A02
100
AcDbEntity
  8
Mesh_cs002
100
AcDbLine
 10
41.0849
 20
158.027
 30
5.1
 11
41.0929
 21
158.025
 31
5.1
  0
LINE
  5
B79
330
A02
100
AcDbEntity
  8
Mesh_cs002
100
AcDbLine
 10
41.0929
 20
158.025
 30
5.1
 11
41.4765
 21
157.925
 31
5.1
  0
LINE
  5
B7A
330
A02
100
AcDbEntity
  8
Mesh_cs002
100
AcDbLine
 10
41.4765
 20
157.925
 30
5.1
 11
41.4848
 21
157.924
 31
5.1
  0
LINE
  5
B7B
330
A02
100
AcDbEntity
  8
Mesh_cs002
100
AcDbLine
 10
41.4848
 20
157.924
 30
5.1
 11
41.8745
 21
157.856
 31
5.1
  0
LINE
  5
B7C
330
A02
100
AcDbEntity
  8
Mesh_cs002
100
AcDbLine
 10
41.8745
 20
157.856
 30
5.1
 11
41.8854
 21
157.854
 31
5.1
  0
LINE
  5
B7D
330
A02
100
AcDbEntity
  8
Mesh_cs002
100
AcDbLine
 10
41.8854
 20
157.854
 30
5.1
 11
42.2786
 21
157.819
 31
5.1
  0
LINE
  5
B7E
330
A02
100
AcDbEntity
  8
Mesh_cs002
100
AcDbLine
 10
42.2786
 20
157.819
 30
5.1
 11
42.2897
 21
157.818
 31
5.1
  0
LINE
  5
B7F
330
A02
100
AcDbEntity
  8
Mesh_cs002
100
AcDbLine
 10
42.2897
 20
157.818
 30
5.1
 11
42.6838
 21
157.814
 31
5.1
  0
LINE
  5
B80
330
A02
100
AcDbEntity
  8
Mesh_cs002
100
AcDbLine
 10
42.6838
 20
157.814
 30
5.1
 11
42.6949
 21
157.815
 31
5.1
  0
LINE
  5
B81
330
A02
100
AcDbEntity
  8
Mesh_cs002
100
AcDbLine
 10
42.6949
 20
157.815
 30
5.1
 11
43.0874
 21
157.843
 31
5.1
  0
LINE
  5
B82
330
A02
100
AcDbEntity
  8
Mesh_cs002
100
AcDbLine
 10
43.0874
 20
157.843
 30
5.1
 11
43.0984
 21
157.844
 31
5.1
  0
LINE
  5
B83
330
A02
100
AcDbEntity
  8
Mesh_cs002
100
AcDbLine
 10
43.0984
 20
157.844
 30
5.1
 11
43.4868
 21
157.903
 31
5.1
  0
LINE
  5
B84
330
A02
100
AcDbEntity
  8
Mesh_cs002
100
AcDbLine
 10
43.4868
 20
157.903
 30
5.1
 11
43.4977
 21
157.906
 31
5.1
  0
LINE
  5
B85
330
A02
100
AcDbEntity
  8
Mesh_cs002
100
AcDbLine
 10
43.4977
 20
157.906
 30
5.1
 11
43.9213
 21
158.008
 31
5.1
  0
LINE
  5
B86
330
A02
100
AcDbEntity
  8
Mesh_cs002
100
AcDbLine
 10
43.9213
 20
158.008
 30
5.1
 11
43.9319
 21
158.011
 31
5.1
  0
LINE
  5
B87
330
A02
100
AcDbEntity
  8
Mesh_cs002
100
AcDbLine
 10
43.9319
 20
158.011
 30
5.1
 11
44.3439
 21
158.151
 31
5.1
  0
LINE
  5
B88
330
A02
100
AcDbEntity
  8
Mesh_cs002
100
AcDbLine
 10
44.3439
 20
158.151
 30
5.1
 11
44.3542
 21
158.155
 31
5.1
  0
LINE
  5
B89
330
A02
100
AcDbEntity
  8
Mesh_cs002
100
AcDbLine
 10
44.3542
 20
158.155
 30
5.1
 11
44.7514
 21
158.33
 31
5.1
  0
LINE
  5
B8A
330
A02
100
AcDbEntity
  8
Mesh_cs002
100
AcDbLine
 10
44.7514
 20
158.33
 30
5.1
 11
44.7603
 21
158.335
 31
5.1
  0
LINE
  5
B8B
330
A02
100
AcDbEntity
  8
Mesh_cs002
100
AcDbLine
 10
44.7603
 20
158.335
 30
5.1
 11
45.1395
 21
158.544
 31
5.1
  0
LINE
  5
B8C
330
A02
100
AcDbEntity
  8
Mesh_cs002
100
AcDbLine
 10
45.1395
 20
158.544
 30
5.1
 11
45.1481
 21
158.549
 31
5.1
  0
LINE
  5
B8D
330
A02
100
AcDbEntity
  8
Mesh_cs002
100
AcDbLine
 10
45.1481
 20
158.549
 30
5.1
 11
45.5066
 21
158.791
 31
5.1
  0
LINE
  5
B8E
330
A02
100
AcDbEntity
  8
Mesh_cs002
100
AcDbLine
 10
45.5066
 20
158.791
 30
5.1
 11
45.5147
 21
158.797
 31
5.1
  0
LINE
  5
B8F
330
A02
100
AcDbEntity
  8
Mesh_cs002
100
AcDbLine
 10
45.5147
 20
158.797
 30
5.1
 11
45.8497
 21
159.069
 31
5.1
  0
LINE
  5
B90
330
A02
100
AcDbEntity
  8
Mesh_cs002
100
AcDbLine
 10
45.8497
 20
159.069
 30
5.1
 11
45.8573
 21
159.075
 31
5.1
  0
LINE
  5
B91
330
A02
100
AcDbEntity
  8
Mesh_cs002
100
AcDbLine
 10
45.8573
 20
159.075
 30
5.1
 11
46.1664
 21
159.375
 31
5.1
  0
LINE
  5
B92
330
A02
100
AcDbEntity
  8
Mesh_cs002
100
AcDbLine
 10
46.1664
 20
159.375
 30
5.1
 11
46.1734
 21
159.382
 31
5.1
  0
LINE
  5
B93
330
A02
100
AcDbEntity
  8
Mesh_cs002
100
AcDbLine
 10
46.1734
 20
159.382
 30
5.1
 11
46.4543
 21
159.708
 31
5.1
  0
LINE
  5
B94
330
A02
100
AcDbEntity
  8
Mesh_cs002
100
AcDbLine
 10
46.4543
 20
159.708
 30
5.1
 11
46.4607
 21
159.715
 31
5.1
  0
LINE
  5
B95
330
A02
100
AcDbEntity
  8
Mesh_cs002
100
AcDbLine
 10
46.4607
 20
159.715
 30
5.1
 11
46.7113
 21
160.063
 31
5.1
  0
LINE
  5
B96
330
A02
100
AcDbEntity
  8
Mesh_cs002
100
AcDbLine
 10
46.7113
 20
160.063
 30
5.1
 11
46.7171
 21
160.072
 31
5.1
  0
LINE
  5
B97
330
A02
100
AcDbEntity
  8
Mesh_cs002
100
AcDbLine
 10
46.7171
 20
160.072
 30
5.1
 11
46.9358
 21
160.439
 31
5.1
  0
LINE
  5
B98
330
A02
100
AcDbEntity
  8
Mesh_cs002
100
AcDbLine
 10
46.9358
 20
160.439
 30
5.1
 11
46.9409
 21
160.448
 31
5.1
  0
LINE
  5
B99
330
A02
100
AcDbEntity
  8
Mesh_cs002
100
AcDbLine
 10
46.9409
 20
160.448
 30
5.1
 11
47.1261
 21
160.832
 31
5.1
  0
LINE
  5
B9A
330
A02
100
AcDbEntity
  8
Mesh_cs002
100
AcDbLine
 10
47.1261
 20
160.832
 30
5.1
 11
47.1306
 21
160.842
 31
5.1
  0
LINE
  5
B9B
330
A02
100
AcDbEntity
  8
Mesh_cs002
100
AcDbLine
 10
47.1306
 20
160.842
 30
5.1
 11
47.2144
 21
161.05
 31
5.1
  0
LINE
  5
B9C
330
A02
100
AcDbEntity
  8
Mesh_cs002
100
AcDbLine
 10
47.2144
 20
161.05
 30
5.1
 11
47.2179
 21
161.06
 31
5.1
  0
LINE
  5
B9D
330
A02
100
AcDbEntity
  8
Mesh_cs002
100
AcDbLine
 10
47.2179
 20
161.06
 30
5.1
 11
47.2903
 21
161.267
 31
5.1
  0
LINE
  5
B9E
330
A02
100
AcDbEntity
  8
Mesh_cs002
100
AcDbLine
 10
47.2903
 20
161.267
 30
5.1
 11
47.3985
 21
161.653
 31
5.1
  0
LINE
  5
B9F
330
A02
100
AcDbEntity
  8
Mesh_cs002
100
AcDbLine
 10
47.3985
 20
161.653
 30
5.1
 11
47.4013
 21
161.663
 31
5.1
  0
LINE
  5
BA0
330
A02
100
AcDbEntity
  8
Mesh_cs002
100
AcDbLine
 10
47.4013
 20
161.663
 30
5.1
 11
47.48
 21
162.075
 31
5.1
  0
LINE
  5
BA1
330
A02
100
AcDbEntity
  8
Mesh_cs002
100
AcDbLine
 10
47.48
 20
162.075
 30
5.1
 11
47.4821
 21
162.086
 31
5.1
  0
LINE
  5
BA2
330
A02
100
AcDbEntity
  8
Mesh_cs002
100
AcDbLine
 10
47.4821
 20
162.086
 30
5.1
 11
47.5238
 21
162.484
 31
5.1
  0
LINE
  5
BA3
330
A02
100
AcDbEntity
  8
Mesh_cs002
100
AcDbLine
 10
47.5238
 20
162.484
 30
5.1
 11
47.5249
 21
162.494
 31
5.1
  0
LINE
  5
BA4
330
A02
100
AcDbEntity
  8
Mesh_cs002
100
AcDbLine
 10
47.5249
 20
162.494
 30
5.1
 11
47.534
 21
162.893
 31
5.1
  0
LINE
  5
BA5
330
A02
100
AcDbEntity
  8
Mesh_cs002
100
AcDbLine
 10
47.534
 20
162.893
 30
5.1
 11
47.5342
 21
162.903
 31
5.1
  0
LINE
  5
BA6
330
A02
100
AcDbEntity
  8
Mesh_cs002
100
AcDbLine
 10
47.5342
 20
162.903
 30
5.1
 11
47.5108
 21
163.3
 31
5.1
  0
LINE
  5
BA7
330
A02
100
AcDbEntity
  8
Mesh_cs002
100
AcDbLine
 10
47.5108
 20
163.3
 30
5.1
 11
47.5101
 21
163.311
 31
5.1
  0
LINE
  5
BA8
330
A02
100
AcDbEntity
  8
Mesh_cs002
100
AcDbLine
 10
47.5101
 20
163.311
 30
5.1
 11
47.4545
 21
163.704
 31
5.1
  0
LINE
  5
BA9
330
A02
100
AcDbEntity
  8
Mesh_cs002
100
AcDbLine
 10
47.4545
 20
163.704
 30
5.1
 11
47.453
 21
163.714
 31
5.1
  0
LINE
  5
BAA
330
A02
100
AcDbEntity
  8
Mesh_cs002
100
AcDbLine
 10
47.453
 20
163.714
 30
5.1
 11
47.3657
 21
164.101
 31
5.1
  0
LINE
  5
BAB
330
A02
100
AcDbEntity
  8
Mesh_cs002
100
AcDbLine
 10
47.3657
 20
164.101
 30
5.1
 11
47.3634
 21
164.111
 31
5.1
  0
LINE
  5
BAC
330
A02
100
AcDbEntity
  8
Mesh_cs002
100
AcDbLine
 10
47.3634
 20
164.111
 30
5.1
 11
47.2451
 21
164.489
 31
5.1
  0
LINE
  5
BAD
330
A02
100
AcDbEntity
  8
Mesh_cs002
100
AcDbLine
 10
47.2451
 20
164.489
 30
5.1
 11
47.2421
 21
164.498
 31
5.1
  0
LINE
  5
BAE
330
A02
100
AcDbEntity
  8
Mesh_cs002
100
AcDbLine
 10
47.2421
 20
164.498
 30
5.1
 11
47.0938
 21
164.865
 31
5.1
  0
LINE
  5
BAF
330
A02
100
AcDbEntity
  8
Mesh_cs002
100
AcDbLine
 10
47.0938
 20
164.865
 30
5.1
 11
47.09
 21
164.874
 31
5.1
  0
LINE
  5
BB0
330
A02
100
AcDbEntity
  8
Mesh_cs002
100
AcDbLine
 10
47.09
 20
164.874
 30
5.1
 11
46.9128
 21
165.227
 31
5.1
  0
LINE
  5
BB1
330
A02
100
AcDbEntity
  8
Mesh_cs002
100
AcDbLine
 10
46.9128
 20
165.227
 30
5.1
 11
46.7036
 21
165.572
 31
5.1
  0
LINE
  5
BB2
330
A02
100
AcDbEntity
  8
Mesh_cs002
100
AcDbLine
 10
46.7036
 20
165.572
 30
5.1
 11
46.4675
 21
165.899
 31
5.1
  0
LINE
  5
BB3
330
A02
100
AcDbEntity
  8
Mesh_cs002
100
AcDbLine
 10
46.4675
 20
165.899
 30
5.1
 11
46.4615
 21
165.908
 31
5.1
  0
LINE
  5
BB4
330
A02
100
AcDbEntity
  8
Mesh_cs002
100
AcDbLine
 10
46.4615
 20
165.908
 30
5.1
 11
46.2062
 21
166.206
 31
5.1
  0
LINE
  5
BB5
330
A02
100
AcDbEntity
  8
Mesh_cs002
100
AcDbLine
 10
46.2062
 20
166.206
 30
5.1
 11
46.1925
 21
166.221
 31
5.1
  0
LINE
  5
BB6
330
A02
100
AcDbEntity
  8
Mesh_cs002
100
AcDbLine
 10
46.1925
 20
166.221
 30
5.1
 11
45.8823
 21
166.526
 31
5.1
  0
LINE
  5
BB7
330
A02
100
AcDbEntity
  8
Mesh_cs002
100
AcDbLine
 10
45.8823
 20
166.526
 30
5.1
 11
45.5382
 21
166.81
 31
5.1
  0
LINE
  5
BB8
330
A02
100
AcDbEntity
  8
Mesh_cs002
100
AcDbLine
 10
45.5382
 20
166.81
 30
5.1
 11
45.171
 21
167.061
 31
5.1
  0
LINE
  5
BB9
330
A02
100
AcDbEntity
  8
Mesh_cs002
100
AcDbLine
 10
45.171
 20
167.061
 30
5.1
 11
44.7837
 21
167.278
 31
5.1
  0
LINE
  5
BBA
330
A02
100
AcDbEntity
  8
Mesh_cs002
100
AcDbLine
 10
44.7837
 20
167.278
 30
5.1
 11
44.3795
 21
167.459
 31
5.1
  0
LINE
  5
BBB
330
A02
100
AcDbEntity
  8
Mesh_cs002
100
AcDbLine
 10
44.3795
 20
167.459
 30
5.1
 11
43.9617
 21
167.604
 31
5.1
  0
LINE
  5
BBC
330
A02
100
AcDbEntity
  8
Mesh_cs002
100
AcDbLine
 10
43.9617
 20
167.604
 30
5.1
 11
43.5336
 21
167.711
 31
5.1
  0
LINE
  5
BBD
330
A02
100
AcDbEntity
  8
Mesh_cs002
100
AcDbLine
 10
43.5336
 20
167.711
 30
5.1
 11
43.0987
 21
167.78
 31
5.1
  0
LINE
  5
BBE
330
A02
100
AcDbEntity
  8
Mesh_cs002
100
AcDbLine
 10
43.0987
 20
167.78
 30
5.1
 11
42.6604
 21
167.81
 31
5.1
  0
LINE
  5
BBF
330
A02
100
AcDbEntity
  8
Mesh_cs002
100
AcDbLine
 10
42.6604
 20
167.81
 30
5.1
 11
42.2221
 21
167.802
 31
5.1
  0
LINE
  5
BC0
330
A02
100
AcDbEntity
  8
Mesh_cs002
100
AcDbLine
 10
42.2221
 20
167.802
 30
5.1
 11
41.7872
 21
167.756
 31
5.1
  0
LINE
  5
BC1
330
A02
100
AcDbEntity
  8
Mesh_cs002
100
AcDbLine
 10
41.7872
 20
167.756
 30
5.1
 11
41.3568
 21
167.671
 31
5.1
  0
LINE
  5
BC2
330
A02
100
AcDbEntity
  8
Mesh_cs002
100
AcDbLine
 10
41.3568
 20
167.671
 30
5.1
 11
40.9712
 21
167.561
 31
5.1
  0
LINE
  5
BC3
330
A02
100
AcDbEntity
  8
Mesh_cs002
100
AcDbLine
 10
40.9712
 20
167.561
 30
5.1
 11
40.5863
 21
167.416
 31
5.1
  0
LINE
  5
BC4
330
A02
100
AcDbEntity
  8
Mesh_cs002
100
AcDbLine
 10
40.5863
 20
167.416
 30
5.1
 11
40.2154
 21
167.241
 31
5.1
  0
LINE
  5
BC5
330
A02
100
AcDbEntity
  8
Mesh_cs002
100
AcDbLine
 10
40.2154
 20
167.241
 30
5.1
 11
39.8606
 21
167.036
 31
5.1
  0
LINE
  5
BC6
330
A02
100
AcDbEntity
  8
Mesh_cs002
100
AcDbLine
 10
39.8606
 20
167.036
 30
5.1
 11
39.525
 21
166.804
 31
5.1
  0
LINE
  5
BC7
330
A02
100
AcDbEntity
  8
Mesh_cs002
100
AcDbLine
 10
39.525
 20
166.804
 30
5.1
 11
39.2099
 21
166.546
 31
5.1
  0
LINE
  5
BC8
330
A02
100
AcDbEntity
  8
Mesh_cs002
100
AcDbLine
 10
39.2099
 20
166.546
 30
5.1
 11
38.9175
 21
166.263
 31
5.1
  0
LINE
  5
BC9
330
A02
100
AcDbEntity
  8
Mesh_cs002
100
AcDbLine
 10
38.9175
 20
166.263
 30
5.1
 11
38.9102
 21
166.256
 31
5.1
  0
LINE
  5
BCA
330
A02
100
AcDbEntity
  8
Mesh_cs002
100
AcDbLine
 10
38.9102
 20
166.256
 30
5.1
 11
38.6494
 21
165.958
 31
5.1
  0
LINE
  5
BCB
330
A02
100
AcDbEntity
  8
Mesh_cs002
100
AcDbLine
 10
38.6494
 20
165.958
 30
5.1
 11
38.6428
 21
165.951
 31
5.1
  0
LINE
  5
BCC
330
A02
100
AcDbEntity
  8
Mesh_cs002
100
AcDbLine
 10
38.6428
 20
165.951
 30
5.1
 11
38.4074
 21
165.633
 31
5.1
  0
LINE
  5
BCD
330
A02
100
AcDbEntity
  8
Mesh_cs002
100
AcDbLine
 10
38.4074
 20
165.633
 30
5.1
 11
38.1928
 21
165.29
 31
5.1
  0
LINE
  5
BCE
330
A02
100
AcDbEntity
  8
Mesh_cs002
100
AcDbLine
 10
38.1928
 20
165.29
 30
5.1
 11
38.0069
 21
164.932
 31
5.1
  0
LINE
  5
BCF
330
A02
100
AcDbEntity
  8
Mesh_cs002
100
AcDbLine
 10
38.0069
 20
164.932
 30
5.1
 11
38.0024
 21
164.923
 31
5.1
  0
LINE
  5
BD0
330
A02
100
AcDbEntity
  8
Mesh_cs002
100
AcDbLine
 10
38.0024
 20
164.923
 30
5.1
 11
37.8508
 21
164.56
 31
5.1
  0
LINE
  5
BD1
330
A02
100
AcDbEntity
  8
Mesh_cs002
100
AcDbLine
 10
37.8508
 20
164.56
 30
5.1
 11
37.7253
 21
164.177
 31
5.1
  0
LINE
  5
BD2
330
A02
100
AcDbEntity
  8
Mesh_cs002
100
AcDbLine
 10
180.096
 20
20.0877
 30
5.1
 11
180.096
 21
20.0978
 31
5.1
  0
LINE
  5
BD3
330
A02
100
AcDbEntity
  8
Mesh_cs002
100
AcDbLine
 10
180.096
 20
20.0978
 30
5.1
 11
180.06
 21
20.5315
 31
5.1
  0
LINE
  5
BD4
330
A02
100
AcDbEntity
  8
Mesh_cs002
100
AcDbLine
 10
180.06
 20
20.5315
 30
5.1
 11
180.059
 21
20.5416
 31
5.1
  0
LINE
  5
BD5
330
A02
100
AcDbEntity
  8
Mesh_cs002
100
AcDbLine
 10
180.059
 20
20.5416
 30
5.1
 11
179.984
 21
20.9694
 31
5.1
  0
LINE
  5
BD6
330
A02
100
AcDbEntity
  8
Mesh_cs002
100
AcDbLine
 10
179.984
 20
20.9694
 30
5.1
 11
179.982
 21
20.9794
 31
5.1
  0
LINE
  5
BD7
330
A02
100
AcDbEntity
  8
Mesh_cs002
100
AcDbLine
 10
179.982
 20
20.9794
 30
5.1
 11
179.98
 21
20.9891
 31
5.1
  0
LINE
  5
BD8
330
A02
100
AcDbEntity
  8
Mesh_cs002
100
AcDbLine
 10
179.98
 20
20.9891
 30
5.1
 11
179.867
 21
21.4078
 31
5.1
  0
LINE
  5
BD9
330
A02
100
AcDbEntity
  8
Mesh_cs002
100
AcDbLine
 10
179.867
 20
21.4078
 30
5.1
 11
179.864
 21
21.4173
 31
5.1
  0
LINE
  5
BDA
330
A02
100
AcDbEntity
  8
Mesh_cs002
100
AcDbLine
 10
179.864
 20
21.4173
 30
5.1
 11
179.715
 21
21.8236
 31
5.1
  0
LINE
  5
BDB
330
A02
100
AcDbEntity
  8
Mesh_cs002
100
AcDbLine
 10
179.715
 20
21.8236
 30
5.1
 11
179.711
 21
21.8337
 31
5.1
  0
LINE
  5
BDC
330
A02
100
AcDbEntity
  8
Mesh_cs002
100
AcDbLine
 10
179.711
 20
21.8337
 30
5.1
 11
179.527
 21
22.2245
 31
5.1
  0
LINE
  5
BDD
330
A02
100
AcDbEntity
  8
Mesh_cs002
100
AcDbLine
 10
179.527
 20
22.2245
 30
5.1
 11
179.521
 21
22.2342
 31
5.1
  0
LINE
  5
BDE
330
A02
100
AcDbEntity
  8
Mesh_cs002
100
AcDbLine
 10
179.521
 20
22.2342
 30
5.1
 11
179.304
 21
22.6063
 31
5.1
  0
LINE
  5
BDF
330
A02
100
AcDbEntity
  8
Mesh_cs002
100
AcDbLine
 10
179.304
 20
22.6063
 30
5.1
 11
179.298
 21
22.6155
 31
5.1
  0
LINE
  5
BE0
330
A02
100
AcDbEntity
  8
Mesh_cs002
100
AcDbLine
 10
179.298
 20
22.6155
 30
5.1
 11
179.049
 21
22.9663
 31
5.1
  0
LINE
  5
BE1
330
A02
100
AcDbEntity
  8
Mesh_cs002
100
AcDbLine
 10
179.049
 20
22.9663
 30
5.1
 11
179.042
 21
22.9748
 31
5.1
  0
LINE
  5
BE2
330
A02
100
AcDbEntity
  8
Mesh_cs002
100
AcDbLine
 10
179.042
 20
22.9748
 30
5.1
 11
178.764
 21
23.3018
 31
5.1
  0
LINE
  5
BE3
330
A02
100
AcDbEntity
  8
Mesh_cs002
100
AcDbLine
 10
178.764
 20
23.3018
 30
5.1
 11
178.757
 21
23.3096
 31
5.1
  0
LINE
  5
BE4
330
A02
100
AcDbEntity
  8
Mesh_cs002
100
AcDbLine
 10
178.757
 20
23.3096
 30
5.1
 11
178.452
 21
23.6102
 31
5.1
  0
LINE
  5
BE5
330
A02
100
AcDbEntity
  8
Mesh_cs002
100
AcDbLine
 10
178.452
 20
23.6102
 30
5.1
 11
178.443
 21
23.6173
 31
5.1
  0
LINE
  5
BE6
330
A02
100
AcDbEntity
  8
Mesh_cs002
100
AcDbLine
 10
178.443
 20
23.6173
 30
5.1
 11
178.114
 21
23.8894
 31
5.1
  0
LINE
  5
BE7
330
A02
100
AcDbEntity
  8
Mesh_cs002
100
AcDbLine
 10
178.114
 20
23.8894
 30
5.1
 11
178.105
 21
23.8957
 31
5.1
  0
LINE
  5
BE8
330
A02
100
AcDbEntity
  8
Mesh_cs002
100
AcDbLine
 10
178.105
 20
23.8957
 30
5.1
 11
177.754
 21
24.1374
 31
5.1
  0
LINE
  5
BE9
330
A02
100
AcDbEntity
  8
Mesh_cs002
100
AcDbLine
 10
177.754
 20
24.1374
 30
5.1
 11
177.745
 21
24.1429
 31
5.1
  0
LINE
  5
BEA
330
A02
100
AcDbEntity
  8
Mesh_cs002
100
AcDbLine
 10
177.745
 20
24.1429
 30
5.1
 11
177.368
 21
24.3561
 31
5.1
  0
LINE
  5
BEB
330
A02
100
AcDbEntity
  8
Mesh_cs002
100
AcDbLine
 10
177.368
 20
24.3561
 30
5.1
 11
177.358
 21
24.3607
 31
5.1
  0
LINE
  5
BEC
330
A02
100
AcDbEntity
  8
Mesh_cs002
100
AcDbLine
 10
177.358
 20
24.3607
 30
5.1
 11
176.993
 21
24.5276
 31
5.1
  0
LINE
  5
BED
330
A02
100
AcDbEntity
  8
Mesh_cs002
100
AcDbLine
 10
176.993
 20
24.5276
 30
5.1
 11
176.617
 21
24.6637
 31
5.1
  0
LINE
  5
BEE
330
A02
100
AcDbEntity
  8
Mesh_cs002
100
AcDbLine
 10
176.617
 20
24.6637
 30
5.1
 11
176.607
 21
24.6675
 31
5.1
  0
LINE
  5
BEF
330
A02
100
AcDbEntity
  8
Mesh_cs002
100
AcDbLine
 10
176.607
 20
24.6675
 30
5.1
 11
176.222
 21
24.7721
 31
5.1
  0
LINE
  5
BF0
330
A02
100
AcDbEntity
  8
Mesh_cs002
100
AcDbLine
 10
176.222
 20
24.7721
 30
5.1
 11
176.211
 21
24.7749
 31
5.1
  0
LINE
  5
BF1
330
A02
100
AcDbEntity
  8
Mesh_cs002
100
AcDbLine
 10
176.211
 20
24.7749
 30
5.1
 11
175.82
 21
24.8476
 31
5.1
  0
LINE
  5
BF2
330
A02
100
AcDbEntity
  8
Mesh_cs002
100
AcDbLine
 10
175.82
 20
24.8476
 30
5.1
 11
175.809
 21
24.8495
 31
5.1
  0
LINE
  5
BF3
330
A02
100
AcDbEntity
  8
Mesh_cs002
100
AcDbLine
 10
175.809
 20
24.8495
 30
5.1
 11
175.413
 21
24.8899
 31
5.1
  0
LINE
  5
BF4
330
A02
100
AcDbEntity
  8
Mesh_cs002
100
AcDbLine
 10
175.413
 20
24.8899
 30
5.1
 11
175.405
 21
24.8907
 31
5.1
  0
LINE
  5
BF5
330
A02
100
AcDbEntity
  8
Mesh_cs002
100
AcDbLine
 10
175.405
 20
24.8907
 30
5.1
 11
175.397
 21
24.8909
 31
5.1
  0
LINE
  5
BF6
330
A02
100
AcDbEntity
  8
Mesh_cs002
100
AcDbLine
 10
175.397
 20
24.8909
 30
5.1
 11
175.001
 21
24.899
 31
5.1
  0
LINE
  5
BF7
330
A02
100
AcDbEntity
  8
Mesh_cs002
100
AcDbLine
 10
175.001
 20
24.899
 30
5.1
 11
174.992
 21
24.8987
 31
5.1
  0
LINE
  5
BF8
330
A02
100
AcDbEntity
  8
Mesh_cs002
100
AcDbLine
 10
174.992
 20
24.8987
 30
5.1
 11
174.597
 21
24.8745
 31
5.1
  0
LINE
  5
BF9
330
A02
100
AcDbEntity
  8
Mesh_cs002
100
AcDbLine
 10
174.597
 20
24.8745
 30
5.1
 11
174.588
 21
24.8737
 31
5.1
  0
LINE
  5
BFA
330
A02
100
AcDbEntity
  8
Mesh_cs002
100
AcDbLine
 10
174.588
 20
24.8737
 30
5.1
 11
174.197
 21
24.8176
 31
5.1
  0
LINE
  5
BFB
330
A02
100
AcDbEntity
  8
Mesh_cs002
100
AcDbLine
 10
174.197
 20
24.8176
 30
5.1
 11
174.186
 21
24.8156
 31
5.1
  0
LINE
  5
BFC
330
A02
100
AcDbEntity
  8
Mesh_cs002
100
AcDbLine
 10
174.186
 20
24.8156
 30
5.1
 11
173.801
 21
24.7282
 31
5.1
  0
LINE
  5
BFD
330
A02
100
AcDbEntity
  8
Mesh_cs002
100
AcDbLine
 10
173.801
 20
24.7282
 30
5.1
 11
173.79
 21
24.7252
 31
5.1
  0
LINE
  5
BFE
330
A02
100
AcDbEntity
  8
Mesh_cs002
100
AcDbLine
 10
173.79
 20
24.7252
 30
5.1
 11
173.414
 21
24.6071
 31
5.1
  0
LINE
  5
BFF
330
A02
100
AcDbEntity
  8
Mesh_cs002
100
AcDbLine
 10
173.414
 20
24.6071
 30
5.1
 11
173.404
 21
24.6033
 31
5.1
  0
LINE
  5
C00
330
A02
100
AcDbEntity
  8
Mesh_cs002
100
AcDbLine
 10
173.404
 20
24.6033
 30
5.1
 11
173.039
 21
24.4554
 31
5.1
  0
LINE
  5
C01
330
A02
100
AcDbEntity
  8
Mesh_cs002
100
AcDbLine
 10
173.039
 20
24.4554
 30
5.1
 11
173.029
 21
24.4507
 31
5.1
  0
LINE
  5
C02
330
A02
100
AcDbEntity
  8
Mesh_cs002
100
AcDbLine
 10
173.029
 20
24.4507
 30
5.1
 11
172.678
 21
24.2742
 31
5.1
  0
LINE
  5
C03
330
A02
100
AcDbEntity
  8
Mesh_cs002
100
AcDbLine
 10
172.678
 20
24.2742
 30
5.1
 11
172.668
 21
24.2685
 31
5.1
  0
LINE
  5
C04
330
A02
100
AcDbEntity
  8
Mesh_cs002
100
AcDbLine
 10
172.668
 20
24.2685
 30
5.1
 11
172.297
 21
24.0405
 31
5.1
  0
LINE
  5
C05
330
A02
100
AcDbEntity
  8
Mesh_cs002
100
AcDbLine
 10
172.297
 20
24.0405
 30
5.1
 11
172.288
 21
24.034
 31
5.1
  0
LINE
  5
C06
330
A02
100
AcDbEntity
  8
Mesh_cs002
100
AcDbLine
 10
172.288
 20
24.034
 30
5.1
 11
171.939
 21
23.7742
 31
5.1
  0
LINE
  5
C07
330
A02
100
AcDbEntity
  8
Mesh_cs002
100
AcDbLine
 10
171.939
 20
23.7742
 30
5.1
 11
171.931
 21
23.7669
 31
5.1
  0
LINE
  5
C08
330
A02
100
AcDbEntity
  8
Mesh_cs002
100
AcDbLine
 10
171.931
 20
23.7669
 30
5.1
 11
171.607
 21
23.4777
 31
5.1
  0
LINE
  5
C09
330
A02
100
AcDbEntity
  8
Mesh_cs002
100
AcDbLine
 10
171.607
 20
23.4777
 30
5.1
 11
171.6
 21
23.4705
 31
5.1
  0
LINE
  5
C0A
330
A02
100
AcDbEntity
  8
Mesh_cs002
100
AcDbLine
 10
171.6
 20
23.4705
 30
5.1
 11
171.304
 21
23.1543
 31
5.1
  0
LINE
  5
C0B
330
A02
100
AcDbEntity
  8
Mesh_cs002
100
AcDbLine
 10
171.304
 20
23.1543
 30
5.1
 11
171.298
 21
23.1465
 31
5.1
  0
LINE
  5
C0C
330
A02
100
AcDbEntity
  8
Mesh_cs002
100
AcDbLine
 10
171.298
 20
23.1465
 30
5.1
 11
171.031
 21
22.806
 31
5.1
  0
LINE
  5
C0D
330
A02
100
AcDbEntity
  8
Mesh_cs002
100
AcDbLine
 10
171.031
 20
22.806
 30
5.1
 11
171.025
 21
22.7978
 31
5.1
  0
LINE
  5
C0E
330
A02
100
AcDbEntity
  8
Mesh_cs002
100
AcDbLine
 10
171.025
 20
22.7978
 30
5.1
 11
170.791
 21
22.4358
 31
5.1
  0
LINE
  5
C0F
330
A02
100
AcDbEntity
  8
Mesh_cs002
100
AcDbLine
 10
170.791
 20
22.4358
 30
5.1
 11
170.786
 21
22.427
 31
5.1
  0
LINE
  5
C10
330
A02
100
AcDbEntity
  8
Mesh_cs002
100
AcDbLine
 10
170.786
 20
22.427
 30
5.1
 11
170.584
 21
22.0465
 31
5.1
  0
LINE
  5
C11
330
A02
100
AcDbEntity
  8
Mesh_cs002
100
AcDbLine
 10
170.584
 20
22.0465
 30
5.1
 11
170.58
 21
22.0374
 31
5.1
  0
LINE
  5
C12
330
A02
100
AcDbEntity
  8
Mesh_cs002
100
AcDbLine
 10
170.58
 20
22.0374
 30
5.1
 11
170.413
 21
21.6414
 31
5.1
  0
LINE
  5
C13
330
A02
100
AcDbEntity
  8
Mesh_cs002
100
AcDbLine
 10
170.413
 20
21.6414
 30
5.1
 11
170.41
 21
21.632
 31
5.1
  0
LINE
  5
C14
330
A02
100
AcDbEntity
  8
Mesh_cs002
100
AcDbLine
 10
170.41
 20
21.632
 30
5.1
 11
170.279
 21
21.2237
 31
5.1
  0
LINE
  5
C15
330
A02
100
AcDbEntity
  8
Mesh_cs002
100
AcDbLine
 10
170.279
 20
21.2237
 30
5.1
 11
170.276
 21
21.214
 31
5.1
  0
LINE
  5
C16
330
A02
100
AcDbEntity
  8
Mesh_cs002
100
AcDbLine
 10
170.276
 20
21.214
 30
5.1
 11
170.181
 21
20.7968
 31
5.1
  0
LINE
  5
C17
330
A02
100
AcDbEntity
  8
Mesh_cs002
100
AcDbLine
 10
170.181
 20
20.7968
 30
5.1
 11
170.179
 21
20.7868
 31
5.1
  0
LINE
  5
C18
330
A02
100
AcDbEntity
  8
Mesh_cs002
100
AcDbLine
 10
170.179
 20
20.7868
 30
5.1
 11
170.122
 21
20.3639
 31
5.1
  0
LINE
  5
C19
330
A02
100
AcDbEntity
  8
Mesh_cs002
100
AcDbLine
 10
170.122
 20
20.3639
 30
5.1
 11
170.121
 21
20.3535
 31
5.1
  0
LINE
  5
C1A
330
A02
100
AcDbEntity
  8
Mesh_cs002
100
AcDbLine
 10
170.121
 20
20.3535
 30
5.1
 11
170.105
 21
20.1293
 31
5.1
  0
LINE
  5
C1B
330
A02
100
AcDbEntity
  8
Mesh_cs002
100
AcDbLine
 10
170.105
 20
20.1293
 30
5.1
 11
170.105
 21
20.1191
 31
5.1
  0
LINE
  5
C1C
330
A02
100
AcDbEntity
  8
Mesh_cs002
100
AcDbLine
 10
170.105
 20
20.1191
 30
5.1
 11
170.1
 21
19.9
 31
5.1
  0
LINE
  5
C1D
330
A02
100
AcDbEntity
  8
Mesh_cs002
100
AcDbLine
 10
170.1
 20
19.9
 30
5.1
 11
170.117
 21
19.4989
 31
5.1
  0
LINE
  5
C1E
330
A02
100
AcDbEntity
  8
Mesh_cs002
100
AcDbLine
 10
170.117
 20
19.4989
 30
5.1
 11
170.117
 21
19.4886
 31
5.1
  0
LINE
  5
C1F
330
A02
100
AcDbEntity
  8
Mesh_cs002
100
AcDbLine
 10
170.117
 20
19.4886
 30
5.1
 11
170.169
 21
19.0724
 31
5.1
  0
LINE
  5
C20
330
A02
100
AcDbEntity
  8
Mesh_cs002
100
AcDbLine
 10
170.169
 20
19.0724
 30
5.1
 11
170.171
 21
19.0616
 31
5.1
  0
LINE
  5
C21
330
A02
100
AcDbEntity
  8
Mesh_cs002
100
AcDbLine
 10
170.171
 20
19.0616
 30
5.1
 11
170.254
 21
18.6707
 31
5.1
  0
LINE
  5
C22
330
A02
100
AcDbEntity
  8
Mesh_cs002
100
AcDbLine
 10
170.254
 20
18.6707
 30
5.1
 11
170.256
 21
18.6606
 31
5.1
  0
LINE
  5
C23
330
A02
100
AcDbEntity
  8
Mesh_cs002
100
AcDbLine
 10
170.256
 20
18.6606
 30
5.1
 11
170.371
 21
18.2786
 31
5.1
  0
LINE
  5
C24
330
A02
100
AcDbEntity
  8
Mesh_cs002
100
AcDbLine
 10
170.371
 20
18.2786
 30
5.1
 11
170.374
 21
18.2687
 31
5.1
  0
LINE
  5
C25
330
A02
100
AcDbEntity
  8
Mesh_cs002
100
AcDbLine
 10
170.374
 20
18.2687
 30
5.1
 11
170.519
 21
17.898
 31
5.1
  0
LINE
  5
C26
330
A02
100
AcDbEntity
  8
Mesh_cs002
100
AcDbLine
 10
170.519
 20
17.898
 30
5.1
 11
170.522
 21
17.8885
 31
5.1
  0
LINE
  5
C27
330
A02
100
AcDbEntity
  8
Mesh_cs002
100
AcDbLine
 10
170.522
 20
17.8885
 30
5.1
 11
170.697
 21
17.5316
 31
5.1
  0
LINE
  5
C28
330
A02
100
AcDbEntity
  8
Mesh_cs002
100
AcDbLine
 10
170.697
 20
17.5316
 30
5.1
 11
170.701
 21
17.5224
 31
5.1
  0
LINE
  5
C29
330
A02
100
AcDbEntity
  8
Mesh_cs002
100
AcDbLine
 10
170.701
 20
17.5224
 30
5.1
 11
170.904
 21
17.1814
 31
5.1
  0
LINE
  5
C2A
330
A02
100
AcDbEntity
  8
Mesh_cs002
100
AcDbLine
 10
170.904
 20
17.1814
 30
5.1
 11
170.909
 21
17.1727
 31
5.1
  0
LINE
  5
C2B
330
A02
100
AcDbEntity
  8
Mesh_cs002
100
AcDbLine
 10
170.909
 20
17.1727
 30
5.1
 11
171.139
 21
16.8499
 31
5.1
  0
LINE
  5
C2C
330
A02
100
AcDbEntity
  8
Mesh_cs002
100
AcDbLine
 10
171.139
 20
16.8499
 30
5.1
 11
171.145
 21
16.8416
 31
5.1
  0
LINE
  5
C2D
330
A02
100
AcDbEntity
  8
Mesh_cs002
100
AcDbLine
 10
171.145
 20
16.8416
 30
5.1
 11
171.399
 21
16.5389
 31
5.1
  0
LINE
  5
C2E
330
A02
100
AcDbEntity
  8
Mesh_cs002
100
AcDbLine
 10
171.399
 20
16.5389
 30
5.1
 11
171.405
 21
16.5312
 31
5.1
  0
LINE
  5
C2F
330
A02
100
AcDbEntity
  8
Mesh_cs002
100
AcDbLine
 10
171.405
 20
16.5312
 30
5.1
 11
171.683
 21
16.2506
 31
5.1
  0
LINE
  5
C30
330
A02
100
AcDbEntity
  8
Mesh_cs002
100
AcDbLine
 10
171.683
 20
16.2506
 30
5.1
 11
171.989
 21
15.9866
 31
5.1
  0
LINE
  5
C31
330
A02
100
AcDbEntity
  8
Mesh_cs002
100
AcDbLine
 10
171.989
 20
15.9866
 30
5.1
 11
172.314
 21
15.7485
 31
5.1
  0
LINE
  5
C32
330
A02
100
AcDbEntity
  8
Mesh_cs002
100
AcDbLine
 10
172.314
 20
15.7485
 30
5.1
 11
172.322
 21
15.7425
 31
5.1
  0
LINE
  5
C33
330
A02
100
AcDbEntity
  8
Mesh_cs002
100
AcDbLine
 10
172.322
 20
15.7425
 30
5.1
 11
172.657
 21
15.5377
 31
5.1
  0
LINE
  5
C34
330
A02
100
AcDbEntity
  8
Mesh_cs002
100
AcDbLine
 10
172.657
 20
15.5377
 30
5.1
 11
172.675
 21
15.528
 31
5.1
  0
LINE
  5
C35
330
A02
100
AcDbEntity
  8
Mesh_cs002
100
AcDbLine
 10
172.675
 20
15.528
 30
5.1
 11
173.064
 21
15.3331
 31
5.1
  0
LINE
  5
C36
330
A02
100
AcDbEntity
  8
Mesh_cs002
100
AcDbLine
 10
173.064
 20
15.3331
 30
5.1
 11
173.479
 21
15.17
 31
5.1
  0
LINE
  5
C37
330
A02
100
AcDbEntity
  8
Mesh_cs002
100
AcDbLine
 10
173.479
 20
15.17
 30
5.1
 11
173.906
 21
15.0447
 31
5.1
  0
LINE
  5
C38
330
A02
100
AcDbEntity
  8
Mesh_cs002
100
AcDbLine
 10
173.906
 20
15.0447
 30
5.1
 11
174.341
 21
14.9579
 31
5.1
  0
LINE
  5
C39
330
A02
100
AcDbEntity
  8
Mesh_cs002
100
AcDbLine
 10
174.341
 20
14.9579
 30
5.1
 11
174.782
 21
14.9101
 31
5.1
  0
LINE
  5
C3A
330
A02
100
AcDbEntity
  8
Mesh_cs002
100
AcDbLine
 10
174.782
 20
14.9101
 30
5.1
 11
175.224
 21
14.9015
 31
5.1
  0
LINE
  5
C3B
330
A02
100
AcDbEntity
  8
Mesh_cs002
100
AcDbLine
 10
175.224
 20
14.9015
 30
5.1
 11
175.664
 21
14.9319
 31
5.1
  0
LINE
  5
C3C
330
A02
100
AcDbEntity
  8
Mesh_cs002
100
AcDbLine
 10
175.664
 20
14.9319
 30
5.1
 11
176.099
 21
15.0009
 31
5.1
  0
LINE
  5
C3D
330
A02
100
AcDbEntity
  8
Mesh_cs002
100
AcDbLine
 10
176.099
 20
15.0009
 30
5.1
 11
176.525
 21
15.1075
 31
5.1
  0
LINE
  5
C3E
330
A02
100
AcDbEntity
  8
Mesh_cs002
100
AcDbLine
 10
176.525
 20
15.1075
 30
5.1
 11
176.94
 21
15.2508
 31
5.1
  0
LINE
  5
C3F
330
A02
100
AcDbEntity
  8
Mesh_cs002
100
AcDbLine
 10
176.94
 20
15.2508
 30
5.1
 11
177.339
 21
15.4293
 31
5.1
  0
LINE
  5
C40
330
A02
100
AcDbEntity
  8
Mesh_cs002
100
AcDbLine
 10
177.339
 20
15.4293
 30
5.1
 11
177.722
 21
15.6427
 31
5.1
  0
LINE
  5
C41
330
A02
100
AcDbEntity
  8
Mesh_cs002
100
AcDbLine
 10
177.722
 20
15.6427
 30
5.1
 11
178.055
 21
15.867
 31
5.1
  0
LINE
  5
C42
330
A02
100
AcDbEntity
  8
Mesh_cs002
100
AcDbLine
 10
178.055
 20
15.867
 30
5.1
 11
178.376
 21
16.1233
 31
5.1
  0
LINE
  5
C43
330
A02
100
AcDbEntity
  8
Mesh_cs002
100
AcDbLine
 10
178.376
 20
16.1233
 30
5.1
 11
178.675
 21
16.4046
 31
5.1
  0
LINE
  5
C44
330
A02
100
AcDbEntity
  8
Mesh_cs002
100
AcDbLine
 10
178.675
 20
16.4046
 30
5.1
 11
178.949
 21
16.7089
 31
5.1
  0
LINE
  5
C45
330
A02
100
AcDbEntity
  8
Mesh_cs002
100
AcDbLine
 10
178.949
 20
16.7089
 30
5.1
 11
179.196
 21
17.0335
 31
5.1
  0
LINE
  5
C46
330
A02
100
AcDbEntity
  8
Mesh_cs002
100
AcDbLine
 10
179.196
 20
17.0335
 30
5.1
 11
179.416
 21
17.3765
 31
5.1
  0
LINE
  5
C47
330
A02
100
AcDbEntity
  8
Mesh_cs002
100
AcDbLine
 10
179.416
 20
17.3765
 30
5.1
 11
179.607
 21
17.7356
 31
5.1
  0
LINE
  5
C48
330
A02
100
AcDbEntity
  8
Mesh_cs002
100
AcDbLine
 10
179.607
 20
17.7356
 30
5.1
 11
179.612
 21
17.7447
 31
5.1
  0
LINE
  5
C49
330
A02
100
AcDbEntity
  8
Mesh_cs002
100
AcDbLine
 10
179.612
 20
17.7447
 30
5.1
 11
179.768
 21
18.1084
 31
5.1
  0
LINE
  5
C4A
330
A02
100
AcDbEntity
  8
Mesh_cs002
100
AcDbLine
 10
179.768
 20
18.1084
 30
5.1
 11
179.772
 21
18.1179
 31
5.1
  0
LINE
  5
C4B
330
A02
100
AcDbEntity
  8
Mesh_cs002
100
AcDbLine
 10
179.772
 20
18.1179
 30
5.1
 11
179.897
 21
18.4923
 31
5.1
  0
LINE
  5
C4C
330
A02
100
AcDbEntity
  8
Mesh_cs002
100
AcDbLine
 10
179.897
 20
18.4923
 30
5.1
 11
179.996
 21
18.8848
 31
5.1
  0
LINE
  5
C4D
330
A02
100
AcDbEntity
  8
Mesh_cs002
100
AcDbLine
 10
179.996
 20
18.8848
 30
5.1
 11
180.062
 21
19.2833
 31
5.1
  0
LINE
  5
C4E
330
A02
100
AcDbEntity
  8
Mesh_cs002
100
AcDbLine
 10
180.062
 20
19.2833
 30
5.1
 11
180.063
 21
19.2933
 31
5.1
  0
LINE
  5
C4F
330
A02
100
AcDbEntity
  8
Mesh_cs002
100
AcDbLine
 10
180.063
 20
19.2933
 30
5.1
 11
180.095
 21
19.6851
 31
5.1
  0
LINE
  5
C50
330
A02
100
AcDbEntity
  8
Mesh_cs002
100
AcDbLine
 10
180.095
 20
19.6851
 30
5.1
 11
180.096
 21
20.0877
 31
5.1
  0
LINE
  5
C51
330
A02
100
AcDbEntity
  8
Mesh_cs002
100
AcDbLine
 10
194.829
 20
113.121
 30
5.1
 11
194.661
 21
112.719
 31
5.1
  0
LINE
  5
C52
330
A02
100
AcDbEntity
  8
Mesh_cs002
100
AcDbLine
 10
194.661
 20
112.719
 30
5.1
 11
194.657
 21
112.71
 31
5.1
  0
LINE
  5
C53
330
A02
100
AcDbEntity
  8
Mesh_cs002
100
AcDbLine
 10
194.657
 20
112.71
 30
5.1
 11
194.453
 21
112.326
 31
5.1
  0
LINE
  5
C54
330
A02
100
AcDbEntity
  8
Mesh_cs002
100
AcDbLine
 10
194.453
 20
112.326
 30
5.1
 11
194.449
 21
112.317
 31
5.1
  0
LINE
  5
C55
330
A02
100
AcDbEntity
  8
Mesh_cs002
100
AcDbLine
 10
194.449
 20
112.317
 30
5.1
 11
194.443
 21
112.309
 31
5.1
  0
LINE
  5
C56
330
A02
100
AcDbEntity
  8
Mesh_cs002
100
AcDbLine
 10
194.443
 20
112.309
 30
5.1
 11
194.207
 21
111.945
 31
5.1
  0
LINE
  5
C57
330
A02
100
AcDbEntity
  8
Mesh_cs002
100
AcDbLine
 10
194.207
 20
111.945
 30
5.1
 11
194.201
 21
111.937
 31
5.1
  0
LINE
  5
C58
330
A02
100
AcDbEntity
  8
Mesh_cs002
100
AcDbLine
 10
194.201
 20
111.937
 30
5.1
 11
193.934
 21
111.597
 31
5.1
  0
LINE
  5
C59
330
A02
100
AcDbEntity
  8
Mesh_cs002
100
AcDbLine
 10
193.934
 20
111.597
 30
5.1
 11
193.926
 21
111.589
 31
5.1
  0
LINE
  5
C5A
330
A02
100
AcDbEntity
  8
Mesh_cs002
100
AcDbLine
 10
193.926
 20
111.589
 30
5.1
 11
193.631
 21
111.274
 31
5.1
  0
LINE
  5
C5B
330
A02
100
AcDbEntity
  8
Mesh_cs002
100
AcDbLine
 10
193.631
 20
111.274
 30
5.1
 11
193.623
 21
111.266
 31
5.1
  0
LINE
  5
C5C
330
A02
100
AcDbEntity
  8
Mesh_cs002
100
AcDbLine
 10
193.623
 20
111.266
 30
5.1
 11
193.301
 21
110.98
 31
5.1
  0
LINE
  5
C5D
330
A02
100
AcDbEntity
  8
Mesh_cs002
100
AcDbLine
 10
193.301
 20
110.98
 30
5.1
 11
193.292
 21
110.973
 31
5.1
  0
LINE
  5
C5E
330
A02
100
AcDbEntity
  8
Mesh_cs002
100
AcDbLine
 10
193.292
 20
110.973
 30
5.1
 11
192.948
 21
110.716
 31
5.1
  0
LINE
  5
C5F
330
A02
100
AcDbEntity
  8
Mesh_cs002
100
AcDbLine
 10
192.948
 20
110.716
 30
5.1
 11
192.938
 21
110.71
 31
5.1
  0
LINE
  5
C60
330
A02
100
AcDbEntity
  8
Mesh_cs002
100
AcDbLine
 10
192.938
 20
110.71
 30
5.1
 11
192.573
 21
110.485
 31
5.1
  0
LINE
  5
C61
330
A02
100
AcDbEntity
  8
Mesh_cs002
100
AcDbLine
 10
192.573
 20
110.485
 30
5.1
 11
192.563
 21
110.48
 31
5.1
  0
LINE
  5
C62
330
A02
100
AcDbEntity
  8
Mesh_cs002
100
AcDbLine
 10
192.563
 20
110.48
 30
5.1
 11
192.18
 21
110.288
 31
5.1
  0
LINE
  5
C63
330
A02
100
AcDbEntity
  8
Mesh_cs002
100
AcDbLine
 10
192.18
 20
110.288
 30
5.1
 11
192.17
 21
110.284
 31
5.1
  0
LINE
  5
C64
330
A02
100
AcDbEntity
  8
Mesh_cs002
100
AcDbLine
 10
192.17
 20
110.284
 30
5.1
 11
191.773
 21
110.127
 31
5.1
  0
LINE
  5
C65
330
A02
100
AcDbEntity
  8
Mesh_cs002
100
AcDbLine
 10
191.773
 20
110.127
 30
5.1
 11
191.762
 21
110.124
 31
5.1
  0
LINE
  5
C66
330
A02
100
AcDbEntity
  8
Mesh_cs002
100
AcDbLine
 10
191.762
 20
110.124
 30
5.1
 11
191.354
 21
110.002
 31
5.1
  0
LINE
  5
C67
330
A02
100
AcDbEntity
  8
Mesh_cs002
100
AcDbLine
 10
191.354
 20
110.002
 30
5.1
 11
191.343
 21
110
 31
5.1
  0
LINE
  5
C68
330
A02
100
AcDbEntity
  8
Mesh_cs002
100
AcDbLine
 10
191.343
 20
110
 30
5.1
 11
190.919
 21
109.914
 31
5.1
  0
LINE
  5
C69
330
A02
100
AcDbEntity
  8
Mesh_cs002
100
AcDbLine
 10
190.919
 20
109.914
 30
5.1
 11
190.908
 21
109.912
 31
5.1
  0
LINE
  5
C6A
330
A02
100
AcDbEntity
  8
Mesh_cs002
100
AcDbLine
 10
190.908
 20
109.912
 30
5.1
 11
190.51
 21
109.866
 31
5.1
  0
LINE
  5
C6B
330
A02
100
AcDbEntity
  8
Mesh_cs002
100
AcDbLine
 10
190.51
 20
109.866
 30
5.1
 11
190.11
 21
109.853
 31
5.1
  0
LINE
  5
C6C
330
A02
100
AcDbEntity
  8
Mesh_cs002
100
AcDbLine
 10
190.11
 20
109.853
 30
5.1
 11
190.099
 21
109.853
 31
5.1
  0
LINE
  5
C6D
330
A02
100
AcDbEntity
  8
Mesh_cs002
100
AcDbLine
 10
190.099
 20
109.853
 30
5.1
 11
189.7
 21
109.872
 31
5.1
  0
LINE
  5
C6E
330
A02
100
AcDbEntity
  8
Mesh_cs002
100
AcDbLine
 10
189.7
 20
109.872
 30
5.1
 11
189.689
 21
109.873
 31
5.1
  0
LINE
  5
C6F
330
A02
100
AcDbEntity
  8
Mesh_cs002
100
AcDbLine
 10
189.689
 20
109.873
 30
5.1
 11
189.294
 21
109.925
 31
5.1
  0
LINE
  5
C70
330
A02
100
AcDbEntity
  8
Mesh_cs002
100
AcDbLine
 10
189.294
 20
109.925
 30
5.1
 11
189.284
 21
109.926
 31
5.1
  0
LINE
  5
C71
330
A02
100
AcDbEntity
  8
Mesh_cs002
100
AcDbLine
 10
189.284
 20
109.926
 30
5.1
 11
188.895
 21
110.01
 31
5.1
  0
LINE
  5
C72
330
A02
100
AcDbEntity
  8
Mesh_cs002
100
AcDbLine
 10
188.895
 20
110.01
 30
5.1
 11
188.887
 21
110.012
 31
5.1
  0
LINE
  5
C73
330
A02
100
AcDbEntity
  8
Mesh_cs002
100
AcDbLine
 10
188.887
 20
110.012
 30
5.1
 11
188.88
 21
110.014
 31
5.1
  0
LINE
  5
C74
330
A02
100
AcDbEntity
  8
Mesh_cs002
100
AcDbLine
 10
188.88
 20
110.014
 30
5.1
 11
188.5
 21
110.129
 31
5.1
  0
LINE
  5
C75
330
A02
100
AcDbEntity
  8
Mesh_cs002
100
AcDbLine
 10
188.5
 20
110.129
 30
5.1
 11
188.492
 21
110.132
 31
5.1
  0
LINE
  5
C76
330
A02
100
AcDbEntity
  8
Mesh_cs002
100
AcDbLine
 10
188.492
 20
110.132
 30
5.1
 11
188.123
 21
110.277
 31
5.1
  0
LINE
  5
C77
330
A02
100
AcDbEntity
  8
Mesh_cs002
100
AcDbLine
 10
188.123
 20
110.277
 30
5.1
 11
188.115
 21
110.28
 31
5.1
  0
LINE
  5
C78
330
A02
100
AcDbEntity
  8
Mesh_cs002
100
AcDbLine
 10
188.115
 20
110.28
 30
5.1
 11
187.76
 21
110.455
 31
5.1
  0
LINE
  5
C79
330
A02
100
AcDbEntity
  8
Mesh_cs002
100
AcDbLine
 10
187.76
 20
110.455
 30
5.1
 11
187.751
 21
110.46
 31
5.1
  0
LINE
  5
C7A
330
A02
100
AcDbEntity
  8
Mesh_cs002
100
AcDbLine
 10
187.751
 20
110.46
 30
5.1
 11
187.411
 21
110.662
 31
5.1
  0
LINE
  5
C7B
330
A02
100
AcDbEntity
  8
Mesh_cs002
100
AcDbLine
 10
187.411
 20
110.662
 30
5.1
 11
187.402
 21
110.668
 31
5.1
  0
LINE
  5
C7C
330
A02
100
AcDbEntity
  8
Mesh_cs002
100
AcDbLine
 10
187.402
 20
110.668
 30
5.1
 11
187.081
 21
110.897
 31
5.1
  0
LINE
  5
C7D
330
A02
100
AcDbEntity
  8
Mesh_cs002
100
AcDbLine
 10
187.081
 20
110.897
 30
5.1
 11
187.072
 21
110.904
 31
5.1
  0
LINE
  5
C7E
330
A02
100
AcDbEntity
  8
Mesh_cs002
100
AcDbLine
 10
187.072
 20
110.904
 30
5.1
 11
186.771
 21
111.157
 31
5.1
  0
LINE
  5
C7F
330
A02
100
AcDbEntity
  8
Mesh_cs002
100
AcDbLine
 10
186.771
 20
111.157
 30
5.1
 11
186.763
 21
111.165
 31
5.1
  0
LINE
  5
C80
330
A02
100
AcDbEntity
  8
Mesh_cs002
100
AcDbLine
 10
186.763
 20
111.165
 30
5.1
 11
186.484
 21
111.441
 31
5.1
  0
LINE
  5
C81
330
A02
100
AcDbEntity
  8
Mesh_cs002
100
AcDbLine
 10
186.484
 20
111.441
 30
5.1
 11
186.476
 21
111.449
 31
5.1
  0
LINE
  5
C82
330
A02
100
AcDbEntity
  8
Mesh_cs002
100
AcDbLine
 10
186.476
 20
111.449
 30
5.1
 11
186.194
 21
111.781
 31
5.1
  0
LINE
  5
C83
330
A02
100
AcDbEntity
  8
Mesh_cs002
100
AcDbLine
 10
186.194
 20
111.781
 30
5.1
 11
186.187
 21
111.79
 31
5.1
  0
LINE
  5
C84
330
A02
100
AcDbEntity
  8
Mesh_cs002
100
AcDbLine
 10
186.187
 20
111.79
 30
5.1
 11
185.936
 21
112.145
 31
5.1
  0
LINE
  5
C85
330
A02
100
AcDbEntity
  8
Mesh_cs002
100
AcDbLine
 10
185.936
 20
112.145
 30
5.1
 11
185.93
 21
112.154
 31
5.1
  0
LINE
  5
C86
330
A02
100
AcDbEntity
  8
Mesh_cs002
100
AcDbLine
 10
185.93
 20
112.154
 30
5.1
 11
185.712
 21
112.529
 31
5.1
  0
LINE
  5
C87
330
A02
100
AcDbEntity
  8
Mesh_cs002
100
AcDbLine
 10
185.712
 20
112.529
 30
5.1
 11
185.707
 21
112.538
 31
5.1
  0
LINE
  5
C88
330
A02
100
AcDbEntity
  8
Mesh_cs002
100
AcDbLine
 10
185.707
 20
112.538
 30
5.1
 11
185.523
 21
112.931
 31
5.1
  0
LINE
  5
C89
330
A02
100
AcDbEntity
  8
Mesh_cs002
100
AcDbLine
 10
185.523
 20
112.931
 30
5.1
 11
185.52
 21
112.94
 31
5.1
  0
LINE
  5
C8A
330
A02
100
AcDbEntity
  8
Mesh_cs002
100
AcDbLine
 10
185.52
 20
112.94
 30
5.1
 11
185.371
 21
113.346
 31
5.1
  0
LINE
  5
C8B
330
A02
100
AcDbEntity
  8
Mesh_cs002
100
AcDbLine
 10
185.371
 20
113.346
 30
5.1
 11
185.368
 21
113.356
 31
5.1
  0
LINE
  5
C8C
330
A02
100
AcDbEntity
  8
Mesh_cs002
100
AcDbLine
 10
185.368
 20
113.356
 30
5.1
 11
185.257
 21
113.773
 31
5.1
  0
LINE
  5
C8D
330
A02
100
AcDbEntity
  8
Mesh_cs002
100
AcDbLine
 10
185.257
 20
113.773
 30
5.1
 11
185.255
 21
113.782
 31
5.1
  0
LINE
  5
C8E
330
A02
100
AcDbEntity
  8
Mesh_cs002
100
AcDbLine
 10
185.255
 20
113.782
 30
5.1
 11
185.181
 21
114.207
 31
5.1
  0
LINE
  5
C8F
330
A02
100
AcDbEntity
  8
Mesh_cs002
100
AcDbLine
 10
185.181
 20
114.207
 30
5.1
 11
185.18
 21
114.217
 31
5.1
  0
LINE
  5
C90
330
A02
100
AcDbEntity
  8
Mesh_cs002
100
AcDbLine
 10
185.18
 20
114.217
 30
5.1
 11
185.144
 21
114.645
 31
5.1
  0
LINE
  5
C91
330
A02
100
AcDbEntity
  8
Mesh_cs002
100
AcDbLine
 10
185.144
 20
114.645
 30
5.1
 11
185.143
 21
114.655
 31
5.1
  0
LINE
  5
C92
330
A02
100
AcDbEntity
  8
Mesh_cs002
100
AcDbLine
 10
185.143
 20
114.655
 30
5.1
 11
185.145
 21
115.083
 31
5.1
  0
LINE
  5
C93
330
A02
100
AcDbEntity
  8
Mesh_cs002
100
AcDbLine
 10
185.145
 20
115.083
 30
5.1
 11
185.145
 21
115.094
 31
5.1
  0
LINE
  5
C94
330
A02
100
AcDbEntity
  8
Mesh_cs002
100
AcDbLine
 10
185.145
 20
115.094
 30
5.1
 11
185.184
 21
115.52
 31
5.1
  0
LINE
  5
C95
330
A02
100
AcDbEntity
  8
Mesh_cs002
100
AcDbLine
 10
185.184
 20
115.52
 30
5.1
 11
185.185
 21
115.53
 31
5.1
  0
LINE
  5
C96
330
A02
100
AcDbEntity
  8
Mesh_cs002
100
AcDbLine
 10
185.185
 20
115.53
 30
5.1
 11
185.261
 21
115.95
 31
5.1
  0
LINE
  5
C97
330
A02
100
AcDbEntity
  8
Mesh_cs002
100
AcDbLine
 10
185.261
 20
115.95
 30
5.1
 11
185.263
 21
115.96
 31
5.1
  0
LINE
  5
C98
330
A02
100
AcDbEntity
  8
Mesh_cs002
100
AcDbLine
 10
185.263
 20
115.96
 30
5.1
 11
185.318
 21
116.178
 31
5.1
  0
LINE
  5
C99
330
A02
100
AcDbEntity
  8
Mesh_cs002
100
AcDbLine
 10
185.318
 20
116.178
 30
5.1
 11
185.321
 21
116.188
 31
5.1
  0
LINE
  5
C9A
330
A02
100
AcDbEntity
  8
Mesh_cs002
100
AcDbLine
 10
185.321
 20
116.188
 30
5.1
 11
185.384
 21
116.398
 31
5.1
  0
LINE
  5
C9B
330
A02
100
AcDbEntity
  8
Mesh_cs002
100
AcDbLine
 10
185.384
 20
116.398
 30
5.1
 11
185.523
 21
116.774
 31
5.1
  0
LINE
  5
C9C
330
A02
100
AcDbEntity
  8
Mesh_cs002
100
AcDbLine
 10
185.523
 20
116.774
 30
5.1
 11
185.527
 21
116.784
 31
5.1
  0
LINE
  5
C9D
330
A02
100
AcDbEntity
  8
Mesh_cs002
100
AcDbLine
 10
185.527
 20
116.784
 30
5.1
 11
185.706
 21
117.163
 31
5.1
  0
LINE
  5
C9E
330
A02
100
AcDbEntity
  8
Mesh_cs002
100
AcDbLine
 10
185.706
 20
117.163
 30
5.1
 11
185.71
 21
117.173
 31
5.1
  0
LINE
  5
C9F
330
A02
100
AcDbEntity
  8
Mesh_cs002
100
AcDbLine
 10
185.71
 20
117.173
 30
5.1
 11
185.91
 21
117.519
 31
5.1
  0
LINE
  5
CA0
330
A02
100
AcDbEntity
  8
Mesh_cs002
100
AcDbLine
 10
185.91
 20
117.519
 30
5.1
 11
185.915
 21
117.528
 31
5.1
  0
LINE
  5
CA1
330
A02
100
AcDbEntity
  8
Mesh_cs002
100
AcDbLine
 10
185.915
 20
117.528
 30
5.1
 11
186.142
 21
117.856
 31
5.1
  0
LINE
  5
CA2
330
A02
100
AcDbEntity
  8
Mesh_cs002
100
AcDbLine
 10
186.142
 20
117.856
 30
5.1
 11
186.148
 21
117.865
 31
5.1
  0
LINE
  5
CA3
330
A02
100
AcDbEntity
  8
Mesh_cs002
100
AcDbLine
 10
186.148
 20
117.865
 30
5.1
 11
186.401
 21
118.172
 31
5.1
  0
LINE
  5
CA4
330
A02
100
AcDbEntity
  8
Mesh_cs002
100
AcDbLine
 10
186.401
 20
118.172
 30
5.1
 11
186.407
 21
118.18
 31
5.1
  0
LINE
  5
CA5
330
A02
100
AcDbEntity
  8
Mesh_cs002
100
AcDbLine
 10
186.407
 20
118.18
 30
5.1
 11
186.683
 21
118.466
 31
5.1
  0
LINE
  5
CA6
330
A02
100
AcDbEntity
  8
Mesh_cs002
100
AcDbLine
 10
186.683
 20
118.466
 30
5.1
 11
186.69
 21
118.473
 31
5.1
  0
LINE
  5
CA7
330
A02
100
AcDbEntity
  8
Mesh_cs002
100
AcDbLine
 10
186.69
 20
118.473
 30
5.1
 11
186.989
 21
118.735
 31
5.1
  0
LINE
  5
CA8
330
A02
100
AcDbEntity
  8
Mesh_cs002
100
AcDbLine
 10
186.989
 20
118.735
 30
5.1
 11
186.996
 21
118.741
 31
5.1
  0
LINE
  5
CA9
330
A02
100
AcDbEntity
  8
Mesh_cs002
100
AcDbLine
 10
186.996
 20
118.741
 30
5.1
 11
187.314
 21
118.978
 31
5.1
  0
LINE
  5
CAA
330
A02
100
AcDbEntity
  8
Mesh_cs002
100
AcDbLine
 10
187.314
 20
118.978
 30
5.1
 11
187.322
 21
118.984
 31
5.1
  0
LINE
  5
CAB
330
A02
100
AcDbEntity
  8
Mesh_cs002
100
AcDbLine
 10
187.322
 20
118.984
 30
5.1
 11
187.658
 21
119.193
 31
5.1
  0
LINE
  5
CAC
330
A02
100
AcDbEntity
  8
Mesh_cs002
100
AcDbLine
 10
187.658
 20
119.193
 30
5.1
 11
187.666
 21
119.198
 31
5.1
  0
LINE
  5
CAD
330
A02
100
AcDbEntity
  8
Mesh_cs002
100
AcDbLine
 10
187.666
 20
119.198
 30
5.1
 11
188.017
 21
119.379
 31
5.1
  0
LINE
  5
CAE
330
A02
100
AcDbEntity
  8
Mesh_cs002
100
AcDbLine
 10
188.017
 20
119.379
 30
5.1
 11
188.026
 21
119.384
 31
5.1
  0
LINE
  5
CAF
330
A02
100
AcDbEntity
  8
Mesh_cs002
100
AcDbLine
 10
188.026
 20
119.384
 30
5.1
 11
188.389
 21
119.536
 31
5.1
  0
LINE
  5
CB0
330
A02
100
AcDbEntity
  8
Mesh_cs002
100
AcDbLine
 10
188.389
 20
119.536
 30
5.1
 11
188.398
 21
119.54
 31
5.1
  0
LINE
  5
CB1
330
A02
100
AcDbEntity
  8
Mesh_cs002
100
AcDbLine
 10
188.398
 20
119.54
 30
5.1
 11
188.772
 21
119.662
 31
5.1
  0
LINE
  5
CB2
330
A02
100
AcDbEntity
  8
Mesh_cs002
100
AcDbLine
 10
188.772
 20
119.662
 30
5.1
 11
188.782
 21
119.665
 31
5.1
  0
LINE
  5
CB3
330
A02
100
AcDbEntity
  8
Mesh_cs002
100
AcDbLine
 10
188.782
 20
119.665
 30
5.1
 11
189.164
 21
119.756
 31
5.1
  0
LINE
  5
CB4
330
A02
100
AcDbEntity
  8
Mesh_cs002
100
AcDbLine
 10
189.164
 20
119.756
 30
5.1
 11
189.174
 21
119.758
 31
5.1
  0
LINE
  5
CB5
330
A02
100
AcDbEntity
  8
Mesh_cs002
100
AcDbLine
 10
189.174
 20
119.758
 30
5.1
 11
189.184
 21
119.76
 31
5.1
  0
LINE
  5
CB6
330
A02
100
AcDbEntity
  8
Mesh_cs002
100
AcDbLine
 10
189.184
 20
119.76
 30
5.1
 11
189.614
 21
119.825
 31
5.1
  0
LINE
  5
CB7
330
A02
100
AcDbEntity
  8
Mesh_cs002
100
AcDbLine
 10
189.614
 20
119.825
 30
5.1
 11
189.625
 21
119.826
 31
5.1
  0
LINE
  5
CB8
330
A02
100
AcDbEntity
  8
Mesh_cs002
100
AcDbLine
 10
189.625
 20
119.826
 30
5.1
 11
190.059
 21
119.852
 31
5.1
  0
LINE
  5
CB9
330
A02
100
AcDbEntity
  8
Mesh_cs002
100
AcDbLine
 10
190.059
 20
119.852
 30
5.1
 11
190.07
 21
119.852
 31
5.1
  0
LINE
  5
CBA
330
A02
100
AcDbEntity
  8
Mesh_cs002
100
AcDbLine
 10
190.07
 20
119.852
 30
5.1
 11
190.504
 21
119.839
 31
5.1
  0
LINE
  5
CBB
330
A02
100
AcDbEntity
  8
Mesh_cs002
100
AcDbLine
 10
190.504
 20
119.839
 30
5.1
 11
190.515
 21
119.838
 31
5.1
  0
LINE
  5
CBC
330
A02
100
AcDbEntity
  8
Mesh_cs002
100
AcDbLine
 10
190.515
 20
119.838
 30
5.1
 11
190.945
 21
119.787
 31
5.1
  0
LINE
  5
CBD
330
A02
100
AcDbEntity
  8
Mesh_cs002
100
AcDbLine
 10
190.945
 20
119.787
 30
5.1
 11
190.956
 21
119.785
 31
5.1
  0
LINE
  5
CBE
330
A02
100
AcDbEntity
  8
Mesh_cs002
100
AcDbLine
 10
190.956
 20
119.785
 30
5.1
 11
191.378
 21
119.697
 31
5.1
  0
LINE
  5
CBF
330
A02
100
AcDbEntity
  8
Mesh_cs002
100
AcDbLine
 10
191.378
 20
119.697
 30
5.1
 11
191.389
 21
119.693
 31
5.1
  0
LINE
  5
CC0
330
A02
100
AcDbEntity
  8
Mesh_cs002
100
AcDbLine
 10
191.389
 20
119.693
 30
5.1
 11
191.802
 21
119.568
 31
5.1
  0
LINE
  5
CC1
330
A02
100
AcDbEntity
  8
Mesh_cs002
100
AcDbLine
 10
191.802
 20
119.568
 30
5.1
 11
191.812
 21
119.564
 31
5.1
  0
LINE
  5
CC2
330
A02
100
AcDbEntity
  8
Mesh_cs002
100
AcDbLine
 10
191.812
 20
119.564
 30
5.1
 11
192.211
 21
119.403
 31
5.1
  0
LINE
  5
CC3
330
A02
100
AcDbEntity
  8
Mesh_cs002
100
AcDbLine
 10
192.211
 20
119.403
 30
5.1
 11
192.221
 21
119.398
 31
5.1
  0
LINE
  5
CC4
330
A02
100
AcDbEntity
  8
Mesh_cs002
100
AcDbLine
 10
192.221
 20
119.398
 30
5.1
 11
192.603
 21
119.203
 31
5.1
  0
LINE
  5
CC5
330
A02
100
AcDbEntity
  8
Mesh_cs002
100
AcDbLine
 10
192.603
 20
119.203
 30
5.1
 11
192.613
 21
119.197
 31
5.1
  0
LINE
  5
CC6
330
A02
100
AcDbEntity
  8
Mesh_cs002
100
AcDbLine
 10
192.613
 20
119.197
 30
5.1
 11
192.976
 21
118.97
 31
5.1
  0
LINE
  5
CC7
330
A02
100
AcDbEntity
  8
Mesh_cs002
100
AcDbLine
 10
192.976
 20
118.97
 30
5.1
 11
192.984
 21
118.963
 31
5.1
  0
LINE
  5
CC8
330
A02
100
AcDbEntity
  8
Mesh_cs002
100
AcDbLine
 10
192.984
 20
118.963
 30
5.1
 11
193.325
 21
118.706
 31
5.1
  0
LINE
  5
CC9
330
A02
100
AcDbEntity
  8
Mesh_cs002
100
AcDbLine
 10
193.325
 20
118.706
 30
5.1
 11
193.334
 21
118.698
 31
5.1
  0
LINE
  5
CCA
330
A02
100
AcDbEntity
  8
Mesh_cs002
100
AcDbLine
 10
193.334
 20
118.698
 30
5.1
 11
193.65
 21
118.413
 31
5.1
  0
LINE
  5
CCB
330
A02
100
AcDbEntity
  8
Mesh_cs002
100
AcDbLine
 10
193.65
 20
118.413
 30
5.1
 11
193.657
 21
118.405
 31
5.1
  0
LINE
  5
CCC
330
A02
100
AcDbEntity
  8
Mesh_cs002
100
AcDbLine
 10
193.657
 20
118.405
 30
5.1
 11
193.948
 21
118.091
 31
5.1
  0
LINE
  5
CCD
330
A02
100
AcDbEntity
  8
Mesh_cs002
100
AcDbLine
 10
193.948
 20
118.091
 30
5.1
 11
194.195
 21
117.775
 31
5.1
  0
LINE
  5
CCE
330
A02
100
AcDbEntity
  8
Mesh_cs002
100
AcDbLine
 10
194.195
 20
117.775
 30
5.1
 11
194.202
 21
117.767
 31
5.1
  0
LINE
  5
CCF
330
A02
100
AcDbEntity
  8
Mesh_cs002
100
AcDbLine
 10
194.202
 20
117.767
 30
5.1
 11
194.422
 21
117.432
 31
5.1
  0
LINE
  5
CD0
330
A02
100
AcDbEntity
  8
Mesh_cs002
100
AcDbLine
 10
194.422
 20
117.432
 30
5.1
 11
194.428
 21
117.423
 31
5.1
  0
LINE
  5
CD1
330
A02
100
AcDbEntity
  8
Mesh_cs002
100
AcDbLine
 10
194.428
 20
117.423
 30
5.1
 11
194.619
 21
117.072
 31
5.1
  0
LINE
  5
CD2
330
A02
100
AcDbEntity
  8
Mesh_cs002
100
AcDbLine
 10
194.619
 20
117.072
 30
5.1
 11
194.624
 21
117.063
 31
5.1
  0
LINE
  5
CD3
330
A02
100
AcDbEntity
  8
Mesh_cs002
100
AcDbLine
 10
194.624
 20
117.063
 30
5.1
 11
194.786
 21
116.698
 31
5.1
  0
LINE
  5
CD4
330
A02
100
AcDbEntity
  8
Mesh_cs002
100
AcDbLine
 10
194.786
 20
116.698
 30
5.1
 11
194.79
 21
116.689
 31
5.1
  0
LINE
  5
CD5
330
A02
100
AcDbEntity
  8
Mesh_cs002
100
AcDbLine
 10
194.79
 20
116.689
 30
5.1
 11
194.921
 21
116.313
 31
5.1
  0
LINE
  5
CD6
330
A02
100
AcDbEntity
  8
Mesh_cs002
100
AcDbLine
 10
194.921
 20
116.313
 30
5.1
 11
194.924
 21
116.303
 31
5.1
  0
LINE
  5
CD7
330
A02
100
AcDbEntity
  8
Mesh_cs002
100
AcDbLine
 10
194.924
 20
116.303
 30
5.1
 11
195.024
 21
115.919
 31
5.1
  0
LINE
  5
CD8
330
A02
100
AcDbEntity
  8
Mesh_cs002
100
AcDbLine
 10
195.024
 20
115.919
 30
5.1
 11
195.026
 21
115.909
 31
5.1
  0
LINE
  5
CD9
330
A02
100
AcDbEntity
  8
Mesh_cs002
100
AcDbLine
 10
195.026
 20
115.909
 30
5.1
 11
195.094
 21
115.518
 31
5.1
  0
LINE
  5
CDA
330
A02
100
AcDbEntity
  8
Mesh_cs002
100
AcDbLine
 10
195.094
 20
115.518
 30
5.1
 11
195.096
 21
115.508
 31
5.1
  0
LINE
  5
CDB
330
A02
100
AcDbEntity
  8
Mesh_cs002
100
AcDbLine
 10
195.096
 20
115.508
 30
5.1
 11
195.132
 21
115.114
 31
5.1
  0
LINE
  5
CDC
330
A02
100
AcDbEntity
  8
Mesh_cs002
100
AcDbLine
 10
195.132
 20
115.114
 30
5.1
 11
195.133
 21
115.104
 31
5.1
  0
LINE
  5
CDD
330
A02
100
AcDbEntity
  8
Mesh_cs002
100
AcDbLine
 10
195.133
 20
115.104
 30
5.1
 11
195.137
 21
114.709
 31
5.1
  0
LINE
  5
CDE
330
A02
100
AcDbEntity
  8
Mesh_cs002
100
AcDbLine
 10
195.137
 20
114.709
 30
5.1
 11
195.137
 21
114.699
 31
5.1
  0
LINE
  5
CDF
330
A02
100
AcDbEntity
  8
Mesh_cs002
100
AcDbLine
 10
195.137
 20
114.699
 30
5.1
 11
195.109
 21
114.305
 31
5.1
  0
LINE
  5
CE0
330
A02
100
AcDbEntity
  8
Mesh_cs002
100
AcDbLine
 10
195.109
 20
114.305
 30
5.1
 11
195.108
 21
114.295
 31
5.1
  0
LINE
  5
CE1
330
A02
100
AcDbEntity
  8
Mesh_cs002
100
AcDbLine
 10
195.108
 20
114.295
 30
5.1
 11
195.048
 21
113.906
 31
5.1
  0
LINE
  5
CE2
330
A02
100
AcDbEntity
  8
Mesh_cs002
100
AcDbLine
 10
195.048
 20
113.906
 30
5.1
 11
195.047
 21
113.896
 31
5.1
  0
LINE
  5
CE3
330
A02
100
AcDbEntity
  8
Mesh_cs002
100
AcDbLine
 10
195.047
 20
113.896
 30
5.1
 11
194.956
 21
113.513
 31
5.1
  0
LINE
  5
CE4
330
A02
100
AcDbEntity
  8
Mesh_cs002
100
AcDbLine
 10
194.956
 20
113.513
 30
5.1
 11
194.954
 21
113.504
 31
5.1
  0
LINE
  5
CE5
330
A02
100
AcDbEntity
  8
Mesh_cs002
100
AcDbLine
 10
194.954
 20
113.504
 30
5.1
 11
194.833
 21
113.13
 31
5.1
  0
ENDSEC
  0
SECTION
  2
OBJECTS
  0
DICTIONARY
  5
F000
330
0
100
AcDbDictionary
  3
ACAD_GROUP
350
F001
  0
DICTIONARY
  5
F001
330
F000
100
AcDbDictionary
  0
ENDSEC
  0
EOF