999
FreeCAD v0.21 33771 (Git)
  0
SECTION
  2
HEADER
  9
$ACADVER
  1
AC1014
  9
$ACADMAINTVER
 70
     9
  9
$DWGCODEPAGE
  3
ANSI_1252
  9
$TEXTSTYLE
  7
STANDARD
  9
$DIMSTYLE
  2
STANDARD
  9
$DIMTXSTY
  7
STANDARD
  9
$CMLSTYLE
  2
STANDARD
  9
$LUNITS
 70
2
  9
$INSUNITS
 70
4
  9
$PEXTMAX
 10
50
 20
50
 30
50
  9
$PEXTMIN
 10
0
 20
0
 30
0
  9
$HANDSEED
  5
FFFF
  0
ENDSEC
  0
SECTION
  2
CLASSES
  0
CLASS
  1
ACDBDICTIONARYWDFLT
  2
AcDbDictionaryWithDefault
  3
ObjectDBX Classes
 90
        0
280
     0
281
     0
  0
CLASS
  1
XRECORD
  2
AcDbXrecord
  3
ObjectDBX Classes
 90
        0
280
     0
281
     0
  0
CLASS
  1
LWPOLYLINE
  2
AcDbPolyline
  3
ObjectDBX Classes
 90
        0
280
     0
281
     1
  0
ENDSEC
  0
SECTION
  2
TABLES
  0
TABLE
  2
VPORT
  5
20
330
0
100
AcDbSymbolTable
 70
     1
  0
VPORT
  5
21
330
20
100
AcDbSymbolTableRecord
100
AcDbViewportTableRecord
  2
*ACTIVE
 70
     0
  0
ENDTAB
  0
TABLE
  2
LTYPE
  5
22
330
0
100
AcDbSymbolTable
 70
     1
  0
LTYPE
  5
23
330
21
100
AcDbSymbolTableRecord
100
AcDbLinetypeTableRecord
  2
BYBLOCK
 70
     0
  3

 72
    65
 73
     0
 40
0.0
  0
LTYPE
  5
24
330
21
100
AcDbSymbolTableRecord
100
AcDbLinetypeTableRecord
  2
BYLAYER
 70
     0
  3

 72
    65
 73
     0
 40
0.0
  0
LTYPE
  5
25
330
21
100
AcDbSymbolTableRecord
100
AcDbLinetypeTableRecord
  2
CONTINUOUS
 70
     0
  3
Solid line
 72
    65
 73
     0
 40
0.0
  0
ENDTAB
  0
TABLE
  2
LAYER
  5
AA9
330
0
100
AcDbSymbolTable
 70
3
  0
LAYER
  5
AAA
330
AA9
100
AcDbSymbolTableRecord
100
AcDbLayerTableRecord
  2
0
 70
   0
 62
   7
  6
CONTINUOUS
  0
LAYER
  5
AAB
330
AA9
100
AcDbSymbolTableRecord
100
AcDbLayerTableRecord
  2
none
 70
    0
 62
    7
  6
CONTINUOUS
  0
LAYER
  5
AAC
330
AA9
100
AcDbSymbolTableRecord
100
AcDbLayerTableRecord
  2
Mesh_cs
 70
    0
 62
    7
  6
CONTINUOUS
  0
ENDTAB
  0
TABLE
  2
STYLE
  5
70
330
0
100
AcDbSymbolTable
 70
     2
  0
STYLE
  5
71
330
70
100
AcDbSymbolTableRecord
100
AcDbTextStyleTableRecord
  2
STANDARD
 70
     0
 40
0.0
 41
1.0
 50
0.0
 71
     0
 42
2.5
  3
arial.ttf
  4

  0
STYLE
  5
72
330
70
100
AcDbSymbolTableRecord
100
AcDbTextStyleTableRecord
  2
ANNOTATIVE
 70
     0
 40
0.0
 41
1.0
 50
0.0
 71
     0
 42
2.5
  3
arial.ttf
  4

  0
ENDTAB
  0
TABLE
  2
VIEW
  5
73
330
0
100
AcDbSymbolTable
 70
     0
  0
ENDTAB
  0
TABLE
  2
UCS
  5
74
330
0
100
AcDbSymbolTable
 70
     0
  0
ENDTAB
  0
TABLE
  2
APPID
  5
75
330
0
100
AcDbSymbolTable
 70
     2
  0
APPID
  5
76
330
75
100
AcDbSymbolTableRecord
100
AcDbRegAppTableRecord
  2
ACAD
 70
     0
  0
APPID
  5
77
330
75
100
AcDbSymbolTableRecord
100
AcDbRegAppTableRecord
  2
ACADANNOTATIVE
 70
     0
  0
ENDTAB
  0
TABLE
  2
DIMSTYLE
  5
78
330
0
100
AcDbSymbolTable
 70
     2
  0
DIMSTYLE
105
79
330
78
100
AcDbSymbolTableRecord
100
AcDbDimStyleTableRecord
  2
STANDARD
 70
     0
  3

  4

  5

  6

  7

 40
0.0
 41
2.5
 42
0.625
 43
3.75
 44
1.25
 45
0.0
 46
0.0
 47
0.0
 48
0.0
140
2.5
141
2.5
142
0.0
143
0.03937007874016
144
1.0
145
0.0
146
1.0
147
0.625
 71
     0
 72
     0
 73
     0
 74
     0
 75
     0
 76
     0
 77
     1
 78
     8
170
     0
171
     3
172
     1
173
     0
174
     0
175
     0
176
     0
177
     0
178
     0
270
     2
271
     2
272
     2
273
     2
274
     3
340
71
275
     0
280
     0
281
     0
282
     0
283
     0
284
     8
285
     0
286
     0
287
     3
288
     0
  0
ENDTAB
  0
TABLE
  2
BLOCK_RECORD
  5
A01
330
0
100
AcDbSymbolTable
  70
5
  0
BLOCK_RECORD
  5
A02
330
A01
100
AcDbSymbolTableRecord
100
AcDbBlockTableRecord
  2
*MODEL_SPACE
  0
BLOCK_RECORD
  5
A03
330
A01
100
AcDbSymbolTableRecord
100
AcDbBlockTableRecord
  2
*PAPER_SPACE
  0
ENDTAB
  0
ENDSEC
  0
SECTION
  2
BLOCKS
  0
BLOCK
  5
A04
330
A02
100
AcDbEntity
  8
0
100
AcDbBlockBegin
  2
*MODEL_SPACE
 70
   0
 10
0
 20
0
 30
0
  3
*MODEL_SPACE
  1
 
  0
ENDBLK
  5
A05
330
A02
100
AcDbEntity
  8
0
100
AcDbBlockEnd
  0
BLOCK
  5
A06
330
A03
100
AcDbEntity
 67
1
  8
0
100
AcDbBlockBegin
  2
*PAPER_SPACE
 70
   0
 10
0
 20
0
 30
0
  3
*PAPER_SPACE
  1
 
  0
ENDBLK
  5
A07
330
A03
100
AcDbEntity
 67
    1
  8
0
100
AcDbBlockEnd
  0
ENDSEC
  0
SECTION
  2
ENTITIES
  0
LINE
  5
A08
330
A02
100
AcDbEntity
  8
Mesh_cs
100
AcDbLine
 10
270.583
 20
263.577
 30
11.9
 11
282.235
 21
255.111
 31
11.9
  0
LINE
  5
A09
330
A02
100
AcDbEntity
  8
Mesh_cs
100
AcDbLine
 10
282.235
 20
255.111
 30
11.9
 11
282.637
 21
254.819
 31
11.9
  0
LINE
  5
A0A
330
A02
100
AcDbEntity
  8
Mesh_cs
100
AcDbLine
 10
282.637
 20
254.819
 30
11.9
 11
274.171
 21
243.167
 31
11.9
  0
LINE
  5
A0B
330
A02
100
AcDbEntity
  8
Mesh_cs
100
AcDbLine
 10
274.171
 20
243.167
 30
11.9
 11
273.879
 21
242.765
 31
11.9
  0
LINE
  5
A0C
330
A02
100
AcDbEntity
  8
Mesh_cs
100
AcDbLine
 10
273.879
 20
242.765
 30
11.9
 11
273.477
 21
243.057
 31
11.9
  0
LINE
  5
A0D
330
A02
100
AcDbEntity
  8
Mesh_cs
100
AcDbLine
 10
273.477
 20
243.057
 30
11.9
 11
261.825
 21
251.523
 31
11.9
  0
LINE
  5
A0E
330
A02
100
AcDbEntity
  8
Mesh_cs
100
AcDbLine
 10
261.825
 20
251.523
 30
11.9
 11
262.117
 21
251.925
 31
11.9
  0
LINE
  5
A0F
330
A02
100
AcDbEntity
  8
Mesh_cs
100
AcDbLine
 10
262.117
 20
251.925
 30
11.9
 11
270.583
 21
263.577
 31
11.9
  0
LINE
  5
A10
330
A02
100
AcDbEntity
  8
Mesh_cs
100
AcDbLine
 10
419.523
 20
477.083
 30
11.9
 11
435.086
 21
465.776
 31
11.9
  0
LINE
  5
A11
330
A02
100
AcDbEntity
  8
Mesh_cs
100
AcDbLine
 10
435.086
 20
465.776
 30
11.9
 11
435.622
 21
465.386
 31
11.9
  0
LINE
  5
A12
330
A02
100
AcDbEntity
  8
Mesh_cs
100
AcDbLine
 10
435.622
 20
465.386
 30
11.9
 11
293.419
 21
269.659
 31
11.9
  0
LINE
  5
A13
330
A02
100
AcDbEntity
  8
Mesh_cs
100
AcDbLine
 10
293.419
 20
269.659
 30
11.9
 11
288.515
 21
262.91
 31
11.9
  0
LINE
  5
A14
330
A02
100
AcDbEntity
  8
Mesh_cs
100
AcDbLine
 10
288.515
 20
262.91
 30
11.9
 11
287.978
 21
263.299
 31
11.9
  0
LINE
  5
A15
330
A02
100
AcDbEntity
  8
Mesh_cs
100
AcDbLine
 10
287.978
 20
263.299
 30
11.9
 11
272.416
 21
274.607
 31
11.9
  0
LINE
  5
A16
330
A02
100
AcDbEntity
  8
Mesh_cs
100
AcDbLine
 10
272.416
 20
274.607
 30
11.9
 11
272.406
 21
274.613
 31
11.9
  0
LINE
  5
A17
330
A02
100
AcDbEntity
  8
Mesh_cs
100
AcDbLine
 10
272.406
 20
274.613
 30
11.9
 11
272.083
 21
274.829
 31
11.9
  0
LINE
  5
A18
330
A02
100
AcDbEntity
  8
Mesh_cs
100
AcDbLine
 10
272.083
 20
274.829
 30
11.9
 11
272.073
 21
274.834
 31
11.9
  0
LINE
  5
A19
330
A02
100
AcDbEntity
  8
Mesh_cs
100
AcDbLine
 10
272.073
 20
274.834
 30
11.9
 11
271.732
 21
275.024
 31
11.9
  0
LINE
  5
A1A
330
A02
100
AcDbEntity
  8
Mesh_cs
100
AcDbLine
 10
271.732
 20
275.024
 30
11.9
 11
271.719
 21
275.03
 31
11.9
  0
LINE
  5
A1B
330
A02
100
AcDbEntity
  8
Mesh_cs
100
AcDbLine
 10
271.719
 20
275.03
 30
11.9
 11
271.397
 21
275.178
 31
11.9
  0
LINE
  5
A1C
330
A02
100
AcDbEntity
  8
Mesh_cs
100
AcDbLine
 10
271.397
 20
275.178
 30
11.9
 11
271.383
 21
275.183
 31
11.9
  0
LINE
  5
A1D
330
A02
100
AcDbEntity
  8
Mesh_cs
100
AcDbLine
 10
271.383
 20
275.183
 30
11.9
 11
271.018
 21
275.318
 31
11.9
  0
LINE
  5
A1E
330
A02
100
AcDbEntity
  8
Mesh_cs
100
AcDbLine
 10
271.018
 20
275.318
 30
11.9
 11
270.644
 21
275.423
 31
11.9
  0
LINE
  5
A1F
330
A02
100
AcDbEntity
  8
Mesh_cs
100
AcDbLine
 10
270.644
 20
275.423
 30
11.9
 11
270.629
 21
275.427
 31
11.9
  0
LINE
  5
A20
330
A02
100
AcDbEntity
  8
Mesh_cs
100
AcDbLine
 10
270.629
 20
275.427
 30
11.9
 11
270.247
 21
275.501
 31
11.9
  0
LINE
  5
A21
330
A02
100
AcDbEntity
  8
Mesh_cs
100
AcDbLine
 10
270.247
 20
275.501
 30
11.9
 11
270.233
 21
275.504
 31
11.9
  0
LINE
  5
A22
330
A02
100
AcDbEntity
  8
Mesh_cs
100
AcDbLine
 10
270.233
 20
275.504
 30
11.9
 11
269.846
 21
275.547
 31
11.9
  0
LINE
  5
A23
330
A02
100
AcDbEntity
  8
Mesh_cs
100
AcDbLine
 10
269.846
 20
275.547
 30
11.9
 11
269.832
 21
275.549
 31
11.9
  0
LINE
  5
A24
330
A02
100
AcDbEntity
  8
Mesh_cs
100
AcDbLine
 10
269.832
 20
275.549
 30
11.9
 11
269.443
 21
275.561
 31
11.9
  0
LINE
  5
A25
330
A02
100
AcDbEntity
  8
Mesh_cs
100
AcDbLine
 10
269.443
 20
275.561
 30
11.9
 11
269.428
 21
275.561
 31
11.9
  0
LINE
  5
A26
330
A02
100
AcDbEntity
  8
Mesh_cs
100
AcDbLine
 10
269.428
 20
275.561
 30
11.9
 11
269.039
 21
275.542
 31
11.9
  0
LINE
  5
A27
330
A02
100
AcDbEntity
  8
Mesh_cs
100
AcDbLine
 10
269.039
 20
275.542
 30
11.9
 11
269.025
 21
275.541
 31
11.9
  0
LINE
  5
A28
330
A02
100
AcDbEntity
  8
Mesh_cs
100
AcDbLine
 10
269.025
 20
275.541
 30
11.9
 11
268.596
 21
275.483
 31
11.9
  0
LINE
  5
A29
330
A02
100
AcDbEntity
  8
Mesh_cs
100
AcDbLine
 10
268.596
 20
275.483
 30
11.9
 11
268.583
 21
275.481
 31
11.9
  0
LINE
  5
A2A
330
A02
100
AcDbEntity
  8
Mesh_cs
100
AcDbLine
 10
268.583
 20
275.481
 30
11.9
 11
268.162
 21
275.385
 31
11.9
  0
LINE
  5
A2B
330
A02
100
AcDbEntity
  8
Mesh_cs
100
AcDbLine
 10
268.162
 20
275.385
 30
11.9
 11
268.149
 21
275.382
 31
11.9
  0
LINE
  5
A2C
330
A02
100
AcDbEntity
  8
Mesh_cs
100
AcDbLine
 10
268.149
 20
275.382
 30
11.9
 11
267.737
 21
275.249
 31
11.9
  0
LINE
  5
A2D
330
A02
100
AcDbEntity
  8
Mesh_cs
100
AcDbLine
 10
267.737
 20
275.249
 30
11.9
 11
267.725
 21
275.244
 31
11.9
  0
LINE
  5
A2E
330
A02
100
AcDbEntity
  8
Mesh_cs
100
AcDbLine
 10
267.725
 20
275.244
 30
11.9
 11
267.327
 21
275.075
 31
11.9
  0
LINE
  5
A2F
330
A02
100
AcDbEntity
  8
Mesh_cs
100
AcDbLine
 10
267.327
 20
275.075
 30
11.9
 11
267.315
 21
275.07
 31
11.9
  0
LINE
  5
A30
330
A02
100
AcDbEntity
  8
Mesh_cs
100
AcDbLine
 10
267.315
 20
275.07
 30
11.9
 11
267.303
 21
275.064
 31
11.9
  0
LINE
  5
A31
330
A02
100
AcDbEntity
  8
Mesh_cs
100
AcDbLine
 10
267.303
 20
275.064
 30
11.9
 11
266.922
 21
274.86
 31
11.9
  0
LINE
  5
A32
330
A02
100
AcDbEntity
  8
Mesh_cs
100
AcDbLine
 10
266.922
 20
274.86
 30
11.9
 11
266.911
 21
274.852
 31
11.9
  0
LINE
  5
A33
330
A02
100
AcDbEntity
  8
Mesh_cs
100
AcDbLine
 10
266.911
 20
274.852
 30
11.9
 11
266.549
 21
274.615
 31
11.9
  0
LINE
  5
A34
330
A02
100
AcDbEntity
  8
Mesh_cs
100
AcDbLine
 10
266.549
 20
274.615
 30
11.9
 11
266.539
 21
274.607
 31
11.9
  0
LINE
  5
A35
330
A02
100
AcDbEntity
  8
Mesh_cs
100
AcDbLine
 10
266.539
 20
274.607
 30
11.9
 11
266.2
 21
274.338
 31
11.9
  0
LINE
  5
A36
330
A02
100
AcDbEntity
  8
Mesh_cs
100
AcDbLine
 10
266.2
 20
274.338
 30
11.9
 11
266.19
 21
274.329
 31
11.9
  0
LINE
  5
A37
330
A02
100
AcDbEntity
  8
Mesh_cs
100
AcDbLine
 10
266.19
 20
274.329
 30
11.9
 11
265.877
 21
274.032
 31
11.9
  0
LINE
  5
A38
330
A02
100
AcDbEntity
  8
Mesh_cs
100
AcDbLine
 10
265.877
 20
274.032
 30
11.9
 11
265.868
 21
274.021
 31
11.9
  0
LINE
  5
A39
330
A02
100
AcDbEntity
  8
Mesh_cs
100
AcDbLine
 10
265.868
 20
274.021
 30
11.9
 11
265.645
 21
273.773
 31
11.9
  0
LINE
  5
A3A
330
A02
100
AcDbEntity
  8
Mesh_cs
100
AcDbLine
 10
265.645
 20
273.773
 30
11.9
 11
265.636
 21
273.763
 31
11.9
  0
LINE
  5
A3B
330
A02
100
AcDbEntity
  8
Mesh_cs
100
AcDbLine
 10
265.636
 20
273.763
 30
11.9
 11
265.432
 21
273.5
 31
11.9
  0
LINE
  5
A3C
330
A02
100
AcDbEntity
  8
Mesh_cs
100
AcDbLine
 10
265.432
 20
273.5
 30
11.9
 11
254.125
 21
257.938
 31
11.9
  0
LINE
  5
A3D
330
A02
100
AcDbEntity
  8
Mesh_cs
100
AcDbLine
 10
254.125
 20
257.938
 30
11.9
 11
253.735
 21
257.401
 31
11.9
  0
LINE
  5
A3E
330
A02
100
AcDbEntity
  8
Mesh_cs
100
AcDbLine
 10
253.735
 20
257.401
 30
11.9
 11
249.277
 21
260.64
 31
11.9
  0
LINE
  5
A3F
330
A02
100
AcDbEntity
  8
Mesh_cs
100
AcDbLine
 10
249.277
 20
260.64
 30
11.9
 11
209.158
 21
289.788
 31
11.9
  0
LINE
  5
A40
330
A02
100
AcDbEntity
  8
Mesh_cs
100
AcDbLine
 10
209.158
 20
289.788
 30
11.9
 11
367.899
 21
508.276
 31
11.9
  0
LINE
  5
A41
330
A02
100
AcDbEntity
  8
Mesh_cs
100
AcDbLine
 10
367.899
 20
508.276
 30
11.9
 11
385.537
 21
532.553
 31
11.9
  0
LINE
  5
A42
330
A02
100
AcDbEntity
  8
Mesh_cs
100
AcDbLine
 10
385.537
 20
532.553
 30
11.9
 11
425.656
 21
503.405
 31
11.9
  0
LINE
  5
A43
330
A02
100
AcDbEntity
  8
Mesh_cs
100
AcDbLine
 10
425.656
 20
503.405
 30
11.9
 11
430.114
 21
500.166
 31
11.9
  0
LINE
  5
A44
330
A02
100
AcDbEntity
  8
Mesh_cs
100
AcDbLine
 10
430.114
 20
500.166
 30
11.9
 11
429.724
 21
499.629
 31
11.9
  0
LINE
  5
A45
330
A02
100
AcDbEntity
  8
Mesh_cs
100
AcDbLine
 10
429.724
 20
499.629
 30
11.9
 11
418.417
 21
484.067
 31
11.9
  0
LINE
  5
A46
330
A02
100
AcDbEntity
  8
Mesh_cs
100
AcDbLine
 10
418.417
 20
484.067
 30
11.9
 11
418.231
 21
483.791
 31
11.9
  0
LINE
  5
A47
330
A02
100
AcDbEntity
  8
Mesh_cs
100
AcDbLine
 10
418.231
 20
483.791
 30
11.9
 11
418.223
 21
483.779
 31
11.9
  0
LINE
  5
A48
330
A02
100
AcDbEntity
  8
Mesh_cs
100
AcDbLine
 10
418.223
 20
483.779
 30
11.9
 11
418.056
 21
483.491
 31
11.9
  0
LINE
  5
A49
330
A02
100
AcDbEntity
  8
Mesh_cs
100
AcDbLine
 10
418.056
 20
483.491
 30
11.9
 11
418.049
 21
483.479
 31
11.9
  0
LINE
  5
A4A
330
A02
100
AcDbEntity
  8
Mesh_cs
100
AcDbLine
 10
418.049
 20
483.479
 30
11.9
 11
417.863
 21
483.089
 31
11.9
  0
LINE
  5
A4B
330
A02
100
AcDbEntity
  8
Mesh_cs
100
AcDbLine
 10
417.863
 20
483.089
 30
11.9
 11
417.857
 21
483.077
 31
11.9
  0
LINE
  5
A4C
330
A02
100
AcDbEntity
  8
Mesh_cs
100
AcDbLine
 10
417.857
 20
483.077
 30
11.9
 11
417.707
 21
482.672
 31
11.9
  0
LINE
  5
A4D
330
A02
100
AcDbEntity
  8
Mesh_cs
100
AcDbLine
 10
417.707
 20
482.672
 30
11.9
 11
417.702
 21
482.659
 31
11.9
  0
LINE
  5
A4E
330
A02
100
AcDbEntity
  8
Mesh_cs
100
AcDbLine
 10
417.702
 20
482.659
 30
11.9
 11
417.588
 21
482.242
 31
11.9
  0
LINE
  5
A4F
330
A02
100
AcDbEntity
  8
Mesh_cs
100
AcDbLine
 10
417.588
 20
482.242
 30
11.9
 11
417.585
 21
482.229
 31
11.9
  0
LINE
  5
A50
330
A02
100
AcDbEntity
  8
Mesh_cs
100
AcDbLine
 10
417.585
 20
482.229
 30
11.9
 11
417.509
 21
481.804
 31
11.9
  0
LINE
  5
A51
330
A02
100
AcDbEntity
  8
Mesh_cs
100
AcDbLine
 10
417.509
 20
481.804
 30
11.9
 11
417.506
 21
481.791
 31
11.9
  0
LINE
  5
A52
330
A02
100
AcDbEntity
  8
Mesh_cs
100
AcDbLine
 10
417.506
 20
481.791
 30
11.9
 11
417.505
 21
481.777
 31
11.9
  0
LINE
  5
A53
330
A02
100
AcDbEntity
  8
Mesh_cs
100
AcDbLine
 10
417.505
 20
481.777
 30
11.9
 11
417.467
 21
481.347
 31
11.9
  0
LINE
  5
A54
330
A02
100
AcDbEntity
  8
Mesh_cs
100
AcDbLine
 10
417.467
 20
481.347
 30
11.9
 11
417.467
 21
481.333
 31
11.9
  0
LINE
  5
A55
330
A02
100
AcDbEntity
  8
Mesh_cs
100
AcDbLine
 10
417.467
 20
481.333
 30
11.9
 11
417.467
 21
480.901
 31
11.9
  0
LINE
  5
A56
330
A02
100
AcDbEntity
  8
Mesh_cs
100
AcDbLine
 10
417.467
 20
480.901
 30
11.9
 11
417.468
 21
480.888
 31
11.9
  0
LINE
  5
A57
330
A02
100
AcDbEntity
  8
Mesh_cs
100
AcDbLine
 10
417.468
 20
480.888
 30
11.9
 11
417.507
 21
480.457
 31
11.9
  0
LINE
  5
A58
330
A02
100
AcDbEntity
  8
Mesh_cs
100
AcDbLine
 10
417.507
 20
480.457
 30
11.9
 11
417.509
 21
480.444
 31
11.9
  0
LINE
  5
A59
330
A02
100
AcDbEntity
  8
Mesh_cs
100
AcDbLine
 10
417.509
 20
480.444
 30
11.9
 11
417.587
 21
480.019
 31
11.9
  0
LINE
  5
A5A
330
A02
100
AcDbEntity
  8
Mesh_cs
100
AcDbLine
 10
417.587
 20
480.019
 30
11.9
 11
417.59
 21
480.004
 31
11.9
  0
LINE
  5
A5B
330
A02
100
AcDbEntity
  8
Mesh_cs
100
AcDbLine
 10
417.59
 20
480.004
 30
11.9
 11
417.692
 21
479.629
 31
11.9
  0
LINE
  5
A5C
330
A02
100
AcDbEntity
  8
Mesh_cs
100
AcDbLine
 10
417.692
 20
479.629
 30
11.9
 11
417.697
 21
479.615
 31
11.9
  0
LINE
  5
A5D
330
A02
100
AcDbEntity
  8
Mesh_cs
100
AcDbLine
 10
417.697
 20
479.615
 30
11.9
 11
417.828
 21
479.249
 31
11.9
  0
LINE
  5
A5E
330
A02
100
AcDbEntity
  8
Mesh_cs
100
AcDbLine
 10
417.828
 20
479.249
 30
11.9
 11
417.834
 21
479.235
 31
11.9
  0
LINE
  5
A5F
330
A02
100
AcDbEntity
  8
Mesh_cs
100
AcDbLine
 10
417.834
 20
479.235
 30
11.9
 11
417.995
 21
478.881
 31
11.9
  0
LINE
  5
A60
330
A02
100
AcDbEntity
  8
Mesh_cs
100
AcDbLine
 10
417.995
 20
478.881
 30
11.9
 11
418.002
 21
478.868
 31
11.9
  0
LINE
  5
A61
330
A02
100
AcDbEntity
  8
Mesh_cs
100
AcDbLine
 10
418.002
 20
478.868
 30
11.9
 11
418.191
 21
478.528
 31
11.9
  0
LINE
  5
A62
330
A02
100
AcDbEntity
  8
Mesh_cs
100
AcDbLine
 10
418.191
 20
478.528
 30
11.9
 11
418.199
 21
478.516
 31
11.9
  0
LINE
  5
A63
330
A02
100
AcDbEntity
  8
Mesh_cs
100
AcDbLine
 10
418.199
 20
478.516
 30
11.9
 11
418.415
 21
478.192
 31
11.9
  0
LINE
  5
A64
330
A02
100
AcDbEntity
  8
Mesh_cs
100
AcDbLine
 10
418.415
 20
478.192
 30
11.9
 11
418.656
 21
477.886
 31
11.9
  0
LINE
  5
A65
330
A02
100
AcDbEntity
  8
Mesh_cs
100
AcDbLine
 10
418.656
 20
477.886
 30
11.9
 11
418.665
 21
477.875
 31
11.9
  0
LINE
  5
A66
330
A02
100
AcDbEntity
  8
Mesh_cs
100
AcDbLine
 10
418.665
 20
477.875
 30
11.9
 11
418.905
 21
477.614
 31
11.9
  0
LINE
  5
A67
330
A02
100
AcDbEntity
  8
Mesh_cs
100
AcDbLine
 10
418.905
 20
477.614
 30
11.9
 11
418.915
 21
477.604
 31
11.9
  0
LINE
  5
A68
330
A02
100
AcDbEntity
  8
Mesh_cs
100
AcDbLine
 10
418.915
 20
477.604
 30
11.9
 11
419.2
 21
477.338
 31
11.9
  0
LINE
  5
A69
330
A02
100
AcDbEntity
  8
Mesh_cs
100
AcDbLine
 10
419.2
 20
477.338
 30
11.9
 11
419.209
 21
477.331
 31
11.9
  0
LINE
  5
A6A
330
A02
100
AcDbEntity
  8
Mesh_cs
100
AcDbLine
 10
419.209
 20
477.331
 30
11.9
 11
419.514
 21
477.089
 31
11.9
  0
LINE
  5
A6B
330
A02
100
AcDbEntity
  8
Mesh_cs
100
AcDbLine
 10
419.514
 20
477.089
 30
11.9
 11
419.523
 21
477.083
 31
11.9
  0
LINE
  5
A6C
330
A02
100
AcDbEntity
  8
Mesh_cs
100
AcDbLine
 10
297.783
 20
567.43
 30
11.9
 11
297.34
 21
567.371
 31
11.9
  0
LINE
  5
A6D
330
A02
100
AcDbEntity
  8
Mesh_cs
100
AcDbLine
 10
297.34
 20
567.371
 30
11.9
 11
296.936
 21
567.352
 31
11.9
  0
LINE
  5
A6E
330
A02
100
AcDbEntity
  8
Mesh_cs
100
AcDbLine
 10
296.936
 20
567.352
 30
11.9
 11
296.533
 21
567.366
 31
11.9
  0
LINE
  5
A6F
330
A02
100
AcDbEntity
  8
Mesh_cs
100
AcDbLine
 10
296.533
 20
567.366
 30
11.9
 11
296.146
 21
567.409
 31
11.9
  0
LINE
  5
A70
330
A02
100
AcDbEntity
  8
Mesh_cs
100
AcDbLine
 10
296.146
 20
567.409
 30
11.9
 11
296.132
 21
567.412
 31
11.9
  0
LINE
  5
A71
330
A02
100
AcDbEntity
  8
Mesh_cs
100
AcDbLine
 10
296.132
 20
567.412
 30
11.9
 11
295.736
 21
567.491
 31
11.9
  0
LINE
  5
A72
330
A02
100
AcDbEntity
  8
Mesh_cs
100
AcDbLine
 10
295.736
 20
567.491
 30
11.9
 11
295.361
 21
567.596
 31
11.9
  0
LINE
  5
A73
330
A02
100
AcDbEntity
  8
Mesh_cs
100
AcDbLine
 10
295.361
 20
567.596
 30
11.9
 11
294.996
 21
567.73
 31
11.9
  0
LINE
  5
A74
330
A02
100
AcDbEntity
  8
Mesh_cs
100
AcDbLine
 10
294.996
 20
567.73
 30
11.9
 11
294.982
 21
567.735
 31
11.9
  0
LINE
  5
A75
330
A02
100
AcDbEntity
  8
Mesh_cs
100
AcDbLine
 10
294.982
 20
567.735
 30
11.9
 11
294.66
 21
567.883
 31
11.9
  0
LINE
  5
A76
330
A02
100
AcDbEntity
  8
Mesh_cs
100
AcDbLine
 10
294.66
 20
567.883
 30
11.9
 11
294.647
 21
567.89
 31
11.9
  0
LINE
  5
A77
330
A02
100
AcDbEntity
  8
Mesh_cs
100
AcDbLine
 10
294.647
 20
567.89
 30
11.9
 11
294.306
 21
568.079
 31
11.9
  0
LINE
  5
A78
330
A02
100
AcDbEntity
  8
Mesh_cs
100
AcDbLine
 10
294.306
 20
568.079
 30
11.9
 11
294.297
 21
568.085
 31
11.9
  0
LINE
  5
A79
330
A02
100
AcDbEntity
  8
Mesh_cs
100
AcDbLine
 10
294.297
 20
568.085
 30
11.9
 11
293.973
 21
568.301
 31
11.9
  0
LINE
  5
A7A
330
A02
100
AcDbEntity
  8
Mesh_cs
100
AcDbLine
 10
293.973
 20
568.301
 30
11.9
 11
293.964
 21
568.307
 31
11.9
  0
LINE
  5
A7B
330
A02
100
AcDbEntity
  8
Mesh_cs
100
AcDbLine
 10
293.964
 20
568.307
 30
11.9
 11
278.401
 21
579.614
 31
11.9
  0
LINE
  5
A7C
330
A02
100
AcDbEntity
  8
Mesh_cs
100
AcDbLine
 10
278.401
 20
579.614
 30
11.9
 11
277.864
 21
580.004
 31
11.9
  0
LINE
  5
A7D
330
A02
100
AcDbEntity
  8
Mesh_cs
100
AcDbLine
 10
277.864
 20
580.004
 30
11.9
 11
197.762
 21
469.753
 31
11.9
  0
LINE
  5
A7E
330
A02
100
AcDbEntity
  8
Mesh_cs
100
AcDbLine
 10
197.762
 20
469.753
 30
11.9
 11
195
 21
465.951
 31
11.9
  0
LINE
  5
A7F
330
A02
100
AcDbEntity
  8
Mesh_cs
100
AcDbLine
 10
195
 20
465.951
 30
11.9
 11
195
 21
452.341
 31
11.9
  0
LINE
  5
A80
330
A02
100
AcDbEntity
  8
Mesh_cs
100
AcDbLine
 10
195
 20
452.341
 30
11.9
 11
195
 21
329.847
 31
11.9
  0
LINE
  5
A81
330
A02
100
AcDbEntity
  8
Mesh_cs
100
AcDbLine
 10
195
 20
329.847
 30
11.9
 11
211.222
 21
352.175
 31
11.9
  0
LINE
  5
A82
330
A02
100
AcDbEntity
  8
Mesh_cs
100
AcDbLine
 10
211.222
 20
352.175
 30
11.9
 11
357.221
 21
553.125
 31
11.9
  0
LINE
  5
A83
330
A02
100
AcDbEntity
  8
Mesh_cs
100
AcDbLine
 10
357.221
 20
553.125
 30
11.9
 11
317.102
 21
582.274
 31
11.9
  0
LINE
  5
A84
330
A02
100
AcDbEntity
  8
Mesh_cs
100
AcDbLine
 10
317.102
 20
582.274
 30
11.9
 11
312.645
 21
585.512
 31
11.9
  0
LINE
  5
A85
330
A02
100
AcDbEntity
  8
Mesh_cs
100
AcDbLine
 10
312.645
 20
585.512
 30
11.9
 11
312.255
 21
584.976
 31
11.9
  0
LINE
  5
A86
330
A02
100
AcDbEntity
  8
Mesh_cs
100
AcDbLine
 10
312.255
 20
584.976
 30
11.9
 11
300.948
 21
569.413
 31
11.9
  0
LINE
  5
A87
330
A02
100
AcDbEntity
  8
Mesh_cs
100
AcDbLine
 10
300.948
 20
569.413
 30
11.9
 11
300.743
 21
569.151
 31
11.9
  0
LINE
  5
A88
330
A02
100
AcDbEntity
  8
Mesh_cs
100
AcDbLine
 10
300.743
 20
569.151
 30
11.9
 11
300.734
 21
569.14
 31
11.9
  0
LINE
  5
A89
330
A02
100
AcDbEntity
  8
Mesh_cs
100
AcDbLine
 10
300.734
 20
569.14
 30
11.9
 11
300.512
 21
568.892
 31
11.9
  0
LINE
  5
A8A
330
A02
100
AcDbEntity
  8
Mesh_cs
100
AcDbLine
 10
300.512
 20
568.892
 30
11.9
 11
300.502
 21
568.882
 31
11.9
  0
LINE
  5
A8B
330
A02
100
AcDbEntity
  8
Mesh_cs
100
AcDbLine
 10
300.502
 20
568.882
 30
11.9
 11
300.189
 21
568.584
 31
11.9
  0
LINE
  5
A8C
330
A02
100
AcDbEntity
  8
Mesh_cs
100
AcDbLine
 10
300.189
 20
568.584
 30
11.9
 11
300.179
 21
568.575
 31
11.9
  0
LINE
  5
A8D
330
A02
100
AcDbEntity
  8
Mesh_cs
100
AcDbLine
 10
300.179
 20
568.575
 30
11.9
 11
299.84
 21
568.307
 31
11.9
  0
LINE
  5
A8E
330
A02
100
AcDbEntity
  8
Mesh_cs
100
AcDbLine
 10
299.84
 20
568.307
 30
11.9
 11
299.83
 21
568.298
 31
11.9
  0
LINE
  5
A8F
330
A02
100
AcDbEntity
  8
Mesh_cs
100
AcDbLine
 10
299.83
 20
568.298
 30
11.9
 11
299.469
 21
568.061
 31
11.9
  0
LINE
  5
A90
330
A02
100
AcDbEntity
  8
Mesh_cs
100
AcDbLine
 10
299.469
 20
568.061
 30
11.9
 11
299.457
 21
568.054
 31
11.9
  0
LINE
  5
A91
330
A02
100
AcDbEntity
  8
Mesh_cs
100
AcDbLine
 10
299.457
 20
568.054
 30
11.9
 11
299.076
 21
567.85
 31
11.9
  0
LINE
  5
A92
330
A02
100
AcDbEntity
  8
Mesh_cs
100
AcDbLine
 10
299.076
 20
567.85
 30
11.9
 11
299.064
 21
567.844
 31
11.9
  0
LINE
  5
A93
330
A02
100
AcDbEntity
  8
Mesh_cs
100
AcDbLine
 10
299.064
 20
567.844
 30
11.9
 11
299.052
 21
567.838
 31
11.9
  0
LINE
  5
A94
330
A02
100
AcDbEntity
  8
Mesh_cs
100
AcDbLine
 10
299.052
 20
567.838
 30
11.9
 11
298.654
 21
567.669
 31
11.9
  0
LINE
  5
A95
330
A02
100
AcDbEntity
  8
Mesh_cs
100
AcDbLine
 10
298.654
 20
567.669
 30
11.9
 11
298.642
 21
567.665
 31
11.9
  0
LINE
  5
A96
330
A02
100
AcDbEntity
  8
Mesh_cs
100
AcDbLine
 10
298.642
 20
567.665
 30
11.9
 11
298.231
 21
567.532
 31
11.9
  0
LINE
  5
A97
330
A02
100
AcDbEntity
  8
Mesh_cs
100
AcDbLine
 10
298.231
 20
567.532
 30
11.9
 11
298.218
 21
567.528
 31
11.9
  0
LINE
  5
A98
330
A02
100
AcDbEntity
  8
Mesh_cs
100
AcDbLine
 10
298.218
 20
567.528
 30
11.9
 11
297.796
 21
567.432
 31
11.9
  0
LINE
  5
A99
330
A02
100
AcDbEntity
  8
Mesh_cs
100
AcDbLine
 10
429.446
 20
482.234
 30
11.9
 11
437.912
 21
493.886
 31
11.9
  0
LINE
  5
A9A
330
A02
100
AcDbEntity
  8
Mesh_cs
100
AcDbLine
 10
437.912
 20
493.886
 30
11.9
 11
438.204
 21
494.288
 31
11.9
  0
LINE
  5
A9B
330
A02
100
AcDbEntity
  8
Mesh_cs
100
AcDbLine
 10
438.204
 20
494.288
 30
11.9
 11
449.857
 21
485.822
 31
11.9
  0
LINE
  5
A9C
330
A02
100
AcDbEntity
  8
Mesh_cs
100
AcDbLine
 10
449.857
 20
485.822
 30
11.9
 11
450.258
 21
485.53
 31
11.9
  0
LINE
  5
A9D
330
A02
100
AcDbEntity
  8
Mesh_cs
100
AcDbLine
 10
450.258
 20
485.53
 30
11.9
 11
449.966
 21
485.128
 31
11.9
  0
LINE
  5
A9E
330
A02
100
AcDbEntity
  8
Mesh_cs
100
AcDbLine
 10
449.966
 20
485.128
 30
11.9
 11
441.5
 21
473.476
 31
11.9
  0
LINE
  5
A9F
330
A02
100
AcDbEntity
  8
Mesh_cs
100
AcDbLine
 10
441.5
 20
473.476
 30
11.9
 11
441.099
 21
473.768
 31
11.9
  0
LINE
  5
AA0
330
A02
100
AcDbEntity
  8
Mesh_cs
100
AcDbLine
 10
441.099
 20
473.768
 30
11.9
 11
429.446
 21
482.234
 31
11.9
  0
LINE
  5
AA1
330
A02
100
AcDbEntity
  8
Mesh_cs
100
AcDbLine
 10
304.554
 20
591.39
 30
11.9
 11
292.902
 21
599.856
 31
11.9
  0
LINE
  5
AA2
330
A02
100
AcDbEntity
  8
Mesh_cs
100
AcDbLine
 10
292.902
 20
599.856
 30
11.9
 11
292.5
 21
600.148
 31
11.9
  0
LINE
  5
AA3
330
A02
100
AcDbEntity
  8
Mesh_cs
100
AcDbLine
 10
292.5
 20
600.148
 30
11.9
 11
292.208
 21
599.746
 31
11.9
  0
LINE
  5
AA4
330
A02
100
AcDbEntity
  8
Mesh_cs
100
AcDbLine
 10
292.208
 20
599.746
 30
11.9
 11
283.742
 21
588.094
 31
11.9
  0
LINE
  5
AA5
330
A02
100
AcDbEntity
  8
Mesh_cs
100
AcDbLine
 10
283.742
 20
588.094
 30
11.9
 11
295.395
 21
579.628
 31
11.9
  0
LINE
  5
AA6
330
A02
100
AcDbEntity
  8
Mesh_cs
100
AcDbLine
 10
295.395
 20
579.628
 30
11.9
 11
295.796
 21
579.336
 31
11.9
  0
LINE
  5
AA7
330
A02
100
AcDbEntity
  8
Mesh_cs
100
AcDbLine
 10
295.796
 20
579.336
 30
11.9
 11
304.262
 21
590.989
 31
11.9
  0
LINE
  5
AA8
330
A02
100
AcDbEntity
  8
Mesh_cs
100
AcDbLine
 10
304.262
 20
590.989
 30
11.9
 11
304.554
 21
591.39
 31
11.9
  0
ENDSEC
  0
SECTION
  2
OBJECTS
  0
DICTIONARY
  5
F000
330
0
100
AcDbDictionary
  3
ACAD_GROUP
350
F001
  0
DICTIONARY
  5
F001
330
F000
100
AcDbDictionary
  0
ENDSEC
  0
EOF