999
FreeCAD v0.21 33771 (Git)
  0
SECTION
  2
HEADER
  9
$ACADVER
  1
AC1014
  9
$ACADMAINTVER
 70
     9
  9
$DWGCODEPAGE
  3
ANSI_1252
  9
$TEXTSTYLE
  7
STANDARD
  9
$DIMSTYLE
  2
STANDARD
  9
$DIMTXSTY
  7
STANDARD
  9
$CMLSTYLE
  2
STANDARD
  9
$LUNITS
 70
2
  9
$INSUNITS
 70
4
  9
$PEXTMAX
 10
50
 20
50
 30
50
  9
$PEXTMIN
 10
0
 20
0
 30
0
  9
$HANDSEED
  5
FFFF
  0
ENDSEC
  0
SECTION
  2
CLASSES
  0
CLASS
  1
ACDBDICTIONARYWDFLT
  2
AcDbDictionaryWithDefault
  3
ObjectDBX Classes
 90
        0
280
     0
281
     0
  0
CLASS
  1
XRECORD
  2
AcDbXrecord
  3
ObjectDBX Classes
 90
        0
280
     0
281
     0
  0
CLASS
  1
LWPOLYLINE
  2
AcDbPolyline
  3
ObjectDBX Classes
 90
        0
280
     0
281
     1
  0
ENDSEC
  0
SECTION
  2
TABLES
  0
TABLE
  2
VPORT
  5
20
330
0
100
AcDbSymbolTable
 70
     1
  0
VPORT
  5
21
330
20
100
AcDbSymbolTableRecord
100
AcDbViewportTableRecord
  2
*ACTIVE
 70
     0
  0
ENDTAB
  0
TABLE
  2
LTYPE
  5
22
330
0
100
AcDbSymbolTable
 70
     1
  0
LTYPE
  5
23
330
21
100
AcDbSymbolTableRecord
100
AcDbLinetypeTableRecord
  2
BYBLOCK
 70
     0
  3

 72
    65
 73
     0
 40
0.0
  0
LTYPE
  5
24
330
21
100
AcDbSymbolTableRecord
100
AcDbLinetypeTableRecord
  2
BYLAYER
 70
     0
  3

 72
    65
 73
     0
 40
0.0
  0
LTYPE
  5
25
330
21
100
AcDbSymbolTableRecord
100
AcDbLinetypeTableRecord
  2
CONTINUOUS
 70
     0
  3
Solid line
 72
    65
 73
     0
 40
0.0
  0
ENDTAB
  0
TABLE
  2
LAYER
  5
ABC
330
0
100
AcDbSymbolTable
 70
3
  0
LAYER
  5
ABD
330
ABC
100
AcDbSymbolTableRecord
100
AcDbLayerTableRecord
  2
0
 70
   0
 62
   7
  6
CONTINUOUS
  0
LAYER
  5
ABE
330
ABC
100
AcDbSymbolTableRecord
100
AcDbLayerTableRecord
  2
none
 70
    0
 62
    7
  6
CONTINUOUS
  0
LAYER
  5
ABF
330
ABC
100
AcDbSymbolTableRecord
100
AcDbLayerTableRecord
  2
Mesh_cs003
 70
    0
 62
    7
  6
CONTINUOUS
  0
ENDTAB
  0
TABLE
  2
STYLE
  5
70
330
0
100
AcDbSymbolTable
 70
     2
  0
STYLE
  5
71
330
70
100
AcDbSymbolTableRecord
100
AcDbTextStyleTableRecord
  2
STANDARD
 70
     0
 40
0.0
 41
1.0
 50
0.0
 71
     0
 42
2.5
  3
arial.ttf
  4

  0
STYLE
  5
72
330
70
100
AcDbSymbolTableRecord
100
AcDbTextStyleTableRecord
  2
ANNOTATIVE
 70
     0
 40
0.0
 41
1.0
 50
0.0
 71
     0
 42
2.5
  3
arial.ttf
  4

  0
ENDTAB
  0
TABLE
  2
VIEW
  5
73
330
0
100
AcDbSymbolTable
 70
     0
  0
ENDTAB
  0
TABLE
  2
UCS
  5
74
330
0
100
AcDbSymbolTable
 70
     0
  0
ENDTAB
  0
TABLE
  2
APPID
  5
75
330
0
100
AcDbSymbolTable
 70
     2
  0
APPID
  5
76
330
75
100
AcDbSymbolTableRecord
100
AcDbRegAppTableRecord
  2
ACAD
 70
     0
  0
APPID
  5
77
330
75
100
AcDbSymbolTableRecord
100
AcDbRegAppTableRecord
  2
ACADANNOTATIVE
 70
     0
  0
ENDTAB
  0
TABLE
  2
DIMSTYLE
  5
78
330
0
100
AcDbSymbolTable
 70
     2
  0
DIMSTYLE
105
79
330
78
100
AcDbSymbolTableRecord
100
AcDbDimStyleTableRecord
  2
STANDARD
 70
     0
  3

  4

  5

  6

  7

 40
0.0
 41
2.5
 42
0.625
 43
3.75
 44
1.25
 45
0.0
 46
0.0
 47
0.0
 48
0.0
140
2.5
141
2.5
142
0.0
143
0.03937007874016
144
1.0
145
0.0
146
1.0
147
0.625
 71
     0
 72
     0
 73
     0
 74
     0
 75
     0
 76
     0
 77
     1
 78
     8
170
     0
171
     3
172
     1
173
     0
174
     0
175
     0
176
     0
177
     0
178
     0
270
     2
271
     2
272
     2
273
     2
274
     3
340
71
275
     0
280
     0
281
     0
282
     0
283
     0
284
     8
285
     0
286
     0
287
     3
288
     0
  0
ENDTAB
  0
TABLE
  2
BLOCK_RECORD
  5
A01
330
0
100
AcDbSymbolTable
  70
5
  0
BLOCK_RECORD
  5
A02
330
A01
100
AcDbSymbolTableRecord
100
AcDbBlockTableRecord
  2
*MODEL_SPACE
  0
BLOCK_RECORD
  5
A03
330
A01
100
AcDbSymbolTableRecord
100
AcDbBlockTableRecord
  2
*PAPER_SPACE
  0
ENDTAB
  0
ENDSEC
  0
SECTION
  2
BLOCKS
  0
BLOCK
  5
A04
330
A02
100
AcDbEntity
  8
0
100
AcDbBlockBegin
  2
*MODEL_SPACE
 70
   0
 10
0
 20
0
 30
0
  3
*MODEL_SPACE
  1
 
  0
ENDBLK
  5
A05
330
A02
100
AcDbEntity
  8
0
100
AcDbBlockEnd
  0
BLOCK
  5
A06
330
A03
100
AcDbEntity
 67
1
  8
0
100
AcDbBlockBegin
  2
*PAPER_SPACE
 70
   0
 10
0
 20
0
 30
0
  3
*PAPER_SPACE
  1
 
  0
ENDBLK
  5
A07
330
A03
100
AcDbEntity
 67
    1
  8
0
100
AcDbBlockEnd
  0
ENDSEC
  0
SECTION
  2
ENTITIES
  0
LINE
  5
A08
330
A02
100
AcDbEntity
  8
Mesh_cs003
100
AcDbLine
 10
207.52
 20
103.948
 30
0.0999999
 11
207.554
 21
104.054
 31
0.0999999
  0
LINE
  5
A09
330
A02
100
AcDbEntity
  8
Mesh_cs003
100
AcDbLine
 10
207.554
 20
104.054
 30
0.0999999
 11
215.163
 21
127.472
 31
0.0999999
  0
LINE
  5
A0A
330
A02
100
AcDbEntity
  8
Mesh_cs003
100
AcDbLine
 10
215.163
 20
127.472
 30
0.0999999
 11
215.195
 21
127.57
 31
0.0999999
  0
LINE
  5
A0B
330
A02
100
AcDbEntity
  8
Mesh_cs003
100
AcDbLine
 10
215.195
 20
127.57
 30
0.0999999
 11
215.205
 21
127.6
 31
0.0999999
  0
LINE
  5
A0C
330
A02
100
AcDbEntity
  8
Mesh_cs003
100
AcDbLine
 10
215.205
 20
127.6
 30
0.0999999
 11
215.214
 21
127.629
 31
0.0999999
  0
LINE
  5
A0D
330
A02
100
AcDbEntity
  8
Mesh_cs003
100
AcDbLine
 10
215.214
 20
127.629
 30
0.0999999
 11
215.057
 21
127.68
 31
0.0999999
  0
LINE
  5
A0E
330
A02
100
AcDbEntity
  8
Mesh_cs003
100
AcDbLine
 10
215.057
 20
127.68
 30
0.0999999
 11
214.951
 21
127.715
 31
0.0999999
  0
LINE
  5
A0F
330
A02
100
AcDbEntity
  8
Mesh_cs003
100
AcDbLine
 10
214.951
 20
127.715
 30
0.0999999
 11
214.523
 21
127.854
 31
0.1
  0
LINE
  5
A10
330
A02
100
AcDbEntity
  8
Mesh_cs003
100
AcDbLine
 10
214.523
 20
127.854
 30
0.1
 11
214.22
 21
127.952
 31
0.0999999
  0
LINE
  5
A11
330
A02
100
AcDbEntity
  8
Mesh_cs003
100
AcDbLine
 10
214.22
 20
127.952
 30
0.0999999
 11
213.417
 21
128.213
 31
0.0999999
  0
LINE
  5
A12
330
A02
100
AcDbEntity
  8
Mesh_cs003
100
AcDbLine
 10
213.417
 20
128.213
 30
0.0999999
 11
30.0216
 21
187.802
 31
0.0999999
  0
LINE
  5
A13
330
A02
100
AcDbEntity
  8
Mesh_cs003
100
AcDbLine
 10
30.0216
 20
187.802
 30
0.0999999
 11
29.9159
 21
187.836
 31
0.0999999
  0
LINE
  5
A14
330
A02
100
AcDbEntity
  8
Mesh_cs003
100
AcDbLine
 10
29.9159
 20
187.836
 30
0.0999999
 11
29.7585
 21
187.887
 31
0.0999999
  0
LINE
  5
A15
330
A02
100
AcDbEntity
  8
Mesh_cs003
100
AcDbLine
 10
29.7585
 20
187.887
 30
0.0999999
 11
29.7073
 21
187.73
 31
0.0999999
  0
LINE
  5
A16
330
A02
100
AcDbEntity
  8
Mesh_cs003
100
AcDbLine
 10
29.7073
 20
187.73
 30
0.0999999
 11
22.0983
 21
164.312
 31
0.0999999
  0
LINE
  5
A17
330
A02
100
AcDbEntity
  8
Mesh_cs003
100
AcDbLine
 10
22.0983
 20
164.312
 30
0.0999999
 11
22.0639
 21
164.206
 31
0.0999999
  0
LINE
  5
A18
330
A02
100
AcDbEntity
  8
Mesh_cs003
100
AcDbLine
 10
22.0639
 20
164.206
 30
0.0999999
 11
22.0659
 21
164.193
 31
0.1
  0
LINE
  5
A19
330
A02
100
AcDbEntity
  8
Mesh_cs003
100
AcDbLine
 10
22.0659
 20
164.193
 30
0.1
 11
22.0679
 21
164.178
 31
0.1
  0
LINE
  5
A1A
330
A02
100
AcDbEntity
  8
Mesh_cs003
100
AcDbLine
 10
22.0679
 20
164.178
 30
0.1
 11
22.0721
 21
164.148
 31
0.1
  0
LINE
  5
A1B
330
A02
100
AcDbEntity
  8
Mesh_cs003
100
AcDbLine
 10
22.0721
 20
164.148
 30
0.1
 11
22.0909
 21
164.005
 31
0.1
  0
LINE
  5
A1C
330
A02
100
AcDbEntity
  8
Mesh_cs003
100
AcDbLine
 10
22.0909
 20
164.005
 30
0.1
 11
22.1026
 21
163.925
 31
0.1
  0
LINE
  5
A1D
330
A02
100
AcDbEntity
  8
Mesh_cs003
100
AcDbLine
 10
22.1026
 20
163.925
 30
0.1
 11
22.1257
 21
163.765
 31
0.1
  0
LINE
  5
A1E
330
A02
100
AcDbEntity
  8
Mesh_cs003
100
AcDbLine
 10
22.1257
 20
163.765
 30
0.1
 11
22.1359
 21
163.603
 31
0.1
  0
LINE
  5
A1F
330
A02
100
AcDbEntity
  8
Mesh_cs003
100
AcDbLine
 10
22.1359
 20
163.603
 30
0.1
 11
22.1408
 21
163.522
 31
0.1
  0
LINE
  5
A20
330
A02
100
AcDbEntity
  8
Mesh_cs003
100
AcDbLine
 10
22.1408
 20
163.522
 30
0.1
 11
22.1472
 21
163.359
 31
0.1
  0
LINE
  5
A21
330
A02
100
AcDbEntity
  8
Mesh_cs003
100
AcDbLine
 10
22.1472
 20
163.359
 30
0.1
 11
22.1413
 21
163.037
 31
0.1
  0
LINE
  5
A22
330
A02
100
AcDbEntity
  8
Mesh_cs003
100
AcDbLine
 10
22.1413
 20
163.037
 30
0.1
 11
22.1379
 21
162.971
 31
0.1
  0
LINE
  5
A23
330
A02
100
AcDbEntity
  8
Mesh_cs003
100
AcDbLine
 10
22.1379
 20
162.971
 30
0.1
 11
22.1057
 21
162.66
 31
0.1
  0
LINE
  5
A24
330
A02
100
AcDbEntity
  8
Mesh_cs003
100
AcDbLine
 10
22.1057
 20
162.66
 30
0.1
 11
22.0967
 21
162.576
 31
0.1
  0
LINE
  5
A25
330
A02
100
AcDbEntity
  8
Mesh_cs003
100
AcDbLine
 10
22.0967
 20
162.576
 30
0.1
 11
22.0534
 21
162.336
 31
0.1
  0
LINE
  5
A26
330
A02
100
AcDbEntity
  8
Mesh_cs003
100
AcDbLine
 10
22.0534
 20
162.336
 30
0.1
 11
22.0412
 21
162.262
 31
0.1
  0
LINE
  5
A27
330
A02
100
AcDbEntity
  8
Mesh_cs003
100
AcDbLine
 10
22.0412
 20
162.262
 30
0.1
 11
21.9765
 21
161.997
 31
0.1
  0
LINE
  5
A28
330
A02
100
AcDbEntity
  8
Mesh_cs003
100
AcDbLine
 10
21.9765
 20
161.997
 30
0.1
 11
21.9741
 21
161.987
 31
0.1
  0
LINE
  5
A29
330
A02
100
AcDbEntity
  8
Mesh_cs003
100
AcDbLine
 10
21.9741
 20
161.987
 30
0.1
 11
21.9686
 21
161.963
 31
0.0999999
  0
LINE
  5
A2A
330
A02
100
AcDbEntity
  8
Mesh_cs003
100
AcDbLine
 10
21.9686
 20
161.963
 30
0.0999999
 11
21.9677
 21
161.959
 31
0.0999999
  0
LINE
  5
A2B
330
A02
100
AcDbEntity
  8
Mesh_cs003
100
AcDbLine
 10
21.9677
 20
161.959
 30
0.0999999
 11
21.957
 21
161.92
 31
0.0999999
  0
LINE
  5
A2C
330
A02
100
AcDbEntity
  8
Mesh_cs003
100
AcDbLine
 10
21.957
 20
161.92
 30
0.0999999
 11
20.6846
 21
157.243
 31
0.0999999
  0
LINE
  5
A2D
330
A02
100
AcDbEntity
  8
Mesh_cs003
100
AcDbLine
 10
20.6846
 20
157.243
 30
0.0999999
 11
19.4499
 21
152.556
 31
0.0999999
  0
LINE
  5
A2E
330
A02
100
AcDbEntity
  8
Mesh_cs003
100
AcDbLine
 10
19.4499
 20
152.556
 30
0.0999999
 11
19.4395
 21
152.516
 31
0.0999999
  0
LINE
  5
A2F
330
A02
100
AcDbEntity
  8
Mesh_cs003
100
AcDbLine
 10
19.4395
 20
152.516
 30
0.0999999
 11
18.2425
 21
147.819
 31
0.0999999
  0
LINE
  5
A30
330
A02
100
AcDbEntity
  8
Mesh_cs003
100
AcDbLine
 10
18.2425
 20
147.819
 30
0.0999999
 11
18.2324
 21
147.78
 31
0.0999999
  0
LINE
  5
A31
330
A02
100
AcDbEntity
  8
Mesh_cs003
100
AcDbLine
 10
18.2324
 20
147.78
 30
0.0999999
 11
17.0732
 21
143.073
 31
0.0999999
  0
LINE
  5
A32
330
A02
100
AcDbEntity
  8
Mesh_cs003
100
AcDbLine
 10
17.0732
 20
143.073
 30
0.0999999
 11
17.0635
 21
143.033
 31
0.0999999
  0
LINE
  5
A33
330
A02
100
AcDbEntity
  8
Mesh_cs003
100
AcDbLine
 10
17.0635
 20
143.033
 30
0.0999999
 11
15.9421
 21
138.318
 31
0.0999999
  0
LINE
  5
A34
330
A02
100
AcDbEntity
  8
Mesh_cs003
100
AcDbLine
 10
15.9421
 20
138.318
 30
0.0999999
 11
15.9327
 21
138.278
 31
0.0999999
  0
LINE
  5
A35
330
A02
100
AcDbEntity
  8
Mesh_cs003
100
AcDbLine
 10
15.9327
 20
138.278
 30
0.0999999
 11
15.9236
 21
138.238
 31
0.0999999
  0
LINE
  5
A36
330
A02
100
AcDbEntity
  8
Mesh_cs003
100
AcDbLine
 10
15.9236
 20
138.238
 30
0.0999999
 11
14.8402
 21
133.514
 31
0.0999999
  0
LINE
  5
A37
330
A02
100
AcDbEntity
  8
Mesh_cs003
100
AcDbLine
 10
14.8402
 20
133.514
 30
0.0999999
 11
13.7948
 21
128.781
 31
0.0999999
  0
LINE
  5
A38
330
A02
100
AcDbEntity
  8
Mesh_cs003
100
AcDbLine
 10
13.7948
 20
128.781
 30
0.0999999
 11
13.786
 21
128.741
 31
0.0999999
  0
LINE
  5
A39
330
A02
100
AcDbEntity
  8
Mesh_cs003
100
AcDbLine
 10
13.786
 20
128.741
 30
0.0999999
 11
12.7787
 21
123.999
 31
0.0999999
  0
LINE
  5
A3A
330
A02
100
AcDbEntity
  8
Mesh_cs003
100
AcDbLine
 10
12.7787
 20
123.999
 30
0.0999999
 11
12.7703
 21
123.96
 31
0.0999999
  0
LINE
  5
A3B
330
A02
100
AcDbEntity
  8
Mesh_cs003
100
AcDbLine
 10
12.7703
 20
123.96
 30
0.0999999
 11
11.8011
 21
119.21
 31
0.0999999
  0
LINE
  5
A3C
330
A02
100
AcDbEntity
  8
Mesh_cs003
100
AcDbLine
 10
11.8011
 20
119.21
 30
0.0999999
 11
11.793
 21
119.17
 31
0.0999999
  0
LINE
  5
A3D
330
A02
100
AcDbEntity
  8
Mesh_cs003
100
AcDbLine
 10
11.793
 20
119.17
 30
0.0999999
 11
11.7852
 21
119.13
 31
0.0999999
  0
LINE
  5
A3E
330
A02
100
AcDbEntity
  8
Mesh_cs003
100
AcDbLine
 10
11.7852
 20
119.13
 30
0.0999999
 11
10.8542
 21
114.373
 31
0.0999999
  0
LINE
  5
A3F
330
A02
100
AcDbEntity
  8
Mesh_cs003
100
AcDbLine
 10
10.8542
 20
114.373
 30
0.0999999
 11
9.96156
 21
109.609
 31
0.0999999
  0
LINE
  5
A40
330
A02
100
AcDbEntity
  8
Mesh_cs003
100
AcDbLine
 10
9.96156
 20
109.609
 30
0.0999999
 11
9.95406
 21
109.569
 31
0.0999999
  0
LINE
  5
A41
330
A02
100
AcDbEntity
  8
Mesh_cs003
100
AcDbLine
 10
9.95406
 20
109.569
 30
0.0999999
 11
9.09972
 21
104.798
 31
0.0999999
  0
LINE
  5
A42
330
A02
100
AcDbEntity
  8
Mesh_cs003
100
AcDbLine
 10
9.09972
 20
104.798
 30
0.0999999
 11
9.09254
 21
104.758
 31
0.0999999
  0
LINE
  5
A43
330
A02
100
AcDbEntity
  8
Mesh_cs003
100
AcDbLine
 10
9.09254
 20
104.758
 30
0.0999999
 11
8.2766
 21
99.9796
 31
0.0999999
  0
LINE
  5
A44
330
A02
100
AcDbEntity
  8
Mesh_cs003
100
AcDbLine
 10
8.2766
 20
99.9796
 30
0.0999999
 11
8.26974
 21
99.9394
 31
0.0999999
  0
LINE
  5
A45
330
A02
100
AcDbEntity
  8
Mesh_cs003
100
AcDbLine
 10
8.26974
 20
99.9394
 30
0.0999999
 11
8.2632
 21
99.8992
 31
0.0999999
  0
LINE
  5
A46
330
A02
100
AcDbEntity
  8
Mesh_cs003
100
AcDbLine
 10
8.2632
 20
99.8992
 30
0.0999999
 11
7.48569
 21
95.1148
 31
0.0999999
  0
LINE
  5
A47
330
A02
100
AcDbEntity
  8
Mesh_cs003
100
AcDbLine
 10
7.48569
 20
95.1148
 30
0.0999999
 11
6.74667
 21
90.3242
 31
0.0999999
  0
LINE
  5
A48
330
A02
100
AcDbEntity
  8
Mesh_cs003
100
AcDbLine
 10
6.74667
 20
90.3242
 30
0.0999999
 11
6.74046
 21
90.2839
 31
0.0999999
  0
LINE
  5
A49
330
A02
100
AcDbEntity
  8
Mesh_cs003
100
AcDbLine
 10
6.74046
 20
90.2839
 30
0.0999999
 11
6.03997
 21
85.4876
 31
0.0999999
  0
LINE
  5
A4A
330
A02
100
AcDbEntity
  8
Mesh_cs003
100
AcDbLine
 10
6.03997
 20
85.4876
 30
0.0999999
 11
6.03409
 21
85.4473
 31
0.0999999
  0
LINE
  5
A4B
330
A02
100
AcDbEntity
  8
Mesh_cs003
100
AcDbLine
 10
6.03409
 20
85.4473
 30
0.0999999
 11
5.37218
 21
80.6455
 31
0.0999999
  0
LINE
  5
A4C
330
A02
100
AcDbEntity
  8
Mesh_cs003
100
AcDbLine
 10
5.37218
 20
80.6455
 30
0.0999999
 11
5.36662
 21
80.6051
 31
0.0999999
  0
LINE
  5
A4D
330
A02
100
AcDbEntity
  8
Mesh_cs003
100
AcDbLine
 10
5.36662
 20
80.6051
 30
0.0999999
 11
5.36138
 21
80.5647
 31
0.0999999
  0
LINE
  5
A4E
330
A02
100
AcDbEntity
  8
Mesh_cs003
100
AcDbLine
 10
5.36138
 20
80.5647
 30
0.0999999
 11
4.7381
 21
75.7578
 31
0.0999999
  0
LINE
  5
A4F
330
A02
100
AcDbEntity
  8
Mesh_cs003
100
AcDbLine
 10
4.7381
 20
75.7578
 30
0.0999999
 11
4.15348
 21
70.9459
 31
0.0999999
  0
LINE
  5
A50
330
A02
100
AcDbEntity
  8
Mesh_cs003
100
AcDbLine
 10
4.15348
 20
70.9459
 30
0.0999999
 11
4.14857
 21
70.9055
 31
0.0999999
  0
LINE
  5
A51
330
A02
100
AcDbEntity
  8
Mesh_cs003
100
AcDbLine
 10
4.14857
 20
70.9055
 30
0.0999999
 11
3.60265
 21
66.0891
 31
0.0999999
  0
LINE
  5
A52
330
A02
100
AcDbEntity
  8
Mesh_cs003
100
AcDbLine
 10
3.60265
 20
66.0891
 30
0.0999999
 11
3.59806
 21
66.0486
 31
0.0999999
  0
LINE
  5
A53
330
A02
100
AcDbEntity
  8
Mesh_cs003
100
AcDbLine
 10
3.59806
 20
66.0486
 30
0.0999999
 11
3.09088
 21
61.228
 31
0.0999999
  0
LINE
  5
A54
330
A02
100
AcDbEntity
  8
Mesh_cs003
100
AcDbLine
 10
3.09088
 20
61.228
 30
0.0999999
 11
3.08662
 21
61.1875
 31
0.0999999
  0
LINE
  5
A55
330
A02
100
AcDbEntity
  8
Mesh_cs003
100
AcDbLine
 10
3.08662
 20
61.1875
 30
0.0999999
 11
2.61821
 21
56.3629
 31
0.0999999
  0
LINE
  5
A56
330
A02
100
AcDbEntity
  8
Mesh_cs003
100
AcDbLine
 10
2.61821
 20
56.3629
 30
0.0999999
 11
2.61428
 21
56.3224
 31
0.0999999
  0
LINE
  5
A57
330
A02
100
AcDbEntity
  8
Mesh_cs003
100
AcDbLine
 10
2.61428
 20
56.3224
 30
0.0999999
 11
2.18467
 21
51.4943
 31
0.0999999
  0
LINE
  5
A58
330
A02
100
AcDbEntity
  8
Mesh_cs003
100
AcDbLine
 10
2.18467
 20
51.4943
 30
0.0999999
 11
2.18106
 21
51.4537
 31
0.0999999
  0
LINE
  5
A59
330
A02
100
AcDbEntity
  8
Mesh_cs003
100
AcDbLine
 10
2.18106
 20
51.4537
 30
0.0999999
 11
1.79028
 21
46.6222
 31
0.0999999
  0
LINE
  5
A5A
330
A02
100
AcDbEntity
  8
Mesh_cs003
100
AcDbLine
 10
1.79028
 20
46.6222
 30
0.0999999
 11
1.78699
 21
46.5816
 31
0.0999999
  0
LINE
  5
A5B
330
A02
100
AcDbEntity
  8
Mesh_cs003
100
AcDbLine
 10
1.78699
 20
46.5816
 30
0.0999999
 11
1.43506
 21
41.7472
 31
0.0999999
  0
LINE
  5
A5C
330
A02
100
AcDbEntity
  8
Mesh_cs003
100
AcDbLine
 10
1.43506
 20
41.7472
 30
0.0999999
 11
1.43211
 21
41.7066
 31
0.0999999
  0
LINE
  5
A5D
330
A02
100
AcDbEntity
  8
Mesh_cs003
100
AcDbLine
 10
1.43211
 20
41.7066
 30
0.0999999
 11
1.11906
 21
36.8695
 31
0.0999999
  0
LINE
  5
A5E
330
A02
100
AcDbEntity
  8
Mesh_cs003
100
AcDbLine
 10
1.11906
 20
36.8695
 30
0.0999999
 11
1.11642
 21
36.8288
 31
0.0999999
  0
LINE
  5
A5F
330
A02
100
AcDbEntity
  8
Mesh_cs003
100
AcDbLine
 10
1.11642
 20
36.8288
 30
0.0999999
 11
0.842268
 21
31.9894
 31
0.0999999
  0
LINE
  5
A60
330
A02
100
AcDbEntity
  8
Mesh_cs003
100
AcDbLine
 10
0.842268
 20
31.9894
 30
0.0999999
 11
0.839965
 21
31.9487
 31
0.0999999
  0
LINE
  5
A61
330
A02
100
AcDbEntity
  8
Mesh_cs003
100
AcDbLine
 10
0.839965
 20
31.9487
 30
0.0999999
 11
0.604723
 21
27.1072
 31
0.0999999
  0
LINE
  5
A62
330
A02
100
AcDbEntity
  8
Mesh_cs003
100
AcDbLine
 10
0.604723
 20
27.1072
 30
0.0999999
 11
0.602746
 21
27.0665
 31
0.0999999
  0
LINE
  5
A63
330
A02
100
AcDbEntity
  8
Mesh_cs003
100
AcDbLine
 10
0.602746
 20
27.0665
 30
0.0999999
 11
0.571923
 21
26.693
 31
0.0999999
  0
LINE
  5
A64
330
A02
100
AcDbEntity
  8
Mesh_cs003
100
AcDbLine
 10
0.571923
 20
26.693
 30
0.0999999
 11
0.512219
 21
26.3166
 31
0.0999999
  0
LINE
  5
A65
330
A02
100
AcDbEntity
  8
Mesh_cs003
100
AcDbLine
 10
0.512219
 20
26.3166
 30
0.0999999
 11
0.424753
 21
25.9489
 31
0.0999999
  0
LINE
  5
A66
330
A02
100
AcDbEntity
  8
Mesh_cs003
100
AcDbLine
 10
0.424753
 20
25.9489
 30
0.0999999
 11
0.309764
 21
25.5889
 31
0.0999999
  0
LINE
  5
A67
330
A02
100
AcDbEntity
  8
Mesh_cs003
100
AcDbLine
 10
0.309764
 20
25.5889
 30
0.0999999
 11
0.16791
 21
25.2386
 31
0.0999999
  0
LINE
  5
A68
330
A02
100
AcDbEntity
  8
Mesh_cs003
100
AcDbLine
 10
0.16791
 20
25.2386
 30
0.0999999
 11
-8.88178e-16
 21
24.9
 31
0.0999999
  0
LINE
  5
A69
330
A02
100
AcDbEntity
  8
Mesh_cs003
100
AcDbLine
 10
-8.88178e-16
 20
24.9
 30
0.0999999
 11
-8.7831e-16
 21
24.7889
 31
0.0999999
  0
LINE
  5
A6A
330
A02
100
AcDbEntity
  8
Mesh_cs003
100
AcDbLine
 10
-8.7831e-16
 20
24.7889
 30
0.0999999
 11
0
 21
0.165555
 31
0.0999999
  0
LINE
  5
A6B
330
A02
100
AcDbEntity
  8
Mesh_cs003
100
AcDbLine
 10
0
 20
0.165555
 30
0.0999999
 11
0
 21
3.7248e-14
 31
0.0999999
  0
LINE
  5
A6C
330
A02
100
AcDbEntity
  8
Mesh_cs003
100
AcDbLine
 10
0
 20
3.72414e-14
 30
0.0999999
 11
0.165555
 21
3.68388e-14
 31
0.0999999
  0
LINE
  5
A6D
330
A02
100
AcDbEntity
  8
Mesh_cs003
100
AcDbLine
 10
0.165555
 20
3.68388e-14
 30
0.0999999
 11
0.276667
 21
3.68561e-14
 31
0.0999999
  0
LINE
  5
A6E
330
A02
100
AcDbEntity
  8
Mesh_cs003
100
AcDbLine
 10
0.276667
 20
3.68561e-14
 30
0.0999999
 11
193.11
 21
3.94746e-17
 31
0.0999999
  0
LINE
  5
A6F
330
A02
100
AcDbEntity
  8
Mesh_cs003
100
AcDbLine
 10
193.11
 20
3.94746e-17
 30
0.0999999
 11
193.955
 21
2.22044e-17
 31
0.0999999
  0
LINE
  5
A70
330
A02
100
AcDbEntity
  8
Mesh_cs003
100
AcDbLine
 10
193.955
 20
2.22044e-17
 30
0.0999999
 11
194.273
 21
2.22044e-17
 31
0.0999999
  0
LINE
  5
A71
330
A02
100
AcDbEntity
  8
Mesh_cs003
100
AcDbLine
 10
194.273
 20
2.22044e-17
 30
0.0999999
 11
194.723
 21
0
 31
0.0999999
  0
LINE
  5
A72
330
A02
100
AcDbEntity
  8
Mesh_cs003
100
AcDbLine
 10
194.723
 20
0
 30
0.0999999
 11
194.834
 21
1.60366e-17
 31
0.0999999
  0
LINE
  5
A73
330
A02
100
AcDbEntity
  8
Mesh_cs003
100
AcDbLine
 10
194.834
 20
1.60366e-17
 30
0.0999999
 11
195
 21
2.22044e-17
 31
0.0999999
  0
LINE
  5
A74
330
A02
100
AcDbEntity
  8
Mesh_cs003
100
AcDbLine
 10
195
 20
2.22044e-17
 30
0.0999999
 11
195
 21
0.0310354
 31
0.0999999
  0
LINE
  5
A75
330
A02
100
AcDbEntity
  8
Mesh_cs003
100
AcDbLine
 10
195
 20
0.0310354
 30
0.0999999
 11
195
 21
0.062073
 31
0.0999999
  0
LINE
  5
A76
330
A02
100
AcDbEntity
  8
Mesh_cs003
100
AcDbLine
 10
195
 20
0.062073
 30
0.0999999
 11
195
 21
0.165555
 31
0.0999999
  0
LINE
  5
A77
330
A02
100
AcDbEntity
  8
Mesh_cs003
100
AcDbLine
 10
195
 20
0.165555
 30
0.0999999
 11
195
 21
24.7889
 31
0.0999999
  0
LINE
  5
A78
330
A02
100
AcDbEntity
  8
Mesh_cs003
100
AcDbLine
 10
195
 20
24.7889
 30
0.0999999
 11
195
 21
24.9
 31
0.0999999
  0
LINE
  5
A79
330
A02
100
AcDbEntity
  8
Mesh_cs003
100
AcDbLine
 10
195
 20
24.9
 30
0.0999999
 11
195.02
 21
25.3391
 31
0.0999999
  0
LINE
  5
A7A
330
A02
100
AcDbEntity
  8
Mesh_cs003
100
AcDbLine
 10
195.02
 20
25.3391
 30
0.0999999
 11
195.079
 21
25.7838
 31
0.0999999
  0
LINE
  5
A7B
330
A02
100
AcDbEntity
  8
Mesh_cs003
100
AcDbLine
 10
195.079
 20
25.7838
 30
0.0999999
 11
195.177
 21
26.2173
 31
0.0999999
  0
LINE
  5
A7C
330
A02
100
AcDbEntity
  8
Mesh_cs003
100
AcDbLine
 10
195.177
 20
26.2173
 30
0.0999999
 11
195.313
 21
26.6405
 31
0.0999999
  0
LINE
  5
A7D
330
A02
100
AcDbEntity
  8
Mesh_cs003
100
AcDbLine
 10
195.313
 20
26.6405
 30
0.0999999
 11
195.486
 21
27.0498
 31
0.0999999
  0
LINE
  5
A7E
330
A02
100
AcDbEntity
  8
Mesh_cs003
100
AcDbLine
 10
195.486
 20
27.0498
 30
0.0999999
 11
195.694
 21
27.4422
 31
0.0999999
  0
LINE
  5
A7F
330
A02
100
AcDbEntity
  8
Mesh_cs003
100
AcDbLine
 10
195.694
 20
27.4422
 30
0.0999999
 11
195.936
 21
27.8132
 31
0.0999999
  0
LINE
  5
A80
330
A02
100
AcDbEntity
  8
Mesh_cs003
100
AcDbLine
 10
195.936
 20
27.8132
 30
0.0999999
 11
195.94
 21
27.8475
 31
0.0999999
  0
LINE
  5
A81
330
A02
100
AcDbEntity
  8
Mesh_cs003
100
AcDbLine
 10
195.94
 20
27.8475
 30
0.0999999
 11
196.219
 21
31.7039
 31
0.0999999
  0
LINE
  5
A82
330
A02
100
AcDbEntity
  8
Mesh_cs003
100
AcDbLine
 10
196.219
 20
31.7039
 30
0.0999999
 11
196.534
 21
35.5575
 31
0.0999999
  0
LINE
  5
A83
330
A02
100
AcDbEntity
  8
Mesh_cs003
100
AcDbLine
 10
196.534
 20
35.5575
 30
0.0999999
 11
196.536
 21
35.5899
 31
0.0999999
  0
LINE
  5
A84
330
A02
100
AcDbEntity
  8
Mesh_cs003
100
AcDbLine
 10
196.536
 20
35.5899
 30
0.0999999
 11
196.539
 21
35.6223
 31
0.0999999
  0
LINE
  5
A85
330
A02
100
AcDbEntity
  8
Mesh_cs003
100
AcDbLine
 10
196.539
 20
35.6223
 30
0.0999999
 11
196.891
 21
39.4727
 31
0.0999999
  0
LINE
  5
A86
330
A02
100
AcDbEntity
  8
Mesh_cs003
100
AcDbLine
 10
196.891
 20
39.4727
 30
0.0999999
 11
197.278
 21
43.3197
 31
0.0999999
  0
LINE
  5
A87
330
A02
100
AcDbEntity
  8
Mesh_cs003
100
AcDbLine
 10
197.278
 20
43.3197
 30
0.0999999
 11
197.282
 21
43.3521
 31
0.0999999
  0
LINE
  5
A88
330
A02
100
AcDbEntity
  8
Mesh_cs003
100
AcDbLine
 10
197.282
 20
43.3521
 30
0.0999999
 11
197.285
 21
43.3844
 31
0.0999999
  0
LINE
  5
A89
330
A02
100
AcDbEntity
  8
Mesh_cs003
100
AcDbLine
 10
197.285
 20
43.3844
 30
0.0999999
 11
197.709
 21
47.2275
 31
0.0999999
  0
LINE
  5
A8A
330
A02
100
AcDbEntity
  8
Mesh_cs003
100
AcDbLine
 10
197.709
 20
47.2275
 30
0.0999999
 11
198.169
 21
51.0665
 31
0.0999999
  0
LINE
  5
A8B
330
A02
100
AcDbEntity
  8
Mesh_cs003
100
AcDbLine
 10
198.169
 20
51.0665
 30
0.0999999
 11
198.173
 21
51.0988
 31
0.0999999
  0
LINE
  5
A8C
330
A02
100
AcDbEntity
  8
Mesh_cs003
100
AcDbLine
 10
198.173
 20
51.0988
 30
0.0999999
 11
198.177
 21
51.131
 31
0.0999999
  0
LINE
  5
A8D
330
A02
100
AcDbEntity
  8
Mesh_cs003
100
AcDbLine
 10
198.177
 20
51.131
 30
0.0999999
 11
198.674
 21
54.9655
 31
0.0999999
  0
LINE
  5
A8E
330
A02
100
AcDbEntity
  8
Mesh_cs003
100
AcDbLine
 10
198.674
 20
54.9655
 30
0.0999999
 11
198.678
 21
54.9977
 31
0.0999999
  0
LINE
  5
A8F
330
A02
100
AcDbEntity
  8
Mesh_cs003
100
AcDbLine
 10
198.678
 20
54.9977
 30
0.0999999
 11
199.211
 21
58.8273
 31
0.0999999
  0
LINE
  5
A90
330
A02
100
AcDbEntity
  8
Mesh_cs003
100
AcDbLine
 10
199.211
 20
58.8273
 30
0.0999999
 11
199.78
 21
62.6517
 31
0.0999999
  0
LINE
  5
A91
330
A02
100
AcDbEntity
  8
Mesh_cs003
100
AcDbLine
 10
199.78
 20
62.6517
 30
0.0999999
 11
199.785
 21
62.6838
 31
0.0999999
  0
LINE
  5
A92
330
A02
100
AcDbEntity
  8
Mesh_cs003
100
AcDbLine
 10
199.785
 20
62.6838
 30
0.0999999
 11
200.389
 21
66.5027
 31
0.0999999
  0
LINE
  5
A93
330
A02
100
AcDbEntity
  8
Mesh_cs003
100
AcDbLine
 10
200.389
 20
66.5027
 30
0.0999999
 11
200.394
 21
66.5348
 31
0.0999999
  0
LINE
  5
A94
330
A02
100
AcDbEntity
  8
Mesh_cs003
100
AcDbLine
 10
200.394
 20
66.5348
 30
0.0999999
 11
200.4
 21
66.5668
 31
0.0999999
  0
LINE
  5
A95
330
A02
100
AcDbEntity
  8
Mesh_cs003
100
AcDbLine
 10
200.4
 20
66.5668
 30
0.0999999
 11
201.041
 21
70.3798
 31
0.0999999
  0
LINE
  5
A96
330
A02
100
AcDbEntity
  8
Mesh_cs003
100
AcDbLine
 10
201.041
 20
70.3798
 30
0.0999999
 11
201.718
 21
74.1866
 31
0.0999999
  0
LINE
  5
A97
330
A02
100
AcDbEntity
  8
Mesh_cs003
100
AcDbLine
 10
201.718
 20
74.1866
 30
0.0999999
 11
201.723
 21
74.2186
 31
0.0999999
  0
LINE
  5
A98
330
A02
100
AcDbEntity
  8
Mesh_cs003
100
AcDbLine
 10
201.723
 20
74.2186
 30
0.0999999
 11
202.436
 21
78.0188
 31
0.0999999
  0
LINE
  5
A99
330
A02
100
AcDbEntity
  8
Mesh_cs003
100
AcDbLine
 10
202.436
 20
78.0188
 30
0.0999999
 11
202.442
 21
78.0508
 31
0.0999999
  0
LINE
  5
A9A
330
A02
100
AcDbEntity
  8
Mesh_cs003
100
AcDbLine
 10
202.442
 20
78.0508
 30
0.0999999
 11
203.191
 21
81.8441
 31
0.0999999
  0
LINE
  5
A9B
330
A02
100
AcDbEntity
  8
Mesh_cs003
100
AcDbLine
 10
203.191
 20
81.8441
 30
0.0999999
 11
203.197
 21
81.876
 31
0.0999999
  0
LINE
  5
A9C
330
A02
100
AcDbEntity
  8
Mesh_cs003
100
AcDbLine
 10
203.197
 20
81.876
 30
0.0999999
 11
203.981
 21
85.662
 31
0.0999999
  0
LINE
  5
A9D
330
A02
100
AcDbEntity
  8
Mesh_cs003
100
AcDbLine
 10
203.981
 20
85.662
 30
0.0999999
 11
203.988
 21
85.6939
 31
0.0999999
  0
LINE
  5
A9E
330
A02
100
AcDbEntity
  8
Mesh_cs003
100
AcDbLine
 10
203.988
 20
85.6939
 30
0.0999999
 11
204.808
 21
89.4724
 31
0.0999999
  0
LINE
  5
A9F
330
A02
100
AcDbEntity
  8
Mesh_cs003
100
AcDbLine
 10
204.808
 20
89.4724
 30
0.0999999
 11
204.815
 21
89.5041
 31
0.0999999
  0
LINE
  5
AA0
330
A02
100
AcDbEntity
  8
Mesh_cs003
100
AcDbLine
 10
204.815
 20
89.5041
 30
0.0999999
 11
205.67
 21
93.2747
 31
0.0999999
  0
LINE
  5
AA1
330
A02
100
AcDbEntity
  8
Mesh_cs003
100
AcDbLine
 10
205.67
 20
93.2747
 30
0.0999999
 11
205.678
 21
93.3064
 31
0.0999999
  0
LINE
  5
AA2
330
A02
100
AcDbEntity
  8
Mesh_cs003
100
AcDbLine
 10
205.678
 20
93.3064
 30
0.0999999
 11
206.569
 21
97.0688
 31
0.0999999
  0
LINE
  5
AA3
330
A02
100
AcDbEntity
  8
Mesh_cs003
100
AcDbLine
 10
206.569
 20
97.0688
 30
0.0999999
 11
206.576
 21
97.1004
 31
0.0999999
  0
LINE
  5
AA4
330
A02
100
AcDbEntity
  8
Mesh_cs003
100
AcDbLine
 10
206.576
 20
97.1004
 30
0.0999999
 11
207.503
 21
100.854
 31
0.0999999
  0
LINE
  5
AA5
330
A02
100
AcDbEntity
  8
Mesh_cs003
100
AcDbLine
 10
207.503
 20
100.854
 30
0.0999999
 11
207.511
 21
100.886
 31
0.0999999
  0
LINE
  5
AA6
330
A02
100
AcDbEntity
  8
Mesh_cs003
100
AcDbLine
 10
207.511
 20
100.886
 30
0.0999999
 11
207.509
 21
100.891
 31
0.0999999
  0
LINE
  5
AA7
330
A02
100
AcDbEntity
  8
Mesh_cs003
100
AcDbLine
 10
207.509
 20
100.891
 30
0.0999999
 11
207.502
 21
100.922
 31
0.1
  0
LINE
  5
AA8
330
A02
100
AcDbEntity
  8
Mesh_cs003
100
AcDbLine
 10
207.502
 20
100.922
 30
0.1
 11
207.499
 21
100.931
 31
0.1
  0
LINE
  5
AA9
330
A02
100
AcDbEntity
  8
Mesh_cs003
100
AcDbLine
 10
207.499
 20
100.931
 30
0.1
 11
207.429
 21
101.174
 31
0.1
  0
LINE
  5
AAA
330
A02
100
AcDbEntity
  8
Mesh_cs003
100
AcDbLine
 10
207.429
 20
101.174
 30
0.1
 11
207.373
 21
101.421
 31
0.1
  0
LINE
  5
AAB
330
A02
100
AcDbEntity
  8
Mesh_cs003
100
AcDbLine
 10
207.373
 20
101.421
 30
0.1
 11
207.356
 21
101.528
 31
0.1
  0
LINE
  5
AAC
330
A02
100
AcDbEntity
  8
Mesh_cs003
100
AcDbLine
 10
207.356
 20
101.528
 30
0.1
 11
207.35
 21
101.572
 31
0.1
  0
LINE
  5
AAD
330
A02
100
AcDbEntity
  8
Mesh_cs003
100
AcDbLine
 10
207.35
 20
101.572
 30
0.1
 11
207.303
 21
101.881
 31
0.1
  0
LINE
  5
AAE
330
A02
100
AcDbEntity
  8
Mesh_cs003
100
AcDbLine
 10
207.303
 20
101.881
 30
0.1
 11
207.296
 21
101.971
 31
0.1
  0
LINE
  5
AAF
330
A02
100
AcDbEntity
  8
Mesh_cs003
100
AcDbLine
 10
207.296
 20
101.971
 30
0.1
 11
207.277
 21
102.283
 31
0.1
  0
LINE
  5
AB0
330
A02
100
AcDbEntity
  8
Mesh_cs003
100
AcDbLine
 10
207.277
 20
102.283
 30
0.1
 11
207.276
 21
102.355
 31
0.1
  0
LINE
  5
AB1
330
A02
100
AcDbEntity
  8
Mesh_cs003
100
AcDbLine
 10
207.276
 20
102.355
 30
0.1
 11
207.283
 21
102.525
 31
0.1
  0
LINE
  5
AB2
330
A02
100
AcDbEntity
  8
Mesh_cs003
100
AcDbLine
 10
207.283
 20
102.525
 30
0.1
 11
207.291
 21
102.793
 31
0.1
  0
LINE
  5
AB3
330
A02
100
AcDbEntity
  8
Mesh_cs003
100
AcDbLine
 10
207.291
 20
102.793
 30
0.1
 11
207.318
 21
103.033
 31
0.1
  0
LINE
  5
AB4
330
A02
100
AcDbEntity
  8
Mesh_cs003
100
AcDbLine
 10
207.318
 20
103.033
 30
0.1
 11
207.332
 21
103.154
 31
0.1
  0
LINE
  5
AB5
330
A02
100
AcDbEntity
  8
Mesh_cs003
100
AcDbLine
 10
207.332
 20
103.154
 30
0.1
 11
207.341
 21
103.207
 31
0.1
  0
LINE
  5
AB6
330
A02
100
AcDbEntity
  8
Mesh_cs003
100
AcDbLine
 10
207.341
 20
103.207
 30
0.1
 11
207.403
 21
103.523
 31
0.1
  0
LINE
  5
AB7
330
A02
100
AcDbEntity
  8
Mesh_cs003
100
AcDbLine
 10
207.403
 20
103.523
 30
0.1
 11
207.415
 21
103.576
 31
0.1
  0
LINE
  5
AB8
330
A02
100
AcDbEntity
  8
Mesh_cs003
100
AcDbLine
 10
207.415
 20
103.576
 30
0.1
 11
207.495
 21
103.86
 31
0.1
  0
LINE
  5
AB9
330
A02
100
AcDbEntity
  8
Mesh_cs003
100
AcDbLine
 10
207.495
 20
103.86
 30
0.1
 11
207.51
 21
103.91
 31
0.1
  0
LINE
  5
ABA
330
A02
100
AcDbEntity
  8
Mesh_cs003
100
AcDbLine
 10
207.51
 20
103.91
 30
0.1
 11
207.516
 21
103.935
 31
0.1
  0
LINE
  5
ABB
330
A02
100
AcDbEntity
  8
Mesh_cs003
100
AcDbLine
 10
207.516
 20
103.935
 30
0.1
 11
207.52
 21
103.948
 31
0.0999999
  0
ENDSEC
  0
SECTION
  2
OBJECTS
  0
DICTIONARY
  5
F000
330
0
100
AcDbDictionary
  3
ACAD_GROUP
350
F001
  0
DICTIONARY
  5
F001
330
F000
100
AcDbDictionary
  0
ENDSEC
  0
EOF