999
FreeCAD v0.21 33771 (Git)
  0
SECTION
  2
HEADER
  9
$ACADVER
  1
AC1014
  9
$ACADMAINTVER
 70
     9
  9
$DWGCODEPAGE
  3
ANSI_1252
  9
$TEXTSTYLE
  7
STANDARD
  9
$DIMSTYLE
  2
STANDARD
  9
$DIMTXSTY
  7
STANDARD
  9
$CMLSTYLE
  2
STANDARD
  9
$LUNITS
 70
2
  9
$INSUNITS
 70
4
  9
$PEXTMAX
 10
50
 20
50
 30
50
  9
$PEXTMIN
 10
0
 20
0
 30
0
  9
$HANDSEED
  5
FFFF
  0
ENDSEC
  0
SECTION
  2
CLASSES
  0
CLASS
  1
ACDBDICTIONARYWDFLT
  2
AcDbDictionaryWithDefault
  3
ObjectDBX Classes
 90
        0
280
     0
281
     0
  0
CLASS
  1
XRECORD
  2
AcDbXrecord
  3
ObjectDBX Classes
 90
        0
280
     0
281
     0
  0
CLASS
  1
LWPOLYLINE
  2
AcDbPolyline
  3
ObjectDBX Classes
 90
        0
280
     0
281
     1
  0
ENDSEC
  0
SECTION
  2
TABLES
  0
TABLE
  2
VPORT
  5
20
330
0
100
AcDbSymbolTable
 70
     1
  0
VPORT
  5
21
330
20
100
AcDbSymbolTableRecord
100
AcDbViewportTableRecord
  2
*ACTIVE
 70
     0
  0
ENDTAB
  0
TABLE
  2
LTYPE
  5
22
330
0
100
AcDbSymbolTable
 70
     1
  0
LTYPE
  5
23
330
21
100
AcDbSymbolTableRecord
100
AcDbLinetypeTableRecord
  2
BYBLOCK
 70
     0
  3

 72
    65
 73
     0
 40
0.0
  0
LTYPE
  5
24
330
21
100
AcDbSymbolTableRecord
100
AcDbLinetypeTableRecord
  2
BYLAYER
 70
     0
  3

 72
    65
 73
     0
 40
0.0
  0
LTYPE
  5
25
330
21
100
AcDbSymbolTableRecord
100
AcDbLinetypeTableRecord
  2
CONTINUOUS
 70
     0
  3
Solid line
 72
    65
 73
     0
 40
0.0
  0
ENDTAB
  0
TABLE
  2
LAYER
  5
AAA
330
0
100
AcDbSymbolTable
 70
3
  0
LAYER
  5
AAB
330
AAA
100
AcDbSymbolTableRecord
100
AcDbLayerTableRecord
  2
0
 70
   0
 62
   7
  6
CONTINUOUS
  0
LAYER
  5
AAC
330
AAA
100
AcDbSymbolTableRecord
100
AcDbLayerTableRecord
  2
none
 70
    0
 62
    7
  6
CONTINUOUS
  0
LAYER
  5
AAD
330
AAA
100
AcDbSymbolTableRecord
100
AcDbLayerTableRecord
  2
Mesh_cs003
 70
    0
 62
    7
  6
CONTINUOUS
  0
ENDTAB
  0
TABLE
  2
STYLE
  5
70
330
0
100
AcDbSymbolTable
 70
     2
  0
STYLE
  5
71
330
70
100
AcDbSymbolTableRecord
100
AcDbTextStyleTableRecord
  2
STANDARD
 70
     0
 40
0.0
 41
1.0
 50
0.0
 71
     0
 42
2.5
  3
arial.ttf
  4

  0
STYLE
  5
72
330
70
100
AcDbSymbolTableRecord
100
AcDbTextStyleTableRecord
  2
ANNOTATIVE
 70
     0
 40
0.0
 41
1.0
 50
0.0
 71
     0
 42
2.5
  3
arial.ttf
  4

  0
ENDTAB
  0
TABLE
  2
VIEW
  5
73
330
0
100
AcDbSymbolTable
 70
     0
  0
ENDTAB
  0
TABLE
  2
UCS
  5
74
330
0
100
AcDbSymbolTable
 70
     0
  0
ENDTAB
  0
TABLE
  2
APPID
  5
75
330
0
100
AcDbSymbolTable
 70
     2
  0
APPID
  5
76
330
75
100
AcDbSymbolTableRecord
100
AcDbRegAppTableRecord
  2
ACAD
 70
     0
  0
APPID
  5
77
330
75
100
AcDbSymbolTableRecord
100
AcDbRegAppTableRecord
  2
ACADANNOTATIVE
 70
     0
  0
ENDTAB
  0
TABLE
  2
DIMSTYLE
  5
78
330
0
100
AcDbSymbolTable
 70
     2
  0
DIMSTYLE
105
79
330
78
100
AcDbSymbolTableRecord
100
AcDbDimStyleTableRecord
  2
STANDARD
 70
     0
  3

  4

  5

  6

  7

 40
0.0
 41
2.5
 42
0.625
 43
3.75
 44
1.25
 45
0.0
 46
0.0
 47
0.0
 48
0.0
140
2.5
141
2.5
142
0.0
143
0.03937007874016
144
1.0
145
0.0
146
1.0
147
0.625
 71
     0
 72
     0
 73
     0
 74
     0
 75
     0
 76
     0
 77
     1
 78
     8
170
     0
171
     3
172
     1
173
     0
174
     0
175
     0
176
     0
177
     0
178
     0
270
     2
271
     2
272
     2
273
     2
274
     3
340
71
275
     0
280
     0
281
     0
282
     0
283
     0
284
     8
285
     0
286
     0
287
     3
288
     0
  0
ENDTAB
  0
TABLE
  2
BLOCK_RECORD
  5
A01
330
0
100
AcDbSymbolTable
  70
5
  0
BLOCK_RECORD
  5
A02
330
A01
100
AcDbSymbolTableRecord
100
AcDbBlockTableRecord
  2
*MODEL_SPACE
  0
BLOCK_RECORD
  5
A03
330
A01
100
AcDbSymbolTableRecord
100
AcDbBlockTableRecord
  2
*PAPER_SPACE
  0
ENDTAB
  0
ENDSEC
  0
SECTION
  2
BLOCKS
  0
BLOCK
  5
A04
330
A02
100
AcDbEntity
  8
0
100
AcDbBlockBegin
  2
*MODEL_SPACE
 70
   0
 10
0
 20
0
 30
0
  3
*MODEL_SPACE
  1
 
  0
ENDBLK
  5
A05
330
A02
100
AcDbEntity
  8
0
100
AcDbBlockEnd
  0
BLOCK
  5
A06
330
A03
100
AcDbEntity
 67
1
  8
0
100
AcDbBlockBegin
  2
*PAPER_SPACE
 70
   0
 10
0
 20
0
 30
0
  3
*PAPER_SPACE
  1
 
  0
ENDBLK
  5
A07
330
A03
100
AcDbEntity
 67
    1
  8
0
100
AcDbBlockEnd
  0
ENDSEC
  0
SECTION
  2
ENTITIES
  0
LINE
  5
A08
330
A02
100
AcDbEntity
  8
Mesh_cs003
100
AcDbLine
 10
212.242
 20
118.09
 30
0.0999999
 11
212.233
 21
118.058
 31
0.0999999
  0
LINE
  5
A09
330
A02
100
AcDbEntity
  8
Mesh_cs003
100
AcDbLine
 10
212.233
 20
118.058
 30
0.0999999
 11
211.118
 21
114.255
 31
0.0999999
  0
LINE
  5
A0A
330
A02
100
AcDbEntity
  8
Mesh_cs003
100
AcDbLine
 10
211.118
 20
114.255
 30
0.0999999
 11
210.04
 21
110.441
 31
0.0999999
  0
LINE
  5
A0B
330
A02
100
AcDbEntity
  8
Mesh_cs003
100
AcDbLine
 10
210.04
 20
110.441
 30
0.0999999
 11
210.031
 21
110.409
 31
0.0999999
  0
LINE
  5
A0C
330
A02
100
AcDbEntity
  8
Mesh_cs003
100
AcDbLine
 10
210.031
 20
110.409
 30
0.0999999
 11
208.99
 21
106.584
 31
0.0999999
  0
LINE
  5
A0D
330
A02
100
AcDbEntity
  8
Mesh_cs003
100
AcDbLine
 10
208.99
 20
106.584
 30
0.0999999
 11
208.981
 21
106.552
 31
0.0999999
  0
LINE
  5
A0E
330
A02
100
AcDbEntity
  8
Mesh_cs003
100
AcDbLine
 10
208.981
 20
106.552
 30
0.0999999
 11
207.977
 21
102.718
 31
0.0999999
  0
LINE
  5
A0F
330
A02
100
AcDbEntity
  8
Mesh_cs003
100
AcDbLine
 10
207.977
 20
102.718
 30
0.0999999
 11
207.969
 21
102.686
 31
0.0999999
  0
LINE
  5
A10
330
A02
100
AcDbEntity
  8
Mesh_cs003
100
AcDbLine
 10
207.969
 20
102.686
 30
0.0999999
 11
207.002
 21
98.842
 31
0.0999999
  0
LINE
  5
A11
330
A02
100
AcDbEntity
  8
Mesh_cs003
100
AcDbLine
 10
207.002
 20
98.842
 30
0.0999999
 11
206.994
 21
98.8097
 31
0.0999999
  0
LINE
  5
A12
330
A02
100
AcDbEntity
  8
Mesh_cs003
100
AcDbLine
 10
206.994
 20
98.8097
 30
0.0999999
 11
206.064
 21
94.9569
 31
0.0999999
  0
LINE
  5
A13
330
A02
100
AcDbEntity
  8
Mesh_cs003
100
AcDbLine
 10
206.064
 20
94.9569
 30
0.0999999
 11
206.056
 21
94.9245
 31
0.0999999
  0
LINE
  5
A14
330
A02
100
AcDbEntity
  8
Mesh_cs003
100
AcDbLine
 10
206.056
 20
94.9245
 30
0.0999999
 11
205.164
 21
91.0628
 31
0.0999999
  0
LINE
  5
A15
330
A02
100
AcDbEntity
  8
Mesh_cs003
100
AcDbLine
 10
205.164
 20
91.0628
 30
0.0999999
 11
205.157
 21
91.0304
 31
0.0999999
  0
LINE
  5
A16
330
A02
100
AcDbEntity
  8
Mesh_cs003
100
AcDbLine
 10
205.157
 20
91.0304
 30
0.0999999
 11
204.302
 21
87.1602
 31
0.0999999
  0
LINE
  5
A17
330
A02
100
AcDbEntity
  8
Mesh_cs003
100
AcDbLine
 10
204.302
 20
87.1602
 30
0.0999999
 11
204.295
 21
87.1277
 31
0.0999999
  0
LINE
  5
A18
330
A02
100
AcDbEntity
  8
Mesh_cs003
100
AcDbLine
 10
204.295
 20
87.1277
 30
0.0999999
 11
203.477
 21
83.2495
 31
0.0999999
  0
LINE
  5
A19
330
A02
100
AcDbEntity
  8
Mesh_cs003
100
AcDbLine
 10
203.477
 20
83.2495
 30
0.0999999
 11
203.47
 21
83.2169
 31
0.0999999
  0
LINE
  5
A1A
330
A02
100
AcDbEntity
  8
Mesh_cs003
100
AcDbLine
 10
203.47
 20
83.2169
 30
0.0999999
 11
202.691
 21
79.3309
 31
0.0999999
  0
LINE
  5
A1B
330
A02
100
AcDbEntity
  8
Mesh_cs003
100
AcDbLine
 10
202.691
 20
79.3309
 30
0.0999999
 11
202.684
 21
79.2983
 31
0.0999999
  0
LINE
  5
A1C
330
A02
100
AcDbEntity
  8
Mesh_cs003
100
AcDbLine
 10
202.684
 20
79.2983
 30
0.0999999
 11
201.942
 21
75.405
 31
0.0999999
  0
LINE
  5
A1D
330
A02
100
AcDbEntity
  8
Mesh_cs003
100
AcDbLine
 10
201.942
 20
75.405
 30
0.0999999
 11
201.936
 21
75.3723
 31
0.0999999
  0
LINE
  5
A1E
330
A02
100
AcDbEntity
  8
Mesh_cs003
100
AcDbLine
 10
201.936
 20
75.3723
 30
0.0999999
 11
201.231
 21
71.4719
 31
0.0999999
  0
LINE
  5
A1F
330
A02
100
AcDbEntity
  8
Mesh_cs003
100
AcDbLine
 10
201.231
 20
71.4719
 30
0.0999999
 11
201.225
 21
71.4392
 31
0.0999999
  0
LINE
  5
A20
330
A02
100
AcDbEntity
  8
Mesh_cs003
100
AcDbLine
 10
201.225
 20
71.4392
 30
0.0999999
 11
200.559
 21
67.5322
 31
0.0999999
  0
LINE
  5
A21
330
A02
100
AcDbEntity
  8
Mesh_cs003
100
AcDbLine
 10
200.559
 20
67.5322
 30
0.0999999
 11
200.553
 21
67.4994
 31
0.0999999
  0
LINE
  5
A22
330
A02
100
AcDbEntity
  8
Mesh_cs003
100
AcDbLine
 10
200.553
 20
67.4994
 30
0.0999999
 11
199.924
 21
63.5862
 31
0.0999999
  0
LINE
  5
A23
330
A02
100
AcDbEntity
  8
Mesh_cs003
100
AcDbLine
 10
199.924
 20
63.5862
 30
0.0999999
 11
199.919
 21
63.5533
 31
0.0999999
  0
LINE
  5
A24
330
A02
100
AcDbEntity
  8
Mesh_cs003
100
AcDbLine
 10
199.919
 20
63.5533
 30
0.0999999
 11
199.328
 21
59.6342
 31
0.0999999
  0
LINE
  5
A25
330
A02
100
AcDbEntity
  8
Mesh_cs003
100
AcDbLine
 10
199.328
 20
59.6342
 30
0.0999999
 11
199.323
 21
59.6012
 31
0.0999999
  0
LINE
  5
A26
330
A02
100
AcDbEntity
  8
Mesh_cs003
100
AcDbLine
 10
199.323
 20
59.6012
 30
0.0999999
 11
198.77
 21
55.6766
 31
0.0999999
  0
LINE
  5
A27
330
A02
100
AcDbEntity
  8
Mesh_cs003
100
AcDbLine
 10
198.77
 20
55.6766
 30
0.0999999
 11
198.765
 21
55.6436
 31
0.0999999
  0
LINE
  5
A28
330
A02
100
AcDbEntity
  8
Mesh_cs003
100
AcDbLine
 10
198.765
 20
55.6436
 30
0.0999999
 11
198.25
 21
51.7138
 31
0.0999999
  0
LINE
  5
A29
330
A02
100
AcDbEntity
  8
Mesh_cs003
100
AcDbLine
 10
198.25
 20
51.7138
 30
0.0999999
 11
198.246
 21
51.6807
 31
0.0999999
  0
LINE
  5
A2A
330
A02
100
AcDbEntity
  8
Mesh_cs003
100
AcDbLine
 10
198.246
 20
51.6807
 30
0.0999999
 11
197.769
 21
47.7461
 31
0.0999999
  0
LINE
  5
A2B
330
A02
100
AcDbEntity
  8
Mesh_cs003
100
AcDbLine
 10
197.769
 20
47.7461
 30
0.0999999
 11
197.765
 21
47.7131
 31
0.0999999
  0
LINE
  5
A2C
330
A02
100
AcDbEntity
  8
Mesh_cs003
100
AcDbLine
 10
197.765
 20
47.7131
 30
0.0999999
 11
197.326
 21
43.774
 31
0.0999999
  0
LINE
  5
A2D
330
A02
100
AcDbEntity
  8
Mesh_cs003
100
AcDbLine
 10
197.326
 20
43.774
 30
0.0999999
 11
197.323
 21
43.7409
 31
0.0999999
  0
LINE
  5
A2E
330
A02
100
AcDbEntity
  8
Mesh_cs003
100
AcDbLine
 10
197.323
 20
43.7409
 30
0.0999999
 11
196.922
 21
39.7978
 31
0.0999999
  0
LINE
  5
A2F
330
A02
100
AcDbEntity
  8
Mesh_cs003
100
AcDbLine
 10
196.922
 20
39.7978
 30
0.0999999
 11
196.919
 21
39.7647
 31
0.0999999
  0
LINE
  5
A30
330
A02
100
AcDbEntity
  8
Mesh_cs003
100
AcDbLine
 10
196.919
 20
39.7647
 30
0.0999999
 11
196.556
 21
35.8179
 31
0.0999999
  0
LINE
  5
A31
330
A02
100
AcDbEntity
  8
Mesh_cs003
100
AcDbLine
 10
196.556
 20
35.8179
 30
0.0999999
 11
196.553
 21
35.7847
 31
0.0999999
  0
LINE
  5
A32
330
A02
100
AcDbEntity
  8
Mesh_cs003
100
AcDbLine
 10
196.553
 20
35.7847
 30
0.0999999
 11
196.229
 21
31.8346
 31
0.0999999
  0
LINE
  5
A33
330
A02
100
AcDbEntity
  8
Mesh_cs003
100
AcDbLine
 10
196.229
 20
31.8346
 30
0.0999999
 11
196.226
 21
31.8014
 31
0.0999999
  0
LINE
  5
A34
330
A02
100
AcDbEntity
  8
Mesh_cs003
100
AcDbLine
 10
196.226
 20
31.8014
 30
0.0999999
 11
196.224
 21
31.7681
 31
0.0999999
  0
LINE
  5
A35
330
A02
100
AcDbEntity
  8
Mesh_cs003
100
AcDbLine
 10
196.224
 20
31.7681
 30
0.0999999
 11
195.938
 21
27.8151
 31
0.0999999
  0
LINE
  5
A36
330
A02
100
AcDbEntity
  8
Mesh_cs003
100
AcDbLine
 10
195.938
 20
27.8151
 30
0.0999999
 11
195.695
 21
27.4428
 31
0.0999999
  0
LINE
  5
A37
330
A02
100
AcDbEntity
  8
Mesh_cs003
100
AcDbLine
 10
195.695
 20
27.4428
 30
0.0999999
 11
195.485
 21
27.047
 31
0.0999999
  0
LINE
  5
A38
330
A02
100
AcDbEntity
  8
Mesh_cs003
100
AcDbLine
 10
195.485
 20
27.047
 30
0.0999999
 11
195.313
 21
26.6411
 31
0.0999999
  0
LINE
  5
A39
330
A02
100
AcDbEntity
  8
Mesh_cs003
100
AcDbLine
 10
195.313
 20
26.6411
 30
0.0999999
 11
195.177
 21
26.218
 31
0.0999999
  0
LINE
  5
A3A
330
A02
100
AcDbEntity
  8
Mesh_cs003
100
AcDbLine
 10
195.177
 20
26.218
 30
0.0999999
 11
195.079
 21
25.7845
 31
0.0999999
  0
LINE
  5
A3B
330
A02
100
AcDbEntity
  8
Mesh_cs003
100
AcDbLine
 10
195.079
 20
25.7845
 30
0.0999999
 11
195.02
 21
25.3391
 31
0.0999999
  0
LINE
  5
A3C
330
A02
100
AcDbEntity
  8
Mesh_cs003
100
AcDbLine
 10
195.02
 20
25.3391
 30
0.0999999
 11
195
 21
24.9
 31
0.0999999
  0
LINE
  5
A3D
330
A02
100
AcDbEntity
  8
Mesh_cs003
100
AcDbLine
 10
195
 20
24.9
 30
0.0999999
 11
195
 21
24.7889
 31
0.0999999
  0
LINE
  5
A3E
330
A02
100
AcDbEntity
  8
Mesh_cs003
100
AcDbLine
 10
195
 20
24.7889
 30
0.0999999
 11
195
 21
0.165555
 31
0.0999999
  0
LINE
  5
A3F
330
A02
100
AcDbEntity
  8
Mesh_cs003
100
AcDbLine
 10
195
 20
0.165555
 30
0.0999999
 11
195
 21
5.0987e-14
 31
0.0999999
  0
LINE
  5
A40
330
A02
100
AcDbEntity
  8
Mesh_cs003
100
AcDbLine
 10
195
 20
5.1e-14
 30
0.0999999
 11
194.834
 21
5.1e-14
 31
0.0999999
  0
LINE
  5
A41
330
A02
100
AcDbEntity
  8
Mesh_cs003
100
AcDbLine
 10
194.834
 20
5.1e-14
 30
0.0999999
 11
194.723
 21
5.09444e-14
 31
0.0999999
  0
LINE
  5
A42
330
A02
100
AcDbEntity
  8
Mesh_cs003
100
AcDbLine
 10
194.723
 20
5.09444e-14
 30
0.0999999
 11
194.273
 21
5.10818e-14
 31
0.0999999
  0
LINE
  5
A43
330
A02
100
AcDbEntity
  8
Mesh_cs003
100
AcDbLine
 10
194.273
 20
5.10818e-14
 30
0.0999999
 11
193.955
 21
5.05364e-14
 31
0.0999999
  0
LINE
  5
A44
330
A02
100
AcDbEntity
  8
Mesh_cs003
100
AcDbLine
 10
193.955
 20
5.05364e-14
 30
0.0999999
 11
193.11
 21
5.09889e-14
 31
0.0999999
  0
LINE
  5
A45
330
A02
100
AcDbEntity
  8
Mesh_cs003
100
AcDbLine
 10
193.11
 20
5.09889e-14
 30
0.0999999
 11
0.276667
 21
5.39556e-14
 31
0.0999999
  0
LINE
  5
A46
330
A02
100
AcDbEntity
  8
Mesh_cs003
100
AcDbLine
 10
0.276667
 20
5.39556e-14
 30
0.0999999
 11
0.165555
 21
5.39667e-14
 31
0.0999999
  0
LINE
  5
A47
330
A02
100
AcDbEntity
  8
Mesh_cs003
100
AcDbLine
 10
0.165555
 20
5.39667e-14
 30
0.0999999
 11
0
 21
5.4e-14
 31
0.0999999
  0
LINE
  5
A48
330
A02
100
AcDbEntity
  8
Mesh_cs003
100
AcDbLine
 10
0
 20
5.4e-14
 30
0.0999999
 11
0
 21
0.165555
 31
0.0999999
  0
LINE
  5
A49
330
A02
100
AcDbEntity
  8
Mesh_cs003
100
AcDbLine
 10
0
 20
0.165555
 30
0.0999999
 11
0
 21
0.276667
 31
0.0999999
  0
LINE
  5
A4A
330
A02
100
AcDbEntity
  8
Mesh_cs003
100
AcDbLine
 10
0
 20
0.276667
 30
0.0999999
 11
1.11111e-17
 21
3.05748
 31
0.0999999
  0
LINE
  5
A4B
330
A02
100
AcDbEntity
  8
Mesh_cs003
100
AcDbLine
 10
1.11111e-17
 20
3.05748
 30
0.0999999
 11
1.11111e-17
 21
299.797
 31
0.0999999
  0
LINE
  5
A4C
330
A02
100
AcDbEntity
  8
Mesh_cs003
100
AcDbLine
 10
1.11111e-17
 20
299.797
 30
0.0999999
 11
-2.22221e-17
 21
299.909
 31
0.0999999
  0
LINE
  5
A4D
330
A02
100
AcDbEntity
  8
Mesh_cs003
100
AcDbLine
 10
-2.22221e-17
 20
299.909
 30
0.0999999
 11
0
 21
300.074
 31
0.0999999
  0
LINE
  5
A4E
330
A02
100
AcDbEntity
  8
Mesh_cs003
100
AcDbLine
 10
0
 20
300.074
 30
0.0999999
 11
0.165555
 21
300.074
 31
0.0999999
  0
LINE
  5
A4F
330
A02
100
AcDbEntity
  8
Mesh_cs003
100
AcDbLine
 10
0.165555
 20
300.074
 30
0.0999999
 11
0.276667
 21
300.074
 31
0.0999999
  0
LINE
  5
A50
330
A02
100
AcDbEntity
  8
Mesh_cs003
100
AcDbLine
 10
0.276667
 20
300.074
 30
0.0999999
 11
193.11
 21
300.074
 31
0.0999999
  0
LINE
  5
A51
330
A02
100
AcDbEntity
  8
Mesh_cs003
100
AcDbLine
 10
193.11
 20
300.074
 30
0.0999999
 11
193.955
 21
300.074
 31
0.0999999
  0
LINE
  5
A52
330
A02
100
AcDbEntity
  8
Mesh_cs003
100
AcDbLine
 10
193.955
 20
300.074
 30
0.0999999
 11
194.273
 21
300.074
 31
0.0999999
  0
LINE
  5
A53
330
A02
100
AcDbEntity
  8
Mesh_cs003
100
AcDbLine
 10
194.273
 20
300.074
 30
0.0999999
 11
194.805
 21
300.074
 31
0.0999999
  0
LINE
  5
A54
330
A02
100
AcDbEntity
  8
Mesh_cs003
100
AcDbLine
 10
194.805
 20
300.074
 30
0.0999999
 11
195
 21
300.074
 31
0.0999999
  0
LINE
  5
A55
330
A02
100
AcDbEntity
  8
Mesh_cs003
100
AcDbLine
 10
195
 20
300.074
 30
0.0999999
 11
195.129
 21
299.981
 31
0.0999999
  0
LINE
  5
A56
330
A02
100
AcDbEntity
  8
Mesh_cs003
100
AcDbLine
 10
195.129
 20
299.981
 30
0.0999999
 11
195.653
 21
299.6
 31
0.0999999
  0
LINE
  5
A57
330
A02
100
AcDbEntity
  8
Mesh_cs003
100
AcDbLine
 10
195.653
 20
299.6
 30
0.0999999
 11
273.655
 21
242.928
 31
0.0999999
  0
LINE
  5
A58
330
A02
100
AcDbEntity
  8
Mesh_cs003
100
AcDbLine
 10
273.655
 20
242.928
 30
0.0999999
 11
273.745
 21
242.862
 31
0.0999999
  0
LINE
  5
A59
330
A02
100
AcDbEntity
  8
Mesh_cs003
100
AcDbLine
 10
273.745
 20
242.862
 30
0.0999999
 11
273.879
 21
242.765
 31
0.0999999
  0
LINE
  5
A5A
330
A02
100
AcDbEntity
  8
Mesh_cs003
100
AcDbLine
 10
273.879
 20
242.765
 30
0.0999999
 11
273.782
 21
242.631
 31
0.0999999
  0
LINE
  5
A5B
330
A02
100
AcDbEntity
  8
Mesh_cs003
100
AcDbLine
 10
273.782
 20
242.631
 30
0.0999999
 11
259.309
 21
222.71
 31
0.0999999
  0
LINE
  5
A5C
330
A02
100
AcDbEntity
  8
Mesh_cs003
100
AcDbLine
 10
259.309
 20
222.71
 30
0.0999999
 11
259.243
 21
222.621
 31
0.0999999
  0
LINE
  5
A5D
330
A02
100
AcDbEntity
  8
Mesh_cs003
100
AcDbLine
 10
259.243
 20
222.621
 30
0.0999999
 11
259.222
 21
222.587
 31
0.1
  0
LINE
  5
A5E
330
A02
100
AcDbEntity
  8
Mesh_cs003
100
AcDbLine
 10
259.222
 20
222.587
 30
0.1
 11
259.192
 21
222.545
 31
0.1
  0
LINE
  5
A5F
330
A02
100
AcDbEntity
  8
Mesh_cs003
100
AcDbLine
 10
259.192
 20
222.545
 30
0.1
 11
259.028
 21
222.299
 31
0.1
  0
LINE
  5
A60
330
A02
100
AcDbEntity
  8
Mesh_cs003
100
AcDbLine
 10
259.028
 20
222.299
 30
0.1
 11
259.001
 21
222.253
 31
0.1
  0
LINE
  5
A61
330
A02
100
AcDbEntity
  8
Mesh_cs003
100
AcDbLine
 10
259.001
 20
222.253
 30
0.1
 11
258.844
 21
221.971
 31
0.1
  0
LINE
  5
A62
330
A02
100
AcDbEntity
  8
Mesh_cs003
100
AcDbLine
 10
258.844
 20
221.971
 30
0.1
 11
258.819
 21
221.923
 31
0.1
  0
LINE
  5
A63
330
A02
100
AcDbEntity
  8
Mesh_cs003
100
AcDbLine
 10
258.819
 20
221.923
 30
0.1
 11
258.768
 21
221.813
 31
0.1
  0
LINE
  5
A64
330
A02
100
AcDbEntity
  8
Mesh_cs003
100
AcDbLine
 10
258.768
 20
221.813
 30
0.1
 11
258.668
 21
221.593
 31
0.1
  0
LINE
  5
A65
330
A02
100
AcDbEntity
  8
Mesh_cs003
100
AcDbLine
 10
258.668
 20
221.593
 30
0.1
 11
258.578
 21
221.34
 31
0.1
  0
LINE
  5
A66
330
A02
100
AcDbEntity
  8
Mesh_cs003
100
AcDbLine
 10
258.578
 20
221.34
 30
0.1
 11
258.519
 21
221.181
 31
0.1
  0
LINE
  5
A67
330
A02
100
AcDbEntity
  8
Mesh_cs003
100
AcDbLine
 10
258.519
 20
221.181
 30
0.1
 11
258.498
 21
221.112
 31
0.1
  0
LINE
  5
A68
330
A02
100
AcDbEntity
  8
Mesh_cs003
100
AcDbLine
 10
258.498
 20
221.112
 30
0.1
 11
258.42
 21
220.809
 31
0.1
  0
LINE
  5
A69
330
A02
100
AcDbEntity
  8
Mesh_cs003
100
AcDbLine
 10
258.42
 20
220.809
 30
0.1
 11
258.398
 21
220.723
 31
0.1
  0
LINE
  5
A6A
330
A02
100
AcDbEntity
  8
Mesh_cs003
100
AcDbLine
 10
258.398
 20
220.723
 30
0.1
 11
258.347
 21
220.414
 31
0.1
  0
LINE
  5
A6B
330
A02
100
AcDbEntity
  8
Mesh_cs003
100
AcDbLine
 10
258.347
 20
220.414
 30
0.1
 11
258.34
 21
220.37
 31
0.1
  0
LINE
  5
A6C
330
A02
100
AcDbEntity
  8
Mesh_cs003
100
AcDbLine
 10
258.34
 20
220.37
 30
0.1
 11
258.322
 21
220.263
 31
0.1
  0
LINE
  5
A6D
330
A02
100
AcDbEntity
  8
Mesh_cs003
100
AcDbLine
 10
258.322
 20
220.263
 30
0.1
 11
258.3
 21
220.011
 31
0.1
  0
LINE
  5
A6E
330
A02
100
AcDbEntity
  8
Mesh_cs003
100
AcDbLine
 10
258.3
 20
220.011
 30
0.1
 11
258.291
 21
219.758
 31
0.1
  0
LINE
  5
A6F
330
A02
100
AcDbEntity
  8
Mesh_cs003
100
AcDbLine
 10
258.291
 20
219.758
 30
0.1
 11
258.291
 21
219.748
 31
0.1
  0
LINE
  5
A70
330
A02
100
AcDbEntity
  8
Mesh_cs003
100
AcDbLine
 10
258.291
 20
219.748
 30
0.1
 11
258.289
 21
219.726
 31
0.1
  0
LINE
  5
A71
330
A02
100
AcDbEntity
  8
Mesh_cs003
100
AcDbLine
 10
258.289
 20
219.726
 30
0.1
 11
258.289
 21
219.716
 31
0.0999999
  0
LINE
  5
A72
330
A02
100
AcDbEntity
  8
Mesh_cs003
100
AcDbLine
 10
258.289
 20
219.716
 30
0.0999999
 11
256.196
 21
216.345
 31
0.0999999
  0
LINE
  5
A73
330
A02
100
AcDbEntity
  8
Mesh_cs003
100
AcDbLine
 10
256.196
 20
216.345
 30
0.0999999
 11
256.179
 21
216.317
 31
0.0999999
  0
LINE
  5
A74
330
A02
100
AcDbEntity
  8
Mesh_cs003
100
AcDbLine
 10
256.179
 20
216.317
 30
0.0999999
 11
256.161
 21
216.288
 31
0.0999999
  0
LINE
  5
A75
330
A02
100
AcDbEntity
  8
Mesh_cs003
100
AcDbLine
 10
256.161
 20
216.288
 30
0.0999999
 11
254.102
 21
212.902
 31
0.0999999
  0
LINE
  5
A76
330
A02
100
AcDbEntity
  8
Mesh_cs003
100
AcDbLine
 10
254.102
 20
212.902
 30
0.0999999
 11
252.075
 21
209.496
 31
0.0999999
  0
LINE
  5
A77
330
A02
100
AcDbEntity
  8
Mesh_cs003
100
AcDbLine
 10
252.075
 20
209.496
 30
0.0999999
 11
252.058
 21
209.467
 31
0.0999999
  0
LINE
  5
A78
330
A02
100
AcDbEntity
  8
Mesh_cs003
100
AcDbLine
 10
252.058
 20
209.467
 30
0.0999999
 11
252.042
 21
209.438
 31
0.0999999
  0
LINE
  5
A79
330
A02
100
AcDbEntity
  8
Mesh_cs003
100
AcDbLine
 10
252.042
 20
209.438
 30
0.0999999
 11
250.048
 21
206.013
 31
0.0999999
  0
LINE
  5
A7A
330
A02
100
AcDbEntity
  8
Mesh_cs003
100
AcDbLine
 10
250.048
 20
206.013
 30
0.0999999
 11
248.088
 21
202.568
 31
0.0999999
  0
LINE
  5
A7B
330
A02
100
AcDbEntity
  8
Mesh_cs003
100
AcDbLine
 10
248.088
 20
202.568
 30
0.0999999
 11
248.071
 21
202.539
 31
0.0999999
  0
LINE
  5
A7C
330
A02
100
AcDbEntity
  8
Mesh_cs003
100
AcDbLine
 10
248.071
 20
202.539
 30
0.0999999
 11
246.144
 21
199.076
 31
0.0999999
  0
LINE
  5
A7D
330
A02
100
AcDbEntity
  8
Mesh_cs003
100
AcDbLine
 10
246.144
 20
199.076
 30
0.0999999
 11
246.128
 21
199.046
 31
0.0999999
  0
LINE
  5
A7E
330
A02
100
AcDbEntity
  8
Mesh_cs003
100
AcDbLine
 10
246.128
 20
199.046
 30
0.0999999
 11
244.235
 21
195.564
 31
0.0999999
  0
LINE
  5
A7F
330
A02
100
AcDbEntity
  8
Mesh_cs003
100
AcDbLine
 10
244.235
 20
195.564
 30
0.0999999
 11
244.219
 21
195.535
 31
0.0999999
  0
LINE
  5
A80
330
A02
100
AcDbEntity
  8
Mesh_cs003
100
AcDbLine
 10
244.219
 20
195.535
 30
0.0999999
 11
242.359
 21
192.035
 31
0.0999999
  0
LINE
  5
A81
330
A02
100
AcDbEntity
  8
Mesh_cs003
100
AcDbLine
 10
242.359
 20
192.035
 30
0.0999999
 11
242.344
 21
192.006
 31
0.0999999
  0
LINE
  5
A82
330
A02
100
AcDbEntity
  8
Mesh_cs003
100
AcDbLine
 10
242.344
 20
192.006
 30
0.0999999
 11
240.518
 21
188.488
 31
0.0999999
  0
LINE
  5
A83
330
A02
100
AcDbEntity
  8
Mesh_cs003
100
AcDbLine
 10
240.518
 20
188.488
 30
0.0999999
 11
240.503
 21
188.458
 31
0.0999999
  0
LINE
  5
A84
330
A02
100
AcDbEntity
  8
Mesh_cs003
100
AcDbLine
 10
240.503
 20
188.458
 30
0.0999999
 11
238.712
 21
184.923
 31
0.0999999
  0
LINE
  5
A85
330
A02
100
AcDbEntity
  8
Mesh_cs003
100
AcDbLine
 10
238.712
 20
184.923
 30
0.0999999
 11
238.697
 21
184.893
 31
0.0999999
  0
LINE
  5
A86
330
A02
100
AcDbEntity
  8
Mesh_cs003
100
AcDbLine
 10
238.697
 20
184.893
 30
0.0999999
 11
236.939
 21
181.34
 31
0.0999999
  0
LINE
  5
A87
330
A02
100
AcDbEntity
  8
Mesh_cs003
100
AcDbLine
 10
236.939
 20
181.34
 30
0.0999999
 11
236.925
 21
181.31
 31
0.0999999
  0
LINE
  5
A88
330
A02
100
AcDbEntity
  8
Mesh_cs003
100
AcDbLine
 10
236.925
 20
181.31
 30
0.0999999
 11
236.91
 21
181.28
 31
0.0999999
  0
LINE
  5
A89
330
A02
100
AcDbEntity
  8
Mesh_cs003
100
AcDbLine
 10
236.91
 20
181.28
 30
0.0999999
 11
235.188
 21
177.711
 31
0.0999999
  0
LINE
  5
A8A
330
A02
100
AcDbEntity
  8
Mesh_cs003
100
AcDbLine
 10
235.188
 20
177.711
 30
0.0999999
 11
233.499
 21
174.125
 31
0.0999999
  0
LINE
  5
A8B
330
A02
100
AcDbEntity
  8
Mesh_cs003
100
AcDbLine
 10
233.499
 20
174.125
 30
0.0999999
 11
233.485
 21
174.095
 31
0.0999999
  0
LINE
  5
A8C
330
A02
100
AcDbEntity
  8
Mesh_cs003
100
AcDbLine
 10
233.485
 20
174.095
 30
0.0999999
 11
231.832
 21
170.493
 31
0.0999999
  0
LINE
  5
A8D
330
A02
100
AcDbEntity
  8
Mesh_cs003
100
AcDbLine
 10
231.832
 20
170.493
 30
0.0999999
 11
231.818
 21
170.462
 31
0.0999999
  0
LINE
  5
A8E
330
A02
100
AcDbEntity
  8
Mesh_cs003
100
AcDbLine
 10
231.818
 20
170.462
 30
0.0999999
 11
231.805
 21
170.432
 31
0.0999999
  0
LINE
  5
A8F
330
A02
100
AcDbEntity
  8
Mesh_cs003
100
AcDbLine
 10
231.805
 20
170.432
 30
0.0999999
 11
230.186
 21
166.814
 31
0.0999999
  0
LINE
  5
A90
330
A02
100
AcDbEntity
  8
Mesh_cs003
100
AcDbLine
 10
230.186
 20
166.814
 30
0.0999999
 11
228.603
 21
163.181
 31
0.0999999
  0
LINE
  5
A91
330
A02
100
AcDbEntity
  8
Mesh_cs003
100
AcDbLine
 10
228.603
 20
163.181
 30
0.0999999
 11
228.59
 21
163.15
 31
0.0999999
  0
LINE
  5
A92
330
A02
100
AcDbEntity
  8
Mesh_cs003
100
AcDbLine
 10
228.59
 20
163.15
 30
0.0999999
 11
227.042
 21
159.501
 31
0.0999999
  0
LINE
  5
A93
330
A02
100
AcDbEntity
  8
Mesh_cs003
100
AcDbLine
 10
227.042
 20
159.501
 30
0.0999999
 11
227.029
 21
159.471
 31
0.0999999
  0
LINE
  5
A94
330
A02
100
AcDbEntity
  8
Mesh_cs003
100
AcDbLine
 10
227.029
 20
159.471
 30
0.0999999
 11
225.516
 21
155.807
 31
0.0999999
  0
LINE
  5
A95
330
A02
100
AcDbEntity
  8
Mesh_cs003
100
AcDbLine
 10
225.516
 20
155.807
 30
0.0999999
 11
225.503
 21
155.777
 31
0.0999999
  0
LINE
  5
A96
330
A02
100
AcDbEntity
  8
Mesh_cs003
100
AcDbLine
 10
225.503
 20
155.777
 30
0.0999999
 11
224.026
 21
152.099
 31
0.0999999
  0
LINE
  5
A97
330
A02
100
AcDbEntity
  8
Mesh_cs003
100
AcDbLine
 10
224.026
 20
152.099
 30
0.0999999
 11
224.014
 21
152.068
 31
0.0999999
  0
LINE
  5
A98
330
A02
100
AcDbEntity
  8
Mesh_cs003
100
AcDbLine
 10
224.014
 20
152.068
 30
0.0999999
 11
224.002
 21
152.037
 31
0.0999999
  0
LINE
  5
A99
330
A02
100
AcDbEntity
  8
Mesh_cs003
100
AcDbLine
 10
224.002
 20
152.037
 30
0.0999999
 11
222.56
 21
148.345
 31
0.0999999
  0
LINE
  5
A9A
330
A02
100
AcDbEntity
  8
Mesh_cs003
100
AcDbLine
 10
222.56
 20
148.345
 30
0.0999999
 11
221.155
 21
144.639
 31
0.0999999
  0
LINE
  5
A9B
330
A02
100
AcDbEntity
  8
Mesh_cs003
100
AcDbLine
 10
221.155
 20
144.639
 30
0.0999999
 11
221.143
 21
144.608
 31
0.0999999
  0
LINE
  5
A9C
330
A02
100
AcDbEntity
  8
Mesh_cs003
100
AcDbLine
 10
221.143
 20
144.608
 30
0.0999999
 11
219.773
 21
140.889
 31
0.0999999
  0
LINE
  5
A9D
330
A02
100
AcDbEntity
  8
Mesh_cs003
100
AcDbLine
 10
219.773
 20
140.889
 30
0.0999999
 11
219.762
 21
140.857
 31
0.0999999
  0
LINE
  5
A9E
330
A02
100
AcDbEntity
  8
Mesh_cs003
100
AcDbLine
 10
219.762
 20
140.857
 30
0.0999999
 11
218.428
 21
137.125
 31
0.0999999
  0
LINE
  5
A9F
330
A02
100
AcDbEntity
  8
Mesh_cs003
100
AcDbLine
 10
218.428
 20
137.125
 30
0.0999999
 11
218.417
 21
137.094
 31
0.0999999
  0
LINE
  5
AA0
330
A02
100
AcDbEntity
  8
Mesh_cs003
100
AcDbLine
 10
218.417
 20
137.094
 30
0.0999999
 11
217.119
 21
133.349
 31
0.0999999
  0
LINE
  5
AA1
330
A02
100
AcDbEntity
  8
Mesh_cs003
100
AcDbLine
 10
217.119
 20
133.349
 30
0.0999999
 11
217.108
 21
133.317
 31
0.0999999
  0
LINE
  5
AA2
330
A02
100
AcDbEntity
  8
Mesh_cs003
100
AcDbLine
 10
217.108
 20
133.317
 30
0.0999999
 11
215.847
 21
129.56
 31
0.0999999
  0
LINE
  5
AA3
330
A02
100
AcDbEntity
  8
Mesh_cs003
100
AcDbLine
 10
215.847
 20
129.56
 30
0.0999999
 11
215.837
 21
129.528
 31
0.0999999
  0
LINE
  5
AA4
330
A02
100
AcDbEntity
  8
Mesh_cs003
100
AcDbLine
 10
215.837
 20
129.528
 30
0.0999999
 11
214.612
 21
125.759
 31
0.0999999
  0
LINE
  5
AA5
330
A02
100
AcDbEntity
  8
Mesh_cs003
100
AcDbLine
 10
214.612
 20
125.759
 30
0.0999999
 11
214.602
 21
125.727
 31
0.0999999
  0
LINE
  5
AA6
330
A02
100
AcDbEntity
  8
Mesh_cs003
100
AcDbLine
 10
214.602
 20
125.727
 30
0.0999999
 11
213.413
 21
121.946
 31
0.0999999
  0
LINE
  5
AA7
330
A02
100
AcDbEntity
  8
Mesh_cs003
100
AcDbLine
 10
213.413
 20
121.946
 30
0.0999999
 11
213.403
 21
121.914
 31
0.0999999
  0
LINE
  5
AA8
330
A02
100
AcDbEntity
  8
Mesh_cs003
100
AcDbLine
 10
213.403
 20
121.914
 30
0.0999999
 11
212.252
 21
118.122
 31
0.0999999
  0
LINE
  5
AA9
330
A02
100
AcDbEntity
  8
Mesh_cs003
100
AcDbLine
 10
212.252
 20
118.122
 30
0.0999999
 11
212.242
 21
118.09
 31
0.0999999
  0
ENDSEC
  0
SECTION
  2
OBJECTS
  0
DICTIONARY
  5
F000
330
0
100
AcDbDictionary
  3
ACAD_GROUP
350
F001
  0
DICTIONARY
  5
F001
330
F000
100
AcDbDictionary
  0
ENDSEC
  0
EOF