999
FreeCAD v0.21 33771 (Git)
  0
SECTION
  2
HEADER
  9
$ACADVER
  1
AC1014
  9
$ACADMAINTVER
 70
     9
  9
$DWGCODEPAGE
  3
ANSI_1252
  9
$TEXTSTYLE
  7
STANDARD
  9
$DIMSTYLE
  2
STANDARD
  9
$DIMTXSTY
  7
STANDARD
  9
$CMLSTYLE
  2
STANDARD
  9
$LUNITS
 70
2
  9
$INSUNITS
 70
4
  9
$PEXTMAX
 10
50
 20
50
 30
50
  9
$PEXTMIN
 10
0
 20
0
 30
0
  9
$HANDSEED
  5
FFFF
  0
ENDSEC
  0
SECTION
  2
CLASSES
  0
CLASS
  1
ACDBDICTIONARYWDFLT
  2
AcDbDictionaryWithDefault
  3
ObjectDBX Classes
 90
        0
280
     0
281
     0
  0
CLASS
  1
XRECORD
  2
AcDbXrecord
  3
ObjectDBX Classes
 90
        0
280
     0
281
     0
  0
CLASS
  1
LWPOLYLINE
  2
AcDbPolyline
  3
ObjectDBX Classes
 90
        0
280
     0
281
     1
  0
ENDSEC
  0
SECTION
  2
TABLES
  0
TABLE
  2
VPORT
  5
20
330
0
100
AcDbSymbolTable
 70
     1
  0
VPORT
  5
21
330
20
100
AcDbSymbolTableRecord
100
AcDbViewportTableRecord
  2
*ACTIVE
 70
     0
  0
ENDTAB
  0
TABLE
  2
LTYPE
  5
22
330
0
100
AcDbSymbolTable
 70
     1
  0
LTYPE
  5
23
330
21
100
AcDbSymbolTableRecord
100
AcDbLinetypeTableRecord
  2
BYBLOCK
 70
     0
  3

 72
    65
 73
     0
 40
0.0
  0
LTYPE
  5
24
330
21
100
AcDbSymbolTableRecord
100
AcDbLinetypeTableRecord
  2
BYLAYER
 70
     0
  3

 72
    65
 73
     0
 40
0.0
  0
LTYPE
  5
25
330
21
100
AcDbSymbolTableRecord
100
AcDbLinetypeTableRecord
  2
CONTINUOUS
 70
     0
  3
Solid line
 72
    65
 73
     0
 40
0.0
  0
ENDTAB
  0
TABLE
  2
LAYER
  5
CC4
330
0
100
AcDbSymbolTable
 70
3
  0
LAYER
  5
CC5
330
CC4
100
AcDbSymbolTableRecord
100
AcDbLayerTableRecord
  2
0
 70
   0
 62
   7
  6
CONTINUOUS
  0
LAYER
  5
CC6
330
CC4
100
AcDbSymbolTableRecord
100
AcDbLayerTableRecord
  2
none
 70
    0
 62
    7
  6
CONTINUOUS
  0
LAYER
  5
CC7
330
CC4
100
AcDbSymbolTableRecord
100
AcDbLayerTableRecord
  2
Mesh_cs
 70
    0
 62
    7
  6
CONTINUOUS
  0
ENDTAB
  0
TABLE
  2
STYLE
  5
70
330
0
100
AcDbSymbolTable
 70
     2
  0
STYLE
  5
71
330
70
100
AcDbSymbolTableRecord
100
AcDbTextStyleTableRecord
  2
STANDARD
 70
     0
 40
0.0
 41
1.0
 50
0.0
 71
     0
 42
2.5
  3
arial.ttf
  4

  0
STYLE
  5
72
330
70
100
AcDbSymbolTableRecord
100
AcDbTextStyleTableRecord
  2
ANNOTATIVE
 70
     0
 40
0.0
 41
1.0
 50
0.0
 71
     0
 42
2.5
  3
arial.ttf
  4

  0
ENDTAB
  0
TABLE
  2
VIEW
  5
73
330
0
100
AcDbSymbolTable
 70
     0
  0
ENDTAB
  0
TABLE
  2
UCS
  5
74
330
0
100
AcDbSymbolTable
 70
     0
  0
ENDTAB
  0
TABLE
  2
APPID
  5
75
330
0
100
AcDbSymbolTable
 70
     2
  0
APPID
  5
76
330
75
100
AcDbSymbolTableRecord
100
AcDbRegAppTableRecord
  2
ACAD
 70
     0
  0
APPID
  5
77
330
75
100
AcDbSymbolTableRecord
100
AcDbRegAppTableRecord
  2
ACADANNOTATIVE
 70
     0
  0
ENDTAB
  0
TABLE
  2
DIMSTYLE
  5
78
330
0
100
AcDbSymbolTable
 70
     2
  0
DIMSTYLE
105
79
330
78
100
AcDbSymbolTableRecord
100
AcDbDimStyleTableRecord
  2
STANDARD
 70
     0
  3

  4

  5

  6

  7

 40
0.0
 41
2.5
 42
0.625
 43
3.75
 44
1.25
 45
0.0
 46
0.0
 47
0.0
 48
0.0
140
2.5
141
2.5
142
0.0
143
0.03937007874016
144
1.0
145
0.0
146
1.0
147
0.625
 71
     0
 72
     0
 73
     0
 74
     0
 75
     0
 76
     0
 77
     1
 78
     8
170
     0
171
     3
172
     1
173
     0
174
     0
175
     0
176
     0
177
     0
178
     0
270
     2
271
     2
272
     2
273
     2
274
     3
340
71
275
     0
280
     0
281
     0
282
     0
283
     0
284
     8
285
     0
286
     0
287
     3
288
     0
  0
ENDTAB
  0
TABLE
  2
BLOCK_RECORD
  5
A01
330
0
100
AcDbSymbolTable
  70
5
  0
BLOCK_RECORD
  5
A02
330
A01
100
AcDbSymbolTableRecord
100
AcDbBlockTableRecord
  2
*MODEL_SPACE
  0
BLOCK_RECORD
  5
A03
330
A01
100
AcDbSymbolTableRecord
100
AcDbBlockTableRecord
  2
*PAPER_SPACE
  0
ENDTAB
  0
ENDSEC
  0
SECTION
  2
BLOCKS
  0
BLOCK
  5
A04
330
A02
100
AcDbEntity
  8
0
100
AcDbBlockBegin
  2
*MODEL_SPACE
 70
   0
 10
0
 20
0
 30
0
  3
*MODEL_SPACE
  1
 
  0
ENDBLK
  5
A05
330
A02
100
AcDbEntity
  8
0
100
AcDbBlockEnd
  0
BLOCK
  5
A06
330
A03
100
AcDbEntity
 67
1
  8
0
100
AcDbBlockBegin
  2
*PAPER_SPACE
 70
   0
 10
0
 20
0
 30
0
  3
*PAPER_SPACE
  1
 
  0
ENDBLK
  5
A07
330
A03
100
AcDbEntity
 67
    1
  8
0
100
AcDbBlockEnd
  0
ENDSEC
  0
SECTION
  2
ENTITIES
  0
LINE
  5
A08
330
A02
100
AcDbEntity
  8
Mesh_cs
100
AcDbLine
 10
-408.764
 20
574.441
 30
11.9
 11
-406.015
 21
573.48
 31
11.9
  0
LINE
  5
A09
330
A02
100
AcDbEntity
  8
Mesh_cs
100
AcDbLine
 10
-406.015
 20
573.48
 30
11.9
 11
-410.411
 21
559.95
 31
11.9
  0
LINE
  5
A0A
330
A02
100
AcDbEntity
  8
Mesh_cs
100
AcDbLine
 10
-410.411
 20
559.95
 30
11.9
 11
-410.563
 21
559.483
 31
11.9
  0
LINE
  5
A0B
330
A02
100
AcDbEntity
  8
Mesh_cs
100
AcDbLine
 10
-410.563
 20
559.483
 30
11.9
 11
-411.035
 21
559.637
 31
11.9
  0
LINE
  5
A0C
330
A02
100
AcDbEntity
  8
Mesh_cs
100
AcDbLine
 10
-411.035
 20
559.637
 30
11.9
 11
-424.734
 21
564.087
 31
11.9
  0
LINE
  5
A0D
330
A02
100
AcDbEntity
  8
Mesh_cs
100
AcDbLine
 10
-424.734
 20
564.087
 30
11.9
 11
-420.283
 21
577.786
 31
11.9
  0
LINE
  5
A0E
330
A02
100
AcDbEntity
  8
Mesh_cs
100
AcDbLine
 10
-420.283
 20
577.786
 30
11.9
 11
-420.129
 21
578.258
 31
11.9
  0
LINE
  5
A0F
330
A02
100
AcDbEntity
  8
Mesh_cs
100
AcDbLine
 10
-420.129
 20
578.258
 30
11.9
 11
-415.948
 21
576.883
 31
11.9
  0
LINE
  5
A10
330
A02
100
AcDbEntity
  8
Mesh_cs
100
AcDbLine
 10
-415.948
 20
576.883
 30
11.9
 11
-415.913
 21
576.871
 31
11.9
  0
LINE
  5
A11
330
A02
100
AcDbEntity
  8
Mesh_cs
100
AcDbLine
 10
-415.913
 20
576.871
 30
11.9
 11
-411.742
 21
575.465
 31
11.9
  0
LINE
  5
A12
330
A02
100
AcDbEntity
  8
Mesh_cs
100
AcDbLine
 10
-411.742
 20
575.465
 30
11.9
 11
-411.707
 21
575.453
 31
11.9
  0
LINE
  5
A13
330
A02
100
AcDbEntity
  8
Mesh_cs
100
AcDbLine
 10
-411.707
 20
575.453
 30
11.9
 11
-411.517
 21
575.388
 31
11.9
  0
LINE
  5
A14
330
A02
100
AcDbEntity
  8
Mesh_cs
100
AcDbLine
 10
-411.517
 20
575.388
 30
11.9
 11
-408.764
 21
574.441
 31
11.9
  0
LINE
  5
A15
330
A02
100
AcDbEntity
  8
Mesh_cs
100
AcDbLine
 10
-195
 20
434.484
 30
11.9
 11
-195
 21
328.966
 31
11.9
  0
LINE
  5
A16
330
A02
100
AcDbEntity
  8
Mesh_cs
100
AcDbLine
 10
-195
 20
328.966
 30
11.9
 11
-197.33
 21
331.868
 31
11.9
  0
LINE
  5
A17
330
A02
100
AcDbEntity
  8
Mesh_cs
100
AcDbLine
 10
-197.33
 20
331.868
 30
11.9
 11
-197.589
 21
332.19
 31
11.9
  0
LINE
  5
A18
330
A02
100
AcDbEntity
  8
Mesh_cs
100
AcDbLine
 10
-197.589
 20
332.19
 30
11.9
 11
-199.944
 21
335.077
 31
11.9
  0
LINE
  5
A19
330
A02
100
AcDbEntity
  8
Mesh_cs
100
AcDbLine
 10
-199.944
 20
335.077
 30
11.9
 11
-200.206
 21
335.398
 31
11.9
  0
LINE
  5
A1A
330
A02
100
AcDbEntity
  8
Mesh_cs
100
AcDbLine
 10
-200.206
 20
335.398
 30
11.9
 11
-200.499
 21
335.751
 31
11.9
  0
LINE
  5
A1B
330
A02
100
AcDbEntity
  8
Mesh_cs
100
AcDbLine
 10
-200.499
 20
335.751
 30
11.9
 11
-203.138
 21
338.932
 31
11.9
  0
LINE
  5
A1C
330
A02
100
AcDbEntity
  8
Mesh_cs
100
AcDbLine
 10
-203.138
 20
338.932
 30
11.9
 11
-205.806
 21
342.091
 31
11.9
  0
LINE
  5
A1D
330
A02
100
AcDbEntity
  8
Mesh_cs
100
AcDbLine
 10
-205.806
 20
342.091
 30
11.9
 11
-206.102
 21
342.442
 31
11.9
  0
LINE
  5
A1E
330
A02
100
AcDbEntity
  8
Mesh_cs
100
AcDbLine
 10
-206.102
 20
342.442
 30
11.9
 11
-206.401
 21
342.79
 31
11.9
  0
LINE
  5
A1F
330
A02
100
AcDbEntity
  8
Mesh_cs
100
AcDbLine
 10
-206.401
 20
342.79
 30
11.9
 11
-209.096
 21
345.925
 31
11.9
  0
LINE
  5
A20
330
A02
100
AcDbEntity
  8
Mesh_cs
100
AcDbLine
 10
-209.096
 20
345.925
 30
11.9
 11
-209.398
 21
346.27
 31
11.9
  0
LINE
  5
A21
330
A02
100
AcDbEntity
  8
Mesh_cs
100
AcDbLine
 10
-209.398
 20
346.27
 30
11.9
 11
-212.12
 21
349.382
 31
11.9
  0
LINE
  5
A22
330
A02
100
AcDbEntity
  8
Mesh_cs
100
AcDbLine
 10
-212.12
 20
349.382
 30
11.9
 11
-212.426
 21
349.725
 31
11.9
  0
LINE
  5
A23
330
A02
100
AcDbEntity
  8
Mesh_cs
100
AcDbLine
 10
-212.426
 20
349.725
 30
11.9
 11
-215.175
 21
352.813
 31
11.9
  0
LINE
  5
A24
330
A02
100
AcDbEntity
  8
Mesh_cs
100
AcDbLine
 10
-215.175
 20
352.813
 30
11.9
 11
-215.483
 21
353.153
 31
11.9
  0
LINE
  5
A25
330
A02
100
AcDbEntity
  8
Mesh_cs
100
AcDbLine
 10
-215.483
 20
353.153
 30
11.9
 11
-218.259
 21
356.217
 31
11.9
  0
LINE
  5
A26
330
A02
100
AcDbEntity
  8
Mesh_cs
100
AcDbLine
 10
-218.259
 20
356.217
 30
11.9
 11
-218.57
 21
356.554
 31
11.9
  0
LINE
  5
A27
330
A02
100
AcDbEntity
  8
Mesh_cs
100
AcDbLine
 10
-218.57
 20
356.554
 30
11.9
 11
-221.372
 21
359.594
 31
11.9
  0
LINE
  5
A28
330
A02
100
AcDbEntity
  8
Mesh_cs
100
AcDbLine
 10
-221.372
 20
359.594
 30
11.9
 11
-224.201
 21
362.609
 31
11.9
  0
LINE
  5
A29
330
A02
100
AcDbEntity
  8
Mesh_cs
100
AcDbLine
 10
-224.201
 20
362.609
 30
11.9
 11
-224.515
 21
362.944
 31
11.9
  0
LINE
  5
A2A
330
A02
100
AcDbEntity
  8
Mesh_cs
100
AcDbLine
 10
-224.515
 20
362.944
 30
11.9
 11
-227.37
 21
365.934
 31
11.9
  0
LINE
  5
A2B
330
A02
100
AcDbEntity
  8
Mesh_cs
100
AcDbLine
 10
-227.37
 20
365.934
 30
11.9
 11
-227.687
 21
366.267
 31
11.9
  0
LINE
  5
A2C
330
A02
100
AcDbEntity
  8
Mesh_cs
100
AcDbLine
 10
-227.687
 20
366.267
 30
11.9
 11
-228.008
 21
366.596
 31
11.9
  0
LINE
  5
A2D
330
A02
100
AcDbEntity
  8
Mesh_cs
100
AcDbLine
 10
-228.008
 20
366.596
 30
11.9
 11
-230.888
 21
369.562
 31
11.9
  0
LINE
  5
A2E
330
A02
100
AcDbEntity
  8
Mesh_cs
100
AcDbLine
 10
-230.888
 20
369.562
 30
11.9
 11
-231.211
 21
369.888
 31
11.9
  0
LINE
  5
A2F
330
A02
100
AcDbEntity
  8
Mesh_cs
100
AcDbLine
 10
-231.211
 20
369.888
 30
11.9
 11
-234.118
 21
372.829
 31
11.9
  0
LINE
  5
A30
330
A02
100
AcDbEntity
  8
Mesh_cs
100
AcDbLine
 10
-234.118
 20
372.829
 30
11.9
 11
-237.05
 21
375.744
 31
11.9
  0
LINE
  5
A31
330
A02
100
AcDbEntity
  8
Mesh_cs
100
AcDbLine
 10
-237.05
 20
375.744
 30
11.9
 11
-237.376
 21
376.068
 31
11.9
  0
LINE
  5
A32
330
A02
100
AcDbEntity
  8
Mesh_cs
100
AcDbLine
 10
-237.376
 20
376.068
 30
11.9
 11
-237.704
 21
376.389
 31
11.9
  0
LINE
  5
A33
330
A02
100
AcDbEntity
  8
Mesh_cs
100
AcDbLine
 10
-237.704
 20
376.389
 30
11.9
 11
-240.662
 21
379.278
 31
11.9
  0
LINE
  5
A34
330
A02
100
AcDbEntity
  8
Mesh_cs
100
AcDbLine
 10
-240.662
 20
379.278
 30
11.9
 11
-243.644
 21
382.142
 31
11.9
  0
LINE
  5
A35
330
A02
100
AcDbEntity
  8
Mesh_cs
100
AcDbLine
 10
-243.644
 20
382.142
 30
11.9
 11
-243.976
 21
382.46
 31
11.9
  0
LINE
  5
A36
330
A02
100
AcDbEntity
  8
Mesh_cs
100
AcDbLine
 10
-243.976
 20
382.46
 30
11.9
 11
-244.31
 21
382.775
 31
11.9
  0
LINE
  5
A37
330
A02
100
AcDbEntity
  8
Mesh_cs
100
AcDbLine
 10
-244.31
 20
382.775
 30
11.9
 11
-247.317
 21
385.613
 31
11.9
  0
LINE
  5
A38
330
A02
100
AcDbEntity
  8
Mesh_cs
100
AcDbLine
 10
-247.317
 20
385.613
 30
11.9
 11
-247.654
 21
385.925
 31
11.9
  0
LINE
  5
A39
330
A02
100
AcDbEntity
  8
Mesh_cs
100
AcDbLine
 10
-247.654
 20
385.925
 30
11.9
 11
-250.686
 21
388.737
 31
11.9
  0
LINE
  5
A3A
330
A02
100
AcDbEntity
  8
Mesh_cs
100
AcDbLine
 10
-250.686
 20
388.737
 30
11.9
 11
-251.026
 21
389.046
 31
11.9
  0
LINE
  5
A3B
330
A02
100
AcDbEntity
  8
Mesh_cs
100
AcDbLine
 10
-251.026
 20
389.046
 30
11.9
 11
-254.082
 21
391.831
 31
11.9
  0
LINE
  5
A3C
330
A02
100
AcDbEntity
  8
Mesh_cs
100
AcDbLine
 10
-254.082
 20
391.831
 30
11.9
 11
-254.424
 21
392.138
 31
11.9
  0
LINE
  5
A3D
330
A02
100
AcDbEntity
  8
Mesh_cs
100
AcDbLine
 10
-254.424
 20
392.138
 30
11.9
 11
-257.505
 21
394.896
 31
11.9
  0
LINE
  5
A3E
330
A02
100
AcDbEntity
  8
Mesh_cs
100
AcDbLine
 10
-257.505
 20
394.896
 30
11.9
 11
-257.85
 21
395.2
 31
11.9
  0
LINE
  5
A3F
330
A02
100
AcDbEntity
  8
Mesh_cs
100
AcDbLine
 10
-257.85
 20
395.2
 30
11.9
 11
-260.954
 21
397.931
 31
11.9
  0
LINE
  5
A40
330
A02
100
AcDbEntity
  8
Mesh_cs
100
AcDbLine
 10
-260.954
 20
397.931
 30
11.9
 11
-261.302
 21
398.232
 31
11.9
  0
LINE
  5
A41
330
A02
100
AcDbEntity
  8
Mesh_cs
100
AcDbLine
 10
-261.302
 20
398.232
 30
11.9
 11
-264.43
 21
400.936
 31
11.9
  0
LINE
  5
A42
330
A02
100
AcDbEntity
  8
Mesh_cs
100
AcDbLine
 10
-264.43
 20
400.936
 30
11.9
 11
-264.78
 21
401.234
 31
11.9
  0
LINE
  5
A43
330
A02
100
AcDbEntity
  8
Mesh_cs
100
AcDbLine
 10
-264.78
 20
401.234
 30
11.9
 11
-267.932
 21
403.911
 31
11.9
  0
LINE
  5
A44
330
A02
100
AcDbEntity
  8
Mesh_cs
100
AcDbLine
 10
-267.932
 20
403.911
 30
11.9
 11
-268.285
 21
404.205
 31
11.9
  0
LINE
  5
A45
330
A02
100
AcDbEntity
  8
Mesh_cs
100
AcDbLine
 10
-268.285
 20
404.205
 30
11.9
 11
-271.46
 21
406.855
 31
11.9
  0
LINE
  5
A46
330
A02
100
AcDbEntity
  8
Mesh_cs
100
AcDbLine
 10
-271.46
 20
406.855
 30
11.9
 11
-271.815
 21
407.146
 31
11.9
  0
LINE
  5
A47
330
A02
100
AcDbEntity
  8
Mesh_cs
100
AcDbLine
 10
-271.815
 20
407.146
 30
11.9
 11
-275.013
 21
409.768
 31
11.9
  0
LINE
  5
A48
330
A02
100
AcDbEntity
  8
Mesh_cs
100
AcDbLine
 10
-275.013
 20
409.768
 30
11.9
 11
-275.371
 21
410.057
 31
11.9
  0
LINE
  5
A49
330
A02
100
AcDbEntity
  8
Mesh_cs
100
AcDbLine
 10
-275.371
 20
410.057
 30
11.9
 11
-278.591
 21
412.651
 31
11.9
  0
LINE
  5
A4A
330
A02
100
AcDbEntity
  8
Mesh_cs
100
AcDbLine
 10
-278.591
 20
412.651
 30
11.9
 11
-278.952
 21
412.936
 31
11.9
  0
LINE
  5
A4B
330
A02
100
AcDbEntity
  8
Mesh_cs
100
AcDbLine
 10
-278.952
 20
412.936
 30
11.9
 11
-282.195
 21
415.502
 31
11.9
  0
LINE
  5
A4C
330
A02
100
AcDbEntity
  8
Mesh_cs
100
AcDbLine
 10
-282.195
 20
415.502
 30
11.9
 11
-282.558
 21
415.784
 31
11.9
  0
LINE
  5
A4D
330
A02
100
AcDbEntity
  8
Mesh_cs
100
AcDbLine
 10
-282.558
 20
415.784
 30
11.9
 11
-285.823
 21
418.322
 31
11.9
  0
LINE
  5
A4E
330
A02
100
AcDbEntity
  8
Mesh_cs
100
AcDbLine
 10
-285.823
 20
418.322
 30
11.9
 11
-286.189
 21
418.6
 31
11.9
  0
LINE
  5
A4F
330
A02
100
AcDbEntity
  8
Mesh_cs
100
AcDbLine
 10
-286.189
 20
418.6
 30
11.9
 11
-289.476
 21
421.11
 31
11.9
  0
LINE
  5
A50
330
A02
100
AcDbEntity
  8
Mesh_cs
100
AcDbLine
 10
-289.476
 20
421.11
 30
11.9
 11
-289.844
 21
421.385
 31
11.9
  0
LINE
  5
A51
330
A02
100
AcDbEntity
  8
Mesh_cs
100
AcDbLine
 10
-289.844
 20
421.385
 30
11.9
 11
-293.153
 21
423.866
 31
11.9
  0
LINE
  5
A52
330
A02
100
AcDbEntity
  8
Mesh_cs
100
AcDbLine
 10
-293.153
 20
423.866
 30
11.9
 11
-293.523
 21
424.138
 31
11.9
  0
LINE
  5
A53
330
A02
100
AcDbEntity
  8
Mesh_cs
100
AcDbLine
 10
-293.523
 20
424.138
 30
11.9
 11
-296.854
 21
426.59
 31
11.9
  0
LINE
  5
A54
330
A02
100
AcDbEntity
  8
Mesh_cs
100
AcDbLine
 10
-296.854
 20
426.59
 30
11.9
 11
-297.226
 21
426.859
 31
11.9
  0
LINE
  5
A55
330
A02
100
AcDbEntity
  8
Mesh_cs
100
AcDbLine
 10
-297.226
 20
426.859
 30
11.9
 11
-300.578
 21
429.282
 31
11.9
  0
LINE
  5
A56
330
A02
100
AcDbEntity
  8
Mesh_cs
100
AcDbLine
 10
-300.578
 20
429.282
 30
11.9
 11
-300.953
 21
429.548
 31
11.9
  0
LINE
  5
A57
330
A02
100
AcDbEntity
  8
Mesh_cs
100
AcDbLine
 10
-300.953
 20
429.548
 30
11.9
 11
-304.326
 21
431.942
 31
11.9
  0
LINE
  5
A58
330
A02
100
AcDbEntity
  8
Mesh_cs
100
AcDbLine
 10
-304.326
 20
431.942
 30
11.9
 11
-304.703
 21
432.204
 31
11.9
  0
LINE
  5
A59
330
A02
100
AcDbEntity
  8
Mesh_cs
100
AcDbLine
 10
-304.703
 20
432.204
 30
11.9
 11
-308.097
 21
434.569
 31
11.9
  0
LINE
  5
A5A
330
A02
100
AcDbEntity
  8
Mesh_cs
100
AcDbLine
 10
-308.097
 20
434.569
 30
11.9
 11
-308.439
 21
434.802
 31
11.9
  0
LINE
  5
A5B
330
A02
100
AcDbEntity
  8
Mesh_cs
100
AcDbLine
 10
-308.439
 20
434.802
 30
11.9
 11
-311.511
 21
436.905
 31
11.9
  0
LINE
  5
A5C
330
A02
100
AcDbEntity
  8
Mesh_cs
100
AcDbLine
 10
-311.511
 20
436.905
 30
11.9
 11
-311.854
 21
437.136
 31
11.9
  0
LINE
  5
A5D
330
A02
100
AcDbEntity
  8
Mesh_cs
100
AcDbLine
 10
-311.854
 20
437.136
 30
11.9
 11
-314.942
 21
439.214
 31
11.9
  0
LINE
  5
A5E
330
A02
100
AcDbEntity
  8
Mesh_cs
100
AcDbLine
 10
-314.942
 20
439.214
 30
11.9
 11
-315.287
 21
439.442
 31
11.9
  0
LINE
  5
A5F
330
A02
100
AcDbEntity
  8
Mesh_cs
100
AcDbLine
 10
-315.287
 20
439.442
 30
11.9
 11
-318.392
 21
441.496
 31
11.9
  0
LINE
  5
A60
330
A02
100
AcDbEntity
  8
Mesh_cs
100
AcDbLine
 10
-318.392
 20
441.496
 30
11.9
 11
-318.739
 21
441.722
 31
11.9
  0
LINE
  5
A61
330
A02
100
AcDbEntity
  8
Mesh_cs
100
AcDbLine
 10
-318.739
 20
441.722
 30
11.9
 11
-321.859
 21
443.752
 31
11.9
  0
LINE
  5
A62
330
A02
100
AcDbEntity
  8
Mesh_cs
100
AcDbLine
 10
-321.859
 20
443.752
 30
11.9
 11
-322.208
 21
443.974
 31
11.9
  0
LINE
  5
A63
330
A02
100
AcDbEntity
  8
Mesh_cs
100
AcDbLine
 10
-322.208
 20
443.974
 30
11.9
 11
-325.344
 21
445.98
 31
11.9
  0
LINE
  5
A64
330
A02
100
AcDbEntity
  8
Mesh_cs
100
AcDbLine
 10
-325.344
 20
445.98
 30
11.9
 11
-325.695
 21
446.2
 31
11.9
  0
LINE
  5
A65
330
A02
100
AcDbEntity
  8
Mesh_cs
100
AcDbLine
 10
-325.695
 20
446.2
 30
11.9
 11
-328.847
 21
448.181
 31
11.9
  0
LINE
  5
A66
330
A02
100
AcDbEntity
  8
Mesh_cs
100
AcDbLine
 10
-328.847
 20
448.181
 30
11.9
 11
-329.199
 21
448.398
 31
11.9
  0
LINE
  5
A67
330
A02
100
AcDbEntity
  8
Mesh_cs
100
AcDbLine
 10
-329.199
 20
448.398
 30
11.9
 11
-332.367
 21
450.354
 31
11.9
  0
LINE
  5
A68
330
A02
100
AcDbEntity
  8
Mesh_cs
100
AcDbLine
 10
-332.367
 20
450.354
 30
11.9
 11
-332.72
 21
450.568
 31
11.9
  0
LINE
  5
A69
330
A02
100
AcDbEntity
  8
Mesh_cs
100
AcDbLine
 10
-332.72
 20
450.568
 30
11.9
 11
-335.903
 21
452.5
 31
11.9
  0
LINE
  5
A6A
330
A02
100
AcDbEntity
  8
Mesh_cs
100
AcDbLine
 10
-335.903
 20
452.5
 30
11.9
 11
-336.259
 21
452.711
 31
11.9
  0
LINE
  5
A6B
330
A02
100
AcDbEntity
  8
Mesh_cs
100
AcDbLine
 10
-336.259
 20
452.711
 30
11.9
 11
-339.457
 21
454.617
 31
11.9
  0
LINE
  5
A6C
330
A02
100
AcDbEntity
  8
Mesh_cs
100
AcDbLine
 10
-339.457
 20
454.617
 30
11.9
 11
-339.814
 21
454.826
 31
11.9
  0
LINE
  5
A6D
330
A02
100
AcDbEntity
  8
Mesh_cs
100
AcDbLine
 10
-339.814
 20
454.826
 30
11.9
 11
-343.026
 21
456.708
 31
11.9
  0
LINE
  5
A6E
330
A02
100
AcDbEntity
  8
Mesh_cs
100
AcDbLine
 10
-343.026
 20
456.708
 30
11.9
 11
-343.385
 21
456.914
 31
11.9
  0
LINE
  5
A6F
330
A02
100
AcDbEntity
  8
Mesh_cs
100
AcDbLine
 10
-343.385
 20
456.914
 30
11.9
 11
-346.613
 21
458.77
 31
11.9
  0
LINE
  5
A70
330
A02
100
AcDbEntity
  8
Mesh_cs
100
AcDbLine
 10
-346.613
 20
458.77
 30
11.9
 11
-346.973
 21
458.973
 31
11.9
  0
LINE
  5
A71
330
A02
100
AcDbEntity
  8
Mesh_cs
100
AcDbLine
 10
-346.973
 20
458.973
 30
11.9
 11
-350.215
 21
460.804
 31
11.9
  0
LINE
  5
A72
330
A02
100
AcDbEntity
  8
Mesh_cs
100
AcDbLine
 10
-350.215
 20
460.804
 30
11.9
 11
-350.577
 21
461.004
 31
11.9
  0
LINE
  5
A73
330
A02
100
AcDbEntity
  8
Mesh_cs
100
AcDbLine
 10
-350.577
 20
461.004
 30
11.9
 11
-353.833
 21
462.809
 31
11.9
  0
LINE
  5
A74
330
A02
100
AcDbEntity
  8
Mesh_cs
100
AcDbLine
 10
-353.833
 20
462.809
 30
11.9
 11
-354.197
 21
463.007
 31
11.9
  0
LINE
  5
A75
330
A02
100
AcDbEntity
  8
Mesh_cs
100
AcDbLine
 10
-354.197
 20
463.007
 30
11.9
 11
-357.467
 21
464.787
 31
11.9
  0
LINE
  5
A76
330
A02
100
AcDbEntity
  8
Mesh_cs
100
AcDbLine
 10
-357.467
 20
464.787
 30
11.9
 11
-357.832
 21
464.981
 31
11.9
  0
LINE
  5
A77
330
A02
100
AcDbEntity
  8
Mesh_cs
100
AcDbLine
 10
-357.832
 20
464.981
 30
11.9
 11
-361.117
 21
466.735
 31
11.9
  0
LINE
  5
A78
330
A02
100
AcDbEntity
  8
Mesh_cs
100
AcDbLine
 10
-361.117
 20
466.735
 30
11.9
 11
-361.483
 21
466.927
 31
11.9
  0
LINE
  5
A79
330
A02
100
AcDbEntity
  8
Mesh_cs
100
AcDbLine
 10
-361.483
 20
466.927
 30
11.9
 11
-364.781
 21
468.656
 31
11.9
  0
LINE
  5
A7A
330
A02
100
AcDbEntity
  8
Mesh_cs
100
AcDbLine
 10
-364.781
 20
468.656
 30
11.9
 11
-365.149
 21
468.845
 31
11.9
  0
LINE
  5
A7B
330
A02
100
AcDbEntity
  8
Mesh_cs
100
AcDbLine
 10
-365.149
 20
468.845
 30
11.9
 11
-368.461
 21
470.547
 31
11.9
  0
LINE
  5
A7C
330
A02
100
AcDbEntity
  8
Mesh_cs
100
AcDbLine
 10
-368.461
 20
470.547
 30
11.9
 11
-368.83
 21
470.733
 31
11.9
  0
LINE
  5
A7D
330
A02
100
AcDbEntity
  8
Mesh_cs
100
AcDbLine
 10
-368.83
 20
470.733
 30
11.9
 11
-372.155
 21
472.41
 31
11.9
  0
LINE
  5
A7E
330
A02
100
AcDbEntity
  8
Mesh_cs
100
AcDbLine
 10
-372.155
 20
472.41
 30
11.9
 11
-372.526
 21
472.593
 31
11.9
  0
LINE
  5
A7F
330
A02
100
AcDbEntity
  8
Mesh_cs
100
AcDbLine
 10
-372.526
 20
472.593
 30
11.9
 11
-375.864
 21
474.243
 31
11.9
  0
LINE
  5
A80
330
A02
100
AcDbEntity
  8
Mesh_cs
100
AcDbLine
 10
-375.864
 20
474.243
 30
11.9
 11
-376.236
 21
474.424
 31
11.9
  0
LINE
  5
A81
330
A02
100
AcDbEntity
  8
Mesh_cs
100
AcDbLine
 10
-376.236
 20
474.424
 30
11.9
 11
-379.587
 21
476.048
 31
11.9
  0
LINE
  5
A82
330
A02
100
AcDbEntity
  8
Mesh_cs
100
AcDbLine
 10
-379.587
 20
476.048
 30
11.9
 11
-379.961
 21
476.225
 31
11.9
  0
LINE
  5
A83
330
A02
100
AcDbEntity
  8
Mesh_cs
100
AcDbLine
 10
-379.961
 20
476.225
 30
11.9
 11
-383.324
 21
477.823
 31
11.9
  0
LINE
  5
A84
330
A02
100
AcDbEntity
  8
Mesh_cs
100
AcDbLine
 10
-383.324
 20
477.823
 30
11.9
 11
-383.699
 21
477.998
 31
11.9
  0
LINE
  5
A85
330
A02
100
AcDbEntity
  8
Mesh_cs
100
AcDbLine
 10
-383.699
 20
477.998
 30
11.9
 11
-387.075
 21
479.569
 31
11.9
  0
LINE
  5
A86
330
A02
100
AcDbEntity
  8
Mesh_cs
100
AcDbLine
 10
-387.075
 20
479.569
 30
11.9
 11
-387.452
 21
479.741
 31
11.9
  0
LINE
  5
A87
330
A02
100
AcDbEntity
  8
Mesh_cs
100
AcDbLine
 10
-387.452
 20
479.741
 30
11.9
 11
-390.84
 21
481.286
 31
11.9
  0
LINE
  5
A88
330
A02
100
AcDbEntity
  8
Mesh_cs
100
AcDbLine
 10
-390.84
 20
481.286
 30
11.9
 11
-391.218
 21
481.454
 31
11.9
  0
LINE
  5
A89
330
A02
100
AcDbEntity
  8
Mesh_cs
100
AcDbLine
 10
-391.218
 20
481.454
 30
11.9
 11
-394.618
 21
482.973
 31
11.9
  0
LINE
  5
A8A
330
A02
100
AcDbEntity
  8
Mesh_cs
100
AcDbLine
 10
-394.618
 20
482.973
 30
11.9
 11
-394.997
 21
483.138
 31
11.9
  0
LINE
  5
A8B
330
A02
100
AcDbEntity
  8
Mesh_cs
100
AcDbLine
 10
-394.997
 20
483.138
 30
11.9
 11
-398.409
 21
484.63
 31
11.9
  0
LINE
  5
A8C
330
A02
100
AcDbEntity
  8
Mesh_cs
100
AcDbLine
 10
-398.409
 20
484.63
 30
11.9
 11
-398.79
 21
484.793
 31
11.9
  0
LINE
  5
A8D
330
A02
100
AcDbEntity
  8
Mesh_cs
100
AcDbLine
 10
-398.79
 20
484.793
 30
11.9
 11
-402.214
 21
486.258
 31
11.9
  0
LINE
  5
A8E
330
A02
100
AcDbEntity
  8
Mesh_cs
100
AcDbLine
 10
-402.214
 20
486.258
 30
11.9
 11
-402.595
 21
486.418
 31
11.9
  0
LINE
  5
A8F
330
A02
100
AcDbEntity
  8
Mesh_cs
100
AcDbLine
 10
-402.595
 20
486.418
 30
11.9
 11
-406.03
 21
487.856
 31
11.9
  0
LINE
  5
A90
330
A02
100
AcDbEntity
  8
Mesh_cs
100
AcDbLine
 10
-406.03
 20
487.856
 30
11.9
 11
-406.413
 21
488.012
 31
11.9
  0
LINE
  5
A91
330
A02
100
AcDbEntity
  8
Mesh_cs
100
AcDbLine
 10
-406.413
 20
488.012
 30
11.9
 11
-409.86
 21
489.424
 31
11.9
  0
LINE
  5
A92
330
A02
100
AcDbEntity
  8
Mesh_cs
100
AcDbLine
 10
-409.86
 20
489.424
 30
11.9
 11
-410.244
 21
489.577
 31
11.9
  0
LINE
  5
A93
330
A02
100
AcDbEntity
  8
Mesh_cs
100
AcDbLine
 10
-410.244
 20
489.577
 30
11.9
 11
-413.701
 21
490.961
 31
11.9
  0
LINE
  5
A94
330
A02
100
AcDbEntity
  8
Mesh_cs
100
AcDbLine
 10
-413.701
 20
490.961
 30
11.9
 11
-414.087
 21
491.112
 31
11.9
  0
LINE
  5
A95
330
A02
100
AcDbEntity
  8
Mesh_cs
100
AcDbLine
 10
-414.087
 20
491.112
 30
11.9
 11
-417.555
 21
492.469
 31
11.9
  0
LINE
  5
A96
330
A02
100
AcDbEntity
  8
Mesh_cs
100
AcDbLine
 10
-417.555
 20
492.469
 30
11.9
 11
-417.942
 21
492.617
 31
11.9
  0
LINE
  5
A97
330
A02
100
AcDbEntity
  8
Mesh_cs
100
AcDbLine
 10
-417.942
 20
492.617
 30
11.9
 11
-421.42
 21
493.947
 31
11.9
  0
LINE
  5
A98
330
A02
100
AcDbEntity
  8
Mesh_cs
100
AcDbLine
 10
-421.42
 20
493.947
 30
11.9
 11
-421.808
 21
494.091
 31
11.9
  0
LINE
  5
A99
330
A02
100
AcDbEntity
  8
Mesh_cs
100
AcDbLine
 10
-421.808
 20
494.091
 30
11.9
 11
-425.297
 21
495.394
 31
11.9
  0
LINE
  5
A9A
330
A02
100
AcDbEntity
  8
Mesh_cs
100
AcDbLine
 10
-425.297
 20
495.394
 30
11.9
 11
-428.797
 21
496.669
 31
11.9
  0
LINE
  5
A9B
330
A02
100
AcDbEntity
  8
Mesh_cs
100
AcDbLine
 10
-428.797
 20
496.669
 30
11.9
 11
-429.185
 21
496.811
 31
11.9
  0
LINE
  5
A9C
330
A02
100
AcDbEntity
  8
Mesh_cs
100
AcDbLine
 10
-429.185
 20
496.811
 30
11.9
 11
-432.695
 21
498.058
 31
11.9
  0
LINE
  5
A9D
330
A02
100
AcDbEntity
  8
Mesh_cs
100
AcDbLine
 10
-432.695
 20
498.058
 30
11.9
 11
-433.085
 21
498.197
 31
11.9
  0
LINE
  5
A9E
330
A02
100
AcDbEntity
  8
Mesh_cs
100
AcDbLine
 10
-433.085
 20
498.197
 30
11.9
 11
-433.476
 21
498.333
 31
11.9
  0
LINE
  5
A9F
330
A02
100
AcDbEntity
  8
Mesh_cs
100
AcDbLine
 10
-433.476
 20
498.333
 30
11.9
 11
-436.995
 21
499.553
 31
11.9
  0
LINE
  5
AA0
330
A02
100
AcDbEntity
  8
Mesh_cs
100
AcDbLine
 10
-436.995
 20
499.553
 30
11.9
 11
-437.387
 21
499.685
 31
11.9
  0
LINE
  5
AA1
330
A02
100
AcDbEntity
  8
Mesh_cs
100
AcDbLine
 10
-437.387
 20
499.685
 30
11.9
 11
-440.92
 21
500.879
 31
11.9
  0
LINE
  5
AA2
330
A02
100
AcDbEntity
  8
Mesh_cs
100
AcDbLine
 10
-440.92
 20
500.879
 30
11.9
 11
-441.313
 21
501.009
 31
11.9
  0
LINE
  5
AA3
330
A02
100
AcDbEntity
  8
Mesh_cs
100
AcDbLine
 10
-441.313
 20
501.009
 30
11.9
 11
-444.851
 21
502.174
 31
11.9
  0
LINE
  5
AA4
330
A02
100
AcDbEntity
  8
Mesh_cs
100
AcDbLine
 10
-444.851
 20
502.174
 30
11.9
 11
-429.526
 21
549.336
 31
11.9
  0
LINE
  5
AA5
330
A02
100
AcDbEntity
  8
Mesh_cs
100
AcDbLine
 10
-429.526
 20
549.336
 30
11.9
 11
-427.824
 21
554.577
 31
11.9
  0
LINE
  5
AA6
330
A02
100
AcDbEntity
  8
Mesh_cs
100
AcDbLine
 10
-427.824
 20
554.577
 30
11.9
 11
-409.529
 21
548.632
 31
11.9
  0
LINE
  5
AA7
330
A02
100
AcDbEntity
  8
Mesh_cs
100
AcDbLine
 10
-409.529
 20
548.632
 30
11.9
 11
-408.898
 21
548.427
 31
11.9
  0
LINE
  5
AA8
330
A02
100
AcDbEntity
  8
Mesh_cs
100
AcDbLine
 10
-408.898
 20
548.427
 30
11.9
 11
-408.578
 21
548.336
 31
11.9
  0
LINE
  5
AA9
330
A02
100
AcDbEntity
  8
Mesh_cs
100
AcDbLine
 10
-408.578
 20
548.336
 30
11.9
 11
-408.565
 21
548.332
 31
11.9
  0
LINE
  5
AAA
330
A02
100
AcDbEntity
  8
Mesh_cs
100
AcDbLine
 10
-408.565
 20
548.332
 30
11.9
 11
-408.239
 21
548.262
 31
11.9
  0
LINE
  5
AAB
330
A02
100
AcDbEntity
  8
Mesh_cs
100
AcDbLine
 10
-408.239
 20
548.262
 30
11.9
 11
-408.225
 21
548.259
 31
11.9
  0
LINE
  5
AAC
330
A02
100
AcDbEntity
  8
Mesh_cs
100
AcDbLine
 10
-408.225
 20
548.259
 30
11.9
 11
-407.797
 21
548.203
 31
11.9
  0
LINE
  5
AAD
330
A02
100
AcDbEntity
  8
Mesh_cs
100
AcDbLine
 10
-407.797
 20
548.203
 30
11.9
 11
-407.783
 21
548.201
 31
11.9
  0
LINE
  5
AAE
330
A02
100
AcDbEntity
  8
Mesh_cs
100
AcDbLine
 10
-407.783
 20
548.201
 30
11.9
 11
-407.352
 21
548.183
 31
11.9
  0
LINE
  5
AAF
330
A02
100
AcDbEntity
  8
Mesh_cs
100
AcDbLine
 10
-407.352
 20
548.183
 30
11.9
 11
-407.338
 21
548.183
 31
11.9
  0
LINE
  5
AB0
330
A02
100
AcDbEntity
  8
Mesh_cs
100
AcDbLine
 10
-407.338
 20
548.183
 30
11.9
 11
-406.907
 21
548.203
 31
11.9
  0
LINE
  5
AB1
330
A02
100
AcDbEntity
  8
Mesh_cs
100
AcDbLine
 10
-406.907
 20
548.203
 30
11.9
 11
-406.893
 21
548.204
 31
11.9
  0
LINE
  5
AB2
330
A02
100
AcDbEntity
  8
Mesh_cs
100
AcDbLine
 10
-406.893
 20
548.204
 30
11.9
 11
-406.465
 21
548.263
 31
11.9
  0
LINE
  5
AB3
330
A02
100
AcDbEntity
  8
Mesh_cs
100
AcDbLine
 10
-406.465
 20
548.263
 30
11.9
 11
-406.452
 21
548.265
 31
11.9
  0
LINE
  5
AB4
330
A02
100
AcDbEntity
  8
Mesh_cs
100
AcDbLine
 10
-406.452
 20
548.265
 30
11.9
 11
-406.438
 21
548.268
 31
11.9
  0
LINE
  5
AB5
330
A02
100
AcDbEntity
  8
Mesh_cs
100
AcDbLine
 10
-406.438
 20
548.268
 30
11.9
 11
-406.017
 21
548.364
 31
11.9
  0
LINE
  5
AB6
330
A02
100
AcDbEntity
  8
Mesh_cs
100
AcDbLine
 10
-406.017
 20
548.364
 30
11.9
 11
-406.005
 21
548.368
 31
11.9
  0
LINE
  5
AB7
330
A02
100
AcDbEntity
  8
Mesh_cs
100
AcDbLine
 10
-406.005
 20
548.368
 30
11.9
 11
-405.594
 21
548.502
 31
11.9
  0
LINE
  5
AB8
330
A02
100
AcDbEntity
  8
Mesh_cs
100
AcDbLine
 10
-405.594
 20
548.502
 30
11.9
 11
-405.581
 21
548.507
 31
11.9
  0
LINE
  5
AB9
330
A02
100
AcDbEntity
  8
Mesh_cs
100
AcDbLine
 10
-405.581
 20
548.507
 30
11.9
 11
-405.184
 21
548.677
 31
11.9
  0
LINE
  5
ABA
330
A02
100
AcDbEntity
  8
Mesh_cs
100
AcDbLine
 10
-405.184
 20
548.677
 30
11.9
 11
-405.172
 21
548.683
 31
11.9
  0
LINE
  5
ABB
330
A02
100
AcDbEntity
  8
Mesh_cs
100
AcDbLine
 10
-405.172
 20
548.683
 30
11.9
 11
-404.792
 21
548.889
 31
11.9
  0
LINE
  5
ABC
330
A02
100
AcDbEntity
  8
Mesh_cs
100
AcDbLine
 10
-404.792
 20
548.889
 30
11.9
 11
-404.779
 21
548.896
 31
11.9
  0
LINE
  5
ABD
330
A02
100
AcDbEntity
  8
Mesh_cs
100
AcDbLine
 10
-404.779
 20
548.896
 30
11.9
 11
-404.453
 21
549.109
 31
11.9
  0
LINE
  5
ABE
330
A02
100
AcDbEntity
  8
Mesh_cs
100
AcDbLine
 10
-404.453
 20
549.109
 30
11.9
 11
-404.441
 21
549.118
 31
11.9
  0
LINE
  5
ABF
330
A02
100
AcDbEntity
  8
Mesh_cs
100
AcDbLine
 10
-404.441
 20
549.118
 30
11.9
 11
-404.134
 21
549.357
 31
11.9
  0
LINE
  5
AC0
330
A02
100
AcDbEntity
  8
Mesh_cs
100
AcDbLine
 10
-404.134
 20
549.357
 30
11.9
 11
-404.123
 21
549.366
 31
11.9
  0
LINE
  5
AC1
330
A02
100
AcDbEntity
  8
Mesh_cs
100
AcDbLine
 10
-404.123
 20
549.366
 30
11.9
 11
-403.836
 21
549.629
 31
11.9
  0
LINE
  5
AC2
330
A02
100
AcDbEntity
  8
Mesh_cs
100
AcDbLine
 10
-403.836
 20
549.629
 30
11.9
 11
-403.825
 21
549.639
 31
11.9
  0
LINE
  5
AC3
330
A02
100
AcDbEntity
  8
Mesh_cs
100
AcDbLine
 10
-403.825
 20
549.639
 30
11.9
 11
-403.56
 21
549.924
 31
11.9
  0
LINE
  5
AC4
330
A02
100
AcDbEntity
  8
Mesh_cs
100
AcDbLine
 10
-403.56
 20
549.924
 30
11.9
 11
-403.551
 21
549.936
 31
11.9
  0
LINE
  5
AC5
330
A02
100
AcDbEntity
  8
Mesh_cs
100
AcDbLine
 10
-403.551
 20
549.936
 30
11.9
 11
-403.31
 21
550.241
 31
11.9
  0
LINE
  5
AC6
330
A02
100
AcDbEntity
  8
Mesh_cs
100
AcDbLine
 10
-403.31
 20
550.241
 30
11.9
 11
-403.094
 21
550.564
 31
11.9
  0
LINE
  5
AC7
330
A02
100
AcDbEntity
  8
Mesh_cs
100
AcDbLine
 10
-403.094
 20
550.564
 30
11.9
 11
-403.085
 21
550.577
 31
11.9
  0
LINE
  5
AC8
330
A02
100
AcDbEntity
  8
Mesh_cs
100
AcDbLine
 10
-403.085
 20
550.577
 30
11.9
 11
-402.912
 21
550.885
 31
11.9
  0
LINE
  5
AC9
330
A02
100
AcDbEntity
  8
Mesh_cs
100
AcDbLine
 10
-402.912
 20
550.885
 30
11.9
 11
-402.905
 21
550.898
 31
11.9
  0
LINE
  5
ACA
330
A02
100
AcDbEntity
  8
Mesh_cs
100
AcDbLine
 10
-402.905
 20
550.898
 30
11.9
 11
-402.741
 21
551.252
 31
11.9
  0
LINE
  5
ACB
330
A02
100
AcDbEntity
  8
Mesh_cs
100
AcDbLine
 10
-402.741
 20
551.252
 30
11.9
 11
-402.736
 21
551.262
 31
11.9
  0
LINE
  5
ACC
330
A02
100
AcDbEntity
  8
Mesh_cs
100
AcDbLine
 10
-402.736
 20
551.262
 30
11.9
 11
-402.601
 21
551.627
 31
11.9
  0
LINE
  5
ACD
330
A02
100
AcDbEntity
  8
Mesh_cs
100
AcDbLine
 10
-402.601
 20
551.627
 30
11.9
 11
-402.597
 21
551.638
 31
11.9
  0
LINE
  5
ACE
330
A02
100
AcDbEntity
  8
Mesh_cs
100
AcDbLine
 10
-402.597
 20
551.638
 30
11.9
 11
-396.805
 21
569.464
 31
11.9
  0
LINE
  5
ACF
330
A02
100
AcDbEntity
  8
Mesh_cs
100
AcDbLine
 10
-396.805
 20
569.464
 30
11.9
 11
-396.605
 21
570.079
 31
11.9
  0
LINE
  5
AD0
330
A02
100
AcDbEntity
  8
Mesh_cs
100
AcDbLine
 10
-396.605
 20
570.079
 30
11.9
 11
-392.587
 21
568.572
 31
11.9
  0
LINE
  5
AD1
330
A02
100
AcDbEntity
  8
Mesh_cs
100
AcDbLine
 10
-392.587
 20
568.572
 30
11.9
 11
-392.435
 21
568.514
 31
11.9
  0
LINE
  5
AD2
330
A02
100
AcDbEntity
  8
Mesh_cs
100
AcDbLine
 10
-392.435
 20
568.514
 30
11.9
 11
-388.321
 21
566.937
 31
11.9
  0
LINE
  5
AD3
330
A02
100
AcDbEntity
  8
Mesh_cs
100
AcDbLine
 10
-388.321
 20
566.937
 30
11.9
 11
-388.286
 21
566.924
 31
11.9
  0
LINE
  5
AD4
330
A02
100
AcDbEntity
  8
Mesh_cs
100
AcDbLine
 10
-388.286
 20
566.924
 30
11.9
 11
-384.187
 21
565.318
 31
11.9
  0
LINE
  5
AD5
330
A02
100
AcDbEntity
  8
Mesh_cs
100
AcDbLine
 10
-384.187
 20
565.318
 30
11.9
 11
-384.152
 21
565.304
 31
11.9
  0
LINE
  5
AD6
330
A02
100
AcDbEntity
  8
Mesh_cs
100
AcDbLine
 10
-384.152
 20
565.304
 30
11.9
 11
-380.064
 21
563.668
 31
11.9
  0
LINE
  5
AD7
330
A02
100
AcDbEntity
  8
Mesh_cs
100
AcDbLine
 10
-380.064
 20
563.668
 30
11.9
 11
-380.03
 21
563.654
 31
11.9
  0
LINE
  5
AD8
330
A02
100
AcDbEntity
  8
Mesh_cs
100
AcDbLine
 10
-380.03
 20
563.654
 30
11.9
 11
-375.955
 21
561.989
 31
11.9
  0
LINE
  5
AD9
330
A02
100
AcDbEntity
  8
Mesh_cs
100
AcDbLine
 10
-375.955
 20
561.989
 30
11.9
 11
-375.92
 21
561.975
 31
11.9
  0
LINE
  5
ADA
330
A02
100
AcDbEntity
  8
Mesh_cs
100
AcDbLine
 10
-375.92
 20
561.975
 30
11.9
 11
-371.857
 21
560.279
 31
11.9
  0
LINE
  5
ADB
330
A02
100
AcDbEntity
  8
Mesh_cs
100
AcDbLine
 10
-371.857
 20
560.279
 30
11.9
 11
-371.823
 21
560.265
 31
11.9
  0
LINE
  5
ADC
330
A02
100
AcDbEntity
  8
Mesh_cs
100
AcDbLine
 10
-371.823
 20
560.265
 30
11.9
 11
-367.773
 21
558.54
 31
11.9
  0
LINE
  5
ADD
330
A02
100
AcDbEntity
  8
Mesh_cs
100
AcDbLine
 10
-367.773
 20
558.54
 30
11.9
 11
-367.739
 21
558.525
 31
11.9
  0
LINE
  5
ADE
330
A02
100
AcDbEntity
  8
Mesh_cs
100
AcDbLine
 10
-367.739
 20
558.525
 30
11.9
 11
-363.701
 21
556.771
 31
11.9
  0
LINE
  5
ADF
330
A02
100
AcDbEntity
  8
Mesh_cs
100
AcDbLine
 10
-363.701
 20
556.771
 30
11.9
 11
-363.667
 21
556.756
 31
11.9
  0
LINE
  5
AE0
330
A02
100
AcDbEntity
  8
Mesh_cs
100
AcDbLine
 10
-363.667
 20
556.756
 30
11.9
 11
-359.642
 21
554.972
 31
11.9
  0
LINE
  5
AE1
330
A02
100
AcDbEntity
  8
Mesh_cs
100
AcDbLine
 10
-359.642
 20
554.972
 30
11.9
 11
-359.608
 21
554.957
 31
11.9
  0
LINE
  5
AE2
330
A02
100
AcDbEntity
  8
Mesh_cs
100
AcDbLine
 10
-359.608
 20
554.957
 30
11.9
 11
-355.596
 21
553.144
 31
11.9
  0
LINE
  5
AE3
330
A02
100
AcDbEntity
  8
Mesh_cs
100
AcDbLine
 10
-355.596
 20
553.144
 30
11.9
 11
-355.563
 21
553.129
 31
11.9
  0
LINE
  5
AE4
330
A02
100
AcDbEntity
  8
Mesh_cs
100
AcDbLine
 10
-355.563
 20
553.129
 30
11.9
 11
-351.564
 21
551.286
 31
11.9
  0
LINE
  5
AE5
330
A02
100
AcDbEntity
  8
Mesh_cs
100
AcDbLine
 10
-351.564
 20
551.286
 30
11.9
 11
-351.531
 21
551.271
 31
11.9
  0
LINE
  5
AE6
330
A02
100
AcDbEntity
  8
Mesh_cs
100
AcDbLine
 10
-351.531
 20
551.271
 30
11.9
 11
-347.546
 21
549.399
 31
11.9
  0
LINE
  5
AE7
330
A02
100
AcDbEntity
  8
Mesh_cs
100
AcDbLine
 10
-347.546
 20
549.399
 30
11.9
 11
-347.513
 21
549.383
 31
11.9
  0
LINE
  5
AE8
330
A02
100
AcDbEntity
  8
Mesh_cs
100
AcDbLine
 10
-347.513
 20
549.383
 30
11.9
 11
-343.542
 21
547.483
 31
11.9
  0
LINE
  5
AE9
330
A02
100
AcDbEntity
  8
Mesh_cs
100
AcDbLine
 10
-343.542
 20
547.483
 30
11.9
 11
-343.508
 21
547.467
 31
11.9
  0
LINE
  5
AEA
330
A02
100
AcDbEntity
  8
Mesh_cs
100
AcDbLine
 10
-343.508
 20
547.467
 30
11.9
 11
-339.552
 21
545.537
 31
11.9
  0
LINE
  5
AEB
330
A02
100
AcDbEntity
  8
Mesh_cs
100
AcDbLine
 10
-339.552
 20
545.537
 30
11.9
 11
-339.518
 21
545.521
 31
11.9
  0
LINE
  5
AEC
330
A02
100
AcDbEntity
  8
Mesh_cs
100
AcDbLine
 10
-339.518
 20
545.521
 30
11.9
 11
-335.576
 21
543.562
 31
11.9
  0
LINE
  5
AED
330
A02
100
AcDbEntity
  8
Mesh_cs
100
AcDbLine
 10
-335.576
 20
543.562
 30
11.9
 11
-335.543
 21
543.546
 31
11.9
  0
LINE
  5
AEE
330
A02
100
AcDbEntity
  8
Mesh_cs
100
AcDbLine
 10
-335.543
 20
543.546
 30
11.9
 11
-331.614
 21
541.559
 31
11.9
  0
LINE
  5
AEF
330
A02
100
AcDbEntity
  8
Mesh_cs
100
AcDbLine
 10
-331.614
 20
541.559
 30
11.9
 11
-331.582
 21
541.542
 31
11.9
  0
LINE
  5
AF0
330
A02
100
AcDbEntity
  8
Mesh_cs
100
AcDbLine
 10
-331.582
 20
541.542
 30
11.9
 11
-327.668
 21
539.526
 31
11.9
  0
LINE
  5
AF1
330
A02
100
AcDbEntity
  8
Mesh_cs
100
AcDbLine
 10
-327.668
 20
539.526
 30
11.9
 11
-327.635
 21
539.509
 31
11.9
  0
LINE
  5
AF2
330
A02
100
AcDbEntity
  8
Mesh_cs
100
AcDbLine
 10
-327.635
 20
539.509
 30
11.9
 11
-323.737
 21
537.465
 31
11.9
  0
LINE
  5
AF3
330
A02
100
AcDbEntity
  8
Mesh_cs
100
AcDbLine
 10
-323.737
 20
537.465
 30
11.9
 11
-323.704
 21
537.448
 31
11.9
  0
LINE
  5
AF4
330
A02
100
AcDbEntity
  8
Mesh_cs
100
AcDbLine
 10
-323.704
 20
537.448
 30
11.9
 11
-319.82
 21
535.376
 31
11.9
  0
LINE
  5
AF5
330
A02
100
AcDbEntity
  8
Mesh_cs
100
AcDbLine
 10
-319.82
 20
535.376
 30
11.9
 11
-319.788
 21
535.358
 31
11.9
  0
LINE
  5
AF6
330
A02
100
AcDbEntity
  8
Mesh_cs
100
AcDbLine
 10
-319.788
 20
535.358
 30
11.9
 11
-315.919
 21
533.257
 31
11.9
  0
LINE
  5
AF7
330
A02
100
AcDbEntity
  8
Mesh_cs
100
AcDbLine
 10
-315.919
 20
533.257
 30
11.9
 11
-315.887
 21
533.24
 31
11.9
  0
LINE
  5
AF8
330
A02
100
AcDbEntity
  8
Mesh_cs
100
AcDbLine
 10
-315.887
 20
533.24
 30
11.9
 11
-312.034
 21
531.111
 31
11.9
  0
LINE
  5
AF9
330
A02
100
AcDbEntity
  8
Mesh_cs
100
AcDbLine
 10
-312.034
 20
531.111
 30
11.9
 11
-312.002
 21
531.093
 31
11.9
  0
LINE
  5
AFA
330
A02
100
AcDbEntity
  8
Mesh_cs
100
AcDbLine
 10
-312.002
 20
531.093
 30
11.9
 11
-308.165
 21
528.936
 31
11.9
  0
LINE
  5
AFB
330
A02
100
AcDbEntity
  8
Mesh_cs
100
AcDbLine
 10
-308.165
 20
528.936
 30
11.9
 11
-308.133
 21
528.918
 31
11.9
  0
LINE
  5
AFC
330
A02
100
AcDbEntity
  8
Mesh_cs
100
AcDbLine
 10
-308.133
 20
528.918
 30
11.9
 11
-304.311
 21
526.733
 31
11.9
  0
LINE
  5
AFD
330
A02
100
AcDbEntity
  8
Mesh_cs
100
AcDbLine
 10
-304.311
 20
526.733
 30
11.9
 11
-304.279
 21
526.714
 31
11.9
  0
LINE
  5
AFE
330
A02
100
AcDbEntity
  8
Mesh_cs
100
AcDbLine
 10
-304.279
 20
526.714
 30
11.9
 11
-300.474
 21
524.502
 31
11.9
  0
LINE
  5
AFF
330
A02
100
AcDbEntity
  8
Mesh_cs
100
AcDbLine
 10
-300.474
 20
524.502
 30
11.9
 11
-300.442
 21
524.483
 31
11.9
  0
LINE
  5
B00
330
A02
100
AcDbEntity
  8
Mesh_cs
100
AcDbLine
 10
-300.442
 20
524.483
 30
11.9
 11
-296.654
 21
522.243
 31
11.9
  0
LINE
  5
B01
330
A02
100
AcDbEntity
  8
Mesh_cs
100
AcDbLine
 10
-296.654
 20
522.243
 30
11.9
 11
-296.618
 21
522.221
 31
11.9
  0
LINE
  5
B02
330
A02
100
AcDbEntity
  8
Mesh_cs
100
AcDbLine
 10
-296.618
 20
522.221
 30
11.9
 11
-292.846
 21
519.954
 31
11.9
  0
LINE
  5
B03
330
A02
100
AcDbEntity
  8
Mesh_cs
100
AcDbLine
 10
-292.846
 20
519.954
 30
11.9
 11
-292.811
 21
519.932
 31
11.9
  0
LINE
  5
B04
330
A02
100
AcDbEntity
  8
Mesh_cs
100
AcDbLine
 10
-292.811
 20
519.932
 30
11.9
 11
-289.055
 21
517.637
 31
11.9
  0
LINE
  5
B05
330
A02
100
AcDbEntity
  8
Mesh_cs
100
AcDbLine
 10
-289.055
 20
517.637
 30
11.9
 11
-289.02
 21
517.615
 31
11.9
  0
LINE
  5
B06
330
A02
100
AcDbEntity
  8
Mesh_cs
100
AcDbLine
 10
-289.02
 20
517.615
 30
11.9
 11
-284.867
 21
515.033
 31
11.9
  0
LINE
  5
B07
330
A02
100
AcDbEntity
  8
Mesh_cs
100
AcDbLine
 10
-284.867
 20
515.033
 30
11.9
 11
-284.833
 21
515.011
 31
11.9
  0
LINE
  5
B08
330
A02
100
AcDbEntity
  8
Mesh_cs
100
AcDbLine
 10
-284.833
 20
515.011
 30
11.9
 11
-280.701
 21
512.395
 31
11.9
  0
LINE
  5
B09
330
A02
100
AcDbEntity
  8
Mesh_cs
100
AcDbLine
 10
-280.701
 20
512.395
 30
11.9
 11
-280.666
 21
512.373
 31
11.9
  0
LINE
  5
B0A
330
A02
100
AcDbEntity
  8
Mesh_cs
100
AcDbLine
 10
-280.666
 20
512.373
 30
11.9
 11
-276.556
 21
509.723
 31
11.9
  0
LINE
  5
B0B
330
A02
100
AcDbEntity
  8
Mesh_cs
100
AcDbLine
 10
-276.556
 20
509.723
 30
11.9
 11
-276.521
 21
509.701
 31
11.9
  0
LINE
  5
B0C
330
A02
100
AcDbEntity
  8
Mesh_cs
100
AcDbLine
 10
-276.521
 20
509.701
 30
11.9
 11
-272.433
 21
507.018
 31
11.9
  0
LINE
  5
B0D
330
A02
100
AcDbEntity
  8
Mesh_cs
100
AcDbLine
 10
-272.433
 20
507.018
 30
11.9
 11
-272.398
 21
506.996
 31
11.9
  0
LINE
  5
B0E
330
A02
100
AcDbEntity
  8
Mesh_cs
100
AcDbLine
 10
-272.398
 20
506.996
 30
11.9
 11
-268.332
 21
504.28
 31
11.9
  0
LINE
  5
B0F
330
A02
100
AcDbEntity
  8
Mesh_cs
100
AcDbLine
 10
-268.332
 20
504.28
 30
11.9
 11
-268.298
 21
504.257
 31
11.9
  0
LINE
  5
B10
330
A02
100
AcDbEntity
  8
Mesh_cs
100
AcDbLine
 10
-268.298
 20
504.257
 30
11.9
 11
-264.253
 21
501.509
 31
11.9
  0
LINE
  5
B11
330
A02
100
AcDbEntity
  8
Mesh_cs
100
AcDbLine
 10
-264.253
 20
501.509
 30
11.9
 11
-264.219
 21
501.485
 31
11.9
  0
LINE
  5
B12
330
A02
100
AcDbEntity
  8
Mesh_cs
100
AcDbLine
 10
-264.219
 20
501.485
 30
11.9
 11
-260.197
 21
498.704
 31
11.9
  0
LINE
  5
B13
330
A02
100
AcDbEntity
  8
Mesh_cs
100
AcDbLine
 10
-260.197
 20
498.704
 30
11.9
 11
-260.163
 21
498.681
 31
11.9
  0
LINE
  5
B14
330
A02
100
AcDbEntity
  8
Mesh_cs
100
AcDbLine
 10
-260.163
 20
498.681
 30
11.9
 11
-256.164
 21
495.867
 31
11.9
  0
LINE
  5
B15
330
A02
100
AcDbEntity
  8
Mesh_cs
100
AcDbLine
 10
-256.164
 20
495.867
 30
11.9
 11
-256.131
 21
495.843
 31
11.9
  0
LINE
  5
B16
330
A02
100
AcDbEntity
  8
Mesh_cs
100
AcDbLine
 10
-256.131
 20
495.843
 30
11.9
 11
-252.154
 21
492.997
 31
11.9
  0
LINE
  5
B17
330
A02
100
AcDbEntity
  8
Mesh_cs
100
AcDbLine
 10
-252.154
 20
492.997
 30
11.9
 11
-252.121
 21
492.973
 31
11.9
  0
LINE
  5
B18
330
A02
100
AcDbEntity
  8
Mesh_cs
100
AcDbLine
 10
-252.121
 20
492.973
 30
11.9
 11
-248.168
 21
490.095
 31
11.9
  0
LINE
  5
B19
330
A02
100
AcDbEntity
  8
Mesh_cs
100
AcDbLine
 10
-248.168
 20
490.095
 30
11.9
 11
-248.135
 21
490.071
 31
11.9
  0
LINE
  5
B1A
330
A02
100
AcDbEntity
  8
Mesh_cs
100
AcDbLine
 10
-248.135
 20
490.071
 30
11.9
 11
-244.205
 21
487.161
 31
11.9
  0
LINE
  5
B1B
330
A02
100
AcDbEntity
  8
Mesh_cs
100
AcDbLine
 10
-244.205
 20
487.161
 30
11.9
 11
-244.173
 21
487.136
 31
11.9
  0
LINE
  5
B1C
330
A02
100
AcDbEntity
  8
Mesh_cs
100
AcDbLine
 10
-244.173
 20
487.136
 30
11.9
 11
-240.267
 21
484.194
 31
11.9
  0
LINE
  5
B1D
330
A02
100
AcDbEntity
  8
Mesh_cs
100
AcDbLine
 10
-240.267
 20
484.194
 30
11.9
 11
-240.234
 21
484.17
 31
11.9
  0
LINE
  5
B1E
330
A02
100
AcDbEntity
  8
Mesh_cs
100
AcDbLine
 10
-240.234
 20
484.17
 30
11.9
 11
-236.352
 21
481.196
 31
11.9
  0
LINE
  5
B1F
330
A02
100
AcDbEntity
  8
Mesh_cs
100
AcDbLine
 10
-236.352
 20
481.196
 30
11.9
 11
-236.32
 21
481.171
 31
11.9
  0
LINE
  5
B20
330
A02
100
AcDbEntity
  8
Mesh_cs
100
AcDbLine
 10
-236.32
 20
481.171
 30
11.9
 11
-232.463
 21
478.167
 31
11.9
  0
LINE
  5
B21
330
A02
100
AcDbEntity
  8
Mesh_cs
100
AcDbLine
 10
-232.463
 20
478.167
 30
11.9
 11
-232.43
 21
478.141
 31
11.9
  0
LINE
  5
B22
330
A02
100
AcDbEntity
  8
Mesh_cs
100
AcDbLine
 10
-232.43
 20
478.141
 30
11.9
 11
-228.598
 21
475.106
 31
11.9
  0
LINE
  5
B23
330
A02
100
AcDbEntity
  8
Mesh_cs
100
AcDbLine
 10
-228.598
 20
475.106
 30
11.9
 11
-228.566
 21
475.08
 31
11.9
  0
LINE
  5
B24
330
A02
100
AcDbEntity
  8
Mesh_cs
100
AcDbLine
 10
-228.566
 20
475.08
 30
11.9
 11
-224.758
 21
472.013
 31
11.9
  0
LINE
  5
B25
330
A02
100
AcDbEntity
  8
Mesh_cs
100
AcDbLine
 10
-224.758
 20
472.013
 30
11.9
 11
-224.726
 21
471.987
 31
11.9
  0
LINE
  5
B26
330
A02
100
AcDbEntity
  8
Mesh_cs
100
AcDbLine
 10
-224.726
 20
471.987
 30
11.9
 11
-220.943
 21
468.89
 31
11.9
  0
LINE
  5
B27
330
A02
100
AcDbEntity
  8
Mesh_cs
100
AcDbLine
 10
-220.943
 20
468.89
 30
11.9
 11
-220.911
 21
468.864
 31
11.9
  0
LINE
  5
B28
330
A02
100
AcDbEntity
  8
Mesh_cs
100
AcDbLine
 10
-220.911
 20
468.864
 30
11.9
 11
-217.153
 21
465.736
 31
11.9
  0
LINE
  5
B29
330
A02
100
AcDbEntity
  8
Mesh_cs
100
AcDbLine
 10
-217.153
 20
465.736
 30
11.9
 11
-217.122
 21
465.71
 31
11.9
  0
LINE
  5
B2A
330
A02
100
AcDbEntity
  8
Mesh_cs
100
AcDbLine
 10
-217.122
 20
465.71
 30
11.9
 11
-213.39
 21
462.552
 31
11.9
  0
LINE
  5
B2B
330
A02
100
AcDbEntity
  8
Mesh_cs
100
AcDbLine
 10
-213.39
 20
462.552
 30
11.9
 11
-213.359
 21
462.525
 31
11.9
  0
LINE
  5
B2C
330
A02
100
AcDbEntity
  8
Mesh_cs
100
AcDbLine
 10
-213.359
 20
462.525
 30
11.9
 11
-209.652
 21
459.337
 31
11.9
  0
LINE
  5
B2D
330
A02
100
AcDbEntity
  8
Mesh_cs
100
AcDbLine
 10
-209.652
 20
459.337
 30
11.9
 11
-209.621
 21
459.31
 31
11.9
  0
LINE
  5
B2E
330
A02
100
AcDbEntity
  8
Mesh_cs
100
AcDbLine
 10
-209.621
 20
459.31
 30
11.9
 11
-205.941
 21
456.092
 31
11.9
  0
LINE
  5
B2F
330
A02
100
AcDbEntity
  8
Mesh_cs
100
AcDbLine
 10
-205.941
 20
456.092
 30
11.9
 11
-205.91
 21
456.064
 31
11.9
  0
LINE
  5
B30
330
A02
100
AcDbEntity
  8
Mesh_cs
100
AcDbLine
 10
-205.91
 20
456.064
 30
11.9
 11
-202.256
 21
452.817
 31
11.9
  0
LINE
  5
B31
330
A02
100
AcDbEntity
  8
Mesh_cs
100
AcDbLine
 10
-202.256
 20
452.817
 30
11.9
 11
-202.226
 21
452.789
 31
11.9
  0
LINE
  5
B32
330
A02
100
AcDbEntity
  8
Mesh_cs
100
AcDbLine
 10
-202.226
 20
452.789
 30
11.9
 11
-198.619
 21
449.53
 31
11.9
  0
LINE
  5
B33
330
A02
100
AcDbEntity
  8
Mesh_cs
100
AcDbLine
 10
-198.619
 20
449.53
 30
11.9
 11
-198.598
 21
449.512
 31
11.9
  0
LINE
  5
B34
330
A02
100
AcDbEntity
  8
Mesh_cs
100
AcDbLine
 10
-198.598
 20
449.512
 30
11.9
 11
-195.02
 21
446.227
 31
11.9
  0
LINE
  5
B35
330
A02
100
AcDbEntity
  8
Mesh_cs
100
AcDbLine
 10
-195.02
 20
446.227
 30
11.9
 11
-195
 21
446.208
 31
11.9
  0
LINE
  5
B36
330
A02
100
AcDbEntity
  8
Mesh_cs
100
AcDbLine
 10
-195
 20
446.208
 30
11.9
 11
-195
 21
434.484
 31
11.9
  0
LINE
  5
B37
330
A02
100
AcDbEntity
  8
Mesh_cs
100
AcDbLine
 10
-454.237
 20
383.331
 30
11.9
 11
-454.246
 21
383.343
 31
11.9
  0
LINE
  5
B38
330
A02
100
AcDbEntity
  8
Mesh_cs
100
AcDbLine
 10
-454.246
 20
383.343
 30
11.9
 11
-454.312
 21
383.424
 31
11.9
  0
LINE
  5
B39
330
A02
100
AcDbEntity
  8
Mesh_cs
100
AcDbLine
 10
-454.312
 20
383.424
 30
11.9
 11
-454.433
 21
383.579
 31
11.9
  0
LINE
  5
B3A
330
A02
100
AcDbEntity
  8
Mesh_cs
100
AcDbLine
 10
-454.433
 20
383.579
 30
11.9
 11
-454.563
 21
383.728
 31
11.9
  0
LINE
  5
B3B
330
A02
100
AcDbEntity
  8
Mesh_cs
100
AcDbLine
 10
-454.563
 20
383.728
 30
11.9
 11
-454.601
 21
383.769
 31
11.9
  0
LINE
  5
B3C
330
A02
100
AcDbEntity
  8
Mesh_cs
100
AcDbLine
 10
-454.601
 20
383.769
 30
11.9
 11
-454.824
 21
383.989
 31
11.9
  0
LINE
  5
B3D
330
A02
100
AcDbEntity
  8
Mesh_cs
100
AcDbLine
 10
-454.824
 20
383.989
 30
11.9
 11
-454.921
 21
384.081
 31
11.9
  0
LINE
  5
B3E
330
A02
100
AcDbEntity
  8
Mesh_cs
100
AcDbLine
 10
-454.921
 20
384.081
 30
11.9
 11
-455.127
 21
384.252
 31
11.9
  0
LINE
  5
B3F
330
A02
100
AcDbEntity
  8
Mesh_cs
100
AcDbLine
 10
-455.127
 20
384.252
 30
11.9
 11
-455.269
 21
384.365
 31
11.9
  0
LINE
  5
B40
330
A02
100
AcDbEntity
  8
Mesh_cs
100
AcDbLine
 10
-455.269
 20
384.365
 30
11.9
 11
-455.49
 21
384.517
 31
11.9
  0
LINE
  5
B41
330
A02
100
AcDbEntity
  8
Mesh_cs
100
AcDbLine
 10
-455.49
 20
384.517
 30
11.9
 11
-455.61
 21
384.598
 31
11.9
  0
LINE
  5
B42
330
A02
100
AcDbEntity
  8
Mesh_cs
100
AcDbLine
 10
-455.61
 20
384.598
 30
11.9
 11
-455.636
 21
384.613
 31
11.9
  0
LINE
  5
B43
330
A02
100
AcDbEntity
  8
Mesh_cs
100
AcDbLine
 10
-455.636
 20
384.613
 30
11.9
 11
-455.951
 21
384.791
 31
11.9
  0
LINE
  5
B44
330
A02
100
AcDbEntity
  8
Mesh_cs
100
AcDbLine
 10
-455.951
 20
384.791
 30
11.9
 11
-455.976
 21
384.804
 31
11.9
  0
LINE
  5
B45
330
A02
100
AcDbEntity
  8
Mesh_cs
100
AcDbLine
 10
-455.976
 20
384.804
 30
11.9
 11
-456.304
 21
384.957
 31
11.9
  0
LINE
  5
B46
330
A02
100
AcDbEntity
  8
Mesh_cs
100
AcDbLine
 10
-456.304
 20
384.957
 30
11.9
 11
-456.329
 21
384.968
 31
11.9
  0
LINE
  5
B47
330
A02
100
AcDbEntity
  8
Mesh_cs
100
AcDbLine
 10
-456.329
 20
384.968
 30
11.9
 11
-456.669
 21
385.094
 31
11.9
  0
LINE
  5
B48
330
A02
100
AcDbEntity
  8
Mesh_cs
100
AcDbLine
 10
-456.669
 20
385.094
 30
11.9
 11
-456.681
 21
385.098
 31
11.9
  0
LINE
  5
B49
330
A02
100
AcDbEntity
  8
Mesh_cs
100
AcDbLine
 10
-456.681
 20
385.098
 30
11.9
 11
-456.706
 21
385.108
 31
11.9
  0
LINE
  5
B4A
330
A02
100
AcDbEntity
  8
Mesh_cs
100
AcDbLine
 10
-456.706
 20
385.108
 30
11.9
 11
-450.762
 21
403.403
 31
11.9
  0
LINE
  5
B4B
330
A02
100
AcDbEntity
  8
Mesh_cs
100
AcDbLine
 10
-450.762
 20
403.403
 30
11.9
 11
-450.557
 21
404.034
 31
11.9
  0
LINE
  5
B4C
330
A02
100
AcDbEntity
  8
Mesh_cs
100
AcDbLine
 10
-450.557
 20
404.034
 30
11.9
 11
-450.554
 21
404.044
 31
11.9
  0
LINE
  5
B4D
330
A02
100
AcDbEntity
  8
Mesh_cs
100
AcDbLine
 10
-450.554
 20
404.044
 30
11.9
 11
-450.448
 21
404.419
 31
11.9
  0
LINE
  5
B4E
330
A02
100
AcDbEntity
  8
Mesh_cs
100
AcDbLine
 10
-450.448
 20
404.419
 30
11.9
 11
-450.446
 21
404.43
 31
11.9
  0
LINE
  5
B4F
330
A02
100
AcDbEntity
  8
Mesh_cs
100
AcDbLine
 10
-450.446
 20
404.43
 30
11.9
 11
-450.371
 21
404.813
 31
11.9
  0
LINE
  5
B50
330
A02
100
AcDbEntity
  8
Mesh_cs
100
AcDbLine
 10
-450.371
 20
404.813
 30
11.9
 11
-450.369
 21
404.827
 31
11.9
  0
LINE
  5
B51
330
A02
100
AcDbEntity
  8
Mesh_cs
100
AcDbLine
 10
-450.369
 20
404.827
 30
11.9
 11
-450.328
 21
405.179
 31
11.9
  0
LINE
  5
B52
330
A02
100
AcDbEntity
  8
Mesh_cs
100
AcDbLine
 10
-450.328
 20
405.179
 30
11.9
 11
-450.327
 21
405.194
 31
11.9
  0
LINE
  5
B53
330
A02
100
AcDbEntity
  8
Mesh_cs
100
AcDbLine
 10
-450.327
 20
405.194
 30
11.9
 11
-450.312
 21
405.582
 31
11.9
  0
LINE
  5
B54
330
A02
100
AcDbEntity
  8
Mesh_cs
100
AcDbLine
 10
-450.312
 20
405.582
 30
11.9
 11
-450.328
 21
405.971
 31
11.9
  0
LINE
  5
B55
330
A02
100
AcDbEntity
  8
Mesh_cs
100
AcDbLine
 10
-450.328
 20
405.971
 30
11.9
 11
-450.329
 21
405.986
 31
11.9
  0
LINE
  5
B56
330
A02
100
AcDbEntity
  8
Mesh_cs
100
AcDbLine
 10
-450.329
 20
405.986
 30
11.9
 11
-450.376
 21
406.372
 31
11.9
  0
LINE
  5
B57
330
A02
100
AcDbEntity
  8
Mesh_cs
100
AcDbLine
 10
-450.376
 20
406.372
 30
11.9
 11
-450.378
 21
406.387
 31
11.9
  0
LINE
  5
B58
330
A02
100
AcDbEntity
  8
Mesh_cs
100
AcDbLine
 10
-450.378
 20
406.387
 30
11.9
 11
-450.456
 21
406.768
 31
11.9
  0
LINE
  5
B59
330
A02
100
AcDbEntity
  8
Mesh_cs
100
AcDbLine
 10
-450.456
 20
406.768
 30
11.9
 11
-450.459
 21
406.782
 31
11.9
  0
LINE
  5
B5A
330
A02
100
AcDbEntity
  8
Mesh_cs
100
AcDbLine
 10
-450.459
 20
406.782
 30
11.9
 11
-450.568
 21
407.156
 31
11.9
  0
LINE
  5
B5B
330
A02
100
AcDbEntity
  8
Mesh_cs
100
AcDbLine
 10
-450.568
 20
407.156
 30
11.9
 11
-450.572
 21
407.17
 31
11.9
  0
LINE
  5
B5C
330
A02
100
AcDbEntity
  8
Mesh_cs
100
AcDbLine
 10
-450.572
 20
407.17
 30
11.9
 11
-450.71
 21
407.534
 31
11.9
  0
LINE
  5
B5D
330
A02
100
AcDbEntity
  8
Mesh_cs
100
AcDbLine
 10
-450.71
 20
407.534
 30
11.9
 11
-450.716
 21
407.547
 31
11.9
  0
LINE
  5
B5E
330
A02
100
AcDbEntity
  8
Mesh_cs
100
AcDbLine
 10
-450.716
 20
407.547
 30
11.9
 11
-450.903
 21
407.937
 31
11.9
  0
LINE
  5
B5F
330
A02
100
AcDbEntity
  8
Mesh_cs
100
AcDbLine
 10
-450.903
 20
407.937
 30
11.9
 11
-450.91
 21
407.949
 31
11.9
  0
LINE
  5
B60
330
A02
100
AcDbEntity
  8
Mesh_cs
100
AcDbLine
 10
-450.91
 20
407.949
 30
11.9
 11
-451.131
 21
408.32
 31
11.9
  0
LINE
  5
B61
330
A02
100
AcDbEntity
  8
Mesh_cs
100
AcDbLine
 10
-451.131
 20
408.32
 30
11.9
 11
-451.138
 21
408.331
 31
11.9
  0
LINE
  5
B62
330
A02
100
AcDbEntity
  8
Mesh_cs
100
AcDbLine
 10
-451.138
 20
408.331
 30
11.9
 11
-451.392
 21
408.681
 31
11.9
  0
LINE
  5
B63
330
A02
100
AcDbEntity
  8
Mesh_cs
100
AcDbLine
 10
-451.392
 20
408.681
 30
11.9
 11
-451.4
 21
408.692
 31
11.9
  0
LINE
  5
B64
330
A02
100
AcDbEntity
  8
Mesh_cs
100
AcDbLine
 10
-451.4
 20
408.692
 30
11.9
 11
-451.683
 21
409.018
 31
11.9
  0
LINE
  5
B65
330
A02
100
AcDbEntity
  8
Mesh_cs
100
AcDbLine
 10
-451.683
 20
409.018
 30
11.9
 11
-451.692
 21
409.028
 31
11.9
  0
LINE
  5
B66
330
A02
100
AcDbEntity
  8
Mesh_cs
100
AcDbLine
 10
-451.692
 20
409.028
 30
11.9
 11
-451.702
 21
409.037
 31
11.9
  0
LINE
  5
B67
330
A02
100
AcDbEntity
  8
Mesh_cs
100
AcDbLine
 10
-451.702
 20
409.037
 30
11.9
 11
-452.014
 21
409.337
 31
11.9
  0
LINE
  5
B68
330
A02
100
AcDbEntity
  8
Mesh_cs
100
AcDbLine
 10
-452.014
 20
409.337
 30
11.9
 11
-452.024
 21
409.345
 31
11.9
  0
LINE
  5
B69
330
A02
100
AcDbEntity
  8
Mesh_cs
100
AcDbLine
 10
-452.024
 20
409.345
 30
11.9
 11
-452.361
 21
409.615
 31
11.9
  0
LINE
  5
B6A
330
A02
100
AcDbEntity
  8
Mesh_cs
100
AcDbLine
 10
-452.361
 20
409.615
 30
11.9
 11
-452.373
 21
409.623
 31
11.9
  0
LINE
  5
B6B
330
A02
100
AcDbEntity
  8
Mesh_cs
100
AcDbLine
 10
-452.373
 20
409.623
 30
11.9
 11
-452.732
 21
409.862
 31
11.9
  0
LINE
  5
B6C
330
A02
100
AcDbEntity
  8
Mesh_cs
100
AcDbLine
 10
-452.732
 20
409.862
 30
11.9
 11
-452.744
 21
409.869
 31
11.9
  0
LINE
  5
B6D
330
A02
100
AcDbEntity
  8
Mesh_cs
100
AcDbLine
 10
-452.744
 20
409.869
 30
11.9
 11
-453.124
 21
410.074
 31
11.9
  0
LINE
  5
B6E
330
A02
100
AcDbEntity
  8
Mesh_cs
100
AcDbLine
 10
-453.124
 20
410.074
 30
11.9
 11
-453.137
 21
410.08
 31
11.9
  0
LINE
  5
B6F
330
A02
100
AcDbEntity
  8
Mesh_cs
100
AcDbLine
 10
-453.137
 20
410.08
 30
11.9
 11
-453.441
 21
410.216
 31
11.9
  0
LINE
  5
B70
330
A02
100
AcDbEntity
  8
Mesh_cs
100
AcDbLine
 10
-453.441
 20
410.216
 30
11.9
 11
-453.454
 21
410.22
 31
11.9
  0
LINE
  5
B71
330
A02
100
AcDbEntity
  8
Mesh_cs
100
AcDbLine
 10
-453.454
 20
410.22
 30
11.9
 11
-453.767
 21
410.334
 31
11.9
  0
LINE
  5
B72
330
A02
100
AcDbEntity
  8
Mesh_cs
100
AcDbLine
 10
-453.767
 20
410.334
 30
11.9
 11
-472.062
 21
416.279
 31
11.9
  0
LINE
  5
B73
330
A02
100
AcDbEntity
  8
Mesh_cs
100
AcDbLine
 10
-472.062
 20
416.279
 30
11.9
 11
-472.693
 21
416.483
 31
11.9
  0
LINE
  5
B74
330
A02
100
AcDbEntity
  8
Mesh_cs
100
AcDbLine
 10
-472.693
 20
416.483
 30
11.9
 11
-470.99
 21
421.724
 31
11.9
  0
LINE
  5
B75
330
A02
100
AcDbEntity
  8
Mesh_cs
100
AcDbLine
 10
-470.99
 20
421.724
 30
11.9
 11
-455.666
 21
468.887
 31
11.9
  0
LINE
  5
B76
330
A02
100
AcDbEntity
  8
Mesh_cs
100
AcDbLine
 10
-455.666
 20
468.887
 30
11.9
 11
-452.247
 21
467.761
 31
11.9
  0
LINE
  5
B77
330
A02
100
AcDbEntity
  8
Mesh_cs
100
AcDbLine
 10
-452.247
 20
467.761
 30
11.9
 11
-451.868
 21
467.635
 31
11.9
  0
LINE
  5
B78
330
A02
100
AcDbEntity
  8
Mesh_cs
100
AcDbLine
 10
-451.868
 20
467.635
 30
11.9
 11
-448.454
 21
466.48
 31
11.9
  0
LINE
  5
B79
330
A02
100
AcDbEntity
  8
Mesh_cs
100
AcDbLine
 10
-448.454
 20
466.48
 30
11.9
 11
-448.075
 21
466.352
 31
11.9
  0
LINE
  5
B7A
330
A02
100
AcDbEntity
  8
Mesh_cs
100
AcDbLine
 10
-448.075
 20
466.352
 30
11.9
 11
-444.675
 21
465.17
 31
11.9
  0
LINE
  5
B7B
330
A02
100
AcDbEntity
  8
Mesh_cs
100
AcDbLine
 10
-444.675
 20
465.17
 30
11.9
 11
-444.297
 21
465.039
 31
11.9
  0
LINE
  5
B7C
330
A02
100
AcDbEntity
  8
Mesh_cs
100
AcDbLine
 10
-444.297
 20
465.039
 30
11.9
 11
-440.907
 21
463.83
 31
11.9
  0
LINE
  5
B7D
330
A02
100
AcDbEntity
  8
Mesh_cs
100
AcDbLine
 10
-440.907
 20
463.83
 30
11.9
 11
-440.53
 21
463.696
 31
11.9
  0
LINE
  5
B7E
330
A02
100
AcDbEntity
  8
Mesh_cs
100
AcDbLine
 10
-440.53
 20
463.696
 30
11.9
 11
-437.15
 21
462.459
 31
11.9
  0
LINE
  5
B7F
330
A02
100
AcDbEntity
  8
Mesh_cs
100
AcDbLine
 10
-437.15
 20
462.459
 30
11.9
 11
-436.775
 21
462.322
 31
11.9
  0
LINE
  5
B80
330
A02
100
AcDbEntity
  8
Mesh_cs
100
AcDbLine
 10
-436.775
 20
462.322
 30
11.9
 11
-433.405
 21
461.058
 31
11.9
  0
LINE
  5
B81
330
A02
100
AcDbEntity
  8
Mesh_cs
100
AcDbLine
 10
-433.405
 20
461.058
 30
11.9
 11
-433.031
 21
460.918
 31
11.9
  0
LINE
  5
B82
330
A02
100
AcDbEntity
  8
Mesh_cs
100
AcDbLine
 10
-433.031
 20
460.918
 30
11.9
 11
-429.671
 21
459.627
 31
11.9
  0
LINE
  5
B83
330
A02
100
AcDbEntity
  8
Mesh_cs
100
AcDbLine
 10
-429.671
 20
459.627
 30
11.9
 11
-429.298
 21
459.483
 31
11.9
  0
LINE
  5
B84
330
A02
100
AcDbEntity
  8
Mesh_cs
100
AcDbLine
 10
-429.298
 20
459.483
 30
11.9
 11
-425.949
 21
458.165
 31
11.9
  0
LINE
  5
B85
330
A02
100
AcDbEntity
  8
Mesh_cs
100
AcDbLine
 10
-425.949
 20
458.165
 30
11.9
 11
-425.577
 21
458.019
 31
11.9
  0
LINE
  5
B86
330
A02
100
AcDbEntity
  8
Mesh_cs
100
AcDbLine
 10
-425.577
 20
458.019
 30
11.9
 11
-422.239
 21
456.673
 31
11.9
  0
LINE
  5
B87
330
A02
100
AcDbEntity
  8
Mesh_cs
100
AcDbLine
 10
-422.239
 20
456.673
 30
11.9
 11
-421.868
 21
456.524
 31
11.9
  0
LINE
  5
B88
330
A02
100
AcDbEntity
  8
Mesh_cs
100
AcDbLine
 10
-421.868
 20
456.524
 30
11.9
 11
-418.541
 21
455.152
 31
11.9
  0
LINE
  5
B89
330
A02
100
AcDbEntity
  8
Mesh_cs
100
AcDbLine
 10
-418.541
 20
455.152
 30
11.9
 11
-418.172
 21
454.999
 31
11.9
  0
LINE
  5
B8A
330
A02
100
AcDbEntity
  8
Mesh_cs
100
AcDbLine
 10
-418.172
 20
454.999
 30
11.9
 11
-414.856
 21
453.6
 31
11.9
  0
LINE
  5
B8B
330
A02
100
AcDbEntity
  8
Mesh_cs
100
AcDbLine
 10
-414.856
 20
453.6
 30
11.9
 11
-414.488
 21
453.445
 31
11.9
  0
LINE
  5
B8C
330
A02
100
AcDbEntity
  8
Mesh_cs
100
AcDbLine
 10
-414.488
 20
453.445
 30
11.9
 11
-414.121
 21
453.286
 31
11.9
  0
LINE
  5
B8D
330
A02
100
AcDbEntity
  8
Mesh_cs
100
AcDbLine
 10
-414.121
 20
453.286
 30
11.9
 11
-410.816
 21
451.86
 31
11.9
  0
LINE
  5
B8E
330
A02
100
AcDbEntity
  8
Mesh_cs
100
AcDbLine
 10
-410.816
 20
451.86
 30
11.9
 11
-407.524
 21
450.407
 31
11.9
  0
LINE
  5
B8F
330
A02
100
AcDbEntity
  8
Mesh_cs
100
AcDbLine
 10
-407.524
 20
450.407
 30
11.9
 11
-407.158
 21
450.246
 31
11.9
  0
LINE
  5
B90
330
A02
100
AcDbEntity
  8
Mesh_cs
100
AcDbLine
 10
-407.158
 20
450.246
 30
11.9
 11
-403.878
 21
448.767
 31
11.9
  0
LINE
  5
B91
330
A02
100
AcDbEntity
  8
Mesh_cs
100
AcDbLine
 10
-403.878
 20
448.767
 30
11.9
 11
-403.513
 21
448.602
 31
11.9
  0
LINE
  5
B92
330
A02
100
AcDbEntity
  8
Mesh_cs
100
AcDbLine
 10
-403.513
 20
448.602
 30
11.9
 11
-403.15
 21
448.435
 31
11.9
  0
LINE
  5
B93
330
A02
100
AcDbEntity
  8
Mesh_cs
100
AcDbLine
 10
-403.15
 20
448.435
 30
11.9
 11
-399.882
 21
446.929
 31
11.9
  0
LINE
  5
B94
330
A02
100
AcDbEntity
  8
Mesh_cs
100
AcDbLine
 10
-399.882
 20
446.929
 30
11.9
 11
-396.626
 21
445.397
 31
11.9
  0
LINE
  5
B95
330
A02
100
AcDbEntity
  8
Mesh_cs
100
AcDbLine
 10
-396.626
 20
445.397
 30
11.9
 11
-396.264
 21
445.226
 31
11.9
  0
LINE
  5
B96
330
A02
100
AcDbEntity
  8
Mesh_cs
100
AcDbLine
 10
-396.264
 20
445.226
 30
11.9
 11
-393.021
 21
443.668
 31
11.9
  0
LINE
  5
B97
330
A02
100
AcDbEntity
  8
Mesh_cs
100
AcDbLine
 10
-393.021
 20
443.668
 30
11.9
 11
-392.661
 21
443.494
 31
11.9
  0
LINE
  5
B98
330
A02
100
AcDbEntity
  8
Mesh_cs
100
AcDbLine
 10
-392.661
 20
443.494
 30
11.9
 11
-392.302
 21
443.318
 31
11.9
  0
LINE
  5
B99
330
A02
100
AcDbEntity
  8
Mesh_cs
100
AcDbLine
 10
-392.302
 20
443.318
 30
11.9
 11
-389.071
 21
441.733
 31
11.9
  0
LINE
  5
B9A
330
A02
100
AcDbEntity
  8
Mesh_cs
100
AcDbLine
 10
-389.071
 20
441.733
 30
11.9
 11
-385.854
 21
440.122
 31
11.9
  0
LINE
  5
B9B
330
A02
100
AcDbEntity
  8
Mesh_cs
100
AcDbLine
 10
-385.854
 20
440.122
 30
11.9
 11
-385.497
 21
439.943
 31
11.9
  0
LINE
  5
B9C
330
A02
100
AcDbEntity
  8
Mesh_cs
100
AcDbLine
 10
-385.497
 20
439.943
 30
11.9
 11
-385.141
 21
439.762
 31
11.9
  0
LINE
  5
B9D
330
A02
100
AcDbEntity
  8
Mesh_cs
100
AcDbLine
 10
-385.141
 20
439.762
 30
11.9
 11
-381.936
 21
438.124
 31
11.9
  0
LINE
  5
B9E
330
A02
100
AcDbEntity
  8
Mesh_cs
100
AcDbLine
 10
-381.936
 20
438.124
 30
11.9
 11
-381.582
 21
437.94
 31
11.9
  0
LINE
  5
B9F
330
A02
100
AcDbEntity
  8
Mesh_cs
100
AcDbLine
 10
-381.582
 20
437.94
 30
11.9
 11
-378.391
 21
436.277
 31
11.9
  0
LINE
  5
BA0
330
A02
100
AcDbEntity
  8
Mesh_cs
100
AcDbLine
 10
-378.391
 20
436.277
 30
11.9
 11
-375.214
 21
434.588
 31
11.9
  0
LINE
  5
BA1
330
A02
100
AcDbEntity
  8
Mesh_cs
100
AcDbLine
 10
-375.214
 20
434.588
 30
11.9
 11
-374.861
 21
434.4
 31
11.9
  0
LINE
  5
BA2
330
A02
100
AcDbEntity
  8
Mesh_cs
100
AcDbLine
 10
-374.861
 20
434.4
 30
11.9
 11
-371.697
 21
432.686
 31
11.9
  0
LINE
  5
BA3
330
A02
100
AcDbEntity
  8
Mesh_cs
100
AcDbLine
 10
-371.697
 20
432.686
 30
11.9
 11
-371.346
 21
432.496
 31
11.9
  0
LINE
  5
BA4
330
A02
100
AcDbEntity
  8
Mesh_cs
100
AcDbLine
 10
-371.346
 20
432.496
 30
11.9
 11
-368.197
 21
430.756
 31
11.9
  0
LINE
  5
BA5
330
A02
100
AcDbEntity
  8
Mesh_cs
100
AcDbLine
 10
-368.197
 20
430.756
 30
11.9
 11
-367.847
 21
430.562
 31
11.9
  0
LINE
  5
BA6
330
A02
100
AcDbEntity
  8
Mesh_cs
100
AcDbLine
 10
-367.847
 20
430.562
 30
11.9
 11
-367.498
 21
430.366
 31
11.9
  0
LINE
  5
BA7
330
A02
100
AcDbEntity
  8
Mesh_cs
100
AcDbLine
 10
-367.498
 20
430.366
 30
11.9
 11
-364.364
 21
428.601
 31
11.9
  0
LINE
  5
BA8
330
A02
100
AcDbEntity
  8
Mesh_cs
100
AcDbLine
 10
-364.364
 20
428.601
 30
11.9
 11
-361.243
 21
426.81
 31
11.9
  0
LINE
  5
BA9
330
A02
100
AcDbEntity
  8
Mesh_cs
100
AcDbLine
 10
-361.243
 20
426.81
 30
11.9
 11
-360.896
 21
426.611
 31
11.9
  0
LINE
  5
BAA
330
A02
100
AcDbEntity
  8
Mesh_cs
100
AcDbLine
 10
-360.896
 20
426.611
 30
11.9
 11
-357.79
 21
424.795
 31
11.9
  0
LINE
  5
BAB
330
A02
100
AcDbEntity
  8
Mesh_cs
100
AcDbLine
 10
-357.79
 20
424.795
 30
11.9
 11
-357.445
 21
424.593
 31
11.9
  0
LINE
  5
BAC
330
A02
100
AcDbEntity
  8
Mesh_cs
100
AcDbLine
 10
-357.445
 20
424.593
 30
11.9
 11
-354.354
 21
422.752
 31
11.9
  0
LINE
  5
BAD
330
A02
100
AcDbEntity
  8
Mesh_cs
100
AcDbLine
 10
-354.354
 20
422.752
 30
11.9
 11
-354.011
 21
422.548
 31
11.9
  0
LINE
  5
BAE
330
A02
100
AcDbEntity
  8
Mesh_cs
100
AcDbLine
 10
-354.011
 20
422.548
 30
11.9
 11
-350.935
 21
420.682
 31
11.9
  0
LINE
  5
BAF
330
A02
100
AcDbEntity
  8
Mesh_cs
100
AcDbLine
 10
-350.935
 20
420.682
 30
11.9
 11
-350.593
 21
420.474
 31
11.9
  0
LINE
  5
BB0
330
A02
100
AcDbEntity
  8
Mesh_cs
100
AcDbLine
 10
-350.593
 20
420.474
 30
11.9
 11
-347.533
 21
418.583
 31
11.9
  0
LINE
  5
BB1
330
A02
100
AcDbEntity
  8
Mesh_cs
100
AcDbLine
 10
-347.533
 20
418.583
 30
11.9
 11
-347.193
 21
418.373
 31
11.9
  0
LINE
  5
BB2
330
A02
100
AcDbEntity
  8
Mesh_cs
100
AcDbLine
 10
-347.193
 20
418.373
 30
11.9
 11
-346.854
 21
418.16
 31
11.9
  0
LINE
  5
BB3
330
A02
100
AcDbEntity
  8
Mesh_cs
100
AcDbLine
 10
-346.854
 20
418.16
 30
11.9
 11
-343.809
 21
416.245
 31
11.9
  0
LINE
  5
BB4
330
A02
100
AcDbEntity
  8
Mesh_cs
100
AcDbLine
 10
-343.809
 20
416.245
 30
11.9
 11
-340.78
 21
414.305
 31
11.9
  0
LINE
  5
BB5
330
A02
100
AcDbEntity
  8
Mesh_cs
100
AcDbLine
 10
-340.78
 20
414.305
 30
11.9
 11
-340.443
 21
414.089
 31
11.9
  0
LINE
  5
BB6
330
A02
100
AcDbEntity
  8
Mesh_cs
100
AcDbLine
 10
-340.443
 20
414.089
 30
11.9
 11
-337.43
 21
412.125
 31
11.9
  0
LINE
  5
BB7
330
A02
100
AcDbEntity
  8
Mesh_cs
100
AcDbLine
 10
-337.43
 20
412.125
 30
11.9
 11
-337.095
 21
411.906
 31
11.9
  0
LINE
  5
BB8
330
A02
100
AcDbEntity
  8
Mesh_cs
100
AcDbLine
 10
-337.095
 20
411.906
 30
11.9
 11
-334.097
 21
409.917
 31
11.9
  0
LINE
  5
BB9
330
A02
100
AcDbEntity
  8
Mesh_cs
100
AcDbLine
 10
-334.097
 20
409.917
 30
11.9
 11
-333.764
 21
409.696
 31
11.9
  0
LINE
  5
BBA
330
A02
100
AcDbEntity
  8
Mesh_cs
100
AcDbLine
 10
-333.764
 20
409.696
 30
11.9
 11
-330.783
 21
407.683
 31
11.9
  0
LINE
  5
BBB
330
A02
100
AcDbEntity
  8
Mesh_cs
100
AcDbLine
 10
-330.783
 20
407.683
 30
11.9
 11
-330.452
 21
407.459
 31
11.9
  0
LINE
  5
BBC
330
A02
100
AcDbEntity
  8
Mesh_cs
100
AcDbLine
 10
-330.452
 20
407.459
 30
11.9
 11
-327.487
 21
405.422
 31
11.9
  0
LINE
  5
BBD
330
A02
100
AcDbEntity
  8
Mesh_cs
100
AcDbLine
 10
-327.487
 20
405.422
 30
11.9
 11
-327.158
 21
405.196
 31
11.9
  0
LINE
  5
BBE
330
A02
100
AcDbEntity
  8
Mesh_cs
100
AcDbLine
 10
-327.158
 20
405.196
 30
11.9
 11
-324.21
 21
403.135
 31
11.9
  0
LINE
  5
BBF
330
A02
100
AcDbEntity
  8
Mesh_cs
100
AcDbLine
 10
-324.21
 20
403.135
 30
11.9
 11
-323.882
 21
402.906
 31
11.9
  0
LINE
  5
BC0
330
A02
100
AcDbEntity
  8
Mesh_cs
100
AcDbLine
 10
-323.882
 20
402.906
 30
11.9
 11
-320.951
 21
400.821
 31
11.9
  0
LINE
  5
BC1
330
A02
100
AcDbEntity
  8
Mesh_cs
100
AcDbLine
 10
-320.951
 20
400.821
 30
11.9
 11
-320.625
 21
400.589
 31
11.9
  0
LINE
  5
BC2
330
A02
100
AcDbEntity
  8
Mesh_cs
100
AcDbLine
 10
-320.625
 20
400.589
 30
11.9
 11
-317.711
 21
398.48
 31
11.9
  0
LINE
  5
BC3
330
A02
100
AcDbEntity
  8
Mesh_cs
100
AcDbLine
 10
-317.711
 20
398.48
 30
11.9
 11
-317.387
 21
398.246
 31
11.9
  0
LINE
  5
BC4
330
A02
100
AcDbEntity
  8
Mesh_cs
100
AcDbLine
 10
-317.387
 20
398.246
 30
11.9
 11
-317.029
 21
397.983
 31
11.9
  0
LINE
  5
BC5
330
A02
100
AcDbEntity
  8
Mesh_cs
100
AcDbLine
 10
-317.029
 20
397.983
 30
11.9
 11
-313.812
 21
395.612
 31
11.9
  0
LINE
  5
BC6
330
A02
100
AcDbEntity
  8
Mesh_cs
100
AcDbLine
 10
-313.812
 20
395.612
 30
11.9
 11
-310.616
 21
393.213
 31
11.9
  0
LINE
  5
BC7
330
A02
100
AcDbEntity
  8
Mesh_cs
100
AcDbLine
 10
-310.616
 20
393.213
 30
11.9
 11
-310.26
 21
392.946
 31
11.9
  0
LINE
  5
BC8
330
A02
100
AcDbEntity
  8
Mesh_cs
100
AcDbLine
 10
-310.26
 20
392.946
 30
11.9
 11
-309.908
 21
392.676
 31
11.9
  0
LINE
  5
BC9
330
A02
100
AcDbEntity
  8
Mesh_cs
100
AcDbLine
 10
-309.908
 20
392.676
 30
11.9
 11
-306.733
 21
390.248
 31
11.9
  0
LINE
  5
BCA
330
A02
100
AcDbEntity
  8
Mesh_cs
100
AcDbLine
 10
-306.733
 20
390.248
 30
11.9
 11
-303.581
 21
387.792
 31
11.9
  0
LINE
  5
BCB
330
A02
100
AcDbEntity
  8
Mesh_cs
100
AcDbLine
 10
-303.581
 20
387.792
 30
11.9
 11
-303.231
 21
387.519
 31
11.9
  0
LINE
  5
BCC
330
A02
100
AcDbEntity
  8
Mesh_cs
100
AcDbLine
 10
-303.231
 20
387.519
 30
11.9
 11
-300.101
 21
385.034
 31
11.9
  0
LINE
  5
BCD
330
A02
100
AcDbEntity
  8
Mesh_cs
100
AcDbLine
 10
-300.101
 20
385.034
 30
11.9
 11
-299.753
 21
384.758
 31
11.9
  0
LINE
  5
BCE
330
A02
100
AcDbEntity
  8
Mesh_cs
100
AcDbLine
 10
-299.753
 20
384.758
 30
11.9
 11
-299.408
 21
384.479
 31
11.9
  0
LINE
  5
BCF
330
A02
100
AcDbEntity
  8
Mesh_cs
100
AcDbLine
 10
-299.408
 20
384.479
 30
11.9
 11
-296.3
 21
381.966
 31
11.9
  0
LINE
  5
BD0
330
A02
100
AcDbEntity
  8
Mesh_cs
100
AcDbLine
 10
-296.3
 20
381.966
 30
11.9
 11
-293.216
 21
379.426
 31
11.9
  0
LINE
  5
BD1
330
A02
100
AcDbEntity
  8
Mesh_cs
100
AcDbLine
 10
-293.216
 20
379.426
 30
11.9
 11
-292.873
 21
379.143
 31
11.9
  0
LINE
  5
BD2
330
A02
100
AcDbEntity
  8
Mesh_cs
100
AcDbLine
 10
-292.873
 20
379.143
 30
11.9
 11
-289.811
 21
376.575
 31
11.9
  0
LINE
  5
BD3
330
A02
100
AcDbEntity
  8
Mesh_cs
100
AcDbLine
 10
-289.811
 20
376.575
 30
11.9
 11
-289.471
 21
376.29
 31
11.9
  0
LINE
  5
BD4
330
A02
100
AcDbEntity
  8
Mesh_cs
100
AcDbLine
 10
-289.471
 20
376.29
 30
11.9
 11
-286.433
 21
373.694
 31
11.9
  0
LINE
  5
BD5
330
A02
100
AcDbEntity
  8
Mesh_cs
100
AcDbLine
 10
-286.433
 20
373.694
 30
11.9
 11
-286.095
 21
373.406
 31
11.9
  0
LINE
  5
BD6
330
A02
100
AcDbEntity
  8
Mesh_cs
100
AcDbLine
 10
-286.095
 20
373.406
 30
11.9
 11
-283.081
 21
370.783
 31
11.9
  0
LINE
  5
BD7
330
A02
100
AcDbEntity
  8
Mesh_cs
100
AcDbLine
 10
-283.081
 20
370.783
 30
11.9
 11
-282.746
 21
370.492
 31
11.9
  0
LINE
  5
BD8
330
A02
100
AcDbEntity
  8
Mesh_cs
100
AcDbLine
 10
-282.746
 20
370.492
 30
11.9
 11
-282.413
 21
370.197
 31
11.9
  0
LINE
  5
BD9
330
A02
100
AcDbEntity
  8
Mesh_cs
100
AcDbLine
 10
-282.413
 20
370.197
 30
11.9
 11
-279.422
 21
367.548
 31
11.9
  0
LINE
  5
BDA
330
A02
100
AcDbEntity
  8
Mesh_cs
100
AcDbLine
 10
-279.422
 20
367.548
 30
11.9
 11
-276.455
 21
364.871
 31
11.9
  0
LINE
  5
BDB
330
A02
100
AcDbEntity
  8
Mesh_cs
100
AcDbLine
 10
-276.455
 20
364.871
 30
11.9
 11
-276.126
 21
364.574
 31
11.9
  0
LINE
  5
BDC
330
A02
100
AcDbEntity
  8
Mesh_cs
100
AcDbLine
 10
-276.126
 20
364.574
 30
11.9
 11
-275.799
 21
364.273
 31
11.9
  0
LINE
  5
BDD
330
A02
100
AcDbEntity
  8
Mesh_cs
100
AcDbLine
 10
-275.799
 20
364.273
 30
11.9
 11
-272.856
 21
361.57
 31
11.9
  0
LINE
  5
BDE
330
A02
100
AcDbEntity
  8
Mesh_cs
100
AcDbLine
 10
-272.856
 20
361.57
 30
11.9
 11
-272.532
 21
361.267
 31
11.9
  0
LINE
  5
BDF
330
A02
100
AcDbEntity
  8
Mesh_cs
100
AcDbLine
 10
-272.532
 20
361.267
 30
11.9
 11
-269.614
 21
358.537
 31
11.9
  0
LINE
  5
BE0
330
A02
100
AcDbEntity
  8
Mesh_cs
100
AcDbLine
 10
-269.614
 20
358.537
 30
11.9
 11
-266.721
 21
355.782
 31
11.9
  0
LINE
  5
BE1
330
A02
100
AcDbEntity
  8
Mesh_cs
100
AcDbLine
 10
-266.721
 20
355.782
 30
11.9
 11
-266.399
 21
355.476
 31
11.9
  0
LINE
  5
BE2
330
A02
100
AcDbEntity
  8
Mesh_cs
100
AcDbLine
 10
-266.399
 20
355.476
 30
11.9
 11
-263.531
 21
352.694
 31
11.9
  0
LINE
  5
BE3
330
A02
100
AcDbEntity
  8
Mesh_cs
100
AcDbLine
 10
-263.531
 20
352.694
 30
11.9
 11
-263.212
 21
352.385
 31
11.9
  0
LINE
  5
BE4
330
A02
100
AcDbEntity
  8
Mesh_cs
100
AcDbLine
 10
-263.212
 20
352.385
 30
11.9
 11
-262.896
 21
352.073
 31
11.9
  0
LINE
  5
BE5
330
A02
100
AcDbEntity
  8
Mesh_cs
100
AcDbLine
 10
-262.896
 20
352.073
 30
11.9
 11
-260.053
 21
349.266
 31
11.9
  0
LINE
  5
BE6
330
A02
100
AcDbEntity
  8
Mesh_cs
100
AcDbLine
 10
-260.053
 20
349.266
 30
11.9
 11
-259.74
 21
348.952
 31
11.9
  0
LINE
  5
BE7
330
A02
100
AcDbEntity
  8
Mesh_cs
100
AcDbLine
 10
-259.74
 20
348.952
 30
11.9
 11
-256.923
 21
346.119
 31
11.9
  0
LINE
  5
BE8
330
A02
100
AcDbEntity
  8
Mesh_cs
100
AcDbLine
 10
-256.923
 20
346.119
 30
11.9
 11
-254.131
 21
343.261
 31
11.9
  0
LINE
  5
BE9
330
A02
100
AcDbEntity
  8
Mesh_cs
100
AcDbLine
 10
-254.131
 20
343.261
 30
11.9
 11
-253.82
 21
342.944
 31
11.9
  0
LINE
  5
BEA
330
A02
100
AcDbEntity
  8
Mesh_cs
100
AcDbLine
 10
-253.82
 20
342.944
 30
11.9
 11
-251.054
 21
340.061
 31
11.9
  0
LINE
  5
BEB
330
A02
100
AcDbEntity
  8
Mesh_cs
100
AcDbLine
 10
-251.054
 20
340.061
 30
11.9
 11
-250.747
 21
339.741
 31
11.9
  0
LINE
  5
BEC
330
A02
100
AcDbEntity
  8
Mesh_cs
100
AcDbLine
 10
-250.747
 20
339.741
 30
11.9
 11
-248.007
 21
336.833
 31
11.9
  0
LINE
  5
BED
330
A02
100
AcDbEntity
  8
Mesh_cs
100
AcDbLine
 10
-248.007
 20
336.833
 30
11.9
 11
-247.703
 21
336.51
 31
11.9
  0
LINE
  5
BEE
330
A02
100
AcDbEntity
  8
Mesh_cs
100
AcDbLine
 10
-247.703
 20
336.51
 30
11.9
 11
-244.989
 21
333.578
 31
11.9
  0
LINE
  5
BEF
330
A02
100
AcDbEntity
  8
Mesh_cs
100
AcDbLine
 10
-244.989
 20
333.578
 30
11.9
 11
-244.688
 21
333.253
 31
11.9
  0
LINE
  5
BF0
330
A02
100
AcDbEntity
  8
Mesh_cs
100
AcDbLine
 10
-244.688
 20
333.253
 30
11.9
 11
-242
 21
330.297
 31
11.9
  0
LINE
  5
BF1
330
A02
100
AcDbEntity
  8
Mesh_cs
100
AcDbLine
 10
-242
 20
330.297
 30
11.9
 11
-241.702
 21
329.968
 31
11.9
  0
LINE
  5
BF2
330
A02
100
AcDbEntity
  8
Mesh_cs
100
AcDbLine
 10
-241.702
 20
329.968
 30
11.9
 11
-239.042
 21
326.988
 31
11.9
  0
LINE
  5
BF3
330
A02
100
AcDbEntity
  8
Mesh_cs
100
AcDbLine
 10
-239.042
 20
326.988
 30
11.9
 11
-238.746
 21
326.657
 31
11.9
  0
LINE
  5
BF4
330
A02
100
AcDbEntity
  8
Mesh_cs
100
AcDbLine
 10
-238.746
 20
326.657
 30
11.9
 11
-236.113
 21
323.653
 31
11.9
  0
LINE
  5
BF5
330
A02
100
AcDbEntity
  8
Mesh_cs
100
AcDbLine
 10
-236.113
 20
323.653
 30
11.9
 11
-235.82
 21
323.319
 31
11.9
  0
LINE
  5
BF6
330
A02
100
AcDbEntity
  8
Mesh_cs
100
AcDbLine
 10
-235.82
 20
323.319
 30
11.9
 11
-233.214
 21
320.292
 31
11.9
  0
LINE
  5
BF7
330
A02
100
AcDbEntity
  8
Mesh_cs
100
AcDbLine
 10
-233.214
 20
320.292
 30
11.9
 11
-232.925
 21
319.955
 31
11.9
  0
LINE
  5
BF8
330
A02
100
AcDbEntity
  8
Mesh_cs
100
AcDbLine
 10
-232.925
 20
319.955
 30
11.9
 11
-230.346
 21
316.905
 31
11.9
  0
LINE
  5
BF9
330
A02
100
AcDbEntity
  8
Mesh_cs
100
AcDbLine
 10
-230.346
 20
316.905
 30
11.9
 11
-230.059
 21
316.566
 31
11.9
  0
LINE
  5
BFA
330
A02
100
AcDbEntity
  8
Mesh_cs
100
AcDbLine
 10
-230.059
 20
316.566
 30
11.9
 11
-227.508
 21
313.492
 31
11.9
  0
LINE
  5
BFB
330
A02
100
AcDbEntity
  8
Mesh_cs
100
AcDbLine
 10
-227.508
 20
313.492
 30
11.9
 11
-227.225
 21
313.15
 31
11.9
  0
LINE
  5
BFC
330
A02
100
AcDbEntity
  8
Mesh_cs
100
AcDbLine
 10
-227.225
 20
313.15
 30
11.9
 11
-224.702
 21
310.054
 31
11.9
  0
LINE
  5
BFD
330
A02
100
AcDbEntity
  8
Mesh_cs
100
AcDbLine
 10
-224.702
 20
310.054
 30
11.9
 11
-224.421
 21
309.71
 31
11.9
  0
LINE
  5
BFE
330
A02
100
AcDbEntity
  8
Mesh_cs
100
AcDbLine
 10
-224.421
 20
309.71
 30
11.9
 11
-221.926
 21
306.591
 31
11.9
  0
LINE
  5
BFF
330
A02
100
AcDbEntity
  8
Mesh_cs
100
AcDbLine
 10
-221.926
 20
306.591
 30
11.9
 11
-221.649
 21
306.244
 31
11.9
  0
LINE
  5
C00
330
A02
100
AcDbEntity
  8
Mesh_cs
100
AcDbLine
 10
-221.649
 20
306.244
 30
11.9
 11
-219.182
 21
303.103
 31
11.9
  0
LINE
  5
C01
330
A02
100
AcDbEntity
  8
Mesh_cs
100
AcDbLine
 10
-219.182
 20
303.103
 30
11.9
 11
-218.908
 21
302.754
 31
11.9
  0
LINE
  5
C02
330
A02
100
AcDbEntity
  8
Mesh_cs
100
AcDbLine
 10
-218.908
 20
302.754
 30
11.9
 11
-216.469
 21
299.59
 31
11.9
  0
LINE
  5
C03
330
A02
100
AcDbEntity
  8
Mesh_cs
100
AcDbLine
 10
-216.469
 20
299.59
 30
11.9
 11
-216.198
 21
299.239
 31
11.9
  0
LINE
  5
C04
330
A02
100
AcDbEntity
  8
Mesh_cs
100
AcDbLine
 10
-216.198
 20
299.239
 30
11.9
 11
-215.931
 21
298.885
 31
11.9
  0
LINE
  5
C05
330
A02
100
AcDbEntity
  8
Mesh_cs
100
AcDbLine
 10
-215.931
 20
298.885
 30
11.9
 11
-213.521
 21
295.7
 31
11.9
  0
LINE
  5
C06
330
A02
100
AcDbEntity
  8
Mesh_cs
100
AcDbLine
 10
-213.521
 20
295.7
 30
11.9
 11
-211.546
 21
293.045
 31
11.9
  0
LINE
  5
C07
330
A02
100
AcDbEntity
  8
Mesh_cs
100
AcDbLine
 10
-211.546
 20
293.045
 30
11.9
 11
-211.327
 21
292.75
 31
11.9
  0
LINE
  5
C08
330
A02
100
AcDbEntity
  8
Mesh_cs
100
AcDbLine
 10
-211.327
 20
292.75
 30
11.9
 11
-211.11
 21
292.454
 31
11.9
  0
LINE
  5
C09
330
A02
100
AcDbEntity
  8
Mesh_cs
100
AcDbLine
 10
-211.11
 20
292.454
 30
11.9
 11
-209.158
 21
289.788
 31
11.9
  0
LINE
  5
C0A
330
A02
100
AcDbEntity
  8
Mesh_cs
100
AcDbLine
 10
-209.158
 20
289.788
 30
11.9
 11
-249.277
 21
260.64
 31
11.9
  0
LINE
  5
C0B
330
A02
100
AcDbEntity
  8
Mesh_cs
100
AcDbLine
 10
-249.277
 20
260.64
 30
11.9
 11
-253.735
 21
257.401
 31
11.9
  0
LINE
  5
C0C
330
A02
100
AcDbEntity
  8
Mesh_cs
100
AcDbLine
 10
-253.735
 20
257.401
 30
11.9
 11
-254.125
 21
257.938
 31
11.9
  0
LINE
  5
C0D
330
A02
100
AcDbEntity
  8
Mesh_cs
100
AcDbLine
 10
-254.125
 20
257.938
 30
11.9
 11
-265.432
 21
273.5
 31
11.9
  0
LINE
  5
C0E
330
A02
100
AcDbEntity
  8
Mesh_cs
100
AcDbLine
 10
-265.432
 20
273.5
 30
11.9
 11
-265.636
 21
273.763
 31
11.9
  0
LINE
  5
C0F
330
A02
100
AcDbEntity
  8
Mesh_cs
100
AcDbLine
 10
-265.636
 20
273.763
 30
11.9
 11
-265.645
 21
273.773
 31
11.9
  0
LINE
  5
C10
330
A02
100
AcDbEntity
  8
Mesh_cs
100
AcDbLine
 10
-265.645
 20
273.773
 30
11.9
 11
-265.868
 21
274.021
 31
11.9
  0
LINE
  5
C11
330
A02
100
AcDbEntity
  8
Mesh_cs
100
AcDbLine
 10
-265.868
 20
274.021
 30
11.9
 11
-265.877
 21
274.032
 31
11.9
  0
LINE
  5
C12
330
A02
100
AcDbEntity
  8
Mesh_cs
100
AcDbLine
 10
-265.877
 20
274.032
 30
11.9
 11
-266.19
 21
274.329
 31
11.9
  0
LINE
  5
C13
330
A02
100
AcDbEntity
  8
Mesh_cs
100
AcDbLine
 10
-266.19
 20
274.329
 30
11.9
 11
-266.2
 21
274.338
 31
11.9
  0
LINE
  5
C14
330
A02
100
AcDbEntity
  8
Mesh_cs
100
AcDbLine
 10
-266.2
 20
274.338
 30
11.9
 11
-266.539
 21
274.607
 31
11.9
  0
LINE
  5
C15
330
A02
100
AcDbEntity
  8
Mesh_cs
100
AcDbLine
 10
-266.539
 20
274.607
 30
11.9
 11
-266.549
 21
274.615
 31
11.9
  0
LINE
  5
C16
330
A02
100
AcDbEntity
  8
Mesh_cs
100
AcDbLine
 10
-266.549
 20
274.615
 30
11.9
 11
-266.911
 21
274.852
 31
11.9
  0
LINE
  5
C17
330
A02
100
AcDbEntity
  8
Mesh_cs
100
AcDbLine
 10
-266.911
 20
274.852
 30
11.9
 11
-266.922
 21
274.86
 31
11.9
  0
LINE
  5
C18
330
A02
100
AcDbEntity
  8
Mesh_cs
100
AcDbLine
 10
-266.922
 20
274.86
 30
11.9
 11
-267.303
 21
275.064
 31
11.9
  0
LINE
  5
C19
330
A02
100
AcDbEntity
  8
Mesh_cs
100
AcDbLine
 10
-267.303
 20
275.064
 30
11.9
 11
-267.315
 21
275.07
 31
11.9
  0
LINE
  5
C1A
330
A02
100
AcDbEntity
  8
Mesh_cs
100
AcDbLine
 10
-267.315
 20
275.07
 30
11.9
 11
-267.327
 21
275.075
 31
11.9
  0
LINE
  5
C1B
330
A02
100
AcDbEntity
  8
Mesh_cs
100
AcDbLine
 10
-267.327
 20
275.075
 30
11.9
 11
-267.725
 21
275.244
 31
11.9
  0
LINE
  5
C1C
330
A02
100
AcDbEntity
  8
Mesh_cs
100
AcDbLine
 10
-267.725
 20
275.244
 30
11.9
 11
-267.737
 21
275.249
 31
11.9
  0
LINE
  5
C1D
330
A02
100
AcDbEntity
  8
Mesh_cs
100
AcDbLine
 10
-267.737
 20
275.249
 30
11.9
 11
-268.149
 21
275.382
 31
11.9
  0
LINE
  5
C1E
330
A02
100
AcDbEntity
  8
Mesh_cs
100
AcDbLine
 10
-268.149
 20
275.382
 30
11.9
 11
-268.162
 21
275.385
 31
11.9
  0
LINE
  5
C1F
330
A02
100
AcDbEntity
  8
Mesh_cs
100
AcDbLine
 10
-268.162
 20
275.385
 30
11.9
 11
-268.583
 21
275.481
 31
11.9
  0
LINE
  5
C20
330
A02
100
AcDbEntity
  8
Mesh_cs
100
AcDbLine
 10
-268.583
 20
275.481
 30
11.9
 11
-268.596
 21
275.483
 31
11.9
  0
LINE
  5
C21
330
A02
100
AcDbEntity
  8
Mesh_cs
100
AcDbLine
 10
-268.596
 20
275.483
 30
11.9
 11
-269.025
 21
275.541
 31
11.9
  0
LINE
  5
C22
330
A02
100
AcDbEntity
  8
Mesh_cs
100
AcDbLine
 10
-269.025
 20
275.541
 30
11.9
 11
-269.039
 21
275.542
 31
11.9
  0
LINE
  5
C23
330
A02
100
AcDbEntity
  8
Mesh_cs
100
AcDbLine
 10
-269.039
 20
275.542
 30
11.9
 11
-269.428
 21
275.561
 31
11.9
  0
LINE
  5
C24
330
A02
100
AcDbEntity
  8
Mesh_cs
100
AcDbLine
 10
-269.428
 20
275.561
 30
11.9
 11
-269.443
 21
275.561
 31
11.9
  0
LINE
  5
C25
330
A02
100
AcDbEntity
  8
Mesh_cs
100
AcDbLine
 10
-269.443
 20
275.561
 30
11.9
 11
-269.832
 21
275.549
 31
11.9
  0
LINE
  5
C26
330
A02
100
AcDbEntity
  8
Mesh_cs
100
AcDbLine
 10
-269.832
 20
275.549
 30
11.9
 11
-269.846
 21
275.547
 31
11.9
  0
LINE
  5
C27
330
A02
100
AcDbEntity
  8
Mesh_cs
100
AcDbLine
 10
-269.846
 20
275.547
 30
11.9
 11
-270.233
 21
275.504
 31
11.9
  0
LINE
  5
C28
330
A02
100
AcDbEntity
  8
Mesh_cs
100
AcDbLine
 10
-270.233
 20
275.504
 30
11.9
 11
-270.247
 21
275.501
 31
11.9
  0
LINE
  5
C29
330
A02
100
AcDbEntity
  8
Mesh_cs
100
AcDbLine
 10
-270.247
 20
275.501
 30
11.9
 11
-270.629
 21
275.427
 31
11.9
  0
LINE
  5
C2A
330
A02
100
AcDbEntity
  8
Mesh_cs
100
AcDbLine
 10
-270.629
 20
275.427
 30
11.9
 11
-270.644
 21
275.423
 31
11.9
  0
LINE
  5
C2B
330
A02
100
AcDbEntity
  8
Mesh_cs
100
AcDbLine
 10
-270.644
 20
275.423
 30
11.9
 11
-271.018
 21
275.318
 31
11.9
  0
LINE
  5
C2C
330
A02
100
AcDbEntity
  8
Mesh_cs
100
AcDbLine
 10
-271.018
 20
275.318
 30
11.9
 11
-271.383
 21
275.183
 31
11.9
  0
LINE
  5
C2D
330
A02
100
AcDbEntity
  8
Mesh_cs
100
AcDbLine
 10
-271.383
 20
275.183
 30
11.9
 11
-271.397
 21
275.178
 31
11.9
  0
LINE
  5
C2E
330
A02
100
AcDbEntity
  8
Mesh_cs
100
AcDbLine
 10
-271.397
 20
275.178
 30
11.9
 11
-271.719
 21
275.03
 31
11.9
  0
LINE
  5
C2F
330
A02
100
AcDbEntity
  8
Mesh_cs
100
AcDbLine
 10
-271.719
 20
275.03
 30
11.9
 11
-271.732
 21
275.024
 31
11.9
  0
LINE
  5
C30
330
A02
100
AcDbEntity
  8
Mesh_cs
100
AcDbLine
 10
-271.732
 20
275.024
 30
11.9
 11
-272.073
 21
274.834
 31
11.9
  0
LINE
  5
C31
330
A02
100
AcDbEntity
  8
Mesh_cs
100
AcDbLine
 10
-272.073
 20
274.834
 30
11.9
 11
-272.083
 21
274.829
 31
11.9
  0
LINE
  5
C32
330
A02
100
AcDbEntity
  8
Mesh_cs
100
AcDbLine
 10
-272.083
 20
274.829
 30
11.9
 11
-272.406
 21
274.613
 31
11.9
  0
LINE
  5
C33
330
A02
100
AcDbEntity
  8
Mesh_cs
100
AcDbLine
 10
-272.406
 20
274.613
 30
11.9
 11
-272.416
 21
274.607
 31
11.9
  0
LINE
  5
C34
330
A02
100
AcDbEntity
  8
Mesh_cs
100
AcDbLine
 10
-272.416
 20
274.607
 30
11.9
 11
-272.952
 21
274.217
 31
11.9
  0
LINE
  5
C35
330
A02
100
AcDbEntity
  8
Mesh_cs
100
AcDbLine
 10
-272.952
 20
274.217
 30
11.9
 11
-288.515
 21
262.91
 31
11.9
  0
LINE
  5
C36
330
A02
100
AcDbEntity
  8
Mesh_cs
100
AcDbLine
 10
-288.515
 20
262.91
 30
11.9
 11
-288.532
 21
262.931
 31
11.9
  0
LINE
  5
C37
330
A02
100
AcDbEntity
  8
Mesh_cs
100
AcDbLine
 10
-288.532
 20
262.931
 30
11.9
 11
-288.54
 21
262.941
 31
11.9
  0
LINE
  5
C38
330
A02
100
AcDbEntity
  8
Mesh_cs
100
AcDbLine
 10
-288.54
 20
262.941
 30
11.9
 11
-288.766
 21
263.227
 31
11.9
  0
LINE
  5
C39
330
A02
100
AcDbEntity
  8
Mesh_cs
100
AcDbLine
 10
-288.766
 20
263.227
 30
11.9
 11
-288.784
 21
263.247
 31
11.9
  0
LINE
  5
C3A
330
A02
100
AcDbEntity
  8
Mesh_cs
100
AcDbLine
 10
-288.784
 20
263.247
 30
11.9
 11
-289.035
 21
263.516
 31
11.9
  0
LINE
  5
C3B
330
A02
100
AcDbEntity
  8
Mesh_cs
100
AcDbLine
 10
-289.035
 20
263.516
 30
11.9
 11
-289.054
 21
263.535
 31
11.9
  0
LINE
  5
C3C
330
A02
100
AcDbEntity
  8
Mesh_cs
100
AcDbLine
 10
-289.054
 20
263.535
 30
11.9
 11
-289.322
 21
263.78
 31
11.9
  0
LINE
  5
C3D
330
A02
100
AcDbEntity
  8
Mesh_cs
100
AcDbLine
 10
-289.322
 20
263.78
 30
11.9
 11
-289.343
 21
263.798
 31
11.9
  0
LINE
  5
C3E
330
A02
100
AcDbEntity
  8
Mesh_cs
100
AcDbLine
 10
-289.343
 20
263.798
 30
11.9
 11
-289.367
 21
263.817
 31
11.9
  0
LINE
  5
C3F
330
A02
100
AcDbEntity
  8
Mesh_cs
100
AcDbLine
 10
-289.367
 20
263.817
 30
11.9
 11
-289.653
 21
264.039
 31
11.9
  0
LINE
  5
C40
330
A02
100
AcDbEntity
  8
Mesh_cs
100
AcDbLine
 10
-289.653
 20
264.039
 30
11.9
 11
-289.674
 21
264.053
 31
11.9
  0
LINE
  5
C41
330
A02
100
AcDbEntity
  8
Mesh_cs
100
AcDbLine
 10
-289.674
 20
264.053
 30
11.9
 11
-290.011
 21
264.271
 31
11.9
  0
LINE
  5
C42
330
A02
100
AcDbEntity
  8
Mesh_cs
100
AcDbLine
 10
-290.011
 20
264.271
 30
11.9
 11
-290.094
 21
264.318
 31
11.9
  0
LINE
  5
C43
330
A02
100
AcDbEntity
  8
Mesh_cs
100
AcDbLine
 10
-290.094
 20
264.318
 30
11.9
 11
-290.134
 21
264.339
 31
11.9
  0
LINE
  5
C44
330
A02
100
AcDbEntity
  8
Mesh_cs
100
AcDbLine
 10
-290.134
 20
264.339
 30
11.9
 11
-290.41
 21
264.484
 31
11.9
  0
LINE
  5
C45
330
A02
100
AcDbEntity
  8
Mesh_cs
100
AcDbLine
 10
-290.41
 20
264.484
 30
11.9
 11
-290.464
 21
264.51
 31
11.9
  0
LINE
  5
C46
330
A02
100
AcDbEntity
  8
Mesh_cs
100
AcDbLine
 10
-290.464
 20
264.51
 30
11.9
 11
-290.658
 21
264.594
 31
11.9
  0
LINE
  5
C47
330
A02
100
AcDbEntity
  8
Mesh_cs
100
AcDbLine
 10
-290.658
 20
264.594
 30
11.9
 11
-290.854
 21
264.666
 31
11.9
  0
LINE
  5
C48
330
A02
100
AcDbEntity
  8
Mesh_cs
100
AcDbLine
 10
-290.854
 20
264.666
 30
11.9
 11
-290.953
 21
264.704
 31
11.9
  0
LINE
  5
C49
330
A02
100
AcDbEntity
  8
Mesh_cs
100
AcDbLine
 10
-290.953
 20
264.704
 30
11.9
 11
-290.968
 21
264.709
 31
11.9
  0
LINE
  5
C4A
330
A02
100
AcDbEntity
  8
Mesh_cs
100
AcDbLine
 10
-461.766
 20
401.896
 30
11.9
 11
-466.217
 21
388.198
 31
11.9
  0
LINE
  5
C4B
330
A02
100
AcDbEntity
  8
Mesh_cs
100
AcDbLine
 10
-466.217
 20
388.198
 30
11.9
 11
-479.915
 21
392.649
 31
11.9
  0
LINE
  5
C4C
330
A02
100
AcDbEntity
  8
Mesh_cs
100
AcDbLine
 10
-479.915
 20
392.649
 30
11.9
 11
-480.387
 21
392.802
 31
11.9
  0
LINE
  5
C4D
330
A02
100
AcDbEntity
  8
Mesh_cs
100
AcDbLine
 10
-480.387
 20
392.802
 30
11.9
 11
-480.234
 21
393.275
 31
11.9
  0
LINE
  5
C4E
330
A02
100
AcDbEntity
  8
Mesh_cs
100
AcDbLine
 10
-480.234
 20
393.275
 30
11.9
 11
-475.783
 21
406.973
 31
11.9
  0
LINE
  5
C4F
330
A02
100
AcDbEntity
  8
Mesh_cs
100
AcDbLine
 10
-475.783
 20
406.973
 30
11.9
 11
-462.085
 21
402.522
 31
11.9
  0
LINE
  5
C50
330
A02
100
AcDbEntity
  8
Mesh_cs
100
AcDbLine
 10
-462.085
 20
402.522
 30
11.9
 11
-461.612
 21
402.369
 31
11.9
  0
LINE
  5
C51
330
A02
100
AcDbEntity
  8
Mesh_cs
100
AcDbLine
 10
-461.612
 20
402.369
 30
11.9
 11
-461.766
 21
401.896
 31
11.9
  0
LINE
  5
C52
330
A02
100
AcDbEntity
  8
Mesh_cs
100
AcDbLine
 10
-290.987
 20
264.717
 30
11.9
 11
-293.516
 21
267.716
 31
11.9
  0
LINE
  5
C53
330
A02
100
AcDbEntity
  8
Mesh_cs
100
AcDbLine
 10
-293.516
 20
267.716
 30
11.9
 11
-293.537
 21
267.741
 31
11.9
  0
LINE
  5
C54
330
A02
100
AcDbEntity
  8
Mesh_cs
100
AcDbLine
 10
-293.537
 20
267.741
 30
11.9
 11
-296.097
 21
270.719
 31
11.9
  0
LINE
  5
C55
330
A02
100
AcDbEntity
  8
Mesh_cs
100
AcDbLine
 10
-296.097
 20
270.719
 30
11.9
 11
-296.118
 21
270.744
 31
11.9
  0
LINE
  5
C56
330
A02
100
AcDbEntity
  8
Mesh_cs
100
AcDbLine
 10
-296.118
 20
270.744
 30
11.9
 11
-298.774
 21
273.773
 31
11.9
  0
LINE
  5
C57
330
A02
100
AcDbEntity
  8
Mesh_cs
100
AcDbLine
 10
-298.774
 20
273.773
 30
11.9
 11
-298.796
 21
273.798
 31
11.9
  0
LINE
  5
C58
330
A02
100
AcDbEntity
  8
Mesh_cs
100
AcDbLine
 10
-298.796
 20
273.798
 30
11.9
 11
-301.482
 21
276.801
 31
11.9
  0
LINE
  5
C59
330
A02
100
AcDbEntity
  8
Mesh_cs
100
AcDbLine
 10
-301.482
 20
276.801
 30
11.9
 11
-301.504
 21
276.827
 31
11.9
  0
LINE
  5
C5A
330
A02
100
AcDbEntity
  8
Mesh_cs
100
AcDbLine
 10
-301.504
 20
276.827
 30
11.9
 11
-301.527
 21
276.852
 31
11.9
  0
LINE
  5
C5B
330
A02
100
AcDbEntity
  8
Mesh_cs
100
AcDbLine
 10
-301.527
 20
276.852
 30
11.9
 11
-304.242
 21
279.828
 31
11.9
  0
LINE
  5
C5C
330
A02
100
AcDbEntity
  8
Mesh_cs
100
AcDbLine
 10
-304.242
 20
279.828
 30
11.9
 11
-304.265
 21
279.853
 31
11.9
  0
LINE
  5
C5D
330
A02
100
AcDbEntity
  8
Mesh_cs
100
AcDbLine
 10
-304.265
 20
279.853
 30
11.9
 11
-307.009
 21
282.803
 31
11.9
  0
LINE
  5
C5E
330
A02
100
AcDbEntity
  8
Mesh_cs
100
AcDbLine
 10
-307.009
 20
282.803
 30
11.9
 11
-309.782
 21
285.725
 31
11.9
  0
LINE
  5
C5F
330
A02
100
AcDbEntity
  8
Mesh_cs
100
AcDbLine
 10
-309.782
 20
285.725
 30
11.9
 11
-309.806
 21
285.75
 31
11.9
  0
LINE
  5
C60
330
A02
100
AcDbEntity
  8
Mesh_cs
100
AcDbLine
 10
-309.806
 20
285.75
 30
11.9
 11
-312.607
 21
288.645
 31
11.9
  0
LINE
  5
C61
330
A02
100
AcDbEntity
  8
Mesh_cs
100
AcDbLine
 10
-312.607
 20
288.645
 30
11.9
 11
-312.631
 21
288.669
 31
11.9
  0
LINE
  5
C62
330
A02
100
AcDbEntity
  8
Mesh_cs
100
AcDbLine
 10
-312.631
 20
288.669
 30
11.9
 11
-312.655
 21
288.694
 31
11.9
  0
LINE
  5
C63
330
A02
100
AcDbEntity
  8
Mesh_cs
100
AcDbLine
 10
-312.655
 20
288.694
 30
11.9
 11
-315.485
 21
291.561
 31
11.9
  0
LINE
  5
C64
330
A02
100
AcDbEntity
  8
Mesh_cs
100
AcDbLine
 10
-315.485
 20
291.561
 30
11.9
 11
-315.509
 21
291.585
 31
11.9
  0
LINE
  5
C65
330
A02
100
AcDbEntity
  8
Mesh_cs
100
AcDbLine
 10
-315.509
 20
291.585
 30
11.9
 11
-318.367
 21
294.425
 31
11.9
  0
LINE
  5
C66
330
A02
100
AcDbEntity
  8
Mesh_cs
100
AcDbLine
 10
-318.367
 20
294.425
 30
11.9
 11
-321.253
 21
297.236
 31
11.9
  0
LINE
  5
C67
330
A02
100
AcDbEntity
  8
Mesh_cs
100
AcDbLine
 10
-321.253
 20
297.236
 30
11.9
 11
-321.278
 21
297.26
 31
11.9
  0
LINE
  5
C68
330
A02
100
AcDbEntity
  8
Mesh_cs
100
AcDbLine
 10
-321.278
 20
297.26
 30
11.9
 11
-324.191
 21
300.043
 31
11.9
  0
LINE
  5
C69
330
A02
100
AcDbEntity
  8
Mesh_cs
100
AcDbLine
 10
-324.191
 20
300.043
 30
11.9
 11
-324.216
 21
300.066
 31
11.9
  0
LINE
  5
C6A
330
A02
100
AcDbEntity
  8
Mesh_cs
100
AcDbLine
 10
-324.216
 20
300.066
 30
11.9
 11
-327.157
 21
302.821
 31
11.9
  0
LINE
  5
C6B
330
A02
100
AcDbEntity
  8
Mesh_cs
100
AcDbLine
 10
-327.157
 20
302.821
 30
11.9
 11
-327.182
 21
302.844
 31
11.9
  0
LINE
  5
C6C
330
A02
100
AcDbEntity
  8
Mesh_cs
100
AcDbLine
 10
-327.182
 20
302.844
 30
11.9
 11
-327.207
 21
302.867
 31
11.9
  0
LINE
  5
C6D
330
A02
100
AcDbEntity
  8
Mesh_cs
100
AcDbLine
 10
-327.207
 20
302.867
 30
11.9
 11
-330.175
 21
305.592
 31
11.9
  0
LINE
  5
C6E
330
A02
100
AcDbEntity
  8
Mesh_cs
100
AcDbLine
 10
-330.175
 20
305.592
 30
11.9
 11
-333.17
 21
308.288
 31
11.9
  0
LINE
  5
C6F
330
A02
100
AcDbEntity
  8
Mesh_cs
100
AcDbLine
 10
-333.17
 20
308.288
 30
11.9
 11
-333.195
 21
308.311
 31
11.9
  0
LINE
  5
C70
330
A02
100
AcDbEntity
  8
Mesh_cs
100
AcDbLine
 10
-333.195
 20
308.311
 30
11.9
 11
-333.22
 21
308.333
 31
11.9
  0
LINE
  5
C71
330
A02
100
AcDbEntity
  8
Mesh_cs
100
AcDbLine
 10
-333.22
 20
308.333
 30
11.9
 11
-336.242
 21
311
 31
11.9
  0
LINE
  5
C72
330
A02
100
AcDbEntity
  8
Mesh_cs
100
AcDbLine
 10
-336.242
 20
311
 30
11.9
 11
-339.289
 21
313.637
 31
11.9
  0
LINE
  5
C73
330
A02
100
AcDbEntity
  8
Mesh_cs
100
AcDbLine
 10
-339.289
 20
313.637
 30
11.9
 11
-339.315
 21
313.659
 31
11.9
  0
LINE
  5
C74
330
A02
100
AcDbEntity
  8
Mesh_cs
100
AcDbLine
 10
-339.315
 20
313.659
 30
11.9
 11
-342.388
 21
316.266
 31
11.9
  0
LINE
  5
C75
330
A02
100
AcDbEntity
  8
Mesh_cs
100
AcDbLine
 10
-342.388
 20
316.266
 30
11.9
 11
-342.414
 21
316.288
 31
11.9
  0
LINE
  5
C76
330
A02
100
AcDbEntity
  8
Mesh_cs
100
AcDbLine
 10
-342.414
 20
316.288
 30
11.9
 11
-345.513
 21
318.864
 31
11.9
  0
LINE
  5
C77
330
A02
100
AcDbEntity
  8
Mesh_cs
100
AcDbLine
 10
-345.513
 20
318.864
 30
11.9
 11
-345.539
 21
318.886
 31
11.9
  0
LINE
  5
C78
330
A02
100
AcDbEntity
  8
Mesh_cs
100
AcDbLine
 10
-345.539
 20
318.886
 30
11.9
 11
-345.565
 21
318.907
 31
11.9
  0
LINE
  5
C79
330
A02
100
AcDbEntity
  8
Mesh_cs
100
AcDbLine
 10
-345.565
 20
318.907
 30
11.9
 11
-348.689
 21
321.453
 31
11.9
  0
LINE
  5
C7A
330
A02
100
AcDbEntity
  8
Mesh_cs
100
AcDbLine
 10
-348.689
 20
321.453
 30
11.9
 11
-351.838
 21
323.968
 31
11.9
  0
LINE
  5
C7B
330
A02
100
AcDbEntity
  8
Mesh_cs
100
AcDbLine
 10
-351.838
 20
323.968
 30
11.9
 11
-351.865
 21
323.989
 31
11.9
  0
LINE
  5
C7C
330
A02
100
AcDbEntity
  8
Mesh_cs
100
AcDbLine
 10
-351.865
 20
323.989
 30
11.9
 11
-355.039
 21
326.473
 31
11.9
  0
LINE
  5
C7D
330
A02
100
AcDbEntity
  8
Mesh_cs
100
AcDbLine
 10
-355.039
 20
326.473
 30
11.9
 11
-355.065
 21
326.494
 31
11.9
  0
LINE
  5
C7E
330
A02
100
AcDbEntity
  8
Mesh_cs
100
AcDbLine
 10
-355.065
 20
326.494
 30
11.9
 11
-358.264
 21
328.947
 31
11.9
  0
LINE
  5
C7F
330
A02
100
AcDbEntity
  8
Mesh_cs
100
AcDbLine
 10
-358.264
 20
328.947
 30
11.9
 11
-358.29
 21
328.967
 31
11.9
  0
LINE
  5
C80
330
A02
100
AcDbEntity
  8
Mesh_cs
100
AcDbLine
 10
-358.29
 20
328.967
 30
11.9
 11
-358.317
 21
328.988
 31
11.9
  0
LINE
  5
C81
330
A02
100
AcDbEntity
  8
Mesh_cs
100
AcDbLine
 10
-358.317
 20
328.988
 30
11.9
 11
-361.54
 21
331.409
 31
11.9
  0
LINE
  5
C82
330
A02
100
AcDbEntity
  8
Mesh_cs
100
AcDbLine
 10
-361.54
 20
331.409
 30
11.9
 11
-364.786
 21
333.798
 31
11.9
  0
LINE
  5
C83
330
A02
100
AcDbEntity
  8
Mesh_cs
100
AcDbLine
 10
-364.786
 20
333.798
 30
11.9
 11
-364.813
 21
333.818
 31
11.9
  0
LINE
  5
C84
330
A02
100
AcDbEntity
  8
Mesh_cs
100
AcDbLine
 10
-364.813
 20
333.818
 30
11.9
 11
-367.754
 21
335.942
 31
11.9
  0
LINE
  5
C85
330
A02
100
AcDbEntity
  8
Mesh_cs
100
AcDbLine
 10
-367.754
 20
335.942
 30
11.9
 11
-367.779
 21
335.959
 31
11.9
  0
LINE
  5
C86
330
A02
100
AcDbEntity
  8
Mesh_cs
100
AcDbLine
 10
-367.779
 20
335.959
 30
11.9
 11
-367.804
 21
335.977
 31
11.9
  0
LINE
  5
C87
330
A02
100
AcDbEntity
  8
Mesh_cs
100
AcDbLine
 10
-367.804
 20
335.977
 30
11.9
 11
-370.764
 21
338.074
 31
11.9
  0
LINE
  5
C88
330
A02
100
AcDbEntity
  8
Mesh_cs
100
AcDbLine
 10
-370.764
 20
338.074
 30
11.9
 11
-373.743
 21
340.145
 31
11.9
  0
LINE
  5
C89
330
A02
100
AcDbEntity
  8
Mesh_cs
100
AcDbLine
 10
-373.743
 20
340.145
 30
11.9
 11
-373.768
 21
340.162
 31
11.9
  0
LINE
  5
C8A
330
A02
100
AcDbEntity
  8
Mesh_cs
100
AcDbLine
 10
-373.768
 20
340.162
 30
11.9
 11
-373.793
 21
340.179
 31
11.9
  0
LINE
  5
C8B
330
A02
100
AcDbEntity
  8
Mesh_cs
100
AcDbLine
 10
-373.793
 20
340.179
 30
11.9
 11
-376.79
 21
342.224
 31
11.9
  0
LINE
  5
C8C
330
A02
100
AcDbEntity
  8
Mesh_cs
100
AcDbLine
 10
-376.79
 20
342.224
 30
11.9
 11
-379.805
 21
344.241
 31
11.9
  0
LINE
  5
C8D
330
A02
100
AcDbEntity
  8
Mesh_cs
100
AcDbLine
 10
-379.805
 20
344.241
 30
11.9
 11
-379.831
 21
344.258
 31
11.9
  0
LINE
  5
C8E
330
A02
100
AcDbEntity
  8
Mesh_cs
100
AcDbLine
 10
-379.831
 20
344.258
 30
11.9
 11
-382.863
 21
346.249
 31
11.9
  0
LINE
  5
C8F
330
A02
100
AcDbEntity
  8
Mesh_cs
100
AcDbLine
 10
-382.863
 20
346.249
 30
11.9
 11
-382.889
 21
346.266
 31
11.9
  0
LINE
  5
C90
330
A02
100
AcDbEntity
  8
Mesh_cs
100
AcDbLine
 10
-382.889
 20
346.266
 30
11.9
 11
-385.939
 21
348.23
 31
11.9
  0
LINE
  5
C91
330
A02
100
AcDbEntity
  8
Mesh_cs
100
AcDbLine
 10
-385.939
 20
348.23
 30
11.9
 11
-385.965
 21
348.247
 31
11.9
  0
LINE
  5
C92
330
A02
100
AcDbEntity
  8
Mesh_cs
100
AcDbLine
 10
-385.965
 20
348.247
 30
11.9
 11
-389.033
 21
350.184
 31
11.9
  0
LINE
  5
C93
330
A02
100
AcDbEntity
  8
Mesh_cs
100
AcDbLine
 10
-389.033
 20
350.184
 30
11.9
 11
-389.059
 21
350.2
 31
11.9
  0
LINE
  5
C94
330
A02
100
AcDbEntity
  8
Mesh_cs
100
AcDbLine
 10
-389.059
 20
350.2
 30
11.9
 11
-389.085
 21
350.216
 31
11.9
  0
LINE
  5
C95
330
A02
100
AcDbEntity
  8
Mesh_cs
100
AcDbLine
 10
-389.085
 20
350.216
 30
11.9
 11
-392.169
 21
352.126
 31
11.9
  0
LINE
  5
C96
330
A02
100
AcDbEntity
  8
Mesh_cs
100
AcDbLine
 10
-392.169
 20
352.126
 30
11.9
 11
-392.195
 21
352.142
 31
11.9
  0
LINE
  5
C97
330
A02
100
AcDbEntity
  8
Mesh_cs
100
AcDbLine
 10
-392.195
 20
352.142
 30
11.9
 11
-395.297
 21
354.024
 31
11.9
  0
LINE
  5
C98
330
A02
100
AcDbEntity
  8
Mesh_cs
100
AcDbLine
 10
-395.297
 20
354.024
 30
11.9
 11
-398.416
 21
355.879
 31
11.9
  0
LINE
  5
C99
330
A02
100
AcDbEntity
  8
Mesh_cs
100
AcDbLine
 10
-398.416
 20
355.879
 30
11.9
 11
-398.442
 21
355.895
 31
11.9
  0
LINE
  5
C9A
330
A02
100
AcDbEntity
  8
Mesh_cs
100
AcDbLine
 10
-398.442
 20
355.895
 30
11.9
 11
-401.577
 21
357.722
 31
11.9
  0
LINE
  5
C9B
330
A02
100
AcDbEntity
  8
Mesh_cs
100
AcDbLine
 10
-401.577
 20
357.722
 30
11.9
 11
-401.603
 21
357.737
 31
11.9
  0
LINE
  5
C9C
330
A02
100
AcDbEntity
  8
Mesh_cs
100
AcDbLine
 10
-401.603
 20
357.737
 30
11.9
 11
-401.629
 21
357.753
 31
11.9
  0
LINE
  5
C9D
330
A02
100
AcDbEntity
  8
Mesh_cs
100
AcDbLine
 10
-401.629
 20
357.753
 30
11.9
 11
-404.78
 21
359.552
 31
11.9
  0
LINE
  5
C9E
330
A02
100
AcDbEntity
  8
Mesh_cs
100
AcDbLine
 10
-404.78
 20
359.552
 30
11.9
 11
-407.947
 21
361.324
 31
11.9
  0
LINE
  5
C9F
330
A02
100
AcDbEntity
  8
Mesh_cs
100
AcDbLine
 10
-407.947
 20
361.324
 30
11.9
 11
-407.974
 21
361.338
 31
11.9
  0
LINE
  5
CA0
330
A02
100
AcDbEntity
  8
Mesh_cs
100
AcDbLine
 10
-407.974
 20
361.338
 30
11.9
 11
-411.156
 21
363.082
 31
11.9
  0
LINE
  5
CA1
330
A02
100
AcDbEntity
  8
Mesh_cs
100
AcDbLine
 10
-411.156
 20
363.082
 30
11.9
 11
-411.183
 21
363.097
 31
11.9
  0
LINE
  5
CA2
330
A02
100
AcDbEntity
  8
Mesh_cs
100
AcDbLine
 10
-411.183
 20
363.097
 30
11.9
 11
-414.38
 21
364.812
 31
11.9
  0
LINE
  5
CA3
330
A02
100
AcDbEntity
  8
Mesh_cs
100
AcDbLine
 10
-414.38
 20
364.812
 30
11.9
 11
-414.407
 21
364.826
 31
11.9
  0
LINE
  5
CA4
330
A02
100
AcDbEntity
  8
Mesh_cs
100
AcDbLine
 10
-414.407
 20
364.826
 30
11.9
 11
-417.62
 21
366.513
 31
11.9
  0
LINE
  5
CA5
330
A02
100
AcDbEntity
  8
Mesh_cs
100
AcDbLine
 10
-417.62
 20
366.513
 30
11.9
 11
-417.647
 21
366.527
 31
11.9
  0
LINE
  5
CA6
330
A02
100
AcDbEntity
  8
Mesh_cs
100
AcDbLine
 10
-417.647
 20
366.527
 30
11.9
 11
-420.875
 21
368.186
 31
11.9
  0
LINE
  5
CA7
330
A02
100
AcDbEntity
  8
Mesh_cs
100
AcDbLine
 10
-420.875
 20
368.186
 30
11.9
 11
-420.902
 21
368.199
 31
11.9
  0
LINE
  5
CA8
330
A02
100
AcDbEntity
  8
Mesh_cs
100
AcDbLine
 10
-420.902
 20
368.199
 30
11.9
 11
-424.144
 21
369.829
 31
11.9
  0
LINE
  5
CA9
330
A02
100
AcDbEntity
  8
Mesh_cs
100
AcDbLine
 10
-424.144
 20
369.829
 30
11.9
 11
-424.172
 21
369.843
 31
11.9
  0
LINE
  5
CAA
330
A02
100
AcDbEntity
  8
Mesh_cs
100
AcDbLine
 10
-424.172
 20
369.843
 30
11.9
 11
-424.199
 21
369.856
 31
11.9
  0
LINE
  5
CAB
330
A02
100
AcDbEntity
  8
Mesh_cs
100
AcDbLine
 10
-424.199
 20
369.856
 30
11.9
 11
-427.456
 21
371.457
 31
11.9
  0
LINE
  5
CAC
330
A02
100
AcDbEntity
  8
Mesh_cs
100
AcDbLine
 10
-427.456
 20
371.457
 30
11.9
 11
-430.727
 21
373.029
 31
11.9
  0
LINE
  5
CAD
330
A02
100
AcDbEntity
  8
Mesh_cs
100
AcDbLine
 10
-430.727
 20
373.029
 30
11.9
 11
-430.754
 21
373.043
 31
11.9
  0
LINE
  5
CAE
330
A02
100
AcDbEntity
  8
Mesh_cs
100
AcDbLine
 10
-430.754
 20
373.043
 30
11.9
 11
-434.039
 21
374.586
 31
11.9
  0
LINE
  5
CAF
330
A02
100
AcDbEntity
  8
Mesh_cs
100
AcDbLine
 10
-434.039
 20
374.586
 30
11.9
 11
-434.067
 21
374.599
 31
11.9
  0
LINE
  5
CB0
330
A02
100
AcDbEntity
  8
Mesh_cs
100
AcDbLine
 10
-434.067
 20
374.599
 30
11.9
 11
-434.094
 21
374.611
 31
11.9
  0
LINE
  5
CB1
330
A02
100
AcDbEntity
  8
Mesh_cs
100
AcDbLine
 10
-434.094
 20
374.611
 30
11.9
 11
-437.393
 21
376.125
 31
11.9
  0
LINE
  5
CB2
330
A02
100
AcDbEntity
  8
Mesh_cs
100
AcDbLine
 10
-437.393
 20
376.125
 30
11.9
 11
-440.704
 21
377.61
 31
11.9
  0
LINE
  5
CB3
330
A02
100
AcDbEntity
  8
Mesh_cs
100
AcDbLine
 10
-440.704
 20
377.61
 30
11.9
 11
-440.732
 21
377.622
 31
11.9
  0
LINE
  5
CB4
330
A02
100
AcDbEntity
  8
Mesh_cs
100
AcDbLine
 10
-440.732
 20
377.622
 30
11.9
 11
-444.057
 21
379.078
 31
11.9
  0
LINE
  5
CB5
330
A02
100
AcDbEntity
  8
Mesh_cs
100
AcDbLine
 10
-444.057
 20
379.078
 30
11.9
 11
-444.085
 21
379.09
 31
11.9
  0
LINE
  5
CB6
330
A02
100
AcDbEntity
  8
Mesh_cs
100
AcDbLine
 10
-444.085
 20
379.09
 30
11.9
 11
-447.423
 21
380.516
 31
11.9
  0
LINE
  5
CB7
330
A02
100
AcDbEntity
  8
Mesh_cs
100
AcDbLine
 10
-447.423
 20
380.516
 30
11.9
 11
-447.451
 21
380.528
 31
11.9
  0
LINE
  5
CB8
330
A02
100
AcDbEntity
  8
Mesh_cs
100
AcDbLine
 10
-447.451
 20
380.528
 30
11.9
 11
-450.805
 21
381.925
 31
11.9
  0
LINE
  5
CB9
330
A02
100
AcDbEntity
  8
Mesh_cs
100
AcDbLine
 10
-450.805
 20
381.925
 30
11.9
 11
-450.833
 21
381.937
 31
11.9
  0
LINE
  5
CBA
330
A02
100
AcDbEntity
  8
Mesh_cs
100
AcDbLine
 10
-450.833
 20
381.937
 30
11.9
 11
-454.195
 21
383.304
 31
11.9
  0
LINE
  5
CBB
330
A02
100
AcDbEntity
  8
Mesh_cs
100
AcDbLine
 10
-454.195
 20
383.304
 30
11.9
 11
-454.224
 21
383.315
 31
11.9
  0
LINE
  5
CBC
330
A02
100
AcDbEntity
  8
Mesh_cs
100
AcDbLine
 10
-270.583
 20
263.577
 30
11.9
 11
-270.291
 21
263.176
 31
11.9
  0
LINE
  5
CBD
330
A02
100
AcDbEntity
  8
Mesh_cs
100
AcDbLine
 10
-270.291
 20
263.176
 30
11.9
 11
-261.825
 21
251.523
 31
11.9
  0
LINE
  5
CBE
330
A02
100
AcDbEntity
  8
Mesh_cs
100
AcDbLine
 10
-261.825
 20
251.523
 30
11.9
 11
-273.477
 21
243.057
 31
11.9
  0
LINE
  5
CBF
330
A02
100
AcDbEntity
  8
Mesh_cs
100
AcDbLine
 10
-273.477
 20
243.057
 30
11.9
 11
-273.879
 21
242.765
 31
11.9
  0
LINE
  5
CC0
330
A02
100
AcDbEntity
  8
Mesh_cs
100
AcDbLine
 10
-273.879
 20
242.765
 30
11.9
 11
-274.171
 21
243.167
 31
11.9
  0
LINE
  5
CC1
330
A02
100
AcDbEntity
  8
Mesh_cs
100
AcDbLine
 10
-274.171
 20
243.167
 30
11.9
 11
-282.637
 21
254.819
 31
11.9
  0
LINE
  5
CC2
330
A02
100
AcDbEntity
  8
Mesh_cs
100
AcDbLine
 10
-282.637
 20
254.819
 30
11.9
 11
-270.985
 21
263.285
 31
11.9
  0
LINE
  5
CC3
330
A02
100
AcDbEntity
  8
Mesh_cs
100
AcDbLine
 10
-270.985
 20
263.285
 30
11.9
 11
-270.583
 21
263.577
 31
11.9
  0
ENDSEC
  0
SECTION
  2
OBJECTS
  0
DICTIONARY
  5
F000
330
0
100
AcDbDictionary
  3
ACAD_GROUP
350
F001
  0
DICTIONARY
  5
F001
330
F000
100
AcDbDictionary
  0
ENDSEC
  0
EOF