999
FreeCAD v0.21 33771 (Git)
  0
SECTION
  2
HEADER
  9
$ACADVER
  1
AC1014
  9
$ACADMAINTVER
 70
     9
  9
$DWGCODEPAGE
  3
ANSI_1252
  9
$TEXTSTYLE
  7
STANDARD
  9
$DIMSTYLE
  2
STANDARD
  9
$DIMTXSTY
  7
STANDARD
  9
$CMLSTYLE
  2
STANDARD
  9
$LUNITS
 70
2
  9
$INSUNITS
 70
4
  9
$PEXTMAX
 10
50
 20
50
 30
50
  9
$PEXTMIN
 10
0
 20
0
 30
0
  9
$HANDSEED
  5
FFFF
  0
ENDSEC
  0
SECTION
  2
CLASSES
  0
CLASS
  1
ACDBDICTIONARYWDFLT
  2
AcDbDictionaryWithDefault
  3
ObjectDBX Classes
 90
        0
280
     0
281
     0
  0
CLASS
  1
XRECORD
  2
AcDbXrecord
  3
ObjectDBX Classes
 90
        0
280
     0
281
     0
  0
CLASS
  1
LWPOLYLINE
  2
AcDbPolyline
  3
ObjectDBX Classes
 90
        0
280
     0
281
     1
  0
ENDSEC
  0
SECTION
  2
TABLES
  0
TABLE
  2
VPORT
  5
20
330
0
100
AcDbSymbolTable
 70
     1
  0
VPORT
  5
21
330
20
100
AcDbSymbolTableRecord
100
AcDbViewportTableRecord
  2
*ACTIVE
 70
     0
  0
ENDTAB
  0
TABLE
  2
LTYPE
  5
22
330
0
100
AcDbSymbolTable
 70
     1
  0
LTYPE
  5
23
330
21
100
AcDbSymbolTableRecord
100
AcDbLinetypeTableRecord
  2
BYBLOCK
 70
     0
  3

 72
    65
 73
     0
 40
0.0
  0
LTYPE
  5
24
330
21
100
AcDbSymbolTableRecord
100
AcDbLinetypeTableRecord
  2
BYLAYER
 70
     0
  3

 72
    65
 73
     0
 40
0.0
  0
LTYPE
  5
25
330
21
100
AcDbSymbolTableRecord
100
AcDbLinetypeTableRecord
  2
CONTINUOUS
 70
     0
  3
Solid line
 72
    65
 73
     0
 40
0.0
  0
ENDTAB
  0
TABLE
  2
LAYER
  5
AC1
330
0
100
AcDbSymbolTable
 70
3
  0
LAYER
  5
AC2
330
AC1
100
AcDbSymbolTableRecord
100
AcDbLayerTableRecord
  2
0
 70
   0
 62
   7
  6
CONTINUOUS
  0
LAYER
  5
AC3
330
AC1
100
AcDbSymbolTableRecord
100
AcDbLayerTableRecord
  2
none
 70
    0
 62
    7
  6
CONTINUOUS
  0
LAYER
  5
AC4
330
AC1
100
AcDbSymbolTableRecord
100
AcDbLayerTableRecord
  2
Mesh_cs003
 70
    0
 62
    7
  6
CONTINUOUS
  0
ENDTAB
  0
TABLE
  2
STYLE
  5
70
330
0
100
AcDbSymbolTable
 70
     2
  0
STYLE
  5
71
330
70
100
AcDbSymbolTableRecord
100
AcDbTextStyleTableRecord
  2
STANDARD
 70
     0
 40
0.0
 41
1.0
 50
0.0
 71
     0
 42
2.5
  3
arial.ttf
  4

  0
STYLE
  5
72
330
70
100
AcDbSymbolTableRecord
100
AcDbTextStyleTableRecord
  2
ANNOTATIVE
 70
     0
 40
0.0
 41
1.0
 50
0.0
 71
     0
 42
2.5
  3
arial.ttf
  4

  0
ENDTAB
  0
TABLE
  2
VIEW
  5
73
330
0
100
AcDbSymbolTable
 70
     0
  0
ENDTAB
  0
TABLE
  2
UCS
  5
74
330
0
100
AcDbSymbolTable
 70
     0
  0
ENDTAB
  0
TABLE
  2
APPID
  5
75
330
0
100
AcDbSymbolTable
 70
     2
  0
APPID
  5
76
330
75
100
AcDbSymbolTableRecord
100
AcDbRegAppTableRecord
  2
ACAD
 70
     0
  0
APPID
  5
77
330
75
100
AcDbSymbolTableRecord
100
AcDbRegAppTableRecord
  2
ACADANNOTATIVE
 70
     0
  0
ENDTAB
  0
TABLE
  2
DIMSTYLE
  5
78
330
0
100
AcDbSymbolTable
 70
     2
  0
DIMSTYLE
105
79
330
78
100
AcDbSymbolTableRecord
100
AcDbDimStyleTableRecord
  2
STANDARD
 70
     0
  3

  4

  5

  6

  7

 40
0.0
 41
2.5
 42
0.625
 43
3.75
 44
1.25
 45
0.0
 46
0.0
 47
0.0
 48
0.0
140
2.5
141
2.5
142
0.0
143
0.03937007874016
144
1.0
145
0.0
146
1.0
147
0.625
 71
     0
 72
     0
 73
     0
 74
     0
 75
     0
 76
     0
 77
     1
 78
     8
170
     0
171
     3
172
     1
173
     0
174
     0
175
     0
176
     0
177
     0
178
     0
270
     2
271
     2
272
     2
273
     2
274
     3
340
71
275
     0
280
     0
281
     0
282
     0
283
     0
284
     8
285
     0
286
     0
287
     3
288
     0
  0
ENDTAB
  0
TABLE
  2
BLOCK_RECORD
  5
A01
330
0
100
AcDbSymbolTable
  70
5
  0
BLOCK_RECORD
  5
A02
330
A01
100
AcDbSymbolTableRecord
100
AcDbBlockTableRecord
  2
*MODEL_SPACE
  0
BLOCK_RECORD
  5
A03
330
A01
100
AcDbSymbolTableRecord
100
AcDbBlockTableRecord
  2
*PAPER_SPACE
  0
ENDTAB
  0
ENDSEC
  0
SECTION
  2
BLOCKS
  0
BLOCK
  5
A04
330
A02
100
AcDbEntity
  8
0
100
AcDbBlockBegin
  2
*MODEL_SPACE
 70
   0
 10
0
 20
0
 30
0
  3
*MODEL_SPACE
  1
 
  0
ENDBLK
  5
A05
330
A02
100
AcDbEntity
  8
0
100
AcDbBlockEnd
  0
BLOCK
  5
A06
330
A03
100
AcDbEntity
 67
1
  8
0
100
AcDbBlockBegin
  2
*PAPER_SPACE
 70
   0
 10
0
 20
0
 30
0
  3
*PAPER_SPACE
  1
 
  0
ENDBLK
  5
A07
330
A03
100
AcDbEntity
 67
    1
  8
0
100
AcDbBlockEnd
  0
ENDSEC
  0
SECTION
  2
ENTITIES
  0
LINE
  5
A08
330
A02
100
AcDbEntity
  8
Mesh_cs003
100
AcDbLine
 10
-364.62
 20
426.314
 30
0.0999999
 11
-366
 21
431.006
 31
0.0999999
  0
LINE
  5
A09
330
A02
100
AcDbEntity
  8
Mesh_cs003
100
AcDbLine
 10
-366
 20
431.006
 30
0.0999999
 11
-366.011
 21
431.046
 31
0.0999999
  0
LINE
  5
A0A
330
A02
100
AcDbEntity
  8
Mesh_cs003
100
AcDbLine
 10
-366.011
 20
431.046
 30
0.0999999
 11
-367.352
 21
435.748
 31
0.0999999
  0
LINE
  5
A0B
330
A02
100
AcDbEntity
  8
Mesh_cs003
100
AcDbLine
 10
-367.352
 20
435.748
 30
0.0999999
 11
-367.363
 21
435.788
 31
0.0999999
  0
LINE
  5
A0C
330
A02
100
AcDbEntity
  8
Mesh_cs003
100
AcDbLine
 10
-367.363
 20
435.788
 30
0.0999999
 11
-368.666
 21
440.501
 31
0.0999999
  0
LINE
  5
A0D
330
A02
100
AcDbEntity
  8
Mesh_cs003
100
AcDbLine
 10
-368.666
 20
440.501
 30
0.0999999
 11
-368.677
 21
440.541
 31
0.0999999
  0
LINE
  5
A0E
330
A02
100
AcDbEntity
  8
Mesh_cs003
100
AcDbLine
 10
-368.677
 20
440.541
 30
0.0999999
 11
-369.942
 21
445.264
 31
0.0999999
  0
LINE
  5
A0F
330
A02
100
AcDbEntity
  8
Mesh_cs003
100
AcDbLine
 10
-369.942
 20
445.264
 30
0.0999999
 11
-369.952
 21
445.304
 31
0.0999999
  0
LINE
  5
A10
330
A02
100
AcDbEntity
  8
Mesh_cs003
100
AcDbLine
 10
-369.952
 20
445.304
 30
0.0999999
 11
-371.179
 21
450.038
 31
0.0999999
  0
LINE
  5
A11
330
A02
100
AcDbEntity
  8
Mesh_cs003
100
AcDbLine
 10
-371.179
 20
450.038
 30
0.0999999
 11
-371.189
 21
450.078
 31
0.0999999
  0
LINE
  5
A12
330
A02
100
AcDbEntity
  8
Mesh_cs003
100
AcDbLine
 10
-371.189
 20
450.078
 30
0.0999999
 11
-372.377
 21
454.821
 31
0.0999999
  0
LINE
  5
A13
330
A02
100
AcDbEntity
  8
Mesh_cs003
100
AcDbLine
 10
-372.377
 20
454.821
 30
0.0999999
 11
-372.386
 21
454.861
 31
0.0999999
  0
LINE
  5
A14
330
A02
100
AcDbEntity
  8
Mesh_cs003
100
AcDbLine
 10
-372.386
 20
454.861
 30
0.0999999
 11
-373.536
 21
459.614
 31
0.0999999
  0
LINE
  5
A15
330
A02
100
AcDbEntity
  8
Mesh_cs003
100
AcDbLine
 10
-373.536
 20
459.614
 30
0.0999999
 11
-373.545
 21
459.654
 31
0.0999999
  0
LINE
  5
A16
330
A02
100
AcDbEntity
  8
Mesh_cs003
100
AcDbLine
 10
-373.545
 20
459.654
 30
0.0999999
 11
-374.656
 21
464.415
 31
0.0999999
  0
LINE
  5
A17
330
A02
100
AcDbEntity
  8
Mesh_cs003
100
AcDbLine
 10
-374.656
 20
464.415
 30
0.0999999
 11
-374.665
 21
464.455
 31
0.0999999
  0
LINE
  5
A18
330
A02
100
AcDbEntity
  8
Mesh_cs003
100
AcDbLine
 10
-374.665
 20
464.455
 30
0.0999999
 11
-375.737
 21
469.226
 31
0.0999999
  0
LINE
  5
A19
330
A02
100
AcDbEntity
  8
Mesh_cs003
100
AcDbLine
 10
-375.737
 20
469.226
 30
0.0999999
 11
-375.746
 21
469.266
 31
0.0999999
  0
LINE
  5
A1A
330
A02
100
AcDbEntity
  8
Mesh_cs003
100
AcDbLine
 10
-375.746
 20
469.266
 30
0.0999999
 11
-376.779
 21
474.045
 31
0.0999999
  0
LINE
  5
A1B
330
A02
100
AcDbEntity
  8
Mesh_cs003
100
AcDbLine
 10
-376.779
 20
474.045
 30
0.0999999
 11
-376.788
 21
474.085
 31
0.0999999
  0
LINE
  5
A1C
330
A02
100
AcDbEntity
  8
Mesh_cs003
100
AcDbLine
 10
-376.788
 20
474.085
 30
0.0999999
 11
-377.782
 21
478.873
 31
0.0999999
  0
LINE
  5
A1D
330
A02
100
AcDbEntity
  8
Mesh_cs003
100
AcDbLine
 10
-377.782
 20
478.873
 30
0.0999999
 11
-377.79
 21
478.913
 31
0.0999999
  0
LINE
  5
A1E
330
A02
100
AcDbEntity
  8
Mesh_cs003
100
AcDbLine
 10
-377.79
 20
478.913
 30
0.0999999
 11
-378.746
 21
483.708
 31
0.0999999
  0
LINE
  5
A1F
330
A02
100
AcDbEntity
  8
Mesh_cs003
100
AcDbLine
 10
-378.746
 20
483.708
 30
0.0999999
 11
-378.754
 21
483.748
 31
0.0999999
  0
LINE
  5
A20
330
A02
100
AcDbEntity
  8
Mesh_cs003
100
AcDbLine
 10
-378.754
 20
483.748
 30
0.0999999
 11
-379.671
 21
488.551
 31
0.0999999
  0
LINE
  5
A21
330
A02
100
AcDbEntity
  8
Mesh_cs003
100
AcDbLine
 10
-379.671
 20
488.551
 30
0.0999999
 11
-379.678
 21
488.591
 31
0.0999999
  0
LINE
  5
A22
330
A02
100
AcDbEntity
  8
Mesh_cs003
100
AcDbLine
 10
-379.678
 20
488.591
 30
0.0999999
 11
-380.556
 21
493.401
 31
0.0999999
  0
LINE
  5
A23
330
A02
100
AcDbEntity
  8
Mesh_cs003
100
AcDbLine
 10
-380.556
 20
493.401
 30
0.0999999
 11
-380.563
 21
493.441
 31
0.0999999
  0
LINE
  5
A24
330
A02
100
AcDbEntity
  8
Mesh_cs003
100
AcDbLine
 10
-380.563
 20
493.441
 30
0.0999999
 11
-381.402
 21
498.258
 31
0.0999999
  0
LINE
  5
A25
330
A02
100
AcDbEntity
  8
Mesh_cs003
100
AcDbLine
 10
-381.402
 20
498.258
 30
0.0999999
 11
-381.409
 21
498.298
 31
0.0999999
  0
LINE
  5
A26
330
A02
100
AcDbEntity
  8
Mesh_cs003
100
AcDbLine
 10
-381.409
 20
498.298
 30
0.0999999
 11
-382.208
 21
503.122
 31
0.0999999
  0
LINE
  5
A27
330
A02
100
AcDbEntity
  8
Mesh_cs003
100
AcDbLine
 10
-382.208
 20
503.122
 30
0.0999999
 11
-382.215
 21
503.162
 31
0.0999999
  0
LINE
  5
A28
330
A02
100
AcDbEntity
  8
Mesh_cs003
100
AcDbLine
 10
-382.215
 20
503.162
 30
0.0999999
 11
-382.975
 21
507.992
 31
0.0999999
  0
LINE
  5
A29
330
A02
100
AcDbEntity
  8
Mesh_cs003
100
AcDbLine
 10
-382.975
 20
507.992
 30
0.0999999
 11
-382.982
 21
508.032
 31
0.0999999
  0
LINE
  5
A2A
330
A02
100
AcDbEntity
  8
Mesh_cs003
100
AcDbLine
 10
-382.982
 20
508.032
 30
0.0999999
 11
-383.703
 21
512.868
 31
0.0999999
  0
LINE
  5
A2B
330
A02
100
AcDbEntity
  8
Mesh_cs003
100
AcDbLine
 10
-383.703
 20
512.868
 30
0.0999999
 11
-383.709
 21
512.908
 31
0.0999999
  0
LINE
  5
A2C
330
A02
100
AcDbEntity
  8
Mesh_cs003
100
AcDbLine
 10
-383.709
 20
512.908
 30
0.0999999
 11
-384.391
 21
517.749
 31
0.0999999
  0
LINE
  5
A2D
330
A02
100
AcDbEntity
  8
Mesh_cs003
100
AcDbLine
 10
-384.391
 20
517.749
 30
0.0999999
 11
-384.396
 21
517.79
 31
0.0999999
  0
LINE
  5
A2E
330
A02
100
AcDbEntity
  8
Mesh_cs003
100
AcDbLine
 10
-384.396
 20
517.79
 30
0.0999999
 11
-385.039
 21
522.636
 31
0.0999999
  0
LINE
  5
A2F
330
A02
100
AcDbEntity
  8
Mesh_cs003
100
AcDbLine
 10
-385.039
 20
522.636
 30
0.0999999
 11
-385.044
 21
522.677
 31
0.0999999
  0
LINE
  5
A30
330
A02
100
AcDbEntity
  8
Mesh_cs003
100
AcDbLine
 10
-385.044
 20
522.677
 30
0.0999999
 11
-385.648
 21
527.528
 31
0.0999999
  0
LINE
  5
A31
330
A02
100
AcDbEntity
  8
Mesh_cs003
100
AcDbLine
 10
-385.648
 20
527.528
 30
0.0999999
 11
-385.652
 21
527.569
 31
0.0999999
  0
LINE
  5
A32
330
A02
100
AcDbEntity
  8
Mesh_cs003
100
AcDbLine
 10
-385.652
 20
527.569
 30
0.0999999
 11
-386.217
 21
532.425
 31
0.0999999
  0
LINE
  5
A33
330
A02
100
AcDbEntity
  8
Mesh_cs003
100
AcDbLine
 10
-386.217
 20
532.425
 30
0.0999999
 11
-386.221
 21
532.466
 31
0.0999999
  0
LINE
  5
A34
330
A02
100
AcDbEntity
  8
Mesh_cs003
100
AcDbLine
 10
-386.221
 20
532.466
 30
0.0999999
 11
-386.746
 21
537.326
 31
0.0999999
  0
LINE
  5
A35
330
A02
100
AcDbEntity
  8
Mesh_cs003
100
AcDbLine
 10
-386.746
 20
537.326
 30
0.0999999
 11
-386.75
 21
537.367
 31
0.0999999
  0
LINE
  5
A36
330
A02
100
AcDbEntity
  8
Mesh_cs003
100
AcDbLine
 10
-386.75
 20
537.367
 30
0.0999999
 11
-387.235
 21
542.231
 31
0.0999999
  0
LINE
  5
A37
330
A02
100
AcDbEntity
  8
Mesh_cs003
100
AcDbLine
 10
-387.235
 20
542.231
 30
0.0999999
 11
-387.239
 21
542.272
 31
0.0999999
  0
LINE
  5
A38
330
A02
100
AcDbEntity
  8
Mesh_cs003
100
AcDbLine
 10
-387.239
 20
542.272
 30
0.0999999
 11
-387.685
 21
547.14
 31
0.0999999
  0
LINE
  5
A39
330
A02
100
AcDbEntity
  8
Mesh_cs003
100
AcDbLine
 10
-387.685
 20
547.14
 30
0.0999999
 11
-387.688
 21
547.181
 31
0.0999999
  0
LINE
  5
A3A
330
A02
100
AcDbEntity
  8
Mesh_cs003
100
AcDbLine
 10
-387.688
 20
547.181
 30
0.0999999
 11
-388.095
 21
552.052
 31
0.0999999
  0
LINE
  5
A3B
330
A02
100
AcDbEntity
  8
Mesh_cs003
100
AcDbLine
 10
-388.095
 20
552.052
 30
0.0999999
 11
-388.098
 21
552.093
 31
0.0999999
  0
LINE
  5
A3C
330
A02
100
AcDbEntity
  8
Mesh_cs003
100
AcDbLine
 10
-388.098
 20
552.093
 30
0.0999999
 11
-388.465
 21
556.967
 31
0.0999999
  0
LINE
  5
A3D
330
A02
100
AcDbEntity
  8
Mesh_cs003
100
AcDbLine
 10
-388.465
 20
556.967
 30
0.0999999
 11
-388.468
 21
557.008
 31
0.0999999
  0
LINE
  5
A3E
330
A02
100
AcDbEntity
  8
Mesh_cs003
100
AcDbLine
 10
-388.468
 20
557.008
 30
0.0999999
 11
-388.795
 21
561.885
 31
0.0999999
  0
LINE
  5
A3F
330
A02
100
AcDbEntity
  8
Mesh_cs003
100
AcDbLine
 10
-388.795
 20
561.885
 30
0.0999999
 11
-388.797
 21
561.926
 31
0.0999999
  0
LINE
  5
A40
330
A02
100
AcDbEntity
  8
Mesh_cs003
100
AcDbLine
 10
-388.797
 20
561.926
 30
0.0999999
 11
-389.085
 21
566.806
 31
0.0999999
  0
LINE
  5
A41
330
A02
100
AcDbEntity
  8
Mesh_cs003
100
AcDbLine
 10
-389.085
 20
566.806
 30
0.0999999
 11
-389.087
 21
566.847
 31
0.0999999
  0
LINE
  5
A42
330
A02
100
AcDbEntity
  8
Mesh_cs003
100
AcDbLine
 10
-389.087
 20
566.847
 30
0.0999999
 11
-389.335
 21
571.728
 31
0.0999999
  0
LINE
  5
A43
330
A02
100
AcDbEntity
  8
Mesh_cs003
100
AcDbLine
 10
-389.335
 20
571.728
 30
0.0999999
 11
-389.338
 21
571.782
 31
0.0999999
  0
LINE
  5
A44
330
A02
100
AcDbEntity
  8
Mesh_cs003
100
AcDbLine
 10
-389.338
 20
571.782
 30
0.0999999
 11
-389.546
 21
576.651
 31
0.0999999
  0
LINE
  5
A45
330
A02
100
AcDbEntity
  8
Mesh_cs003
100
AcDbLine
 10
-389.546
 20
576.651
 30
0.0999999
 11
-389.547
 21
576.682
 31
0.0999999
  0
LINE
  5
A46
330
A02
100
AcDbEntity
  8
Mesh_cs003
100
AcDbLine
 10
-389.547
 20
576.682
 30
0.0999999
 11
-389.715
 21
581.553
 31
0.0999999
  0
LINE
  5
A47
330
A02
100
AcDbEntity
  8
Mesh_cs003
100
AcDbLine
 10
-389.715
 20
581.553
 30
0.0999999
 11
-389.717
 21
581.584
 31
0.0999999
  0
LINE
  5
A48
330
A02
100
AcDbEntity
  8
Mesh_cs003
100
AcDbLine
 10
-389.717
 20
581.584
 30
0.0999999
 11
-389.718
 21
581.634
 31
0.0999999
  0
LINE
  5
A49
330
A02
100
AcDbEntity
  8
Mesh_cs003
100
AcDbLine
 10
-389.718
 20
581.634
 30
0.0999999
 11
-389.847
 21
586.506
 31
0.0999999
  0
LINE
  5
A4A
330
A02
100
AcDbEntity
  8
Mesh_cs003
100
AcDbLine
 10
-389.847
 20
586.506
 30
0.0999999
 11
-389.936
 21
591.379
 31
0.0999999
  0
LINE
  5
A4B
330
A02
100
AcDbEntity
  8
Mesh_cs003
100
AcDbLine
 10
-389.936
 20
591.379
 30
0.0999999
 11
-389.938
 21
591.433
 31
0.0999999
  0
LINE
  5
A4C
330
A02
100
AcDbEntity
  8
Mesh_cs003
100
AcDbLine
 10
-389.938
 20
591.433
 30
0.0999999
 11
-389.938
 21
591.47
 31
0.0999999
  0
LINE
  5
A4D
330
A02
100
AcDbEntity
  8
Mesh_cs003
100
AcDbLine
 10
-389.938
 20
591.47
 30
0.0999999
 11
-389.984
 21
595.786
 31
0.0999999
  0
LINE
  5
A4E
330
A02
100
AcDbEntity
  8
Mesh_cs003
100
AcDbLine
 10
-389.984
 20
595.786
 30
0.0999999
 11
-389.985
 21
595.811
 31
0.0999999
  0
LINE
  5
A4F
330
A02
100
AcDbEntity
  8
Mesh_cs003
100
AcDbLine
 10
-389.985
 20
595.811
 30
0.0999999
 11
-390
 21
600.123
 31
0.0999999
  0
LINE
  5
A50
330
A02
100
AcDbEntity
  8
Mesh_cs003
100
AcDbLine
 10
-390
 20
600.123
 30
0.0999999
 11
-390
 21
600.148
 31
0.0999999
  0
LINE
  5
A51
330
A02
100
AcDbEntity
  8
Mesh_cs003
100
AcDbLine
 10
-390
 20
600.148
 30
0.0999999
 11
-389.834
 21
600.148
 31
0.0999999
  0
LINE
  5
A52
330
A02
100
AcDbEntity
  8
Mesh_cs003
100
AcDbLine
 10
-389.834
 20
600.148
 30
0.0999999
 11
-389.723
 21
600.148
 31
0.0999999
  0
LINE
  5
A53
330
A02
100
AcDbEntity
  8
Mesh_cs003
100
AcDbLine
 10
-389.723
 20
600.148
 30
0.0999999
 11
-389.273
 21
600.148
 31
0.0999999
  0
LINE
  5
A54
330
A02
100
AcDbEntity
  8
Mesh_cs003
100
AcDbLine
 10
-389.273
 20
600.148
 30
0.0999999
 11
-388.955
 21
600.148
 31
0.0999999
  0
LINE
  5
A55
330
A02
100
AcDbEntity
  8
Mesh_cs003
100
AcDbLine
 10
-388.955
 20
600.148
 30
0.0999999
 11
-388.11
 21
600.148
 31
0.0999999
  0
LINE
  5
A56
330
A02
100
AcDbEntity
  8
Mesh_cs003
100
AcDbLine
 10
-388.11
 20
600.148
 30
0.0999999
 11
-195.277
 21
600.148
 31
0.0999999
  0
LINE
  5
A57
330
A02
100
AcDbEntity
  8
Mesh_cs003
100
AcDbLine
 10
-195.277
 20
600.148
 30
0.0999999
 11
-195.166
 21
600.148
 31
0.0999999
  0
LINE
  5
A58
330
A02
100
AcDbEntity
  8
Mesh_cs003
100
AcDbLine
 10
-195.166
 20
600.148
 30
0.0999999
 11
-195
 21
600.148
 31
0.0999999
  0
LINE
  5
A59
330
A02
100
AcDbEntity
  8
Mesh_cs003
100
AcDbLine
 10
-195
 20
600.148
 30
0.0999999
 11
-195
 21
599.983
 31
0.0999999
  0
LINE
  5
A5A
330
A02
100
AcDbEntity
  8
Mesh_cs003
100
AcDbLine
 10
-195
 20
599.983
 30
0.0999999
 11
-195
 21
575.359
 31
0.0999999
  0
LINE
  5
A5B
330
A02
100
AcDbEntity
  8
Mesh_cs003
100
AcDbLine
 10
-195
 20
575.359
 30
0.0999999
 11
-195
 21
575.248
 31
0.0999999
  0
LINE
  5
A5C
330
A02
100
AcDbEntity
  8
Mesh_cs003
100
AcDbLine
 10
-195
 20
575.248
 30
0.0999999
 11
-195
 21
573.027
 31
0.0999999
  0
LINE
  5
A5D
330
A02
100
AcDbEntity
  8
Mesh_cs003
100
AcDbLine
 10
-195
 20
573.027
 30
0.0999999
 11
-195
 21
300.355
 31
0.0999999
  0
LINE
  5
A5E
330
A02
100
AcDbEntity
  8
Mesh_cs003
100
AcDbLine
 10
-195
 20
300.355
 30
0.0999999
 11
-195
 21
300.074
 31
0.0999999
  0
LINE
  5
A5F
330
A02
100
AcDbEntity
  8
Mesh_cs003
100
AcDbLine
 10
-195
 20
300.074
 30
0.0999999
 11
-195.129
 21
299.981
 31
0.0999999
  0
LINE
  5
A60
330
A02
100
AcDbEntity
  8
Mesh_cs003
100
AcDbLine
 10
-195.129
 20
299.981
 30
0.0999999
 11
-195.653
 21
299.6
 31
0.0999999
  0
LINE
  5
A61
330
A02
100
AcDbEntity
  8
Mesh_cs003
100
AcDbLine
 10
-195.653
 20
299.6
 30
0.0999999
 11
-273.655
 21
242.928
 31
0.0999999
  0
LINE
  5
A62
330
A02
100
AcDbEntity
  8
Mesh_cs003
100
AcDbLine
 10
-273.655
 20
242.928
 30
0.0999999
 11
-273.745
 21
242.862
 31
0.0999999
  0
LINE
  5
A63
330
A02
100
AcDbEntity
  8
Mesh_cs003
100
AcDbLine
 10
-273.745
 20
242.862
 30
0.0999999
 11
-273.879
 21
242.765
 31
0.0999999
  0
LINE
  5
A64
330
A02
100
AcDbEntity
  8
Mesh_cs003
100
AcDbLine
 10
-273.879
 20
242.765
 30
0.0999999
 11
-273.901
 21
242.795
 31
0.0999999
  0
LINE
  5
A65
330
A02
100
AcDbEntity
  8
Mesh_cs003
100
AcDbLine
 10
-273.901
 20
242.795
 30
0.0999999
 11
-276.476
 21
246.367
 31
0.0999999
  0
LINE
  5
A66
330
A02
100
AcDbEntity
  8
Mesh_cs003
100
AcDbLine
 10
-276.476
 20
246.367
 30
0.0999999
 11
-276.498
 21
246.398
 31
0.0999999
  0
LINE
  5
A67
330
A02
100
AcDbEntity
  8
Mesh_cs003
100
AcDbLine
 10
-276.498
 20
246.398
 30
0.0999999
 11
-279.05
 21
249.993
 31
0.0999999
  0
LINE
  5
A68
330
A02
100
AcDbEntity
  8
Mesh_cs003
100
AcDbLine
 10
-279.05
 20
249.993
 30
0.0999999
 11
-279.088
 21
250.048
 31
0.0999999
  0
LINE
  5
A69
330
A02
100
AcDbEntity
  8
Mesh_cs003
100
AcDbLine
 10
-279.088
 20
250.048
 30
0.0999999
 11
-281.604
 21
253.647
 31
0.0999999
  0
LINE
  5
A6A
330
A02
100
AcDbEntity
  8
Mesh_cs003
100
AcDbLine
 10
-281.604
 20
253.647
 30
0.0999999
 11
-284.094
 21
257.265
 31
0.0999999
  0
LINE
  5
A6B
330
A02
100
AcDbEntity
  8
Mesh_cs003
100
AcDbLine
 10
-284.094
 20
257.265
 30
0.0999999
 11
-284.122
 21
257.305
 31
0.0999999
  0
LINE
  5
A6C
330
A02
100
AcDbEntity
  8
Mesh_cs003
100
AcDbLine
 10
-284.122
 20
257.305
 30
0.0999999
 11
-286.585
 21
260.941
 31
0.0999999
  0
LINE
  5
A6D
330
A02
100
AcDbEntity
  8
Mesh_cs003
100
AcDbLine
 10
-286.585
 20
260.941
 30
0.0999999
 11
-286.602
 21
260.967
 31
0.0999999
  0
LINE
  5
A6E
330
A02
100
AcDbEntity
  8
Mesh_cs003
100
AcDbLine
 10
-286.602
 20
260.967
 30
0.0999999
 11
-286.619
 21
260.992
 31
0.0999999
  0
LINE
  5
A6F
330
A02
100
AcDbEntity
  8
Mesh_cs003
100
AcDbLine
 10
-286.619
 20
260.992
 30
0.0999999
 11
-289.056
 21
264.646
 31
0.0999999
  0
LINE
  5
A70
330
A02
100
AcDbEntity
  8
Mesh_cs003
100
AcDbLine
 10
-289.056
 20
264.646
 30
0.0999999
 11
-291.465
 21
268.317
 31
0.0999999
  0
LINE
  5
A71
330
A02
100
AcDbEntity
  8
Mesh_cs003
100
AcDbLine
 10
-291.465
 20
268.317
 30
0.0999999
 11
-291.495
 21
268.362
 31
0.0999999
  0
LINE
  5
A72
330
A02
100
AcDbEntity
  8
Mesh_cs003
100
AcDbLine
 10
-291.495
 20
268.362
 30
0.0999999
 11
-291.515
 21
268.393
 31
0.0999999
  0
LINE
  5
A73
330
A02
100
AcDbEntity
  8
Mesh_cs003
100
AcDbLine
 10
-291.515
 20
268.393
 30
0.0999999
 11
-293.905
 21
272.092
 31
0.0999999
  0
LINE
  5
A74
330
A02
100
AcDbEntity
  8
Mesh_cs003
100
AcDbLine
 10
-293.905
 20
272.092
 30
0.0999999
 11
-293.924
 21
272.123
 31
0.0999999
  0
LINE
  5
A75
330
A02
100
AcDbEntity
  8
Mesh_cs003
100
AcDbLine
 10
-293.924
 20
272.123
 30
0.0999999
 11
-296.287
 21
275.839
 31
0.0999999
  0
LINE
  5
A76
330
A02
100
AcDbEntity
  8
Mesh_cs003
100
AcDbLine
 10
-296.287
 20
275.839
 30
0.0999999
 11
-296.306
 21
275.871
 31
0.0999999
  0
LINE
  5
A77
330
A02
100
AcDbEntity
  8
Mesh_cs003
100
AcDbLine
 10
-296.306
 20
275.871
 30
0.0999999
 11
-298.642
 21
279.604
 31
0.0999999
  0
LINE
  5
A78
330
A02
100
AcDbEntity
  8
Mesh_cs003
100
AcDbLine
 10
-298.642
 20
279.604
 30
0.0999999
 11
-298.661
 21
279.636
 31
0.0999999
  0
LINE
  5
A79
330
A02
100
AcDbEntity
  8
Mesh_cs003
100
AcDbLine
 10
-298.661
 20
279.636
 30
0.0999999
 11
-300.969
 21
283.386
 31
0.0999999
  0
LINE
  5
A7A
330
A02
100
AcDbEntity
  8
Mesh_cs003
100
AcDbLine
 10
-300.969
 20
283.386
 30
0.0999999
 11
-300.988
 21
283.417
 31
0.0999999
  0
LINE
  5
A7B
330
A02
100
AcDbEntity
  8
Mesh_cs003
100
AcDbLine
 10
-300.988
 20
283.417
 30
0.0999999
 11
-303.268
 21
287.184
 31
0.0999999
  0
LINE
  5
A7C
330
A02
100
AcDbEntity
  8
Mesh_cs003
100
AcDbLine
 10
-303.268
 20
287.184
 30
0.0999999
 11
-303.287
 21
287.216
 31
0.0999999
  0
LINE
  5
A7D
330
A02
100
AcDbEntity
  8
Mesh_cs003
100
AcDbLine
 10
-303.287
 20
287.216
 30
0.0999999
 11
-305.54
 21
290.999
 31
0.0999999
  0
LINE
  5
A7E
330
A02
100
AcDbEntity
  8
Mesh_cs003
100
AcDbLine
 10
-305.54
 20
290.999
 30
0.0999999
 11
-305.558
 21
291.031
 31
0.0999999
  0
LINE
  5
A7F
330
A02
100
AcDbEntity
  8
Mesh_cs003
100
AcDbLine
 10
-305.558
 20
291.031
 30
0.0999999
 11
-307.783
 21
294.831
 31
0.0999999
  0
LINE
  5
A80
330
A02
100
AcDbEntity
  8
Mesh_cs003
100
AcDbLine
 10
-307.783
 20
294.831
 30
0.0999999
 11
-307.802
 21
294.863
 31
0.0999999
  0
LINE
  5
A81
330
A02
100
AcDbEntity
  8
Mesh_cs003
100
AcDbLine
 10
-307.802
 20
294.863
 30
0.0999999
 11
-309.999
 21
298.679
 31
0.0999999
  0
LINE
  5
A82
330
A02
100
AcDbEntity
  8
Mesh_cs003
100
AcDbLine
 10
-309.999
 20
298.679
 30
0.0999999
 11
-310.017
 21
298.711
 31
0.0999999
  0
LINE
  5
A83
330
A02
100
AcDbEntity
  8
Mesh_cs003
100
AcDbLine
 10
-310.017
 20
298.711
 30
0.0999999
 11
-312.186
 21
302.543
 31
0.0999999
  0
LINE
  5
A84
330
A02
100
AcDbEntity
  8
Mesh_cs003
100
AcDbLine
 10
-312.186
 20
302.543
 30
0.0999999
 11
-312.204
 21
302.575
 31
0.0999999
  0
LINE
  5
A85
330
A02
100
AcDbEntity
  8
Mesh_cs003
100
AcDbLine
 10
-312.204
 20
302.575
 30
0.0999999
 11
-314.345
 21
306.423
 31
0.0999999
  0
LINE
  5
A86
330
A02
100
AcDbEntity
  8
Mesh_cs003
100
AcDbLine
 10
-314.345
 20
306.423
 30
0.0999999
 11
-314.363
 21
306.455
 31
0.0999999
  0
LINE
  5
A87
330
A02
100
AcDbEntity
  8
Mesh_cs003
100
AcDbLine
 10
-314.363
 20
306.455
 30
0.0999999
 11
-316.476
 21
310.318
 31
0.0999999
  0
LINE
  5
A88
330
A02
100
AcDbEntity
  8
Mesh_cs003
100
AcDbLine
 10
-316.476
 20
310.318
 30
0.0999999
 11
-316.494
 21
310.35
 31
0.0999999
  0
LINE
  5
A89
330
A02
100
AcDbEntity
  8
Mesh_cs003
100
AcDbLine
 10
-316.494
 20
310.35
 30
0.0999999
 11
-318.578
 21
314.229
 31
0.0999999
  0
LINE
  5
A8A
330
A02
100
AcDbEntity
  8
Mesh_cs003
100
AcDbLine
 10
-318.578
 20
314.229
 30
0.0999999
 11
-318.596
 21
314.261
 31
0.0999999
  0
LINE
  5
A8B
330
A02
100
AcDbEntity
  8
Mesh_cs003
100
AcDbLine
 10
-318.596
 20
314.261
 30
0.0999999
 11
-320.652
 21
318.154
 31
0.0999999
  0
LINE
  5
A8C
330
A02
100
AcDbEntity
  8
Mesh_cs003
100
AcDbLine
 10
-320.652
 20
318.154
 30
0.0999999
 11
-320.669
 21
318.187
 31
0.0999999
  0
LINE
  5
A8D
330
A02
100
AcDbEntity
  8
Mesh_cs003
100
AcDbLine
 10
-320.669
 20
318.187
 30
0.0999999
 11
-322.697
 21
322.095
 31
0.0999999
  0
LINE
  5
A8E
330
A02
100
AcDbEntity
  8
Mesh_cs003
100
AcDbLine
 10
-322.697
 20
322.095
 30
0.0999999
 11
-322.713
 21
322.128
 31
0.0999999
  0
LINE
  5
A8F
330
A02
100
AcDbEntity
  8
Mesh_cs003
100
AcDbLine
 10
-322.713
 20
322.128
 30
0.0999999
 11
-324.712
 21
326.051
 31
0.0999999
  0
LINE
  5
A90
330
A02
100
AcDbEntity
  8
Mesh_cs003
100
AcDbLine
 10
-324.712
 20
326.051
 30
0.0999999
 11
-324.729
 21
326.084
 31
0.0999999
  0
LINE
  5
A91
330
A02
100
AcDbEntity
  8
Mesh_cs003
100
AcDbLine
 10
-324.729
 20
326.084
 30
0.0999999
 11
-326.699
 21
330.021
 31
0.0999999
  0
LINE
  5
A92
330
A02
100
AcDbEntity
  8
Mesh_cs003
100
AcDbLine
 10
-326.699
 20
330.021
 30
0.0999999
 11
-326.716
 21
330.054
 31
0.0999999
  0
LINE
  5
A93
330
A02
100
AcDbEntity
  8
Mesh_cs003
100
AcDbLine
 10
-326.716
 20
330.054
 30
0.0999999
 11
-328.657
 21
334.006
 31
0.0999999
  0
LINE
  5
A94
330
A02
100
AcDbEntity
  8
Mesh_cs003
100
AcDbLine
 10
-328.657
 20
334.006
 30
0.0999999
 11
-328.673
 21
334.039
 31
0.0999999
  0
LINE
  5
A95
330
A02
100
AcDbEntity
  8
Mesh_cs003
100
AcDbLine
 10
-328.673
 20
334.039
 30
0.0999999
 11
-330.586
 21
338.004
 31
0.0999999
  0
LINE
  5
A96
330
A02
100
AcDbEntity
  8
Mesh_cs003
100
AcDbLine
 10
-330.586
 20
338.004
 30
0.0999999
 11
-330.602
 21
338.038
 31
0.0999999
  0
LINE
  5
A97
330
A02
100
AcDbEntity
  8
Mesh_cs003
100
AcDbLine
 10
-330.602
 20
338.038
 30
0.0999999
 11
-332.485
 21
342.017
 31
0.0999999
  0
LINE
  5
A98
330
A02
100
AcDbEntity
  8
Mesh_cs003
100
AcDbLine
 10
-332.485
 20
342.017
 30
0.0999999
 11
-332.501
 21
342.051
 31
0.0999999
  0
LINE
  5
A99
330
A02
100
AcDbEntity
  8
Mesh_cs003
100
AcDbLine
 10
-332.501
 20
342.051
 30
0.0999999
 11
-334.355
 21
346.043
 31
0.0999999
  0
LINE
  5
A9A
330
A02
100
AcDbEntity
  8
Mesh_cs003
100
AcDbLine
 10
-334.355
 20
346.043
 30
0.0999999
 11
-334.371
 21
346.077
 31
0.0999999
  0
LINE
  5
A9B
330
A02
100
AcDbEntity
  8
Mesh_cs003
100
AcDbLine
 10
-334.371
 20
346.077
 30
0.0999999
 11
-336.196
 21
350.083
 31
0.0999999
  0
LINE
  5
A9C
330
A02
100
AcDbEntity
  8
Mesh_cs003
100
AcDbLine
 10
-336.196
 20
350.083
 30
0.0999999
 11
-336.211
 21
350.117
 31
0.0999999
  0
LINE
  5
A9D
330
A02
100
AcDbEntity
  8
Mesh_cs003
100
AcDbLine
 10
-336.211
 20
350.117
 30
0.0999999
 11
-338.007
 21
354.136
 31
0.0999999
  0
LINE
  5
A9E
330
A02
100
AcDbEntity
  8
Mesh_cs003
100
AcDbLine
 10
-338.007
 20
354.136
 30
0.0999999
 11
-338.022
 21
354.17
 31
0.0999999
  0
LINE
  5
A9F
330
A02
100
AcDbEntity
  8
Mesh_cs003
100
AcDbLine
 10
-338.022
 20
354.17
 30
0.0999999
 11
-339.788
 21
358.202
 31
0.0999999
  0
LINE
  5
AA0
330
A02
100
AcDbEntity
  8
Mesh_cs003
100
AcDbLine
 10
-339.788
 20
358.202
 30
0.0999999
 11
-339.803
 21
358.236
 31
0.0999999
  0
LINE
  5
AA1
330
A02
100
AcDbEntity
  8
Mesh_cs003
100
AcDbLine
 10
-339.803
 20
358.236
 30
0.0999999
 11
-341.54
 21
362.281
 31
0.0999999
  0
LINE
  5
AA2
330
A02
100
AcDbEntity
  8
Mesh_cs003
100
AcDbLine
 10
-341.54
 20
362.281
 30
0.0999999
 11
-341.554
 21
362.316
 31
0.0999999
  0
LINE
  5
AA3
330
A02
100
AcDbEntity
  8
Mesh_cs003
100
AcDbLine
 10
-341.554
 20
362.316
 30
0.0999999
 11
-343.262
 21
366.373
 31
0.0999999
  0
LINE
  5
AA4
330
A02
100
AcDbEntity
  8
Mesh_cs003
100
AcDbLine
 10
-343.262
 20
366.373
 30
0.0999999
 11
-343.276
 21
366.407
 31
0.0999999
  0
LINE
  5
AA5
330
A02
100
AcDbEntity
  8
Mesh_cs003
100
AcDbLine
 10
-343.276
 20
366.407
 30
0.0999999
 11
-344.953
 21
370.477
 31
0.0999999
  0
LINE
  5
AA6
330
A02
100
AcDbEntity
  8
Mesh_cs003
100
AcDbLine
 10
-344.953
 20
370.477
 30
0.0999999
 11
-344.967
 21
370.511
 31
0.0999999
  0
LINE
  5
AA7
330
A02
100
AcDbEntity
  8
Mesh_cs003
100
AcDbLine
 10
-344.967
 20
370.511
 30
0.0999999
 11
-346.615
 21
374.593
 31
0.0999999
  0
LINE
  5
AA8
330
A02
100
AcDbEntity
  8
Mesh_cs003
100
AcDbLine
 10
-346.615
 20
374.593
 30
0.0999999
 11
-346.629
 21
374.628
 31
0.0999999
  0
LINE
  5
AA9
330
A02
100
AcDbEntity
  8
Mesh_cs003
100
AcDbLine
 10
-346.629
 20
374.628
 30
0.0999999
 11
-348.247
 21
378.722
 31
0.0999999
  0
LINE
  5
AAA
330
A02
100
AcDbEntity
  8
Mesh_cs003
100
AcDbLine
 10
-348.247
 20
378.722
 30
0.0999999
 11
-348.26
 21
378.756
 31
0.0999999
  0
LINE
  5
AAB
330
A02
100
AcDbEntity
  8
Mesh_cs003
100
AcDbLine
 10
-348.26
 20
378.756
 30
0.0999999
 11
-349.848
 21
382.861
 31
0.0999999
  0
LINE
  5
AAC
330
A02
100
AcDbEntity
  8
Mesh_cs003
100
AcDbLine
 10
-349.848
 20
382.861
 30
0.0999999
 11
-349.862
 21
382.896
 31
0.0999999
  0
LINE
  5
AAD
330
A02
100
AcDbEntity
  8
Mesh_cs003
100
AcDbLine
 10
-349.862
 20
382.896
 30
0.0999999
 11
-351.42
 21
387.013
 31
0.0999999
  0
LINE
  5
AAE
330
A02
100
AcDbEntity
  8
Mesh_cs003
100
AcDbLine
 10
-351.42
 20
387.013
 30
0.0999999
 11
-351.432
 21
387.048
 31
0.0999999
  0
LINE
  5
AAF
330
A02
100
AcDbEntity
  8
Mesh_cs003
100
AcDbLine
 10
-351.432
 20
387.048
 30
0.0999999
 11
-352.96
 21
391.176
 31
0.0999999
  0
LINE
  5
AB0
330
A02
100
AcDbEntity
  8
Mesh_cs003
100
AcDbLine
 10
-352.96
 20
391.176
 30
0.0999999
 11
-352.973
 21
391.21
 31
0.0999999
  0
LINE
  5
AB1
330
A02
100
AcDbEntity
  8
Mesh_cs003
100
AcDbLine
 10
-352.973
 20
391.21
 30
0.0999999
 11
-354.471
 21
395.35
 31
0.0999999
  0
LINE
  5
AB2
330
A02
100
AcDbEntity
  8
Mesh_cs003
100
AcDbLine
 10
-354.471
 20
395.35
 30
0.0999999
 11
-354.483
 21
395.384
 31
0.0999999
  0
LINE
  5
AB3
330
A02
100
AcDbEntity
  8
Mesh_cs003
100
AcDbLine
 10
-354.483
 20
395.384
 30
0.0999999
 11
-355.95
 21
399.534
 31
0.0999999
  0
LINE
  5
AB4
330
A02
100
AcDbEntity
  8
Mesh_cs003
100
AcDbLine
 10
-355.95
 20
399.534
 30
0.0999999
 11
-355.963
 21
399.569
 31
0.0999999
  0
LINE
  5
AB5
330
A02
100
AcDbEntity
  8
Mesh_cs003
100
AcDbLine
 10
-355.963
 20
399.569
 30
0.0999999
 11
-357.4
 21
403.73
 31
0.0999999
  0
LINE
  5
AB6
330
A02
100
AcDbEntity
  8
Mesh_cs003
100
AcDbLine
 10
-357.4
 20
403.73
 30
0.0999999
 11
-357.412
 21
403.765
 31
0.0999999
  0
LINE
  5
AB7
330
A02
100
AcDbEntity
  8
Mesh_cs003
100
AcDbLine
 10
-357.412
 20
403.765
 30
0.0999999
 11
-358.818
 21
407.935
 31
0.0999999
  0
LINE
  5
AB8
330
A02
100
AcDbEntity
  8
Mesh_cs003
100
AcDbLine
 10
-358.818
 20
407.935
 30
0.0999999
 11
-358.83
 21
407.97
 31
0.0999999
  0
LINE
  5
AB9
330
A02
100
AcDbEntity
  8
Mesh_cs003
100
AcDbLine
 10
-358.83
 20
407.97
 30
0.0999999
 11
-360.206
 21
412.151
 31
0.0999999
  0
LINE
  5
ABA
330
A02
100
AcDbEntity
  8
Mesh_cs003
100
AcDbLine
 10
-360.206
 20
412.151
 30
0.0999999
 11
-360.219
 21
412.19
 31
0.0999999
  0
LINE
  5
ABB
330
A02
100
AcDbEntity
  8
Mesh_cs003
100
AcDbLine
 10
-360.219
 20
412.19
 30
0.0999999
 11
-361.712
 21
416.847
 31
0.0999999
  0
LINE
  5
ABC
330
A02
100
AcDbEntity
  8
Mesh_cs003
100
AcDbLine
 10
-361.712
 20
416.847
 30
0.0999999
 11
-361.724
 21
416.887
 31
0.0999999
  0
LINE
  5
ABD
330
A02
100
AcDbEntity
  8
Mesh_cs003
100
AcDbLine
 10
-361.724
 20
416.887
 30
0.0999999
 11
-363.179
 21
421.555
 31
0.0999999
  0
LINE
  5
ABE
330
A02
100
AcDbEntity
  8
Mesh_cs003
100
AcDbLine
 10
-363.179
 20
421.555
 30
0.0999999
 11
-363.191
 21
421.595
 31
0.0999999
  0
LINE
  5
ABF
330
A02
100
AcDbEntity
  8
Mesh_cs003
100
AcDbLine
 10
-363.191
 20
421.595
 30
0.0999999
 11
-364.609
 21
426.275
 31
0.0999999
  0
LINE
  5
AC0
330
A02
100
AcDbEntity
  8
Mesh_cs003
100
AcDbLine
 10
-364.609
 20
426.275
 30
0.0999999
 11
-364.62
 21
426.314
 31
0.0999999
  0
ENDSEC
  0
SECTION
  2
OBJECTS
  0
DICTIONARY
  5
F000
330
0
100
AcDbDictionary
  3
ACAD_GROUP
350
F001
  0
DICTIONARY
  5
F001
330
F000
100
AcDbDictionary
  0
ENDSEC
  0
EOF