999
FreeCAD v0.21 33771 (Git)
  0
SECTION
  2
HEADER
  9
$ACADVER
  1
AC1014
  9
$ACADMAINTVER
 70
     9
  9
$DWGCODEPAGE
  3
ANSI_1252
  9
$TEXTSTYLE
  7
STANDARD
  9
$DIMSTYLE
  2
STANDARD
  9
$DIMTXSTY
  7
STANDARD
  9
$CMLSTYLE
  2
STANDARD
  9
$LUNITS
 70
2
  9
$INSUNITS
 70
4
  9
$PEXTMAX
 10
50
 20
50
 30
50
  9
$PEXTMIN
 10
0
 20
0
 30
0
  9
$HANDSEED
  5
FFFF
  0
ENDSEC
  0
SECTION
  2
CLASSES
  0
CLASS
  1
ACDBDICTIONARYWDFLT
  2
AcDbDictionaryWithDefault
  3
ObjectDBX Classes
 90
        0
280
     0
281
     0
  0
CLASS
  1
XRECORD
  2
AcDbXrecord
  3
ObjectDBX Classes
 90
        0
280
     0
281
     0
  0
CLASS
  1
LWPOLYLINE
  2
AcDbPolyline
  3
ObjectDBX Classes
 90
        0
280
     0
281
     1
  0
ENDSEC
  0
SECTION
  2
TABLES
  0
TABLE
  2
VPORT
  5
20
330
0
100
AcDbSymbolTable
 70
     1
  0
VPORT
  5
21
330
20
100
AcDbSymbolTableRecord
100
AcDbViewportTableRecord
  2
*ACTIVE
 70
     0
  0
ENDTAB
  0
TABLE
  2
LTYPE
  5
22
330
0
100
AcDbSymbolTable
 70
     1
  0
LTYPE
  5
23
330
21
100
AcDbSymbolTableRecord
100
AcDbLinetypeTableRecord
  2
BYBLOCK
 70
     0
  3

 72
    65
 73
     0
 40
0.0
  0
LTYPE
  5
24
330
21
100
AcDbSymbolTableRecord
100
AcDbLinetypeTableRecord
  2
BYLAYER
 70
     0
  3

 72
    65
 73
     0
 40
0.0
  0
LTYPE
  5
25
330
21
100
AcDbSymbolTableRecord
100
AcDbLinetypeTableRecord
  2
CONTINUOUS
 70
     0
  3
Solid line
 72
    65
 73
     0
 40
0.0
  0
ENDTAB
  0
TABLE
  2
LAYER
  5
B26
330
0
100
AcDbSymbolTable
 70
3
  0
LAYER
  5
B27
330
B26
100
AcDbSymbolTableRecord
100
AcDbLayerTableRecord
  2
0
 70
   0
 62
   7
  6
CONTINUOUS
  0
LAYER
  5
B28
330
B26
100
AcDbSymbolTableRecord
100
AcDbLayerTableRecord
  2
none
 70
    0
 62
    7
  6
CONTINUOUS
  0
LAYER
  5
B29
330
B26
100
AcDbSymbolTableRecord
100
AcDbLayerTableRecord
  2
Mesh_cs003
 70
    0
 62
    7
  6
CONTINUOUS
  0
ENDTAB
  0
TABLE
  2
STYLE
  5
70
330
0
100
AcDbSymbolTable
 70
     2
  0
STYLE
  5
71
330
70
100
AcDbSymbolTableRecord
100
AcDbTextStyleTableRecord
  2
STANDARD
 70
     0
 40
0.0
 41
1.0
 50
0.0
 71
     0
 42
2.5
  3
arial.ttf
  4

  0
STYLE
  5
72
330
70
100
AcDbSymbolTableRecord
100
AcDbTextStyleTableRecord
  2
ANNOTATIVE
 70
     0
 40
0.0
 41
1.0
 50
0.0
 71
     0
 42
2.5
  3
arial.ttf
  4

  0
ENDTAB
  0
TABLE
  2
VIEW
  5
73
330
0
100
AcDbSymbolTable
 70
     0
  0
ENDTAB
  0
TABLE
  2
UCS
  5
74
330
0
100
AcDbSymbolTable
 70
     0
  0
ENDTAB
  0
TABLE
  2
APPID
  5
75
330
0
100
AcDbSymbolTable
 70
     2
  0
APPID
  5
76
330
75
100
AcDbSymbolTableRecord
100
AcDbRegAppTableRecord
  2
ACAD
 70
     0
  0
APPID
  5
77
330
75
100
AcDbSymbolTableRecord
100
AcDbRegAppTableRecord
  2
ACADANNOTATIVE
 70
     0
  0
ENDTAB
  0
TABLE
  2
DIMSTYLE
  5
78
330
0
100
AcDbSymbolTable
 70
     2
  0
DIMSTYLE
105
79
330
78
100
AcDbSymbolTableRecord
100
AcDbDimStyleTableRecord
  2
STANDARD
 70
     0
  3

  4

  5

  6

  7

 40
0.0
 41
2.5
 42
0.625
 43
3.75
 44
1.25
 45
0.0
 46
0.0
 47
0.0
 48
0.0
140
2.5
141
2.5
142
0.0
143
0.03937007874016
144
1.0
145
0.0
146
1.0
147
0.625
 71
     0
 72
     0
 73
     0
 74
     0
 75
     0
 76
     0
 77
     1
 78
     8
170
     0
171
     3
172
     1
173
     0
174
     0
175
     0
176
     0
177
     0
178
     0
270
     2
271
     2
272
     2
273
     2
274
     3
340
71
275
     0
280
     0
281
     0
282
     0
283
     0
284
     8
285
     0
286
     0
287
     3
288
     0
  0
ENDTAB
  0
TABLE
  2
BLOCK_RECORD
  5
A01
330
0
100
AcDbSymbolTable
  70
5
  0
BLOCK_RECORD
  5
A02
330
A01
100
AcDbSymbolTableRecord
100
AcDbBlockTableRecord
  2
*MODEL_SPACE
  0
BLOCK_RECORD
  5
A03
330
A01
100
AcDbSymbolTableRecord
100
AcDbBlockTableRecord
  2
*PAPER_SPACE
  0
ENDTAB
  0
ENDSEC
  0
SECTION
  2
BLOCKS
  0
BLOCK
  5
A04
330
A02
100
AcDbEntity
  8
0
100
AcDbBlockBegin
  2
*MODEL_SPACE
 70
   0
 10
0
 20
0
 30
0
  3
*MODEL_SPACE
  1
 
  0
ENDBLK
  5
A05
330
A02
100
AcDbEntity
  8
0
100
AcDbBlockEnd
  0
BLOCK
  5
A06
330
A03
100
AcDbEntity
 67
1
  8
0
100
AcDbBlockBegin
  2
*PAPER_SPACE
 70
   0
 10
0
 20
0
 30
0
  3
*PAPER_SPACE
  1
 
  0
ENDBLK
  5
A07
330
A03
100
AcDbEntity
 67
    1
  8
0
100
AcDbBlockEnd
  0
ENDSEC
  0
SECTION
  2
ENTITIES
  0
LINE
  5
A08
330
A02
100
AcDbEntity
  8
Mesh_cs003
100
AcDbLine
 10
-290.442
 20
264.5
 30
0.1
 11
-290.69
 21
264.608
 31
0.1
  0
LINE
  5
A09
330
A02
100
AcDbEntity
  8
Mesh_cs003
100
AcDbLine
 10
-290.69
 20
264.608
 30
0.1
 11
-290.943
 21
264.7
 31
0.1
  0
LINE
  5
A0A
330
A02
100
AcDbEntity
  8
Mesh_cs003
100
AcDbLine
 10
-290.943
 20
264.7
 30
0.1
 11
-290.952
 21
264.703
 31
0.1
  0
LINE
  5
A0B
330
A02
100
AcDbEntity
  8
Mesh_cs003
100
AcDbLine
 10
-290.952
 20
264.703
 30
0.1
 11
-290.982
 21
264.715
 31
0.0999999
  0
LINE
  5
A0C
330
A02
100
AcDbEntity
  8
Mesh_cs003
100
AcDbLine
 10
-290.982
 20
264.715
 30
0.0999999
 11
-290.987
 21
264.717
 31
0.0999999
  0
LINE
  5
A0D
330
A02
100
AcDbEntity
  8
Mesh_cs003
100
AcDbLine
 10
-290.987
 20
264.717
 30
0.0999999
 11
-291.008
 21
264.742
 31
0.0999999
  0
LINE
  5
A0E
330
A02
100
AcDbEntity
  8
Mesh_cs003
100
AcDbLine
 10
-291.008
 20
264.742
 30
0.0999999
 11
-293.537
 21
267.741
 31
0.0999999
  0
LINE
  5
A0F
330
A02
100
AcDbEntity
  8
Mesh_cs003
100
AcDbLine
 10
-293.537
 20
267.741
 30
0.0999999
 11
-293.558
 21
267.766
 31
0.0999999
  0
LINE
  5
A10
330
A02
100
AcDbEntity
  8
Mesh_cs003
100
AcDbLine
 10
-293.558
 20
267.766
 30
0.0999999
 11
-296.118
 21
270.744
 31
0.0999999
  0
LINE
  5
A11
330
A02
100
AcDbEntity
  8
Mesh_cs003
100
AcDbLine
 10
-296.118
 20
270.744
 30
0.0999999
 11
-296.141
 21
270.769
 31
0.0999999
  0
LINE
  5
A12
330
A02
100
AcDbEntity
  8
Mesh_cs003
100
AcDbLine
 10
-296.141
 20
270.769
 30
0.0999999
 11
-298.796
 21
273.798
 31
0.0999999
  0
LINE
  5
A13
330
A02
100
AcDbEntity
  8
Mesh_cs003
100
AcDbLine
 10
-298.796
 20
273.798
 30
0.0999999
 11
-298.819
 21
273.824
 31
0.0999999
  0
LINE
  5
A14
330
A02
100
AcDbEntity
  8
Mesh_cs003
100
AcDbLine
 10
-298.819
 20
273.824
 30
0.0999999
 11
-301.504
 21
276.827
 31
0.0999999
  0
LINE
  5
A15
330
A02
100
AcDbEntity
  8
Mesh_cs003
100
AcDbLine
 10
-301.504
 20
276.827
 30
0.0999999
 11
-304.219
 21
279.803
 31
0.0999999
  0
LINE
  5
A16
330
A02
100
AcDbEntity
  8
Mesh_cs003
100
AcDbLine
 10
-304.219
 20
279.803
 30
0.0999999
 11
-304.242
 21
279.828
 31
0.0999999
  0
LINE
  5
A17
330
A02
100
AcDbEntity
  8
Mesh_cs003
100
AcDbLine
 10
-304.242
 20
279.828
 30
0.0999999
 11
-306.986
 21
282.778
 31
0.0999999
  0
LINE
  5
A18
330
A02
100
AcDbEntity
  8
Mesh_cs003
100
AcDbLine
 10
-306.986
 20
282.778
 30
0.0999999
 11
-307.009
 21
282.803
 31
0.0999999
  0
LINE
  5
A19
330
A02
100
AcDbEntity
  8
Mesh_cs003
100
AcDbLine
 10
-307.009
 20
282.803
 30
0.0999999
 11
-307.033
 21
282.827
 31
0.0999999
  0
LINE
  5
A1A
330
A02
100
AcDbEntity
  8
Mesh_cs003
100
AcDbLine
 10
-307.033
 20
282.827
 30
0.0999999
 11
-309.806
 21
285.75
 31
0.0999999
  0
LINE
  5
A1B
330
A02
100
AcDbEntity
  8
Mesh_cs003
100
AcDbLine
 10
-309.806
 20
285.75
 30
0.0999999
 11
-309.829
 21
285.774
 31
0.0999999
  0
LINE
  5
A1C
330
A02
100
AcDbEntity
  8
Mesh_cs003
100
AcDbLine
 10
-309.829
 20
285.774
 30
0.0999999
 11
-312.631
 21
288.669
 31
0.0999999
  0
LINE
  5
A1D
330
A02
100
AcDbEntity
  8
Mesh_cs003
100
AcDbLine
 10
-312.631
 20
288.669
 30
0.0999999
 11
-315.461
 21
291.537
 31
0.0999999
  0
LINE
  5
A1E
330
A02
100
AcDbEntity
  8
Mesh_cs003
100
AcDbLine
 10
-315.461
 20
291.537
 30
0.0999999
 11
-315.485
 21
291.561
 31
0.0999999
  0
LINE
  5
A1F
330
A02
100
AcDbEntity
  8
Mesh_cs003
100
AcDbLine
 10
-315.485
 20
291.561
 30
0.0999999
 11
-318.343
 21
294.401
 31
0.0999999
  0
LINE
  5
A20
330
A02
100
AcDbEntity
  8
Mesh_cs003
100
AcDbLine
 10
-318.343
 20
294.401
 30
0.0999999
 11
-318.367
 21
294.425
 31
0.0999999
  0
LINE
  5
A21
330
A02
100
AcDbEntity
  8
Mesh_cs003
100
AcDbLine
 10
-318.367
 20
294.425
 30
0.0999999
 11
-318.392
 21
294.448
 31
0.0999999
  0
LINE
  5
A22
330
A02
100
AcDbEntity
  8
Mesh_cs003
100
AcDbLine
 10
-318.392
 20
294.448
 30
0.0999999
 11
-321.278
 21
297.26
 31
0.0999999
  0
LINE
  5
A23
330
A02
100
AcDbEntity
  8
Mesh_cs003
100
AcDbLine
 10
-321.278
 20
297.26
 30
0.0999999
 11
-321.302
 21
297.283
 31
0.0999999
  0
LINE
  5
A24
330
A02
100
AcDbEntity
  8
Mesh_cs003
100
AcDbLine
 10
-321.302
 20
297.283
 30
0.0999999
 11
-324.216
 21
300.066
 31
0.0999999
  0
LINE
  5
A25
330
A02
100
AcDbEntity
  8
Mesh_cs003
100
AcDbLine
 10
-324.216
 20
300.066
 30
0.0999999
 11
-324.241
 21
300.09
 31
0.0999999
  0
LINE
  5
A26
330
A02
100
AcDbEntity
  8
Mesh_cs003
100
AcDbLine
 10
-324.241
 20
300.09
 30
0.0999999
 11
-327.182
 21
302.844
 31
0.0999999
  0
LINE
  5
A27
330
A02
100
AcDbEntity
  8
Mesh_cs003
100
AcDbLine
 10
-327.182
 20
302.844
 30
0.0999999
 11
-330.15
 21
305.569
 31
0.0999999
  0
LINE
  5
A28
330
A02
100
AcDbEntity
  8
Mesh_cs003
100
AcDbLine
 10
-330.15
 20
305.569
 30
0.0999999
 11
-330.175
 21
305.592
 31
0.0999999
  0
LINE
  5
A29
330
A02
100
AcDbEntity
  8
Mesh_cs003
100
AcDbLine
 10
-330.175
 20
305.592
 30
0.0999999
 11
-330.2
 21
305.615
 31
0.0999999
  0
LINE
  5
A2A
330
A02
100
AcDbEntity
  8
Mesh_cs003
100
AcDbLine
 10
-330.2
 20
305.615
 30
0.0999999
 11
-333.195
 21
308.311
 31
0.0999999
  0
LINE
  5
A2B
330
A02
100
AcDbEntity
  8
Mesh_cs003
100
AcDbLine
 10
-333.195
 20
308.311
 30
0.0999999
 11
-336.216
 21
310.978
 31
0.0999999
  0
LINE
  5
A2C
330
A02
100
AcDbEntity
  8
Mesh_cs003
100
AcDbLine
 10
-336.216
 20
310.978
 30
0.0999999
 11
-336.242
 21
311
 31
0.0999999
  0
LINE
  5
A2D
330
A02
100
AcDbEntity
  8
Mesh_cs003
100
AcDbLine
 10
-336.242
 20
311
 30
0.0999999
 11
-336.267
 21
311.022
 31
0.0999999
  0
LINE
  5
A2E
330
A02
100
AcDbEntity
  8
Mesh_cs003
100
AcDbLine
 10
-336.267
 20
311.022
 30
0.0999999
 11
-339.315
 21
313.659
 31
0.0999999
  0
LINE
  5
A2F
330
A02
100
AcDbEntity
  8
Mesh_cs003
100
AcDbLine
 10
-339.315
 20
313.659
 30
0.0999999
 11
-339.34
 21
313.681
 31
0.0999999
  0
LINE
  5
A30
330
A02
100
AcDbEntity
  8
Mesh_cs003
100
AcDbLine
 10
-339.34
 20
313.681
 30
0.0999999
 11
-342.414
 21
316.288
 31
0.0999999
  0
LINE
  5
A31
330
A02
100
AcDbEntity
  8
Mesh_cs003
100
AcDbLine
 10
-342.414
 20
316.288
 30
0.0999999
 11
-342.44
 21
316.309
 31
0.0999999
  0
LINE
  5
A32
330
A02
100
AcDbEntity
  8
Mesh_cs003
100
AcDbLine
 10
-342.44
 20
316.309
 30
0.0999999
 11
-345.539
 21
318.886
 31
0.0999999
  0
LINE
  5
A33
330
A02
100
AcDbEntity
  8
Mesh_cs003
100
AcDbLine
 10
-345.539
 20
318.886
 30
0.0999999
 11
-348.663
 21
321.432
 31
0.0999999
  0
LINE
  5
A34
330
A02
100
AcDbEntity
  8
Mesh_cs003
100
AcDbLine
 10
-348.663
 20
321.432
 30
0.0999999
 11
-348.689
 21
321.453
 31
0.0999999
  0
LINE
  5
A35
330
A02
100
AcDbEntity
  8
Mesh_cs003
100
AcDbLine
 10
-348.689
 20
321.453
 30
0.0999999
 11
-348.716
 21
321.474
 31
0.0999999
  0
LINE
  5
A36
330
A02
100
AcDbEntity
  8
Mesh_cs003
100
AcDbLine
 10
-348.716
 20
321.474
 30
0.0999999
 11
-351.865
 21
323.989
 31
0.0999999
  0
LINE
  5
A37
330
A02
100
AcDbEntity
  8
Mesh_cs003
100
AcDbLine
 10
-351.865
 20
323.989
 30
0.0999999
 11
-351.891
 21
324.01
 31
0.0999999
  0
LINE
  5
A38
330
A02
100
AcDbEntity
  8
Mesh_cs003
100
AcDbLine
 10
-351.891
 20
324.01
 30
0.0999999
 11
-355.065
 21
326.494
 31
0.0999999
  0
LINE
  5
A39
330
A02
100
AcDbEntity
  8
Mesh_cs003
100
AcDbLine
 10
-355.065
 20
326.494
 30
0.0999999
 11
-355.092
 21
326.515
 31
0.0999999
  0
LINE
  5
A3A
330
A02
100
AcDbEntity
  8
Mesh_cs003
100
AcDbLine
 10
-355.092
 20
326.515
 30
0.0999999
 11
-358.29
 21
328.967
 31
0.0999999
  0
LINE
  5
A3B
330
A02
100
AcDbEntity
  8
Mesh_cs003
100
AcDbLine
 10
-358.29
 20
328.967
 30
0.0999999
 11
-361.513
 21
331.389
 31
0.0999999
  0
LINE
  5
A3C
330
A02
100
AcDbEntity
  8
Mesh_cs003
100
AcDbLine
 10
-361.513
 20
331.389
 30
0.0999999
 11
-361.54
 21
331.409
 31
0.0999999
  0
LINE
  5
A3D
330
A02
100
AcDbEntity
  8
Mesh_cs003
100
AcDbLine
 10
-361.54
 20
331.409
 30
0.0999999
 11
-361.567
 21
331.429
 31
0.0999999
  0
LINE
  5
A3E
330
A02
100
AcDbEntity
  8
Mesh_cs003
100
AcDbLine
 10
-361.567
 20
331.429
 30
0.0999999
 11
-364.813
 21
333.818
 31
0.0999999
  0
LINE
  5
A3F
330
A02
100
AcDbEntity
  8
Mesh_cs003
100
AcDbLine
 10
-364.813
 20
333.818
 30
0.0999999
 11
-364.838
 21
333.836
 31
0.0999999
  0
LINE
  5
A40
330
A02
100
AcDbEntity
  8
Mesh_cs003
100
AcDbLine
 10
-364.838
 20
333.836
 30
0.0999999
 11
-367.779
 21
335.959
 31
0.0999999
  0
LINE
  5
A41
330
A02
100
AcDbEntity
  8
Mesh_cs003
100
AcDbLine
 10
-367.779
 20
335.959
 30
0.0999999
 11
-370.739
 21
338.056
 31
0.0999999
  0
LINE
  5
A42
330
A02
100
AcDbEntity
  8
Mesh_cs003
100
AcDbLine
 10
-370.739
 20
338.056
 30
0.0999999
 11
-370.764
 21
338.074
 31
0.0999999
  0
LINE
  5
A43
330
A02
100
AcDbEntity
  8
Mesh_cs003
100
AcDbLine
 10
-370.764
 20
338.074
 30
0.0999999
 11
-370.789
 21
338.091
 31
0.0999999
  0
LINE
  5
A44
330
A02
100
AcDbEntity
  8
Mesh_cs003
100
AcDbLine
 10
-370.789
 20
338.091
 30
0.0999999
 11
-373.768
 21
340.162
 31
0.0999999
  0
LINE
  5
A45
330
A02
100
AcDbEntity
  8
Mesh_cs003
100
AcDbLine
 10
-373.768
 20
340.162
 30
0.0999999
 11
-376.765
 21
342.207
 31
0.0999999
  0
LINE
  5
A46
330
A02
100
AcDbEntity
  8
Mesh_cs003
100
AcDbLine
 10
-376.765
 20
342.207
 30
0.0999999
 11
-376.79
 21
342.224
 31
0.0999999
  0
LINE
  5
A47
330
A02
100
AcDbEntity
  8
Mesh_cs003
100
AcDbLine
 10
-376.79
 20
342.224
 30
0.0999999
 11
-376.816
 21
342.241
 31
0.0999999
  0
LINE
  5
A48
330
A02
100
AcDbEntity
  8
Mesh_cs003
100
AcDbLine
 10
-376.816
 20
342.241
 30
0.0999999
 11
-379.831
 21
344.258
 31
0.0999999
  0
LINE
  5
A49
330
A02
100
AcDbEntity
  8
Mesh_cs003
100
AcDbLine
 10
-379.831
 20
344.258
 30
0.0999999
 11
-379.856
 21
344.275
 31
0.0999999
  0
LINE
  5
A4A
330
A02
100
AcDbEntity
  8
Mesh_cs003
100
AcDbLine
 10
-379.856
 20
344.275
 30
0.0999999
 11
-382.889
 21
346.266
 31
0.0999999
  0
LINE
  5
A4B
330
A02
100
AcDbEntity
  8
Mesh_cs003
100
AcDbLine
 10
-382.889
 20
346.266
 30
0.0999999
 11
-382.915
 21
346.283
 31
0.0999999
  0
LINE
  5
A4C
330
A02
100
AcDbEntity
  8
Mesh_cs003
100
AcDbLine
 10
-382.915
 20
346.283
 30
0.0999999
 11
-385.965
 21
348.247
 31
0.0999999
  0
LINE
  5
A4D
330
A02
100
AcDbEntity
  8
Mesh_cs003
100
AcDbLine
 10
-385.965
 20
348.247
 30
0.0999999
 11
-385.991
 21
348.263
 31
0.0999999
  0
LINE
  5
A4E
330
A02
100
AcDbEntity
  8
Mesh_cs003
100
AcDbLine
 10
-385.991
 20
348.263
 30
0.0999999
 11
-389.059
 21
350.2
 31
0.0999999
  0
LINE
  5
A4F
330
A02
100
AcDbEntity
  8
Mesh_cs003
100
AcDbLine
 10
-389.059
 20
350.2
 30
0.0999999
 11
-392.143
 21
352.11
 31
0.0999999
  0
LINE
  5
A50
330
A02
100
AcDbEntity
  8
Mesh_cs003
100
AcDbLine
 10
-392.143
 20
352.11
 30
0.0999999
 11
-392.169
 21
352.126
 31
0.0999999
  0
LINE
  5
A51
330
A02
100
AcDbEntity
  8
Mesh_cs003
100
AcDbLine
 10
-392.169
 20
352.126
 30
0.0999999
 11
-395.271
 21
354.008
 31
0.0999999
  0
LINE
  5
A52
330
A02
100
AcDbEntity
  8
Mesh_cs003
100
AcDbLine
 10
-395.271
 20
354.008
 30
0.0999999
 11
-395.297
 21
354.024
 31
0.0999999
  0
LINE
  5
A53
330
A02
100
AcDbEntity
  8
Mesh_cs003
100
AcDbLine
 10
-395.297
 20
354.024
 30
0.0999999
 11
-395.323
 21
354.04
 31
0.0999999
  0
LINE
  5
A54
330
A02
100
AcDbEntity
  8
Mesh_cs003
100
AcDbLine
 10
-395.323
 20
354.04
 30
0.0999999
 11
-398.442
 21
355.895
 31
0.0999999
  0
LINE
  5
A55
330
A02
100
AcDbEntity
  8
Mesh_cs003
100
AcDbLine
 10
-398.442
 20
355.895
 30
0.0999999
 11
-398.468
 21
355.91
 31
0.0999999
  0
LINE
  5
A56
330
A02
100
AcDbEntity
  8
Mesh_cs003
100
AcDbLine
 10
-398.468
 20
355.91
 30
0.0999999
 11
-401.603
 21
357.737
 31
0.0999999
  0
LINE
  5
A57
330
A02
100
AcDbEntity
  8
Mesh_cs003
100
AcDbLine
 10
-401.603
 20
357.737
 30
0.0999999
 11
-404.754
 21
359.537
 31
0.0999999
  0
LINE
  5
A58
330
A02
100
AcDbEntity
  8
Mesh_cs003
100
AcDbLine
 10
-404.754
 20
359.537
 30
0.0999999
 11
-404.78
 21
359.552
 31
0.0999999
  0
LINE
  5
A59
330
A02
100
AcDbEntity
  8
Mesh_cs003
100
AcDbLine
 10
-404.78
 20
359.552
 30
0.0999999
 11
-404.807
 21
359.567
 31
0.0999999
  0
LINE
  5
A5A
330
A02
100
AcDbEntity
  8
Mesh_cs003
100
AcDbLine
 10
-404.807
 20
359.567
 30
0.0999999
 11
-407.974
 21
361.338
 31
0.0999999
  0
LINE
  5
A5B
330
A02
100
AcDbEntity
  8
Mesh_cs003
100
AcDbLine
 10
-407.974
 20
361.338
 30
0.0999999
 11
-408
 21
361.353
 31
0.0999999
  0
LINE
  5
A5C
330
A02
100
AcDbEntity
  8
Mesh_cs003
100
AcDbLine
 10
-408
 20
361.353
 30
0.0999999
 11
-411.183
 21
363.097
 31
0.0999999
  0
LINE
  5
A5D
330
A02
100
AcDbEntity
  8
Mesh_cs003
100
AcDbLine
 10
-411.183
 20
363.097
 30
0.0999999
 11
-411.21
 21
363.111
 31
0.0999999
  0
LINE
  5
A5E
330
A02
100
AcDbEntity
  8
Mesh_cs003
100
AcDbLine
 10
-411.21
 20
363.111
 30
0.0999999
 11
-414.407
 21
364.826
 31
0.0999999
  0
LINE
  5
A5F
330
A02
100
AcDbEntity
  8
Mesh_cs003
100
AcDbLine
 10
-414.407
 20
364.826
 30
0.0999999
 11
-414.434
 21
364.84
 31
0.0999999
  0
LINE
  5
A60
330
A02
100
AcDbEntity
  8
Mesh_cs003
100
AcDbLine
 10
-414.434
 20
364.84
 30
0.0999999
 11
-417.647
 21
366.527
 31
0.0999999
  0
LINE
  5
A61
330
A02
100
AcDbEntity
  8
Mesh_cs003
100
AcDbLine
 10
-417.647
 20
366.527
 30
0.0999999
 11
-417.674
 21
366.541
 31
0.0999999
  0
LINE
  5
A62
330
A02
100
AcDbEntity
  8
Mesh_cs003
100
AcDbLine
 10
-417.674
 20
366.541
 30
0.0999999
 11
-420.902
 21
368.199
 31
0.0999999
  0
LINE
  5
A63
330
A02
100
AcDbEntity
  8
Mesh_cs003
100
AcDbLine
 10
-420.902
 20
368.199
 30
0.0999999
 11
-420.929
 21
368.213
 31
0.0999999
  0
LINE
  5
A64
330
A02
100
AcDbEntity
  8
Mesh_cs003
100
AcDbLine
 10
-420.929
 20
368.213
 30
0.0999999
 11
-424.172
 21
369.843
 31
0.0999999
  0
LINE
  5
A65
330
A02
100
AcDbEntity
  8
Mesh_cs003
100
AcDbLine
 10
-424.172
 20
369.843
 30
0.0999999
 11
-427.428
 21
371.444
 31
0.0999999
  0
LINE
  5
A66
330
A02
100
AcDbEntity
  8
Mesh_cs003
100
AcDbLine
 10
-427.428
 20
371.444
 30
0.0999999
 11
-427.456
 21
371.457
 31
0.0999999
  0
LINE
  5
A67
330
A02
100
AcDbEntity
  8
Mesh_cs003
100
AcDbLine
 10
-427.456
 20
371.457
 30
0.0999999
 11
-427.483
 21
371.47
 31
0.0999999
  0
LINE
  5
A68
330
A02
100
AcDbEntity
  8
Mesh_cs003
100
AcDbLine
 10
-427.483
 20
371.47
 30
0.0999999
 11
-430.754
 21
373.043
 31
0.0999999
  0
LINE
  5
A69
330
A02
100
AcDbEntity
  8
Mesh_cs003
100
AcDbLine
 10
-430.754
 20
373.043
 30
0.0999999
 11
-430.782
 21
373.056
 31
0.0999999
  0
LINE
  5
A6A
330
A02
100
AcDbEntity
  8
Mesh_cs003
100
AcDbLine
 10
-430.782
 20
373.056
 30
0.0999999
 11
-434.067
 21
374.599
 31
0.0999999
  0
LINE
  5
A6B
330
A02
100
AcDbEntity
  8
Mesh_cs003
100
AcDbLine
 10
-434.067
 20
374.599
 30
0.0999999
 11
-437.365
 21
376.113
 31
0.0999999
  0
LINE
  5
A6C
330
A02
100
AcDbEntity
  8
Mesh_cs003
100
AcDbLine
 10
-437.365
 20
376.113
 30
0.0999999
 11
-437.393
 21
376.125
 31
0.0999999
  0
LINE
  5
A6D
330
A02
100
AcDbEntity
  8
Mesh_cs003
100
AcDbLine
 10
-437.393
 20
376.125
 30
0.0999999
 11
-437.421
 21
376.138
 31
0.0999999
  0
LINE
  5
A6E
330
A02
100
AcDbEntity
  8
Mesh_cs003
100
AcDbLine
 10
-437.421
 20
376.138
 30
0.0999999
 11
-440.732
 21
377.622
 31
0.0999999
  0
LINE
  5
A6F
330
A02
100
AcDbEntity
  8
Mesh_cs003
100
AcDbLine
 10
-440.732
 20
377.622
 30
0.0999999
 11
-440.76
 21
377.635
 31
0.0999999
  0
LINE
  5
A70
330
A02
100
AcDbEntity
  8
Mesh_cs003
100
AcDbLine
 10
-440.76
 20
377.635
 30
0.0999999
 11
-444.085
 21
379.09
 31
0.0999999
  0
LINE
  5
A71
330
A02
100
AcDbEntity
  8
Mesh_cs003
100
AcDbLine
 10
-444.085
 20
379.09
 30
0.0999999
 11
-444.113
 21
379.102
 31
0.0999999
  0
LINE
  5
A72
330
A02
100
AcDbEntity
  8
Mesh_cs003
100
AcDbLine
 10
-444.113
 20
379.102
 30
0.0999999
 11
-447.451
 21
380.528
 31
0.0999999
  0
LINE
  5
A73
330
A02
100
AcDbEntity
  8
Mesh_cs003
100
AcDbLine
 10
-447.451
 20
380.528
 30
0.0999999
 11
-447.479
 21
380.539
 31
0.0999999
  0
LINE
  5
A74
330
A02
100
AcDbEntity
  8
Mesh_cs003
100
AcDbLine
 10
-447.479
 20
380.539
 30
0.0999999
 11
-450.833
 21
381.937
 31
0.0999999
  0
LINE
  5
A75
330
A02
100
AcDbEntity
  8
Mesh_cs003
100
AcDbLine
 10
-450.833
 20
381.937
 30
0.0999999
 11
-450.861
 21
381.949
 31
0.0999999
  0
LINE
  5
A76
330
A02
100
AcDbEntity
  8
Mesh_cs003
100
AcDbLine
 10
-450.861
 20
381.949
 30
0.0999999
 11
-454.227
 21
383.319
 31
0.0999999
  0
LINE
  5
A77
330
A02
100
AcDbEntity
  8
Mesh_cs003
100
AcDbLine
 10
-454.227
 20
383.319
 30
0.0999999
 11
-454.233
 21
383.326
 31
0.1
  0
LINE
  5
A78
330
A02
100
AcDbEntity
  8
Mesh_cs003
100
AcDbLine
 10
-454.233
 20
383.326
 30
0.1
 11
-454.247
 21
383.344
 31
0.1
  0
LINE
  5
A79
330
A02
100
AcDbEntity
  8
Mesh_cs003
100
AcDbLine
 10
-454.247
 20
383.344
 30
0.1
 11
-454.253
 21
383.351
 31
0.1
  0
LINE
  5
A7A
330
A02
100
AcDbEntity
  8
Mesh_cs003
100
AcDbLine
 10
-454.253
 20
383.351
 30
0.1
 11
-454.409
 21
383.551
 31
0.1
  0
LINE
  5
A7B
330
A02
100
AcDbEntity
  8
Mesh_cs003
100
AcDbLine
 10
-454.409
 20
383.551
 30
0.1
 11
-454.575
 21
383.742
 31
0.1
  0
LINE
  5
A7C
330
A02
100
AcDbEntity
  8
Mesh_cs003
100
AcDbLine
 10
-454.575
 20
383.742
 30
0.1
 11
-454.652
 21
383.818
 31
0.1
  0
LINE
  5
A7D
330
A02
100
AcDbEntity
  8
Mesh_cs003
100
AcDbLine
 10
-454.652
 20
383.818
 30
0.1
 11
-454.684
 21
383.849
 31
0.1
  0
LINE
  5
A7E
330
A02
100
AcDbEntity
  8
Mesh_cs003
100
AcDbLine
 10
-454.684
 20
383.849
 30
0.1
 11
-454.907
 21
384.069
 31
0.1
  0
LINE
  5
A7F
330
A02
100
AcDbEntity
  8
Mesh_cs003
100
AcDbLine
 10
-454.907
 20
384.069
 30
0.1
 11
-454.975
 21
384.126
 31
0.1
  0
LINE
  5
A80
330
A02
100
AcDbEntity
  8
Mesh_cs003
100
AcDbLine
 10
-454.975
 20
384.126
 30
0.1
 11
-455.216
 21
384.326
 31
0.1
  0
LINE
  5
A81
330
A02
100
AcDbEntity
  8
Mesh_cs003
100
AcDbLine
 10
-455.216
 20
384.326
 30
0.1
 11
-455.274
 21
384.369
 31
0.1
  0
LINE
  5
A82
330
A02
100
AcDbEntity
  8
Mesh_cs003
100
AcDbLine
 10
-455.274
 20
384.369
 30
0.1
 11
-455.416
 21
384.463
 31
0.1
  0
LINE
  5
A83
330
A02
100
AcDbEntity
  8
Mesh_cs003
100
AcDbLine
 10
-455.416
 20
384.463
 30
0.1
 11
-455.637
 21
384.614
 31
0.1
  0
LINE
  5
A84
330
A02
100
AcDbEntity
  8
Mesh_cs003
100
AcDbLine
 10
-455.637
 20
384.614
 30
0.1
 11
-455.847
 21
384.733
 31
0.1
  0
LINE
  5
A85
330
A02
100
AcDbEntity
  8
Mesh_cs003
100
AcDbLine
 10
-455.847
 20
384.733
 30
0.1
 11
-455.953
 21
384.793
 31
0.1
  0
LINE
  5
A86
330
A02
100
AcDbEntity
  8
Mesh_cs003
100
AcDbLine
 10
-455.953
 20
384.793
 30
0.1
 11
-456.002
 21
384.817
 31
0.1
  0
LINE
  5
A87
330
A02
100
AcDbEntity
  8
Mesh_cs003
100
AcDbLine
 10
-456.002
 20
384.817
 30
0.1
 11
-456.294
 21
384.953
 31
0.1
  0
LINE
  5
A88
330
A02
100
AcDbEntity
  8
Mesh_cs003
100
AcDbLine
 10
-456.294
 20
384.953
 30
0.1
 11
-456.343
 21
384.974
 31
0.1
  0
LINE
  5
A89
330
A02
100
AcDbEntity
  8
Mesh_cs003
100
AcDbLine
 10
-456.343
 20
384.974
 30
0.1
 11
-456.62
 21
385.076
 31
0.1
  0
LINE
  5
A8A
330
A02
100
AcDbEntity
  8
Mesh_cs003
100
AcDbLine
 10
-456.62
 20
385.076
 30
0.1
 11
-456.669
 21
385.093
 31
0.1
  0
LINE
  5
A8B
330
A02
100
AcDbEntity
  8
Mesh_cs003
100
AcDbLine
 10
-456.669
 20
385.093
 30
0.1
 11
-456.698
 21
385.105
 31
0.0999999
  0
LINE
  5
A8C
330
A02
100
AcDbEntity
  8
Mesh_cs003
100
AcDbLine
 10
-456.698
 20
385.105
 30
0.0999999
 11
-456.706
 21
385.108
 31
0.0999999
  0
LINE
  5
A8D
330
A02
100
AcDbEntity
  8
Mesh_cs003
100
AcDbLine
 10
-456.706
 20
385.108
 30
0.0999999
 11
-456.812
 21
385.142
 31
0.0999999
  0
LINE
  5
A8E
330
A02
100
AcDbEntity
  8
Mesh_cs003
100
AcDbLine
 10
-456.812
 20
385.142
 30
0.0999999
 11
-480.23
 21
392.751
 31
0.0999999
  0
LINE
  5
A8F
330
A02
100
AcDbEntity
  8
Mesh_cs003
100
AcDbLine
 10
-480.23
 20
392.751
 30
0.0999999
 11
-480.387
 21
392.802
 31
0.0999999
  0
LINE
  5
A90
330
A02
100
AcDbEntity
  8
Mesh_cs003
100
AcDbLine
 10
-480.387
 20
392.802
 30
0.0999999
 11
-480.336
 21
392.96
 31
0.0999999
  0
LINE
  5
A91
330
A02
100
AcDbEntity
  8
Mesh_cs003
100
AcDbLine
 10
-480.336
 20
392.96
 30
0.0999999
 11
-480.302
 21
393.065
 31
0.0999999
  0
LINE
  5
A92
330
A02
100
AcDbEntity
  8
Mesh_cs003
100
AcDbLine
 10
-480.302
 20
393.065
 30
0.0999999
 11
-480.163
 21
393.494
 31
0.0999999
  0
LINE
  5
A93
330
A02
100
AcDbEntity
  8
Mesh_cs003
100
AcDbLine
 10
-480.163
 20
393.494
 30
0.0999999
 11
-480.064
 21
393.796
 31
0.0999999
  0
LINE
  5
A94
330
A02
100
AcDbEntity
  8
Mesh_cs003
100
AcDbLine
 10
-480.064
 20
393.796
 30
0.0999999
 11
-479.803
 21
394.6
 31
0.0999999
  0
LINE
  5
A95
330
A02
100
AcDbEntity
  8
Mesh_cs003
100
AcDbLine
 10
-479.803
 20
394.6
 30
0.0999999
 11
-420.215
 21
577.995
 31
0.0999999
  0
LINE
  5
A96
330
A02
100
AcDbEntity
  8
Mesh_cs003
100
AcDbLine
 10
-420.215
 20
577.995
 30
0.0999999
 11
-420.18
 21
578.101
 31
0.0999999
  0
LINE
  5
A97
330
A02
100
AcDbEntity
  8
Mesh_cs003
100
AcDbLine
 10
-420.18
 20
578.101
 30
0.0999999
 11
-420.129
 21
578.258
 31
0.0999999
  0
LINE
  5
A98
330
A02
100
AcDbEntity
  8
Mesh_cs003
100
AcDbLine
 10
-420.129
 20
578.258
 30
0.0999999
 11
-420.094
 21
578.247
 31
0.0999999
  0
LINE
  5
A99
330
A02
100
AcDbEntity
  8
Mesh_cs003
100
AcDbLine
 10
-420.094
 20
578.247
 30
0.0999999
 11
-415.911
 21
576.871
 31
0.0999999
  0
LINE
  5
A9A
330
A02
100
AcDbEntity
  8
Mesh_cs003
100
AcDbLine
 10
-415.911
 20
576.871
 30
0.0999999
 11
-415.876
 21
576.859
 31
0.0999999
  0
LINE
  5
A9B
330
A02
100
AcDbEntity
  8
Mesh_cs003
100
AcDbLine
 10
-415.876
 20
576.859
 30
0.0999999
 11
-411.701
 21
575.451
 31
0.0999999
  0
LINE
  5
A9C
330
A02
100
AcDbEntity
  8
Mesh_cs003
100
AcDbLine
 10
-411.701
 20
575.451
 30
0.0999999
 11
-411.637
 21
575.429
 31
0.0999999
  0
LINE
  5
A9D
330
A02
100
AcDbEntity
  8
Mesh_cs003
100
AcDbLine
 10
-411.637
 20
575.429
 30
0.0999999
 11
-407.487
 21
573.997
 31
0.0999999
  0
LINE
  5
A9E
330
A02
100
AcDbEntity
  8
Mesh_cs003
100
AcDbLine
 10
-407.487
 20
573.997
 30
0.0999999
 11
-403.347
 21
572.534
 31
0.0999999
  0
LINE
  5
A9F
330
A02
100
AcDbEntity
  8
Mesh_cs003
100
AcDbLine
 10
-403.347
 20
572.534
 30
0.0999999
 11
-403.301
 21
572.517
 31
0.0999999
  0
LINE
  5
AA0
330
A02
100
AcDbEntity
  8
Mesh_cs003
100
AcDbLine
 10
-403.301
 20
572.517
 30
0.0999999
 11
-399.172
 21
571.024
 31
0.0999999
  0
LINE
  5
AA1
330
A02
100
AcDbEntity
  8
Mesh_cs003
100
AcDbLine
 10
-399.172
 20
571.024
 30
0.0999999
 11
-399.143
 21
571.013
 31
0.0999999
  0
LINE
  5
AA2
330
A02
100
AcDbEntity
  8
Mesh_cs003
100
AcDbLine
 10
-399.143
 20
571.013
 30
0.0999999
 11
-399.114
 21
571.002
 31
0.0999999
  0
LINE
  5
AA3
330
A02
100
AcDbEntity
  8
Mesh_cs003
100
AcDbLine
 10
-399.114
 20
571.002
 30
0.0999999
 11
-394.996
 21
569.479
 31
0.0999999
  0
LINE
  5
AA4
330
A02
100
AcDbEntity
  8
Mesh_cs003
100
AcDbLine
 10
-394.996
 20
569.479
 30
0.0999999
 11
-390.89
 21
567.926
 31
0.0999999
  0
LINE
  5
AA5
330
A02
100
AcDbEntity
  8
Mesh_cs003
100
AcDbLine
 10
-390.89
 20
567.926
 30
0.0999999
 11
-390.839
 21
567.907
 31
0.0999999
  0
LINE
  5
AA6
330
A02
100
AcDbEntity
  8
Mesh_cs003
100
AcDbLine
 10
-390.839
 20
567.907
 30
0.0999999
 11
-390.804
 21
567.893
 31
0.0999999
  0
LINE
  5
AA7
330
A02
100
AcDbEntity
  8
Mesh_cs003
100
AcDbLine
 10
-390.804
 20
567.893
 30
0.0999999
 11
-386.698
 21
566.306
 31
0.0999999
  0
LINE
  5
AA8
330
A02
100
AcDbEntity
  8
Mesh_cs003
100
AcDbLine
 10
-386.698
 20
566.306
 30
0.0999999
 11
-386.663
 21
566.292
 31
0.0999999
  0
LINE
  5
AA9
330
A02
100
AcDbEntity
  8
Mesh_cs003
100
AcDbLine
 10
-386.663
 20
566.292
 30
0.0999999
 11
-382.569
 21
564.675
 31
0.0999999
  0
LINE
  5
AAA
330
A02
100
AcDbEntity
  8
Mesh_cs003
100
AcDbLine
 10
-382.569
 20
564.675
 30
0.0999999
 11
-382.534
 21
564.661
 31
0.0999999
  0
LINE
  5
AAB
330
A02
100
AcDbEntity
  8
Mesh_cs003
100
AcDbLine
 10
-382.534
 20
564.661
 30
0.0999999
 11
-378.452
 21
563.013
 31
0.0999999
  0
LINE
  5
AAC
330
A02
100
AcDbEntity
  8
Mesh_cs003
100
AcDbLine
 10
-378.452
 20
563.013
 30
0.0999999
 11
-378.417
 21
562.999
 31
0.0999999
  0
LINE
  5
AAD
330
A02
100
AcDbEntity
  8
Mesh_cs003
100
AcDbLine
 10
-378.417
 20
562.999
 30
0.0999999
 11
-374.347
 21
561.322
 31
0.0999999
  0
LINE
  5
AAE
330
A02
100
AcDbEntity
  8
Mesh_cs003
100
AcDbLine
 10
-374.347
 20
561.322
 30
0.0999999
 11
-374.313
 21
561.308
 31
0.0999999
  0
LINE
  5
AAF
330
A02
100
AcDbEntity
  8
Mesh_cs003
100
AcDbLine
 10
-374.313
 20
561.308
 30
0.0999999
 11
-370.254
 21
559.601
 31
0.0999999
  0
LINE
  5
AB0
330
A02
100
AcDbEntity
  8
Mesh_cs003
100
AcDbLine
 10
-370.254
 20
559.601
 30
0.0999999
 11
-370.22
 21
559.586
 31
0.0999999
  0
LINE
  5
AB1
330
A02
100
AcDbEntity
  8
Mesh_cs003
100
AcDbLine
 10
-370.22
 20
559.586
 30
0.0999999
 11
-366.175
 21
557.85
 31
0.0999999
  0
LINE
  5
AB2
330
A02
100
AcDbEntity
  8
Mesh_cs003
100
AcDbLine
 10
-366.175
 20
557.85
 30
0.0999999
 11
-366.141
 21
557.835
 31
0.0999999
  0
LINE
  5
AB3
330
A02
100
AcDbEntity
  8
Mesh_cs003
100
AcDbLine
 10
-366.141
 20
557.835
 30
0.0999999
 11
-362.108
 21
556.069
 31
0.0999999
  0
LINE
  5
AB4
330
A02
100
AcDbEntity
  8
Mesh_cs003
100
AcDbLine
 10
-362.108
 20
556.069
 30
0.0999999
 11
-362.074
 21
556.054
 31
0.0999999
  0
LINE
  5
AB5
330
A02
100
AcDbEntity
  8
Mesh_cs003
100
AcDbLine
 10
-362.074
 20
556.054
 30
0.0999999
 11
-358.055
 21
554.259
 31
0.0999999
  0
LINE
  5
AB6
330
A02
100
AcDbEntity
  8
Mesh_cs003
100
AcDbLine
 10
-358.055
 20
554.259
 30
0.0999999
 11
-358.021
 21
554.244
 31
0.0999999
  0
LINE
  5
AB7
330
A02
100
AcDbEntity
  8
Mesh_cs003
100
AcDbLine
 10
-358.021
 20
554.244
 30
0.0999999
 11
-354.015
 21
552.419
 31
0.0999999
  0
LINE
  5
AB8
330
A02
100
AcDbEntity
  8
Mesh_cs003
100
AcDbLine
 10
-354.015
 20
552.419
 30
0.0999999
 11
-353.981
 21
552.404
 31
0.0999999
  0
LINE
  5
AB9
330
A02
100
AcDbEntity
  8
Mesh_cs003
100
AcDbLine
 10
-353.981
 20
552.404
 30
0.0999999
 11
-349.988
 21
550.55
 31
0.0999999
  0
LINE
  5
ABA
330
A02
100
AcDbEntity
  8
Mesh_cs003
100
AcDbLine
 10
-349.988
 20
550.55
 30
0.0999999
 11
-349.955
 21
550.534
 31
0.0999999
  0
LINE
  5
ABB
330
A02
100
AcDbEntity
  8
Mesh_cs003
100
AcDbLine
 10
-349.955
 20
550.534
 30
0.0999999
 11
-345.975
 21
548.652
 31
0.0999999
  0
LINE
  5
ABC
330
A02
100
AcDbEntity
  8
Mesh_cs003
100
AcDbLine
 10
-345.975
 20
548.652
 30
0.0999999
 11
-345.942
 21
548.636
 31
0.0999999
  0
LINE
  5
ABD
330
A02
100
AcDbEntity
  8
Mesh_cs003
100
AcDbLine
 10
-345.942
 20
548.636
 30
0.0999999
 11
-341.977
 21
546.724
 31
0.0999999
  0
LINE
  5
ABE
330
A02
100
AcDbEntity
  8
Mesh_cs003
100
AcDbLine
 10
-341.977
 20
546.724
 30
0.0999999
 11
-341.944
 21
546.708
 31
0.0999999
  0
LINE
  5
ABF
330
A02
100
AcDbEntity
  8
Mesh_cs003
100
AcDbLine
 10
-341.944
 20
546.708
 30
0.0999999
 11
-337.992
 21
544.767
 31
0.0999999
  0
LINE
  5
AC0
330
A02
100
AcDbEntity
  8
Mesh_cs003
100
AcDbLine
 10
-337.992
 20
544.767
 30
0.0999999
 11
-337.959
 21
544.751
 31
0.0999999
  0
LINE
  5
AC1
330
A02
100
AcDbEntity
  8
Mesh_cs003
100
AcDbLine
 10
-337.959
 20
544.751
 30
0.0999999
 11
-334.022
 21
542.781
 31
0.0999999
  0
LINE
  5
AC2
330
A02
100
AcDbEntity
  8
Mesh_cs003
100
AcDbLine
 10
-334.022
 20
542.781
 30
0.0999999
 11
-333.989
 21
542.764
 31
0.0999999
  0
LINE
  5
AC3
330
A02
100
AcDbEntity
  8
Mesh_cs003
100
AcDbLine
 10
-333.989
 20
542.764
 30
0.0999999
 11
-330.067
 21
540.766
 31
0.0999999
  0
LINE
  5
AC4
330
A02
100
AcDbEntity
  8
Mesh_cs003
100
AcDbLine
 10
-330.067
 20
540.766
 30
0.0999999
 11
-330.034
 21
540.749
 31
0.0999999
  0
LINE
  5
AC5
330
A02
100
AcDbEntity
  8
Mesh_cs003
100
AcDbLine
 10
-330.034
 20
540.749
 30
0.0999999
 11
-326.127
 21
538.723
 31
0.0999999
  0
LINE
  5
AC6
330
A02
100
AcDbEntity
  8
Mesh_cs003
100
AcDbLine
 10
-326.127
 20
538.723
 30
0.0999999
 11
-326.094
 21
538.706
 31
0.0999999
  0
LINE
  5
AC7
330
A02
100
AcDbEntity
  8
Mesh_cs003
100
AcDbLine
 10
-326.094
 20
538.706
 30
0.0999999
 11
-322.201
 21
536.65
 31
0.0999999
  0
LINE
  5
AC8
330
A02
100
AcDbEntity
  8
Mesh_cs003
100
AcDbLine
 10
-322.201
 20
536.65
 30
0.0999999
 11
-322.169
 21
536.633
 31
0.0999999
  0
LINE
  5
AC9
330
A02
100
AcDbEntity
  8
Mesh_cs003
100
AcDbLine
 10
-322.169
 20
536.633
 30
0.0999999
 11
-318.291
 21
534.55
 31
0.0999999
  0
LINE
  5
ACA
330
A02
100
AcDbEntity
  8
Mesh_cs003
100
AcDbLine
 10
-318.291
 20
534.55
 30
0.0999999
 11
-318.259
 21
534.532
 31
0.0999999
  0
LINE
  5
ACB
330
A02
100
AcDbEntity
  8
Mesh_cs003
100
AcDbLine
 10
-318.259
 20
534.532
 30
0.0999999
 11
-314.396
 21
532.42
 31
0.0999999
  0
LINE
  5
ACC
330
A02
100
AcDbEntity
  8
Mesh_cs003
100
AcDbLine
 10
-314.396
 20
532.42
 30
0.0999999
 11
-314.364
 21
532.402
 31
0.0999999
  0
LINE
  5
ACD
330
A02
100
AcDbEntity
  8
Mesh_cs003
100
AcDbLine
 10
-314.364
 20
532.402
 30
0.0999999
 11
-310.518
 21
530.263
 31
0.0999999
  0
LINE
  5
ACE
330
A02
100
AcDbEntity
  8
Mesh_cs003
100
AcDbLine
 10
-310.518
 20
530.263
 30
0.0999999
 11
-310.485
 21
530.245
 31
0.0999999
  0
LINE
  5
ACF
330
A02
100
AcDbEntity
  8
Mesh_cs003
100
AcDbLine
 10
-310.485
 20
530.245
 30
0.0999999
 11
-306.655
 21
528.077
 31
0.0999999
  0
LINE
  5
AD0
330
A02
100
AcDbEntity
  8
Mesh_cs003
100
AcDbLine
 10
-306.655
 20
528.077
 30
0.0999999
 11
-306.622
 21
528.058
 31
0.0999999
  0
LINE
  5
AD1
330
A02
100
AcDbEntity
  8
Mesh_cs003
100
AcDbLine
 10
-306.622
 20
528.058
 30
0.0999999
 11
-302.808
 21
525.863
 31
0.0999999
  0
LINE
  5
AD2
330
A02
100
AcDbEntity
  8
Mesh_cs003
100
AcDbLine
 10
-302.808
 20
525.863
 30
0.0999999
 11
-302.776
 21
525.844
 31
0.0999999
  0
LINE
  5
AD3
330
A02
100
AcDbEntity
  8
Mesh_cs003
100
AcDbLine
 10
-302.776
 20
525.844
 30
0.0999999
 11
-298.977
 21
523.621
 31
0.0999999
  0
LINE
  5
AD4
330
A02
100
AcDbEntity
  8
Mesh_cs003
100
AcDbLine
 10
-298.977
 20
523.621
 30
0.0999999
 11
-298.945
 21
523.602
 31
0.0999999
  0
LINE
  5
AD5
330
A02
100
AcDbEntity
  8
Mesh_cs003
100
AcDbLine
 10
-298.945
 20
523.602
 30
0.0999999
 11
-294.744
 21
521.099
 31
0.0999999
  0
LINE
  5
AD6
330
A02
100
AcDbEntity
  8
Mesh_cs003
100
AcDbLine
 10
-294.744
 20
521.099
 30
0.0999999
 11
-294.712
 21
521.08
 31
0.0999999
  0
LINE
  5
AD7
330
A02
100
AcDbEntity
  8
Mesh_cs003
100
AcDbLine
 10
-294.712
 20
521.08
 30
0.0999999
 11
-290.531
 21
518.543
 31
0.0999999
  0
LINE
  5
AD8
330
A02
100
AcDbEntity
  8
Mesh_cs003
100
AcDbLine
 10
-290.531
 20
518.543
 30
0.0999999
 11
-290.5
 21
518.524
 31
0.0999999
  0
LINE
  5
AD9
330
A02
100
AcDbEntity
  8
Mesh_cs003
100
AcDbLine
 10
-290.5
 20
518.524
 30
0.0999999
 11
-286.339
 21
515.953
 31
0.0999999
  0
LINE
  5
ADA
330
A02
100
AcDbEntity
  8
Mesh_cs003
100
AcDbLine
 10
-286.339
 20
515.953
 30
0.0999999
 11
-286.305
 21
515.932
 31
0.0999999
  0
LINE
  5
ADB
330
A02
100
AcDbEntity
  8
Mesh_cs003
100
AcDbLine
 10
-286.305
 20
515.932
 30
0.0999999
 11
-282.165
 21
513.327
 31
0.0999999
  0
LINE
  5
ADC
330
A02
100
AcDbEntity
  8
Mesh_cs003
100
AcDbLine
 10
-282.165
 20
513.327
 30
0.0999999
 11
-282.131
 21
513.306
 31
0.0999999
  0
LINE
  5
ADD
330
A02
100
AcDbEntity
  8
Mesh_cs003
100
AcDbLine
 10
-282.131
 20
513.306
 30
0.0999999
 11
-278.013
 21
510.668
 31
0.0999999
  0
LINE
  5
ADE
330
A02
100
AcDbEntity
  8
Mesh_cs003
100
AcDbLine
 10
-278.013
 20
510.668
 30
0.0999999
 11
-277.978
 21
510.646
 31
0.0999999
  0
LINE
  5
ADF
330
A02
100
AcDbEntity
  8
Mesh_cs003
100
AcDbLine
 10
-277.978
 20
510.646
 30
0.0999999
 11
-273.882
 21
507.975
 31
0.0999999
  0
LINE
  5
AE0
330
A02
100
AcDbEntity
  8
Mesh_cs003
100
AcDbLine
 10
-273.882
 20
507.975
 30
0.0999999
 11
-273.848
 21
507.952
 31
0.0999999
  0
LINE
  5
AE1
330
A02
100
AcDbEntity
  8
Mesh_cs003
100
AcDbLine
 10
-273.848
 20
507.952
 30
0.0999999
 11
-269.774
 21
505.248
 31
0.0999999
  0
LINE
  5
AE2
330
A02
100
AcDbEntity
  8
Mesh_cs003
100
AcDbLine
 10
-269.774
 20
505.248
 30
0.0999999
 11
-269.739
 21
505.225
 31
0.0999999
  0
LINE
  5
AE3
330
A02
100
AcDbEntity
  8
Mesh_cs003
100
AcDbLine
 10
-269.739
 20
505.225
 30
0.0999999
 11
-265.687
 21
502.488
 31
0.0999999
  0
LINE
  5
AE4
330
A02
100
AcDbEntity
  8
Mesh_cs003
100
AcDbLine
 10
-265.687
 20
502.488
 30
0.0999999
 11
-265.653
 21
502.465
 31
0.0999999
  0
LINE
  5
AE5
330
A02
100
AcDbEntity
  8
Mesh_cs003
100
AcDbLine
 10
-265.653
 20
502.465
 30
0.0999999
 11
-261.623
 21
499.696
 31
0.0999999
  0
LINE
  5
AE6
330
A02
100
AcDbEntity
  8
Mesh_cs003
100
AcDbLine
 10
-261.623
 20
499.696
 30
0.0999999
 11
-261.59
 21
499.672
 31
0.0999999
  0
LINE
  5
AE7
330
A02
100
AcDbEntity
  8
Mesh_cs003
100
AcDbLine
 10
-261.59
 20
499.672
 30
0.0999999
 11
-257.582
 21
496.87
 31
0.0999999
  0
LINE
  5
AE8
330
A02
100
AcDbEntity
  8
Mesh_cs003
100
AcDbLine
 10
-257.582
 20
496.87
 30
0.0999999
 11
-257.549
 21
496.847
 31
0.0999999
  0
LINE
  5
AE9
330
A02
100
AcDbEntity
  8
Mesh_cs003
100
AcDbLine
 10
-257.549
 20
496.847
 30
0.0999999
 11
-253.565
 21
494.012
 31
0.0999999
  0
LINE
  5
AEA
330
A02
100
AcDbEntity
  8
Mesh_cs003
100
AcDbLine
 10
-253.565
 20
494.012
 30
0.0999999
 11
-253.531
 21
493.988
 31
0.0999999
  0
LINE
  5
AEB
330
A02
100
AcDbEntity
  8
Mesh_cs003
100
AcDbLine
 10
-253.531
 20
493.988
 30
0.0999999
 11
-249.57
 21
491.121
 31
0.0999999
  0
LINE
  5
AEC
330
A02
100
AcDbEntity
  8
Mesh_cs003
100
AcDbLine
 10
-249.57
 20
491.121
 30
0.0999999
 11
-249.537
 21
491.097
 31
0.0999999
  0
LINE
  5
AED
330
A02
100
AcDbEntity
  8
Mesh_cs003
100
AcDbLine
 10
-249.537
 20
491.097
 30
0.0999999
 11
-245.599
 21
488.199
 31
0.0999999
  0
LINE
  5
AEE
330
A02
100
AcDbEntity
  8
Mesh_cs003
100
AcDbLine
 10
-245.599
 20
488.199
 30
0.0999999
 11
-245.566
 21
488.174
 31
0.0999999
  0
LINE
  5
AEF
330
A02
100
AcDbEntity
  8
Mesh_cs003
100
AcDbLine
 10
-245.566
 20
488.174
 30
0.0999999
 11
-241.652
 21
485.244
 31
0.0999999
  0
LINE
  5
AF0
330
A02
100
AcDbEntity
  8
Mesh_cs003
100
AcDbLine
 10
-241.652
 20
485.244
 30
0.0999999
 11
-241.62
 21
485.219
 31
0.0999999
  0
LINE
  5
AF1
330
A02
100
AcDbEntity
  8
Mesh_cs003
100
AcDbLine
 10
-241.62
 20
485.219
 30
0.0999999
 11
-237.73
 21
482.257
 31
0.0999999
  0
LINE
  5
AF2
330
A02
100
AcDbEntity
  8
Mesh_cs003
100
AcDbLine
 10
-237.73
 20
482.257
 30
0.0999999
 11
-237.697
 21
482.232
 31
0.0999999
  0
LINE
  5
AF3
330
A02
100
AcDbEntity
  8
Mesh_cs003
100
AcDbLine
 10
-237.697
 20
482.232
 30
0.0999999
 11
-233.831
 21
479.238
 31
0.0999999
  0
LINE
  5
AF4
330
A02
100
AcDbEntity
  8
Mesh_cs003
100
AcDbLine
 10
-233.831
 20
479.238
 30
0.0999999
 11
-233.799
 21
479.213
 31
0.0999999
  0
LINE
  5
AF5
330
A02
100
AcDbEntity
  8
Mesh_cs003
100
AcDbLine
 10
-233.799
 20
479.213
 30
0.0999999
 11
-229.958
 21
476.189
 31
0.0999999
  0
LINE
  5
AF6
330
A02
100
AcDbEntity
  8
Mesh_cs003
100
AcDbLine
 10
-229.958
 20
476.189
 30
0.0999999
 11
-229.925
 21
476.163
 31
0.0999999
  0
LINE
  5
AF7
330
A02
100
AcDbEntity
  8
Mesh_cs003
100
AcDbLine
 10
-229.925
 20
476.163
 30
0.0999999
 11
-226.109
 21
473.107
 31
0.0999999
  0
LINE
  5
AF8
330
A02
100
AcDbEntity
  8
Mesh_cs003
100
AcDbLine
 10
-226.109
 20
473.107
 30
0.0999999
 11
-226.077
 21
473.082
 31
0.0999999
  0
LINE
  5
AF9
330
A02
100
AcDbEntity
  8
Mesh_cs003
100
AcDbLine
 10
-226.077
 20
473.082
 30
0.0999999
 11
-222.285
 21
469.995
 31
0.0999999
  0
LINE
  5
AFA
330
A02
100
AcDbEntity
  8
Mesh_cs003
100
AcDbLine
 10
-222.285
 20
469.995
 30
0.0999999
 11
-222.254
 21
469.969
 31
0.0999999
  0
LINE
  5
AFB
330
A02
100
AcDbEntity
  8
Mesh_cs003
100
AcDbLine
 10
-222.254
 20
469.969
 30
0.0999999
 11
-218.487
 21
466.852
 31
0.0999999
  0
LINE
  5
AFC
330
A02
100
AcDbEntity
  8
Mesh_cs003
100
AcDbLine
 10
-218.487
 20
466.852
 30
0.0999999
 11
-218.456
 21
466.826
 31
0.0999999
  0
LINE
  5
AFD
330
A02
100
AcDbEntity
  8
Mesh_cs003
100
AcDbLine
 10
-218.456
 20
466.826
 30
0.0999999
 11
-214.715
 21
463.678
 31
0.0999999
  0
LINE
  5
AFE
330
A02
100
AcDbEntity
  8
Mesh_cs003
100
AcDbLine
 10
-214.715
 20
463.678
 30
0.0999999
 11
-214.683
 21
463.652
 31
0.0999999
  0
LINE
  5
AFF
330
A02
100
AcDbEntity
  8
Mesh_cs003
100
AcDbLine
 10
-214.683
 20
463.652
 30
0.0999999
 11
-210.968
 21
460.474
 31
0.0999999
  0
LINE
  5
B00
330
A02
100
AcDbEntity
  8
Mesh_cs003
100
AcDbLine
 10
-210.968
 20
460.474
 30
0.0999999
 11
-210.937
 21
460.448
 31
0.0999999
  0
LINE
  5
B01
330
A02
100
AcDbEntity
  8
Mesh_cs003
100
AcDbLine
 10
-210.937
 20
460.448
 30
0.0999999
 11
-207.248
 21
457.24
 31
0.0999999
  0
LINE
  5
B02
330
A02
100
AcDbEntity
  8
Mesh_cs003
100
AcDbLine
 10
-207.248
 20
457.24
 30
0.0999999
 11
-207.217
 21
457.213
 31
0.0999999
  0
LINE
  5
B03
330
A02
100
AcDbEntity
  8
Mesh_cs003
100
AcDbLine
 10
-207.217
 20
457.213
 30
0.0999999
 11
-203.554
 21
453.976
 31
0.0999999
  0
LINE
  5
B04
330
A02
100
AcDbEntity
  8
Mesh_cs003
100
AcDbLine
 10
-203.554
 20
453.976
 30
0.0999999
 11
-203.523
 21
453.948
 31
0.0999999
  0
LINE
  5
B05
330
A02
100
AcDbEntity
  8
Mesh_cs003
100
AcDbLine
 10
-203.523
 20
453.948
 30
0.0999999
 11
-199.886
 21
450.682
 31
0.0999999
  0
LINE
  5
B06
330
A02
100
AcDbEntity
  8
Mesh_cs003
100
AcDbLine
 10
-199.886
 20
450.682
 30
0.0999999
 11
-199.856
 21
450.654
 31
0.0999999
  0
LINE
  5
B07
330
A02
100
AcDbEntity
  8
Mesh_cs003
100
AcDbLine
 10
-199.856
 20
450.654
 30
0.0999999
 11
-197.436
 21
448.451
 31
0.0999999
  0
LINE
  5
B08
330
A02
100
AcDbEntity
  8
Mesh_cs003
100
AcDbLine
 10
-197.436
 20
448.451
 30
0.0999999
 11
-197.406
 21
448.423
 31
0.0999999
  0
LINE
  5
B09
330
A02
100
AcDbEntity
  8
Mesh_cs003
100
AcDbLine
 10
-197.406
 20
448.423
 30
0.0999999
 11
-195
 21
446.208
 31
0.0999999
  0
LINE
  5
B0A
330
A02
100
AcDbEntity
  8
Mesh_cs003
100
AcDbLine
 10
-195
 20
446.208
 30
0.0999999
 11
-195
 21
445.142
 31
0.0999999
  0
LINE
  5
B0B
330
A02
100
AcDbEntity
  8
Mesh_cs003
100
AcDbLine
 10
-195
 20
445.142
 30
0.0999999
 11
-195
 21
300.337
 31
0.0999999
  0
LINE
  5
B0C
330
A02
100
AcDbEntity
  8
Mesh_cs003
100
AcDbLine
 10
-195
 20
300.337
 30
0.0999999
 11
-195
 21
300.074
 31
0.0999999
  0
LINE
  5
B0D
330
A02
100
AcDbEntity
  8
Mesh_cs003
100
AcDbLine
 10
-195
 20
300.074
 30
0.0999999
 11
-195.129
 21
299.981
 31
0.0999999
  0
LINE
  5
B0E
330
A02
100
AcDbEntity
  8
Mesh_cs003
100
AcDbLine
 10
-195.129
 20
299.981
 30
0.0999999
 11
-195.653
 21
299.6
 31
0.0999999
  0
LINE
  5
B0F
330
A02
100
AcDbEntity
  8
Mesh_cs003
100
AcDbLine
 10
-195.653
 20
299.6
 30
0.0999999
 11
-273.655
 21
242.928
 31
0.0999999
  0
LINE
  5
B10
330
A02
100
AcDbEntity
  8
Mesh_cs003
100
AcDbLine
 10
-273.655
 20
242.928
 30
0.0999999
 11
-273.745
 21
242.862
 31
0.0999999
  0
LINE
  5
B11
330
A02
100
AcDbEntity
  8
Mesh_cs003
100
AcDbLine
 10
-273.745
 20
242.862
 30
0.0999999
 11
-273.879
 21
242.765
 31
0.0999999
  0
LINE
  5
B12
330
A02
100
AcDbEntity
  8
Mesh_cs003
100
AcDbLine
 10
-273.879
 20
242.765
 30
0.0999999
 11
-273.976
 21
242.899
 31
0.0999999
  0
LINE
  5
B13
330
A02
100
AcDbEntity
  8
Mesh_cs003
100
AcDbLine
 10
-273.976
 20
242.899
 30
0.0999999
 11
-288.45
 21
262.82
 31
0.0999999
  0
LINE
  5
B14
330
A02
100
AcDbEntity
  8
Mesh_cs003
100
AcDbLine
 10
-288.45
 20
262.82
 30
0.0999999
 11
-288.515
 21
262.91
 31
0.0999999
  0
LINE
  5
B15
330
A02
100
AcDbEntity
  8
Mesh_cs003
100
AcDbLine
 10
-288.515
 20
262.91
 30
0.0999999
 11
-288.54
 21
262.94
 31
0.1
  0
LINE
  5
B16
330
A02
100
AcDbEntity
  8
Mesh_cs003
100
AcDbLine
 10
-288.54
 20
262.94
 30
0.1
 11
-288.571
 21
262.982
 31
0.1
  0
LINE
  5
B17
330
A02
100
AcDbEntity
  8
Mesh_cs003
100
AcDbLine
 10
-288.571
 20
262.982
 30
0.1
 11
-288.755
 21
263.214
 31
0.1
  0
LINE
  5
B18
330
A02
100
AcDbEntity
  8
Mesh_cs003
100
AcDbLine
 10
-288.755
 20
263.214
 30
0.1
 11
-288.791
 21
263.255
 31
0.1
  0
LINE
  5
B19
330
A02
100
AcDbEntity
  8
Mesh_cs003
100
AcDbLine
 10
-288.791
 20
263.255
 30
0.1
 11
-289.014
 21
263.494
 31
0.1
  0
LINE
  5
B1A
330
A02
100
AcDbEntity
  8
Mesh_cs003
100
AcDbLine
 10
-289.014
 20
263.494
 30
0.1
 11
-289.052
 21
263.533
 31
0.1
  0
LINE
  5
B1B
330
A02
100
AcDbEntity
  8
Mesh_cs003
100
AcDbLine
 10
-289.052
 20
263.533
 30
0.1
 11
-289.142
 21
263.616
 31
0.1
  0
LINE
  5
B1C
330
A02
100
AcDbEntity
  8
Mesh_cs003
100
AcDbLine
 10
-289.142
 20
263.616
 30
0.1
 11
-289.32
 21
263.779
 31
0.1
  0
LINE
  5
B1D
330
A02
100
AcDbEntity
  8
Mesh_cs003
100
AcDbLine
 10
-289.32
 20
263.779
 30
0.1
 11
-289.511
 21
263.927
 31
0.1
  0
LINE
  5
B1E
330
A02
100
AcDbEntity
  8
Mesh_cs003
100
AcDbLine
 10
-289.511
 20
263.927
 30
0.1
 11
-289.638
 21
264.027
 31
0.1
  0
LINE
  5
B1F
330
A02
100
AcDbEntity
  8
Mesh_cs003
100
AcDbLine
 10
-289.638
 20
264.027
 30
0.1
 11
-289.695
 21
264.068
 31
0.1
  0
LINE
  5
B20
330
A02
100
AcDbEntity
  8
Mesh_cs003
100
AcDbLine
 10
-289.695
 20
264.068
 30
0.1
 11
-289.958
 21
264.238
 31
0.1
  0
LINE
  5
B21
330
A02
100
AcDbEntity
  8
Mesh_cs003
100
AcDbLine
 10
-289.958
 20
264.238
 30
0.1
 11
-290.029
 21
264.283
 31
0.1
  0
LINE
  5
B22
330
A02
100
AcDbEntity
  8
Mesh_cs003
100
AcDbLine
 10
-290.029
 20
264.283
 30
0.1
 11
-290.306
 21
264.428
 31
0.1
  0
LINE
  5
B23
330
A02
100
AcDbEntity
  8
Mesh_cs003
100
AcDbLine
 10
-290.306
 20
264.428
 30
0.1
 11
-290.345
 21
264.449
 31
0.1
  0
LINE
  5
B24
330
A02
100
AcDbEntity
  8
Mesh_cs003
100
AcDbLine
 10
-290.345
 20
264.449
 30
0.1
 11
-290.424
 21
264.491
 31
0.1
  0
LINE
  5
B25
330
A02
100
AcDbEntity
  8
Mesh_cs003
100
AcDbLine
 10
-290.424
 20
264.491
 30
0.1
 11
-290.442
 21
264.5
 31
0.1
  0
ENDSEC
  0
SECTION
  2
OBJECTS
  0
DICTIONARY
  5
F000
330
0
100
AcDbDictionary
  3
ACAD_GROUP
350
F001
  0
DICTIONARY
  5
F001
330
F000
100
AcDbDictionary
  0
ENDSEC
  0
EOF