999
FreeCAD v0.21 33771 (Git)
  0
SECTION
  2
HEADER
  9
$ACADVER
  1
AC1014
  9
$ACADMAINTVER
 70
     9
  9
$DWGCODEPAGE
  3
ANSI_1252
  9
$TEXTSTYLE
  7
STANDARD
  9
$DIMSTYLE
  2
STANDARD
  9
$DIMTXSTY
  7
STANDARD
  9
$CMLSTYLE
  2
STANDARD
  9
$LUNITS
 70
2
  9
$INSUNITS
 70
4
  9
$PEXTMAX
 10
50
 20
50
 30
50
  9
$PEXTMIN
 10
0
 20
0
 30
0
  9
$HANDSEED
  5
FFFF
  0
ENDSEC
  0
SECTION
  2
CLASSES
  0
CLASS
  1
ACDBDICTIONARYWDFLT
  2
AcDbDictionaryWithDefault
  3
ObjectDBX Classes
 90
        0
280
     0
281
     0
  0
CLASS
  1
XRECORD
  2
AcDbXrecord
  3
ObjectDBX Classes
 90
        0
280
     0
281
     0
  0
CLASS
  1
LWPOLYLINE
  2
AcDbPolyline
  3
ObjectDBX Classes
 90
        0
280
     0
281
     1
  0
ENDSEC
  0
SECTION
  2
TABLES
  0
TABLE
  2
VPORT
  5
20
330
0
100
AcDbSymbolTable
 70
     1
  0
VPORT
  5
21
330
20
100
AcDbSymbolTableRecord
100
AcDbViewportTableRecord
  2
*ACTIVE
 70
     0
  0
ENDTAB
  0
TABLE
  2
LTYPE
  5
22
330
0
100
AcDbSymbolTable
 70
     1
  0
LTYPE
  5
23
330
21
100
AcDbSymbolTableRecord
100
AcDbLinetypeTableRecord
  2
BYBLOCK
 70
     0
  3

 72
    65
 73
     0
 40
0.0
  0
LTYPE
  5
24
330
21
100
AcDbSymbolTableRecord
100
AcDbLinetypeTableRecord
  2
BYLAYER
 70
     0
  3

 72
    65
 73
     0
 40
0.0
  0
LTYPE
  5
25
330
21
100
AcDbSymbolTableRecord
100
AcDbLinetypeTableRecord
  2
CONTINUOUS
 70
     0
  3
Solid line
 72
    65
 73
     0
 40
0.0
  0
ENDTAB
  0
TABLE
  2
LAYER
  5
CA9
330
0
100
AcDbSymbolTable
 70
3
  0
LAYER
  5
CAA
330
CA9
100
AcDbSymbolTableRecord
100
AcDbLayerTableRecord
  2
0
 70
   0
 62
   7
  6
CONTINUOUS
  0
LAYER
  5
CAB
330
CA9
100
AcDbSymbolTableRecord
100
AcDbLayerTableRecord
  2
none
 70
    0
 62
    7
  6
CONTINUOUS
  0
LAYER
  5
CAC
330
CA9
100
AcDbSymbolTableRecord
100
AcDbLayerTableRecord
  2
Mesh_cs002
 70
    0
 62
    7
  6
CONTINUOUS
  0
ENDTAB
  0
TABLE
  2
STYLE
  5
70
330
0
100
AcDbSymbolTable
 70
     2
  0
STYLE
  5
71
330
70
100
AcDbSymbolTableRecord
100
AcDbTextStyleTableRecord
  2
STANDARD
 70
     0
 40
0.0
 41
1.0
 50
0.0
 71
     0
 42
2.5
  3
arial.ttf
  4

  0
STYLE
  5
72
330
70
100
AcDbSymbolTableRecord
100
AcDbTextStyleTableRecord
  2
ANNOTATIVE
 70
     0
 40
0.0
 41
1.0
 50
0.0
 71
     0
 42
2.5
  3
arial.ttf
  4

  0
ENDTAB
  0
TABLE
  2
VIEW
  5
73
330
0
100
AcDbSymbolTable
 70
     0
  0
ENDTAB
  0
TABLE
  2
UCS
  5
74
330
0
100
AcDbSymbolTable
 70
     0
  0
ENDTAB
  0
TABLE
  2
APPID
  5
75
330
0
100
AcDbSymbolTable
 70
     2
  0
APPID
  5
76
330
75
100
AcDbSymbolTableRecord
100
AcDbRegAppTableRecord
  2
ACAD
 70
     0
  0
APPID
  5
77
330
75
100
AcDbSymbolTableRecord
100
AcDbRegAppTableRecord
  2
ACADANNOTATIVE
 70
     0
  0
ENDTAB
  0
TABLE
  2
DIMSTYLE
  5
78
330
0
100
AcDbSymbolTable
 70
     2
  0
DIMSTYLE
105
79
330
78
100
AcDbSymbolTableRecord
100
AcDbDimStyleTableRecord
  2
STANDARD
 70
     0
  3

  4

  5

  6

  7

 40
0.0
 41
2.5
 42
0.625
 43
3.75
 44
1.25
 45
0.0
 46
0.0
 47
0.0
 48
0.0
140
2.5
141
2.5
142
0.0
143
0.03937007874016
144
1.0
145
0.0
146
1.0
147
0.625
 71
     0
 72
     0
 73
     0
 74
     0
 75
     0
 76
     0
 77
     1
 78
     8
170
     0
171
     3
172
     1
173
     0
174
     0
175
     0
176
     0
177
     0
178
     0
270
     2
271
     2
272
     2
273
     2
274
     3
340
71
275
     0
280
     0
281
     0
282
     0
283
     0
284
     8
285
     0
286
     0
287
     3
288
     0
  0
ENDTAB
  0
TABLE
  2
BLOCK_RECORD
  5
A01
330
0
100
AcDbSymbolTable
  70
5
  0
BLOCK_RECORD
  5
A02
330
A01
100
AcDbSymbolTableRecord
100
AcDbBlockTableRecord
  2
*MODEL_SPACE
  0
BLOCK_RECORD
  5
A03
330
A01
100
AcDbSymbolTableRecord
100
AcDbBlockTableRecord
  2
*PAPER_SPACE
  0
ENDTAB
  0
ENDSEC
  0
SECTION
  2
BLOCKS
  0
BLOCK
  5
A04
330
A02
100
AcDbEntity
  8
0
100
AcDbBlockBegin
  2
*MODEL_SPACE
 70
   0
 10
0
 20
0
 30
0
  3
*MODEL_SPACE
  1
 
  0
ENDBLK
  5
A05
330
A02
100
AcDbEntity
  8
0
100
AcDbBlockEnd
  0
BLOCK
  5
A06
330
A03
100
AcDbEntity
 67
1
  8
0
100
AcDbBlockBegin
  2
*PAPER_SPACE
 70
   0
 10
0
 20
0
 30
0
  3
*PAPER_SPACE
  1
 
  0
ENDBLK
  5
A07
330
A03
100
AcDbEntity
 67
    1
  8
0
100
AcDbBlockEnd
  0
ENDSEC
  0
SECTION
  2
ENTITIES
  0
LINE
  5
A08
330
A02
100
AcDbEntity
  8
Mesh_cs002
100
AcDbLine
 10
290.748
 20
264.626
 30
5.1
 11
290.987
 21
264.717
 31
5.1
  0
LINE
  5
A09
330
A02
100
AcDbEntity
  8
Mesh_cs002
100
AcDbLine
 10
290.987
 20
264.717
 30
5.1
 11
292.469
 21
266.474
 31
5.1
  0
LINE
  5
A0A
330
A02
100
AcDbEntity
  8
Mesh_cs002
100
AcDbLine
 10
292.469
 20
266.474
 30
5.1
 11
293.564
 21
267.772
 31
5.1
  0
LINE
  5
A0B
330
A02
100
AcDbEntity
  8
Mesh_cs002
100
AcDbLine
 10
293.564
 20
267.772
 30
5.1
 11
294.671
 21
269.06
 31
5.1
  0
LINE
  5
A0C
330
A02
100
AcDbEntity
  8
Mesh_cs002
100
AcDbLine
 10
294.671
 20
269.06
 30
5.1
 11
296.169
 21
270.803
 31
5.1
  0
LINE
  5
A0D
330
A02
100
AcDbEntity
  8
Mesh_cs002
100
AcDbLine
 10
296.169
 20
270.803
 30
5.1
 11
297.289
 21
272.08
 31
5.1
  0
LINE
  5
A0E
330
A02
100
AcDbEntity
  8
Mesh_cs002
100
AcDbLine
 10
297.289
 20
272.08
 30
5.1
 11
298.805
 21
273.808
 31
5.1
  0
LINE
  5
A0F
330
A02
100
AcDbEntity
  8
Mesh_cs002
100
AcDbLine
 10
298.805
 20
273.808
 30
5.1
 11
299.937
 21
275.074
 31
5.1
  0
LINE
  5
A10
330
A02
100
AcDbEntity
  8
Mesh_cs002
100
AcDbLine
 10
299.937
 20
275.074
 30
5.1
 11
301.469
 21
276.787
 31
5.1
  0
LINE
  5
A11
330
A02
100
AcDbEntity
  8
Mesh_cs002
100
AcDbLine
 10
301.469
 20
276.787
 30
5.1
 11
302.613
 21
278.042
 31
5.1
  0
LINE
  5
A12
330
A02
100
AcDbEntity
  8
Mesh_cs002
100
AcDbLine
 10
302.613
 20
278.042
 30
5.1
 11
304.161
 21
279.74
 31
5.1
  0
LINE
  5
A13
330
A02
100
AcDbEntity
  8
Mesh_cs002
100
AcDbLine
 10
304.161
 20
279.74
 30
5.1
 11
305.318
 21
280.984
 31
5.1
  0
LINE
  5
A14
330
A02
100
AcDbEntity
  8
Mesh_cs002
100
AcDbLine
 10
305.318
 20
280.984
 30
5.1
 11
306.883
 21
282.668
 31
5.1
  0
LINE
  5
A15
330
A02
100
AcDbEntity
  8
Mesh_cs002
100
AcDbLine
 10
306.883
 20
282.668
 30
5.1
 11
308.051
 21
283.9
 31
5.1
  0
LINE
  5
A16
330
A02
100
AcDbEntity
  8
Mesh_cs002
100
AcDbLine
 10
308.051
 20
283.9
 30
5.1
 11
309.632
 21
285.568
 31
5.1
  0
LINE
  5
A17
330
A02
100
AcDbEntity
  8
Mesh_cs002
100
AcDbLine
 10
309.632
 20
285.568
 30
5.1
 11
310.812
 21
286.79
 31
5.1
  0
LINE
  5
A18
330
A02
100
AcDbEntity
  8
Mesh_cs002
100
AcDbLine
 10
310.812
 20
286.79
 30
5.1
 11
312.409
 21
288.442
 31
5.1
  0
LINE
  5
A19
330
A02
100
AcDbEntity
  8
Mesh_cs002
100
AcDbLine
 10
312.409
 20
288.442
 30
5.1
 11
313.601
 21
289.652
 31
5.1
  0
LINE
  5
A1A
330
A02
100
AcDbEntity
  8
Mesh_cs002
100
AcDbLine
 10
313.601
 20
289.652
 30
5.1
 11
315.214
 21
291.289
 31
5.1
  0
LINE
  5
A1B
330
A02
100
AcDbEntity
  8
Mesh_cs002
100
AcDbLine
 10
315.214
 20
291.289
 30
5.1
 11
316.418
 21
292.488
 31
5.1
  0
LINE
  5
A1C
330
A02
100
AcDbEntity
  8
Mesh_cs002
100
AcDbLine
 10
316.418
 20
292.488
 30
5.1
 11
318.047
 21
294.109
 31
5.1
  0
LINE
  5
A1D
330
A02
100
AcDbEntity
  8
Mesh_cs002
100
AcDbLine
 10
318.047
 20
294.109
 30
5.1
 11
319.262
 21
295.296
 31
5.1
  0
LINE
  5
A1E
330
A02
100
AcDbEntity
  8
Mesh_cs002
100
AcDbLine
 10
319.262
 20
295.296
 30
5.1
 11
320.906
 21
296.901
 31
5.1
  0
LINE
  5
A1F
330
A02
100
AcDbEntity
  8
Mesh_cs002
100
AcDbLine
 10
320.906
 20
296.901
 30
5.1
 11
322.133
 21
298.076
 31
5.1
  0
LINE
  5
A20
330
A02
100
AcDbEntity
  8
Mesh_cs002
100
AcDbLine
 10
322.133
 20
298.076
 30
5.1
 11
323.793
 21
299.666
 31
5.1
  0
LINE
  5
A21
330
A02
100
AcDbEntity
  8
Mesh_cs002
100
AcDbLine
 10
323.793
 20
299.666
 30
5.1
 11
325.031
 21
300.829
 31
5.1
  0
LINE
  5
A22
330
A02
100
AcDbEntity
  8
Mesh_cs002
100
AcDbLine
 10
325.031
 20
300.829
 30
5.1
 11
326.706
 21
302.402
 31
5.1
  0
LINE
  5
A23
330
A02
100
AcDbEntity
  8
Mesh_cs002
100
AcDbLine
 10
326.706
 20
302.402
 30
5.1
 11
327.955
 21
303.553
 31
5.1
  0
LINE
  5
A24
330
A02
100
AcDbEntity
  8
Mesh_cs002
100
AcDbLine
 10
327.955
 20
303.553
 30
5.1
 11
329.645
 21
305.11
 31
5.1
  0
LINE
  5
A25
330
A02
100
AcDbEntity
  8
Mesh_cs002
100
AcDbLine
 10
329.645
 20
305.11
 30
5.1
 11
330.906
 21
306.249
 31
5.1
  0
LINE
  5
A26
330
A02
100
AcDbEntity
  8
Mesh_cs002
100
AcDbLine
 10
330.906
 20
306.249
 30
5.1
 11
332.611
 21
307.79
 31
5.1
  0
LINE
  5
A27
330
A02
100
AcDbEntity
  8
Mesh_cs002
100
AcDbLine
 10
332.611
 20
307.79
 30
5.1
 11
334.331
 21
309.314
 31
5.1
  0
LINE
  5
A28
330
A02
100
AcDbEntity
  8
Mesh_cs002
100
AcDbLine
 10
334.331
 20
309.314
 30
5.1
 11
335.602
 21
310.44
 31
5.1
  0
LINE
  5
A29
330
A02
100
AcDbEntity
  8
Mesh_cs002
100
AcDbLine
 10
335.602
 20
310.44
 30
5.1
 11
336.884
 21
311.554
 31
5.1
  0
LINE
  5
A2A
330
A02
100
AcDbEntity
  8
Mesh_cs002
100
AcDbLine
 10
336.884
 20
311.554
 30
5.1
 11
338.619
 21
313.062
 31
5.1
  0
LINE
  5
A2B
330
A02
100
AcDbEntity
  8
Mesh_cs002
100
AcDbLine
 10
338.619
 20
313.062
 30
5.1
 11
339.912
 21
314.164
 31
5.1
  0
LINE
  5
A2C
330
A02
100
AcDbEntity
  8
Mesh_cs002
100
AcDbLine
 10
339.912
 20
314.164
 30
5.1
 11
341.661
 21
315.654
 31
5.1
  0
LINE
  5
A2D
330
A02
100
AcDbEntity
  8
Mesh_cs002
100
AcDbLine
 10
341.661
 20
315.654
 30
5.1
 11
343.425
 21
317.128
 31
5.1
  0
LINE
  5
A2E
330
A02
100
AcDbEntity
  8
Mesh_cs002
100
AcDbLine
 10
343.425
 20
317.128
 30
5.1
 11
344.728
 21
318.217
 31
5.1
  0
LINE
  5
A2F
330
A02
100
AcDbEntity
  8
Mesh_cs002
100
AcDbLine
 10
344.728
 20
318.217
 30
5.1
 11
346.042
 21
319.293
 31
5.1
  0
LINE
  5
A30
330
A02
100
AcDbEntity
  8
Mesh_cs002
100
AcDbLine
 10
346.042
 20
319.293
 30
5.1
 11
347.82
 21
320.75
 31
5.1
  0
LINE
  5
A31
330
A02
100
AcDbEntity
  8
Mesh_cs002
100
AcDbLine
 10
347.82
 20
320.75
 30
5.1
 11
349.144
 21
321.813
 31
5.1
  0
LINE
  5
A32
330
A02
100
AcDbEntity
  8
Mesh_cs002
100
AcDbLine
 10
349.144
 20
321.813
 30
5.1
 11
350.936
 21
323.253
 31
5.1
  0
LINE
  5
A33
330
A02
100
AcDbEntity
  8
Mesh_cs002
100
AcDbLine
 10
350.936
 20
323.253
 30
5.1
 11
352.741
 21
324.674
 31
5.1
  0
LINE
  5
A34
330
A02
100
AcDbEntity
  8
Mesh_cs002
100
AcDbLine
 10
352.741
 20
324.674
 30
5.1
 11
354.076
 21
325.725
 31
5.1
  0
LINE
  5
A35
330
A02
100
AcDbEntity
  8
Mesh_cs002
100
AcDbLine
 10
354.076
 20
325.725
 30
5.1
 11
355.421
 21
326.763
 31
5.1
  0
LINE
  5
A36
330
A02
100
AcDbEntity
  8
Mesh_cs002
100
AcDbLine
 10
355.421
 20
326.763
 30
5.1
 11
357.24
 21
328.167
 31
5.1
  0
LINE
  5
A37
330
A02
100
AcDbEntity
  8
Mesh_cs002
100
AcDbLine
 10
357.24
 20
328.167
 30
5.1
 11
358.594
 21
329.192
 31
5.1
  0
LINE
  5
A38
330
A02
100
AcDbEntity
  8
Mesh_cs002
100
AcDbLine
 10
358.594
 20
329.192
 30
5.1
 11
360.427
 21
330.579
 31
5.1
  0
LINE
  5
A39
330
A02
100
AcDbEntity
  8
Mesh_cs002
100
AcDbLine
 10
360.427
 20
330.579
 30
5.1
 11
361.792
 21
331.59
 31
5.1
  0
LINE
  5
A3A
330
A02
100
AcDbEntity
  8
Mesh_cs002
100
AcDbLine
 10
361.792
 20
331.59
 30
5.1
 11
363.638
 21
332.959
 31
5.1
  0
LINE
  5
A3B
330
A02
100
AcDbEntity
  8
Mesh_cs002
100
AcDbLine
 10
363.638
 20
332.959
 30
5.1
 11
365.012
 21
333.957
 31
5.1
  0
LINE
  5
A3C
330
A02
100
AcDbEntity
  8
Mesh_cs002
100
AcDbLine
 10
365.012
 20
333.957
 30
5.1
 11
366.871
 21
335.308
 31
5.1
  0
LINE
  5
A3D
330
A02
100
AcDbEntity
  8
Mesh_cs002
100
AcDbLine
 10
366.871
 20
335.308
 30
5.1
 11
368.255
 21
336.293
 31
5.1
  0
LINE
  5
A3E
330
A02
100
AcDbEntity
  8
Mesh_cs002
100
AcDbLine
 10
368.255
 20
336.293
 30
5.1
 11
370.127
 21
337.626
 31
5.1
  0
LINE
  5
A3F
330
A02
100
AcDbEntity
  8
Mesh_cs002
100
AcDbLine
 10
370.127
 20
337.626
 30
5.1
 11
371.52
 21
338.598
 31
5.1
  0
LINE
  5
A40
330
A02
100
AcDbEntity
  8
Mesh_cs002
100
AcDbLine
 10
371.52
 20
338.598
 30
5.1
 11
373.405
 21
339.912
 31
5.1
  0
LINE
  5
A41
330
A02
100
AcDbEntity
  8
Mesh_cs002
100
AcDbLine
 10
373.405
 20
339.912
 30
5.1
 11
374.808
 21
340.87
 31
5.1
  0
LINE
  5
A42
330
A02
100
AcDbEntity
  8
Mesh_cs002
100
AcDbLine
 10
374.808
 20
340.87
 30
5.1
 11
376.706
 21
342.167
 31
5.1
  0
LINE
  5
A43
330
A02
100
AcDbEntity
  8
Mesh_cs002
100
AcDbLine
 10
376.706
 20
342.167
 30
5.1
 11
378.117
 21
343.111
 31
5.1
  0
LINE
  5
A44
330
A02
100
AcDbEntity
  8
Mesh_cs002
100
AcDbLine
 10
378.117
 20
343.111
 30
5.1
 11
380.028
 21
344.389
 31
5.1
  0
LINE
  5
A45
330
A02
100
AcDbEntity
  8
Mesh_cs002
100
AcDbLine
 10
380.028
 20
344.389
 30
5.1
 11
381.95
 21
345.648
 31
5.1
  0
LINE
  5
A46
330
A02
100
AcDbEntity
  8
Mesh_cs002
100
AcDbLine
 10
381.95
 20
345.648
 30
5.1
 11
383.371
 21
346.579
 31
5.1
  0
LINE
  5
A47
330
A02
100
AcDbEntity
  8
Mesh_cs002
100
AcDbLine
 10
383.371
 20
346.579
 30
5.1
 11
385.305
 21
347.82
 31
5.1
  0
LINE
  5
A48
330
A02
100
AcDbEntity
  8
Mesh_cs002
100
AcDbLine
 10
385.305
 20
347.82
 30
5.1
 11
386.735
 21
348.737
 31
5.1
  0
LINE
  5
A49
330
A02
100
AcDbEntity
  8
Mesh_cs002
100
AcDbLine
 10
386.735
 20
348.737
 30
5.1
 11
388.174
 21
349.64
 31
5.1
  0
LINE
  5
A4A
330
A02
100
AcDbEntity
  8
Mesh_cs002
100
AcDbLine
 10
388.174
 20
349.64
 30
5.1
 11
390.12
 21
350.862
 31
5.1
  0
LINE
  5
A4B
330
A02
100
AcDbEntity
  8
Mesh_cs002
100
AcDbLine
 10
390.12
 20
350.862
 30
5.1
 11
392.078
 21
352.065
 31
5.1
  0
LINE
  5
A4C
330
A02
100
AcDbEntity
  8
Mesh_cs002
100
AcDbLine
 10
392.078
 20
352.065
 30
5.1
 11
393.526
 21
352.954
 31
5.1
  0
LINE
  5
A4D
330
A02
100
AcDbEntity
  8
Mesh_cs002
100
AcDbLine
 10
393.526
 20
352.954
 30
5.1
 11
395.495
 21
354.138
 31
5.1
  0
LINE
  5
A4E
330
A02
100
AcDbEntity
  8
Mesh_cs002
100
AcDbLine
 10
395.495
 20
354.138
 30
5.1
 11
396.951
 21
355.013
 31
5.1
  0
LINE
  5
A4F
330
A02
100
AcDbEntity
  8
Mesh_cs002
100
AcDbLine
 10
396.951
 20
355.013
 30
5.1
 11
398.415
 21
355.874
 31
5.1
  0
LINE
  5
A50
330
A02
100
AcDbEntity
  8
Mesh_cs002
100
AcDbLine
 10
398.415
 20
355.874
 30
5.1
 11
400.396
 21
357.039
 31
5.1
  0
LINE
  5
A51
330
A02
100
AcDbEntity
  8
Mesh_cs002
100
AcDbLine
 10
400.396
 20
357.039
 30
5.1
 11
402.388
 21
358.184
 31
5.1
  0
LINE
  5
A52
330
A02
100
AcDbEntity
  8
Mesh_cs002
100
AcDbLine
 10
402.388
 20
358.184
 30
5.1
 11
403.861
 21
359.031
 31
5.1
  0
LINE
  5
A53
330
A02
100
AcDbEntity
  8
Mesh_cs002
100
AcDbLine
 10
403.861
 20
359.031
 30
5.1
 11
405.864
 21
360.157
 31
5.1
  0
LINE
  5
A54
330
A02
100
AcDbEntity
  8
Mesh_cs002
100
AcDbLine
 10
405.864
 20
360.157
 30
5.1
 11
407.345
 21
360.99
 31
5.1
  0
LINE
  5
A55
330
A02
100
AcDbEntity
  8
Mesh_cs002
100
AcDbLine
 10
407.345
 20
360.99
 30
5.1
 11
408.833
 21
361.808
 31
5.1
  0
LINE
  5
A56
330
A02
100
AcDbEntity
  8
Mesh_cs002
100
AcDbLine
 10
408.833
 20
361.808
 30
5.1
 11
410.847
 21
362.915
 31
5.1
  0
LINE
  5
A57
330
A02
100
AcDbEntity
  8
Mesh_cs002
100
AcDbLine
 10
410.847
 20
362.915
 30
5.1
 11
412.344
 21
363.718
 31
5.1
  0
LINE
  5
A58
330
A02
100
AcDbEntity
  8
Mesh_cs002
100
AcDbLine
 10
412.344
 20
363.718
 30
5.1
 11
414.368
 21
364.806
 31
5.1
  0
LINE
  5
A59
330
A02
100
AcDbEntity
  8
Mesh_cs002
100
AcDbLine
 10
414.368
 20
364.806
 30
5.1
 11
415.873
 21
365.595
 31
5.1
  0
LINE
  5
A5A
330
A02
100
AcDbEntity
  8
Mesh_cs002
100
AcDbLine
 10
415.873
 20
365.595
 30
5.1
 11
417.908
 21
366.662
 31
5.1
  0
LINE
  5
A5B
330
A02
100
AcDbEntity
  8
Mesh_cs002
100
AcDbLine
 10
417.908
 20
366.662
 30
5.1
 11
419.419
 21
367.437
 31
5.1
  0
LINE
  5
A5C
330
A02
100
AcDbEntity
  8
Mesh_cs002
100
AcDbLine
 10
419.419
 20
367.437
 30
5.1
 11
421.465
 21
368.485
 31
5.1
  0
LINE
  5
A5D
330
A02
100
AcDbEntity
  8
Mesh_cs002
100
AcDbLine
 10
421.465
 20
368.485
 30
5.1
 11
422.984
 21
369.245
 31
5.1
  0
LINE
  5
A5E
330
A02
100
AcDbEntity
  8
Mesh_cs002
100
AcDbLine
 10
422.984
 20
369.245
 30
5.1
 11
425.039
 21
370.273
 31
5.1
  0
LINE
  5
A5F
330
A02
100
AcDbEntity
  8
Mesh_cs002
100
AcDbLine
 10
425.039
 20
370.273
 30
5.1
 11
426.566
 21
371.018
 31
5.1
  0
LINE
  5
A60
330
A02
100
AcDbEntity
  8
Mesh_cs002
100
AcDbLine
 10
426.566
 20
371.018
 30
5.1
 11
428.631
 21
372.026
 31
5.1
  0
LINE
  5
A61
330
A02
100
AcDbEntity
  8
Mesh_cs002
100
AcDbLine
 10
428.631
 20
372.026
 30
5.1
 11
430.164
 21
372.757
 31
5.1
  0
LINE
  5
A62
330
A02
100
AcDbEntity
  8
Mesh_cs002
100
AcDbLine
 10
430.164
 20
372.757
 30
5.1
 11
432.239
 21
373.745
 31
5.1
  0
LINE
  5
A63
330
A02
100
AcDbEntity
  8
Mesh_cs002
100
AcDbLine
 10
432.239
 20
373.745
 30
5.1
 11
433.78
 21
374.46
 31
5.1
  0
LINE
  5
A64
330
A02
100
AcDbEntity
  8
Mesh_cs002
100
AcDbLine
 10
433.78
 20
374.46
 30
5.1
 11
435.864
 21
375.428
 31
5.1
  0
LINE
  5
A65
330
A02
100
AcDbEntity
  8
Mesh_cs002
100
AcDbLine
 10
435.864
 20
375.428
 30
5.1
 11
437.412
 21
376.129
 31
5.1
  0
LINE
  5
A66
330
A02
100
AcDbEntity
  8
Mesh_cs002
100
AcDbLine
 10
437.412
 20
376.129
 30
5.1
 11
439.505
 21
377.076
 31
5.1
  0
LINE
  5
A67
330
A02
100
AcDbEntity
  8
Mesh_cs002
100
AcDbLine
 10
439.505
 20
377.076
 30
5.1
 11
441.608
 21
378.004
 31
5.1
  0
LINE
  5
A68
330
A02
100
AcDbEntity
  8
Mesh_cs002
100
AcDbLine
 10
441.608
 20
378.004
 30
5.1
 11
443.162
 21
378.689
 31
5.1
  0
LINE
  5
A69
330
A02
100
AcDbEntity
  8
Mesh_cs002
100
AcDbLine
 10
443.162
 20
378.689
 30
5.1
 11
444.723
 21
379.36
 31
5.1
  0
LINE
  5
A6A
330
A02
100
AcDbEntity
  8
Mesh_cs002
100
AcDbLine
 10
444.723
 20
379.36
 30
5.1
 11
446.834
 21
380.267
 31
5.1
  0
LINE
  5
A6B
330
A02
100
AcDbEntity
  8
Mesh_cs002
100
AcDbLine
 10
446.834
 20
380.267
 30
5.1
 11
448.401
 21
380.922
 31
5.1
  0
LINE
  5
A6C
330
A02
100
AcDbEntity
  8
Mesh_cs002
100
AcDbLine
 10
448.401
 20
380.922
 30
5.1
 11
450.521
 21
381.809
 31
5.1
  0
LINE
  5
A6D
330
A02
100
AcDbEntity
  8
Mesh_cs002
100
AcDbLine
 10
450.521
 20
381.809
 30
5.1
 11
452.095
 21
382.449
 31
5.1
  0
LINE
  5
A6E
330
A02
100
AcDbEntity
  8
Mesh_cs002
100
AcDbLine
 10
452.095
 20
382.449
 30
5.1
 11
454.224
 21
383.315
 31
5.1
  0
LINE
  5
A6F
330
A02
100
AcDbEntity
  8
Mesh_cs002
100
AcDbLine
 10
454.224
 20
383.315
 30
5.1
 11
454.394
 21
383.531
 31
5.1
  0
LINE
  5
A70
330
A02
100
AcDbEntity
  8
Mesh_cs002
100
AcDbLine
 10
454.394
 20
383.531
 30
5.1
 11
454.485
 21
383.64
 31
5.1
  0
LINE
  5
A71
330
A02
100
AcDbEntity
  8
Mesh_cs002
100
AcDbLine
 10
454.485
 20
383.64
 30
5.1
 11
454.731
 21
383.902
 31
5.1
  0
LINE
  5
A72
330
A02
100
AcDbEntity
  8
Mesh_cs002
100
AcDbLine
 10
454.731
 20
383.902
 30
5.1
 11
454.747
 21
383.919
 31
5.1
  0
LINE
  5
A73
330
A02
100
AcDbEntity
  8
Mesh_cs002
100
AcDbLine
 10
454.747
 20
383.919
 30
5.1
 11
454.828
 21
383.992
 31
5.1
  0
LINE
  5
A74
330
A02
100
AcDbEntity
  8
Mesh_cs002
100
AcDbLine
 10
454.828
 20
383.992
 30
5.1
 11
455.015
 21
384.164
 31
5.1
  0
LINE
  5
A75
330
A02
100
AcDbEntity
  8
Mesh_cs002
100
AcDbLine
 10
455.015
 20
384.164
 30
5.1
 11
455.054
 21
384.194
 31
5.1
  0
LINE
  5
A76
330
A02
100
AcDbEntity
  8
Mesh_cs002
100
AcDbLine
 10
455.054
 20
384.194
 30
5.1
 11
455.306
 21
384.393
 31
5.1
  0
LINE
  5
A77
330
A02
100
AcDbEntity
  8
Mesh_cs002
100
AcDbLine
 10
455.306
 20
384.393
 30
5.1
 11
455.378
 21
384.444
 31
5.1
  0
LINE
  5
A78
330
A02
100
AcDbEntity
  8
Mesh_cs002
100
AcDbLine
 10
455.378
 20
384.444
 30
5.1
 11
455.411
 21
384.467
 31
5.1
  0
LINE
  5
A79
330
A02
100
AcDbEntity
  8
Mesh_cs002
100
AcDbLine
 10
455.411
 20
384.467
 30
5.1
 11
455.5
 21
384.527
 31
5.1
  0
LINE
  5
A7A
330
A02
100
AcDbEntity
  8
Mesh_cs002
100
AcDbLine
 10
455.5
 20
384.527
 30
5.1
 11
455.534
 21
384.549
 31
5.1
  0
LINE
  5
A7B
330
A02
100
AcDbEntity
  8
Mesh_cs002
100
AcDbLine
 10
455.534
 20
384.549
 30
5.1
 11
455.624
 21
384.606
 31
5.1
  0
LINE
  5
A7C
330
A02
100
AcDbEntity
  8
Mesh_cs002
100
AcDbLine
 10
455.624
 20
384.606
 30
5.1
 11
455.678
 21
384.639
 31
5.1
  0
LINE
  5
A7D
330
A02
100
AcDbEntity
  8
Mesh_cs002
100
AcDbLine
 10
455.678
 20
384.639
 30
5.1
 11
455.766
 21
384.691
 31
5.1
  0
LINE
  5
A7E
330
A02
100
AcDbEntity
  8
Mesh_cs002
100
AcDbLine
 10
455.766
 20
384.691
 30
5.1
 11
455.821
 21
384.721
 31
5.1
  0
LINE
  5
A7F
330
A02
100
AcDbEntity
  8
Mesh_cs002
100
AcDbLine
 10
455.821
 20
384.721
 30
5.1
 11
455.876
 21
384.748
 31
5.1
  0
LINE
  5
A80
330
A02
100
AcDbEntity
  8
Mesh_cs002
100
AcDbLine
 10
455.876
 20
384.748
 30
5.1
 11
455.928
 21
384.771
 31
5.1
  0
LINE
  5
A81
330
A02
100
AcDbEntity
  8
Mesh_cs002
100
AcDbLine
 10
455.928
 20
384.771
 30
5.1
 11
456.149
 21
384.882
 31
5.1
  0
LINE
  5
A82
330
A02
100
AcDbEntity
  8
Mesh_cs002
100
AcDbLine
 10
456.149
 20
384.882
 30
5.1
 11
456.329
 21
384.968
 31
5.1
  0
LINE
  5
A83
330
A02
100
AcDbEntity
  8
Mesh_cs002
100
AcDbLine
 10
456.329
 20
384.968
 30
5.1
 11
456.38
 21
384.987
 31
5.1
  0
LINE
  5
A84
330
A02
100
AcDbEntity
  8
Mesh_cs002
100
AcDbLine
 10
456.38
 20
384.987
 30
5.1
 11
456.706
 21
385.108
 31
5.1
  0
LINE
  5
A85
330
A02
100
AcDbEntity
  8
Mesh_cs002
100
AcDbLine
 10
456.706
 20
385.108
 30
5.1
 11
462.095
 21
386.859
 31
5.1
  0
LINE
  5
A86
330
A02
100
AcDbEntity
  8
Mesh_cs002
100
AcDbLine
 10
462.095
 20
386.859
 30
5.1
 11
472.357
 21
390.193
 31
5.1
  0
LINE
  5
A87
330
A02
100
AcDbEntity
  8
Mesh_cs002
100
AcDbLine
 10
472.357
 20
390.193
 30
5.1
 11
480.387
 21
392.802
 31
5.1
  0
LINE
  5
A88
330
A02
100
AcDbEntity
  8
Mesh_cs002
100
AcDbLine
 10
480.387
 20
392.802
 30
5.1
 11
477.778
 21
400.832
 31
5.1
  0
LINE
  5
A89
330
A02
100
AcDbEntity
  8
Mesh_cs002
100
AcDbLine
 10
477.778
 20
400.832
 30
5.1
 11
476.027
 21
406.222
 31
5.1
  0
LINE
  5
A8A
330
A02
100
AcDbEntity
  8
Mesh_cs002
100
AcDbLine
 10
476.027
 20
406.222
 30
5.1
 11
468.926
 21
428.078
 31
5.1
  0
LINE
  5
A8B
330
A02
100
AcDbEntity
  8
Mesh_cs002
100
AcDbLine
 10
468.926
 20
428.078
 30
5.1
 11
463.911
 21
443.511
 31
5.1
  0
LINE
  5
A8C
330
A02
100
AcDbEntity
  8
Mesh_cs002
100
AcDbLine
 10
463.911
 20
443.511
 30
5.1
 11
450.601
 21
484.474
 31
5.1
  0
LINE
  5
A8D
330
A02
100
AcDbEntity
  8
Mesh_cs002
100
AcDbLine
 10
450.601
 20
484.474
 30
5.1
 11
424.489
 21
564.839
 31
5.1
  0
LINE
  5
A8E
330
A02
100
AcDbEntity
  8
Mesh_cs002
100
AcDbLine
 10
424.489
 20
564.839
 30
5.1
 11
422.738
 21
570.228
 31
5.1
  0
LINE
  5
A8F
330
A02
100
AcDbEntity
  8
Mesh_cs002
100
AcDbLine
 10
422.738
 20
570.228
 30
5.1
 11
420.129
 21
578.258
 31
5.1
  0
LINE
  5
A90
330
A02
100
AcDbEntity
  8
Mesh_cs002
100
AcDbLine
 10
420.129
 20
578.258
 30
5.1
 11
418.625
 21
577.764
 31
5.1
  0
LINE
  5
A91
330
A02
100
AcDbEntity
  8
Mesh_cs002
100
AcDbLine
 10
418.625
 20
577.764
 30
5.1
 11
415.965
 21
576.888
 31
5.1
  0
LINE
  5
A92
330
A02
100
AcDbEntity
  8
Mesh_cs002
100
AcDbLine
 10
415.965
 20
576.888
 30
5.1
 11
414.463
 21
576.385
 31
5.1
  0
LINE
  5
A93
330
A02
100
AcDbEntity
  8
Mesh_cs002
100
AcDbLine
 10
414.463
 20
576.385
 30
5.1
 11
411.81
 21
575.488
 31
5.1
  0
LINE
  5
A94
330
A02
100
AcDbEntity
  8
Mesh_cs002
100
AcDbLine
 10
411.81
 20
575.488
 30
5.1
 11
410.312
 21
574.975
 31
5.1
  0
LINE
  5
A95
330
A02
100
AcDbEntity
  8
Mesh_cs002
100
AcDbLine
 10
410.312
 20
574.975
 30
5.1
 11
408.127
 21
574.214
 31
5.1
  0
LINE
  5
A96
330
A02
100
AcDbEntity
  8
Mesh_cs002
100
AcDbLine
 10
408.127
 20
574.214
 30
5.1
 11
406.133
 21
573.522
 31
5.1
  0
LINE
  5
A97
330
A02
100
AcDbEntity
  8
Mesh_cs002
100
AcDbLine
 10
406.133
 20
573.522
 30
5.1
 11
404.144
 21
572.813
 31
5.1
  0
LINE
  5
A98
330
A02
100
AcDbEntity
  8
Mesh_cs002
100
AcDbLine
 10
404.144
 20
572.813
 30
5.1
 11
401.77
 21
571.967
 31
5.1
  0
LINE
  5
A99
330
A02
100
AcDbEntity
  8
Mesh_cs002
100
AcDbLine
 10
401.77
 20
571.967
 30
5.1
 11
400.29
 21
571.43
 31
5.1
  0
LINE
  5
A9A
330
A02
100
AcDbEntity
  8
Mesh_cs002
100
AcDbLine
 10
400.29
 20
571.43
 30
5.1
 11
398.307
 21
570.706
 31
5.1
  0
LINE
  5
A9B
330
A02
100
AcDbEntity
  8
Mesh_cs002
100
AcDbLine
 10
398.307
 20
570.706
 30
5.1
 11
396.829
 21
570.161
 31
5.1
  0
LINE
  5
A9C
330
A02
100
AcDbEntity
  8
Mesh_cs002
100
AcDbLine
 10
396.829
 20
570.161
 30
5.1
 11
394.852
 21
569.421
 31
5.1
  0
LINE
  5
A9D
330
A02
100
AcDbEntity
  8
Mesh_cs002
100
AcDbLine
 10
394.852
 20
569.421
 30
5.1
 11
392.346
 21
568.481
 31
5.1
  0
LINE
  5
A9E
330
A02
100
AcDbEntity
  8
Mesh_cs002
100
AcDbLine
 10
392.346
 20
568.481
 30
5.1
 11
389.73
 21
567.478
 31
5.1
  0
LINE
  5
A9F
330
A02
100
AcDbEntity
  8
Mesh_cs002
100
AcDbLine
 10
389.73
 20
567.478
 30
5.1
 11
387.803
 21
566.736
 31
5.1
  0
LINE
  5
AA0
330
A02
100
AcDbEntity
  8
Mesh_cs002
100
AcDbLine
 10
387.803
 20
566.736
 30
5.1
 11
385.196
 21
565.712
 31
5.1
  0
LINE
  5
AA1
330
A02
100
AcDbEntity
  8
Mesh_cs002
100
AcDbLine
 10
385.196
 20
565.712
 30
5.1
 11
383.274
 21
564.956
 31
5.1
  0
LINE
  5
AA2
330
A02
100
AcDbEntity
  8
Mesh_cs002
100
AcDbLine
 10
383.274
 20
564.956
 30
5.1
 11
380.675
 21
563.911
 31
5.1
  0
LINE
  5
AA3
330
A02
100
AcDbEntity
  8
Mesh_cs002
100
AcDbLine
 10
380.675
 20
563.911
 30
5.1
 11
378.759
 21
563.139
 31
5.1
  0
LINE
  5
AA4
330
A02
100
AcDbEntity
  8
Mesh_cs002
100
AcDbLine
 10
378.759
 20
563.139
 30
5.1
 11
376.169
 21
562.073
 31
5.1
  0
LINE
  5
AA5
330
A02
100
AcDbEntity
  8
Mesh_cs002
100
AcDbLine
 10
376.169
 20
562.073
 30
5.1
 11
374.259
 21
561.286
 31
5.1
  0
LINE
  5
AA6
330
A02
100
AcDbEntity
  8
Mesh_cs002
100
AcDbLine
 10
374.259
 20
561.286
 30
5.1
 11
371.678
 21
560.199
 31
5.1
  0
LINE
  5
AA7
330
A02
100
AcDbEntity
  8
Mesh_cs002
100
AcDbLine
 10
371.678
 20
560.199
 30
5.1
 11
369.774
 21
559.397
 31
5.1
  0
LINE
  5
AA8
330
A02
100
AcDbEntity
  8
Mesh_cs002
100
AcDbLine
 10
369.774
 20
559.397
 30
5.1
 11
367.201
 21
558.29
 31
5.1
  0
LINE
  5
AA9
330
A02
100
AcDbEntity
  8
Mesh_cs002
100
AcDbLine
 10
367.201
 20
558.29
 30
5.1
 11
365.305
 21
557.472
 31
5.1
  0
LINE
  5
AAA
330
A02
100
AcDbEntity
  8
Mesh_cs002
100
AcDbLine
 10
365.305
 20
557.472
 30
5.1
 11
362.741
 21
556.345
 31
5.1
  0
LINE
  5
AAB
330
A02
100
AcDbEntity
  8
Mesh_cs002
100
AcDbLine
 10
362.741
 20
556.345
 30
5.1
 11
360.851
 21
555.512
 31
5.1
  0
LINE
  5
AAC
330
A02
100
AcDbEntity
  8
Mesh_cs002
100
AcDbLine
 10
360.851
 20
555.512
 30
5.1
 11
358.296
 21
554.364
 31
5.1
  0
LINE
  5
AAD
330
A02
100
AcDbEntity
  8
Mesh_cs002
100
AcDbLine
 10
358.296
 20
554.364
 30
5.1
 11
356.413
 21
553.516
 31
5.1
  0
LINE
  5
AAE
330
A02
100
AcDbEntity
  8
Mesh_cs002
100
AcDbLine
 10
356.413
 20
553.516
 30
5.1
 11
353.867
 21
552.347
 31
5.1
  0
LINE
  5
AAF
330
A02
100
AcDbEntity
  8
Mesh_cs002
100
AcDbLine
 10
353.867
 20
552.347
 30
5.1
 11
351.99
 21
551.484
 31
5.1
  0
LINE
  5
AB0
330
A02
100
AcDbEntity
  8
Mesh_cs002
100
AcDbLine
 10
351.99
 20
551.484
 30
5.1
 11
349.454
 21
550.295
 31
5.1
  0
LINE
  5
AB1
330
A02
100
AcDbEntity
  8
Mesh_cs002
100
AcDbLine
 10
349.454
 20
550.295
 30
5.1
 11
347.585
 21
549.417
 31
5.1
  0
LINE
  5
AB2
330
A02
100
AcDbEntity
  8
Mesh_cs002
100
AcDbLine
 10
347.585
 20
549.417
 30
5.1
 11
345.058
 21
548.208
 31
5.1
  0
LINE
  5
AB3
330
A02
100
AcDbEntity
  8
Mesh_cs002
100
AcDbLine
 10
345.058
 20
548.208
 30
5.1
 11
343.196
 21
547.315
 31
5.1
  0
LINE
  5
AB4
330
A02
100
AcDbEntity
  8
Mesh_cs002
100
AcDbLine
 10
343.196
 20
547.315
 30
5.1
 11
340.679
 21
546.086
 31
5.1
  0
LINE
  5
AB5
330
A02
100
AcDbEntity
  8
Mesh_cs002
100
AcDbLine
 10
340.679
 20
546.086
 30
5.1
 11
338.824
 21
545.178
 31
5.1
  0
LINE
  5
AB6
330
A02
100
AcDbEntity
  8
Mesh_cs002
100
AcDbLine
 10
338.824
 20
545.178
 30
5.1
 11
336.317
 21
543.929
 31
5.1
  0
LINE
  5
AB7
330
A02
100
AcDbEntity
  8
Mesh_cs002
100
AcDbLine
 10
336.317
 20
543.929
 30
5.1
 11
334.469
 21
543.006
 31
5.1
  0
LINE
  5
AB8
330
A02
100
AcDbEntity
  8
Mesh_cs002
100
AcDbLine
 10
334.469
 20
543.006
 30
5.1
 11
331.972
 21
541.737
 31
5.1
  0
LINE
  5
AB9
330
A02
100
AcDbEntity
  8
Mesh_cs002
100
AcDbLine
 10
331.972
 20
541.737
 30
5.1
 11
330.131
 21
540.799
 31
5.1
  0
LINE
  5
ABA
330
A02
100
AcDbEntity
  8
Mesh_cs002
100
AcDbLine
 10
330.131
 20
540.799
 30
5.1
 11
327.645
 21
539.51
 31
5.1
  0
LINE
  5
ABB
330
A02
100
AcDbEntity
  8
Mesh_cs002
100
AcDbLine
 10
327.645
 20
539.51
 30
5.1
 11
325.812
 21
538.558
 31
5.1
  0
LINE
  5
ABC
330
A02
100
AcDbEntity
  8
Mesh_cs002
100
AcDbLine
 10
325.812
 20
538.558
 30
5.1
 11
323.336
 21
537.249
 31
5.1
  0
LINE
  5
ABD
330
A02
100
AcDbEntity
  8
Mesh_cs002
100
AcDbLine
 10
323.336
 20
537.249
 30
5.1
 11
321.511
 21
536.282
 31
5.1
  0
LINE
  5
ABE
330
A02
100
AcDbEntity
  8
Mesh_cs002
100
AcDbLine
 10
321.511
 20
536.282
 30
5.1
 11
319.045
 21
534.953
 31
5.1
  0
LINE
  5
ABF
330
A02
100
AcDbEntity
  8
Mesh_cs002
100
AcDbLine
 10
319.045
 20
534.953
 30
5.1
 11
317.227
 21
533.972
 31
5.1
  0
LINE
  5
AC0
330
A02
100
AcDbEntity
  8
Mesh_cs002
100
AcDbLine
 10
317.227
 20
533.972
 30
5.1
 11
314.773
 21
532.623
 31
5.1
  0
LINE
  5
AC1
330
A02
100
AcDbEntity
  8
Mesh_cs002
100
AcDbLine
 10
314.773
 20
532.623
 30
5.1
 11
312.963
 21
531.627
 31
5.1
  0
LINE
  5
AC2
330
A02
100
AcDbEntity
  8
Mesh_cs002
100
AcDbLine
 10
312.963
 20
531.627
 30
5.1
 11
310.519
 21
530.259
 31
5.1
  0
LINE
  5
AC3
330
A02
100
AcDbEntity
  8
Mesh_cs002
100
AcDbLine
 10
310.519
 20
530.259
 30
5.1
 11
308.717
 21
529.249
 31
5.1
  0
LINE
  5
AC4
330
A02
100
AcDbEntity
  8
Mesh_cs002
100
AcDbLine
 10
308.717
 20
529.249
 30
5.1
 11
306.285
 21
527.861
 31
5.1
  0
LINE
  5
AC5
330
A02
100
AcDbEntity
  8
Mesh_cs002
100
AcDbLine
 10
306.285
 20
527.861
 30
5.1
 11
304.491
 21
526.836
 31
5.1
  0
LINE
  5
AC6
330
A02
100
AcDbEntity
  8
Mesh_cs002
100
AcDbLine
 10
304.491
 20
526.836
 30
5.1
 11
302.07
 21
525.429
 31
5.1
  0
LINE
  5
AC7
330
A02
100
AcDbEntity
  8
Mesh_cs002
100
AcDbLine
 10
302.07
 20
525.429
 30
5.1
 11
300.284
 21
524.39
 31
5.1
  0
LINE
  5
AC8
330
A02
100
AcDbEntity
  8
Mesh_cs002
100
AcDbLine
 10
300.284
 20
524.39
 30
5.1
 11
297.874
 21
522.963
 31
5.1
  0
LINE
  5
AC9
330
A02
100
AcDbEntity
  8
Mesh_cs002
100
AcDbLine
 10
297.874
 20
522.963
 30
5.1
 11
296.097
 21
521.91
 31
5.1
  0
LINE
  5
ACA
330
A02
100
AcDbEntity
  8
Mesh_cs002
100
AcDbLine
 10
296.097
 20
521.91
 30
5.1
 11
293.698
 21
520.464
 31
5.1
  0
LINE
  5
ACB
330
A02
100
AcDbEntity
  8
Mesh_cs002
100
AcDbLine
 10
293.698
 20
520.464
 30
5.1
 11
291.93
 21
519.397
 31
5.1
  0
LINE
  5
ACC
330
A02
100
AcDbEntity
  8
Mesh_cs002
100
AcDbLine
 10
291.93
 20
519.397
 30
5.1
 11
289.543
 21
517.932
 31
5.1
  0
LINE
  5
ACD
330
A02
100
AcDbEntity
  8
Mesh_cs002
100
AcDbLine
 10
289.543
 20
517.932
 30
5.1
 11
287.783
 21
516.851
 31
5.1
  0
LINE
  5
ACE
330
A02
100
AcDbEntity
  8
Mesh_cs002
100
AcDbLine
 10
287.783
 20
516.851
 30
5.1
 11
285.408
 21
515.366
 31
5.1
  0
LINE
  5
ACF
330
A02
100
AcDbEntity
  8
Mesh_cs002
100
AcDbLine
 10
285.408
 20
515.366
 30
5.1
 11
283.656
 21
514.271
 31
5.1
  0
LINE
  5
AD0
330
A02
100
AcDbEntity
  8
Mesh_cs002
100
AcDbLine
 10
283.656
 20
514.271
 30
5.1
 11
281.293
 21
512.768
 31
5.1
  0
LINE
  5
AD1
330
A02
100
AcDbEntity
  8
Mesh_cs002
100
AcDbLine
 10
281.293
 20
512.768
 30
5.1
 11
279.551
 21
511.658
 31
5.1
  0
LINE
  5
AD2
330
A02
100
AcDbEntity
  8
Mesh_cs002
100
AcDbLine
 10
279.551
 20
511.658
 30
5.1
 11
277.199
 21
510.136
 31
5.1
  0
LINE
  5
AD3
330
A02
100
AcDbEntity
  8
Mesh_cs002
100
AcDbLine
 10
277.199
 20
510.136
 30
5.1
 11
275.466
 21
509.013
 31
5.1
  0
LINE
  5
AD4
330
A02
100
AcDbEntity
  8
Mesh_cs002
100
AcDbLine
 10
275.466
 20
509.013
 30
5.1
 11
273.127
 21
507.472
 31
5.1
  0
LINE
  5
AD5
330
A02
100
AcDbEntity
  8
Mesh_cs002
100
AcDbLine
 10
273.127
 20
507.472
 30
5.1
 11
271.403
 21
506.335
 31
5.1
  0
LINE
  5
AD6
330
A02
100
AcDbEntity
  8
Mesh_cs002
100
AcDbLine
 10
271.403
 20
506.335
 30
5.1
 11
269.076
 21
504.776
 31
5.1
  0
LINE
  5
AD7
330
A02
100
AcDbEntity
  8
Mesh_cs002
100
AcDbLine
 10
269.076
 20
504.776
 30
5.1
 11
267.361
 21
503.625
 31
5.1
  0
LINE
  5
AD8
330
A02
100
AcDbEntity
  8
Mesh_cs002
100
AcDbLine
 10
267.361
 20
503.625
 30
5.1
 11
265.047
 21
502.047
 31
5.1
  0
LINE
  5
AD9
330
A02
100
AcDbEntity
  8
Mesh_cs002
100
AcDbLine
 10
265.047
 20
502.047
 30
5.1
 11
263.341
 21
500.882
 31
5.1
  0
LINE
  5
ADA
330
A02
100
AcDbEntity
  8
Mesh_cs002
100
AcDbLine
 10
263.341
 20
500.882
 30
5.1
 11
261.04
 21
499.285
 31
5.1
  0
LINE
  5
ADB
330
A02
100
AcDbEntity
  8
Mesh_cs002
100
AcDbLine
 10
261.04
 20
499.285
 30
5.1
 11
259.343
 21
498.107
 31
5.1
  0
LINE
  5
ADC
330
A02
100
AcDbEntity
  8
Mesh_cs002
100
AcDbLine
 10
259.343
 20
498.107
 30
5.1
 11
257.055
 21
496.492
 31
5.1
  0
LINE
  5
ADD
330
A02
100
AcDbEntity
  8
Mesh_cs002
100
AcDbLine
 10
257.055
 20
496.492
 30
5.1
 11
255.368
 21
495.301
 31
5.1
  0
LINE
  5
ADE
330
A02
100
AcDbEntity
  8
Mesh_cs002
100
AcDbLine
 10
255.368
 20
495.301
 30
5.1
 11
253.092
 21
493.667
 31
5.1
  0
LINE
  5
ADF
330
A02
100
AcDbEntity
  8
Mesh_cs002
100
AcDbLine
 10
253.092
 20
493.667
 30
5.1
 11
251.415
 21
492.462
 31
5.1
  0
LINE
  5
AE0
330
A02
100
AcDbEntity
  8
Mesh_cs002
100
AcDbLine
 10
251.415
 20
492.462
 30
5.1
 11
249.152
 21
490.811
 31
5.1
  0
LINE
  5
AE1
330
A02
100
AcDbEntity
  8
Mesh_cs002
100
AcDbLine
 10
249.152
 20
490.811
 30
5.1
 11
247.485
 21
489.592
 31
5.1
  0
LINE
  5
AE2
330
A02
100
AcDbEntity
  8
Mesh_cs002
100
AcDbLine
 10
247.485
 20
489.592
 30
5.1
 11
245.236
 21
487.923
 31
5.1
  0
LINE
  5
AE3
330
A02
100
AcDbEntity
  8
Mesh_cs002
100
AcDbLine
 10
245.236
 20
487.923
 30
5.1
 11
243.578
 21
486.691
 31
5.1
  0
LINE
  5
AE4
330
A02
100
AcDbEntity
  8
Mesh_cs002
100
AcDbLine
 10
243.578
 20
486.691
 30
5.1
 11
241.342
 21
485.004
 31
5.1
  0
LINE
  5
AE5
330
A02
100
AcDbEntity
  8
Mesh_cs002
100
AcDbLine
 10
241.342
 20
485.004
 30
5.1
 11
239.694
 21
483.759
 31
5.1
  0
LINE
  5
AE6
330
A02
100
AcDbEntity
  8
Mesh_cs002
100
AcDbLine
 10
239.694
 20
483.759
 30
5.1
 11
237.472
 21
482.053
 31
5.1
  0
LINE
  5
AE7
330
A02
100
AcDbEntity
  8
Mesh_cs002
100
AcDbLine
 10
237.472
 20
482.053
 30
5.1
 11
235.834
 21
480.795
 31
5.1
  0
LINE
  5
AE8
330
A02
100
AcDbEntity
  8
Mesh_cs002
100
AcDbLine
 10
235.834
 20
480.795
 30
5.1
 11
233.626
 21
479.072
 31
5.1
  0
LINE
  5
AE9
330
A02
100
AcDbEntity
  8
Mesh_cs002
100
AcDbLine
 10
233.626
 20
479.072
 30
5.1
 11
231.998
 21
477.801
 31
5.1
  0
LINE
  5
AEA
330
A02
100
AcDbEntity
  8
Mesh_cs002
100
AcDbLine
 10
231.998
 20
477.801
 30
5.1
 11
229.803
 21
476.06
 31
5.1
  0
LINE
  5
AEB
330
A02
100
AcDbEntity
  8
Mesh_cs002
100
AcDbLine
 10
229.803
 20
476.06
 30
5.1
 11
228.185
 21
474.776
 31
5.1
  0
LINE
  5
AEC
330
A02
100
AcDbEntity
  8
Mesh_cs002
100
AcDbLine
 10
228.185
 20
474.776
 30
5.1
 11
226.005
 21
473.018
 31
5.1
  0
LINE
  5
AED
330
A02
100
AcDbEntity
  8
Mesh_cs002
100
AcDbLine
 10
226.005
 20
473.018
 30
5.1
 11
224.398
 21
471.721
 31
5.1
  0
LINE
  5
AEE
330
A02
100
AcDbEntity
  8
Mesh_cs002
100
AcDbLine
 10
224.398
 20
471.721
 30
5.1
 11
222.232
 21
469.945
 31
5.1
  0
LINE
  5
AEF
330
A02
100
AcDbEntity
  8
Mesh_cs002
100
AcDbLine
 10
222.232
 20
469.945
 30
5.1
 11
220.634
 21
468.636
 31
5.1
  0
LINE
  5
AF0
330
A02
100
AcDbEntity
  8
Mesh_cs002
100
AcDbLine
 10
220.634
 20
468.636
 30
5.1
 11
218.483
 21
466.842
 31
5.1
  0
LINE
  5
AF1
330
A02
100
AcDbEntity
  8
Mesh_cs002
100
AcDbLine
 10
218.483
 20
466.842
 30
5.1
 11
216.896
 21
465.52
 31
5.1
  0
LINE
  5
AF2
330
A02
100
AcDbEntity
  8
Mesh_cs002
100
AcDbLine
 10
216.896
 20
465.52
 30
5.1
 11
214.759
 21
463.71
 31
5.1
  0
LINE
  5
AF3
330
A02
100
AcDbEntity
  8
Mesh_cs002
100
AcDbLine
 10
214.759
 20
463.71
 30
5.1
 11
213.183
 21
462.375
 31
5.1
  0
LINE
  5
AF4
330
A02
100
AcDbEntity
  8
Mesh_cs002
100
AcDbLine
 10
213.183
 20
462.375
 30
5.1
 11
211.06
 21
460.547
 31
5.1
  0
LINE
  5
AF5
330
A02
100
AcDbEntity
  8
Mesh_cs002
100
AcDbLine
 10
211.06
 20
460.547
 30
5.1
 11
209.495
 21
459.2
 31
5.1
  0
LINE
  5
AF6
330
A02
100
AcDbEntity
  8
Mesh_cs002
100
AcDbLine
 10
209.495
 20
459.2
 30
5.1
 11
207.387
 21
457.356
 31
5.1
  0
LINE
  5
AF7
330
A02
100
AcDbEntity
  8
Mesh_cs002
100
AcDbLine
 10
207.387
 20
457.356
 30
5.1
 11
205.832
 21
455.995
 31
5.1
  0
LINE
  5
AF8
330
A02
100
AcDbEntity
  8
Mesh_cs002
100
AcDbLine
 10
205.832
 20
455.995
 30
5.1
 11
203.739
 21
454.134
 31
5.1
  0
LINE
  5
AF9
330
A02
100
AcDbEntity
  8
Mesh_cs002
100
AcDbLine
 10
203.739
 20
454.134
 30
5.1
 11
202.195
 21
452.762
 31
5.1
  0
LINE
  5
AFA
330
A02
100
AcDbEntity
  8
Mesh_cs002
100
AcDbLine
 10
202.195
 20
452.762
 30
5.1
 11
200.117
 21
450.884
 31
5.1
  0
LINE
  5
AFB
330
A02
100
AcDbEntity
  8
Mesh_cs002
100
AcDbLine
 10
200.117
 20
450.884
 30
5.1
 11
198.585
 21
449.499
 31
5.1
  0
LINE
  5
AFC
330
A02
100
AcDbEntity
  8
Mesh_cs002
100
AcDbLine
 10
198.585
 20
449.499
 30
5.1
 11
196.521
 21
447.605
 31
5.1
  0
LINE
  5
AFD
330
A02
100
AcDbEntity
  8
Mesh_cs002
100
AcDbLine
 10
196.521
 20
447.605
 30
5.1
 11
195
 21
446.208
 31
5.1
  0
LINE
  5
AFE
330
A02
100
AcDbEntity
  8
Mesh_cs002
100
AcDbLine
 10
195
 20
446.208
 30
5.1
 11
195
 21
391.85
 31
5.1
  0
LINE
  5
AFF
330
A02
100
AcDbEntity
  8
Mesh_cs002
100
AcDbLine
 10
195
 20
391.85
 30
5.1
 11
195
 21
313.47
 31
5.1
  0
LINE
  5
B00
330
A02
100
AcDbEntity
  8
Mesh_cs002
100
AcDbLine
 10
195
 20
313.47
 30
5.1
 11
195
 21
300.074
 31
5.1
  0
LINE
  5
B01
330
A02
100
AcDbEntity
  8
Mesh_cs002
100
AcDbLine
 10
195
 20
300.074
 30
5.1
 11
201.564
 21
295.305
 31
5.1
  0
LINE
  5
B02
330
A02
100
AcDbEntity
  8
Mesh_cs002
100
AcDbLine
 10
201.564
 20
295.305
 30
5.1
 11
228.283
 21
275.893
 31
5.1
  0
LINE
  5
B03
330
A02
100
AcDbEntity
  8
Mesh_cs002
100
AcDbLine
 10
228.283
 20
275.893
 30
5.1
 11
262.464
 21
251.059
 31
5.1
  0
LINE
  5
B04
330
A02
100
AcDbEntity
  8
Mesh_cs002
100
AcDbLine
 10
262.464
 20
251.059
 30
5.1
 11
267.048
 21
247.728
 31
5.1
  0
LINE
  5
B05
330
A02
100
AcDbEntity
  8
Mesh_cs002
100
AcDbLine
 10
267.048
 20
247.728
 30
5.1
 11
273.879
 21
242.765
 31
5.1
  0
LINE
  5
B06
330
A02
100
AcDbEntity
  8
Mesh_cs002
100
AcDbLine
 10
273.879
 20
242.765
 30
5.1
 11
278.842
 21
249.596
 31
5.1
  0
LINE
  5
B07
330
A02
100
AcDbEntity
  8
Mesh_cs002
100
AcDbLine
 10
278.842
 20
249.596
 30
5.1
 11
285.184
 21
258.325
 31
5.1
  0
LINE
  5
B08
330
A02
100
AcDbEntity
  8
Mesh_cs002
100
AcDbLine
 10
285.184
 20
258.325
 30
5.1
 11
288.515
 21
262.91
 31
5.1
  0
LINE
  5
B09
330
A02
100
AcDbEntity
  8
Mesh_cs002
100
AcDbLine
 10
288.515
 20
262.91
 30
5.1
 11
288.635
 21
263.06
 31
5.1
  0
LINE
  5
B0A
330
A02
100
AcDbEntity
  8
Mesh_cs002
100
AcDbLine
 10
288.635
 20
263.06
 30
5.1
 11
288.792
 21
263.257
 31
5.1
  0
LINE
  5
B0B
330
A02
100
AcDbEntity
  8
Mesh_cs002
100
AcDbLine
 10
288.792
 20
263.257
 30
5.1
 11
288.922
 21
263.394
 31
5.1
  0
LINE
  5
B0C
330
A02
100
AcDbEntity
  8
Mesh_cs002
100
AcDbLine
 10
288.922
 20
263.394
 30
5.1
 11
289.099
 21
263.579
 31
5.1
  0
LINE
  5
B0D
330
A02
100
AcDbEntity
  8
Mesh_cs002
100
AcDbLine
 10
289.099
 20
263.579
 30
5.1
 11
289.241
 21
263.703
 31
5.1
  0
LINE
  5
B0E
330
A02
100
AcDbEntity
  8
Mesh_cs002
100
AcDbLine
 10
289.241
 20
263.703
 30
5.1
 11
289.433
 21
263.872
 31
5.1
  0
LINE
  5
B0F
330
A02
100
AcDbEntity
  8
Mesh_cs002
100
AcDbLine
 10
289.433
 20
263.872
 30
5.1
 11
289.585
 21
263.983
 31
5.1
  0
LINE
  5
B10
330
A02
100
AcDbEntity
  8
Mesh_cs002
100
AcDbLine
 10
289.585
 20
263.983
 30
5.1
 11
289.792
 21
264.134
 31
5.1
  0
LINE
  5
B11
330
A02
100
AcDbEntity
  8
Mesh_cs002
100
AcDbLine
 10
289.792
 20
264.134
 30
5.1
 11
290.01
 21
264.266
 31
5.1
  0
LINE
  5
B12
330
A02
100
AcDbEntity
  8
Mesh_cs002
100
AcDbLine
 10
290.01
 20
264.266
 30
5.1
 11
290.172
 21
264.364
 31
5.1
  0
LINE
  5
B13
330
A02
100
AcDbEntity
  8
Mesh_cs002
100
AcDbLine
 10
290.172
 20
264.364
 30
5.1
 11
290.342
 21
264.446
 31
5.1
  0
LINE
  5
B14
330
A02
100
AcDbEntity
  8
Mesh_cs002
100
AcDbLine
 10
290.342
 20
264.446
 30
5.1
 11
290.572
 21
264.558
 31
5.1
  0
LINE
  5
B15
330
A02
100
AcDbEntity
  8
Mesh_cs002
100
AcDbLine
 10
290.572
 20
264.558
 30
5.1
 11
290.748
 21
264.626
 31
5.1
  0
LINE
  5
B16
330
A02
100
AcDbEntity
  8
Mesh_cs002
100
AcDbLine
 10
456.668
 20
400.766
 30
5.1
 11
456.244
 21
400.667
 31
5.1
  0
LINE
  5
B17
330
A02
100
AcDbEntity
  8
Mesh_cs002
100
AcDbLine
 10
456.244
 20
400.667
 30
5.1
 11
456.234
 21
400.665
 31
5.1
  0
LINE
  5
B18
330
A02
100
AcDbEntity
  8
Mesh_cs002
100
AcDbLine
 10
456.234
 20
400.665
 30
5.1
 11
455.804
 21
400.603
 31
5.1
  0
LINE
  5
B19
330
A02
100
AcDbEntity
  8
Mesh_cs002
100
AcDbLine
 10
455.804
 20
400.603
 30
5.1
 11
455.794
 21
400.602
 31
5.1
  0
LINE
  5
B1A
330
A02
100
AcDbEntity
  8
Mesh_cs002
100
AcDbLine
 10
455.794
 20
400.602
 30
5.1
 11
455.784
 21
400.602
 31
5.1
  0
LINE
  5
B1B
330
A02
100
AcDbEntity
  8
Mesh_cs002
100
AcDbLine
 10
455.784
 20
400.602
 30
5.1
 11
455.351
 21
400.579
 31
5.1
  0
LINE
  5
B1C
330
A02
100
AcDbEntity
  8
Mesh_cs002
100
AcDbLine
 10
455.351
 20
400.579
 30
5.1
 11
455.341
 21
400.579
 31
5.1
  0
LINE
  5
B1D
330
A02
100
AcDbEntity
  8
Mesh_cs002
100
AcDbLine
 10
455.341
 20
400.579
 30
5.1
 11
454.909
 21
400.595
 31
5.1
  0
LINE
  5
B1E
330
A02
100
AcDbEntity
  8
Mesh_cs002
100
AcDbLine
 10
454.909
 20
400.595
 30
5.1
 11
454.898
 21
400.596
 31
5.1
  0
LINE
  5
B1F
330
A02
100
AcDbEntity
  8
Mesh_cs002
100
AcDbLine
 10
454.898
 20
400.596
 30
5.1
 11
454.469
 21
400.65
 31
5.1
  0
LINE
  5
B20
330
A02
100
AcDbEntity
  8
Mesh_cs002
100
AcDbLine
 10
454.469
 20
400.65
 30
5.1
 11
454.458
 21
400.653
 31
5.1
  0
LINE
  5
B21
330
A02
100
AcDbEntity
  8
Mesh_cs002
100
AcDbLine
 10
454.458
 20
400.653
 30
5.1
 11
454.037
 21
400.744
 31
5.1
  0
LINE
  5
B22
330
A02
100
AcDbEntity
  8
Mesh_cs002
100
AcDbLine
 10
454.037
 20
400.744
 30
5.1
 11
454.027
 21
400.747
 31
5.1
  0
LINE
  5
B23
330
A02
100
AcDbEntity
  8
Mesh_cs002
100
AcDbLine
 10
454.027
 20
400.747
 30
5.1
 11
453.616
 21
400.875
 31
5.1
  0
LINE
  5
B24
330
A02
100
AcDbEntity
  8
Mesh_cs002
100
AcDbLine
 10
453.616
 20
400.875
 30
5.1
 11
453.606
 21
400.879
 31
5.1
  0
LINE
  5
B25
330
A02
100
AcDbEntity
  8
Mesh_cs002
100
AcDbLine
 10
453.606
 20
400.879
 30
5.1
 11
453.209
 21
401.042
 31
5.1
  0
LINE
  5
B26
330
A02
100
AcDbEntity
  8
Mesh_cs002
100
AcDbLine
 10
453.209
 20
401.042
 30
5.1
 11
453.199
 21
401.047
 31
5.1
  0
LINE
  5
B27
330
A02
100
AcDbEntity
  8
Mesh_cs002
100
AcDbLine
 10
453.199
 20
401.047
 30
5.1
 11
452.819
 21
401.245
 31
5.1
  0
LINE
  5
B28
330
A02
100
AcDbEntity
  8
Mesh_cs002
100
AcDbLine
 10
452.819
 20
401.245
 30
5.1
 11
452.81
 21
401.25
 31
5.1
  0
LINE
  5
B29
330
A02
100
AcDbEntity
  8
Mesh_cs002
100
AcDbLine
 10
452.81
 20
401.25
 30
5.1
 11
452.449
 21
401.479
 31
5.1
  0
LINE
  5
B2A
330
A02
100
AcDbEntity
  8
Mesh_cs002
100
AcDbLine
 10
452.449
 20
401.479
 30
5.1
 11
452.44
 21
401.486
 31
5.1
  0
LINE
  5
B2B
330
A02
100
AcDbEntity
  8
Mesh_cs002
100
AcDbLine
 10
452.44
 20
401.486
 30
5.1
 11
452.102
 21
401.745
 31
5.1
  0
LINE
  5
B2C
330
A02
100
AcDbEntity
  8
Mesh_cs002
100
AcDbLine
 10
452.102
 20
401.745
 30
5.1
 11
452.094
 21
401.753
 31
5.1
  0
LINE
  5
B2D
330
A02
100
AcDbEntity
  8
Mesh_cs002
100
AcDbLine
 10
452.094
 20
401.753
 30
5.1
 11
451.775
 21
402.045
 31
5.1
  0
LINE
  5
B2E
330
A02
100
AcDbEntity
  8
Mesh_cs002
100
AcDbLine
 10
451.775
 20
402.045
 30
5.1
 11
451.767
 21
402.053
 31
5.1
  0
LINE
  5
B2F
330
A02
100
AcDbEntity
  8
Mesh_cs002
100
AcDbLine
 10
451.767
 20
402.053
 30
5.1
 11
451.496
 21
402.348
 31
5.1
  0
LINE
  5
B30
330
A02
100
AcDbEntity
  8
Mesh_cs002
100
AcDbLine
 10
451.496
 20
402.348
 30
5.1
 11
451.25
 21
402.664
 31
5.1
  0
LINE
  5
B31
330
A02
100
AcDbEntity
  8
Mesh_cs002
100
AcDbLine
 10
451.25
 20
402.664
 30
5.1
 11
451.244
 21
402.672
 31
5.1
  0
LINE
  5
B32
330
A02
100
AcDbEntity
  8
Mesh_cs002
100
AcDbLine
 10
451.244
 20
402.672
 30
5.1
 11
451.025
 21
403.006
 31
5.1
  0
LINE
  5
B33
330
A02
100
AcDbEntity
  8
Mesh_cs002
100
AcDbLine
 10
451.025
 20
403.006
 30
5.1
 11
451.019
 21
403.015
 31
5.1
  0
LINE
  5
B34
330
A02
100
AcDbEntity
  8
Mesh_cs002
100
AcDbLine
 10
451.019
 20
403.015
 30
5.1
 11
450.829
 21
403.365
 31
5.1
  0
LINE
  5
B35
330
A02
100
AcDbEntity
  8
Mesh_cs002
100
AcDbLine
 10
450.829
 20
403.365
 30
5.1
 11
450.824
 21
403.375
 31
5.1
  0
LINE
  5
B36
330
A02
100
AcDbEntity
  8
Mesh_cs002
100
AcDbLine
 10
450.824
 20
403.375
 30
5.1
 11
450.663
 21
403.739
 31
5.1
  0
LINE
  5
B37
330
A02
100
AcDbEntity
  8
Mesh_cs002
100
AcDbLine
 10
450.663
 20
403.739
 30
5.1
 11
450.66
 21
403.746
 31
5.1
  0
LINE
  5
B38
330
A02
100
AcDbEntity
  8
Mesh_cs002
100
AcDbLine
 10
450.66
 20
403.746
 30
5.1
 11
450.657
 21
403.754
 31
5.1
  0
LINE
  5
B39
330
A02
100
AcDbEntity
  8
Mesh_cs002
100
AcDbLine
 10
450.657
 20
403.754
 30
5.1
 11
450.527
 21
404.129
 31
5.1
  0
LINE
  5
B3A
330
A02
100
AcDbEntity
  8
Mesh_cs002
100
AcDbLine
 10
450.527
 20
404.129
 30
5.1
 11
450.525
 21
404.137
 31
5.1
  0
LINE
  5
B3B
330
A02
100
AcDbEntity
  8
Mesh_cs002
100
AcDbLine
 10
450.525
 20
404.137
 30
5.1
 11
450.425
 21
404.52
 31
5.1
  0
LINE
  5
B3C
330
A02
100
AcDbEntity
  8
Mesh_cs002
100
AcDbLine
 10
450.425
 20
404.52
 30
5.1
 11
450.424
 21
404.529
 31
5.1
  0
LINE
  5
B3D
330
A02
100
AcDbEntity
  8
Mesh_cs002
100
AcDbLine
 10
450.424
 20
404.529
 30
5.1
 11
450.356
 21
404.918
 31
5.1
  0
LINE
  5
B3E
330
A02
100
AcDbEntity
  8
Mesh_cs002
100
AcDbLine
 10
450.356
 20
404.918
 30
5.1
 11
450.354
 21
404.929
 31
5.1
  0
LINE
  5
B3F
330
A02
100
AcDbEntity
  8
Mesh_cs002
100
AcDbLine
 10
450.354
 20
404.929
 30
5.1
 11
450.319
 21
405.322
 31
5.1
  0
LINE
  5
B40
330
A02
100
AcDbEntity
  8
Mesh_cs002
100
AcDbLine
 10
450.319
 20
405.322
 30
5.1
 11
450.318
 21
405.333
 31
5.1
  0
LINE
  5
B41
330
A02
100
AcDbEntity
  8
Mesh_cs002
100
AcDbLine
 10
450.318
 20
405.333
 30
5.1
 11
450.314
 21
405.728
 31
5.1
  0
LINE
  5
B42
330
A02
100
AcDbEntity
  8
Mesh_cs002
100
AcDbLine
 10
450.314
 20
405.728
 30
5.1
 11
450.315
 21
405.739
 31
5.1
  0
LINE
  5
B43
330
A02
100
AcDbEntity
  8
Mesh_cs002
100
AcDbLine
 10
450.315
 20
405.739
 30
5.1
 11
450.343
 21
406.131
 31
5.1
  0
LINE
  5
B44
330
A02
100
AcDbEntity
  8
Mesh_cs002
100
AcDbLine
 10
450.343
 20
406.131
 30
5.1
 11
450.344
 21
406.142
 31
5.1
  0
LINE
  5
B45
330
A02
100
AcDbEntity
  8
Mesh_cs002
100
AcDbLine
 10
450.344
 20
406.142
 30
5.1
 11
450.403
 21
406.531
 31
5.1
  0
LINE
  5
B46
330
A02
100
AcDbEntity
  8
Mesh_cs002
100
AcDbLine
 10
450.403
 20
406.531
 30
5.1
 11
450.406
 21
406.541
 31
5.1
  0
LINE
  5
B47
330
A02
100
AcDbEntity
  8
Mesh_cs002
100
AcDbLine
 10
450.406
 20
406.541
 30
5.1
 11
450.508
 21
406.965
 31
5.1
  0
LINE
  5
B48
330
A02
100
AcDbEntity
  8
Mesh_cs002
100
AcDbLine
 10
450.508
 20
406.965
 30
5.1
 11
450.511
 21
406.976
 31
5.1
  0
LINE
  5
B49
330
A02
100
AcDbEntity
  8
Mesh_cs002
100
AcDbLine
 10
450.511
 20
406.976
 30
5.1
 11
450.651
 21
407.388
 31
5.1
  0
LINE
  5
B4A
330
A02
100
AcDbEntity
  8
Mesh_cs002
100
AcDbLine
 10
450.651
 20
407.388
 30
5.1
 11
450.655
 21
407.398
 31
5.1
  0
LINE
  5
B4B
330
A02
100
AcDbEntity
  8
Mesh_cs002
100
AcDbLine
 10
450.655
 20
407.398
 30
5.1
 11
450.83
 21
407.795
 31
5.1
  0
LINE
  5
B4C
330
A02
100
AcDbEntity
  8
Mesh_cs002
100
AcDbLine
 10
450.83
 20
407.795
 30
5.1
 11
450.835
 21
407.804
 31
5.1
  0
LINE
  5
B4D
330
A02
100
AcDbEntity
  8
Mesh_cs002
100
AcDbLine
 10
450.835
 20
407.804
 30
5.1
 11
451.044
 21
408.183
 31
5.1
  0
LINE
  5
B4E
330
A02
100
AcDbEntity
  8
Mesh_cs002
100
AcDbLine
 10
451.044
 20
408.183
 30
5.1
 11
451.049
 21
408.192
 31
5.1
  0
LINE
  5
B4F
330
A02
100
AcDbEntity
  8
Mesh_cs002
100
AcDbLine
 10
451.049
 20
408.192
 30
5.1
 11
451.291
 21
408.55
 31
5.1
  0
LINE
  5
B50
330
A02
100
AcDbEntity
  8
Mesh_cs002
100
AcDbLine
 10
451.291
 20
408.55
 30
5.1
 11
451.297
 21
408.558
 31
5.1
  0
LINE
  5
B51
330
A02
100
AcDbEntity
  8
Mesh_cs002
100
AcDbLine
 10
451.297
 20
408.558
 30
5.1
 11
451.569
 21
408.893
 31
5.1
  0
LINE
  5
B52
330
A02
100
AcDbEntity
  8
Mesh_cs002
100
AcDbLine
 10
451.569
 20
408.893
 30
5.1
 11
451.575
 21
408.901
 31
5.1
  0
LINE
  5
B53
330
A02
100
AcDbEntity
  8
Mesh_cs002
100
AcDbLine
 10
451.575
 20
408.901
 30
5.1
 11
451.875
 21
409.21
 31
5.1
  0
LINE
  5
B54
330
A02
100
AcDbEntity
  8
Mesh_cs002
100
AcDbLine
 10
451.875
 20
409.21
 30
5.1
 11
451.882
 21
409.217
 31
5.1
  0
LINE
  5
B55
330
A02
100
AcDbEntity
  8
Mesh_cs002
100
AcDbLine
 10
451.882
 20
409.217
 30
5.1
 11
452.208
 21
409.498
 31
5.1
  0
LINE
  5
B56
330
A02
100
AcDbEntity
  8
Mesh_cs002
100
AcDbLine
 10
452.208
 20
409.498
 30
5.1
 11
452.215
 21
409.504
 31
5.1
  0
LINE
  5
B57
330
A02
100
AcDbEntity
  8
Mesh_cs002
100
AcDbLine
 10
452.215
 20
409.504
 30
5.1
 11
452.563
 21
409.755
 31
5.1
  0
LINE
  5
B58
330
A02
100
AcDbEntity
  8
Mesh_cs002
100
AcDbLine
 10
452.563
 20
409.755
 30
5.1
 11
452.572
 21
409.761
 31
5.1
  0
LINE
  5
B59
330
A02
100
AcDbEntity
  8
Mesh_cs002
100
AcDbLine
 10
452.572
 20
409.761
 30
5.1
 11
452.939
 21
409.98
 31
5.1
  0
LINE
  5
B5A
330
A02
100
AcDbEntity
  8
Mesh_cs002
100
AcDbLine
 10
452.939
 20
409.98
 30
5.1
 11
452.948
 21
409.985
 31
5.1
  0
LINE
  5
B5B
330
A02
100
AcDbEntity
  8
Mesh_cs002
100
AcDbLine
 10
452.948
 20
409.985
 30
5.1
 11
453.332
 21
410.17
 31
5.1
  0
LINE
  5
B5C
330
A02
100
AcDbEntity
  8
Mesh_cs002
100
AcDbLine
 10
453.332
 20
410.17
 30
5.1
 11
453.342
 21
410.174
 31
5.1
  0
LINE
  5
B5D
330
A02
100
AcDbEntity
  8
Mesh_cs002
100
AcDbLine
 10
453.342
 20
410.174
 30
5.1
 11
453.55
 21
410.258
 31
5.1
  0
LINE
  5
B5E
330
A02
100
AcDbEntity
  8
Mesh_cs002
100
AcDbLine
 10
453.55
 20
410.258
 30
5.1
 11
453.56
 21
410.262
 31
5.1
  0
LINE
  5
B5F
330
A02
100
AcDbEntity
  8
Mesh_cs002
100
AcDbLine
 10
453.56
 20
410.262
 30
5.1
 11
453.767
 21
410.334
 31
5.1
  0
LINE
  5
B60
330
A02
100
AcDbEntity
  8
Mesh_cs002
100
AcDbLine
 10
453.767
 20
410.334
 30
5.1
 11
454.153
 21
410.442
 31
5.1
  0
LINE
  5
B61
330
A02
100
AcDbEntity
  8
Mesh_cs002
100
AcDbLine
 10
454.153
 20
410.442
 30
5.1
 11
454.163
 21
410.445
 31
5.1
  0
LINE
  5
B62
330
A02
100
AcDbEntity
  8
Mesh_cs002
100
AcDbLine
 10
454.163
 20
410.445
 30
5.1
 11
454.575
 21
410.524
 31
5.1
  0
LINE
  5
B63
330
A02
100
AcDbEntity
  8
Mesh_cs002
100
AcDbLine
 10
454.575
 20
410.524
 30
5.1
 11
454.586
 21
410.526
 31
5.1
  0
LINE
  5
B64
330
A02
100
AcDbEntity
  8
Mesh_cs002
100
AcDbLine
 10
454.586
 20
410.526
 30
5.1
 11
454.984
 21
410.568
 31
5.1
  0
LINE
  5
B65
330
A02
100
AcDbEntity
  8
Mesh_cs002
100
AcDbLine
 10
454.984
 20
410.568
 30
5.1
 11
454.994
 21
410.569
 31
5.1
  0
LINE
  5
B66
330
A02
100
AcDbEntity
  8
Mesh_cs002
100
AcDbLine
 10
454.994
 20
410.569
 30
5.1
 11
455.393
 21
410.578
 31
5.1
  0
LINE
  5
B67
330
A02
100
AcDbEntity
  8
Mesh_cs002
100
AcDbLine
 10
455.393
 20
410.578
 30
5.1
 11
455.403
 21
410.578
 31
5.1
  0
LINE
  5
B68
330
A02
100
AcDbEntity
  8
Mesh_cs002
100
AcDbLine
 10
455.403
 20
410.578
 30
5.1
 11
455.8
 21
410.554
 31
5.1
  0
LINE
  5
B69
330
A02
100
AcDbEntity
  8
Mesh_cs002
100
AcDbLine
 10
455.8
 20
410.554
 30
5.1
 11
455.81
 21
410.554
 31
5.1
  0
LINE
  5
B6A
330
A02
100
AcDbEntity
  8
Mesh_cs002
100
AcDbLine
 10
455.81
 20
410.554
 30
5.1
 11
456.204
 21
410.498
 31
5.1
  0
LINE
  5
B6B
330
A02
100
AcDbEntity
  8
Mesh_cs002
100
AcDbLine
 10
456.204
 20
410.498
 30
5.1
 11
456.214
 21
410.497
 31
5.1
  0
LINE
  5
B6C
330
A02
100
AcDbEntity
  8
Mesh_cs002
100
AcDbLine
 10
456.214
 20
410.497
 30
5.1
 11
456.601
 21
410.409
 31
5.1
  0
LINE
  5
B6D
330
A02
100
AcDbEntity
  8
Mesh_cs002
100
AcDbLine
 10
456.601
 20
410.409
 30
5.1
 11
456.611
 21
410.407
 31
5.1
  0
LINE
  5
B6E
330
A02
100
AcDbEntity
  8
Mesh_cs002
100
AcDbLine
 10
456.611
 20
410.407
 30
5.1
 11
456.989
 21
410.289
 31
5.1
  0
LINE
  5
B6F
330
A02
100
AcDbEntity
  8
Mesh_cs002
100
AcDbLine
 10
456.989
 20
410.289
 30
5.1
 11
456.998
 21
410.286
 31
5.1
  0
LINE
  5
B70
330
A02
100
AcDbEntity
  8
Mesh_cs002
100
AcDbLine
 10
456.998
 20
410.286
 30
5.1
 11
457.365
 21
410.138
 31
5.1
  0
LINE
  5
B71
330
A02
100
AcDbEntity
  8
Mesh_cs002
100
AcDbLine
 10
457.365
 20
410.138
 30
5.1
 11
457.374
 21
410.134
 31
5.1
  0
LINE
  5
B72
330
A02
100
AcDbEntity
  8
Mesh_cs002
100
AcDbLine
 10
457.374
 20
410.134
 30
5.1
 11
457.727
 21
409.957
 31
5.1
  0
LINE
  5
B73
330
A02
100
AcDbEntity
  8
Mesh_cs002
100
AcDbLine
 10
457.727
 20
409.957
 30
5.1
 11
457.736
 21
409.952
 31
5.1
  0
LINE
  5
B74
330
A02
100
AcDbEntity
  8
Mesh_cs002
100
AcDbLine
 10
457.736
 20
409.952
 30
5.1
 11
458.072
 21
409.747
 31
5.1
  0
LINE
  5
B75
330
A02
100
AcDbEntity
  8
Mesh_cs002
100
AcDbLine
 10
458.072
 20
409.747
 30
5.1
 11
458.081
 21
409.742
 31
5.1
  0
LINE
  5
B76
330
A02
100
AcDbEntity
  8
Mesh_cs002
100
AcDbLine
 10
458.081
 20
409.742
 30
5.1
 11
458.399
 21
409.511
 31
5.1
  0
LINE
  5
B77
330
A02
100
AcDbEntity
  8
Mesh_cs002
100
AcDbLine
 10
458.399
 20
409.511
 30
5.1
 11
458.408
 21
409.505
 31
5.1
  0
LINE
  5
B78
330
A02
100
AcDbEntity
  8
Mesh_cs002
100
AcDbLine
 10
458.408
 20
409.505
 30
5.1
 11
458.706
 21
409.25
 31
5.1
  0
LINE
  5
B79
330
A02
100
AcDbEntity
  8
Mesh_cs002
100
AcDbLine
 10
458.706
 20
409.25
 30
5.1
 11
458.714
 21
409.243
 31
5.1
  0
LINE
  5
B7A
330
A02
100
AcDbEntity
  8
Mesh_cs002
100
AcDbLine
 10
458.714
 20
409.243
 30
5.1
 11
458.721
 21
409.236
 31
5.1
  0
LINE
  5
B7B
330
A02
100
AcDbEntity
  8
Mesh_cs002
100
AcDbLine
 10
458.721
 20
409.236
 30
5.1
 11
459.026
 21
408.926
 31
5.1
  0
LINE
  5
B7C
330
A02
100
AcDbEntity
  8
Mesh_cs002
100
AcDbLine
 10
459.026
 20
408.926
 30
5.1
 11
459.033
 21
408.917
 31
5.1
  0
LINE
  5
B7D
330
A02
100
AcDbEntity
  8
Mesh_cs002
100
AcDbLine
 10
459.033
 20
408.917
 30
5.1
 11
459.31
 21
408.582
 31
5.1
  0
LINE
  5
B7E
330
A02
100
AcDbEntity
  8
Mesh_cs002
100
AcDbLine
 10
459.31
 20
408.582
 30
5.1
 11
459.316
 21
408.573
 31
5.1
  0
LINE
  5
B7F
330
A02
100
AcDbEntity
  8
Mesh_cs002
100
AcDbLine
 10
459.316
 20
408.573
 30
5.1
 11
459.561
 21
408.215
 31
5.1
  0
LINE
  5
B80
330
A02
100
AcDbEntity
  8
Mesh_cs002
100
AcDbLine
 10
459.561
 20
408.215
 30
5.1
 11
459.566
 21
408.205
 31
5.1
  0
LINE
  5
B81
330
A02
100
AcDbEntity
  8
Mesh_cs002
100
AcDbLine
 10
459.566
 20
408.205
 30
5.1
 11
459.778
 21
407.827
 31
5.1
  0
LINE
  5
B82
330
A02
100
AcDbEntity
  8
Mesh_cs002
100
AcDbLine
 10
459.778
 20
407.827
 30
5.1
 11
459.782
 21
407.817
 31
5.1
  0
LINE
  5
B83
330
A02
100
AcDbEntity
  8
Mesh_cs002
100
AcDbLine
 10
459.782
 20
407.817
 30
5.1
 11
459.959
 21
407.423
 31
5.1
  0
LINE
  5
B84
330
A02
100
AcDbEntity
  8
Mesh_cs002
100
AcDbLine
 10
459.959
 20
407.423
 30
5.1
 11
459.963
 21
407.413
 31
5.1
  0
LINE
  5
B85
330
A02
100
AcDbEntity
  8
Mesh_cs002
100
AcDbLine
 10
459.963
 20
407.413
 30
5.1
 11
460.104
 21
407.005
 31
5.1
  0
LINE
  5
B86
330
A02
100
AcDbEntity
  8
Mesh_cs002
100
AcDbLine
 10
460.104
 20
407.005
 30
5.1
 11
460.107
 21
406.995
 31
5.1
  0
LINE
  5
B87
330
A02
100
AcDbEntity
  8
Mesh_cs002
100
AcDbLine
 10
460.107
 20
406.995
 30
5.1
 11
460.211
 21
406.577
 31
5.1
  0
LINE
  5
B88
330
A02
100
AcDbEntity
  8
Mesh_cs002
100
AcDbLine
 10
460.211
 20
406.577
 30
5.1
 11
460.213
 21
406.566
 31
5.1
  0
LINE
  5
B89
330
A02
100
AcDbEntity
  8
Mesh_cs002
100
AcDbLine
 10
460.213
 20
406.566
 30
5.1
 11
460.28
 21
406.142
 31
5.1
  0
LINE
  5
B8A
330
A02
100
AcDbEntity
  8
Mesh_cs002
100
AcDbLine
 10
460.28
 20
406.142
 30
5.1
 11
460.281
 21
406.131
 31
5.1
  0
LINE
  5
B8B
330
A02
100
AcDbEntity
  8
Mesh_cs002
100
AcDbLine
 10
460.281
 20
406.131
 30
5.1
 11
460.31
 21
405.704
 31
5.1
  0
LINE
  5
B8C
330
A02
100
AcDbEntity
  8
Mesh_cs002
100
AcDbLine
 10
460.31
 20
405.704
 30
5.1
 11
460.31
 21
405.693
 31
5.1
  0
LINE
  5
B8D
330
A02
100
AcDbEntity
  8
Mesh_cs002
100
AcDbLine
 10
460.31
 20
405.693
 30
5.1
 11
460.302
 21
405.266
 31
5.1
  0
LINE
  5
B8E
330
A02
100
AcDbEntity
  8
Mesh_cs002
100
AcDbLine
 10
460.302
 20
405.266
 30
5.1
 11
460.301
 21
405.255
 31
5.1
  0
LINE
  5
B8F
330
A02
100
AcDbEntity
  8
Mesh_cs002
100
AcDbLine
 10
460.301
 20
405.255
 30
5.1
 11
460.256
 21
404.831
 31
5.1
  0
LINE
  5
B90
330
A02
100
AcDbEntity
  8
Mesh_cs002
100
AcDbLine
 10
460.256
 20
404.831
 30
5.1
 11
460.254
 21
404.82
 31
5.1
  0
LINE
  5
B91
330
A02
100
AcDbEntity
  8
Mesh_cs002
100
AcDbLine
 10
460.254
 20
404.82
 30
5.1
 11
460.171
 21
404.401
 31
5.1
  0
LINE
  5
B92
330
A02
100
AcDbEntity
  8
Mesh_cs002
100
AcDbLine
 10
460.171
 20
404.401
 30
5.1
 11
460.061
 21
404.015
 31
5.1
  0
LINE
  5
B93
330
A02
100
AcDbEntity
  8
Mesh_cs002
100
AcDbLine
 10
460.061
 20
404.015
 30
5.1
 11
460.058
 21
404.004
 31
5.1
  0
LINE
  5
B94
330
A02
100
AcDbEntity
  8
Mesh_cs002
100
AcDbLine
 10
460.058
 20
404.004
 30
5.1
 11
459.916
 21
403.63
 31
5.1
  0
LINE
  5
B95
330
A02
100
AcDbEntity
  8
Mesh_cs002
100
AcDbLine
 10
459.916
 20
403.63
 30
5.1
 11
459.912
 21
403.62
 31
5.1
  0
LINE
  5
B96
330
A02
100
AcDbEntity
  8
Mesh_cs002
100
AcDbLine
 10
459.912
 20
403.62
 30
5.1
 11
459.741
 21
403.259
 31
5.1
  0
LINE
  5
B97
330
A02
100
AcDbEntity
  8
Mesh_cs002
100
AcDbLine
 10
459.741
 20
403.259
 30
5.1
 11
459.736
 21
403.249
 31
5.1
  0
LINE
  5
B98
330
A02
100
AcDbEntity
  8
Mesh_cs002
100
AcDbLine
 10
459.736
 20
403.249
 30
5.1
 11
459.536
 21
402.904
 31
5.1
  0
LINE
  5
B99
330
A02
100
AcDbEntity
  8
Mesh_cs002
100
AcDbLine
 10
459.536
 20
402.904
 30
5.1
 11
459.531
 21
402.895
 31
5.1
  0
LINE
  5
B9A
330
A02
100
AcDbEntity
  8
Mesh_cs002
100
AcDbLine
 10
459.531
 20
402.895
 30
5.1
 11
459.304
 21
402.569
 31
5.1
  0
LINE
  5
B9B
330
A02
100
AcDbEntity
  8
Mesh_cs002
100
AcDbLine
 10
459.304
 20
402.569
 30
5.1
 11
459.298
 21
402.56
 31
5.1
  0
LINE
  5
B9C
330
A02
100
AcDbEntity
  8
Mesh_cs002
100
AcDbLine
 10
459.298
 20
402.56
 30
5.1
 11
459.046
 21
402.254
 31
5.1
  0
LINE
  5
B9D
330
A02
100
AcDbEntity
  8
Mesh_cs002
100
AcDbLine
 10
459.046
 20
402.254
 30
5.1
 11
459.039
 21
402.246
 31
5.1
  0
LINE
  5
B9E
330
A02
100
AcDbEntity
  8
Mesh_cs002
100
AcDbLine
 10
459.039
 20
402.246
 30
5.1
 11
458.763
 21
401.961
 31
5.1
  0
LINE
  5
B9F
330
A02
100
AcDbEntity
  8
Mesh_cs002
100
AcDbLine
 10
458.763
 20
401.961
 30
5.1
 11
458.756
 21
401.954
 31
5.1
  0
LINE
  5
BA0
330
A02
100
AcDbEntity
  8
Mesh_cs002
100
AcDbLine
 10
458.756
 20
401.954
 30
5.1
 11
458.458
 21
401.693
 31
5.1
  0
LINE
  5
BA1
330
A02
100
AcDbEntity
  8
Mesh_cs002
100
AcDbLine
 10
458.458
 20
401.693
 30
5.1
 11
458.451
 21
401.686
 31
5.1
  0
LINE
  5
BA2
330
A02
100
AcDbEntity
  8
Mesh_cs002
100
AcDbLine
 10
458.451
 20
401.686
 30
5.1
 11
458.133
 21
401.451
 31
5.1
  0
LINE
  5
BA3
330
A02
100
AcDbEntity
  8
Mesh_cs002
100
AcDbLine
 10
458.133
 20
401.451
 30
5.1
 11
458.125
 21
401.445
 31
5.1
  0
LINE
  5
BA4
330
A02
100
AcDbEntity
  8
Mesh_cs002
100
AcDbLine
 10
458.125
 20
401.445
 30
5.1
 11
457.79
 21
401.236
 31
5.1
  0
LINE
  5
BA5
330
A02
100
AcDbEntity
  8
Mesh_cs002
100
AcDbLine
 10
457.79
 20
401.236
 30
5.1
 11
457.782
 21
401.231
 31
5.1
  0
LINE
  5
BA6
330
A02
100
AcDbEntity
  8
Mesh_cs002
100
AcDbLine
 10
457.782
 20
401.231
 30
5.1
 11
457.432
 21
401.051
 31
5.1
  0
LINE
  5
BA7
330
A02
100
AcDbEntity
  8
Mesh_cs002
100
AcDbLine
 10
457.432
 20
401.051
 30
5.1
 11
457.423
 21
401.046
 31
5.1
  0
LINE
  5
BA8
330
A02
100
AcDbEntity
  8
Mesh_cs002
100
AcDbLine
 10
457.423
 20
401.046
 30
5.1
 11
457.06
 21
400.895
 31
5.1
  0
LINE
  5
BA9
330
A02
100
AcDbEntity
  8
Mesh_cs002
100
AcDbLine
 10
457.06
 20
400.895
 30
5.1
 11
457.051
 21
400.891
 31
5.1
  0
LINE
  5
BAA
330
A02
100
AcDbEntity
  8
Mesh_cs002
100
AcDbLine
 10
457.051
 20
400.891
 30
5.1
 11
456.677
 21
400.769
 31
5.1
  0
LINE
  5
BAB
330
A02
100
AcDbEntity
  8
Mesh_cs002
100
AcDbLine
 10
405.63
 20
557.876
 30
5.1
 11
405.621
 21
557.873
 31
5.1
  0
LINE
  5
BAC
330
A02
100
AcDbEntity
  8
Mesh_cs002
100
AcDbLine
 10
405.621
 20
557.873
 30
5.1
 11
405.219
 21
557.704
 31
5.1
  0
LINE
  5
BAD
330
A02
100
AcDbEntity
  8
Mesh_cs002
100
AcDbLine
 10
405.219
 20
557.704
 30
5.1
 11
405.21
 21
557.7
 31
5.1
  0
LINE
  5
BAE
330
A02
100
AcDbEntity
  8
Mesh_cs002
100
AcDbLine
 10
405.21
 20
557.7
 30
5.1
 11
404.826
 21
557.497
 31
5.1
  0
LINE
  5
BAF
330
A02
100
AcDbEntity
  8
Mesh_cs002
100
AcDbLine
 10
404.826
 20
557.497
 30
5.1
 11
404.817
 21
557.492
 31
5.1
  0
LINE
  5
BB0
330
A02
100
AcDbEntity
  8
Mesh_cs002
100
AcDbLine
 10
404.817
 20
557.492
 30
5.1
 11
404.809
 21
557.487
 31
5.1
  0
LINE
  5
BB1
330
A02
100
AcDbEntity
  8
Mesh_cs002
100
AcDbLine
 10
404.809
 20
557.487
 30
5.1
 11
404.445
 21
557.251
 31
5.1
  0
LINE
  5
BB2
330
A02
100
AcDbEntity
  8
Mesh_cs002
100
AcDbLine
 10
404.445
 20
557.251
 30
5.1
 11
404.437
 21
557.245
 31
5.1
  0
LINE
  5
BB3
330
A02
100
AcDbEntity
  8
Mesh_cs002
100
AcDbLine
 10
404.437
 20
557.245
 30
5.1
 11
404.097
 21
556.978
 31
5.1
  0
LINE
  5
BB4
330
A02
100
AcDbEntity
  8
Mesh_cs002
100
AcDbLine
 10
404.097
 20
556.978
 30
5.1
 11
404.089
 21
556.97
 31
5.1
  0
LINE
  5
BB5
330
A02
100
AcDbEntity
  8
Mesh_cs002
100
AcDbLine
 10
404.089
 20
556.97
 30
5.1
 11
403.774
 21
556.675
 31
5.1
  0
LINE
  5
BB6
330
A02
100
AcDbEntity
  8
Mesh_cs002
100
AcDbLine
 10
403.774
 20
556.675
 30
5.1
 11
403.766
 21
556.666
 31
5.1
  0
LINE
  5
BB7
330
A02
100
AcDbEntity
  8
Mesh_cs002
100
AcDbLine
 10
403.766
 20
556.666
 30
5.1
 11
403.479
 21
556.345
 31
5.1
  0
LINE
  5
BB8
330
A02
100
AcDbEntity
  8
Mesh_cs002
100
AcDbLine
 10
403.479
 20
556.345
 30
5.1
 11
403.473
 21
556.336
 31
5.1
  0
LINE
  5
BB9
330
A02
100
AcDbEntity
  8
Mesh_cs002
100
AcDbLine
 10
403.473
 20
556.336
 30
5.1
 11
403.216
 21
555.991
 31
5.1
  0
LINE
  5
BBA
330
A02
100
AcDbEntity
  8
Mesh_cs002
100
AcDbLine
 10
403.216
 20
555.991
 30
5.1
 11
403.21
 21
555.982
 31
5.1
  0
LINE
  5
BBB
330
A02
100
AcDbEntity
  8
Mesh_cs002
100
AcDbLine
 10
403.21
 20
555.982
 30
5.1
 11
402.985
 21
555.617
 31
5.1
  0
LINE
  5
BBC
330
A02
100
AcDbEntity
  8
Mesh_cs002
100
AcDbLine
 10
402.985
 20
555.617
 30
5.1
 11
402.98
 21
555.607
 31
5.1
  0
LINE
  5
BBD
330
A02
100
AcDbEntity
  8
Mesh_cs002
100
AcDbLine
 10
402.98
 20
555.607
 30
5.1
 11
402.788
 21
555.224
 31
5.1
  0
LINE
  5
BBE
330
A02
100
AcDbEntity
  8
Mesh_cs002
100
AcDbLine
 10
402.788
 20
555.224
 30
5.1
 11
402.784
 21
555.214
 31
5.1
  0
LINE
  5
BBF
330
A02
100
AcDbEntity
  8
Mesh_cs002
100
AcDbLine
 10
402.784
 20
555.214
 30
5.1
 11
402.627
 21
554.816
 31
5.1
  0
LINE
  5
BC0
330
A02
100
AcDbEntity
  8
Mesh_cs002
100
AcDbLine
 10
402.627
 20
554.816
 30
5.1
 11
402.624
 21
554.806
 31
5.1
  0
LINE
  5
BC1
330
A02
100
AcDbEntity
  8
Mesh_cs002
100
AcDbLine
 10
402.624
 20
554.806
 30
5.1
 11
402.502
 21
554.397
 31
5.1
  0
LINE
  5
BC2
330
A02
100
AcDbEntity
  8
Mesh_cs002
100
AcDbLine
 10
402.502
 20
554.397
 30
5.1
 11
402.5
 21
554.387
 31
5.1
  0
LINE
  5
BC3
330
A02
100
AcDbEntity
  8
Mesh_cs002
100
AcDbLine
 10
402.5
 20
554.387
 30
5.1
 11
402.414
 21
553.963
 31
5.1
  0
LINE
  5
BC4
330
A02
100
AcDbEntity
  8
Mesh_cs002
100
AcDbLine
 10
402.414
 20
553.963
 30
5.1
 11
402.412
 21
553.952
 31
5.1
  0
LINE
  5
BC5
330
A02
100
AcDbEntity
  8
Mesh_cs002
100
AcDbLine
 10
402.412
 20
553.952
 30
5.1
 11
402.366
 21
553.554
 31
5.1
  0
LINE
  5
BC6
330
A02
100
AcDbEntity
  8
Mesh_cs002
100
AcDbLine
 10
402.366
 20
553.554
 30
5.1
 11
402.353
 21
553.154
 31
5.1
  0
LINE
  5
BC7
330
A02
100
AcDbEntity
  8
Mesh_cs002
100
AcDbLine
 10
402.353
 20
553.154
 30
5.1
 11
402.353
 21
553.143
 31
5.1
  0
LINE
  5
BC8
330
A02
100
AcDbEntity
  8
Mesh_cs002
100
AcDbLine
 10
402.353
 20
553.143
 30
5.1
 11
402.372
 21
552.744
 31
5.1
  0
LINE
  5
BC9
330
A02
100
AcDbEntity
  8
Mesh_cs002
100
AcDbLine
 10
402.372
 20
552.744
 30
5.1
 11
402.373
 21
552.733
 31
5.1
  0
LINE
  5
BCA
330
A02
100
AcDbEntity
  8
Mesh_cs002
100
AcDbLine
 10
402.373
 20
552.733
 30
5.1
 11
402.425
 21
552.338
 31
5.1
  0
LINE
  5
BCB
330
A02
100
AcDbEntity
  8
Mesh_cs002
100
AcDbLine
 10
402.425
 20
552.338
 30
5.1
 11
402.426
 21
552.327
 31
5.1
  0
LINE
  5
BCC
330
A02
100
AcDbEntity
  8
Mesh_cs002
100
AcDbLine
 10
402.426
 20
552.327
 30
5.1
 11
402.51
 21
551.939
 31
5.1
  0
LINE
  5
BCD
330
A02
100
AcDbEntity
  8
Mesh_cs002
100
AcDbLine
 10
402.51
 20
551.939
 30
5.1
 11
402.512
 21
551.931
 31
5.1
  0
LINE
  5
BCE
330
A02
100
AcDbEntity
  8
Mesh_cs002
100
AcDbLine
 10
402.512
 20
551.931
 30
5.1
 11
402.514
 21
551.923
 31
5.1
  0
LINE
  5
BCF
330
A02
100
AcDbEntity
  8
Mesh_cs002
100
AcDbLine
 10
402.514
 20
551.923
 30
5.1
 11
402.629
 21
551.543
 31
5.1
  0
LINE
  5
BD0
330
A02
100
AcDbEntity
  8
Mesh_cs002
100
AcDbLine
 10
402.629
 20
551.543
 30
5.1
 11
402.632
 21
551.535
 31
5.1
  0
LINE
  5
BD1
330
A02
100
AcDbEntity
  8
Mesh_cs002
100
AcDbLine
 10
402.632
 20
551.535
 30
5.1
 11
402.777
 21
551.167
 31
5.1
  0
LINE
  5
BD2
330
A02
100
AcDbEntity
  8
Mesh_cs002
100
AcDbLine
 10
402.777
 20
551.167
 30
5.1
 11
402.78
 21
551.159
 31
5.1
  0
LINE
  5
BD3
330
A02
100
AcDbEntity
  8
Mesh_cs002
100
AcDbLine
 10
402.78
 20
551.159
 30
5.1
 11
402.955
 21
550.804
 31
5.1
  0
LINE
  5
BD4
330
A02
100
AcDbEntity
  8
Mesh_cs002
100
AcDbLine
 10
402.955
 20
550.804
 30
5.1
 11
402.96
 21
550.794
 31
5.1
  0
LINE
  5
BD5
330
A02
100
AcDbEntity
  8
Mesh_cs002
100
AcDbLine
 10
402.96
 20
550.794
 30
5.1
 11
403.162
 21
550.455
 31
5.1
  0
LINE
  5
BD6
330
A02
100
AcDbEntity
  8
Mesh_cs002
100
AcDbLine
 10
403.162
 20
550.455
 30
5.1
 11
403.168
 21
550.446
 31
5.1
  0
LINE
  5
BD7
330
A02
100
AcDbEntity
  8
Mesh_cs002
100
AcDbLine
 10
403.168
 20
550.446
 30
5.1
 11
403.397
 21
550.125
 31
5.1
  0
LINE
  5
BD8
330
A02
100
AcDbEntity
  8
Mesh_cs002
100
AcDbLine
 10
403.397
 20
550.125
 30
5.1
 11
403.404
 21
550.116
 31
5.1
  0
LINE
  5
BD9
330
A02
100
AcDbEntity
  8
Mesh_cs002
100
AcDbLine
 10
403.404
 20
550.116
 30
5.1
 11
403.657
 21
549.815
 31
5.1
  0
LINE
  5
BDA
330
A02
100
AcDbEntity
  8
Mesh_cs002
100
AcDbLine
 10
403.657
 20
549.815
 30
5.1
 11
403.665
 21
549.807
 31
5.1
  0
LINE
  5
BDB
330
A02
100
AcDbEntity
  8
Mesh_cs002
100
AcDbLine
 10
403.665
 20
549.807
 30
5.1
 11
403.941
 21
549.528
 31
5.1
  0
LINE
  5
BDC
330
A02
100
AcDbEntity
  8
Mesh_cs002
100
AcDbLine
 10
403.941
 20
549.528
 30
5.1
 11
403.949
 21
549.52
 31
5.1
  0
LINE
  5
BDD
330
A02
100
AcDbEntity
  8
Mesh_cs002
100
AcDbLine
 10
403.949
 20
549.52
 30
5.1
 11
404.281
 21
549.238
 31
5.1
  0
LINE
  5
BDE
330
A02
100
AcDbEntity
  8
Mesh_cs002
100
AcDbLine
 10
404.281
 20
549.238
 30
5.1
 11
404.29
 21
549.231
 31
5.1
  0
LINE
  5
BDF
330
A02
100
AcDbEntity
  8
Mesh_cs002
100
AcDbLine
 10
404.29
 20
549.231
 30
5.1
 11
404.645
 21
548.979
 31
5.1
  0
LINE
  5
BE0
330
A02
100
AcDbEntity
  8
Mesh_cs002
100
AcDbLine
 10
404.645
 20
548.979
 30
5.1
 11
404.654
 21
548.974
 31
5.1
  0
LINE
  5
BE1
330
A02
100
AcDbEntity
  8
Mesh_cs002
100
AcDbLine
 10
404.654
 20
548.974
 30
5.1
 11
405.029
 21
548.755
 31
5.1
  0
LINE
  5
BE2
330
A02
100
AcDbEntity
  8
Mesh_cs002
100
AcDbLine
 10
405.029
 20
548.755
 30
5.1
 11
405.038
 21
548.751
 31
5.1
  0
LINE
  5
BE3
330
A02
100
AcDbEntity
  8
Mesh_cs002
100
AcDbLine
 10
405.038
 20
548.751
 30
5.1
 11
405.431
 21
548.567
 31
5.1
  0
LINE
  5
BE4
330
A02
100
AcDbEntity
  8
Mesh_cs002
100
AcDbLine
 10
405.431
 20
548.567
 30
5.1
 11
405.44
 21
548.563
 31
5.1
  0
LINE
  5
BE5
330
A02
100
AcDbEntity
  8
Mesh_cs002
100
AcDbLine
 10
405.44
 20
548.563
 30
5.1
 11
405.846
 21
548.415
 31
5.1
  0
LINE
  5
BE6
330
A02
100
AcDbEntity
  8
Mesh_cs002
100
AcDbLine
 10
405.846
 20
548.415
 30
5.1
 11
405.856
 21
548.412
 31
5.1
  0
LINE
  5
BE7
330
A02
100
AcDbEntity
  8
Mesh_cs002
100
AcDbLine
 10
405.856
 20
548.412
 30
5.1
 11
406.273
 21
548.301
 31
5.1
  0
LINE
  5
BE8
330
A02
100
AcDbEntity
  8
Mesh_cs002
100
AcDbLine
 10
406.273
 20
548.301
 30
5.1
 11
406.282
 21
548.299
 31
5.1
  0
LINE
  5
BE9
330
A02
100
AcDbEntity
  8
Mesh_cs002
100
AcDbLine
 10
406.282
 20
548.299
 30
5.1
 11
406.707
 21
548.225
 31
5.1
  0
LINE
  5
BEA
330
A02
100
AcDbEntity
  8
Mesh_cs002
100
AcDbLine
 10
406.707
 20
548.225
 30
5.1
 11
406.717
 21
548.223
 31
5.1
  0
LINE
  5
BEB
330
A02
100
AcDbEntity
  8
Mesh_cs002
100
AcDbLine
 10
406.717
 20
548.223
 30
5.1
 11
407.145
 21
548.187
 31
5.1
  0
LINE
  5
BEC
330
A02
100
AcDbEntity
  8
Mesh_cs002
100
AcDbLine
 10
407.145
 20
548.187
 30
5.1
 11
407.155
 21
548.187
 31
5.1
  0
LINE
  5
BED
330
A02
100
AcDbEntity
  8
Mesh_cs002
100
AcDbLine
 10
407.155
 20
548.187
 30
5.1
 11
407.583
 21
548.188
 31
5.1
  0
LINE
  5
BEE
330
A02
100
AcDbEntity
  8
Mesh_cs002
100
AcDbLine
 10
407.583
 20
548.188
 30
5.1
 11
407.594
 21
548.189
 31
5.1
  0
LINE
  5
BEF
330
A02
100
AcDbEntity
  8
Mesh_cs002
100
AcDbLine
 10
407.594
 20
548.189
 30
5.1
 11
408.02
 21
548.228
 31
5.1
  0
LINE
  5
BF0
330
A02
100
AcDbEntity
  8
Mesh_cs002
100
AcDbLine
 10
408.02
 20
548.228
 30
5.1
 11
408.03
 21
548.229
 31
5.1
  0
LINE
  5
BF1
330
A02
100
AcDbEntity
  8
Mesh_cs002
100
AcDbLine
 10
408.03
 20
548.229
 30
5.1
 11
408.45
 21
548.305
 31
5.1
  0
LINE
  5
BF2
330
A02
100
AcDbEntity
  8
Mesh_cs002
100
AcDbLine
 10
408.45
 20
548.305
 30
5.1
 11
408.46
 21
548.307
 31
5.1
  0
LINE
  5
BF3
330
A02
100
AcDbEntity
  8
Mesh_cs002
100
AcDbLine
 10
408.46
 20
548.307
 30
5.1
 11
408.678
 21
548.362
 31
5.1
  0
LINE
  5
BF4
330
A02
100
AcDbEntity
  8
Mesh_cs002
100
AcDbLine
 10
408.678
 20
548.362
 30
5.1
 11
408.688
 21
548.364
 31
5.1
  0
LINE
  5
BF5
330
A02
100
AcDbEntity
  8
Mesh_cs002
100
AcDbLine
 10
408.688
 20
548.364
 30
5.1
 11
408.898
 21
548.427
 31
5.1
  0
LINE
  5
BF6
330
A02
100
AcDbEntity
  8
Mesh_cs002
100
AcDbLine
 10
408.898
 20
548.427
 30
5.1
 11
409.274
 21
548.567
 31
5.1
  0
LINE
  5
BF7
330
A02
100
AcDbEntity
  8
Mesh_cs002
100
AcDbLine
 10
409.274
 20
548.567
 30
5.1
 11
409.284
 21
548.571
 31
5.1
  0
LINE
  5
BF8
330
A02
100
AcDbEntity
  8
Mesh_cs002
100
AcDbLine
 10
409.284
 20
548.571
 30
5.1
 11
409.663
 21
548.749
 31
5.1
  0
LINE
  5
BF9
330
A02
100
AcDbEntity
  8
Mesh_cs002
100
AcDbLine
 10
409.663
 20
548.749
 30
5.1
 11
409.673
 21
548.754
 31
5.1
  0
LINE
  5
BFA
330
A02
100
AcDbEntity
  8
Mesh_cs002
100
AcDbLine
 10
409.673
 20
548.754
 30
5.1
 11
410.019
 21
548.954
 31
5.1
  0
LINE
  5
BFB
330
A02
100
AcDbEntity
  8
Mesh_cs002
100
AcDbLine
 10
410.019
 20
548.954
 30
5.1
 11
410.028
 21
548.959
 31
5.1
  0
LINE
  5
BFC
330
A02
100
AcDbEntity
  8
Mesh_cs002
100
AcDbLine
 10
410.028
 20
548.959
 30
5.1
 11
410.356
 21
549.186
 31
5.1
  0
LINE
  5
BFD
330
A02
100
AcDbEntity
  8
Mesh_cs002
100
AcDbLine
 10
410.356
 20
549.186
 30
5.1
 11
410.365
 21
549.192
 31
5.1
  0
LINE
  5
BFE
330
A02
100
AcDbEntity
  8
Mesh_cs002
100
AcDbLine
 10
410.365
 20
549.192
 30
5.1
 11
410.672
 21
549.444
 31
5.1
  0
LINE
  5
BFF
330
A02
100
AcDbEntity
  8
Mesh_cs002
100
AcDbLine
 10
410.672
 20
549.444
 30
5.1
 11
410.68
 21
549.451
 31
5.1
  0
LINE
  5
C00
330
A02
100
AcDbEntity
  8
Mesh_cs002
100
AcDbLine
 10
410.68
 20
549.451
 30
5.1
 11
410.966
 21
549.727
 31
5.1
  0
LINE
  5
C01
330
A02
100
AcDbEntity
  8
Mesh_cs002
100
AcDbLine
 10
410.966
 20
549.727
 30
5.1
 11
410.973
 21
549.734
 31
5.1
  0
LINE
  5
C02
330
A02
100
AcDbEntity
  8
Mesh_cs002
100
AcDbLine
 10
410.973
 20
549.734
 30
5.1
 11
411.235
 21
550.032
 31
5.1
  0
LINE
  5
C03
330
A02
100
AcDbEntity
  8
Mesh_cs002
100
AcDbLine
 10
411.235
 20
550.032
 30
5.1
 11
411.241
 21
550.04
 31
5.1
  0
LINE
  5
C04
330
A02
100
AcDbEntity
  8
Mesh_cs002
100
AcDbLine
 10
411.241
 20
550.04
 30
5.1
 11
411.478
 21
550.358
 31
5.1
  0
LINE
  5
C05
330
A02
100
AcDbEntity
  8
Mesh_cs002
100
AcDbLine
 10
411.478
 20
550.358
 30
5.1
 11
411.484
 21
550.366
 31
5.1
  0
LINE
  5
C06
330
A02
100
AcDbEntity
  8
Mesh_cs002
100
AcDbLine
 10
411.484
 20
550.366
 30
5.1
 11
411.693
 21
550.701
 31
5.1
  0
LINE
  5
C07
330
A02
100
AcDbEntity
  8
Mesh_cs002
100
AcDbLine
 10
411.693
 20
550.701
 30
5.1
 11
411.698
 21
550.71
 31
5.1
  0
LINE
  5
C08
330
A02
100
AcDbEntity
  8
Mesh_cs002
100
AcDbLine
 10
411.698
 20
550.71
 30
5.1
 11
411.879
 21
551.06
 31
5.1
  0
LINE
  5
C09
330
A02
100
AcDbEntity
  8
Mesh_cs002
100
AcDbLine
 10
411.879
 20
551.06
 30
5.1
 11
412.036
 21
551.433
 31
5.1
  0
LINE
  5
C0A
330
A02
100
AcDbEntity
  8
Mesh_cs002
100
AcDbLine
 10
412.036
 20
551.433
 30
5.1
 11
412.162
 21
551.816
 31
5.1
  0
LINE
  5
C0B
330
A02
100
AcDbEntity
  8
Mesh_cs002
100
AcDbLine
 10
412.162
 20
551.816
 30
5.1
 11
412.165
 21
551.826
 31
5.1
  0
LINE
  5
C0C
330
A02
100
AcDbEntity
  8
Mesh_cs002
100
AcDbLine
 10
412.165
 20
551.826
 30
5.1
 11
412.256
 21
552.208
 31
5.1
  0
LINE
  5
C0D
330
A02
100
AcDbEntity
  8
Mesh_cs002
100
AcDbLine
 10
412.256
 20
552.208
 30
5.1
 11
412.26
 21
552.227
 31
5.1
  0
LINE
  5
C0E
330
A02
100
AcDbEntity
  8
Mesh_cs002
100
AcDbLine
 10
412.26
 20
552.227
 30
5.1
 11
412.325
 21
552.658
 31
5.1
  0
LINE
  5
C0F
330
A02
100
AcDbEntity
  8
Mesh_cs002
100
AcDbLine
 10
412.325
 20
552.658
 30
5.1
 11
412.352
 21
553.103
 31
5.1
  0
LINE
  5
C10
330
A02
100
AcDbEntity
  8
Mesh_cs002
100
AcDbLine
 10
412.352
 20
553.103
 30
5.1
 11
412.339
 21
553.548
 31
5.1
  0
LINE
  5
C11
330
A02
100
AcDbEntity
  8
Mesh_cs002
100
AcDbLine
 10
412.339
 20
553.548
 30
5.1
 11
412.287
 21
553.988
 31
5.1
  0
LINE
  5
C12
330
A02
100
AcDbEntity
  8
Mesh_cs002
100
AcDbLine
 10
412.287
 20
553.988
 30
5.1
 11
412.197
 21
554.422
 31
5.1
  0
LINE
  5
C13
330
A02
100
AcDbEntity
  8
Mesh_cs002
100
AcDbLine
 10
412.197
 20
554.422
 30
5.1
 11
412.068
 21
554.845
 31
5.1
  0
LINE
  5
C14
330
A02
100
AcDbEntity
  8
Mesh_cs002
100
AcDbLine
 10
412.068
 20
554.845
 30
5.1
 11
411.903
 21
555.255
 31
5.1
  0
LINE
  5
C15
330
A02
100
AcDbEntity
  8
Mesh_cs002
100
AcDbLine
 10
411.903
 20
555.255
 30
5.1
 11
411.703
 21
555.647
 31
5.1
  0
LINE
  5
C16
330
A02
100
AcDbEntity
  8
Mesh_cs002
100
AcDbLine
 10
411.703
 20
555.647
 30
5.1
 11
411.47
 21
556.019
 31
5.1
  0
LINE
  5
C17
330
A02
100
AcDbEntity
  8
Mesh_cs002
100
AcDbLine
 10
411.47
 20
556.019
 30
5.1
 11
411.206
 21
556.369
 31
5.1
  0
LINE
  5
C18
330
A02
100
AcDbEntity
  8
Mesh_cs002
100
AcDbLine
 10
411.206
 20
556.369
 30
5.1
 11
410.913
 21
556.694
 31
5.1
  0
LINE
  5
C19
330
A02
100
AcDbEntity
  8
Mesh_cs002
100
AcDbLine
 10
410.913
 20
556.694
 30
5.1
 11
410.591
 21
556.992
 31
5.1
  0
LINE
  5
C1A
330
A02
100
AcDbEntity
  8
Mesh_cs002
100
AcDbLine
 10
410.591
 20
556.992
 30
5.1
 11
410.275
 21
557.239
 31
5.1
  0
LINE
  5
C1B
330
A02
100
AcDbEntity
  8
Mesh_cs002
100
AcDbLine
 10
410.275
 20
557.239
 30
5.1
 11
409.932
 21
557.466
 31
5.1
  0
LINE
  5
C1C
330
A02
100
AcDbEntity
  8
Mesh_cs002
100
AcDbLine
 10
409.932
 20
557.466
 30
5.1
 11
409.572
 21
557.663
 31
5.1
  0
LINE
  5
C1D
330
A02
100
AcDbEntity
  8
Mesh_cs002
100
AcDbLine
 10
409.572
 20
557.663
 30
5.1
 11
409.198
 21
557.829
 31
5.1
  0
LINE
  5
C1E
330
A02
100
AcDbEntity
  8
Mesh_cs002
100
AcDbLine
 10
409.198
 20
557.829
 30
5.1
 11
408.813
 21
557.964
 31
5.1
  0
LINE
  5
C1F
330
A02
100
AcDbEntity
  8
Mesh_cs002
100
AcDbLine
 10
408.813
 20
557.964
 30
5.1
 11
408.419
 21
558.067
 31
5.1
  0
LINE
  5
C20
330
A02
100
AcDbEntity
  8
Mesh_cs002
100
AcDbLine
 10
408.419
 20
558.067
 30
5.1
 11
408.018
 21
558.138
 31
5.1
  0
LINE
  5
C21
330
A02
100
AcDbEntity
  8
Mesh_cs002
100
AcDbLine
 10
408.018
 20
558.138
 30
5.1
 11
408.008
 21
558.14
 31
5.1
  0
LINE
  5
C22
330
A02
100
AcDbEntity
  8
Mesh_cs002
100
AcDbLine
 10
408.008
 20
558.14
 30
5.1
 11
407.614
 21
558.176
 31
5.1
  0
LINE
  5
C23
330
A02
100
AcDbEntity
  8
Mesh_cs002
100
AcDbLine
 10
407.614
 20
558.176
 30
5.1
 11
407.604
 21
558.176
 31
5.1
  0
LINE
  5
C24
330
A02
100
AcDbEntity
  8
Mesh_cs002
100
AcDbLine
 10
407.604
 20
558.176
 30
5.1
 11
407.209
 21
558.18
 31
5.1
  0
LINE
  5
C25
330
A02
100
AcDbEntity
  8
Mesh_cs002
100
AcDbLine
 10
407.209
 20
558.18
 30
5.1
 11
406.805
 21
558.152
 31
5.1
  0
LINE
  5
C26
330
A02
100
AcDbEntity
  8
Mesh_cs002
100
AcDbLine
 10
406.805
 20
558.152
 30
5.1
 11
406.406
 21
558.092
 31
5.1
  0
LINE
  5
C27
330
A02
100
AcDbEntity
  8
Mesh_cs002
100
AcDbLine
 10
406.406
 20
558.092
 30
5.1
 11
406.396
 21
558.09
 31
5.1
  0
LINE
  5
C28
330
A02
100
AcDbEntity
  8
Mesh_cs002
100
AcDbLine
 10
406.396
 20
558.09
 30
5.1
 11
406.013
 21
558
 31
5.1
  0
LINE
  5
C29
330
A02
100
AcDbEntity
  8
Mesh_cs002
100
AcDbLine
 10
406.013
 20
558
 30
5.1
 11
405.63
 21
557.876
 31
5.1
  0
LINE
  5
C2A
330
A02
100
AcDbEntity
  8
Mesh_cs002
100
AcDbLine
 10
273.629
 20
267.777
 30
5.1
 11
273.635
 21
267.785
 31
5.1
  0
LINE
  5
C2B
330
A02
100
AcDbEntity
  8
Mesh_cs002
100
AcDbLine
 10
273.635
 20
267.785
 30
5.1
 11
273.86
 21
268.157
 31
5.1
  0
LINE
  5
C2C
330
A02
100
AcDbEntity
  8
Mesh_cs002
100
AcDbLine
 10
273.86
 20
268.157
 30
5.1
 11
273.865
 21
268.166
 31
5.1
  0
LINE
  5
C2D
330
A02
100
AcDbEntity
  8
Mesh_cs002
100
AcDbLine
 10
273.865
 20
268.166
 30
5.1
 11
274.056
 21
268.556
 31
5.1
  0
LINE
  5
C2E
330
A02
100
AcDbEntity
  8
Mesh_cs002
100
AcDbLine
 10
274.056
 20
268.556
 30
5.1
 11
274.061
 21
268.565
 31
5.1
  0
LINE
  5
C2F
330
A02
100
AcDbEntity
  8
Mesh_cs002
100
AcDbLine
 10
274.061
 20
268.565
 30
5.1
 11
274.064
 21
268.574
 31
5.1
  0
LINE
  5
C30
330
A02
100
AcDbEntity
  8
Mesh_cs002
100
AcDbLine
 10
274.064
 20
268.574
 30
5.1
 11
274.22
 21
268.979
 31
5.1
  0
LINE
  5
C31
330
A02
100
AcDbEntity
  8
Mesh_cs002
100
AcDbLine
 10
274.22
 20
268.979
 30
5.1
 11
274.223
 21
268.989
 31
5.1
  0
LINE
  5
C32
330
A02
100
AcDbEntity
  8
Mesh_cs002
100
AcDbLine
 10
274.223
 20
268.989
 30
5.1
 11
274.341
 21
269.405
 31
5.1
  0
LINE
  5
C33
330
A02
100
AcDbEntity
  8
Mesh_cs002
100
AcDbLine
 10
274.341
 20
269.405
 30
5.1
 11
274.343
 21
269.416
 31
5.1
  0
LINE
  5
C34
330
A02
100
AcDbEntity
  8
Mesh_cs002
100
AcDbLine
 10
274.343
 20
269.416
 30
5.1
 11
274.424
 21
269.84
 31
5.1
  0
LINE
  5
C35
330
A02
100
AcDbEntity
  8
Mesh_cs002
100
AcDbLine
 10
274.424
 20
269.84
 30
5.1
 11
274.426
 21
269.851
 31
5.1
  0
LINE
  5
C36
330
A02
100
AcDbEntity
  8
Mesh_cs002
100
AcDbLine
 10
274.426
 20
269.851
 30
5.1
 11
274.469
 21
270.28
 31
5.1
  0
LINE
  5
C37
330
A02
100
AcDbEntity
  8
Mesh_cs002
100
AcDbLine
 10
274.469
 20
270.28
 30
5.1
 11
274.469
 21
270.291
 31
5.1
  0
LINE
  5
C38
330
A02
100
AcDbEntity
  8
Mesh_cs002
100
AcDbLine
 10
274.469
 20
270.291
 30
5.1
 11
274.474
 21
270.721
 31
5.1
  0
LINE
  5
C39
330
A02
100
AcDbEntity
  8
Mesh_cs002
100
AcDbLine
 10
274.474
 20
270.721
 30
5.1
 11
274.473
 21
270.732
 31
5.1
  0
LINE
  5
C3A
330
A02
100
AcDbEntity
  8
Mesh_cs002
100
AcDbLine
 10
274.473
 20
270.732
 30
5.1
 11
274.441
 21
271.16
 31
5.1
  0
LINE
  5
C3B
330
A02
100
AcDbEntity
  8
Mesh_cs002
100
AcDbLine
 10
274.441
 20
271.16
 30
5.1
 11
274.439
 21
271.171
 31
5.1
  0
LINE
  5
C3C
330
A02
100
AcDbEntity
  8
Mesh_cs002
100
AcDbLine
 10
274.439
 20
271.171
 30
5.1
 11
274.369
 21
271.593
 31
5.1
  0
LINE
  5
C3D
330
A02
100
AcDbEntity
  8
Mesh_cs002
100
AcDbLine
 10
274.369
 20
271.593
 30
5.1
 11
274.366
 21
271.604
 31
5.1
  0
LINE
  5
C3E
330
A02
100
AcDbEntity
  8
Mesh_cs002
100
AcDbLine
 10
274.366
 20
271.604
 30
5.1
 11
274.26
 21
272.017
 31
5.1
  0
LINE
  5
C3F
330
A02
100
AcDbEntity
  8
Mesh_cs002
100
AcDbLine
 10
274.26
 20
272.017
 30
5.1
 11
274.256
 21
272.028
 31
5.1
  0
LINE
  5
C40
330
A02
100
AcDbEntity
  8
Mesh_cs002
100
AcDbLine
 10
274.256
 20
272.028
 30
5.1
 11
274.115
 21
272.43
 31
5.1
  0
LINE
  5
C41
330
A02
100
AcDbEntity
  8
Mesh_cs002
100
AcDbLine
 10
274.115
 20
272.43
 30
5.1
 11
274.11
 21
272.44
 31
5.1
  0
LINE
  5
C42
330
A02
100
AcDbEntity
  8
Mesh_cs002
100
AcDbLine
 10
274.11
 20
272.44
 30
5.1
 11
273.931
 21
272.833
 31
5.1
  0
LINE
  5
C43
330
A02
100
AcDbEntity
  8
Mesh_cs002
100
AcDbLine
 10
273.931
 20
272.833
 30
5.1
 11
273.925
 21
272.843
 31
5.1
  0
LINE
  5
C44
330
A02
100
AcDbEntity
  8
Mesh_cs002
100
AcDbLine
 10
273.925
 20
272.843
 30
5.1
 11
273.729
 21
273.192
 31
5.1
  0
LINE
  5
C45
330
A02
100
AcDbEntity
  8
Mesh_cs002
100
AcDbLine
 10
273.729
 20
273.192
 30
5.1
 11
273.504
 21
273.524
 31
5.1
  0
LINE
  5
C46
330
A02
100
AcDbEntity
  8
Mesh_cs002
100
AcDbLine
 10
273.504
 20
273.524
 30
5.1
 11
273.498
 21
273.533
 31
5.1
  0
LINE
  5
C47
330
A02
100
AcDbEntity
  8
Mesh_cs002
100
AcDbLine
 10
273.498
 20
273.533
 30
5.1
 11
273.248
 21
273.844
 31
5.1
  0
LINE
  5
C48
330
A02
100
AcDbEntity
  8
Mesh_cs002
100
AcDbLine
 10
273.248
 20
273.844
 30
5.1
 11
273.241
 21
273.852
 31
5.1
  0
LINE
  5
C49
330
A02
100
AcDbEntity
  8
Mesh_cs002
100
AcDbLine
 10
273.241
 20
273.852
 30
5.1
 11
272.967
 21
274.141
 31
5.1
  0
LINE
  5
C4A
330
A02
100
AcDbEntity
  8
Mesh_cs002
100
AcDbLine
 10
272.967
 20
274.141
 30
5.1
 11
272.959
 21
274.149
 31
5.1
  0
LINE
  5
C4B
330
A02
100
AcDbEntity
  8
Mesh_cs002
100
AcDbLine
 10
272.959
 20
274.149
 30
5.1
 11
272.663
 21
274.414
 31
5.1
  0
LINE
  5
C4C
330
A02
100
AcDbEntity
  8
Mesh_cs002
100
AcDbLine
 10
272.663
 20
274.414
 30
5.1
 11
272.657
 21
274.42
 31
5.1
  0
LINE
  5
C4D
330
A02
100
AcDbEntity
  8
Mesh_cs002
100
AcDbLine
 10
272.657
 20
274.42
 30
5.1
 11
272.651
 21
274.424
 31
5.1
  0
LINE
  5
C4E
330
A02
100
AcDbEntity
  8
Mesh_cs002
100
AcDbLine
 10
272.651
 20
274.424
 30
5.1
 11
272.335
 21
274.664
 31
5.1
  0
LINE
  5
C4F
330
A02
100
AcDbEntity
  8
Mesh_cs002
100
AcDbLine
 10
272.335
 20
274.664
 30
5.1
 11
272.328
 21
274.669
 31
5.1
  0
LINE
  5
C50
330
A02
100
AcDbEntity
  8
Mesh_cs002
100
AcDbLine
 10
272.328
 20
274.669
 30
5.1
 11
271.993
 21
274.882
 31
5.1
  0
LINE
  5
C51
330
A02
100
AcDbEntity
  8
Mesh_cs002
100
AcDbLine
 10
271.993
 20
274.882
 30
5.1
 11
271.986
 21
274.886
 31
5.1
  0
LINE
  5
C52
330
A02
100
AcDbEntity
  8
Mesh_cs002
100
AcDbLine
 10
271.986
 20
274.886
 30
5.1
 11
271.636
 21
275.071
 31
5.1
  0
LINE
  5
C53
330
A02
100
AcDbEntity
  8
Mesh_cs002
100
AcDbLine
 10
271.636
 20
275.071
 30
5.1
 11
271.626
 21
275.076
 31
5.1
  0
LINE
  5
C54
330
A02
100
AcDbEntity
  8
Mesh_cs002
100
AcDbLine
 10
271.626
 20
275.076
 30
5.1
 11
271.264
 21
275.231
 31
5.1
  0
LINE
  5
C55
330
A02
100
AcDbEntity
  8
Mesh_cs002
100
AcDbLine
 10
271.264
 20
275.231
 30
5.1
 11
271.253
 21
275.235
 31
5.1
  0
LINE
  5
C56
330
A02
100
AcDbEntity
  8
Mesh_cs002
100
AcDbLine
 10
271.253
 20
275.235
 30
5.1
 11
270.88
 21
275.361
 31
5.1
  0
LINE
  5
C57
330
A02
100
AcDbEntity
  8
Mesh_cs002
100
AcDbLine
 10
270.88
 20
275.361
 30
5.1
 11
270.869
 21
275.364
 31
5.1
  0
LINE
  5
C58
330
A02
100
AcDbEntity
  8
Mesh_cs002
100
AcDbLine
 10
270.869
 20
275.364
 30
5.1
 11
270.487
 21
275.458
 31
5.1
  0
LINE
  5
C59
330
A02
100
AcDbEntity
  8
Mesh_cs002
100
AcDbLine
 10
270.487
 20
275.458
 30
5.1
 11
270.476
 21
275.46
 31
5.1
  0
LINE
  5
C5A
330
A02
100
AcDbEntity
  8
Mesh_cs002
100
AcDbLine
 10
270.476
 20
275.46
 30
5.1
 11
270.088
 21
275.524
 31
5.1
  0
LINE
  5
C5B
330
A02
100
AcDbEntity
  8
Mesh_cs002
100
AcDbLine
 10
270.088
 20
275.524
 30
5.1
 11
270.077
 21
275.525
 31
5.1
  0
LINE
  5
C5C
330
A02
100
AcDbEntity
  8
Mesh_cs002
100
AcDbLine
 10
270.077
 20
275.525
 30
5.1
 11
269.643
 21
275.559
 31
5.1
  0
LINE
  5
C5D
330
A02
100
AcDbEntity
  8
Mesh_cs002
100
AcDbLine
 10
269.643
 20
275.559
 30
5.1
 11
269.632
 21
275.559
 31
5.1
  0
LINE
  5
C5E
330
A02
100
AcDbEntity
  8
Mesh_cs002
100
AcDbLine
 10
269.632
 20
275.559
 30
5.1
 11
269.197
 21
275.554
 31
5.1
  0
LINE
  5
C5F
330
A02
100
AcDbEntity
  8
Mesh_cs002
100
AcDbLine
 10
269.197
 20
275.554
 30
5.1
 11
269.186
 21
275.553
 31
5.1
  0
LINE
  5
C60
330
A02
100
AcDbEntity
  8
Mesh_cs002
100
AcDbLine
 10
269.186
 20
275.553
 30
5.1
 11
268.754
 21
275.509
 31
5.1
  0
LINE
  5
C61
330
A02
100
AcDbEntity
  8
Mesh_cs002
100
AcDbLine
 10
268.754
 20
275.509
 30
5.1
 11
268.744
 21
275.507
 31
5.1
  0
LINE
  5
C62
330
A02
100
AcDbEntity
  8
Mesh_cs002
100
AcDbLine
 10
268.744
 20
275.507
 30
5.1
 11
268.318
 21
275.425
 31
5.1
  0
LINE
  5
C63
330
A02
100
AcDbEntity
  8
Mesh_cs002
100
AcDbLine
 10
268.318
 20
275.425
 30
5.1
 11
268.309
 21
275.423
 31
5.1
  0
LINE
  5
C64
330
A02
100
AcDbEntity
  8
Mesh_cs002
100
AcDbLine
 10
268.309
 20
275.423
 30
5.1
 11
267.893
 21
275.304
 31
5.1
  0
LINE
  5
C65
330
A02
100
AcDbEntity
  8
Mesh_cs002
100
AcDbLine
 10
267.893
 20
275.304
 30
5.1
 11
267.884
 21
275.301
 31
5.1
  0
LINE
  5
C66
330
A02
100
AcDbEntity
  8
Mesh_cs002
100
AcDbLine
 10
267.884
 20
275.301
 30
5.1
 11
267.481
 21
275.146
 31
5.1
  0
LINE
  5
C67
330
A02
100
AcDbEntity
  8
Mesh_cs002
100
AcDbLine
 10
267.481
 20
275.146
 30
5.1
 11
267.472
 21
275.142
 31
5.1
  0
LINE
  5
C68
330
A02
100
AcDbEntity
  8
Mesh_cs002
100
AcDbLine
 10
267.472
 20
275.142
 30
5.1
 11
267.085
 21
274.952
 31
5.1
  0
LINE
  5
C69
330
A02
100
AcDbEntity
  8
Mesh_cs002
100
AcDbLine
 10
267.085
 20
274.952
 30
5.1
 11
267.076
 21
274.947
 31
5.1
  0
LINE
  5
C6A
330
A02
100
AcDbEntity
  8
Mesh_cs002
100
AcDbLine
 10
267.076
 20
274.947
 30
5.1
 11
266.709
 21
274.725
 31
5.1
  0
LINE
  5
C6B
330
A02
100
AcDbEntity
  8
Mesh_cs002
100
AcDbLine
 10
266.709
 20
274.725
 30
5.1
 11
266.7
 21
274.72
 31
5.1
  0
LINE
  5
C6C
330
A02
100
AcDbEntity
  8
Mesh_cs002
100
AcDbLine
 10
266.7
 20
274.72
 30
5.1
 11
266.354
 21
274.466
 31
5.1
  0
LINE
  5
C6D
330
A02
100
AcDbEntity
  8
Mesh_cs002
100
AcDbLine
 10
266.354
 20
274.466
 30
5.1
 11
266.346
 21
274.46
 31
5.1
  0
LINE
  5
C6E
330
A02
100
AcDbEntity
  8
Mesh_cs002
100
AcDbLine
 10
266.346
 20
274.46
 30
5.1
 11
266.025
 21
274.178
 31
5.1
  0
LINE
  5
C6F
330
A02
100
AcDbEntity
  8
Mesh_cs002
100
AcDbLine
 10
266.025
 20
274.178
 30
5.1
 11
266.017
 21
274.171
 31
5.1
  0
LINE
  5
C70
330
A02
100
AcDbEntity
  8
Mesh_cs002
100
AcDbLine
 10
266.017
 20
274.171
 30
5.1
 11
265.722
 21
273.863
 31
5.1
  0
LINE
  5
C71
330
A02
100
AcDbEntity
  8
Mesh_cs002
100
AcDbLine
 10
265.722
 20
273.863
 30
5.1
 11
265.715
 21
273.855
 31
5.1
  0
LINE
  5
C72
330
A02
100
AcDbEntity
  8
Mesh_cs002
100
AcDbLine
 10
265.715
 20
273.855
 30
5.1
 11
265.571
 21
273.683
 31
5.1
  0
LINE
  5
C73
330
A02
100
AcDbEntity
  8
Mesh_cs002
100
AcDbLine
 10
265.571
 20
273.683
 30
5.1
 11
265.564
 21
273.675
 31
5.1
  0
LINE
  5
C74
330
A02
100
AcDbEntity
  8
Mesh_cs002
100
AcDbLine
 10
265.564
 20
273.675
 30
5.1
 11
265.432
 21
273.5
 31
5.1
  0
LINE
  5
C75
330
A02
100
AcDbEntity
  8
Mesh_cs002
100
AcDbLine
 10
265.432
 20
273.5
 30
5.1
 11
265.209
 21
273.166
 31
5.1
  0
LINE
  5
C76
330
A02
100
AcDbEntity
  8
Mesh_cs002
100
AcDbLine
 10
265.209
 20
273.166
 30
5.1
 11
265.203
 21
273.158
 31
5.1
  0
LINE
  5
C77
330
A02
100
AcDbEntity
  8
Mesh_cs002
100
AcDbLine
 10
265.203
 20
273.158
 30
5.1
 11
265.001
 21
272.79
 31
5.1
  0
LINE
  5
C78
330
A02
100
AcDbEntity
  8
Mesh_cs002
100
AcDbLine
 10
265.001
 20
272.79
 30
5.1
 11
264.996
 21
272.78
 31
5.1
  0
LINE
  5
C79
330
A02
100
AcDbEntity
  8
Mesh_cs002
100
AcDbLine
 10
264.996
 20
272.78
 30
5.1
 11
264.833
 21
272.415
 31
5.1
  0
LINE
  5
C7A
330
A02
100
AcDbEntity
  8
Mesh_cs002
100
AcDbLine
 10
264.833
 20
272.415
 30
5.1
 11
264.829
 21
272.406
 31
5.1
  0
LINE
  5
C7B
330
A02
100
AcDbEntity
  8
Mesh_cs002
100
AcDbLine
 10
264.829
 20
272.406
 30
5.1
 11
264.697
 21
272.03
 31
5.1
  0
LINE
  5
C7C
330
A02
100
AcDbEntity
  8
Mesh_cs002
100
AcDbLine
 10
264.697
 20
272.03
 30
5.1
 11
264.694
 21
272.02
 31
5.1
  0
LINE
  5
C7D
330
A02
100
AcDbEntity
  8
Mesh_cs002
100
AcDbLine
 10
264.694
 20
272.02
 30
5.1
 11
264.594
 21
271.635
 31
5.1
  0
LINE
  5
C7E
330
A02
100
AcDbEntity
  8
Mesh_cs002
100
AcDbLine
 10
264.594
 20
271.635
 30
5.1
 11
264.591
 21
271.625
 31
5.1
  0
LINE
  5
C7F
330
A02
100
AcDbEntity
  8
Mesh_cs002
100
AcDbLine
 10
264.591
 20
271.625
 30
5.1
 11
264.522
 21
271.233
 31
5.1
  0
LINE
  5
C80
330
A02
100
AcDbEntity
  8
Mesh_cs002
100
AcDbLine
 10
264.522
 20
271.233
 30
5.1
 11
264.521
 21
271.223
 31
5.1
  0
LINE
  5
C81
330
A02
100
AcDbEntity
  8
Mesh_cs002
100
AcDbLine
 10
264.521
 20
271.223
 30
5.1
 11
264.484
 21
270.828
 31
5.1
  0
LINE
  5
C82
330
A02
100
AcDbEntity
  8
Mesh_cs002
100
AcDbLine
 10
264.484
 20
270.828
 30
5.1
 11
264.483
 21
270.818
 31
5.1
  0
LINE
  5
C83
330
A02
100
AcDbEntity
  8
Mesh_cs002
100
AcDbLine
 10
264.483
 20
270.818
 30
5.1
 11
264.479
 21
270.422
 31
5.1
  0
LINE
  5
C84
330
A02
100
AcDbEntity
  8
Mesh_cs002
100
AcDbLine
 10
264.479
 20
270.422
 30
5.1
 11
264.479
 21
270.412
 31
5.1
  0
LINE
  5
C85
330
A02
100
AcDbEntity
  8
Mesh_cs002
100
AcDbLine
 10
264.479
 20
270.412
 30
5.1
 11
264.507
 21
270.018
 31
5.1
  0
LINE
  5
C86
330
A02
100
AcDbEntity
  8
Mesh_cs002
100
AcDbLine
 10
264.507
 20
270.018
 30
5.1
 11
264.507
 21
270.008
 31
5.1
  0
LINE
  5
C87
330
A02
100
AcDbEntity
  8
Mesh_cs002
100
AcDbLine
 10
264.507
 20
270.008
 30
5.1
 11
264.567
 21
269.618
 31
5.1
  0
LINE
  5
C88
330
A02
100
AcDbEntity
  8
Mesh_cs002
100
AcDbLine
 10
264.567
 20
269.618
 30
5.1
 11
264.659
 21
269.224
 31
5.1
  0
LINE
  5
C89
330
A02
100
AcDbEntity
  8
Mesh_cs002
100
AcDbLine
 10
264.659
 20
269.224
 30
5.1
 11
264.783
 21
268.84
 31
5.1
  0
LINE
  5
C8A
330
A02
100
AcDbEntity
  8
Mesh_cs002
100
AcDbLine
 10
264.783
 20
268.84
 30
5.1
 11
264.786
 21
268.831
 31
5.1
  0
LINE
  5
C8B
330
A02
100
AcDbEntity
  8
Mesh_cs002
100
AcDbLine
 10
264.786
 20
268.831
 30
5.1
 11
264.936
 21
268.468
 31
5.1
  0
LINE
  5
C8C
330
A02
100
AcDbEntity
  8
Mesh_cs002
100
AcDbLine
 10
264.936
 20
268.468
 30
5.1
 11
264.945
 21
268.45
 31
5.1
  0
LINE
  5
C8D
330
A02
100
AcDbEntity
  8
Mesh_cs002
100
AcDbLine
 10
264.945
 20
268.45
 30
5.1
 11
265.145
 21
268.063
 31
5.1
  0
LINE
  5
C8E
330
A02
100
AcDbEntity
  8
Mesh_cs002
100
AcDbLine
 10
265.145
 20
268.063
 30
5.1
 11
265.385
 21
267.688
 31
5.1
  0
LINE
  5
C8F
330
A02
100
AcDbEntity
  8
Mesh_cs002
100
AcDbLine
 10
265.385
 20
267.688
 30
5.1
 11
265.657
 21
267.335
 31
5.1
  0
LINE
  5
C90
330
A02
100
AcDbEntity
  8
Mesh_cs002
100
AcDbLine
 10
265.657
 20
267.335
 30
5.1
 11
265.958
 21
267.009
 31
5.1
  0
LINE
  5
C91
330
A02
100
AcDbEntity
  8
Mesh_cs002
100
AcDbLine
 10
265.958
 20
267.009
 30
5.1
 11
266.286
 21
266.711
 31
5.1
  0
LINE
  5
C92
330
A02
100
AcDbEntity
  8
Mesh_cs002
100
AcDbLine
 10
266.286
 20
266.711
 30
5.1
 11
266.639
 21
266.445
 31
5.1
  0
LINE
  5
C93
330
A02
100
AcDbEntity
  8
Mesh_cs002
100
AcDbLine
 10
266.639
 20
266.445
 30
5.1
 11
267.013
 21
266.211
 31
5.1
  0
LINE
  5
C94
330
A02
100
AcDbEntity
  8
Mesh_cs002
100
AcDbLine
 10
267.013
 20
266.211
 30
5.1
 11
267.405
 21
266.011
 31
5.1
  0
LINE
  5
C95
330
A02
100
AcDbEntity
  8
Mesh_cs002
100
AcDbLine
 10
267.405
 20
266.011
 30
5.1
 11
267.813
 21
265.846
 31
5.1
  0
LINE
  5
C96
330
A02
100
AcDbEntity
  8
Mesh_cs002
100
AcDbLine
 10
267.813
 20
265.846
 30
5.1
 11
268.232
 21
265.719
 31
5.1
  0
LINE
  5
C97
330
A02
100
AcDbEntity
  8
Mesh_cs002
100
AcDbLine
 10
268.232
 20
265.719
 30
5.1
 11
268.66
 21
265.629
 31
5.1
  0
LINE
  5
C98
330
A02
100
AcDbEntity
  8
Mesh_cs002
100
AcDbLine
 10
268.66
 20
265.629
 30
5.1
 11
269.096
 21
265.576
 31
5.1
  0
LINE
  5
C99
330
A02
100
AcDbEntity
  8
Mesh_cs002
100
AcDbLine
 10
269.096
 20
265.576
 30
5.1
 11
269.496
 21
265.562
 31
5.1
  0
LINE
  5
C9A
330
A02
100
AcDbEntity
  8
Mesh_cs002
100
AcDbLine
 10
269.496
 20
265.562
 30
5.1
 11
269.907
 21
265.58
 31
5.1
  0
LINE
  5
C9B
330
A02
100
AcDbEntity
  8
Mesh_cs002
100
AcDbLine
 10
269.907
 20
265.58
 30
5.1
 11
270.314
 21
265.632
 31
5.1
  0
LINE
  5
C9C
330
A02
100
AcDbEntity
  8
Mesh_cs002
100
AcDbLine
 10
270.314
 20
265.632
 30
5.1
 11
270.715
 21
265.717
 31
5.1
  0
LINE
  5
C9D
330
A02
100
AcDbEntity
  8
Mesh_cs002
100
AcDbLine
 10
270.715
 20
265.717
 30
5.1
 11
271.106
 21
265.835
 31
5.1
  0
LINE
  5
C9E
330
A02
100
AcDbEntity
  8
Mesh_cs002
100
AcDbLine
 10
271.106
 20
265.835
 30
5.1
 11
271.485
 21
265.983
 31
5.1
  0
LINE
  5
C9F
330
A02
100
AcDbEntity
  8
Mesh_cs002
100
AcDbLine
 10
271.485
 20
265.983
 30
5.1
 11
271.851
 21
266.161
 31
5.1
  0
LINE
  5
CA0
330
A02
100
AcDbEntity
  8
Mesh_cs002
100
AcDbLine
 10
271.851
 20
266.161
 30
5.1
 11
271.86
 21
266.166
 31
5.1
  0
LINE
  5
CA1
330
A02
100
AcDbEntity
  8
Mesh_cs002
100
AcDbLine
 10
271.86
 20
266.166
 30
5.1
 11
272.2
 21
266.368
 31
5.1
  0
LINE
  5
CA2
330
A02
100
AcDbEntity
  8
Mesh_cs002
100
AcDbLine
 10
272.2
 20
266.368
 30
5.1
 11
272.209
 21
266.374
 31
5.1
  0
LINE
  5
CA3
330
A02
100
AcDbEntity
  8
Mesh_cs002
100
AcDbLine
 10
272.209
 20
266.374
 30
5.1
 11
272.53
 21
266.603
 31
5.1
  0
LINE
  5
CA4
330
A02
100
AcDbEntity
  8
Mesh_cs002
100
AcDbLine
 10
272.53
 20
266.603
 30
5.1
 11
272.841
 21
266.863
 31
5.1
  0
LINE
  5
CA5
330
A02
100
AcDbEntity
  8
Mesh_cs002
100
AcDbLine
 10
272.841
 20
266.863
 30
5.1
 11
273.128
 21
267.146
 31
5.1
  0
LINE
  5
CA6
330
A02
100
AcDbEntity
  8
Mesh_cs002
100
AcDbLine
 10
273.128
 20
267.146
 30
5.1
 11
273.135
 21
267.153
 31
5.1
  0
LINE
  5
CA7
330
A02
100
AcDbEntity
  8
Mesh_cs002
100
AcDbLine
 10
273.135
 20
267.153
 30
5.1
 11
273.392
 21
267.452
 31
5.1
  0
LINE
  5
CA8
330
A02
100
AcDbEntity
  8
Mesh_cs002
100
AcDbLine
 10
273.392
 20
267.452
 30
5.1
 11
273.629
 21
267.777
 31
5.1
  0
ENDSEC
  0
SECTION
  2
OBJECTS
  0
DICTIONARY
  5
F000
330
0
100
AcDbDictionary
  3
ACAD_GROUP
350
F001
  0
DICTIONARY
  5
F001
330
F000
100
AcDbDictionary
  0
ENDSEC
  0
EOF