999
FreeCAD v0.21 33771 (Git)
  0
SECTION
  2
HEADER
  9
$ACADVER
  1
AC1014
  9
$ACADMAINTVER
 70
     9
  9
$DWGCODEPAGE
  3
ANSI_1252
  9
$TEXTSTYLE
  7
STANDARD
  9
$DIMSTYLE
  2
STANDARD
  9
$DIMTXSTY
  7
STANDARD
  9
$CMLSTYLE
  2
STANDARD
  9
$LUNITS
 70
2
  9
$INSUNITS
 70
4
  9
$PEXTMAX
 10
50
 20
50
 30
50
  9
$PEXTMIN
 10
0
 20
0
 30
0
  9
$HANDSEED
  5
FFFF
  0
ENDSEC
  0
SECTION
  2
CLASSES
  0
CLASS
  1
ACDBDICTIONARYWDFLT
  2
AcDbDictionaryWithDefault
  3
ObjectDBX Classes
 90
        0
280
     0
281
     0
  0
CLASS
  1
XRECORD
  2
AcDbXrecord
  3
ObjectDBX Classes
 90
        0
280
     0
281
     0
  0
CLASS
  1
LWPOLYLINE
  2
AcDbPolyline
  3
ObjectDBX Classes
 90
        0
280
     0
281
     1
  0
ENDSEC
  0
SECTION
  2
TABLES
  0
TABLE
  2
VPORT
  5
20
330
0
100
AcDbSymbolTable
 70
     1
  0
VPORT
  5
21
330
20
100
AcDbSymbolTableRecord
100
AcDbViewportTableRecord
  2
*ACTIVE
 70
     0
  0
ENDTAB
  0
TABLE
  2
LTYPE
  5
22
330
0
100
AcDbSymbolTable
 70
     1
  0
LTYPE
  5
23
330
21
100
AcDbSymbolTableRecord
100
AcDbLinetypeTableRecord
  2
BYBLOCK
 70
     0
  3

 72
    65
 73
     0
 40
0.0
  0
LTYPE
  5
24
330
21
100
AcDbSymbolTableRecord
100
AcDbLinetypeTableRecord
  2
BYLAYER
 70
     0
  3

 72
    65
 73
     0
 40
0.0
  0
LTYPE
  5
25
330
21
100
AcDbSymbolTableRecord
100
AcDbLinetypeTableRecord
  2
CONTINUOUS
 70
     0
  3
Solid line
 72
    65
 73
     0
 40
0.0
  0
ENDTAB
  0
TABLE
  2
LAYER
  5
C49
330
0
100
AcDbSymbolTable
 70
3
  0
LAYER
  5
C4A
330
C49
100
AcDbSymbolTableRecord
100
AcDbLayerTableRecord
  2
0
 70
   0
 62
   7
  6
CONTINUOUS
  0
LAYER
  5
C4B
330
C49
100
AcDbSymbolTableRecord
100
AcDbLayerTableRecord
  2
none
 70
    0
 62
    7
  6
CONTINUOUS
  0
LAYER
  5
C4C
330
C49
100
AcDbSymbolTableRecord
100
AcDbLayerTableRecord
  2
Mesh_cs
 70
    0
 62
    7
  6
CONTINUOUS
  0
ENDTAB
  0
TABLE
  2
STYLE
  5
70
330
0
100
AcDbSymbolTable
 70
     2
  0
STYLE
  5
71
330
70
100
AcDbSymbolTableRecord
100
AcDbTextStyleTableRecord
  2
STANDARD
 70
     0
 40
0.0
 41
1.0
 50
0.0
 71
     0
 42
2.5
  3
arial.ttf
  4

  0
STYLE
  5
72
330
70
100
AcDbSymbolTableRecord
100
AcDbTextStyleTableRecord
  2
ANNOTATIVE
 70
     0
 40
0.0
 41
1.0
 50
0.0
 71
     0
 42
2.5
  3
arial.ttf
  4

  0
ENDTAB
  0
TABLE
  2
VIEW
  5
73
330
0
100
AcDbSymbolTable
 70
     0
  0
ENDTAB
  0
TABLE
  2
UCS
  5
74
330
0
100
AcDbSymbolTable
 70
     0
  0
ENDTAB
  0
TABLE
  2
APPID
  5
75
330
0
100
AcDbSymbolTable
 70
     2
  0
APPID
  5
76
330
75
100
AcDbSymbolTableRecord
100
AcDbRegAppTableRecord
  2
ACAD
 70
     0
  0
APPID
  5
77
330
75
100
AcDbSymbolTableRecord
100
AcDbRegAppTableRecord
  2
ACADANNOTATIVE
 70
     0
  0
ENDTAB
  0
TABLE
  2
DIMSTYLE
  5
78
330
0
100
AcDbSymbolTable
 70
     2
  0
DIMSTYLE
105
79
330
78
100
AcDbSymbolTableRecord
100
AcDbDimStyleTableRecord
  2
STANDARD
 70
     0
  3

  4

  5

  6

  7

 40
0.0
 41
2.5
 42
0.625
 43
3.75
 44
1.25
 45
0.0
 46
0.0
 47
0.0
 48
0.0
140
2.5
141
2.5
142
0.0
143
0.03937007874016
144
1.0
145
0.0
146
1.0
147
0.625
 71
     0
 72
     0
 73
     0
 74
     0
 75
     0
 76
     0
 77
     1
 78
     8
170
     0
171
     3
172
     1
173
     0
174
     0
175
     0
176
     0
177
     0
178
     0
270
     2
271
     2
272
     2
273
     2
274
     3
340
71
275
     0
280
     0
281
     0
282
     0
283
     0
284
     8
285
     0
286
     0
287
     3
288
     0
  0
ENDTAB
  0
TABLE
  2
BLOCK_RECORD
  5
A01
330
0
100
AcDbSymbolTable
  70
5
  0
BLOCK_RECORD
  5
A02
330
A01
100
AcDbSymbolTableRecord
100
AcDbBlockTableRecord
  2
*MODEL_SPACE
  0
BLOCK_RECORD
  5
A03
330
A01
100
AcDbSymbolTableRecord
100
AcDbBlockTableRecord
  2
*PAPER_SPACE
  0
ENDTAB
  0
ENDSEC
  0
SECTION
  2
BLOCKS
  0
BLOCK
  5
A04
330
A02
100
AcDbEntity
  8
0
100
AcDbBlockBegin
  2
*MODEL_SPACE
 70
   0
 10
0
 20
0
 30
0
  3
*MODEL_SPACE
  1
 
  0
ENDBLK
  5
A05
330
A02
100
AcDbEntity
  8
0
100
AcDbBlockEnd
  0
BLOCK
  5
A06
330
A03
100
AcDbEntity
 67
1
  8
0
100
AcDbBlockBegin
  2
*PAPER_SPACE
 70
   0
 10
0
 20
0
 30
0
  3
*PAPER_SPACE
  1
 
  0
ENDBLK
  5
A07
330
A03
100
AcDbEntity
 67
    1
  8
0
100
AcDbBlockEnd
  0
ENDSEC
  0
SECTION
  2
ENTITIES
  0
LINE
  5
A08
330
A02
100
AcDbEntity
  8
Mesh_cs
100
AcDbLine
 10
-282.489
 20
254.927
 30
11.9
 11
-282.093
 21
255.215
 31
11.9
  0
LINE
  5
A09
330
A02
100
AcDbEntity
  8
Mesh_cs
100
AcDbLine
 10
-282.093
 20
255.215
 30
11.9
 11
-270.583
 21
263.577
 31
11.9
  0
LINE
  5
A0A
330
A02
100
AcDbEntity
  8
Mesh_cs
100
AcDbLine
 10
-270.583
 20
263.577
 30
11.9
 11
-270.291
 21
263.176
 31
11.9
  0
LINE
  5
A0B
330
A02
100
AcDbEntity
  8
Mesh_cs
100
AcDbLine
 10
-270.291
 20
263.176
 30
11.9
 11
-261.825
 21
251.523
 31
11.9
  0
LINE
  5
A0C
330
A02
100
AcDbEntity
  8
Mesh_cs
100
AcDbLine
 10
-261.825
 20
251.523
 30
11.9
 11
-273.477
 21
243.057
 31
11.9
  0
LINE
  5
A0D
330
A02
100
AcDbEntity
  8
Mesh_cs
100
AcDbLine
 10
-273.477
 20
243.057
 30
11.9
 11
-273.879
 21
242.765
 31
11.9
  0
LINE
  5
A0E
330
A02
100
AcDbEntity
  8
Mesh_cs
100
AcDbLine
 10
-273.879
 20
242.765
 30
11.9
 11
-276.453
 21
246.335
 31
11.9
  0
LINE
  5
A0F
330
A02
100
AcDbEntity
  8
Mesh_cs
100
AcDbLine
 10
-276.453
 20
246.335
 30
11.9
 11
-276.475
 21
246.365
 31
11.9
  0
LINE
  5
A10
330
A02
100
AcDbEntity
  8
Mesh_cs
100
AcDbLine
 10
-276.475
 20
246.365
 30
11.9
 11
-279.023
 21
249.954
 31
11.9
  0
LINE
  5
A11
330
A02
100
AcDbEntity
  8
Mesh_cs
100
AcDbLine
 10
-279.023
 20
249.954
 30
11.9
 11
-279.044
 21
249.985
 31
11.9
  0
LINE
  5
A12
330
A02
100
AcDbEntity
  8
Mesh_cs
100
AcDbLine
 10
-279.044
 20
249.985
 30
11.9
 11
-279.159
 21
250.149
 31
11.9
  0
LINE
  5
A13
330
A02
100
AcDbEntity
  8
Mesh_cs
100
AcDbLine
 10
-279.159
 20
250.149
 30
11.9
 11
-280.83
 21
252.534
 31
11.9
  0
LINE
  5
A14
330
A02
100
AcDbEntity
  8
Mesh_cs
100
AcDbLine
 10
-280.83
 20
252.534
 30
11.9
 11
-282.489
 21
254.927
 31
11.9
  0
LINE
  5
A15
330
A02
100
AcDbEntity
  8
Mesh_cs
100
AcDbLine
 10
-309.904
 20
590.094
 30
11.9
 11
-309.965
 21
594.227
 31
11.9
  0
LINE
  5
A16
330
A02
100
AcDbEntity
  8
Mesh_cs
100
AcDbLine
 10
-309.965
 20
594.227
 30
11.9
 11
-309.972
 21
594.686
 31
11.9
  0
LINE
  5
A17
330
A02
100
AcDbEntity
  8
Mesh_cs
100
AcDbLine
 10
-309.972
 20
594.686
 30
11.9
 11
-309.991
 21
597.145
 31
11.9
  0
LINE
  5
A18
330
A02
100
AcDbEntity
  8
Mesh_cs
100
AcDbLine
 10
-309.991
 20
597.145
 30
11.9
 11
-309.993
 21
597.418
 31
11.9
  0
LINE
  5
A19
330
A02
100
AcDbEntity
  8
Mesh_cs
100
AcDbLine
 10
-309.993
 20
597.418
 30
11.9
 11
-309.999
 21
599.875
 31
11.9
  0
LINE
  5
A1A
330
A02
100
AcDbEntity
  8
Mesh_cs
100
AcDbLine
 10
-309.999
 20
599.875
 30
11.9
 11
-310
 21
600.148
 31
11.9
  0
LINE
  5
A1B
330
A02
100
AcDbEntity
  8
Mesh_cs
100
AcDbLine
 10
-310
 20
600.148
 30
11.9
 11
-359.59
 21
600.148
 31
11.9
  0
LINE
  5
A1C
330
A02
100
AcDbEntity
  8
Mesh_cs
100
AcDbLine
 10
-359.59
 20
600.148
 30
11.9
 11
-365.1
 21
600.148
 31
11.9
  0
LINE
  5
A1D
330
A02
100
AcDbEntity
  8
Mesh_cs
100
AcDbLine
 10
-365.1
 20
600.148
 30
11.9
 11
-365.1
 21
580.912
 31
11.9
  0
LINE
  5
A1E
330
A02
100
AcDbEntity
  8
Mesh_cs
100
AcDbLine
 10
-365.1
 20
580.912
 30
11.9
 11
-365.1
 21
580.248
 31
11.9
  0
LINE
  5
A1F
330
A02
100
AcDbEntity
  8
Mesh_cs
100
AcDbLine
 10
-365.1
 20
580.248
 30
11.9
 11
-365.111
 21
579.916
 31
11.9
  0
LINE
  5
A20
330
A02
100
AcDbEntity
  8
Mesh_cs
100
AcDbLine
 10
-365.111
 20
579.916
 30
11.9
 11
-365.112
 21
579.902
 31
11.9
  0
LINE
  5
A21
330
A02
100
AcDbEntity
  8
Mesh_cs
100
AcDbLine
 10
-365.112
 20
579.902
 30
11.9
 11
-365.148
 21
579.557
 31
11.9
  0
LINE
  5
A22
330
A02
100
AcDbEntity
  8
Mesh_cs
100
AcDbLine
 10
-365.148
 20
579.557
 30
11.9
 11
-365.229
 21
579.119
 31
11.9
  0
LINE
  5
A23
330
A02
100
AcDbEntity
  8
Mesh_cs
100
AcDbLine
 10
-365.229
 20
579.119
 30
11.9
 11
-365.349
 21
578.689
 31
11.9
  0
LINE
  5
A24
330
A02
100
AcDbEntity
  8
Mesh_cs
100
AcDbLine
 10
-365.349
 20
578.689
 30
11.9
 11
-365.507
 21
578.273
 31
11.9
  0
LINE
  5
A25
330
A02
100
AcDbEntity
  8
Mesh_cs
100
AcDbLine
 10
-365.507
 20
578.273
 30
11.9
 11
-365.701
 21
577.872
 31
11.9
  0
LINE
  5
A26
330
A02
100
AcDbEntity
  8
Mesh_cs
100
AcDbLine
 10
-365.701
 20
577.872
 30
11.9
 11
-365.708
 21
577.86
 31
11.9
  0
LINE
  5
A27
330
A02
100
AcDbEntity
  8
Mesh_cs
100
AcDbLine
 10
-365.708
 20
577.86
 30
11.9
 11
-365.938
 21
577.478
 31
11.9
  0
LINE
  5
A28
330
A02
100
AcDbEntity
  8
Mesh_cs
100
AcDbLine
 10
-365.938
 20
577.478
 30
11.9
 11
-366.201
 21
577.119
 31
11.9
  0
LINE
  5
A29
330
A02
100
AcDbEntity
  8
Mesh_cs
100
AcDbLine
 10
-366.201
 20
577.119
 30
11.9
 11
-366.495
 21
576.784
 31
11.9
  0
LINE
  5
A2A
330
A02
100
AcDbEntity
  8
Mesh_cs
100
AcDbLine
 10
-366.495
 20
576.784
 30
11.9
 11
-366.819
 21
576.476
 31
11.9
  0
LINE
  5
A2B
330
A02
100
AcDbEntity
  8
Mesh_cs
100
AcDbLine
 10
-366.819
 20
576.476
 30
11.9
 11
-367.134
 21
576.224
 31
11.9
  0
LINE
  5
A2C
330
A02
100
AcDbEntity
  8
Mesh_cs
100
AcDbLine
 10
-367.134
 20
576.224
 30
11.9
 11
-367.468
 21
575.997
 31
11.9
  0
LINE
  5
A2D
330
A02
100
AcDbEntity
  8
Mesh_cs
100
AcDbLine
 10
-367.468
 20
575.997
 30
11.9
 11
-367.807
 21
575.805
 31
11.9
  0
LINE
  5
A2E
330
A02
100
AcDbEntity
  8
Mesh_cs
100
AcDbLine
 10
-367.807
 20
575.805
 30
11.9
 11
-367.82
 21
575.799
 31
11.9
  0
LINE
  5
A2F
330
A02
100
AcDbEntity
  8
Mesh_cs
100
AcDbLine
 10
-367.82
 20
575.799
 30
11.9
 11
-368.187
 21
575.63
 31
11.9
  0
LINE
  5
A30
330
A02
100
AcDbEntity
  8
Mesh_cs
100
AcDbLine
 10
-368.187
 20
575.63
 30
11.9
 11
-368.551
 21
575.494
 31
11.9
  0
LINE
  5
A31
330
A02
100
AcDbEntity
  8
Mesh_cs
100
AcDbLine
 10
-368.551
 20
575.494
 30
11.9
 11
-368.926
 21
575.389
 31
11.9
  0
LINE
  5
A32
330
A02
100
AcDbEntity
  8
Mesh_cs
100
AcDbLine
 10
-368.926
 20
575.389
 30
11.9
 11
-368.94
 21
575.385
 31
11.9
  0
LINE
  5
A33
330
A02
100
AcDbEntity
  8
Mesh_cs
100
AcDbLine
 10
-368.94
 20
575.385
 30
11.9
 11
-369.287
 21
575.315
 31
11.9
  0
LINE
  5
A34
330
A02
100
AcDbEntity
  8
Mesh_cs
100
AcDbLine
 10
-369.287
 20
575.315
 30
11.9
 11
-369.302
 21
575.312
 31
11.9
  0
LINE
  5
A35
330
A02
100
AcDbEntity
  8
Mesh_cs
100
AcDbLine
 10
-369.302
 20
575.312
 30
11.9
 11
-369.689
 21
575.266
 31
11.9
  0
LINE
  5
A36
330
A02
100
AcDbEntity
  8
Mesh_cs
100
AcDbLine
 10
-369.689
 20
575.266
 30
11.9
 11
-369.7
 21
575.264
 31
11.9
  0
LINE
  5
A37
330
A02
100
AcDbEntity
  8
Mesh_cs
100
AcDbLine
 10
-369.7
 20
575.264
 30
11.9
 11
-370.089
 21
575.249
 31
11.9
  0
LINE
  5
A38
330
A02
100
AcDbEntity
  8
Mesh_cs
100
AcDbLine
 10
-370.089
 20
575.249
 30
11.9
 11
-370.1
 21
575.248
 31
11.9
  0
LINE
  5
A39
330
A02
100
AcDbEntity
  8
Mesh_cs
100
AcDbLine
 10
-370.1
 20
575.248
 30
11.9
 11
-370.746
 21
575.248
 31
11.9
  0
LINE
  5
A3A
330
A02
100
AcDbEntity
  8
Mesh_cs
100
AcDbLine
 10
-370.746
 20
575.248
 30
11.9
 11
-389.49
 21
575.248
 31
11.9
  0
LINE
  5
A3B
330
A02
100
AcDbEntity
  8
Mesh_cs
100
AcDbLine
 10
-389.49
 20
575.248
 30
11.9
 11
-389.381
 21
572.716
 31
11.9
  0
LINE
  5
A3C
330
A02
100
AcDbEntity
  8
Mesh_cs
100
AcDbLine
 10
-389.381
 20
572.716
 30
11.9
 11
-389.26
 21
570.183
 31
11.9
  0
LINE
  5
A3D
330
A02
100
AcDbEntity
  8
Mesh_cs
100
AcDbLine
 10
-389.26
 20
570.183
 30
11.9
 11
-389.253
 21
570.022
 31
11.9
  0
LINE
  5
A3E
330
A02
100
AcDbEntity
  8
Mesh_cs
100
AcDbLine
 10
-389.253
 20
570.022
 30
11.9
 11
-389.251
 21
569.981
 31
11.9
  0
LINE
  5
A3F
330
A02
100
AcDbEntity
  8
Mesh_cs
100
AcDbLine
 10
-389.251
 20
569.981
 30
11.9
 11
-388.989
 21
565.1
 31
11.9
  0
LINE
  5
A40
330
A02
100
AcDbEntity
  8
Mesh_cs
100
AcDbLine
 10
-388.989
 20
565.1
 30
11.9
 11
-388.987
 21
565.06
 31
11.9
  0
LINE
  5
A41
330
A02
100
AcDbEntity
  8
Mesh_cs
100
AcDbLine
 10
-388.987
 20
565.06
 30
11.9
 11
-388.685
 21
560.181
 31
11.9
  0
LINE
  5
A42
330
A02
100
AcDbEntity
  8
Mesh_cs
100
AcDbLine
 10
-388.685
 20
560.181
 30
11.9
 11
-388.682
 21
560.14
 31
11.9
  0
LINE
  5
A43
330
A02
100
AcDbEntity
  8
Mesh_cs
100
AcDbLine
 10
-388.682
 20
560.14
 30
11.9
 11
-388.341
 21
555.264
 31
11.9
  0
LINE
  5
A44
330
A02
100
AcDbEntity
  8
Mesh_cs
100
AcDbLine
 10
-388.341
 20
555.264
 30
11.9
 11
-388.338
 21
555.223
 31
11.9
  0
LINE
  5
A45
330
A02
100
AcDbEntity
  8
Mesh_cs
100
AcDbLine
 10
-388.338
 20
555.223
 30
11.9
 11
-387.957
 21
550.349
 31
11.9
  0
LINE
  5
A46
330
A02
100
AcDbEntity
  8
Mesh_cs
100
AcDbLine
 10
-387.957
 20
550.349
 30
11.9
 11
-387.954
 21
550.309
 31
11.9
  0
LINE
  5
A47
330
A02
100
AcDbEntity
  8
Mesh_cs
100
AcDbLine
 10
-387.954
 20
550.309
 30
11.9
 11
-387.534
 21
545.438
 31
11.9
  0
LINE
  5
A48
330
A02
100
AcDbEntity
  8
Mesh_cs
100
AcDbLine
 10
-387.534
 20
545.438
 30
11.9
 11
-387.53
 21
545.398
 31
11.9
  0
LINE
  5
A49
330
A02
100
AcDbEntity
  8
Mesh_cs
100
AcDbLine
 10
-387.53
 20
545.398
 30
11.9
 11
-387.07
 21
540.531
 31
11.9
  0
LINE
  5
A4A
330
A02
100
AcDbEntity
  8
Mesh_cs
100
AcDbLine
 10
-387.07
 20
540.531
 30
11.9
 11
-387.066
 21
540.49
 31
11.9
  0
LINE
  5
A4B
330
A02
100
AcDbEntity
  8
Mesh_cs
100
AcDbLine
 10
-387.066
 20
540.49
 30
11.9
 11
-386.567
 21
535.627
 31
11.9
  0
LINE
  5
A4C
330
A02
100
AcDbEntity
  8
Mesh_cs
100
AcDbLine
 10
-386.567
 20
535.627
 30
11.9
 11
-386.562
 21
535.586
 31
11.9
  0
LINE
  5
A4D
330
A02
100
AcDbEntity
  8
Mesh_cs
100
AcDbLine
 10
-386.562
 20
535.586
 30
11.9
 11
-386.024
 21
530.728
 31
11.9
  0
LINE
  5
A4E
330
A02
100
AcDbEntity
  8
Mesh_cs
100
AcDbLine
 10
-386.024
 20
530.728
 30
11.9
 11
-386.019
 21
530.687
 31
11.9
  0
LINE
  5
A4F
330
A02
100
AcDbEntity
  8
Mesh_cs
100
AcDbLine
 10
-386.019
 20
530.687
 30
11.9
 11
-385.441
 21
525.832
 31
11.9
  0
LINE
  5
A50
330
A02
100
AcDbEntity
  8
Mesh_cs
100
AcDbLine
 10
-385.441
 20
525.832
 30
11.9
 11
-385.436
 21
525.792
 31
11.9
  0
LINE
  5
A51
330
A02
100
AcDbEntity
  8
Mesh_cs
100
AcDbLine
 10
-385.436
 20
525.792
 30
11.9
 11
-384.819
 21
520.942
 31
11.9
  0
LINE
  5
A52
330
A02
100
AcDbEntity
  8
Mesh_cs
100
AcDbLine
 10
-384.819
 20
520.942
 30
11.9
 11
-384.813
 21
520.901
 31
11.9
  0
LINE
  5
A53
330
A02
100
AcDbEntity
  8
Mesh_cs
100
AcDbLine
 10
-384.813
 20
520.901
 30
11.9
 11
-384.157
 21
516.057
 31
11.9
  0
LINE
  5
A54
330
A02
100
AcDbEntity
  8
Mesh_cs
100
AcDbLine
 10
-384.157
 20
516.057
 30
11.9
 11
-384.151
 21
516.016
 31
11.9
  0
LINE
  5
A55
330
A02
100
AcDbEntity
  8
Mesh_cs
100
AcDbLine
 10
-384.151
 20
516.016
 30
11.9
 11
-383.455
 21
511.177
 31
11.9
  0
LINE
  5
A56
330
A02
100
AcDbEntity
  8
Mesh_cs
100
AcDbLine
 10
-383.455
 20
511.177
 30
11.9
 11
-383.449
 21
511.137
 31
11.9
  0
LINE
  5
A57
330
A02
100
AcDbEntity
  8
Mesh_cs
100
AcDbLine
 10
-383.449
 20
511.137
 30
11.9
 11
-382.714
 21
506.303
 31
11.9
  0
LINE
  5
A58
330
A02
100
AcDbEntity
  8
Mesh_cs
100
AcDbLine
 10
-382.714
 20
506.303
 30
11.9
 11
-382.708
 21
506.263
 31
11.9
  0
LINE
  5
A59
330
A02
100
AcDbEntity
  8
Mesh_cs
100
AcDbLine
 10
-382.708
 20
506.263
 30
11.9
 11
-381.933
 21
501.436
 31
11.9
  0
LINE
  5
A5A
330
A02
100
AcDbEntity
  8
Mesh_cs
100
AcDbLine
 10
-381.933
 20
501.436
 30
11.9
 11
-381.927
 21
501.395
 31
11.9
  0
LINE
  5
A5B
330
A02
100
AcDbEntity
  8
Mesh_cs
100
AcDbLine
 10
-381.927
 20
501.395
 30
11.9
 11
-381.113
 21
496.574
 31
11.9
  0
LINE
  5
A5C
330
A02
100
AcDbEntity
  8
Mesh_cs
100
AcDbLine
 10
-381.113
 20
496.574
 30
11.9
 11
-381.106
 21
496.534
 31
11.9
  0
LINE
  5
A5D
330
A02
100
AcDbEntity
  8
Mesh_cs
100
AcDbLine
 10
-381.106
 20
496.534
 30
11.9
 11
-380.254
 21
491.719
 31
11.9
  0
LINE
  5
A5E
330
A02
100
AcDbEntity
  8
Mesh_cs
100
AcDbLine
 10
-380.254
 20
491.719
 30
11.9
 11
-380.246
 21
491.679
 31
11.9
  0
LINE
  5
A5F
330
A02
100
AcDbEntity
  8
Mesh_cs
100
AcDbLine
 10
-380.246
 20
491.679
 30
11.9
 11
-379.355
 21
486.872
 31
11.9
  0
LINE
  5
A60
330
A02
100
AcDbEntity
  8
Mesh_cs
100
AcDbLine
 10
-379.355
 20
486.872
 30
11.9
 11
-379.347
 21
486.831
 31
11.9
  0
LINE
  5
A61
330
A02
100
AcDbEntity
  8
Mesh_cs
100
AcDbLine
 10
-379.347
 20
486.831
 30
11.9
 11
-378.417
 21
482.031
 31
11.9
  0
LINE
  5
A62
330
A02
100
AcDbEntity
  8
Mesh_cs
100
AcDbLine
 10
-378.417
 20
482.031
 30
11.9
 11
-378.409
 21
481.991
 31
11.9
  0
LINE
  5
A63
330
A02
100
AcDbEntity
  8
Mesh_cs
100
AcDbLine
 10
-378.409
 20
481.991
 30
11.9
 11
-377.439
 21
477.199
 31
11.9
  0
LINE
  5
A64
330
A02
100
AcDbEntity
  8
Mesh_cs
100
AcDbLine
 10
-377.439
 20
477.199
 30
11.9
 11
-377.431
 21
477.159
 31
11.9
  0
LINE
  5
A65
330
A02
100
AcDbEntity
  8
Mesh_cs
100
AcDbLine
 10
-377.431
 20
477.159
 30
11.9
 11
-376.423
 21
472.374
 31
11.9
  0
LINE
  5
A66
330
A02
100
AcDbEntity
  8
Mesh_cs
100
AcDbLine
 10
-376.423
 20
472.374
 30
11.9
 11
-376.414
 21
472.334
 31
11.9
  0
LINE
  5
A67
330
A02
100
AcDbEntity
  8
Mesh_cs
100
AcDbLine
 10
-376.414
 20
472.334
 30
11.9
 11
-375.367
 21
467.558
 31
11.9
  0
LINE
  5
A68
330
A02
100
AcDbEntity
  8
Mesh_cs
100
AcDbLine
 10
-375.367
 20
467.558
 30
11.9
 11
-375.358
 21
467.518
 31
11.9
  0
LINE
  5
A69
330
A02
100
AcDbEntity
  8
Mesh_cs
100
AcDbLine
 10
-375.358
 20
467.518
 30
11.9
 11
-374.272
 21
462.75
 31
11.9
  0
LINE
  5
A6A
330
A02
100
AcDbEntity
  8
Mesh_cs
100
AcDbLine
 10
-374.272
 20
462.75
 30
11.9
 11
-374.263
 21
462.71
 31
11.9
  0
LINE
  5
A6B
330
A02
100
AcDbEntity
  8
Mesh_cs
100
AcDbLine
 10
-374.263
 20
462.71
 30
11.9
 11
-373.138
 21
457.952
 31
11.9
  0
LINE
  5
A6C
330
A02
100
AcDbEntity
  8
Mesh_cs
100
AcDbLine
 10
-373.138
 20
457.952
 30
11.9
 11
-373.129
 21
457.912
 31
11.9
  0
LINE
  5
A6D
330
A02
100
AcDbEntity
  8
Mesh_cs
100
AcDbLine
 10
-373.129
 20
457.912
 30
11.9
 11
-371.966
 21
453.162
 31
11.9
  0
LINE
  5
A6E
330
A02
100
AcDbEntity
  8
Mesh_cs
100
AcDbLine
 10
-371.966
 20
453.162
 30
11.9
 11
-371.956
 21
453.122
 31
11.9
  0
LINE
  5
A6F
330
A02
100
AcDbEntity
  8
Mesh_cs
100
AcDbLine
 10
-371.956
 20
453.122
 30
11.9
 11
-370.754
 21
448.383
 31
11.9
  0
LINE
  5
A70
330
A02
100
AcDbEntity
  8
Mesh_cs
100
AcDbLine
 10
-370.754
 20
448.383
 30
11.9
 11
-370.744
 21
448.343
 31
11.9
  0
LINE
  5
A71
330
A02
100
AcDbEntity
  8
Mesh_cs
100
AcDbLine
 10
-370.744
 20
448.343
 30
11.9
 11
-369.504
 21
443.613
 31
11.9
  0
LINE
  5
A72
330
A02
100
AcDbEntity
  8
Mesh_cs
100
AcDbLine
 10
-369.504
 20
443.613
 30
11.9
 11
-369.494
 21
443.573
 31
11.9
  0
LINE
  5
A73
330
A02
100
AcDbEntity
  8
Mesh_cs
100
AcDbLine
 10
-369.494
 20
443.573
 30
11.9
 11
-368.215
 21
438.853
 31
11.9
  0
LINE
  5
A74
330
A02
100
AcDbEntity
  8
Mesh_cs
100
AcDbLine
 10
-368.215
 20
438.853
 30
11.9
 11
-368.204
 21
438.813
 31
11.9
  0
LINE
  5
A75
330
A02
100
AcDbEntity
  8
Mesh_cs
100
AcDbLine
 10
-368.204
 20
438.813
 30
11.9
 11
-366.888
 21
434.104
 31
11.9
  0
LINE
  5
A76
330
A02
100
AcDbEntity
  8
Mesh_cs
100
AcDbLine
 10
-366.888
 20
434.104
 30
11.9
 11
-366.877
 21
434.064
 31
11.9
  0
LINE
  5
A77
330
A02
100
AcDbEntity
  8
Mesh_cs
100
AcDbLine
 10
-366.877
 20
434.064
 30
11.9
 11
-365.522
 21
429.365
 31
11.9
  0
LINE
  5
A78
330
A02
100
AcDbEntity
  8
Mesh_cs
100
AcDbLine
 10
-365.522
 20
429.365
 30
11.9
 11
-365.51
 21
429.326
 31
11.9
  0
LINE
  5
A79
330
A02
100
AcDbEntity
  8
Mesh_cs
100
AcDbLine
 10
-365.51
 20
429.326
 30
11.9
 11
-364.118
 21
424.638
 31
11.9
  0
LINE
  5
A7A
330
A02
100
AcDbEntity
  8
Mesh_cs
100
AcDbLine
 10
-364.118
 20
424.638
 30
11.9
 11
-364.106
 21
424.599
 31
11.9
  0
LINE
  5
A7B
330
A02
100
AcDbEntity
  8
Mesh_cs
100
AcDbLine
 10
-364.106
 20
424.599
 30
11.9
 11
-362.675
 21
419.923
 31
11.9
  0
LINE
  5
A7C
330
A02
100
AcDbEntity
  8
Mesh_cs
100
AcDbLine
 10
-362.675
 20
419.923
 30
11.9
 11
-362.663
 21
419.883
 31
11.9
  0
LINE
  5
A7D
330
A02
100
AcDbEntity
  8
Mesh_cs
100
AcDbLine
 10
-362.663
 20
419.883
 30
11.9
 11
-361.194
 21
415.219
 31
11.9
  0
LINE
  5
A7E
330
A02
100
AcDbEntity
  8
Mesh_cs
100
AcDbLine
 10
-361.194
 20
415.219
 30
11.9
 11
-361.182
 21
415.18
 31
11.9
  0
LINE
  5
A7F
330
A02
100
AcDbEntity
  8
Mesh_cs
100
AcDbLine
 10
-361.182
 20
415.18
 30
11.9
 11
-359.675
 21
410.527
 31
11.9
  0
LINE
  5
A80
330
A02
100
AcDbEntity
  8
Mesh_cs
100
AcDbLine
 10
-359.675
 20
410.527
 30
11.9
 11
-359.664
 21
410.492
 31
11.9
  0
LINE
  5
A81
330
A02
100
AcDbEntity
  8
Mesh_cs
100
AcDbLine
 10
-359.664
 20
410.492
 30
11.9
 11
-358.276
 21
406.315
 31
11.9
  0
LINE
  5
A82
330
A02
100
AcDbEntity
  8
Mesh_cs
100
AcDbLine
 10
-358.276
 20
406.315
 30
11.9
 11
-358.264
 21
406.28
 31
11.9
  0
LINE
  5
A83
330
A02
100
AcDbEntity
  8
Mesh_cs
100
AcDbLine
 10
-358.264
 20
406.28
 30
11.9
 11
-356.845
 21
402.113
 31
11.9
  0
LINE
  5
A84
330
A02
100
AcDbEntity
  8
Mesh_cs
100
AcDbLine
 10
-356.845
 20
402.113
 30
11.9
 11
-356.833
 21
402.078
 31
11.9
  0
LINE
  5
A85
330
A02
100
AcDbEntity
  8
Mesh_cs
100
AcDbLine
 10
-356.833
 20
402.078
 30
11.9
 11
-355.384
 21
397.922
 31
11.9
  0
LINE
  5
A86
330
A02
100
AcDbEntity
  8
Mesh_cs
100
AcDbLine
 10
-355.384
 20
397.922
 30
11.9
 11
-355.372
 21
397.887
 31
11.9
  0
LINE
  5
A87
330
A02
100
AcDbEntity
  8
Mesh_cs
100
AcDbLine
 10
-355.372
 20
397.887
 30
11.9
 11
-353.893
 21
393.741
 31
11.9
  0
LINE
  5
A88
330
A02
100
AcDbEntity
  8
Mesh_cs
100
AcDbLine
 10
-353.893
 20
393.741
 30
11.9
 11
-353.88
 21
393.706
 31
11.9
  0
LINE
  5
A89
330
A02
100
AcDbEntity
  8
Mesh_cs
100
AcDbLine
 10
-353.88
 20
393.706
 30
11.9
 11
-352.371
 21
389.572
 31
11.9
  0
LINE
  5
A8A
330
A02
100
AcDbEntity
  8
Mesh_cs
100
AcDbLine
 10
-352.371
 20
389.572
 30
11.9
 11
-352.358
 21
389.537
 31
11.9
  0
LINE
  5
A8B
330
A02
100
AcDbEntity
  8
Mesh_cs
100
AcDbLine
 10
-352.358
 20
389.537
 30
11.9
 11
-350.818
 21
385.413
 31
11.9
  0
LINE
  5
A8C
330
A02
100
AcDbEntity
  8
Mesh_cs
100
AcDbLine
 10
-350.818
 20
385.413
 30
11.9
 11
-350.805
 21
385.379
 31
11.9
  0
LINE
  5
A8D
330
A02
100
AcDbEntity
  8
Mesh_cs
100
AcDbLine
 10
-350.805
 20
385.379
 30
11.9
 11
-349.235
 21
381.266
 31
11.9
  0
LINE
  5
A8E
330
A02
100
AcDbEntity
  8
Mesh_cs
100
AcDbLine
 10
-349.235
 20
381.266
 30
11.9
 11
-349.222
 21
381.232
 31
11.9
  0
LINE
  5
A8F
330
A02
100
AcDbEntity
  8
Mesh_cs
100
AcDbLine
 10
-349.222
 20
381.232
 30
11.9
 11
-347.622
 21
377.131
 31
11.9
  0
LINE
  5
A90
330
A02
100
AcDbEntity
  8
Mesh_cs
100
AcDbLine
 10
-347.622
 20
377.131
 30
11.9
 11
-347.609
 21
377.096
 31
11.9
  0
LINE
  5
A91
330
A02
100
AcDbEntity
  8
Mesh_cs
100
AcDbLine
 10
-347.609
 20
377.096
 30
11.9
 11
-345.979
 21
373.007
 31
11.9
  0
LINE
  5
A92
330
A02
100
AcDbEntity
  8
Mesh_cs
100
AcDbLine
 10
-345.979
 20
373.007
 30
11.9
 11
-345.965
 21
372.973
 31
11.9
  0
LINE
  5
A93
330
A02
100
AcDbEntity
  8
Mesh_cs
100
AcDbLine
 10
-345.965
 20
372.973
 30
11.9
 11
-344.306
 21
368.896
 31
11.9
  0
LINE
  5
A94
330
A02
100
AcDbEntity
  8
Mesh_cs
100
AcDbLine
 10
-344.306
 20
368.896
 30
11.9
 11
-344.292
 21
368.861
 31
11.9
  0
LINE
  5
A95
330
A02
100
AcDbEntity
  8
Mesh_cs
100
AcDbLine
 10
-344.292
 20
368.861
 30
11.9
 11
-342.602
 21
364.796
 31
11.9
  0
LINE
  5
A96
330
A02
100
AcDbEntity
  8
Mesh_cs
100
AcDbLine
 10
-342.602
 20
364.796
 30
11.9
 11
-342.588
 21
364.762
 31
11.9
  0
LINE
  5
A97
330
A02
100
AcDbEntity
  8
Mesh_cs
100
AcDbLine
 10
-342.588
 20
364.762
 30
11.9
 11
-340.869
 21
360.71
 31
11.9
  0
LINE
  5
A98
330
A02
100
AcDbEntity
  8
Mesh_cs
100
AcDbLine
 10
-340.869
 20
360.71
 30
11.9
 11
-340.855
 21
360.676
 31
11.9
  0
LINE
  5
A99
330
A02
100
AcDbEntity
  8
Mesh_cs
100
AcDbLine
 10
-340.855
 20
360.676
 30
11.9
 11
-339.106
 21
356.635
 31
11.9
  0
LINE
  5
A9A
330
A02
100
AcDbEntity
  8
Mesh_cs
100
AcDbLine
 10
-339.106
 20
356.635
 30
11.9
 11
-339.091
 21
356.602
 31
11.9
  0
LINE
  5
A9B
330
A02
100
AcDbEntity
  8
Mesh_cs
100
AcDbLine
 10
-339.091
 20
356.602
 30
11.9
 11
-337.313
 21
352.574
 31
11.9
  0
LINE
  5
A9C
330
A02
100
AcDbEntity
  8
Mesh_cs
100
AcDbLine
 10
-337.313
 20
352.574
 30
11.9
 11
-337.298
 21
352.54
 31
11.9
  0
LINE
  5
A9D
330
A02
100
AcDbEntity
  8
Mesh_cs
100
AcDbLine
 10
-337.298
 20
352.54
 30
11.9
 11
-335.491
 21
348.526
 31
11.9
  0
LINE
  5
A9E
330
A02
100
AcDbEntity
  8
Mesh_cs
100
AcDbLine
 10
-335.491
 20
348.526
 30
11.9
 11
-335.475
 21
348.493
 31
11.9
  0
LINE
  5
A9F
330
A02
100
AcDbEntity
  8
Mesh_cs
100
AcDbLine
 10
-335.475
 20
348.493
 30
11.9
 11
-333.639
 21
344.492
 31
11.9
  0
LINE
  5
AA0
330
A02
100
AcDbEntity
  8
Mesh_cs
100
AcDbLine
 10
-333.639
 20
344.492
 30
11.9
 11
-333.623
 21
344.458
 31
11.9
  0
LINE
  5
AA1
330
A02
100
AcDbEntity
  8
Mesh_cs
100
AcDbLine
 10
-333.623
 20
344.458
 30
11.9
 11
-331.758
 21
340.47
 31
11.9
  0
LINE
  5
AA2
330
A02
100
AcDbEntity
  8
Mesh_cs
100
AcDbLine
 10
-331.758
 20
340.47
 30
11.9
 11
-331.742
 21
340.437
 31
11.9
  0
LINE
  5
AA3
330
A02
100
AcDbEntity
  8
Mesh_cs
100
AcDbLine
 10
-331.742
 20
340.437
 30
11.9
 11
-329.847
 21
336.463
 31
11.9
  0
LINE
  5
AA4
330
A02
100
AcDbEntity
  8
Mesh_cs
100
AcDbLine
 10
-329.847
 20
336.463
 30
11.9
 11
-329.831
 21
336.43
 31
11.9
  0
LINE
  5
AA5
330
A02
100
AcDbEntity
  8
Mesh_cs
100
AcDbLine
 10
-329.831
 20
336.43
 30
11.9
 11
-327.907
 21
332.47
 31
11.9
  0
LINE
  5
AA6
330
A02
100
AcDbEntity
  8
Mesh_cs
100
AcDbLine
 10
-327.907
 20
332.47
 30
11.9
 11
-327.891
 21
332.437
 31
11.9
  0
LINE
  5
AA7
330
A02
100
AcDbEntity
  8
Mesh_cs
100
AcDbLine
 10
-327.891
 20
332.437
 30
11.9
 11
-325.938
 21
328.491
 31
11.9
  0
LINE
  5
AA8
330
A02
100
AcDbEntity
  8
Mesh_cs
100
AcDbLine
 10
-325.938
 20
328.491
 30
11.9
 11
-325.921
 21
328.458
 31
11.9
  0
LINE
  5
AA9
330
A02
100
AcDbEntity
  8
Mesh_cs
100
AcDbLine
 10
-325.921
 20
328.458
 30
11.9
 11
-323.94
 21
324.526
 31
11.9
  0
LINE
  5
AAA
330
A02
100
AcDbEntity
  8
Mesh_cs
100
AcDbLine
 10
-323.94
 20
324.526
 30
11.9
 11
-323.923
 21
324.493
 31
11.9
  0
LINE
  5
AAB
330
A02
100
AcDbEntity
  8
Mesh_cs
100
AcDbLine
 10
-323.923
 20
324.493
 30
11.9
 11
-321.913
 21
320.576
 31
11.9
  0
LINE
  5
AAC
330
A02
100
AcDbEntity
  8
Mesh_cs
100
AcDbLine
 10
-321.913
 20
320.576
 30
11.9
 11
-321.896
 21
320.543
 31
11.9
  0
LINE
  5
AAD
330
A02
100
AcDbEntity
  8
Mesh_cs
100
AcDbLine
 10
-321.896
 20
320.543
 30
11.9
 11
-319.857
 21
316.641
 31
11.9
  0
LINE
  5
AAE
330
A02
100
AcDbEntity
  8
Mesh_cs
100
AcDbLine
 10
-319.857
 20
316.641
 30
11.9
 11
-319.84
 21
316.608
 31
11.9
  0
LINE
  5
AAF
330
A02
100
AcDbEntity
  8
Mesh_cs
100
AcDbLine
 10
-319.84
 20
316.608
 30
11.9
 11
-317.772
 21
312.721
 31
11.9
  0
LINE
  5
AB0
330
A02
100
AcDbEntity
  8
Mesh_cs
100
AcDbLine
 10
-317.772
 20
312.721
 30
11.9
 11
-317.755
 21
312.688
 31
11.9
  0
LINE
  5
AB1
330
A02
100
AcDbEntity
  8
Mesh_cs
100
AcDbLine
 10
-317.755
 20
312.688
 30
11.9
 11
-315.659
 21
308.816
 31
11.9
  0
LINE
  5
AB2
330
A02
100
AcDbEntity
  8
Mesh_cs
100
AcDbLine
 10
-315.659
 20
308.816
 30
11.9
 11
-315.641
 21
308.784
 31
11.9
  0
LINE
  5
AB3
330
A02
100
AcDbEntity
  8
Mesh_cs
100
AcDbLine
 10
-315.641
 20
308.784
 30
11.9
 11
-313.517
 21
304.927
 31
11.9
  0
LINE
  5
AB4
330
A02
100
AcDbEntity
  8
Mesh_cs
100
AcDbLine
 10
-313.517
 20
304.927
 30
11.9
 11
-313.5
 21
304.895
 31
11.9
  0
LINE
  5
AB5
330
A02
100
AcDbEntity
  8
Mesh_cs
100
AcDbLine
 10
-313.5
 20
304.895
 30
11.9
 11
-311.347
 21
301.053
 31
11.9
  0
LINE
  5
AB6
330
A02
100
AcDbEntity
  8
Mesh_cs
100
AcDbLine
 10
-311.347
 20
301.053
 30
11.9
 11
-311.329
 21
301.021
 31
11.9
  0
LINE
  5
AB7
330
A02
100
AcDbEntity
  8
Mesh_cs
100
AcDbLine
 10
-311.329
 20
301.021
 30
11.9
 11
-309.149
 21
297.196
 31
11.9
  0
LINE
  5
AB8
330
A02
100
AcDbEntity
  8
Mesh_cs
100
AcDbLine
 10
-309.149
 20
297.196
 30
11.9
 11
-309.131
 21
297.163
 31
11.9
  0
LINE
  5
AB9
330
A02
100
AcDbEntity
  8
Mesh_cs
100
AcDbLine
 10
-309.131
 20
297.163
 30
11.9
 11
-306.923
 21
293.354
 31
11.9
  0
LINE
  5
ABA
330
A02
100
AcDbEntity
  8
Mesh_cs
100
AcDbLine
 10
-306.923
 20
293.354
 30
11.9
 11
-306.904
 21
293.322
 31
11.9
  0
LINE
  5
ABB
330
A02
100
AcDbEntity
  8
Mesh_cs
100
AcDbLine
 10
-306.904
 20
293.322
 30
11.9
 11
-304.668
 21
289.529
 31
11.9
  0
LINE
  5
ABC
330
A02
100
AcDbEntity
  8
Mesh_cs
100
AcDbLine
 10
-304.668
 20
289.529
 30
11.9
 11
-304.649
 21
289.497
 31
11.9
  0
LINE
  5
ABD
330
A02
100
AcDbEntity
  8
Mesh_cs
100
AcDbLine
 10
-304.649
 20
289.497
 30
11.9
 11
-302.386
 21
285.72
 31
11.9
  0
LINE
  5
ABE
330
A02
100
AcDbEntity
  8
Mesh_cs
100
AcDbLine
 10
-302.386
 20
285.72
 30
11.9
 11
-302.367
 21
285.688
 31
11.9
  0
LINE
  5
ABF
330
A02
100
AcDbEntity
  8
Mesh_cs
100
AcDbLine
 10
-302.367
 20
285.688
 30
11.9
 11
-300.076
 21
281.928
 31
11.9
  0
LINE
  5
AC0
330
A02
100
AcDbEntity
  8
Mesh_cs
100
AcDbLine
 10
-300.076
 20
281.928
 30
11.9
 11
-300.056
 21
281.896
 31
11.9
  0
LINE
  5
AC1
330
A02
100
AcDbEntity
  8
Mesh_cs
100
AcDbLine
 10
-300.056
 20
281.896
 30
11.9
 11
-297.738
 21
278.153
 31
11.9
  0
LINE
  5
AC2
330
A02
100
AcDbEntity
  8
Mesh_cs
100
AcDbLine
 10
-297.738
 20
278.153
 30
11.9
 11
-297.718
 21
278.121
 31
11.9
  0
LINE
  5
AC3
330
A02
100
AcDbEntity
  8
Mesh_cs
100
AcDbLine
 10
-297.718
 20
278.121
 30
11.9
 11
-295.373
 21
274.395
 31
11.9
  0
LINE
  5
AC4
330
A02
100
AcDbEntity
  8
Mesh_cs
100
AcDbLine
 10
-295.373
 20
274.395
 30
11.9
 11
-295.353
 21
274.363
 31
11.9
  0
LINE
  5
AC5
330
A02
100
AcDbEntity
  8
Mesh_cs
100
AcDbLine
 10
-295.353
 20
274.363
 30
11.9
 11
-292.98
 21
270.654
 31
11.9
  0
LINE
  5
AC6
330
A02
100
AcDbEntity
  8
Mesh_cs
100
AcDbLine
 10
-292.98
 20
270.654
 30
11.9
 11
-292.96
 21
270.623
 31
11.9
  0
LINE
  5
AC7
330
A02
100
AcDbEntity
  8
Mesh_cs
100
AcDbLine
 10
-292.96
 20
270.623
 30
11.9
 11
-290.558
 21
266.927
 31
11.9
  0
LINE
  5
AC8
330
A02
100
AcDbEntity
  8
Mesh_cs
100
AcDbLine
 10
-290.558
 20
266.927
 30
11.9
 11
-290.468
 21
266.791
 31
11.9
  0
LINE
  5
AC9
330
A02
100
AcDbEntity
  8
Mesh_cs
100
AcDbLine
 10
-290.468
 20
266.791
 30
11.9
 11
-288.102
 21
263.209
 31
11.9
  0
LINE
  5
ACA
330
A02
100
AcDbEntity
  8
Mesh_cs
100
AcDbLine
 10
-288.102
 20
263.209
 30
11.9
 11
-272.938
 21
274.227
 31
11.9
  0
LINE
  5
ACB
330
A02
100
AcDbEntity
  8
Mesh_cs
100
AcDbLine
 10
-272.938
 20
274.227
 30
11.9
 11
-272.416
 21
274.607
 31
11.9
  0
LINE
  5
ACC
330
A02
100
AcDbEntity
  8
Mesh_cs
100
AcDbLine
 10
-272.416
 20
274.607
 30
11.9
 11
-272.406
 21
274.613
 31
11.9
  0
LINE
  5
ACD
330
A02
100
AcDbEntity
  8
Mesh_cs
100
AcDbLine
 10
-272.406
 20
274.613
 30
11.9
 11
-272.083
 21
274.829
 31
11.9
  0
LINE
  5
ACE
330
A02
100
AcDbEntity
  8
Mesh_cs
100
AcDbLine
 10
-272.083
 20
274.829
 30
11.9
 11
-272.073
 21
274.834
 31
11.9
  0
LINE
  5
ACF
330
A02
100
AcDbEntity
  8
Mesh_cs
100
AcDbLine
 10
-272.073
 20
274.834
 30
11.9
 11
-271.732
 21
275.024
 31
11.9
  0
LINE
  5
AD0
330
A02
100
AcDbEntity
  8
Mesh_cs
100
AcDbLine
 10
-271.732
 20
275.024
 30
11.9
 11
-271.719
 21
275.03
 31
11.9
  0
LINE
  5
AD1
330
A02
100
AcDbEntity
  8
Mesh_cs
100
AcDbLine
 10
-271.719
 20
275.03
 30
11.9
 11
-271.397
 21
275.178
 31
11.9
  0
LINE
  5
AD2
330
A02
100
AcDbEntity
  8
Mesh_cs
100
AcDbLine
 10
-271.397
 20
275.178
 30
11.9
 11
-271.383
 21
275.183
 31
11.9
  0
LINE
  5
AD3
330
A02
100
AcDbEntity
  8
Mesh_cs
100
AcDbLine
 10
-271.383
 20
275.183
 30
11.9
 11
-271.018
 21
275.318
 31
11.9
  0
LINE
  5
AD4
330
A02
100
AcDbEntity
  8
Mesh_cs
100
AcDbLine
 10
-271.018
 20
275.318
 30
11.9
 11
-270.644
 21
275.423
 31
11.9
  0
LINE
  5
AD5
330
A02
100
AcDbEntity
  8
Mesh_cs
100
AcDbLine
 10
-270.644
 20
275.423
 30
11.9
 11
-270.247
 21
275.501
 31
11.9
  0
LINE
  5
AD6
330
A02
100
AcDbEntity
  8
Mesh_cs
100
AcDbLine
 10
-270.247
 20
275.501
 30
11.9
 11
-270.233
 21
275.504
 31
11.9
  0
LINE
  5
AD7
330
A02
100
AcDbEntity
  8
Mesh_cs
100
AcDbLine
 10
-270.233
 20
275.504
 30
11.9
 11
-269.846
 21
275.547
 31
11.9
  0
LINE
  5
AD8
330
A02
100
AcDbEntity
  8
Mesh_cs
100
AcDbLine
 10
-269.846
 20
275.547
 30
11.9
 11
-269.443
 21
275.561
 31
11.9
  0
LINE
  5
AD9
330
A02
100
AcDbEntity
  8
Mesh_cs
100
AcDbLine
 10
-269.443
 20
275.561
 30
11.9
 11
-269.039
 21
275.542
 31
11.9
  0
LINE
  5
ADA
330
A02
100
AcDbEntity
  8
Mesh_cs
100
AcDbLine
 10
-269.039
 20
275.542
 30
11.9
 11
-268.596
 21
275.483
 31
11.9
  0
LINE
  5
ADB
330
A02
100
AcDbEntity
  8
Mesh_cs
100
AcDbLine
 10
-268.596
 20
275.483
 30
11.9
 11
-268.162
 21
275.385
 31
11.9
  0
LINE
  5
ADC
330
A02
100
AcDbEntity
  8
Mesh_cs
100
AcDbLine
 10
-268.162
 20
275.385
 30
11.9
 11
-267.737
 21
275.249
 31
11.9
  0
LINE
  5
ADD
330
A02
100
AcDbEntity
  8
Mesh_cs
100
AcDbLine
 10
-267.737
 20
275.249
 30
11.9
 11
-267.327
 21
275.075
 31
11.9
  0
LINE
  5
ADE
330
A02
100
AcDbEntity
  8
Mesh_cs
100
AcDbLine
 10
-267.327
 20
275.075
 30
11.9
 11
-267.315
 21
275.07
 31
11.9
  0
LINE
  5
ADF
330
A02
100
AcDbEntity
  8
Mesh_cs
100
AcDbLine
 10
-267.315
 20
275.07
 30
11.9
 11
-266.922
 21
274.86
 31
11.9
  0
LINE
  5
AE0
330
A02
100
AcDbEntity
  8
Mesh_cs
100
AcDbLine
 10
-266.922
 20
274.86
 30
11.9
 11
-266.549
 21
274.615
 31
11.9
  0
LINE
  5
AE1
330
A02
100
AcDbEntity
  8
Mesh_cs
100
AcDbLine
 10
-266.549
 20
274.615
 30
11.9
 11
-266.2
 21
274.338
 31
11.9
  0
LINE
  5
AE2
330
A02
100
AcDbEntity
  8
Mesh_cs
100
AcDbLine
 10
-266.2
 20
274.338
 30
11.9
 11
-265.877
 21
274.032
 31
11.9
  0
LINE
  5
AE3
330
A02
100
AcDbEntity
  8
Mesh_cs
100
AcDbLine
 10
-265.877
 20
274.032
 30
11.9
 11
-265.645
 21
273.773
 31
11.9
  0
LINE
  5
AE4
330
A02
100
AcDbEntity
  8
Mesh_cs
100
AcDbLine
 10
-265.645
 20
273.773
 30
11.9
 11
-265.636
 21
273.763
 31
11.9
  0
LINE
  5
AE5
330
A02
100
AcDbEntity
  8
Mesh_cs
100
AcDbLine
 10
-265.636
 20
273.763
 30
11.9
 11
-265.432
 21
273.5
 31
11.9
  0
LINE
  5
AE6
330
A02
100
AcDbEntity
  8
Mesh_cs
100
AcDbLine
 10
-265.432
 20
273.5
 30
11.9
 11
-254.125
 21
257.938
 31
11.9
  0
LINE
  5
AE7
330
A02
100
AcDbEntity
  8
Mesh_cs
100
AcDbLine
 10
-254.125
 20
257.938
 30
11.9
 11
-253.735
 21
257.401
 31
11.9
  0
LINE
  5
AE8
330
A02
100
AcDbEntity
  8
Mesh_cs
100
AcDbLine
 10
-253.735
 20
257.401
 30
11.9
 11
-249.277
 21
260.64
 31
11.9
  0
LINE
  5
AE9
330
A02
100
AcDbEntity
  8
Mesh_cs
100
AcDbLine
 10
-249.277
 20
260.64
 30
11.9
 11
-209.158
 21
289.788
 31
11.9
  0
LINE
  5
AEA
330
A02
100
AcDbEntity
  8
Mesh_cs
100
AcDbLine
 10
-209.158
 20
289.788
 30
11.9
 11
-211.335
 21
292.81
 31
11.9
  0
LINE
  5
AEB
330
A02
100
AcDbEntity
  8
Mesh_cs
100
AcDbLine
 10
-211.335
 20
292.81
 30
11.9
 11
-211.577
 21
293.146
 31
11.9
  0
LINE
  5
AEC
330
A02
100
AcDbEntity
  8
Mesh_cs
100
AcDbLine
 10
-211.577
 20
293.146
 30
11.9
 11
-213.734
 21
296.188
 31
11.9
  0
LINE
  5
AED
330
A02
100
AcDbEntity
  8
Mesh_cs
100
AcDbLine
 10
-213.734
 20
296.188
 30
11.9
 11
-213.973
 21
296.526
 31
11.9
  0
LINE
  5
AEE
330
A02
100
AcDbEntity
  8
Mesh_cs
100
AcDbLine
 10
-213.973
 20
296.526
 30
11.9
 11
-216.103
 21
299.582
 31
11.9
  0
LINE
  5
AEF
330
A02
100
AcDbEntity
  8
Mesh_cs
100
AcDbLine
 10
-216.103
 20
299.582
 30
11.9
 11
-216.34
 21
299.922
 31
11.9
  0
LINE
  5
AF0
330
A02
100
AcDbEntity
  8
Mesh_cs
100
AcDbLine
 10
-216.34
 20
299.922
 30
11.9
 11
-216.574
 21
300.263
 31
11.9
  0
LINE
  5
AF1
330
A02
100
AcDbEntity
  8
Mesh_cs
100
AcDbLine
 10
-216.574
 20
300.263
 30
11.9
 11
-218.68
 21
303.335
 31
11.9
  0
LINE
  5
AF2
330
A02
100
AcDbEntity
  8
Mesh_cs
100
AcDbLine
 10
-218.68
 20
303.335
 30
11.9
 11
-218.911
 21
303.678
 31
11.9
  0
LINE
  5
AF3
330
A02
100
AcDbEntity
  8
Mesh_cs
100
AcDbLine
 10
-218.911
 20
303.678
 30
11.9
 11
-220.992
 21
306.767
 31
11.9
  0
LINE
  5
AF4
330
A02
100
AcDbEntity
  8
Mesh_cs
100
AcDbLine
 10
-220.992
 20
306.767
 30
11.9
 11
-223.05
 21
309.872
 31
11.9
  0
LINE
  5
AF5
330
A02
100
AcDbEntity
  8
Mesh_cs
100
AcDbLine
 10
-223.05
 20
309.872
 30
11.9
 11
-223.278
 21
310.217
 31
11.9
  0
LINE
  5
AF6
330
A02
100
AcDbEntity
  8
Mesh_cs
100
AcDbLine
 10
-223.278
 20
310.217
 30
11.9
 11
-223.504
 21
310.564
 31
11.9
  0
LINE
  5
AF7
330
A02
100
AcDbEntity
  8
Mesh_cs
100
AcDbLine
 10
-223.504
 20
310.564
 30
11.9
 11
-225.537
 21
313.684
 31
11.9
  0
LINE
  5
AF8
330
A02
100
AcDbEntity
  8
Mesh_cs
100
AcDbLine
 10
-225.537
 20
313.684
 30
11.9
 11
-227.545
 21
316.821
 31
11.9
  0
LINE
  5
AF9
330
A02
100
AcDbEntity
  8
Mesh_cs
100
AcDbLine
 10
-227.545
 20
316.821
 30
11.9
 11
-227.769
 21
317.169
 31
11.9
  0
LINE
  5
AFA
330
A02
100
AcDbEntity
  8
Mesh_cs
100
AcDbLine
 10
-227.769
 20
317.169
 30
11.9
 11
-229.752
 21
320.321
 31
11.9
  0
LINE
  5
AFB
330
A02
100
AcDbEntity
  8
Mesh_cs
100
AcDbLine
 10
-229.752
 20
320.321
 30
11.9
 11
-229.973
 21
320.672
 31
11.9
  0
LINE
  5
AFC
330
A02
100
AcDbEntity
  8
Mesh_cs
100
AcDbLine
 10
-229.973
 20
320.672
 30
11.9
 11
-231.931
 21
323.839
 31
11.9
  0
LINE
  5
AFD
330
A02
100
AcDbEntity
  8
Mesh_cs
100
AcDbLine
 10
-231.931
 20
323.839
 30
11.9
 11
-232.149
 21
324.191
 31
11.9
  0
LINE
  5
AFE
330
A02
100
AcDbEntity
  8
Mesh_cs
100
AcDbLine
 10
-232.149
 20
324.191
 30
11.9
 11
-234.083
 21
327.374
 31
11.9
  0
LINE
  5
AFF
330
A02
100
AcDbEntity
  8
Mesh_cs
100
AcDbLine
 10
-234.083
 20
327.374
 30
11.9
 11
-234.298
 21
327.728
 31
11.9
  0
LINE
  5
B00
330
A02
100
AcDbEntity
  8
Mesh_cs
100
AcDbLine
 10
-234.298
 20
327.728
 30
11.9
 11
-236.207
 21
330.925
 31
11.9
  0
LINE
  5
B01
330
A02
100
AcDbEntity
  8
Mesh_cs
100
AcDbLine
 10
-236.207
 20
330.925
 30
11.9
 11
-236.419
 21
331.281
 31
11.9
  0
LINE
  5
B02
330
A02
100
AcDbEntity
  8
Mesh_cs
100
AcDbLine
 10
-236.419
 20
331.281
 30
11.9
 11
-238.303
 21
334.493
 31
11.9
  0
LINE
  5
B03
330
A02
100
AcDbEntity
  8
Mesh_cs
100
AcDbLine
 10
-238.303
 20
334.493
 30
11.9
 11
-238.512
 21
334.85
 31
11.9
  0
LINE
  5
B04
330
A02
100
AcDbEntity
  8
Mesh_cs
100
AcDbLine
 10
-238.512
 20
334.85
 30
11.9
 11
-240.371
 21
338.077
 31
11.9
  0
LINE
  5
B05
330
A02
100
AcDbEntity
  8
Mesh_cs
100
AcDbLine
 10
-240.371
 20
338.077
 30
11.9
 11
-240.577
 21
338.436
 31
11.9
  0
LINE
  5
B06
330
A02
100
AcDbEntity
  8
Mesh_cs
100
AcDbLine
 10
-240.577
 20
338.436
 30
11.9
 11
-240.781
 21
338.796
 31
11.9
  0
LINE
  5
B07
330
A02
100
AcDbEntity
  8
Mesh_cs
100
AcDbLine
 10
-240.781
 20
338.796
 30
11.9
 11
-242.614
 21
342.038
 31
11.9
  0
LINE
  5
B08
330
A02
100
AcDbEntity
  8
Mesh_cs
100
AcDbLine
 10
-242.614
 20
342.038
 30
11.9
 11
-244.421
 21
345.293
 31
11.9
  0
LINE
  5
B09
330
A02
100
AcDbEntity
  8
Mesh_cs
100
AcDbLine
 10
-244.421
 20
345.293
 30
11.9
 11
-244.622
 21
345.655
 31
11.9
  0
LINE
  5
B0A
330
A02
100
AcDbEntity
  8
Mesh_cs
100
AcDbLine
 10
-244.622
 20
345.655
 30
11.9
 11
-244.82
 21
346.018
 31
11.9
  0
LINE
  5
B0B
330
A02
100
AcDbEntity
  8
Mesh_cs
100
AcDbLine
 10
-244.82
 20
346.018
 30
11.9
 11
-246.602
 21
349.288
 31
11.9
  0
LINE
  5
B0C
330
A02
100
AcDbEntity
  8
Mesh_cs
100
AcDbLine
 10
-246.602
 20
349.288
 30
11.9
 11
-248.359
 21
352.572
 31
11.9
  0
LINE
  5
B0D
330
A02
100
AcDbEntity
  8
Mesh_cs
100
AcDbLine
 10
-248.359
 20
352.572
 30
11.9
 11
-248.554
 21
352.937
 31
11.9
  0
LINE
  5
B0E
330
A02
100
AcDbEntity
  8
Mesh_cs
100
AcDbLine
 10
-248.554
 20
352.937
 30
11.9
 11
-250.284
 21
356.234
 31
11.9
  0
LINE
  5
B0F
330
A02
100
AcDbEntity
  8
Mesh_cs
100
AcDbLine
 10
-250.284
 20
356.234
 30
11.9
 11
-250.477
 21
356.6
 31
11.9
  0
LINE
  5
B10
330
A02
100
AcDbEntity
  8
Mesh_cs
100
AcDbLine
 10
-250.477
 20
356.6
 30
11.9
 11
-252.181
 21
359.911
 31
11.9
  0
LINE
  5
B11
330
A02
100
AcDbEntity
  8
Mesh_cs
100
AcDbLine
 10
-252.181
 20
359.911
 30
11.9
 11
-252.371
 21
360.279
 31
11.9
  0
LINE
  5
B12
330
A02
100
AcDbEntity
  8
Mesh_cs
100
AcDbLine
 10
-252.371
 20
360.279
 30
11.9
 11
-254.049
 21
363.603
 31
11.9
  0
LINE
  5
B13
330
A02
100
AcDbEntity
  8
Mesh_cs
100
AcDbLine
 10
-254.049
 20
363.603
 30
11.9
 11
-254.236
 21
363.972
 31
11.9
  0
LINE
  5
B14
330
A02
100
AcDbEntity
  8
Mesh_cs
100
AcDbLine
 10
-254.236
 20
363.972
 30
11.9
 11
-254.419
 21
364.343
 31
11.9
  0
LINE
  5
B15
330
A02
100
AcDbEntity
  8
Mesh_cs
100
AcDbLine
 10
-254.419
 20
364.343
 30
11.9
 11
-256.072
 21
367.68
 31
11.9
  0
LINE
  5
B16
330
A02
100
AcDbEntity
  8
Mesh_cs
100
AcDbLine
 10
-256.072
 20
367.68
 30
11.9
 11
-257.698
 21
371.029
 31
11.9
  0
LINE
  5
B17
330
A02
100
AcDbEntity
  8
Mesh_cs
100
AcDbLine
 10
-257.698
 20
371.029
 30
11.9
 11
-257.879
 21
371.401
 31
11.9
  0
LINE
  5
B18
330
A02
100
AcDbEntity
  8
Mesh_cs
100
AcDbLine
 10
-257.879
 20
371.401
 30
11.9
 11
-259.479
 21
374.764
 31
11.9
  0
LINE
  5
B19
330
A02
100
AcDbEntity
  8
Mesh_cs
100
AcDbLine
 10
-259.479
 20
374.764
 30
11.9
 11
-259.656
 21
375.137
 31
11.9
  0
LINE
  5
B1A
330
A02
100
AcDbEntity
  8
Mesh_cs
100
AcDbLine
 10
-259.656
 20
375.137
 30
11.9
 11
-261.23
 21
378.512
 31
11.9
  0
LINE
  5
B1B
330
A02
100
AcDbEntity
  8
Mesh_cs
100
AcDbLine
 10
-261.23
 20
378.512
 30
11.9
 11
-261.405
 21
378.887
 31
11.9
  0
LINE
  5
B1C
330
A02
100
AcDbEntity
  8
Mesh_cs
100
AcDbLine
 10
-261.405
 20
378.887
 30
11.9
 11
-262.952
 21
382.274
 31
11.9
  0
LINE
  5
B1D
330
A02
100
AcDbEntity
  8
Mesh_cs
100
AcDbLine
 10
-262.952
 20
382.274
 30
11.9
 11
-263.124
 21
382.65
 31
11.9
  0
LINE
  5
B1E
330
A02
100
AcDbEntity
  8
Mesh_cs
100
AcDbLine
 10
-263.124
 20
382.65
 30
11.9
 11
-264.644
 21
386.049
 31
11.9
  0
LINE
  5
B1F
330
A02
100
AcDbEntity
  8
Mesh_cs
100
AcDbLine
 10
-264.644
 20
386.049
 30
11.9
 11
-264.813
 21
386.426
 31
11.9
  0
LINE
  5
B20
330
A02
100
AcDbEntity
  8
Mesh_cs
100
AcDbLine
 10
-264.813
 20
386.426
 30
11.9
 11
-264.979
 21
386.805
 31
11.9
  0
LINE
  5
B21
330
A02
100
AcDbEntity
  8
Mesh_cs
100
AcDbLine
 10
-264.979
 20
386.805
 30
11.9
 11
-266.473
 21
390.216
 31
11.9
  0
LINE
  5
B22
330
A02
100
AcDbEntity
  8
Mesh_cs
100
AcDbLine
 10
-266.473
 20
390.216
 30
11.9
 11
-267.94
 21
393.638
 31
11.9
  0
LINE
  5
B23
330
A02
100
AcDbEntity
  8
Mesh_cs
100
AcDbLine
 10
-267.94
 20
393.638
 30
11.9
 11
-268.103
 21
394.018
 31
11.9
  0
LINE
  5
B24
330
A02
100
AcDbEntity
  8
Mesh_cs
100
AcDbLine
 10
-268.103
 20
394.018
 30
11.9
 11
-269.543
 21
397.451
 31
11.9
  0
LINE
  5
B25
330
A02
100
AcDbEntity
  8
Mesh_cs
100
AcDbLine
 10
-269.543
 20
397.451
 30
11.9
 11
-269.703
 21
397.833
 31
11.9
  0
LINE
  5
B26
330
A02
100
AcDbEntity
  8
Mesh_cs
100
AcDbLine
 10
-269.703
 20
397.833
 30
11.9
 11
-271.116
 21
401.277
 31
11.9
  0
LINE
  5
B27
330
A02
100
AcDbEntity
  8
Mesh_cs
100
AcDbLine
 10
-271.116
 20
401.277
 30
11.9
 11
-271.273
 21
401.66
 31
11.9
  0
LINE
  5
B28
330
A02
100
AcDbEntity
  8
Mesh_cs
100
AcDbLine
 10
-271.273
 20
401.66
 30
11.9
 11
-272.659
 21
405.115
 31
11.9
  0
LINE
  5
B29
330
A02
100
AcDbEntity
  8
Mesh_cs
100
AcDbLine
 10
-272.659
 20
405.115
 30
11.9
 11
-272.813
 21
405.499
 31
11.9
  0
LINE
  5
B2A
330
A02
100
AcDbEntity
  8
Mesh_cs
100
AcDbLine
 10
-272.813
 20
405.499
 30
11.9
 11
-274.172
 21
408.966
 31
11.9
  0
LINE
  5
B2B
330
A02
100
AcDbEntity
  8
Mesh_cs
100
AcDbLine
 10
-274.172
 20
408.966
 30
11.9
 11
-274.323
 21
409.351
 31
11.9
  0
LINE
  5
B2C
330
A02
100
AcDbEntity
  8
Mesh_cs
100
AcDbLine
 10
-274.323
 20
409.351
 30
11.9
 11
-275.654
 21
412.827
 31
11.9
  0
LINE
  5
B2D
330
A02
100
AcDbEntity
  8
Mesh_cs
100
AcDbLine
 10
-275.654
 20
412.827
 30
11.9
 11
-275.802
 21
413.214
 31
11.9
  0
LINE
  5
B2E
330
A02
100
AcDbEntity
  8
Mesh_cs
100
AcDbLine
 10
-275.802
 20
413.214
 30
11.9
 11
-277.106
 21
416.7
 31
11.9
  0
LINE
  5
B2F
330
A02
100
AcDbEntity
  8
Mesh_cs
100
AcDbLine
 10
-277.106
 20
416.7
 30
11.9
 11
-277.251
 21
417.088
 31
11.9
  0
LINE
  5
B30
330
A02
100
AcDbEntity
  8
Mesh_cs
100
AcDbLine
 10
-277.251
 20
417.088
 30
11.9
 11
-278.528
 21
420.585
 31
11.9
  0
LINE
  5
B31
330
A02
100
AcDbEntity
  8
Mesh_cs
100
AcDbLine
 10
-278.528
 20
420.585
 30
11.9
 11
-278.67
 21
420.973
 31
11.9
  0
LINE
  5
B32
330
A02
100
AcDbEntity
  8
Mesh_cs
100
AcDbLine
 10
-278.67
 20
420.973
 30
11.9
 11
-279.92
 21
424.48
 31
11.9
  0
LINE
  5
B33
330
A02
100
AcDbEntity
  8
Mesh_cs
100
AcDbLine
 10
-279.92
 20
424.48
 30
11.9
 11
-280.059
 21
424.87
 31
11.9
  0
LINE
  5
B34
330
A02
100
AcDbEntity
  8
Mesh_cs
100
AcDbLine
 10
-280.059
 20
424.87
 30
11.9
 11
-281.281
 21
428.386
 31
11.9
  0
LINE
  5
B35
330
A02
100
AcDbEntity
  8
Mesh_cs
100
AcDbLine
 10
-281.281
 20
428.386
 30
11.9
 11
-281.416
 21
428.777
 31
11.9
  0
LINE
  5
B36
330
A02
100
AcDbEntity
  8
Mesh_cs
100
AcDbLine
 10
-281.416
 20
428.777
 30
11.9
 11
-282.611
 21
432.303
 31
11.9
  0
LINE
  5
B37
330
A02
100
AcDbEntity
  8
Mesh_cs
100
AcDbLine
 10
-282.611
 20
432.303
 30
11.9
 11
-282.744
 21
432.694
 31
11.9
  0
LINE
  5
B38
330
A02
100
AcDbEntity
  8
Mesh_cs
100
AcDbLine
 10
-282.744
 20
432.694
 30
11.9
 11
-283.91
 21
436.229
 31
11.9
  0
LINE
  5
B39
330
A02
100
AcDbEntity
  8
Mesh_cs
100
AcDbLine
 10
-283.91
 20
436.229
 30
11.9
 11
-284.04
 21
436.622
 31
11.9
  0
LINE
  5
B3A
330
A02
100
AcDbEntity
  8
Mesh_cs
100
AcDbLine
 10
-284.04
 20
436.622
 30
11.9
 11
-285.304
 21
440.56
 31
11.9
  0
LINE
  5
B3B
330
A02
100
AcDbEntity
  8
Mesh_cs
100
AcDbLine
 10
-285.304
 20
440.56
 30
11.9
 11
-285.444
 21
440.998
 31
11.9
  0
LINE
  5
B3C
330
A02
100
AcDbEntity
  8
Mesh_cs
100
AcDbLine
 10
-285.444
 20
440.998
 30
11.9
 11
-286.674
 21
444.947
 31
11.9
  0
LINE
  5
B3D
330
A02
100
AcDbEntity
  8
Mesh_cs
100
AcDbLine
 10
-286.674
 20
444.947
 30
11.9
 11
-286.81
 21
445.386
 31
11.9
  0
LINE
  5
B3E
330
A02
100
AcDbEntity
  8
Mesh_cs
100
AcDbLine
 10
-286.81
 20
445.386
 30
11.9
 11
-288.005
 21
449.345
 31
11.9
  0
LINE
  5
B3F
330
A02
100
AcDbEntity
  8
Mesh_cs
100
AcDbLine
 10
-288.005
 20
449.345
 30
11.9
 11
-288.138
 21
449.785
 31
11.9
  0
LINE
  5
B40
330
A02
100
AcDbEntity
  8
Mesh_cs
100
AcDbLine
 10
-288.138
 20
449.785
 30
11.9
 11
-289.299
 21
453.755
 31
11.9
  0
LINE
  5
B41
330
A02
100
AcDbEntity
  8
Mesh_cs
100
AcDbLine
 10
-289.299
 20
453.755
 30
11.9
 11
-289.428
 21
454.196
 31
11.9
  0
LINE
  5
B42
330
A02
100
AcDbEntity
  8
Mesh_cs
100
AcDbLine
 10
-289.428
 20
454.196
 30
11.9
 11
-290.553
 21
458.176
 31
11.9
  0
LINE
  5
B43
330
A02
100
AcDbEntity
  8
Mesh_cs
100
AcDbLine
 10
-290.553
 20
458.176
 30
11.9
 11
-290.679
 21
458.618
 31
11.9
  0
LINE
  5
B44
330
A02
100
AcDbEntity
  8
Mesh_cs
100
AcDbLine
 10
-290.679
 20
458.618
 30
11.9
 11
-290.8
 21
459.061
 31
11.9
  0
LINE
  5
B45
330
A02
100
AcDbEntity
  8
Mesh_cs
100
AcDbLine
 10
-290.8
 20
459.061
 30
11.9
 11
-291.891
 21
463.05
 31
11.9
  0
LINE
  5
B46
330
A02
100
AcDbEntity
  8
Mesh_cs
100
AcDbLine
 10
-291.891
 20
463.05
 30
11.9
 11
-292.947
 21
467.049
 31
11.9
  0
LINE
  5
B47
330
A02
100
AcDbEntity
  8
Mesh_cs
100
AcDbLine
 10
-292.947
 20
467.049
 30
11.9
 11
-293.065
 21
467.493
 31
11.9
  0
LINE
  5
B48
330
A02
100
AcDbEntity
  8
Mesh_cs
100
AcDbLine
 10
-293.065
 20
467.493
 30
11.9
 11
-293.178
 21
467.938
 31
11.9
  0
LINE
  5
B49
330
A02
100
AcDbEntity
  8
Mesh_cs
100
AcDbLine
 10
-293.178
 20
467.938
 30
11.9
 11
-294.2
 21
471.946
 31
11.9
  0
LINE
  5
B4A
330
A02
100
AcDbEntity
  8
Mesh_cs
100
AcDbLine
 10
-294.2
 20
471.946
 30
11.9
 11
-294.309
 21
472.392
 31
11.9
  0
LINE
  5
B4B
330
A02
100
AcDbEntity
  8
Mesh_cs
100
AcDbLine
 10
-294.309
 20
472.392
 30
11.9
 11
-295.296
 21
476.408
 31
11.9
  0
LINE
  5
B4C
330
A02
100
AcDbEntity
  8
Mesh_cs
100
AcDbLine
 10
-295.296
 20
476.408
 30
11.9
 11
-296.248
 21
480.433
 31
11.9
  0
LINE
  5
B4D
330
A02
100
AcDbEntity
  8
Mesh_cs
100
AcDbLine
 10
-296.248
 20
480.433
 30
11.9
 11
-296.353
 21
480.88
 31
11.9
  0
LINE
  5
B4E
330
A02
100
AcDbEntity
  8
Mesh_cs
100
AcDbLine
 10
-296.353
 20
480.88
 30
11.9
 11
-296.455
 21
481.328
 31
11.9
  0
LINE
  5
B4F
330
A02
100
AcDbEntity
  8
Mesh_cs
100
AcDbLine
 10
-296.455
 20
481.328
 30
11.9
 11
-297.372
 21
485.36
 31
11.9
  0
LINE
  5
B50
330
A02
100
AcDbEntity
  8
Mesh_cs
100
AcDbLine
 10
-297.372
 20
485.36
 30
11.9
 11
-298.253
 21
489.401
 31
11.9
  0
LINE
  5
B51
330
A02
100
AcDbEntity
  8
Mesh_cs
100
AcDbLine
 10
-298.253
 20
489.401
 30
11.9
 11
-298.351
 21
489.849
 31
11.9
  0
LINE
  5
B52
330
A02
100
AcDbEntity
  8
Mesh_cs
100
AcDbLine
 10
-298.351
 20
489.849
 30
11.9
 11
-299.197
 21
493.897
 31
11.9
  0
LINE
  5
B53
330
A02
100
AcDbEntity
  8
Mesh_cs
100
AcDbLine
 10
-299.197
 20
493.897
 30
11.9
 11
-299.291
 21
494.347
 31
11.9
  0
LINE
  5
B54
330
A02
100
AcDbEntity
  8
Mesh_cs
100
AcDbLine
 10
-299.291
 20
494.347
 30
11.9
 11
-300.102
 21
498.402
 31
11.9
  0
LINE
  5
B55
330
A02
100
AcDbEntity
  8
Mesh_cs
100
AcDbLine
 10
-300.102
 20
498.402
 30
11.9
 11
-300.192
 21
498.852
 31
11.9
  0
LINE
  5
B56
330
A02
100
AcDbEntity
  8
Mesh_cs
100
AcDbLine
 10
-300.192
 20
498.852
 30
11.9
 11
-300.968
 21
502.914
 31
11.9
  0
LINE
  5
B57
330
A02
100
AcDbEntity
  8
Mesh_cs
100
AcDbLine
 10
-300.968
 20
502.914
 30
11.9
 11
-301.054
 21
503.365
 31
11.9
  0
LINE
  5
B58
330
A02
100
AcDbEntity
  8
Mesh_cs
100
AcDbLine
 10
-301.054
 20
503.365
 30
11.9
 11
-301.794
 21
507.433
 31
11.9
  0
LINE
  5
B59
330
A02
100
AcDbEntity
  8
Mesh_cs
100
AcDbLine
 10
-301.794
 20
507.433
 30
11.9
 11
-301.877
 21
507.885
 31
11.9
  0
LINE
  5
B5A
330
A02
100
AcDbEntity
  8
Mesh_cs
100
AcDbLine
 10
-301.877
 20
507.885
 30
11.9
 11
-302.581
 21
511.96
 31
11.9
  0
LINE
  5
B5B
330
A02
100
AcDbEntity
  8
Mesh_cs
100
AcDbLine
 10
-302.581
 20
511.96
 30
11.9
 11
-302.66
 21
512.412
 31
11.9
  0
LINE
  5
B5C
330
A02
100
AcDbEntity
  8
Mesh_cs
100
AcDbLine
 10
-302.66
 20
512.412
 30
11.9
 11
-303.329
 21
516.493
 31
11.9
  0
LINE
  5
B5D
330
A02
100
AcDbEntity
  8
Mesh_cs
100
AcDbLine
 10
-303.329
 20
516.493
 30
11.9
 11
-303.403
 21
516.946
 31
11.9
  0
LINE
  5
B5E
330
A02
100
AcDbEntity
  8
Mesh_cs
100
AcDbLine
 10
-303.403
 20
516.946
 30
11.9
 11
-304.037
 21
521.032
 31
11.9
  0
LINE
  5
B5F
330
A02
100
AcDbEntity
  8
Mesh_cs
100
AcDbLine
 10
-304.037
 20
521.032
 30
11.9
 11
-304.108
 21
521.486
 31
11.9
  0
LINE
  5
B60
330
A02
100
AcDbEntity
  8
Mesh_cs
100
AcDbLine
 10
-304.108
 20
521.486
 30
11.9
 11
-304.706
 21
525.577
 31
11.9
  0
LINE
  5
B61
330
A02
100
AcDbEntity
  8
Mesh_cs
100
AcDbLine
 10
-304.706
 20
525.577
 30
11.9
 11
-304.772
 21
526.031
 31
11.9
  0
LINE
  5
B62
330
A02
100
AcDbEntity
  8
Mesh_cs
100
AcDbLine
 10
-304.772
 20
526.031
 30
11.9
 11
-304.835
 21
526.487
 31
11.9
  0
LINE
  5
B63
330
A02
100
AcDbEntity
  8
Mesh_cs
100
AcDbLine
 10
-304.835
 20
526.487
 30
11.9
 11
-305.397
 21
530.583
 31
11.9
  0
LINE
  5
B64
330
A02
100
AcDbEntity
  8
Mesh_cs
100
AcDbLine
 10
-305.397
 20
530.583
 30
11.9
 11
-305.924
 21
534.683
 31
11.9
  0
LINE
  5
B65
330
A02
100
AcDbEntity
  8
Mesh_cs
100
AcDbLine
 10
-305.924
 20
534.683
 30
11.9
 11
-305.983
 21
535.139
 31
11.9
  0
LINE
  5
B66
330
A02
100
AcDbEntity
  8
Mesh_cs
100
AcDbLine
 10
-305.983
 20
535.139
 30
11.9
 11
-306.474
 21
539.244
 31
11.9
  0
LINE
  5
B67
330
A02
100
AcDbEntity
  8
Mesh_cs
100
AcDbLine
 10
-306.474
 20
539.244
 30
11.9
 11
-306.529
 21
539.7
 31
11.9
  0
LINE
  5
B68
330
A02
100
AcDbEntity
  8
Mesh_cs
100
AcDbLine
 10
-306.529
 20
539.7
 30
11.9
 11
-306.984
 21
543.809
 31
11.9
  0
LINE
  5
B69
330
A02
100
AcDbEntity
  8
Mesh_cs
100
AcDbLine
 10
-306.984
 20
543.809
 30
11.9
 11
-307.035
 21
544.266
 31
11.9
  0
LINE
  5
B6A
330
A02
100
AcDbEntity
  8
Mesh_cs
100
AcDbLine
 10
-307.035
 20
544.266
 30
11.9
 11
-307.081
 21
544.723
 31
11.9
  0
LINE
  5
B6B
330
A02
100
AcDbEntity
  8
Mesh_cs
100
AcDbLine
 10
-307.081
 20
544.723
 30
11.9
 11
-307.501
 21
548.836
 31
11.9
  0
LINE
  5
B6C
330
A02
100
AcDbEntity
  8
Mesh_cs
100
AcDbLine
 10
-307.501
 20
548.836
 30
11.9
 11
-307.543
 21
549.293
 31
11.9
  0
LINE
  5
B6D
330
A02
100
AcDbEntity
  8
Mesh_cs
100
AcDbLine
 10
-307.543
 20
549.293
 30
11.9
 11
-307.927
 21
553.41
 31
11.9
  0
LINE
  5
B6E
330
A02
100
AcDbEntity
  8
Mesh_cs
100
AcDbLine
 10
-307.927
 20
553.41
 30
11.9
 11
-308.275
 21
557.529
 31
11.9
  0
LINE
  5
B6F
330
A02
100
AcDbEntity
  8
Mesh_cs
100
AcDbLine
 10
-308.275
 20
557.529
 30
11.9
 11
-308.314
 21
557.987
 31
11.9
  0
LINE
  5
B70
330
A02
100
AcDbEntity
  8
Mesh_cs
100
AcDbLine
 10
-308.314
 20
557.987
 30
11.9
 11
-308.626
 21
562.109
 31
11.9
  0
LINE
  5
B71
330
A02
100
AcDbEntity
  8
Mesh_cs
100
AcDbLine
 10
-308.626
 20
562.109
 30
11.9
 11
-308.661
 21
562.567
 31
11.9
  0
LINE
  5
B72
330
A02
100
AcDbEntity
  8
Mesh_cs
100
AcDbLine
 10
-308.661
 20
562.567
 30
11.9
 11
-308.937
 21
566.692
 31
11.9
  0
LINE
  5
B73
330
A02
100
AcDbEntity
  8
Mesh_cs
100
AcDbLine
 10
-308.937
 20
566.692
 30
11.9
 11
-308.968
 21
567.15
 31
11.9
  0
LINE
  5
B74
330
A02
100
AcDbEntity
  8
Mesh_cs
100
AcDbLine
 10
-308.968
 20
567.15
 30
11.9
 11
-309.208
 21
571.277
 31
11.9
  0
LINE
  5
B75
330
A02
100
AcDbEntity
  8
Mesh_cs
100
AcDbLine
 10
-309.208
 20
571.277
 30
11.9
 11
-309.235
 21
571.735
 31
11.9
  0
LINE
  5
B76
330
A02
100
AcDbEntity
  8
Mesh_cs
100
AcDbLine
 10
-309.235
 20
571.735
 30
11.9
 11
-309.439
 21
575.864
 31
11.9
  0
LINE
  5
B77
330
A02
100
AcDbEntity
  8
Mesh_cs
100
AcDbLine
 10
-309.439
 20
575.864
 30
11.9
 11
-309.462
 21
576.323
 31
11.9
  0
LINE
  5
B78
330
A02
100
AcDbEntity
  8
Mesh_cs
100
AcDbLine
 10
-309.462
 20
576.323
 30
11.9
 11
-309.481
 21
576.781
 31
11.9
  0
LINE
  5
B79
330
A02
100
AcDbEntity
  8
Mesh_cs
100
AcDbLine
 10
-309.481
 20
576.781
 30
11.9
 11
-309.649
 21
580.912
 31
11.9
  0
LINE
  5
B7A
330
A02
100
AcDbEntity
  8
Mesh_cs
100
AcDbLine
 10
-309.649
 20
580.912
 30
11.9
 11
-309.782
 21
585.043
 31
11.9
  0
LINE
  5
B7B
330
A02
100
AcDbEntity
  8
Mesh_cs
100
AcDbLine
 10
-309.782
 20
585.043
 30
11.9
 11
-309.797
 21
585.502
 31
11.9
  0
LINE
  5
B7C
330
A02
100
AcDbEntity
  8
Mesh_cs
100
AcDbLine
 10
-309.797
 20
585.502
 30
11.9
 11
-309.894
 21
589.635
 31
11.9
  0
LINE
  5
B7D
330
A02
100
AcDbEntity
  8
Mesh_cs
100
AcDbLine
 10
-309.894
 20
589.635
 30
11.9
 11
-309.904
 21
590.094
 31
11.9
  0
LINE
  5
B7E
330
A02
100
AcDbEntity
  8
Mesh_cs
100
AcDbLine
 10
-390
 20
600.148
 30
11.9
 11
-389.993
 21
597.161
 31
11.9
  0
LINE
  5
B7F
330
A02
100
AcDbEntity
  8
Mesh_cs
100
AcDbLine
 10
-389.993
 20
597.161
 30
11.9
 11
-389.992
 21
597.125
 31
11.9
  0
LINE
  5
B80
330
A02
100
AcDbEntity
  8
Mesh_cs
100
AcDbLine
 10
-389.992
 20
597.125
 30
11.9
 11
-389.97
 21
594.138
 31
11.9
  0
LINE
  5
B81
330
A02
100
AcDbEntity
  8
Mesh_cs
100
AcDbLine
 10
-389.97
 20
594.138
 30
11.9
 11
-389.97
 21
594.102
 31
11.9
  0
LINE
  5
B82
330
A02
100
AcDbEntity
  8
Mesh_cs
100
AcDbLine
 10
-389.97
 20
594.102
 30
11.9
 11
-389.91
 21
589.701
 31
11.9
  0
LINE
  5
B83
330
A02
100
AcDbEntity
  8
Mesh_cs
100
AcDbLine
 10
-389.91
 20
589.701
 30
11.9
 11
-389.907
 21
589.538
 31
11.9
  0
LINE
  5
B84
330
A02
100
AcDbEntity
  8
Mesh_cs
100
AcDbLine
 10
-389.907
 20
589.538
 30
11.9
 11
-389.817
 21
585.248
 31
11.9
  0
LINE
  5
B85
330
A02
100
AcDbEntity
  8
Mesh_cs
100
AcDbLine
 10
-389.817
 20
585.248
 30
11.9
 11
-375.591
 21
585.248
 31
11.9
  0
LINE
  5
B86
330
A02
100
AcDbEntity
  8
Mesh_cs
100
AcDbLine
 10
-375.591
 20
585.248
 30
11.9
 11
-375.1
 21
585.248
 31
11.9
  0
LINE
  5
B87
330
A02
100
AcDbEntity
  8
Mesh_cs
100
AcDbLine
 10
-375.1
 20
585.248
 30
11.9
 11
-375.1
 21
585.745
 31
11.9
  0
LINE
  5
B88
330
A02
100
AcDbEntity
  8
Mesh_cs
100
AcDbLine
 10
-375.1
 20
585.745
 30
11.9
 11
-375.1
 21
600.148
 31
11.9
  0
LINE
  5
B89
330
A02
100
AcDbEntity
  8
Mesh_cs
100
AcDbLine
 10
-375.1
 20
600.148
 30
11.9
 11
-389.503
 21
600.148
 31
11.9
  0
LINE
  5
B8A
330
A02
100
AcDbEntity
  8
Mesh_cs
100
AcDbLine
 10
-389.503
 20
600.148
 30
11.9
 11
-390
 21
600.148
 31
11.9
  0
LINE
  5
B8B
330
A02
100
AcDbEntity
  8
Mesh_cs
100
AcDbLine
 10
-195.497
 20
585.248
 30
11.9
 11
-209.9
 21
585.248
 31
11.9
  0
LINE
  5
B8C
330
A02
100
AcDbEntity
  8
Mesh_cs
100
AcDbLine
 10
-209.9
 20
585.248
 30
11.9
 11
-209.9
 21
585.745
 31
11.9
  0
LINE
  5
B8D
330
A02
100
AcDbEntity
  8
Mesh_cs
100
AcDbLine
 10
-209.9
 20
585.745
 30
11.9
 11
-209.9
 21
600.148
 31
11.9
  0
LINE
  5
B8E
330
A02
100
AcDbEntity
  8
Mesh_cs
100
AcDbLine
 10
-209.9
 20
600.148
 30
11.9
 11
-195.497
 21
600.148
 31
11.9
  0
LINE
  5
B8F
330
A02
100
AcDbEntity
  8
Mesh_cs
100
AcDbLine
 10
-195.497
 20
600.148
 30
11.9
 11
-195
 21
600.148
 31
11.9
  0
LINE
  5
B90
330
A02
100
AcDbEntity
  8
Mesh_cs
100
AcDbLine
 10
-195
 20
600.148
 30
11.9
 11
-195
 21
599.652
 31
11.9
  0
LINE
  5
B91
330
A02
100
AcDbEntity
  8
Mesh_cs
100
AcDbLine
 10
-195
 20
599.652
 30
11.9
 11
-195
 21
585.248
 31
11.9
  0
LINE
  5
B92
330
A02
100
AcDbEntity
  8
Mesh_cs
100
AcDbLine
 10
-195
 20
585.248
 30
11.9
 11
-195.497
 21
585.248
 31
11.9
  0
LINE
  5
B93
330
A02
100
AcDbEntity
  8
Mesh_cs
100
AcDbLine
 10
-237.765
 20
412.19
 30
11.9
 11
-237.916
 21
412.56
 31
11.9
  0
LINE
  5
B94
330
A02
100
AcDbEntity
  8
Mesh_cs
100
AcDbLine
 10
-237.916
 20
412.56
 30
11.9
 11
-239.274
 21
415.891
 31
11.9
  0
LINE
  5
B95
330
A02
100
AcDbEntity
  8
Mesh_cs
100
AcDbLine
 10
-239.274
 20
415.891
 30
11.9
 11
-239.422
 21
416.263
 31
11.9
  0
LINE
  5
B96
330
A02
100
AcDbEntity
  8
Mesh_cs
100
AcDbLine
 10
-239.422
 20
416.263
 30
11.9
 11
-240.753
 21
419.605
 31
11.9
  0
LINE
  5
B97
330
A02
100
AcDbEntity
  8
Mesh_cs
100
AcDbLine
 10
-240.753
 20
419.605
 30
11.9
 11
-240.898
 21
419.978
 31
11.9
  0
LINE
  5
B98
330
A02
100
AcDbEntity
  8
Mesh_cs
100
AcDbLine
 10
-240.898
 20
419.978
 30
11.9
 11
-242.202
 21
423.331
 31
11.9
  0
LINE
  5
B99
330
A02
100
AcDbEntity
  8
Mesh_cs
100
AcDbLine
 10
-242.202
 20
423.331
 30
11.9
 11
-242.344
 21
423.705
 31
11.9
  0
LINE
  5
B9A
330
A02
100
AcDbEntity
  8
Mesh_cs
100
AcDbLine
 10
-242.344
 20
423.705
 30
11.9
 11
-243.62
 21
427.068
 31
11.9
  0
LINE
  5
B9B
330
A02
100
AcDbEntity
  8
Mesh_cs
100
AcDbLine
 10
-243.62
 20
427.068
 30
11.9
 11
-243.759
 21
427.443
 31
11.9
  0
LINE
  5
B9C
330
A02
100
AcDbEntity
  8
Mesh_cs
100
AcDbLine
 10
-243.759
 20
427.443
 30
11.9
 11
-245.008
 21
430.816
 31
11.9
  0
LINE
  5
B9D
330
A02
100
AcDbEntity
  8
Mesh_cs
100
AcDbLine
 10
-245.008
 20
430.816
 30
11.9
 11
-245.144
 21
431.192
 31
11.9
  0
LINE
  5
B9E
330
A02
100
AcDbEntity
  8
Mesh_cs
100
AcDbLine
 10
-245.144
 20
431.192
 30
11.9
 11
-246.366
 21
434.576
 31
11.9
  0
LINE
  5
B9F
330
A02
100
AcDbEntity
  8
Mesh_cs
100
AcDbLine
 10
-246.366
 20
434.576
 30
11.9
 11
-246.499
 21
434.953
 31
11.9
  0
LINE
  5
BA0
330
A02
100
AcDbEntity
  8
Mesh_cs
100
AcDbLine
 10
-246.499
 20
434.953
 30
11.9
 11
-247.693
 21
438.346
 31
11.9
  0
LINE
  5
BA1
330
A02
100
AcDbEntity
  8
Mesh_cs
100
AcDbLine
 10
-247.693
 20
438.346
 30
11.9
 11
-247.823
 21
438.725
 31
11.9
  0
LINE
  5
BA2
330
A02
100
AcDbEntity
  8
Mesh_cs
100
AcDbLine
 10
-247.823
 20
438.725
 30
11.9
 11
-248.99
 21
442.127
 31
11.9
  0
LINE
  5
BA3
330
A02
100
AcDbEntity
  8
Mesh_cs
100
AcDbLine
 10
-248.99
 20
442.127
 30
11.9
 11
-249.116
 21
442.507
 31
11.9
  0
LINE
  5
BA4
330
A02
100
AcDbEntity
  8
Mesh_cs
100
AcDbLine
 10
-249.116
 20
442.507
 30
11.9
 11
-250.255
 21
445.919
 31
11.9
  0
LINE
  5
BA5
330
A02
100
AcDbEntity
  8
Mesh_cs
100
AcDbLine
 10
-250.255
 20
445.919
 30
11.9
 11
-250.379
 21
446.299
 31
11.9
  0
LINE
  5
BA6
330
A02
100
AcDbEntity
  8
Mesh_cs
100
AcDbLine
 10
-250.379
 20
446.299
 30
11.9
 11
-251.49
 21
449.72
 31
11.9
  0
LINE
  5
BA7
330
A02
100
AcDbEntity
  8
Mesh_cs
100
AcDbLine
 10
-251.49
 20
449.72
 30
11.9
 11
-251.611
 21
450.101
 31
11.9
  0
LINE
  5
BA8
330
A02
100
AcDbEntity
  8
Mesh_cs
100
AcDbLine
 10
-251.611
 20
450.101
 30
11.9
 11
-252.694
 21
453.531
 31
11.9
  0
LINE
  5
BA9
330
A02
100
AcDbEntity
  8
Mesh_cs
100
AcDbLine
 10
-252.694
 20
453.531
 30
11.9
 11
-252.812
 21
453.913
 31
11.9
  0
LINE
  5
BAA
330
A02
100
AcDbEntity
  8
Mesh_cs
100
AcDbLine
 10
-252.812
 20
453.913
 30
11.9
 11
-253.867
 21
457.352
 31
11.9
  0
LINE
  5
BAB
330
A02
100
AcDbEntity
  8
Mesh_cs
100
AcDbLine
 10
-253.867
 20
457.352
 30
11.9
 11
-253.982
 21
457.735
 31
11.9
  0
LINE
  5
BAC
330
A02
100
AcDbEntity
  8
Mesh_cs
100
AcDbLine
 10
-253.982
 20
457.735
 30
11.9
 11
-255.01
 21
461.182
 31
11.9
  0
LINE
  5
BAD
330
A02
100
AcDbEntity
  8
Mesh_cs
100
AcDbLine
 10
-255.01
 20
461.182
 30
11.9
 11
-255.133
 21
461.609
 31
11.9
  0
LINE
  5
BAE
330
A02
100
AcDbEntity
  8
Mesh_cs
100
AcDbLine
 10
-255.133
 20
461.609
 30
11.9
 11
-256.242
 21
465.448
 31
11.9
  0
LINE
  5
BAF
330
A02
100
AcDbEntity
  8
Mesh_cs
100
AcDbLine
 10
-256.242
 20
465.448
 30
11.9
 11
-256.361
 21
465.876
 31
11.9
  0
LINE
  5
BB0
330
A02
100
AcDbEntity
  8
Mesh_cs
100
AcDbLine
 10
-256.361
 20
465.876
 30
11.9
 11
-257.436
 21
469.725
 31
11.9
  0
LINE
  5
BB1
330
A02
100
AcDbEntity
  8
Mesh_cs
100
AcDbLine
 10
-257.436
 20
469.725
 30
11.9
 11
-257.552
 21
470.154
 31
11.9
  0
LINE
  5
BB2
330
A02
100
AcDbEntity
  8
Mesh_cs
100
AcDbLine
 10
-257.552
 20
470.154
 30
11.9
 11
-258.591
 21
474.013
 31
11.9
  0
LINE
  5
BB3
330
A02
100
AcDbEntity
  8
Mesh_cs
100
AcDbLine
 10
-258.591
 20
474.013
 30
11.9
 11
-258.703
 21
474.443
 31
11.9
  0
LINE
  5
BB4
330
A02
100
AcDbEntity
  8
Mesh_cs
100
AcDbLine
 10
-258.703
 20
474.443
 30
11.9
 11
-259.708
 21
478.311
 31
11.9
  0
LINE
  5
BB5
330
A02
100
AcDbEntity
  8
Mesh_cs
100
AcDbLine
 10
-259.708
 20
478.311
 30
11.9
 11
-259.816
 21
478.741
 31
11.9
  0
LINE
  5
BB6
330
A02
100
AcDbEntity
  8
Mesh_cs
100
AcDbLine
 10
-259.816
 20
478.741
 30
11.9
 11
-260.786
 21
482.618
 31
11.9
  0
LINE
  5
BB7
330
A02
100
AcDbEntity
  8
Mesh_cs
100
AcDbLine
 10
-260.786
 20
482.618
 30
11.9
 11
-260.89
 21
483.05
 31
11.9
  0
LINE
  5
BB8
330
A02
100
AcDbEntity
  8
Mesh_cs
100
AcDbLine
 10
-260.89
 20
483.05
 30
11.9
 11
-261.825
 21
486.935
 31
11.9
  0
LINE
  5
BB9
330
A02
100
AcDbEntity
  8
Mesh_cs
100
AcDbLine
 10
-261.825
 20
486.935
 30
11.9
 11
-261.925
 21
487.368
 31
11.9
  0
LINE
  5
BBA
330
A02
100
AcDbEntity
  8
Mesh_cs
100
AcDbLine
 10
-261.925
 20
487.368
 30
11.9
 11
-262.825
 21
491.261
 31
11.9
  0
LINE
  5
BBB
330
A02
100
AcDbEntity
  8
Mesh_cs
100
AcDbLine
 10
-262.825
 20
491.261
 30
11.9
 11
-262.921
 21
491.695
 31
11.9
  0
LINE
  5
BBC
330
A02
100
AcDbEntity
  8
Mesh_cs
100
AcDbLine
 10
-262.921
 20
491.695
 30
11.9
 11
-263.786
 21
495.596
 31
11.9
  0
LINE
  5
BBD
330
A02
100
AcDbEntity
  8
Mesh_cs
100
AcDbLine
 10
-263.786
 20
495.596
 30
11.9
 11
-263.879
 21
496.03
 31
11.9
  0
LINE
  5
BBE
330
A02
100
AcDbEntity
  8
Mesh_cs
100
AcDbLine
 10
-263.879
 20
496.03
 30
11.9
 11
-264.708
 21
499.939
 31
11.9
  0
LINE
  5
BBF
330
A02
100
AcDbEntity
  8
Mesh_cs
100
AcDbLine
 10
-264.708
 20
499.939
 30
11.9
 11
-264.797
 21
500.374
 31
11.9
  0
LINE
  5
BC0
330
A02
100
AcDbEntity
  8
Mesh_cs
100
AcDbLine
 10
-264.797
 20
500.374
 30
11.9
 11
-265.591
 21
504.291
 31
11.9
  0
LINE
  5
BC1
330
A02
100
AcDbEntity
  8
Mesh_cs
100
AcDbLine
 10
-265.591
 20
504.291
 30
11.9
 11
-265.676
 21
504.726
 31
11.9
  0
LINE
  5
BC2
330
A02
100
AcDbEntity
  8
Mesh_cs
100
AcDbLine
 10
-265.676
 20
504.726
 30
11.9
 11
-266.435
 21
508.649
 31
11.9
  0
LINE
  5
BC3
330
A02
100
AcDbEntity
  8
Mesh_cs
100
AcDbLine
 10
-266.435
 20
508.649
 30
11.9
 11
-266.515
 21
509.086
 31
11.9
  0
LINE
  5
BC4
330
A02
100
AcDbEntity
  8
Mesh_cs
100
AcDbLine
 10
-266.515
 20
509.086
 30
11.9
 11
-267.239
 21
513.016
 31
11.9
  0
LINE
  5
BC5
330
A02
100
AcDbEntity
  8
Mesh_cs
100
AcDbLine
 10
-267.239
 20
513.016
 30
11.9
 11
-267.316
 21
513.453
 31
11.9
  0
LINE
  5
BC6
330
A02
100
AcDbEntity
  8
Mesh_cs
100
AcDbLine
 10
-267.316
 20
513.453
 30
11.9
 11
-268.004
 21
517.389
 31
11.9
  0
LINE
  5
BC7
330
A02
100
AcDbEntity
  8
Mesh_cs
100
AcDbLine
 10
-268.004
 20
517.389
 30
11.9
 11
-268.077
 21
517.827
 31
11.9
  0
LINE
  5
BC8
330
A02
100
AcDbEntity
  8
Mesh_cs
100
AcDbLine
 10
-268.077
 20
517.827
 30
11.9
 11
-268.73
 21
521.769
 31
11.9
  0
LINE
  5
BC9
330
A02
100
AcDbEntity
  8
Mesh_cs
100
AcDbLine
 10
-268.73
 20
521.769
 30
11.9
 11
-268.798
 21
522.207
 31
11.9
  0
LINE
  5
BCA
330
A02
100
AcDbEntity
  8
Mesh_cs
100
AcDbLine
 10
-268.798
 20
522.207
 30
11.9
 11
-269.416
 21
526.155
 31
11.9
  0
LINE
  5
BCB
330
A02
100
AcDbEntity
  8
Mesh_cs
100
AcDbLine
 10
-269.416
 20
526.155
 30
11.9
 11
-269.48
 21
526.594
 31
11.9
  0
LINE
  5
BCC
330
A02
100
AcDbEntity
  8
Mesh_cs
100
AcDbLine
 10
-269.48
 20
526.594
 30
11.9
 11
-270.062
 21
530.547
 31
11.9
  0
LINE
  5
BCD
330
A02
100
AcDbEntity
  8
Mesh_cs
100
AcDbLine
 10
-270.062
 20
530.547
 30
11.9
 11
-270.123
 21
530.987
 31
11.9
  0
LINE
  5
BCE
330
A02
100
AcDbEntity
  8
Mesh_cs
100
AcDbLine
 10
-270.123
 20
530.987
 30
11.9
 11
-270.669
 21
534.945
 31
11.9
  0
LINE
  5
BCF
330
A02
100
AcDbEntity
  8
Mesh_cs
100
AcDbLine
 10
-270.669
 20
534.945
 30
11.9
 11
-270.726
 21
535.385
 31
11.9
  0
LINE
  5
BD0
330
A02
100
AcDbEntity
  8
Mesh_cs
100
AcDbLine
 10
-270.726
 20
535.385
 30
11.9
 11
-271.237
 21
539.347
 31
11.9
  0
LINE
  5
BD1
330
A02
100
AcDbEntity
  8
Mesh_cs
100
AcDbLine
 10
-271.237
 20
539.347
 30
11.9
 11
-271.289
 21
539.788
 31
11.9
  0
LINE
  5
BD2
330
A02
100
AcDbEntity
  8
Mesh_cs
100
AcDbLine
 10
-271.289
 20
539.788
 30
11.9
 11
-271.764
 21
543.755
 31
11.9
  0
LINE
  5
BD3
330
A02
100
AcDbEntity
  8
Mesh_cs
100
AcDbLine
 10
-271.764
 20
543.755
 30
11.9
 11
-271.813
 21
544.196
 31
11.9
  0
LINE
  5
BD4
330
A02
100
AcDbEntity
  8
Mesh_cs
100
AcDbLine
 10
-271.813
 20
544.196
 30
11.9
 11
-272.252
 21
548.167
 31
11.9
  0
LINE
  5
BD5
330
A02
100
AcDbEntity
  8
Mesh_cs
100
AcDbLine
 10
-272.252
 20
548.167
 30
11.9
 11
-272.297
 21
548.609
 31
11.9
  0
LINE
  5
BD6
330
A02
100
AcDbEntity
  8
Mesh_cs
100
AcDbLine
 10
-272.297
 20
548.609
 30
11.9
 11
-272.7
 21
552.583
 31
11.9
  0
LINE
  5
BD7
330
A02
100
AcDbEntity
  8
Mesh_cs
100
AcDbLine
 10
-272.7
 20
552.583
 30
11.9
 11
-272.741
 21
553.025
 31
11.9
  0
LINE
  5
BD8
330
A02
100
AcDbEntity
  8
Mesh_cs
100
AcDbLine
 10
-272.741
 20
553.025
 30
11.9
 11
-273.109
 21
557.003
 31
11.9
  0
LINE
  5
BD9
330
A02
100
AcDbEntity
  8
Mesh_cs
100
AcDbLine
 10
-273.109
 20
557.003
 30
11.9
 11
-273.145
 21
557.446
 31
11.9
  0
LINE
  5
BDA
330
A02
100
AcDbEntity
  8
Mesh_cs
100
AcDbLine
 10
-273.145
 20
557.446
 30
11.9
 11
-273.477
 21
561.427
 31
11.9
  0
LINE
  5
BDB
330
A02
100
AcDbEntity
  8
Mesh_cs
100
AcDbLine
 10
-273.477
 20
561.427
 30
11.9
 11
-273.51
 21
561.869
 31
11.9
  0
LINE
  5
BDC
330
A02
100
AcDbEntity
  8
Mesh_cs
100
AcDbLine
 10
-273.51
 20
561.869
 30
11.9
 11
-273.806
 21
565.853
 31
11.9
  0
LINE
  5
BDD
330
A02
100
AcDbEntity
  8
Mesh_cs
100
AcDbLine
 10
-273.806
 20
565.853
 30
11.9
 11
-273.835
 21
566.296
 31
11.9
  0
LINE
  5
BDE
330
A02
100
AcDbEntity
  8
Mesh_cs
100
AcDbLine
 10
-273.835
 20
566.296
 30
11.9
 11
-274.095
 21
570.282
 31
11.9
  0
LINE
  5
BDF
330
A02
100
AcDbEntity
  8
Mesh_cs
100
AcDbLine
 10
-274.095
 20
570.282
 30
11.9
 11
-274.119
 21
570.726
 31
11.9
  0
LINE
  5
BE0
330
A02
100
AcDbEntity
  8
Mesh_cs
100
AcDbLine
 10
-274.119
 20
570.726
 30
11.9
 11
-274.343
 21
574.714
 31
11.9
  0
LINE
  5
BE1
330
A02
100
AcDbEntity
  8
Mesh_cs
100
AcDbLine
 10
-274.343
 20
574.714
 30
11.9
 11
-274.364
 21
575.157
 31
11.9
  0
LINE
  5
BE2
330
A02
100
AcDbEntity
  8
Mesh_cs
100
AcDbLine
 10
-274.364
 20
575.157
 30
11.9
 11
-274.553
 21
579.147
 31
11.9
  0
LINE
  5
BE3
330
A02
100
AcDbEntity
  8
Mesh_cs
100
AcDbLine
 10
-274.553
 20
579.147
 30
11.9
 11
-274.569
 21
579.591
 31
11.9
  0
LINE
  5
BE4
330
A02
100
AcDbEntity
  8
Mesh_cs
100
AcDbLine
 10
-274.569
 20
579.591
 30
11.9
 11
-274.722
 21
583.582
 31
11.9
  0
LINE
  5
BE5
330
A02
100
AcDbEntity
  8
Mesh_cs
100
AcDbLine
 10
-274.722
 20
583.582
 30
11.9
 11
-274.735
 21
584.026
 31
11.9
  0
LINE
  5
BE6
330
A02
100
AcDbEntity
  8
Mesh_cs
100
AcDbLine
 10
-274.735
 20
584.026
 30
11.9
 11
-274.851
 21
588.019
 31
11.9
  0
LINE
  5
BE7
330
A02
100
AcDbEntity
  8
Mesh_cs
100
AcDbLine
 10
-274.851
 20
588.019
 30
11.9
 11
-274.86
 21
588.462
 31
11.9
  0
LINE
  5
BE8
330
A02
100
AcDbEntity
  8
Mesh_cs
100
AcDbLine
 10
-274.86
 20
588.462
 30
11.9
 11
-274.94
 21
592.456
 31
11.9
  0
LINE
  5
BE9
330
A02
100
AcDbEntity
  8
Mesh_cs
100
AcDbLine
 10
-274.94
 20
592.456
 30
11.9
 11
-274.944
 21
592.841
 31
11.9
  0
LINE
  5
BEA
330
A02
100
AcDbEntity
  8
Mesh_cs
100
AcDbLine
 10
-274.944
 20
592.841
 30
11.9
 11
-274.985
 21
596.304
 31
11.9
  0
LINE
  5
BEB
330
A02
100
AcDbEntity
  8
Mesh_cs
100
AcDbLine
 10
-274.985
 20
596.304
 30
11.9
 11
-274.987
 21
596.688
 31
11.9
  0
LINE
  5
BEC
330
A02
100
AcDbEntity
  8
Mesh_cs
100
AcDbLine
 10
-274.987
 20
596.688
 30
11.9
 11
-275
 21
600.148
 31
11.9
  0
LINE
  5
BED
330
A02
100
AcDbEntity
  8
Mesh_cs
100
AcDbLine
 10
-275
 20
600.148
 30
11.9
 11
-225.41
 21
600.148
 31
11.9
  0
LINE
  5
BEE
330
A02
100
AcDbEntity
  8
Mesh_cs
100
AcDbLine
 10
-225.41
 20
600.148
 30
11.9
 11
-219.9
 21
600.148
 31
11.9
  0
LINE
  5
BEF
330
A02
100
AcDbEntity
  8
Mesh_cs
100
AcDbLine
 10
-219.9
 20
600.148
 30
11.9
 11
-219.9
 21
580.912
 31
11.9
  0
LINE
  5
BF0
330
A02
100
AcDbEntity
  8
Mesh_cs
100
AcDbLine
 10
-219.9
 20
580.912
 30
11.9
 11
-219.9
 21
580.248
 31
11.9
  0
LINE
  5
BF1
330
A02
100
AcDbEntity
  8
Mesh_cs
100
AcDbLine
 10
-219.9
 20
580.248
 30
11.9
 11
-219.889
 21
579.916
 31
11.9
  0
LINE
  5
BF2
330
A02
100
AcDbEntity
  8
Mesh_cs
100
AcDbLine
 10
-219.889
 20
579.916
 30
11.9
 11
-219.888
 21
579.902
 31
11.9
  0
LINE
  5
BF3
330
A02
100
AcDbEntity
  8
Mesh_cs
100
AcDbLine
 10
-219.888
 20
579.902
 30
11.9
 11
-219.854
 21
579.57
 31
11.9
  0
LINE
  5
BF4
330
A02
100
AcDbEntity
  8
Mesh_cs
100
AcDbLine
 10
-219.854
 20
579.57
 30
11.9
 11
-219.852
 21
579.557
 31
11.9
  0
LINE
  5
BF5
330
A02
100
AcDbEntity
  8
Mesh_cs
100
AcDbLine
 10
-219.852
 20
579.557
 30
11.9
 11
-219.773
 21
579.132
 31
11.9
  0
LINE
  5
BF6
330
A02
100
AcDbEntity
  8
Mesh_cs
100
AcDbLine
 10
-219.773
 20
579.132
 30
11.9
 11
-219.771
 21
579.119
 31
11.9
  0
LINE
  5
BF7
330
A02
100
AcDbEntity
  8
Mesh_cs
100
AcDbLine
 10
-219.771
 20
579.119
 30
11.9
 11
-219.655
 21
578.702
 31
11.9
  0
LINE
  5
BF8
330
A02
100
AcDbEntity
  8
Mesh_cs
100
AcDbLine
 10
-219.655
 20
578.702
 30
11.9
 11
-219.651
 21
578.689
 31
11.9
  0
LINE
  5
BF9
330
A02
100
AcDbEntity
  8
Mesh_cs
100
AcDbLine
 10
-219.651
 20
578.689
 30
11.9
 11
-219.498
 21
578.285
 31
11.9
  0
LINE
  5
BFA
330
A02
100
AcDbEntity
  8
Mesh_cs
100
AcDbLine
 10
-219.498
 20
578.285
 30
11.9
 11
-219.493
 21
578.273
 31
11.9
  0
LINE
  5
BFB
330
A02
100
AcDbEntity
  8
Mesh_cs
100
AcDbLine
 10
-219.493
 20
578.273
 30
11.9
 11
-219.305
 21
577.884
 31
11.9
  0
LINE
  5
BFC
330
A02
100
AcDbEntity
  8
Mesh_cs
100
AcDbLine
 10
-219.305
 20
577.884
 30
11.9
 11
-219.299
 21
577.872
 31
11.9
  0
LINE
  5
BFD
330
A02
100
AcDbEntity
  8
Mesh_cs
100
AcDbLine
 10
-219.299
 20
577.872
 30
11.9
 11
-219.292
 21
577.86
 31
11.9
  0
LINE
  5
BFE
330
A02
100
AcDbEntity
  8
Mesh_cs
100
AcDbLine
 10
-219.292
 20
577.86
 30
11.9
 11
-219.07
 21
577.489
 31
11.9
  0
LINE
  5
BFF
330
A02
100
AcDbEntity
  8
Mesh_cs
100
AcDbLine
 10
-219.07
 20
577.489
 30
11.9
 11
-219.062
 21
577.478
 31
11.9
  0
LINE
  5
C00
330
A02
100
AcDbEntity
  8
Mesh_cs
100
AcDbLine
 10
-219.062
 20
577.478
 30
11.9
 11
-218.808
 21
577.129
 31
11.9
  0
LINE
  5
C01
330
A02
100
AcDbEntity
  8
Mesh_cs
100
AcDbLine
 10
-218.808
 20
577.129
 30
11.9
 11
-218.799
 21
577.119
 31
11.9
  0
LINE
  5
C02
330
A02
100
AcDbEntity
  8
Mesh_cs
100
AcDbLine
 10
-218.799
 20
577.119
 30
11.9
 11
-218.515
 21
576.794
 31
11.9
  0
LINE
  5
C03
330
A02
100
AcDbEntity
  8
Mesh_cs
100
AcDbLine
 10
-218.515
 20
576.794
 30
11.9
 11
-218.505
 21
576.784
 31
11.9
  0
LINE
  5
C04
330
A02
100
AcDbEntity
  8
Mesh_cs
100
AcDbLine
 10
-218.505
 20
576.784
 30
11.9
 11
-218.193
 21
576.486
 31
11.9
  0
LINE
  5
C05
330
A02
100
AcDbEntity
  8
Mesh_cs
100
AcDbLine
 10
-218.193
 20
576.486
 30
11.9
 11
-218.181
 21
576.476
 31
11.9
  0
LINE
  5
C06
330
A02
100
AcDbEntity
  8
Mesh_cs
100
AcDbLine
 10
-218.181
 20
576.476
 30
11.9
 11
-217.878
 21
576.232
 31
11.9
  0
LINE
  5
C07
330
A02
100
AcDbEntity
  8
Mesh_cs
100
AcDbLine
 10
-217.878
 20
576.232
 30
11.9
 11
-217.866
 21
576.224
 31
11.9
  0
LINE
  5
C08
330
A02
100
AcDbEntity
  8
Mesh_cs
100
AcDbLine
 10
-217.866
 20
576.224
 30
11.9
 11
-217.544
 21
576.005
 31
11.9
  0
LINE
  5
C09
330
A02
100
AcDbEntity
  8
Mesh_cs
100
AcDbLine
 10
-217.544
 20
576.005
 30
11.9
 11
-217.532
 21
575.997
 31
11.9
  0
LINE
  5
C0A
330
A02
100
AcDbEntity
  8
Mesh_cs
100
AcDbLine
 10
-217.532
 20
575.997
 30
11.9
 11
-217.193
 21
575.805
 31
11.9
  0
LINE
  5
C0B
330
A02
100
AcDbEntity
  8
Mesh_cs
100
AcDbLine
 10
-217.193
 20
575.805
 30
11.9
 11
-217.18
 21
575.799
 31
11.9
  0
LINE
  5
C0C
330
A02
100
AcDbEntity
  8
Mesh_cs
100
AcDbLine
 10
-217.18
 20
575.799
 30
11.9
 11
-216.827
 21
575.635
 31
11.9
  0
LINE
  5
C0D
330
A02
100
AcDbEntity
  8
Mesh_cs
100
AcDbLine
 10
-216.827
 20
575.635
 30
11.9
 11
-216.813
 21
575.63
 31
11.9
  0
LINE
  5
C0E
330
A02
100
AcDbEntity
  8
Mesh_cs
100
AcDbLine
 10
-216.813
 20
575.63
 30
11.9
 11
-216.449
 21
575.494
 31
11.9
  0
LINE
  5
C0F
330
A02
100
AcDbEntity
  8
Mesh_cs
100
AcDbLine
 10
-216.449
 20
575.494
 30
11.9
 11
-216.074
 21
575.389
 31
11.9
  0
LINE
  5
C10
330
A02
100
AcDbEntity
  8
Mesh_cs
100
AcDbLine
 10
-216.074
 20
575.389
 30
11.9
 11
-216.06
 21
575.385
 31
11.9
  0
LINE
  5
C11
330
A02
100
AcDbEntity
  8
Mesh_cs
100
AcDbLine
 10
-216.06
 20
575.385
 30
11.9
 11
-215.713
 21
575.315
 31
11.9
  0
LINE
  5
C12
330
A02
100
AcDbEntity
  8
Mesh_cs
100
AcDbLine
 10
-215.713
 20
575.315
 30
11.9
 11
-215.698
 21
575.312
 31
11.9
  0
LINE
  5
C13
330
A02
100
AcDbEntity
  8
Mesh_cs
100
AcDbLine
 10
-215.698
 20
575.312
 30
11.9
 11
-215.311
 21
575.266
 31
11.9
  0
LINE
  5
C14
330
A02
100
AcDbEntity
  8
Mesh_cs
100
AcDbLine
 10
-215.311
 20
575.266
 30
11.9
 11
-215.3
 21
575.264
 31
11.9
  0
LINE
  5
C15
330
A02
100
AcDbEntity
  8
Mesh_cs
100
AcDbLine
 10
-215.3
 20
575.264
 30
11.9
 11
-214.911
 21
575.249
 31
11.9
  0
LINE
  5
C16
330
A02
100
AcDbEntity
  8
Mesh_cs
100
AcDbLine
 10
-214.911
 20
575.249
 30
11.9
 11
-214.9
 21
575.248
 31
11.9
  0
LINE
  5
C17
330
A02
100
AcDbEntity
  8
Mesh_cs
100
AcDbLine
 10
-214.9
 20
575.248
 30
11.9
 11
-195.663
 21
575.248
 31
11.9
  0
LINE
  5
C18
330
A02
100
AcDbEntity
  8
Mesh_cs
100
AcDbLine
 10
-195.663
 20
575.248
 30
11.9
 11
-195
 21
575.248
 31
11.9
  0
LINE
  5
C19
330
A02
100
AcDbEntity
  8
Mesh_cs
100
AcDbLine
 10
-195
 20
575.248
 30
11.9
 11
-195
 21
550.816
 31
11.9
  0
LINE
  5
C1A
330
A02
100
AcDbEntity
  8
Mesh_cs
100
AcDbLine
 10
-195
 20
550.816
 30
11.9
 11
-195
 21
330.922
 31
11.9
  0
LINE
  5
C1B
330
A02
100
AcDbEntity
  8
Mesh_cs
100
AcDbLine
 10
-195
 20
330.922
 30
11.9
 11
-195.217
 21
331.258
 31
11.9
  0
LINE
  5
C1C
330
A02
100
AcDbEntity
  8
Mesh_cs
100
AcDbLine
 10
-195.217
 20
331.258
 30
11.9
 11
-197.17
 21
334.281
 31
11.9
  0
LINE
  5
C1D
330
A02
100
AcDbEntity
  8
Mesh_cs
100
AcDbLine
 10
-197.17
 20
334.281
 30
11.9
 11
-197.385
 21
334.619
 31
11.9
  0
LINE
  5
C1E
330
A02
100
AcDbEntity
  8
Mesh_cs
100
AcDbLine
 10
-197.385
 20
334.619
 30
11.9
 11
-199.316
 21
337.662
 31
11.9
  0
LINE
  5
C1F
330
A02
100
AcDbEntity
  8
Mesh_cs
100
AcDbLine
 10
-199.316
 20
337.662
 30
11.9
 11
-199.527
 21
338.001
 31
11.9
  0
LINE
  5
C20
330
A02
100
AcDbEntity
  8
Mesh_cs
100
AcDbLine
 10
-199.527
 20
338.001
 30
11.9
 11
-201.431
 21
341.055
 31
11.9
  0
LINE
  5
C21
330
A02
100
AcDbEntity
  8
Mesh_cs
100
AcDbLine
 10
-201.431
 20
341.055
 30
11.9
 11
-201.64
 21
341.396
 31
11.9
  0
LINE
  5
C22
330
A02
100
AcDbEntity
  8
Mesh_cs
100
AcDbLine
 10
-201.64
 20
341.396
 30
11.9
 11
-203.518
 21
344.466
 31
11.9
  0
LINE
  5
C23
330
A02
100
AcDbEntity
  8
Mesh_cs
100
AcDbLine
 10
-203.518
 20
344.466
 30
11.9
 11
-203.724
 21
344.809
 31
11.9
  0
LINE
  5
C24
330
A02
100
AcDbEntity
  8
Mesh_cs
100
AcDbLine
 10
-203.724
 20
344.809
 30
11.9
 11
-205.578
 21
347.893
 31
11.9
  0
LINE
  5
C25
330
A02
100
AcDbEntity
  8
Mesh_cs
100
AcDbLine
 10
-205.578
 20
347.893
 30
11.9
 11
-205.782
 21
348.238
 31
11.9
  0
LINE
  5
C26
330
A02
100
AcDbEntity
  8
Mesh_cs
100
AcDbLine
 10
-205.782
 20
348.238
 30
11.9
 11
-207.61
 21
351.337
 31
11.9
  0
LINE
  5
C27
330
A02
100
AcDbEntity
  8
Mesh_cs
100
AcDbLine
 10
-207.61
 20
351.337
 30
11.9
 11
-207.811
 21
351.683
 31
11.9
  0
LINE
  5
C28
330
A02
100
AcDbEntity
  8
Mesh_cs
100
AcDbLine
 10
-207.811
 20
351.683
 30
11.9
 11
-209.614
 21
354.797
 31
11.9
  0
LINE
  5
C29
330
A02
100
AcDbEntity
  8
Mesh_cs
100
AcDbLine
 10
-209.614
 20
354.797
 30
11.9
 11
-209.812
 21
355.145
 31
11.9
  0
LINE
  5
C2A
330
A02
100
AcDbEntity
  8
Mesh_cs
100
AcDbLine
 10
-209.812
 20
355.145
 30
11.9
 11
-211.59
 21
358.274
 31
11.9
  0
LINE
  5
C2B
330
A02
100
AcDbEntity
  8
Mesh_cs
100
AcDbLine
 10
-211.59
 20
358.274
 30
11.9
 11
-211.785
 21
358.623
 31
11.9
  0
LINE
  5
C2C
330
A02
100
AcDbEntity
  8
Mesh_cs
100
AcDbLine
 10
-211.785
 20
358.623
 30
11.9
 11
-213.538
 21
361.766
 31
11.9
  0
LINE
  5
C2D
330
A02
100
AcDbEntity
  8
Mesh_cs
100
AcDbLine
 10
-213.538
 20
361.766
 30
11.9
 11
-213.73
 21
362.117
 31
11.9
  0
LINE
  5
C2E
330
A02
100
AcDbEntity
  8
Mesh_cs
100
AcDbLine
 10
-213.73
 20
362.117
 30
11.9
 11
-215.457
 21
365.274
 31
11.9
  0
LINE
  5
C2F
330
A02
100
AcDbEntity
  8
Mesh_cs
100
AcDbLine
 10
-215.457
 20
365.274
 30
11.9
 11
-215.646
 21
365.626
 31
11.9
  0
LINE
  5
C30
330
A02
100
AcDbEntity
  8
Mesh_cs
100
AcDbLine
 10
-215.646
 20
365.626
 30
11.9
 11
-217.347
 21
368.797
 31
11.9
  0
LINE
  5
C31
330
A02
100
AcDbEntity
  8
Mesh_cs
100
AcDbLine
 10
-217.347
 20
368.797
 30
11.9
 11
-217.534
 21
369.151
 31
11.9
  0
LINE
  5
C32
330
A02
100
AcDbEntity
  8
Mesh_cs
100
AcDbLine
 10
-217.534
 20
369.151
 30
11.9
 11
-219.209
 21
372.335
 31
11.9
  0
LINE
  5
C33
330
A02
100
AcDbEntity
  8
Mesh_cs
100
AcDbLine
 10
-219.209
 20
372.335
 30
11.9
 11
-219.393
 21
372.69
 31
11.9
  0
LINE
  5
C34
330
A02
100
AcDbEntity
  8
Mesh_cs
100
AcDbLine
 10
-219.393
 20
372.69
 30
11.9
 11
-221.042
 21
375.888
 31
11.9
  0
LINE
  5
C35
330
A02
100
AcDbEntity
  8
Mesh_cs
100
AcDbLine
 10
-221.042
 20
375.888
 30
11.9
 11
-221.223
 21
376.245
 31
11.9
  0
LINE
  5
C36
330
A02
100
AcDbEntity
  8
Mesh_cs
100
AcDbLine
 10
-221.223
 20
376.245
 30
11.9
 11
-222.847
 21
379.456
 31
11.9
  0
LINE
  5
C37
330
A02
100
AcDbEntity
  8
Mesh_cs
100
AcDbLine
 10
-222.847
 20
379.456
 30
11.9
 11
-223.024
 21
379.815
 31
11.9
  0
LINE
  5
C38
330
A02
100
AcDbEntity
  8
Mesh_cs
100
AcDbLine
 10
-223.024
 20
379.815
 30
11.9
 11
-224.622
 21
383.039
 31
11.9
  0
LINE
  5
C39
330
A02
100
AcDbEntity
  8
Mesh_cs
100
AcDbLine
 10
-224.622
 20
383.039
 30
11.9
 11
-224.796
 21
383.398
 31
11.9
  0
LINE
  5
C3A
330
A02
100
AcDbEntity
  8
Mesh_cs
100
AcDbLine
 10
-224.796
 20
383.398
 30
11.9
 11
-226.368
 21
386.635
 31
11.9
  0
LINE
  5
C3B
330
A02
100
AcDbEntity
  8
Mesh_cs
100
AcDbLine
 10
-226.368
 20
386.635
 30
11.9
 11
-226.54
 21
386.996
 31
11.9
  0
LINE
  5
C3C
330
A02
100
AcDbEntity
  8
Mesh_cs
100
AcDbLine
 10
-226.54
 20
386.996
 30
11.9
 11
-228.085
 21
390.246
 31
11.9
  0
LINE
  5
C3D
330
A02
100
AcDbEntity
  8
Mesh_cs
100
AcDbLine
 10
-228.085
 20
390.246
 30
11.9
 11
-228.253
 21
390.608
 31
11.9
  0
LINE
  5
C3E
330
A02
100
AcDbEntity
  8
Mesh_cs
100
AcDbLine
 10
-228.253
 20
390.608
 30
11.9
 11
-229.772
 21
393.87
 31
11.9
  0
LINE
  5
C3F
330
A02
100
AcDbEntity
  8
Mesh_cs
100
AcDbLine
 10
-229.772
 20
393.87
 30
11.9
 11
-229.938
 21
394.234
 31
11.9
  0
LINE
  5
C40
330
A02
100
AcDbEntity
  8
Mesh_cs
100
AcDbLine
 10
-229.938
 20
394.234
 30
11.9
 11
-231.43
 21
397.508
 31
11.9
  0
LINE
  5
C41
330
A02
100
AcDbEntity
  8
Mesh_cs
100
AcDbLine
 10
-231.43
 20
397.508
 30
11.9
 11
-231.593
 21
397.873
 31
11.9
  0
LINE
  5
C42
330
A02
100
AcDbEntity
  8
Mesh_cs
100
AcDbLine
 10
-231.593
 20
397.873
 30
11.9
 11
-233.058
 21
401.159
 31
11.9
  0
LINE
  5
C43
330
A02
100
AcDbEntity
  8
Mesh_cs
100
AcDbLine
 10
-233.058
 20
401.159
 30
11.9
 11
-233.218
 21
401.526
 31
11.9
  0
LINE
  5
C44
330
A02
100
AcDbEntity
  8
Mesh_cs
100
AcDbLine
 10
-233.218
 20
401.526
 30
11.9
 11
-234.657
 21
404.823
 31
11.9
  0
LINE
  5
C45
330
A02
100
AcDbEntity
  8
Mesh_cs
100
AcDbLine
 10
-234.657
 20
404.823
 30
11.9
 11
-234.814
 21
405.191
 31
11.9
  0
LINE
  5
C46
330
A02
100
AcDbEntity
  8
Mesh_cs
100
AcDbLine
 10
-234.814
 20
405.191
 30
11.9
 11
-236.226
 21
408.5
 31
11.9
  0
LINE
  5
C47
330
A02
100
AcDbEntity
  8
Mesh_cs
100
AcDbLine
 10
-236.226
 20
408.5
 30
11.9
 11
-236.38
 21
408.869
 31
11.9
  0
LINE
  5
C48
330
A02
100
AcDbEntity
  8
Mesh_cs
100
AcDbLine
 10
-236.38
 20
408.869
 30
11.9
 11
-237.765
 21
412.19
 31
11.9
  0
ENDSEC
  0
SECTION
  2
OBJECTS
  0
DICTIONARY
  5
F000
330
0
100
AcDbDictionary
  3
ACAD_GROUP
350
F001
  0
DICTIONARY
  5
F001
330
F000
100
AcDbDictionary
  0
ENDSEC
  0
EOF