999
FreeCAD v0.21 33771 (Git)
  0
SECTION
  2
HEADER
  9
$ACADVER
  1
AC1014
  9
$ACADMAINTVER
 70
     9
  9
$DWGCODEPAGE
  3
ANSI_1252
  9
$TEXTSTYLE
  7
STANDARD
  9
$DIMSTYLE
  2
STANDARD
  9
$DIMTXSTY
  7
STANDARD
  9
$CMLSTYLE
  2
STANDARD
  9
$LUNITS
 70
2
  9
$INSUNITS
 70
4
  9
$PEXTMAX
 10
50
 20
50
 30
50
  9
$PEXTMIN
 10
0
 20
0
 30
0
  9
$HANDSEED
  5
FFFF
  0
ENDSEC
  0
SECTION
  2
CLASSES
  0
CLASS
  1
ACDBDICTIONARYWDFLT
  2
AcDbDictionaryWithDefault
  3
ObjectDBX Classes
 90
        0
280
     0
281
     0
  0
CLASS
  1
XRECORD
  2
AcDbXrecord
  3
ObjectDBX Classes
 90
        0
280
     0
281
     0
  0
CLASS
  1
LWPOLYLINE
  2
AcDbPolyline
  3
ObjectDBX Classes
 90
        0
280
     0
281
     1
  0
ENDSEC
  0
SECTION
  2
TABLES
  0
TABLE
  2
VPORT
  5
20
330
0
100
AcDbSymbolTable
 70
     1
  0
VPORT
  5
21
330
20
100
AcDbSymbolTableRecord
100
AcDbViewportTableRecord
  2
*ACTIVE
 70
     0
  0
ENDTAB
  0
TABLE
  2
LTYPE
  5
22
330
0
100
AcDbSymbolTable
 70
     1
  0
LTYPE
  5
23
330
21
100
AcDbSymbolTableRecord
100
AcDbLinetypeTableRecord
  2
BYBLOCK
 70
     0
  3

 72
    65
 73
     0
 40
0.0
  0
LTYPE
  5
24
330
21
100
AcDbSymbolTableRecord
100
AcDbLinetypeTableRecord
  2
BYLAYER
 70
     0
  3

 72
    65
 73
     0
 40
0.0
  0
LTYPE
  5
25
330
21
100
AcDbSymbolTableRecord
100
AcDbLinetypeTableRecord
  2
CONTINUOUS
 70
     0
  3
Solid line
 72
    65
 73
     0
 40
0.0
  0
ENDTAB
  0
TABLE
  2
LAYER
  5
C34
330
0
100
AcDbSymbolTable
 70
3
  0
LAYER
  5
C35
330
C34
100
AcDbSymbolTableRecord
100
AcDbLayerTableRecord
  2
0
 70
   0
 62
   7
  6
CONTINUOUS
  0
LAYER
  5
C36
330
C34
100
AcDbSymbolTableRecord
100
AcDbLayerTableRecord
  2
none
 70
    0
 62
    7
  6
CONTINUOUS
  0
LAYER
  5
C37
330
C34
100
AcDbSymbolTableRecord
100
AcDbLayerTableRecord
  2
Mesh_cs
 70
    0
 62
    7
  6
CONTINUOUS
  0
ENDTAB
  0
TABLE
  2
STYLE
  5
70
330
0
100
AcDbSymbolTable
 70
     2
  0
STYLE
  5
71
330
70
100
AcDbSymbolTableRecord
100
AcDbTextStyleTableRecord
  2
STANDARD
 70
     0
 40
0.0
 41
1.0
 50
0.0
 71
     0
 42
2.5
  3
arial.ttf
  4

  0
STYLE
  5
72
330
70
100
AcDbSymbolTableRecord
100
AcDbTextStyleTableRecord
  2
ANNOTATIVE
 70
     0
 40
0.0
 41
1.0
 50
0.0
 71
     0
 42
2.5
  3
arial.ttf
  4

  0
ENDTAB
  0
TABLE
  2
VIEW
  5
73
330
0
100
AcDbSymbolTable
 70
     0
  0
ENDTAB
  0
TABLE
  2
UCS
  5
74
330
0
100
AcDbSymbolTable
 70
     0
  0
ENDTAB
  0
TABLE
  2
APPID
  5
75
330
0
100
AcDbSymbolTable
 70
     2
  0
APPID
  5
76
330
75
100
AcDbSymbolTableRecord
100
AcDbRegAppTableRecord
  2
ACAD
 70
     0
  0
APPID
  5
77
330
75
100
AcDbSymbolTableRecord
100
AcDbRegAppTableRecord
  2
ACADANNOTATIVE
 70
     0
  0
ENDTAB
  0
TABLE
  2
DIMSTYLE
  5
78
330
0
100
AcDbSymbolTable
 70
     2
  0
DIMSTYLE
105
79
330
78
100
AcDbSymbolTableRecord
100
AcDbDimStyleTableRecord
  2
STANDARD
 70
     0
  3

  4

  5

  6

  7

 40
0.0
 41
2.5
 42
0.625
 43
3.75
 44
1.25
 45
0.0
 46
0.0
 47
0.0
 48
0.0
140
2.5
141
2.5
142
0.0
143
0.03937007874016
144
1.0
145
0.0
146
1.0
147
0.625
 71
     0
 72
     0
 73
     0
 74
     0
 75
     0
 76
     0
 77
     1
 78
     8
170
     0
171
     3
172
     1
173
     0
174
     0
175
     0
176
     0
177
     0
178
     0
270
     2
271
     2
272
     2
273
     2
274
     3
340
71
275
     0
280
     0
281
     0
282
     0
283
     0
284
     8
285
     0
286
     0
287
     3
288
     0
  0
ENDTAB
  0
TABLE
  2
BLOCK_RECORD
  5
A01
330
0
100
AcDbSymbolTable
  70
5
  0
BLOCK_RECORD
  5
A02
330
A01
100
AcDbSymbolTableRecord
100
AcDbBlockTableRecord
  2
*MODEL_SPACE
  0
BLOCK_RECORD
  5
A03
330
A01
100
AcDbSymbolTableRecord
100
AcDbBlockTableRecord
  2
*PAPER_SPACE
  0
ENDTAB
  0
ENDSEC
  0
SECTION
  2
BLOCKS
  0
BLOCK
  5
A04
330
A02
100
AcDbEntity
  8
0
100
AcDbBlockBegin
  2
*MODEL_SPACE
 70
   0
 10
0
 20
0
 30
0
  3
*MODEL_SPACE
  1
 
  0
ENDBLK
  5
A05
330
A02
100
AcDbEntity
  8
0
100
AcDbBlockEnd
  0
BLOCK
  5
A06
330
A03
100
AcDbEntity
 67
1
  8
0
100
AcDbBlockBegin
  2
*PAPER_SPACE
 70
   0
 10
0
 20
0
 30
0
  3
*PAPER_SPACE
  1
 
  0
ENDBLK
  5
A07
330
A03
100
AcDbEntity
 67
    1
  8
0
100
AcDbBlockEnd
  0
ENDSEC
  0
SECTION
  2
ENTITIES
  0
LINE
  5
A08
330
A02
100
AcDbEntity
  8
Mesh_cs
100
AcDbLine
 10
282.489
 20
254.927
 30
11.9
 11
282.093
 21
255.215
 31
11.9
  0
LINE
  5
A09
330
A02
100
AcDbEntity
  8
Mesh_cs
100
AcDbLine
 10
282.093
 20
255.215
 30
11.9
 11
270.583
 21
263.577
 31
11.9
  0
LINE
  5
A0A
330
A02
100
AcDbEntity
  8
Mesh_cs
100
AcDbLine
 10
270.583
 20
263.577
 30
11.9
 11
262.117
 21
251.925
 31
11.9
  0
LINE
  5
A0B
330
A02
100
AcDbEntity
  8
Mesh_cs
100
AcDbLine
 10
262.117
 20
251.925
 30
11.9
 11
261.825
 21
251.523
 31
11.9
  0
LINE
  5
A0C
330
A02
100
AcDbEntity
  8
Mesh_cs
100
AcDbLine
 10
261.825
 20
251.523
 30
11.9
 11
273.477
 21
243.057
 31
11.9
  0
LINE
  5
A0D
330
A02
100
AcDbEntity
  8
Mesh_cs
100
AcDbLine
 10
273.477
 20
243.057
 30
11.9
 11
273.879
 21
242.765
 31
11.9
  0
LINE
  5
A0E
330
A02
100
AcDbEntity
  8
Mesh_cs
100
AcDbLine
 10
273.879
 20
242.765
 30
11.9
 11
276.041
 21
245.76
 31
11.9
  0
LINE
  5
A0F
330
A02
100
AcDbEntity
  8
Mesh_cs
100
AcDbLine
 10
276.041
 20
245.76
 30
11.9
 11
276.065
 21
245.794
 31
11.9
  0
LINE
  5
A10
330
A02
100
AcDbEntity
  8
Mesh_cs
100
AcDbLine
 10
276.065
 20
245.794
 30
11.9
 11
278.209
 21
248.802
 31
11.9
  0
LINE
  5
A11
330
A02
100
AcDbEntity
  8
Mesh_cs
100
AcDbLine
 10
278.209
 20
248.802
 30
11.9
 11
278.233
 21
248.836
 31
11.9
  0
LINE
  5
A12
330
A02
100
AcDbEntity
  8
Mesh_cs
100
AcDbLine
 10
278.233
 20
248.836
 30
11.9
 11
280.358
 21
251.857
 31
11.9
  0
LINE
  5
A13
330
A02
100
AcDbEntity
  8
Mesh_cs
100
AcDbLine
 10
280.358
 20
251.857
 30
11.9
 11
280.436
 21
251.969
 31
11.9
  0
LINE
  5
A14
330
A02
100
AcDbEntity
  8
Mesh_cs
100
AcDbLine
 10
280.436
 20
251.969
 30
11.9
 11
282.489
 21
254.927
 31
11.9
  0
LINE
  5
A15
330
A02
100
AcDbEntity
  8
Mesh_cs
100
AcDbLine
 10
309.824
 20
586.516
 30
11.9
 11
309.912
 21
590.605
 31
11.9
  0
LINE
  5
A16
330
A02
100
AcDbEntity
  8
Mesh_cs
100
AcDbLine
 10
309.912
 20
590.605
 30
11.9
 11
309.922
 21
591.059
 31
11.9
  0
LINE
  5
A17
330
A02
100
AcDbEntity
  8
Mesh_cs
100
AcDbLine
 10
309.922
 20
591.059
 30
11.9
 11
309.975
 21
595.149
 31
11.9
  0
LINE
  5
A18
330
A02
100
AcDbEntity
  8
Mesh_cs
100
AcDbLine
 10
309.975
 20
595.149
 30
11.9
 11
309.98
 21
595.604
 31
11.9
  0
LINE
  5
A19
330
A02
100
AcDbEntity
  8
Mesh_cs
100
AcDbLine
 10
309.98
 20
595.604
 30
11.9
 11
309.998
 21
599.694
 31
11.9
  0
LINE
  5
A1A
330
A02
100
AcDbEntity
  8
Mesh_cs
100
AcDbLine
 10
309.998
 20
599.694
 30
11.9
 11
310
 21
600.148
 31
11.9
  0
LINE
  5
A1B
330
A02
100
AcDbEntity
  8
Mesh_cs
100
AcDbLine
 10
310
 20
600.148
 30
11.9
 11
359.59
 21
600.148
 31
11.9
  0
LINE
  5
A1C
330
A02
100
AcDbEntity
  8
Mesh_cs
100
AcDbLine
 10
359.59
 20
600.148
 30
11.9
 11
365.1
 21
600.148
 31
11.9
  0
LINE
  5
A1D
330
A02
100
AcDbEntity
  8
Mesh_cs
100
AcDbLine
 10
365.1
 20
600.148
 30
11.9
 11
365.1
 21
599.485
 31
11.9
  0
LINE
  5
A1E
330
A02
100
AcDbEntity
  8
Mesh_cs
100
AcDbLine
 10
365.1
 20
599.485
 30
11.9
 11
365.1
 21
580.248
 31
11.9
  0
LINE
  5
A1F
330
A02
100
AcDbEntity
  8
Mesh_cs
100
AcDbLine
 10
365.1
 20
580.248
 30
11.9
 11
365.111
 21
579.916
 31
11.9
  0
LINE
  5
A20
330
A02
100
AcDbEntity
  8
Mesh_cs
100
AcDbLine
 10
365.111
 20
579.916
 30
11.9
 11
365.112
 21
579.902
 31
11.9
  0
LINE
  5
A21
330
A02
100
AcDbEntity
  8
Mesh_cs
100
AcDbLine
 10
365.112
 20
579.902
 30
11.9
 11
365.148
 21
579.557
 31
11.9
  0
LINE
  5
A22
330
A02
100
AcDbEntity
  8
Mesh_cs
100
AcDbLine
 10
365.148
 20
579.557
 30
11.9
 11
365.229
 21
579.119
 31
11.9
  0
LINE
  5
A23
330
A02
100
AcDbEntity
  8
Mesh_cs
100
AcDbLine
 10
365.229
 20
579.119
 30
11.9
 11
365.349
 21
578.689
 31
11.9
  0
LINE
  5
A24
330
A02
100
AcDbEntity
  8
Mesh_cs
100
AcDbLine
 10
365.349
 20
578.689
 30
11.9
 11
365.507
 21
578.273
 31
11.9
  0
LINE
  5
A25
330
A02
100
AcDbEntity
  8
Mesh_cs
100
AcDbLine
 10
365.507
 20
578.273
 30
11.9
 11
365.701
 21
577.872
 31
11.9
  0
LINE
  5
A26
330
A02
100
AcDbEntity
  8
Mesh_cs
100
AcDbLine
 10
365.701
 20
577.872
 30
11.9
 11
365.708
 21
577.86
 31
11.9
  0
LINE
  5
A27
330
A02
100
AcDbEntity
  8
Mesh_cs
100
AcDbLine
 10
365.708
 20
577.86
 30
11.9
 11
365.938
 21
577.478
 31
11.9
  0
LINE
  5
A28
330
A02
100
AcDbEntity
  8
Mesh_cs
100
AcDbLine
 10
365.938
 20
577.478
 30
11.9
 11
366.201
 21
577.119
 31
11.9
  0
LINE
  5
A29
330
A02
100
AcDbEntity
  8
Mesh_cs
100
AcDbLine
 10
366.201
 20
577.119
 30
11.9
 11
366.495
 21
576.784
 31
11.9
  0
LINE
  5
A2A
330
A02
100
AcDbEntity
  8
Mesh_cs
100
AcDbLine
 10
366.495
 20
576.784
 30
11.9
 11
366.819
 21
576.476
 31
11.9
  0
LINE
  5
A2B
330
A02
100
AcDbEntity
  8
Mesh_cs
100
AcDbLine
 10
366.819
 20
576.476
 30
11.9
 11
367.134
 21
576.224
 31
11.9
  0
LINE
  5
A2C
330
A02
100
AcDbEntity
  8
Mesh_cs
100
AcDbLine
 10
367.134
 20
576.224
 30
11.9
 11
367.468
 21
575.997
 31
11.9
  0
LINE
  5
A2D
330
A02
100
AcDbEntity
  8
Mesh_cs
100
AcDbLine
 10
367.468
 20
575.997
 30
11.9
 11
367.807
 21
575.805
 31
11.9
  0
LINE
  5
A2E
330
A02
100
AcDbEntity
  8
Mesh_cs
100
AcDbLine
 10
367.807
 20
575.805
 30
11.9
 11
367.82
 21
575.799
 31
11.9
  0
LINE
  5
A2F
330
A02
100
AcDbEntity
  8
Mesh_cs
100
AcDbLine
 10
367.82
 20
575.799
 30
11.9
 11
368.187
 21
575.63
 31
11.9
  0
LINE
  5
A30
330
A02
100
AcDbEntity
  8
Mesh_cs
100
AcDbLine
 10
368.187
 20
575.63
 30
11.9
 11
368.551
 21
575.494
 31
11.9
  0
LINE
  5
A31
330
A02
100
AcDbEntity
  8
Mesh_cs
100
AcDbLine
 10
368.551
 20
575.494
 30
11.9
 11
368.926
 21
575.389
 31
11.9
  0
LINE
  5
A32
330
A02
100
AcDbEntity
  8
Mesh_cs
100
AcDbLine
 10
368.926
 20
575.389
 30
11.9
 11
368.94
 21
575.385
 31
11.9
  0
LINE
  5
A33
330
A02
100
AcDbEntity
  8
Mesh_cs
100
AcDbLine
 10
368.94
 20
575.385
 30
11.9
 11
369.287
 21
575.315
 31
11.9
  0
LINE
  5
A34
330
A02
100
AcDbEntity
  8
Mesh_cs
100
AcDbLine
 10
369.287
 20
575.315
 30
11.9
 11
369.302
 21
575.312
 31
11.9
  0
LINE
  5
A35
330
A02
100
AcDbEntity
  8
Mesh_cs
100
AcDbLine
 10
369.302
 20
575.312
 30
11.9
 11
369.689
 21
575.266
 31
11.9
  0
LINE
  5
A36
330
A02
100
AcDbEntity
  8
Mesh_cs
100
AcDbLine
 10
369.689
 20
575.266
 30
11.9
 11
369.7
 21
575.264
 31
11.9
  0
LINE
  5
A37
330
A02
100
AcDbEntity
  8
Mesh_cs
100
AcDbLine
 10
369.7
 20
575.264
 30
11.9
 11
370.089
 21
575.249
 31
11.9
  0
LINE
  5
A38
330
A02
100
AcDbEntity
  8
Mesh_cs
100
AcDbLine
 10
370.089
 20
575.249
 30
11.9
 11
370.1
 21
575.248
 31
11.9
  0
LINE
  5
A39
330
A02
100
AcDbEntity
  8
Mesh_cs
100
AcDbLine
 10
370.1
 20
575.248
 30
11.9
 11
370.746
 21
575.248
 31
11.9
  0
LINE
  5
A3A
330
A02
100
AcDbEntity
  8
Mesh_cs
100
AcDbLine
 10
370.746
 20
575.248
 30
11.9
 11
389.49
 21
575.248
 31
11.9
  0
LINE
  5
A3B
330
A02
100
AcDbEntity
  8
Mesh_cs
100
AcDbLine
 10
389.49
 20
575.248
 30
11.9
 11
389.278
 21
570.53
 31
11.9
  0
LINE
  5
A3C
330
A02
100
AcDbEntity
  8
Mesh_cs
100
AcDbLine
 10
389.278
 20
570.53
 30
11.9
 11
389.27
 21
570.371
 31
11.9
  0
LINE
  5
A3D
330
A02
100
AcDbEntity
  8
Mesh_cs
100
AcDbLine
 10
389.27
 20
570.371
 30
11.9
 11
389.268
 21
570.33
 31
11.9
  0
LINE
  5
A3E
330
A02
100
AcDbEntity
  8
Mesh_cs
100
AcDbLine
 10
389.268
 20
570.33
 30
11.9
 11
389.012
 21
565.492
 31
11.9
  0
LINE
  5
A3F
330
A02
100
AcDbEntity
  8
Mesh_cs
100
AcDbLine
 10
389.012
 20
565.492
 30
11.9
 11
389.009
 21
565.452
 31
11.9
  0
LINE
  5
A40
330
A02
100
AcDbEntity
  8
Mesh_cs
100
AcDbLine
 10
389.009
 20
565.452
 30
11.9
 11
388.713
 21
560.616
 31
11.9
  0
LINE
  5
A41
330
A02
100
AcDbEntity
  8
Mesh_cs
100
AcDbLine
 10
388.713
 20
560.616
 30
11.9
 11
388.711
 21
560.575
 31
11.9
  0
LINE
  5
A42
330
A02
100
AcDbEntity
  8
Mesh_cs
100
AcDbLine
 10
388.711
 20
560.575
 30
11.9
 11
388.376
 21
555.742
 31
11.9
  0
LINE
  5
A43
330
A02
100
AcDbEntity
  8
Mesh_cs
100
AcDbLine
 10
388.376
 20
555.742
 30
11.9
 11
388.373
 21
555.701
 31
11.9
  0
LINE
  5
A44
330
A02
100
AcDbEntity
  8
Mesh_cs
100
AcDbLine
 10
388.373
 20
555.701
 30
11.9
 11
388
 21
550.871
 31
11.9
  0
LINE
  5
A45
330
A02
100
AcDbEntity
  8
Mesh_cs
100
AcDbLine
 10
388
 20
550.871
 30
11.9
 11
387.996
 21
550.83
 31
11.9
  0
LINE
  5
A46
330
A02
100
AcDbEntity
  8
Mesh_cs
100
AcDbLine
 10
387.996
 20
550.83
 30
11.9
 11
387.584
 21
546.003
 31
11.9
  0
LINE
  5
A47
330
A02
100
AcDbEntity
  8
Mesh_cs
100
AcDbLine
 10
387.584
 20
546.003
 30
11.9
 11
387.581
 21
545.962
 31
11.9
  0
LINE
  5
A48
330
A02
100
AcDbEntity
  8
Mesh_cs
100
AcDbLine
 10
387.581
 20
545.962
 30
11.9
 11
387.13
 21
541.139
 31
11.9
  0
LINE
  5
A49
330
A02
100
AcDbEntity
  8
Mesh_cs
100
AcDbLine
 10
387.13
 20
541.139
 30
11.9
 11
387.126
 21
541.098
 31
11.9
  0
LINE
  5
A4A
330
A02
100
AcDbEntity
  8
Mesh_cs
100
AcDbLine
 10
387.126
 20
541.098
 30
11.9
 11
386.636
 21
536.278
 31
11.9
  0
LINE
  5
A4B
330
A02
100
AcDbEntity
  8
Mesh_cs
100
AcDbLine
 10
386.636
 20
536.278
 30
11.9
 11
386.632
 21
536.237
 31
11.9
  0
LINE
  5
A4C
330
A02
100
AcDbEntity
  8
Mesh_cs
100
AcDbLine
 10
386.632
 20
536.237
 30
11.9
 11
386.103
 21
531.422
 31
11.9
  0
LINE
  5
A4D
330
A02
100
AcDbEntity
  8
Mesh_cs
100
AcDbLine
 10
386.103
 20
531.422
 30
11.9
 11
386.099
 21
531.381
 31
11.9
  0
LINE
  5
A4E
330
A02
100
AcDbEntity
  8
Mesh_cs
100
AcDbLine
 10
386.099
 20
531.381
 30
11.9
 11
385.532
 21
526.569
 31
11.9
  0
LINE
  5
A4F
330
A02
100
AcDbEntity
  8
Mesh_cs
100
AcDbLine
 10
385.532
 20
526.569
 30
11.9
 11
385.526
 21
526.529
 31
11.9
  0
LINE
  5
A50
330
A02
100
AcDbEntity
  8
Mesh_cs
100
AcDbLine
 10
385.526
 20
526.529
 30
11.9
 11
384.921
 21
521.722
 31
11.9
  0
LINE
  5
A51
330
A02
100
AcDbEntity
  8
Mesh_cs
100
AcDbLine
 10
384.921
 20
521.722
 30
11.9
 11
384.915
 21
521.682
 31
11.9
  0
LINE
  5
A52
330
A02
100
AcDbEntity
  8
Mesh_cs
100
AcDbLine
 10
384.915
 20
521.682
 30
11.9
 11
384.271
 21
516.88
 31
11.9
  0
LINE
  5
A53
330
A02
100
AcDbEntity
  8
Mesh_cs
100
AcDbLine
 10
384.271
 20
516.88
 30
11.9
 11
384.265
 21
516.84
 31
11.9
  0
LINE
  5
A54
330
A02
100
AcDbEntity
  8
Mesh_cs
100
AcDbLine
 10
384.265
 20
516.84
 30
11.9
 11
383.583
 21
512.043
 31
11.9
  0
LINE
  5
A55
330
A02
100
AcDbEntity
  8
Mesh_cs
100
AcDbLine
 10
383.583
 20
512.043
 30
11.9
 11
383.577
 21
512.003
 31
11.9
  0
LINE
  5
A56
330
A02
100
AcDbEntity
  8
Mesh_cs
100
AcDbLine
 10
383.577
 20
512.003
 30
11.9
 11
382.855
 21
507.212
 31
11.9
  0
LINE
  5
A57
330
A02
100
AcDbEntity
  8
Mesh_cs
100
AcDbLine
 10
382.855
 20
507.212
 30
11.9
 11
382.849
 21
507.172
 31
11.9
  0
LINE
  5
A58
330
A02
100
AcDbEntity
  8
Mesh_cs
100
AcDbLine
 10
382.849
 20
507.172
 30
11.9
 11
382.089
 21
502.387
 31
11.9
  0
LINE
  5
A59
330
A02
100
AcDbEntity
  8
Mesh_cs
100
AcDbLine
 10
382.089
 20
502.387
 30
11.9
 11
382.082
 21
502.347
 31
11.9
  0
LINE
  5
A5A
330
A02
100
AcDbEntity
  8
Mesh_cs
100
AcDbLine
 10
382.082
 20
502.347
 30
11.9
 11
381.284
 21
497.568
 31
11.9
  0
LINE
  5
A5B
330
A02
100
AcDbEntity
  8
Mesh_cs
100
AcDbLine
 10
381.284
 20
497.568
 30
11.9
 11
381.277
 21
497.528
 31
11.9
  0
LINE
  5
A5C
330
A02
100
AcDbEntity
  8
Mesh_cs
100
AcDbLine
 10
381.277
 20
497.528
 30
11.9
 11
380.441
 21
492.756
 31
11.9
  0
LINE
  5
A5D
330
A02
100
AcDbEntity
  8
Mesh_cs
100
AcDbLine
 10
380.441
 20
492.756
 30
11.9
 11
380.433
 21
492.716
 31
11.9
  0
LINE
  5
A5E
330
A02
100
AcDbEntity
  8
Mesh_cs
100
AcDbLine
 10
380.433
 20
492.716
 30
11.9
 11
379.558
 21
487.951
 31
11.9
  0
LINE
  5
A5F
330
A02
100
AcDbEntity
  8
Mesh_cs
100
AcDbLine
 10
379.558
 20
487.951
 30
11.9
 11
379.551
 21
487.911
 31
11.9
  0
LINE
  5
A60
330
A02
100
AcDbEntity
  8
Mesh_cs
100
AcDbLine
 10
379.551
 20
487.911
 30
11.9
 11
378.638
 21
483.153
 31
11.9
  0
LINE
  5
A61
330
A02
100
AcDbEntity
  8
Mesh_cs
100
AcDbLine
 10
378.638
 20
483.153
 30
11.9
 11
378.63
 21
483.113
 31
11.9
  0
LINE
  5
A62
330
A02
100
AcDbEntity
  8
Mesh_cs
100
AcDbLine
 10
378.63
 20
483.113
 30
11.9
 11
377.678
 21
478.362
 31
11.9
  0
LINE
  5
A63
330
A02
100
AcDbEntity
  8
Mesh_cs
100
AcDbLine
 10
377.678
 20
478.362
 30
11.9
 11
377.67
 21
478.322
 31
11.9
  0
LINE
  5
A64
330
A02
100
AcDbEntity
  8
Mesh_cs
100
AcDbLine
 10
377.67
 20
478.322
 30
11.9
 11
376.68
 21
473.58
 31
11.9
  0
LINE
  5
A65
330
A02
100
AcDbEntity
  8
Mesh_cs
100
AcDbLine
 10
376.68
 20
473.58
 30
11.9
 11
376.672
 21
473.54
 31
11.9
  0
LINE
  5
A66
330
A02
100
AcDbEntity
  8
Mesh_cs
100
AcDbLine
 10
376.672
 20
473.54
 30
11.9
 11
375.644
 21
468.805
 31
11.9
  0
LINE
  5
A67
330
A02
100
AcDbEntity
  8
Mesh_cs
100
AcDbLine
 10
375.644
 20
468.805
 30
11.9
 11
375.635
 21
468.765
 31
11.9
  0
LINE
  5
A68
330
A02
100
AcDbEntity
  8
Mesh_cs
100
AcDbLine
 10
375.635
 20
468.765
 30
11.9
 11
374.57
 21
464.039
 31
11.9
  0
LINE
  5
A69
330
A02
100
AcDbEntity
  8
Mesh_cs
100
AcDbLine
 10
374.57
 20
464.039
 30
11.9
 11
374.56
 21
463.999
 31
11.9
  0
LINE
  5
A6A
330
A02
100
AcDbEntity
  8
Mesh_cs
100
AcDbLine
 10
374.56
 20
463.999
 30
11.9
 11
373.457
 21
459.282
 31
11.9
  0
LINE
  5
A6B
330
A02
100
AcDbEntity
  8
Mesh_cs
100
AcDbLine
 10
373.457
 20
459.282
 30
11.9
 11
373.447
 21
459.242
 31
11.9
  0
LINE
  5
A6C
330
A02
100
AcDbEntity
  8
Mesh_cs
100
AcDbLine
 10
373.447
 20
459.242
 30
11.9
 11
372.306
 21
454.534
 31
11.9
  0
LINE
  5
A6D
330
A02
100
AcDbEntity
  8
Mesh_cs
100
AcDbLine
 10
372.306
 20
454.534
 30
11.9
 11
372.296
 21
454.494
 31
11.9
  0
LINE
  5
A6E
330
A02
100
AcDbEntity
  8
Mesh_cs
100
AcDbLine
 10
372.296
 20
454.494
 30
11.9
 11
371.117
 21
449.795
 31
11.9
  0
LINE
  5
A6F
330
A02
100
AcDbEntity
  8
Mesh_cs
100
AcDbLine
 10
371.117
 20
449.795
 30
11.9
 11
371.107
 21
449.756
 31
11.9
  0
LINE
  5
A70
330
A02
100
AcDbEntity
  8
Mesh_cs
100
AcDbLine
 10
371.107
 20
449.756
 30
11.9
 11
369.89
 21
445.066
 31
11.9
  0
LINE
  5
A71
330
A02
100
AcDbEntity
  8
Mesh_cs
100
AcDbLine
 10
369.89
 20
445.066
 30
11.9
 11
369.879
 21
445.027
 31
11.9
  0
LINE
  5
A72
330
A02
100
AcDbEntity
  8
Mesh_cs
100
AcDbLine
 10
369.879
 20
445.027
 30
11.9
 11
368.625
 21
440.347
 31
11.9
  0
LINE
  5
A73
330
A02
100
AcDbEntity
  8
Mesh_cs
100
AcDbLine
 10
368.625
 20
440.347
 30
11.9
 11
368.614
 21
440.308
 31
11.9
  0
LINE
  5
A74
330
A02
100
AcDbEntity
  8
Mesh_cs
100
AcDbLine
 10
368.614
 20
440.308
 30
11.9
 11
367.322
 21
435.639
 31
11.9
  0
LINE
  5
A75
330
A02
100
AcDbEntity
  8
Mesh_cs
100
AcDbLine
 10
367.322
 20
435.639
 30
11.9
 11
367.31
 21
435.599
 31
11.9
  0
LINE
  5
A76
330
A02
100
AcDbEntity
  8
Mesh_cs
100
AcDbLine
 10
367.31
 20
435.599
 30
11.9
 11
365.981
 21
430.941
 31
11.9
  0
LINE
  5
A77
330
A02
100
AcDbEntity
  8
Mesh_cs
100
AcDbLine
 10
365.981
 20
430.941
 30
11.9
 11
365.969
 21
430.901
 31
11.9
  0
LINE
  5
A78
330
A02
100
AcDbEntity
  8
Mesh_cs
100
AcDbLine
 10
365.969
 20
430.901
 30
11.9
 11
364.602
 21
426.254
 31
11.9
  0
LINE
  5
A79
330
A02
100
AcDbEntity
  8
Mesh_cs
100
AcDbLine
 10
364.602
 20
426.254
 30
11.9
 11
364.591
 21
426.214
 31
11.9
  0
LINE
  5
A7A
330
A02
100
AcDbEntity
  8
Mesh_cs
100
AcDbLine
 10
364.591
 20
426.214
 30
11.9
 11
363.186
 21
421.578
 31
11.9
  0
LINE
  5
A7B
330
A02
100
AcDbEntity
  8
Mesh_cs
100
AcDbLine
 10
363.186
 20
421.578
 30
11.9
 11
363.174
 21
421.539
 31
11.9
  0
LINE
  5
A7C
330
A02
100
AcDbEntity
  8
Mesh_cs
100
AcDbLine
 10
363.174
 20
421.539
 30
11.9
 11
361.733
 21
416.913
 31
11.9
  0
LINE
  5
A7D
330
A02
100
AcDbEntity
  8
Mesh_cs
100
AcDbLine
 10
361.733
 20
416.913
 30
11.9
 11
361.72
 21
416.874
 31
11.9
  0
LINE
  5
A7E
330
A02
100
AcDbEntity
  8
Mesh_cs
100
AcDbLine
 10
361.72
 20
416.874
 30
11.9
 11
360.242
 21
412.261
 31
11.9
  0
LINE
  5
A7F
330
A02
100
AcDbEntity
  8
Mesh_cs
100
AcDbLine
 10
360.242
 20
412.261
 30
11.9
 11
358.726
 21
407.659
 31
11.9
  0
LINE
  5
A80
330
A02
100
AcDbEntity
  8
Mesh_cs
100
AcDbLine
 10
358.726
 20
407.659
 30
11.9
 11
358.713
 21
407.62
 31
11.9
  0
LINE
  5
A81
330
A02
100
AcDbEntity
  8
Mesh_cs
100
AcDbLine
 10
358.713
 20
407.62
 30
11.9
 11
357.161
 21
403.031
 31
11.9
  0
LINE
  5
A82
330
A02
100
AcDbEntity
  8
Mesh_cs
100
AcDbLine
 10
357.161
 20
403.031
 30
11.9
 11
357.148
 21
402.993
 31
11.9
  0
LINE
  5
A83
330
A02
100
AcDbEntity
  8
Mesh_cs
100
AcDbLine
 10
357.148
 20
402.993
 30
11.9
 11
355.558
 21
398.416
 31
11.9
  0
LINE
  5
A84
330
A02
100
AcDbEntity
  8
Mesh_cs
100
AcDbLine
 10
355.558
 20
398.416
 30
11.9
 11
355.545
 21
398.377
 31
11.9
  0
LINE
  5
A85
330
A02
100
AcDbEntity
  8
Mesh_cs
100
AcDbLine
 10
355.545
 20
398.377
 30
11.9
 11
353.919
 21
393.814
 31
11.9
  0
LINE
  5
A86
330
A02
100
AcDbEntity
  8
Mesh_cs
100
AcDbLine
 10
353.919
 20
393.814
 30
11.9
 11
353.905
 21
393.775
 31
11.9
  0
LINE
  5
A87
330
A02
100
AcDbEntity
  8
Mesh_cs
100
AcDbLine
 10
353.905
 20
393.775
 30
11.9
 11
352.242
 21
389.225
 31
11.9
  0
LINE
  5
A88
330
A02
100
AcDbEntity
  8
Mesh_cs
100
AcDbLine
 10
352.242
 20
389.225
 30
11.9
 11
352.228
 21
389.186
 31
11.9
  0
LINE
  5
A89
330
A02
100
AcDbEntity
  8
Mesh_cs
100
AcDbLine
 10
352.228
 20
389.186
 30
11.9
 11
350.529
 21
384.649
 31
11.9
  0
LINE
  5
A8A
330
A02
100
AcDbEntity
  8
Mesh_cs
100
AcDbLine
 10
350.529
 20
384.649
 30
11.9
 11
350.515
 21
384.611
 31
11.9
  0
LINE
  5
A8B
330
A02
100
AcDbEntity
  8
Mesh_cs
100
AcDbLine
 10
350.515
 20
384.611
 30
11.9
 11
348.779
 21
380.088
 31
11.9
  0
LINE
  5
A8C
330
A02
100
AcDbEntity
  8
Mesh_cs
100
AcDbLine
 10
348.779
 20
380.088
 30
11.9
 11
348.764
 21
380.05
 31
11.9
  0
LINE
  5
A8D
330
A02
100
AcDbEntity
  8
Mesh_cs
100
AcDbLine
 10
348.764
 20
380.05
 30
11.9
 11
346.993
 21
375.541
 31
11.9
  0
LINE
  5
A8E
330
A02
100
AcDbEntity
  8
Mesh_cs
100
AcDbLine
 10
346.993
 20
375.541
 30
11.9
 11
346.978
 21
375.503
 31
11.9
  0
LINE
  5
A8F
330
A02
100
AcDbEntity
  8
Mesh_cs
100
AcDbLine
 10
346.978
 20
375.503
 30
11.9
 11
345.17
 21
371.008
 31
11.9
  0
LINE
  5
A90
330
A02
100
AcDbEntity
  8
Mesh_cs
100
AcDbLine
 10
345.17
 20
371.008
 30
11.9
 11
345.154
 21
370.97
 31
11.9
  0
LINE
  5
A91
330
A02
100
AcDbEntity
  8
Mesh_cs
100
AcDbLine
 10
345.154
 20
370.97
 30
11.9
 11
343.31
 21
366.49
 31
11.9
  0
LINE
  5
A92
330
A02
100
AcDbEntity
  8
Mesh_cs
100
AcDbLine
 10
343.31
 20
366.49
 30
11.9
 11
343.295
 21
366.452
 31
11.9
  0
LINE
  5
A93
330
A02
100
AcDbEntity
  8
Mesh_cs
100
AcDbLine
 10
343.295
 20
366.452
 30
11.9
 11
341.415
 21
361.987
 31
11.9
  0
LINE
  5
A94
330
A02
100
AcDbEntity
  8
Mesh_cs
100
AcDbLine
 10
341.415
 20
361.987
 30
11.9
 11
341.399
 21
361.949
 31
11.9
  0
LINE
  5
A95
330
A02
100
AcDbEntity
  8
Mesh_cs
100
AcDbLine
 10
341.399
 20
361.949
 30
11.9
 11
339.483
 21
357.5
 31
11.9
  0
LINE
  5
A96
330
A02
100
AcDbEntity
  8
Mesh_cs
100
AcDbLine
 10
339.483
 20
357.5
 30
11.9
 11
339.467
 21
357.462
 31
11.9
  0
LINE
  5
A97
330
A02
100
AcDbEntity
  8
Mesh_cs
100
AcDbLine
 10
339.467
 20
357.462
 30
11.9
 11
337.515
 21
353.028
 31
11.9
  0
LINE
  5
A98
330
A02
100
AcDbEntity
  8
Mesh_cs
100
AcDbLine
 10
337.515
 20
353.028
 30
11.9
 11
337.499
 21
352.99
 31
11.9
  0
LINE
  5
A99
330
A02
100
AcDbEntity
  8
Mesh_cs
100
AcDbLine
 10
337.499
 20
352.99
 30
11.9
 11
335.512
 21
348.572
 31
11.9
  0
LINE
  5
A9A
330
A02
100
AcDbEntity
  8
Mesh_cs
100
AcDbLine
 10
335.512
 20
348.572
 30
11.9
 11
335.495
 21
348.535
 31
11.9
  0
LINE
  5
A9B
330
A02
100
AcDbEntity
  8
Mesh_cs
100
AcDbLine
 10
335.495
 20
348.535
 30
11.9
 11
333.472
 21
344.132
 31
11.9
  0
LINE
  5
A9C
330
A02
100
AcDbEntity
  8
Mesh_cs
100
AcDbLine
 10
333.472
 20
344.132
 30
11.9
 11
333.455
 21
344.095
 31
11.9
  0
LINE
  5
A9D
330
A02
100
AcDbEntity
  8
Mesh_cs
100
AcDbLine
 10
333.455
 20
344.095
 30
11.9
 11
331.397
 21
339.709
 31
11.9
  0
LINE
  5
A9E
330
A02
100
AcDbEntity
  8
Mesh_cs
100
AcDbLine
 10
331.397
 20
339.709
 30
11.9
 11
331.38
 21
339.672
 31
11.9
  0
LINE
  5
A9F
330
A02
100
AcDbEntity
  8
Mesh_cs
100
AcDbLine
 10
331.38
 20
339.672
 30
11.9
 11
329.287
 21
335.303
 31
11.9
  0
LINE
  5
AA0
330
A02
100
AcDbEntity
  8
Mesh_cs
100
AcDbLine
 10
329.287
 20
335.303
 30
11.9
 11
329.269
 21
335.266
 31
11.9
  0
LINE
  5
AA1
330
A02
100
AcDbEntity
  8
Mesh_cs
100
AcDbLine
 10
329.269
 20
335.266
 30
11.9
 11
327.141
 21
330.914
 31
11.9
  0
LINE
  5
AA2
330
A02
100
AcDbEntity
  8
Mesh_cs
100
AcDbLine
 10
327.141
 20
330.914
 30
11.9
 11
327.123
 21
330.877
 31
11.9
  0
LINE
  5
AA3
330
A02
100
AcDbEntity
  8
Mesh_cs
100
AcDbLine
 10
327.123
 20
330.877
 30
11.9
 11
324.96
 21
326.542
 31
11.9
  0
LINE
  5
AA4
330
A02
100
AcDbEntity
  8
Mesh_cs
100
AcDbLine
 10
324.96
 20
326.542
 30
11.9
 11
324.942
 21
326.506
 31
11.9
  0
LINE
  5
AA5
330
A02
100
AcDbEntity
  8
Mesh_cs
100
AcDbLine
 10
324.942
 20
326.506
 30
11.9
 11
322.744
 21
322.188
 31
11.9
  0
LINE
  5
AA6
330
A02
100
AcDbEntity
  8
Mesh_cs
100
AcDbLine
 10
322.744
 20
322.188
 30
11.9
 11
322.726
 21
322.152
 31
11.9
  0
LINE
  5
AA7
330
A02
100
AcDbEntity
  8
Mesh_cs
100
AcDbLine
 10
322.726
 20
322.152
 30
11.9
 11
320.493
 21
317.852
 31
11.9
  0
LINE
  5
AA8
330
A02
100
AcDbEntity
  8
Mesh_cs
100
AcDbLine
 10
320.493
 20
317.852
 30
11.9
 11
320.474
 21
317.816
 31
11.9
  0
LINE
  5
AA9
330
A02
100
AcDbEntity
  8
Mesh_cs
100
AcDbLine
 10
320.474
 20
317.816
 30
11.9
 11
318.207
 21
313.534
 31
11.9
  0
LINE
  5
AAA
330
A02
100
AcDbEntity
  8
Mesh_cs
100
AcDbLine
 10
318.207
 20
313.534
 30
11.9
 11
318.188
 21
313.498
 31
11.9
  0
LINE
  5
AAB
330
A02
100
AcDbEntity
  8
Mesh_cs
100
AcDbLine
 10
318.188
 20
313.498
 30
11.9
 11
315.887
 21
309.234
 31
11.9
  0
LINE
  5
AAC
330
A02
100
AcDbEntity
  8
Mesh_cs
100
AcDbLine
 10
315.887
 20
309.234
 30
11.9
 11
315.868
 21
309.199
 31
11.9
  0
LINE
  5
AAD
330
A02
100
AcDbEntity
  8
Mesh_cs
100
AcDbLine
 10
315.868
 20
309.199
 30
11.9
 11
313.532
 21
304.954
 31
11.9
  0
LINE
  5
AAE
330
A02
100
AcDbEntity
  8
Mesh_cs
100
AcDbLine
 10
313.532
 20
304.954
 30
11.9
 11
313.513
 21
304.918
 31
11.9
  0
LINE
  5
AAF
330
A02
100
AcDbEntity
  8
Mesh_cs
100
AcDbLine
 10
313.513
 20
304.918
 30
11.9
 11
311.143
 21
300.692
 31
11.9
  0
LINE
  5
AB0
330
A02
100
AcDbEntity
  8
Mesh_cs
100
AcDbLine
 10
311.143
 20
300.692
 30
11.9
 11
311.123
 21
300.657
 31
11.9
  0
LINE
  5
AB1
330
A02
100
AcDbEntity
  8
Mesh_cs
100
AcDbLine
 10
311.123
 20
300.657
 30
11.9
 11
308.72
 21
296.45
 31
11.9
  0
LINE
  5
AB2
330
A02
100
AcDbEntity
  8
Mesh_cs
100
AcDbLine
 10
308.72
 20
296.45
 30
11.9
 11
308.7
 21
296.415
 31
11.9
  0
LINE
  5
AB3
330
A02
100
AcDbEntity
  8
Mesh_cs
100
AcDbLine
 10
308.7
 20
296.415
 30
11.9
 11
306.263
 21
292.227
 31
11.9
  0
LINE
  5
AB4
330
A02
100
AcDbEntity
  8
Mesh_cs
100
AcDbLine
 10
306.263
 20
292.227
 30
11.9
 11
306.242
 21
292.192
 31
11.9
  0
LINE
  5
AB5
330
A02
100
AcDbEntity
  8
Mesh_cs
100
AcDbLine
 10
306.242
 20
292.192
 30
11.9
 11
303.771
 21
288.025
 31
11.9
  0
LINE
  5
AB6
330
A02
100
AcDbEntity
  8
Mesh_cs
100
AcDbLine
 10
303.771
 20
288.025
 30
11.9
 11
303.751
 21
287.989
 31
11.9
  0
LINE
  5
AB7
330
A02
100
AcDbEntity
  8
Mesh_cs
100
AcDbLine
 10
303.751
 20
287.989
 30
11.9
 11
301.247
 21
283.842
 31
11.9
  0
LINE
  5
AB8
330
A02
100
AcDbEntity
  8
Mesh_cs
100
AcDbLine
 10
301.247
 20
283.842
 30
11.9
 11
301.226
 21
283.807
 31
11.9
  0
LINE
  5
AB9
330
A02
100
AcDbEntity
  8
Mesh_cs
100
AcDbLine
 10
301.226
 20
283.807
 30
11.9
 11
298.688
 21
279.68
 31
11.9
  0
LINE
  5
ABA
330
A02
100
AcDbEntity
  8
Mesh_cs
100
AcDbLine
 10
298.688
 20
279.68
 30
11.9
 11
298.667
 21
279.645
 31
11.9
  0
LINE
  5
ABB
330
A02
100
AcDbEntity
  8
Mesh_cs
100
AcDbLine
 10
298.667
 20
279.645
 30
11.9
 11
296.097
 21
275.538
 31
11.9
  0
LINE
  5
ABC
330
A02
100
AcDbEntity
  8
Mesh_cs
100
AcDbLine
 10
296.097
 20
275.538
 30
11.9
 11
296.075
 21
275.504
 31
11.9
  0
LINE
  5
ABD
330
A02
100
AcDbEntity
  8
Mesh_cs
100
AcDbLine
 10
296.075
 20
275.504
 30
11.9
 11
293.472
 21
271.418
 31
11.9
  0
LINE
  5
ABE
330
A02
100
AcDbEntity
  8
Mesh_cs
100
AcDbLine
 10
293.472
 20
271.418
 30
11.9
 11
293.45
 21
271.383
 31
11.9
  0
LINE
  5
ABF
330
A02
100
AcDbEntity
  8
Mesh_cs
100
AcDbLine
 10
293.45
 20
271.383
 30
11.9
 11
290.814
 21
267.318
 31
11.9
  0
LINE
  5
AC0
330
A02
100
AcDbEntity
  8
Mesh_cs
100
AcDbLine
 10
290.814
 20
267.318
 30
11.9
 11
290.792
 21
267.284
 31
11.9
  0
LINE
  5
AC1
330
A02
100
AcDbEntity
  8
Mesh_cs
100
AcDbLine
 10
290.792
 20
267.284
 30
11.9
 11
290.704
 21
267.151
 31
11.9
  0
LINE
  5
AC2
330
A02
100
AcDbEntity
  8
Mesh_cs
100
AcDbLine
 10
290.704
 20
267.151
 30
11.9
 11
288.102
 21
263.209
 31
11.9
  0
LINE
  5
AC3
330
A02
100
AcDbEntity
  8
Mesh_cs
100
AcDbLine
 10
288.102
 20
263.209
 30
11.9
 11
272.938
 21
274.227
 31
11.9
  0
LINE
  5
AC4
330
A02
100
AcDbEntity
  8
Mesh_cs
100
AcDbLine
 10
272.938
 20
274.227
 30
11.9
 11
272.416
 21
274.607
 31
11.9
  0
LINE
  5
AC5
330
A02
100
AcDbEntity
  8
Mesh_cs
100
AcDbLine
 10
272.416
 20
274.607
 30
11.9
 11
272.406
 21
274.613
 31
11.9
  0
LINE
  5
AC6
330
A02
100
AcDbEntity
  8
Mesh_cs
100
AcDbLine
 10
272.406
 20
274.613
 30
11.9
 11
272.083
 21
274.829
 31
11.9
  0
LINE
  5
AC7
330
A02
100
AcDbEntity
  8
Mesh_cs
100
AcDbLine
 10
272.083
 20
274.829
 30
11.9
 11
272.073
 21
274.834
 31
11.9
  0
LINE
  5
AC8
330
A02
100
AcDbEntity
  8
Mesh_cs
100
AcDbLine
 10
272.073
 20
274.834
 30
11.9
 11
271.732
 21
275.024
 31
11.9
  0
LINE
  5
AC9
330
A02
100
AcDbEntity
  8
Mesh_cs
100
AcDbLine
 10
271.732
 20
275.024
 30
11.9
 11
271.719
 21
275.03
 31
11.9
  0
LINE
  5
ACA
330
A02
100
AcDbEntity
  8
Mesh_cs
100
AcDbLine
 10
271.719
 20
275.03
 30
11.9
 11
271.397
 21
275.178
 31
11.9
  0
LINE
  5
ACB
330
A02
100
AcDbEntity
  8
Mesh_cs
100
AcDbLine
 10
271.397
 20
275.178
 30
11.9
 11
271.383
 21
275.183
 31
11.9
  0
LINE
  5
ACC
330
A02
100
AcDbEntity
  8
Mesh_cs
100
AcDbLine
 10
271.383
 20
275.183
 30
11.9
 11
271.018
 21
275.318
 31
11.9
  0
LINE
  5
ACD
330
A02
100
AcDbEntity
  8
Mesh_cs
100
AcDbLine
 10
271.018
 20
275.318
 30
11.9
 11
270.644
 21
275.423
 31
11.9
  0
LINE
  5
ACE
330
A02
100
AcDbEntity
  8
Mesh_cs
100
AcDbLine
 10
270.644
 20
275.423
 30
11.9
 11
270.247
 21
275.501
 31
11.9
  0
LINE
  5
ACF
330
A02
100
AcDbEntity
  8
Mesh_cs
100
AcDbLine
 10
270.247
 20
275.501
 30
11.9
 11
270.233
 21
275.504
 31
11.9
  0
LINE
  5
AD0
330
A02
100
AcDbEntity
  8
Mesh_cs
100
AcDbLine
 10
270.233
 20
275.504
 30
11.9
 11
269.846
 21
275.547
 31
11.9
  0
LINE
  5
AD1
330
A02
100
AcDbEntity
  8
Mesh_cs
100
AcDbLine
 10
269.846
 20
275.547
 30
11.9
 11
269.443
 21
275.561
 31
11.9
  0
LINE
  5
AD2
330
A02
100
AcDbEntity
  8
Mesh_cs
100
AcDbLine
 10
269.443
 20
275.561
 30
11.9
 11
269.039
 21
275.542
 31
11.9
  0
LINE
  5
AD3
330
A02
100
AcDbEntity
  8
Mesh_cs
100
AcDbLine
 10
269.039
 20
275.542
 30
11.9
 11
268.596
 21
275.483
 31
11.9
  0
LINE
  5
AD4
330
A02
100
AcDbEntity
  8
Mesh_cs
100
AcDbLine
 10
268.596
 20
275.483
 30
11.9
 11
268.162
 21
275.385
 31
11.9
  0
LINE
  5
AD5
330
A02
100
AcDbEntity
  8
Mesh_cs
100
AcDbLine
 10
268.162
 20
275.385
 30
11.9
 11
267.737
 21
275.249
 31
11.9
  0
LINE
  5
AD6
330
A02
100
AcDbEntity
  8
Mesh_cs
100
AcDbLine
 10
267.737
 20
275.249
 30
11.9
 11
267.327
 21
275.075
 31
11.9
  0
LINE
  5
AD7
330
A02
100
AcDbEntity
  8
Mesh_cs
100
AcDbLine
 10
267.327
 20
275.075
 30
11.9
 11
267.315
 21
275.07
 31
11.9
  0
LINE
  5
AD8
330
A02
100
AcDbEntity
  8
Mesh_cs
100
AcDbLine
 10
267.315
 20
275.07
 30
11.9
 11
266.922
 21
274.86
 31
11.9
  0
LINE
  5
AD9
330
A02
100
AcDbEntity
  8
Mesh_cs
100
AcDbLine
 10
266.922
 20
274.86
 30
11.9
 11
266.549
 21
274.615
 31
11.9
  0
LINE
  5
ADA
330
A02
100
AcDbEntity
  8
Mesh_cs
100
AcDbLine
 10
266.549
 20
274.615
 30
11.9
 11
266.2
 21
274.338
 31
11.9
  0
LINE
  5
ADB
330
A02
100
AcDbEntity
  8
Mesh_cs
100
AcDbLine
 10
266.2
 20
274.338
 30
11.9
 11
265.877
 21
274.032
 31
11.9
  0
LINE
  5
ADC
330
A02
100
AcDbEntity
  8
Mesh_cs
100
AcDbLine
 10
265.877
 20
274.032
 30
11.9
 11
265.645
 21
273.773
 31
11.9
  0
LINE
  5
ADD
330
A02
100
AcDbEntity
  8
Mesh_cs
100
AcDbLine
 10
265.645
 20
273.773
 30
11.9
 11
265.636
 21
273.763
 31
11.9
  0
LINE
  5
ADE
330
A02
100
AcDbEntity
  8
Mesh_cs
100
AcDbLine
 10
265.636
 20
273.763
 30
11.9
 11
265.432
 21
273.5
 31
11.9
  0
LINE
  5
ADF
330
A02
100
AcDbEntity
  8
Mesh_cs
100
AcDbLine
 10
265.432
 20
273.5
 30
11.9
 11
254.125
 21
257.938
 31
11.9
  0
LINE
  5
AE0
330
A02
100
AcDbEntity
  8
Mesh_cs
100
AcDbLine
 10
254.125
 20
257.938
 30
11.9
 11
253.735
 21
257.401
 31
11.9
  0
LINE
  5
AE1
330
A02
100
AcDbEntity
  8
Mesh_cs
100
AcDbLine
 10
253.735
 20
257.401
 30
11.9
 11
249.277
 21
260.64
 31
11.9
  0
LINE
  5
AE2
330
A02
100
AcDbEntity
  8
Mesh_cs
100
AcDbLine
 10
249.277
 20
260.64
 30
11.9
 11
209.158
 21
289.788
 31
11.9
  0
LINE
  5
AE3
330
A02
100
AcDbEntity
  8
Mesh_cs
100
AcDbLine
 10
209.158
 20
289.788
 30
11.9
 11
211.548
 21
293.107
 31
11.9
  0
LINE
  5
AE4
330
A02
100
AcDbEntity
  8
Mesh_cs
100
AcDbLine
 10
211.548
 20
293.107
 30
11.9
 11
211.813
 21
293.476
 31
11.9
  0
LINE
  5
AE5
330
A02
100
AcDbEntity
  8
Mesh_cs
100
AcDbLine
 10
211.813
 20
293.476
 30
11.9
 11
214.174
 21
296.816
 31
11.9
  0
LINE
  5
AE6
330
A02
100
AcDbEntity
  8
Mesh_cs
100
AcDbLine
 10
214.174
 20
296.816
 30
11.9
 11
214.437
 21
297.187
 31
11.9
  0
LINE
  5
AE7
330
A02
100
AcDbEntity
  8
Mesh_cs
100
AcDbLine
 10
214.437
 20
297.187
 30
11.9
 11
216.769
 21
300.547
 31
11.9
  0
LINE
  5
AE8
330
A02
100
AcDbEntity
  8
Mesh_cs
100
AcDbLine
 10
216.769
 20
300.547
 30
11.9
 11
217.028
 21
300.92
 31
11.9
  0
LINE
  5
AE9
330
A02
100
AcDbEntity
  8
Mesh_cs
100
AcDbLine
 10
217.028
 20
300.92
 30
11.9
 11
219.332
 21
304.3
 31
11.9
  0
LINE
  5
AEA
330
A02
100
AcDbEntity
  8
Mesh_cs
100
AcDbLine
 10
219.332
 20
304.3
 30
11.9
 11
219.588
 21
304.676
 31
11.9
  0
LINE
  5
AEB
330
A02
100
AcDbEntity
  8
Mesh_cs
100
AcDbLine
 10
219.588
 20
304.676
 30
11.9
 11
221.862
 21
308.076
 31
11.9
  0
LINE
  5
AEC
330
A02
100
AcDbEntity
  8
Mesh_cs
100
AcDbLine
 10
221.862
 20
308.076
 30
11.9
 11
222.115
 21
308.453
 31
11.9
  0
LINE
  5
AED
330
A02
100
AcDbEntity
  8
Mesh_cs
100
AcDbLine
 10
222.115
 20
308.453
 30
11.9
 11
224.36
 21
311.872
 31
11.9
  0
LINE
  5
AEE
330
A02
100
AcDbEntity
  8
Mesh_cs
100
AcDbLine
 10
224.36
 20
311.872
 30
11.9
 11
224.609
 21
312.252
 31
11.9
  0
LINE
  5
AEF
330
A02
100
AcDbEntity
  8
Mesh_cs
100
AcDbLine
 10
224.609
 20
312.252
 30
11.9
 11
226.824
 21
315.691
 31
11.9
  0
LINE
  5
AF0
330
A02
100
AcDbEntity
  8
Mesh_cs
100
AcDbLine
 10
226.824
 20
315.691
 30
11.9
 11
227.071
 21
316.073
 31
11.9
  0
LINE
  5
AF1
330
A02
100
AcDbEntity
  8
Mesh_cs
100
AcDbLine
 10
227.071
 20
316.073
 30
11.9
 11
229.256
 21
319.53
 31
11.9
  0
LINE
  5
AF2
330
A02
100
AcDbEntity
  8
Mesh_cs
100
AcDbLine
 10
229.256
 20
319.53
 30
11.9
 11
229.499
 21
319.914
 31
11.9
  0
LINE
  5
AF3
330
A02
100
AcDbEntity
  8
Mesh_cs
100
AcDbLine
 10
229.499
 20
319.914
 30
11.9
 11
229.739
 21
320.3
 31
11.9
  0
LINE
  5
AF4
330
A02
100
AcDbEntity
  8
Mesh_cs
100
AcDbLine
 10
229.739
 20
320.3
 30
11.9
 11
231.894
 21
323.776
 31
11.9
  0
LINE
  5
AF5
330
A02
100
AcDbEntity
  8
Mesh_cs
100
AcDbLine
 10
231.894
 20
323.776
 30
11.9
 11
234.02
 21
327.271
 31
11.9
  0
LINE
  5
AF6
330
A02
100
AcDbEntity
  8
Mesh_cs
100
AcDbLine
 10
234.02
 20
327.271
 30
11.9
 11
234.257
 21
327.659
 31
11.9
  0
LINE
  5
AF7
330
A02
100
AcDbEntity
  8
Mesh_cs
100
AcDbLine
 10
234.257
 20
327.659
 30
11.9
 11
236.352
 21
331.171
 31
11.9
  0
LINE
  5
AF8
330
A02
100
AcDbEntity
  8
Mesh_cs
100
AcDbLine
 10
236.352
 20
331.171
 30
11.9
 11
236.585
 21
331.562
 31
11.9
  0
LINE
  5
AF9
330
A02
100
AcDbEntity
  8
Mesh_cs
100
AcDbLine
 10
236.585
 20
331.562
 30
11.9
 11
238.65
 21
335.092
 31
11.9
  0
LINE
  5
AFA
330
A02
100
AcDbEntity
  8
Mesh_cs
100
AcDbLine
 10
238.65
 20
335.092
 30
11.9
 11
238.88
 21
335.484
 31
11.9
  0
LINE
  5
AFB
330
A02
100
AcDbEntity
  8
Mesh_cs
100
AcDbLine
 10
238.88
 20
335.484
 30
11.9
 11
240.915
 21
339.032
 31
11.9
  0
LINE
  5
AFC
330
A02
100
AcDbEntity
  8
Mesh_cs
100
AcDbLine
 10
240.915
 20
339.032
 30
11.9
 11
241.141
 21
339.427
 31
11.9
  0
LINE
  5
AFD
330
A02
100
AcDbEntity
  8
Mesh_cs
100
AcDbLine
 10
241.141
 20
339.427
 30
11.9
 11
243.145
 21
342.992
 31
11.9
  0
LINE
  5
AFE
330
A02
100
AcDbEntity
  8
Mesh_cs
100
AcDbLine
 10
243.145
 20
342.992
 30
11.9
 11
243.368
 21
343.388
 31
11.9
  0
LINE
  5
AFF
330
A02
100
AcDbEntity
  8
Mesh_cs
100
AcDbLine
 10
243.368
 20
343.388
 30
11.9
 11
243.587
 21
343.786
 31
11.9
  0
LINE
  5
B00
330
A02
100
AcDbEntity
  8
Mesh_cs
100
AcDbLine
 10
243.587
 20
343.786
 30
11.9
 11
245.561
 21
347.369
 31
11.9
  0
LINE
  5
B01
330
A02
100
AcDbEntity
  8
Mesh_cs
100
AcDbLine
 10
245.561
 20
347.369
 30
11.9
 11
247.504
 21
350.968
 31
11.9
  0
LINE
  5
B02
330
A02
100
AcDbEntity
  8
Mesh_cs
100
AcDbLine
 10
247.504
 20
350.968
 30
11.9
 11
247.719
 21
351.368
 31
11.9
  0
LINE
  5
B03
330
A02
100
AcDbEntity
  8
Mesh_cs
100
AcDbLine
 10
247.719
 20
351.368
 30
11.9
 11
247.932
 21
351.77
 31
11.9
  0
LINE
  5
B04
330
A02
100
AcDbEntity
  8
Mesh_cs
100
AcDbLine
 10
247.932
 20
351.77
 30
11.9
 11
249.843
 21
355.386
 31
11.9
  0
LINE
  5
B05
330
A02
100
AcDbEntity
  8
Mesh_cs
100
AcDbLine
 10
249.843
 20
355.386
 30
11.9
 11
251.724
 21
359.018
 31
11.9
  0
LINE
  5
B06
330
A02
100
AcDbEntity
  8
Mesh_cs
100
AcDbLine
 10
251.724
 20
359.018
 30
11.9
 11
251.933
 21
359.422
 31
11.9
  0
LINE
  5
B07
330
A02
100
AcDbEntity
  8
Mesh_cs
100
AcDbLine
 10
251.933
 20
359.422
 30
11.9
 11
253.782
 21
363.07
 31
11.9
  0
LINE
  5
B08
330
A02
100
AcDbEntity
  8
Mesh_cs
100
AcDbLine
 10
253.782
 20
363.07
 30
11.9
 11
253.987
 21
363.476
 31
11.9
  0
LINE
  5
B09
330
A02
100
AcDbEntity
  8
Mesh_cs
100
AcDbLine
 10
253.987
 20
363.476
 30
11.9
 11
255.805
 21
367.14
 31
11.9
  0
LINE
  5
B0A
330
A02
100
AcDbEntity
  8
Mesh_cs
100
AcDbLine
 10
255.805
 20
367.14
 30
11.9
 11
256.007
 21
367.547
 31
11.9
  0
LINE
  5
B0B
330
A02
100
AcDbEntity
  8
Mesh_cs
100
AcDbLine
 10
256.007
 20
367.547
 30
11.9
 11
257.793
 21
371.227
 31
11.9
  0
LINE
  5
B0C
330
A02
100
AcDbEntity
  8
Mesh_cs
100
AcDbLine
 10
257.793
 20
371.227
 30
11.9
 11
257.991
 21
371.636
 31
11.9
  0
LINE
  5
B0D
330
A02
100
AcDbEntity
  8
Mesh_cs
100
AcDbLine
 10
257.991
 20
371.636
 30
11.9
 11
259.745
 21
375.331
 31
11.9
  0
LINE
  5
B0E
330
A02
100
AcDbEntity
  8
Mesh_cs
100
AcDbLine
 10
259.745
 20
375.331
 30
11.9
 11
259.94
 21
375.741
 31
11.9
  0
LINE
  5
B0F
330
A02
100
AcDbEntity
  8
Mesh_cs
100
AcDbLine
 10
259.94
 20
375.741
 30
11.9
 11
261.663
 21
379.451
 31
11.9
  0
LINE
  5
B10
330
A02
100
AcDbEntity
  8
Mesh_cs
100
AcDbLine
 10
261.663
 20
379.451
 30
11.9
 11
261.854
 21
379.863
 31
11.9
  0
LINE
  5
B11
330
A02
100
AcDbEntity
  8
Mesh_cs
100
AcDbLine
 10
261.854
 20
379.863
 30
11.9
 11
263.545
 21
383.588
 31
11.9
  0
LINE
  5
B12
330
A02
100
AcDbEntity
  8
Mesh_cs
100
AcDbLine
 10
263.545
 20
383.588
 30
11.9
 11
263.732
 21
384.002
 31
11.9
  0
LINE
  5
B13
330
A02
100
AcDbEntity
  8
Mesh_cs
100
AcDbLine
 10
263.732
 20
384.002
 30
11.9
 11
265.391
 21
387.741
 31
11.9
  0
LINE
  5
B14
330
A02
100
AcDbEntity
  8
Mesh_cs
100
AcDbLine
 10
265.391
 20
387.741
 30
11.9
 11
265.575
 21
388.156
 31
11.9
  0
LINE
  5
B15
330
A02
100
AcDbEntity
  8
Mesh_cs
100
AcDbLine
 10
265.575
 20
388.156
 30
11.9
 11
265.756
 21
388.573
 31
11.9
  0
LINE
  5
B16
330
A02
100
AcDbEntity
  8
Mesh_cs
100
AcDbLine
 10
265.756
 20
388.573
 30
11.9
 11
267.382
 21
392.326
 31
11.9
  0
LINE
  5
B17
330
A02
100
AcDbEntity
  8
Mesh_cs
100
AcDbLine
 10
267.382
 20
392.326
 30
11.9
 11
268.975
 21
396.093
 31
11.9
  0
LINE
  5
B18
330
A02
100
AcDbEntity
  8
Mesh_cs
100
AcDbLine
 10
268.975
 20
396.093
 30
11.9
 11
269.152
 21
396.512
 31
11.9
  0
LINE
  5
B19
330
A02
100
AcDbEntity
  8
Mesh_cs
100
AcDbLine
 10
269.152
 20
396.512
 30
11.9
 11
270.714
 21
400.292
 31
11.9
  0
LINE
  5
B1A
330
A02
100
AcDbEntity
  8
Mesh_cs
100
AcDbLine
 10
270.714
 20
400.292
 30
11.9
 11
270.887
 21
400.712
 31
11.9
  0
LINE
  5
B1B
330
A02
100
AcDbEntity
  8
Mesh_cs
100
AcDbLine
 10
270.887
 20
400.712
 30
11.9
 11
271.057
 21
401.134
 31
11.9
  0
LINE
  5
B1C
330
A02
100
AcDbEntity
  8
Mesh_cs
100
AcDbLine
 10
271.057
 20
401.134
 30
11.9
 11
272.585
 21
404.928
 31
11.9
  0
LINE
  5
B1D
330
A02
100
AcDbEntity
  8
Mesh_cs
100
AcDbLine
 10
272.585
 20
404.928
 30
11.9
 11
274.081
 21
408.734
 31
11.9
  0
LINE
  5
B1E
330
A02
100
AcDbEntity
  8
Mesh_cs
100
AcDbLine
 10
274.081
 20
408.734
 30
11.9
 11
274.248
 21
409.157
 31
11.9
  0
LINE
  5
B1F
330
A02
100
AcDbEntity
  8
Mesh_cs
100
AcDbLine
 10
274.248
 20
409.157
 30
11.9
 11
275.711
 21
412.977
 31
11.9
  0
LINE
  5
B20
330
A02
100
AcDbEntity
  8
Mesh_cs
100
AcDbLine
 10
275.711
 20
412.977
 30
11.9
 11
275.873
 21
413.401
 31
11.9
  0
LINE
  5
B21
330
A02
100
AcDbEntity
  8
Mesh_cs
100
AcDbLine
 10
275.873
 20
413.401
 30
11.9
 11
277.303
 21
417.233
 31
11.9
  0
LINE
  5
B22
330
A02
100
AcDbEntity
  8
Mesh_cs
100
AcDbLine
 10
277.303
 20
417.233
 30
11.9
 11
277.462
 21
417.659
 31
11.9
  0
LINE
  5
B23
330
A02
100
AcDbEntity
  8
Mesh_cs
100
AcDbLine
 10
277.462
 20
417.659
 30
11.9
 11
278.859
 21
421.503
 31
11.9
  0
LINE
  5
B24
330
A02
100
AcDbEntity
  8
Mesh_cs
100
AcDbLine
 10
278.859
 20
421.503
 30
11.9
 11
279.015
 21
421.931
 31
11.9
  0
LINE
  5
B25
330
A02
100
AcDbEntity
  8
Mesh_cs
100
AcDbLine
 10
279.015
 20
421.931
 30
11.9
 11
279.166
 21
422.359
 31
11.9
  0
LINE
  5
B26
330
A02
100
AcDbEntity
  8
Mesh_cs
100
AcDbLine
 10
279.166
 20
422.359
 30
11.9
 11
280.53
 21
426.215
 31
11.9
  0
LINE
  5
B27
330
A02
100
AcDbEntity
  8
Mesh_cs
100
AcDbLine
 10
280.53
 20
426.215
 30
11.9
 11
280.678
 21
426.645
 31
11.9
  0
LINE
  5
B28
330
A02
100
AcDbEntity
  8
Mesh_cs
100
AcDbLine
 10
280.678
 20
426.645
 30
11.9
 11
282.009
 21
430.513
 31
11.9
  0
LINE
  5
B29
330
A02
100
AcDbEntity
  8
Mesh_cs
100
AcDbLine
 10
282.009
 20
430.513
 30
11.9
 11
283.306
 21
434.392
 31
11.9
  0
LINE
  5
B2A
330
A02
100
AcDbEntity
  8
Mesh_cs
100
AcDbLine
 10
283.306
 20
434.392
 30
11.9
 11
283.45
 21
434.823
 31
11.9
  0
LINE
  5
B2B
330
A02
100
AcDbEntity
  8
Mesh_cs
100
AcDbLine
 10
283.45
 20
434.823
 30
11.9
 11
284.714
 21
438.713
 31
11.9
  0
LINE
  5
B2C
330
A02
100
AcDbEntity
  8
Mesh_cs
100
AcDbLine
 10
284.714
 20
438.713
 30
11.9
 11
284.855
 21
439.145
 31
11.9
  0
LINE
  5
B2D
330
A02
100
AcDbEntity
  8
Mesh_cs
100
AcDbLine
 10
284.855
 20
439.145
 30
11.9
 11
284.991
 21
439.578
 31
11.9
  0
LINE
  5
B2E
330
A02
100
AcDbEntity
  8
Mesh_cs
100
AcDbLine
 10
284.991
 20
439.578
 30
11.9
 11
286.222
 21
443.479
 31
11.9
  0
LINE
  5
B2F
330
A02
100
AcDbEntity
  8
Mesh_cs
100
AcDbLine
 10
286.222
 20
443.479
 30
11.9
 11
286.355
 21
443.914
 31
11.9
  0
LINE
  5
B30
330
A02
100
AcDbEntity
  8
Mesh_cs
100
AcDbLine
 10
286.355
 20
443.914
 30
11.9
 11
287.551
 21
447.825
 31
11.9
  0
LINE
  5
B31
330
A02
100
AcDbEntity
  8
Mesh_cs
100
AcDbLine
 10
287.551
 20
447.825
 30
11.9
 11
288.715
 21
451.746
 31
11.9
  0
LINE
  5
B32
330
A02
100
AcDbEntity
  8
Mesh_cs
100
AcDbLine
 10
288.715
 20
451.746
 30
11.9
 11
288.844
 21
452.182
 31
11.9
  0
LINE
  5
B33
330
A02
100
AcDbEntity
  8
Mesh_cs
100
AcDbLine
 10
288.844
 20
452.182
 30
11.9
 11
289.973
 21
456.113
 31
11.9
  0
LINE
  5
B34
330
A02
100
AcDbEntity
  8
Mesh_cs
100
AcDbLine
 10
289.973
 20
456.113
 30
11.9
 11
290.099
 21
456.55
 31
11.9
  0
LINE
  5
B35
330
A02
100
AcDbEntity
  8
Mesh_cs
100
AcDbLine
 10
290.099
 20
456.55
 30
11.9
 11
291.194
 21
460.491
 31
11.9
  0
LINE
  5
B36
330
A02
100
AcDbEntity
  8
Mesh_cs
100
AcDbLine
 10
291.194
 20
460.491
 30
11.9
 11
291.316
 21
460.929
 31
11.9
  0
LINE
  5
B37
330
A02
100
AcDbEntity
  8
Mesh_cs
100
AcDbLine
 10
291.316
 20
460.929
 30
11.9
 11
291.434
 21
461.367
 31
11.9
  0
LINE
  5
B38
330
A02
100
AcDbEntity
  8
Mesh_cs
100
AcDbLine
 10
291.434
 20
461.367
 30
11.9
 11
292.495
 21
465.318
 31
11.9
  0
LINE
  5
B39
330
A02
100
AcDbEntity
  8
Mesh_cs
100
AcDbLine
 10
292.495
 20
465.318
 30
11.9
 11
293.522
 21
469.277
 31
11.9
  0
LINE
  5
B3A
330
A02
100
AcDbEntity
  8
Mesh_cs
100
AcDbLine
 10
293.522
 20
469.277
 30
11.9
 11
293.637
 21
469.716
 31
11.9
  0
LINE
  5
B3B
330
A02
100
AcDbEntity
  8
Mesh_cs
100
AcDbLine
 10
293.637
 20
469.716
 30
11.9
 11
293.747
 21
470.157
 31
11.9
  0
LINE
  5
B3C
330
A02
100
AcDbEntity
  8
Mesh_cs
100
AcDbLine
 10
293.747
 20
470.157
 30
11.9
 11
294.74
 21
474.125
 31
11.9
  0
LINE
  5
B3D
330
A02
100
AcDbEntity
  8
Mesh_cs
100
AcDbLine
 10
294.74
 20
474.125
 30
11.9
 11
295.699
 21
478.101
 31
11.9
  0
LINE
  5
B3E
330
A02
100
AcDbEntity
  8
Mesh_cs
100
AcDbLine
 10
295.699
 20
478.101
 30
11.9
 11
295.806
 21
478.543
 31
11.9
  0
LINE
  5
B3F
330
A02
100
AcDbEntity
  8
Mesh_cs
100
AcDbLine
 10
295.806
 20
478.543
 30
11.9
 11
296.731
 21
482.527
 31
11.9
  0
LINE
  5
B40
330
A02
100
AcDbEntity
  8
Mesh_cs
100
AcDbLine
 10
296.731
 20
482.527
 30
11.9
 11
296.834
 21
482.97
 31
11.9
  0
LINE
  5
B41
330
A02
100
AcDbEntity
  8
Mesh_cs
100
AcDbLine
 10
296.834
 20
482.97
 30
11.9
 11
297.724
 21
486.962
 31
11.9
  0
LINE
  5
B42
330
A02
100
AcDbEntity
  8
Mesh_cs
100
AcDbLine
 10
297.724
 20
486.962
 30
11.9
 11
297.823
 21
487.406
 31
11.9
  0
LINE
  5
B43
330
A02
100
AcDbEntity
  8
Mesh_cs
100
AcDbLine
 10
297.823
 20
487.406
 30
11.9
 11
298.679
 21
491.405
 31
11.9
  0
LINE
  5
B44
330
A02
100
AcDbEntity
  8
Mesh_cs
100
AcDbLine
 10
298.679
 20
491.405
 30
11.9
 11
298.774
 21
491.85
 31
11.9
  0
LINE
  5
B45
330
A02
100
AcDbEntity
  8
Mesh_cs
100
AcDbLine
 10
298.774
 20
491.85
 30
11.9
 11
299.596
 21
495.857
 31
11.9
  0
LINE
  5
B46
330
A02
100
AcDbEntity
  8
Mesh_cs
100
AcDbLine
 10
299.596
 20
495.857
 30
11.9
 11
299.687
 21
496.302
 31
11.9
  0
LINE
  5
B47
330
A02
100
AcDbEntity
  8
Mesh_cs
100
AcDbLine
 10
299.687
 20
496.302
 30
11.9
 11
299.775
 21
496.748
 31
11.9
  0
LINE
  5
B48
330
A02
100
AcDbEntity
  8
Mesh_cs
100
AcDbLine
 10
299.775
 20
496.748
 30
11.9
 11
300.562
 21
500.761
 31
11.9
  0
LINE
  5
B49
330
A02
100
AcDbEntity
  8
Mesh_cs
100
AcDbLine
 10
300.562
 20
500.761
 30
11.9
 11
301.315
 21
504.782
 31
11.9
  0
LINE
  5
B4A
330
A02
100
AcDbEntity
  8
Mesh_cs
100
AcDbLine
 10
301.315
 20
504.782
 30
11.9
 11
301.398
 21
505.229
 31
11.9
  0
LINE
  5
B4B
330
A02
100
AcDbEntity
  8
Mesh_cs
100
AcDbLine
 10
301.398
 20
505.229
 30
11.9
 11
302.116
 21
509.255
 31
11.9
  0
LINE
  5
B4C
330
A02
100
AcDbEntity
  8
Mesh_cs
100
AcDbLine
 10
302.116
 20
509.255
 30
11.9
 11
302.196
 21
509.703
 31
11.9
  0
LINE
  5
B4D
330
A02
100
AcDbEntity
  8
Mesh_cs
100
AcDbLine
 10
302.196
 20
509.703
 30
11.9
 11
302.272
 21
510.151
 31
11.9
  0
LINE
  5
B4E
330
A02
100
AcDbEntity
  8
Mesh_cs
100
AcDbLine
 10
302.272
 20
510.151
 30
11.9
 11
302.955
 21
514.183
 31
11.9
  0
LINE
  5
B4F
330
A02
100
AcDbEntity
  8
Mesh_cs
100
AcDbLine
 10
302.955
 20
514.183
 30
11.9
 11
303.027
 21
514.632
 31
11.9
  0
LINE
  5
B50
330
A02
100
AcDbEntity
  8
Mesh_cs
100
AcDbLine
 10
303.027
 20
514.632
 30
11.9
 11
303.676
 21
518.671
 31
11.9
  0
LINE
  5
B51
330
A02
100
AcDbEntity
  8
Mesh_cs
100
AcDbLine
 10
303.676
 20
518.671
 30
11.9
 11
304.29
 21
522.715
 31
11.9
  0
LINE
  5
B52
330
A02
100
AcDbEntity
  8
Mesh_cs
100
AcDbLine
 10
304.29
 20
522.715
 30
11.9
 11
304.358
 21
523.164
 31
11.9
  0
LINE
  5
B53
330
A02
100
AcDbEntity
  8
Mesh_cs
100
AcDbLine
 10
304.358
 20
523.164
 30
11.9
 11
304.937
 21
527.213
 31
11.9
  0
LINE
  5
B54
330
A02
100
AcDbEntity
  8
Mesh_cs
100
AcDbLine
 10
304.937
 20
527.213
 30
11.9
 11
305.001
 21
527.663
 31
11.9
  0
LINE
  5
B55
330
A02
100
AcDbEntity
  8
Mesh_cs
100
AcDbLine
 10
305.001
 20
527.663
 30
11.9
 11
305.061
 21
528.113
 31
11.9
  0
LINE
  5
B56
330
A02
100
AcDbEntity
  8
Mesh_cs
100
AcDbLine
 10
305.061
 20
528.113
 30
11.9
 11
305.605
 21
532.167
 31
11.9
  0
LINE
  5
B57
330
A02
100
AcDbEntity
  8
Mesh_cs
100
AcDbLine
 10
305.605
 20
532.167
 30
11.9
 11
306.115
 21
536.225
 31
11.9
  0
LINE
  5
B58
330
A02
100
AcDbEntity
  8
Mesh_cs
100
AcDbLine
 10
306.115
 20
536.225
 30
11.9
 11
306.171
 21
536.676
 31
11.9
  0
LINE
  5
B59
330
A02
100
AcDbEntity
  8
Mesh_cs
100
AcDbLine
 10
306.171
 20
536.676
 30
11.9
 11
306.224
 21
537.128
 31
11.9
  0
LINE
  5
B5A
330
A02
100
AcDbEntity
  8
Mesh_cs
100
AcDbLine
 10
306.224
 20
537.128
 30
11.9
 11
306.698
 21
541.19
 31
11.9
  0
LINE
  5
B5B
330
A02
100
AcDbEntity
  8
Mesh_cs
100
AcDbLine
 10
306.698
 20
541.19
 30
11.9
 11
307.137
 21
545.257
 31
11.9
  0
LINE
  5
B5C
330
A02
100
AcDbEntity
  8
Mesh_cs
100
AcDbLine
 10
307.137
 20
545.257
 30
11.9
 11
307.186
 21
545.709
 31
11.9
  0
LINE
  5
B5D
330
A02
100
AcDbEntity
  8
Mesh_cs
100
AcDbLine
 10
307.186
 20
545.709
 30
11.9
 11
307.231
 21
546.161
 31
11.9
  0
LINE
  5
B5E
330
A02
100
AcDbEntity
  8
Mesh_cs
100
AcDbLine
 10
307.231
 20
546.161
 30
11.9
 11
307.635
 21
550.231
 31
11.9
  0
LINE
  5
B5F
330
A02
100
AcDbEntity
  8
Mesh_cs
100
AcDbLine
 10
307.635
 20
550.231
 30
11.9
 11
308.004
 21
554.305
 31
11.9
  0
LINE
  5
B60
330
A02
100
AcDbEntity
  8
Mesh_cs
100
AcDbLine
 10
308.004
 20
554.305
 30
11.9
 11
308.045
 21
554.757
 31
11.9
  0
LINE
  5
B61
330
A02
100
AcDbEntity
  8
Mesh_cs
100
AcDbLine
 10
308.045
 20
554.757
 30
11.9
 11
308.379
 21
558.834
 31
11.9
  0
LINE
  5
B62
330
A02
100
AcDbEntity
  8
Mesh_cs
100
AcDbLine
 10
308.379
 20
558.834
 30
11.9
 11
308.417
 21
559.287
 31
11.9
  0
LINE
  5
B63
330
A02
100
AcDbEntity
  8
Mesh_cs
100
AcDbLine
 10
308.417
 20
559.287
 30
11.9
 11
308.716
 21
563.366
 31
11.9
  0
LINE
  5
B64
330
A02
100
AcDbEntity
  8
Mesh_cs
100
AcDbLine
 10
308.716
 20
563.366
 30
11.9
 11
308.749
 21
563.819
 31
11.9
  0
LINE
  5
B65
330
A02
100
AcDbEntity
  8
Mesh_cs
100
AcDbLine
 10
308.749
 20
563.819
 30
11.9
 11
309.013
 21
567.901
 31
11.9
  0
LINE
  5
B66
330
A02
100
AcDbEntity
  8
Mesh_cs
100
AcDbLine
 10
309.013
 20
567.901
 30
11.9
 11
309.042
 21
568.355
 31
11.9
  0
LINE
  5
B67
330
A02
100
AcDbEntity
  8
Mesh_cs
100
AcDbLine
 10
309.042
 20
568.355
 30
11.9
 11
309.067
 21
568.808
 31
11.9
  0
LINE
  5
B68
330
A02
100
AcDbEntity
  8
Mesh_cs
100
AcDbLine
 10
309.067
 20
568.808
 30
11.9
 11
309.296
 21
572.892
 31
11.9
  0
LINE
  5
B69
330
A02
100
AcDbEntity
  8
Mesh_cs
100
AcDbLine
 10
309.296
 20
572.892
 30
11.9
 11
309.318
 21
573.346
 31
11.9
  0
LINE
  5
B6A
330
A02
100
AcDbEntity
  8
Mesh_cs
100
AcDbLine
 10
309.318
 20
573.346
 30
11.9
 11
309.511
 21
577.432
 31
11.9
  0
LINE
  5
B6B
330
A02
100
AcDbEntity
  8
Mesh_cs
100
AcDbLine
 10
309.511
 20
577.432
 30
11.9
 11
309.67
 21
581.519
 31
11.9
  0
LINE
  5
B6C
330
A02
100
AcDbEntity
  8
Mesh_cs
100
AcDbLine
 10
309.67
 20
581.519
 30
11.9
 11
309.687
 21
581.973
 31
11.9
  0
LINE
  5
B6D
330
A02
100
AcDbEntity
  8
Mesh_cs
100
AcDbLine
 10
309.687
 20
581.973
 30
11.9
 11
309.81
 21
586.061
 31
11.9
  0
LINE
  5
B6E
330
A02
100
AcDbEntity
  8
Mesh_cs
100
AcDbLine
 10
309.81
 20
586.061
 30
11.9
 11
309.824
 21
586.516
 31
11.9
  0
LINE
  5
B6F
330
A02
100
AcDbEntity
  8
Mesh_cs
100
AcDbLine
 10
390
 20
600.148
 30
11.9
 11
389.989
 21
596.454
 31
11.9
  0
LINE
  5
B70
330
A02
100
AcDbEntity
  8
Mesh_cs
100
AcDbLine
 10
389.989
 20
596.454
 30
11.9
 11
389.989
 21
596.413
 31
11.9
  0
LINE
  5
B71
330
A02
100
AcDbEntity
  8
Mesh_cs
100
AcDbLine
 10
389.989
 20
596.413
 30
11.9
 11
389.955
 21
592.719
 31
11.9
  0
LINE
  5
B72
330
A02
100
AcDbEntity
  8
Mesh_cs
100
AcDbLine
 10
389.955
 20
592.719
 30
11.9
 11
389.954
 21
592.678
 31
11.9
  0
LINE
  5
B73
330
A02
100
AcDbEntity
  8
Mesh_cs
100
AcDbLine
 10
389.954
 20
592.678
 30
11.9
 11
389.897
 21
588.984
 31
11.9
  0
LINE
  5
B74
330
A02
100
AcDbEntity
  8
Mesh_cs
100
AcDbLine
 10
389.897
 20
588.984
 30
11.9
 11
389.895
 21
588.849
 31
11.9
  0
LINE
  5
B75
330
A02
100
AcDbEntity
  8
Mesh_cs
100
AcDbLine
 10
389.895
 20
588.849
 30
11.9
 11
389.817
 21
585.248
 31
11.9
  0
LINE
  5
B76
330
A02
100
AcDbEntity
  8
Mesh_cs
100
AcDbLine
 10
389.817
 20
585.248
 30
11.9
 11
389.327
 21
585.248
 31
11.9
  0
LINE
  5
B77
330
A02
100
AcDbEntity
  8
Mesh_cs
100
AcDbLine
 10
389.327
 20
585.248
 30
11.9
 11
375.1
 21
585.248
 31
11.9
  0
LINE
  5
B78
330
A02
100
AcDbEntity
  8
Mesh_cs
100
AcDbLine
 10
375.1
 20
585.248
 30
11.9
 11
375.1
 21
599.652
 31
11.9
  0
LINE
  5
B79
330
A02
100
AcDbEntity
  8
Mesh_cs
100
AcDbLine
 10
375.1
 20
599.652
 30
11.9
 11
375.1
 21
600.148
 31
11.9
  0
LINE
  5
B7A
330
A02
100
AcDbEntity
  8
Mesh_cs
100
AcDbLine
 10
375.1
 20
600.148
 30
11.9
 11
389.503
 21
600.148
 31
11.9
  0
LINE
  5
B7B
330
A02
100
AcDbEntity
  8
Mesh_cs
100
AcDbLine
 10
389.503
 20
600.148
 30
11.9
 11
390
 21
600.148
 31
11.9
  0
LINE
  5
B7C
330
A02
100
AcDbEntity
  8
Mesh_cs
100
AcDbLine
 10
209.9
 20
585.248
 30
11.9
 11
195.497
 21
585.248
 31
11.9
  0
LINE
  5
B7D
330
A02
100
AcDbEntity
  8
Mesh_cs
100
AcDbLine
 10
195.497
 20
585.248
 30
11.9
 11
195
 21
585.248
 31
11.9
  0
LINE
  5
B7E
330
A02
100
AcDbEntity
  8
Mesh_cs
100
AcDbLine
 10
195
 20
585.248
 30
11.9
 11
195
 21
599.652
 31
11.9
  0
LINE
  5
B7F
330
A02
100
AcDbEntity
  8
Mesh_cs
100
AcDbLine
 10
195
 20
599.652
 30
11.9
 11
195
 21
600.148
 31
11.9
  0
LINE
  5
B80
330
A02
100
AcDbEntity
  8
Mesh_cs
100
AcDbLine
 10
195
 20
600.148
 30
11.9
 11
195.497
 21
600.148
 31
11.9
  0
LINE
  5
B81
330
A02
100
AcDbEntity
  8
Mesh_cs
100
AcDbLine
 10
195.497
 20
600.148
 30
11.9
 11
209.9
 21
600.148
 31
11.9
  0
LINE
  5
B82
330
A02
100
AcDbEntity
  8
Mesh_cs
100
AcDbLine
 10
209.9
 20
600.148
 30
11.9
 11
209.9
 21
585.745
 31
11.9
  0
LINE
  5
B83
330
A02
100
AcDbEntity
  8
Mesh_cs
100
AcDbLine
 10
209.9
 20
585.745
 30
11.9
 11
209.9
 21
585.248
 31
11.9
  0
LINE
  5
B84
330
A02
100
AcDbEntity
  8
Mesh_cs
100
AcDbLine
 10
239.435
 20
416.292
 30
11.9
 11
237.948
 21
412.64
 31
11.9
  0
LINE
  5
B85
330
A02
100
AcDbEntity
  8
Mesh_cs
100
AcDbLine
 10
237.948
 20
412.64
 30
11.9
 11
237.783
 21
412.234
 31
11.9
  0
LINE
  5
B86
330
A02
100
AcDbEntity
  8
Mesh_cs
100
AcDbLine
 10
237.783
 20
412.234
 30
11.9
 11
236.264
 21
408.595
 31
11.9
  0
LINE
  5
B87
330
A02
100
AcDbEntity
  8
Mesh_cs
100
AcDbLine
 10
236.264
 20
408.595
 30
11.9
 11
236.095
 21
408.19
 31
11.9
  0
LINE
  5
B88
330
A02
100
AcDbEntity
  8
Mesh_cs
100
AcDbLine
 10
236.095
 20
408.19
 30
11.9
 11
234.544
 21
404.565
 31
11.9
  0
LINE
  5
B89
330
A02
100
AcDbEntity
  8
Mesh_cs
100
AcDbLine
 10
234.544
 20
404.565
 30
11.9
 11
234.371
 21
404.162
 31
11.9
  0
LINE
  5
B8A
330
A02
100
AcDbEntity
  8
Mesh_cs
100
AcDbLine
 10
234.371
 20
404.162
 30
11.9
 11
232.788
 21
400.551
 31
11.9
  0
LINE
  5
B8B
330
A02
100
AcDbEntity
  8
Mesh_cs
100
AcDbLine
 10
232.788
 20
400.551
 30
11.9
 11
232.612
 21
400.149
 31
11.9
  0
LINE
  5
B8C
330
A02
100
AcDbEntity
  8
Mesh_cs
100
AcDbLine
 10
232.612
 20
400.149
 30
11.9
 11
230.996
 21
396.552
 31
11.9
  0
LINE
  5
B8D
330
A02
100
AcDbEntity
  8
Mesh_cs
100
AcDbLine
 10
230.996
 20
396.552
 30
11.9
 11
230.816
 21
396.152
 31
11.9
  0
LINE
  5
B8E
330
A02
100
AcDbEntity
  8
Mesh_cs
100
AcDbLine
 10
230.816
 20
396.152
 30
11.9
 11
229.169
 21
392.57
 31
11.9
  0
LINE
  5
B8F
330
A02
100
AcDbEntity
  8
Mesh_cs
100
AcDbLine
 10
229.169
 20
392.57
 30
11.9
 11
228.986
 21
392.172
 31
11.9
  0
LINE
  5
B90
330
A02
100
AcDbEntity
  8
Mesh_cs
100
AcDbLine
 10
228.986
 20
392.172
 30
11.9
 11
227.306
 21
388.604
 31
11.9
  0
LINE
  5
B91
330
A02
100
AcDbEntity
  8
Mesh_cs
100
AcDbLine
 10
227.306
 20
388.604
 30
11.9
 11
227.12
 21
388.207
 31
11.9
  0
LINE
  5
B92
330
A02
100
AcDbEntity
  8
Mesh_cs
100
AcDbLine
 10
227.12
 20
388.207
 30
11.9
 11
225.409
 21
384.654
 31
11.9
  0
LINE
  5
B93
330
A02
100
AcDbEntity
  8
Mesh_cs
100
AcDbLine
 10
225.409
 20
384.654
 30
11.9
 11
225.219
 21
384.26
 31
11.9
  0
LINE
  5
B94
330
A02
100
AcDbEntity
  8
Mesh_cs
100
AcDbLine
 10
225.219
 20
384.26
 30
11.9
 11
223.476
 21
380.722
 31
11.9
  0
LINE
  5
B95
330
A02
100
AcDbEntity
  8
Mesh_cs
100
AcDbLine
 10
223.476
 20
380.722
 30
11.9
 11
223.282
 21
380.329
 31
11.9
  0
LINE
  5
B96
330
A02
100
AcDbEntity
  8
Mesh_cs
100
AcDbLine
 10
223.282
 20
380.329
 30
11.9
 11
221.509
 21
376.807
 31
11.9
  0
LINE
  5
B97
330
A02
100
AcDbEntity
  8
Mesh_cs
100
AcDbLine
 10
221.509
 20
376.807
 30
11.9
 11
221.311
 21
376.416
 31
11.9
  0
LINE
  5
B98
330
A02
100
AcDbEntity
  8
Mesh_cs
100
AcDbLine
 10
221.311
 20
376.416
 30
11.9
 11
219.506
 21
372.91
 31
11.9
  0
LINE
  5
B99
330
A02
100
AcDbEntity
  8
Mesh_cs
100
AcDbLine
 10
219.506
 20
372.91
 30
11.9
 11
219.306
 21
372.52
 31
11.9
  0
LINE
  5
B9A
330
A02
100
AcDbEntity
  8
Mesh_cs
100
AcDbLine
 10
219.306
 20
372.52
 30
11.9
 11
217.47
 21
369.03
 31
11.9
  0
LINE
  5
B9B
330
A02
100
AcDbEntity
  8
Mesh_cs
100
AcDbLine
 10
217.47
 20
369.03
 30
11.9
 11
217.266
 21
368.643
 31
11.9
  0
LINE
  5
B9C
330
A02
100
AcDbEntity
  8
Mesh_cs
100
AcDbLine
 10
217.266
 20
368.643
 30
11.9
 11
215.398
 21
365.169
 31
11.9
  0
LINE
  5
B9D
330
A02
100
AcDbEntity
  8
Mesh_cs
100
AcDbLine
 10
215.398
 20
365.169
 30
11.9
 11
215.191
 21
364.783
 31
11.9
  0
LINE
  5
B9E
330
A02
100
AcDbEntity
  8
Mesh_cs
100
AcDbLine
 10
215.191
 20
364.783
 30
11.9
 11
213.293
 21
361.327
 31
11.9
  0
LINE
  5
B9F
330
A02
100
AcDbEntity
  8
Mesh_cs
100
AcDbLine
 10
213.293
 20
361.327
 30
11.9
 11
213.082
 21
360.943
 31
11.9
  0
LINE
  5
BA0
330
A02
100
AcDbEntity
  8
Mesh_cs
100
AcDbLine
 10
213.082
 20
360.943
 30
11.9
 11
211.153
 21
357.503
 31
11.9
  0
LINE
  5
BA1
330
A02
100
AcDbEntity
  8
Mesh_cs
100
AcDbLine
 10
211.153
 20
357.503
 30
11.9
 11
210.939
 21
357.121
 31
11.9
  0
LINE
  5
BA2
330
A02
100
AcDbEntity
  8
Mesh_cs
100
AcDbLine
 10
210.939
 20
357.121
 30
11.9
 11
208.98
 21
353.698
 31
11.9
  0
LINE
  5
BA3
330
A02
100
AcDbEntity
  8
Mesh_cs
100
AcDbLine
 10
208.98
 20
353.698
 30
11.9
 11
208.762
 21
353.318
 31
11.9
  0
LINE
  5
BA4
330
A02
100
AcDbEntity
  8
Mesh_cs
100
AcDbLine
 10
208.762
 20
353.318
 30
11.9
 11
206.773
 21
349.913
 31
11.9
  0
LINE
  5
BA5
330
A02
100
AcDbEntity
  8
Mesh_cs
100
AcDbLine
 10
206.773
 20
349.913
 30
11.9
 11
206.552
 21
349.535
 31
11.9
  0
LINE
  5
BA6
330
A02
100
AcDbEntity
  8
Mesh_cs
100
AcDbLine
 10
206.552
 20
349.535
 30
11.9
 11
204.532
 21
346.148
 31
11.9
  0
LINE
  5
BA7
330
A02
100
AcDbEntity
  8
Mesh_cs
100
AcDbLine
 10
204.532
 20
346.148
 30
11.9
 11
204.308
 21
345.772
 31
11.9
  0
LINE
  5
BA8
330
A02
100
AcDbEntity
  8
Mesh_cs
100
AcDbLine
 10
204.308
 20
345.772
 30
11.9
 11
202.258
 21
342.403
 31
11.9
  0
LINE
  5
BA9
330
A02
100
AcDbEntity
  8
Mesh_cs
100
AcDbLine
 10
202.258
 20
342.403
 30
11.9
 11
202.03
 21
342.028
 31
11.9
  0
LINE
  5
BAA
330
A02
100
AcDbEntity
  8
Mesh_cs
100
AcDbLine
 10
202.03
 20
342.028
 30
11.9
 11
199.951
 21
338.678
 31
11.9
  0
LINE
  5
BAB
330
A02
100
AcDbEntity
  8
Mesh_cs
100
AcDbLine
 10
199.951
 20
338.678
 30
11.9
 11
199.72
 21
338.306
 31
11.9
  0
LINE
  5
BAC
330
A02
100
AcDbEntity
  8
Mesh_cs
100
AcDbLine
 10
199.72
 20
338.306
 30
11.9
 11
197.611
 21
334.974
 31
11.9
  0
LINE
  5
BAD
330
A02
100
AcDbEntity
  8
Mesh_cs
100
AcDbLine
 10
197.611
 20
334.974
 30
11.9
 11
197.376
 21
334.603
 31
11.9
  0
LINE
  5
BAE
330
A02
100
AcDbEntity
  8
Mesh_cs
100
AcDbLine
 10
197.376
 20
334.603
 30
11.9
 11
195.238
 21
331.29
 31
11.9
  0
LINE
  5
BAF
330
A02
100
AcDbEntity
  8
Mesh_cs
100
AcDbLine
 10
195.238
 20
331.29
 30
11.9
 11
195
 21
330.922
 31
11.9
  0
LINE
  5
BB0
330
A02
100
AcDbEntity
  8
Mesh_cs
100
AcDbLine
 10
195
 20
330.922
 30
11.9
 11
195
 21
550.816
 31
11.9
  0
LINE
  5
BB1
330
A02
100
AcDbEntity
  8
Mesh_cs
100
AcDbLine
 10
195
 20
550.816
 30
11.9
 11
195
 21
575.248
 31
11.9
  0
LINE
  5
BB2
330
A02
100
AcDbEntity
  8
Mesh_cs
100
AcDbLine
 10
195
 20
575.248
 30
11.9
 11
214.237
 21
575.248
 31
11.9
  0
LINE
  5
BB3
330
A02
100
AcDbEntity
  8
Mesh_cs
100
AcDbLine
 10
214.237
 20
575.248
 30
11.9
 11
214.9
 21
575.248
 31
11.9
  0
LINE
  5
BB4
330
A02
100
AcDbEntity
  8
Mesh_cs
100
AcDbLine
 10
214.9
 20
575.248
 30
11.9
 11
214.911
 21
575.249
 31
11.9
  0
LINE
  5
BB5
330
A02
100
AcDbEntity
  8
Mesh_cs
100
AcDbLine
 10
214.911
 20
575.249
 30
11.9
 11
215.3
 21
575.264
 31
11.9
  0
LINE
  5
BB6
330
A02
100
AcDbEntity
  8
Mesh_cs
100
AcDbLine
 10
215.3
 20
575.264
 30
11.9
 11
215.311
 21
575.266
 31
11.9
  0
LINE
  5
BB7
330
A02
100
AcDbEntity
  8
Mesh_cs
100
AcDbLine
 10
215.311
 20
575.266
 30
11.9
 11
215.698
 21
575.312
 31
11.9
  0
LINE
  5
BB8
330
A02
100
AcDbEntity
  8
Mesh_cs
100
AcDbLine
 10
215.698
 20
575.312
 30
11.9
 11
215.713
 21
575.315
 31
11.9
  0
LINE
  5
BB9
330
A02
100
AcDbEntity
  8
Mesh_cs
100
AcDbLine
 10
215.713
 20
575.315
 30
11.9
 11
216.06
 21
575.385
 31
11.9
  0
LINE
  5
BBA
330
A02
100
AcDbEntity
  8
Mesh_cs
100
AcDbLine
 10
216.06
 20
575.385
 30
11.9
 11
216.074
 21
575.389
 31
11.9
  0
LINE
  5
BBB
330
A02
100
AcDbEntity
  8
Mesh_cs
100
AcDbLine
 10
216.074
 20
575.389
 30
11.9
 11
216.449
 21
575.494
 31
11.9
  0
LINE
  5
BBC
330
A02
100
AcDbEntity
  8
Mesh_cs
100
AcDbLine
 10
216.449
 20
575.494
 30
11.9
 11
216.813
 21
575.63
 31
11.9
  0
LINE
  5
BBD
330
A02
100
AcDbEntity
  8
Mesh_cs
100
AcDbLine
 10
216.813
 20
575.63
 30
11.9
 11
216.827
 21
575.635
 31
11.9
  0
LINE
  5
BBE
330
A02
100
AcDbEntity
  8
Mesh_cs
100
AcDbLine
 10
216.827
 20
575.635
 30
11.9
 11
217.18
 21
575.799
 31
11.9
  0
LINE
  5
BBF
330
A02
100
AcDbEntity
  8
Mesh_cs
100
AcDbLine
 10
217.18
 20
575.799
 30
11.9
 11
217.193
 21
575.805
 31
11.9
  0
LINE
  5
BC0
330
A02
100
AcDbEntity
  8
Mesh_cs
100
AcDbLine
 10
217.193
 20
575.805
 30
11.9
 11
217.532
 21
575.997
 31
11.9
  0
LINE
  5
BC1
330
A02
100
AcDbEntity
  8
Mesh_cs
100
AcDbLine
 10
217.532
 20
575.997
 30
11.9
 11
217.544
 21
576.005
 31
11.9
  0
LINE
  5
BC2
330
A02
100
AcDbEntity
  8
Mesh_cs
100
AcDbLine
 10
217.544
 20
576.005
 30
11.9
 11
217.866
 21
576.224
 31
11.9
  0
LINE
  5
BC3
330
A02
100
AcDbEntity
  8
Mesh_cs
100
AcDbLine
 10
217.866
 20
576.224
 30
11.9
 11
217.878
 21
576.232
 31
11.9
  0
LINE
  5
BC4
330
A02
100
AcDbEntity
  8
Mesh_cs
100
AcDbLine
 10
217.878
 20
576.232
 30
11.9
 11
218.181
 21
576.476
 31
11.9
  0
LINE
  5
BC5
330
A02
100
AcDbEntity
  8
Mesh_cs
100
AcDbLine
 10
218.181
 20
576.476
 30
11.9
 11
218.193
 21
576.486
 31
11.9
  0
LINE
  5
BC6
330
A02
100
AcDbEntity
  8
Mesh_cs
100
AcDbLine
 10
218.193
 20
576.486
 30
11.9
 11
218.505
 21
576.784
 31
11.9
  0
LINE
  5
BC7
330
A02
100
AcDbEntity
  8
Mesh_cs
100
AcDbLine
 10
218.505
 20
576.784
 30
11.9
 11
218.515
 21
576.794
 31
11.9
  0
LINE
  5
BC8
330
A02
100
AcDbEntity
  8
Mesh_cs
100
AcDbLine
 10
218.515
 20
576.794
 30
11.9
 11
218.799
 21
577.119
 31
11.9
  0
LINE
  5
BC9
330
A02
100
AcDbEntity
  8
Mesh_cs
100
AcDbLine
 10
218.799
 20
577.119
 30
11.9
 11
218.808
 21
577.129
 31
11.9
  0
LINE
  5
BCA
330
A02
100
AcDbEntity
  8
Mesh_cs
100
AcDbLine
 10
218.808
 20
577.129
 30
11.9
 11
219.062
 21
577.478
 31
11.9
  0
LINE
  5
BCB
330
A02
100
AcDbEntity
  8
Mesh_cs
100
AcDbLine
 10
219.062
 20
577.478
 30
11.9
 11
219.07
 21
577.489
 31
11.9
  0
LINE
  5
BCC
330
A02
100
AcDbEntity
  8
Mesh_cs
100
AcDbLine
 10
219.07
 20
577.489
 30
11.9
 11
219.292
 21
577.86
 31
11.9
  0
LINE
  5
BCD
330
A02
100
AcDbEntity
  8
Mesh_cs
100
AcDbLine
 10
219.292
 20
577.86
 30
11.9
 11
219.299
 21
577.872
 31
11.9
  0
LINE
  5
BCE
330
A02
100
AcDbEntity
  8
Mesh_cs
100
AcDbLine
 10
219.299
 20
577.872
 30
11.9
 11
219.305
 21
577.884
 31
11.9
  0
LINE
  5
BCF
330
A02
100
AcDbEntity
  8
Mesh_cs
100
AcDbLine
 10
219.305
 20
577.884
 30
11.9
 11
219.493
 21
578.273
 31
11.9
  0
LINE
  5
BD0
330
A02
100
AcDbEntity
  8
Mesh_cs
100
AcDbLine
 10
219.493
 20
578.273
 30
11.9
 11
219.498
 21
578.285
 31
11.9
  0
LINE
  5
BD1
330
A02
100
AcDbEntity
  8
Mesh_cs
100
AcDbLine
 10
219.498
 20
578.285
 30
11.9
 11
219.651
 21
578.689
 31
11.9
  0
LINE
  5
BD2
330
A02
100
AcDbEntity
  8
Mesh_cs
100
AcDbLine
 10
219.651
 20
578.689
 30
11.9
 11
219.655
 21
578.702
 31
11.9
  0
LINE
  5
BD3
330
A02
100
AcDbEntity
  8
Mesh_cs
100
AcDbLine
 10
219.655
 20
578.702
 30
11.9
 11
219.771
 21
579.119
 31
11.9
  0
LINE
  5
BD4
330
A02
100
AcDbEntity
  8
Mesh_cs
100
AcDbLine
 10
219.771
 20
579.119
 30
11.9
 11
219.773
 21
579.132
 31
11.9
  0
LINE
  5
BD5
330
A02
100
AcDbEntity
  8
Mesh_cs
100
AcDbLine
 10
219.773
 20
579.132
 30
11.9
 11
219.852
 21
579.557
 31
11.9
  0
LINE
  5
BD6
330
A02
100
AcDbEntity
  8
Mesh_cs
100
AcDbLine
 10
219.852
 20
579.557
 30
11.9
 11
219.854
 21
579.57
 31
11.9
  0
LINE
  5
BD7
330
A02
100
AcDbEntity
  8
Mesh_cs
100
AcDbLine
 10
219.854
 20
579.57
 30
11.9
 11
219.888
 21
579.902
 31
11.9
  0
LINE
  5
BD8
330
A02
100
AcDbEntity
  8
Mesh_cs
100
AcDbLine
 10
219.888
 20
579.902
 30
11.9
 11
219.889
 21
579.916
 31
11.9
  0
LINE
  5
BD9
330
A02
100
AcDbEntity
  8
Mesh_cs
100
AcDbLine
 10
219.889
 20
579.916
 30
11.9
 11
219.9
 21
580.248
 31
11.9
  0
LINE
  5
BDA
330
A02
100
AcDbEntity
  8
Mesh_cs
100
AcDbLine
 10
219.9
 20
580.248
 30
11.9
 11
219.9
 21
599.485
 31
11.9
  0
LINE
  5
BDB
330
A02
100
AcDbEntity
  8
Mesh_cs
100
AcDbLine
 10
219.9
 20
599.485
 30
11.9
 11
219.9
 21
600.148
 31
11.9
  0
LINE
  5
BDC
330
A02
100
AcDbEntity
  8
Mesh_cs
100
AcDbLine
 10
219.9
 20
600.148
 30
11.9
 11
225.41
 21
600.148
 31
11.9
  0
LINE
  5
BDD
330
A02
100
AcDbEntity
  8
Mesh_cs
100
AcDbLine
 10
225.41
 20
600.148
 30
11.9
 11
275
 21
600.148
 31
11.9
  0
LINE
  5
BDE
330
A02
100
AcDbEntity
  8
Mesh_cs
100
AcDbLine
 10
275
 20
600.148
 30
11.9
 11
274.998
 21
599.71
 31
11.9
  0
LINE
  5
BDF
330
A02
100
AcDbEntity
  8
Mesh_cs
100
AcDbLine
 10
274.998
 20
599.71
 30
11.9
 11
274.981
 21
595.767
 31
11.9
  0
LINE
  5
BE0
330
A02
100
AcDbEntity
  8
Mesh_cs
100
AcDbLine
 10
274.981
 20
595.767
 30
11.9
 11
274.975
 21
595.329
 31
11.9
  0
LINE
  5
BE1
330
A02
100
AcDbEntity
  8
Mesh_cs
100
AcDbLine
 10
274.975
 20
595.329
 30
11.9
 11
274.922
 21
591.386
 31
11.9
  0
LINE
  5
BE2
330
A02
100
AcDbEntity
  8
Mesh_cs
100
AcDbLine
 10
274.922
 20
591.386
 30
11.9
 11
274.912
 21
590.948
 31
11.9
  0
LINE
  5
BE3
330
A02
100
AcDbEntity
  8
Mesh_cs
100
AcDbLine
 10
274.912
 20
590.948
 30
11.9
 11
274.825
 21
587.005
 31
11.9
  0
LINE
  5
BE4
330
A02
100
AcDbEntity
  8
Mesh_cs
100
AcDbLine
 10
274.825
 20
587.005
 30
11.9
 11
274.811
 21
586.567
 31
11.9
  0
LINE
  5
BE5
330
A02
100
AcDbEntity
  8
Mesh_cs
100
AcDbLine
 10
274.811
 20
586.567
 30
11.9
 11
274.689
 21
582.626
 31
11.9
  0
LINE
  5
BE6
330
A02
100
AcDbEntity
  8
Mesh_cs
100
AcDbLine
 10
274.689
 20
582.626
 30
11.9
 11
274.671
 21
582.188
 31
11.9
  0
LINE
  5
BE7
330
A02
100
AcDbEntity
  8
Mesh_cs
100
AcDbLine
 10
274.671
 20
582.188
 30
11.9
 11
274.513
 21
578.247
 31
11.9
  0
LINE
  5
BE8
330
A02
100
AcDbEntity
  8
Mesh_cs
100
AcDbLine
 10
274.513
 20
578.247
 30
11.9
 11
274.492
 21
577.81
 31
11.9
  0
LINE
  5
BE9
330
A02
100
AcDbEntity
  8
Mesh_cs
100
AcDbLine
 10
274.492
 20
577.81
 30
11.9
 11
274.299
 21
573.871
 31
11.9
  0
LINE
  5
BEA
330
A02
100
AcDbEntity
  8
Mesh_cs
100
AcDbLine
 10
274.299
 20
573.871
 30
11.9
 11
274.274
 21
573.434
 31
11.9
  0
LINE
  5
BEB
330
A02
100
AcDbEntity
  8
Mesh_cs
100
AcDbLine
 10
274.274
 20
573.434
 30
11.9
 11
274.046
 21
569.497
 31
11.9
  0
LINE
  5
BEC
330
A02
100
AcDbEntity
  8
Mesh_cs
100
AcDbLine
 10
274.046
 20
569.497
 30
11.9
 11
274.017
 21
569.06
 31
11.9
  0
LINE
  5
BED
330
A02
100
AcDbEntity
  8
Mesh_cs
100
AcDbLine
 10
274.017
 20
569.06
 30
11.9
 11
273.754
 21
565.125
 31
11.9
  0
LINE
  5
BEE
330
A02
100
AcDbEntity
  8
Mesh_cs
100
AcDbLine
 10
273.754
 20
565.125
 30
11.9
 11
273.721
 21
564.688
 31
11.9
  0
LINE
  5
BEF
330
A02
100
AcDbEntity
  8
Mesh_cs
100
AcDbLine
 10
273.721
 20
564.688
 30
11.9
 11
273.424
 21
560.756
 31
11.9
  0
LINE
  5
BF0
330
A02
100
AcDbEntity
  8
Mesh_cs
100
AcDbLine
 10
273.424
 20
560.756
 30
11.9
 11
273.387
 21
560.319
 31
11.9
  0
LINE
  5
BF1
330
A02
100
AcDbEntity
  8
Mesh_cs
100
AcDbLine
 10
273.387
 20
560.319
 30
11.9
 11
273.054
 21
556.39
 31
11.9
  0
LINE
  5
BF2
330
A02
100
AcDbEntity
  8
Mesh_cs
100
AcDbLine
 10
273.054
 20
556.39
 30
11.9
 11
272.687
 21
552.464
 31
11.9
  0
LINE
  5
BF3
330
A02
100
AcDbEntity
  8
Mesh_cs
100
AcDbLine
 10
272.687
 20
552.464
 30
11.9
 11
272.646
 21
552.027
 31
11.9
  0
LINE
  5
BF4
330
A02
100
AcDbEntity
  8
Mesh_cs
100
AcDbLine
 10
272.646
 20
552.027
 30
11.9
 11
272.601
 21
551.591
 31
11.9
  0
LINE
  5
BF5
330
A02
100
AcDbEntity
  8
Mesh_cs
100
AcDbLine
 10
272.601
 20
551.591
 30
11.9
 11
272.199
 21
547.669
 31
11.9
  0
LINE
  5
BF6
330
A02
100
AcDbEntity
  8
Mesh_cs
100
AcDbLine
 10
272.199
 20
547.669
 30
11.9
 11
271.762
 21
543.75
 31
11.9
  0
LINE
  5
BF7
330
A02
100
AcDbEntity
  8
Mesh_cs
100
AcDbLine
 10
271.762
 20
543.75
 30
11.9
 11
271.713
 21
543.314
 31
11.9
  0
LINE
  5
BF8
330
A02
100
AcDbEntity
  8
Mesh_cs
100
AcDbLine
 10
271.713
 20
543.314
 30
11.9
 11
271.241
 21
539.399
 31
11.9
  0
LINE
  5
BF9
330
A02
100
AcDbEntity
  8
Mesh_cs
100
AcDbLine
 10
271.241
 20
539.399
 30
11.9
 11
271.189
 21
538.964
 31
11.9
  0
LINE
  5
BFA
330
A02
100
AcDbEntity
  8
Mesh_cs
100
AcDbLine
 10
271.189
 20
538.964
 30
11.9
 11
270.682
 21
535.053
 31
11.9
  0
LINE
  5
BFB
330
A02
100
AcDbEntity
  8
Mesh_cs
100
AcDbLine
 10
270.682
 20
535.053
 30
11.9
 11
270.626
 21
534.619
 31
11.9
  0
LINE
  5
BFC
330
A02
100
AcDbEntity
  8
Mesh_cs
100
AcDbLine
 10
270.626
 20
534.619
 30
11.9
 11
270.084
 21
530.713
 31
11.9
  0
LINE
  5
BFD
330
A02
100
AcDbEntity
  8
Mesh_cs
100
AcDbLine
 10
270.084
 20
530.713
 30
11.9
 11
270.024
 21
530.279
 31
11.9
  0
LINE
  5
BFE
330
A02
100
AcDbEntity
  8
Mesh_cs
100
AcDbLine
 10
270.024
 20
530.279
 30
11.9
 11
269.448
 21
526.378
 31
11.9
  0
LINE
  5
BFF
330
A02
100
AcDbEntity
  8
Mesh_cs
100
AcDbLine
 10
269.448
 20
526.378
 30
11.9
 11
269.384
 21
525.944
 31
11.9
  0
LINE
  5
C00
330
A02
100
AcDbEntity
  8
Mesh_cs
100
AcDbLine
 10
269.384
 20
525.944
 30
11.9
 11
268.773
 21
522.048
 31
11.9
  0
LINE
  5
C01
330
A02
100
AcDbEntity
  8
Mesh_cs
100
AcDbLine
 10
268.773
 20
522.048
 30
11.9
 11
268.705
 21
521.615
 31
11.9
  0
LINE
  5
C02
330
A02
100
AcDbEntity
  8
Mesh_cs
100
AcDbLine
 10
268.705
 20
521.615
 30
11.9
 11
268.06
 21
517.725
 31
11.9
  0
LINE
  5
C03
330
A02
100
AcDbEntity
  8
Mesh_cs
100
AcDbLine
 10
268.06
 20
517.725
 30
11.9
 11
267.988
 21
517.293
 31
11.9
  0
LINE
  5
C04
330
A02
100
AcDbEntity
  8
Mesh_cs
100
AcDbLine
 10
267.988
 20
517.293
 30
11.9
 11
267.308
 21
513.409
 31
11.9
  0
LINE
  5
C05
330
A02
100
AcDbEntity
  8
Mesh_cs
100
AcDbLine
 10
267.308
 20
513.409
 30
11.9
 11
267.232
 21
512.977
 31
11.9
  0
LINE
  5
C06
330
A02
100
AcDbEntity
  8
Mesh_cs
100
AcDbLine
 10
267.232
 20
512.977
 30
11.9
 11
266.518
 21
509.099
 31
11.9
  0
LINE
  5
C07
330
A02
100
AcDbEntity
  8
Mesh_cs
100
AcDbLine
 10
266.518
 20
509.099
 30
11.9
 11
266.438
 21
508.668
 31
11.9
  0
LINE
  5
C08
330
A02
100
AcDbEntity
  8
Mesh_cs
100
AcDbLine
 10
266.438
 20
508.668
 30
11.9
 11
265.69
 21
504.796
 31
11.9
  0
LINE
  5
C09
330
A02
100
AcDbEntity
  8
Mesh_cs
100
AcDbLine
 10
265.69
 20
504.796
 30
11.9
 11
265.606
 21
504.366
 31
11.9
  0
LINE
  5
C0A
330
A02
100
AcDbEntity
  8
Mesh_cs
100
AcDbLine
 10
265.606
 20
504.366
 30
11.9
 11
264.823
 21
500.501
 31
11.9
  0
LINE
  5
C0B
330
A02
100
AcDbEntity
  8
Mesh_cs
100
AcDbLine
 10
264.823
 20
500.501
 30
11.9
 11
264.736
 21
500.072
 31
11.9
  0
LINE
  5
C0C
330
A02
100
AcDbEntity
  8
Mesh_cs
100
AcDbLine
 10
264.736
 20
500.072
 30
11.9
 11
263.918
 21
496.214
 31
11.9
  0
LINE
  5
C0D
330
A02
100
AcDbEntity
  8
Mesh_cs
100
AcDbLine
 10
263.918
 20
496.214
 30
11.9
 11
263.828
 21
495.785
 31
11.9
  0
LINE
  5
C0E
330
A02
100
AcDbEntity
  8
Mesh_cs
100
AcDbLine
 10
263.828
 20
495.785
 30
11.9
 11
262.976
 21
491.935
 31
11.9
  0
LINE
  5
C0F
330
A02
100
AcDbEntity
  8
Mesh_cs
100
AcDbLine
 10
262.976
 20
491.935
 30
11.9
 11
262.881
 21
491.507
 31
11.9
  0
LINE
  5
C10
330
A02
100
AcDbEntity
  8
Mesh_cs
100
AcDbLine
 10
262.881
 20
491.507
 30
11.9
 11
261.995
 21
487.665
 31
11.9
  0
LINE
  5
C11
330
A02
100
AcDbEntity
  8
Mesh_cs
100
AcDbLine
 10
261.995
 20
487.665
 30
11.9
 11
261.896
 21
487.238
 31
11.9
  0
LINE
  5
C12
330
A02
100
AcDbEntity
  8
Mesh_cs
100
AcDbLine
 10
261.896
 20
487.238
 30
11.9
 11
260.976
 21
483.403
 31
11.9
  0
LINE
  5
C13
330
A02
100
AcDbEntity
  8
Mesh_cs
100
AcDbLine
 10
260.976
 20
483.403
 30
11.9
 11
260.874
 21
482.977
 31
11.9
  0
LINE
  5
C14
330
A02
100
AcDbEntity
  8
Mesh_cs
100
AcDbLine
 10
260.874
 20
482.977
 30
11.9
 11
259.92
 21
479.151
 31
11.9
  0
LINE
  5
C15
330
A02
100
AcDbEntity
  8
Mesh_cs
100
AcDbLine
 10
259.92
 20
479.151
 30
11.9
 11
259.814
 21
478.726
 31
11.9
  0
LINE
  5
C16
330
A02
100
AcDbEntity
  8
Mesh_cs
100
AcDbLine
 10
259.814
 20
478.726
 30
11.9
 11
258.826
 21
474.908
 31
11.9
  0
LINE
  5
C17
330
A02
100
AcDbEntity
  8
Mesh_cs
100
AcDbLine
 10
258.826
 20
474.908
 30
11.9
 11
258.716
 21
474.484
 31
11.9
  0
LINE
  5
C18
330
A02
100
AcDbEntity
  8
Mesh_cs
100
AcDbLine
 10
258.716
 20
474.484
 30
11.9
 11
257.694
 21
470.675
 31
11.9
  0
LINE
  5
C19
330
A02
100
AcDbEntity
  8
Mesh_cs
100
AcDbLine
 10
257.694
 20
470.675
 30
11.9
 11
257.58
 21
470.252
 31
11.9
  0
LINE
  5
C1A
330
A02
100
AcDbEntity
  8
Mesh_cs
100
AcDbLine
 10
257.58
 20
470.252
 30
11.9
 11
256.524
 21
466.453
 31
11.9
  0
LINE
  5
C1B
330
A02
100
AcDbEntity
  8
Mesh_cs
100
AcDbLine
 10
256.524
 20
466.453
 30
11.9
 11
256.407
 21
466.03
 31
11.9
  0
LINE
  5
C1C
330
A02
100
AcDbEntity
  8
Mesh_cs
100
AcDbLine
 10
256.407
 20
466.03
 30
11.9
 11
255.317
 21
462.241
 31
11.9
  0
LINE
  5
C1D
330
A02
100
AcDbEntity
  8
Mesh_cs
100
AcDbLine
 10
255.317
 20
462.241
 30
11.9
 11
255.196
 21
461.819
 31
11.9
  0
LINE
  5
C1E
330
A02
100
AcDbEntity
  8
Mesh_cs
100
AcDbLine
 10
255.196
 20
461.819
 30
11.9
 11
254.073
 21
458.039
 31
11.9
  0
LINE
  5
C1F
330
A02
100
AcDbEntity
  8
Mesh_cs
100
AcDbLine
 10
254.073
 20
458.039
 30
11.9
 11
253.948
 21
457.619
 31
11.9
  0
LINE
  5
C20
330
A02
100
AcDbEntity
  8
Mesh_cs
100
AcDbLine
 10
253.948
 20
457.619
 30
11.9
 11
252.792
 21
453.849
 31
11.9
  0
LINE
  5
C21
330
A02
100
AcDbEntity
  8
Mesh_cs
100
AcDbLine
 10
252.792
 20
453.849
 30
11.9
 11
252.663
 21
453.431
 31
11.9
  0
LINE
  5
C22
330
A02
100
AcDbEntity
  8
Mesh_cs
100
AcDbLine
 10
252.663
 20
453.431
 30
11.9
 11
251.473
 21
449.671
 31
11.9
  0
LINE
  5
C23
330
A02
100
AcDbEntity
  8
Mesh_cs
100
AcDbLine
 10
251.473
 20
449.671
 30
11.9
 11
251.34
 21
449.253
 31
11.9
  0
LINE
  5
C24
330
A02
100
AcDbEntity
  8
Mesh_cs
100
AcDbLine
 10
251.34
 20
449.253
 30
11.9
 11
250.117
 21
445.505
 31
11.9
  0
LINE
  5
C25
330
A02
100
AcDbEntity
  8
Mesh_cs
100
AcDbLine
 10
250.117
 20
445.505
 30
11.9
 11
249.981
 21
445.088
 31
11.9
  0
LINE
  5
C26
330
A02
100
AcDbEntity
  8
Mesh_cs
100
AcDbLine
 10
249.981
 20
445.088
 30
11.9
 11
248.724
 21
441.35
 31
11.9
  0
LINE
  5
C27
330
A02
100
AcDbEntity
  8
Mesh_cs
100
AcDbLine
 10
248.724
 20
441.35
 30
11.9
 11
248.584
 21
440.935
 31
11.9
  0
LINE
  5
C28
330
A02
100
AcDbEntity
  8
Mesh_cs
100
AcDbLine
 10
248.584
 20
440.935
 30
11.9
 11
247.294
 21
437.208
 31
11.9
  0
LINE
  5
C29
330
A02
100
AcDbEntity
  8
Mesh_cs
100
AcDbLine
 10
247.294
 20
437.208
 30
11.9
 11
247.151
 21
436.794
 31
11.9
  0
LINE
  5
C2A
330
A02
100
AcDbEntity
  8
Mesh_cs
100
AcDbLine
 10
247.151
 20
436.794
 30
11.9
 11
245.828
 21
433.08
 31
11.9
  0
LINE
  5
C2B
330
A02
100
AcDbEntity
  8
Mesh_cs
100
AcDbLine
 10
245.828
 20
433.08
 30
11.9
 11
245.681
 21
432.667
 31
11.9
  0
LINE
  5
C2C
330
A02
100
AcDbEntity
  8
Mesh_cs
100
AcDbLine
 10
245.681
 20
432.667
 30
11.9
 11
244.325
 21
428.964
 31
11.9
  0
LINE
  5
C2D
330
A02
100
AcDbEntity
  8
Mesh_cs
100
AcDbLine
 10
244.325
 20
428.964
 30
11.9
 11
244.174
 21
428.552
 31
11.9
  0
LINE
  5
C2E
330
A02
100
AcDbEntity
  8
Mesh_cs
100
AcDbLine
 10
244.174
 20
428.552
 30
11.9
 11
242.785
 21
424.862
 31
11.9
  0
LINE
  5
C2F
330
A02
100
AcDbEntity
  8
Mesh_cs
100
AcDbLine
 10
242.785
 20
424.862
 30
11.9
 11
242.631
 21
424.452
 31
11.9
  0
LINE
  5
C30
330
A02
100
AcDbEntity
  8
Mesh_cs
100
AcDbLine
 10
242.631
 20
424.452
 30
11.9
 11
241.209
 21
420.773
 31
11.9
  0
LINE
  5
C31
330
A02
100
AcDbEntity
  8
Mesh_cs
100
AcDbLine
 10
241.209
 20
420.773
 30
11.9
 11
241.051
 21
420.365
 31
11.9
  0
LINE
  5
C32
330
A02
100
AcDbEntity
  8
Mesh_cs
100
AcDbLine
 10
241.051
 20
420.365
 30
11.9
 11
239.597
 21
416.699
 31
11.9
  0
LINE
  5
C33
330
A02
100
AcDbEntity
  8
Mesh_cs
100
AcDbLine
 10
239.597
 20
416.699
 30
11.9
 11
239.435
 21
416.292
 31
11.9
  0
ENDSEC
  0
SECTION
  2
OBJECTS
  0
DICTIONARY
  5
F000
330
0
100
AcDbDictionary
  3
ACAD_GROUP
350
F001
  0
DICTIONARY
  5
F001
330
F000
100
AcDbDictionary
  0
ENDSEC
  0
EOF