999
FreeCAD v0.21 33771 (Git)
  0
SECTION
  2
HEADER
  9
$ACADVER
  1
AC1014
  9
$ACADMAINTVER
 70
     9
  9
$DWGCODEPAGE
  3
ANSI_1252
  9
$TEXTSTYLE
  7
STANDARD
  9
$DIMSTYLE
  2
STANDARD
  9
$DIMTXSTY
  7
STANDARD
  9
$CMLSTYLE
  2
STANDARD
  9
$LUNITS
 70
2
  9
$INSUNITS
 70
4
  9
$PEXTMAX
 10
50
 20
50
 30
50
  9
$PEXTMIN
 10
0
 20
0
 30
0
  9
$HANDSEED
  5
FFFF
  0
ENDSEC
  0
SECTION
  2
CLASSES
  0
CLASS
  1
ACDBDICTIONARYWDFLT
  2
AcDbDictionaryWithDefault
  3
ObjectDBX Classes
 90
        0
280
     0
281
     0
  0
CLASS
  1
XRECORD
  2
AcDbXrecord
  3
ObjectDBX Classes
 90
        0
280
     0
281
     0
  0
CLASS
  1
LWPOLYLINE
  2
AcDbPolyline
  3
ObjectDBX Classes
 90
        0
280
     0
281
     1
  0
ENDSEC
  0
SECTION
  2
TABLES
  0
TABLE
  2
VPORT
  5
20
330
0
100
AcDbSymbolTable
 70
     1
  0
VPORT
  5
21
330
20
100
AcDbSymbolTableRecord
100
AcDbViewportTableRecord
  2
*ACTIVE
 70
     0
  0
ENDTAB
  0
TABLE
  2
LTYPE
  5
22
330
0
100
AcDbSymbolTable
 70
     1
  0
LTYPE
  5
23
330
21
100
AcDbSymbolTableRecord
100
AcDbLinetypeTableRecord
  2
BYBLOCK
 70
     0
  3

 72
    65
 73
     0
 40
0.0
  0
LTYPE
  5
24
330
21
100
AcDbSymbolTableRecord
100
AcDbLinetypeTableRecord
  2
BYLAYER
 70
     0
  3

 72
    65
 73
     0
 40
0.0
  0
LTYPE
  5
25
330
21
100
AcDbSymbolTableRecord
100
AcDbLinetypeTableRecord
  2
CONTINUOUS
 70
     0
  3
Solid line
 72
    65
 73
     0
 40
0.0
  0
ENDTAB
  0
TABLE
  2
LAYER
  5
ABE
330
0
100
AcDbSymbolTable
 70
3
  0
LAYER
  5
ABF
330
ABE
100
AcDbSymbolTableRecord
100
AcDbLayerTableRecord
  2
0
 70
   0
 62
   7
  6
CONTINUOUS
  0
LAYER
  5
AC0
330
ABE
100
AcDbSymbolTableRecord
100
AcDbLayerTableRecord
  2
none
 70
    0
 62
    7
  6
CONTINUOUS
  0
LAYER
  5
AC1
330
ABE
100
AcDbSymbolTableRecord
100
AcDbLayerTableRecord
  2
Mesh_cs003
 70
    0
 62
    7
  6
CONTINUOUS
  0
ENDTAB
  0
TABLE
  2
STYLE
  5
70
330
0
100
AcDbSymbolTable
 70
     2
  0
STYLE
  5
71
330
70
100
AcDbSymbolTableRecord
100
AcDbTextStyleTableRecord
  2
STANDARD
 70
     0
 40
0.0
 41
1.0
 50
0.0
 71
     0
 42
2.5
  3
arial.ttf
  4

  0
STYLE
  5
72
330
70
100
AcDbSymbolTableRecord
100
AcDbTextStyleTableRecord
  2
ANNOTATIVE
 70
     0
 40
0.0
 41
1.0
 50
0.0
 71
     0
 42
2.5
  3
arial.ttf
  4

  0
ENDTAB
  0
TABLE
  2
VIEW
  5
73
330
0
100
AcDbSymbolTable
 70
     0
  0
ENDTAB
  0
TABLE
  2
UCS
  5
74
330
0
100
AcDbSymbolTable
 70
     0
  0
ENDTAB
  0
TABLE
  2
APPID
  5
75
330
0
100
AcDbSymbolTable
 70
     2
  0
APPID
  5
76
330
75
100
AcDbSymbolTableRecord
100
AcDbRegAppTableRecord
  2
ACAD
 70
     0
  0
APPID
  5
77
330
75
100
AcDbSymbolTableRecord
100
AcDbRegAppTableRecord
  2
ACADANNOTATIVE
 70
     0
  0
ENDTAB
  0
TABLE
  2
DIMSTYLE
  5
78
330
0
100
AcDbSymbolTable
 70
     2
  0
DIMSTYLE
105
79
330
78
100
AcDbSymbolTableRecord
100
AcDbDimStyleTableRecord
  2
STANDARD
 70
     0
  3

  4

  5

  6

  7

 40
0.0
 41
2.5
 42
0.625
 43
3.75
 44
1.25
 45
0.0
 46
0.0
 47
0.0
 48
0.0
140
2.5
141
2.5
142
0.0
143
0.03937007874016
144
1.0
145
0.0
146
1.0
147
0.625
 71
     0
 72
     0
 73
     0
 74
     0
 75
     0
 76
     0
 77
     1
 78
     8
170
     0
171
     3
172
     1
173
     0
174
     0
175
     0
176
     0
177
     0
178
     0
270
     2
271
     2
272
     2
273
     2
274
     3
340
71
275
     0
280
     0
281
     0
282
     0
283
     0
284
     8
285
     0
286
     0
287
     3
288
     0
  0
ENDTAB
  0
TABLE
  2
BLOCK_RECORD
  5
A01
330
0
100
AcDbSymbolTable
  70
5
  0
BLOCK_RECORD
  5
A02
330
A01
100
AcDbSymbolTableRecord
100
AcDbBlockTableRecord
  2
*MODEL_SPACE
  0
BLOCK_RECORD
  5
A03
330
A01
100
AcDbSymbolTableRecord
100
AcDbBlockTableRecord
  2
*PAPER_SPACE
  0
ENDTAB
  0
ENDSEC
  0
SECTION
  2
BLOCKS
  0
BLOCK
  5
A04
330
A02
100
AcDbEntity
  8
0
100
AcDbBlockBegin
  2
*MODEL_SPACE
 70
   0
 10
0
 20
0
 30
0
  3
*MODEL_SPACE
  1
 
  0
ENDBLK
  5
A05
330
A02
100
AcDbEntity
  8
0
100
AcDbBlockEnd
  0
BLOCK
  5
A06
330
A03
100
AcDbEntity
 67
1
  8
0
100
AcDbBlockBegin
  2
*PAPER_SPACE
 70
   0
 10
0
 20
0
 30
0
  3
*PAPER_SPACE
  1
 
  0
ENDBLK
  5
A07
330
A03
100
AcDbEntity
 67
    1
  8
0
100
AcDbBlockEnd
  0
ENDSEC
  0
SECTION
  2
ENTITIES
  0
LINE
  5
A08
330
A02
100
AcDbEntity
  8
Mesh_cs003
100
AcDbLine
 10
-209.271
 20
107.632
 30
0.0999999
 11
-209.262
 21
107.599
 31
0.0999999
  0
LINE
  5
A09
330
A02
100
AcDbEntity
  8
Mesh_cs003
100
AcDbLine
 10
-209.262
 20
107.599
 30
0.0999999
 11
-208.231
 21
103.703
 31
0.0999999
  0
LINE
  5
A0A
330
A02
100
AcDbEntity
  8
Mesh_cs003
100
AcDbLine
 10
-208.231
 20
103.703
 30
0.0999999
 11
-207.239
 21
99.7974
 31
0.0999999
  0
LINE
  5
A0B
330
A02
100
AcDbEntity
  8
Mesh_cs003
100
AcDbLine
 10
-207.239
 20
99.7974
 30
0.0999999
 11
-207.23
 21
99.7646
 31
0.0999999
  0
LINE
  5
A0C
330
A02
100
AcDbEntity
  8
Mesh_cs003
100
AcDbLine
 10
-207.23
 20
99.7646
 30
0.0999999
 11
-206.276
 21
95.8493
 31
0.0999999
  0
LINE
  5
A0D
330
A02
100
AcDbEntity
  8
Mesh_cs003
100
AcDbLine
 10
-206.276
 20
95.8493
 30
0.0999999
 11
-206.268
 21
95.8163
 31
0.0999999
  0
LINE
  5
A0E
330
A02
100
AcDbEntity
  8
Mesh_cs003
100
AcDbLine
 10
-206.268
 20
95.8163
 30
0.0999999
 11
-206.26
 21
95.7834
 31
0.0999999
  0
LINE
  5
A0F
330
A02
100
AcDbEntity
  8
Mesh_cs003
100
AcDbLine
 10
-206.26
 20
95.7834
 30
0.0999999
 11
-205.345
 21
91.8589
 31
0.0999999
  0
LINE
  5
A10
330
A02
100
AcDbEntity
  8
Mesh_cs003
100
AcDbLine
 10
-205.345
 20
91.8589
 30
0.0999999
 11
-204.468
 21
87.9257
 31
0.0999999
  0
LINE
  5
A11
330
A02
100
AcDbEntity
  8
Mesh_cs003
100
AcDbLine
 10
-204.468
 20
87.9257
 30
0.0999999
 11
-204.46
 21
87.8927
 31
0.0999999
  0
LINE
  5
A12
330
A02
100
AcDbEntity
  8
Mesh_cs003
100
AcDbLine
 10
-204.46
 20
87.8927
 30
0.0999999
 11
-203.622
 21
83.9512
 31
0.0999999
  0
LINE
  5
A13
330
A02
100
AcDbEntity
  8
Mesh_cs003
100
AcDbLine
 10
-203.622
 20
83.9512
 30
0.0999999
 11
-203.615
 21
83.918
 31
0.0999999
  0
LINE
  5
A14
330
A02
100
AcDbEntity
  8
Mesh_cs003
100
AcDbLine
 10
-203.615
 20
83.918
 30
0.0999999
 11
-202.816
 21
79.9686
 31
0.0999999
  0
LINE
  5
A15
330
A02
100
AcDbEntity
  8
Mesh_cs003
100
AcDbLine
 10
-202.816
 20
79.9686
 30
0.0999999
 11
-202.809
 21
79.9354
 31
0.0999999
  0
LINE
  5
A16
330
A02
100
AcDbEntity
  8
Mesh_cs003
100
AcDbLine
 10
-202.809
 20
79.9354
 30
0.0999999
 11
-202.803
 21
79.9021
 31
0.0999999
  0
LINE
  5
A17
330
A02
100
AcDbEntity
  8
Mesh_cs003
100
AcDbLine
 10
-202.803
 20
79.9021
 30
0.0999999
 11
-202.042
 21
75.9451
 31
0.0999999
  0
LINE
  5
A18
330
A02
100
AcDbEntity
  8
Mesh_cs003
100
AcDbLine
 10
-202.042
 20
75.9451
 30
0.0999999
 11
-201.321
 21
71.9808
 31
0.0999999
  0
LINE
  5
A19
330
A02
100
AcDbEntity
  8
Mesh_cs003
100
AcDbLine
 10
-201.321
 20
71.9808
 30
0.0999999
 11
-201.315
 21
71.9475
 31
0.0999999
  0
LINE
  5
A1A
330
A02
100
AcDbEntity
  8
Mesh_cs003
100
AcDbLine
 10
-201.315
 20
71.9475
 30
0.0999999
 11
-200.633
 21
67.9764
 31
0.0999999
  0
LINE
  5
A1B
330
A02
100
AcDbEntity
  8
Mesh_cs003
100
AcDbLine
 10
-200.633
 20
67.9764
 30
0.0999999
 11
-200.627
 21
67.9431
 31
0.0999999
  0
LINE
  5
A1C
330
A02
100
AcDbEntity
  8
Mesh_cs003
100
AcDbLine
 10
-200.627
 20
67.9431
 30
0.0999999
 11
-200.621
 21
67.9096
 31
0.0999999
  0
LINE
  5
A1D
330
A02
100
AcDbEntity
  8
Mesh_cs003
100
AcDbLine
 10
-200.621
 20
67.9096
 30
0.0999999
 11
-199.978
 21
63.9322
 31
0.0999999
  0
LINE
  5
A1E
330
A02
100
AcDbEntity
  8
Mesh_cs003
100
AcDbLine
 10
-199.978
 20
63.9322
 30
0.0999999
 11
-199.374
 21
59.9486
 31
0.0999999
  0
LINE
  5
A1F
330
A02
100
AcDbEntity
  8
Mesh_cs003
100
AcDbLine
 10
-199.374
 20
59.9486
 30
0.0999999
 11
-199.369
 21
59.9152
 31
0.0999999
  0
LINE
  5
A20
330
A02
100
AcDbEntity
  8
Mesh_cs003
100
AcDbLine
 10
-199.369
 20
59.9152
 30
0.0999999
 11
-199.364
 21
59.8816
 31
0.0999999
  0
LINE
  5
A21
330
A02
100
AcDbEntity
  8
Mesh_cs003
100
AcDbLine
 10
-199.364
 20
59.8816
 30
0.0999999
 11
-198.799
 21
55.8925
 31
0.0999999
  0
LINE
  5
A22
330
A02
100
AcDbEntity
  8
Mesh_cs003
100
AcDbLine
 10
-198.799
 20
55.8925
 30
0.0999999
 11
-198.274
 21
51.898
 31
0.0999999
  0
LINE
  5
A23
330
A02
100
AcDbEntity
  8
Mesh_cs003
100
AcDbLine
 10
-198.274
 20
51.898
 30
0.0999999
 11
-198.269
 21
51.8645
 31
0.0999999
  0
LINE
  5
A24
330
A02
100
AcDbEntity
  8
Mesh_cs003
100
AcDbLine
 10
-198.269
 20
51.8645
 30
0.0999999
 11
-198.265
 21
51.8308
 31
0.0999999
  0
LINE
  5
A25
330
A02
100
AcDbEntity
  8
Mesh_cs003
100
AcDbLine
 10
-198.265
 20
51.8308
 30
0.0999999
 11
-197.779
 21
47.8315
 31
0.0999999
  0
LINE
  5
A26
330
A02
100
AcDbEntity
  8
Mesh_cs003
100
AcDbLine
 10
-197.779
 20
47.8315
 30
0.0999999
 11
-197.332
 21
43.8277
 31
0.0999999
  0
LINE
  5
A27
330
A02
100
AcDbEntity
  8
Mesh_cs003
100
AcDbLine
 10
-197.332
 20
43.8277
 30
0.0999999
 11
-197.328
 21
43.7941
 31
0.0999999
  0
LINE
  5
A28
330
A02
100
AcDbEntity
  8
Mesh_cs003
100
AcDbLine
 10
-197.328
 20
43.7941
 30
0.0999999
 11
-196.921
 21
39.7862
 31
0.0999999
  0
LINE
  5
A29
330
A02
100
AcDbEntity
  8
Mesh_cs003
100
AcDbLine
 10
-196.921
 20
39.7862
 30
0.0999999
 11
-196.918
 21
39.7525
 31
0.0999999
  0
LINE
  5
A2A
330
A02
100
AcDbEntity
  8
Mesh_cs003
100
AcDbLine
 10
-196.918
 20
39.7525
 30
0.0999999
 11
-196.549
 21
35.7408
 31
0.0999999
  0
LINE
  5
A2B
330
A02
100
AcDbEntity
  8
Mesh_cs003
100
AcDbLine
 10
-196.549
 20
35.7408
 30
0.0999999
 11
-196.546
 21
35.7071
 31
0.0999999
  0
LINE
  5
A2C
330
A02
100
AcDbEntity
  8
Mesh_cs003
100
AcDbLine
 10
-196.546
 20
35.7071
 30
0.0999999
 11
-196.226
 21
31.7932
 31
0.0999999
  0
LINE
  5
A2D
330
A02
100
AcDbEntity
  8
Mesh_cs003
100
AcDbLine
 10
-196.226
 20
31.7932
 30
0.0999999
 11
-196.223
 21
31.7603
 31
0.0999999
  0
LINE
  5
A2E
330
A02
100
AcDbEntity
  8
Mesh_cs003
100
AcDbLine
 10
-196.223
 20
31.7603
 30
0.0999999
 11
-195.94
 21
27.8479
 31
0.0999999
  0
LINE
  5
A2F
330
A02
100
AcDbEntity
  8
Mesh_cs003
100
AcDbLine
 10
-195.94
 20
27.8479
 30
0.0999999
 11
-195.938
 21
27.8151
 31
0.0999999
  0
LINE
  5
A30
330
A02
100
AcDbEntity
  8
Mesh_cs003
100
AcDbLine
 10
-195.938
 20
27.8151
 30
0.0999999
 11
-195.934
 21
27.8088
 31
0.0999999
  0
LINE
  5
A31
330
A02
100
AcDbEntity
  8
Mesh_cs003
100
AcDbLine
 10
-195.934
 20
27.8088
 30
0.0999999
 11
-195.926
 21
27.797
 31
0.1
  0
LINE
  5
A32
330
A02
100
AcDbEntity
  8
Mesh_cs003
100
AcDbLine
 10
-195.926
 20
27.797
 30
0.1
 11
-195.912
 21
27.7752
 31
0.1
  0
LINE
  5
A33
330
A02
100
AcDbEntity
  8
Mesh_cs003
100
AcDbLine
 10
-195.912
 20
27.7752
 30
0.1
 11
-195.762
 21
27.5522
 31
0.1
  0
LINE
  5
A34
330
A02
100
AcDbEntity
  8
Mesh_cs003
100
AcDbLine
 10
-195.762
 20
27.5522
 30
0.1
 11
-195.624
 21
27.3189
 31
0.1
  0
LINE
  5
A35
330
A02
100
AcDbEntity
  8
Mesh_cs003
100
AcDbLine
 10
-195.624
 20
27.3189
 30
0.1
 11
-195.614
 21
27.3013
 31
0.1
  0
LINE
  5
A36
330
A02
100
AcDbEntity
  8
Mesh_cs003
100
AcDbLine
 10
-195.614
 20
27.3013
 30
0.1
 11
-195.576
 21
27.2211
 31
0.1
  0
LINE
  5
A37
330
A02
100
AcDbEntity
  8
Mesh_cs003
100
AcDbLine
 10
-195.576
 20
27.2211
 30
0.1
 11
-195.556
 21
27.1811
 31
0.1
  0
LINE
  5
A38
330
A02
100
AcDbEntity
  8
Mesh_cs003
100
AcDbLine
 10
-195.556
 20
27.1811
 30
0.1
 11
-195.418
 21
26.9012
 31
0.1
  0
LINE
  5
A39
330
A02
100
AcDbEntity
  8
Mesh_cs003
100
AcDbLine
 10
-195.418
 20
26.9012
 30
0.1
 11
-195.386
 21
26.8224
 31
0.1
  0
LINE
  5
A3A
330
A02
100
AcDbEntity
  8
Mesh_cs003
100
AcDbLine
 10
-195.386
 20
26.8224
 30
0.1
 11
-195.274
 21
26.5307
 31
0.1
  0
LINE
  5
A3B
330
A02
100
AcDbEntity
  8
Mesh_cs003
100
AcDbLine
 10
-195.274
 20
26.5307
 30
0.1
 11
-195.251
 21
26.4642
 31
0.1
  0
LINE
  5
A3C
330
A02
100
AcDbEntity
  8
Mesh_cs003
100
AcDbLine
 10
-195.251
 20
26.4642
 30
0.1
 11
-195.208
 21
26.3087
 31
0.1
  0
LINE
  5
A3D
330
A02
100
AcDbEntity
  8
Mesh_cs003
100
AcDbLine
 10
-195.208
 20
26.3087
 30
0.1
 11
-195.141
 21
26.0767
 31
0.1
  0
LINE
  5
A3E
330
A02
100
AcDbEntity
  8
Mesh_cs003
100
AcDbLine
 10
-195.141
 20
26.0767
 30
0.1
 11
-195.092
 21
25.8397
 31
0.1
  0
LINE
  5
A3F
330
A02
100
AcDbEntity
  8
Mesh_cs003
100
AcDbLine
 10
-195.092
 20
25.8397
 30
0.1
 11
-195.068
 21
25.7203
 31
0.1
  0
LINE
  5
A40
330
A02
100
AcDbEntity
  8
Mesh_cs003
100
AcDbLine
 10
-195.068
 20
25.7203
 30
0.1
 11
-195.06
 21
25.6663
 31
0.1
  0
LINE
  5
A41
330
A02
100
AcDbEntity
  8
Mesh_cs003
100
AcDbLine
 10
-195.06
 20
25.6663
 30
0.1
 11
-195.02
 21
25.3419
 31
0.1
  0
LINE
  5
A42
330
A02
100
AcDbEntity
  8
Mesh_cs003
100
AcDbLine
 10
-195.02
 20
25.3419
 30
0.1
 11
-195.015
 21
25.2878
 31
0.1
  0
LINE
  5
A43
330
A02
100
AcDbEntity
  8
Mesh_cs003
100
AcDbLine
 10
-195.015
 20
25.2878
 30
0.1
 11
-195.003
 21
24.9913
 31
0.1
  0
LINE
  5
A44
330
A02
100
AcDbEntity
  8
Mesh_cs003
100
AcDbLine
 10
-195.003
 20
24.9913
 30
0.1
 11
-195.002
 21
24.9395
 31
0.1
  0
LINE
  5
A45
330
A02
100
AcDbEntity
  8
Mesh_cs003
100
AcDbLine
 10
-195.002
 20
24.9395
 30
0.1
 11
-195
 21
24.9
 31
0.0999999
  0
LINE
  5
A46
330
A02
100
AcDbEntity
  8
Mesh_cs003
100
AcDbLine
 10
-195
 20
24.9
 30
0.0999999
 11
-195
 21
24.7889
 31
0.0999999
  0
LINE
  5
A47
330
A02
100
AcDbEntity
  8
Mesh_cs003
100
AcDbLine
 10
-195
 20
24.7889
 30
0.0999999
 11
-195
 21
0.165555
 31
0.0999999
  0
LINE
  5
A48
330
A02
100
AcDbEntity
  8
Mesh_cs003
100
AcDbLine
 10
-195
 20
0.165555
 30
0.0999999
 11
-195
 21
5.0987e-14
 31
0.0999999
  0
LINE
  5
A49
330
A02
100
AcDbEntity
  8
Mesh_cs003
100
AcDbLine
 10
-195
 20
5.1e-14
 30
0.0999999
 11
-194.834
 21
5.1e-14
 31
0.0999999
  0
LINE
  5
A4A
330
A02
100
AcDbEntity
  8
Mesh_cs003
100
AcDbLine
 10
-194.834
 20
5.1e-14
 30
0.0999999
 11
-194.723
 21
5.09444e-14
 31
0.0999999
  0
LINE
  5
A4B
330
A02
100
AcDbEntity
  8
Mesh_cs003
100
AcDbLine
 10
-194.723
 20
5.09444e-14
 30
0.0999999
 11
-194.273
 21
5.10818e-14
 31
0.0999999
  0
LINE
  5
A4C
330
A02
100
AcDbEntity
  8
Mesh_cs003
100
AcDbLine
 10
-194.273
 20
5.10818e-14
 30
0.0999999
 11
-193.955
 21
5.05364e-14
 31
0.0999999
  0
LINE
  5
A4D
330
A02
100
AcDbEntity
  8
Mesh_cs003
100
AcDbLine
 10
-193.955
 20
5.05364e-14
 30
0.0999999
 11
-193.11
 21
5.09889e-14
 31
0.0999999
  0
LINE
  5
A4E
330
A02
100
AcDbEntity
  8
Mesh_cs003
100
AcDbLine
 10
-193.11
 20
5.09889e-14
 30
0.0999999
 11
-0.276667
 21
5.39556e-14
 31
0.0999999
  0
LINE
  5
A4F
330
A02
100
AcDbEntity
  8
Mesh_cs003
100
AcDbLine
 10
-0.276667
 20
5.39556e-14
 30
0.0999999
 11
-0.165555
 21
5.39667e-14
 31
0.0999999
  0
LINE
  5
A50
330
A02
100
AcDbEntity
  8
Mesh_cs003
100
AcDbLine
 10
-0.165555
 20
5.39667e-14
 30
0.0999999
 11
0
 21
5.4e-14
 31
0.0999999
  0
LINE
  5
A51
330
A02
100
AcDbEntity
  8
Mesh_cs003
100
AcDbLine
 10
0
 20
5.4e-14
 30
0.0999999
 11
0
 21
0.165555
 31
0.0999999
  0
LINE
  5
A52
330
A02
100
AcDbEntity
  8
Mesh_cs003
100
AcDbLine
 10
0
 20
0.165555
 30
0.0999999
 11
0
 21
0.276667
 31
0.0999999
  0
LINE
  5
A53
330
A02
100
AcDbEntity
  8
Mesh_cs003
100
AcDbLine
 10
0
 20
0.276667
 30
0.0999999
 11
-1.11111e-17
 21
3.05748
 31
0.0999999
  0
LINE
  5
A54
330
A02
100
AcDbEntity
  8
Mesh_cs003
100
AcDbLine
 10
-1.11111e-17
 20
3.05748
 30
0.0999999
 11
-1.11111e-17
 21
299.797
 31
0.0999999
  0
LINE
  5
A55
330
A02
100
AcDbEntity
  8
Mesh_cs003
100
AcDbLine
 10
-1.11111e-17
 20
299.797
 30
0.0999999
 11
2.22221e-17
 21
299.909
 31
0.0999999
  0
LINE
  5
A56
330
A02
100
AcDbEntity
  8
Mesh_cs003
100
AcDbLine
 10
2.22221e-17
 20
299.909
 30
0.0999999
 11
0
 21
300.074
 31
0.0999999
  0
LINE
  5
A57
330
A02
100
AcDbEntity
  8
Mesh_cs003
100
AcDbLine
 10
0
 20
300.074
 30
0.0999999
 11
-0.165555
 21
300.074
 31
0.0999999
  0
LINE
  5
A58
330
A02
100
AcDbEntity
  8
Mesh_cs003
100
AcDbLine
 10
-0.165555
 20
300.074
 30
0.0999999
 11
-0.276667
 21
300.074
 31
0.0999999
  0
LINE
  5
A59
330
A02
100
AcDbEntity
  8
Mesh_cs003
100
AcDbLine
 10
-0.276667
 20
300.074
 30
0.0999999
 11
-193.11
 21
300.074
 31
0.0999999
  0
LINE
  5
A5A
330
A02
100
AcDbEntity
  8
Mesh_cs003
100
AcDbLine
 10
-193.11
 20
300.074
 30
0.0999999
 11
-193.955
 21
300.074
 31
0.0999999
  0
LINE
  5
A5B
330
A02
100
AcDbEntity
  8
Mesh_cs003
100
AcDbLine
 10
-193.955
 20
300.074
 30
0.0999999
 11
-194.273
 21
300.074
 31
0.0999999
  0
LINE
  5
A5C
330
A02
100
AcDbEntity
  8
Mesh_cs003
100
AcDbLine
 10
-194.273
 20
300.074
 30
0.0999999
 11
-194.805
 21
300.074
 31
0.0999999
  0
LINE
  5
A5D
330
A02
100
AcDbEntity
  8
Mesh_cs003
100
AcDbLine
 10
-194.805
 20
300.074
 30
0.0999999
 11
-195
 21
300.074
 31
0.0999999
  0
LINE
  5
A5E
330
A02
100
AcDbEntity
  8
Mesh_cs003
100
AcDbLine
 10
-195
 20
300.074
 30
0.0999999
 11
-195.129
 21
299.981
 31
0.0999999
  0
LINE
  5
A5F
330
A02
100
AcDbEntity
  8
Mesh_cs003
100
AcDbLine
 10
-195.129
 20
299.981
 30
0.0999999
 11
-195.653
 21
299.6
 31
0.0999999
  0
LINE
  5
A60
330
A02
100
AcDbEntity
  8
Mesh_cs003
100
AcDbLine
 10
-195.653
 20
299.6
 30
0.0999999
 11
-273.655
 21
242.928
 31
0.0999999
  0
LINE
  5
A61
330
A02
100
AcDbEntity
  8
Mesh_cs003
100
AcDbLine
 10
-273.655
 20
242.928
 30
0.0999999
 11
-273.745
 21
242.862
 31
0.0999999
  0
LINE
  5
A62
330
A02
100
AcDbEntity
  8
Mesh_cs003
100
AcDbLine
 10
-273.745
 20
242.862
 30
0.0999999
 11
-273.879
 21
242.765
 31
0.0999999
  0
LINE
  5
A63
330
A02
100
AcDbEntity
  8
Mesh_cs003
100
AcDbLine
 10
-273.879
 20
242.765
 30
0.0999999
 11
-273.782
 21
242.631
 31
0.0999999
  0
LINE
  5
A64
330
A02
100
AcDbEntity
  8
Mesh_cs003
100
AcDbLine
 10
-273.782
 20
242.631
 30
0.0999999
 11
-259.309
 21
222.71
 31
0.0999999
  0
LINE
  5
A65
330
A02
100
AcDbEntity
  8
Mesh_cs003
100
AcDbLine
 10
-259.309
 20
222.71
 30
0.0999999
 11
-259.243
 21
222.621
 31
0.0999999
  0
LINE
  5
A66
330
A02
100
AcDbEntity
  8
Mesh_cs003
100
AcDbLine
 10
-259.243
 20
222.621
 30
0.0999999
 11
-259.238
 21
222.613
 31
0.0999999
  0
LINE
  5
A67
330
A02
100
AcDbEntity
  8
Mesh_cs003
100
AcDbLine
 10
-259.238
 20
222.613
 30
0.0999999
 11
-259.222
 21
222.587
 31
0.1
  0
LINE
  5
A68
330
A02
100
AcDbEntity
  8
Mesh_cs003
100
AcDbLine
 10
-259.222
 20
222.587
 30
0.1
 11
-259.192
 21
222.545
 31
0.1
  0
LINE
  5
A69
330
A02
100
AcDbEntity
  8
Mesh_cs003
100
AcDbLine
 10
-259.192
 20
222.545
 30
0.1
 11
-259.028
 21
222.299
 31
0.1
  0
LINE
  5
A6A
330
A02
100
AcDbEntity
  8
Mesh_cs003
100
AcDbLine
 10
-259.028
 20
222.299
 30
0.1
 11
-259.001
 21
222.253
 31
0.1
  0
LINE
  5
A6B
330
A02
100
AcDbEntity
  8
Mesh_cs003
100
AcDbLine
 10
-259.001
 20
222.253
 30
0.1
 11
-258.844
 21
221.971
 31
0.1
  0
LINE
  5
A6C
330
A02
100
AcDbEntity
  8
Mesh_cs003
100
AcDbLine
 10
-258.844
 20
221.971
 30
0.1
 11
-258.819
 21
221.923
 31
0.1
  0
LINE
  5
A6D
330
A02
100
AcDbEntity
  8
Mesh_cs003
100
AcDbLine
 10
-258.819
 20
221.923
 30
0.1
 11
-258.768
 21
221.813
 31
0.1
  0
LINE
  5
A6E
330
A02
100
AcDbEntity
  8
Mesh_cs003
100
AcDbLine
 10
-258.768
 20
221.813
 30
0.1
 11
-258.668
 21
221.593
 31
0.1
  0
LINE
  5
A6F
330
A02
100
AcDbEntity
  8
Mesh_cs003
100
AcDbLine
 10
-258.668
 20
221.593
 30
0.1
 11
-258.578
 21
221.34
 31
0.1
  0
LINE
  5
A70
330
A02
100
AcDbEntity
  8
Mesh_cs003
100
AcDbLine
 10
-258.578
 20
221.34
 30
0.1
 11
-258.519
 21
221.181
 31
0.1
  0
LINE
  5
A71
330
A02
100
AcDbEntity
  8
Mesh_cs003
100
AcDbLine
 10
-258.519
 20
221.181
 30
0.1
 11
-258.498
 21
221.112
 31
0.1
  0
LINE
  5
A72
330
A02
100
AcDbEntity
  8
Mesh_cs003
100
AcDbLine
 10
-258.498
 20
221.112
 30
0.1
 11
-258.42
 21
220.809
 31
0.1
  0
LINE
  5
A73
330
A02
100
AcDbEntity
  8
Mesh_cs003
100
AcDbLine
 10
-258.42
 20
220.809
 30
0.1
 11
-258.398
 21
220.723
 31
0.1
  0
LINE
  5
A74
330
A02
100
AcDbEntity
  8
Mesh_cs003
100
AcDbLine
 10
-258.398
 20
220.723
 30
0.1
 11
-258.347
 21
220.414
 31
0.1
  0
LINE
  5
A75
330
A02
100
AcDbEntity
  8
Mesh_cs003
100
AcDbLine
 10
-258.347
 20
220.414
 30
0.1
 11
-258.34
 21
220.37
 31
0.1
  0
LINE
  5
A76
330
A02
100
AcDbEntity
  8
Mesh_cs003
100
AcDbLine
 10
-258.34
 20
220.37
 30
0.1
 11
-258.322
 21
220.263
 31
0.1
  0
LINE
  5
A77
330
A02
100
AcDbEntity
  8
Mesh_cs003
100
AcDbLine
 10
-258.322
 20
220.263
 30
0.1
 11
-258.3
 21
220.011
 31
0.1
  0
LINE
  5
A78
330
A02
100
AcDbEntity
  8
Mesh_cs003
100
AcDbLine
 10
-258.3
 20
220.011
 30
0.1
 11
-258.291
 21
219.758
 31
0.1
  0
LINE
  5
A79
330
A02
100
AcDbEntity
  8
Mesh_cs003
100
AcDbLine
 10
-258.291
 20
219.758
 30
0.1
 11
-258.291
 21
219.748
 31
0.1
  0
LINE
  5
A7A
330
A02
100
AcDbEntity
  8
Mesh_cs003
100
AcDbLine
 10
-258.291
 20
219.748
 30
0.1
 11
-258.289
 21
219.726
 31
0.1
  0
LINE
  5
A7B
330
A02
100
AcDbEntity
  8
Mesh_cs003
100
AcDbLine
 10
-258.289
 20
219.726
 30
0.1
 11
-258.289
 21
219.716
 31
0.0999999
  0
LINE
  5
A7C
330
A02
100
AcDbEntity
  8
Mesh_cs003
100
AcDbLine
 10
-258.289
 20
219.716
 30
0.0999999
 11
-256.371
 21
216.629
 31
0.0999999
  0
LINE
  5
A7D
330
A02
100
AcDbEntity
  8
Mesh_cs003
100
AcDbLine
 10
-256.371
 20
216.629
 30
0.0999999
 11
-256.355
 21
216.603
 31
0.0999999
  0
LINE
  5
A7E
330
A02
100
AcDbEntity
  8
Mesh_cs003
100
AcDbLine
 10
-256.355
 20
216.603
 30
0.0999999
 11
-254.463
 21
213.501
 31
0.0999999
  0
LINE
  5
A7F
330
A02
100
AcDbEntity
  8
Mesh_cs003
100
AcDbLine
 10
-254.463
 20
213.501
 30
0.0999999
 11
-254.448
 21
213.475
 31
0.0999999
  0
LINE
  5
A80
330
A02
100
AcDbEntity
  8
Mesh_cs003
100
AcDbLine
 10
-254.448
 20
213.475
 30
0.0999999
 11
-252.585
 21
210.36
 31
0.0999999
  0
LINE
  5
A81
330
A02
100
AcDbEntity
  8
Mesh_cs003
100
AcDbLine
 10
-252.585
 20
210.36
 30
0.0999999
 11
-252.57
 21
210.334
 31
0.0999999
  0
LINE
  5
A82
330
A02
100
AcDbEntity
  8
Mesh_cs003
100
AcDbLine
 10
-252.57
 20
210.334
 30
0.0999999
 11
-250.735
 21
207.202
 31
0.0999999
  0
LINE
  5
A83
330
A02
100
AcDbEntity
  8
Mesh_cs003
100
AcDbLine
 10
-250.735
 20
207.202
 30
0.0999999
 11
-250.72
 21
207.176
 31
0.0999999
  0
LINE
  5
A84
330
A02
100
AcDbEntity
  8
Mesh_cs003
100
AcDbLine
 10
-250.72
 20
207.176
 30
0.0999999
 11
-250.705
 21
207.149
 31
0.0999999
  0
LINE
  5
A85
330
A02
100
AcDbEntity
  8
Mesh_cs003
100
AcDbLine
 10
-250.705
 20
207.149
 30
0.0999999
 11
-248.898
 21
204.001
 31
0.0999999
  0
LINE
  5
A86
330
A02
100
AcDbEntity
  8
Mesh_cs003
100
AcDbLine
 10
-248.898
 20
204.001
 30
0.0999999
 11
-247.119
 21
200.838
 31
0.0999999
  0
LINE
  5
A87
330
A02
100
AcDbEntity
  8
Mesh_cs003
100
AcDbLine
 10
-247.119
 20
200.838
 30
0.0999999
 11
-247.105
 21
200.811
 31
0.0999999
  0
LINE
  5
A88
330
A02
100
AcDbEntity
  8
Mesh_cs003
100
AcDbLine
 10
-247.105
 20
200.811
 30
0.0999999
 11
-247.09
 21
200.785
 31
0.0999999
  0
LINE
  5
A89
330
A02
100
AcDbEntity
  8
Mesh_cs003
100
AcDbLine
 10
-247.09
 20
200.785
 30
0.0999999
 11
-245.339
 21
197.606
 31
0.0999999
  0
LINE
  5
A8A
330
A02
100
AcDbEntity
  8
Mesh_cs003
100
AcDbLine
 10
-245.339
 20
197.606
 30
0.0999999
 11
-243.617
 21
194.411
 31
0.0999999
  0
LINE
  5
A8B
330
A02
100
AcDbEntity
  8
Mesh_cs003
100
AcDbLine
 10
-243.617
 20
194.411
 30
0.0999999
 11
-243.603
 21
194.384
 31
0.0999999
  0
LINE
  5
A8C
330
A02
100
AcDbEntity
  8
Mesh_cs003
100
AcDbLine
 10
-243.603
 20
194.384
 30
0.0999999
 11
-241.909
 21
191.175
 31
0.0999999
  0
LINE
  5
A8D
330
A02
100
AcDbEntity
  8
Mesh_cs003
100
AcDbLine
 10
-241.909
 20
191.175
 30
0.0999999
 11
-241.895
 21
191.148
 31
0.0999999
  0
LINE
  5
A8E
330
A02
100
AcDbEntity
  8
Mesh_cs003
100
AcDbLine
 10
-241.895
 20
191.148
 30
0.0999999
 11
-241.881
 21
191.121
 31
0.0999999
  0
LINE
  5
A8F
330
A02
100
AcDbEntity
  8
Mesh_cs003
100
AcDbLine
 10
-241.881
 20
191.121
 30
0.0999999
 11
-240.216
 21
187.896
 31
0.0999999
  0
LINE
  5
A90
330
A02
100
AcDbEntity
  8
Mesh_cs003
100
AcDbLine
 10
-240.216
 20
187.896
 30
0.0999999
 11
-238.579
 21
184.658
 31
0.0999999
  0
LINE
  5
A91
330
A02
100
AcDbEntity
  8
Mesh_cs003
100
AcDbLine
 10
-238.579
 20
184.658
 30
0.0999999
 11
-238.565
 21
184.63
 31
0.0999999
  0
LINE
  5
A92
330
A02
100
AcDbEntity
  8
Mesh_cs003
100
AcDbLine
 10
-238.565
 20
184.63
 30
0.0999999
 11
-238.552
 21
184.603
 31
0.0999999
  0
LINE
  5
A93
330
A02
100
AcDbEntity
  8
Mesh_cs003
100
AcDbLine
 10
-238.552
 20
184.603
 30
0.0999999
 11
-236.944
 21
181.35
 31
0.0999999
  0
LINE
  5
A94
330
A02
100
AcDbEntity
  8
Mesh_cs003
100
AcDbLine
 10
-236.944
 20
181.35
 30
0.0999999
 11
-236.931
 21
181.322
 31
0.0999999
  0
LINE
  5
A95
330
A02
100
AcDbEntity
  8
Mesh_cs003
100
AcDbLine
 10
-236.931
 20
181.322
 30
0.0999999
 11
-235.352
 21
178.055
 31
0.0999999
  0
LINE
  5
A96
330
A02
100
AcDbEntity
  8
Mesh_cs003
100
AcDbLine
 10
-235.352
 20
178.055
 30
0.0999999
 11
-233.802
 21
174.774
 31
0.0999999
  0
LINE
  5
A97
330
A02
100
AcDbEntity
  8
Mesh_cs003
100
AcDbLine
 10
-233.802
 20
174.774
 30
0.0999999
 11
-233.789
 21
174.747
 31
0.0999999
  0
LINE
  5
A98
330
A02
100
AcDbEntity
  8
Mesh_cs003
100
AcDbLine
 10
-233.789
 20
174.747
 30
0.0999999
 11
-232.268
 21
171.452
 31
0.0999999
  0
LINE
  5
A99
330
A02
100
AcDbEntity
  8
Mesh_cs003
100
AcDbLine
 10
-232.268
 20
171.452
 30
0.0999999
 11
-232.255
 21
171.424
 31
0.0999999
  0
LINE
  5
A9A
330
A02
100
AcDbEntity
  8
Mesh_cs003
100
AcDbLine
 10
-232.255
 20
171.424
 30
0.0999999
 11
-232.243
 21
171.397
 31
0.0999999
  0
LINE
  5
A9B
330
A02
100
AcDbEntity
  8
Mesh_cs003
100
AcDbLine
 10
-232.243
 20
171.397
 30
0.0999999
 11
-230.752
 21
168.089
 31
0.0999999
  0
LINE
  5
A9C
330
A02
100
AcDbEntity
  8
Mesh_cs003
100
AcDbLine
 10
-230.752
 20
168.089
 30
0.0999999
 11
-229.29
 21
164.768
 31
0.0999999
  0
LINE
  5
A9D
330
A02
100
AcDbEntity
  8
Mesh_cs003
100
AcDbLine
 10
-229.29
 20
164.768
 30
0.0999999
 11
-229.277
 21
164.74
 31
0.0999999
  0
LINE
  5
A9E
330
A02
100
AcDbEntity
  8
Mesh_cs003
100
AcDbLine
 10
-229.277
 20
164.74
 30
0.0999999
 11
-227.845
 21
161.406
 31
0.0999999
  0
LINE
  5
A9F
330
A02
100
AcDbEntity
  8
Mesh_cs003
100
AcDbLine
 10
-227.845
 20
161.406
 30
0.0999999
 11
-227.833
 21
161.378
 31
0.0999999
  0
LINE
  5
AA0
330
A02
100
AcDbEntity
  8
Mesh_cs003
100
AcDbLine
 10
-227.833
 20
161.378
 30
0.0999999
 11
-226.43
 21
158.032
 31
0.0999999
  0
LINE
  5
AA1
330
A02
100
AcDbEntity
  8
Mesh_cs003
100
AcDbLine
 10
-226.43
 20
158.032
 30
0.0999999
 11
-226.418
 21
158.004
 31
0.0999999
  0
LINE
  5
AA2
330
A02
100
AcDbEntity
  8
Mesh_cs003
100
AcDbLine
 10
-226.418
 20
158.004
 30
0.0999999
 11
-225.045
 21
154.646
 31
0.0999999
  0
LINE
  5
AA3
330
A02
100
AcDbEntity
  8
Mesh_cs003
100
AcDbLine
 10
-225.045
 20
154.646
 30
0.0999999
 11
-225.033
 21
154.618
 31
0.0999999
  0
LINE
  5
AA4
330
A02
100
AcDbEntity
  8
Mesh_cs003
100
AcDbLine
 10
-225.033
 20
154.618
 30
0.0999999
 11
-223.69
 21
151.247
 31
0.0999999
  0
LINE
  5
AA5
330
A02
100
AcDbEntity
  8
Mesh_cs003
100
AcDbLine
 10
-223.69
 20
151.247
 30
0.0999999
 11
-223.679
 21
151.219
 31
0.0999999
  0
LINE
  5
AA6
330
A02
100
AcDbEntity
  8
Mesh_cs003
100
AcDbLine
 10
-223.679
 20
151.219
 30
0.0999999
 11
-222.365
 21
147.837
 31
0.0999999
  0
LINE
  5
AA7
330
A02
100
AcDbEntity
  8
Mesh_cs003
100
AcDbLine
 10
-222.365
 20
147.837
 30
0.0999999
 11
-222.354
 21
147.809
 31
0.0999999
  0
LINE
  5
AA8
330
A02
100
AcDbEntity
  8
Mesh_cs003
100
AcDbLine
 10
-222.354
 20
147.809
 30
0.0999999
 11
-221.071
 21
144.415
 31
0.0999999
  0
LINE
  5
AA9
330
A02
100
AcDbEntity
  8
Mesh_cs003
100
AcDbLine
 10
-221.071
 20
144.415
 30
0.0999999
 11
-221.06
 21
144.387
 31
0.0999999
  0
LINE
  5
AAA
330
A02
100
AcDbEntity
  8
Mesh_cs003
100
AcDbLine
 10
-221.06
 20
144.387
 30
0.0999999
 11
-219.807
 21
140.982
 31
0.0999999
  0
LINE
  5
AAB
330
A02
100
AcDbEntity
  8
Mesh_cs003
100
AcDbLine
 10
-219.807
 20
140.982
 30
0.0999999
 11
-219.796
 21
140.953
 31
0.0999999
  0
LINE
  5
AAC
330
A02
100
AcDbEntity
  8
Mesh_cs003
100
AcDbLine
 10
-219.796
 20
140.953
 30
0.0999999
 11
-218.573
 21
137.538
 31
0.0999999
  0
LINE
  5
AAD
330
A02
100
AcDbEntity
  8
Mesh_cs003
100
AcDbLine
 10
-218.573
 20
137.538
 30
0.0999999
 11
-218.563
 21
137.509
 31
0.0999999
  0
LINE
  5
AAE
330
A02
100
AcDbEntity
  8
Mesh_cs003
100
AcDbLine
 10
-218.563
 20
137.509
 30
0.0999999
 11
-217.371
 21
134.083
 31
0.0999999
  0
LINE
  5
AAF
330
A02
100
AcDbEntity
  8
Mesh_cs003
100
AcDbLine
 10
-217.371
 20
134.083
 30
0.0999999
 11
-217.361
 21
134.054
 31
0.0999999
  0
LINE
  5
AB0
330
A02
100
AcDbEntity
  8
Mesh_cs003
100
AcDbLine
 10
-217.361
 20
134.054
 30
0.0999999
 11
-217.351
 21
134.025
 31
0.0999999
  0
LINE
  5
AB1
330
A02
100
AcDbEntity
  8
Mesh_cs003
100
AcDbLine
 10
-217.351
 20
134.025
 30
0.0999999
 11
-216.188
 21
130.589
 31
0.0999999
  0
LINE
  5
AB2
330
A02
100
AcDbEntity
  8
Mesh_cs003
100
AcDbLine
 10
-216.188
 20
130.589
 30
0.0999999
 11
-215.057
 21
127.142
 31
0.0999999
  0
LINE
  5
AB3
330
A02
100
AcDbEntity
  8
Mesh_cs003
100
AcDbLine
 10
-215.057
 20
127.142
 30
0.0999999
 11
-215.047
 21
127.113
 31
0.0999999
  0
LINE
  5
AB4
330
A02
100
AcDbEntity
  8
Mesh_cs003
100
AcDbLine
 10
-215.047
 20
127.113
 30
0.0999999
 11
-213.826
 21
123.272
 31
0.0999999
  0
LINE
  5
AB5
330
A02
100
AcDbEntity
  8
Mesh_cs003
100
AcDbLine
 10
-213.826
 20
123.272
 30
0.0999999
 11
-213.815
 21
123.24
 31
0.0999999
  0
LINE
  5
AB6
330
A02
100
AcDbEntity
  8
Mesh_cs003
100
AcDbLine
 10
-213.815
 20
123.24
 30
0.0999999
 11
-212.632
 21
119.387
 31
0.0999999
  0
LINE
  5
AB7
330
A02
100
AcDbEntity
  8
Mesh_cs003
100
AcDbLine
 10
-212.632
 20
119.387
 30
0.0999999
 11
-212.622
 21
119.355
 31
0.0999999
  0
LINE
  5
AB8
330
A02
100
AcDbEntity
  8
Mesh_cs003
100
AcDbLine
 10
-212.622
 20
119.355
 30
0.0999999
 11
-211.476
 21
115.491
 31
0.0999999
  0
LINE
  5
AB9
330
A02
100
AcDbEntity
  8
Mesh_cs003
100
AcDbLine
 10
-211.476
 20
115.491
 30
0.0999999
 11
-211.466
 21
115.458
 31
0.0999999
  0
LINE
  5
ABA
330
A02
100
AcDbEntity
  8
Mesh_cs003
100
AcDbLine
 10
-211.466
 20
115.458
 30
0.0999999
 11
-210.359
 21
111.583
 31
0.0999999
  0
LINE
  5
ABB
330
A02
100
AcDbEntity
  8
Mesh_cs003
100
AcDbLine
 10
-210.359
 20
111.583
 30
0.0999999
 11
-210.349
 21
111.55
 31
0.0999999
  0
LINE
  5
ABC
330
A02
100
AcDbEntity
  8
Mesh_cs003
100
AcDbLine
 10
-210.349
 20
111.55
 30
0.0999999
 11
-209.28
 21
107.665
 31
0.0999999
  0
LINE
  5
ABD
330
A02
100
AcDbEntity
  8
Mesh_cs003
100
AcDbLine
 10
-209.28
 20
107.665
 30
0.0999999
 11
-209.271
 21
107.632
 31
0.0999999
  0
ENDSEC
  0
SECTION
  2
OBJECTS
  0
DICTIONARY
  5
F000
330
0
100
AcDbDictionary
  3
ACAD_GROUP
350
F001
  0
DICTIONARY
  5
F001
330
F000
100
AcDbDictionary
  0
ENDSEC
  0
EOF