999
FreeCAD v0.21 33771 (Git)
  0
SECTION
  2
HEADER
  9
$ACADVER
  1
AC1014
  9
$ACADMAINTVER
 70
     9
  9
$DWGCODEPAGE
  3
ANSI_1252
  9
$TEXTSTYLE
  7
STANDARD
  9
$DIMSTYLE
  2
STANDARD
  9
$DIMTXSTY
  7
STANDARD
  9
$CMLSTYLE
  2
STANDARD
  9
$LUNITS
 70
2
  9
$INSUNITS
 70
4
  9
$PEXTMAX
 10
50
 20
50
 30
50
  9
$PEXTMIN
 10
0
 20
0
 30
0
  9
$HANDSEED
  5
FFFF
  0
ENDSEC
  0
SECTION
  2
CLASSES
  0
CLASS
  1
ACDBDICTIONARYWDFLT
  2
AcDbDictionaryWithDefault
  3
ObjectDBX Classes
 90
        0
280
     0
281
     0
  0
CLASS
  1
XRECORD
  2
AcDbXrecord
  3
ObjectDBX Classes
 90
        0
280
     0
281
     0
  0
CLASS
  1
LWPOLYLINE
  2
AcDbPolyline
  3
ObjectDBX Classes
 90
        0
280
     0
281
     1
  0
ENDSEC
  0
SECTION
  2
TABLES
  0
TABLE
  2
VPORT
  5
20
330
0
100
AcDbSymbolTable
 70
     1
  0
VPORT
  5
21
330
20
100
AcDbSymbolTableRecord
100
AcDbViewportTableRecord
  2
*ACTIVE
 70
     0
  0
ENDTAB
  0
TABLE
  2
LTYPE
  5
22
330
0
100
AcDbSymbolTable
 70
     1
  0
LTYPE
  5
23
330
21
100
AcDbSymbolTableRecord
100
AcDbLinetypeTableRecord
  2
BYBLOCK
 70
     0
  3

 72
    65
 73
     0
 40
0.0
  0
LTYPE
  5
24
330
21
100
AcDbSymbolTableRecord
100
AcDbLinetypeTableRecord
  2
BYLAYER
 70
     0
  3

 72
    65
 73
     0
 40
0.0
  0
LTYPE
  5
25
330
21
100
AcDbSymbolTableRecord
100
AcDbLinetypeTableRecord
  2
CONTINUOUS
 70
     0
  3
Solid line
 72
    65
 73
     0
 40
0.0
  0
ENDTAB
  0
TABLE
  2
LAYER
  5
B64
330
0
100
AcDbSymbolTable
 70
3
  0
LAYER
  5
B65
330
B64
100
AcDbSymbolTableRecord
100
AcDbLayerTableRecord
  2
0
 70
   0
 62
   7
  6
CONTINUOUS
  0
LAYER
  5
B66
330
B64
100
AcDbSymbolTableRecord
100
AcDbLayerTableRecord
  2
none
 70
    0
 62
    7
  6
CONTINUOUS
  0
LAYER
  5
B67
330
B64
100
AcDbSymbolTableRecord
100
AcDbLayerTableRecord
  2
Mesh_cs001
 70
    0
 62
    7
  6
CONTINUOUS
  0
ENDTAB
  0
TABLE
  2
STYLE
  5
70
330
0
100
AcDbSymbolTable
 70
     2
  0
STYLE
  5
71
330
70
100
AcDbSymbolTableRecord
100
AcDbTextStyleTableRecord
  2
STANDARD
 70
     0
 40
0.0
 41
1.0
 50
0.0
 71
     0
 42
2.5
  3
arial.ttf
  4

  0
STYLE
  5
72
330
70
100
AcDbSymbolTableRecord
100
AcDbTextStyleTableRecord
  2
ANNOTATIVE
 70
     0
 40
0.0
 41
1.0
 50
0.0
 71
     0
 42
2.5
  3
arial.ttf
  4

  0
ENDTAB
  0
TABLE
  2
VIEW
  5
73
330
0
100
AcDbSymbolTable
 70
     0
  0
ENDTAB
  0
TABLE
  2
UCS
  5
74
330
0
100
AcDbSymbolTable
 70
     0
  0
ENDTAB
  0
TABLE
  2
APPID
  5
75
330
0
100
AcDbSymbolTable
 70
     2
  0
APPID
  5
76
330
75
100
AcDbSymbolTableRecord
100
AcDbRegAppTableRecord
  2
ACAD
 70
     0
  0
APPID
  5
77
330
75
100
AcDbSymbolTableRecord
100
AcDbRegAppTableRecord
  2
ACADANNOTATIVE
 70
     0
  0
ENDTAB
  0
TABLE
  2
DIMSTYLE
  5
78
330
0
100
AcDbSymbolTable
 70
     2
  0
DIMSTYLE
105
79
330
78
100
AcDbSymbolTableRecord
100
AcDbDimStyleTableRecord
  2
STANDARD
 70
     0
  3

  4

  5

  6

  7

 40
0.0
 41
2.5
 42
0.625
 43
3.75
 44
1.25
 45
0.0
 46
0.0
 47
0.0
 48
0.0
140
2.5
141
2.5
142
0.0
143
0.03937007874016
144
1.0
145
0.0
146
1.0
147
0.625
 71
     0
 72
     0
 73
     0
 74
     0
 75
     0
 76
     0
 77
     1
 78
     8
170
     0
171
     3
172
     1
173
     0
174
     0
175
     0
176
     0
177
     0
178
     0
270
     2
271
     2
272
     2
273
     2
274
     3
340
71
275
     0
280
     0
281
     0
282
     0
283
     0
284
     8
285
     0
286
     0
287
     3
288
     0
  0
ENDTAB
  0
TABLE
  2
BLOCK_RECORD
  5
A01
330
0
100
AcDbSymbolTable
  70
5
  0
BLOCK_RECORD
  5
A02
330
A01
100
AcDbSymbolTableRecord
100
AcDbBlockTableRecord
  2
*MODEL_SPACE
  0
BLOCK_RECORD
  5
A03
330
A01
100
AcDbSymbolTableRecord
100
AcDbBlockTableRecord
  2
*PAPER_SPACE
  0
ENDTAB
  0
ENDSEC
  0
SECTION
  2
BLOCKS
  0
BLOCK
  5
A04
330
A02
100
AcDbEntity
  8
0
100
AcDbBlockBegin
  2
*MODEL_SPACE
 70
   0
 10
0
 20
0
 30
0
  3
*MODEL_SPACE
  1
 
  0
ENDBLK
  5
A05
330
A02
100
AcDbEntity
  8
0
100
AcDbBlockEnd
  0
BLOCK
  5
A06
330
A03
100
AcDbEntity
 67
1
  8
0
100
AcDbBlockBegin
  2
*PAPER_SPACE
 70
   0
 10
0
 20
0
 30
0
  3
*PAPER_SPACE
  1
 
  0
ENDBLK
  5
A07
330
A03
100
AcDbEntity
 67
    1
  8
0
100
AcDbBlockEnd
  0
ENDSEC
  0
SECTION
  2
ENTITIES
  0
LINE
  5
A08
330
A02
100
AcDbEntity
  8
Mesh_cs001
100
AcDbLine
 10
-253.067
 20
239.469
 30
9.1
 11
-264.719
 21
231.003
 31
9.1
  0
LINE
  5
A09
330
A02
100
AcDbEntity
  8
Mesh_cs001
100
AcDbLine
 10
-264.719
 20
231.003
 30
9.1
 11
-265.121
 21
230.711
 31
9.1
  0
LINE
  5
A0A
330
A02
100
AcDbEntity
  8
Mesh_cs001
100
AcDbLine
 10
-265.121
 20
230.711
 30
9.1
 11
-265.413
 21
231.113
 31
9.1
  0
LINE
  5
A0B
330
A02
100
AcDbEntity
  8
Mesh_cs001
100
AcDbLine
 10
-265.413
 20
231.113
 30
9.1
 11
-273.879
 21
242.765
 31
9.1
  0
LINE
  5
A0C
330
A02
100
AcDbEntity
  8
Mesh_cs001
100
AcDbLine
 10
-273.879
 20
242.765
 30
9.1
 11
-262.227
 21
251.231
 31
9.1
  0
LINE
  5
A0D
330
A02
100
AcDbEntity
  8
Mesh_cs001
100
AcDbLine
 10
-262.227
 20
251.231
 30
9.1
 11
-261.825
 21
251.523
 31
9.1
  0
LINE
  5
A0E
330
A02
100
AcDbEntity
  8
Mesh_cs001
100
AcDbLine
 10
-261.825
 20
251.523
 30
9.1
 11
-261.533
 21
251.121
 31
9.1
  0
LINE
  5
A0F
330
A02
100
AcDbEntity
  8
Mesh_cs001
100
AcDbLine
 10
-261.533
 20
251.121
 30
9.1
 11
-253.067
 21
239.469
 31
9.1
  0
LINE
  5
A10
330
A02
100
AcDbEntity
  8
Mesh_cs001
100
AcDbLine
 10
-196.223
 20
31.7603
 30
9.1
 11
-196.154
 21
30.8069
 31
9.1
  0
LINE
  5
A11
330
A02
100
AcDbEntity
  8
Mesh_cs001
100
AcDbLine
 10
-196.154
 20
30.8069
 30
9.1
 11
-195.938
 21
27.8151
 31
9.1
  0
LINE
  5
A12
330
A02
100
AcDbEntity
  8
Mesh_cs001
100
AcDbLine
 10
-195.938
 20
27.8151
 30
9.1
 11
-195.852
 21
27.6855
 31
9.1
  0
LINE
  5
A13
330
A02
100
AcDbEntity
  8
Mesh_cs001
100
AcDbLine
 10
-195.852
 20
27.6855
 30
9.1
 11
-195.696
 21
27.4449
 31
9.1
  0
LINE
  5
A14
330
A02
100
AcDbEntity
  8
Mesh_cs001
100
AcDbLine
 10
-195.696
 20
27.4449
 30
9.1
 11
-195.69
 21
27.4339
 31
9.1
  0
LINE
  5
A15
330
A02
100
AcDbEntity
  8
Mesh_cs001
100
AcDbLine
 10
-195.69
 20
27.4339
 30
9.1
 11
-195.671
 21
27.3995
 31
9.1
  0
LINE
  5
A16
330
A02
100
AcDbEntity
  8
Mesh_cs001
100
AcDbLine
 10
-195.671
 20
27.3995
 30
9.1
 11
-195.488
 21
27.0543
 31
9.1
  0
LINE
  5
A17
330
A02
100
AcDbEntity
  8
Mesh_cs001
100
AcDbLine
 10
-195.488
 20
27.0543
 30
9.1
 11
-195.471
 21
27.0152
 31
9.1
  0
LINE
  5
A18
330
A02
100
AcDbEntity
  8
Mesh_cs001
100
AcDbLine
 10
-195.471
 20
27.0152
 30
9.1
 11
-195.436
 21
26.9303
 31
9.1
  0
LINE
  5
A19
330
A02
100
AcDbEntity
  8
Mesh_cs001
100
AcDbLine
 10
-195.436
 20
26.9303
 30
9.1
 11
-195.367
 21
26.7698
 31
9.1
  0
LINE
  5
A1A
330
A02
100
AcDbEntity
  8
Mesh_cs001
100
AcDbLine
 10
-195.367
 20
26.7698
 30
9.1
 11
-195.317
 21
26.6521
 31
9.1
  0
LINE
  5
A1B
330
A02
100
AcDbEntity
  8
Mesh_cs001
100
AcDbLine
 10
-195.317
 20
26.6521
 30
9.1
 11
-195.306
 21
26.622
 31
9.1
  0
LINE
  5
A1C
330
A02
100
AcDbEntity
  8
Mesh_cs001
100
AcDbLine
 10
-195.306
 20
26.622
 30
9.1
 11
-195.286
 21
26.5677
 31
9.1
  0
LINE
  5
A1D
330
A02
100
AcDbEntity
  8
Mesh_cs001
100
AcDbLine
 10
-195.286
 20
26.5677
 30
9.1
 11
-195.237
 21
26.4104
 31
9.1
  0
LINE
  5
A1E
330
A02
100
AcDbEntity
  8
Mesh_cs001
100
AcDbLine
 10
-195.237
 20
26.4104
 30
9.1
 11
-195.19
 21
26.2643
 31
9.1
  0
LINE
  5
A1F
330
A02
100
AcDbEntity
  8
Mesh_cs001
100
AcDbLine
 10
-195.19
 20
26.2643
 30
9.1
 11
-195.127
 21
25.9994
 31
9.1
  0
LINE
  5
A20
330
A02
100
AcDbEntity
  8
Mesh_cs001
100
AcDbLine
 10
-195.127
 20
25.9994
 30
9.1
 11
-195.087
 21
25.8266
 31
9.1
  0
LINE
  5
A21
330
A02
100
AcDbEntity
  8
Mesh_cs001
100
AcDbLine
 10
-195.087
 20
25.8266
 30
9.1
 11
-195.064
 21
25.6849
 31
9.1
  0
LINE
  5
A22
330
A02
100
AcDbEntity
  8
Mesh_cs001
100
AcDbLine
 10
-195.064
 20
25.6849
 30
9.1
 11
-195.026
 21
25.3981
 31
9.1
  0
LINE
  5
A23
330
A02
100
AcDbEntity
  8
Mesh_cs001
100
AcDbLine
 10
-195.026
 20
25.3981
 30
9.1
 11
-195.003
 21
24.9925
 31
9.1
  0
LINE
  5
A24
330
A02
100
AcDbEntity
  8
Mesh_cs001
100
AcDbLine
 10
-195.003
 20
24.9925
 30
9.1
 11
-195.002
 21
24.9534
 31
9.1
  0
LINE
  5
A25
330
A02
100
AcDbEntity
  8
Mesh_cs001
100
AcDbLine
 10
-195.002
 20
24.9534
 30
9.1
 11
-195.001
 21
24.927
 31
9.1
  0
LINE
  5
A26
330
A02
100
AcDbEntity
  8
Mesh_cs001
100
AcDbLine
 10
-195.001
 20
24.927
 30
9.1
 11
-195
 21
24.9
 31
9.1
  0
LINE
  5
A27
330
A02
100
AcDbEntity
  8
Mesh_cs001
100
AcDbLine
 10
-195
 20
24.9
 30
9.1
 11
-194.337
 21
24.9
 31
9.1
  0
LINE
  5
A28
330
A02
100
AcDbEntity
  8
Mesh_cs001
100
AcDbLine
 10
-194.337
 20
24.9
 30
9.1
 11
-175.1
 21
24.9
 31
9.1
  0
LINE
  5
A29
330
A02
100
AcDbEntity
  8
Mesh_cs001
100
AcDbLine
 10
-175.1
 20
24.9
 30
9.1
 11
-174.765
 21
24.8887
 31
9.1
  0
LINE
  5
A2A
330
A02
100
AcDbEntity
  8
Mesh_cs001
100
AcDbLine
 10
-174.765
 20
24.8887
 30
9.1
 11
-174.423
 21
24.8539
 31
9.1
  0
LINE
  5
A2B
330
A02
100
AcDbEntity
  8
Mesh_cs001
100
AcDbLine
 10
-174.423
 20
24.8539
 30
9.1
 11
-173.991
 21
24.7755
 31
9.1
  0
LINE
  5
A2C
330
A02
100
AcDbEntity
  8
Mesh_cs001
100
AcDbLine
 10
-173.991
 20
24.7755
 30
9.1
 11
-173.579
 21
24.6626
 31
9.1
  0
LINE
  5
A2D
330
A02
100
AcDbEntity
  8
Mesh_cs001
100
AcDbLine
 10
-173.579
 20
24.6626
 30
9.1
 11
-173.554
 21
24.6542
 31
9.1
  0
LINE
  5
A2E
330
A02
100
AcDbEntity
  8
Mesh_cs001
100
AcDbLine
 10
-173.554
 20
24.6542
 30
9.1
 11
-173.152
 21
24.505
 31
9.1
  0
LINE
  5
A2F
330
A02
100
AcDbEntity
  8
Mesh_cs001
100
AcDbLine
 10
-173.152
 20
24.505
 30
9.1
 11
-173.14
 21
24.4994
 31
9.1
  0
LINE
  5
A30
330
A02
100
AcDbEntity
  8
Mesh_cs001
100
AcDbLine
 10
-173.14
 20
24.4994
 30
9.1
 11
-172.741
 21
24.3082
 31
9.1
  0
LINE
  5
A31
330
A02
100
AcDbEntity
  8
Mesh_cs001
100
AcDbLine
 10
-172.741
 20
24.3082
 30
9.1
 11
-172.371
 21
24.0895
 31
9.1
  0
LINE
  5
A32
330
A02
100
AcDbEntity
  8
Mesh_cs001
100
AcDbLine
 10
-172.371
 20
24.0895
 30
9.1
 11
-172.36
 21
24.082
 31
9.1
  0
LINE
  5
A33
330
A02
100
AcDbEntity
  8
Mesh_cs001
100
AcDbLine
 10
-172.36
 20
24.082
 30
9.1
 11
-172.01
 21
23.8308
 31
9.1
  0
LINE
  5
A34
330
A02
100
AcDbEntity
  8
Mesh_cs001
100
AcDbLine
 10
-172.01
 20
23.8308
 30
9.1
 11
-172
 21
23.8224
 31
9.1
  0
LINE
  5
A35
330
A02
100
AcDbEntity
  8
Mesh_cs001
100
AcDbLine
 10
-172
 20
23.8224
 30
9.1
 11
-171.673
 21
23.5405
 31
9.1
  0
LINE
  5
A36
330
A02
100
AcDbEntity
  8
Mesh_cs001
100
AcDbLine
 10
-171.673
 20
23.5405
 30
9.1
 11
-171.662
 21
23.5302
 31
9.1
  0
LINE
  5
A37
330
A02
100
AcDbEntity
  8
Mesh_cs001
100
AcDbLine
 10
-171.662
 20
23.5302
 30
9.1
 11
-171.39
 21
23.2519
 31
9.1
  0
LINE
  5
A38
330
A02
100
AcDbEntity
  8
Mesh_cs001
100
AcDbLine
 10
-171.39
 20
23.2519
 30
9.1
 11
-171.38
 21
23.2407
 31
9.1
  0
LINE
  5
A39
330
A02
100
AcDbEntity
  8
Mesh_cs001
100
AcDbLine
 10
-171.38
 20
23.2407
 30
9.1
 11
-171.131
 21
22.9409
 31
9.1
  0
LINE
  5
A3A
330
A02
100
AcDbEntity
  8
Mesh_cs001
100
AcDbLine
 10
-171.131
 20
22.9409
 30
9.1
 11
-171.122
 21
22.9288
 31
9.1
  0
LINE
  5
A3B
330
A02
100
AcDbEntity
  8
Mesh_cs001
100
AcDbLine
 10
-171.122
 20
22.9288
 30
9.1
 11
-170.898
 21
22.6094
 31
9.1
  0
LINE
  5
A3C
330
A02
100
AcDbEntity
  8
Mesh_cs001
100
AcDbLine
 10
-170.898
 20
22.6094
 30
9.1
 11
-170.89
 21
22.5966
 31
9.1
  0
LINE
  5
A3D
330
A02
100
AcDbEntity
  8
Mesh_cs001
100
AcDbLine
 10
-170.89
 20
22.5966
 30
9.1
 11
-170.692
 21
22.2595
 31
9.1
  0
LINE
  5
A3E
330
A02
100
AcDbEntity
  8
Mesh_cs001
100
AcDbLine
 10
-170.692
 20
22.2595
 30
9.1
 11
-170.521
 21
21.9069
 31
9.1
  0
LINE
  5
A3F
330
A02
100
AcDbEntity
  8
Mesh_cs001
100
AcDbLine
 10
-170.521
 20
21.9069
 30
9.1
 11
-170.515
 21
21.8935
 31
9.1
  0
LINE
  5
A40
330
A02
100
AcDbEntity
  8
Mesh_cs001
100
AcDbLine
 10
-170.515
 20
21.8935
 30
9.1
 11
-170.373
 21
21.5276
 31
9.1
  0
LINE
  5
A41
330
A02
100
AcDbEntity
  8
Mesh_cs001
100
AcDbLine
 10
-170.373
 20
21.5276
 30
9.1
 11
-170.368
 21
21.5137
 31
9.1
  0
LINE
  5
A42
330
A02
100
AcDbEntity
  8
Mesh_cs001
100
AcDbLine
 10
-170.368
 20
21.5137
 30
9.1
 11
-170.256
 21
21.1368
 31
9.1
  0
LINE
  5
A43
330
A02
100
AcDbEntity
  8
Mesh_cs001
100
AcDbLine
 10
-170.256
 20
21.1368
 30
9.1
 11
-170.252
 21
21.1224
 31
9.1
  0
LINE
  5
A44
330
A02
100
AcDbEntity
  8
Mesh_cs001
100
AcDbLine
 10
-170.252
 20
21.1224
 30
9.1
 11
-170.171
 21
20.737
 31
9.1
  0
LINE
  5
A45
330
A02
100
AcDbEntity
  8
Mesh_cs001
100
AcDbLine
 10
-170.171
 20
20.737
 30
9.1
 11
-170.168
 21
20.7224
 31
9.1
  0
LINE
  5
A46
330
A02
100
AcDbEntity
  8
Mesh_cs001
100
AcDbLine
 10
-170.168
 20
20.7224
 30
9.1
 11
-170.118
 21
20.3179
 31
9.1
  0
LINE
  5
A47
330
A02
100
AcDbEntity
  8
Mesh_cs001
100
AcDbLine
 10
-170.118
 20
20.3179
 30
9.1
 11
-170.117
 21
20.3065
 31
9.1
  0
LINE
  5
A48
330
A02
100
AcDbEntity
  8
Mesh_cs001
100
AcDbLine
 10
-170.117
 20
20.3065
 30
9.1
 11
-170.1
 21
19.9
 31
9.1
  0
LINE
  5
A49
330
A02
100
AcDbEntity
  8
Mesh_cs001
100
AcDbLine
 10
-170.1
 20
19.9
 30
9.1
 11
-170.1
 21
19.2367
 31
9.1
  0
LINE
  5
A4A
330
A02
100
AcDbEntity
  8
Mesh_cs001
100
AcDbLine
 10
-170.1
 20
19.2367
 30
9.1
 11
-170.1
 21
4.61853e-14
 31
9.1
  0
LINE
  5
A4B
330
A02
100
AcDbEntity
  8
Mesh_cs001
100
AcDbLine
 10
-170.1
 20
4.61667e-14
 30
9.1
 11
-167.345
 21
4.67e-14
 31
9.1
  0
LINE
  5
A4C
330
A02
100
AcDbEntity
  8
Mesh_cs001
100
AcDbLine
 10
-167.345
 20
4.67e-14
 30
9.1
 11
-128.818
 21
5.84454e-14
 31
9.1
  0
LINE
  5
A4D
330
A02
100
AcDbEntity
  8
Mesh_cs001
100
AcDbLine
 10
-128.818
 20
5.84454e-14
 30
9.1
 11
-99.8636
 21
8.80909e-15
 31
9.1
  0
LINE
  5
A4E
330
A02
100
AcDbEntity
  8
Mesh_cs001
100
AcDbLine
 10
-99.8636
 20
8.80909e-15
 30
9.1
 11
-27.655
 21
4.75e-14
 31
9.1
  0
LINE
  5
A4F
330
A02
100
AcDbEntity
  8
Mesh_cs001
100
AcDbLine
 10
-27.655
 20
4.75e-14
 30
9.1
 11
-24.9
 21
5.00333e-14
 31
9.1
  0
LINE
  5
A50
330
A02
100
AcDbEntity
  8
Mesh_cs001
100
AcDbLine
 10
-24.9
 20
5.00333e-14
 30
9.1
 11
-24.9
 21
0.663337
 31
9.1
  0
LINE
  5
A51
330
A02
100
AcDbEntity
  8
Mesh_cs001
100
AcDbLine
 10
-24.9
 20
0.663337
 30
9.1
 11
-24.9
 21
19.9
 31
9.1
  0
LINE
  5
A52
330
A02
100
AcDbEntity
  8
Mesh_cs001
100
AcDbLine
 10
-24.9
 20
19.9
 30
9.1
 11
-24.8994
 21
19.9136
 31
9.1
  0
LINE
  5
A53
330
A02
100
AcDbEntity
  8
Mesh_cs001
100
AcDbLine
 10
-24.8994
 20
19.9136
 30
9.1
 11
-24.8833
 21
20.3086
 31
9.1
  0
LINE
  5
A54
330
A02
100
AcDbEntity
  8
Mesh_cs001
100
AcDbLine
 10
-24.8833
 20
20.3086
 30
9.1
 11
-24.8815
 21
20.3226
 31
9.1
  0
LINE
  5
A55
330
A02
100
AcDbEntity
  8
Mesh_cs001
100
AcDbLine
 10
-24.8815
 20
20.3226
 30
9.1
 11
-24.8311
 21
20.727
 31
9.1
  0
LINE
  5
A56
330
A02
100
AcDbEntity
  8
Mesh_cs001
100
AcDbLine
 10
-24.8311
 20
20.727
 30
9.1
 11
-24.8283
 21
20.7403
 31
9.1
  0
LINE
  5
A57
330
A02
100
AcDbEntity
  8
Mesh_cs001
100
AcDbLine
 10
-24.8283
 20
20.7403
 30
9.1
 11
-24.7474
 21
21.1257
 31
9.1
  0
LINE
  5
A58
330
A02
100
AcDbEntity
  8
Mesh_cs001
100
AcDbLine
 10
-24.7474
 20
21.1257
 30
9.1
 11
-24.7436
 21
21.1387
 31
9.1
  0
LINE
  5
A59
330
A02
100
AcDbEntity
  8
Mesh_cs001
100
AcDbLine
 10
-24.7436
 20
21.1387
 30
9.1
 11
-24.6318
 21
21.5156
 31
9.1
  0
LINE
  5
A5A
330
A02
100
AcDbEntity
  8
Mesh_cs001
100
AcDbLine
 10
-24.6318
 20
21.5156
 30
9.1
 11
-24.49
 21
21.8815
 31
9.1
  0
LINE
  5
A5B
330
A02
100
AcDbEntity
  8
Mesh_cs001
100
AcDbLine
 10
-24.49
 20
21.8815
 30
9.1
 11
-24.4851
 21
21.8941
 31
9.1
  0
LINE
  5
A5C
330
A02
100
AcDbEntity
  8
Mesh_cs001
100
AcDbLine
 10
-24.4851
 20
21.8941
 30
9.1
 11
-24.4792
 21
21.9063
 31
9.1
  0
LINE
  5
A5D
330
A02
100
AcDbEntity
  8
Mesh_cs001
100
AcDbLine
 10
-24.4792
 20
21.9063
 30
9.1
 11
-24.3086
 21
22.2589
 31
9.1
  0
LINE
  5
A5E
330
A02
100
AcDbEntity
  8
Mesh_cs001
100
AcDbLine
 10
-24.3086
 20
22.2589
 30
9.1
 11
-24.1103
 21
22.596
 31
9.1
  0
LINE
  5
A5F
330
A02
100
AcDbEntity
  8
Mesh_cs001
100
AcDbLine
 10
-24.1103
 20
22.596
 30
9.1
 11
-24.1034
 21
22.6076
 31
9.1
  0
LINE
  5
A60
330
A02
100
AcDbEntity
  8
Mesh_cs001
100
AcDbLine
 10
-24.1034
 20
22.6076
 30
9.1
 11
-24.0957
 21
22.6186
 31
9.1
  0
LINE
  5
A61
330
A02
100
AcDbEntity
  8
Mesh_cs001
100
AcDbLine
 10
-24.0957
 20
22.6186
 30
9.1
 11
-23.8712
 21
22.9381
 31
9.1
  0
LINE
  5
A62
330
A02
100
AcDbEntity
  8
Mesh_cs001
100
AcDbLine
 10
-23.8712
 20
22.9381
 30
9.1
 11
-23.8626
 21
22.9484
 31
9.1
  0
LINE
  5
A63
330
A02
100
AcDbEntity
  8
Mesh_cs001
100
AcDbLine
 10
-23.8626
 20
22.9484
 30
9.1
 11
-23.6134
 21
23.2482
 31
9.1
  0
LINE
  5
A64
330
A02
100
AcDbEntity
  8
Mesh_cs001
100
AcDbLine
 10
-23.6134
 20
23.2482
 30
9.1
 11
-23.6041
 21
23.2578
 31
9.1
  0
LINE
  5
A65
330
A02
100
AcDbEntity
  8
Mesh_cs001
100
AcDbLine
 10
-23.6041
 20
23.2578
 30
9.1
 11
-23.332
 21
23.5361
 31
9.1
  0
LINE
  5
A66
330
A02
100
AcDbEntity
  8
Mesh_cs001
100
AcDbLine
 10
-23.332
 20
23.5361
 30
9.1
 11
-23.3208
 21
23.5458
 31
9.1
  0
LINE
  5
A67
330
A02
100
AcDbEntity
  8
Mesh_cs001
100
AcDbLine
 10
-23.3208
 20
23.5458
 30
9.1
 11
-22.994
 21
23.8278
 31
9.1
  0
LINE
  5
A68
330
A02
100
AcDbEntity
  8
Mesh_cs001
100
AcDbLine
 10
-22.994
 20
23.8278
 30
9.1
 11
-22.9819
 21
23.8364
 31
9.1
  0
LINE
  5
A69
330
A02
100
AcDbEntity
  8
Mesh_cs001
100
AcDbLine
 10
-22.9819
 20
23.8364
 30
9.1
 11
-22.632
 21
24.0876
 31
9.1
  0
LINE
  5
A6A
330
A02
100
AcDbEntity
  8
Mesh_cs001
100
AcDbLine
 10
-22.632
 20
24.0876
 30
9.1
 11
-22.6192
 21
24.0952
 31
9.1
  0
LINE
  5
A6B
330
A02
100
AcDbEntity
  8
Mesh_cs001
100
AcDbLine
 10
-22.6192
 20
24.0952
 30
9.1
 11
-22.2491
 21
24.3138
 31
9.1
  0
LINE
  5
A6C
330
A02
100
AcDbEntity
  8
Mesh_cs001
100
AcDbLine
 10
-22.2491
 20
24.3138
 30
9.1
 11
-21.8618
 21
24.4984
 31
9.1
  0
LINE
  5
A6D
330
A02
100
AcDbEntity
  8
Mesh_cs001
100
AcDbLine
 10
-21.8618
 20
24.4984
 30
9.1
 11
-21.8485
 21
24.5047
 31
9.1
  0
LINE
  5
A6E
330
A02
100
AcDbEntity
  8
Mesh_cs001
100
AcDbLine
 10
-21.8485
 20
24.5047
 30
9.1
 11
-21.8346
 21
24.5099
 31
9.1
  0
LINE
  5
A6F
330
A02
100
AcDbEntity
  8
Mesh_cs001
100
AcDbLine
 10
-21.8346
 20
24.5099
 30
9.1
 11
-21.4333
 21
24.6591
 31
9.1
  0
LINE
  5
A70
330
A02
100
AcDbEntity
  8
Mesh_cs001
100
AcDbLine
 10
-21.4333
 20
24.6591
 30
9.1
 11
-21.0213
 21
24.772
 31
9.1
  0
LINE
  5
A71
330
A02
100
AcDbEntity
  8
Mesh_cs001
100
AcDbLine
 10
-21.0213
 20
24.772
 30
9.1
 11
-21.007
 21
24.7759
 31
9.1
  0
LINE
  5
A72
330
A02
100
AcDbEntity
  8
Mesh_cs001
100
AcDbLine
 10
-21.007
 20
24.7759
 30
9.1
 11
-20.9926
 21
24.7785
 31
9.1
  0
LINE
  5
A73
330
A02
100
AcDbEntity
  8
Mesh_cs001
100
AcDbLine
 10
-20.9926
 20
24.7785
 30
9.1
 11
-20.573
 21
24.8545
 31
9.1
  0
LINE
  5
A74
330
A02
100
AcDbEntity
  8
Mesh_cs001
100
AcDbLine
 10
-20.573
 20
24.8545
 30
9.1
 11
-20.5617
 21
24.8556
 31
9.1
  0
LINE
  5
A75
330
A02
100
AcDbEntity
  8
Mesh_cs001
100
AcDbLine
 10
-20.5617
 20
24.8556
 30
9.1
 11
-20.233
 21
24.8889
 31
9.1
  0
LINE
  5
A76
330
A02
100
AcDbEntity
  8
Mesh_cs001
100
AcDbLine
 10
-20.233
 20
24.8889
 30
9.1
 11
-20.2219
 21
24.8893
 31
9.1
  0
LINE
  5
A77
330
A02
100
AcDbEntity
  8
Mesh_cs001
100
AcDbLine
 10
-20.2219
 20
24.8893
 30
9.1
 11
-19.9
 21
24.9
 31
9.1
  0
LINE
  5
A78
330
A02
100
AcDbEntity
  8
Mesh_cs001
100
AcDbLine
 10
-19.9
 20
24.9
 30
9.1
 11
-19.2367
 21
24.9
 31
9.1
  0
LINE
  5
A79
330
A02
100
AcDbEntity
  8
Mesh_cs001
100
AcDbLine
 10
-19.2367
 20
24.9
 30
9.1
 11
0
 21
24.9
 31
9.1
  0
LINE
  5
A7A
330
A02
100
AcDbEntity
  8
Mesh_cs001
100
AcDbLine
 10
0
 20
24.9
 30
9.1
 11
0
 21
33.2425
 31
9.1
  0
LINE
  5
A7B
330
A02
100
AcDbEntity
  8
Mesh_cs001
100
AcDbLine
 10
0
 20
33.2425
 30
9.1
 11
-9.66667e-16
 21
275.174
 31
9.1
  0
LINE
  5
A7C
330
A02
100
AcDbEntity
  8
Mesh_cs001
100
AcDbLine
 10
-9.66667e-16
 20
275.174
 30
9.1
 11
-0.663337
 21
275.174
 31
9.1
  0
LINE
  5
A7D
330
A02
100
AcDbEntity
  8
Mesh_cs001
100
AcDbLine
 10
-0.663337
 20
275.174
 30
9.1
 11
-19.9
 21
275.174
 31
9.1
  0
LINE
  5
A7E
330
A02
100
AcDbEntity
  8
Mesh_cs001
100
AcDbLine
 10
-19.9
 20
275.174
 30
9.1
 11
-20.2353
 21
275.185
 31
9.1
  0
LINE
  5
A7F
330
A02
100
AcDbEntity
  8
Mesh_cs001
100
AcDbLine
 10
-20.2353
 20
275.185
 30
9.1
 11
-20.5773
 21
275.22
 31
9.1
  0
LINE
  5
A80
330
A02
100
AcDbEntity
  8
Mesh_cs001
100
AcDbLine
 10
-20.5773
 20
275.22
 30
9.1
 11
-21.0089
 21
275.299
 31
9.1
  0
LINE
  5
A81
330
A02
100
AcDbEntity
  8
Mesh_cs001
100
AcDbLine
 10
-21.0089
 20
275.299
 30
9.1
 11
-21.4209
 21
275.412
 31
9.1
  0
LINE
  5
A82
330
A02
100
AcDbEntity
  8
Mesh_cs001
100
AcDbLine
 10
-21.4209
 20
275.412
 30
9.1
 11
-21.4464
 21
275.42
 31
9.1
  0
LINE
  5
A83
330
A02
100
AcDbEntity
  8
Mesh_cs001
100
AcDbLine
 10
-21.4464
 20
275.42
 30
9.1
 11
-21.8477
 21
275.569
 31
9.1
  0
LINE
  5
A84
330
A02
100
AcDbEntity
  8
Mesh_cs001
100
AcDbLine
 10
-21.8477
 20
275.569
 30
9.1
 11
-21.8599
 21
275.575
 31
9.1
  0
LINE
  5
A85
330
A02
100
AcDbEntity
  8
Mesh_cs001
100
AcDbLine
 10
-21.8599
 20
275.575
 30
9.1
 11
-22.2589
 21
275.766
 31
9.1
  0
LINE
  5
A86
330
A02
100
AcDbEntity
  8
Mesh_cs001
100
AcDbLine
 10
-22.2589
 20
275.766
 30
9.1
 11
-22.629
 21
275.985
 31
9.1
  0
LINE
  5
A87
330
A02
100
AcDbEntity
  8
Mesh_cs001
100
AcDbLine
 10
-22.629
 20
275.985
 30
9.1
 11
-22.6401
 21
275.992
 31
9.1
  0
LINE
  5
A88
330
A02
100
AcDbEntity
  8
Mesh_cs001
100
AcDbLine
 10
-22.6401
 20
275.992
 30
9.1
 11
-22.99
 21
276.243
 31
9.1
  0
LINE
  5
A89
330
A02
100
AcDbEntity
  8
Mesh_cs001
100
AcDbLine
 10
-22.99
 20
276.243
 30
9.1
 11
-23.0004
 21
276.252
 31
9.1
  0
LINE
  5
A8A
330
A02
100
AcDbEntity
  8
Mesh_cs001
100
AcDbLine
 10
-23.0004
 20
276.252
 30
9.1
 11
-23.3272
 21
276.534
 31
9.1
  0
LINE
  5
A8B
330
A02
100
AcDbEntity
  8
Mesh_cs001
100
AcDbLine
 10
-23.3272
 20
276.534
 30
9.1
 11
-23.338
 21
276.544
 31
9.1
  0
LINE
  5
A8C
330
A02
100
AcDbEntity
  8
Mesh_cs001
100
AcDbLine
 10
-23.338
 20
276.544
 30
9.1
 11
-23.61
 21
276.822
 31
9.1
  0
LINE
  5
A8D
330
A02
100
AcDbEntity
  8
Mesh_cs001
100
AcDbLine
 10
-23.61
 20
276.822
 30
9.1
 11
-23.6198
 21
276.833
 31
9.1
  0
LINE
  5
A8E
330
A02
100
AcDbEntity
  8
Mesh_cs001
100
AcDbLine
 10
-23.6198
 20
276.833
 30
9.1
 11
-23.869
 21
277.133
 31
9.1
  0
LINE
  5
A8F
330
A02
100
AcDbEntity
  8
Mesh_cs001
100
AcDbLine
 10
-23.869
 20
277.133
 30
9.1
 11
-23.8778
 21
277.145
 31
9.1
  0
LINE
  5
A90
330
A02
100
AcDbEntity
  8
Mesh_cs001
100
AcDbLine
 10
-23.8778
 20
277.145
 30
9.1
 11
-24.1023
 21
277.465
 31
9.1
  0
LINE
  5
A91
330
A02
100
AcDbEntity
  8
Mesh_cs001
100
AcDbLine
 10
-24.1023
 20
277.465
 30
9.1
 11
-24.1099
 21
277.478
 31
9.1
  0
LINE
  5
A92
330
A02
100
AcDbEntity
  8
Mesh_cs001
100
AcDbLine
 10
-24.1099
 20
277.478
 30
9.1
 11
-24.3082
 21
277.815
 31
9.1
  0
LINE
  5
A93
330
A02
100
AcDbEntity
  8
Mesh_cs001
100
AcDbLine
 10
-24.3082
 20
277.815
 30
9.1
 11
-24.4789
 21
278.167
 31
9.1
  0
LINE
  5
A94
330
A02
100
AcDbEntity
  8
Mesh_cs001
100
AcDbLine
 10
-24.4789
 20
278.167
 30
9.1
 11
-24.4854
 21
278.181
 31
9.1
  0
LINE
  5
A95
330
A02
100
AcDbEntity
  8
Mesh_cs001
100
AcDbLine
 10
-24.4854
 20
278.181
 30
9.1
 11
-24.6272
 21
278.547
 31
9.1
  0
LINE
  5
A96
330
A02
100
AcDbEntity
  8
Mesh_cs001
100
AcDbLine
 10
-24.6272
 20
278.547
 30
9.1
 11
-24.6324
 21
278.561
 31
9.1
  0
LINE
  5
A97
330
A02
100
AcDbEntity
  8
Mesh_cs001
100
AcDbLine
 10
-24.6324
 20
278.561
 30
9.1
 11
-24.7442
 21
278.937
 31
9.1
  0
LINE
  5
A98
330
A02
100
AcDbEntity
  8
Mesh_cs001
100
AcDbLine
 10
-24.7442
 20
278.937
 30
9.1
 11
-24.7482
 21
278.952
 31
9.1
  0
LINE
  5
A99
330
A02
100
AcDbEntity
  8
Mesh_cs001
100
AcDbLine
 10
-24.7482
 20
278.952
 30
9.1
 11
-24.8291
 21
279.337
 31
9.1
  0
LINE
  5
A9A
330
A02
100
AcDbEntity
  8
Mesh_cs001
100
AcDbLine
 10
-24.8291
 20
279.337
 30
9.1
 11
-24.8318
 21
279.352
 31
9.1
  0
LINE
  5
A9B
330
A02
100
AcDbEntity
  8
Mesh_cs001
100
AcDbLine
 10
-24.8318
 20
279.352
 30
9.1
 11
-24.8822
 21
279.756
 31
9.1
  0
LINE
  5
A9C
330
A02
100
AcDbEntity
  8
Mesh_cs001
100
AcDbLine
 10
-24.8822
 20
279.756
 30
9.1
 11
-24.8834
 21
279.768
 31
9.1
  0
LINE
  5
A9D
330
A02
100
AcDbEntity
  8
Mesh_cs001
100
AcDbLine
 10
-24.8834
 20
279.768
 30
9.1
 11
-24.9
 21
280.174
 31
9.1
  0
LINE
  5
A9E
330
A02
100
AcDbEntity
  8
Mesh_cs001
100
AcDbLine
 10
-24.9
 20
280.174
 30
9.1
 11
-24.9
 21
280.837
 31
9.1
  0
LINE
  5
A9F
330
A02
100
AcDbEntity
  8
Mesh_cs001
100
AcDbLine
 10
-24.9
 20
280.837
 30
9.1
 11
-24.9
 21
300.074
 31
9.1
  0
LINE
  5
AA0
330
A02
100
AcDbEntity
  8
Mesh_cs001
100
AcDbLine
 10
-24.9
 20
300.074
 30
9.1
 11
-27.655
 21
300.074
 31
9.1
  0
LINE
  5
AA1
330
A02
100
AcDbEntity
  8
Mesh_cs001
100
AcDbLine
 10
-27.655
 20
300.074
 30
9.1
 11
-99.8636
 21
300.074
 31
9.1
  0
LINE
  5
AA2
330
A02
100
AcDbEntity
  8
Mesh_cs001
100
AcDbLine
 10
-99.8636
 20
300.074
 30
9.1
 11
-128.818
 21
300.074
 31
9.1
  0
LINE
  5
AA3
330
A02
100
AcDbEntity
  8
Mesh_cs001
100
AcDbLine
 10
-128.818
 20
300.074
 30
9.1
 11
-177.259
 21
300.074
 31
9.1
  0
LINE
  5
AA4
330
A02
100
AcDbEntity
  8
Mesh_cs001
100
AcDbLine
 10
-177.259
 20
300.074
 30
9.1
 11
-195
 21
300.074
 31
9.1
  0
LINE
  5
AA5
330
A02
100
AcDbEntity
  8
Mesh_cs001
100
AcDbLine
 10
-195
 20
300.074
 30
9.1
 11
-206.712
 21
291.565
 31
9.1
  0
LINE
  5
AA6
330
A02
100
AcDbEntity
  8
Mesh_cs001
100
AcDbLine
 10
-206.712
 20
291.565
 30
9.1
 11
-251.506
 21
259.02
 31
9.1
  0
LINE
  5
AA7
330
A02
100
AcDbEntity
  8
Mesh_cs001
100
AcDbLine
 10
-251.506
 20
259.02
 30
9.1
 11
-253.735
 21
257.401
 31
9.1
  0
LINE
  5
AA8
330
A02
100
AcDbEntity
  8
Mesh_cs001
100
AcDbLine
 10
-253.735
 20
257.401
 30
9.1
 11
-242.428
 21
241.838
 31
9.1
  0
LINE
  5
AA9
330
A02
100
AcDbEntity
  8
Mesh_cs001
100
AcDbLine
 10
-242.428
 20
241.838
 30
9.1
 11
-242.038
 21
241.301
 31
9.1
  0
LINE
  5
AAA
330
A02
100
AcDbEntity
  8
Mesh_cs001
100
AcDbLine
 10
-242.038
 20
241.301
 30
9.1
 11
-242.031
 21
241.292
 31
9.1
  0
LINE
  5
AAB
330
A02
100
AcDbEntity
  8
Mesh_cs001
100
AcDbLine
 10
-242.031
 20
241.292
 30
9.1
 11
-241.812
 21
240.963
 31
9.1
  0
LINE
  5
AAC
330
A02
100
AcDbEntity
  8
Mesh_cs001
100
AcDbLine
 10
-241.812
 20
240.963
 30
9.1
 11
-241.806
 21
240.953
 31
9.1
  0
LINE
  5
AAD
330
A02
100
AcDbEntity
  8
Mesh_cs001
100
AcDbLine
 10
-241.806
 20
240.953
 30
9.1
 11
-241.609
 21
240.596
 31
9.1
  0
LINE
  5
AAE
330
A02
100
AcDbEntity
  8
Mesh_cs001
100
AcDbLine
 10
-241.609
 20
240.596
 30
9.1
 11
-241.603
 21
240.583
 31
9.1
  0
LINE
  5
AAF
330
A02
100
AcDbEntity
  8
Mesh_cs001
100
AcDbLine
 10
-241.603
 20
240.583
 30
9.1
 11
-241.442
 21
240.223
 31
9.1
  0
LINE
  5
AB0
330
A02
100
AcDbEntity
  8
Mesh_cs001
100
AcDbLine
 10
-241.442
 20
240.223
 30
9.1
 11
-241.437
 21
240.209
 31
9.1
  0
LINE
  5
AB1
330
A02
100
AcDbEntity
  8
Mesh_cs001
100
AcDbLine
 10
-241.437
 20
240.209
 30
9.1
 11
-241.306
 21
239.839
 31
9.1
  0
LINE
  5
AB2
330
A02
100
AcDbEntity
  8
Mesh_cs001
100
AcDbLine
 10
-241.306
 20
239.839
 30
9.1
 11
-241.302
 21
239.824
 31
9.1
  0
LINE
  5
AB3
330
A02
100
AcDbEntity
  8
Mesh_cs001
100
AcDbLine
 10
-241.302
 20
239.824
 30
9.1
 11
-241.201
 21
239.445
 31
9.1
  0
LINE
  5
AB4
330
A02
100
AcDbEntity
  8
Mesh_cs001
100
AcDbLine
 10
-241.201
 20
239.445
 30
9.1
 11
-241.199
 21
239.43
 31
9.1
  0
LINE
  5
AB5
330
A02
100
AcDbEntity
  8
Mesh_cs001
100
AcDbLine
 10
-241.199
 20
239.43
 30
9.1
 11
-241.13
 21
239.045
 31
9.1
  0
LINE
  5
AB6
330
A02
100
AcDbEntity
  8
Mesh_cs001
100
AcDbLine
 10
-241.13
 20
239.045
 30
9.1
 11
-241.092
 21
238.656
 31
9.1
  0
LINE
  5
AB7
330
A02
100
AcDbEntity
  8
Mesh_cs001
100
AcDbLine
 10
-241.092
 20
238.656
 30
9.1
 11
-241.091
 21
238.641
 31
9.1
  0
LINE
  5
AB8
330
A02
100
AcDbEntity
  8
Mesh_cs001
100
AcDbLine
 10
-241.091
 20
238.641
 30
9.1
 11
-241.084
 21
238.25
 31
9.1
  0
LINE
  5
AB9
330
A02
100
AcDbEntity
  8
Mesh_cs001
100
AcDbLine
 10
-241.084
 20
238.25
 30
9.1
 11
-241.084
 21
238.235
 31
9.1
  0
LINE
  5
ABA
330
A02
100
AcDbEntity
  8
Mesh_cs001
100
AcDbLine
 10
-241.084
 20
238.235
 30
9.1
 11
-241.11
 21
237.846
 31
9.1
  0
LINE
  5
ABB
330
A02
100
AcDbEntity
  8
Mesh_cs001
100
AcDbLine
 10
-241.11
 20
237.846
 30
9.1
 11
-241.111
 21
237.832
 31
9.1
  0
LINE
  5
ABC
330
A02
100
AcDbEntity
  8
Mesh_cs001
100
AcDbLine
 10
-241.111
 20
237.832
 30
9.1
 11
-241.168
 21
237.447
 31
9.1
  0
LINE
  5
ABD
330
A02
100
AcDbEntity
  8
Mesh_cs001
100
AcDbLine
 10
-241.168
 20
237.447
 30
9.1
 11
-241.17
 21
237.432
 31
9.1
  0
LINE
  5
ABE
330
A02
100
AcDbEntity
  8
Mesh_cs001
100
AcDbLine
 10
-241.17
 20
237.432
 30
9.1
 11
-241.269
 21
237.012
 31
9.1
  0
LINE
  5
ABF
330
A02
100
AcDbEntity
  8
Mesh_cs001
100
AcDbLine
 10
-241.269
 20
237.012
 30
9.1
 11
-241.272
 21
236.999
 31
9.1
  0
LINE
  5
AC0
330
A02
100
AcDbEntity
  8
Mesh_cs001
100
AcDbLine
 10
-241.272
 20
236.999
 30
9.1
 11
-241.408
 21
236.59
 31
9.1
  0
LINE
  5
AC1
330
A02
100
AcDbEntity
  8
Mesh_cs001
100
AcDbLine
 10
-241.408
 20
236.59
 30
9.1
 11
-241.412
 21
236.577
 31
9.1
  0
LINE
  5
AC2
330
A02
100
AcDbEntity
  8
Mesh_cs001
100
AcDbLine
 10
-241.412
 20
236.577
 30
9.1
 11
-241.583
 21
236.183
 31
9.1
  0
LINE
  5
AC3
330
A02
100
AcDbEntity
  8
Mesh_cs001
100
AcDbLine
 10
-241.583
 20
236.183
 30
9.1
 11
-241.589
 21
236.171
 31
9.1
  0
LINE
  5
AC4
330
A02
100
AcDbEntity
  8
Mesh_cs001
100
AcDbLine
 10
-241.589
 20
236.171
 30
9.1
 11
-241.794
 21
235.794
 31
9.1
  0
LINE
  5
AC5
330
A02
100
AcDbEntity
  8
Mesh_cs001
100
AcDbLine
 10
-241.794
 20
235.794
 30
9.1
 11
-241.8
 21
235.782
 31
9.1
  0
LINE
  5
AC6
330
A02
100
AcDbEntity
  8
Mesh_cs001
100
AcDbLine
 10
-241.8
 20
235.782
 30
9.1
 11
-242.037
 21
235.425
 31
9.1
  0
LINE
  5
AC7
330
A02
100
AcDbEntity
  8
Mesh_cs001
100
AcDbLine
 10
-242.037
 20
235.425
 30
9.1
 11
-242.045
 21
235.414
 31
9.1
  0
LINE
  5
AC8
330
A02
100
AcDbEntity
  8
Mesh_cs001
100
AcDbLine
 10
-242.045
 20
235.414
 30
9.1
 11
-242.053
 21
235.404
 31
9.1
  0
LINE
  5
AC9
330
A02
100
AcDbEntity
  8
Mesh_cs001
100
AcDbLine
 10
-242.053
 20
235.404
 30
9.1
 11
-242.32
 21
235.07
 31
9.1
  0
LINE
  5
ACA
330
A02
100
AcDbEntity
  8
Mesh_cs001
100
AcDbLine
 10
-242.32
 20
235.07
 30
9.1
 11
-242.328
 21
235.061
 31
9.1
  0
LINE
  5
ACB
330
A02
100
AcDbEntity
  8
Mesh_cs001
100
AcDbLine
 10
-242.328
 20
235.061
 30
9.1
 11
-242.623
 21
234.753
 31
9.1
  0
LINE
  5
ACC
330
A02
100
AcDbEntity
  8
Mesh_cs001
100
AcDbLine
 10
-242.623
 20
234.753
 30
9.1
 11
-242.633
 21
234.744
 31
9.1
  0
LINE
  5
ACD
330
A02
100
AcDbEntity
  8
Mesh_cs001
100
AcDbLine
 10
-242.633
 20
234.744
 30
9.1
 11
-242.879
 21
234.524
 31
9.1
  0
LINE
  5
ACE
330
A02
100
AcDbEntity
  8
Mesh_cs001
100
AcDbLine
 10
-242.879
 20
234.524
 30
9.1
 11
-242.89
 21
234.515
 31
9.1
  0
LINE
  5
ACF
330
A02
100
AcDbEntity
  8
Mesh_cs001
100
AcDbLine
 10
-242.89
 20
234.515
 30
9.1
 11
-243.144
 21
234.317
 31
9.1
  0
LINE
  5
AD0
330
A02
100
AcDbEntity
  8
Mesh_cs001
100
AcDbLine
 10
-243.144
 20
234.317
 30
9.1
 11
-258.707
 21
223.01
 31
9.1
  0
LINE
  5
AD1
330
A02
100
AcDbEntity
  8
Mesh_cs001
100
AcDbLine
 10
-258.707
 20
223.01
 30
9.1
 11
-259.243
 21
222.621
 31
9.1
  0
LINE
  5
AD2
330
A02
100
AcDbEntity
  8
Mesh_cs001
100
AcDbLine
 10
-259.243
 20
222.621
 30
9.1
 11
-259.228
 21
222.598
 31
9.1
  0
LINE
  5
AD3
330
A02
100
AcDbEntity
  8
Mesh_cs001
100
AcDbLine
 10
-259.228
 20
222.598
 30
9.1
 11
-259.213
 21
222.575
 31
9.1
  0
LINE
  5
AD4
330
A02
100
AcDbEntity
  8
Mesh_cs001
100
AcDbLine
 10
-259.213
 20
222.575
 30
9.1
 11
-259.196
 21
222.551
 31
9.1
  0
LINE
  5
AD5
330
A02
100
AcDbEntity
  8
Mesh_cs001
100
AcDbLine
 10
-259.196
 20
222.551
 30
9.1
 11
-258.979
 21
222.213
 31
9.1
  0
LINE
  5
AD6
330
A02
100
AcDbEntity
  8
Mesh_cs001
100
AcDbLine
 10
-258.979
 20
222.213
 30
9.1
 11
-258.917
 21
222.109
 31
9.1
  0
LINE
  5
AD7
330
A02
100
AcDbEntity
  8
Mesh_cs001
100
AcDbLine
 10
-258.917
 20
222.109
 30
9.1
 11
-258.78
 21
221.829
 31
9.1
  0
LINE
  5
AD8
330
A02
100
AcDbEntity
  8
Mesh_cs001
100
AcDbLine
 10
-258.78
 20
221.829
 30
9.1
 11
-258.683
 21
221.628
 31
9.1
  0
LINE
  5
AD9
330
A02
100
AcDbEntity
  8
Mesh_cs001
100
AcDbLine
 10
-258.683
 20
221.628
 30
9.1
 11
-258.611
 21
221.434
 31
9.1
  0
LINE
  5
ADA
330
A02
100
AcDbEntity
  8
Mesh_cs001
100
AcDbLine
 10
-258.611
 20
221.434
 30
9.1
 11
-258.539
 21
221.245
 31
9.1
  0
LINE
  5
ADB
330
A02
100
AcDbEntity
  8
Mesh_cs001
100
AcDbLine
 10
-258.539
 20
221.245
 30
9.1
 11
-258.521
 21
221.184
 31
9.1
  0
LINE
  5
ADC
330
A02
100
AcDbEntity
  8
Mesh_cs001
100
AcDbLine
 10
-258.521
 20
221.184
 30
9.1
 11
-258.479
 21
221.04
 31
9.1
  0
LINE
  5
ADD
330
A02
100
AcDbEntity
  8
Mesh_cs001
100
AcDbLine
 10
-258.479
 20
221.04
 30
9.1
 11
-258.451
 21
220.945
 31
9.1
  0
LINE
  5
ADE
330
A02
100
AcDbEntity
  8
Mesh_cs001
100
AcDbLine
 10
-258.451
 20
220.945
 30
9.1
 11
-258.414
 21
220.78
 31
9.1
  0
LINE
  5
ADF
330
A02
100
AcDbEntity
  8
Mesh_cs001
100
AcDbLine
 10
-258.414
 20
220.78
 30
9.1
 11
-258.364
 21
220.548
 31
9.1
  0
LINE
  5
AE0
330
A02
100
AcDbEntity
  8
Mesh_cs001
100
AcDbLine
 10
-258.364
 20
220.548
 30
9.1
 11
-258.352
 21
220.462
 31
9.1
  0
LINE
  5
AE1
330
A02
100
AcDbEntity
  8
Mesh_cs001
100
AcDbLine
 10
-258.352
 20
220.462
 30
9.1
 11
-258.316
 21
220.202
 31
9.1
  0
LINE
  5
AE2
330
A02
100
AcDbEntity
  8
Mesh_cs001
100
AcDbLine
 10
-258.316
 20
220.202
 30
9.1
 11
-258.296
 21
219.886
 31
9.1
  0
LINE
  5
AE3
330
A02
100
AcDbEntity
  8
Mesh_cs001
100
AcDbLine
 10
-258.296
 20
219.886
 30
9.1
 11
-258.288
 21
219.711
 31
9.1
  0
LINE
  5
AE4
330
A02
100
AcDbEntity
  8
Mesh_cs001
100
AcDbLine
 10
-258.288
 20
219.711
 30
9.1
 11
-257.821
 21
218.96
 31
9.1
  0
LINE
  5
AE5
330
A02
100
AcDbEntity
  8
Mesh_cs001
100
AcDbLine
 10
-257.821
 20
218.96
 30
9.1
 11
-256.355
 21
216.603
 31
9.1
  0
LINE
  5
AE6
330
A02
100
AcDbEntity
  8
Mesh_cs001
100
AcDbLine
 10
-256.355
 20
216.603
 30
9.1
 11
-255.894
 21
215.847
 31
9.1
  0
LINE
  5
AE7
330
A02
100
AcDbEntity
  8
Mesh_cs001
100
AcDbLine
 10
-255.894
 20
215.847
 30
9.1
 11
-254.448
 21
213.475
 31
9.1
  0
LINE
  5
AE8
330
A02
100
AcDbEntity
  8
Mesh_cs001
100
AcDbLine
 10
-254.448
 20
213.475
 30
9.1
 11
-253.994
 21
212.716
 31
9.1
  0
LINE
  5
AE9
330
A02
100
AcDbEntity
  8
Mesh_cs001
100
AcDbLine
 10
-253.994
 20
212.716
 30
9.1
 11
-252.57
 21
210.334
 31
9.1
  0
LINE
  5
AEA
330
A02
100
AcDbEntity
  8
Mesh_cs001
100
AcDbLine
 10
-252.57
 20
210.334
 30
9.1
 11
-252.123
 21
209.57
 31
9.1
  0
LINE
  5
AEB
330
A02
100
AcDbEntity
  8
Mesh_cs001
100
AcDbLine
 10
-252.123
 20
209.57
 30
9.1
 11
-250.72
 21
207.176
 31
9.1
  0
LINE
  5
AEC
330
A02
100
AcDbEntity
  8
Mesh_cs001
100
AcDbLine
 10
-250.72
 20
207.176
 30
9.1
 11
-249.338
 21
204.769
 31
9.1
  0
LINE
  5
AED
330
A02
100
AcDbEntity
  8
Mesh_cs001
100
AcDbLine
 10
-249.338
 20
204.769
 30
9.1
 11
-248.898
 21
204.001
 31
9.1
  0
LINE
  5
AEE
330
A02
100
AcDbEntity
  8
Mesh_cs001
100
AcDbLine
 10
-248.898
 20
204.001
 30
9.1
 11
-248.465
 21
203.231
 31
9.1
  0
LINE
  5
AEF
330
A02
100
AcDbEntity
  8
Mesh_cs001
100
AcDbLine
 10
-248.465
 20
203.231
 30
9.1
 11
-247.105
 21
200.811
 31
9.1
  0
LINE
  5
AF0
330
A02
100
AcDbEntity
  8
Mesh_cs001
100
AcDbLine
 10
-247.105
 20
200.811
 30
9.1
 11
-245.766
 21
198.38
 31
9.1
  0
LINE
  5
AF1
330
A02
100
AcDbEntity
  8
Mesh_cs001
100
AcDbLine
 10
-245.766
 20
198.38
 30
9.1
 11
-245.339
 21
197.606
 31
9.1
  0
LINE
  5
AF2
330
A02
100
AcDbEntity
  8
Mesh_cs001
100
AcDbLine
 10
-245.339
 20
197.606
 30
9.1
 11
-244.92
 21
196.827
 31
9.1
  0
LINE
  5
AF3
330
A02
100
AcDbEntity
  8
Mesh_cs001
100
AcDbLine
 10
-244.92
 20
196.827
 30
9.1
 11
-243.603
 21
194.384
 31
9.1
  0
LINE
  5
AF4
330
A02
100
AcDbEntity
  8
Mesh_cs001
100
AcDbLine
 10
-243.603
 20
194.384
 30
9.1
 11
-243.19
 21
193.602
 31
9.1
  0
LINE
  5
AF5
330
A02
100
AcDbEntity
  8
Mesh_cs001
100
AcDbLine
 10
-243.19
 20
193.602
 30
9.1
 11
-241.895
 21
191.148
 31
9.1
  0
LINE
  5
AF6
330
A02
100
AcDbEntity
  8
Mesh_cs001
100
AcDbLine
 10
-241.895
 20
191.148
 30
9.1
 11
-240.621
 21
188.682
 31
9.1
  0
LINE
  5
AF7
330
A02
100
AcDbEntity
  8
Mesh_cs001
100
AcDbLine
 10
-240.621
 20
188.682
 30
9.1
 11
-240.216
 21
187.896
 31
9.1
  0
LINE
  5
AF8
330
A02
100
AcDbEntity
  8
Mesh_cs001
100
AcDbLine
 10
-240.216
 20
187.896
 30
9.1
 11
-239.817
 21
187.107
 31
9.1
  0
LINE
  5
AF9
330
A02
100
AcDbEntity
  8
Mesh_cs001
100
AcDbLine
 10
-239.817
 20
187.107
 30
9.1
 11
-238.565
 21
184.63
 31
9.1
  0
LINE
  5
AFA
330
A02
100
AcDbEntity
  8
Mesh_cs001
100
AcDbLine
 10
-238.565
 20
184.63
 30
9.1
 11
-237.336
 21
182.143
 31
9.1
  0
LINE
  5
AFB
330
A02
100
AcDbEntity
  8
Mesh_cs001
100
AcDbLine
 10
-237.336
 20
182.143
 30
9.1
 11
-236.944
 21
181.35
 31
9.1
  0
LINE
  5
AFC
330
A02
100
AcDbEntity
  8
Mesh_cs001
100
AcDbLine
 10
-236.944
 20
181.35
 30
9.1
 11
-235.737
 21
178.851
 31
9.1
  0
LINE
  5
AFD
330
A02
100
AcDbEntity
  8
Mesh_cs001
100
AcDbLine
 10
-235.737
 20
178.851
 30
9.1
 11
-235.352
 21
178.055
 31
9.1
  0
LINE
  5
AFE
330
A02
100
AcDbEntity
  8
Mesh_cs001
100
AcDbLine
 10
-235.352
 20
178.055
 30
9.1
 11
-234.974
 21
177.256
 31
9.1
  0
LINE
  5
AFF
330
A02
100
AcDbEntity
  8
Mesh_cs001
100
AcDbLine
 10
-234.974
 20
177.256
 30
9.1
 11
-233.789
 21
174.747
 31
9.1
  0
LINE
  5
B00
330
A02
100
AcDbEntity
  8
Mesh_cs001
100
AcDbLine
 10
-233.789
 20
174.747
 30
9.1
 11
-233.418
 21
173.944
 31
9.1
  0
LINE
  5
B01
330
A02
100
AcDbEntity
  8
Mesh_cs001
100
AcDbLine
 10
-233.418
 20
173.944
 30
9.1
 11
-232.255
 21
171.424
 31
9.1
  0
LINE
  5
B02
330
A02
100
AcDbEntity
  8
Mesh_cs001
100
AcDbLine
 10
-232.255
 20
171.424
 30
9.1
 11
-231.115
 21
168.895
 31
9.1
  0
LINE
  5
B03
330
A02
100
AcDbEntity
  8
Mesh_cs001
100
AcDbLine
 10
-231.115
 20
168.895
 30
9.1
 11
-230.752
 21
168.089
 31
9.1
  0
LINE
  5
B04
330
A02
100
AcDbEntity
  8
Mesh_cs001
100
AcDbLine
 10
-230.752
 20
168.089
 30
9.1
 11
-230.395
 21
167.279
 31
9.1
  0
LINE
  5
B05
330
A02
100
AcDbEntity
  8
Mesh_cs001
100
AcDbLine
 10
-230.395
 20
167.279
 30
9.1
 11
-229.277
 21
164.74
 31
9.1
  0
LINE
  5
B06
330
A02
100
AcDbEntity
  8
Mesh_cs001
100
AcDbLine
 10
-229.277
 20
164.74
 30
9.1
 11
-228.928
 21
163.928
 31
9.1
  0
LINE
  5
B07
330
A02
100
AcDbEntity
  8
Mesh_cs001
100
AcDbLine
 10
-228.928
 20
163.928
 30
9.1
 11
-227.833
 21
161.378
 31
9.1
  0
LINE
  5
B08
330
A02
100
AcDbEntity
  8
Mesh_cs001
100
AcDbLine
 10
-227.833
 20
161.378
 30
9.1
 11
-227.491
 21
160.563
 31
9.1
  0
LINE
  5
B09
330
A02
100
AcDbEntity
  8
Mesh_cs001
100
AcDbLine
 10
-227.491
 20
160.563
 30
9.1
 11
-226.418
 21
158.004
 31
9.1
  0
LINE
  5
B0A
330
A02
100
AcDbEntity
  8
Mesh_cs001
100
AcDbLine
 10
-226.418
 20
158.004
 30
9.1
 11
-226.083
 21
157.186
 31
9.1
  0
LINE
  5
B0B
330
A02
100
AcDbEntity
  8
Mesh_cs001
100
AcDbLine
 10
-226.083
 20
157.186
 30
9.1
 11
-225.033
 21
154.618
 31
9.1
  0
LINE
  5
B0C
330
A02
100
AcDbEntity
  8
Mesh_cs001
100
AcDbLine
 10
-225.033
 20
154.618
 30
9.1
 11
-224.706
 21
153.796
 31
9.1
  0
LINE
  5
B0D
330
A02
100
AcDbEntity
  8
Mesh_cs001
100
AcDbLine
 10
-224.706
 20
153.796
 30
9.1
 11
-223.679
 21
151.219
 31
9.1
  0
LINE
  5
B0E
330
A02
100
AcDbEntity
  8
Mesh_cs001
100
AcDbLine
 10
-223.679
 20
151.219
 30
9.1
 11
-223.359
 21
150.395
 31
9.1
  0
LINE
  5
B0F
330
A02
100
AcDbEntity
  8
Mesh_cs001
100
AcDbLine
 10
-223.359
 20
150.395
 30
9.1
 11
-222.354
 21
147.809
 31
9.1
  0
LINE
  5
B10
330
A02
100
AcDbEntity
  8
Mesh_cs001
100
AcDbLine
 10
-222.354
 20
147.809
 30
9.1
 11
-222.042
 21
146.982
 31
9.1
  0
LINE
  5
B11
330
A02
100
AcDbEntity
  8
Mesh_cs001
100
AcDbLine
 10
-222.042
 20
146.982
 30
9.1
 11
-221.06
 21
144.387
 31
9.1
  0
LINE
  5
B12
330
A02
100
AcDbEntity
  8
Mesh_cs001
100
AcDbLine
 10
-221.06
 20
144.387
 30
9.1
 11
-220.755
 21
143.557
 31
9.1
  0
LINE
  5
B13
330
A02
100
AcDbEntity
  8
Mesh_cs001
100
AcDbLine
 10
-220.755
 20
143.557
 30
9.1
 11
-219.796
 21
140.953
 31
9.1
  0
LINE
  5
B14
330
A02
100
AcDbEntity
  8
Mesh_cs001
100
AcDbLine
 10
-219.796
 20
140.953
 30
9.1
 11
-219.498
 21
140.121
 31
9.1
  0
LINE
  5
B15
330
A02
100
AcDbEntity
  8
Mesh_cs001
100
AcDbLine
 10
-219.498
 20
140.121
 30
9.1
 11
-218.563
 21
137.509
 31
9.1
  0
LINE
  5
B16
330
A02
100
AcDbEntity
  8
Mesh_cs001
100
AcDbLine
 10
-218.563
 20
137.509
 30
9.1
 11
-218.273
 21
136.674
 31
9.1
  0
LINE
  5
B17
330
A02
100
AcDbEntity
  8
Mesh_cs001
100
AcDbLine
 10
-218.273
 20
136.674
 30
9.1
 11
-217.361
 21
134.054
 31
9.1
  0
LINE
  5
B18
330
A02
100
AcDbEntity
  8
Mesh_cs001
100
AcDbLine
 10
-217.361
 20
134.054
 30
9.1
 11
-216.472
 21
131.426
 31
9.1
  0
LINE
  5
B19
330
A02
100
AcDbEntity
  8
Mesh_cs001
100
AcDbLine
 10
-216.472
 20
131.426
 30
9.1
 11
-216.188
 21
130.589
 31
9.1
  0
LINE
  5
B1A
330
A02
100
AcDbEntity
  8
Mesh_cs001
100
AcDbLine
 10
-216.188
 20
130.589
 30
9.1
 11
-215.913
 21
129.749
 31
9.1
  0
LINE
  5
B1B
330
A02
100
AcDbEntity
  8
Mesh_cs001
100
AcDbLine
 10
-215.913
 20
129.749
 30
9.1
 11
-215.047
 21
127.113
 31
9.1
  0
LINE
  5
B1C
330
A02
100
AcDbEntity
  8
Mesh_cs001
100
AcDbLine
 10
-215.047
 20
127.113
 30
9.1
 11
-214.75
 21
126.177
 31
9.1
  0
LINE
  5
B1D
330
A02
100
AcDbEntity
  8
Mesh_cs001
100
AcDbLine
 10
-214.75
 20
126.177
 30
9.1
 11
-213.815
 21
123.24
 31
9.1
  0
LINE
  5
B1E
330
A02
100
AcDbEntity
  8
Mesh_cs001
100
AcDbLine
 10
-213.815
 20
123.24
 30
9.1
 11
-213.527
 21
122.301
 31
9.1
  0
LINE
  5
B1F
330
A02
100
AcDbEntity
  8
Mesh_cs001
100
AcDbLine
 10
-213.527
 20
122.301
 30
9.1
 11
-212.622
 21
119.355
 31
9.1
  0
LINE
  5
B20
330
A02
100
AcDbEntity
  8
Mesh_cs001
100
AcDbLine
 10
-212.622
 20
119.355
 30
9.1
 11
-212.342
 21
118.413
 31
9.1
  0
LINE
  5
B21
330
A02
100
AcDbEntity
  8
Mesh_cs001
100
AcDbLine
 10
-212.342
 20
118.413
 30
9.1
 11
-211.466
 21
115.458
 31
9.1
  0
LINE
  5
B22
330
A02
100
AcDbEntity
  8
Mesh_cs001
100
AcDbLine
 10
-211.466
 20
115.458
 30
9.1
 11
-211.196
 21
114.514
 31
9.1
  0
LINE
  5
B23
330
A02
100
AcDbEntity
  8
Mesh_cs001
100
AcDbLine
 10
-211.196
 20
114.514
 30
9.1
 11
-210.349
 21
111.55
 31
9.1
  0
LINE
  5
B24
330
A02
100
AcDbEntity
  8
Mesh_cs001
100
AcDbLine
 10
-210.349
 20
111.55
 30
9.1
 11
-210.089
 21
110.604
 31
9.1
  0
LINE
  5
B25
330
A02
100
AcDbEntity
  8
Mesh_cs001
100
AcDbLine
 10
-210.089
 20
110.604
 30
9.1
 11
-209.271
 21
107.632
 31
9.1
  0
LINE
  5
B26
330
A02
100
AcDbEntity
  8
Mesh_cs001
100
AcDbLine
 10
-209.271
 20
107.632
 30
9.1
 11
-208.483
 21
104.653
 31
9.1
  0
LINE
  5
B27
330
A02
100
AcDbEntity
  8
Mesh_cs001
100
AcDbLine
 10
-208.483
 20
104.653
 30
9.1
 11
-208.231
 21
103.703
 31
9.1
  0
LINE
  5
B28
330
A02
100
AcDbEntity
  8
Mesh_cs001
100
AcDbLine
 10
-208.231
 20
103.703
 30
9.1
 11
-207.989
 21
102.751
 31
9.1
  0
LINE
  5
B29
330
A02
100
AcDbEntity
  8
Mesh_cs001
100
AcDbLine
 10
-207.989
 20
102.751
 30
9.1
 11
-207.23
 21
99.7646
 31
9.1
  0
LINE
  5
B2A
330
A02
100
AcDbEntity
  8
Mesh_cs001
100
AcDbLine
 10
-207.23
 20
99.7646
 30
9.1
 11
-206.998
 21
98.8104
 31
9.1
  0
LINE
  5
B2B
330
A02
100
AcDbEntity
  8
Mesh_cs001
100
AcDbLine
 10
-206.998
 20
98.8104
 30
9.1
 11
-206.268
 21
95.8163
 31
9.1
  0
LINE
  5
B2C
330
A02
100
AcDbEntity
  8
Mesh_cs001
100
AcDbLine
 10
-206.268
 20
95.8163
 30
9.1
 11
-205.568
 21
92.8153
 31
9.1
  0
LINE
  5
B2D
330
A02
100
AcDbEntity
  8
Mesh_cs001
100
AcDbLine
 10
-205.568
 20
92.8153
 30
9.1
 11
-205.345
 21
91.8589
 31
9.1
  0
LINE
  5
B2E
330
A02
100
AcDbEntity
  8
Mesh_cs001
100
AcDbLine
 10
-205.345
 20
91.8589
 30
9.1
 11
-205.131
 21
90.9004
 31
9.1
  0
LINE
  5
B2F
330
A02
100
AcDbEntity
  8
Mesh_cs001
100
AcDbLine
 10
-205.131
 20
90.9004
 30
9.1
 11
-204.46
 21
87.8927
 31
9.1
  0
LINE
  5
B30
330
A02
100
AcDbEntity
  8
Mesh_cs001
100
AcDbLine
 10
-204.46
 20
87.8927
 30
9.1
 11
-204.256
 21
86.9321
 31
9.1
  0
LINE
  5
B31
330
A02
100
AcDbEntity
  8
Mesh_cs001
100
AcDbLine
 10
-204.256
 20
86.9321
 30
9.1
 11
-203.615
 21
83.918
 31
9.1
  0
LINE
  5
B32
330
A02
100
AcDbEntity
  8
Mesh_cs001
100
AcDbLine
 10
-203.615
 20
83.918
 30
9.1
 11
-203.42
 21
82.9556
 31
9.1
  0
LINE
  5
B33
330
A02
100
AcDbEntity
  8
Mesh_cs001
100
AcDbLine
 10
-203.42
 20
82.9556
 30
9.1
 11
-202.809
 21
79.9354
 31
9.1
  0
LINE
  5
B34
330
A02
100
AcDbEntity
  8
Mesh_cs001
100
AcDbLine
 10
-202.809
 20
79.9354
 30
9.1
 11
-202.228
 21
76.9094
 31
9.1
  0
LINE
  5
B35
330
A02
100
AcDbEntity
  8
Mesh_cs001
100
AcDbLine
 10
-202.228
 20
76.9094
 30
9.1
 11
-202.042
 21
75.9451
 31
9.1
  0
LINE
  5
B36
330
A02
100
AcDbEntity
  8
Mesh_cs001
100
AcDbLine
 10
-202.042
 20
75.9451
 30
9.1
 11
-201.867
 21
74.979
 31
9.1
  0
LINE
  5
B37
330
A02
100
AcDbEntity
  8
Mesh_cs001
100
AcDbLine
 10
-201.867
 20
74.979
 30
9.1
 11
-201.315
 21
71.9475
 31
9.1
  0
LINE
  5
B38
330
A02
100
AcDbEntity
  8
Mesh_cs001
100
AcDbLine
 10
-201.315
 20
71.9475
 30
9.1
 11
-201.149
 21
70.9798
 31
9.1
  0
LINE
  5
B39
330
A02
100
AcDbEntity
  8
Mesh_cs001
100
AcDbLine
 10
-201.149
 20
70.9798
 30
9.1
 11
-200.627
 21
67.9431
 31
9.1
  0
LINE
  5
B3A
330
A02
100
AcDbEntity
  8
Mesh_cs001
100
AcDbLine
 10
-200.627
 20
67.9431
 30
9.1
 11
-200.135
 21
64.9015
 31
9.1
  0
LINE
  5
B3B
330
A02
100
AcDbEntity
  8
Mesh_cs001
100
AcDbLine
 10
-200.135
 20
64.9015
 30
9.1
 11
-199.978
 21
63.9322
 31
9.1
  0
LINE
  5
B3C
330
A02
100
AcDbEntity
  8
Mesh_cs001
100
AcDbLine
 10
-199.978
 20
63.9322
 30
9.1
 11
-199.831
 21
62.9614
 31
9.1
  0
LINE
  5
B3D
330
A02
100
AcDbEntity
  8
Mesh_cs001
100
AcDbLine
 10
-199.831
 20
62.9614
 30
9.1
 11
-199.369
 21
59.9152
 31
9.1
  0
LINE
  5
B3E
330
A02
100
AcDbEntity
  8
Mesh_cs001
100
AcDbLine
 10
-199.369
 20
59.9152
 30
9.1
 11
-198.937
 21
56.8646
 31
9.1
  0
LINE
  5
B3F
330
A02
100
AcDbEntity
  8
Mesh_cs001
100
AcDbLine
 10
-198.937
 20
56.8646
 30
9.1
 11
-198.799
 21
55.8925
 31
9.1
  0
LINE
  5
B40
330
A02
100
AcDbEntity
  8
Mesh_cs001
100
AcDbLine
 10
-198.799
 20
55.8925
 30
9.1
 11
-198.671
 21
54.919
 31
9.1
  0
LINE
  5
B41
330
A02
100
AcDbEntity
  8
Mesh_cs001
100
AcDbLine
 10
-198.671
 20
54.919
 30
9.1
 11
-198.269
 21
51.8645
 31
9.1
  0
LINE
  5
B42
330
A02
100
AcDbEntity
  8
Mesh_cs001
100
AcDbLine
 10
-198.269
 20
51.8645
 30
9.1
 11
-197.898
 21
48.8062
 31
9.1
  0
LINE
  5
B43
330
A02
100
AcDbEntity
  8
Mesh_cs001
100
AcDbLine
 10
-197.898
 20
48.8062
 30
9.1
 11
-197.779
 21
47.8315
 31
9.1
  0
LINE
  5
B44
330
A02
100
AcDbEntity
  8
Mesh_cs001
100
AcDbLine
 10
-197.779
 20
47.8315
 30
9.1
 11
-197.67
 21
46.8558
 31
9.1
  0
LINE
  5
B45
330
A02
100
AcDbEntity
  8
Mesh_cs001
100
AcDbLine
 10
-197.67
 20
46.8558
 30
9.1
 11
-197.328
 21
43.7941
 31
9.1
  0
LINE
  5
B46
330
A02
100
AcDbEntity
  8
Mesh_cs001
100
AcDbLine
 10
-197.328
 20
43.7941
 30
9.1
 11
-197.229
 21
42.8174
 31
9.1
  0
LINE
  5
B47
330
A02
100
AcDbEntity
  8
Mesh_cs001
100
AcDbLine
 10
-197.229
 20
42.8174
 30
9.1
 11
-196.918
 21
39.7525
 31
9.1
  0
LINE
  5
B48
330
A02
100
AcDbEntity
  8
Mesh_cs001
100
AcDbLine
 10
-196.918
 20
39.7525
 30
9.1
 11
-196.828
 21
38.7749
 31
9.1
  0
LINE
  5
B49
330
A02
100
AcDbEntity
  8
Mesh_cs001
100
AcDbLine
 10
-196.828
 20
38.7749
 30
9.1
 11
-196.546
 21
35.7071
 31
9.1
  0
LINE
  5
B4A
330
A02
100
AcDbEntity
  8
Mesh_cs001
100
AcDbLine
 10
-196.546
 20
35.7071
 30
9.1
 11
-196.468
 21
34.7533
 31
9.1
  0
LINE
  5
B4B
330
A02
100
AcDbEntity
  8
Mesh_cs001
100
AcDbLine
 10
-196.468
 20
34.7533
 30
9.1
 11
-196.223
 21
31.7603
 31
9.1
  0
LINE
  5
B4C
330
A02
100
AcDbEntity
  8
Mesh_cs001
100
AcDbLine
 10
1.93333e-15
 20
285.174
 30
9.1
 11
1.93333e-15
 21
285.671
 31
9.1
  0
LINE
  5
B4D
330
A02
100
AcDbEntity
  8
Mesh_cs001
100
AcDbLine
 10
1.93333e-15
 20
285.671
 30
9.1
 11
0
 21
300.074
 31
9.1
  0
LINE
  5
B4E
330
A02
100
AcDbEntity
  8
Mesh_cs001
100
AcDbLine
 10
0
 20
300.074
 30
9.1
 11
-14.4033
 21
300.074
 31
9.1
  0
LINE
  5
B4F
330
A02
100
AcDbEntity
  8
Mesh_cs001
100
AcDbLine
 10
-14.4033
 20
300.074
 30
9.1
 11
-14.9
 21
300.074
 31
9.1
  0
LINE
  5
B50
330
A02
100
AcDbEntity
  8
Mesh_cs001
100
AcDbLine
 10
-14.9
 20
300.074
 30
9.1
 11
-14.9
 21
299.577
 31
9.1
  0
LINE
  5
B51
330
A02
100
AcDbEntity
  8
Mesh_cs001
100
AcDbLine
 10
-14.9
 20
299.577
 30
9.1
 11
-14.9
 21
285.174
 31
9.1
  0
LINE
  5
B52
330
A02
100
AcDbEntity
  8
Mesh_cs001
100
AcDbLine
 10
-14.9
 20
285.174
 30
9.1
 11
-0.496668
 21
285.174
 31
9.1
  0
LINE
  5
B53
330
A02
100
AcDbEntity
  8
Mesh_cs001
100
AcDbLine
 10
-0.496668
 20
285.174
 30
9.1
 11
1.94289e-15
 21
285.174
 31
9.1
  0
LINE
  5
B54
330
A02
100
AcDbEntity
  8
Mesh_cs001
100
AcDbLine
 10
-180.1
 20
14.9
 30
9.1
 11
-180.1
 21
14.4033
 31
9.1
  0
LINE
  5
B55
330
A02
100
AcDbEntity
  8
Mesh_cs001
100
AcDbLine
 10
-180.1
 20
14.4033
 30
9.1
 11
-180.1
 21
5.15143e-14
 31
9.1
  0
LINE
  5
B56
330
A02
100
AcDbEntity
  8
Mesh_cs001
100
AcDbLine
 10
-180.1
 20
5.1e-14
 30
9.1
 11
-180.597
 21
5.1e-14
 31
9.1
  0
LINE
  5
B57
330
A02
100
AcDbEntity
  8
Mesh_cs001
100
AcDbLine
 10
-180.597
 20
5.1e-14
 30
9.1
 11
-195
 21
5.1e-14
 31
9.1
  0
LINE
  5
B58
330
A02
100
AcDbEntity
  8
Mesh_cs001
100
AcDbLine
 10
-195
 20
5.1e-14
 30
9.1
 11
-195
 21
14.4033
 31
9.1
  0
LINE
  5
B59
330
A02
100
AcDbEntity
  8
Mesh_cs001
100
AcDbLine
 10
-195
 20
14.4033
 30
9.1
 11
-195
 21
14.9
 31
9.1
  0
LINE
  5
B5A
330
A02
100
AcDbEntity
  8
Mesh_cs001
100
AcDbLine
 10
-195
 20
14.9
 30
9.1
 11
-194.503
 21
14.9
 31
9.1
  0
LINE
  5
B5B
330
A02
100
AcDbEntity
  8
Mesh_cs001
100
AcDbLine
 10
-194.503
 20
14.9
 30
9.1
 11
-180.1
 21
14.9
 31
9.1
  0
LINE
  5
B5C
330
A02
100
AcDbEntity
  8
Mesh_cs001
100
AcDbLine
 10
-14.9
 20
14.9
 30
9.1
 11
-14.4033
 21
14.9
 31
9.1
  0
LINE
  5
B5D
330
A02
100
AcDbEntity
  8
Mesh_cs001
100
AcDbLine
 10
-14.4033
 20
14.9
 30
9.1
 11
0
 21
14.9
 31
9.1
  0
LINE
  5
B5E
330
A02
100
AcDbEntity
  8
Mesh_cs001
100
AcDbLine
 10
0
 20
14.9
 30
9.1
 11
0
 21
14.4033
 31
9.1
  0
LINE
  5
B5F
330
A02
100
AcDbEntity
  8
Mesh_cs001
100
AcDbLine
 10
0
 20
14.4033
 30
9.1
 11
0
 21
5.32907e-14
 31
9.1
  0
LINE
  5
B60
330
A02
100
AcDbEntity
  8
Mesh_cs001
100
AcDbLine
 10
0
 20
5.4e-14
 30
9.1
 11
-14.4033
 21
5.11e-14
 31
9.1
  0
LINE
  5
B61
330
A02
100
AcDbEntity
  8
Mesh_cs001
100
AcDbLine
 10
-14.4033
 20
5.11e-14
 30
9.1
 11
-14.9
 21
5.1e-14
 31
9.1
  0
LINE
  5
B62
330
A02
100
AcDbEntity
  8
Mesh_cs001
100
AcDbLine
 10
-14.9
 20
5.1e-14
 30
9.1
 11
-14.9
 21
14.4033
 31
9.1
  0
LINE
  5
B63
330
A02
100
AcDbEntity
  8
Mesh_cs001
100
AcDbLine
 10
-14.9
 20
14.4033
 30
9.1
 11
-14.9
 21
14.9
 31
9.1
  0
ENDSEC
  0
SECTION
  2
OBJECTS
  0
DICTIONARY
  5
F000
330
0
100
AcDbDictionary
  3
ACAD_GROUP
350
F001
  0
DICTIONARY
  5
F001
330
F000
100
AcDbDictionary
  0
ENDSEC
  0
EOF