999
FreeCAD v0.21 33771 (Git)
  0
SECTION
  2
HEADER
  9
$ACADVER
  1
AC1014
  9
$ACADMAINTVER
 70
     9
  9
$DWGCODEPAGE
  3
ANSI_1252
  9
$TEXTSTYLE
  7
STANDARD
  9
$DIMSTYLE
  2
STANDARD
  9
$DIMTXSTY
  7
STANDARD
  9
$CMLSTYLE
  2
STANDARD
  9
$LUNITS
 70
2
  9
$INSUNITS
 70
4
  9
$PEXTMAX
 10
50
 20
50
 30
50
  9
$PEXTMIN
 10
0
 20
0
 30
0
  9
$HANDSEED
  5
FFFF
  0
ENDSEC
  0
SECTION
  2
CLASSES
  0
CLASS
  1
ACDBDICTIONARYWDFLT
  2
AcDbDictionaryWithDefault
  3
ObjectDBX Classes
 90
        0
280
     0
281
     0
  0
CLASS
  1
XRECORD
  2
AcDbXrecord
  3
ObjectDBX Classes
 90
        0
280
     0
281
     0
  0
CLASS
  1
LWPOLYLINE
  2
AcDbPolyline
  3
ObjectDBX Classes
 90
        0
280
     0
281
     1
  0
ENDSEC
  0
SECTION
  2
TABLES
  0
TABLE
  2
VPORT
  5
20
330
0
100
AcDbSymbolTable
 70
     1
  0
VPORT
  5
21
330
20
100
AcDbSymbolTableRecord
100
AcDbViewportTableRecord
  2
*ACTIVE
 70
     0
  0
ENDTAB
  0
TABLE
  2
LTYPE
  5
22
330
0
100
AcDbSymbolTable
 70
     1
  0
LTYPE
  5
23
330
21
100
AcDbSymbolTableRecord
100
AcDbLinetypeTableRecord
  2
BYBLOCK
 70
     0
  3

 72
    65
 73
     0
 40
0.0
  0
LTYPE
  5
24
330
21
100
AcDbSymbolTableRecord
100
AcDbLinetypeTableRecord
  2
BYLAYER
 70
     0
  3

 72
    65
 73
     0
 40
0.0
  0
LTYPE
  5
25
330
21
100
AcDbSymbolTableRecord
100
AcDbLinetypeTableRecord
  2
CONTINUOUS
 70
     0
  3
Solid line
 72
    65
 73
     0
 40
0.0
  0
ENDTAB
  0
TABLE
  2
LAYER
  5
B06
330
0
100
AcDbSymbolTable
 70
3
  0
LAYER
  5
B07
330
B06
100
AcDbSymbolTableRecord
100
AcDbLayerTableRecord
  2
0
 70
   0
 62
   7
  6
CONTINUOUS
  0
LAYER
  5
B08
330
B06
100
AcDbSymbolTableRecord
100
AcDbLayerTableRecord
  2
none
 70
    0
 62
    7
  6
CONTINUOUS
  0
LAYER
  5
B09
330
B06
100
AcDbSymbolTableRecord
100
AcDbLayerTableRecord
  2
Mesh_cs001
 70
    0
 62
    7
  6
CONTINUOUS
  0
ENDTAB
  0
TABLE
  2
STYLE
  5
70
330
0
100
AcDbSymbolTable
 70
     2
  0
STYLE
  5
71
330
70
100
AcDbSymbolTableRecord
100
AcDbTextStyleTableRecord
  2
STANDARD
 70
     0
 40
0.0
 41
1.0
 50
0.0
 71
     0
 42
2.5
  3
arial.ttf
  4

  0
STYLE
  5
72
330
70
100
AcDbSymbolTableRecord
100
AcDbTextStyleTableRecord
  2
ANNOTATIVE
 70
     0
 40
0.0
 41
1.0
 50
0.0
 71
     0
 42
2.5
  3
arial.ttf
  4

  0
ENDTAB
  0
TABLE
  2
VIEW
  5
73
330
0
100
AcDbSymbolTable
 70
     0
  0
ENDTAB
  0
TABLE
  2
UCS
  5
74
330
0
100
AcDbSymbolTable
 70
     0
  0
ENDTAB
  0
TABLE
  2
APPID
  5
75
330
0
100
AcDbSymbolTable
 70
     2
  0
APPID
  5
76
330
75
100
AcDbSymbolTableRecord
100
AcDbRegAppTableRecord
  2
ACAD
 70
     0
  0
APPID
  5
77
330
75
100
AcDbSymbolTableRecord
100
AcDbRegAppTableRecord
  2
ACADANNOTATIVE
 70
     0
  0
ENDTAB
  0
TABLE
  2
DIMSTYLE
  5
78
330
0
100
AcDbSymbolTable
 70
     2
  0
DIMSTYLE
105
79
330
78
100
AcDbSymbolTableRecord
100
AcDbDimStyleTableRecord
  2
STANDARD
 70
     0
  3

  4

  5

  6

  7

 40
0.0
 41
2.5
 42
0.625
 43
3.75
 44
1.25
 45
0.0
 46
0.0
 47
0.0
 48
0.0
140
2.5
141
2.5
142
0.0
143
0.03937007874016
144
1.0
145
0.0
146
1.0
147
0.625
 71
     0
 72
     0
 73
     0
 74
     0
 75
     0
 76
     0
 77
     1
 78
     8
170
     0
171
     3
172
     1
173
     0
174
     0
175
     0
176
     0
177
     0
178
     0
270
     2
271
     2
272
     2
273
     2
274
     3
340
71
275
     0
280
     0
281
     0
282
     0
283
     0
284
     8
285
     0
286
     0
287
     3
288
     0
  0
ENDTAB
  0
TABLE
  2
BLOCK_RECORD
  5
A01
330
0
100
AcDbSymbolTable
  70
5
  0
BLOCK_RECORD
  5
A02
330
A01
100
AcDbSymbolTableRecord
100
AcDbBlockTableRecord
  2
*MODEL_SPACE
  0
BLOCK_RECORD
  5
A03
330
A01
100
AcDbSymbolTableRecord
100
AcDbBlockTableRecord
  2
*PAPER_SPACE
  0
ENDTAB
  0
ENDSEC
  0
SECTION
  2
BLOCKS
  0
BLOCK
  5
A04
330
A02
100
AcDbEntity
  8
0
100
AcDbBlockBegin
  2
*MODEL_SPACE
 70
   0
 10
0
 20
0
 30
0
  3
*MODEL_SPACE
  1
 
  0
ENDBLK
  5
A05
330
A02
100
AcDbEntity
  8
0
100
AcDbBlockEnd
  0
BLOCK
  5
A06
330
A03
100
AcDbEntity
 67
1
  8
0
100
AcDbBlockBegin
  2
*PAPER_SPACE
 70
   0
 10
0
 20
0
 30
0
  3
*PAPER_SPACE
  1
 
  0
ENDBLK
  5
A07
330
A03
100
AcDbEntity
 67
    1
  8
0
100
AcDbBlockEnd
  0
ENDSEC
  0
SECTION
  2
ENTITIES
  0
LINE
  5
A08
330
A02
100
AcDbEntity
  8
Mesh_cs001
100
AcDbLine
 10
195
 20
8.44333
 30
5.1
 11
195
 21
0
 31
5.1
  0
LINE
  5
A09
330
A02
100
AcDbEntity
  8
Mesh_cs001
100
AcDbLine
 10
195
 20
0
 30
5.1
 11
186.557
 21
0
 31
5.1
  0
LINE
  5
A0A
330
A02
100
AcDbEntity
  8
Mesh_cs001
100
AcDbLine
 10
186.557
 20
0
 30
5.1
 11
180.89
 21
-2.26667e-15
 31
5.1
  0
LINE
  5
A0B
330
A02
100
AcDbEntity
  8
Mesh_cs001
100
AcDbLine
 10
180.89
 20
-2.26667e-15
 30
5.1
 11
157.909
 21
0
 31
5.1
  0
LINE
  5
A0C
330
A02
100
AcDbEntity
  8
Mesh_cs001
100
AcDbLine
 10
157.909
 20
0
 30
5.1
 11
141.682
 21
0
 31
5.1
  0
LINE
  5
A0D
330
A02
100
AcDbEntity
  8
Mesh_cs001
100
AcDbLine
 10
141.682
 20
0
 30
5.1
 11
98.61
 21
0
 31
5.1
  0
LINE
  5
A0E
330
A02
100
AcDbEntity
  8
Mesh_cs001
100
AcDbLine
 10
98.61
 20
0
 30
5.1
 11
14.11
 21
0
 31
5.1
  0
LINE
  5
A0F
330
A02
100
AcDbEntity
  8
Mesh_cs001
100
AcDbLine
 10
14.11
 20
0
 30
5.1
 11
8.44333
 21
0
 31
5.1
  0
LINE
  5
A10
330
A02
100
AcDbEntity
  8
Mesh_cs001
100
AcDbLine
 10
8.44333
 20
0
 30
5.1
 11
0
 21
0
 31
5.1
  0
LINE
  5
A11
330
A02
100
AcDbEntity
  8
Mesh_cs001
100
AcDbLine
 10
0
 20
0
 30
5.1
 11
0
 21
8.44333
 31
5.1
  0
LINE
  5
A12
330
A02
100
AcDbEntity
  8
Mesh_cs001
100
AcDbLine
 10
0
 20
8.44333
 30
5.1
 11
0
 21
14.11
 31
5.1
  0
LINE
  5
A13
330
A02
100
AcDbEntity
  8
Mesh_cs001
100
AcDbLine
 10
0
 20
14.11
 30
5.1
 11
5.66667e-16
 21
155.932
 31
5.1
  0
LINE
  5
A14
330
A02
100
AcDbEntity
  8
Mesh_cs001
100
AcDbLine
 10
5.66667e-16
 20
155.932
 30
5.1
 11
5.66667e-16
 21
285.964
 31
5.1
  0
LINE
  5
A15
330
A02
100
AcDbEntity
  8
Mesh_cs001
100
AcDbLine
 10
5.66667e-16
 20
285.964
 30
5.1
 11
-1.13333e-15
 21
291.631
 31
5.1
  0
LINE
  5
A16
330
A02
100
AcDbEntity
  8
Mesh_cs001
100
AcDbLine
 10
-1.13333e-15
 20
291.631
 30
5.1
 11
1.97215e-31
 21
300.074
 31
5.1
  0
LINE
  5
A17
330
A02
100
AcDbEntity
  8
Mesh_cs001
100
AcDbLine
 10
0
 20
300.074
 30
5.1
 11
8.44333
 21
300.074
 31
5.1
  0
LINE
  5
A18
330
A02
100
AcDbEntity
  8
Mesh_cs001
100
AcDbLine
 10
8.44333
 20
300.074
 30
5.1
 11
14.11
 21
300.074
 31
5.1
  0
LINE
  5
A19
330
A02
100
AcDbEntity
  8
Mesh_cs001
100
AcDbLine
 10
14.11
 20
300.074
 30
5.1
 11
98.61
 21
300.074
 31
5.1
  0
LINE
  5
A1A
330
A02
100
AcDbEntity
  8
Mesh_cs001
100
AcDbLine
 10
98.61
 20
300.074
 30
5.1
 11
141.682
 21
300.074
 31
5.1
  0
LINE
  5
A1B
330
A02
100
AcDbEntity
  8
Mesh_cs001
100
AcDbLine
 10
141.682
 20
300.074
 30
5.1
 11
157.909
 21
300.074
 31
5.1
  0
LINE
  5
A1C
330
A02
100
AcDbEntity
  8
Mesh_cs001
100
AcDbLine
 10
157.909
 20
300.074
 30
5.1
 11
180.89
 21
300.074
 31
5.1
  0
LINE
  5
A1D
330
A02
100
AcDbEntity
  8
Mesh_cs001
100
AcDbLine
 10
180.89
 20
300.074
 30
5.1
 11
186.557
 21
300.074
 31
5.1
  0
LINE
  5
A1E
330
A02
100
AcDbEntity
  8
Mesh_cs001
100
AcDbLine
 10
186.557
 20
300.074
 30
5.1
 11
195
 21
300.074
 31
5.1
  0
LINE
  5
A1F
330
A02
100
AcDbEntity
  8
Mesh_cs001
100
AcDbLine
 10
195
 20
300.074
 30
5.1
 11
195
 21
291.631
 31
5.1
  0
LINE
  5
A20
330
A02
100
AcDbEntity
  8
Mesh_cs001
100
AcDbLine
 10
195
 20
291.631
 30
5.1
 11
195
 21
285.964
 31
5.1
  0
LINE
  5
A21
330
A02
100
AcDbEntity
  8
Mesh_cs001
100
AcDbLine
 10
195
 20
285.964
 30
5.1
 11
195
 21
155.932
 31
5.1
  0
LINE
  5
A22
330
A02
100
AcDbEntity
  8
Mesh_cs001
100
AcDbLine
 10
195
 20
155.932
 30
5.1
 11
195
 21
14.11
 31
5.1
  0
LINE
  5
A23
330
A02
100
AcDbEntity
  8
Mesh_cs001
100
AcDbLine
 10
195
 20
14.11
 30
5.1
 11
195
 21
8.44333
 31
5.1
  0
LINE
  5
A24
330
A02
100
AcDbEntity
  8
Mesh_cs001
100
AcDbLine
 10
14.9043
 20
19.9324
 30
5.1
 11
15.0704
 21
21.1941
 31
5.1
  0
LINE
  5
A25
330
A02
100
AcDbEntity
  8
Mesh_cs001
100
AcDbLine
 10
15.0704
 20
21.1941
 30
5.1
 11
15.5574
 21
22.3699
 31
5.1
  0
LINE
  5
A26
330
A02
100
AcDbEntity
  8
Mesh_cs001
100
AcDbLine
 10
15.5574
 20
22.3699
 30
5.1
 11
15.5699
 21
22.4
 31
5.1
  0
LINE
  5
A27
330
A02
100
AcDbEntity
  8
Mesh_cs001
100
AcDbLine
 10
15.5699
 20
22.4
 30
5.1
 11
15.5897
 21
22.4259
 31
5.1
  0
LINE
  5
A28
330
A02
100
AcDbEntity
  8
Mesh_cs001
100
AcDbLine
 10
15.5897
 20
22.4259
 30
5.1
 11
16.3645
 21
23.4355
 31
5.1
  0
LINE
  5
A29
330
A02
100
AcDbEntity
  8
Mesh_cs001
100
AcDbLine
 10
16.3645
 20
23.4355
 30
5.1
 11
16.3904
 21
23.4554
 31
5.1
  0
LINE
  5
A2A
330
A02
100
AcDbEntity
  8
Mesh_cs001
100
AcDbLine
 10
16.3904
 20
23.4554
 30
5.1
 11
17.4
 21
24.2301
 31
5.1
  0
LINE
  5
A2B
330
A02
100
AcDbEntity
  8
Mesh_cs001
100
AcDbLine
 10
17.4
 20
24.2301
 30
5.1
 11
18.5758
 21
24.7171
 31
5.1
  0
LINE
  5
A2C
330
A02
100
AcDbEntity
  8
Mesh_cs001
100
AcDbLine
 10
18.5758
 20
24.7171
 30
5.1
 11
18.6059
 21
24.7296
 31
5.1
  0
LINE
  5
A2D
330
A02
100
AcDbEntity
  8
Mesh_cs001
100
AcDbLine
 10
18.6059
 20
24.7296
 30
5.1
 11
19.8676
 21
24.8957
 31
5.1
  0
LINE
  5
A2E
330
A02
100
AcDbEntity
  8
Mesh_cs001
100
AcDbLine
 10
19.8676
 20
24.8957
 30
5.1
 11
19.9
 21
24.9
 31
5.1
  0
LINE
  5
A2F
330
A02
100
AcDbEntity
  8
Mesh_cs001
100
AcDbLine
 10
19.9
 20
24.9
 30
5.1
 11
19.9324
 21
24.8957
 31
5.1
  0
LINE
  5
A30
330
A02
100
AcDbEntity
  8
Mesh_cs001
100
AcDbLine
 10
19.9324
 20
24.8957
 30
5.1
 11
21.1941
 21
24.7296
 31
5.1
  0
LINE
  5
A31
330
A02
100
AcDbEntity
  8
Mesh_cs001
100
AcDbLine
 10
21.1941
 20
24.7296
 30
5.1
 11
21.2242
 21
24.7171
 31
5.1
  0
LINE
  5
A32
330
A02
100
AcDbEntity
  8
Mesh_cs001
100
AcDbLine
 10
21.2242
 20
24.7171
 30
5.1
 11
22.4
 21
24.2301
 31
5.1
  0
LINE
  5
A33
330
A02
100
AcDbEntity
  8
Mesh_cs001
100
AcDbLine
 10
22.4
 20
24.2301
 30
5.1
 11
22.4259
 21
24.2103
 31
5.1
  0
LINE
  5
A34
330
A02
100
AcDbEntity
  8
Mesh_cs001
100
AcDbLine
 10
22.4259
 20
24.2103
 30
5.1
 11
23.4355
 21
23.4355
 31
5.1
  0
LINE
  5
A35
330
A02
100
AcDbEntity
  8
Mesh_cs001
100
AcDbLine
 10
23.4355
 20
23.4355
 30
5.1
 11
24.2103
 21
22.4259
 31
5.1
  0
LINE
  5
A36
330
A02
100
AcDbEntity
  8
Mesh_cs001
100
AcDbLine
 10
24.2103
 20
22.4259
 30
5.1
 11
24.2301
 21
22.4
 31
5.1
  0
LINE
  5
A37
330
A02
100
AcDbEntity
  8
Mesh_cs001
100
AcDbLine
 10
24.2301
 20
22.4
 30
5.1
 11
24.2426
 21
22.3699
 31
5.1
  0
LINE
  5
A38
330
A02
100
AcDbEntity
  8
Mesh_cs001
100
AcDbLine
 10
24.2426
 20
22.3699
 30
5.1
 11
24.7296
 21
21.1941
 31
5.1
  0
LINE
  5
A39
330
A02
100
AcDbEntity
  8
Mesh_cs001
100
AcDbLine
 10
24.7296
 20
21.1941
 30
5.1
 11
24.8957
 21
19.9324
 31
5.1
  0
LINE
  5
A3A
330
A02
100
AcDbEntity
  8
Mesh_cs001
100
AcDbLine
 10
24.8957
 20
19.9324
 30
5.1
 11
24.9
 21
19.9
 31
5.1
  0
LINE
  5
A3B
330
A02
100
AcDbEntity
  8
Mesh_cs001
100
AcDbLine
 10
24.9
 20
19.9
 30
5.1
 11
24.8957
 21
19.8676
 31
5.1
  0
LINE
  5
A3C
330
A02
100
AcDbEntity
  8
Mesh_cs001
100
AcDbLine
 10
24.8957
 20
19.8676
 30
5.1
 11
24.7296
 21
18.6059
 31
5.1
  0
LINE
  5
A3D
330
A02
100
AcDbEntity
  8
Mesh_cs001
100
AcDbLine
 10
24.7296
 20
18.6059
 30
5.1
 11
24.7171
 21
18.5758
 31
5.1
  0
LINE
  5
A3E
330
A02
100
AcDbEntity
  8
Mesh_cs001
100
AcDbLine
 10
24.7171
 20
18.5758
 30
5.1
 11
24.2301
 21
17.4
 31
5.1
  0
LINE
  5
A3F
330
A02
100
AcDbEntity
  8
Mesh_cs001
100
AcDbLine
 10
24.2301
 20
17.4
 30
5.1
 11
24.2103
 21
17.3741
 31
5.1
  0
LINE
  5
A40
330
A02
100
AcDbEntity
  8
Mesh_cs001
100
AcDbLine
 10
24.2103
 20
17.3741
 30
5.1
 11
23.4355
 21
16.3645
 31
5.1
  0
LINE
  5
A41
330
A02
100
AcDbEntity
  8
Mesh_cs001
100
AcDbLine
 10
23.4355
 20
16.3645
 30
5.1
 11
23.4096
 21
16.3446
 31
5.1
  0
LINE
  5
A42
330
A02
100
AcDbEntity
  8
Mesh_cs001
100
AcDbLine
 10
23.4096
 20
16.3446
 30
5.1
 11
22.4
 21
15.5699
 31
5.1
  0
LINE
  5
A43
330
A02
100
AcDbEntity
  8
Mesh_cs001
100
AcDbLine
 10
22.4
 20
15.5699
 30
5.1
 11
22.3699
 21
15.5574
 31
5.1
  0
LINE
  5
A44
330
A02
100
AcDbEntity
  8
Mesh_cs001
100
AcDbLine
 10
22.3699
 20
15.5574
 30
5.1
 11
21.1941
 21
15.0704
 31
5.1
  0
LINE
  5
A45
330
A02
100
AcDbEntity
  8
Mesh_cs001
100
AcDbLine
 10
21.1941
 20
15.0704
 30
5.1
 11
19.9324
 21
14.9043
 31
5.1
  0
LINE
  5
A46
330
A02
100
AcDbEntity
  8
Mesh_cs001
100
AcDbLine
 10
19.9324
 20
14.9043
 30
5.1
 11
19.9
 21
14.9
 31
5.1
  0
LINE
  5
A47
330
A02
100
AcDbEntity
  8
Mesh_cs001
100
AcDbLine
 10
19.9
 20
14.9
 30
5.1
 11
19.8676
 21
14.9043
 31
5.1
  0
LINE
  5
A48
330
A02
100
AcDbEntity
  8
Mesh_cs001
100
AcDbLine
 10
19.8676
 20
14.9043
 30
5.1
 11
18.6059
 21
15.0704
 31
5.1
  0
LINE
  5
A49
330
A02
100
AcDbEntity
  8
Mesh_cs001
100
AcDbLine
 10
18.6059
 20
15.0704
 30
5.1
 11
17.4301
 21
15.5574
 31
5.1
  0
LINE
  5
A4A
330
A02
100
AcDbEntity
  8
Mesh_cs001
100
AcDbLine
 10
17.4301
 20
15.5574
 30
5.1
 11
17.4
 21
15.5699
 31
5.1
  0
LINE
  5
A4B
330
A02
100
AcDbEntity
  8
Mesh_cs001
100
AcDbLine
 10
17.4
 20
15.5699
 30
5.1
 11
17.3741
 21
15.5897
 31
5.1
  0
LINE
  5
A4C
330
A02
100
AcDbEntity
  8
Mesh_cs001
100
AcDbLine
 10
17.3741
 20
15.5897
 30
5.1
 11
16.3645
 21
16.3645
 31
5.1
  0
LINE
  5
A4D
330
A02
100
AcDbEntity
  8
Mesh_cs001
100
AcDbLine
 10
16.3645
 20
16.3645
 30
5.1
 11
15.5897
 21
17.3741
 31
5.1
  0
LINE
  5
A4E
330
A02
100
AcDbEntity
  8
Mesh_cs001
100
AcDbLine
 10
15.5897
 20
17.3741
 30
5.1
 11
15.5699
 21
17.4
 31
5.1
  0
LINE
  5
A4F
330
A02
100
AcDbEntity
  8
Mesh_cs001
100
AcDbLine
 10
15.5699
 20
17.4
 30
5.1
 11
15.5574
 21
17.4301
 31
5.1
  0
LINE
  5
A50
330
A02
100
AcDbEntity
  8
Mesh_cs001
100
AcDbLine
 10
15.5574
 20
17.4301
 30
5.1
 11
15.0704
 21
18.6059
 31
5.1
  0
LINE
  5
A51
330
A02
100
AcDbEntity
  8
Mesh_cs001
100
AcDbLine
 10
15.0704
 20
18.6059
 30
5.1
 11
15.0661
 21
18.6383
 31
5.1
  0
LINE
  5
A52
330
A02
100
AcDbEntity
  8
Mesh_cs001
100
AcDbLine
 10
15.0661
 20
18.6383
 30
5.1
 11
14.9
 21
19.9
 31
5.1
  0
LINE
  5
A53
330
A02
100
AcDbEntity
  8
Mesh_cs001
100
AcDbLine
 10
14.9
 20
19.9
 30
5.1
 11
14.9043
 21
19.9324
 31
5.1
  0
LINE
  5
A54
330
A02
100
AcDbEntity
  8
Mesh_cs001
100
AcDbLine
 10
15.1649
 20
278.572
 30
5.1
 11
15.1727
 21
278.546
 31
5.1
  0
LINE
  5
A55
330
A02
100
AcDbEntity
  8
Mesh_cs001
100
AcDbLine
 10
15.1727
 20
278.546
 30
5.1
 11
15.667
 21
277.516
 31
5.1
  0
LINE
  5
A56
330
A02
100
AcDbEntity
  8
Mesh_cs001
100
AcDbLine
 10
15.667
 20
277.516
 30
5.1
 11
15.6802
 21
277.492
 31
5.1
  0
LINE
  5
A57
330
A02
100
AcDbEntity
  8
Mesh_cs001
100
AcDbLine
 10
15.6802
 20
277.492
 30
5.1
 11
16.3489
 21
276.657
 31
5.1
  0
LINE
  5
A58
330
A02
100
AcDbEntity
  8
Mesh_cs001
100
AcDbLine
 10
16.3489
 20
276.657
 30
5.1
 11
16.3664
 21
276.637
 31
5.1
  0
LINE
  5
A59
330
A02
100
AcDbEntity
  8
Mesh_cs001
100
AcDbLine
 10
16.3664
 20
276.637
 30
5.1
 11
17.1265
 21
276.016
 31
5.1
  0
LINE
  5
A5A
330
A02
100
AcDbEntity
  8
Mesh_cs001
100
AcDbLine
 10
17.1265
 20
276.016
 30
5.1
 11
17.1467
 21
276.001
 31
5.1
  0
LINE
  5
A5B
330
A02
100
AcDbEntity
  8
Mesh_cs001
100
AcDbLine
 10
17.1467
 20
276.001
 30
5.1
 11
17.9683
 21
275.564
 31
5.1
  0
LINE
  5
A5C
330
A02
100
AcDbEntity
  8
Mesh_cs001
100
AcDbLine
 10
17.9683
 20
275.564
 30
5.1
 11
17.9897
 21
275.554
 31
5.1
  0
LINE
  5
A5D
330
A02
100
AcDbEntity
  8
Mesh_cs001
100
AcDbLine
 10
17.9897
 20
275.554
 30
5.1
 11
18.9622
 21
275.265
 31
5.1
  0
LINE
  5
A5E
330
A02
100
AcDbEntity
  8
Mesh_cs001
100
AcDbLine
 10
18.9622
 20
275.265
 30
5.1
 11
18.9833
 21
275.259
 31
5.1
  0
LINE
  5
A5F
330
A02
100
AcDbEntity
  8
Mesh_cs001
100
AcDbLine
 10
18.9833
 20
275.259
 30
5.1
 11
18.9945
 21
275.257
 31
5.1
  0
LINE
  5
A60
330
A02
100
AcDbEntity
  8
Mesh_cs001
100
AcDbLine
 10
18.9945
 20
275.257
 30
5.1
 11
20.0903
 21
275.179
 31
5.1
  0
LINE
  5
A61
330
A02
100
AcDbEntity
  8
Mesh_cs001
100
AcDbLine
 10
20.0903
 20
275.179
 30
5.1
 11
20.101
 21
275.178
 31
5.1
  0
LINE
  5
A62
330
A02
100
AcDbEntity
  8
Mesh_cs001
100
AcDbLine
 10
20.101
 20
275.178
 30
5.1
 11
20.1133
 21
275.179
 31
5.1
  0
LINE
  5
A63
330
A02
100
AcDbEntity
  8
Mesh_cs001
100
AcDbLine
 10
20.1133
 20
275.179
 30
5.1
 11
20.1259
 21
275.181
 31
5.1
  0
LINE
  5
A64
330
A02
100
AcDbEntity
  8
Mesh_cs001
100
AcDbLine
 10
20.1259
 20
275.181
 30
5.1
 11
21.2736
 21
275.367
 31
5.1
  0
LINE
  5
A65
330
A02
100
AcDbEntity
  8
Mesh_cs001
100
AcDbLine
 10
21.2736
 20
275.367
 30
5.1
 11
21.298
 21
275.375
 31
5.1
  0
LINE
  5
A66
330
A02
100
AcDbEntity
  8
Mesh_cs001
100
AcDbLine
 10
21.298
 20
275.375
 30
5.1
 11
22.3992
 21
275.845
 31
5.1
  0
LINE
  5
A67
330
A02
100
AcDbEntity
  8
Mesh_cs001
100
AcDbLine
 10
22.3992
 20
275.845
 30
5.1
 11
22.4224
 21
275.858
 31
5.1
  0
LINE
  5
A68
330
A02
100
AcDbEntity
  8
Mesh_cs001
100
AcDbLine
 10
22.4224
 20
275.858
 30
5.1
 11
23.3755
 21
276.582
 31
5.1
  0
LINE
  5
A69
330
A02
100
AcDbEntity
  8
Mesh_cs001
100
AcDbLine
 10
23.3755
 20
276.582
 30
5.1
 11
23.3957
 21
276.6
 31
5.1
  0
LINE
  5
A6A
330
A02
100
AcDbEntity
  8
Mesh_cs001
100
AcDbLine
 10
23.3957
 20
276.6
 30
5.1
 11
24.1248
 21
277.504
 31
5.1
  0
LINE
  5
A6B
330
A02
100
AcDbEntity
  8
Mesh_cs001
100
AcDbLine
 10
24.1248
 20
277.504
 30
5.1
 11
24.1421
 21
277.528
 31
5.1
  0
LINE
  5
A6C
330
A02
100
AcDbEntity
  8
Mesh_cs001
100
AcDbLine
 10
24.1421
 20
277.528
 30
5.1
 11
24.6158
 21
278.517
 31
5.1
  0
LINE
  5
A6D
330
A02
100
AcDbEntity
  8
Mesh_cs001
100
AcDbLine
 10
24.6158
 20
278.517
 30
5.1
 11
24.6273
 21
278.547
 31
5.1
  0
LINE
  5
A6E
330
A02
100
AcDbEntity
  8
Mesh_cs001
100
AcDbLine
 10
24.6273
 20
278.547
 30
5.1
 11
24.8339
 21
279.366
 31
5.1
  0
LINE
  5
A6F
330
A02
100
AcDbEntity
  8
Mesh_cs001
100
AcDbLine
 10
24.8339
 20
279.366
 30
5.1
 11
24.8375
 21
279.396
 31
5.1
  0
LINE
  5
A70
330
A02
100
AcDbEntity
  8
Mesh_cs001
100
AcDbLine
 10
24.8375
 20
279.396
 30
5.1
 11
24.9
 21
280.174
 31
5.1
  0
LINE
  5
A71
330
A02
100
AcDbEntity
  8
Mesh_cs001
100
AcDbLine
 10
24.9
 20
280.174
 30
5.1
 11
24.7555
 21
281.352
 31
5.1
  0
LINE
  5
A72
330
A02
100
AcDbEntity
  8
Mesh_cs001
100
AcDbLine
 10
24.7555
 20
281.352
 30
5.1
 11
24.7517
 21
281.383
 31
5.1
  0
LINE
  5
A73
330
A02
100
AcDbEntity
  8
Mesh_cs001
100
AcDbLine
 10
24.7517
 20
281.383
 30
5.1
 11
24.3273
 21
282.49
 31
5.1
  0
LINE
  5
A74
330
A02
100
AcDbEntity
  8
Mesh_cs001
100
AcDbLine
 10
24.3273
 20
282.49
 30
5.1
 11
24.3159
 21
282.519
 31
5.1
  0
LINE
  5
A75
330
A02
100
AcDbEntity
  8
Mesh_cs001
100
AcDbLine
 10
24.3159
 20
282.519
 30
5.1
 11
23.6646
 21
283.46
 31
5.1
  0
LINE
  5
A76
330
A02
100
AcDbEntity
  8
Mesh_cs001
100
AcDbLine
 10
23.6646
 20
283.46
 30
5.1
 11
23.6465
 21
283.485
 31
5.1
  0
LINE
  5
A77
330
A02
100
AcDbEntity
  8
Mesh_cs001
100
AcDbLine
 10
23.6465
 20
283.485
 30
5.1
 11
22.7564
 21
284.274
 31
5.1
  0
LINE
  5
A78
330
A02
100
AcDbEntity
  8
Mesh_cs001
100
AcDbLine
 10
22.7564
 20
284.274
 30
5.1
 11
22.7313
 21
284.295
 31
5.1
  0
LINE
  5
A79
330
A02
100
AcDbEntity
  8
Mesh_cs001
100
AcDbLine
 10
22.7313
 20
284.295
 30
5.1
 11
21.6657
 21
284.849
 31
5.1
  0
LINE
  5
A7A
330
A02
100
AcDbEntity
  8
Mesh_cs001
100
AcDbLine
 10
21.6657
 20
284.849
 30
5.1
 11
21.6385
 21
284.862
 31
5.1
  0
LINE
  5
A7B
330
A02
100
AcDbEntity
  8
Mesh_cs001
100
AcDbLine
 10
21.6385
 20
284.862
 30
5.1
 11
20.494
 21
285.136
 31
5.1
  0
LINE
  5
A7C
330
A02
100
AcDbEntity
  8
Mesh_cs001
100
AcDbLine
 10
20.494
 20
285.136
 30
5.1
 11
20.4677
 21
285.142
 31
5.1
  0
LINE
  5
A7D
330
A02
100
AcDbEntity
  8
Mesh_cs001
100
AcDbLine
 10
20.4677
 20
285.142
 30
5.1
 11
20.4417
 21
285.142
 31
5.1
  0
LINE
  5
A7E
330
A02
100
AcDbEntity
  8
Mesh_cs001
100
AcDbLine
 10
20.4417
 20
285.142
 30
5.1
 11
19.3206
 21
285.14
 31
5.1
  0
LINE
  5
A7F
330
A02
100
AcDbEntity
  8
Mesh_cs001
100
AcDbLine
 10
19.3206
 20
285.14
 30
5.1
 11
19.2964
 21
285.135
 31
5.1
  0
LINE
  5
A80
330
A02
100
AcDbEntity
  8
Mesh_cs001
100
AcDbLine
 10
19.2964
 20
285.135
 30
5.1
 11
18.2802
 21
284.904
 31
5.1
  0
LINE
  5
A81
330
A02
100
AcDbEntity
  8
Mesh_cs001
100
AcDbLine
 10
18.2802
 20
284.904
 30
5.1
 11
18.2588
 21
284.896
 31
5.1
  0
LINE
  5
A82
330
A02
100
AcDbEntity
  8
Mesh_cs001
100
AcDbLine
 10
18.2588
 20
284.896
 30
5.1
 11
17.3945
 21
284.501
 31
5.1
  0
LINE
  5
A83
330
A02
100
AcDbEntity
  8
Mesh_cs001
100
AcDbLine
 10
17.3945
 20
284.501
 30
5.1
 11
17.3766
 21
284.489
 31
5.1
  0
LINE
  5
A84
330
A02
100
AcDbEntity
  8
Mesh_cs001
100
AcDbLine
 10
17.3766
 20
284.489
 30
5.1
 11
16.6034
 21
283.933
 31
5.1
  0
LINE
  5
A85
330
A02
100
AcDbEntity
  8
Mesh_cs001
100
AcDbLine
 10
16.6034
 20
283.933
 30
5.1
 11
15.8834
 21
283.15
 31
5.1
  0
LINE
  5
A86
330
A02
100
AcDbEntity
  8
Mesh_cs001
100
AcDbLine
 10
15.8834
 20
283.15
 30
5.1
 11
15.8708
 21
283.135
 31
5.1
  0
LINE
  5
A87
330
A02
100
AcDbEntity
  8
Mesh_cs001
100
AcDbLine
 10
15.8708
 20
283.135
 30
5.1
 11
15.3137
 21
282.16
 31
5.1
  0
LINE
  5
A88
330
A02
100
AcDbEntity
  8
Mesh_cs001
100
AcDbLine
 10
15.3137
 20
282.16
 30
5.1
 11
15.303
 21
282.141
 31
5.1
  0
LINE
  5
A89
330
A02
100
AcDbEntity
  8
Mesh_cs001
100
AcDbLine
 10
15.303
 20
282.141
 30
5.1
 11
15.2954
 21
282.118
 31
5.1
  0
LINE
  5
A8A
330
A02
100
AcDbEntity
  8
Mesh_cs001
100
AcDbLine
 10
15.2954
 20
282.118
 30
5.1
 11
14.9668
 21
280.987
 31
5.1
  0
LINE
  5
A8B
330
A02
100
AcDbEntity
  8
Mesh_cs001
100
AcDbLine
 10
14.9668
 20
280.987
 30
5.1
 11
14.9636
 21
280.962
 31
5.1
  0
LINE
  5
A8C
330
A02
100
AcDbEntity
  8
Mesh_cs001
100
AcDbLine
 10
14.9636
 20
280.962
 30
5.1
 11
14.9178
 21
279.762
 31
5.1
  0
LINE
  5
A8D
330
A02
100
AcDbEntity
  8
Mesh_cs001
100
AcDbLine
 10
14.9178
 20
279.762
 30
5.1
 11
14.9199
 21
279.735
 31
5.1
  0
LINE
  5
A8E
330
A02
100
AcDbEntity
  8
Mesh_cs001
100
AcDbLine
 10
14.9199
 20
279.735
 30
5.1
 11
15.1649
 21
278.572
 31
5.1
  0
LINE
  5
A8F
330
A02
100
AcDbEntity
  8
Mesh_cs001
100
AcDbLine
 10
179.835
 20
278.572
 30
5.1
 11
179.827
 21
278.546
 31
5.1
  0
LINE
  5
A90
330
A02
100
AcDbEntity
  8
Mesh_cs001
100
AcDbLine
 10
179.827
 20
278.546
 30
5.1
 11
179.333
 21
277.516
 31
5.1
  0
LINE
  5
A91
330
A02
100
AcDbEntity
  8
Mesh_cs001
100
AcDbLine
 10
179.333
 20
277.516
 30
5.1
 11
179.32
 21
277.492
 31
5.1
  0
LINE
  5
A92
330
A02
100
AcDbEntity
  8
Mesh_cs001
100
AcDbLine
 10
179.32
 20
277.492
 30
5.1
 11
178.651
 21
276.657
 31
5.1
  0
LINE
  5
A93
330
A02
100
AcDbEntity
  8
Mesh_cs001
100
AcDbLine
 10
178.651
 20
276.657
 30
5.1
 11
178.634
 21
276.637
 31
5.1
  0
LINE
  5
A94
330
A02
100
AcDbEntity
  8
Mesh_cs001
100
AcDbLine
 10
178.634
 20
276.637
 30
5.1
 11
177.873
 21
276.016
 31
5.1
  0
LINE
  5
A95
330
A02
100
AcDbEntity
  8
Mesh_cs001
100
AcDbLine
 10
177.873
 20
276.016
 30
5.1
 11
177.853
 21
276.001
 31
5.1
  0
LINE
  5
A96
330
A02
100
AcDbEntity
  8
Mesh_cs001
100
AcDbLine
 10
177.853
 20
276.001
 30
5.1
 11
177.032
 21
275.564
 31
5.1
  0
LINE
  5
A97
330
A02
100
AcDbEntity
  8
Mesh_cs001
100
AcDbLine
 10
177.032
 20
275.564
 30
5.1
 11
177.01
 21
275.554
 31
5.1
  0
LINE
  5
A98
330
A02
100
AcDbEntity
  8
Mesh_cs001
100
AcDbLine
 10
177.01
 20
275.554
 30
5.1
 11
176.038
 21
275.265
 31
5.1
  0
LINE
  5
A99
330
A02
100
AcDbEntity
  8
Mesh_cs001
100
AcDbLine
 10
176.038
 20
275.265
 30
5.1
 11
176.017
 21
275.259
 31
5.1
  0
LINE
  5
A9A
330
A02
100
AcDbEntity
  8
Mesh_cs001
100
AcDbLine
 10
176.017
 20
275.259
 30
5.1
 11
176.005
 21
275.257
 31
5.1
  0
LINE
  5
A9B
330
A02
100
AcDbEntity
  8
Mesh_cs001
100
AcDbLine
 10
176.005
 20
275.257
 30
5.1
 11
174.91
 21
275.179
 31
5.1
  0
LINE
  5
A9C
330
A02
100
AcDbEntity
  8
Mesh_cs001
100
AcDbLine
 10
174.91
 20
275.179
 30
5.1
 11
174.899
 21
275.178
 31
5.1
  0
LINE
  5
A9D
330
A02
100
AcDbEntity
  8
Mesh_cs001
100
AcDbLine
 10
174.899
 20
275.178
 30
5.1
 11
174.887
 21
275.179
 31
5.1
  0
LINE
  5
A9E
330
A02
100
AcDbEntity
  8
Mesh_cs001
100
AcDbLine
 10
174.887
 20
275.179
 30
5.1
 11
174.874
 21
275.181
 31
5.1
  0
LINE
  5
A9F
330
A02
100
AcDbEntity
  8
Mesh_cs001
100
AcDbLine
 10
174.874
 20
275.181
 30
5.1
 11
173.726
 21
275.367
 31
5.1
  0
LINE
  5
AA0
330
A02
100
AcDbEntity
  8
Mesh_cs001
100
AcDbLine
 10
173.726
 20
275.367
 30
5.1
 11
173.702
 21
275.375
 31
5.1
  0
LINE
  5
AA1
330
A02
100
AcDbEntity
  8
Mesh_cs001
100
AcDbLine
 10
173.702
 20
275.375
 30
5.1
 11
172.601
 21
275.845
 31
5.1
  0
LINE
  5
AA2
330
A02
100
AcDbEntity
  8
Mesh_cs001
100
AcDbLine
 10
172.601
 20
275.845
 30
5.1
 11
172.578
 21
275.858
 31
5.1
  0
LINE
  5
AA3
330
A02
100
AcDbEntity
  8
Mesh_cs001
100
AcDbLine
 10
172.578
 20
275.858
 30
5.1
 11
171.625
 21
276.582
 31
5.1
  0
LINE
  5
AA4
330
A02
100
AcDbEntity
  8
Mesh_cs001
100
AcDbLine
 10
171.625
 20
276.582
 30
5.1
 11
171.604
 21
276.6
 31
5.1
  0
LINE
  5
AA5
330
A02
100
AcDbEntity
  8
Mesh_cs001
100
AcDbLine
 10
171.604
 20
276.6
 30
5.1
 11
170.875
 21
277.504
 31
5.1
  0
LINE
  5
AA6
330
A02
100
AcDbEntity
  8
Mesh_cs001
100
AcDbLine
 10
170.875
 20
277.504
 30
5.1
 11
170.858
 21
277.528
 31
5.1
  0
LINE
  5
AA7
330
A02
100
AcDbEntity
  8
Mesh_cs001
100
AcDbLine
 10
170.858
 20
277.528
 30
5.1
 11
170.384
 21
278.517
 31
5.1
  0
LINE
  5
AA8
330
A02
100
AcDbEntity
  8
Mesh_cs001
100
AcDbLine
 10
170.384
 20
278.517
 30
5.1
 11
170.373
 21
278.547
 31
5.1
  0
LINE
  5
AA9
330
A02
100
AcDbEntity
  8
Mesh_cs001
100
AcDbLine
 10
170.373
 20
278.547
 30
5.1
 11
170.166
 21
279.366
 31
5.1
  0
LINE
  5
AAA
330
A02
100
AcDbEntity
  8
Mesh_cs001
100
AcDbLine
 10
170.166
 20
279.366
 30
5.1
 11
170.163
 21
279.396
 31
5.1
  0
LINE
  5
AAB
330
A02
100
AcDbEntity
  8
Mesh_cs001
100
AcDbLine
 10
170.163
 20
279.396
 30
5.1
 11
170.1
 21
280.174
 31
5.1
  0
LINE
  5
AAC
330
A02
100
AcDbEntity
  8
Mesh_cs001
100
AcDbLine
 10
170.1
 20
280.174
 30
5.1
 11
170.245
 21
281.352
 31
5.1
  0
LINE
  5
AAD
330
A02
100
AcDbEntity
  8
Mesh_cs001
100
AcDbLine
 10
170.245
 20
281.352
 30
5.1
 11
170.248
 21
281.383
 31
5.1
  0
LINE
  5
AAE
330
A02
100
AcDbEntity
  8
Mesh_cs001
100
AcDbLine
 10
170.248
 20
281.383
 30
5.1
 11
170.673
 21
282.49
 31
5.1
  0
LINE
  5
AAF
330
A02
100
AcDbEntity
  8
Mesh_cs001
100
AcDbLine
 10
170.673
 20
282.49
 30
5.1
 11
170.684
 21
282.519
 31
5.1
  0
LINE
  5
AB0
330
A02
100
AcDbEntity
  8
Mesh_cs001
100
AcDbLine
 10
170.684
 20
282.519
 30
5.1
 11
171.335
 21
283.46
 31
5.1
  0
LINE
  5
AB1
330
A02
100
AcDbEntity
  8
Mesh_cs001
100
AcDbLine
 10
171.335
 20
283.46
 30
5.1
 11
171.353
 21
283.485
 31
5.1
  0
LINE
  5
AB2
330
A02
100
AcDbEntity
  8
Mesh_cs001
100
AcDbLine
 10
171.353
 20
283.485
 30
5.1
 11
172.244
 21
284.274
 31
5.1
  0
LINE
  5
AB3
330
A02
100
AcDbEntity
  8
Mesh_cs001
100
AcDbLine
 10
172.244
 20
284.274
 30
5.1
 11
172.269
 21
284.295
 31
5.1
  0
LINE
  5
AB4
330
A02
100
AcDbEntity
  8
Mesh_cs001
100
AcDbLine
 10
172.269
 20
284.295
 30
5.1
 11
173.334
 21
284.849
 31
5.1
  0
LINE
  5
AB5
330
A02
100
AcDbEntity
  8
Mesh_cs001
100
AcDbLine
 10
173.334
 20
284.849
 30
5.1
 11
173.361
 21
284.862
 31
5.1
  0
LINE
  5
AB6
330
A02
100
AcDbEntity
  8
Mesh_cs001
100
AcDbLine
 10
173.361
 20
284.862
 30
5.1
 11
174.506
 21
285.136
 31
5.1
  0
LINE
  5
AB7
330
A02
100
AcDbEntity
  8
Mesh_cs001
100
AcDbLine
 10
174.506
 20
285.136
 30
5.1
 11
174.532
 21
285.142
 31
5.1
  0
LINE
  5
AB8
330
A02
100
AcDbEntity
  8
Mesh_cs001
100
AcDbLine
 10
174.532
 20
285.142
 30
5.1
 11
174.558
 21
285.142
 31
5.1
  0
LINE
  5
AB9
330
A02
100
AcDbEntity
  8
Mesh_cs001
100
AcDbLine
 10
174.558
 20
285.142
 30
5.1
 11
175.679
 21
285.14
 31
5.1
  0
LINE
  5
ABA
330
A02
100
AcDbEntity
  8
Mesh_cs001
100
AcDbLine
 10
175.679
 20
285.14
 30
5.1
 11
175.704
 21
285.135
 31
5.1
  0
LINE
  5
ABB
330
A02
100
AcDbEntity
  8
Mesh_cs001
100
AcDbLine
 10
175.704
 20
285.135
 30
5.1
 11
176.72
 21
284.904
 31
5.1
  0
LINE
  5
ABC
330
A02
100
AcDbEntity
  8
Mesh_cs001
100
AcDbLine
 10
176.72
 20
284.904
 30
5.1
 11
176.741
 21
284.896
 31
5.1
  0
LINE
  5
ABD
330
A02
100
AcDbEntity
  8
Mesh_cs001
100
AcDbLine
 10
176.741
 20
284.896
 30
5.1
 11
177.606
 21
284.501
 31
5.1
  0
LINE
  5
ABE
330
A02
100
AcDbEntity
  8
Mesh_cs001
100
AcDbLine
 10
177.606
 20
284.501
 30
5.1
 11
177.623
 21
284.489
 31
5.1
  0
LINE
  5
ABF
330
A02
100
AcDbEntity
  8
Mesh_cs001
100
AcDbLine
 10
177.623
 20
284.489
 30
5.1
 11
178.397
 21
283.933
 31
5.1
  0
LINE
  5
AC0
330
A02
100
AcDbEntity
  8
Mesh_cs001
100
AcDbLine
 10
178.397
 20
283.933
 30
5.1
 11
178.411
 21
283.92
 31
5.1
  0
LINE
  5
AC1
330
A02
100
AcDbEntity
  8
Mesh_cs001
100
AcDbLine
 10
178.411
 20
283.92
 30
5.1
 11
179.117
 21
283.15
 31
5.1
  0
LINE
  5
AC2
330
A02
100
AcDbEntity
  8
Mesh_cs001
100
AcDbLine
 10
179.117
 20
283.15
 30
5.1
 11
179.129
 21
283.135
 31
5.1
  0
LINE
  5
AC3
330
A02
100
AcDbEntity
  8
Mesh_cs001
100
AcDbLine
 10
179.129
 20
283.135
 30
5.1
 11
179.686
 21
282.16
 31
5.1
  0
LINE
  5
AC4
330
A02
100
AcDbEntity
  8
Mesh_cs001
100
AcDbLine
 10
179.686
 20
282.16
 30
5.1
 11
179.697
 21
282.141
 31
5.1
  0
LINE
  5
AC5
330
A02
100
AcDbEntity
  8
Mesh_cs001
100
AcDbLine
 10
179.697
 20
282.141
 30
5.1
 11
179.705
 21
282.118
 31
5.1
  0
LINE
  5
AC6
330
A02
100
AcDbEntity
  8
Mesh_cs001
100
AcDbLine
 10
179.705
 20
282.118
 30
5.1
 11
180.033
 21
280.987
 31
5.1
  0
LINE
  5
AC7
330
A02
100
AcDbEntity
  8
Mesh_cs001
100
AcDbLine
 10
180.033
 20
280.987
 30
5.1
 11
180.036
 21
280.962
 31
5.1
  0
LINE
  5
AC8
330
A02
100
AcDbEntity
  8
Mesh_cs001
100
AcDbLine
 10
180.036
 20
280.962
 30
5.1
 11
180.082
 21
279.762
 31
5.1
  0
LINE
  5
AC9
330
A02
100
AcDbEntity
  8
Mesh_cs001
100
AcDbLine
 10
180.082
 20
279.762
 30
5.1
 11
180.08
 21
279.735
 31
5.1
  0
LINE
  5
ACA
330
A02
100
AcDbEntity
  8
Mesh_cs001
100
AcDbLine
 10
180.08
 20
279.735
 30
5.1
 11
179.835
 21
278.572
 31
5.1
  0
LINE
  5
ACB
330
A02
100
AcDbEntity
  8
Mesh_cs001
100
AcDbLine
 10
179.835
 20
21.502
 30
5.1
 11
179.827
 21
21.5279
 31
5.1
  0
LINE
  5
ACC
330
A02
100
AcDbEntity
  8
Mesh_cs001
100
AcDbLine
 10
179.827
 20
21.5279
 30
5.1
 11
179.333
 21
22.5581
 31
5.1
  0
LINE
  5
ACD
330
A02
100
AcDbEntity
  8
Mesh_cs001
100
AcDbLine
 10
179.333
 20
22.5581
 30
5.1
 11
179.32
 21
22.5817
 31
5.1
  0
LINE
  5
ACE
330
A02
100
AcDbEntity
  8
Mesh_cs001
100
AcDbLine
 10
179.32
 20
22.5817
 30
5.1
 11
178.651
 21
23.4175
 31
5.1
  0
LINE
  5
ACF
330
A02
100
AcDbEntity
  8
Mesh_cs001
100
AcDbLine
 10
178.651
 20
23.4175
 30
5.1
 11
178.634
 21
23.4373
 31
5.1
  0
LINE
  5
AD0
330
A02
100
AcDbEntity
  8
Mesh_cs001
100
AcDbLine
 10
178.634
 20
23.4373
 30
5.1
 11
177.873
 21
24.0585
 31
5.1
  0
LINE
  5
AD1
330
A02
100
AcDbEntity
  8
Mesh_cs001
100
AcDbLine
 10
177.873
 20
24.0585
 30
5.1
 11
177.853
 21
24.0735
 31
5.1
  0
LINE
  5
AD2
330
A02
100
AcDbEntity
  8
Mesh_cs001
100
AcDbLine
 10
177.853
 20
24.0735
 30
5.1
 11
177.032
 21
24.5104
 31
5.1
  0
LINE
  5
AD3
330
A02
100
AcDbEntity
  8
Mesh_cs001
100
AcDbLine
 10
177.032
 20
24.5104
 30
5.1
 11
177.01
 21
24.5205
 31
5.1
  0
LINE
  5
AD4
330
A02
100
AcDbEntity
  8
Mesh_cs001
100
AcDbLine
 10
177.01
 20
24.5205
 30
5.1
 11
176.038
 21
24.8096
 31
5.1
  0
LINE
  5
AD5
330
A02
100
AcDbEntity
  8
Mesh_cs001
100
AcDbLine
 10
176.038
 20
24.8096
 30
5.1
 11
176.017
 21
24.8152
 31
5.1
  0
LINE
  5
AD6
330
A02
100
AcDbEntity
  8
Mesh_cs001
100
AcDbLine
 10
176.017
 20
24.8152
 30
5.1
 11
176.005
 21
24.8167
 31
5.1
  0
LINE
  5
AD7
330
A02
100
AcDbEntity
  8
Mesh_cs001
100
AcDbLine
 10
176.005
 20
24.8167
 30
5.1
 11
174.91
 21
24.8954
 31
5.1
  0
LINE
  5
AD8
330
A02
100
AcDbEntity
  8
Mesh_cs001
100
AcDbLine
 10
174.91
 20
24.8954
 30
5.1
 11
174.899
 21
24.8959
 31
5.1
  0
LINE
  5
AD9
330
A02
100
AcDbEntity
  8
Mesh_cs001
100
AcDbLine
 10
174.899
 20
24.8959
 30
5.1
 11
174.887
 21
24.8952
 31
5.1
  0
LINE
  5
ADA
330
A02
100
AcDbEntity
  8
Mesh_cs001
100
AcDbLine
 10
174.887
 20
24.8952
 30
5.1
 11
174.874
 21
24.8934
 31
5.1
  0
LINE
  5
ADB
330
A02
100
AcDbEntity
  8
Mesh_cs001
100
AcDbLine
 10
174.874
 20
24.8934
 30
5.1
 11
173.726
 21
24.7072
 31
5.1
  0
LINE
  5
ADC
330
A02
100
AcDbEntity
  8
Mesh_cs001
100
AcDbLine
 10
173.726
 20
24.7072
 30
5.1
 11
173.702
 21
24.6996
 31
5.1
  0
LINE
  5
ADD
330
A02
100
AcDbEntity
  8
Mesh_cs001
100
AcDbLine
 10
173.702
 20
24.6996
 30
5.1
 11
172.601
 21
24.2296
 31
5.1
  0
LINE
  5
ADE
330
A02
100
AcDbEntity
  8
Mesh_cs001
100
AcDbLine
 10
172.601
 20
24.2296
 30
5.1
 11
172.578
 21
24.2165
 31
5.1
  0
LINE
  5
ADF
330
A02
100
AcDbEntity
  8
Mesh_cs001
100
AcDbLine
 10
172.578
 20
24.2165
 30
5.1
 11
171.625
 21
23.4926
 31
5.1
  0
LINE
  5
AE0
330
A02
100
AcDbEntity
  8
Mesh_cs001
100
AcDbLine
 10
171.625
 20
23.4926
 30
5.1
 11
171.604
 21
23.4746
 31
5.1
  0
LINE
  5
AE1
330
A02
100
AcDbEntity
  8
Mesh_cs001
100
AcDbLine
 10
171.604
 20
23.4746
 30
5.1
 11
170.875
 21
22.5705
 31
5.1
  0
LINE
  5
AE2
330
A02
100
AcDbEntity
  8
Mesh_cs001
100
AcDbLine
 10
170.875
 20
22.5705
 30
5.1
 11
170.858
 21
22.5462
 31
5.1
  0
LINE
  5
AE3
330
A02
100
AcDbEntity
  8
Mesh_cs001
100
AcDbLine
 10
170.858
 20
22.5462
 30
5.1
 11
170.384
 21
21.5569
 31
5.1
  0
LINE
  5
AE4
330
A02
100
AcDbEntity
  8
Mesh_cs001
100
AcDbLine
 10
170.384
 20
21.5569
 30
5.1
 11
170.373
 21
21.5271
 31
5.1
  0
LINE
  5
AE5
330
A02
100
AcDbEntity
  8
Mesh_cs001
100
AcDbLine
 10
170.373
 20
21.5271
 30
5.1
 11
170.166
 21
20.7079
 31
5.1
  0
LINE
  5
AE6
330
A02
100
AcDbEntity
  8
Mesh_cs001
100
AcDbLine
 10
170.166
 20
20.7079
 30
5.1
 11
170.163
 21
20.6783
 31
5.1
  0
LINE
  5
AE7
330
A02
100
AcDbEntity
  8
Mesh_cs001
100
AcDbLine
 10
170.163
 20
20.6783
 30
5.1
 11
170.1
 21
19.9
 31
5.1
  0
LINE
  5
AE8
330
A02
100
AcDbEntity
  8
Mesh_cs001
100
AcDbLine
 10
170.1
 20
19.9
 30
5.1
 11
170.245
 21
18.7218
 31
5.1
  0
LINE
  5
AE9
330
A02
100
AcDbEntity
  8
Mesh_cs001
100
AcDbLine
 10
170.245
 20
18.7218
 30
5.1
 11
170.248
 21
18.6912
 31
5.1
  0
LINE
  5
AEA
330
A02
100
AcDbEntity
  8
Mesh_cs001
100
AcDbLine
 10
170.248
 20
18.6912
 30
5.1
 11
170.673
 21
17.584
 31
5.1
  0
LINE
  5
AEB
330
A02
100
AcDbEntity
  8
Mesh_cs001
100
AcDbLine
 10
170.673
 20
17.584
 30
5.1
 11
170.684
 21
17.5548
 31
5.1
  0
LINE
  5
AEC
330
A02
100
AcDbEntity
  8
Mesh_cs001
100
AcDbLine
 10
170.684
 20
17.5548
 30
5.1
 11
171.335
 21
16.614
 31
5.1
  0
LINE
  5
AED
330
A02
100
AcDbEntity
  8
Mesh_cs001
100
AcDbLine
 10
171.335
 20
16.614
 30
5.1
 11
171.353
 21
16.5889
 31
5.1
  0
LINE
  5
AEE
330
A02
100
AcDbEntity
  8
Mesh_cs001
100
AcDbLine
 10
171.353
 20
16.5889
 30
5.1
 11
172.244
 21
15.7999
 31
5.1
  0
LINE
  5
AEF
330
A02
100
AcDbEntity
  8
Mesh_cs001
100
AcDbLine
 10
172.244
 20
15.7999
 30
5.1
 11
172.269
 21
15.779
 31
5.1
  0
LINE
  5
AF0
330
A02
100
AcDbEntity
  8
Mesh_cs001
100
AcDbLine
 10
172.269
 20
15.779
 30
5.1
 11
173.334
 21
15.2249
 31
5.1
  0
LINE
  5
AF1
330
A02
100
AcDbEntity
  8
Mesh_cs001
100
AcDbLine
 10
173.334
 20
15.2249
 30
5.1
 11
173.361
 21
15.2121
 31
5.1
  0
LINE
  5
AF2
330
A02
100
AcDbEntity
  8
Mesh_cs001
100
AcDbLine
 10
173.361
 20
15.2121
 30
5.1
 11
174.506
 21
14.938
 31
5.1
  0
LINE
  5
AF3
330
A02
100
AcDbEntity
  8
Mesh_cs001
100
AcDbLine
 10
174.506
 20
14.938
 30
5.1
 11
174.532
 21
14.9323
 31
5.1
  0
LINE
  5
AF4
330
A02
100
AcDbEntity
  8
Mesh_cs001
100
AcDbLine
 10
174.532
 20
14.9323
 30
5.1
 11
174.558
 21
14.9323
 31
5.1
  0
LINE
  5
AF5
330
A02
100
AcDbEntity
  8
Mesh_cs001
100
AcDbLine
 10
174.558
 20
14.9323
 30
5.1
 11
175.679
 21
14.9337
 31
5.1
  0
LINE
  5
AF6
330
A02
100
AcDbEntity
  8
Mesh_cs001
100
AcDbLine
 10
175.679
 20
14.9337
 30
5.1
 11
175.704
 21
14.9387
 31
5.1
  0
LINE
  5
AF7
330
A02
100
AcDbEntity
  8
Mesh_cs001
100
AcDbLine
 10
175.704
 20
14.9387
 30
5.1
 11
176.72
 21
15.1697
 31
5.1
  0
LINE
  5
AF8
330
A02
100
AcDbEntity
  8
Mesh_cs001
100
AcDbLine
 10
176.72
 20
15.1697
 30
5.1
 11
176.741
 21
15.1786
 31
5.1
  0
LINE
  5
AF9
330
A02
100
AcDbEntity
  8
Mesh_cs001
100
AcDbLine
 10
176.741
 20
15.1786
 30
5.1
 11
177.606
 21
15.5732
 31
5.1
  0
LINE
  5
AFA
330
A02
100
AcDbEntity
  8
Mesh_cs001
100
AcDbLine
 10
177.606
 20
15.5732
 30
5.1
 11
177.623
 21
15.5847
 31
5.1
  0
LINE
  5
AFB
330
A02
100
AcDbEntity
  8
Mesh_cs001
100
AcDbLine
 10
177.623
 20
15.5847
 30
5.1
 11
178.397
 21
16.141
 31
5.1
  0
LINE
  5
AFC
330
A02
100
AcDbEntity
  8
Mesh_cs001
100
AcDbLine
 10
178.397
 20
16.141
 30
5.1
 11
179.117
 21
16.9238
 31
5.1
  0
LINE
  5
AFD
330
A02
100
AcDbEntity
  8
Mesh_cs001
100
AcDbLine
 10
179.117
 20
16.9238
 30
5.1
 11
179.129
 21
16.9394
 31
5.1
  0
LINE
  5
AFE
330
A02
100
AcDbEntity
  8
Mesh_cs001
100
AcDbLine
 10
179.129
 20
16.9394
 30
5.1
 11
179.686
 21
17.9142
 31
5.1
  0
LINE
  5
AFF
330
A02
100
AcDbEntity
  8
Mesh_cs001
100
AcDbLine
 10
179.686
 20
17.9142
 30
5.1
 11
179.697
 21
17.9334
 31
5.1
  0
LINE
  5
B00
330
A02
100
AcDbEntity
  8
Mesh_cs001
100
AcDbLine
 10
179.697
 20
17.9334
 30
5.1
 11
179.705
 21
17.9559
 31
5.1
  0
LINE
  5
B01
330
A02
100
AcDbEntity
  8
Mesh_cs001
100
AcDbLine
 10
179.705
 20
17.9559
 30
5.1
 11
180.033
 21
19.087
 31
5.1
  0
LINE
  5
B02
330
A02
100
AcDbEntity
  8
Mesh_cs001
100
AcDbLine
 10
180.033
 20
19.087
 30
5.1
 11
180.036
 21
19.1121
 31
5.1
  0
LINE
  5
B03
330
A02
100
AcDbEntity
  8
Mesh_cs001
100
AcDbLine
 10
180.036
 20
19.1121
 30
5.1
 11
180.082
 21
20.3124
 31
5.1
  0
LINE
  5
B04
330
A02
100
AcDbEntity
  8
Mesh_cs001
100
AcDbLine
 10
180.082
 20
20.3124
 30
5.1
 11
180.08
 21
20.3388
 31
5.1
  0
LINE
  5
B05
330
A02
100
AcDbEntity
  8
Mesh_cs001
100
AcDbLine
 10
180.08
 20
20.3388
 30
5.1
 11
179.835
 21
21.502
 31
5.1
  0
ENDSEC
  0
SECTION
  2
OBJECTS
  0
DICTIONARY
  5
F000
330
0
100
AcDbDictionary
  3
ACAD_GROUP
350
F001
  0
DICTIONARY
  5
F001
330
F000
100
AcDbDictionary
  0
ENDSEC
  0
EOF