999
FreeCAD v0.21 33771 (Git)
  0
SECTION
  2
HEADER
  9
$ACADVER
  1
AC1014
  9
$ACADMAINTVER
 70
     9
  9
$DWGCODEPAGE
  3
ANSI_1252
  9
$TEXTSTYLE
  7
STANDARD
  9
$DIMSTYLE
  2
STANDARD
  9
$DIMTXSTY
  7
STANDARD
  9
$CMLSTYLE
  2
STANDARD
  9
$LUNITS
 70
2
  9
$INSUNITS
 70
4
  9
$PEXTMAX
 10
50
 20
50
 30
50
  9
$PEXTMIN
 10
0
 20
0
 30
0
  9
$HANDSEED
  5
FFFF
  0
ENDSEC
  0
SECTION
  2
CLASSES
  0
CLASS
  1
ACDBDICTIONARYWDFLT
  2
AcDbDictionaryWithDefault
  3
ObjectDBX Classes
 90
        0
280
     0
281
     0
  0
CLASS
  1
XRECORD
  2
AcDbXrecord
  3
ObjectDBX Classes
 90
        0
280
     0
281
     0
  0
CLASS
  1
LWPOLYLINE
  2
AcDbPolyline
  3
ObjectDBX Classes
 90
        0
280
     0
281
     1
  0
ENDSEC
  0
SECTION
  2
TABLES
  0
TABLE
  2
VPORT
  5
20
330
0
100
AcDbSymbolTable
 70
     1
  0
VPORT
  5
21
330
20
100
AcDbSymbolTableRecord
100
AcDbViewportTableRecord
  2
*ACTIVE
 70
     0
  0
ENDTAB
  0
TABLE
  2
LTYPE
  5
22
330
0
100
AcDbSymbolTable
 70
     1
  0
LTYPE
  5
23
330
21
100
AcDbSymbolTableRecord
100
AcDbLinetypeTableRecord
  2
BYBLOCK
 70
     0
  3

 72
    65
 73
     0
 40
0.0
  0
LTYPE
  5
24
330
21
100
AcDbSymbolTableRecord
100
AcDbLinetypeTableRecord
  2
BYLAYER
 70
     0
  3

 72
    65
 73
     0
 40
0.0
  0
LTYPE
  5
25
330
21
100
AcDbSymbolTableRecord
100
AcDbLinetypeTableRecord
  2
CONTINUOUS
 70
     0
  3
Solid line
 72
    65
 73
     0
 40
0.0
  0
ENDTAB
  0
TABLE
  2
LAYER
  5
C6A
330
0
100
AcDbSymbolTable
 70
3
  0
LAYER
  5
C6B
330
C6A
100
AcDbSymbolTableRecord
100
AcDbLayerTableRecord
  2
0
 70
   0
 62
   7
  6
CONTINUOUS
  0
LAYER
  5
C6C
330
C6A
100
AcDbSymbolTableRecord
100
AcDbLayerTableRecord
  2
none
 70
    0
 62
    7
  6
CONTINUOUS
  0
LAYER
  5
C6D
330
C6A
100
AcDbSymbolTableRecord
100
AcDbLayerTableRecord
  2
Mesh_cs002
 70
    0
 62
    7
  6
CONTINUOUS
  0
ENDTAB
  0
TABLE
  2
STYLE
  5
70
330
0
100
AcDbSymbolTable
 70
     2
  0
STYLE
  5
71
330
70
100
AcDbSymbolTableRecord
100
AcDbTextStyleTableRecord
  2
STANDARD
 70
     0
 40
0.0
 41
1.0
 50
0.0
 71
     0
 42
2.5
  3
arial.ttf
  4

  0
STYLE
  5
72
330
70
100
AcDbSymbolTableRecord
100
AcDbTextStyleTableRecord
  2
ANNOTATIVE
 70
     0
 40
0.0
 41
1.0
 50
0.0
 71
     0
 42
2.5
  3
arial.ttf
  4

  0
ENDTAB
  0
TABLE
  2
VIEW
  5
73
330
0
100
AcDbSymbolTable
 70
     0
  0
ENDTAB
  0
TABLE
  2
UCS
  5
74
330
0
100
AcDbSymbolTable
 70
     0
  0
ENDTAB
  0
TABLE
  2
APPID
  5
75
330
0
100
AcDbSymbolTable
 70
     2
  0
APPID
  5
76
330
75
100
AcDbSymbolTableRecord
100
AcDbRegAppTableRecord
  2
ACAD
 70
     0
  0
APPID
  5
77
330
75
100
AcDbSymbolTableRecord
100
AcDbRegAppTableRecord
  2
ACADANNOTATIVE
 70
     0
  0
ENDTAB
  0
TABLE
  2
DIMSTYLE
  5
78
330
0
100
AcDbSymbolTable
 70
     2
  0
DIMSTYLE
105
79
330
78
100
AcDbSymbolTableRecord
100
AcDbDimStyleTableRecord
  2
STANDARD
 70
     0
  3

  4

  5

  6

  7

 40
0.0
 41
2.5
 42
0.625
 43
3.75
 44
1.25
 45
0.0
 46
0.0
 47
0.0
 48
0.0
140
2.5
141
2.5
142
0.0
143
0.03937007874016
144
1.0
145
0.0
146
1.0
147
0.625
 71
     0
 72
     0
 73
     0
 74
     0
 75
     0
 76
     0
 77
     1
 78
     8
170
     0
171
     3
172
     1
173
     0
174
     0
175
     0
176
     0
177
     0
178
     0
270
     2
271
     2
272
     2
273
     2
274
     3
340
71
275
     0
280
     0
281
     0
282
     0
283
     0
284
     8
285
     0
286
     0
287
     3
288
     0
  0
ENDTAB
  0
TABLE
  2
BLOCK_RECORD
  5
A01
330
0
100
AcDbSymbolTable
  70
5
  0
BLOCK_RECORD
  5
A02
330
A01
100
AcDbSymbolTableRecord
100
AcDbBlockTableRecord
  2
*MODEL_SPACE
  0
BLOCK_RECORD
  5
A03
330
A01
100
AcDbSymbolTableRecord
100
AcDbBlockTableRecord
  2
*PAPER_SPACE
  0
ENDTAB
  0
ENDSEC
  0
SECTION
  2
BLOCKS
  0
BLOCK
  5
A04
330
A02
100
AcDbEntity
  8
0
100
AcDbBlockBegin
  2
*MODEL_SPACE
 70
   0
 10
0
 20
0
 30
0
  3
*MODEL_SPACE
  1
 
  0
ENDBLK
  5
A05
330
A02
100
AcDbEntity
  8
0
100
AcDbBlockEnd
  0
BLOCK
  5
A06
330
A03
100
AcDbEntity
 67
1
  8
0
100
AcDbBlockBegin
  2
*PAPER_SPACE
 70
   0
 10
0
 20
0
 30
0
  3
*PAPER_SPACE
  1
 
  0
ENDBLK
  5
A07
330
A03
100
AcDbEntity
 67
    1
  8
0
100
AcDbBlockEnd
  0
ENDSEC
  0
SECTION
  2
ENTITIES
  0
LINE
  5
A08
330
A02
100
AcDbEntity
  8
Mesh_cs002
100
AcDbLine
 10
-364.998
 20
427.591
 30
5.1
 11
-365.797
 21
430.311
 31
5.1
  0
LINE
  5
A09
330
A02
100
AcDbEntity
  8
Mesh_cs002
100
AcDbLine
 10
-365.797
 20
430.311
 30
5.1
 11
-366.378
 21
432.325
 31
5.1
  0
LINE
  5
A0A
330
A02
100
AcDbEntity
  8
Mesh_cs002
100
AcDbLine
 10
-366.378
 20
432.325
 30
5.1
 11
-367.156
 21
435.051
 31
5.1
  0
LINE
  5
A0B
330
A02
100
AcDbEntity
  8
Mesh_cs002
100
AcDbLine
 10
-367.156
 20
435.051
 30
5.1
 11
-367.72
 21
437.07
 31
5.1
  0
LINE
  5
A0C
330
A02
100
AcDbEntity
  8
Mesh_cs002
100
AcDbLine
 10
-367.72
 20
437.07
 30
5.1
 11
-368.475
 21
439.803
 31
5.1
  0
LINE
  5
A0D
330
A02
100
AcDbEntity
  8
Mesh_cs002
100
AcDbLine
 10
-368.475
 20
439.803
 30
5.1
 11
-369.023
 21
441.826
 31
5.1
  0
LINE
  5
A0E
330
A02
100
AcDbEntity
  8
Mesh_cs002
100
AcDbLine
 10
-369.023
 20
441.826
 30
5.1
 11
-369.756
 21
444.564
 31
5.1
  0
LINE
  5
A0F
330
A02
100
AcDbEntity
  8
Mesh_cs002
100
AcDbLine
 10
-369.756
 20
444.564
 30
5.1
 11
-370.288
 21
446.592
 31
5.1
  0
LINE
  5
A10
330
A02
100
AcDbEntity
  8
Mesh_cs002
100
AcDbLine
 10
-370.288
 20
446.592
 30
5.1
 11
-370.999
 21
449.336
 31
5.1
  0
LINE
  5
A11
330
A02
100
AcDbEntity
  8
Mesh_cs002
100
AcDbLine
 10
-370.999
 20
449.336
 30
5.1
 11
-371.514
 21
451.368
 31
5.1
  0
LINE
  5
A12
330
A02
100
AcDbEntity
  8
Mesh_cs002
100
AcDbLine
 10
-371.514
 20
451.368
 30
5.1
 11
-372.203
 21
454.118
 31
5.1
  0
LINE
  5
A13
330
A02
100
AcDbEntity
  8
Mesh_cs002
100
AcDbLine
 10
-372.203
 20
454.118
 30
5.1
 11
-372.701
 21
456.154
 31
5.1
  0
LINE
  5
A14
330
A02
100
AcDbEntity
  8
Mesh_cs002
100
AcDbLine
 10
-372.701
 20
456.154
 30
5.1
 11
-373.367
 21
458.909
 31
5.1
  0
LINE
  5
A15
330
A02
100
AcDbEntity
  8
Mesh_cs002
100
AcDbLine
 10
-373.367
 20
458.909
 30
5.1
 11
-373.849
 21
460.949
 31
5.1
  0
LINE
  5
A16
330
A02
100
AcDbEntity
  8
Mesh_cs002
100
AcDbLine
 10
-373.849
 20
460.949
 30
5.1
 11
-374.493
 21
463.71
 31
5.1
  0
LINE
  5
A17
330
A02
100
AcDbEntity
  8
Mesh_cs002
100
AcDbLine
 10
-374.493
 20
463.71
 30
5.1
 11
-374.959
 21
465.753
 31
5.1
  0
LINE
  5
A18
330
A02
100
AcDbEntity
  8
Mesh_cs002
100
AcDbLine
 10
-374.959
 20
465.753
 30
5.1
 11
-375.58
 21
468.519
 31
5.1
  0
LINE
  5
A19
330
A02
100
AcDbEntity
  8
Mesh_cs002
100
AcDbLine
 10
-375.58
 20
468.519
 30
5.1
 11
-376.029
 21
470.566
 31
5.1
  0
LINE
  5
A1A
330
A02
100
AcDbEntity
  8
Mesh_cs002
100
AcDbLine
 10
-376.029
 20
470.566
 30
5.1
 11
-376.628
 21
473.337
 31
5.1
  0
LINE
  5
A1B
330
A02
100
AcDbEntity
  8
Mesh_cs002
100
AcDbLine
 10
-376.628
 20
473.337
 30
5.1
 11
-377.06
 21
475.388
 31
5.1
  0
LINE
  5
A1C
330
A02
100
AcDbEntity
  8
Mesh_cs002
100
AcDbLine
 10
-377.06
 20
475.388
 30
5.1
 11
-377.637
 21
478.163
 31
5.1
  0
LINE
  5
A1D
330
A02
100
AcDbEntity
  8
Mesh_cs002
100
AcDbLine
 10
-377.637
 20
478.163
 30
5.1
 11
-378.052
 21
480.217
 31
5.1
  0
LINE
  5
A1E
330
A02
100
AcDbEntity
  8
Mesh_cs002
100
AcDbLine
 10
-378.052
 20
480.217
 30
5.1
 11
-378.607
 21
482.998
 31
5.1
  0
LINE
  5
A1F
330
A02
100
AcDbEntity
  8
Mesh_cs002
100
AcDbLine
 10
-378.607
 20
482.998
 30
5.1
 11
-379.005
 21
485.055
 31
5.1
  0
LINE
  5
A20
330
A02
100
AcDbEntity
  8
Mesh_cs002
100
AcDbLine
 10
-379.005
 20
485.055
 30
5.1
 11
-379.537
 21
487.839
 31
5.1
  0
LINE
  5
A21
330
A02
100
AcDbEntity
  8
Mesh_cs002
100
AcDbLine
 10
-379.537
 20
487.839
 30
5.1
 11
-379.919
 21
489.9
 31
5.1
  0
LINE
  5
A22
330
A02
100
AcDbEntity
  8
Mesh_cs002
100
AcDbLine
 10
-379.919
 20
489.9
 30
5.1
 11
-380.428
 21
492.688
 31
5.1
  0
LINE
  5
A23
330
A02
100
AcDbEntity
  8
Mesh_cs002
100
AcDbLine
 10
-380.428
 20
492.688
 30
5.1
 11
-380.793
 21
494.752
 31
5.1
  0
LINE
  5
A24
330
A02
100
AcDbEntity
  8
Mesh_cs002
100
AcDbLine
 10
-380.793
 20
494.752
 30
5.1
 11
-381.28
 21
497.544
 31
5.1
  0
LINE
  5
A25
330
A02
100
AcDbEntity
  8
Mesh_cs002
100
AcDbLine
 10
-381.28
 20
497.544
 30
5.1
 11
-381.628
 21
499.611
 31
5.1
  0
LINE
  5
A26
330
A02
100
AcDbEntity
  8
Mesh_cs002
100
AcDbLine
 10
-381.628
 20
499.611
 30
5.1
 11
-382.092
 21
502.407
 31
5.1
  0
LINE
  5
A27
330
A02
100
AcDbEntity
  8
Mesh_cs002
100
AcDbLine
 10
-382.092
 20
502.407
 30
5.1
 11
-382.424
 21
504.476
 31
5.1
  0
LINE
  5
A28
330
A02
100
AcDbEntity
  8
Mesh_cs002
100
AcDbLine
 10
-382.424
 20
504.476
 30
5.1
 11
-382.865
 21
507.276
 31
5.1
  0
LINE
  5
A29
330
A02
100
AcDbEntity
  8
Mesh_cs002
100
AcDbLine
 10
-382.865
 20
507.276
 30
5.1
 11
-383.18
 21
509.348
 31
5.1
  0
LINE
  5
A2A
330
A02
100
AcDbEntity
  8
Mesh_cs002
100
AcDbLine
 10
-383.18
 20
509.348
 30
5.1
 11
-383.598
 21
512.151
 31
5.1
  0
LINE
  5
A2B
330
A02
100
AcDbEntity
  8
Mesh_cs002
100
AcDbLine
 10
-383.598
 20
512.151
 30
5.1
 11
-383.896
 21
514.225
 31
5.1
  0
LINE
  5
A2C
330
A02
100
AcDbEntity
  8
Mesh_cs002
100
AcDbLine
 10
-383.896
 20
514.225
 30
5.1
 11
-384.292
 21
517.032
 31
5.1
  0
LINE
  5
A2D
330
A02
100
AcDbEntity
  8
Mesh_cs002
100
AcDbLine
 10
-384.292
 20
517.032
 30
5.1
 11
-384.573
 21
519.108
 31
5.1
  0
LINE
  5
A2E
330
A02
100
AcDbEntity
  8
Mesh_cs002
100
AcDbLine
 10
-384.573
 20
519.108
 30
5.1
 11
-384.946
 21
521.918
 31
5.1
  0
LINE
  5
A2F
330
A02
100
AcDbEntity
  8
Mesh_cs002
100
AcDbLine
 10
-384.946
 20
521.918
 30
5.1
 11
-385.21
 21
523.997
 31
5.1
  0
LINE
  5
A30
330
A02
100
AcDbEntity
  8
Mesh_cs002
100
AcDbLine
 10
-385.21
 20
523.997
 30
5.1
 11
-385.56
 21
526.81
 31
5.1
  0
LINE
  5
A31
330
A02
100
AcDbEntity
  8
Mesh_cs002
100
AcDbLine
 10
-385.56
 20
526.81
 30
5.1
 11
-385.808
 21
528.89
 31
5.1
  0
LINE
  5
A32
330
A02
100
AcDbEntity
  8
Mesh_cs002
100
AcDbLine
 10
-385.808
 20
528.89
 30
5.1
 11
-386.135
 21
531.706
 31
5.1
  0
LINE
  5
A33
330
A02
100
AcDbEntity
  8
Mesh_cs002
100
AcDbLine
 10
-386.135
 20
531.706
 30
5.1
 11
-386.366
 21
533.788
 31
5.1
  0
LINE
  5
A34
330
A02
100
AcDbEntity
  8
Mesh_cs002
100
AcDbLine
 10
-386.366
 20
533.788
 30
5.1
 11
-386.67
 21
536.606
 31
5.1
  0
LINE
  5
A35
330
A02
100
AcDbEntity
  8
Mesh_cs002
100
AcDbLine
 10
-386.67
 20
536.606
 30
5.1
 11
-386.884
 21
538.69
 31
5.1
  0
LINE
  5
A36
330
A02
100
AcDbEntity
  8
Mesh_cs002
100
AcDbLine
 10
-386.884
 20
538.69
 30
5.1
 11
-387.165
 21
541.511
 31
5.1
  0
LINE
  5
A37
330
A02
100
AcDbEntity
  8
Mesh_cs002
100
AcDbLine
 10
-387.165
 20
541.511
 30
5.1
 11
-387.362
 21
543.596
 31
5.1
  0
LINE
  5
A38
330
A02
100
AcDbEntity
  8
Mesh_cs002
100
AcDbLine
 10
-387.362
 20
543.596
 30
5.1
 11
-387.621
 21
546.419
 31
5.1
  0
LINE
  5
A39
330
A02
100
AcDbEntity
  8
Mesh_cs002
100
AcDbLine
 10
-387.621
 20
546.419
 30
5.1
 11
-387.801
 21
548.506
 31
5.1
  0
LINE
  5
A3A
330
A02
100
AcDbEntity
  8
Mesh_cs002
100
AcDbLine
 10
-387.801
 20
548.506
 30
5.1
 11
-388.036
 21
551.331
 31
5.1
  0
LINE
  5
A3B
330
A02
100
AcDbEntity
  8
Mesh_cs002
100
AcDbLine
 10
-388.036
 20
551.331
 30
5.1
 11
-388.2
 21
553.419
 31
5.1
  0
LINE
  5
A3C
330
A02
100
AcDbEntity
  8
Mesh_cs002
100
AcDbLine
 10
-388.2
 20
553.419
 30
5.1
 11
-388.412
 21
556.245
 31
5.1
  0
LINE
  5
A3D
330
A02
100
AcDbEntity
  8
Mesh_cs002
100
AcDbLine
 10
-388.412
 20
556.245
 30
5.1
 11
-388.559
 21
558.335
 31
5.1
  0
LINE
  5
A3E
330
A02
100
AcDbEntity
  8
Mesh_cs002
100
AcDbLine
 10
-388.559
 20
558.335
 30
5.1
 11
-388.748
 21
561.163
 31
5.1
  0
LINE
  5
A3F
330
A02
100
AcDbEntity
  8
Mesh_cs002
100
AcDbLine
 10
-388.748
 20
561.163
 30
5.1
 11
-388.878
 21
563.254
 31
5.1
  0
LINE
  5
A40
330
A02
100
AcDbEntity
  8
Mesh_cs002
100
AcDbLine
 10
-388.878
 20
563.254
 30
5.1
 11
-389.044
 21
566.083
 31
5.1
  0
LINE
  5
A41
330
A02
100
AcDbEntity
  8
Mesh_cs002
100
AcDbLine
 10
-389.044
 20
566.083
 30
5.1
 11
-389.157
 21
568.175
 31
5.1
  0
LINE
  5
A42
330
A02
100
AcDbEntity
  8
Mesh_cs002
100
AcDbLine
 10
-389.157
 20
568.175
 30
5.1
 11
-389.301
 21
571.006
 31
5.1
  0
LINE
  5
A43
330
A02
100
AcDbEntity
  8
Mesh_cs002
100
AcDbLine
 10
-389.301
 20
571.006
 30
5.1
 11
-389.423
 21
573.729
 31
5.1
  0
LINE
  5
A44
330
A02
100
AcDbEntity
  8
Mesh_cs002
100
AcDbLine
 10
-389.423
 20
573.729
 30
5.1
 11
-389.514
 21
575.863
 31
5.1
  0
LINE
  5
A45
330
A02
100
AcDbEntity
  8
Mesh_cs002
100
AcDbLine
 10
-389.514
 20
575.863
 30
5.1
 11
-389.575
 21
577.437
 31
5.1
  0
LINE
  5
A46
330
A02
100
AcDbEntity
  8
Mesh_cs002
100
AcDbLine
 10
-389.575
 20
577.437
 30
5.1
 11
-389.649
 21
579.571
 31
5.1
  0
LINE
  5
A47
330
A02
100
AcDbEntity
  8
Mesh_cs002
100
AcDbLine
 10
-389.649
 20
579.571
 30
5.1
 11
-389.703
 21
581.145
 31
5.1
  0
LINE
  5
A48
330
A02
100
AcDbEntity
  8
Mesh_cs002
100
AcDbLine
 10
-389.703
 20
581.145
 30
5.1
 11
-389.774
 21
583.664
 31
5.1
  0
LINE
  5
A49
330
A02
100
AcDbEntity
  8
Mesh_cs002
100
AcDbLine
 10
-389.774
 20
583.664
 30
5.1
 11
-389.83
 21
585.799
 31
5.1
  0
LINE
  5
A4A
330
A02
100
AcDbEntity
  8
Mesh_cs002
100
AcDbLine
 10
-389.83
 20
585.799
 30
5.1
 11
-389.87
 21
587.935
 31
5.1
  0
LINE
  5
A4B
330
A02
100
AcDbEntity
  8
Mesh_cs002
100
AcDbLine
 10
-389.87
 20
587.935
 30
5.1
 11
-389.926
 21
590.699
 31
5.1
  0
LINE
  5
A4C
330
A02
100
AcDbEntity
  8
Mesh_cs002
100
AcDbLine
 10
-389.926
 20
590.699
 30
5.1
 11
-389.952
 21
592.585
 31
5.1
  0
LINE
  5
A4D
330
A02
100
AcDbEntity
  8
Mesh_cs002
100
AcDbLine
 10
-389.952
 20
592.585
 30
5.1
 11
-389.978
 21
595.088
 31
5.1
  0
LINE
  5
A4E
330
A02
100
AcDbEntity
  8
Mesh_cs002
100
AcDbLine
 10
-389.978
 20
595.088
 30
5.1
 11
-389.988
 21
596.368
 31
5.1
  0
LINE
  5
A4F
330
A02
100
AcDbEntity
  8
Mesh_cs002
100
AcDbLine
 10
-389.988
 20
596.368
 30
5.1
 11
-389.997
 21
598.868
 31
5.1
  0
LINE
  5
A50
330
A02
100
AcDbEntity
  8
Mesh_cs002
100
AcDbLine
 10
-389.997
 20
598.868
 30
5.1
 11
-390
 21
600.148
 31
5.1
  0
LINE
  5
A51
330
A02
100
AcDbEntity
  8
Mesh_cs002
100
AcDbLine
 10
-390
 20
600.148
 30
5.1
 11
-381.557
 21
600.148
 31
5.1
  0
LINE
  5
A52
330
A02
100
AcDbEntity
  8
Mesh_cs002
100
AcDbLine
 10
-381.557
 20
600.148
 30
5.1
 11
-375.89
 21
600.148
 31
5.1
  0
LINE
  5
A53
330
A02
100
AcDbEntity
  8
Mesh_cs002
100
AcDbLine
 10
-375.89
 20
600.148
 30
5.1
 11
-352.909
 21
600.148
 31
5.1
  0
LINE
  5
A54
330
A02
100
AcDbEntity
  8
Mesh_cs002
100
AcDbLine
 10
-352.909
 20
600.148
 30
5.1
 11
-336.682
 21
600.148
 31
5.1
  0
LINE
  5
A55
330
A02
100
AcDbEntity
  8
Mesh_cs002
100
AcDbLine
 10
-336.682
 20
600.148
 30
5.1
 11
-293.61
 21
600.148
 31
5.1
  0
LINE
  5
A56
330
A02
100
AcDbEntity
  8
Mesh_cs002
100
AcDbLine
 10
-293.61
 20
600.148
 30
5.1
 11
-209.11
 21
600.148
 31
5.1
  0
LINE
  5
A57
330
A02
100
AcDbEntity
  8
Mesh_cs002
100
AcDbLine
 10
-209.11
 20
600.148
 30
5.1
 11
-203.443
 21
600.148
 31
5.1
  0
LINE
  5
A58
330
A02
100
AcDbEntity
  8
Mesh_cs002
100
AcDbLine
 10
-203.443
 20
600.148
 30
5.1
 11
-195
 21
600.148
 31
5.1
  0
LINE
  5
A59
330
A02
100
AcDbEntity
  8
Mesh_cs002
100
AcDbLine
 10
-195
 20
600.148
 30
5.1
 11
-195
 21
591.705
 31
5.1
  0
LINE
  5
A5A
330
A02
100
AcDbEntity
  8
Mesh_cs002
100
AcDbLine
 10
-195
 20
591.705
 30
5.1
 11
-195
 21
580.915
 31
5.1
  0
LINE
  5
A5B
330
A02
100
AcDbEntity
  8
Mesh_cs002
100
AcDbLine
 10
-195
 20
580.915
 30
5.1
 11
-195
 21
575.248
 31
5.1
  0
LINE
  5
A5C
330
A02
100
AcDbEntity
  8
Mesh_cs002
100
AcDbLine
 10
-195
 20
575.248
 30
5.1
 11
-195
 21
461.97
 31
5.1
  0
LINE
  5
A5D
330
A02
100
AcDbEntity
  8
Mesh_cs002
100
AcDbLine
 10
-195
 20
461.97
 30
5.1
 11
-195
 21
314.376
 31
5.1
  0
LINE
  5
A5E
330
A02
100
AcDbEntity
  8
Mesh_cs002
100
AcDbLine
 10
-195
 20
314.376
 30
5.1
 11
-195
 21
300.074
 31
5.1
  0
LINE
  5
A5F
330
A02
100
AcDbEntity
  8
Mesh_cs002
100
AcDbLine
 10
-195
 20
300.074
 30
5.1
 11
-201.564
 21
295.305
 31
5.1
  0
LINE
  5
A60
330
A02
100
AcDbEntity
  8
Mesh_cs002
100
AcDbLine
 10
-201.564
 20
295.305
 30
5.1
 11
-228.283
 21
275.893
 31
5.1
  0
LINE
  5
A61
330
A02
100
AcDbEntity
  8
Mesh_cs002
100
AcDbLine
 10
-228.283
 20
275.893
 30
5.1
 11
-262.464
 21
251.059
 31
5.1
  0
LINE
  5
A62
330
A02
100
AcDbEntity
  8
Mesh_cs002
100
AcDbLine
 10
-262.464
 20
251.059
 30
5.1
 11
-267.048
 21
247.728
 31
5.1
  0
LINE
  5
A63
330
A02
100
AcDbEntity
  8
Mesh_cs002
100
AcDbLine
 10
-267.048
 20
247.728
 30
5.1
 11
-273.879
 21
242.765
 31
5.1
  0
LINE
  5
A64
330
A02
100
AcDbEntity
  8
Mesh_cs002
100
AcDbLine
 10
-273.879
 20
242.765
 30
5.1
 11
-274.982
 21
244.295
 31
5.1
  0
LINE
  5
A65
330
A02
100
AcDbEntity
  8
Mesh_cs002
100
AcDbLine
 10
-274.982
 20
244.295
 30
5.1
 11
-276.476
 21
246.367
 31
5.1
  0
LINE
  5
A66
330
A02
100
AcDbEntity
  8
Mesh_cs002
100
AcDbLine
 10
-276.476
 20
246.367
 30
5.1
 11
-277.568
 21
247.905
 31
5.1
  0
LINE
  5
A67
330
A02
100
AcDbEntity
  8
Mesh_cs002
100
AcDbLine
 10
-277.568
 20
247.905
 30
5.1
 11
-279.048
 21
249.989
 31
5.1
  0
LINE
  5
A68
330
A02
100
AcDbEntity
  8
Mesh_cs002
100
AcDbLine
 10
-279.048
 20
249.989
 30
5.1
 11
-280.999
 21
252.789
 31
5.1
  0
LINE
  5
A69
330
A02
100
AcDbEntity
  8
Mesh_cs002
100
AcDbLine
 10
-280.999
 20
252.789
 30
5.1
 11
-282.102
 21
254.366
 31
5.1
  0
LINE
  5
A6A
330
A02
100
AcDbEntity
  8
Mesh_cs002
100
AcDbLine
 10
-282.102
 20
254.366
 30
5.1
 11
-283.192
 21
255.951
 31
5.1
  0
LINE
  5
A6B
330
A02
100
AcDbEntity
  8
Mesh_cs002
100
AcDbLine
 10
-283.192
 20
255.951
 30
5.1
 11
-284.616
 21
258.031
 31
5.1
  0
LINE
  5
A6C
330
A02
100
AcDbEntity
  8
Mesh_cs002
100
AcDbLine
 10
-284.616
 20
258.031
 30
5.1
 11
-285.695
 21
259.624
 31
5.1
  0
LINE
  5
A6D
330
A02
100
AcDbEntity
  8
Mesh_cs002
100
AcDbLine
 10
-285.695
 20
259.624
 30
5.1
 11
-286.577
 21
260.929
 31
5.1
  0
LINE
  5
A6E
330
A02
100
AcDbEntity
  8
Mesh_cs002
100
AcDbLine
 10
-286.577
 20
260.929
 30
5.1
 11
-287.452
 21
262.238
 31
5.1
  0
LINE
  5
A6F
330
A02
100
AcDbEntity
  8
Mesh_cs002
100
AcDbLine
 10
-287.452
 20
262.238
 30
5.1
 11
-288.52
 21
263.839
 31
5.1
  0
LINE
  5
A70
330
A02
100
AcDbEntity
  8
Mesh_cs002
100
AcDbLine
 10
-288.52
 20
263.839
 30
5.1
 11
-289.576
 21
265.447
 31
5.1
  0
LINE
  5
A71
330
A02
100
AcDbEntity
  8
Mesh_cs002
100
AcDbLine
 10
-289.576
 20
265.447
 30
5.1
 11
-291.098
 21
267.754
 31
5.1
  0
LINE
  5
A72
330
A02
100
AcDbEntity
  8
Mesh_cs002
100
AcDbLine
 10
-291.098
 20
267.754
 30
5.1
 11
-292.127
 21
269.338
 31
5.1
  0
LINE
  5
A73
330
A02
100
AcDbEntity
  8
Mesh_cs002
100
AcDbLine
 10
-292.127
 20
269.338
 30
5.1
 11
-293.513
 21
271.483
 31
5.1
  0
LINE
  5
A74
330
A02
100
AcDbEntity
  8
Mesh_cs002
100
AcDbLine
 10
-293.513
 20
271.483
 30
5.1
 11
-294.53
 21
273.072
 31
5.1
  0
LINE
  5
A75
330
A02
100
AcDbEntity
  8
Mesh_cs002
100
AcDbLine
 10
-294.53
 20
273.072
 30
5.1
 11
-295.899
 21
275.227
 31
5.1
  0
LINE
  5
A76
330
A02
100
AcDbEntity
  8
Mesh_cs002
100
AcDbLine
 10
-295.899
 20
275.227
 30
5.1
 11
-296.905
 21
276.824
 31
5.1
  0
LINE
  5
A77
330
A02
100
AcDbEntity
  8
Mesh_cs002
100
AcDbLine
 10
-296.905
 20
276.824
 30
5.1
 11
-298.259
 21
278.989
 31
5.1
  0
LINE
  5
A78
330
A02
100
AcDbEntity
  8
Mesh_cs002
100
AcDbLine
 10
-298.259
 20
278.989
 30
5.1
 11
-299.252
 21
280.593
 31
5.1
  0
LINE
  5
A79
330
A02
100
AcDbEntity
  8
Mesh_cs002
100
AcDbLine
 10
-299.252
 20
280.593
 30
5.1
 11
-300.59
 21
282.768
 31
5.1
  0
LINE
  5
A7A
330
A02
100
AcDbEntity
  8
Mesh_cs002
100
AcDbLine
 10
-300.59
 20
282.768
 30
5.1
 11
-301.572
 21
284.38
 31
5.1
  0
LINE
  5
A7B
330
A02
100
AcDbEntity
  8
Mesh_cs002
100
AcDbLine
 10
-301.572
 20
284.38
 30
5.1
 11
-302.894
 21
286.564
 31
5.1
  0
LINE
  5
A7C
330
A02
100
AcDbEntity
  8
Mesh_cs002
100
AcDbLine
 10
-302.894
 20
286.564
 30
5.1
 11
-303.864
 21
288.182
 31
5.1
  0
LINE
  5
A7D
330
A02
100
AcDbEntity
  8
Mesh_cs002
100
AcDbLine
 10
-303.864
 20
288.182
 30
5.1
 11
-305.17
 21
290.376
 31
5.1
  0
LINE
  5
A7E
330
A02
100
AcDbEntity
  8
Mesh_cs002
100
AcDbLine
 10
-305.17
 20
290.376
 30
5.1
 11
-306.129
 21
292.002
 31
5.1
  0
LINE
  5
A7F
330
A02
100
AcDbEntity
  8
Mesh_cs002
100
AcDbLine
 10
-306.129
 20
292.002
 30
5.1
 11
-307.419
 21
294.205
 31
5.1
  0
LINE
  5
A80
330
A02
100
AcDbEntity
  8
Mesh_cs002
100
AcDbLine
 10
-307.419
 20
294.205
 30
5.1
 11
-308.365
 21
295.838
 31
5.1
  0
LINE
  5
A81
330
A02
100
AcDbEntity
  8
Mesh_cs002
100
AcDbLine
 10
-308.365
 20
295.838
 30
5.1
 11
-309.639
 21
298.05
 31
5.1
  0
LINE
  5
A82
330
A02
100
AcDbEntity
  8
Mesh_cs002
100
AcDbLine
 10
-309.639
 20
298.05
 30
5.1
 11
-310.573
 21
299.69
 31
5.1
  0
LINE
  5
A83
330
A02
100
AcDbEntity
  8
Mesh_cs002
100
AcDbLine
 10
-310.573
 20
299.69
 30
5.1
 11
-311.831
 21
301.912
 31
5.1
  0
LINE
  5
A84
330
A02
100
AcDbEntity
  8
Mesh_cs002
100
AcDbLine
 10
-311.831
 20
301.912
 30
5.1
 11
-312.753
 21
303.558
 31
5.1
  0
LINE
  5
A85
330
A02
100
AcDbEntity
  8
Mesh_cs002
100
AcDbLine
 10
-312.753
 20
303.558
 30
5.1
 11
-313.995
 21
305.789
 31
5.1
  0
LINE
  5
A86
330
A02
100
AcDbEntity
  8
Mesh_cs002
100
AcDbLine
 10
-313.995
 20
305.789
 30
5.1
 11
-314.905
 21
307.442
 31
5.1
  0
LINE
  5
A87
330
A02
100
AcDbEntity
  8
Mesh_cs002
100
AcDbLine
 10
-314.905
 20
307.442
 30
5.1
 11
-316.13
 21
309.682
 31
5.1
  0
LINE
  5
A88
330
A02
100
AcDbEntity
  8
Mesh_cs002
100
AcDbLine
 10
-316.13
 20
309.682
 30
5.1
 11
-317.028
 21
311.341
 31
5.1
  0
LINE
  5
A89
330
A02
100
AcDbEntity
  8
Mesh_cs002
100
AcDbLine
 10
-317.028
 20
311.341
 30
5.1
 11
-318.237
 21
313.59
 31
5.1
  0
LINE
  5
A8A
330
A02
100
AcDbEntity
  8
Mesh_cs002
100
AcDbLine
 10
-318.237
 20
313.59
 30
5.1
 11
-319.123
 21
315.256
 31
5.1
  0
LINE
  5
A8B
330
A02
100
AcDbEntity
  8
Mesh_cs002
100
AcDbLine
 10
-319.123
 20
315.256
 30
5.1
 11
-320.315
 21
317.513
 31
5.1
  0
LINE
  5
A8C
330
A02
100
AcDbEntity
  8
Mesh_cs002
100
AcDbLine
 10
-320.315
 20
317.513
 30
5.1
 11
-321.189
 21
319.186
 31
5.1
  0
LINE
  5
A8D
330
A02
100
AcDbEntity
  8
Mesh_cs002
100
AcDbLine
 10
-321.189
 20
319.186
 30
5.1
 11
-322.364
 21
321.452
 31
5.1
  0
LINE
  5
A8E
330
A02
100
AcDbEntity
  8
Mesh_cs002
100
AcDbLine
 10
-322.364
 20
321.452
 30
5.1
 11
-323.226
 21
323.13
 31
5.1
  0
LINE
  5
A8F
330
A02
100
AcDbEntity
  8
Mesh_cs002
100
AcDbLine
 10
-323.226
 20
323.13
 30
5.1
 11
-324.385
 21
325.405
 31
5.1
  0
LINE
  5
A90
330
A02
100
AcDbEntity
  8
Mesh_cs002
100
AcDbLine
 10
-324.385
 20
325.405
 30
5.1
 11
-325.234
 21
327.09
 31
5.1
  0
LINE
  5
A91
330
A02
100
AcDbEntity
  8
Mesh_cs002
100
AcDbLine
 10
-325.234
 20
327.09
 30
5.1
 11
-326.377
 21
329.373
 31
5.1
  0
LINE
  5
A92
330
A02
100
AcDbEntity
  8
Mesh_cs002
100
AcDbLine
 10
-326.377
 20
329.373
 30
5.1
 11
-327.214
 21
331.064
 31
5.1
  0
LINE
  5
A93
330
A02
100
AcDbEntity
  8
Mesh_cs002
100
AcDbLine
 10
-327.214
 20
331.064
 30
5.1
 11
-328.339
 21
333.355
 31
5.1
  0
LINE
  5
A94
330
A02
100
AcDbEntity
  8
Mesh_cs002
100
AcDbLine
 10
-328.339
 20
333.355
 30
5.1
 11
-329.164
 21
335.052
 31
5.1
  0
LINE
  5
A95
330
A02
100
AcDbEntity
  8
Mesh_cs002
100
AcDbLine
 10
-329.164
 20
335.052
 30
5.1
 11
-330.273
 21
337.351
 31
5.1
  0
LINE
  5
A96
330
A02
100
AcDbEntity
  8
Mesh_cs002
100
AcDbLine
 10
-330.273
 20
337.351
 30
5.1
 11
-331.085
 21
339.054
 31
5.1
  0
LINE
  5
A97
330
A02
100
AcDbEntity
  8
Mesh_cs002
100
AcDbLine
 10
-331.085
 20
339.054
 30
5.1
 11
-332.177
 21
341.362
 31
5.1
  0
LINE
  5
A98
330
A02
100
AcDbEntity
  8
Mesh_cs002
100
AcDbLine
 10
-332.177
 20
341.362
 30
5.1
 11
-332.977
 21
343.071
 31
5.1
  0
LINE
  5
A99
330
A02
100
AcDbEntity
  8
Mesh_cs002
100
AcDbLine
 10
-332.977
 20
343.071
 30
5.1
 11
-334.052
 21
345.386
 31
5.1
  0
LINE
  5
A9A
330
A02
100
AcDbEntity
  8
Mesh_cs002
100
AcDbLine
 10
-334.052
 20
345.386
 30
5.1
 11
-334.839
 21
347.101
 31
5.1
  0
LINE
  5
A9B
330
A02
100
AcDbEntity
  8
Mesh_cs002
100
AcDbLine
 10
-334.839
 20
347.101
 30
5.1
 11
-335.897
 21
349.423
 31
5.1
  0
LINE
  5
A9C
330
A02
100
AcDbEntity
  8
Mesh_cs002
100
AcDbLine
 10
-335.897
 20
349.423
 30
5.1
 11
-336.672
 21
351.144
 31
5.1
  0
LINE
  5
A9D
330
A02
100
AcDbEntity
  8
Mesh_cs002
100
AcDbLine
 10
-336.672
 20
351.144
 30
5.1
 11
-337.713
 21
353.474
 31
5.1
  0
LINE
  5
A9E
330
A02
100
AcDbEntity
  8
Mesh_cs002
100
AcDbLine
 10
-337.713
 20
353.474
 30
5.1
 11
-338.475
 21
355.2
 31
5.1
  0
LINE
  5
A9F
330
A02
100
AcDbEntity
  8
Mesh_cs002
100
AcDbLine
 10
-338.475
 20
355.2
 30
5.1
 11
-339.499
 21
357.538
 31
5.1
  0
LINE
  5
AA0
330
A02
100
AcDbEntity
  8
Mesh_cs002
100
AcDbLine
 10
-339.499
 20
357.538
 30
5.1
 11
-340.249
 21
359.27
 31
5.1
  0
LINE
  5
AA1
330
A02
100
AcDbEntity
  8
Mesh_cs002
100
AcDbLine
 10
-340.249
 20
359.27
 30
5.1
 11
-341.256
 21
361.615
 31
5.1
  0
LINE
  5
AA2
330
A02
100
AcDbEntity
  8
Mesh_cs002
100
AcDbLine
 10
-341.256
 20
361.615
 30
5.1
 11
-341.992
 21
363.352
 31
5.1
  0
LINE
  5
AA3
330
A02
100
AcDbEntity
  8
Mesh_cs002
100
AcDbLine
 10
-341.992
 20
363.352
 30
5.1
 11
-342.982
 21
365.705
 31
5.1
  0
LINE
  5
AA4
330
A02
100
AcDbEntity
  8
Mesh_cs002
100
AcDbLine
 10
-342.982
 20
365.705
 30
5.1
 11
-343.706
 21
367.447
 31
5.1
  0
LINE
  5
AA5
330
A02
100
AcDbEntity
  8
Mesh_cs002
100
AcDbLine
 10
-343.706
 20
367.447
 30
5.1
 11
-344.679
 21
369.807
 31
5.1
  0
LINE
  5
AA6
330
A02
100
AcDbEntity
  8
Mesh_cs002
100
AcDbLine
 10
-344.679
 20
369.807
 30
5.1
 11
-345.39
 21
371.554
 31
5.1
  0
LINE
  5
AA7
330
A02
100
AcDbEntity
  8
Mesh_cs002
100
AcDbLine
 10
-345.39
 20
371.554
 30
5.1
 11
-346.346
 21
373.921
 31
5.1
  0
LINE
  5
AA8
330
A02
100
AcDbEntity
  8
Mesh_cs002
100
AcDbLine
 10
-346.346
 20
373.921
 30
5.1
 11
-347.044
 21
375.674
 31
5.1
  0
LINE
  5
AA9
330
A02
100
AcDbEntity
  8
Mesh_cs002
100
AcDbLine
 10
-347.044
 20
375.674
 30
5.1
 11
-347.982
 21
378.047
 31
5.1
  0
LINE
  5
AAA
330
A02
100
AcDbEntity
  8
Mesh_cs002
100
AcDbLine
 10
-347.982
 20
378.047
 30
5.1
 11
-348.668
 21
379.805
 31
5.1
  0
LINE
  5
AAB
330
A02
100
AcDbEntity
  8
Mesh_cs002
100
AcDbLine
 10
-348.668
 20
379.805
 30
5.1
 11
-349.589
 21
382.185
 31
5.1
  0
LINE
  5
AAC
330
A02
100
AcDbEntity
  8
Mesh_cs002
100
AcDbLine
 10
-349.589
 20
382.185
 30
5.1
 11
-350.261
 21
383.948
 31
5.1
  0
LINE
  5
AAD
330
A02
100
AcDbEntity
  8
Mesh_cs002
100
AcDbLine
 10
-350.261
 20
383.948
 30
5.1
 11
-351.165
 21
386.335
 31
5.1
  0
LINE
  5
AAE
330
A02
100
AcDbEntity
  8
Mesh_cs002
100
AcDbLine
 10
-351.165
 20
386.335
 30
5.1
 11
-351.825
 21
388.102
 31
5.1
  0
LINE
  5
AAF
330
A02
100
AcDbEntity
  8
Mesh_cs002
100
AcDbLine
 10
-351.825
 20
388.102
 30
5.1
 11
-352.71
 21
390.496
 31
5.1
  0
LINE
  5
AB0
330
A02
100
AcDbEntity
  8
Mesh_cs002
100
AcDbLine
 10
-352.71
 20
390.496
 30
5.1
 11
-353.357
 21
392.268
 31
5.1
  0
LINE
  5
AB1
330
A02
100
AcDbEntity
  8
Mesh_cs002
100
AcDbLine
 10
-353.357
 20
392.268
 30
5.1
 11
-354.226
 21
394.668
 31
5.1
  0
LINE
  5
AB2
330
A02
100
AcDbEntity
  8
Mesh_cs002
100
AcDbLine
 10
-354.226
 20
394.668
 30
5.1
 11
-354.86
 21
396.445
 31
5.1
  0
LINE
  5
AB3
330
A02
100
AcDbEntity
  8
Mesh_cs002
100
AcDbLine
 10
-354.86
 20
396.445
 30
5.1
 11
-355.711
 21
398.851
 31
5.1
  0
LINE
  5
AB4
330
A02
100
AcDbEntity
  8
Mesh_cs002
100
AcDbLine
 10
-355.711
 20
398.851
 30
5.1
 11
-356.332
 21
400.632
 31
5.1
  0
LINE
  5
AB5
330
A02
100
AcDbEntity
  8
Mesh_cs002
100
AcDbLine
 10
-356.332
 20
400.632
 30
5.1
 11
-357.165
 21
403.045
 31
5.1
  0
LINE
  5
AB6
330
A02
100
AcDbEntity
  8
Mesh_cs002
100
AcDbLine
 10
-357.165
 20
403.045
 30
5.1
 11
-357.773
 21
404.83
 31
5.1
  0
LINE
  5
AB7
330
A02
100
AcDbEntity
  8
Mesh_cs002
100
AcDbLine
 10
-357.773
 20
404.83
 30
5.1
 11
-358.588
 21
407.249
 31
5.1
  0
LINE
  5
AB8
330
A02
100
AcDbEntity
  8
Mesh_cs002
100
AcDbLine
 10
-358.588
 20
407.249
 30
5.1
 11
-359.183
 21
409.039
 31
5.1
  0
LINE
  5
AB9
330
A02
100
AcDbEntity
  8
Mesh_cs002
100
AcDbLine
 10
-359.183
 20
409.039
 30
5.1
 11
-359.981
 21
411.463
 31
5.1
  0
LINE
  5
ABA
330
A02
100
AcDbEntity
  8
Mesh_cs002
100
AcDbLine
 10
-359.981
 20
411.463
 30
5.1
 11
-360.627
 21
413.457
 31
5.1
  0
LINE
  5
ABB
330
A02
100
AcDbEntity
  8
Mesh_cs002
100
AcDbLine
 10
-360.627
 20
413.457
 30
5.1
 11
-361.492
 21
416.157
 31
5.1
  0
LINE
  5
ABC
330
A02
100
AcDbEntity
  8
Mesh_cs002
100
AcDbLine
 10
-361.492
 20
416.157
 30
5.1
 11
-362.122
 21
418.156
 31
5.1
  0
LINE
  5
ABD
330
A02
100
AcDbEntity
  8
Mesh_cs002
100
AcDbLine
 10
-362.122
 20
418.156
 30
5.1
 11
-362.966
 21
420.864
 31
5.1
  0
LINE
  5
ABE
330
A02
100
AcDbEntity
  8
Mesh_cs002
100
AcDbLine
 10
-362.966
 20
420.864
 30
5.1
 11
-363.579
 21
422.868
 31
5.1
  0
LINE
  5
ABF
330
A02
100
AcDbEntity
  8
Mesh_cs002
100
AcDbLine
 10
-363.579
 20
422.868
 30
5.1
 11
-364.401
 21
425.582
 31
5.1
  0
LINE
  5
AC0
330
A02
100
AcDbEntity
  8
Mesh_cs002
100
AcDbLine
 10
-364.401
 20
425.582
 30
5.1
 11
-364.998
 21
427.591
 31
5.1
  0
LINE
  5
AC1
330
A02
100
AcDbEntity
  8
Mesh_cs002
100
AcDbLine
 10
-375.096
 20
580.061
 30
5.1
 11
-375.096
 21
580.05
 31
5.1
  0
LINE
  5
AC2
330
A02
100
AcDbEntity
  8
Mesh_cs002
100
AcDbLine
 10
-375.096
 20
580.05
 30
5.1
 11
-375.06
 21
579.617
 31
5.1
  0
LINE
  5
AC3
330
A02
100
AcDbEntity
  8
Mesh_cs002
100
AcDbLine
 10
-375.06
 20
579.617
 30
5.1
 11
-375.059
 21
579.607
 31
5.1
  0
LINE
  5
AC4
330
A02
100
AcDbEntity
  8
Mesh_cs002
100
AcDbLine
 10
-375.059
 20
579.607
 30
5.1
 11
-374.984
 21
579.179
 31
5.1
  0
LINE
  5
AC5
330
A02
100
AcDbEntity
  8
Mesh_cs002
100
AcDbLine
 10
-374.984
 20
579.179
 30
5.1
 11
-374.982
 21
579.169
 31
5.1
  0
LINE
  5
AC6
330
A02
100
AcDbEntity
  8
Mesh_cs002
100
AcDbLine
 10
-374.982
 20
579.169
 30
5.1
 11
-374.979
 21
579.159
 31
5.1
  0
LINE
  5
AC7
330
A02
100
AcDbEntity
  8
Mesh_cs002
100
AcDbLine
 10
-374.979
 20
579.159
 30
5.1
 11
-374.867
 21
578.74
 31
5.1
  0
LINE
  5
AC8
330
A02
100
AcDbEntity
  8
Mesh_cs002
100
AcDbLine
 10
-374.867
 20
578.74
 30
5.1
 11
-374.864
 21
578.731
 31
5.1
  0
LINE
  5
AC9
330
A02
100
AcDbEntity
  8
Mesh_cs002
100
AcDbLine
 10
-374.864
 20
578.731
 30
5.1
 11
-374.715
 21
578.325
 31
5.1
  0
LINE
  5
ACA
330
A02
100
AcDbEntity
  8
Mesh_cs002
100
AcDbLine
 10
-374.715
 20
578.325
 30
5.1
 11
-374.711
 21
578.315
 31
5.1
  0
LINE
  5
ACB
330
A02
100
AcDbEntity
  8
Mesh_cs002
100
AcDbLine
 10
-374.711
 20
578.315
 30
5.1
 11
-374.527
 21
577.924
 31
5.1
  0
LINE
  5
ACC
330
A02
100
AcDbEntity
  8
Mesh_cs002
100
AcDbLine
 10
-374.527
 20
577.924
 30
5.1
 11
-374.521
 21
577.914
 31
5.1
  0
LINE
  5
ACD
330
A02
100
AcDbEntity
  8
Mesh_cs002
100
AcDbLine
 10
-374.521
 20
577.914
 30
5.1
 11
-374.304
 21
577.542
 31
5.1
  0
LINE
  5
ACE
330
A02
100
AcDbEntity
  8
Mesh_cs002
100
AcDbLine
 10
-374.304
 20
577.542
 30
5.1
 11
-374.298
 21
577.533
 31
5.1
  0
LINE
  5
ACF
330
A02
100
AcDbEntity
  8
Mesh_cs002
100
AcDbLine
 10
-374.298
 20
577.533
 30
5.1
 11
-374.049
 21
577.182
 31
5.1
  0
LINE
  5
AD0
330
A02
100
AcDbEntity
  8
Mesh_cs002
100
AcDbLine
 10
-374.049
 20
577.182
 30
5.1
 11
-374.042
 21
577.173
 31
5.1
  0
LINE
  5
AD1
330
A02
100
AcDbEntity
  8
Mesh_cs002
100
AcDbLine
 10
-374.042
 20
577.173
 30
5.1
 11
-373.764
 21
576.847
 31
5.1
  0
LINE
  5
AD2
330
A02
100
AcDbEntity
  8
Mesh_cs002
100
AcDbLine
 10
-373.764
 20
576.847
 30
5.1
 11
-373.757
 21
576.839
 31
5.1
  0
LINE
  5
AD3
330
A02
100
AcDbEntity
  8
Mesh_cs002
100
AcDbLine
 10
-373.757
 20
576.839
 30
5.1
 11
-373.452
 21
576.538
 31
5.1
  0
LINE
  5
AD4
330
A02
100
AcDbEntity
  8
Mesh_cs002
100
AcDbLine
 10
-373.452
 20
576.538
 30
5.1
 11
-373.443
 21
576.531
 31
5.1
  0
LINE
  5
AD5
330
A02
100
AcDbEntity
  8
Mesh_cs002
100
AcDbLine
 10
-373.443
 20
576.531
 30
5.1
 11
-373.114
 21
576.259
 31
5.1
  0
LINE
  5
AD6
330
A02
100
AcDbEntity
  8
Mesh_cs002
100
AcDbLine
 10
-373.114
 20
576.259
 30
5.1
 11
-373.105
 21
576.253
 31
5.1
  0
LINE
  5
AD7
330
A02
100
AcDbEntity
  8
Mesh_cs002
100
AcDbLine
 10
-373.105
 20
576.253
 30
5.1
 11
-372.754
 21
576.011
 31
5.1
  0
LINE
  5
AD8
330
A02
100
AcDbEntity
  8
Mesh_cs002
100
AcDbLine
 10
-372.754
 20
576.011
 30
5.1
 11
-372.745
 21
576.005
 31
5.1
  0
LINE
  5
AD9
330
A02
100
AcDbEntity
  8
Mesh_cs002
100
AcDbLine
 10
-372.745
 20
576.005
 30
5.1
 11
-372.368
 21
575.792
 31
5.1
  0
LINE
  5
ADA
330
A02
100
AcDbEntity
  8
Mesh_cs002
100
AcDbLine
 10
-372.368
 20
575.792
 30
5.1
 11
-372.358
 21
575.788
 31
5.1
  0
LINE
  5
ADB
330
A02
100
AcDbEntity
  8
Mesh_cs002
100
AcDbLine
 10
-372.358
 20
575.788
 30
5.1
 11
-371.994
 21
575.621
 31
5.1
  0
LINE
  5
ADC
330
A02
100
AcDbEntity
  8
Mesh_cs002
100
AcDbLine
 10
-371.994
 20
575.621
 30
5.1
 11
-371.617
 21
575.484
 31
5.1
  0
LINE
  5
ADD
330
A02
100
AcDbEntity
  8
Mesh_cs002
100
AcDbLine
 10
-371.617
 20
575.484
 30
5.1
 11
-371.607
 21
575.481
 31
5.1
  0
LINE
  5
ADE
330
A02
100
AcDbEntity
  8
Mesh_cs002
100
AcDbLine
 10
-371.607
 20
575.481
 30
5.1
 11
-371.222
 21
575.376
 31
5.1
  0
LINE
  5
ADF
330
A02
100
AcDbEntity
  8
Mesh_cs002
100
AcDbLine
 10
-371.222
 20
575.376
 30
5.1
 11
-371.211
 21
575.373
 31
5.1
  0
LINE
  5
AE0
330
A02
100
AcDbEntity
  8
Mesh_cs002
100
AcDbLine
 10
-371.211
 20
575.373
 30
5.1
 11
-370.82
 21
575.301
 31
5.1
  0
LINE
  5
AE1
330
A02
100
AcDbEntity
  8
Mesh_cs002
100
AcDbLine
 10
-370.82
 20
575.301
 30
5.1
 11
-370.809
 21
575.299
 31
5.1
  0
LINE
  5
AE2
330
A02
100
AcDbEntity
  8
Mesh_cs002
100
AcDbLine
 10
-370.809
 20
575.299
 30
5.1
 11
-370.413
 21
575.258
 31
5.1
  0
LINE
  5
AE3
330
A02
100
AcDbEntity
  8
Mesh_cs002
100
AcDbLine
 10
-370.413
 20
575.258
 30
5.1
 11
-370.405
 21
575.258
 31
5.1
  0
LINE
  5
AE4
330
A02
100
AcDbEntity
  8
Mesh_cs002
100
AcDbLine
 10
-370.405
 20
575.258
 30
5.1
 11
-370.397
 21
575.257
 31
5.1
  0
LINE
  5
AE5
330
A02
100
AcDbEntity
  8
Mesh_cs002
100
AcDbLine
 10
-370.397
 20
575.257
 30
5.1
 11
-370.001
 21
575.249
 31
5.1
  0
LINE
  5
AE6
330
A02
100
AcDbEntity
  8
Mesh_cs002
100
AcDbLine
 10
-370.001
 20
575.249
 30
5.1
 11
-369.992
 21
575.25
 31
5.1
  0
LINE
  5
AE7
330
A02
100
AcDbEntity
  8
Mesh_cs002
100
AcDbLine
 10
-369.992
 20
575.25
 30
5.1
 11
-369.597
 21
575.274
 31
5.1
  0
LINE
  5
AE8
330
A02
100
AcDbEntity
  8
Mesh_cs002
100
AcDbLine
 10
-369.597
 20
575.274
 30
5.1
 11
-369.588
 21
575.275
 31
5.1
  0
LINE
  5
AE9
330
A02
100
AcDbEntity
  8
Mesh_cs002
100
AcDbLine
 10
-369.588
 20
575.275
 30
5.1
 11
-369.197
 21
575.331
 31
5.1
  0
LINE
  5
AEA
330
A02
100
AcDbEntity
  8
Mesh_cs002
100
AcDbLine
 10
-369.197
 20
575.331
 30
5.1
 11
-369.186
 21
575.333
 31
5.1
  0
LINE
  5
AEB
330
A02
100
AcDbEntity
  8
Mesh_cs002
100
AcDbLine
 10
-369.186
 20
575.333
 30
5.1
 11
-368.801
 21
575.42
 31
5.1
  0
LINE
  5
AEC
330
A02
100
AcDbEntity
  8
Mesh_cs002
100
AcDbLine
 10
-368.801
 20
575.42
 30
5.1
 11
-368.79
 21
575.423
 31
5.1
  0
LINE
  5
AED
330
A02
100
AcDbEntity
  8
Mesh_cs002
100
AcDbLine
 10
-368.79
 20
575.423
 30
5.1
 11
-368.414
 21
575.541
 31
5.1
  0
LINE
  5
AEE
330
A02
100
AcDbEntity
  8
Mesh_cs002
100
AcDbLine
 10
-368.414
 20
575.541
 30
5.1
 11
-368.404
 21
575.545
 31
5.1
  0
LINE
  5
AEF
330
A02
100
AcDbEntity
  8
Mesh_cs002
100
AcDbLine
 10
-368.404
 20
575.545
 30
5.1
 11
-368.039
 21
575.693
 31
5.1
  0
LINE
  5
AF0
330
A02
100
AcDbEntity
  8
Mesh_cs002
100
AcDbLine
 10
-368.039
 20
575.693
 30
5.1
 11
-368.029
 21
575.698
 31
5.1
  0
LINE
  5
AF1
330
A02
100
AcDbEntity
  8
Mesh_cs002
100
AcDbLine
 10
-368.029
 20
575.698
 30
5.1
 11
-367.678
 21
575.874
 31
5.1
  0
LINE
  5
AF2
330
A02
100
AcDbEntity
  8
Mesh_cs002
100
AcDbLine
 10
-367.678
 20
575.874
 30
5.1
 11
-367.668
 21
575.88
 31
5.1
  0
LINE
  5
AF3
330
A02
100
AcDbEntity
  8
Mesh_cs002
100
AcDbLine
 10
-367.668
 20
575.88
 30
5.1
 11
-367.297
 21
576.108
 31
5.1
  0
LINE
  5
AF4
330
A02
100
AcDbEntity
  8
Mesh_cs002
100
AcDbLine
 10
-367.297
 20
576.108
 30
5.1
 11
-367.288
 21
576.114
 31
5.1
  0
LINE
  5
AF5
330
A02
100
AcDbEntity
  8
Mesh_cs002
100
AcDbLine
 10
-367.288
 20
576.114
 30
5.1
 11
-366.939
 21
576.374
 31
5.1
  0
LINE
  5
AF6
330
A02
100
AcDbEntity
  8
Mesh_cs002
100
AcDbLine
 10
-366.939
 20
576.374
 30
5.1
 11
-366.931
 21
576.381
 31
5.1
  0
LINE
  5
AF7
330
A02
100
AcDbEntity
  8
Mesh_cs002
100
AcDbLine
 10
-366.931
 20
576.381
 30
5.1
 11
-366.607
 21
576.671
 31
5.1
  0
LINE
  5
AF8
330
A02
100
AcDbEntity
  8
Mesh_cs002
100
AcDbLine
 10
-366.607
 20
576.671
 30
5.1
 11
-366.6
 21
576.678
 31
5.1
  0
LINE
  5
AF9
330
A02
100
AcDbEntity
  8
Mesh_cs002
100
AcDbLine
 10
-366.6
 20
576.678
 30
5.1
 11
-366.304
 21
576.994
 31
5.1
  0
LINE
  5
AFA
330
A02
100
AcDbEntity
  8
Mesh_cs002
100
AcDbLine
 10
-366.304
 20
576.994
 30
5.1
 11
-366.298
 21
577.002
 31
5.1
  0
LINE
  5
AFB
330
A02
100
AcDbEntity
  8
Mesh_cs002
100
AcDbLine
 10
-366.298
 20
577.002
 30
5.1
 11
-366.031
 21
577.342
 31
5.1
  0
LINE
  5
AFC
330
A02
100
AcDbEntity
  8
Mesh_cs002
100
AcDbLine
 10
-366.031
 20
577.342
 30
5.1
 11
-366.026
 21
577.35
 31
5.1
  0
LINE
  5
AFD
330
A02
100
AcDbEntity
  8
Mesh_cs002
100
AcDbLine
 10
-366.026
 20
577.35
 30
5.1
 11
-365.791
 21
577.713
 31
5.1
  0
LINE
  5
AFE
330
A02
100
AcDbEntity
  8
Mesh_cs002
100
AcDbLine
 10
-365.791
 20
577.713
 30
5.1
 11
-365.786
 21
577.721
 31
5.1
  0
LINE
  5
AFF
330
A02
100
AcDbEntity
  8
Mesh_cs002
100
AcDbLine
 10
-365.786
 20
577.721
 30
5.1
 11
-365.584
 21
578.102
 31
5.1
  0
LINE
  5
B00
330
A02
100
AcDbEntity
  8
Mesh_cs002
100
AcDbLine
 10
-365.584
 20
578.102
 30
5.1
 11
-365.58
 21
578.111
 31
5.1
  0
LINE
  5
B01
330
A02
100
AcDbEntity
  8
Mesh_cs002
100
AcDbLine
 10
-365.58
 20
578.111
 30
5.1
 11
-365.413
 21
578.507
 31
5.1
  0
LINE
  5
B02
330
A02
100
AcDbEntity
  8
Mesh_cs002
100
AcDbLine
 10
-365.413
 20
578.507
 30
5.1
 11
-365.41
 21
578.516
 31
5.1
  0
LINE
  5
B03
330
A02
100
AcDbEntity
  8
Mesh_cs002
100
AcDbLine
 10
-365.41
 20
578.516
 30
5.1
 11
-365.279
 21
578.924
 31
5.1
  0
LINE
  5
B04
330
A02
100
AcDbEntity
  8
Mesh_cs002
100
AcDbLine
 10
-365.279
 20
578.924
 30
5.1
 11
-365.276
 21
578.934
 31
5.1
  0
LINE
  5
B05
330
A02
100
AcDbEntity
  8
Mesh_cs002
100
AcDbLine
 10
-365.276
 20
578.934
 30
5.1
 11
-365.181
 21
579.352
 31
5.1
  0
LINE
  5
B06
330
A02
100
AcDbEntity
  8
Mesh_cs002
100
AcDbLine
 10
-365.181
 20
579.352
 30
5.1
 11
-365.179
 21
579.362
 31
5.1
  0
LINE
  5
B07
330
A02
100
AcDbEntity
  8
Mesh_cs002
100
AcDbLine
 10
-365.179
 20
579.362
 30
5.1
 11
-365.122
 21
579.784
 31
5.1
  0
LINE
  5
B08
330
A02
100
AcDbEntity
  8
Mesh_cs002
100
AcDbLine
 10
-365.122
 20
579.784
 30
5.1
 11
-365.121
 21
579.795
 31
5.1
  0
LINE
  5
B09
330
A02
100
AcDbEntity
  8
Mesh_cs002
100
AcDbLine
 10
-365.121
 20
579.795
 30
5.1
 11
-365.105
 21
580.019
 31
5.1
  0
LINE
  5
B0A
330
A02
100
AcDbEntity
  8
Mesh_cs002
100
AcDbLine
 10
-365.105
 20
580.019
 30
5.1
 11
-365.105
 21
580.029
 31
5.1
  0
LINE
  5
B0B
330
A02
100
AcDbEntity
  8
Mesh_cs002
100
AcDbLine
 10
-365.105
 20
580.029
 30
5.1
 11
-365.1
 21
580.248
 31
5.1
  0
LINE
  5
B0C
330
A02
100
AcDbEntity
  8
Mesh_cs002
100
AcDbLine
 10
-365.1
 20
580.248
 30
5.1
 11
-365.117
 21
580.649
 31
5.1
  0
LINE
  5
B0D
330
A02
100
AcDbEntity
  8
Mesh_cs002
100
AcDbLine
 10
-365.117
 20
580.649
 30
5.1
 11
-365.117
 21
580.66
 31
5.1
  0
LINE
  5
B0E
330
A02
100
AcDbEntity
  8
Mesh_cs002
100
AcDbLine
 10
-365.117
 20
580.66
 30
5.1
 11
-365.169
 21
581.076
 31
5.1
  0
LINE
  5
B0F
330
A02
100
AcDbEntity
  8
Mesh_cs002
100
AcDbLine
 10
-365.169
 20
581.076
 30
5.1
 11
-365.171
 21
581.087
 31
5.1
  0
LINE
  5
B10
330
A02
100
AcDbEntity
  8
Mesh_cs002
100
AcDbLine
 10
-365.171
 20
581.087
 30
5.1
 11
-365.254
 21
581.478
 31
5.1
  0
LINE
  5
B11
330
A02
100
AcDbEntity
  8
Mesh_cs002
100
AcDbLine
 10
-365.254
 20
581.478
 30
5.1
 11
-365.256
 21
581.488
 31
5.1
  0
LINE
  5
B12
330
A02
100
AcDbEntity
  8
Mesh_cs002
100
AcDbLine
 10
-365.256
 20
581.488
 30
5.1
 11
-365.371
 21
581.87
 31
5.1
  0
LINE
  5
B13
330
A02
100
AcDbEntity
  8
Mesh_cs002
100
AcDbLine
 10
-365.371
 20
581.87
 30
5.1
 11
-365.374
 21
581.88
 31
5.1
  0
LINE
  5
B14
330
A02
100
AcDbEntity
  8
Mesh_cs002
100
AcDbLine
 10
-365.374
 20
581.88
 30
5.1
 11
-365.519
 21
582.25
 31
5.1
  0
LINE
  5
B15
330
A02
100
AcDbEntity
  8
Mesh_cs002
100
AcDbLine
 10
-365.519
 20
582.25
 30
5.1
 11
-365.522
 21
582.26
 31
5.1
  0
LINE
  5
B16
330
A02
100
AcDbEntity
  8
Mesh_cs002
100
AcDbLine
 10
-365.522
 20
582.26
 30
5.1
 11
-365.697
 21
582.617
 31
5.1
  0
LINE
  5
B17
330
A02
100
AcDbEntity
  8
Mesh_cs002
100
AcDbLine
 10
-365.697
 20
582.617
 30
5.1
 11
-365.702
 21
582.626
 31
5.1
  0
LINE
  5
B18
330
A02
100
AcDbEntity
  8
Mesh_cs002
100
AcDbLine
 10
-365.702
 20
582.626
 30
5.1
 11
-365.904
 21
582.967
 31
5.1
  0
LINE
  5
B19
330
A02
100
AcDbEntity
  8
Mesh_cs002
100
AcDbLine
 10
-365.904
 20
582.967
 30
5.1
 11
-365.909
 21
582.976
 31
5.1
  0
LINE
  5
B1A
330
A02
100
AcDbEntity
  8
Mesh_cs002
100
AcDbLine
 10
-365.909
 20
582.976
 30
5.1
 11
-366.139
 21
583.298
 31
5.1
  0
LINE
  5
B1B
330
A02
100
AcDbEntity
  8
Mesh_cs002
100
AcDbLine
 10
-366.139
 20
583.298
 30
5.1
 11
-366.145
 21
583.307
 31
5.1
  0
LINE
  5
B1C
330
A02
100
AcDbEntity
  8
Mesh_cs002
100
AcDbLine
 10
-366.145
 20
583.307
 30
5.1
 11
-366.399
 21
583.609
 31
5.1
  0
LINE
  5
B1D
330
A02
100
AcDbEntity
  8
Mesh_cs002
100
AcDbLine
 10
-366.399
 20
583.609
 30
5.1
 11
-366.405
 21
583.617
 31
5.1
  0
LINE
  5
B1E
330
A02
100
AcDbEntity
  8
Mesh_cs002
100
AcDbLine
 10
-366.405
 20
583.617
 30
5.1
 11
-366.683
 21
583.898
 31
5.1
  0
LINE
  5
B1F
330
A02
100
AcDbEntity
  8
Mesh_cs002
100
AcDbLine
 10
-366.683
 20
583.898
 30
5.1
 11
-366.989
 21
584.162
 31
5.1
  0
LINE
  5
B20
330
A02
100
AcDbEntity
  8
Mesh_cs002
100
AcDbLine
 10
-366.989
 20
584.162
 30
5.1
 11
-367.314
 21
584.4
 31
5.1
  0
LINE
  5
B21
330
A02
100
AcDbEntity
  8
Mesh_cs002
100
AcDbLine
 10
-367.314
 20
584.4
 30
5.1
 11
-367.322
 21
584.406
 31
5.1
  0
LINE
  5
B22
330
A02
100
AcDbEntity
  8
Mesh_cs002
100
AcDbLine
 10
-367.322
 20
584.406
 30
5.1
 11
-367.657
 21
584.611
 31
5.1
  0
LINE
  5
B23
330
A02
100
AcDbEntity
  8
Mesh_cs002
100
AcDbLine
 10
-367.657
 20
584.611
 30
5.1
 11
-367.675
 21
584.62
 31
5.1
  0
LINE
  5
B24
330
A02
100
AcDbEntity
  8
Mesh_cs002
100
AcDbLine
 10
-367.675
 20
584.62
 30
5.1
 11
-368.064
 21
584.815
 31
5.1
  0
LINE
  5
B25
330
A02
100
AcDbEntity
  8
Mesh_cs002
100
AcDbLine
 10
-368.064
 20
584.815
 30
5.1
 11
-368.479
 21
584.978
 31
5.1
  0
LINE
  5
B26
330
A02
100
AcDbEntity
  8
Mesh_cs002
100
AcDbLine
 10
-368.479
 20
584.978
 30
5.1
 11
-368.906
 21
585.104
 31
5.1
  0
LINE
  5
B27
330
A02
100
AcDbEntity
  8
Mesh_cs002
100
AcDbLine
 10
-368.906
 20
585.104
 30
5.1
 11
-369.341
 21
585.19
 31
5.1
  0
LINE
  5
B28
330
A02
100
AcDbEntity
  8
Mesh_cs002
100
AcDbLine
 10
-369.341
 20
585.19
 30
5.1
 11
-369.782
 21
585.238
 31
5.1
  0
LINE
  5
B29
330
A02
100
AcDbEntity
  8
Mesh_cs002
100
AcDbLine
 10
-369.782
 20
585.238
 30
5.1
 11
-370.224
 21
585.247
 31
5.1
  0
LINE
  5
B2A
330
A02
100
AcDbEntity
  8
Mesh_cs002
100
AcDbLine
 10
-370.224
 20
585.247
 30
5.1
 11
-370.664
 21
585.216
 31
5.1
  0
LINE
  5
B2B
330
A02
100
AcDbEntity
  8
Mesh_cs002
100
AcDbLine
 10
-370.664
 20
585.216
 30
5.1
 11
-371.099
 21
585.147
 31
5.1
  0
LINE
  5
B2C
330
A02
100
AcDbEntity
  8
Mesh_cs002
100
AcDbLine
 10
-371.099
 20
585.147
 30
5.1
 11
-371.525
 21
585.041
 31
5.1
  0
LINE
  5
B2D
330
A02
100
AcDbEntity
  8
Mesh_cs002
100
AcDbLine
 10
-371.525
 20
585.041
 30
5.1
 11
-371.94
 21
584.897
 31
5.1
  0
LINE
  5
B2E
330
A02
100
AcDbEntity
  8
Mesh_cs002
100
AcDbLine
 10
-371.94
 20
584.897
 30
5.1
 11
-372.339
 21
584.719
 31
5.1
  0
LINE
  5
B2F
330
A02
100
AcDbEntity
  8
Mesh_cs002
100
AcDbLine
 10
-372.339
 20
584.719
 30
5.1
 11
-372.722
 21
584.506
 31
5.1
  0
LINE
  5
B30
330
A02
100
AcDbEntity
  8
Mesh_cs002
100
AcDbLine
 10
-372.722
 20
584.506
 30
5.1
 11
-373.055
 21
584.281
 31
5.1
  0
LINE
  5
B31
330
A02
100
AcDbEntity
  8
Mesh_cs002
100
AcDbLine
 10
-373.055
 20
584.281
 30
5.1
 11
-373.376
 21
584.025
 31
5.1
  0
LINE
  5
B32
330
A02
100
AcDbEntity
  8
Mesh_cs002
100
AcDbLine
 10
-373.376
 20
584.025
 30
5.1
 11
-373.675
 21
583.744
 31
5.1
  0
LINE
  5
B33
330
A02
100
AcDbEntity
  8
Mesh_cs002
100
AcDbLine
 10
-373.675
 20
583.744
 30
5.1
 11
-373.949
 21
583.439
 31
5.1
  0
LINE
  5
B34
330
A02
100
AcDbEntity
  8
Mesh_cs002
100
AcDbLine
 10
-373.949
 20
583.439
 30
5.1
 11
-374.196
 21
583.115
 31
5.1
  0
LINE
  5
B35
330
A02
100
AcDbEntity
  8
Mesh_cs002
100
AcDbLine
 10
-374.196
 20
583.115
 30
5.1
 11
-374.416
 21
582.772
 31
5.1
  0
LINE
  5
B36
330
A02
100
AcDbEntity
  8
Mesh_cs002
100
AcDbLine
 10
-374.416
 20
582.772
 30
5.1
 11
-374.607
 21
582.413
 31
5.1
  0
LINE
  5
B37
330
A02
100
AcDbEntity
  8
Mesh_cs002
100
AcDbLine
 10
-374.607
 20
582.413
 30
5.1
 11
-374.612
 21
582.404
 31
5.1
  0
LINE
  5
B38
330
A02
100
AcDbEntity
  8
Mesh_cs002
100
AcDbLine
 10
-374.612
 20
582.404
 30
5.1
 11
-374.768
 21
582.04
 31
5.1
  0
LINE
  5
B39
330
A02
100
AcDbEntity
  8
Mesh_cs002
100
AcDbLine
 10
-374.768
 20
582.04
 30
5.1
 11
-374.772
 21
582.03
 31
5.1
  0
LINE
  5
B3A
330
A02
100
AcDbEntity
  8
Mesh_cs002
100
AcDbLine
 10
-374.772
 20
582.03
 30
5.1
 11
-374.897
 21
581.656
 31
5.1
  0
LINE
  5
B3B
330
A02
100
AcDbEntity
  8
Mesh_cs002
100
AcDbLine
 10
-374.897
 20
581.656
 30
5.1
 11
-374.996
 21
581.264
 31
5.1
  0
LINE
  5
B3C
330
A02
100
AcDbEntity
  8
Mesh_cs002
100
AcDbLine
 10
-374.996
 20
581.264
 30
5.1
 11
-375.062
 21
580.865
 31
5.1
  0
LINE
  5
B3D
330
A02
100
AcDbEntity
  8
Mesh_cs002
100
AcDbLine
 10
-375.062
 20
580.865
 30
5.1
 11
-375.063
 21
580.855
 31
5.1
  0
LINE
  5
B3E
330
A02
100
AcDbEntity
  8
Mesh_cs002
100
AcDbLine
 10
-375.063
 20
580.855
 30
5.1
 11
-375.095
 21
580.463
 31
5.1
  0
LINE
  5
B3F
330
A02
100
AcDbEntity
  8
Mesh_cs002
100
AcDbLine
 10
-375.095
 20
580.463
 30
5.1
 11
-375.096
 21
580.061
 31
5.1
  0
LINE
  5
B40
330
A02
100
AcDbEntity
  8
Mesh_cs002
100
AcDbLine
 10
-273.635
 20
267.785
 30
5.1
 11
-273.86
 21
268.157
 31
5.1
  0
LINE
  5
B41
330
A02
100
AcDbEntity
  8
Mesh_cs002
100
AcDbLine
 10
-273.86
 20
268.157
 30
5.1
 11
-273.865
 21
268.166
 31
5.1
  0
LINE
  5
B42
330
A02
100
AcDbEntity
  8
Mesh_cs002
100
AcDbLine
 10
-273.865
 20
268.166
 30
5.1
 11
-274.056
 21
268.556
 31
5.1
  0
LINE
  5
B43
330
A02
100
AcDbEntity
  8
Mesh_cs002
100
AcDbLine
 10
-274.056
 20
268.556
 30
5.1
 11
-274.061
 21
268.565
 31
5.1
  0
LINE
  5
B44
330
A02
100
AcDbEntity
  8
Mesh_cs002
100
AcDbLine
 10
-274.061
 20
268.565
 30
5.1
 11
-274.064
 21
268.574
 31
5.1
  0
LINE
  5
B45
330
A02
100
AcDbEntity
  8
Mesh_cs002
100
AcDbLine
 10
-274.064
 20
268.574
 30
5.1
 11
-274.22
 21
268.979
 31
5.1
  0
LINE
  5
B46
330
A02
100
AcDbEntity
  8
Mesh_cs002
100
AcDbLine
 10
-274.22
 20
268.979
 30
5.1
 11
-274.223
 21
268.989
 31
5.1
  0
LINE
  5
B47
330
A02
100
AcDbEntity
  8
Mesh_cs002
100
AcDbLine
 10
-274.223
 20
268.989
 30
5.1
 11
-274.341
 21
269.405
 31
5.1
  0
LINE
  5
B48
330
A02
100
AcDbEntity
  8
Mesh_cs002
100
AcDbLine
 10
-274.341
 20
269.405
 30
5.1
 11
-274.343
 21
269.416
 31
5.1
  0
LINE
  5
B49
330
A02
100
AcDbEntity
  8
Mesh_cs002
100
AcDbLine
 10
-274.343
 20
269.416
 30
5.1
 11
-274.424
 21
269.84
 31
5.1
  0
LINE
  5
B4A
330
A02
100
AcDbEntity
  8
Mesh_cs002
100
AcDbLine
 10
-274.424
 20
269.84
 30
5.1
 11
-274.426
 21
269.851
 31
5.1
  0
LINE
  5
B4B
330
A02
100
AcDbEntity
  8
Mesh_cs002
100
AcDbLine
 10
-274.426
 20
269.851
 30
5.1
 11
-274.469
 21
270.28
 31
5.1
  0
LINE
  5
B4C
330
A02
100
AcDbEntity
  8
Mesh_cs002
100
AcDbLine
 10
-274.469
 20
270.28
 30
5.1
 11
-274.469
 21
270.291
 31
5.1
  0
LINE
  5
B4D
330
A02
100
AcDbEntity
  8
Mesh_cs002
100
AcDbLine
 10
-274.469
 20
270.291
 30
5.1
 11
-274.474
 21
270.721
 31
5.1
  0
LINE
  5
B4E
330
A02
100
AcDbEntity
  8
Mesh_cs002
100
AcDbLine
 10
-274.474
 20
270.721
 30
5.1
 11
-274.473
 21
270.732
 31
5.1
  0
LINE
  5
B4F
330
A02
100
AcDbEntity
  8
Mesh_cs002
100
AcDbLine
 10
-274.473
 20
270.732
 30
5.1
 11
-274.441
 21
271.16
 31
5.1
  0
LINE
  5
B50
330
A02
100
AcDbEntity
  8
Mesh_cs002
100
AcDbLine
 10
-274.441
 20
271.16
 30
5.1
 11
-274.439
 21
271.171
 31
5.1
  0
LINE
  5
B51
330
A02
100
AcDbEntity
  8
Mesh_cs002
100
AcDbLine
 10
-274.439
 20
271.171
 30
5.1
 11
-274.369
 21
271.593
 31
5.1
  0
LINE
  5
B52
330
A02
100
AcDbEntity
  8
Mesh_cs002
100
AcDbLine
 10
-274.369
 20
271.593
 30
5.1
 11
-274.366
 21
271.604
 31
5.1
  0
LINE
  5
B53
330
A02
100
AcDbEntity
  8
Mesh_cs002
100
AcDbLine
 10
-274.366
 20
271.604
 30
5.1
 11
-274.26
 21
272.017
 31
5.1
  0
LINE
  5
B54
330
A02
100
AcDbEntity
  8
Mesh_cs002
100
AcDbLine
 10
-274.26
 20
272.017
 30
5.1
 11
-274.256
 21
272.028
 31
5.1
  0
LINE
  5
B55
330
A02
100
AcDbEntity
  8
Mesh_cs002
100
AcDbLine
 10
-274.256
 20
272.028
 30
5.1
 11
-274.115
 21
272.43
 31
5.1
  0
LINE
  5
B56
330
A02
100
AcDbEntity
  8
Mesh_cs002
100
AcDbLine
 10
-274.115
 20
272.43
 30
5.1
 11
-274.11
 21
272.44
 31
5.1
  0
LINE
  5
B57
330
A02
100
AcDbEntity
  8
Mesh_cs002
100
AcDbLine
 10
-274.11
 20
272.44
 30
5.1
 11
-273.931
 21
272.833
 31
5.1
  0
LINE
  5
B58
330
A02
100
AcDbEntity
  8
Mesh_cs002
100
AcDbLine
 10
-273.931
 20
272.833
 30
5.1
 11
-273.925
 21
272.843
 31
5.1
  0
LINE
  5
B59
330
A02
100
AcDbEntity
  8
Mesh_cs002
100
AcDbLine
 10
-273.925
 20
272.843
 30
5.1
 11
-273.729
 21
273.192
 31
5.1
  0
LINE
  5
B5A
330
A02
100
AcDbEntity
  8
Mesh_cs002
100
AcDbLine
 10
-273.729
 20
273.192
 30
5.1
 11
-273.504
 21
273.524
 31
5.1
  0
LINE
  5
B5B
330
A02
100
AcDbEntity
  8
Mesh_cs002
100
AcDbLine
 10
-273.504
 20
273.524
 30
5.1
 11
-273.498
 21
273.533
 31
5.1
  0
LINE
  5
B5C
330
A02
100
AcDbEntity
  8
Mesh_cs002
100
AcDbLine
 10
-273.498
 20
273.533
 30
5.1
 11
-273.248
 21
273.844
 31
5.1
  0
LINE
  5
B5D
330
A02
100
AcDbEntity
  8
Mesh_cs002
100
AcDbLine
 10
-273.248
 20
273.844
 30
5.1
 11
-273.241
 21
273.852
 31
5.1
  0
LINE
  5
B5E
330
A02
100
AcDbEntity
  8
Mesh_cs002
100
AcDbLine
 10
-273.241
 20
273.852
 30
5.1
 11
-272.967
 21
274.141
 31
5.1
  0
LINE
  5
B5F
330
A02
100
AcDbEntity
  8
Mesh_cs002
100
AcDbLine
 10
-272.967
 20
274.141
 30
5.1
 11
-272.959
 21
274.149
 31
5.1
  0
LINE
  5
B60
330
A02
100
AcDbEntity
  8
Mesh_cs002
100
AcDbLine
 10
-272.959
 20
274.149
 30
5.1
 11
-272.663
 21
274.414
 31
5.1
  0
LINE
  5
B61
330
A02
100
AcDbEntity
  8
Mesh_cs002
100
AcDbLine
 10
-272.663
 20
274.414
 30
5.1
 11
-272.657
 21
274.42
 31
5.1
  0
LINE
  5
B62
330
A02
100
AcDbEntity
  8
Mesh_cs002
100
AcDbLine
 10
-272.657
 20
274.42
 30
5.1
 11
-272.651
 21
274.424
 31
5.1
  0
LINE
  5
B63
330
A02
100
AcDbEntity
  8
Mesh_cs002
100
AcDbLine
 10
-272.651
 20
274.424
 30
5.1
 11
-272.335
 21
274.664
 31
5.1
  0
LINE
  5
B64
330
A02
100
AcDbEntity
  8
Mesh_cs002
100
AcDbLine
 10
-272.335
 20
274.664
 30
5.1
 11
-272.328
 21
274.669
 31
5.1
  0
LINE
  5
B65
330
A02
100
AcDbEntity
  8
Mesh_cs002
100
AcDbLine
 10
-272.328
 20
274.669
 30
5.1
 11
-271.993
 21
274.882
 31
5.1
  0
LINE
  5
B66
330
A02
100
AcDbEntity
  8
Mesh_cs002
100
AcDbLine
 10
-271.993
 20
274.882
 30
5.1
 11
-271.986
 21
274.886
 31
5.1
  0
LINE
  5
B67
330
A02
100
AcDbEntity
  8
Mesh_cs002
100
AcDbLine
 10
-271.986
 20
274.886
 30
5.1
 11
-271.636
 21
275.071
 31
5.1
  0
LINE
  5
B68
330
A02
100
AcDbEntity
  8
Mesh_cs002
100
AcDbLine
 10
-271.636
 20
275.071
 30
5.1
 11
-271.626
 21
275.076
 31
5.1
  0
LINE
  5
B69
330
A02
100
AcDbEntity
  8
Mesh_cs002
100
AcDbLine
 10
-271.626
 20
275.076
 30
5.1
 11
-271.264
 21
275.231
 31
5.1
  0
LINE
  5
B6A
330
A02
100
AcDbEntity
  8
Mesh_cs002
100
AcDbLine
 10
-271.264
 20
275.231
 30
5.1
 11
-271.253
 21
275.235
 31
5.1
  0
LINE
  5
B6B
330
A02
100
AcDbEntity
  8
Mesh_cs002
100
AcDbLine
 10
-271.253
 20
275.235
 30
5.1
 11
-270.88
 21
275.361
 31
5.1
  0
LINE
  5
B6C
330
A02
100
AcDbEntity
  8
Mesh_cs002
100
AcDbLine
 10
-270.88
 20
275.361
 30
5.1
 11
-270.869
 21
275.364
 31
5.1
  0
LINE
  5
B6D
330
A02
100
AcDbEntity
  8
Mesh_cs002
100
AcDbLine
 10
-270.869
 20
275.364
 30
5.1
 11
-270.487
 21
275.458
 31
5.1
  0
LINE
  5
B6E
330
A02
100
AcDbEntity
  8
Mesh_cs002
100
AcDbLine
 10
-270.487
 20
275.458
 30
5.1
 11
-270.476
 21
275.46
 31
5.1
  0
LINE
  5
B6F
330
A02
100
AcDbEntity
  8
Mesh_cs002
100
AcDbLine
 10
-270.476
 20
275.46
 30
5.1
 11
-270.088
 21
275.524
 31
5.1
  0
LINE
  5
B70
330
A02
100
AcDbEntity
  8
Mesh_cs002
100
AcDbLine
 10
-270.088
 20
275.524
 30
5.1
 11
-270.077
 21
275.525
 31
5.1
  0
LINE
  5
B71
330
A02
100
AcDbEntity
  8
Mesh_cs002
100
AcDbLine
 10
-270.077
 20
275.525
 30
5.1
 11
-269.643
 21
275.559
 31
5.1
  0
LINE
  5
B72
330
A02
100
AcDbEntity
  8
Mesh_cs002
100
AcDbLine
 10
-269.643
 20
275.559
 30
5.1
 11
-269.632
 21
275.559
 31
5.1
  0
LINE
  5
B73
330
A02
100
AcDbEntity
  8
Mesh_cs002
100
AcDbLine
 10
-269.632
 20
275.559
 30
5.1
 11
-269.197
 21
275.554
 31
5.1
  0
LINE
  5
B74
330
A02
100
AcDbEntity
  8
Mesh_cs002
100
AcDbLine
 10
-269.197
 20
275.554
 30
5.1
 11
-269.186
 21
275.553
 31
5.1
  0
LINE
  5
B75
330
A02
100
AcDbEntity
  8
Mesh_cs002
100
AcDbLine
 10
-269.186
 20
275.553
 30
5.1
 11
-268.754
 21
275.509
 31
5.1
  0
LINE
  5
B76
330
A02
100
AcDbEntity
  8
Mesh_cs002
100
AcDbLine
 10
-268.754
 20
275.509
 30
5.1
 11
-268.744
 21
275.507
 31
5.1
  0
LINE
  5
B77
330
A02
100
AcDbEntity
  8
Mesh_cs002
100
AcDbLine
 10
-268.744
 20
275.507
 30
5.1
 11
-268.318
 21
275.425
 31
5.1
  0
LINE
  5
B78
330
A02
100
AcDbEntity
  8
Mesh_cs002
100
AcDbLine
 10
-268.318
 20
275.425
 30
5.1
 11
-268.309
 21
275.423
 31
5.1
  0
LINE
  5
B79
330
A02
100
AcDbEntity
  8
Mesh_cs002
100
AcDbLine
 10
-268.309
 20
275.423
 30
5.1
 11
-267.893
 21
275.304
 31
5.1
  0
LINE
  5
B7A
330
A02
100
AcDbEntity
  8
Mesh_cs002
100
AcDbLine
 10
-267.893
 20
275.304
 30
5.1
 11
-267.884
 21
275.301
 31
5.1
  0
LINE
  5
B7B
330
A02
100
AcDbEntity
  8
Mesh_cs002
100
AcDbLine
 10
-267.884
 20
275.301
 30
5.1
 11
-267.481
 21
275.146
 31
5.1
  0
LINE
  5
B7C
330
A02
100
AcDbEntity
  8
Mesh_cs002
100
AcDbLine
 10
-267.481
 20
275.146
 30
5.1
 11
-267.472
 21
275.142
 31
5.1
  0
LINE
  5
B7D
330
A02
100
AcDbEntity
  8
Mesh_cs002
100
AcDbLine
 10
-267.472
 20
275.142
 30
5.1
 11
-267.085
 21
274.952
 31
5.1
  0
LINE
  5
B7E
330
A02
100
AcDbEntity
  8
Mesh_cs002
100
AcDbLine
 10
-267.085
 20
274.952
 30
5.1
 11
-267.076
 21
274.947
 31
5.1
  0
LINE
  5
B7F
330
A02
100
AcDbEntity
  8
Mesh_cs002
100
AcDbLine
 10
-267.076
 20
274.947
 30
5.1
 11
-266.709
 21
274.725
 31
5.1
  0
LINE
  5
B80
330
A02
100
AcDbEntity
  8
Mesh_cs002
100
AcDbLine
 10
-266.709
 20
274.725
 30
5.1
 11
-266.7
 21
274.72
 31
5.1
  0
LINE
  5
B81
330
A02
100
AcDbEntity
  8
Mesh_cs002
100
AcDbLine
 10
-266.7
 20
274.72
 30
5.1
 11
-266.354
 21
274.466
 31
5.1
  0
LINE
  5
B82
330
A02
100
AcDbEntity
  8
Mesh_cs002
100
AcDbLine
 10
-266.354
 20
274.466
 30
5.1
 11
-266.346
 21
274.46
 31
5.1
  0
LINE
  5
B83
330
A02
100
AcDbEntity
  8
Mesh_cs002
100
AcDbLine
 10
-266.346
 20
274.46
 30
5.1
 11
-266.025
 21
274.178
 31
5.1
  0
LINE
  5
B84
330
A02
100
AcDbEntity
  8
Mesh_cs002
100
AcDbLine
 10
-266.025
 20
274.178
 30
5.1
 11
-266.017
 21
274.171
 31
5.1
  0
LINE
  5
B85
330
A02
100
AcDbEntity
  8
Mesh_cs002
100
AcDbLine
 10
-266.017
 20
274.171
 30
5.1
 11
-265.722
 21
273.863
 31
5.1
  0
LINE
  5
B86
330
A02
100
AcDbEntity
  8
Mesh_cs002
100
AcDbLine
 10
-265.722
 20
273.863
 30
5.1
 11
-265.715
 21
273.855
 31
5.1
  0
LINE
  5
B87
330
A02
100
AcDbEntity
  8
Mesh_cs002
100
AcDbLine
 10
-265.715
 20
273.855
 30
5.1
 11
-265.571
 21
273.683
 31
5.1
  0
LINE
  5
B88
330
A02
100
AcDbEntity
  8
Mesh_cs002
100
AcDbLine
 10
-265.571
 20
273.683
 30
5.1
 11
-265.564
 21
273.675
 31
5.1
  0
LINE
  5
B89
330
A02
100
AcDbEntity
  8
Mesh_cs002
100
AcDbLine
 10
-265.564
 20
273.675
 30
5.1
 11
-265.432
 21
273.5
 31
5.1
  0
LINE
  5
B8A
330
A02
100
AcDbEntity
  8
Mesh_cs002
100
AcDbLine
 10
-265.432
 20
273.5
 30
5.1
 11
-265.209
 21
273.166
 31
5.1
  0
LINE
  5
B8B
330
A02
100
AcDbEntity
  8
Mesh_cs002
100
AcDbLine
 10
-265.209
 20
273.166
 30
5.1
 11
-265.203
 21
273.158
 31
5.1
  0
LINE
  5
B8C
330
A02
100
AcDbEntity
  8
Mesh_cs002
100
AcDbLine
 10
-265.203
 20
273.158
 30
5.1
 11
-265.001
 21
272.79
 31
5.1
  0
LINE
  5
B8D
330
A02
100
AcDbEntity
  8
Mesh_cs002
100
AcDbLine
 10
-265.001
 20
272.79
 30
5.1
 11
-264.996
 21
272.78
 31
5.1
  0
LINE
  5
B8E
330
A02
100
AcDbEntity
  8
Mesh_cs002
100
AcDbLine
 10
-264.996
 20
272.78
 30
5.1
 11
-264.833
 21
272.415
 31
5.1
  0
LINE
  5
B8F
330
A02
100
AcDbEntity
  8
Mesh_cs002
100
AcDbLine
 10
-264.833
 20
272.415
 30
5.1
 11
-264.829
 21
272.406
 31
5.1
  0
LINE
  5
B90
330
A02
100
AcDbEntity
  8
Mesh_cs002
100
AcDbLine
 10
-264.829
 20
272.406
 30
5.1
 11
-264.697
 21
272.03
 31
5.1
  0
LINE
  5
B91
330
A02
100
AcDbEntity
  8
Mesh_cs002
100
AcDbLine
 10
-264.697
 20
272.03
 30
5.1
 11
-264.694
 21
272.02
 31
5.1
  0
LINE
  5
B92
330
A02
100
AcDbEntity
  8
Mesh_cs002
100
AcDbLine
 10
-264.694
 20
272.02
 30
5.1
 11
-264.594
 21
271.635
 31
5.1
  0
LINE
  5
B93
330
A02
100
AcDbEntity
  8
Mesh_cs002
100
AcDbLine
 10
-264.594
 20
271.635
 30
5.1
 11
-264.591
 21
271.625
 31
5.1
  0
LINE
  5
B94
330
A02
100
AcDbEntity
  8
Mesh_cs002
100
AcDbLine
 10
-264.591
 20
271.625
 30
5.1
 11
-264.522
 21
271.233
 31
5.1
  0
LINE
  5
B95
330
A02
100
AcDbEntity
  8
Mesh_cs002
100
AcDbLine
 10
-264.522
 20
271.233
 30
5.1
 11
-264.521
 21
271.223
 31
5.1
  0
LINE
  5
B96
330
A02
100
AcDbEntity
  8
Mesh_cs002
100
AcDbLine
 10
-264.521
 20
271.223
 30
5.1
 11
-264.484
 21
270.828
 31
5.1
  0
LINE
  5
B97
330
A02
100
AcDbEntity
  8
Mesh_cs002
100
AcDbLine
 10
-264.484
 20
270.828
 30
5.1
 11
-264.483
 21
270.818
 31
5.1
  0
LINE
  5
B98
330
A02
100
AcDbEntity
  8
Mesh_cs002
100
AcDbLine
 10
-264.483
 20
270.818
 30
5.1
 11
-264.479
 21
270.422
 31
5.1
  0
LINE
  5
B99
330
A02
100
AcDbEntity
  8
Mesh_cs002
100
AcDbLine
 10
-264.479
 20
270.422
 30
5.1
 11
-264.479
 21
270.412
 31
5.1
  0
LINE
  5
B9A
330
A02
100
AcDbEntity
  8
Mesh_cs002
100
AcDbLine
 10
-264.479
 20
270.412
 30
5.1
 11
-264.507
 21
270.018
 31
5.1
  0
LINE
  5
B9B
330
A02
100
AcDbEntity
  8
Mesh_cs002
100
AcDbLine
 10
-264.507
 20
270.018
 30
5.1
 11
-264.507
 21
270.008
 31
5.1
  0
LINE
  5
B9C
330
A02
100
AcDbEntity
  8
Mesh_cs002
100
AcDbLine
 10
-264.507
 20
270.008
 30
5.1
 11
-264.567
 21
269.618
 31
5.1
  0
LINE
  5
B9D
330
A02
100
AcDbEntity
  8
Mesh_cs002
100
AcDbLine
 10
-264.567
 20
269.618
 30
5.1
 11
-264.568
 21
269.608
 31
5.1
  0
LINE
  5
B9E
330
A02
100
AcDbEntity
  8
Mesh_cs002
100
AcDbLine
 10
-264.568
 20
269.608
 30
5.1
 11
-264.659
 21
269.224
 31
5.1
  0
LINE
  5
B9F
330
A02
100
AcDbEntity
  8
Mesh_cs002
100
AcDbLine
 10
-264.659
 20
269.224
 30
5.1
 11
-264.661
 21
269.214
 31
5.1
  0
LINE
  5
BA0
330
A02
100
AcDbEntity
  8
Mesh_cs002
100
AcDbLine
 10
-264.661
 20
269.214
 30
5.1
 11
-264.783
 21
268.84
 31
5.1
  0
LINE
  5
BA1
330
A02
100
AcDbEntity
  8
Mesh_cs002
100
AcDbLine
 10
-264.783
 20
268.84
 30
5.1
 11
-264.786
 21
268.831
 31
5.1
  0
LINE
  5
BA2
330
A02
100
AcDbEntity
  8
Mesh_cs002
100
AcDbLine
 10
-264.786
 20
268.831
 30
5.1
 11
-264.936
 21
268.468
 31
5.1
  0
LINE
  5
BA3
330
A02
100
AcDbEntity
  8
Mesh_cs002
100
AcDbLine
 10
-264.936
 20
268.468
 30
5.1
 11
-264.94
 21
268.459
 31
5.1
  0
LINE
  5
BA4
330
A02
100
AcDbEntity
  8
Mesh_cs002
100
AcDbLine
 10
-264.94
 20
268.459
 30
5.1
 11
-264.945
 21
268.45
 31
5.1
  0
LINE
  5
BA5
330
A02
100
AcDbEntity
  8
Mesh_cs002
100
AcDbLine
 10
-264.945
 20
268.45
 30
5.1
 11
-265.145
 21
268.063
 31
5.1
  0
LINE
  5
BA6
330
A02
100
AcDbEntity
  8
Mesh_cs002
100
AcDbLine
 10
-265.145
 20
268.063
 30
5.1
 11
-265.151
 21
268.054
 31
5.1
  0
LINE
  5
BA7
330
A02
100
AcDbEntity
  8
Mesh_cs002
100
AcDbLine
 10
-265.151
 20
268.054
 30
5.1
 11
-265.385
 21
267.688
 31
5.1
  0
LINE
  5
BA8
330
A02
100
AcDbEntity
  8
Mesh_cs002
100
AcDbLine
 10
-265.385
 20
267.688
 30
5.1
 11
-265.392
 21
267.679
 31
5.1
  0
LINE
  5
BA9
330
A02
100
AcDbEntity
  8
Mesh_cs002
100
AcDbLine
 10
-265.392
 20
267.679
 30
5.1
 11
-265.657
 21
267.335
 31
5.1
  0
LINE
  5
BAA
330
A02
100
AcDbEntity
  8
Mesh_cs002
100
AcDbLine
 10
-265.657
 20
267.335
 30
5.1
 11
-265.664
 21
267.327
 31
5.1
  0
LINE
  5
BAB
330
A02
100
AcDbEntity
  8
Mesh_cs002
100
AcDbLine
 10
-265.664
 20
267.327
 30
5.1
 11
-265.958
 21
267.009
 31
5.1
  0
LINE
  5
BAC
330
A02
100
AcDbEntity
  8
Mesh_cs002
100
AcDbLine
 10
-265.958
 20
267.009
 30
5.1
 11
-265.966
 21
267.002
 31
5.1
  0
LINE
  5
BAD
330
A02
100
AcDbEntity
  8
Mesh_cs002
100
AcDbLine
 10
-265.966
 20
267.002
 30
5.1
 11
-266.286
 21
266.711
 31
5.1
  0
LINE
  5
BAE
330
A02
100
AcDbEntity
  8
Mesh_cs002
100
AcDbLine
 10
-266.286
 20
266.711
 30
5.1
 11
-266.295
 21
266.705
 31
5.1
  0
LINE
  5
BAF
330
A02
100
AcDbEntity
  8
Mesh_cs002
100
AcDbLine
 10
-266.295
 20
266.705
 30
5.1
 11
-266.639
 21
266.445
 31
5.1
  0
LINE
  5
BB0
330
A02
100
AcDbEntity
  8
Mesh_cs002
100
AcDbLine
 10
-266.639
 20
266.445
 30
5.1
 11
-266.648
 21
266.439
 31
5.1
  0
LINE
  5
BB1
330
A02
100
AcDbEntity
  8
Mesh_cs002
100
AcDbLine
 10
-266.648
 20
266.439
 30
5.1
 11
-267.013
 21
266.211
 31
5.1
  0
LINE
  5
BB2
330
A02
100
AcDbEntity
  8
Mesh_cs002
100
AcDbLine
 10
-267.013
 20
266.211
 30
5.1
 11
-267.023
 21
266.205
 31
5.1
  0
LINE
  5
BB3
330
A02
100
AcDbEntity
  8
Mesh_cs002
100
AcDbLine
 10
-267.023
 20
266.205
 30
5.1
 11
-267.405
 21
266.011
 31
5.1
  0
LINE
  5
BB4
330
A02
100
AcDbEntity
  8
Mesh_cs002
100
AcDbLine
 10
-267.405
 20
266.011
 30
5.1
 11
-267.416
 21
266.007
 31
5.1
  0
LINE
  5
BB5
330
A02
100
AcDbEntity
  8
Mesh_cs002
100
AcDbLine
 10
-267.416
 20
266.007
 30
5.1
 11
-267.813
 21
265.846
 31
5.1
  0
LINE
  5
BB6
330
A02
100
AcDbEntity
  8
Mesh_cs002
100
AcDbLine
 10
-267.813
 20
265.846
 30
5.1
 11
-267.823
 21
265.843
 31
5.1
  0
LINE
  5
BB7
330
A02
100
AcDbEntity
  8
Mesh_cs002
100
AcDbLine
 10
-267.823
 20
265.843
 30
5.1
 11
-268.232
 21
265.719
 31
5.1
  0
LINE
  5
BB8
330
A02
100
AcDbEntity
  8
Mesh_cs002
100
AcDbLine
 10
-268.232
 20
265.719
 30
5.1
 11
-268.243
 21
265.716
 31
5.1
  0
LINE
  5
BB9
330
A02
100
AcDbEntity
  8
Mesh_cs002
100
AcDbLine
 10
-268.243
 20
265.716
 30
5.1
 11
-268.66
 21
265.629
 31
5.1
  0
LINE
  5
BBA
330
A02
100
AcDbEntity
  8
Mesh_cs002
100
AcDbLine
 10
-268.66
 20
265.629
 30
5.1
 11
-268.671
 21
265.627
 31
5.1
  0
LINE
  5
BBB
330
A02
100
AcDbEntity
  8
Mesh_cs002
100
AcDbLine
 10
-268.671
 20
265.627
 30
5.1
 11
-269.096
 21
265.576
 31
5.1
  0
LINE
  5
BBC
330
A02
100
AcDbEntity
  8
Mesh_cs002
100
AcDbLine
 10
-269.096
 20
265.576
 30
5.1
 11
-269.496
 21
265.562
 31
5.1
  0
LINE
  5
BBD
330
A02
100
AcDbEntity
  8
Mesh_cs002
100
AcDbLine
 10
-269.496
 20
265.562
 30
5.1
 11
-269.507
 21
265.562
 31
5.1
  0
LINE
  5
BBE
330
A02
100
AcDbEntity
  8
Mesh_cs002
100
AcDbLine
 10
-269.507
 20
265.562
 30
5.1
 11
-269.907
 21
265.58
 31
5.1
  0
LINE
  5
BBF
330
A02
100
AcDbEntity
  8
Mesh_cs002
100
AcDbLine
 10
-269.907
 20
265.58
 30
5.1
 11
-269.918
 21
265.581
 31
5.1
  0
LINE
  5
BC0
330
A02
100
AcDbEntity
  8
Mesh_cs002
100
AcDbLine
 10
-269.918
 20
265.581
 30
5.1
 11
-270.314
 21
265.632
 31
5.1
  0
LINE
  5
BC1
330
A02
100
AcDbEntity
  8
Mesh_cs002
100
AcDbLine
 10
-270.314
 20
265.632
 30
5.1
 11
-270.325
 21
265.634
 31
5.1
  0
LINE
  5
BC2
330
A02
100
AcDbEntity
  8
Mesh_cs002
100
AcDbLine
 10
-270.325
 20
265.634
 30
5.1
 11
-270.715
 21
265.717
 31
5.1
  0
LINE
  5
BC3
330
A02
100
AcDbEntity
  8
Mesh_cs002
100
AcDbLine
 10
-270.715
 20
265.717
 30
5.1
 11
-270.725
 21
265.72
 31
5.1
  0
LINE
  5
BC4
330
A02
100
AcDbEntity
  8
Mesh_cs002
100
AcDbLine
 10
-270.725
 20
265.72
 30
5.1
 11
-271.106
 21
265.835
 31
5.1
  0
LINE
  5
BC5
330
A02
100
AcDbEntity
  8
Mesh_cs002
100
AcDbLine
 10
-271.106
 20
265.835
 30
5.1
 11
-271.116
 21
265.838
 31
5.1
  0
LINE
  5
BC6
330
A02
100
AcDbEntity
  8
Mesh_cs002
100
AcDbLine
 10
-271.116
 20
265.838
 30
5.1
 11
-271.485
 21
265.983
 31
5.1
  0
LINE
  5
BC7
330
A02
100
AcDbEntity
  8
Mesh_cs002
100
AcDbLine
 10
-271.485
 20
265.983
 30
5.1
 11
-271.495
 21
265.987
 31
5.1
  0
LINE
  5
BC8
330
A02
100
AcDbEntity
  8
Mesh_cs002
100
AcDbLine
 10
-271.495
 20
265.987
 30
5.1
 11
-271.851
 21
266.161
 31
5.1
  0
LINE
  5
BC9
330
A02
100
AcDbEntity
  8
Mesh_cs002
100
AcDbLine
 10
-271.851
 20
266.161
 30
5.1
 11
-271.86
 21
266.166
 31
5.1
  0
LINE
  5
BCA
330
A02
100
AcDbEntity
  8
Mesh_cs002
100
AcDbLine
 10
-271.86
 20
266.166
 30
5.1
 11
-272.2
 21
266.368
 31
5.1
  0
LINE
  5
BCB
330
A02
100
AcDbEntity
  8
Mesh_cs002
100
AcDbLine
 10
-272.2
 20
266.368
 30
5.1
 11
-272.209
 21
266.374
 31
5.1
  0
LINE
  5
BCC
330
A02
100
AcDbEntity
  8
Mesh_cs002
100
AcDbLine
 10
-272.209
 20
266.374
 30
5.1
 11
-272.53
 21
266.603
 31
5.1
  0
LINE
  5
BCD
330
A02
100
AcDbEntity
  8
Mesh_cs002
100
AcDbLine
 10
-272.53
 20
266.603
 30
5.1
 11
-272.539
 21
266.609
 31
5.1
  0
LINE
  5
BCE
330
A02
100
AcDbEntity
  8
Mesh_cs002
100
AcDbLine
 10
-272.539
 20
266.609
 30
5.1
 11
-272.841
 21
266.863
 31
5.1
  0
LINE
  5
BCF
330
A02
100
AcDbEntity
  8
Mesh_cs002
100
AcDbLine
 10
-272.841
 20
266.863
 30
5.1
 11
-272.848
 21
266.869
 31
5.1
  0
LINE
  5
BD0
330
A02
100
AcDbEntity
  8
Mesh_cs002
100
AcDbLine
 10
-272.848
 20
266.869
 30
5.1
 11
-273.128
 21
267.146
 31
5.1
  0
LINE
  5
BD1
330
A02
100
AcDbEntity
  8
Mesh_cs002
100
AcDbLine
 10
-273.128
 20
267.146
 30
5.1
 11
-273.135
 21
267.153
 31
5.1
  0
LINE
  5
BD2
330
A02
100
AcDbEntity
  8
Mesh_cs002
100
AcDbLine
 10
-273.135
 20
267.153
 30
5.1
 11
-273.392
 21
267.452
 31
5.1
  0
LINE
  5
BD3
330
A02
100
AcDbEntity
  8
Mesh_cs002
100
AcDbLine
 10
-273.392
 20
267.452
 30
5.1
 11
-273.398
 21
267.459
 31
5.1
  0
LINE
  5
BD4
330
A02
100
AcDbEntity
  8
Mesh_cs002
100
AcDbLine
 10
-273.398
 20
267.459
 30
5.1
 11
-273.629
 21
267.777
 31
5.1
  0
LINE
  5
BD5
330
A02
100
AcDbEntity
  8
Mesh_cs002
100
AcDbLine
 10
-209.904
 20
580.05
 30
5.1
 11
-209.94
 21
579.617
 31
5.1
  0
LINE
  5
BD6
330
A02
100
AcDbEntity
  8
Mesh_cs002
100
AcDbLine
 10
-209.94
 20
579.617
 30
5.1
 11
-209.941
 21
579.607
 31
5.1
  0
LINE
  5
BD7
330
A02
100
AcDbEntity
  8
Mesh_cs002
100
AcDbLine
 10
-209.941
 20
579.607
 30
5.1
 11
-210.016
 21
579.179
 31
5.1
  0
LINE
  5
BD8
330
A02
100
AcDbEntity
  8
Mesh_cs002
100
AcDbLine
 10
-210.016
 20
579.179
 30
5.1
 11
-210.018
 21
579.169
 31
5.1
  0
LINE
  5
BD9
330
A02
100
AcDbEntity
  8
Mesh_cs002
100
AcDbLine
 10
-210.018
 20
579.169
 30
5.1
 11
-210.02
 21
579.159
 31
5.1
  0
LINE
  5
BDA
330
A02
100
AcDbEntity
  8
Mesh_cs002
100
AcDbLine
 10
-210.02
 20
579.159
 30
5.1
 11
-210.133
 21
578.74
 31
5.1
  0
LINE
  5
BDB
330
A02
100
AcDbEntity
  8
Mesh_cs002
100
AcDbLine
 10
-210.133
 20
578.74
 30
5.1
 11
-210.136
 21
578.731
 31
5.1
  0
LINE
  5
BDC
330
A02
100
AcDbEntity
  8
Mesh_cs002
100
AcDbLine
 10
-210.136
 20
578.731
 30
5.1
 11
-210.285
 21
578.325
 31
5.1
  0
LINE
  5
BDD
330
A02
100
AcDbEntity
  8
Mesh_cs002
100
AcDbLine
 10
-210.285
 20
578.325
 30
5.1
 11
-210.289
 21
578.315
 31
5.1
  0
LINE
  5
BDE
330
A02
100
AcDbEntity
  8
Mesh_cs002
100
AcDbLine
 10
-210.289
 20
578.315
 30
5.1
 11
-210.473
 21
577.924
 31
5.1
  0
LINE
  5
BDF
330
A02
100
AcDbEntity
  8
Mesh_cs002
100
AcDbLine
 10
-210.473
 20
577.924
 30
5.1
 11
-210.479
 21
577.914
 31
5.1
  0
LINE
  5
BE0
330
A02
100
AcDbEntity
  8
Mesh_cs002
100
AcDbLine
 10
-210.479
 20
577.914
 30
5.1
 11
-210.696
 21
577.542
 31
5.1
  0
LINE
  5
BE1
330
A02
100
AcDbEntity
  8
Mesh_cs002
100
AcDbLine
 10
-210.696
 20
577.542
 30
5.1
 11
-210.702
 21
577.533
 31
5.1
  0
LINE
  5
BE2
330
A02
100
AcDbEntity
  8
Mesh_cs002
100
AcDbLine
 10
-210.702
 20
577.533
 30
5.1
 11
-210.951
 21
577.182
 31
5.1
  0
LINE
  5
BE3
330
A02
100
AcDbEntity
  8
Mesh_cs002
100
AcDbLine
 10
-210.951
 20
577.182
 30
5.1
 11
-210.958
 21
577.173
 31
5.1
  0
LINE
  5
BE4
330
A02
100
AcDbEntity
  8
Mesh_cs002
100
AcDbLine
 10
-210.958
 20
577.173
 30
5.1
 11
-211.236
 21
576.847
 31
5.1
  0
LINE
  5
BE5
330
A02
100
AcDbEntity
  8
Mesh_cs002
100
AcDbLine
 10
-211.236
 20
576.847
 30
5.1
 11
-211.243
 21
576.839
 31
5.1
  0
LINE
  5
BE6
330
A02
100
AcDbEntity
  8
Mesh_cs002
100
AcDbLine
 10
-211.243
 20
576.839
 30
5.1
 11
-211.548
 21
576.538
 31
5.1
  0
LINE
  5
BE7
330
A02
100
AcDbEntity
  8
Mesh_cs002
100
AcDbLine
 10
-211.548
 20
576.538
 30
5.1
 11
-211.557
 21
576.531
 31
5.1
  0
LINE
  5
BE8
330
A02
100
AcDbEntity
  8
Mesh_cs002
100
AcDbLine
 10
-211.557
 20
576.531
 30
5.1
 11
-211.886
 21
576.259
 31
5.1
  0
LINE
  5
BE9
330
A02
100
AcDbEntity
  8
Mesh_cs002
100
AcDbLine
 10
-211.886
 20
576.259
 30
5.1
 11
-211.895
 21
576.253
 31
5.1
  0
LINE
  5
BEA
330
A02
100
AcDbEntity
  8
Mesh_cs002
100
AcDbLine
 10
-211.895
 20
576.253
 30
5.1
 11
-212.246
 21
576.011
 31
5.1
  0
LINE
  5
BEB
330
A02
100
AcDbEntity
  8
Mesh_cs002
100
AcDbLine
 10
-212.246
 20
576.011
 30
5.1
 11
-212.255
 21
576.005
 31
5.1
  0
LINE
  5
BEC
330
A02
100
AcDbEntity
  8
Mesh_cs002
100
AcDbLine
 10
-212.255
 20
576.005
 30
5.1
 11
-212.632
 21
575.792
 31
5.1
  0
LINE
  5
BED
330
A02
100
AcDbEntity
  8
Mesh_cs002
100
AcDbLine
 10
-212.632
 20
575.792
 30
5.1
 11
-212.642
 21
575.788
 31
5.1
  0
LINE
  5
BEE
330
A02
100
AcDbEntity
  8
Mesh_cs002
100
AcDbLine
 10
-212.642
 20
575.788
 30
5.1
 11
-213.007
 21
575.621
 31
5.1
  0
LINE
  5
BEF
330
A02
100
AcDbEntity
  8
Mesh_cs002
100
AcDbLine
 10
-213.007
 20
575.621
 30
5.1
 11
-213.383
 21
575.484
 31
5.1
  0
LINE
  5
BF0
330
A02
100
AcDbEntity
  8
Mesh_cs002
100
AcDbLine
 10
-213.383
 20
575.484
 30
5.1
 11
-213.393
 21
575.481
 31
5.1
  0
LINE
  5
BF1
330
A02
100
AcDbEntity
  8
Mesh_cs002
100
AcDbLine
 10
-213.393
 20
575.481
 30
5.1
 11
-213.778
 21
575.376
 31
5.1
  0
LINE
  5
BF2
330
A02
100
AcDbEntity
  8
Mesh_cs002
100
AcDbLine
 10
-213.778
 20
575.376
 30
5.1
 11
-213.789
 21
575.373
 31
5.1
  0
LINE
  5
BF3
330
A02
100
AcDbEntity
  8
Mesh_cs002
100
AcDbLine
 10
-213.789
 20
575.373
 30
5.1
 11
-214.18
 21
575.301
 31
5.1
  0
LINE
  5
BF4
330
A02
100
AcDbEntity
  8
Mesh_cs002
100
AcDbLine
 10
-214.18
 20
575.301
 30
5.1
 11
-214.191
 21
575.299
 31
5.1
  0
LINE
  5
BF5
330
A02
100
AcDbEntity
  8
Mesh_cs002
100
AcDbLine
 10
-214.191
 20
575.299
 30
5.1
 11
-214.587
 21
575.258
 31
5.1
  0
LINE
  5
BF6
330
A02
100
AcDbEntity
  8
Mesh_cs002
100
AcDbLine
 10
-214.587
 20
575.258
 30
5.1
 11
-214.595
 21
575.258
 31
5.1
  0
LINE
  5
BF7
330
A02
100
AcDbEntity
  8
Mesh_cs002
100
AcDbLine
 10
-214.595
 20
575.258
 30
5.1
 11
-214.603
 21
575.257
 31
5.1
  0
LINE
  5
BF8
330
A02
100
AcDbEntity
  8
Mesh_cs002
100
AcDbLine
 10
-214.603
 20
575.257
 30
5.1
 11
-214.999
 21
575.249
 31
5.1
  0
LINE
  5
BF9
330
A02
100
AcDbEntity
  8
Mesh_cs002
100
AcDbLine
 10
-214.999
 20
575.249
 30
5.1
 11
-215.008
 21
575.25
 31
5.1
  0
LINE
  5
BFA
330
A02
100
AcDbEntity
  8
Mesh_cs002
100
AcDbLine
 10
-215.008
 20
575.25
 30
5.1
 11
-215.403
 21
575.274
 31
5.1
  0
LINE
  5
BFB
330
A02
100
AcDbEntity
  8
Mesh_cs002
100
AcDbLine
 10
-215.403
 20
575.274
 30
5.1
 11
-215.412
 21
575.275
 31
5.1
  0
LINE
  5
BFC
330
A02
100
AcDbEntity
  8
Mesh_cs002
100
AcDbLine
 10
-215.412
 20
575.275
 30
5.1
 11
-215.803
 21
575.331
 31
5.1
  0
LINE
  5
BFD
330
A02
100
AcDbEntity
  8
Mesh_cs002
100
AcDbLine
 10
-215.803
 20
575.331
 30
5.1
 11
-215.814
 21
575.333
 31
5.1
  0
LINE
  5
BFE
330
A02
100
AcDbEntity
  8
Mesh_cs002
100
AcDbLine
 10
-215.814
 20
575.333
 30
5.1
 11
-216.199
 21
575.42
 31
5.1
  0
LINE
  5
BFF
330
A02
100
AcDbEntity
  8
Mesh_cs002
100
AcDbLine
 10
-216.199
 20
575.42
 30
5.1
 11
-216.21
 21
575.423
 31
5.1
  0
LINE
  5
C00
330
A02
100
AcDbEntity
  8
Mesh_cs002
100
AcDbLine
 10
-216.21
 20
575.423
 30
5.1
 11
-216.586
 21
575.541
 31
5.1
  0
LINE
  5
C01
330
A02
100
AcDbEntity
  8
Mesh_cs002
100
AcDbLine
 10
-216.586
 20
575.541
 30
5.1
 11
-216.596
 21
575.545
 31
5.1
  0
LINE
  5
C02
330
A02
100
AcDbEntity
  8
Mesh_cs002
100
AcDbLine
 10
-216.596
 20
575.545
 30
5.1
 11
-216.961
 21
575.693
 31
5.1
  0
LINE
  5
C03
330
A02
100
AcDbEntity
  8
Mesh_cs002
100
AcDbLine
 10
-216.961
 20
575.693
 30
5.1
 11
-216.971
 21
575.698
 31
5.1
  0
LINE
  5
C04
330
A02
100
AcDbEntity
  8
Mesh_cs002
100
AcDbLine
 10
-216.971
 20
575.698
 30
5.1
 11
-217.322
 21
575.874
 31
5.1
  0
LINE
  5
C05
330
A02
100
AcDbEntity
  8
Mesh_cs002
100
AcDbLine
 10
-217.322
 20
575.874
 30
5.1
 11
-217.332
 21
575.88
 31
5.1
  0
LINE
  5
C06
330
A02
100
AcDbEntity
  8
Mesh_cs002
100
AcDbLine
 10
-217.332
 20
575.88
 30
5.1
 11
-217.703
 21
576.108
 31
5.1
  0
LINE
  5
C07
330
A02
100
AcDbEntity
  8
Mesh_cs002
100
AcDbLine
 10
-217.703
 20
576.108
 30
5.1
 11
-217.712
 21
576.114
 31
5.1
  0
LINE
  5
C08
330
A02
100
AcDbEntity
  8
Mesh_cs002
100
AcDbLine
 10
-217.712
 20
576.114
 30
5.1
 11
-218.061
 21
576.374
 31
5.1
  0
LINE
  5
C09
330
A02
100
AcDbEntity
  8
Mesh_cs002
100
AcDbLine
 10
-218.061
 20
576.374
 30
5.1
 11
-218.069
 21
576.381
 31
5.1
  0
LINE
  5
C0A
330
A02
100
AcDbEntity
  8
Mesh_cs002
100
AcDbLine
 10
-218.069
 20
576.381
 30
5.1
 11
-218.393
 21
576.671
 31
5.1
  0
LINE
  5
C0B
330
A02
100
AcDbEntity
  8
Mesh_cs002
100
AcDbLine
 10
-218.393
 20
576.671
 30
5.1
 11
-218.4
 21
576.678
 31
5.1
  0
LINE
  5
C0C
330
A02
100
AcDbEntity
  8
Mesh_cs002
100
AcDbLine
 10
-218.4
 20
576.678
 30
5.1
 11
-218.696
 21
576.994
 31
5.1
  0
LINE
  5
C0D
330
A02
100
AcDbEntity
  8
Mesh_cs002
100
AcDbLine
 10
-218.696
 20
576.994
 30
5.1
 11
-218.702
 21
577.002
 31
5.1
  0
LINE
  5
C0E
330
A02
100
AcDbEntity
  8
Mesh_cs002
100
AcDbLine
 10
-218.702
 20
577.002
 30
5.1
 11
-218.969
 21
577.342
 31
5.1
  0
LINE
  5
C0F
330
A02
100
AcDbEntity
  8
Mesh_cs002
100
AcDbLine
 10
-218.969
 20
577.342
 30
5.1
 11
-218.975
 21
577.35
 31
5.1
  0
LINE
  5
C10
330
A02
100
AcDbEntity
  8
Mesh_cs002
100
AcDbLine
 10
-218.975
 20
577.35
 30
5.1
 11
-219.209
 21
577.713
 31
5.1
  0
LINE
  5
C11
330
A02
100
AcDbEntity
  8
Mesh_cs002
100
AcDbLine
 10
-219.209
 20
577.713
 30
5.1
 11
-219.214
 21
577.721
 31
5.1
  0
LINE
  5
C12
330
A02
100
AcDbEntity
  8
Mesh_cs002
100
AcDbLine
 10
-219.214
 20
577.721
 30
5.1
 11
-219.416
 21
578.102
 31
5.1
  0
LINE
  5
C13
330
A02
100
AcDbEntity
  8
Mesh_cs002
100
AcDbLine
 10
-219.416
 20
578.102
 30
5.1
 11
-219.42
 21
578.111
 31
5.1
  0
LINE
  5
C14
330
A02
100
AcDbEntity
  8
Mesh_cs002
100
AcDbLine
 10
-219.42
 20
578.111
 30
5.1
 11
-219.587
 21
578.507
 31
5.1
  0
LINE
  5
C15
330
A02
100
AcDbEntity
  8
Mesh_cs002
100
AcDbLine
 10
-219.587
 20
578.507
 30
5.1
 11
-219.59
 21
578.516
 31
5.1
  0
LINE
  5
C16
330
A02
100
AcDbEntity
  8
Mesh_cs002
100
AcDbLine
 10
-219.59
 20
578.516
 30
5.1
 11
-219.721
 21
578.924
 31
5.1
  0
LINE
  5
C17
330
A02
100
AcDbEntity
  8
Mesh_cs002
100
AcDbLine
 10
-219.721
 20
578.924
 30
5.1
 11
-219.724
 21
578.934
 31
5.1
  0
LINE
  5
C18
330
A02
100
AcDbEntity
  8
Mesh_cs002
100
AcDbLine
 10
-219.724
 20
578.934
 30
5.1
 11
-219.819
 21
579.352
 31
5.1
  0
LINE
  5
C19
330
A02
100
AcDbEntity
  8
Mesh_cs002
100
AcDbLine
 10
-219.819
 20
579.352
 30
5.1
 11
-219.821
 21
579.362
 31
5.1
  0
LINE
  5
C1A
330
A02
100
AcDbEntity
  8
Mesh_cs002
100
AcDbLine
 10
-219.821
 20
579.362
 30
5.1
 11
-219.878
 21
579.784
 31
5.1
  0
LINE
  5
C1B
330
A02
100
AcDbEntity
  8
Mesh_cs002
100
AcDbLine
 10
-219.878
 20
579.784
 30
5.1
 11
-219.879
 21
579.795
 31
5.1
  0
LINE
  5
C1C
330
A02
100
AcDbEntity
  8
Mesh_cs002
100
AcDbLine
 10
-219.879
 20
579.795
 30
5.1
 11
-219.895
 21
580.019
 31
5.1
  0
LINE
  5
C1D
330
A02
100
AcDbEntity
  8
Mesh_cs002
100
AcDbLine
 10
-219.895
 20
580.019
 30
5.1
 11
-219.895
 21
580.029
 31
5.1
  0
LINE
  5
C1E
330
A02
100
AcDbEntity
  8
Mesh_cs002
100
AcDbLine
 10
-219.895
 20
580.029
 30
5.1
 11
-219.9
 21
580.248
 31
5.1
  0
LINE
  5
C1F
330
A02
100
AcDbEntity
  8
Mesh_cs002
100
AcDbLine
 10
-219.9
 20
580.248
 30
5.1
 11
-219.883
 21
580.649
 31
5.1
  0
LINE
  5
C20
330
A02
100
AcDbEntity
  8
Mesh_cs002
100
AcDbLine
 10
-219.883
 20
580.649
 30
5.1
 11
-219.883
 21
580.66
 31
5.1
  0
LINE
  5
C21
330
A02
100
AcDbEntity
  8
Mesh_cs002
100
AcDbLine
 10
-219.883
 20
580.66
 30
5.1
 11
-219.831
 21
581.076
 31
5.1
  0
LINE
  5
C22
330
A02
100
AcDbEntity
  8
Mesh_cs002
100
AcDbLine
 10
-219.831
 20
581.076
 30
5.1
 11
-219.829
 21
581.087
 31
5.1
  0
LINE
  5
C23
330
A02
100
AcDbEntity
  8
Mesh_cs002
100
AcDbLine
 10
-219.829
 20
581.087
 30
5.1
 11
-219.746
 21
581.478
 31
5.1
  0
LINE
  5
C24
330
A02
100
AcDbEntity
  8
Mesh_cs002
100
AcDbLine
 10
-219.746
 20
581.478
 30
5.1
 11
-219.744
 21
581.488
 31
5.1
  0
LINE
  5
C25
330
A02
100
AcDbEntity
  8
Mesh_cs002
100
AcDbLine
 10
-219.744
 20
581.488
 30
5.1
 11
-219.629
 21
581.87
 31
5.1
  0
LINE
  5
C26
330
A02
100
AcDbEntity
  8
Mesh_cs002
100
AcDbLine
 10
-219.629
 20
581.87
 30
5.1
 11
-219.626
 21
581.88
 31
5.1
  0
LINE
  5
C27
330
A02
100
AcDbEntity
  8
Mesh_cs002
100
AcDbLine
 10
-219.626
 20
581.88
 30
5.1
 11
-219.481
 21
582.25
 31
5.1
  0
LINE
  5
C28
330
A02
100
AcDbEntity
  8
Mesh_cs002
100
AcDbLine
 10
-219.481
 20
582.25
 30
5.1
 11
-219.478
 21
582.26
 31
5.1
  0
LINE
  5
C29
330
A02
100
AcDbEntity
  8
Mesh_cs002
100
AcDbLine
 10
-219.478
 20
582.26
 30
5.1
 11
-219.303
 21
582.617
 31
5.1
  0
LINE
  5
C2A
330
A02
100
AcDbEntity
  8
Mesh_cs002
100
AcDbLine
 10
-219.303
 20
582.617
 30
5.1
 11
-219.299
 21
582.626
 31
5.1
  0
LINE
  5
C2B
330
A02
100
AcDbEntity
  8
Mesh_cs002
100
AcDbLine
 10
-219.299
 20
582.626
 30
5.1
 11
-219.096
 21
582.967
 31
5.1
  0
LINE
  5
C2C
330
A02
100
AcDbEntity
  8
Mesh_cs002
100
AcDbLine
 10
-219.096
 20
582.967
 30
5.1
 11
-219.091
 21
582.976
 31
5.1
  0
LINE
  5
C2D
330
A02
100
AcDbEntity
  8
Mesh_cs002
100
AcDbLine
 10
-219.091
 20
582.976
 30
5.1
 11
-218.861
 21
583.298
 31
5.1
  0
LINE
  5
C2E
330
A02
100
AcDbEntity
  8
Mesh_cs002
100
AcDbLine
 10
-218.861
 20
583.298
 30
5.1
 11
-218.855
 21
583.307
 31
5.1
  0
LINE
  5
C2F
330
A02
100
AcDbEntity
  8
Mesh_cs002
100
AcDbLine
 10
-218.855
 20
583.307
 30
5.1
 11
-218.601
 21
583.609
 31
5.1
  0
LINE
  5
C30
330
A02
100
AcDbEntity
  8
Mesh_cs002
100
AcDbLine
 10
-218.601
 20
583.609
 30
5.1
 11
-218.595
 21
583.617
 31
5.1
  0
LINE
  5
C31
330
A02
100
AcDbEntity
  8
Mesh_cs002
100
AcDbLine
 10
-218.595
 20
583.617
 30
5.1
 11
-218.317
 21
583.898
 31
5.1
  0
LINE
  5
C32
330
A02
100
AcDbEntity
  8
Mesh_cs002
100
AcDbLine
 10
-218.317
 20
583.898
 30
5.1
 11
-218.31
 21
583.905
 31
5.1
  0
LINE
  5
C33
330
A02
100
AcDbEntity
  8
Mesh_cs002
100
AcDbLine
 10
-218.31
 20
583.905
 30
5.1
 11
-218.011
 21
584.162
 31
5.1
  0
LINE
  5
C34
330
A02
100
AcDbEntity
  8
Mesh_cs002
100
AcDbLine
 10
-218.011
 20
584.162
 30
5.1
 11
-218.004
 21
584.168
 31
5.1
  0
LINE
  5
C35
330
A02
100
AcDbEntity
  8
Mesh_cs002
100
AcDbLine
 10
-218.004
 20
584.168
 30
5.1
 11
-217.686
 21
584.4
 31
5.1
  0
LINE
  5
C36
330
A02
100
AcDbEntity
  8
Mesh_cs002
100
AcDbLine
 10
-217.686
 20
584.4
 30
5.1
 11
-217.678
 21
584.406
 31
5.1
  0
LINE
  5
C37
330
A02
100
AcDbEntity
  8
Mesh_cs002
100
AcDbLine
 10
-217.678
 20
584.406
 30
5.1
 11
-217.343
 21
584.611
 31
5.1
  0
LINE
  5
C38
330
A02
100
AcDbEntity
  8
Mesh_cs002
100
AcDbLine
 10
-217.343
 20
584.611
 30
5.1
 11
-217.334
 21
584.616
 31
5.1
  0
LINE
  5
C39
330
A02
100
AcDbEntity
  8
Mesh_cs002
100
AcDbLine
 10
-217.334
 20
584.616
 30
5.1
 11
-217.325
 21
584.62
 31
5.1
  0
LINE
  5
C3A
330
A02
100
AcDbEntity
  8
Mesh_cs002
100
AcDbLine
 10
-217.325
 20
584.62
 30
5.1
 11
-216.936
 21
584.815
 31
5.1
  0
LINE
  5
C3B
330
A02
100
AcDbEntity
  8
Mesh_cs002
100
AcDbLine
 10
-216.936
 20
584.815
 30
5.1
 11
-216.925
 21
584.819
 31
5.1
  0
LINE
  5
C3C
330
A02
100
AcDbEntity
  8
Mesh_cs002
100
AcDbLine
 10
-216.925
 20
584.819
 30
5.1
 11
-216.521
 21
584.978
 31
5.1
  0
LINE
  5
C3D
330
A02
100
AcDbEntity
  8
Mesh_cs002
100
AcDbLine
 10
-216.521
 20
584.978
 30
5.1
 11
-216.51
 21
584.981
 31
5.1
  0
LINE
  5
C3E
330
A02
100
AcDbEntity
  8
Mesh_cs002
100
AcDbLine
 10
-216.51
 20
584.981
 30
5.1
 11
-216.094
 21
585.104
 31
5.1
  0
LINE
  5
C3F
330
A02
100
AcDbEntity
  8
Mesh_cs002
100
AcDbLine
 10
-216.094
 20
585.104
 30
5.1
 11
-216.083
 21
585.106
 31
5.1
  0
LINE
  5
C40
330
A02
100
AcDbEntity
  8
Mesh_cs002
100
AcDbLine
 10
-216.083
 20
585.106
 30
5.1
 11
-215.659
 21
585.19
 31
5.1
  0
LINE
  5
C41
330
A02
100
AcDbEntity
  8
Mesh_cs002
100
AcDbLine
 10
-215.659
 20
585.19
 30
5.1
 11
-215.648
 21
585.192
 31
5.1
  0
LINE
  5
C42
330
A02
100
AcDbEntity
  8
Mesh_cs002
100
AcDbLine
 10
-215.648
 20
585.192
 30
5.1
 11
-215.218
 21
585.238
 31
5.1
  0
LINE
  5
C43
330
A02
100
AcDbEntity
  8
Mesh_cs002
100
AcDbLine
 10
-215.218
 20
585.238
 30
5.1
 11
-215.207
 21
585.238
 31
5.1
  0
LINE
  5
C44
330
A02
100
AcDbEntity
  8
Mesh_cs002
100
AcDbLine
 10
-215.207
 20
585.238
 30
5.1
 11
-214.776
 21
585.247
 31
5.1
  0
LINE
  5
C45
330
A02
100
AcDbEntity
  8
Mesh_cs002
100
AcDbLine
 10
-214.776
 20
585.247
 30
5.1
 11
-214.765
 21
585.246
 31
5.1
  0
LINE
  5
C46
330
A02
100
AcDbEntity
  8
Mesh_cs002
100
AcDbLine
 10
-214.765
 20
585.246
 30
5.1
 11
-214.336
 21
585.216
 31
5.1
  0
LINE
  5
C47
330
A02
100
AcDbEntity
  8
Mesh_cs002
100
AcDbLine
 10
-214.336
 20
585.216
 30
5.1
 11
-214.325
 21
585.215
 31
5.1
  0
LINE
  5
C48
330
A02
100
AcDbEntity
  8
Mesh_cs002
100
AcDbLine
 10
-214.325
 20
585.215
 30
5.1
 11
-213.901
 21
585.147
 31
5.1
  0
LINE
  5
C49
330
A02
100
AcDbEntity
  8
Mesh_cs002
100
AcDbLine
 10
-213.901
 20
585.147
 30
5.1
 11
-213.89
 21
585.145
 31
5.1
  0
LINE
  5
C4A
330
A02
100
AcDbEntity
  8
Mesh_cs002
100
AcDbLine
 10
-213.89
 20
585.145
 30
5.1
 11
-213.475
 21
585.041
 31
5.1
  0
LINE
  5
C4B
330
A02
100
AcDbEntity
  8
Mesh_cs002
100
AcDbLine
 10
-213.475
 20
585.041
 30
5.1
 11
-213.464
 21
585.037
 31
5.1
  0
LINE
  5
C4C
330
A02
100
AcDbEntity
  8
Mesh_cs002
100
AcDbLine
 10
-213.464
 20
585.037
 30
5.1
 11
-213.06
 21
584.897
 31
5.1
  0
LINE
  5
C4D
330
A02
100
AcDbEntity
  8
Mesh_cs002
100
AcDbLine
 10
-213.06
 20
584.897
 30
5.1
 11
-213.05
 21
584.893
 31
5.1
  0
LINE
  5
C4E
330
A02
100
AcDbEntity
  8
Mesh_cs002
100
AcDbLine
 10
-213.05
 20
584.893
 30
5.1
 11
-212.661
 21
584.719
 31
5.1
  0
LINE
  5
C4F
330
A02
100
AcDbEntity
  8
Mesh_cs002
100
AcDbLine
 10
-212.661
 20
584.719
 30
5.1
 11
-212.651
 21
584.714
 31
5.1
  0
LINE
  5
C50
330
A02
100
AcDbEntity
  8
Mesh_cs002
100
AcDbLine
 10
-212.651
 20
584.714
 30
5.1
 11
-212.278
 21
584.506
 31
5.1
  0
LINE
  5
C51
330
A02
100
AcDbEntity
  8
Mesh_cs002
100
AcDbLine
 10
-212.278
 20
584.506
 30
5.1
 11
-211.945
 21
584.281
 31
5.1
  0
LINE
  5
C52
330
A02
100
AcDbEntity
  8
Mesh_cs002
100
AcDbLine
 10
-211.945
 20
584.281
 30
5.1
 11
-211.936
 21
584.275
 31
5.1
  0
LINE
  5
C53
330
A02
100
AcDbEntity
  8
Mesh_cs002
100
AcDbLine
 10
-211.936
 20
584.275
 30
5.1
 11
-211.624
 21
584.025
 31
5.1
  0
LINE
  5
C54
330
A02
100
AcDbEntity
  8
Mesh_cs002
100
AcDbLine
 10
-211.624
 20
584.025
 30
5.1
 11
-211.615
 21
584.018
 31
5.1
  0
LINE
  5
C55
330
A02
100
AcDbEntity
  8
Mesh_cs002
100
AcDbLine
 10
-211.615
 20
584.018
 30
5.1
 11
-211.325
 21
583.744
 31
5.1
  0
LINE
  5
C56
330
A02
100
AcDbEntity
  8
Mesh_cs002
100
AcDbLine
 10
-211.325
 20
583.744
 30
5.1
 11
-211.317
 21
583.736
 31
5.1
  0
LINE
  5
C57
330
A02
100
AcDbEntity
  8
Mesh_cs002
100
AcDbLine
 10
-211.317
 20
583.736
 30
5.1
 11
-211.051
 21
583.439
 31
5.1
  0
LINE
  5
C58
330
A02
100
AcDbEntity
  8
Mesh_cs002
100
AcDbLine
 10
-211.051
 20
583.439
 30
5.1
 11
-211.044
 21
583.432
 31
5.1
  0
LINE
  5
C59
330
A02
100
AcDbEntity
  8
Mesh_cs002
100
AcDbLine
 10
-211.044
 20
583.432
 30
5.1
 11
-210.804
 21
583.115
 31
5.1
  0
LINE
  5
C5A
330
A02
100
AcDbEntity
  8
Mesh_cs002
100
AcDbLine
 10
-210.804
 20
583.115
 30
5.1
 11
-210.798
 21
583.107
 31
5.1
  0
LINE
  5
C5B
330
A02
100
AcDbEntity
  8
Mesh_cs002
100
AcDbLine
 10
-210.798
 20
583.107
 30
5.1
 11
-210.584
 21
582.772
 31
5.1
  0
LINE
  5
C5C
330
A02
100
AcDbEntity
  8
Mesh_cs002
100
AcDbLine
 10
-210.584
 20
582.772
 30
5.1
 11
-210.578
 21
582.763
 31
5.1
  0
LINE
  5
C5D
330
A02
100
AcDbEntity
  8
Mesh_cs002
100
AcDbLine
 10
-210.578
 20
582.763
 30
5.1
 11
-210.393
 21
582.413
 31
5.1
  0
LINE
  5
C5E
330
A02
100
AcDbEntity
  8
Mesh_cs002
100
AcDbLine
 10
-210.393
 20
582.413
 30
5.1
 11
-210.388
 21
582.404
 31
5.1
  0
LINE
  5
C5F
330
A02
100
AcDbEntity
  8
Mesh_cs002
100
AcDbLine
 10
-210.388
 20
582.404
 30
5.1
 11
-210.232
 21
582.04
 31
5.1
  0
LINE
  5
C60
330
A02
100
AcDbEntity
  8
Mesh_cs002
100
AcDbLine
 10
-210.232
 20
582.04
 30
5.1
 11
-210.228
 21
582.03
 31
5.1
  0
LINE
  5
C61
330
A02
100
AcDbEntity
  8
Mesh_cs002
100
AcDbLine
 10
-210.228
 20
582.03
 30
5.1
 11
-210.103
 21
581.656
 31
5.1
  0
LINE
  5
C62
330
A02
100
AcDbEntity
  8
Mesh_cs002
100
AcDbLine
 10
-210.103
 20
581.656
 30
5.1
 11
-210.099
 21
581.646
 31
5.1
  0
LINE
  5
C63
330
A02
100
AcDbEntity
  8
Mesh_cs002
100
AcDbLine
 10
-210.099
 20
581.646
 30
5.1
 11
-210.004
 21
581.264
 31
5.1
  0
LINE
  5
C64
330
A02
100
AcDbEntity
  8
Mesh_cs002
100
AcDbLine
 10
-210.004
 20
581.264
 30
5.1
 11
-210.002
 21
581.254
 31
5.1
  0
LINE
  5
C65
330
A02
100
AcDbEntity
  8
Mesh_cs002
100
AcDbLine
 10
-210.002
 20
581.254
 30
5.1
 11
-209.938
 21
580.865
 31
5.1
  0
LINE
  5
C66
330
A02
100
AcDbEntity
  8
Mesh_cs002
100
AcDbLine
 10
-209.938
 20
580.865
 30
5.1
 11
-209.937
 21
580.855
 31
5.1
  0
LINE
  5
C67
330
A02
100
AcDbEntity
  8
Mesh_cs002
100
AcDbLine
 10
-209.937
 20
580.855
 30
5.1
 11
-209.905
 21
580.463
 31
5.1
  0
LINE
  5
C68
330
A02
100
AcDbEntity
  8
Mesh_cs002
100
AcDbLine
 10
-209.905
 20
580.463
 30
5.1
 11
-209.904
 21
580.453
 31
5.1
  0
LINE
  5
C69
330
A02
100
AcDbEntity
  8
Mesh_cs002
100
AcDbLine
 10
-209.904
 20
580.453
 30
5.1
 11
-209.904
 21
580.061
 31
5.1
  0
ENDSEC
  0
SECTION
  2
OBJECTS
  0
DICTIONARY
  5
F000
330
0
100
AcDbDictionary
  3
ACAD_GROUP
350
F001
  0
DICTIONARY
  5
F001
330
F000
100
AcDbDictionary
  0
ENDSEC
  0
EOF