999
FreeCAD v0.21 33771 (Git)
  0
SECTION
  2
HEADER
  9
$ACADVER
  1
AC1014
  9
$ACADMAINTVER
 70
     9
  9
$DWGCODEPAGE
  3
ANSI_1252
  9
$TEXTSTYLE
  7
STANDARD
  9
$DIMSTYLE
  2
STANDARD
  9
$DIMTXSTY
  7
STANDARD
  9
$CMLSTYLE
  2
STANDARD
  9
$LUNITS
 70
2
  9
$INSUNITS
 70
4
  9
$PEXTMAX
 10
50
 20
50
 30
50
  9
$PEXTMIN
 10
0
 20
0
 30
0
  9
$HANDSEED
  5
FFFF
  0
ENDSEC
  0
SECTION
  2
CLASSES
  0
CLASS
  1
ACDBDICTIONARYWDFLT
  2
AcDbDictionaryWithDefault
  3
ObjectDBX Classes
 90
        0
280
     0
281
     0
  0
CLASS
  1
XRECORD
  2
AcDbXrecord
  3
ObjectDBX Classes
 90
        0
280
     0
281
     0
  0
CLASS
  1
LWPOLYLINE
  2
AcDbPolyline
  3
ObjectDBX Classes
 90
        0
280
     0
281
     1
  0
ENDSEC
  0
SECTION
  2
TABLES
  0
TABLE
  2
VPORT
  5
20
330
0
100
AcDbSymbolTable
 70
     1
  0
VPORT
  5
21
330
20
100
AcDbSymbolTableRecord
100
AcDbViewportTableRecord
  2
*ACTIVE
 70
     0
  0
ENDTAB
  0
TABLE
  2
LTYPE
  5
22
330
0
100
AcDbSymbolTable
 70
     1
  0
LTYPE
  5
23
330
21
100
AcDbSymbolTableRecord
100
AcDbLinetypeTableRecord
  2
BYBLOCK
 70
     0
  3

 72
    65
 73
     0
 40
0.0
  0
LTYPE
  5
24
330
21
100
AcDbSymbolTableRecord
100
AcDbLinetypeTableRecord
  2
BYLAYER
 70
     0
  3

 72
    65
 73
     0
 40
0.0
  0
LTYPE
  5
25
330
21
100
AcDbSymbolTableRecord
100
AcDbLinetypeTableRecord
  2
CONTINUOUS
 70
     0
  3
Solid line
 72
    65
 73
     0
 40
0.0
  0
ENDTAB
  0
TABLE
  2
LAYER
  5
B3C
330
0
100
AcDbSymbolTable
 70
3
  0
LAYER
  5
B3D
330
B3C
100
AcDbSymbolTableRecord
100
AcDbLayerTableRecord
  2
0
 70
   0
 62
   7
  6
CONTINUOUS
  0
LAYER
  5
B3E
330
B3C
100
AcDbSymbolTableRecord
100
AcDbLayerTableRecord
  2
none
 70
    0
 62
    7
  6
CONTINUOUS
  0
LAYER
  5
B3F
330
B3C
100
AcDbSymbolTableRecord
100
AcDbLayerTableRecord
  2
Mesh_cs
 70
    0
 62
    7
  6
CONTINUOUS
  0
ENDTAB
  0
TABLE
  2
STYLE
  5
70
330
0
100
AcDbSymbolTable
 70
     2
  0
STYLE
  5
71
330
70
100
AcDbSymbolTableRecord
100
AcDbTextStyleTableRecord
  2
STANDARD
 70
     0
 40
0.0
 41
1.0
 50
0.0
 71
     0
 42
2.5
  3
arial.ttf
  4

  0
STYLE
  5
72
330
70
100
AcDbSymbolTableRecord
100
AcDbTextStyleTableRecord
  2
ANNOTATIVE
 70
     0
 40
0.0
 41
1.0
 50
0.0
 71
     0
 42
2.5
  3
arial.ttf
  4

  0
ENDTAB
  0
TABLE
  2
VIEW
  5
73
330
0
100
AcDbSymbolTable
 70
     0
  0
ENDTAB
  0
TABLE
  2
UCS
  5
74
330
0
100
AcDbSymbolTable
 70
     0
  0
ENDTAB
  0
TABLE
  2
APPID
  5
75
330
0
100
AcDbSymbolTable
 70
     2
  0
APPID
  5
76
330
75
100
AcDbSymbolTableRecord
100
AcDbRegAppTableRecord
  2
ACAD
 70
     0
  0
APPID
  5
77
330
75
100
AcDbSymbolTableRecord
100
AcDbRegAppTableRecord
  2
ACADANNOTATIVE
 70
     0
  0
ENDTAB
  0
TABLE
  2
DIMSTYLE
  5
78
330
0
100
AcDbSymbolTable
 70
     2
  0
DIMSTYLE
105
79
330
78
100
AcDbSymbolTableRecord
100
AcDbDimStyleTableRecord
  2
STANDARD
 70
     0
  3

  4

  5

  6

  7

 40
0.0
 41
2.5
 42
0.625
 43
3.75
 44
1.25
 45
0.0
 46
0.0
 47
0.0
 48
0.0
140
2.5
141
2.5
142
0.0
143
0.03937007874016
144
1.0
145
0.0
146
1.0
147
0.625
 71
     0
 72
     0
 73
     0
 74
     0
 75
     0
 76
     0
 77
     1
 78
     8
170
     0
171
     3
172
     1
173
     0
174
     0
175
     0
176
     0
177
     0
178
     0
270
     2
271
     2
272
     2
273
     2
274
     3
340
71
275
     0
280
     0
281
     0
282
     0
283
     0
284
     8
285
     0
286
     0
287
     3
288
     0
  0
ENDTAB
  0
TABLE
  2
BLOCK_RECORD
  5
A01
330
0
100
AcDbSymbolTable
  70
5
  0
BLOCK_RECORD
  5
A02
330
A01
100
AcDbSymbolTableRecord
100
AcDbBlockTableRecord
  2
*MODEL_SPACE
  0
BLOCK_RECORD
  5
A03
330
A01
100
AcDbSymbolTableRecord
100
AcDbBlockTableRecord
  2
*PAPER_SPACE
  0
ENDTAB
  0
ENDSEC
  0
SECTION
  2
BLOCKS
  0
BLOCK
  5
A04
330
A02
100
AcDbEntity
  8
0
100
AcDbBlockBegin
  2
*MODEL_SPACE
 70
   0
 10
0
 20
0
 30
0
  3
*MODEL_SPACE
  1
 
  0
ENDBLK
  5
A05
330
A02
100
AcDbEntity
  8
0
100
AcDbBlockEnd
  0
BLOCK
  5
A06
330
A03
100
AcDbEntity
 67
1
  8
0
100
AcDbBlockBegin
  2
*PAPER_SPACE
 70
   0
 10
0
 20
0
 30
0
  3
*PAPER_SPACE
  1
 
  0
ENDBLK
  5
A07
330
A03
100
AcDbEntity
 67
    1
  8
0
100
AcDbBlockEnd
  0
ENDSEC
  0
SECTION
  2
ENTITIES
  0
LINE
  5
A08
330
A02
100
AcDbEntity
  8
Mesh_cs
100
AcDbLine
 10
0.673178
 20
14.9
 30
11.9
 11
14.9
 21
14.9
 31
11.9
  0
LINE
  5
A09
330
A02
100
AcDbEntity
  8
Mesh_cs
100
AcDbLine
 10
14.9
 20
14.9
 30
11.9
 11
14.9
 21
14.4033
 31
11.9
  0
LINE
  5
A0A
330
A02
100
AcDbEntity
  8
Mesh_cs
100
AcDbLine
 10
14.9
 20
14.4033
 30
11.9
 11
14.9
 21
-3.55271e-15
 31
11.9
  0
LINE
  5
A0B
330
A02
100
AcDbEntity
  8
Mesh_cs
100
AcDbLine
 10
14.9
 20
-2.96667e-15
 30
11.9
 11
0.496668
 21
3.47333e-14
 31
11.9
  0
LINE
  5
A0C
330
A02
100
AcDbEntity
  8
Mesh_cs
100
AcDbLine
 10
0.496668
 20
3.47333e-14
 30
11.9
 11
0
 21
3.60083e-14
 31
11.9
  0
LINE
  5
A0D
330
A02
100
AcDbEntity
  8
Mesh_cs
100
AcDbLine
 10
0
 20
3.60083e-14
 30
11.9
 11
0
 21
0.496668
 31
11.9
  0
LINE
  5
A0E
330
A02
100
AcDbEntity
  8
Mesh_cs
100
AcDbLine
 10
0
 20
0.496668
 30
11.9
 11
-9.66667e-16
 21
14.9
 31
11.9
  0
LINE
  5
A0F
330
A02
100
AcDbEntity
  8
Mesh_cs
100
AcDbLine
 10
-9.66667e-16
 20
14.9
 30
11.9
 11
0.17651
 21
14.9
 31
11.9
  0
LINE
  5
A10
330
A02
100
AcDbEntity
  8
Mesh_cs
100
AcDbLine
 10
0.17651
 20
14.9
 30
11.9
 11
0.673178
 21
14.9
 31
11.9
  0
LINE
  5
A11
330
A02
100
AcDbEntity
  8
Mesh_cs
100
AcDbLine
 10
101.467
 20
337.165
 30
11.9
 11
101.485
 21
337.239
 31
11.9
  0
LINE
  5
A12
330
A02
100
AcDbEntity
  8
Mesh_cs
100
AcDbLine
 10
101.485
 20
337.239
 30
11.9
 11
101.884
 21
336.949
 31
11.9
  0
LINE
  5
A13
330
A02
100
AcDbEntity
  8
Mesh_cs
100
AcDbLine
 10
101.884
 20
336.949
 30
11.9
 11
102.421
 21
336.559
 31
11.9
  0
LINE
  5
A14
330
A02
100
AcDbEntity
  8
Mesh_cs
100
AcDbLine
 10
102.421
 20
336.559
 30
11.9
 11
117.584
 21
325.542
 31
11.9
  0
LINE
  5
A15
330
A02
100
AcDbEntity
  8
Mesh_cs
100
AcDbLine
 10
117.584
 20
325.542
 30
11.9
 11
117.598
 21
325.533
 31
11.9
  0
LINE
  5
A16
330
A02
100
AcDbEntity
  8
Mesh_cs
100
AcDbLine
 10
117.598
 20
325.533
 30
11.9
 11
118.677
 21
324.942
 31
11.9
  0
LINE
  5
A17
330
A02
100
AcDbEntity
  8
Mesh_cs
100
AcDbLine
 10
118.677
 20
324.942
 30
11.9
 11
118.692
 21
324.935
 31
11.9
  0
LINE
  5
A18
330
A02
100
AcDbEntity
  8
Mesh_cs
100
AcDbLine
 10
118.692
 20
324.935
 30
11.9
 11
118.724
 21
324.924
 31
11.9
  0
LINE
  5
A19
330
A02
100
AcDbEntity
  8
Mesh_cs
100
AcDbLine
 10
118.724
 20
324.924
 30
11.9
 11
119.92
 21
324.624
 31
11.9
  0
LINE
  5
A1A
330
A02
100
AcDbEntity
  8
Mesh_cs
100
AcDbLine
 10
119.92
 20
324.624
 30
11.9
 11
119.955
 21
324.62
 31
11.9
  0
LINE
  5
A1B
330
A02
100
AcDbEntity
  8
Mesh_cs
100
AcDbLine
 10
119.955
 20
324.62
 30
11.9
 11
121.19
 21
324.633
 31
11.9
  0
LINE
  5
A1C
330
A02
100
AcDbEntity
  8
Mesh_cs
100
AcDbLine
 10
121.19
 20
324.633
 30
11.9
 11
121.226
 21
324.637
 31
11.9
  0
LINE
  5
A1D
330
A02
100
AcDbEntity
  8
Mesh_cs
100
AcDbLine
 10
121.226
 20
324.637
 30
11.9
 11
122.417
 21
324.962
 31
11.9
  0
LINE
  5
A1E
330
A02
100
AcDbEntity
  8
Mesh_cs
100
AcDbLine
 10
122.417
 20
324.962
 30
11.9
 11
122.455
 21
324.975
 31
11.9
  0
LINE
  5
A1F
330
A02
100
AcDbEntity
  8
Mesh_cs
100
AcDbLine
 10
122.455
 20
324.975
 30
11.9
 11
123.523
 21
325.591
 31
11.9
  0
LINE
  5
A20
330
A02
100
AcDbEntity
  8
Mesh_cs
100
AcDbLine
 10
123.523
 20
325.591
 30
11.9
 11
123.559
 21
325.614
 31
11.9
  0
LINE
  5
A21
330
A02
100
AcDbEntity
  8
Mesh_cs
100
AcDbLine
 10
123.559
 20
325.614
 30
11.9
 11
124.087
 21
326.081
 31
11.9
  0
LINE
  5
A22
330
A02
100
AcDbEntity
  8
Mesh_cs
100
AcDbLine
 10
124.087
 20
326.081
 30
11.9
 11
124.114
 21
326.11
 31
11.9
  0
LINE
  5
A23
330
A02
100
AcDbEntity
  8
Mesh_cs
100
AcDbLine
 10
124.114
 20
326.11
 30
11.9
 11
124.568
 21
326.648
 31
11.9
  0
LINE
  5
A24
330
A02
100
AcDbEntity
  8
Mesh_cs
100
AcDbLine
 10
124.568
 20
326.648
 30
11.9
 11
124.958
 21
327.185
 31
11.9
  0
LINE
  5
A25
330
A02
100
AcDbEntity
  8
Mesh_cs
100
AcDbLine
 10
124.958
 20
327.185
 30
11.9
 11
136.265
 21
342.747
 31
11.9
  0
LINE
  5
A26
330
A02
100
AcDbEntity
  8
Mesh_cs
100
AcDbLine
 10
136.265
 20
342.747
 30
11.9
 11
140.723
 21
339.509
 31
11.9
  0
LINE
  5
A27
330
A02
100
AcDbEntity
  8
Mesh_cs
100
AcDbLine
 10
140.723
 20
339.509
 30
11.9
 11
180.842
 21
310.36
 31
11.9
  0
LINE
  5
A28
330
A02
100
AcDbEntity
  8
Mesh_cs
100
AcDbLine
 10
180.842
 20
310.36
 30
11.9
 11
173.356
 21
299.755
 31
11.9
  0
LINE
  5
A29
330
A02
100
AcDbEntity
  8
Mesh_cs
100
AcDbLine
 10
173.356
 20
299.755
 30
11.9
 11
172.524
 21
298.576
 31
11.9
  0
LINE
  5
A2A
330
A02
100
AcDbEntity
  8
Mesh_cs
100
AcDbLine
 10
172.524
 20
298.576
 30
11.9
 11
165.33
 21
287.77
 31
11.9
  0
LINE
  5
A2B
330
A02
100
AcDbEntity
  8
Mesh_cs
100
AcDbLine
 10
165.33
 20
287.77
 30
11.9
 11
164.531
 21
286.57
 31
11.9
  0
LINE
  5
A2C
330
A02
100
AcDbEntity
  8
Mesh_cs
100
AcDbLine
 10
164.531
 20
286.57
 30
11.9
 11
163.765
 21
285.348
 31
11.9
  0
LINE
  5
A2D
330
A02
100
AcDbEntity
  8
Mesh_cs
100
AcDbLine
 10
163.765
 20
285.348
 30
11.9
 11
156.869
 21
274.349
 31
11.9
  0
LINE
  5
A2E
330
A02
100
AcDbEntity
  8
Mesh_cs
100
AcDbLine
 10
156.869
 20
274.349
 30
11.9
 11
150.276
 21
263.166
 31
11.9
  0
LINE
  5
A2F
330
A02
100
AcDbEntity
  8
Mesh_cs
100
AcDbLine
 10
150.276
 20
263.166
 30
11.9
 11
149.544
 21
261.924
 31
11.9
  0
LINE
  5
A30
330
A02
100
AcDbEntity
  8
Mesh_cs
100
AcDbLine
 10
149.544
 20
261.924
 30
11.9
 11
143.259
 21
250.565
 31
11.9
  0
LINE
  5
A31
330
A02
100
AcDbEntity
  8
Mesh_cs
100
AcDbLine
 10
143.259
 20
250.565
 30
11.9
 11
142.56
 21
249.303
 31
11.9
  0
LINE
  5
A32
330
A02
100
AcDbEntity
  8
Mesh_cs
100
AcDbLine
 10
142.56
 20
249.303
 30
11.9
 11
136.588
 21
237.777
 31
11.9
  0
LINE
  5
A33
330
A02
100
AcDbEntity
  8
Mesh_cs
100
AcDbLine
 10
136.588
 20
237.777
 30
11.9
 11
135.924
 21
236.496
 31
11.9
  0
LINE
  5
A34
330
A02
100
AcDbEntity
  8
Mesh_cs
100
AcDbLine
 10
135.924
 20
236.496
 30
11.9
 11
130.269
 21
224.811
 31
11.9
  0
LINE
  5
A35
330
A02
100
AcDbEntity
  8
Mesh_cs
100
AcDbLine
 10
130.269
 20
224.811
 30
11.9
 11
129.641
 21
223.513
 31
11.9
  0
LINE
  5
A36
330
A02
100
AcDbEntity
  8
Mesh_cs
100
AcDbLine
 10
129.641
 20
223.513
 30
11.9
 11
124.306
 21
211.677
 31
11.9
  0
LINE
  5
A37
330
A02
100
AcDbEntity
  8
Mesh_cs
100
AcDbLine
 10
124.306
 20
211.677
 30
11.9
 11
123.714
 21
210.362
 31
11.9
  0
LINE
  5
A38
330
A02
100
AcDbEntity
  8
Mesh_cs
100
AcDbLine
 10
123.714
 20
210.362
 30
11.9
 11
118.705
 21
198.386
 31
11.9
  0
LINE
  5
A39
330
A02
100
AcDbEntity
  8
Mesh_cs
100
AcDbLine
 10
118.705
 20
198.386
 30
11.9
 11
118.149
 21
197.055
 31
11.9
  0
LINE
  5
A3A
330
A02
100
AcDbEntity
  8
Mesh_cs
100
AcDbLine
 10
118.149
 20
197.055
 30
11.9
 11
113.469
 21
184.947
 31
11.9
  0
LINE
  5
A3B
330
A02
100
AcDbEntity
  8
Mesh_cs
100
AcDbLine
 10
113.469
 20
184.947
 30
11.9
 11
112.949
 21
183.601
 31
11.9
  0
LINE
  5
A3C
330
A02
100
AcDbEntity
  8
Mesh_cs
100
AcDbLine
 10
112.949
 20
183.601
 30
11.9
 11
108.601
 21
171.369
 31
11.9
  0
LINE
  5
A3D
330
A02
100
AcDbEntity
  8
Mesh_cs
100
AcDbLine
 10
108.601
 20
171.369
 30
11.9
 11
108.118
 21
170.01
 31
11.9
  0
LINE
  5
A3E
330
A02
100
AcDbEntity
  8
Mesh_cs
100
AcDbLine
 10
108.118
 20
170.01
 30
11.9
 11
104.107
 21
157.664
 31
11.9
  0
LINE
  5
A3F
330
A02
100
AcDbEntity
  8
Mesh_cs
100
AcDbLine
 10
104.107
 20
157.664
 30
11.9
 11
103.661
 21
156.292
 31
11.9
  0
LINE
  5
A40
330
A02
100
AcDbEntity
  8
Mesh_cs
100
AcDbLine
 10
103.661
 20
156.292
 30
11.9
 11
99.9884
 21
143.841
 31
11.9
  0
LINE
  5
A41
330
A02
100
AcDbEntity
  8
Mesh_cs
100
AcDbLine
 10
99.9884
 20
143.841
 30
11.9
 11
99.5803
 21
142.457
 31
11.9
  0
LINE
  5
A42
330
A02
100
AcDbEntity
  8
Mesh_cs
100
AcDbLine
 10
99.5803
 20
142.457
 30
11.9
 11
99.2101
 21
141.063
 31
11.9
  0
LINE
  5
A43
330
A02
100
AcDbEntity
  8
Mesh_cs
100
AcDbLine
 10
99.2101
 20
141.063
 30
11.9
 11
95.8788
 21
128.516
 31
11.9
  0
LINE
  5
A44
330
A02
100
AcDbEntity
  8
Mesh_cs
100
AcDbLine
 10
95.8788
 20
128.516
 30
11.9
 11
92.8914
 21
115.883
 31
11.9
  0
LINE
  5
A45
330
A02
100
AcDbEntity
  8
Mesh_cs
100
AcDbLine
 10
92.8914
 20
115.883
 30
11.9
 11
92.5595
 21
114.479
 31
11.9
  0
LINE
  5
A46
330
A02
100
AcDbEntity
  8
Mesh_cs
100
AcDbLine
 10
92.5595
 20
114.479
 30
11.9
 11
89.9183
 21
101.769
 31
11.9
  0
LINE
  5
A47
330
A02
100
AcDbEntity
  8
Mesh_cs
100
AcDbLine
 10
89.9183
 20
101.769
 30
11.9
 11
89.6248
 21
100.357
 31
11.9
  0
LINE
  5
A48
330
A02
100
AcDbEntity
  8
Mesh_cs
100
AcDbLine
 10
89.6248
 20
100.357
 30
11.9
 11
87.3318
 21
87.5795
 31
11.9
  0
LINE
  5
A49
330
A02
100
AcDbEntity
  8
Mesh_cs
100
AcDbLine
 10
87.3318
 20
87.5795
 30
11.9
 11
87.077
 21
86.1598
 31
11.9
  0
LINE
  5
A4A
330
A02
100
AcDbEntity
  8
Mesh_cs
100
AcDbLine
 10
87.077
 20
86.1598
 30
11.9
 11
85.1339
 21
73.3244
 31
11.9
  0
LINE
  5
A4B
330
A02
100
AcDbEntity
  8
Mesh_cs
100
AcDbLine
 10
85.1339
 20
73.3244
 30
11.9
 11
84.918
 21
71.8983
 31
11.9
  0
LINE
  5
A4C
330
A02
100
AcDbEntity
  8
Mesh_cs
100
AcDbLine
 10
84.918
 20
71.8983
 30
11.9
 11
83.3261
 21
59.0146
 31
11.9
  0
LINE
  5
A4D
330
A02
100
AcDbEntity
  8
Mesh_cs
100
AcDbLine
 10
83.3261
 20
59.0146
 30
11.9
 11
83.1493
 21
57.5831
 31
11.9
  0
LINE
  5
A4E
330
A02
100
AcDbEntity
  8
Mesh_cs
100
AcDbLine
 10
83.1493
 20
57.5831
 30
11.9
 11
81.9099
 21
44.6608
 31
11.9
  0
LINE
  5
A4F
330
A02
100
AcDbEntity
  8
Mesh_cs
100
AcDbLine
 10
81.9099
 20
44.6608
 30
11.9
 11
81.7722
 21
43.225
 31
11.9
  0
LINE
  5
A50
330
A02
100
AcDbEntity
  8
Mesh_cs
100
AcDbLine
 10
81.7722
 20
43.225
 30
11.9
 11
80.8863
 21
30.2736
 31
11.9
  0
LINE
  5
A51
330
A02
100
AcDbEntity
  8
Mesh_cs
100
AcDbLine
 10
80.8863
 20
30.2736
 30
11.9
 11
80.7879
 21
28.8346
 31
11.9
  0
LINE
  5
A52
330
A02
100
AcDbEntity
  8
Mesh_cs
100
AcDbLine
 10
80.7879
 20
28.8346
 30
11.9
 11
80.2561
 21
15.8639
 31
11.9
  0
LINE
  5
A53
330
A02
100
AcDbEntity
  8
Mesh_cs
100
AcDbLine
 10
80.2561
 20
15.8639
 30
11.9
 11
80.197
 21
14.4227
 31
11.9
  0
LINE
  5
A54
330
A02
100
AcDbEntity
  8
Mesh_cs
100
AcDbLine
 10
80.197
 20
14.4227
 30
11.9
 11
80.0197
 21
1.44227
 31
11.9
  0
LINE
  5
A55
330
A02
100
AcDbEntity
  8
Mesh_cs
100
AcDbLine
 10
80.0197
 20
1.44227
 30
11.9
 11
80
 21
-5.10703e-15
 31
11.9
  0
LINE
  5
A56
330
A02
100
AcDbEntity
  8
Mesh_cs
100
AcDbLine
 10
80
 20
-5e-15
 30
11.9
 11
30.41
 21
-3.2e-15
 31
11.9
  0
LINE
  5
A57
330
A02
100
AcDbEntity
  8
Mesh_cs
100
AcDbLine
 10
30.41
 20
-3.2e-15
 30
11.9
 11
24.9
 21
-3.03333e-15
 31
11.9
  0
LINE
  5
A58
330
A02
100
AcDbEntity
  8
Mesh_cs
100
AcDbLine
 10
24.9
 20
-3.03333e-15
 30
11.9
 11
24.9
 21
19.2367
 31
11.9
  0
LINE
  5
A59
330
A02
100
AcDbEntity
  8
Mesh_cs
100
AcDbLine
 10
24.9
 20
19.2367
 30
11.9
 11
24.9
 21
19.9
 31
11.9
  0
LINE
  5
A5A
330
A02
100
AcDbEntity
  8
Mesh_cs
100
AcDbLine
 10
24.9
 20
19.9
 30
11.9
 11
24.8943
 21
19.9431
 31
11.9
  0
LINE
  5
A5B
330
A02
100
AcDbEntity
  8
Mesh_cs
100
AcDbLine
 10
24.8943
 20
19.9431
 30
11.9
 11
24.7296
 21
21.1941
 31
11.9
  0
LINE
  5
A5C
330
A02
100
AcDbEntity
  8
Mesh_cs
100
AcDbLine
 10
24.7296
 20
21.1941
 30
11.9
 11
24.2468
 21
22.3598
 31
11.9
  0
LINE
  5
A5D
330
A02
100
AcDbEntity
  8
Mesh_cs
100
AcDbLine
 10
24.2468
 20
22.3598
 30
11.9
 11
24.2301
 21
22.4
 31
11.9
  0
LINE
  5
A5E
330
A02
100
AcDbEntity
  8
Mesh_cs
100
AcDbLine
 10
24.2301
 20
22.4
 30
11.9
 11
23.462
 21
23.401
 31
11.9
  0
LINE
  5
A5F
330
A02
100
AcDbEntity
  8
Mesh_cs
100
AcDbLine
 10
23.462
 20
23.401
 30
11.9
 11
23.4355
 21
23.4355
 31
11.9
  0
LINE
  5
A60
330
A02
100
AcDbEntity
  8
Mesh_cs
100
AcDbLine
 10
23.4355
 20
23.4355
 30
11.9
 11
22.4345
 21
24.2036
 31
11.9
  0
LINE
  5
A61
330
A02
100
AcDbEntity
  8
Mesh_cs
100
AcDbLine
 10
22.4345
 20
24.2036
 30
11.9
 11
22.4
 21
24.2301
 31
11.9
  0
LINE
  5
A62
330
A02
100
AcDbEntity
  8
Mesh_cs
100
AcDbLine
 10
22.4
 20
24.2301
 30
11.9
 11
21.2343
 21
24.713
 31
11.9
  0
LINE
  5
A63
330
A02
100
AcDbEntity
  8
Mesh_cs
100
AcDbLine
 10
21.2343
 20
24.713
 30
11.9
 11
21.1941
 21
24.7296
 31
11.9
  0
LINE
  5
A64
330
A02
100
AcDbEntity
  8
Mesh_cs
100
AcDbLine
 10
21.1941
 20
24.7296
 30
11.9
 11
19.9431
 21
24.8943
 31
11.9
  0
LINE
  5
A65
330
A02
100
AcDbEntity
  8
Mesh_cs
100
AcDbLine
 10
19.9431
 20
24.8943
 30
11.9
 11
19.9
 21
24.9
 31
11.9
  0
LINE
  5
A66
330
A02
100
AcDbEntity
  8
Mesh_cs
100
AcDbLine
 10
19.9
 20
24.9
 30
11.9
 11
1.15641
 21
24.9
 31
11.9
  0
LINE
  5
A67
330
A02
100
AcDbEntity
  8
Mesh_cs
100
AcDbLine
 10
1.15641
 20
24.9
 30
11.9
 11
0.493074
 21
24.9
 31
11.9
  0
LINE
  5
A68
330
A02
100
AcDbEntity
  8
Mesh_cs
100
AcDbLine
 10
0.493074
 20
24.9
 30
11.9
 11
-9.99201e-16
 21
24.9
 31
11.9
  0
LINE
  5
A69
330
A02
100
AcDbEntity
  8
Mesh_cs
100
AcDbLine
 10
-1e-15
 20
24.9
 30
11.9
 11
0.299439
 21
25.5659
 31
11.9
  0
LINE
  5
A6A
330
A02
100
AcDbEntity
  8
Mesh_cs
100
AcDbLine
 10
0.299439
 20
25.5659
 30
11.9
 11
0.309764
 21
25.5889
 31
11.9
  0
LINE
  5
A6B
330
A02
100
AcDbEntity
  8
Mesh_cs
100
AcDbLine
 10
0.309764
 20
25.5889
 30
11.9
 11
0.512219
 21
26.3166
 31
11.9
  0
LINE
  5
A6C
330
A02
100
AcDbEntity
  8
Mesh_cs
100
AcDbLine
 10
0.512219
 20
26.3166
 30
11.9
 11
0.602746
 21
27.0665
 31
11.9
  0
LINE
  5
A6D
330
A02
100
AcDbEntity
  8
Mesh_cs
100
AcDbLine
 10
0.602746
 20
27.0665
 30
11.9
 11
0.609794
 21
27.1905
 31
11.9
  0
LINE
  5
A6E
330
A02
100
AcDbEntity
  8
Mesh_cs
100
AcDbLine
 10
0.609794
 20
27.1905
 30
11.9
 11
1.44859
 21
41.9456
 31
11.9
  0
LINE
  5
A6F
330
A02
100
AcDbEntity
  8
Mesh_cs
100
AcDbLine
 10
1.44859
 20
41.9456
 30
11.9
 11
1.45868
 21
42.0694
 31
11.9
  0
LINE
  5
A70
330
A02
100
AcDbEntity
  8
Mesh_cs
100
AcDbLine
 10
1.45868
 20
42.0694
 30
11.9
 11
2.65885
 21
56.7995
 31
11.9
  0
LINE
  5
A71
330
A02
100
AcDbEntity
  8
Mesh_cs
100
AcDbLine
 10
2.65885
 20
56.7995
 30
11.9
 11
2.67197
 21
56.923
 31
11.9
  0
LINE
  5
A72
330
A02
100
AcDbEntity
  8
Mesh_cs
100
AcDbLine
 10
2.67197
 20
56.923
 30
11.9
 11
4.23281
 21
71.6193
 31
11.9
  0
LINE
  5
A73
330
A02
100
AcDbEntity
  8
Mesh_cs
100
AcDbLine
 10
4.23281
 20
71.6193
 30
11.9
 11
6.15338
 21
86.2729
 31
11.9
  0
LINE
  5
A74
330
A02
100
AcDbEntity
  8
Mesh_cs
100
AcDbLine
 10
6.15338
 20
86.2729
 30
11.9
 11
6.16952
 21
86.3961
 31
11.9
  0
LINE
  5
A75
330
A02
100
AcDbEntity
  8
Mesh_cs
100
AcDbLine
 10
6.16952
 20
86.3961
 30
11.9
 11
8.44866
 21
100.998
 31
11.9
  0
LINE
  5
A76
330
A02
100
AcDbEntity
  8
Mesh_cs
100
AcDbLine
 10
8.44866
 20
100.998
 30
11.9
 11
8.46782
 21
101.121
 31
11.9
  0
LINE
  5
A77
330
A02
100
AcDbEntity
  8
Mesh_cs
100
AcDbLine
 10
8.46782
 20
101.121
 30
11.9
 11
8.48997
 21
101.243
 31
11.9
  0
LINE
  5
A78
330
A02
100
AcDbEntity
  8
Mesh_cs
100
AcDbLine
 10
8.48997
 20
101.243
 30
11.9
 11
11.1263
 21
115.785
 31
11.9
  0
LINE
  5
A79
330
A02
100
AcDbEntity
  8
Mesh_cs
100
AcDbLine
 10
11.1263
 20
115.785
 30
11.9
 11
11.1515
 21
115.907
 31
11.9
  0
LINE
  5
A7A
330
A02
100
AcDbEntity
  8
Mesh_cs
100
AcDbLine
 10
11.1515
 20
115.907
 30
11.9
 11
14.1434
 21
130.38
 31
11.9
  0
LINE
  5
A7B
330
A02
100
AcDbEntity
  8
Mesh_cs
100
AcDbLine
 10
14.1434
 20
130.38
 30
11.9
 11
14.1715
 21
130.501
 31
11.9
  0
LINE
  5
A7C
330
A02
100
AcDbEntity
  8
Mesh_cs
100
AcDbLine
 10
14.1715
 20
130.501
 30
11.9
 11
17.5173
 21
144.896
 31
11.9
  0
LINE
  5
A7D
330
A02
100
AcDbEntity
  8
Mesh_cs
100
AcDbLine
 10
17.5173
 20
144.896
 30
11.9
 11
21.2149
 21
159.205
 31
11.9
  0
LINE
  5
A7E
330
A02
100
AcDbEntity
  8
Mesh_cs
100
AcDbLine
 10
21.2149
 20
159.205
 30
11.9
 11
21.246
 21
159.325
 31
11.9
  0
LINE
  5
A7F
330
A02
100
AcDbEntity
  8
Mesh_cs
100
AcDbLine
 10
21.246
 20
159.325
 30
11.9
 11
21.28
 21
159.444
 31
11.9
  0
LINE
  5
A80
330
A02
100
AcDbEntity
  8
Mesh_cs
100
AcDbLine
 10
21.28
 20
159.444
 30
11.9
 11
25.3272
 21
173.658
 31
11.9
  0
LINE
  5
A81
330
A02
100
AcDbEntity
  8
Mesh_cs
100
AcDbLine
 10
25.3272
 20
173.658
 30
11.9
 11
25.3641
 21
173.777
 31
11.9
  0
LINE
  5
A82
330
A02
100
AcDbEntity
  8
Mesh_cs
100
AcDbLine
 10
25.3641
 20
173.777
 30
11.9
 11
29.7585
 21
187.887
 31
11.9
  0
LINE
  5
A83
330
A02
100
AcDbEntity
  8
Mesh_cs
100
AcDbLine
 10
29.7585
 20
187.887
 30
11.9
 11
29.7983
 21
188.005
 31
11.9
  0
LINE
  5
A84
330
A02
100
AcDbEntity
  8
Mesh_cs
100
AcDbLine
 10
29.7983
 20
188.005
 30
11.9
 11
34.5371
 21
202.004
 31
11.9
  0
LINE
  5
A85
330
A02
100
AcDbEntity
  8
Mesh_cs
100
AcDbLine
 10
34.5371
 20
202.004
 30
11.9
 11
34.5798
 21
202.12
 31
11.9
  0
LINE
  5
A86
330
A02
100
AcDbEntity
  8
Mesh_cs
100
AcDbLine
 10
34.5798
 20
202.12
 30
11.9
 11
39.6604
 21
215.999
 31
11.9
  0
LINE
  5
A87
330
A02
100
AcDbEntity
  8
Mesh_cs
100
AcDbLine
 10
39.6604
 20
215.999
 30
11.9
 11
39.7059
 21
216.114
 31
11.9
  0
LINE
  5
A88
330
A02
100
AcDbEntity
  8
Mesh_cs
100
AcDbLine
 10
39.7059
 20
216.114
 30
11.9
 11
45.125
 21
229.864
 31
11.9
  0
LINE
  5
A89
330
A02
100
AcDbEntity
  8
Mesh_cs
100
AcDbLine
 10
45.125
 20
229.864
 30
11.9
 11
45.1734
 21
229.978
 31
11.9
  0
LINE
  5
A8A
330
A02
100
AcDbEntity
  8
Mesh_cs
100
AcDbLine
 10
45.1734
 20
229.978
 30
11.9
 11
50.9279
 21
243.591
 31
11.9
  0
LINE
  5
A8B
330
A02
100
AcDbEntity
  8
Mesh_cs
100
AcDbLine
 10
50.9279
 20
243.591
 30
11.9
 11
50.9791
 21
243.704
 31
11.9
  0
LINE
  5
A8C
330
A02
100
AcDbEntity
  8
Mesh_cs
100
AcDbLine
 10
50.9791
 20
243.704
 30
11.9
 11
57.0655
 21
257.171
 31
11.9
  0
LINE
  5
A8D
330
A02
100
AcDbEntity
  8
Mesh_cs
100
AcDbLine
 10
57.0655
 20
257.171
 30
11.9
 11
63.4802
 21
270.486
 31
11.9
  0
LINE
  5
A8E
330
A02
100
AcDbEntity
  8
Mesh_cs
100
AcDbLine
 10
63.4802
 20
270.486
 30
11.9
 11
63.5341
 21
270.597
 31
11.9
  0
LINE
  5
A8F
330
A02
100
AcDbEntity
  8
Mesh_cs
100
AcDbLine
 10
63.5341
 20
270.597
 30
11.9
 11
70.2731
 21
283.75
 31
11.9
  0
LINE
  5
A90
330
A02
100
AcDbEntity
  8
Mesh_cs
100
AcDbLine
 10
70.2731
 20
283.75
 30
11.9
 11
70.3298
 21
283.861
 31
11.9
  0
LINE
  5
A91
330
A02
100
AcDbEntity
  8
Mesh_cs
100
AcDbLine
 10
70.3298
 20
283.861
 30
11.9
 11
70.3891
 21
283.97
 31
11.9
  0
LINE
  5
A92
330
A02
100
AcDbEntity
  8
Mesh_cs
100
AcDbLine
 10
70.3891
 20
283.97
 30
11.9
 11
77.4485
 21
296.954
 31
11.9
  0
LINE
  5
A93
330
A02
100
AcDbEntity
  8
Mesh_cs
100
AcDbLine
 10
77.4485
 20
296.954
 30
11.9
 11
77.5105
 21
297.062
 31
11.9
  0
LINE
  5
A94
330
A02
100
AcDbEntity
  8
Mesh_cs
100
AcDbLine
 10
77.5105
 20
297.062
 30
11.9
 11
84.886
 21
309.869
 31
11.9
  0
LINE
  5
A95
330
A02
100
AcDbEntity
  8
Mesh_cs
100
AcDbLine
 10
84.886
 20
309.869
 30
11.9
 11
84.9506
 21
309.975
 31
11.9
  0
LINE
  5
A96
330
A02
100
AcDbEntity
  8
Mesh_cs
100
AcDbLine
 10
84.9506
 20
309.975
 30
11.9
 11
92.6378
 21
322.597
 31
11.9
  0
LINE
  5
A97
330
A02
100
AcDbEntity
  8
Mesh_cs
100
AcDbLine
 10
92.6378
 20
322.597
 30
11.9
 11
100.632
 21
335.027
 31
11.9
  0
LINE
  5
A98
330
A02
100
AcDbEntity
  8
Mesh_cs
100
AcDbLine
 10
100.632
 20
335.027
 30
11.9
 11
100.699
 21
335.132
 31
11.9
  0
LINE
  5
A99
330
A02
100
AcDbEntity
  8
Mesh_cs
100
AcDbLine
 10
100.699
 20
335.132
 30
11.9
 11
100.733
 21
335.199
 31
11.9
  0
LINE
  5
A9A
330
A02
100
AcDbEntity
  8
Mesh_cs
100
AcDbLine
 10
100.733
 20
335.199
 30
11.9
 11
101.076
 21
335.814
 31
11.9
  0
LINE
  5
A9B
330
A02
100
AcDbEntity
  8
Mesh_cs
100
AcDbLine
 10
101.076
 20
335.814
 30
11.9
 11
101.323
 21
336.477
 31
11.9
  0
LINE
  5
A9C
330
A02
100
AcDbEntity
  8
Mesh_cs
100
AcDbLine
 10
101.323
 20
336.477
 30
11.9
 11
101.467
 21
337.165
 31
11.9
  0
LINE
  5
A9D
330
A02
100
AcDbEntity
  8
Mesh_cs
100
AcDbLine
 10
243.681
 20
233.928
 30
11.9
 11
259.243
 21
222.621
 31
11.9
  0
LINE
  5
A9E
330
A02
100
AcDbEntity
  8
Mesh_cs
100
AcDbLine
 10
259.243
 20
222.621
 30
11.9
 11
259.209
 21
222.561
 31
11.9
  0
LINE
  5
A9F
330
A02
100
AcDbEntity
  8
Mesh_cs
100
AcDbLine
 10
259.209
 20
222.561
 30
11.9
 11
258.725
 21
221.725
 31
11.9
  0
LINE
  5
AA0
330
A02
100
AcDbEntity
  8
Mesh_cs
100
AcDbLine
 10
258.725
 20
221.725
 30
11.9
 11
258.701
 21
221.66
 31
11.9
  0
LINE
  5
AA1
330
A02
100
AcDbEntity
  8
Mesh_cs
100
AcDbLine
 10
258.701
 20
221.66
 30
11.9
 11
258.41
 21
220.774
 31
11.9
  0
LINE
  5
AA2
330
A02
100
AcDbEntity
  8
Mesh_cs
100
AcDbLine
 10
258.41
 20
220.774
 30
11.9
 11
258.308
 21
219.848
 31
11.9
  0
LINE
  5
AA3
330
A02
100
AcDbEntity
  8
Mesh_cs
100
AcDbLine
 10
258.308
 20
219.848
 30
11.9
 11
258.305
 21
219.813
 31
11.9
  0
LINE
  5
AA4
330
A02
100
AcDbEntity
  8
Mesh_cs
100
AcDbLine
 10
258.305
 20
219.813
 30
11.9
 11
258.291
 21
219.732
 31
11.9
  0
LINE
  5
AA5
330
A02
100
AcDbEntity
  8
Mesh_cs
100
AcDbLine
 10
258.291
 20
219.732
 30
11.9
 11
258.288
 21
219.711
 31
11.9
  0
LINE
  5
AA6
330
A02
100
AcDbEntity
  8
Mesh_cs
100
AcDbLine
 10
258.288
 20
219.711
 30
11.9
 11
258.233
 21
219.62
 31
11.9
  0
LINE
  5
AA7
330
A02
100
AcDbEntity
  8
Mesh_cs
100
AcDbLine
 10
258.233
 20
219.62
 30
11.9
 11
251.679
 21
208.821
 31
11.9
  0
LINE
  5
AA8
330
A02
100
AcDbEntity
  8
Mesh_cs
100
AcDbLine
 10
251.679
 20
208.821
 30
11.9
 11
251.627
 21
208.728
 31
11.9
  0
LINE
  5
AA9
330
A02
100
AcDbEntity
  8
Mesh_cs
100
AcDbLine
 10
251.627
 20
208.728
 30
11.9
 11
245.408
 21
197.732
 31
11.9
  0
LINE
  5
AAA
330
A02
100
AcDbEntity
  8
Mesh_cs
100
AcDbLine
 10
245.408
 20
197.732
 30
11.9
 11
245.359
 21
197.638
 31
11.9
  0
LINE
  5
AAB
330
A02
100
AcDbEntity
  8
Mesh_cs
100
AcDbLine
 10
245.359
 20
197.638
 30
11.9
 11
239.483
 21
186.455
 31
11.9
  0
LINE
  5
AAC
330
A02
100
AcDbEntity
  8
Mesh_cs
100
AcDbLine
 10
239.483
 20
186.455
 30
11.9
 11
233.954
 21
175.096
 31
11.9
  0
LINE
  5
AAD
330
A02
100
AcDbEntity
  8
Mesh_cs
100
AcDbLine
 10
233.954
 20
175.096
 30
11.9
 11
233.908
 21
175
 31
11.9
  0
LINE
  5
AAE
330
A02
100
AcDbEntity
  8
Mesh_cs
100
AcDbLine
 10
233.908
 20
175
 30
11.9
 11
233.864
 21
174.904
 31
11.9
  0
LINE
  5
AAF
330
A02
100
AcDbEntity
  8
Mesh_cs
100
AcDbLine
 10
233.864
 20
174.904
 30
11.9
 11
228.688
 21
163.38
 31
11.9
  0
LINE
  5
AB0
330
A02
100
AcDbEntity
  8
Mesh_cs
100
AcDbLine
 10
228.688
 20
163.38
 30
11.9
 11
228.648
 21
163.281
 31
11.9
  0
LINE
  5
AB1
330
A02
100
AcDbEntity
  8
Mesh_cs
100
AcDbLine
 10
228.648
 20
163.281
 30
11.9
 11
223.83
 21
151.603
 31
11.9
  0
LINE
  5
AB2
330
A02
100
AcDbEntity
  8
Mesh_cs
100
AcDbLine
 10
223.83
 20
151.603
 30
11.9
 11
219.375
 21
139.782
 31
11.9
  0
LINE
  5
AB3
330
A02
100
AcDbEntity
  8
Mesh_cs
100
AcDbLine
 10
219.375
 20
139.782
 30
11.9
 11
219.337
 21
139.683
 31
11.9
  0
LINE
  5
AB4
330
A02
100
AcDbEntity
  8
Mesh_cs
100
AcDbLine
 10
219.337
 20
139.683
 30
11.9
 11
219.303
 21
139.582
 31
11.9
  0
LINE
  5
AB5
330
A02
100
AcDbEntity
  8
Mesh_cs
100
AcDbLine
 10
219.303
 20
139.582
 30
11.9
 11
215.214
 21
127.629
 31
11.9
  0
LINE
  5
AB6
330
A02
100
AcDbEntity
  8
Mesh_cs
100
AcDbLine
 10
215.214
 20
127.629
 30
11.9
 11
215.183
 21
127.528
 31
11.9
  0
LINE
  5
AB7
330
A02
100
AcDbEntity
  8
Mesh_cs
100
AcDbLine
 10
215.183
 20
127.528
 30
11.9
 11
211.465
 21
115.454
 31
11.9
  0
LINE
  5
AB8
330
A02
100
AcDbEntity
  8
Mesh_cs
100
AcDbLine
 10
211.465
 20
115.454
 30
11.9
 11
208.121
 21
103.272
 31
11.9
  0
LINE
  5
AB9
330
A02
100
AcDbEntity
  8
Mesh_cs
100
AcDbLine
 10
208.121
 20
103.272
 30
11.9
 11
208.093
 21
103.17
 31
11.9
  0
LINE
  5
ABA
330
A02
100
AcDbEntity
  8
Mesh_cs
100
AcDbLine
 10
208.093
 20
103.17
 30
11.9
 11
208.068
 21
103.066
 31
11.9
  0
LINE
  5
ABB
330
A02
100
AcDbEntity
  8
Mesh_cs
100
AcDbLine
 10
208.068
 20
103.066
 30
11.9
 11
205.102
 21
90.7867
 31
11.9
  0
LINE
  5
ABC
330
A02
100
AcDbEntity
  8
Mesh_cs
100
AcDbLine
 10
205.102
 20
90.7867
 30
11.9
 11
205.08
 21
90.6828
 31
11.9
  0
LINE
  5
ABD
330
A02
100
AcDbEntity
  8
Mesh_cs
100
AcDbLine
 10
205.08
 20
90.6828
 30
11.9
 11
202.493
 21
78.3175
 31
11.9
  0
LINE
  5
ABE
330
A02
100
AcDbEntity
  8
Mesh_cs
100
AcDbLine
 10
202.493
 20
78.3175
 30
11.9
 11
202.475
 21
78.2129
 31
11.9
  0
LINE
  5
ABF
330
A02
100
AcDbEntity
  8
Mesh_cs
100
AcDbLine
 10
202.475
 20
78.2129
 30
11.9
 11
200.271
 21
65.7737
 31
11.9
  0
LINE
  5
AC0
330
A02
100
AcDbEntity
  8
Mesh_cs
100
AcDbLine
 10
200.271
 20
65.7737
 30
11.9
 11
200.256
 21
65.6687
 31
11.9
  0
LINE
  5
AC1
330
A02
100
AcDbEntity
  8
Mesh_cs
100
AcDbLine
 10
200.256
 20
65.6687
 30
11.9
 11
198.436
 21
53.1674
 31
11.9
  0
LINE
  5
AC2
330
A02
100
AcDbEntity
  8
Mesh_cs
100
AcDbLine
 10
198.436
 20
53.1674
 30
11.9
 11
198.424
 21
53.0619
 31
11.9
  0
LINE
  5
AC3
330
A02
100
AcDbEntity
  8
Mesh_cs
100
AcDbLine
 10
198.424
 20
53.0619
 30
11.9
 11
196.992
 21
40.5105
 31
11.9
  0
LINE
  5
AC4
330
A02
100
AcDbEntity
  8
Mesh_cs
100
AcDbLine
 10
196.992
 20
40.5105
 30
11.9
 11
195.946
 21
27.9209
 31
11.9
  0
LINE
  5
AC5
330
A02
100
AcDbEntity
  8
Mesh_cs
100
AcDbLine
 10
195.946
 20
27.9209
 30
11.9
 11
195.938
 21
27.8151
 31
11.9
  0
LINE
  5
AC6
330
A02
100
AcDbEntity
  8
Mesh_cs
100
AcDbLine
 10
195.938
 20
27.8151
 30
11.9
 11
195.429
 21
26.9232
 31
11.9
  0
LINE
  5
AC7
330
A02
100
AcDbEntity
  8
Mesh_cs
100
AcDbLine
 10
195.429
 20
26.9232
 30
11.9
 11
195.424
 21
26.9157
 31
11.9
  0
LINE
  5
AC8
330
A02
100
AcDbEntity
  8
Mesh_cs
100
AcDbLine
 10
195.424
 20
26.9157
 30
11.9
 11
195.422
 21
26.9075
 31
11.9
  0
LINE
  5
AC9
330
A02
100
AcDbEntity
  8
Mesh_cs
100
AcDbLine
 10
195.422
 20
26.9075
 30
11.9
 11
195.107
 21
25.93
 31
11.9
  0
LINE
  5
ACA
330
A02
100
AcDbEntity
  8
Mesh_cs
100
AcDbLine
 10
195.107
 20
25.93
 30
11.9
 11
195.104
 21
25.8956
 31
11.9
  0
LINE
  5
ACB
330
A02
100
AcDbEntity
  8
Mesh_cs
100
AcDbLine
 10
195.104
 20
25.8956
 30
11.9
 11
195
 21
24.9
 31
11.9
  0
LINE
  5
ACC
330
A02
100
AcDbEntity
  8
Mesh_cs
100
AcDbLine
 10
195
 20
24.9
 30
11.9
 11
175.763
 21
24.9
 31
11.9
  0
LINE
  5
ACD
330
A02
100
AcDbEntity
  8
Mesh_cs
100
AcDbLine
 10
175.763
 20
24.9
 30
11.9
 11
175.1
 21
24.9
 31
11.9
  0
LINE
  5
ACE
330
A02
100
AcDbEntity
  8
Mesh_cs
100
AcDbLine
 10
175.1
 20
24.9
 30
11.9
 11
175.084
 21
24.8992
 31
11.9
  0
LINE
  5
ACF
330
A02
100
AcDbEntity
  8
Mesh_cs
100
AcDbLine
 10
175.084
 20
24.8992
 30
11.9
 11
173.864
 21
24.7428
 31
11.9
  0
LINE
  5
AD0
330
A02
100
AcDbEntity
  8
Mesh_cs
100
AcDbLine
 10
173.864
 20
24.7428
 30
11.9
 11
173.847
 21
24.7403
 31
11.9
  0
LINE
  5
AD1
330
A02
100
AcDbEntity
  8
Mesh_cs
100
AcDbLine
 10
173.847
 20
24.7403
 30
11.9
 11
173.815
 21
24.7301
 31
11.9
  0
LINE
  5
AD2
330
A02
100
AcDbEntity
  8
Mesh_cs
100
AcDbLine
 10
173.815
 20
24.7301
 30
11.9
 11
172.671
 21
24.2693
 31
11.9
  0
LINE
  5
AD3
330
A02
100
AcDbEntity
  8
Mesh_cs
100
AcDbLine
 10
172.671
 20
24.2693
 30
11.9
 11
172.64
 21
24.252
 31
11.9
  0
LINE
  5
AD4
330
A02
100
AcDbEntity
  8
Mesh_cs
100
AcDbLine
 10
172.64
 20
24.252
 30
11.9
 11
171.649
 21
23.5157
 31
11.9
  0
LINE
  5
AD5
330
A02
100
AcDbEntity
  8
Mesh_cs
100
AcDbLine
 10
171.649
 20
23.5157
 30
11.9
 11
171.622
 21
23.4917
 31
11.9
  0
LINE
  5
AD6
330
A02
100
AcDbEntity
  8
Mesh_cs
100
AcDbLine
 10
171.622
 20
23.4917
 30
11.9
 11
170.85
 21
22.5283
 31
11.9
  0
LINE
  5
AD7
330
A02
100
AcDbEntity
  8
Mesh_cs
100
AcDbLine
 10
170.85
 20
22.5283
 30
11.9
 11
170.827
 21
22.4958
 31
11.9
  0
LINE
  5
AD8
330
A02
100
AcDbEntity
  8
Mesh_cs
100
AcDbLine
 10
170.827
 20
22.4958
 30
11.9
 11
170.324
 21
21.3695
 31
11.9
  0
LINE
  5
AD9
330
A02
100
AcDbEntity
  8
Mesh_cs
100
AcDbLine
 10
170.324
 20
21.3695
 30
11.9
 11
170.309
 21
21.3297
 31
11.9
  0
LINE
  5
ADA
330
A02
100
AcDbEntity
  8
Mesh_cs
100
AcDbLine
 10
170.309
 20
21.3297
 30
11.9
 11
170.156
 21
20.6413
 31
11.9
  0
LINE
  5
ADB
330
A02
100
AcDbEntity
  8
Mesh_cs
100
AcDbLine
 10
170.156
 20
20.6413
 30
11.9
 11
170.151
 21
20.6018
 31
11.9
  0
LINE
  5
ADC
330
A02
100
AcDbEntity
  8
Mesh_cs
100
AcDbLine
 10
170.151
 20
20.6018
 30
11.9
 11
170.1
 21
19.9
 31
11.9
  0
LINE
  5
ADD
330
A02
100
AcDbEntity
  8
Mesh_cs
100
AcDbLine
 10
170.1
 20
19.9
 30
11.9
 11
170.1
 21
0.663337
 31
11.9
  0
LINE
  5
ADE
330
A02
100
AcDbEntity
  8
Mesh_cs
100
AcDbLine
 10
170.1
 20
0.663337
 30
11.9
 11
170.1
 21
-3.10862e-15
 31
11.9
  0
LINE
  5
ADF
330
A02
100
AcDbEntity
  8
Mesh_cs
100
AcDbLine
 10
170.1
 20
-3.13333e-15
 30
11.9
 11
164.59
 21
-3.2e-15
 31
11.9
  0
LINE
  5
AE0
330
A02
100
AcDbEntity
  8
Mesh_cs
100
AcDbLine
 10
164.59
 20
-3.2e-15
 30
11.9
 11
115
 21
-5e-15
 31
11.9
  0
LINE
  5
AE1
330
A02
100
AcDbEntity
  8
Mesh_cs
100
AcDbLine
 10
115
 20
-5e-15
 30
11.9
 11
115.166
 21
12.12
 31
11.9
  0
LINE
  5
AE2
330
A02
100
AcDbEntity
  8
Mesh_cs
100
AcDbLine
 10
115.166
 20
12.12
 30
11.9
 11
115.184
 21
13.4667
 31
11.9
  0
LINE
  5
AE3
330
A02
100
AcDbEntity
  8
Mesh_cs
100
AcDbLine
 10
115.184
 20
13.4667
 30
11.9
 11
115.681
 21
25.5776
 31
11.9
  0
LINE
  5
AE4
330
A02
100
AcDbEntity
  8
Mesh_cs
100
AcDbLine
 10
115.681
 20
25.5776
 30
11.9
 11
115.736
 21
26.9233
 31
11.9
  0
LINE
  5
AE5
330
A02
100
AcDbEntity
  8
Mesh_cs
100
AcDbLine
 10
115.736
 20
26.9233
 30
11.9
 11
116.563
 21
39.0161
 31
11.9
  0
LINE
  5
AE6
330
A02
100
AcDbEntity
  8
Mesh_cs
100
AcDbLine
 10
116.563
 20
39.0161
 30
11.9
 11
116.655
 21
40.3598
 31
11.9
  0
LINE
  5
AE7
330
A02
100
AcDbEntity
  8
Mesh_cs
100
AcDbLine
 10
116.655
 20
40.3598
 30
11.9
 11
117.812
 21
52.4255
 31
11.9
  0
LINE
  5
AE8
330
A02
100
AcDbEntity
  8
Mesh_cs
100
AcDbLine
 10
117.812
 20
52.4255
 30
11.9
 11
117.941
 21
53.7662
 31
11.9
  0
LINE
  5
AE9
330
A02
100
AcDbEntity
  8
Mesh_cs
100
AcDbLine
 10
117.941
 20
53.7662
 30
11.9
 11
119.427
 21
65.7958
 31
11.9
  0
LINE
  5
AEA
330
A02
100
AcDbEntity
  8
Mesh_cs
100
AcDbLine
 10
119.427
 20
65.7958
 30
11.9
 11
119.592
 21
67.1324
 31
11.9
  0
LINE
  5
AEB
330
A02
100
AcDbEntity
  8
Mesh_cs
100
AcDbLine
 10
119.592
 20
67.1324
 30
11.9
 11
121.406
 21
79.117
 31
11.9
  0
LINE
  5
AEC
330
A02
100
AcDbEntity
  8
Mesh_cs
100
AcDbLine
 10
121.406
 20
79.117
 30
11.9
 11
121.608
 21
80.4486
 31
11.9
  0
LINE
  5
AED
330
A02
100
AcDbEntity
  8
Mesh_cs
100
AcDbLine
 10
121.608
 20
80.4486
 30
11.9
 11
123.749
 21
92.3791
 31
11.9
  0
LINE
  5
AEE
330
A02
100
AcDbEntity
  8
Mesh_cs
100
AcDbLine
 10
123.749
 20
92.3791
 30
11.9
 11
123.987
 21
93.7047
 31
11.9
  0
LINE
  5
AEF
330
A02
100
AcDbEntity
  8
Mesh_cs
100
AcDbLine
 10
123.987
 20
93.7047
 30
11.9
 11
126.453
 21
105.572
 31
11.9
  0
LINE
  5
AF0
330
A02
100
AcDbEntity
  8
Mesh_cs
100
AcDbLine
 10
126.453
 20
105.572
 30
11.9
 11
126.727
 21
106.891
 31
11.9
  0
LINE
  5
AF1
330
A02
100
AcDbEntity
  8
Mesh_cs
100
AcDbLine
 10
126.727
 20
106.891
 30
11.9
 11
129.516
 21
118.687
 31
11.9
  0
LINE
  5
AF2
330
A02
100
AcDbEntity
  8
Mesh_cs
100
AcDbLine
 10
129.516
 20
118.687
 30
11.9
 11
129.826
 21
119.997
 31
11.9
  0
LINE
  5
AF3
330
A02
100
AcDbEntity
  8
Mesh_cs
100
AcDbLine
 10
129.826
 20
119.997
 30
11.9
 11
130.172
 21
121.299
 31
11.9
  0
LINE
  5
AF4
330
A02
100
AcDbEntity
  8
Mesh_cs
100
AcDbLine
 10
130.172
 20
121.299
 30
11.9
 11
133.282
 21
133.014
 31
11.9
  0
LINE
  5
AF5
330
A02
100
AcDbEntity
  8
Mesh_cs
100
AcDbLine
 10
133.282
 20
133.014
 30
11.9
 11
133.663
 21
134.306
 31
11.9
  0
LINE
  5
AF6
330
A02
100
AcDbEntity
  8
Mesh_cs
100
AcDbLine
 10
133.663
 20
134.306
 30
11.9
 11
137.093
 21
145.932
 31
11.9
  0
LINE
  5
AF7
330
A02
100
AcDbEntity
  8
Mesh_cs
100
AcDbLine
 10
137.093
 20
145.932
 30
11.9
 11
140.838
 21
157.46
 31
11.9
  0
LINE
  5
AF8
330
A02
100
AcDbEntity
  8
Mesh_cs
100
AcDbLine
 10
140.838
 20
157.46
 30
11.9
 11
141.255
 21
158.741
 31
11.9
  0
LINE
  5
AF9
330
A02
100
AcDbEntity
  8
Mesh_cs
100
AcDbLine
 10
141.255
 20
158.741
 30
11.9
 11
145.314
 21
170.162
 31
11.9
  0
LINE
  5
AFA
330
A02
100
AcDbEntity
  8
Mesh_cs
100
AcDbLine
 10
145.314
 20
170.162
 30
11.9
 11
145.765
 21
171.431
 31
11.9
  0
LINE
  5
AFB
330
A02
100
AcDbEntity
  8
Mesh_cs
100
AcDbLine
 10
145.765
 20
171.431
 30
11.9
 11
150.134
 21
182.737
 31
11.9
  0
LINE
  5
AFC
330
A02
100
AcDbEntity
  8
Mesh_cs
100
AcDbLine
 10
150.134
 20
182.737
 30
11.9
 11
150.62
 21
183.993
 31
11.9
  0
LINE
  5
AFD
330
A02
100
AcDbEntity
  8
Mesh_cs
100
AcDbLine
 10
150.62
 20
183.993
 30
11.9
 11
151.139
 21
185.236
 31
11.9
  0
LINE
  5
AFE
330
A02
100
AcDbEntity
  8
Mesh_cs
100
AcDbLine
 10
151.139
 20
185.236
 30
11.9
 11
155.816
 21
196.418
 31
11.9
  0
LINE
  5
AFF
330
A02
100
AcDbEntity
  8
Mesh_cs
100
AcDbLine
 10
155.816
 20
196.418
 30
11.9
 11
156.37
 21
197.646
 31
11.9
  0
LINE
  5
B00
330
A02
100
AcDbEntity
  8
Mesh_cs
100
AcDbLine
 10
156.37
 20
197.646
 30
11.9
 11
161.35
 21
208.697
 31
11.9
  0
LINE
  5
B01
330
A02
100
AcDbEntity
  8
Mesh_cs
100
AcDbLine
 10
161.35
 20
208.697
 30
11.9
 11
166.63
 21
219.607
 31
11.9
  0
LINE
  5
B02
330
A02
100
AcDbEntity
  8
Mesh_cs
100
AcDbLine
 10
166.63
 20
219.607
 30
11.9
 11
167.217
 21
220.82
 31
11.9
  0
LINE
  5
B03
330
A02
100
AcDbEntity
  8
Mesh_cs
100
AcDbLine
 10
167.217
 20
220.82
 30
11.9
 11
172.794
 21
231.582
 31
11.9
  0
LINE
  5
B04
330
A02
100
AcDbEntity
  8
Mesh_cs
100
AcDbLine
 10
172.794
 20
231.582
 30
11.9
 11
173.413
 21
232.778
 31
11.9
  0
LINE
  5
B05
330
A02
100
AcDbEntity
  8
Mesh_cs
100
AcDbLine
 10
173.413
 20
232.778
 30
11.9
 11
179.282
 21
243.383
 31
11.9
  0
LINE
  5
B06
330
A02
100
AcDbEntity
  8
Mesh_cs
100
AcDbLine
 10
179.282
 20
243.383
 30
11.9
 11
179.934
 21
244.562
 31
11.9
  0
LINE
  5
B07
330
A02
100
AcDbEntity
  8
Mesh_cs
100
AcDbLine
 10
179.934
 20
244.562
 30
11.9
 11
186.09
 21
255.003
 31
11.9
  0
LINE
  5
B08
330
A02
100
AcDbEntity
  8
Mesh_cs
100
AcDbLine
 10
186.09
 20
255.003
 30
11.9
 11
186.774
 21
256.164
 31
11.9
  0
LINE
  5
B09
330
A02
100
AcDbEntity
  8
Mesh_cs
100
AcDbLine
 10
186.774
 20
256.164
 30
11.9
 11
193.212
 21
266.433
 31
11.9
  0
LINE
  5
B0A
330
A02
100
AcDbEntity
  8
Mesh_cs
100
AcDbLine
 10
193.212
 20
266.433
 30
11.9
 11
193.928
 21
267.574
 31
11.9
  0
LINE
  5
B0B
330
A02
100
AcDbEntity
  8
Mesh_cs
100
AcDbLine
 10
193.928
 20
267.574
 30
11.9
 11
194.674
 21
268.695
 31
11.9
  0
LINE
  5
B0C
330
A02
100
AcDbEntity
  8
Mesh_cs
100
AcDbLine
 10
194.674
 20
268.695
 30
11.9
 11
201.391
 21
278.785
 31
11.9
  0
LINE
  5
B0D
330
A02
100
AcDbEntity
  8
Mesh_cs
100
AcDbLine
 10
201.391
 20
278.785
 30
11.9
 11
208.381
 21
288.688
 31
11.9
  0
LINE
  5
B0E
330
A02
100
AcDbEntity
  8
Mesh_cs
100
AcDbLine
 10
208.381
 20
288.688
 30
11.9
 11
209.158
 21
289.788
 31
11.9
  0
LINE
  5
B0F
330
A02
100
AcDbEntity
  8
Mesh_cs
100
AcDbLine
 10
209.158
 20
289.788
 30
11.9
 11
249.277
 21
260.64
 31
11.9
  0
LINE
  5
B10
330
A02
100
AcDbEntity
  8
Mesh_cs
100
AcDbLine
 10
249.277
 20
260.64
 30
11.9
 11
253.735
 21
257.401
 31
11.9
  0
LINE
  5
B11
330
A02
100
AcDbEntity
  8
Mesh_cs
100
AcDbLine
 10
253.735
 20
257.401
 30
11.9
 11
253.345
 21
256.864
 31
11.9
  0
LINE
  5
B12
330
A02
100
AcDbEntity
  8
Mesh_cs
100
AcDbLine
 10
253.345
 20
256.864
 30
11.9
 11
242.038
 21
241.301
 31
11.9
  0
LINE
  5
B13
330
A02
100
AcDbEntity
  8
Mesh_cs
100
AcDbLine
 10
242.038
 20
241.301
 30
11.9
 11
241.667
 21
240.704
 31
11.9
  0
LINE
  5
B14
330
A02
100
AcDbEntity
  8
Mesh_cs
100
AcDbLine
 10
241.667
 20
240.704
 30
11.9
 11
241.647
 21
240.669
 31
11.9
  0
LINE
  5
B15
330
A02
100
AcDbEntity
  8
Mesh_cs
100
AcDbLine
 10
241.647
 20
240.669
 30
11.9
 11
241.366
 21
240.022
 31
11.9
  0
LINE
  5
B16
330
A02
100
AcDbEntity
  8
Mesh_cs
100
AcDbLine
 10
241.366
 20
240.022
 30
11.9
 11
241.355
 21
239.981
 31
11.9
  0
LINE
  5
B17
330
A02
100
AcDbEntity
  8
Mesh_cs
100
AcDbLine
 10
241.355
 20
239.981
 30
11.9
 11
241.1
 21
238.774
 31
11.9
  0
LINE
  5
B18
330
A02
100
AcDbEntity
  8
Mesh_cs
100
AcDbLine
 10
241.1
 20
238.774
 30
11.9
 11
241.099
 21
238.734
 31
11.9
  0
LINE
  5
B19
330
A02
100
AcDbEntity
  8
Mesh_cs
100
AcDbLine
 10
241.099
 20
238.734
 30
11.9
 11
241.158
 21
237.501
 31
11.9
  0
LINE
  5
B1A
330
A02
100
AcDbEntity
  8
Mesh_cs
100
AcDbLine
 10
241.158
 20
237.501
 30
11.9
 11
241.166
 21
237.466
 31
11.9
  0
LINE
  5
B1B
330
A02
100
AcDbEntity
  8
Mesh_cs
100
AcDbLine
 10
241.166
 20
237.466
 30
11.9
 11
241.535
 21
236.288
 31
11.9
  0
LINE
  5
B1C
330
A02
100
AcDbEntity
  8
Mesh_cs
100
AcDbLine
 10
241.535
 20
236.288
 30
11.9
 11
241.549
 21
236.255
 31
11.9
  0
LINE
  5
B1D
330
A02
100
AcDbEntity
  8
Mesh_cs
100
AcDbLine
 10
241.549
 20
236.255
 30
11.9
 11
242.204
 21
235.21
 31
11.9
  0
LINE
  5
B1E
330
A02
100
AcDbEntity
  8
Mesh_cs
100
AcDbLine
 10
242.204
 20
235.21
 30
11.9
 11
242.224
 21
235.183
 31
11.9
  0
LINE
  5
B1F
330
A02
100
AcDbEntity
  8
Mesh_cs
100
AcDbLine
 10
242.224
 20
235.183
 30
11.9
 11
242.236
 21
235.171
 31
11.9
  0
LINE
  5
B20
330
A02
100
AcDbEntity
  8
Mesh_cs
100
AcDbLine
 10
242.236
 20
235.171
 30
11.9
 11
243.131
 21
234.328
 31
11.9
  0
LINE
  5
B21
330
A02
100
AcDbEntity
  8
Mesh_cs
100
AcDbLine
 10
243.131
 20
234.328
 30
11.9
 11
243.144
 21
234.317
 31
11.9
  0
LINE
  5
B22
330
A02
100
AcDbEntity
  8
Mesh_cs
100
AcDbLine
 10
243.144
 20
234.317
 30
11.9
 11
243.681
 21
233.928
 31
11.9
  0
LINE
  5
B23
330
A02
100
AcDbEntity
  8
Mesh_cs
100
AcDbLine
 10
180.597
 20
14.9
 30
11.9
 11
195
 21
14.9
 31
11.9
  0
LINE
  5
B24
330
A02
100
AcDbEntity
  8
Mesh_cs
100
AcDbLine
 10
195
 20
14.9
 30
11.9
 11
195
 21
0.496668
 31
11.9
  0
LINE
  5
B25
330
A02
100
AcDbEntity
  8
Mesh_cs
100
AcDbLine
 10
195
 20
0.496668
 30
11.9
 11
195
 21
-4.94049e-15
 31
11.9
  0
LINE
  5
B26
330
A02
100
AcDbEntity
  8
Mesh_cs
100
AcDbLine
 10
195
 20
-4.95833e-15
 30
11.9
 11
194.503
 21
-4.9e-15
 31
11.9
  0
LINE
  5
B27
330
A02
100
AcDbEntity
  8
Mesh_cs
100
AcDbLine
 10
194.503
 20
-4.9e-15
 30
11.9
 11
180.1
 21
-2.96667e-15
 31
11.9
  0
LINE
  5
B28
330
A02
100
AcDbEntity
  8
Mesh_cs
100
AcDbLine
 10
180.1
 20
-2.96667e-15
 30
11.9
 11
180.1
 21
14.4033
 31
11.9
  0
LINE
  5
B29
330
A02
100
AcDbEntity
  8
Mesh_cs
100
AcDbLine
 10
180.1
 20
14.4033
 30
11.9
 11
180.1
 21
14.9
 31
11.9
  0
LINE
  5
B2A
330
A02
100
AcDbEntity
  8
Mesh_cs
100
AcDbLine
 10
180.1
 20
14.9
 30
11.9
 11
180.597
 21
14.9
 31
11.9
  0
LINE
  5
B2B
330
A02
100
AcDbEntity
  8
Mesh_cs
100
AcDbLine
 10
253.067
 20
239.469
 30
11.9
 11
253.359
 21
239.871
 31
11.9
  0
LINE
  5
B2C
330
A02
100
AcDbEntity
  8
Mesh_cs
100
AcDbLine
 10
253.359
 20
239.871
 30
11.9
 11
261.825
 21
251.523
 31
11.9
  0
LINE
  5
B2D
330
A02
100
AcDbEntity
  8
Mesh_cs
100
AcDbLine
 10
261.825
 20
251.523
 30
11.9
 11
273.477
 21
243.057
 31
11.9
  0
LINE
  5
B2E
330
A02
100
AcDbEntity
  8
Mesh_cs
100
AcDbLine
 10
273.477
 20
243.057
 30
11.9
 11
273.879
 21
242.765
 31
11.9
  0
LINE
  5
B2F
330
A02
100
AcDbEntity
  8
Mesh_cs
100
AcDbLine
 10
273.879
 20
242.765
 30
11.9
 11
273.587
 21
242.363
 31
11.9
  0
LINE
  5
B30
330
A02
100
AcDbEntity
  8
Mesh_cs
100
AcDbLine
 10
273.587
 20
242.363
 30
11.9
 11
265.121
 21
230.711
 31
11.9
  0
LINE
  5
B31
330
A02
100
AcDbEntity
  8
Mesh_cs
100
AcDbLine
 10
265.121
 20
230.711
 30
11.9
 11
253.469
 21
239.177
 31
11.9
  0
LINE
  5
B32
330
A02
100
AcDbEntity
  8
Mesh_cs
100
AcDbLine
 10
253.469
 20
239.177
 30
11.9
 11
253.067
 21
239.469
 31
11.9
  0
LINE
  5
B33
330
A02
100
AcDbEntity
  8
Mesh_cs
100
AcDbLine
 10
107.907
 20
344.933
 30
11.9
 11
107.506
 21
345.225
 31
11.9
  0
LINE
  5
B34
330
A02
100
AcDbEntity
  8
Mesh_cs
100
AcDbLine
 10
107.506
 20
345.225
 30
11.9
 11
107.363
 21
345.329
 31
11.9
  0
LINE
  5
B35
330
A02
100
AcDbEntity
  8
Mesh_cs
100
AcDbLine
 10
107.363
 20
345.329
 30
11.9
 11
115.829
 21
356.981
 31
11.9
  0
LINE
  5
B36
330
A02
100
AcDbEntity
  8
Mesh_cs
100
AcDbLine
 10
115.829
 20
356.981
 30
11.9
 11
116.121
 21
357.383
 31
11.9
  0
LINE
  5
B37
330
A02
100
AcDbEntity
  8
Mesh_cs
100
AcDbLine
 10
116.121
 20
357.383
 30
11.9
 11
116.523
 21
357.091
 31
11.9
  0
LINE
  5
B38
330
A02
100
AcDbEntity
  8
Mesh_cs
100
AcDbLine
 10
116.523
 20
357.091
 30
11.9
 11
128.175
 21
348.625
 31
11.9
  0
LINE
  5
B39
330
A02
100
AcDbEntity
  8
Mesh_cs
100
AcDbLine
 10
128.175
 20
348.625
 30
11.9
 11
119.709
 21
336.973
 31
11.9
  0
LINE
  5
B3A
330
A02
100
AcDbEntity
  8
Mesh_cs
100
AcDbLine
 10
119.709
 20
336.973
 30
11.9
 11
119.417
 21
336.571
 31
11.9
  0
LINE
  5
B3B
330
A02
100
AcDbEntity
  8
Mesh_cs
100
AcDbLine
 10
119.417
 20
336.571
 30
11.9
 11
107.907
 21
344.933
 31
11.9
  0
ENDSEC
  0
SECTION
  2
OBJECTS
  0
DICTIONARY
  5
F000
330
0
100
AcDbDictionary
  3
ACAD_GROUP
350
F001
  0
DICTIONARY
  5
F001
330
F000
100
AcDbDictionary
  0
ENDSEC
  0
EOF