999
FreeCAD v0.21 33771 (Git)
  0
SECTION
  2
HEADER
  9
$ACADVER
  1
AC1014
  9
$ACADMAINTVER
 70
     9
  9
$DWGCODEPAGE
  3
ANSI_1252
  9
$TEXTSTYLE
  7
STANDARD
  9
$DIMSTYLE
  2
STANDARD
  9
$DIMTXSTY
  7
STANDARD
  9
$CMLSTYLE
  2
STANDARD
  9
$LUNITS
 70
2
  9
$INSUNITS
 70
4
  9
$PEXTMAX
 10
50
 20
50
 30
50
  9
$PEXTMIN
 10
0
 20
0
 30
0
  9
$HANDSEED
  5
FFFF
  0
ENDSEC
  0
SECTION
  2
CLASSES
  0
CLASS
  1
ACDBDICTIONARYWDFLT
  2
AcDbDictionaryWithDefault
  3
ObjectDBX Classes
 90
        0
280
     0
281
     0
  0
CLASS
  1
XRECORD
  2
AcDbXrecord
  3
ObjectDBX Classes
 90
        0
280
     0
281
     0
  0
CLASS
  1
LWPOLYLINE
  2
AcDbPolyline
  3
ObjectDBX Classes
 90
        0
280
     0
281
     1
  0
ENDSEC
  0
SECTION
  2
TABLES
  0
TABLE
  2
VPORT
  5
20
330
0
100
AcDbSymbolTable
 70
     1
  0
VPORT
  5
21
330
20
100
AcDbSymbolTableRecord
100
AcDbViewportTableRecord
  2
*ACTIVE
 70
     0
  0
ENDTAB
  0
TABLE
  2
LTYPE
  5
22
330
0
100
AcDbSymbolTable
 70
     1
  0
LTYPE
  5
23
330
21
100
AcDbSymbolTableRecord
100
AcDbLinetypeTableRecord
  2
BYBLOCK
 70
     0
  3

 72
    65
 73
     0
 40
0.0
  0
LTYPE
  5
24
330
21
100
AcDbSymbolTableRecord
100
AcDbLinetypeTableRecord
  2
BYLAYER
 70
     0
  3

 72
    65
 73
     0
 40
0.0
  0
LTYPE
  5
25
330
21
100
AcDbSymbolTableRecord
100
AcDbLinetypeTableRecord
  2
CONTINUOUS
 70
     0
  3
Solid line
 72
    65
 73
     0
 40
0.0
  0
ENDTAB
  0
TABLE
  2
LAYER
  5
B0E
330
0
100
AcDbSymbolTable
 70
3
  0
LAYER
  5
B0F
330
B0E
100
AcDbSymbolTableRecord
100
AcDbLayerTableRecord
  2
0
 70
   0
 62
   7
  6
CONTINUOUS
  0
LAYER
  5
B10
330
B0E
100
AcDbSymbolTableRecord
100
AcDbLayerTableRecord
  2
none
 70
    0
 62
    7
  6
CONTINUOUS
  0
LAYER
  5
B11
330
B0E
100
AcDbSymbolTableRecord
100
AcDbLayerTableRecord
  2
Mesh_cs003
 70
    0
 62
    7
  6
CONTINUOUS
  0
ENDTAB
  0
TABLE
  2
STYLE
  5
70
330
0
100
AcDbSymbolTable
 70
     2
  0
STYLE
  5
71
330
70
100
AcDbSymbolTableRecord
100
AcDbTextStyleTableRecord
  2
STANDARD
 70
     0
 40
0.0
 41
1.0
 50
0.0
 71
     0
 42
2.5
  3
arial.ttf
  4

  0
STYLE
  5
72
330
70
100
AcDbSymbolTableRecord
100
AcDbTextStyleTableRecord
  2
ANNOTATIVE
 70
     0
 40
0.0
 41
1.0
 50
0.0
 71
     0
 42
2.5
  3
arial.ttf
  4

  0
ENDTAB
  0
TABLE
  2
VIEW
  5
73
330
0
100
AcDbSymbolTable
 70
     0
  0
ENDTAB
  0
TABLE
  2
UCS
  5
74
330
0
100
AcDbSymbolTable
 70
     0
  0
ENDTAB
  0
TABLE
  2
APPID
  5
75
330
0
100
AcDbSymbolTable
 70
     2
  0
APPID
  5
76
330
75
100
AcDbSymbolTableRecord
100
AcDbRegAppTableRecord
  2
ACAD
 70
     0
  0
APPID
  5
77
330
75
100
AcDbSymbolTableRecord
100
AcDbRegAppTableRecord
  2
ACADANNOTATIVE
 70
     0
  0
ENDTAB
  0
TABLE
  2
DIMSTYLE
  5
78
330
0
100
AcDbSymbolTable
 70
     2
  0
DIMSTYLE
105
79
330
78
100
AcDbSymbolTableRecord
100
AcDbDimStyleTableRecord
  2
STANDARD
 70
     0
  3

  4

  5

  6

  7

 40
0.0
 41
2.5
 42
0.625
 43
3.75
 44
1.25
 45
0.0
 46
0.0
 47
0.0
 48
0.0
140
2.5
141
2.5
142
0.0
143
0.03937007874016
144
1.0
145
0.0
146
1.0
147
0.625
 71
     0
 72
     0
 73
     0
 74
     0
 75
     0
 76
     0
 77
     1
 78
     8
170
     0
171
     3
172
     1
173
     0
174
     0
175
     0
176
     0
177
     0
178
     0
270
     2
271
     2
272
     2
273
     2
274
     3
340
71
275
     0
280
     0
281
     0
282
     0
283
     0
284
     8
285
     0
286
     0
287
     3
288
     0
  0
ENDTAB
  0
TABLE
  2
BLOCK_RECORD
  5
A01
330
0
100
AcDbSymbolTable
  70
5
  0
BLOCK_RECORD
  5
A02
330
A01
100
AcDbSymbolTableRecord
100
AcDbBlockTableRecord
  2
*MODEL_SPACE
  0
BLOCK_RECORD
  5
A03
330
A01
100
AcDbSymbolTableRecord
100
AcDbBlockTableRecord
  2
*PAPER_SPACE
  0
ENDTAB
  0
ENDSEC
  0
SECTION
  2
BLOCKS
  0
BLOCK
  5
A04
330
A02
100
AcDbEntity
  8
0
100
AcDbBlockBegin
  2
*MODEL_SPACE
 70
   0
 10
0
 20
0
 30
0
  3
*MODEL_SPACE
  1
 
  0
ENDBLK
  5
A05
330
A02
100
AcDbEntity
  8
0
100
AcDbBlockEnd
  0
BLOCK
  5
A06
330
A03
100
AcDbEntity
 67
1
  8
0
100
AcDbBlockBegin
  2
*PAPER_SPACE
 70
   0
 10
0
 20
0
 30
0
  3
*PAPER_SPACE
  1
 
  0
ENDBLK
  5
A07
330
A03
100
AcDbEntity
 67
    1
  8
0
100
AcDbBlockEnd
  0
ENDSEC
  0
SECTION
  2
ENTITIES
  0
LINE
  5
A08
330
A02
100
AcDbEntity
  8
Mesh_cs003
100
AcDbLine
 10
293.585
 20
267.797
 30
0.0999999
 11
296.169
 21
270.803
 31
0.0999999
  0
LINE
  5
A09
330
A02
100
AcDbEntity
  8
Mesh_cs003
100
AcDbLine
 10
296.169
 20
270.803
 30
0.0999999
 11
296.191
 21
270.828
 31
0.0999999
  0
LINE
  5
A0A
330
A02
100
AcDbEntity
  8
Mesh_cs003
100
AcDbLine
 10
296.191
 20
270.828
 30
0.0999999
 11
298.805
 21
273.808
 31
0.0999999
  0
LINE
  5
A0B
330
A02
100
AcDbEntity
  8
Mesh_cs003
100
AcDbLine
 10
298.805
 20
273.808
 30
0.0999999
 11
298.827
 21
273.832
 31
0.0999999
  0
LINE
  5
A0C
330
A02
100
AcDbEntity
  8
Mesh_cs003
100
AcDbLine
 10
298.827
 20
273.832
 30
0.0999999
 11
301.469
 21
276.787
 31
0.0999999
  0
LINE
  5
A0D
330
A02
100
AcDbEntity
  8
Mesh_cs003
100
AcDbLine
 10
301.469
 20
276.787
 30
0.0999999
 11
301.491
 21
276.812
 31
0.0999999
  0
LINE
  5
A0E
330
A02
100
AcDbEntity
  8
Mesh_cs003
100
AcDbLine
 10
301.491
 20
276.812
 30
0.0999999
 11
304.161
 21
279.74
 31
0.0999999
  0
LINE
  5
A0F
330
A02
100
AcDbEntity
  8
Mesh_cs003
100
AcDbLine
 10
304.161
 20
279.74
 30
0.0999999
 11
304.184
 21
279.765
 31
0.0999999
  0
LINE
  5
A10
330
A02
100
AcDbEntity
  8
Mesh_cs003
100
AcDbLine
 10
304.184
 20
279.765
 30
0.0999999
 11
306.883
 21
282.668
 31
0.0999999
  0
LINE
  5
A11
330
A02
100
AcDbEntity
  8
Mesh_cs003
100
AcDbLine
 10
306.883
 20
282.668
 30
0.0999999
 11
306.905
 21
282.692
 31
0.0999999
  0
LINE
  5
A12
330
A02
100
AcDbEntity
  8
Mesh_cs003
100
AcDbLine
 10
306.905
 20
282.692
 30
0.0999999
 11
309.632
 21
285.568
 31
0.0999999
  0
LINE
  5
A13
330
A02
100
AcDbEntity
  8
Mesh_cs003
100
AcDbLine
 10
309.632
 20
285.568
 30
0.0999999
 11
309.655
 21
285.592
 31
0.0999999
  0
LINE
  5
A14
330
A02
100
AcDbEntity
  8
Mesh_cs003
100
AcDbLine
 10
309.655
 20
285.592
 30
0.0999999
 11
312.409
 21
288.442
 31
0.0999999
  0
LINE
  5
A15
330
A02
100
AcDbEntity
  8
Mesh_cs003
100
AcDbLine
 10
312.409
 20
288.442
 30
0.0999999
 11
312.433
 21
288.466
 31
0.0999999
  0
LINE
  5
A16
330
A02
100
AcDbEntity
  8
Mesh_cs003
100
AcDbLine
 10
312.433
 20
288.466
 30
0.0999999
 11
315.214
 21
291.289
 31
0.0999999
  0
LINE
  5
A17
330
A02
100
AcDbEntity
  8
Mesh_cs003
100
AcDbLine
 10
315.214
 20
291.289
 30
0.0999999
 11
315.238
 21
291.313
 31
0.0999999
  0
LINE
  5
A18
330
A02
100
AcDbEntity
  8
Mesh_cs003
100
AcDbLine
 10
315.238
 20
291.313
 30
0.0999999
 11
318.047
 21
294.109
 31
0.0999999
  0
LINE
  5
A19
330
A02
100
AcDbEntity
  8
Mesh_cs003
100
AcDbLine
 10
318.047
 20
294.109
 30
0.0999999
 11
318.071
 21
294.132
 31
0.0999999
  0
LINE
  5
A1A
330
A02
100
AcDbEntity
  8
Mesh_cs003
100
AcDbLine
 10
318.071
 20
294.132
 30
0.0999999
 11
320.906
 21
296.901
 31
0.0999999
  0
LINE
  5
A1B
330
A02
100
AcDbEntity
  8
Mesh_cs003
100
AcDbLine
 10
320.906
 20
296.901
 30
0.0999999
 11
320.93
 21
296.924
 31
0.0999999
  0
LINE
  5
A1C
330
A02
100
AcDbEntity
  8
Mesh_cs003
100
AcDbLine
 10
320.93
 20
296.924
 30
0.0999999
 11
323.793
 21
299.666
 31
0.0999999
  0
LINE
  5
A1D
330
A02
100
AcDbEntity
  8
Mesh_cs003
100
AcDbLine
 10
323.793
 20
299.666
 30
0.0999999
 11
323.817
 21
299.689
 31
0.0999999
  0
LINE
  5
A1E
330
A02
100
AcDbEntity
  8
Mesh_cs003
100
AcDbLine
 10
323.817
 20
299.689
 30
0.0999999
 11
326.706
 21
302.402
 31
0.0999999
  0
LINE
  5
A1F
330
A02
100
AcDbEntity
  8
Mesh_cs003
100
AcDbLine
 10
326.706
 20
302.402
 30
0.0999999
 11
326.731
 21
302.425
 31
0.0999999
  0
LINE
  5
A20
330
A02
100
AcDbEntity
  8
Mesh_cs003
100
AcDbLine
 10
326.731
 20
302.425
 30
0.0999999
 11
329.645
 21
305.11
 31
0.0999999
  0
LINE
  5
A21
330
A02
100
AcDbEntity
  8
Mesh_cs003
100
AcDbLine
 10
329.645
 20
305.11
 30
0.0999999
 11
329.67
 21
305.133
 31
0.0999999
  0
LINE
  5
A22
330
A02
100
AcDbEntity
  8
Mesh_cs003
100
AcDbLine
 10
329.67
 20
305.133
 30
0.0999999
 11
332.611
 21
307.79
 31
0.0999999
  0
LINE
  5
A23
330
A02
100
AcDbEntity
  8
Mesh_cs003
100
AcDbLine
 10
332.611
 20
307.79
 30
0.0999999
 11
335.577
 21
310.418
 31
0.0999999
  0
LINE
  5
A24
330
A02
100
AcDbEntity
  8
Mesh_cs003
100
AcDbLine
 10
335.577
 20
310.418
 30
0.0999999
 11
335.602
 21
310.44
 31
0.0999999
  0
LINE
  5
A25
330
A02
100
AcDbEntity
  8
Mesh_cs003
100
AcDbLine
 10
335.602
 20
310.44
 30
0.0999999
 11
335.627
 21
310.462
 31
0.0999999
  0
LINE
  5
A26
330
A02
100
AcDbEntity
  8
Mesh_cs003
100
AcDbLine
 10
335.627
 20
310.462
 30
0.0999999
 11
338.619
 21
313.062
 31
0.0999999
  0
LINE
  5
A27
330
A02
100
AcDbEntity
  8
Mesh_cs003
100
AcDbLine
 10
338.619
 20
313.062
 30
0.0999999
 11
338.645
 21
313.083
 31
0.0999999
  0
LINE
  5
A28
330
A02
100
AcDbEntity
  8
Mesh_cs003
100
AcDbLine
 10
338.645
 20
313.083
 30
0.0999999
 11
341.661
 21
315.654
 31
0.0999999
  0
LINE
  5
A29
330
A02
100
AcDbEntity
  8
Mesh_cs003
100
AcDbLine
 10
341.661
 20
315.654
 30
0.0999999
 11
344.703
 21
318.195
 31
0.0999999
  0
LINE
  5
A2A
330
A02
100
AcDbEntity
  8
Mesh_cs003
100
AcDbLine
 10
344.703
 20
318.195
 30
0.0999999
 11
344.728
 21
318.217
 31
0.0999999
  0
LINE
  5
A2B
330
A02
100
AcDbEntity
  8
Mesh_cs003
100
AcDbLine
 10
344.728
 20
318.217
 30
0.0999999
 11
344.754
 21
318.238
 31
0.0999999
  0
LINE
  5
A2C
330
A02
100
AcDbEntity
  8
Mesh_cs003
100
AcDbLine
 10
344.754
 20
318.238
 30
0.0999999
 11
347.82
 21
320.75
 31
0.0999999
  0
LINE
  5
A2D
330
A02
100
AcDbEntity
  8
Mesh_cs003
100
AcDbLine
 10
347.82
 20
320.75
 30
0.0999999
 11
347.846
 21
320.771
 31
0.0999999
  0
LINE
  5
A2E
330
A02
100
AcDbEntity
  8
Mesh_cs003
100
AcDbLine
 10
347.846
 20
320.771
 30
0.0999999
 11
350.936
 21
323.253
 31
0.0999999
  0
LINE
  5
A2F
330
A02
100
AcDbEntity
  8
Mesh_cs003
100
AcDbLine
 10
350.936
 20
323.253
 30
0.0999999
 11
354.05
 21
325.705
 31
0.0999999
  0
LINE
  5
A30
330
A02
100
AcDbEntity
  8
Mesh_cs003
100
AcDbLine
 10
354.05
 20
325.705
 30
0.0999999
 11
354.076
 21
325.725
 31
0.0999999
  0
LINE
  5
A31
330
A02
100
AcDbEntity
  8
Mesh_cs003
100
AcDbLine
 10
354.076
 20
325.725
 30
0.0999999
 11
354.102
 21
325.745
 31
0.0999999
  0
LINE
  5
A32
330
A02
100
AcDbEntity
  8
Mesh_cs003
100
AcDbLine
 10
354.102
 20
325.745
 30
0.0999999
 11
357.24
 21
328.167
 31
0.0999999
  0
LINE
  5
A33
330
A02
100
AcDbEntity
  8
Mesh_cs003
100
AcDbLine
 10
357.24
 20
328.167
 30
0.0999999
 11
357.266
 21
328.187
 31
0.0999999
  0
LINE
  5
A34
330
A02
100
AcDbEntity
  8
Mesh_cs003
100
AcDbLine
 10
357.266
 20
328.187
 30
0.0999999
 11
360.427
 21
330.579
 31
0.0999999
  0
LINE
  5
A35
330
A02
100
AcDbEntity
  8
Mesh_cs003
100
AcDbLine
 10
360.427
 20
330.579
 30
0.0999999
 11
360.454
 21
330.598
 31
0.0999999
  0
LINE
  5
A36
330
A02
100
AcDbEntity
  8
Mesh_cs003
100
AcDbLine
 10
360.454
 20
330.598
 30
0.0999999
 11
363.638
 21
332.959
 31
0.0999999
  0
LINE
  5
A37
330
A02
100
AcDbEntity
  8
Mesh_cs003
100
AcDbLine
 10
363.638
 20
332.959
 30
0.0999999
 11
363.665
 21
332.979
 31
0.0999999
  0
LINE
  5
A38
330
A02
100
AcDbEntity
  8
Mesh_cs003
100
AcDbLine
 10
363.665
 20
332.979
 30
0.0999999
 11
366.871
 21
335.308
 31
0.0999999
  0
LINE
  5
A39
330
A02
100
AcDbEntity
  8
Mesh_cs003
100
AcDbLine
 10
366.871
 20
335.308
 30
0.0999999
 11
366.898
 21
335.327
 31
0.0999999
  0
LINE
  5
A3A
330
A02
100
AcDbEntity
  8
Mesh_cs003
100
AcDbLine
 10
366.898
 20
335.327
 30
0.0999999
 11
370.127
 21
337.626
 31
0.0999999
  0
LINE
  5
A3B
330
A02
100
AcDbEntity
  8
Mesh_cs003
100
AcDbLine
 10
370.127
 20
337.626
 30
0.0999999
 11
370.154
 21
337.645
 31
0.0999999
  0
LINE
  5
A3C
330
A02
100
AcDbEntity
  8
Mesh_cs003
100
AcDbLine
 10
370.154
 20
337.645
 30
0.0999999
 11
373.405
 21
339.912
 31
0.0999999
  0
LINE
  5
A3D
330
A02
100
AcDbEntity
  8
Mesh_cs003
100
AcDbLine
 10
373.405
 20
339.912
 30
0.0999999
 11
373.433
 21
339.931
 31
0.0999999
  0
LINE
  5
A3E
330
A02
100
AcDbEntity
  8
Mesh_cs003
100
AcDbLine
 10
373.433
 20
339.931
 30
0.0999999
 11
376.706
 21
342.167
 31
0.0999999
  0
LINE
  5
A3F
330
A02
100
AcDbEntity
  8
Mesh_cs003
100
AcDbLine
 10
376.706
 20
342.167
 30
0.0999999
 11
376.733
 21
342.185
 31
0.0999999
  0
LINE
  5
A40
330
A02
100
AcDbEntity
  8
Mesh_cs003
100
AcDbLine
 10
376.733
 20
342.185
 30
0.0999999
 11
380.028
 21
344.389
 31
0.0999999
  0
LINE
  5
A41
330
A02
100
AcDbEntity
  8
Mesh_cs003
100
AcDbLine
 10
380.028
 20
344.389
 30
0.0999999
 11
383.343
 21
346.561
 31
0.0999999
  0
LINE
  5
A42
330
A02
100
AcDbEntity
  8
Mesh_cs003
100
AcDbLine
 10
383.343
 20
346.561
 30
0.0999999
 11
383.371
 21
346.579
 31
0.0999999
  0
LINE
  5
A43
330
A02
100
AcDbEntity
  8
Mesh_cs003
100
AcDbLine
 10
383.371
 20
346.579
 30
0.0999999
 11
386.707
 21
348.719
 31
0.0999999
  0
LINE
  5
A44
330
A02
100
AcDbEntity
  8
Mesh_cs003
100
AcDbLine
 10
386.707
 20
348.719
 30
0.0999999
 11
386.735
 21
348.737
 31
0.0999999
  0
LINE
  5
A45
330
A02
100
AcDbEntity
  8
Mesh_cs003
100
AcDbLine
 10
386.735
 20
348.737
 30
0.0999999
 11
386.763
 21
348.754
 31
0.0999999
  0
LINE
  5
A46
330
A02
100
AcDbEntity
  8
Mesh_cs003
100
AcDbLine
 10
386.763
 20
348.754
 30
0.0999999
 11
390.12
 21
350.862
 31
0.0999999
  0
LINE
  5
A47
330
A02
100
AcDbEntity
  8
Mesh_cs003
100
AcDbLine
 10
390.12
 20
350.862
 30
0.0999999
 11
393.497
 21
352.936
 31
0.0999999
  0
LINE
  5
A48
330
A02
100
AcDbEntity
  8
Mesh_cs003
100
AcDbLine
 10
393.497
 20
352.936
 30
0.0999999
 11
393.526
 21
352.954
 31
0.0999999
  0
LINE
  5
A49
330
A02
100
AcDbEntity
  8
Mesh_cs003
100
AcDbLine
 10
393.526
 20
352.954
 30
0.0999999
 11
396.922
 21
354.996
 31
0.0999999
  0
LINE
  5
A4A
330
A02
100
AcDbEntity
  8
Mesh_cs003
100
AcDbLine
 10
396.922
 20
354.996
 30
0.0999999
 11
396.951
 21
355.013
 31
0.0999999
  0
LINE
  5
A4B
330
A02
100
AcDbEntity
  8
Mesh_cs003
100
AcDbLine
 10
396.951
 20
355.013
 30
0.0999999
 11
396.98
 21
355.03
 31
0.0999999
  0
LINE
  5
A4C
330
A02
100
AcDbEntity
  8
Mesh_cs003
100
AcDbLine
 10
396.98
 20
355.03
 30
0.0999999
 11
400.396
 21
357.039
 31
0.0999999
  0
LINE
  5
A4D
330
A02
100
AcDbEntity
  8
Mesh_cs003
100
AcDbLine
 10
400.396
 20
357.039
 30
0.0999999
 11
403.832
 21
359.014
 31
0.0999999
  0
LINE
  5
A4E
330
A02
100
AcDbEntity
  8
Mesh_cs003
100
AcDbLine
 10
403.832
 20
359.014
 30
0.0999999
 11
403.861
 21
359.031
 31
0.0999999
  0
LINE
  5
A4F
330
A02
100
AcDbEntity
  8
Mesh_cs003
100
AcDbLine
 10
403.861
 20
359.031
 30
0.0999999
 11
407.316
 21
360.973
 31
0.0999999
  0
LINE
  5
A50
330
A02
100
AcDbEntity
  8
Mesh_cs003
100
AcDbLine
 10
407.316
 20
360.973
 30
0.0999999
 11
407.345
 21
360.99
 31
0.0999999
  0
LINE
  5
A51
330
A02
100
AcDbEntity
  8
Mesh_cs003
100
AcDbLine
 10
407.345
 20
360.99
 30
0.0999999
 11
407.374
 21
361.006
 31
0.0999999
  0
LINE
  5
A52
330
A02
100
AcDbEntity
  8
Mesh_cs003
100
AcDbLine
 10
407.374
 20
361.006
 30
0.0999999
 11
410.847
 21
362.915
 31
0.0999999
  0
LINE
  5
A53
330
A02
100
AcDbEntity
  8
Mesh_cs003
100
AcDbLine
 10
410.847
 20
362.915
 30
0.0999999
 11
410.877
 21
362.93
 31
0.0999999
  0
LINE
  5
A54
330
A02
100
AcDbEntity
  8
Mesh_cs003
100
AcDbLine
 10
410.877
 20
362.93
 30
0.0999999
 11
414.368
 21
364.806
 31
0.0999999
  0
LINE
  5
A55
330
A02
100
AcDbEntity
  8
Mesh_cs003
100
AcDbLine
 10
414.368
 20
364.806
 30
0.0999999
 11
414.398
 21
364.821
 31
0.0999999
  0
LINE
  5
A56
330
A02
100
AcDbEntity
  8
Mesh_cs003
100
AcDbLine
 10
414.398
 20
364.821
 30
0.0999999
 11
417.908
 21
366.662
 31
0.0999999
  0
LINE
  5
A57
330
A02
100
AcDbEntity
  8
Mesh_cs003
100
AcDbLine
 10
417.908
 20
366.662
 30
0.0999999
 11
417.937
 21
366.678
 31
0.0999999
  0
LINE
  5
A58
330
A02
100
AcDbEntity
  8
Mesh_cs003
100
AcDbLine
 10
417.937
 20
366.678
 30
0.0999999
 11
421.465
 21
368.485
 31
0.0999999
  0
LINE
  5
A59
330
A02
100
AcDbEntity
  8
Mesh_cs003
100
AcDbLine
 10
421.465
 20
368.485
 30
0.0999999
 11
421.495
 21
368.5
 31
0.0999999
  0
LINE
  5
A5A
330
A02
100
AcDbEntity
  8
Mesh_cs003
100
AcDbLine
 10
421.495
 20
368.5
 30
0.0999999
 11
425.039
 21
370.273
 31
0.0999999
  0
LINE
  5
A5B
330
A02
100
AcDbEntity
  8
Mesh_cs003
100
AcDbLine
 10
425.039
 20
370.273
 30
0.0999999
 11
425.069
 21
370.288
 31
0.0999999
  0
LINE
  5
A5C
330
A02
100
AcDbEntity
  8
Mesh_cs003
100
AcDbLine
 10
425.069
 20
370.288
 30
0.0999999
 11
428.631
 21
372.026
 31
0.0999999
  0
LINE
  5
A5D
330
A02
100
AcDbEntity
  8
Mesh_cs003
100
AcDbLine
 10
428.631
 20
372.026
 30
0.0999999
 11
428.661
 21
372.041
 31
0.0999999
  0
LINE
  5
A5E
330
A02
100
AcDbEntity
  8
Mesh_cs003
100
AcDbLine
 10
428.661
 20
372.041
 30
0.0999999
 11
432.239
 21
373.745
 31
0.0999999
  0
LINE
  5
A5F
330
A02
100
AcDbEntity
  8
Mesh_cs003
100
AcDbLine
 10
432.239
 20
373.745
 30
0.0999999
 11
432.27
 21
373.759
 31
0.0999999
  0
LINE
  5
A60
330
A02
100
AcDbEntity
  8
Mesh_cs003
100
AcDbLine
 10
432.27
 20
373.759
 30
0.0999999
 11
435.864
 21
375.428
 31
0.0999999
  0
LINE
  5
A61
330
A02
100
AcDbEntity
  8
Mesh_cs003
100
AcDbLine
 10
435.864
 20
375.428
 30
0.0999999
 11
435.895
 21
375.442
 31
0.0999999
  0
LINE
  5
A62
330
A02
100
AcDbEntity
  8
Mesh_cs003
100
AcDbLine
 10
435.895
 20
375.442
 30
0.0999999
 11
439.505
 21
377.076
 31
0.0999999
  0
LINE
  5
A63
330
A02
100
AcDbEntity
  8
Mesh_cs003
100
AcDbLine
 10
439.505
 20
377.076
 30
0.0999999
 11
443.131
 21
378.676
 31
0.0999999
  0
LINE
  5
A64
330
A02
100
AcDbEntity
  8
Mesh_cs003
100
AcDbLine
 10
443.131
 20
378.676
 30
0.0999999
 11
443.162
 21
378.689
 31
0.0999999
  0
LINE
  5
A65
330
A02
100
AcDbEntity
  8
Mesh_cs003
100
AcDbLine
 10
443.162
 20
378.689
 30
0.0999999
 11
443.193
 21
378.703
 31
0.0999999
  0
LINE
  5
A66
330
A02
100
AcDbEntity
  8
Mesh_cs003
100
AcDbLine
 10
443.193
 20
378.703
 30
0.0999999
 11
446.834
 21
380.267
 31
0.0999999
  0
LINE
  5
A67
330
A02
100
AcDbEntity
  8
Mesh_cs003
100
AcDbLine
 10
446.834
 20
380.267
 30
0.0999999
 11
446.865
 21
380.28
 31
0.0999999
  0
LINE
  5
A68
330
A02
100
AcDbEntity
  8
Mesh_cs003
100
AcDbLine
 10
446.865
 20
380.28
 30
0.0999999
 11
450.521
 21
381.809
 31
0.0999999
  0
LINE
  5
A69
330
A02
100
AcDbEntity
  8
Mesh_cs003
100
AcDbLine
 10
450.521
 20
381.809
 30
0.0999999
 11
450.552
 21
381.821
 31
0.0999999
  0
LINE
  5
A6A
330
A02
100
AcDbEntity
  8
Mesh_cs003
100
AcDbLine
 10
450.552
 20
381.821
 30
0.0999999
 11
454.227
 21
383.319
 31
0.0999999
  0
LINE
  5
A6B
330
A02
100
AcDbEntity
  8
Mesh_cs003
100
AcDbLine
 10
454.227
 20
383.319
 30
0.0999999
 11
454.233
 21
383.326
 31
0.1
  0
LINE
  5
A6C
330
A02
100
AcDbEntity
  8
Mesh_cs003
100
AcDbLine
 10
454.233
 20
383.326
 30
0.1
 11
454.247
 21
383.344
 31
0.1
  0
LINE
  5
A6D
330
A02
100
AcDbEntity
  8
Mesh_cs003
100
AcDbLine
 10
454.247
 20
383.344
 30
0.1
 11
454.253
 21
383.351
 31
0.1
  0
LINE
  5
A6E
330
A02
100
AcDbEntity
  8
Mesh_cs003
100
AcDbLine
 10
454.253
 20
383.351
 30
0.1
 11
454.409
 21
383.551
 31
0.1
  0
LINE
  5
A6F
330
A02
100
AcDbEntity
  8
Mesh_cs003
100
AcDbLine
 10
454.409
 20
383.551
 30
0.1
 11
454.575
 21
383.742
 31
0.1
  0
LINE
  5
A70
330
A02
100
AcDbEntity
  8
Mesh_cs003
100
AcDbLine
 10
454.575
 20
383.742
 30
0.1
 11
454.652
 21
383.818
 31
0.1
  0
LINE
  5
A71
330
A02
100
AcDbEntity
  8
Mesh_cs003
100
AcDbLine
 10
454.652
 20
383.818
 30
0.1
 11
454.684
 21
383.849
 31
0.1
  0
LINE
  5
A72
330
A02
100
AcDbEntity
  8
Mesh_cs003
100
AcDbLine
 10
454.684
 20
383.849
 30
0.1
 11
454.907
 21
384.069
 31
0.1
  0
LINE
  5
A73
330
A02
100
AcDbEntity
  8
Mesh_cs003
100
AcDbLine
 10
454.907
 20
384.069
 30
0.1
 11
454.975
 21
384.126
 31
0.1
  0
LINE
  5
A74
330
A02
100
AcDbEntity
  8
Mesh_cs003
100
AcDbLine
 10
454.975
 20
384.126
 30
0.1
 11
455.216
 21
384.326
 31
0.1
  0
LINE
  5
A75
330
A02
100
AcDbEntity
  8
Mesh_cs003
100
AcDbLine
 10
455.216
 20
384.326
 30
0.1
 11
455.274
 21
384.369
 31
0.1
  0
LINE
  5
A76
330
A02
100
AcDbEntity
  8
Mesh_cs003
100
AcDbLine
 10
455.274
 20
384.369
 30
0.1
 11
455.416
 21
384.463
 31
0.1
  0
LINE
  5
A77
330
A02
100
AcDbEntity
  8
Mesh_cs003
100
AcDbLine
 10
455.416
 20
384.463
 30
0.1
 11
455.637
 21
384.614
 31
0.1
  0
LINE
  5
A78
330
A02
100
AcDbEntity
  8
Mesh_cs003
100
AcDbLine
 10
455.637
 20
384.614
 30
0.1
 11
455.847
 21
384.733
 31
0.1
  0
LINE
  5
A79
330
A02
100
AcDbEntity
  8
Mesh_cs003
100
AcDbLine
 10
455.847
 20
384.733
 30
0.1
 11
455.953
 21
384.793
 31
0.1
  0
LINE
  5
A7A
330
A02
100
AcDbEntity
  8
Mesh_cs003
100
AcDbLine
 10
455.953
 20
384.793
 30
0.1
 11
456.002
 21
384.817
 31
0.1
  0
LINE
  5
A7B
330
A02
100
AcDbEntity
  8
Mesh_cs003
100
AcDbLine
 10
456.002
 20
384.817
 30
0.1
 11
456.294
 21
384.953
 31
0.1
  0
LINE
  5
A7C
330
A02
100
AcDbEntity
  8
Mesh_cs003
100
AcDbLine
 10
456.294
 20
384.953
 30
0.1
 11
456.343
 21
384.974
 31
0.1
  0
LINE
  5
A7D
330
A02
100
AcDbEntity
  8
Mesh_cs003
100
AcDbLine
 10
456.343
 20
384.974
 30
0.1
 11
456.62
 21
385.076
 31
0.1
  0
LINE
  5
A7E
330
A02
100
AcDbEntity
  8
Mesh_cs003
100
AcDbLine
 10
456.62
 20
385.076
 30
0.1
 11
456.669
 21
385.093
 31
0.1
  0
LINE
  5
A7F
330
A02
100
AcDbEntity
  8
Mesh_cs003
100
AcDbLine
 10
456.669
 20
385.093
 30
0.1
 11
456.706
 21
385.108
 31
0.0999999
  0
LINE
  5
A80
330
A02
100
AcDbEntity
  8
Mesh_cs003
100
AcDbLine
 10
456.706
 20
385.108
 30
0.0999999
 11
456.812
 21
385.142
 31
0.0999999
  0
LINE
  5
A81
330
A02
100
AcDbEntity
  8
Mesh_cs003
100
AcDbLine
 10
456.812
 20
385.142
 30
0.0999999
 11
480.23
 21
392.751
 31
0.0999999
  0
LINE
  5
A82
330
A02
100
AcDbEntity
  8
Mesh_cs003
100
AcDbLine
 10
480.23
 20
392.751
 30
0.0999999
 11
480.387
 21
392.802
 31
0.0999999
  0
LINE
  5
A83
330
A02
100
AcDbEntity
  8
Mesh_cs003
100
AcDbLine
 10
480.387
 20
392.802
 30
0.0999999
 11
480.336
 21
392.96
 31
0.0999999
  0
LINE
  5
A84
330
A02
100
AcDbEntity
  8
Mesh_cs003
100
AcDbLine
 10
480.336
 20
392.96
 30
0.0999999
 11
480.302
 21
393.065
 31
0.0999999
  0
LINE
  5
A85
330
A02
100
AcDbEntity
  8
Mesh_cs003
100
AcDbLine
 10
480.302
 20
393.065
 30
0.0999999
 11
480.163
 21
393.494
 31
0.0999999
  0
LINE
  5
A86
330
A02
100
AcDbEntity
  8
Mesh_cs003
100
AcDbLine
 10
480.163
 20
393.494
 30
0.0999999
 11
480.064
 21
393.796
 31
0.0999999
  0
LINE
  5
A87
330
A02
100
AcDbEntity
  8
Mesh_cs003
100
AcDbLine
 10
480.064
 20
393.796
 30
0.0999999
 11
479.803
 21
394.6
 31
0.0999999
  0
LINE
  5
A88
330
A02
100
AcDbEntity
  8
Mesh_cs003
100
AcDbLine
 10
479.803
 20
394.6
 30
0.0999999
 11
420.215
 21
577.995
 31
0.0999999
  0
LINE
  5
A89
330
A02
100
AcDbEntity
  8
Mesh_cs003
100
AcDbLine
 10
420.215
 20
577.995
 30
0.0999999
 11
420.18
 21
578.101
 31
0.0999999
  0
LINE
  5
A8A
330
A02
100
AcDbEntity
  8
Mesh_cs003
100
AcDbLine
 10
420.18
 20
578.101
 30
0.0999999
 11
420.129
 21
578.258
 31
0.0999999
  0
LINE
  5
A8B
330
A02
100
AcDbEntity
  8
Mesh_cs003
100
AcDbLine
 10
420.129
 20
578.258
 30
0.0999999
 11
420.1
 21
578.248
 31
0.0999999
  0
LINE
  5
A8C
330
A02
100
AcDbEntity
  8
Mesh_cs003
100
AcDbLine
 10
420.1
 20
578.248
 30
0.0999999
 11
415.512
 21
576.737
 31
0.0999999
  0
LINE
  5
A8D
330
A02
100
AcDbEntity
  8
Mesh_cs003
100
AcDbLine
 10
415.512
 20
576.737
 30
0.0999999
 11
415.482
 21
576.727
 31
0.0999999
  0
LINE
  5
A8E
330
A02
100
AcDbEntity
  8
Mesh_cs003
100
AcDbLine
 10
415.482
 20
576.727
 30
0.0999999
 11
410.906
 21
575.18
 31
0.0999999
  0
LINE
  5
A8F
330
A02
100
AcDbEntity
  8
Mesh_cs003
100
AcDbLine
 10
410.906
 20
575.18
 30
0.0999999
 11
410.877
 21
575.17
 31
0.0999999
  0
LINE
  5
A90
330
A02
100
AcDbEntity
  8
Mesh_cs003
100
AcDbLine
 10
410.877
 20
575.17
 30
0.0999999
 11
410.834
 21
575.155
 31
0.0999999
  0
LINE
  5
A91
330
A02
100
AcDbEntity
  8
Mesh_cs003
100
AcDbLine
 10
410.834
 20
575.155
 30
0.0999999
 11
406.283
 21
573.575
 31
0.0999999
  0
LINE
  5
A92
330
A02
100
AcDbEntity
  8
Mesh_cs003
100
AcDbLine
 10
406.283
 20
573.575
 30
0.0999999
 11
401.746
 21
571.958
 31
0.0999999
  0
LINE
  5
A93
330
A02
100
AcDbEntity
  8
Mesh_cs003
100
AcDbLine
 10
401.746
 20
571.958
 30
0.0999999
 11
401.699
 21
571.942
 31
0.0999999
  0
LINE
  5
A94
330
A02
100
AcDbEntity
  8
Mesh_cs003
100
AcDbLine
 10
401.699
 20
571.942
 30
0.0999999
 11
401.67
 21
571.931
 31
0.0999999
  0
LINE
  5
A95
330
A02
100
AcDbEntity
  8
Mesh_cs003
100
AcDbLine
 10
401.67
 20
571.931
 30
0.0999999
 11
397.145
 21
570.278
 31
0.0999999
  0
LINE
  5
A96
330
A02
100
AcDbEntity
  8
Mesh_cs003
100
AcDbLine
 10
397.145
 20
570.278
 30
0.0999999
 11
397.116
 21
570.268
 31
0.0999999
  0
LINE
  5
A97
330
A02
100
AcDbEntity
  8
Mesh_cs003
100
AcDbLine
 10
397.116
 20
570.268
 30
0.0999999
 11
392.605
 21
568.579
 31
0.0999999
  0
LINE
  5
A98
330
A02
100
AcDbEntity
  8
Mesh_cs003
100
AcDbLine
 10
392.605
 20
568.579
 30
0.0999999
 11
392.556
 21
568.56
 31
0.0999999
  0
LINE
  5
A99
330
A02
100
AcDbEntity
  8
Mesh_cs003
100
AcDbLine
 10
392.556
 20
568.56
 30
0.0999999
 11
388.046
 21
566.831
 31
0.0999999
  0
LINE
  5
A9A
330
A02
100
AcDbEntity
  8
Mesh_cs003
100
AcDbLine
 10
388.046
 20
566.831
 30
0.0999999
 11
388.008
 21
566.816
 31
0.0999999
  0
LINE
  5
A9B
330
A02
100
AcDbEntity
  8
Mesh_cs003
100
AcDbLine
 10
388.008
 20
566.816
 30
0.0999999
 11
383.512
 21
565.05
 31
0.0999999
  0
LINE
  5
A9C
330
A02
100
AcDbEntity
  8
Mesh_cs003
100
AcDbLine
 10
383.512
 20
565.05
 30
0.0999999
 11
383.474
 21
565.035
 31
0.0999999
  0
LINE
  5
A9D
330
A02
100
AcDbEntity
  8
Mesh_cs003
100
AcDbLine
 10
383.474
 20
565.035
 30
0.0999999
 11
378.992
 21
563.233
 31
0.0999999
  0
LINE
  5
A9E
330
A02
100
AcDbEntity
  8
Mesh_cs003
100
AcDbLine
 10
378.992
 20
563.233
 30
0.0999999
 11
378.954
 21
563.218
 31
0.0999999
  0
LINE
  5
A9F
330
A02
100
AcDbEntity
  8
Mesh_cs003
100
AcDbLine
 10
378.954
 20
563.218
 30
0.0999999
 11
374.487
 21
561.38
 31
0.0999999
  0
LINE
  5
AA0
330
A02
100
AcDbEntity
  8
Mesh_cs003
100
AcDbLine
 10
374.487
 20
561.38
 30
0.0999999
 11
374.45
 21
561.365
 31
0.0999999
  0
LINE
  5
AA1
330
A02
100
AcDbEntity
  8
Mesh_cs003
100
AcDbLine
 10
374.45
 20
561.365
 30
0.0999999
 11
369.997
 21
559.492
 31
0.0999999
  0
LINE
  5
AA2
330
A02
100
AcDbEntity
  8
Mesh_cs003
100
AcDbLine
 10
369.997
 20
559.492
 30
0.0999999
 11
369.96
 21
559.476
 31
0.0999999
  0
LINE
  5
AA3
330
A02
100
AcDbEntity
  8
Mesh_cs003
100
AcDbLine
 10
369.96
 20
559.476
 30
0.0999999
 11
365.522
 21
557.567
 31
0.0999999
  0
LINE
  5
AA4
330
A02
100
AcDbEntity
  8
Mesh_cs003
100
AcDbLine
 10
365.522
 20
557.567
 30
0.0999999
 11
365.485
 21
557.551
 31
0.0999999
  0
LINE
  5
AA5
330
A02
100
AcDbEntity
  8
Mesh_cs003
100
AcDbLine
 10
365.485
 20
557.551
 30
0.0999999
 11
361.063
 21
555.606
 31
0.0999999
  0
LINE
  5
AA6
330
A02
100
AcDbEntity
  8
Mesh_cs003
100
AcDbLine
 10
361.063
 20
555.606
 30
0.0999999
 11
361.026
 21
555.59
 31
0.0999999
  0
LINE
  5
AA7
330
A02
100
AcDbEntity
  8
Mesh_cs003
100
AcDbLine
 10
361.026
 20
555.59
 30
0.0999999
 11
356.62
 21
553.61
 31
0.0999999
  0
LINE
  5
AA8
330
A02
100
AcDbEntity
  8
Mesh_cs003
100
AcDbLine
 10
356.62
 20
553.61
 30
0.0999999
 11
356.583
 21
553.593
 31
0.0999999
  0
LINE
  5
AA9
330
A02
100
AcDbEntity
  8
Mesh_cs003
100
AcDbLine
 10
356.583
 20
553.593
 30
0.0999999
 11
352.193
 21
551.578
 31
0.0999999
  0
LINE
  5
AAA
330
A02
100
AcDbEntity
  8
Mesh_cs003
100
AcDbLine
 10
352.193
 20
551.578
 30
0.0999999
 11
352.156
 21
551.561
 31
0.0999999
  0
LINE
  5
AAB
330
A02
100
AcDbEntity
  8
Mesh_cs003
100
AcDbLine
 10
352.156
 20
551.561
 30
0.0999999
 11
347.782
 21
549.511
 31
0.0999999
  0
LINE
  5
AAC
330
A02
100
AcDbEntity
  8
Mesh_cs003
100
AcDbLine
 10
347.782
 20
549.511
 30
0.0999999
 11
347.746
 21
549.494
 31
0.0999999
  0
LINE
  5
AAD
330
A02
100
AcDbEntity
  8
Mesh_cs003
100
AcDbLine
 10
347.746
 20
549.494
 30
0.0999999
 11
343.388
 21
547.408
 31
0.0999999
  0
LINE
  5
AAE
330
A02
100
AcDbEntity
  8
Mesh_cs003
100
AcDbLine
 10
343.388
 20
547.408
 30
0.0999999
 11
343.352
 21
547.391
 31
0.0999999
  0
LINE
  5
AAF
330
A02
100
AcDbEntity
  8
Mesh_cs003
100
AcDbLine
 10
343.352
 20
547.391
 30
0.0999999
 11
339.011
 21
545.271
 31
0.0999999
  0
LINE
  5
AB0
330
A02
100
AcDbEntity
  8
Mesh_cs003
100
AcDbLine
 10
339.011
 20
545.271
 30
0.0999999
 11
338.975
 21
545.253
 31
0.0999999
  0
LINE
  5
AB1
330
A02
100
AcDbEntity
  8
Mesh_cs003
100
AcDbLine
 10
338.975
 20
545.253
 30
0.0999999
 11
334.651
 21
543.098
 31
0.0999999
  0
LINE
  5
AB2
330
A02
100
AcDbEntity
  8
Mesh_cs003
100
AcDbLine
 10
334.651
 20
543.098
 30
0.0999999
 11
334.615
 21
543.08
 31
0.0999999
  0
LINE
  5
AB3
330
A02
100
AcDbEntity
  8
Mesh_cs003
100
AcDbLine
 10
334.615
 20
543.08
 30
0.0999999
 11
330.309
 21
540.891
 31
0.0999999
  0
LINE
  5
AB4
330
A02
100
AcDbEntity
  8
Mesh_cs003
100
AcDbLine
 10
330.309
 20
540.891
 30
0.0999999
 11
330.273
 21
540.872
 31
0.0999999
  0
LINE
  5
AB5
330
A02
100
AcDbEntity
  8
Mesh_cs003
100
AcDbLine
 10
330.273
 20
540.872
 30
0.0999999
 11
325.985
 21
538.648
 31
0.0999999
  0
LINE
  5
AB6
330
A02
100
AcDbEntity
  8
Mesh_cs003
100
AcDbLine
 10
325.985
 20
538.648
 30
0.0999999
 11
325.949
 21
538.63
 31
0.0999999
  0
LINE
  5
AB7
330
A02
100
AcDbEntity
  8
Mesh_cs003
100
AcDbLine
 10
325.949
 20
538.63
 30
0.0999999
 11
321.679
 21
536.372
 31
0.0999999
  0
LINE
  5
AB8
330
A02
100
AcDbEntity
  8
Mesh_cs003
100
AcDbLine
 10
321.679
 20
536.372
 30
0.0999999
 11
321.643
 21
536.353
 31
0.0999999
  0
LINE
  5
AB9
330
A02
100
AcDbEntity
  8
Mesh_cs003
100
AcDbLine
 10
321.643
 20
536.353
 30
0.0999999
 11
317.391
 21
534.061
 31
0.0999999
  0
LINE
  5
ABA
330
A02
100
AcDbEntity
  8
Mesh_cs003
100
AcDbLine
 10
317.391
 20
534.061
 30
0.0999999
 11
317.355
 21
534.041
 31
0.0999999
  0
LINE
  5
ABB
330
A02
100
AcDbEntity
  8
Mesh_cs003
100
AcDbLine
 10
317.355
 20
534.041
 30
0.0999999
 11
313.121
 21
531.715
 31
0.0999999
  0
LINE
  5
ABC
330
A02
100
AcDbEntity
  8
Mesh_cs003
100
AcDbLine
 10
313.121
 20
531.715
 30
0.0999999
 11
313.086
 21
531.695
 31
0.0999999
  0
LINE
  5
ABD
330
A02
100
AcDbEntity
  8
Mesh_cs003
100
AcDbLine
 10
313.086
 20
531.695
 30
0.0999999
 11
308.871
 21
529.335
 31
0.0999999
  0
LINE
  5
ABE
330
A02
100
AcDbEntity
  8
Mesh_cs003
100
AcDbLine
 10
308.871
 20
529.335
 30
0.0999999
 11
308.836
 21
529.316
 31
0.0999999
  0
LINE
  5
ABF
330
A02
100
AcDbEntity
  8
Mesh_cs003
100
AcDbLine
 10
308.836
 20
529.316
 30
0.0999999
 11
304.64
 21
526.922
 31
0.0999999
  0
LINE
  5
AC0
330
A02
100
AcDbEntity
  8
Mesh_cs003
100
AcDbLine
 10
304.64
 20
526.922
 30
0.0999999
 11
304.605
 21
526.902
 31
0.0999999
  0
LINE
  5
AC1
330
A02
100
AcDbEntity
  8
Mesh_cs003
100
AcDbLine
 10
304.605
 20
526.902
 30
0.0999999
 11
300.428
 21
524.474
 31
0.0999999
  0
LINE
  5
AC2
330
A02
100
AcDbEntity
  8
Mesh_cs003
100
AcDbLine
 10
300.428
 20
524.474
 30
0.0999999
 11
300.393
 21
524.454
 31
0.0999999
  0
LINE
  5
AC3
330
A02
100
AcDbEntity
  8
Mesh_cs003
100
AcDbLine
 10
300.393
 20
524.454
 30
0.0999999
 11
296.236
 21
521.993
 31
0.0999999
  0
LINE
  5
AC4
330
A02
100
AcDbEntity
  8
Mesh_cs003
100
AcDbLine
 10
296.236
 20
521.993
 30
0.0999999
 11
296.202
 21
521.973
 31
0.0999999
  0
LINE
  5
AC5
330
A02
100
AcDbEntity
  8
Mesh_cs003
100
AcDbLine
 10
296.202
 20
521.973
 30
0.0999999
 11
292.065
 21
519.479
 31
0.0999999
  0
LINE
  5
AC6
330
A02
100
AcDbEntity
  8
Mesh_cs003
100
AcDbLine
 10
292.065
 20
519.479
 30
0.0999999
 11
292.03
 21
519.458
 31
0.0999999
  0
LINE
  5
AC7
330
A02
100
AcDbEntity
  8
Mesh_cs003
100
AcDbLine
 10
292.03
 20
519.458
 30
0.0999999
 11
287.913
 21
516.931
 31
0.0999999
  0
LINE
  5
AC8
330
A02
100
AcDbEntity
  8
Mesh_cs003
100
AcDbLine
 10
287.913
 20
516.931
 30
0.0999999
 11
287.878
 21
516.91
 31
0.0999999
  0
LINE
  5
AC9
330
A02
100
AcDbEntity
  8
Mesh_cs003
100
AcDbLine
 10
287.878
 20
516.91
 30
0.0999999
 11
283.782
 21
514.35
 31
0.0999999
  0
LINE
  5
ACA
330
A02
100
AcDbEntity
  8
Mesh_cs003
100
AcDbLine
 10
283.782
 20
514.35
 30
0.0999999
 11
283.747
 21
514.328
 31
0.0999999
  0
LINE
  5
ACB
330
A02
100
AcDbEntity
  8
Mesh_cs003
100
AcDbLine
 10
283.747
 20
514.328
 30
0.0999999
 11
279.672
 21
511.736
 31
0.0999999
  0
LINE
  5
ACC
330
A02
100
AcDbEntity
  8
Mesh_cs003
100
AcDbLine
 10
279.672
 20
511.736
 30
0.0999999
 11
279.637
 21
511.714
 31
0.0999999
  0
LINE
  5
ACD
330
A02
100
AcDbEntity
  8
Mesh_cs003
100
AcDbLine
 10
279.637
 20
511.714
 30
0.0999999
 11
275.582
 21
509.089
 31
0.0999999
  0
LINE
  5
ACE
330
A02
100
AcDbEntity
  8
Mesh_cs003
100
AcDbLine
 10
275.582
 20
509.089
 30
0.0999999
 11
275.548
 21
509.067
 31
0.0999999
  0
LINE
  5
ACF
330
A02
100
AcDbEntity
  8
Mesh_cs003
100
AcDbLine
 10
275.548
 20
509.067
 30
0.0999999
 11
271.515
 21
506.409
 31
0.0999999
  0
LINE
  5
AD0
330
A02
100
AcDbEntity
  8
Mesh_cs003
100
AcDbLine
 10
271.515
 20
506.409
 30
0.0999999
 11
271.481
 21
506.387
 31
0.0999999
  0
LINE
  5
AD1
330
A02
100
AcDbEntity
  8
Mesh_cs003
100
AcDbLine
 10
271.481
 20
506.387
 30
0.0999999
 11
267.468
 21
503.697
 31
0.0999999
  0
LINE
  5
AD2
330
A02
100
AcDbEntity
  8
Mesh_cs003
100
AcDbLine
 10
267.468
 20
503.697
 30
0.0999999
 11
267.435
 21
503.675
 31
0.0999999
  0
LINE
  5
AD3
330
A02
100
AcDbEntity
  8
Mesh_cs003
100
AcDbLine
 10
267.435
 20
503.675
 30
0.0999999
 11
263.444
 21
500.953
 31
0.0999999
  0
LINE
  5
AD4
330
A02
100
AcDbEntity
  8
Mesh_cs003
100
AcDbLine
 10
263.444
 20
500.953
 30
0.0999999
 11
263.41
 21
500.93
 31
0.0999999
  0
LINE
  5
AD5
330
A02
100
AcDbEntity
  8
Mesh_cs003
100
AcDbLine
 10
263.41
 20
500.93
 30
0.0999999
 11
259.442
 21
498.176
 31
0.0999999
  0
LINE
  5
AD6
330
A02
100
AcDbEntity
  8
Mesh_cs003
100
AcDbLine
 10
259.442
 20
498.176
 30
0.0999999
 11
259.408
 21
498.153
 31
0.0999999
  0
LINE
  5
AD7
330
A02
100
AcDbEntity
  8
Mesh_cs003
100
AcDbLine
 10
259.408
 20
498.153
 30
0.0999999
 11
255.462
 21
495.368
 31
0.0999999
  0
LINE
  5
AD8
330
A02
100
AcDbEntity
  8
Mesh_cs003
100
AcDbLine
 10
255.462
 20
495.368
 30
0.0999999
 11
255.429
 21
495.344
 31
0.0999999
  0
LINE
  5
AD9
330
A02
100
AcDbEntity
  8
Mesh_cs003
100
AcDbLine
 10
255.429
 20
495.344
 30
0.0999999
 11
251.504
 21
492.527
 31
0.0999999
  0
LINE
  5
ADA
330
A02
100
AcDbEntity
  8
Mesh_cs003
100
AcDbLine
 10
251.504
 20
492.527
 30
0.0999999
 11
251.472
 21
492.504
 31
0.0999999
  0
LINE
  5
ADB
330
A02
100
AcDbEntity
  8
Mesh_cs003
100
AcDbLine
 10
251.472
 20
492.504
 30
0.0999999
 11
247.57
 21
489.655
 31
0.0999999
  0
LINE
  5
ADC
330
A02
100
AcDbEntity
  8
Mesh_cs003
100
AcDbLine
 10
247.57
 20
489.655
 30
0.0999999
 11
247.537
 21
489.631
 31
0.0999999
  0
LINE
  5
ADD
330
A02
100
AcDbEntity
  8
Mesh_cs003
100
AcDbLine
 10
247.537
 20
489.631
 30
0.0999999
 11
243.659
 21
486.752
 31
0.0999999
  0
LINE
  5
ADE
330
A02
100
AcDbEntity
  8
Mesh_cs003
100
AcDbLine
 10
243.659
 20
486.752
 30
0.0999999
 11
243.626
 21
486.728
 31
0.0999999
  0
LINE
  5
ADF
330
A02
100
AcDbEntity
  8
Mesh_cs003
100
AcDbLine
 10
243.626
 20
486.728
 30
0.0999999
 11
239.771
 21
483.817
 31
0.0999999
  0
LINE
  5
AE0
330
A02
100
AcDbEntity
  8
Mesh_cs003
100
AcDbLine
 10
239.771
 20
483.817
 30
0.0999999
 11
239.739
 21
483.793
 31
0.0999999
  0
LINE
  5
AE1
330
A02
100
AcDbEntity
  8
Mesh_cs003
100
AcDbLine
 10
239.739
 20
483.793
 30
0.0999999
 11
235.907
 21
480.852
 31
0.0999999
  0
LINE
  5
AE2
330
A02
100
AcDbEntity
  8
Mesh_cs003
100
AcDbLine
 10
235.907
 20
480.852
 30
0.0999999
 11
235.875
 21
480.827
 31
0.0999999
  0
LINE
  5
AE3
330
A02
100
AcDbEntity
  8
Mesh_cs003
100
AcDbLine
 10
235.875
 20
480.827
 30
0.0999999
 11
232.066
 21
477.855
 31
0.0999999
  0
LINE
  5
AE4
330
A02
100
AcDbEntity
  8
Mesh_cs003
100
AcDbLine
 10
232.066
 20
477.855
 30
0.0999999
 11
232.034
 21
477.83
 31
0.0999999
  0
LINE
  5
AE5
330
A02
100
AcDbEntity
  8
Mesh_cs003
100
AcDbLine
 10
232.034
 20
477.83
 30
0.0999999
 11
228.25
 21
474.828
 31
0.0999999
  0
LINE
  5
AE6
330
A02
100
AcDbEntity
  8
Mesh_cs003
100
AcDbLine
 10
228.25
 20
474.828
 30
0.0999999
 11
228.218
 21
474.803
 31
0.0999999
  0
LINE
  5
AE7
330
A02
100
AcDbEntity
  8
Mesh_cs003
100
AcDbLine
 10
228.218
 20
474.803
 30
0.0999999
 11
224.458
 21
471.77
 31
0.0999999
  0
LINE
  5
AE8
330
A02
100
AcDbEntity
  8
Mesh_cs003
100
AcDbLine
 10
224.458
 20
471.77
 30
0.0999999
 11
224.427
 21
471.745
 31
0.0999999
  0
LINE
  5
AE9
330
A02
100
AcDbEntity
  8
Mesh_cs003
100
AcDbLine
 10
224.427
 20
471.745
 30
0.0999999
 11
220.691
 21
468.682
 31
0.0999999
  0
LINE
  5
AEA
330
A02
100
AcDbEntity
  8
Mesh_cs003
100
AcDbLine
 10
220.691
 20
468.682
 30
0.0999999
 11
220.66
 21
468.656
 31
0.0999999
  0
LINE
  5
AEB
330
A02
100
AcDbEntity
  8
Mesh_cs003
100
AcDbLine
 10
220.66
 20
468.656
 30
0.0999999
 11
216.949
 21
465.564
 31
0.0999999
  0
LINE
  5
AEC
330
A02
100
AcDbEntity
  8
Mesh_cs003
100
AcDbLine
 10
216.949
 20
465.564
 30
0.0999999
 11
216.918
 21
465.538
 31
0.0999999
  0
LINE
  5
AED
330
A02
100
AcDbEntity
  8
Mesh_cs003
100
AcDbLine
 10
216.918
 20
465.538
 30
0.0999999
 11
213.231
 21
462.416
 31
0.0999999
  0
LINE
  5
AEE
330
A02
100
AcDbEntity
  8
Mesh_cs003
100
AcDbLine
 10
213.231
 20
462.416
 30
0.0999999
 11
213.201
 21
462.39
 31
0.0999999
  0
LINE
  5
AEF
330
A02
100
AcDbEntity
  8
Mesh_cs003
100
AcDbLine
 10
213.201
 20
462.39
 30
0.0999999
 11
209.539
 21
459.238
 31
0.0999999
  0
LINE
  5
AF0
330
A02
100
AcDbEntity
  8
Mesh_cs003
100
AcDbLine
 10
209.539
 20
459.238
 30
0.0999999
 11
209.509
 21
459.212
 31
0.0999999
  0
LINE
  5
AF1
330
A02
100
AcDbEntity
  8
Mesh_cs003
100
AcDbLine
 10
209.509
 20
459.212
 30
0.0999999
 11
205.873
 21
456.031
 31
0.0999999
  0
LINE
  5
AF2
330
A02
100
AcDbEntity
  8
Mesh_cs003
100
AcDbLine
 10
205.873
 20
456.031
 30
0.0999999
 11
205.843
 21
456.005
 31
0.0999999
  0
LINE
  5
AF3
330
A02
100
AcDbEntity
  8
Mesh_cs003
100
AcDbLine
 10
205.843
 20
456.005
 30
0.0999999
 11
202.233
 21
452.795
 31
0.0999999
  0
LINE
  5
AF4
330
A02
100
AcDbEntity
  8
Mesh_cs003
100
AcDbLine
 10
202.233
 20
452.795
 30
0.0999999
 11
202.202
 21
452.768
 31
0.0999999
  0
LINE
  5
AF5
330
A02
100
AcDbEntity
  8
Mesh_cs003
100
AcDbLine
 10
202.202
 20
452.768
 30
0.0999999
 11
198.618
 21
449.53
 31
0.0999999
  0
LINE
  5
AF6
330
A02
100
AcDbEntity
  8
Mesh_cs003
100
AcDbLine
 10
198.618
 20
449.53
 30
0.0999999
 11
198.588
 21
449.502
 31
0.0999999
  0
LINE
  5
AF7
330
A02
100
AcDbEntity
  8
Mesh_cs003
100
AcDbLine
 10
198.588
 20
449.502
 30
0.0999999
 11
195.03
 21
446.235
 31
0.0999999
  0
LINE
  5
AF8
330
A02
100
AcDbEntity
  8
Mesh_cs003
100
AcDbLine
 10
195.03
 20
446.235
 30
0.0999999
 11
195
 21
446.208
 31
0.0999999
  0
LINE
  5
AF9
330
A02
100
AcDbEntity
  8
Mesh_cs003
100
AcDbLine
 10
195
 20
446.208
 30
0.0999999
 11
195
 21
445.142
 31
0.0999999
  0
LINE
  5
AFA
330
A02
100
AcDbEntity
  8
Mesh_cs003
100
AcDbLine
 10
195
 20
445.142
 30
0.0999999
 11
195
 21
300.337
 31
0.0999999
  0
LINE
  5
AFB
330
A02
100
AcDbEntity
  8
Mesh_cs003
100
AcDbLine
 10
195
 20
300.337
 30
0.0999999
 11
195
 21
300.074
 31
0.0999999
  0
LINE
  5
AFC
330
A02
100
AcDbEntity
  8
Mesh_cs003
100
AcDbLine
 10
195
 20
300.074
 30
0.0999999
 11
195.129
 21
299.981
 31
0.0999999
  0
LINE
  5
AFD
330
A02
100
AcDbEntity
  8
Mesh_cs003
100
AcDbLine
 10
195.129
 20
299.981
 30
0.0999999
 11
195.653
 21
299.6
 31
0.0999999
  0
LINE
  5
AFE
330
A02
100
AcDbEntity
  8
Mesh_cs003
100
AcDbLine
 10
195.653
 20
299.6
 30
0.0999999
 11
273.655
 21
242.928
 31
0.0999999
  0
LINE
  5
AFF
330
A02
100
AcDbEntity
  8
Mesh_cs003
100
AcDbLine
 10
273.655
 20
242.928
 30
0.0999999
 11
273.745
 21
242.862
 31
0.0999999
  0
LINE
  5
B00
330
A02
100
AcDbEntity
  8
Mesh_cs003
100
AcDbLine
 10
273.745
 20
242.862
 30
0.0999999
 11
273.879
 21
242.765
 31
0.0999999
  0
LINE
  5
B01
330
A02
100
AcDbEntity
  8
Mesh_cs003
100
AcDbLine
 10
273.879
 20
242.765
 30
0.0999999
 11
273.976
 21
242.899
 31
0.0999999
  0
LINE
  5
B02
330
A02
100
AcDbEntity
  8
Mesh_cs003
100
AcDbLine
 10
273.976
 20
242.899
 30
0.0999999
 11
288.45
 21
262.82
 31
0.0999999
  0
LINE
  5
B03
330
A02
100
AcDbEntity
  8
Mesh_cs003
100
AcDbLine
 10
288.45
 20
262.82
 30
0.0999999
 11
288.515
 21
262.91
 31
0.0999999
  0
LINE
  5
B04
330
A02
100
AcDbEntity
  8
Mesh_cs003
100
AcDbLine
 10
288.515
 20
262.91
 30
0.0999999
 11
288.789
 21
263.253
 31
0.0999999
  0
LINE
  5
B05
330
A02
100
AcDbEntity
  8
Mesh_cs003
100
AcDbLine
 10
288.789
 20
263.253
 30
0.0999999
 11
289.099
 21
263.579
 31
0.0999999
  0
LINE
  5
B06
330
A02
100
AcDbEntity
  8
Mesh_cs003
100
AcDbLine
 10
289.099
 20
263.579
 30
0.0999999
 11
289.433
 21
263.872
 31
0.0999999
  0
LINE
  5
B07
330
A02
100
AcDbEntity
  8
Mesh_cs003
100
AcDbLine
 10
289.433
 20
263.872
 30
0.0999999
 11
289.792
 21
264.134
 31
0.0999999
  0
LINE
  5
B08
330
A02
100
AcDbEntity
  8
Mesh_cs003
100
AcDbLine
 10
289.792
 20
264.134
 30
0.0999999
 11
290.169
 21
264.362
 31
0.0999999
  0
LINE
  5
B09
330
A02
100
AcDbEntity
  8
Mesh_cs003
100
AcDbLine
 10
290.169
 20
264.362
 30
0.0999999
 11
290.572
 21
264.558
 31
0.0999999
  0
LINE
  5
B0A
330
A02
100
AcDbEntity
  8
Mesh_cs003
100
AcDbLine
 10
290.572
 20
264.558
 30
0.0999999
 11
290.987
 21
264.717
 31
0.0999999
  0
LINE
  5
B0B
330
A02
100
AcDbEntity
  8
Mesh_cs003
100
AcDbLine
 10
290.987
 20
264.717
 30
0.0999999
 11
293.542
 21
267.747
 31
0.0999999
  0
LINE
  5
B0C
330
A02
100
AcDbEntity
  8
Mesh_cs003
100
AcDbLine
 10
293.542
 20
267.747
 30
0.0999999
 11
293.564
 21
267.772
 31
0.0999999
  0
LINE
  5
B0D
330
A02
100
AcDbEntity
  8
Mesh_cs003
100
AcDbLine
 10
293.564
 20
267.772
 30
0.0999999
 11
293.585
 21
267.797
 31
0.0999999
  0
ENDSEC
  0
SECTION
  2
OBJECTS
  0
DICTIONARY
  5
F000
330
0
100
AcDbDictionary
  3
ACAD_GROUP
350
F001
  0
DICTIONARY
  5
F001
330
F000
100
AcDbDictionary
  0
ENDSEC
  0
EOF