999
FreeCAD v0.21 33771 (Git)
  0
SECTION
  2
HEADER
  9
$ACADVER
  1
AC1014
  9
$ACADMAINTVER
 70
     9
  9
$DWGCODEPAGE
  3
ANSI_1252
  9
$TEXTSTYLE
  7
STANDARD
  9
$DIMSTYLE
  2
STANDARD
  9
$DIMTXSTY
  7
STANDARD
  9
$CMLSTYLE
  2
STANDARD
  9
$LUNITS
 70
2
  9
$INSUNITS
 70
4
  9
$PEXTMAX
 10
50
 20
50
 30
50
  9
$PEXTMIN
 10
0
 20
0
 30
0
  9
$HANDSEED
  5
FFFF
  0
ENDSEC
  0
SECTION
  2
CLASSES
  0
CLASS
  1
ACDBDICTIONARYWDFLT
  2
AcDbDictionaryWithDefault
  3
ObjectDBX Classes
 90
        0
280
     0
281
     0
  0
CLASS
  1
XRECORD
  2
AcDbXrecord
  3
ObjectDBX Classes
 90
        0
280
     0
281
     0
  0
CLASS
  1
LWPOLYLINE
  2
AcDbPolyline
  3
ObjectDBX Classes
 90
        0
280
     0
281
     1
  0
ENDSEC
  0
SECTION
  2
TABLES
  0
TABLE
  2
VPORT
  5
20
330
0
100
AcDbSymbolTable
 70
     1
  0
VPORT
  5
21
330
20
100
AcDbSymbolTableRecord
100
AcDbViewportTableRecord
  2
*ACTIVE
 70
     0
  0
ENDTAB
  0
TABLE
  2
LTYPE
  5
22
330
0
100
AcDbSymbolTable
 70
     1
  0
LTYPE
  5
23
330
21
100
AcDbSymbolTableRecord
100
AcDbLinetypeTableRecord
  2
BYBLOCK
 70
     0
  3

 72
    65
 73
     0
 40
0.0
  0
LTYPE
  5
24
330
21
100
AcDbSymbolTableRecord
100
AcDbLinetypeTableRecord
  2
BYLAYER
 70
     0
  3

 72
    65
 73
     0
 40
0.0
  0
LTYPE
  5
25
330
21
100
AcDbSymbolTableRecord
100
AcDbLinetypeTableRecord
  2
CONTINUOUS
 70
     0
  3
Solid line
 72
    65
 73
     0
 40
0.0
  0
ENDTAB
  0
TABLE
  2
LAYER
  5
A80
330
0
100
AcDbSymbolTable
 70
3
  0
LAYER
  5
A81
330
A80
100
AcDbSymbolTableRecord
100
AcDbLayerTableRecord
  2
0
 70
   0
 62
   7
  6
CONTINUOUS
  0
LAYER
  5
A82
330
A80
100
AcDbSymbolTableRecord
100
AcDbLayerTableRecord
  2
none
 70
    0
 62
    7
  6
CONTINUOUS
  0
LAYER
  5
A83
330
A80
100
AcDbSymbolTableRecord
100
AcDbLayerTableRecord
  2
Mesh_cs003
 70
    0
 62
    7
  6
CONTINUOUS
  0
ENDTAB
  0
TABLE
  2
STYLE
  5
70
330
0
100
AcDbSymbolTable
 70
     2
  0
STYLE
  5
71
330
70
100
AcDbSymbolTableRecord
100
AcDbTextStyleTableRecord
  2
STANDARD
 70
     0
 40
0.0
 41
1.0
 50
0.0
 71
     0
 42
2.5
  3
arial.ttf
  4

  0
STYLE
  5
72
330
70
100
AcDbSymbolTableRecord
100
AcDbTextStyleTableRecord
  2
ANNOTATIVE
 70
     0
 40
0.0
 41
1.0
 50
0.0
 71
     0
 42
2.5
  3
arial.ttf
  4

  0
ENDTAB
  0
TABLE
  2
VIEW
  5
73
330
0
100
AcDbSymbolTable
 70
     0
  0
ENDTAB
  0
TABLE
  2
UCS
  5
74
330
0
100
AcDbSymbolTable
 70
     0
  0
ENDTAB
  0
TABLE
  2
APPID
  5
75
330
0
100
AcDbSymbolTable
 70
     2
  0
APPID
  5
76
330
75
100
AcDbSymbolTableRecord
100
AcDbRegAppTableRecord
  2
ACAD
 70
     0
  0
APPID
  5
77
330
75
100
AcDbSymbolTableRecord
100
AcDbRegAppTableRecord
  2
ACADANNOTATIVE
 70
     0
  0
ENDTAB
  0
TABLE
  2
DIMSTYLE
  5
78
330
0
100
AcDbSymbolTable
 70
     2
  0
DIMSTYLE
105
79
330
78
100
AcDbSymbolTableRecord
100
AcDbDimStyleTableRecord
  2
STANDARD
 70
     0
  3

  4

  5

  6

  7

 40
0.0
 41
2.5
 42
0.625
 43
3.75
 44
1.25
 45
0.0
 46
0.0
 47
0.0
 48
0.0
140
2.5
141
2.5
142
0.0
143
0.03937007874016
144
1.0
145
0.0
146
1.0
147
0.625
 71
     0
 72
     0
 73
     0
 74
     0
 75
     0
 76
     0
 77
     1
 78
     8
170
     0
171
     3
172
     1
173
     0
174
     0
175
     0
176
     0
177
     0
178
     0
270
     2
271
     2
272
     2
273
     2
274
     3
340
71
275
     0
280
     0
281
     0
282
     0
283
     0
284
     8
285
     0
286
     0
287
     3
288
     0
  0
ENDTAB
  0
TABLE
  2
BLOCK_RECORD
  5
A01
330
0
100
AcDbSymbolTable
  70
5
  0
BLOCK_RECORD
  5
A02
330
A01
100
AcDbSymbolTableRecord
100
AcDbBlockTableRecord
  2
*MODEL_SPACE
  0
BLOCK_RECORD
  5
A03
330
A01
100
AcDbSymbolTableRecord
100
AcDbBlockTableRecord
  2
*PAPER_SPACE
  0
ENDTAB
  0
ENDSEC
  0
SECTION
  2
BLOCKS
  0
BLOCK
  5
A04
330
A02
100
AcDbEntity
  8
0
100
AcDbBlockBegin
  2
*MODEL_SPACE
 70
   0
 10
0
 20
0
 30
0
  3
*MODEL_SPACE
  1
 
  0
ENDBLK
  5
A05
330
A02
100
AcDbEntity
  8
0
100
AcDbBlockEnd
  0
BLOCK
  5
A06
330
A03
100
AcDbEntity
 67
1
  8
0
100
AcDbBlockBegin
  2
*PAPER_SPACE
 70
   0
 10
0
 20
0
 30
0
  3
*PAPER_SPACE
  1
 
  0
ENDBLK
  5
A07
330
A03
100
AcDbEntity
 67
    1
  8
0
100
AcDbBlockEnd
  0
ENDSEC
  0
SECTION
  2
ENTITIES
  0
LINE
  5
A08
330
A02
100
AcDbEntity
  8
Mesh_cs003
100
AcDbLine
 10
14.9
 20
285.174
 30
11.9
 11
0.496668
 21
285.174
 31
11.9
  0
LINE
  5
A09
330
A02
100
AcDbEntity
  8
Mesh_cs003
100
AcDbLine
 10
0.496668
 20
285.174
 30
11.9
 11
-5.55112e-17
 21
285.174
 31
11.9
  0
LINE
  5
A0A
330
A02
100
AcDbEntity
  8
Mesh_cs003
100
AcDbLine
 10
-6.66669e-17
 20
285.174
 30
11.9
 11
-6.6667e-17
 21
299.577
 31
11.9
  0
LINE
  5
A0B
330
A02
100
AcDbEntity
  8
Mesh_cs003
100
AcDbLine
 10
-6.6667e-17
 20
299.577
 30
11.9
 11
0
 21
300.074
 31
11.9
  0
LINE
  5
A0C
330
A02
100
AcDbEntity
  8
Mesh_cs003
100
AcDbLine
 10
0
 20
300.074
 30
11.9
 11
0.496668
 21
300.074
 31
11.9
  0
LINE
  5
A0D
330
A02
100
AcDbEntity
  8
Mesh_cs003
100
AcDbLine
 10
0.496668
 20
300.074
 30
11.9
 11
14.9
 21
300.074
 31
11.9
  0
LINE
  5
A0E
330
A02
100
AcDbEntity
  8
Mesh_cs003
100
AcDbLine
 10
14.9
 20
300.074
 30
11.9
 11
14.9
 21
285.671
 31
11.9
  0
LINE
  5
A0F
330
A02
100
AcDbEntity
  8
Mesh_cs003
100
AcDbLine
 10
14.9
 20
285.671
 30
11.9
 11
14.9
 21
285.174
 31
11.9
  0
LINE
  5
A10
330
A02
100
AcDbEntity
  8
Mesh_cs003
100
AcDbLine
 10
80
 20
300.074
 30
11.9
 11
80
 21
30.0075
 31
11.9
  0
LINE
  5
A11
330
A02
100
AcDbEntity
  8
Mesh_cs003
100
AcDbLine
 10
80
 20
30.0075
 30
11.9
 11
80
 21
0
 31
11.9
  0
LINE
  5
A12
330
A02
100
AcDbEntity
  8
Mesh_cs003
100
AcDbLine
 10
80
 20
0
 30
11.9
 11
30.41
 21
0
 31
11.9
  0
LINE
  5
A13
330
A02
100
AcDbEntity
  8
Mesh_cs003
100
AcDbLine
 10
30.41
 20
0
 30
11.9
 11
24.9
 21
0
 31
11.9
  0
LINE
  5
A14
330
A02
100
AcDbEntity
  8
Mesh_cs003
100
AcDbLine
 10
24.9
 20
0
 30
11.9
 11
24.9
 21
19.2367
 31
11.9
  0
LINE
  5
A15
330
A02
100
AcDbEntity
  8
Mesh_cs003
100
AcDbLine
 10
24.9
 20
19.2367
 30
11.9
 11
24.9
 21
19.9
 31
11.9
  0
LINE
  5
A16
330
A02
100
AcDbEntity
  8
Mesh_cs003
100
AcDbLine
 10
24.9
 20
19.9
 30
11.9
 11
24.7353
 21
21.151
 31
11.9
  0
LINE
  5
A17
330
A02
100
AcDbEntity
  8
Mesh_cs003
100
AcDbLine
 10
24.7353
 20
21.151
 30
11.9
 11
24.7296
 21
21.1941
 31
11.9
  0
LINE
  5
A18
330
A02
100
AcDbEntity
  8
Mesh_cs003
100
AcDbLine
 10
24.7296
 20
21.1941
 30
11.9
 11
24.2468
 21
22.3598
 31
11.9
  0
LINE
  5
A19
330
A02
100
AcDbEntity
  8
Mesh_cs003
100
AcDbLine
 10
24.2468
 20
22.3598
 30
11.9
 11
24.2301
 21
22.4
 31
11.9
  0
LINE
  5
A1A
330
A02
100
AcDbEntity
  8
Mesh_cs003
100
AcDbLine
 10
24.2301
 20
22.4
 30
11.9
 11
23.462
 21
23.401
 31
11.9
  0
LINE
  5
A1B
330
A02
100
AcDbEntity
  8
Mesh_cs003
100
AcDbLine
 10
23.462
 20
23.401
 30
11.9
 11
23.4355
 21
23.4355
 31
11.9
  0
LINE
  5
A1C
330
A02
100
AcDbEntity
  8
Mesh_cs003
100
AcDbLine
 10
23.4355
 20
23.4355
 30
11.9
 11
22.4345
 21
24.2036
 31
11.9
  0
LINE
  5
A1D
330
A02
100
AcDbEntity
  8
Mesh_cs003
100
AcDbLine
 10
22.4345
 20
24.2036
 30
11.9
 11
22.4
 21
24.2301
 31
11.9
  0
LINE
  5
A1E
330
A02
100
AcDbEntity
  8
Mesh_cs003
100
AcDbLine
 10
22.4
 20
24.2301
 30
11.9
 11
21.2343
 21
24.713
 31
11.9
  0
LINE
  5
A1F
330
A02
100
AcDbEntity
  8
Mesh_cs003
100
AcDbLine
 10
21.2343
 20
24.713
 30
11.9
 11
21.1941
 21
24.7296
 31
11.9
  0
LINE
  5
A20
330
A02
100
AcDbEntity
  8
Mesh_cs003
100
AcDbLine
 10
21.1941
 20
24.7296
 30
11.9
 11
19.9431
 21
24.8943
 31
11.9
  0
LINE
  5
A21
330
A02
100
AcDbEntity
  8
Mesh_cs003
100
AcDbLine
 10
19.9431
 20
24.8943
 30
11.9
 11
19.9
 21
24.9
 31
11.9
  0
LINE
  5
A22
330
A02
100
AcDbEntity
  8
Mesh_cs003
100
AcDbLine
 10
19.9
 20
24.9
 30
11.9
 11
19.2367
 21
24.9
 31
11.9
  0
LINE
  5
A23
330
A02
100
AcDbEntity
  8
Mesh_cs003
100
AcDbLine
 10
19.2367
 20
24.9
 30
11.9
 11
0
 21
24.9
 31
11.9
  0
LINE
  5
A24
330
A02
100
AcDbEntity
  8
Mesh_cs003
100
AcDbLine
 10
0
 20
24.9
 30
11.9
 11
3.33334e-17
 21
33.2425
 31
11.9
  0
LINE
  5
A25
330
A02
100
AcDbEntity
  8
Mesh_cs003
100
AcDbLine
 10
3.33334e-17
 20
33.2425
 30
11.9
 11
3.33334e-17
 21
275.174
 31
11.9
  0
LINE
  5
A26
330
A02
100
AcDbEntity
  8
Mesh_cs003
100
AcDbLine
 10
3.33334e-17
 20
275.174
 30
11.9
 11
19.2367
 21
275.174
 31
11.9
  0
LINE
  5
A27
330
A02
100
AcDbEntity
  8
Mesh_cs003
100
AcDbLine
 10
19.2367
 20
275.174
 30
11.9
 11
19.9
 21
275.174
 31
11.9
  0
LINE
  5
A28
330
A02
100
AcDbEntity
  8
Mesh_cs003
100
AcDbLine
 10
19.9
 20
275.174
 30
11.9
 11
21.136
 21
275.331
 31
11.9
  0
LINE
  5
A29
330
A02
100
AcDbEntity
  8
Mesh_cs003
100
AcDbLine
 10
21.136
 20
275.331
 30
11.9
 11
21.1528
 21
275.334
 31
11.9
  0
LINE
  5
A2A
330
A02
100
AcDbEntity
  8
Mesh_cs003
100
AcDbLine
 10
21.1528
 20
275.334
 30
11.9
 11
21.1853
 21
275.344
 31
11.9
  0
LINE
  5
A2B
330
A02
100
AcDbEntity
  8
Mesh_cs003
100
AcDbLine
 10
21.1853
 20
275.344
 30
11.9
 11
22.329
 21
275.805
 31
11.9
  0
LINE
  5
A2C
330
A02
100
AcDbEntity
  8
Mesh_cs003
100
AcDbLine
 10
22.329
 20
275.805
 30
11.9
 11
22.3599
 21
275.822
 31
11.9
  0
LINE
  5
A2D
330
A02
100
AcDbEntity
  8
Mesh_cs003
100
AcDbLine
 10
22.3599
 20
275.822
 30
11.9
 11
23.3509
 21
276.558
 31
11.9
  0
LINE
  5
A2E
330
A02
100
AcDbEntity
  8
Mesh_cs003
100
AcDbLine
 10
23.3509
 20
276.558
 30
11.9
 11
23.3779
 21
276.582
 31
11.9
  0
LINE
  5
A2F
330
A02
100
AcDbEntity
  8
Mesh_cs003
100
AcDbLine
 10
23.3779
 20
276.582
 30
11.9
 11
24.1501
 21
277.546
 31
11.9
  0
LINE
  5
A30
330
A02
100
AcDbEntity
  8
Mesh_cs003
100
AcDbLine
 10
24.1501
 20
277.546
 30
11.9
 11
24.1731
 21
277.578
 31
11.9
  0
LINE
  5
A31
330
A02
100
AcDbEntity
  8
Mesh_cs003
100
AcDbLine
 10
24.1731
 20
277.578
 30
11.9
 11
24.6757
 21
278.705
 31
11.9
  0
LINE
  5
A32
330
A02
100
AcDbEntity
  8
Mesh_cs003
100
AcDbLine
 10
24.6757
 20
278.705
 30
11.9
 11
24.691
 21
278.744
 31
11.9
  0
LINE
  5
A33
330
A02
100
AcDbEntity
  8
Mesh_cs003
100
AcDbLine
 10
24.691
 20
278.744
 30
11.9
 11
24.844
 21
279.433
 31
11.9
  0
LINE
  5
A34
330
A02
100
AcDbEntity
  8
Mesh_cs003
100
AcDbLine
 10
24.844
 20
279.433
 30
11.9
 11
24.8488
 21
279.472
 31
11.9
  0
LINE
  5
A35
330
A02
100
AcDbEntity
  8
Mesh_cs003
100
AcDbLine
 10
24.8488
 20
279.472
 30
11.9
 11
24.9
 21
280.174
 31
11.9
  0
LINE
  5
A36
330
A02
100
AcDbEntity
  8
Mesh_cs003
100
AcDbLine
 10
24.9
 20
280.174
 30
11.9
 11
24.9
 21
299.411
 31
11.9
  0
LINE
  5
A37
330
A02
100
AcDbEntity
  8
Mesh_cs003
100
AcDbLine
 10
24.9
 20
299.411
 30
11.9
 11
24.9
 21
300.074
 31
11.9
  0
LINE
  5
A38
330
A02
100
AcDbEntity
  8
Mesh_cs003
100
AcDbLine
 10
24.9
 20
300.074
 30
11.9
 11
30.41
 21
300.074
 31
11.9
  0
LINE
  5
A39
330
A02
100
AcDbEntity
  8
Mesh_cs003
100
AcDbLine
 10
30.41
 20
300.074
 30
11.9
 11
80
 21
300.074
 31
11.9
  0
LINE
  5
A3A
330
A02
100
AcDbEntity
  8
Mesh_cs003
100
AcDbLine
 10
14.9
 20
14.4033
 30
11.9
 11
14.9
 21
0
 31
11.9
  0
LINE
  5
A3B
330
A02
100
AcDbEntity
  8
Mesh_cs003
100
AcDbLine
 10
14.9
 20
0
 30
11.9
 11
0.496668
 21
0
 31
11.9
  0
LINE
  5
A3C
330
A02
100
AcDbEntity
  8
Mesh_cs003
100
AcDbLine
 10
0.496668
 20
0
 30
11.9
 11
0
 21
0
 31
11.9
  0
LINE
  5
A3D
330
A02
100
AcDbEntity
  8
Mesh_cs003
100
AcDbLine
 10
0
 20
0
 30
11.9
 11
0
 21
0.496668
 31
11.9
  0
LINE
  5
A3E
330
A02
100
AcDbEntity
  8
Mesh_cs003
100
AcDbLine
 10
0
 20
0.496668
 30
11.9
 11
0
 21
14.9
 31
11.9
  0
LINE
  5
A3F
330
A02
100
AcDbEntity
  8
Mesh_cs003
100
AcDbLine
 10
0
 20
14.9
 30
11.9
 11
0.496668
 21
14.9
 31
11.9
  0
LINE
  5
A40
330
A02
100
AcDbEntity
  8
Mesh_cs003
100
AcDbLine
 10
0.496668
 20
14.9
 30
11.9
 11
14.9
 21
14.9
 31
11.9
  0
LINE
  5
A41
330
A02
100
AcDbEntity
  8
Mesh_cs003
100
AcDbLine
 10
14.9
 20
14.9
 30
11.9
 11
14.9
 21
14.4033
 31
11.9
  0
LINE
  5
A42
330
A02
100
AcDbEntity
  8
Mesh_cs003
100
AcDbLine
 10
195
 20
24.9
 30
11.9
 11
195
 21
33.2425
 31
11.9
  0
LINE
  5
A43
330
A02
100
AcDbEntity
  8
Mesh_cs003
100
AcDbLine
 10
195
 20
33.2425
 30
11.9
 11
195
 21
275.174
 31
11.9
  0
LINE
  5
A44
330
A02
100
AcDbEntity
  8
Mesh_cs003
100
AcDbLine
 10
195
 20
275.174
 30
11.9
 11
194.337
 21
275.174
 31
11.9
  0
LINE
  5
A45
330
A02
100
AcDbEntity
  8
Mesh_cs003
100
AcDbLine
 10
194.337
 20
275.174
 30
11.9
 11
175.1
 21
275.174
 31
11.9
  0
LINE
  5
A46
330
A02
100
AcDbEntity
  8
Mesh_cs003
100
AcDbLine
 10
175.1
 20
275.174
 30
11.9
 11
175.084
 21
275.175
 31
11.9
  0
LINE
  5
A47
330
A02
100
AcDbEntity
  8
Mesh_cs003
100
AcDbLine
 10
175.084
 20
275.175
 30
11.9
 11
173.864
 21
275.331
 31
11.9
  0
LINE
  5
A48
330
A02
100
AcDbEntity
  8
Mesh_cs003
100
AcDbLine
 10
173.864
 20
275.331
 30
11.9
 11
173.847
 21
275.334
 31
11.9
  0
LINE
  5
A49
330
A02
100
AcDbEntity
  8
Mesh_cs003
100
AcDbLine
 10
173.847
 20
275.334
 30
11.9
 11
173.815
 21
275.344
 31
11.9
  0
LINE
  5
A4A
330
A02
100
AcDbEntity
  8
Mesh_cs003
100
AcDbLine
 10
173.815
 20
275.344
 30
11.9
 11
172.671
 21
275.805
 31
11.9
  0
LINE
  5
A4B
330
A02
100
AcDbEntity
  8
Mesh_cs003
100
AcDbLine
 10
172.671
 20
275.805
 30
11.9
 11
172.64
 21
275.822
 31
11.9
  0
LINE
  5
A4C
330
A02
100
AcDbEntity
  8
Mesh_cs003
100
AcDbLine
 10
172.64
 20
275.822
 30
11.9
 11
171.649
 21
276.558
 31
11.9
  0
LINE
  5
A4D
330
A02
100
AcDbEntity
  8
Mesh_cs003
100
AcDbLine
 10
171.649
 20
276.558
 30
11.9
 11
171.622
 21
276.582
 31
11.9
  0
LINE
  5
A4E
330
A02
100
AcDbEntity
  8
Mesh_cs003
100
AcDbLine
 10
171.622
 20
276.582
 30
11.9
 11
170.85
 21
277.546
 31
11.9
  0
LINE
  5
A4F
330
A02
100
AcDbEntity
  8
Mesh_cs003
100
AcDbLine
 10
170.85
 20
277.546
 30
11.9
 11
170.827
 21
277.578
 31
11.9
  0
LINE
  5
A50
330
A02
100
AcDbEntity
  8
Mesh_cs003
100
AcDbLine
 10
170.827
 20
277.578
 30
11.9
 11
170.324
 21
278.705
 31
11.9
  0
LINE
  5
A51
330
A02
100
AcDbEntity
  8
Mesh_cs003
100
AcDbLine
 10
170.324
 20
278.705
 30
11.9
 11
170.309
 21
278.744
 31
11.9
  0
LINE
  5
A52
330
A02
100
AcDbEntity
  8
Mesh_cs003
100
AcDbLine
 10
170.309
 20
278.744
 30
11.9
 11
170.156
 21
279.433
 31
11.9
  0
LINE
  5
A53
330
A02
100
AcDbEntity
  8
Mesh_cs003
100
AcDbLine
 10
170.156
 20
279.433
 30
11.9
 11
170.151
 21
279.472
 31
11.9
  0
LINE
  5
A54
330
A02
100
AcDbEntity
  8
Mesh_cs003
100
AcDbLine
 10
170.151
 20
279.472
 30
11.9
 11
170.1
 21
280.174
 31
11.9
  0
LINE
  5
A55
330
A02
100
AcDbEntity
  8
Mesh_cs003
100
AcDbLine
 10
170.1
 20
280.174
 30
11.9
 11
170.1
 21
299.411
 31
11.9
  0
LINE
  5
A56
330
A02
100
AcDbEntity
  8
Mesh_cs003
100
AcDbLine
 10
170.1
 20
299.411
 30
11.9
 11
170.1
 21
300.074
 31
11.9
  0
LINE
  5
A57
330
A02
100
AcDbEntity
  8
Mesh_cs003
100
AcDbLine
 10
170.1
 20
300.074
 30
11.9
 11
164.59
 21
300.074
 31
11.9
  0
LINE
  5
A58
330
A02
100
AcDbEntity
  8
Mesh_cs003
100
AcDbLine
 10
164.59
 20
300.074
 30
11.9
 11
115
 21
300.074
 31
11.9
  0
LINE
  5
A59
330
A02
100
AcDbEntity
  8
Mesh_cs003
100
AcDbLine
 10
115
 20
300.074
 30
11.9
 11
115
 21
30.0075
 31
11.9
  0
LINE
  5
A5A
330
A02
100
AcDbEntity
  8
Mesh_cs003
100
AcDbLine
 10
115
 20
30.0075
 30
11.9
 11
115
 21
0
 31
11.9
  0
LINE
  5
A5B
330
A02
100
AcDbEntity
  8
Mesh_cs003
100
AcDbLine
 10
115
 20
0
 30
11.9
 11
164.59
 21
0
 31
11.9
  0
LINE
  5
A5C
330
A02
100
AcDbEntity
  8
Mesh_cs003
100
AcDbLine
 10
164.59
 20
0
 30
11.9
 11
170.1
 21
-1.33334e-16
 31
11.9
  0
LINE
  5
A5D
330
A02
100
AcDbEntity
  8
Mesh_cs003
100
AcDbLine
 10
170.1
 20
-1.33334e-16
 30
11.9
 11
170.1
 21
19.2367
 31
11.9
  0
LINE
  5
A5E
330
A02
100
AcDbEntity
  8
Mesh_cs003
100
AcDbLine
 10
170.1
 20
19.2367
 30
11.9
 11
170.1
 21
19.9
 31
11.9
  0
LINE
  5
A5F
330
A02
100
AcDbEntity
  8
Mesh_cs003
100
AcDbLine
 10
170.1
 20
19.9
 30
11.9
 11
170.151
 21
20.6018
 31
11.9
  0
LINE
  5
A60
330
A02
100
AcDbEntity
  8
Mesh_cs003
100
AcDbLine
 10
170.151
 20
20.6018
 30
11.9
 11
170.156
 21
20.6413
 31
11.9
  0
LINE
  5
A61
330
A02
100
AcDbEntity
  8
Mesh_cs003
100
AcDbLine
 10
170.156
 20
20.6413
 30
11.9
 11
170.309
 21
21.3297
 31
11.9
  0
LINE
  5
A62
330
A02
100
AcDbEntity
  8
Mesh_cs003
100
AcDbLine
 10
170.309
 20
21.3297
 30
11.9
 11
170.324
 21
21.3695
 31
11.9
  0
LINE
  5
A63
330
A02
100
AcDbEntity
  8
Mesh_cs003
100
AcDbLine
 10
170.324
 20
21.3695
 30
11.9
 11
170.827
 21
22.4958
 31
11.9
  0
LINE
  5
A64
330
A02
100
AcDbEntity
  8
Mesh_cs003
100
AcDbLine
 10
170.827
 20
22.4958
 30
11.9
 11
170.85
 21
22.5283
 31
11.9
  0
LINE
  5
A65
330
A02
100
AcDbEntity
  8
Mesh_cs003
100
AcDbLine
 10
170.85
 20
22.5283
 30
11.9
 11
171.622
 21
23.4917
 31
11.9
  0
LINE
  5
A66
330
A02
100
AcDbEntity
  8
Mesh_cs003
100
AcDbLine
 10
171.622
 20
23.4917
 30
11.9
 11
171.649
 21
23.5157
 31
11.9
  0
LINE
  5
A67
330
A02
100
AcDbEntity
  8
Mesh_cs003
100
AcDbLine
 10
171.649
 20
23.5157
 30
11.9
 11
172.64
 21
24.252
 31
11.9
  0
LINE
  5
A68
330
A02
100
AcDbEntity
  8
Mesh_cs003
100
AcDbLine
 10
172.64
 20
24.252
 30
11.9
 11
172.671
 21
24.2693
 31
11.9
  0
LINE
  5
A69
330
A02
100
AcDbEntity
  8
Mesh_cs003
100
AcDbLine
 10
172.671
 20
24.2693
 30
11.9
 11
173.815
 21
24.7301
 31
11.9
  0
LINE
  5
A6A
330
A02
100
AcDbEntity
  8
Mesh_cs003
100
AcDbLine
 10
173.815
 20
24.7301
 30
11.9
 11
173.847
 21
24.7403
 31
11.9
  0
LINE
  5
A6B
330
A02
100
AcDbEntity
  8
Mesh_cs003
100
AcDbLine
 10
173.847
 20
24.7403
 30
11.9
 11
173.864
 21
24.7428
 31
11.9
  0
LINE
  5
A6C
330
A02
100
AcDbEntity
  8
Mesh_cs003
100
AcDbLine
 10
173.864
 20
24.7428
 30
11.9
 11
175.084
 21
24.8992
 31
11.9
  0
LINE
  5
A6D
330
A02
100
AcDbEntity
  8
Mesh_cs003
100
AcDbLine
 10
175.084
 20
24.8992
 30
11.9
 11
175.1
 21
24.9
 31
11.9
  0
LINE
  5
A6E
330
A02
100
AcDbEntity
  8
Mesh_cs003
100
AcDbLine
 10
175.1
 20
24.9
 30
11.9
 11
194.337
 21
24.9
 31
11.9
  0
LINE
  5
A6F
330
A02
100
AcDbEntity
  8
Mesh_cs003
100
AcDbLine
 10
194.337
 20
24.9
 30
11.9
 11
195
 21
24.9
 31
11.9
  0
LINE
  5
A70
330
A02
100
AcDbEntity
  8
Mesh_cs003
100
AcDbLine
 10
195
 20
285.174
 30
11.9
 11
195
 21
299.577
 31
11.9
  0
LINE
  5
A71
330
A02
100
AcDbEntity
  8
Mesh_cs003
100
AcDbLine
 10
195
 20
299.577
 30
11.9
 11
195
 21
300.074
 31
11.9
  0
LINE
  5
A72
330
A02
100
AcDbEntity
  8
Mesh_cs003
100
AcDbLine
 10
195
 20
300.074
 30
11.9
 11
194.503
 21
300.074
 31
11.9
  0
LINE
  5
A73
330
A02
100
AcDbEntity
  8
Mesh_cs003
100
AcDbLine
 10
194.503
 20
300.074
 30
11.9
 11
180.1
 21
300.074
 31
11.9
  0
LINE
  5
A74
330
A02
100
AcDbEntity
  8
Mesh_cs003
100
AcDbLine
 10
180.1
 20
300.074
 30
11.9
 11
180.1
 21
285.671
 31
11.9
  0
LINE
  5
A75
330
A02
100
AcDbEntity
  8
Mesh_cs003
100
AcDbLine
 10
180.1
 20
285.671
 30
11.9
 11
180.1
 21
285.174
 31
11.9
  0
LINE
  5
A76
330
A02
100
AcDbEntity
  8
Mesh_cs003
100
AcDbLine
 10
180.1
 20
285.174
 30
11.9
 11
194.503
 21
285.174
 31
11.9
  0
LINE
  5
A77
330
A02
100
AcDbEntity
  8
Mesh_cs003
100
AcDbLine
 10
194.503
 20
285.174
 30
11.9
 11
195
 21
285.174
 31
11.9
  0
LINE
  5
A78
330
A02
100
AcDbEntity
  8
Mesh_cs003
100
AcDbLine
 10
195
 20
14.9
 30
11.9
 11
195
 21
0.496668
 31
11.9
  0
LINE
  5
A79
330
A02
100
AcDbEntity
  8
Mesh_cs003
100
AcDbLine
 10
195
 20
0.496668
 30
11.9
 11
195
 21
0
 31
11.9
  0
LINE
  5
A7A
330
A02
100
AcDbEntity
  8
Mesh_cs003
100
AcDbLine
 10
195
 20
0
 30
11.9
 11
194.503
 21
0
 31
11.9
  0
LINE
  5
A7B
330
A02
100
AcDbEntity
  8
Mesh_cs003
100
AcDbLine
 10
194.503
 20
0
 30
11.9
 11
180.1
 21
0
 31
11.9
  0
LINE
  5
A7C
330
A02
100
AcDbEntity
  8
Mesh_cs003
100
AcDbLine
 10
180.1
 20
0
 30
11.9
 11
180.1
 21
14.4033
 31
11.9
  0
LINE
  5
A7D
330
A02
100
AcDbEntity
  8
Mesh_cs003
100
AcDbLine
 10
180.1
 20
14.4033
 30
11.9
 11
180.1
 21
14.9
 31
11.9
  0
LINE
  5
A7E
330
A02
100
AcDbEntity
  8
Mesh_cs003
100
AcDbLine
 10
180.1
 20
14.9
 30
11.9
 11
194.503
 21
14.9
 31
11.9
  0
LINE
  5
A7F
330
A02
100
AcDbEntity
  8
Mesh_cs003
100
AcDbLine
 10
194.503
 20
14.9
 30
11.9
 11
195
 21
14.9
 31
11.9
  0
ENDSEC
  0
SECTION
  2
OBJECTS
  0
DICTIONARY
  5
F000
330
0
100
AcDbDictionary
  3
ACAD_GROUP
350
F001
  0
DICTIONARY
  5
F001
330
F000
100
AcDbDictionary
  0
ENDSEC
  0
EOF