999
FreeCAD v0.21 33771 (Git)
  0
SECTION
  2
HEADER
  9
$ACADVER
  1
AC1014
  9
$ACADMAINTVER
 70
     9
  9
$DWGCODEPAGE
  3
ANSI_1252
  9
$TEXTSTYLE
  7
STANDARD
  9
$DIMSTYLE
  2
STANDARD
  9
$DIMTXSTY
  7
STANDARD
  9
$CMLSTYLE
  2
STANDARD
  9
$LUNITS
 70
2
  9
$INSUNITS
 70
4
  9
$PEXTMAX
 10
50
 20
50
 30
50
  9
$PEXTMIN
 10
0
 20
0
 30
0
  9
$HANDSEED
  5
FFFF
  0
ENDSEC
  0
SECTION
  2
CLASSES
  0
CLASS
  1
ACDBDICTIONARYWDFLT
  2
AcDbDictionaryWithDefault
  3
ObjectDBX Classes
 90
        0
280
     0
281
     0
  0
CLASS
  1
XRECORD
  2
AcDbXrecord
  3
ObjectDBX Classes
 90
        0
280
     0
281
     0
  0
CLASS
  1
LWPOLYLINE
  2
AcDbPolyline
  3
ObjectDBX Classes
 90
        0
280
     0
281
     1
  0
ENDSEC
  0
SECTION
  2
TABLES
  0
TABLE
  2
VPORT
  5
20
330
0
100
AcDbSymbolTable
 70
     1
  0
VPORT
  5
21
330
20
100
AcDbSymbolTableRecord
100
AcDbViewportTableRecord
  2
*ACTIVE
 70
     0
  0
ENDTAB
  0
TABLE
  2
LTYPE
  5
22
330
0
100
AcDbSymbolTable
 70
     1
  0
LTYPE
  5
23
330
21
100
AcDbSymbolTableRecord
100
AcDbLinetypeTableRecord
  2
BYBLOCK
 70
     0
  3

 72
    65
 73
     0
 40
0.0
  0
LTYPE
  5
24
330
21
100
AcDbSymbolTableRecord
100
AcDbLinetypeTableRecord
  2
BYLAYER
 70
     0
  3

 72
    65
 73
     0
 40
0.0
  0
LTYPE
  5
25
330
21
100
AcDbSymbolTableRecord
100
AcDbLinetypeTableRecord
  2
CONTINUOUS
 70
     0
  3
Solid line
 72
    65
 73
     0
 40
0.0
  0
ENDTAB
  0
TABLE
  2
LAYER
  5
CCF
330
0
100
AcDbSymbolTable
 70
3
  0
LAYER
  5
CD0
330
CCF
100
AcDbSymbolTableRecord
100
AcDbLayerTableRecord
  2
0
 70
   0
 62
   7
  6
CONTINUOUS
  0
LAYER
  5
CD1
330
CCF
100
AcDbSymbolTableRecord
100
AcDbLayerTableRecord
  2
none
 70
    0
 62
    7
  6
CONTINUOUS
  0
LAYER
  5
CD2
330
CCF
100
AcDbSymbolTableRecord
100
AcDbLayerTableRecord
  2
Mesh_cs002
 70
    0
 62
    7
  6
CONTINUOUS
  0
ENDTAB
  0
TABLE
  2
STYLE
  5
70
330
0
100
AcDbSymbolTable
 70
     2
  0
STYLE
  5
71
330
70
100
AcDbSymbolTableRecord
100
AcDbTextStyleTableRecord
  2
STANDARD
 70
     0
 40
0.0
 41
1.0
 50
0.0
 71
     0
 42
2.5
  3
arial.ttf
  4

  0
STYLE
  5
72
330
70
100
AcDbSymbolTableRecord
100
AcDbTextStyleTableRecord
  2
ANNOTATIVE
 70
     0
 40
0.0
 41
1.0
 50
0.0
 71
     0
 42
2.5
  3
arial.ttf
  4

  0
ENDTAB
  0
TABLE
  2
VIEW
  5
73
330
0
100
AcDbSymbolTable
 70
     0
  0
ENDTAB
  0
TABLE
  2
UCS
  5
74
330
0
100
AcDbSymbolTable
 70
     0
  0
ENDTAB
  0
TABLE
  2
APPID
  5
75
330
0
100
AcDbSymbolTable
 70
     2
  0
APPID
  5
76
330
75
100
AcDbSymbolTableRecord
100
AcDbRegAppTableRecord
  2
ACAD
 70
     0
  0
APPID
  5
77
330
75
100
AcDbSymbolTableRecord
100
AcDbRegAppTableRecord
  2
ACADANNOTATIVE
 70
     0
  0
ENDTAB
  0
TABLE
  2
DIMSTYLE
  5
78
330
0
100
AcDbSymbolTable
 70
     2
  0
DIMSTYLE
105
79
330
78
100
AcDbSymbolTableRecord
100
AcDbDimStyleTableRecord
  2
STANDARD
 70
     0
  3

  4

  5

  6

  7

 40
0.0
 41
2.5
 42
0.625
 43
3.75
 44
1.25
 45
0.0
 46
0.0
 47
0.0
 48
0.0
140
2.5
141
2.5
142
0.0
143
0.03937007874016
144
1.0
145
0.0
146
1.0
147
0.625
 71
     0
 72
     0
 73
     0
 74
     0
 75
     0
 76
     0
 77
     1
 78
     8
170
     0
171
     3
172
     1
173
     0
174
     0
175
     0
176
     0
177
     0
178
     0
270
     2
271
     2
272
     2
273
     2
274
     3
340
71
275
     0
280
     0
281
     0
282
     0
283
     0
284
     8
285
     0
286
     0
287
     3
288
     0
  0
ENDTAB
  0
TABLE
  2
BLOCK_RECORD
  5
A01
330
0
100
AcDbSymbolTable
  70
5
  0
BLOCK_RECORD
  5
A02
330
A01
100
AcDbSymbolTableRecord
100
AcDbBlockTableRecord
  2
*MODEL_SPACE
  0
BLOCK_RECORD
  5
A03
330
A01
100
AcDbSymbolTableRecord
100
AcDbBlockTableRecord
  2
*PAPER_SPACE
  0
ENDTAB
  0
ENDSEC
  0
SECTION
  2
BLOCKS
  0
BLOCK
  5
A04
330
A02
100
AcDbEntity
  8
0
100
AcDbBlockBegin
  2
*MODEL_SPACE
 70
   0
 10
0
 20
0
 30
0
  3
*MODEL_SPACE
  1
 
  0
ENDBLK
  5
A05
330
A02
100
AcDbEntity
  8
0
100
AcDbBlockEnd
  0
BLOCK
  5
A06
330
A03
100
AcDbEntity
 67
1
  8
0
100
AcDbBlockBegin
  2
*PAPER_SPACE
 70
   0
 10
0
 20
0
 30
0
  3
*PAPER_SPACE
  1
 
  0
ENDBLK
  5
A07
330
A03
100
AcDbEntity
 67
    1
  8
0
100
AcDbBlockEnd
  0
ENDSEC
  0
SECTION
  2
ENTITIES
  0
LINE
  5
A08
330
A02
100
AcDbEntity
  8
Mesh_cs002
100
AcDbLine
 10
-290.248
 20
264.404
 30
5.1
 11
-290.27
 21
264.415
 31
5.1
  0
LINE
  5
A09
330
A02
100
AcDbEntity
  8
Mesh_cs002
100
AcDbLine
 10
-290.27
 20
264.415
 30
5.1
 11
-290.598
 21
264.569
 31
5.1
  0
LINE
  5
A0A
330
A02
100
AcDbEntity
  8
Mesh_cs002
100
AcDbLine
 10
-290.598
 20
264.569
 30
5.1
 11
-290.729
 21
264.621
 31
5.1
  0
LINE
  5
A0B
330
A02
100
AcDbEntity
  8
Mesh_cs002
100
AcDbLine
 10
-290.729
 20
264.621
 30
5.1
 11
-290.987
 21
264.717
 31
5.1
  0
LINE
  5
A0C
330
A02
100
AcDbEntity
  8
Mesh_cs002
100
AcDbLine
 10
-290.987
 20
264.717
 30
5.1
 11
-292.071
 21
266.002
 31
5.1
  0
LINE
  5
A0D
330
A02
100
AcDbEntity
  8
Mesh_cs002
100
AcDbLine
 10
-292.071
 20
266.002
 30
5.1
 11
-293.537
 21
267.741
 31
5.1
  0
LINE
  5
A0E
330
A02
100
AcDbEntity
  8
Mesh_cs002
100
AcDbLine
 10
-293.537
 20
267.741
 30
5.1
 11
-294.634
 21
269.017
 31
5.1
  0
LINE
  5
A0F
330
A02
100
AcDbEntity
  8
Mesh_cs002
100
AcDbLine
 10
-294.634
 20
269.017
 30
5.1
 11
-296.118
 21
270.744
 31
5.1
  0
LINE
  5
A10
330
A02
100
AcDbEntity
  8
Mesh_cs002
100
AcDbLine
 10
-296.118
 20
270.744
 30
5.1
 11
-297.257
 21
272.042
 31
5.1
  0
LINE
  5
A11
330
A02
100
AcDbEntity
  8
Mesh_cs002
100
AcDbLine
 10
-297.257
 20
272.042
 30
5.1
 11
-298.796
 21
273.798
 31
5.1
  0
LINE
  5
A12
330
A02
100
AcDbEntity
  8
Mesh_cs002
100
AcDbLine
 10
-298.796
 20
273.798
 30
5.1
 11
-299.947
 21
275.085
 31
5.1
  0
LINE
  5
A13
330
A02
100
AcDbEntity
  8
Mesh_cs002
100
AcDbLine
 10
-299.947
 20
275.085
 30
5.1
 11
-301.504
 21
276.827
 31
5.1
  0
LINE
  5
A14
330
A02
100
AcDbEntity
  8
Mesh_cs002
100
AcDbLine
 10
-301.504
 20
276.827
 30
5.1
 11
-303.079
 21
278.552
 31
5.1
  0
LINE
  5
A15
330
A02
100
AcDbEntity
  8
Mesh_cs002
100
AcDbLine
 10
-303.079
 20
278.552
 30
5.1
 11
-304.242
 21
279.828
 31
5.1
  0
LINE
  5
A16
330
A02
100
AcDbEntity
  8
Mesh_cs002
100
AcDbLine
 10
-304.242
 20
279.828
 30
5.1
 11
-305.833
 21
281.538
 31
5.1
  0
LINE
  5
A17
330
A02
100
AcDbEntity
  8
Mesh_cs002
100
AcDbLine
 10
-305.833
 20
281.538
 30
5.1
 11
-307.009
 21
282.803
 31
5.1
  0
LINE
  5
A18
330
A02
100
AcDbEntity
  8
Mesh_cs002
100
AcDbLine
 10
-307.009
 20
282.803
 30
5.1
 11
-308.198
 21
284.055
 31
5.1
  0
LINE
  5
A19
330
A02
100
AcDbEntity
  8
Mesh_cs002
100
AcDbLine
 10
-308.198
 20
284.055
 30
5.1
 11
-309.806
 21
285.75
 31
5.1
  0
LINE
  5
A1A
330
A02
100
AcDbEntity
  8
Mesh_cs002
100
AcDbLine
 10
-309.806
 20
285.75
 30
5.1
 11
-311.006
 21
286.991
 31
5.1
  0
LINE
  5
A1B
330
A02
100
AcDbEntity
  8
Mesh_cs002
100
AcDbLine
 10
-311.006
 20
286.991
 30
5.1
 11
-312.631
 21
288.669
 31
5.1
  0
LINE
  5
A1C
330
A02
100
AcDbEntity
  8
Mesh_cs002
100
AcDbLine
 10
-312.631
 20
288.669
 30
5.1
 11
-314.272
 21
290.332
 31
5.1
  0
LINE
  5
A1D
330
A02
100
AcDbEntity
  8
Mesh_cs002
100
AcDbLine
 10
-314.272
 20
290.332
 30
5.1
 11
-315.485
 21
291.561
 31
5.1
  0
LINE
  5
A1E
330
A02
100
AcDbEntity
  8
Mesh_cs002
100
AcDbLine
 10
-315.485
 20
291.561
 30
5.1
 11
-317.142
 21
293.208
 31
5.1
  0
LINE
  5
A1F
330
A02
100
AcDbEntity
  8
Mesh_cs002
100
AcDbLine
 10
-317.142
 20
293.208
 30
5.1
 11
-318.367
 21
294.425
 31
5.1
  0
LINE
  5
A20
330
A02
100
AcDbEntity
  8
Mesh_cs002
100
AcDbLine
 10
-318.367
 20
294.425
 30
5.1
 11
-319.604
 21
295.63
 31
5.1
  0
LINE
  5
A21
330
A02
100
AcDbEntity
  8
Mesh_cs002
100
AcDbLine
 10
-319.604
 20
295.63
 30
5.1
 11
-321.278
 21
297.26
 31
5.1
  0
LINE
  5
A22
330
A02
100
AcDbEntity
  8
Mesh_cs002
100
AcDbLine
 10
-321.278
 20
297.26
 30
5.1
 11
-322.526
 21
298.453
 31
5.1
  0
LINE
  5
A23
330
A02
100
AcDbEntity
  8
Mesh_cs002
100
AcDbLine
 10
-322.526
 20
298.453
 30
5.1
 11
-324.216
 21
300.066
 31
5.1
  0
LINE
  5
A24
330
A02
100
AcDbEntity
  8
Mesh_cs002
100
AcDbLine
 10
-324.216
 20
300.066
 30
5.1
 11
-325.476
 21
301.247
 31
5.1
  0
LINE
  5
A25
330
A02
100
AcDbEntity
  8
Mesh_cs002
100
AcDbLine
 10
-325.476
 20
301.247
 30
5.1
 11
-327.182
 21
302.844
 31
5.1
  0
LINE
  5
A26
330
A02
100
AcDbEntity
  8
Mesh_cs002
100
AcDbLine
 10
-327.182
 20
302.844
 30
5.1
 11
-328.903
 21
304.424
 31
5.1
  0
LINE
  5
A27
330
A02
100
AcDbEntity
  8
Mesh_cs002
100
AcDbLine
 10
-328.903
 20
304.424
 30
5.1
 11
-330.175
 21
305.592
 31
5.1
  0
LINE
  5
A28
330
A02
100
AcDbEntity
  8
Mesh_cs002
100
AcDbLine
 10
-330.175
 20
305.592
 30
5.1
 11
-331.458
 21
306.748
 31
5.1
  0
LINE
  5
A29
330
A02
100
AcDbEntity
  8
Mesh_cs002
100
AcDbLine
 10
-331.458
 20
306.748
 30
5.1
 11
-333.195
 21
308.311
 31
5.1
  0
LINE
  5
A2A
330
A02
100
AcDbEntity
  8
Mesh_cs002
100
AcDbLine
 10
-333.195
 20
308.311
 30
5.1
 11
-334.947
 21
309.857
 31
5.1
  0
LINE
  5
A2B
330
A02
100
AcDbEntity
  8
Mesh_cs002
100
AcDbLine
 10
-334.947
 20
309.857
 30
5.1
 11
-336.242
 21
311
 31
5.1
  0
LINE
  5
A2C
330
A02
100
AcDbEntity
  8
Mesh_cs002
100
AcDbLine
 10
-336.242
 20
311
 30
5.1
 11
-337.548
 21
312.13
 31
5.1
  0
LINE
  5
A2D
330
A02
100
AcDbEntity
  8
Mesh_cs002
100
AcDbLine
 10
-337.548
 20
312.13
 30
5.1
 11
-339.315
 21
313.659
 31
5.1
  0
LINE
  5
A2E
330
A02
100
AcDbEntity
  8
Mesh_cs002
100
AcDbLine
 10
-339.315
 20
313.659
 30
5.1
 11
-340.632
 21
314.776
 31
5.1
  0
LINE
  5
A2F
330
A02
100
AcDbEntity
  8
Mesh_cs002
100
AcDbLine
 10
-340.632
 20
314.776
 30
5.1
 11
-342.414
 21
316.288
 31
5.1
  0
LINE
  5
A30
330
A02
100
AcDbEntity
  8
Mesh_cs002
100
AcDbLine
 10
-342.414
 20
316.288
 30
5.1
 11
-343.742
 21
317.392
 31
5.1
  0
LINE
  5
A31
330
A02
100
AcDbEntity
  8
Mesh_cs002
100
AcDbLine
 10
-343.742
 20
317.392
 30
5.1
 11
-345.539
 21
318.886
 31
5.1
  0
LINE
  5
A32
330
A02
100
AcDbEntity
  8
Mesh_cs002
100
AcDbLine
 10
-345.539
 20
318.886
 30
5.1
 11
-347.35
 21
320.362
 31
5.1
  0
LINE
  5
A33
330
A02
100
AcDbEntity
  8
Mesh_cs002
100
AcDbLine
 10
-347.35
 20
320.362
 30
5.1
 11
-348.689
 21
321.453
 31
5.1
  0
LINE
  5
A34
330
A02
100
AcDbEntity
  8
Mesh_cs002
100
AcDbLine
 10
-348.689
 20
321.453
 30
5.1
 11
-350.039
 21
322.531
 31
5.1
  0
LINE
  5
A35
330
A02
100
AcDbEntity
  8
Mesh_cs002
100
AcDbLine
 10
-350.039
 20
322.531
 30
5.1
 11
-351.865
 21
323.989
 31
5.1
  0
LINE
  5
A36
330
A02
100
AcDbEntity
  8
Mesh_cs002
100
AcDbLine
 10
-351.865
 20
323.989
 30
5.1
 11
-353.225
 21
325.054
 31
5.1
  0
LINE
  5
A37
330
A02
100
AcDbEntity
  8
Mesh_cs002
100
AcDbLine
 10
-353.225
 20
325.054
 30
5.1
 11
-355.065
 21
326.494
 31
5.1
  0
LINE
  5
A38
330
A02
100
AcDbEntity
  8
Mesh_cs002
100
AcDbLine
 10
-355.065
 20
326.494
 30
5.1
 11
-356.436
 21
327.545
 31
5.1
  0
LINE
  5
A39
330
A02
100
AcDbEntity
  8
Mesh_cs002
100
AcDbLine
 10
-356.436
 20
327.545
 30
5.1
 11
-358.29
 21
328.967
 31
5.1
  0
LINE
  5
A3A
330
A02
100
AcDbEntity
  8
Mesh_cs002
100
AcDbLine
 10
-358.29
 20
328.967
 30
5.1
 11
-360.159
 21
330.371
 31
5.1
  0
LINE
  5
A3B
330
A02
100
AcDbEntity
  8
Mesh_cs002
100
AcDbLine
 10
-360.159
 20
330.371
 30
5.1
 11
-361.54
 21
331.409
 31
5.1
  0
LINE
  5
A3C
330
A02
100
AcDbEntity
  8
Mesh_cs002
100
AcDbLine
 10
-361.54
 20
331.409
 30
5.1
 11
-362.931
 21
332.433
 31
5.1
  0
LINE
  5
A3D
330
A02
100
AcDbEntity
  8
Mesh_cs002
100
AcDbLine
 10
-362.931
 20
332.433
 30
5.1
 11
-364.813
 21
333.818
 31
5.1
  0
LINE
  5
A3E
330
A02
100
AcDbEntity
  8
Mesh_cs002
100
AcDbLine
 10
-364.813
 20
333.818
 30
5.1
 11
-366.074
 21
334.728
 31
5.1
  0
LINE
  5
A3F
330
A02
100
AcDbEntity
  8
Mesh_cs002
100
AcDbLine
 10
-366.074
 20
334.728
 30
5.1
 11
-367.779
 21
335.959
 31
5.1
  0
LINE
  5
A40
330
A02
100
AcDbEntity
  8
Mesh_cs002
100
AcDbLine
 10
-367.779
 20
335.959
 30
5.1
 11
-369.496
 21
337.175
 31
5.1
  0
LINE
  5
A41
330
A02
100
AcDbEntity
  8
Mesh_cs002
100
AcDbLine
 10
-369.496
 20
337.175
 30
5.1
 11
-370.764
 21
338.074
 31
5.1
  0
LINE
  5
A42
330
A02
100
AcDbEntity
  8
Mesh_cs002
100
AcDbLine
 10
-370.764
 20
338.074
 30
5.1
 11
-372.041
 21
338.961
 31
5.1
  0
LINE
  5
A43
330
A02
100
AcDbEntity
  8
Mesh_cs002
100
AcDbLine
 10
-372.041
 20
338.961
 30
5.1
 11
-373.768
 21
340.162
 31
5.1
  0
LINE
  5
A44
330
A02
100
AcDbEntity
  8
Mesh_cs002
100
AcDbLine
 10
-373.768
 20
340.162
 30
5.1
 11
-375.506
 21
341.348
 31
5.1
  0
LINE
  5
A45
330
A02
100
AcDbEntity
  8
Mesh_cs002
100
AcDbLine
 10
-375.506
 20
341.348
 30
5.1
 11
-376.79
 21
342.224
 31
5.1
  0
LINE
  5
A46
330
A02
100
AcDbEntity
  8
Mesh_cs002
100
AcDbLine
 10
-376.79
 20
342.224
 30
5.1
 11
-378.082
 21
343.088
 31
5.1
  0
LINE
  5
A47
330
A02
100
AcDbEntity
  8
Mesh_cs002
100
AcDbLine
 10
-378.082
 20
343.088
 30
5.1
 11
-379.831
 21
344.258
 31
5.1
  0
LINE
  5
A48
330
A02
100
AcDbEntity
  8
Mesh_cs002
100
AcDbLine
 10
-379.831
 20
344.258
 30
5.1
 11
-381.13
 21
345.112
 31
5.1
  0
LINE
  5
A49
330
A02
100
AcDbEntity
  8
Mesh_cs002
100
AcDbLine
 10
-381.13
 20
345.112
 30
5.1
 11
-382.889
 21
346.266
 31
5.1
  0
LINE
  5
A4A
330
A02
100
AcDbEntity
  8
Mesh_cs002
100
AcDbLine
 10
-382.889
 20
346.266
 30
5.1
 11
-384.196
 21
347.108
 31
5.1
  0
LINE
  5
A4B
330
A02
100
AcDbEntity
  8
Mesh_cs002
100
AcDbLine
 10
-384.196
 20
347.108
 30
5.1
 11
-385.965
 21
348.247
 31
5.1
  0
LINE
  5
A4C
330
A02
100
AcDbEntity
  8
Mesh_cs002
100
AcDbLine
 10
-385.965
 20
348.247
 30
5.1
 11
-387.28
 21
349.077
 31
5.1
  0
LINE
  5
A4D
330
A02
100
AcDbEntity
  8
Mesh_cs002
100
AcDbLine
 10
-387.28
 20
349.077
 30
5.1
 11
-389.059
 21
350.2
 31
5.1
  0
LINE
  5
A4E
330
A02
100
AcDbEntity
  8
Mesh_cs002
100
AcDbLine
 10
-389.059
 20
350.2
 30
5.1
 11
-390.847
 21
351.307
 31
5.1
  0
LINE
  5
A4F
330
A02
100
AcDbEntity
  8
Mesh_cs002
100
AcDbLine
 10
-390.847
 20
351.307
 30
5.1
 11
-392.169
 21
352.126
 31
5.1
  0
LINE
  5
A50
330
A02
100
AcDbEntity
  8
Mesh_cs002
100
AcDbLine
 10
-392.169
 20
352.126
 30
5.1
 11
-393.968
 21
353.217
 31
5.1
  0
LINE
  5
A51
330
A02
100
AcDbEntity
  8
Mesh_cs002
100
AcDbLine
 10
-393.968
 20
353.217
 30
5.1
 11
-395.297
 21
354.024
 31
5.1
  0
LINE
  5
A52
330
A02
100
AcDbEntity
  8
Mesh_cs002
100
AcDbLine
 10
-395.297
 20
354.024
 30
5.1
 11
-396.634
 21
354.819
 31
5.1
  0
LINE
  5
A53
330
A02
100
AcDbEntity
  8
Mesh_cs002
100
AcDbLine
 10
-396.634
 20
354.819
 30
5.1
 11
-398.442
 21
355.895
 31
5.1
  0
LINE
  5
A54
330
A02
100
AcDbEntity
  8
Mesh_cs002
100
AcDbLine
 10
-398.442
 20
355.895
 30
5.1
 11
-399.785
 21
356.678
 31
5.1
  0
LINE
  5
A55
330
A02
100
AcDbEntity
  8
Mesh_cs002
100
AcDbLine
 10
-399.785
 20
356.678
 30
5.1
 11
-401.603
 21
357.737
 31
5.1
  0
LINE
  5
A56
330
A02
100
AcDbEntity
  8
Mesh_cs002
100
AcDbLine
 10
-401.603
 20
357.737
 30
5.1
 11
-403.43
 21
358.781
 31
5.1
  0
LINE
  5
A57
330
A02
100
AcDbEntity
  8
Mesh_cs002
100
AcDbLine
 10
-403.43
 20
358.781
 30
5.1
 11
-404.78
 21
359.552
 31
5.1
  0
LINE
  5
A58
330
A02
100
AcDbEntity
  8
Mesh_cs002
100
AcDbLine
 10
-404.78
 20
359.552
 30
5.1
 11
-406.137
 21
360.311
 31
5.1
  0
LINE
  5
A59
330
A02
100
AcDbEntity
  8
Mesh_cs002
100
AcDbLine
 10
-406.137
 20
360.311
 30
5.1
 11
-407.974
 21
361.338
 31
5.1
  0
LINE
  5
A5A
330
A02
100
AcDbEntity
  8
Mesh_cs002
100
AcDbLine
 10
-407.974
 20
361.338
 30
5.1
 11
-409.337
 21
362.086
 31
5.1
  0
LINE
  5
A5B
330
A02
100
AcDbEntity
  8
Mesh_cs002
100
AcDbLine
 10
-409.337
 20
362.086
 30
5.1
 11
-411.183
 21
363.097
 31
5.1
  0
LINE
  5
A5C
330
A02
100
AcDbEntity
  8
Mesh_cs002
100
AcDbLine
 10
-411.183
 20
363.097
 30
5.1
 11
-412.553
 21
363.832
 31
5.1
  0
LINE
  5
A5D
330
A02
100
AcDbEntity
  8
Mesh_cs002
100
AcDbLine
 10
-412.553
 20
363.832
 30
5.1
 11
-414.407
 21
364.826
 31
5.1
  0
LINE
  5
A5E
330
A02
100
AcDbEntity
  8
Mesh_cs002
100
AcDbLine
 10
-414.407
 20
364.826
 30
5.1
 11
-415.784
 21
365.549
 31
5.1
  0
LINE
  5
A5F
330
A02
100
AcDbEntity
  8
Mesh_cs002
100
AcDbLine
 10
-415.784
 20
365.549
 30
5.1
 11
-417.647
 21
366.527
 31
5.1
  0
LINE
  5
A60
330
A02
100
AcDbEntity
  8
Mesh_cs002
100
AcDbLine
 10
-417.647
 20
366.527
 30
5.1
 11
-419.03
 21
367.238
 31
5.1
  0
LINE
  5
A61
330
A02
100
AcDbEntity
  8
Mesh_cs002
100
AcDbLine
 10
-419.03
 20
367.238
 30
5.1
 11
-420.902
 21
368.199
 31
5.1
  0
LINE
  5
A62
330
A02
100
AcDbEntity
  8
Mesh_cs002
100
AcDbLine
 10
-420.902
 20
368.199
 30
5.1
 11
-422.292
 21
368.898
 31
5.1
  0
LINE
  5
A63
330
A02
100
AcDbEntity
  8
Mesh_cs002
100
AcDbLine
 10
-422.292
 20
368.898
 30
5.1
 11
-424.172
 21
369.843
 31
5.1
  0
LINE
  5
A64
330
A02
100
AcDbEntity
  8
Mesh_cs002
100
AcDbLine
 10
-424.172
 20
369.843
 30
5.1
 11
-426.06
 21
370.771
 31
5.1
  0
LINE
  5
A65
330
A02
100
AcDbEntity
  8
Mesh_cs002
100
AcDbLine
 10
-426.06
 20
370.771
 30
5.1
 11
-427.456
 21
371.457
 31
5.1
  0
LINE
  5
A66
330
A02
100
AcDbEntity
  8
Mesh_cs002
100
AcDbLine
 10
-427.456
 20
371.457
 30
5.1
 11
-428.858
 21
372.131
 31
5.1
  0
LINE
  5
A67
330
A02
100
AcDbEntity
  8
Mesh_cs002
100
AcDbLine
 10
-428.858
 20
372.131
 30
5.1
 11
-430.754
 21
373.043
 31
5.1
  0
LINE
  5
A68
330
A02
100
AcDbEntity
  8
Mesh_cs002
100
AcDbLine
 10
-430.754
 20
373.043
 30
5.1
 11
-432.162
 21
373.704
 31
5.1
  0
LINE
  5
A69
330
A02
100
AcDbEntity
  8
Mesh_cs002
100
AcDbLine
 10
-432.162
 20
373.704
 30
5.1
 11
-434.067
 21
374.599
 31
5.1
  0
LINE
  5
A6A
330
A02
100
AcDbEntity
  8
Mesh_cs002
100
AcDbLine
 10
-434.067
 20
374.599
 30
5.1
 11
-435.979
 21
375.476
 31
5.1
  0
LINE
  5
A6B
330
A02
100
AcDbEntity
  8
Mesh_cs002
100
AcDbLine
 10
-435.979
 20
375.476
 30
5.1
 11
-437.393
 21
376.125
 31
5.1
  0
LINE
  5
A6C
330
A02
100
AcDbEntity
  8
Mesh_cs002
100
AcDbLine
 10
-437.393
 20
376.125
 30
5.1
 11
-438.812
 21
376.762
 31
5.1
  0
LINE
  5
A6D
330
A02
100
AcDbEntity
  8
Mesh_cs002
100
AcDbLine
 10
-438.812
 20
376.762
 30
5.1
 11
-440.732
 21
377.622
 31
5.1
  0
LINE
  5
A6E
330
A02
100
AcDbEntity
  8
Mesh_cs002
100
AcDbLine
 10
-440.732
 20
377.622
 30
5.1
 11
-442.157
 21
378.246
 31
5.1
  0
LINE
  5
A6F
330
A02
100
AcDbEntity
  8
Mesh_cs002
100
AcDbLine
 10
-442.157
 20
378.246
 30
5.1
 11
-444.085
 21
379.09
 31
5.1
  0
LINE
  5
A70
330
A02
100
AcDbEntity
  8
Mesh_cs002
100
AcDbLine
 10
-444.085
 20
379.09
 30
5.1
 11
-445.515
 21
379.701
 31
5.1
  0
LINE
  5
A71
330
A02
100
AcDbEntity
  8
Mesh_cs002
100
AcDbLine
 10
-445.515
 20
379.701
 30
5.1
 11
-447.451
 21
380.528
 31
5.1
  0
LINE
  5
A72
330
A02
100
AcDbEntity
  8
Mesh_cs002
100
AcDbLine
 10
-447.451
 20
380.528
 30
5.1
 11
-448.888
 21
381.127
 31
5.1
  0
LINE
  5
A73
330
A02
100
AcDbEntity
  8
Mesh_cs002
100
AcDbLine
 10
-448.888
 20
381.127
 30
5.1
 11
-450.833
 21
381.937
 31
5.1
  0
LINE
  5
A74
330
A02
100
AcDbEntity
  8
Mesh_cs002
100
AcDbLine
 10
-450.833
 20
381.937
 30
5.1
 11
-452.274
 21
382.523
 31
5.1
  0
LINE
  5
A75
330
A02
100
AcDbEntity
  8
Mesh_cs002
100
AcDbLine
 10
-452.274
 20
382.523
 30
5.1
 11
-454.224
 21
383.315
 31
5.1
  0
LINE
  5
A76
330
A02
100
AcDbEntity
  8
Mesh_cs002
100
AcDbLine
 10
-454.224
 20
383.315
 30
5.1
 11
-454.394
 21
383.531
 31
5.1
  0
LINE
  5
A77
330
A02
100
AcDbEntity
  8
Mesh_cs002
100
AcDbLine
 10
-454.394
 20
383.531
 30
5.1
 11
-454.485
 21
383.64
 31
5.1
  0
LINE
  5
A78
330
A02
100
AcDbEntity
  8
Mesh_cs002
100
AcDbLine
 10
-454.485
 20
383.64
 30
5.1
 11
-454.731
 21
383.902
 31
5.1
  0
LINE
  5
A79
330
A02
100
AcDbEntity
  8
Mesh_cs002
100
AcDbLine
 10
-454.731
 20
383.902
 30
5.1
 11
-454.747
 21
383.919
 31
5.1
  0
LINE
  5
A7A
330
A02
100
AcDbEntity
  8
Mesh_cs002
100
AcDbLine
 10
-454.747
 20
383.919
 30
5.1
 11
-454.828
 21
383.992
 31
5.1
  0
LINE
  5
A7B
330
A02
100
AcDbEntity
  8
Mesh_cs002
100
AcDbLine
 10
-454.828
 20
383.992
 30
5.1
 11
-455.015
 21
384.164
 31
5.1
  0
LINE
  5
A7C
330
A02
100
AcDbEntity
  8
Mesh_cs002
100
AcDbLine
 10
-455.015
 20
384.164
 30
5.1
 11
-455.054
 21
384.194
 31
5.1
  0
LINE
  5
A7D
330
A02
100
AcDbEntity
  8
Mesh_cs002
100
AcDbLine
 10
-455.054
 20
384.194
 30
5.1
 11
-455.306
 21
384.393
 31
5.1
  0
LINE
  5
A7E
330
A02
100
AcDbEntity
  8
Mesh_cs002
100
AcDbLine
 10
-455.306
 20
384.393
 30
5.1
 11
-455.378
 21
384.444
 31
5.1
  0
LINE
  5
A7F
330
A02
100
AcDbEntity
  8
Mesh_cs002
100
AcDbLine
 10
-455.378
 20
384.444
 30
5.1
 11
-455.411
 21
384.467
 31
5.1
  0
LINE
  5
A80
330
A02
100
AcDbEntity
  8
Mesh_cs002
100
AcDbLine
 10
-455.411
 20
384.467
 30
5.1
 11
-455.5
 21
384.527
 31
5.1
  0
LINE
  5
A81
330
A02
100
AcDbEntity
  8
Mesh_cs002
100
AcDbLine
 10
-455.5
 20
384.527
 30
5.1
 11
-455.534
 21
384.549
 31
5.1
  0
LINE
  5
A82
330
A02
100
AcDbEntity
  8
Mesh_cs002
100
AcDbLine
 10
-455.534
 20
384.549
 30
5.1
 11
-455.624
 21
384.606
 31
5.1
  0
LINE
  5
A83
330
A02
100
AcDbEntity
  8
Mesh_cs002
100
AcDbLine
 10
-455.624
 20
384.606
 30
5.1
 11
-455.678
 21
384.639
 31
5.1
  0
LINE
  5
A84
330
A02
100
AcDbEntity
  8
Mesh_cs002
100
AcDbLine
 10
-455.678
 20
384.639
 30
5.1
 11
-455.766
 21
384.691
 31
5.1
  0
LINE
  5
A85
330
A02
100
AcDbEntity
  8
Mesh_cs002
100
AcDbLine
 10
-455.766
 20
384.691
 30
5.1
 11
-455.821
 21
384.721
 31
5.1
  0
LINE
  5
A86
330
A02
100
AcDbEntity
  8
Mesh_cs002
100
AcDbLine
 10
-455.821
 20
384.721
 30
5.1
 11
-455.876
 21
384.748
 31
5.1
  0
LINE
  5
A87
330
A02
100
AcDbEntity
  8
Mesh_cs002
100
AcDbLine
 10
-455.876
 20
384.748
 30
5.1
 11
-455.928
 21
384.771
 31
5.1
  0
LINE
  5
A88
330
A02
100
AcDbEntity
  8
Mesh_cs002
100
AcDbLine
 10
-455.928
 20
384.771
 30
5.1
 11
-456.149
 21
384.882
 31
5.1
  0
LINE
  5
A89
330
A02
100
AcDbEntity
  8
Mesh_cs002
100
AcDbLine
 10
-456.149
 20
384.882
 30
5.1
 11
-456.329
 21
384.968
 31
5.1
  0
LINE
  5
A8A
330
A02
100
AcDbEntity
  8
Mesh_cs002
100
AcDbLine
 10
-456.329
 20
384.968
 30
5.1
 11
-456.38
 21
384.987
 31
5.1
  0
LINE
  5
A8B
330
A02
100
AcDbEntity
  8
Mesh_cs002
100
AcDbLine
 10
-456.38
 20
384.987
 30
5.1
 11
-456.706
 21
385.108
 31
5.1
  0
LINE
  5
A8C
330
A02
100
AcDbEntity
  8
Mesh_cs002
100
AcDbLine
 10
-456.706
 20
385.108
 30
5.1
 11
-462.095
 21
386.859
 31
5.1
  0
LINE
  5
A8D
330
A02
100
AcDbEntity
  8
Mesh_cs002
100
AcDbLine
 10
-462.095
 20
386.859
 30
5.1
 11
-472.357
 21
390.193
 31
5.1
  0
LINE
  5
A8E
330
A02
100
AcDbEntity
  8
Mesh_cs002
100
AcDbLine
 10
-472.357
 20
390.193
 30
5.1
 11
-480.387
 21
392.802
 31
5.1
  0
LINE
  5
A8F
330
A02
100
AcDbEntity
  8
Mesh_cs002
100
AcDbLine
 10
-480.387
 20
392.802
 30
5.1
 11
-477.778
 21
400.832
 31
5.1
  0
LINE
  5
A90
330
A02
100
AcDbEntity
  8
Mesh_cs002
100
AcDbLine
 10
-477.778
 20
400.832
 30
5.1
 11
-476.027
 21
406.222
 31
5.1
  0
LINE
  5
A91
330
A02
100
AcDbEntity
  8
Mesh_cs002
100
AcDbLine
 10
-476.027
 20
406.222
 30
5.1
 11
-468.926
 21
428.078
 31
5.1
  0
LINE
  5
A92
330
A02
100
AcDbEntity
  8
Mesh_cs002
100
AcDbLine
 10
-468.926
 20
428.078
 30
5.1
 11
-463.911
 21
443.511
 31
5.1
  0
LINE
  5
A93
330
A02
100
AcDbEntity
  8
Mesh_cs002
100
AcDbLine
 10
-463.911
 20
443.511
 30
5.1
 11
-450.601
 21
484.474
 31
5.1
  0
LINE
  5
A94
330
A02
100
AcDbEntity
  8
Mesh_cs002
100
AcDbLine
 10
-450.601
 20
484.474
 30
5.1
 11
-424.489
 21
564.839
 31
5.1
  0
LINE
  5
A95
330
A02
100
AcDbEntity
  8
Mesh_cs002
100
AcDbLine
 10
-424.489
 20
564.839
 30
5.1
 11
-422.738
 21
570.228
 31
5.1
  0
LINE
  5
A96
330
A02
100
AcDbEntity
  8
Mesh_cs002
100
AcDbLine
 10
-422.738
 20
570.228
 30
5.1
 11
-420.129
 21
578.258
 31
5.1
  0
LINE
  5
A97
330
A02
100
AcDbEntity
  8
Mesh_cs002
100
AcDbLine
 10
-420.129
 20
578.258
 30
5.1
 11
-418.337
 21
577.669
 31
5.1
  0
LINE
  5
A98
330
A02
100
AcDbEntity
  8
Mesh_cs002
100
AcDbLine
 10
-418.337
 20
577.669
 30
5.1
 11
-415.912
 21
576.871
 31
5.1
  0
LINE
  5
A99
330
A02
100
AcDbEntity
  8
Mesh_cs002
100
AcDbLine
 10
-415.912
 20
576.871
 30
5.1
 11
-414.124
 21
576.268
 31
5.1
  0
LINE
  5
A9A
330
A02
100
AcDbEntity
  8
Mesh_cs002
100
AcDbLine
 10
-414.124
 20
576.268
 30
5.1
 11
-411.703
 21
575.452
 31
5.1
  0
LINE
  5
A9B
330
A02
100
AcDbEntity
  8
Mesh_cs002
100
AcDbLine
 10
-411.703
 20
575.452
 30
5.1
 11
-408.479
 21
574.334
 31
5.1
  0
LINE
  5
A9C
330
A02
100
AcDbEntity
  8
Mesh_cs002
100
AcDbLine
 10
-408.479
 20
574.334
 30
5.1
 11
-406.66
 21
573.706
 31
5.1
  0
LINE
  5
A9D
330
A02
100
AcDbEntity
  8
Mesh_cs002
100
AcDbLine
 10
-406.66
 20
573.706
 30
5.1
 11
-404.846
 21
573.065
 31
5.1
  0
LINE
  5
A9E
330
A02
100
AcDbEntity
  8
Mesh_cs002
100
AcDbLine
 10
-404.846
 20
573.065
 30
5.1
 11
-402.472
 21
572.219
 31
5.1
  0
LINE
  5
A9F
330
A02
100
AcDbEntity
  8
Mesh_cs002
100
AcDbLine
 10
-402.472
 20
572.219
 30
5.1
 11
-400.663
 21
571.565
 31
5.1
  0
LINE
  5
AA0
330
A02
100
AcDbEntity
  8
Mesh_cs002
100
AcDbLine
 10
-400.663
 20
571.565
 30
5.1
 11
-399.183
 21
571.028
 31
5.1
  0
LINE
  5
AA1
330
A02
100
AcDbEntity
  8
Mesh_cs002
100
AcDbLine
 10
-399.183
 20
571.028
 30
5.1
 11
-397.705
 21
570.483
 31
5.1
  0
LINE
  5
AA2
330
A02
100
AcDbEntity
  8
Mesh_cs002
100
AcDbLine
 10
-397.705
 20
570.483
 30
5.1
 11
-395.9
 21
569.816
 31
5.1
  0
LINE
  5
AA3
330
A02
100
AcDbEntity
  8
Mesh_cs002
100
AcDbLine
 10
-395.9
 20
569.816
 30
5.1
 11
-394.101
 21
569.135
 31
5.1
  0
LINE
  5
AA4
330
A02
100
AcDbEntity
  8
Mesh_cs002
100
AcDbLine
 10
-394.101
 20
569.135
 30
5.1
 11
-391.515
 21
568.164
 31
5.1
  0
LINE
  5
AA5
330
A02
100
AcDbEntity
  8
Mesh_cs002
100
AcDbLine
 10
-391.515
 20
568.164
 30
5.1
 11
-389.752
 21
567.488
 31
5.1
  0
LINE
  5
AA6
330
A02
100
AcDbEntity
  8
Mesh_cs002
100
AcDbLine
 10
-389.752
 20
567.488
 30
5.1
 11
-387.371
 21
566.568
 31
5.1
  0
LINE
  5
AA7
330
A02
100
AcDbEntity
  8
Mesh_cs002
100
AcDbLine
 10
-387.371
 20
566.568
 30
5.1
 11
-385.614
 21
565.879
 31
5.1
  0
LINE
  5
AA8
330
A02
100
AcDbEntity
  8
Mesh_cs002
100
AcDbLine
 10
-385.614
 20
565.879
 30
5.1
 11
-383.24
 21
564.941
 31
5.1
  0
LINE
  5
AA9
330
A02
100
AcDbEntity
  8
Mesh_cs002
100
AcDbLine
 10
-383.24
 20
564.941
 30
5.1
 11
-381.488
 21
564.24
 31
5.1
  0
LINE
  5
AAA
330
A02
100
AcDbEntity
  8
Mesh_cs002
100
AcDbLine
 10
-381.488
 20
564.24
 30
5.1
 11
-379.12
 21
563.285
 31
5.1
  0
LINE
  5
AAB
330
A02
100
AcDbEntity
  8
Mesh_cs002
100
AcDbLine
 10
-379.12
 20
563.285
 30
5.1
 11
-377.374
 21
562.571
 31
5.1
  0
LINE
  5
AAC
330
A02
100
AcDbEntity
  8
Mesh_cs002
100
AcDbLine
 10
-377.374
 20
562.571
 30
5.1
 11
-375.014
 21
561.599
 31
5.1
  0
LINE
  5
AAD
330
A02
100
AcDbEntity
  8
Mesh_cs002
100
AcDbLine
 10
-375.014
 20
561.599
 30
5.1
 11
-373.272
 21
560.872
 31
5.1
  0
LINE
  5
AAE
330
A02
100
AcDbEntity
  8
Mesh_cs002
100
AcDbLine
 10
-373.272
 20
560.872
 30
5.1
 11
-370.919
 21
559.882
 31
5.1
  0
LINE
  5
AAF
330
A02
100
AcDbEntity
  8
Mesh_cs002
100
AcDbLine
 10
-370.919
 20
559.882
 30
5.1
 11
-369.183
 21
559.143
 31
5.1
  0
LINE
  5
AB0
330
A02
100
AcDbEntity
  8
Mesh_cs002
100
AcDbLine
 10
-369.183
 20
559.143
 30
5.1
 11
-366.837
 21
558.136
 31
5.1
  0
LINE
  5
AB1
330
A02
100
AcDbEntity
  8
Mesh_cs002
100
AcDbLine
 10
-366.837
 20
558.136
 30
5.1
 11
-365.107
 21
557.384
 31
5.1
  0
LINE
  5
AB2
330
A02
100
AcDbEntity
  8
Mesh_cs002
100
AcDbLine
 10
-365.107
 20
557.384
 30
5.1
 11
-362.769
 21
556.36
 31
5.1
  0
LINE
  5
AB3
330
A02
100
AcDbEntity
  8
Mesh_cs002
100
AcDbLine
 10
-362.769
 20
556.36
 30
5.1
 11
-361.044
 21
555.596
 31
5.1
  0
LINE
  5
AB4
330
A02
100
AcDbEntity
  8
Mesh_cs002
100
AcDbLine
 10
-361.044
 20
555.596
 30
5.1
 11
-358.713
 21
554.555
 31
5.1
  0
LINE
  5
AB5
330
A02
100
AcDbEntity
  8
Mesh_cs002
100
AcDbLine
 10
-358.713
 20
554.555
 30
5.1
 11
-356.994
 21
553.778
 31
5.1
  0
LINE
  5
AB6
330
A02
100
AcDbEntity
  8
Mesh_cs002
100
AcDbLine
 10
-356.994
 20
553.778
 30
5.1
 11
-354.671
 21
552.72
 31
5.1
  0
LINE
  5
AB7
330
A02
100
AcDbEntity
  8
Mesh_cs002
100
AcDbLine
 10
-354.671
 20
552.72
 30
5.1
 11
-352.957
 21
551.93
 31
5.1
  0
LINE
  5
AB8
330
A02
100
AcDbEntity
  8
Mesh_cs002
100
AcDbLine
 10
-352.957
 20
551.93
 30
5.1
 11
-350.642
 21
550.855
 31
5.1
  0
LINE
  5
AB9
330
A02
100
AcDbEntity
  8
Mesh_cs002
100
AcDbLine
 10
-350.642
 20
550.855
 30
5.1
 11
-348.934
 21
550.053
 31
5.1
  0
LINE
  5
ABA
330
A02
100
AcDbEntity
  8
Mesh_cs002
100
AcDbLine
 10
-348.934
 20
550.053
 30
5.1
 11
-346.627
 21
548.962
 31
5.1
  0
LINE
  5
ABB
330
A02
100
AcDbEntity
  8
Mesh_cs002
100
AcDbLine
 10
-346.627
 20
548.962
 30
5.1
 11
-344.925
 21
548.147
 31
5.1
  0
LINE
  5
ABC
330
A02
100
AcDbEntity
  8
Mesh_cs002
100
AcDbLine
 10
-344.925
 20
548.147
 30
5.1
 11
-342.626
 21
547.039
 31
5.1
  0
LINE
  5
ABD
330
A02
100
AcDbEntity
  8
Mesh_cs002
100
AcDbLine
 10
-342.626
 20
547.039
 30
5.1
 11
-340.93
 21
546.212
 31
5.1
  0
LINE
  5
ABE
330
A02
100
AcDbEntity
  8
Mesh_cs002
100
AcDbLine
 10
-340.93
 20
546.212
 30
5.1
 11
-338.639
 21
545.086
 31
5.1
  0
LINE
  5
ABF
330
A02
100
AcDbEntity
  8
Mesh_cs002
100
AcDbLine
 10
-338.639
 20
545.086
 30
5.1
 11
-336.949
 21
544.247
 31
5.1
  0
LINE
  5
AC0
330
A02
100
AcDbEntity
  8
Mesh_cs002
100
AcDbLine
 10
-336.949
 20
544.247
 30
5.1
 11
-334.667
 21
543.105
 31
5.1
  0
LINE
  5
AC1
330
A02
100
AcDbEntity
  8
Mesh_cs002
100
AcDbLine
 10
-334.667
 20
543.105
 30
5.1
 11
-332.983
 21
542.254
 31
5.1
  0
LINE
  5
AC2
330
A02
100
AcDbEntity
  8
Mesh_cs002
100
AcDbLine
 10
-332.983
 20
542.254
 30
5.1
 11
-330.709
 21
541.095
 31
5.1
  0
LINE
  5
AC3
330
A02
100
AcDbEntity
  8
Mesh_cs002
100
AcDbLine
 10
-330.709
 20
541.095
 30
5.1
 11
-329.032
 21
540.231
 31
5.1
  0
LINE
  5
AC4
330
A02
100
AcDbEntity
  8
Mesh_cs002
100
AcDbLine
 10
-329.032
 20
540.231
 30
5.1
 11
-326.766
 21
539.056
 31
5.1
  0
LINE
  5
AC5
330
A02
100
AcDbEntity
  8
Mesh_cs002
100
AcDbLine
 10
-326.766
 20
539.056
 30
5.1
 11
-325.095
 21
538.18
 31
5.1
  0
LINE
  5
AC6
330
A02
100
AcDbEntity
  8
Mesh_cs002
100
AcDbLine
 10
-325.095
 20
538.18
 30
5.1
 11
-322.838
 21
536.988
 31
5.1
  0
LINE
  5
AC7
330
A02
100
AcDbEntity
  8
Mesh_cs002
100
AcDbLine
 10
-322.838
 20
536.988
 30
5.1
 11
-321.174
 21
536.1
 31
5.1
  0
LINE
  5
AC8
330
A02
100
AcDbEntity
  8
Mesh_cs002
100
AcDbLine
 10
-321.174
 20
536.1
 30
5.1
 11
-318.925
 21
534.892
 31
5.1
  0
LINE
  5
AC9
330
A02
100
AcDbEntity
  8
Mesh_cs002
100
AcDbLine
 10
-318.925
 20
534.892
 30
5.1
 11
-317.267
 21
533.992
 31
5.1
  0
LINE
  5
ACA
330
A02
100
AcDbEntity
  8
Mesh_cs002
100
AcDbLine
 10
-317.267
 20
533.992
 30
5.1
 11
-315.028
 21
532.767
 31
5.1
  0
LINE
  5
ACB
330
A02
100
AcDbEntity
  8
Mesh_cs002
100
AcDbLine
 10
-315.028
 20
532.767
 30
5.1
 11
-313.377
 21
531.855
 31
5.1
  0
LINE
  5
ACC
330
A02
100
AcDbEntity
  8
Mesh_cs002
100
AcDbLine
 10
-313.377
 20
531.855
 30
5.1
 11
-311.146
 21
530.614
 31
5.1
  0
LINE
  5
ACD
330
A02
100
AcDbEntity
  8
Mesh_cs002
100
AcDbLine
 10
-311.146
 20
530.614
 30
5.1
 11
-309.502
 21
529.69
 31
5.1
  0
LINE
  5
ACE
330
A02
100
AcDbEntity
  8
Mesh_cs002
100
AcDbLine
 10
-309.502
 20
529.69
 30
5.1
 11
-307.281
 21
528.433
 31
5.1
  0
LINE
  5
ACF
330
A02
100
AcDbEntity
  8
Mesh_cs002
100
AcDbLine
 10
-307.281
 20
528.433
 30
5.1
 11
-305.643
 21
527.497
 31
5.1
  0
LINE
  5
AD0
330
A02
100
AcDbEntity
  8
Mesh_cs002
100
AcDbLine
 10
-305.643
 20
527.497
 30
5.1
 11
-303.431
 21
526.224
 31
5.1
  0
LINE
  5
AD1
330
A02
100
AcDbEntity
  8
Mesh_cs002
100
AcDbLine
 10
-303.431
 20
526.224
 30
5.1
 11
-301.801
 21
525.275
 31
5.1
  0
LINE
  5
AD2
330
A02
100
AcDbEntity
  8
Mesh_cs002
100
AcDbLine
 10
-301.801
 20
525.275
 30
5.1
 11
-299.598
 21
523.986
 31
5.1
  0
LINE
  5
AD3
330
A02
100
AcDbEntity
  8
Mesh_cs002
100
AcDbLine
 10
-299.598
 20
523.986
 30
5.1
 11
-297.974
 21
523.026
 31
5.1
  0
LINE
  5
AD4
330
A02
100
AcDbEntity
  8
Mesh_cs002
100
AcDbLine
 10
-297.974
 20
523.026
 30
5.1
 11
-295.538
 21
521.575
 31
5.1
  0
LINE
  5
AD5
330
A02
100
AcDbEntity
  8
Mesh_cs002
100
AcDbLine
 10
-295.538
 20
521.575
 30
5.1
 11
-293.921
 21
520.603
 31
5.1
  0
LINE
  5
AD6
330
A02
100
AcDbEntity
  8
Mesh_cs002
100
AcDbLine
 10
-293.921
 20
520.603
 30
5.1
 11
-291.497
 21
519.132
 31
5.1
  0
LINE
  5
AD7
330
A02
100
AcDbEntity
  8
Mesh_cs002
100
AcDbLine
 10
-291.497
 20
519.132
 30
5.1
 11
-289.888
 21
518.148
 31
5.1
  0
LINE
  5
AD8
330
A02
100
AcDbEntity
  8
Mesh_cs002
100
AcDbLine
 10
-289.888
 20
518.148
 30
5.1
 11
-287.475
 21
516.658
 31
5.1
  0
LINE
  5
AD9
330
A02
100
AcDbEntity
  8
Mesh_cs002
100
AcDbLine
 10
-287.475
 20
516.658
 30
5.1
 11
-285.696
 21
515.551
 31
5.1
  0
LINE
  5
ADA
330
A02
100
AcDbEntity
  8
Mesh_cs002
100
AcDbLine
 10
-285.696
 20
515.551
 30
5.1
 11
-283.296
 21
514.041
 31
5.1
  0
LINE
  5
ADB
330
A02
100
AcDbEntity
  8
Mesh_cs002
100
AcDbLine
 10
-283.296
 20
514.041
 30
5.1
 11
-281.525
 21
512.92
 31
5.1
  0
LINE
  5
ADC
330
A02
100
AcDbEntity
  8
Mesh_cs002
100
AcDbLine
 10
-281.525
 20
512.92
 30
5.1
 11
-279.137
 21
511.39
 31
5.1
  0
LINE
  5
ADD
330
A02
100
AcDbEntity
  8
Mesh_cs002
100
AcDbLine
 10
-279.137
 20
511.39
 30
5.1
 11
-277.376
 21
510.255
 31
5.1
  0
LINE
  5
ADE
330
A02
100
AcDbEntity
  8
Mesh_cs002
100
AcDbLine
 10
-277.376
 20
510.255
 30
5.1
 11
-275
 21
508.706
 31
5.1
  0
LINE
  5
ADF
330
A02
100
AcDbEntity
  8
Mesh_cs002
100
AcDbLine
 10
-275
 20
508.706
 30
5.1
 11
-273.248
 21
507.556
 31
5.1
  0
LINE
  5
AE0
330
A02
100
AcDbEntity
  8
Mesh_cs002
100
AcDbLine
 10
-273.248
 20
507.556
 30
5.1
 11
-270.886
 21
505.989
 31
5.1
  0
LINE
  5
AE1
330
A02
100
AcDbEntity
  8
Mesh_cs002
100
AcDbLine
 10
-270.886
 20
505.989
 30
5.1
 11
-269.143
 21
504.825
 31
5.1
  0
LINE
  5
AE2
330
A02
100
AcDbEntity
  8
Mesh_cs002
100
AcDbLine
 10
-269.143
 20
504.825
 30
5.1
 11
-266.793
 21
503.238
 31
5.1
  0
LINE
  5
AE3
330
A02
100
AcDbEntity
  8
Mesh_cs002
100
AcDbLine
 10
-266.793
 20
503.238
 30
5.1
 11
-265.06
 21
502.06
 31
5.1
  0
LINE
  5
AE4
330
A02
100
AcDbEntity
  8
Mesh_cs002
100
AcDbLine
 10
-265.06
 20
502.06
 30
5.1
 11
-262.723
 21
500.454
 31
5.1
  0
LINE
  5
AE5
330
A02
100
AcDbEntity
  8
Mesh_cs002
100
AcDbLine
 10
-262.723
 20
500.454
 30
5.1
 11
-261
 21
499.262
 31
5.1
  0
LINE
  5
AE6
330
A02
100
AcDbEntity
  8
Mesh_cs002
100
AcDbLine
 10
-261
 20
499.262
 30
5.1
 11
-258.676
 21
497.637
 31
5.1
  0
LINE
  5
AE7
330
A02
100
AcDbEntity
  8
Mesh_cs002
100
AcDbLine
 10
-258.676
 20
497.637
 30
5.1
 11
-256.962
 21
496.431
 31
5.1
  0
LINE
  5
AE8
330
A02
100
AcDbEntity
  8
Mesh_cs002
100
AcDbLine
 10
-256.962
 20
496.431
 30
5.1
 11
-254.652
 21
494.788
 31
5.1
  0
LINE
  5
AE9
330
A02
100
AcDbEntity
  8
Mesh_cs002
100
AcDbLine
 10
-254.652
 20
494.788
 30
5.1
 11
-252.948
 21
493.568
 31
5.1
  0
LINE
  5
AEA
330
A02
100
AcDbEntity
  8
Mesh_cs002
100
AcDbLine
 10
-252.948
 20
493.568
 30
5.1
 11
-250.651
 21
491.906
 31
5.1
  0
LINE
  5
AEB
330
A02
100
AcDbEntity
  8
Mesh_cs002
100
AcDbLine
 10
-250.651
 20
491.906
 30
5.1
 11
-248.957
 21
490.673
 31
5.1
  0
LINE
  5
AEC
330
A02
100
AcDbEntity
  8
Mesh_cs002
100
AcDbLine
 10
-248.957
 20
490.673
 30
5.1
 11
-246.674
 21
488.992
 31
5.1
  0
LINE
  5
AED
330
A02
100
AcDbEntity
  8
Mesh_cs002
100
AcDbLine
 10
-246.674
 20
488.992
 30
5.1
 11
-244.99
 21
487.745
 31
5.1
  0
LINE
  5
AEE
330
A02
100
AcDbEntity
  8
Mesh_cs002
100
AcDbLine
 10
-244.99
 20
487.745
 30
5.1
 11
-242.72
 21
486.046
 31
5.1
  0
LINE
  5
AEF
330
A02
100
AcDbEntity
  8
Mesh_cs002
100
AcDbLine
 10
-242.72
 20
486.046
 30
5.1
 11
-241.046
 21
484.785
 31
5.1
  0
LINE
  5
AF0
330
A02
100
AcDbEntity
  8
Mesh_cs002
100
AcDbLine
 10
-241.046
 20
484.785
 30
5.1
 11
-238.791
 21
483.067
 31
5.1
  0
LINE
  5
AF1
330
A02
100
AcDbEntity
  8
Mesh_cs002
100
AcDbLine
 10
-238.791
 20
483.067
 30
5.1
 11
-237.127
 21
481.793
 31
5.1
  0
LINE
  5
AF2
330
A02
100
AcDbEntity
  8
Mesh_cs002
100
AcDbLine
 10
-237.127
 20
481.793
 30
5.1
 11
-234.886
 21
480.057
 31
5.1
  0
LINE
  5
AF3
330
A02
100
AcDbEntity
  8
Mesh_cs002
100
AcDbLine
 10
-234.886
 20
480.057
 30
5.1
 11
-233.233
 21
478.77
 31
5.1
  0
LINE
  5
AF4
330
A02
100
AcDbEntity
  8
Mesh_cs002
100
AcDbLine
 10
-233.233
 20
478.77
 30
5.1
 11
-231.005
 21
477.016
 31
5.1
  0
LINE
  5
AF5
330
A02
100
AcDbEntity
  8
Mesh_cs002
100
AcDbLine
 10
-231.005
 20
477.016
 30
5.1
 11
-229.363
 21
475.715
 31
5.1
  0
LINE
  5
AF6
330
A02
100
AcDbEntity
  8
Mesh_cs002
100
AcDbLine
 10
-229.363
 20
475.715
 30
5.1
 11
-227.15
 21
473.943
 31
5.1
  0
LINE
  5
AF7
330
A02
100
AcDbEntity
  8
Mesh_cs002
100
AcDbLine
 10
-227.15
 20
473.943
 30
5.1
 11
-225.518
 21
472.629
 31
5.1
  0
LINE
  5
AF8
330
A02
100
AcDbEntity
  8
Mesh_cs002
100
AcDbLine
 10
-225.518
 20
472.629
 30
5.1
 11
-223.319
 21
470.839
 31
5.1
  0
LINE
  5
AF9
330
A02
100
AcDbEntity
  8
Mesh_cs002
100
AcDbLine
 10
-223.319
 20
470.839
 30
5.1
 11
-221.698
 21
469.512
 31
5.1
  0
LINE
  5
AFA
330
A02
100
AcDbEntity
  8
Mesh_cs002
100
AcDbLine
 10
-221.698
 20
469.512
 30
5.1
 11
-219.514
 21
467.705
 31
5.1
  0
LINE
  5
AFB
330
A02
100
AcDbEntity
  8
Mesh_cs002
100
AcDbLine
 10
-219.514
 20
467.705
 30
5.1
 11
-217.904
 21
466.364
 31
5.1
  0
LINE
  5
AFC
330
A02
100
AcDbEntity
  8
Mesh_cs002
100
AcDbLine
 10
-217.904
 20
466.364
 30
5.1
 11
-215.735
 21
464.539
 31
5.1
  0
LINE
  5
AFD
330
A02
100
AcDbEntity
  8
Mesh_cs002
100
AcDbLine
 10
-215.735
 20
464.539
 30
5.1
 11
-214.135
 21
463.186
 31
5.1
  0
LINE
  5
AFE
330
A02
100
AcDbEntity
  8
Mesh_cs002
100
AcDbLine
 10
-214.135
 20
463.186
 30
5.1
 11
-211.981
 21
461.343
 31
5.1
  0
LINE
  5
AFF
330
A02
100
AcDbEntity
  8
Mesh_cs002
100
AcDbLine
 10
-211.981
 20
461.343
 30
5.1
 11
-210.393
 21
459.977
 31
5.1
  0
LINE
  5
B00
330
A02
100
AcDbEntity
  8
Mesh_cs002
100
AcDbLine
 10
-210.393
 20
459.977
 30
5.1
 11
-208.254
 21
458.117
 31
5.1
  0
LINE
  5
B01
330
A02
100
AcDbEntity
  8
Mesh_cs002
100
AcDbLine
 10
-208.254
 20
458.117
 30
5.1
 11
-206.676
 21
456.738
 31
5.1
  0
LINE
  5
B02
330
A02
100
AcDbEntity
  8
Mesh_cs002
100
AcDbLine
 10
-206.676
 20
456.738
 30
5.1
 11
-204.552
 21
454.861
 31
5.1
  0
LINE
  5
B03
330
A02
100
AcDbEntity
  8
Mesh_cs002
100
AcDbLine
 10
-204.552
 20
454.861
 30
5.1
 11
-202.986
 21
453.469
 31
5.1
  0
LINE
  5
B04
330
A02
100
AcDbEntity
  8
Mesh_cs002
100
AcDbLine
 10
-202.986
 20
453.469
 30
5.1
 11
-200.878
 21
451.575
 31
5.1
  0
LINE
  5
B05
330
A02
100
AcDbEntity
  8
Mesh_cs002
100
AcDbLine
 10
-200.878
 20
451.575
 30
5.1
 11
-199.332
 21
450.178
 31
5.1
  0
LINE
  5
B06
330
A02
100
AcDbEntity
  8
Mesh_cs002
100
AcDbLine
 10
-199.332
 20
450.178
 30
5.1
 11
-197.929
 21
448.9
 31
5.1
  0
LINE
  5
B07
330
A02
100
AcDbEntity
  8
Mesh_cs002
100
AcDbLine
 10
-197.929
 20
448.9
 30
5.1
 11
-196.395
 21
447.492
 31
5.1
  0
LINE
  5
B08
330
A02
100
AcDbEntity
  8
Mesh_cs002
100
AcDbLine
 10
-196.395
 20
447.492
 30
5.1
 11
-195
 21
446.208
 31
5.1
  0
LINE
  5
B09
330
A02
100
AcDbEntity
  8
Mesh_cs002
100
AcDbLine
 10
-195
 20
446.208
 30
5.1
 11
-195
 21
391.85
 31
5.1
  0
LINE
  5
B0A
330
A02
100
AcDbEntity
  8
Mesh_cs002
100
AcDbLine
 10
-195
 20
391.85
 30
5.1
 11
-195
 21
313.47
 31
5.1
  0
LINE
  5
B0B
330
A02
100
AcDbEntity
  8
Mesh_cs002
100
AcDbLine
 10
-195
 20
313.47
 30
5.1
 11
-195
 21
300.074
 31
5.1
  0
LINE
  5
B0C
330
A02
100
AcDbEntity
  8
Mesh_cs002
100
AcDbLine
 10
-195
 20
300.074
 30
5.1
 11
-201.564
 21
295.305
 31
5.1
  0
LINE
  5
B0D
330
A02
100
AcDbEntity
  8
Mesh_cs002
100
AcDbLine
 10
-201.564
 20
295.305
 30
5.1
 11
-228.283
 21
275.893
 31
5.1
  0
LINE
  5
B0E
330
A02
100
AcDbEntity
  8
Mesh_cs002
100
AcDbLine
 10
-228.283
 20
275.893
 30
5.1
 11
-262.464
 21
251.059
 31
5.1
  0
LINE
  5
B0F
330
A02
100
AcDbEntity
  8
Mesh_cs002
100
AcDbLine
 10
-262.464
 20
251.059
 30
5.1
 11
-267.048
 21
247.728
 31
5.1
  0
LINE
  5
B10
330
A02
100
AcDbEntity
  8
Mesh_cs002
100
AcDbLine
 10
-267.048
 20
247.728
 30
5.1
 11
-273.879
 21
242.765
 31
5.1
  0
LINE
  5
B11
330
A02
100
AcDbEntity
  8
Mesh_cs002
100
AcDbLine
 10
-273.879
 20
242.765
 30
5.1
 11
-278.842
 21
249.596
 31
5.1
  0
LINE
  5
B12
330
A02
100
AcDbEntity
  8
Mesh_cs002
100
AcDbLine
 10
-278.842
 20
249.596
 30
5.1
 11
-285.184
 21
258.325
 31
5.1
  0
LINE
  5
B13
330
A02
100
AcDbEntity
  8
Mesh_cs002
100
AcDbLine
 10
-285.184
 20
258.325
 30
5.1
 11
-288.515
 21
262.91
 31
5.1
  0
LINE
  5
B14
330
A02
100
AcDbEntity
  8
Mesh_cs002
100
AcDbLine
 10
-288.515
 20
262.91
 30
5.1
 11
-288.733
 21
263.185
 31
5.1
  0
LINE
  5
B15
330
A02
100
AcDbEntity
  8
Mesh_cs002
100
AcDbLine
 10
-288.733
 20
263.185
 30
5.1
 11
-288.767
 21
263.228
 31
5.1
  0
LINE
  5
B16
330
A02
100
AcDbEntity
  8
Mesh_cs002
100
AcDbLine
 10
-288.767
 20
263.228
 30
5.1
 11
-288.904
 21
263.373
 31
5.1
  0
LINE
  5
B17
330
A02
100
AcDbEntity
  8
Mesh_cs002
100
AcDbLine
 10
-288.904
 20
263.373
 30
5.1
 11
-289.078
 21
263.548
 31
5.1
  0
LINE
  5
B18
330
A02
100
AcDbEntity
  8
Mesh_cs002
100
AcDbLine
 10
-289.078
 20
263.548
 30
5.1
 11
-289.116
 21
263.59
 31
5.1
  0
LINE
  5
B19
330
A02
100
AcDbEntity
  8
Mesh_cs002
100
AcDbLine
 10
-289.116
 20
263.59
 30
5.1
 11
-289.155
 21
263.63
 31
5.1
  0
LINE
  5
B1A
330
A02
100
AcDbEntity
  8
Mesh_cs002
100
AcDbLine
 10
-289.155
 20
263.63
 30
5.1
 11
-289.2
 21
263.673
 31
5.1
  0
LINE
  5
B1B
330
A02
100
AcDbEntity
  8
Mesh_cs002
100
AcDbLine
 10
-289.2
 20
263.673
 30
5.1
 11
-289.272
 21
263.737
 31
5.1
  0
LINE
  5
B1C
330
A02
100
AcDbEntity
  8
Mesh_cs002
100
AcDbLine
 10
-289.272
 20
263.737
 30
5.1
 11
-289.32
 21
263.778
 31
5.1
  0
LINE
  5
B1D
330
A02
100
AcDbEntity
  8
Mesh_cs002
100
AcDbLine
 10
-289.32
 20
263.778
 30
5.1
 11
-289.398
 21
263.844
 31
5.1
  0
LINE
  5
B1E
330
A02
100
AcDbEntity
  8
Mesh_cs002
100
AcDbLine
 10
-289.398
 20
263.844
 30
5.1
 11
-289.431
 21
263.87
 31
5.1
  0
LINE
  5
B1F
330
A02
100
AcDbEntity
  8
Mesh_cs002
100
AcDbLine
 10
-289.431
 20
263.87
 30
5.1
 11
-289.516
 21
263.937
 31
5.1
  0
LINE
  5
B20
330
A02
100
AcDbEntity
  8
Mesh_cs002
100
AcDbLine
 10
-289.516
 20
263.937
 30
5.1
 11
-289.55
 21
263.962
 31
5.1
  0
LINE
  5
B21
330
A02
100
AcDbEntity
  8
Mesh_cs002
100
AcDbLine
 10
-289.55
 20
263.962
 30
5.1
 11
-289.622
 21
264.016
 31
5.1
  0
LINE
  5
B22
330
A02
100
AcDbEntity
  8
Mesh_cs002
100
AcDbLine
 10
-289.622
 20
264.016
 30
5.1
 11
-289.89
 21
264.196
 31
5.1
  0
LINE
  5
B23
330
A02
100
AcDbEntity
  8
Mesh_cs002
100
AcDbLine
 10
-289.89
 20
264.196
 30
5.1
 11
-289.931
 21
264.223
 31
5.1
  0
LINE
  5
B24
330
A02
100
AcDbEntity
  8
Mesh_cs002
100
AcDbLine
 10
-289.931
 20
264.223
 30
5.1
 11
-290.153
 21
264.35
 31
5.1
  0
LINE
  5
B25
330
A02
100
AcDbEntity
  8
Mesh_cs002
100
AcDbLine
 10
-290.153
 20
264.35
 30
5.1
 11
-290.248
 21
264.404
 31
5.1
  0
LINE
  5
B26
330
A02
100
AcDbEntity
  8
Mesh_cs002
100
AcDbLine
 10
-456.677
 20
400.769
 30
5.1
 11
-456.668
 21
400.766
 31
5.1
  0
LINE
  5
B27
330
A02
100
AcDbEntity
  8
Mesh_cs002
100
AcDbLine
 10
-456.668
 20
400.766
 30
5.1
 11
-456.244
 21
400.667
 31
5.1
  0
LINE
  5
B28
330
A02
100
AcDbEntity
  8
Mesh_cs002
100
AcDbLine
 10
-456.244
 20
400.667
 30
5.1
 11
-456.234
 21
400.665
 31
5.1
  0
LINE
  5
B29
330
A02
100
AcDbEntity
  8
Mesh_cs002
100
AcDbLine
 10
-456.234
 20
400.665
 30
5.1
 11
-455.804
 21
400.603
 31
5.1
  0
LINE
  5
B2A
330
A02
100
AcDbEntity
  8
Mesh_cs002
100
AcDbLine
 10
-455.804
 20
400.603
 30
5.1
 11
-455.794
 21
400.602
 31
5.1
  0
LINE
  5
B2B
330
A02
100
AcDbEntity
  8
Mesh_cs002
100
AcDbLine
 10
-455.794
 20
400.602
 30
5.1
 11
-455.784
 21
400.602
 31
5.1
  0
LINE
  5
B2C
330
A02
100
AcDbEntity
  8
Mesh_cs002
100
AcDbLine
 10
-455.784
 20
400.602
 30
5.1
 11
-455.351
 21
400.579
 31
5.1
  0
LINE
  5
B2D
330
A02
100
AcDbEntity
  8
Mesh_cs002
100
AcDbLine
 10
-455.351
 20
400.579
 30
5.1
 11
-455.341
 21
400.579
 31
5.1
  0
LINE
  5
B2E
330
A02
100
AcDbEntity
  8
Mesh_cs002
100
AcDbLine
 10
-455.341
 20
400.579
 30
5.1
 11
-454.909
 21
400.595
 31
5.1
  0
LINE
  5
B2F
330
A02
100
AcDbEntity
  8
Mesh_cs002
100
AcDbLine
 10
-454.909
 20
400.595
 30
5.1
 11
-454.898
 21
400.596
 31
5.1
  0
LINE
  5
B30
330
A02
100
AcDbEntity
  8
Mesh_cs002
100
AcDbLine
 10
-454.898
 20
400.596
 30
5.1
 11
-454.469
 21
400.65
 31
5.1
  0
LINE
  5
B31
330
A02
100
AcDbEntity
  8
Mesh_cs002
100
AcDbLine
 10
-454.469
 20
400.65
 30
5.1
 11
-454.458
 21
400.653
 31
5.1
  0
LINE
  5
B32
330
A02
100
AcDbEntity
  8
Mesh_cs002
100
AcDbLine
 10
-454.458
 20
400.653
 30
5.1
 11
-454.037
 21
400.744
 31
5.1
  0
LINE
  5
B33
330
A02
100
AcDbEntity
  8
Mesh_cs002
100
AcDbLine
 10
-454.037
 20
400.744
 30
5.1
 11
-454.027
 21
400.747
 31
5.1
  0
LINE
  5
B34
330
A02
100
AcDbEntity
  8
Mesh_cs002
100
AcDbLine
 10
-454.027
 20
400.747
 30
5.1
 11
-453.616
 21
400.875
 31
5.1
  0
LINE
  5
B35
330
A02
100
AcDbEntity
  8
Mesh_cs002
100
AcDbLine
 10
-453.616
 20
400.875
 30
5.1
 11
-453.606
 21
400.879
 31
5.1
  0
LINE
  5
B36
330
A02
100
AcDbEntity
  8
Mesh_cs002
100
AcDbLine
 10
-453.606
 20
400.879
 30
5.1
 11
-453.209
 21
401.042
 31
5.1
  0
LINE
  5
B37
330
A02
100
AcDbEntity
  8
Mesh_cs002
100
AcDbLine
 10
-453.209
 20
401.042
 30
5.1
 11
-453.199
 21
401.047
 31
5.1
  0
LINE
  5
B38
330
A02
100
AcDbEntity
  8
Mesh_cs002
100
AcDbLine
 10
-453.199
 20
401.047
 30
5.1
 11
-452.819
 21
401.245
 31
5.1
  0
LINE
  5
B39
330
A02
100
AcDbEntity
  8
Mesh_cs002
100
AcDbLine
 10
-452.819
 20
401.245
 30
5.1
 11
-452.81
 21
401.25
 31
5.1
  0
LINE
  5
B3A
330
A02
100
AcDbEntity
  8
Mesh_cs002
100
AcDbLine
 10
-452.81
 20
401.25
 30
5.1
 11
-452.449
 21
401.479
 31
5.1
  0
LINE
  5
B3B
330
A02
100
AcDbEntity
  8
Mesh_cs002
100
AcDbLine
 10
-452.449
 20
401.479
 30
5.1
 11
-452.44
 21
401.486
 31
5.1
  0
LINE
  5
B3C
330
A02
100
AcDbEntity
  8
Mesh_cs002
100
AcDbLine
 10
-452.44
 20
401.486
 30
5.1
 11
-452.102
 21
401.745
 31
5.1
  0
LINE
  5
B3D
330
A02
100
AcDbEntity
  8
Mesh_cs002
100
AcDbLine
 10
-452.102
 20
401.745
 30
5.1
 11
-452.094
 21
401.753
 31
5.1
  0
LINE
  5
B3E
330
A02
100
AcDbEntity
  8
Mesh_cs002
100
AcDbLine
 10
-452.094
 20
401.753
 30
5.1
 11
-451.775
 21
402.045
 31
5.1
  0
LINE
  5
B3F
330
A02
100
AcDbEntity
  8
Mesh_cs002
100
AcDbLine
 10
-451.775
 20
402.045
 30
5.1
 11
-451.767
 21
402.053
 31
5.1
  0
LINE
  5
B40
330
A02
100
AcDbEntity
  8
Mesh_cs002
100
AcDbLine
 10
-451.767
 20
402.053
 30
5.1
 11
-451.496
 21
402.348
 31
5.1
  0
LINE
  5
B41
330
A02
100
AcDbEntity
  8
Mesh_cs002
100
AcDbLine
 10
-451.496
 20
402.348
 30
5.1
 11
-451.25
 21
402.664
 31
5.1
  0
LINE
  5
B42
330
A02
100
AcDbEntity
  8
Mesh_cs002
100
AcDbLine
 10
-451.25
 20
402.664
 30
5.1
 11
-451.244
 21
402.672
 31
5.1
  0
LINE
  5
B43
330
A02
100
AcDbEntity
  8
Mesh_cs002
100
AcDbLine
 10
-451.244
 20
402.672
 30
5.1
 11
-451.025
 21
403.006
 31
5.1
  0
LINE
  5
B44
330
A02
100
AcDbEntity
  8
Mesh_cs002
100
AcDbLine
 10
-451.025
 20
403.006
 30
5.1
 11
-451.019
 21
403.015
 31
5.1
  0
LINE
  5
B45
330
A02
100
AcDbEntity
  8
Mesh_cs002
100
AcDbLine
 10
-451.019
 20
403.015
 30
5.1
 11
-450.829
 21
403.365
 31
5.1
  0
LINE
  5
B46
330
A02
100
AcDbEntity
  8
Mesh_cs002
100
AcDbLine
 10
-450.829
 20
403.365
 30
5.1
 11
-450.824
 21
403.375
 31
5.1
  0
LINE
  5
B47
330
A02
100
AcDbEntity
  8
Mesh_cs002
100
AcDbLine
 10
-450.824
 20
403.375
 30
5.1
 11
-450.663
 21
403.739
 31
5.1
  0
LINE
  5
B48
330
A02
100
AcDbEntity
  8
Mesh_cs002
100
AcDbLine
 10
-450.663
 20
403.739
 30
5.1
 11
-450.66
 21
403.746
 31
5.1
  0
LINE
  5
B49
330
A02
100
AcDbEntity
  8
Mesh_cs002
100
AcDbLine
 10
-450.66
 20
403.746
 30
5.1
 11
-450.657
 21
403.754
 31
5.1
  0
LINE
  5
B4A
330
A02
100
AcDbEntity
  8
Mesh_cs002
100
AcDbLine
 10
-450.657
 20
403.754
 30
5.1
 11
-450.527
 21
404.129
 31
5.1
  0
LINE
  5
B4B
330
A02
100
AcDbEntity
  8
Mesh_cs002
100
AcDbLine
 10
-450.527
 20
404.129
 30
5.1
 11
-450.525
 21
404.137
 31
5.1
  0
LINE
  5
B4C
330
A02
100
AcDbEntity
  8
Mesh_cs002
100
AcDbLine
 10
-450.525
 20
404.137
 30
5.1
 11
-450.425
 21
404.52
 31
5.1
  0
LINE
  5
B4D
330
A02
100
AcDbEntity
  8
Mesh_cs002
100
AcDbLine
 10
-450.425
 20
404.52
 30
5.1
 11
-450.424
 21
404.529
 31
5.1
  0
LINE
  5
B4E
330
A02
100
AcDbEntity
  8
Mesh_cs002
100
AcDbLine
 10
-450.424
 20
404.529
 30
5.1
 11
-450.356
 21
404.918
 31
5.1
  0
LINE
  5
B4F
330
A02
100
AcDbEntity
  8
Mesh_cs002
100
AcDbLine
 10
-450.356
 20
404.918
 30
5.1
 11
-450.354
 21
404.929
 31
5.1
  0
LINE
  5
B50
330
A02
100
AcDbEntity
  8
Mesh_cs002
100
AcDbLine
 10
-450.354
 20
404.929
 30
5.1
 11
-450.319
 21
405.322
 31
5.1
  0
LINE
  5
B51
330
A02
100
AcDbEntity
  8
Mesh_cs002
100
AcDbLine
 10
-450.319
 20
405.322
 30
5.1
 11
-450.318
 21
405.333
 31
5.1
  0
LINE
  5
B52
330
A02
100
AcDbEntity
  8
Mesh_cs002
100
AcDbLine
 10
-450.318
 20
405.333
 30
5.1
 11
-450.314
 21
405.728
 31
5.1
  0
LINE
  5
B53
330
A02
100
AcDbEntity
  8
Mesh_cs002
100
AcDbLine
 10
-450.314
 20
405.728
 30
5.1
 11
-450.315
 21
405.739
 31
5.1
  0
LINE
  5
B54
330
A02
100
AcDbEntity
  8
Mesh_cs002
100
AcDbLine
 10
-450.315
 20
405.739
 30
5.1
 11
-450.343
 21
406.131
 31
5.1
  0
LINE
  5
B55
330
A02
100
AcDbEntity
  8
Mesh_cs002
100
AcDbLine
 10
-450.343
 20
406.131
 30
5.1
 11
-450.344
 21
406.142
 31
5.1
  0
LINE
  5
B56
330
A02
100
AcDbEntity
  8
Mesh_cs002
100
AcDbLine
 10
-450.344
 20
406.142
 30
5.1
 11
-450.403
 21
406.531
 31
5.1
  0
LINE
  5
B57
330
A02
100
AcDbEntity
  8
Mesh_cs002
100
AcDbLine
 10
-450.403
 20
406.531
 30
5.1
 11
-450.406
 21
406.541
 31
5.1
  0
LINE
  5
B58
330
A02
100
AcDbEntity
  8
Mesh_cs002
100
AcDbLine
 10
-450.406
 20
406.541
 30
5.1
 11
-450.508
 21
406.965
 31
5.1
  0
LINE
  5
B59
330
A02
100
AcDbEntity
  8
Mesh_cs002
100
AcDbLine
 10
-450.508
 20
406.965
 30
5.1
 11
-450.511
 21
406.976
 31
5.1
  0
LINE
  5
B5A
330
A02
100
AcDbEntity
  8
Mesh_cs002
100
AcDbLine
 10
-450.511
 20
406.976
 30
5.1
 11
-450.651
 21
407.388
 31
5.1
  0
LINE
  5
B5B
330
A02
100
AcDbEntity
  8
Mesh_cs002
100
AcDbLine
 10
-450.651
 20
407.388
 30
5.1
 11
-450.655
 21
407.398
 31
5.1
  0
LINE
  5
B5C
330
A02
100
AcDbEntity
  8
Mesh_cs002
100
AcDbLine
 10
-450.655
 20
407.398
 30
5.1
 11
-450.83
 21
407.795
 31
5.1
  0
LINE
  5
B5D
330
A02
100
AcDbEntity
  8
Mesh_cs002
100
AcDbLine
 10
-450.83
 20
407.795
 30
5.1
 11
-450.835
 21
407.804
 31
5.1
  0
LINE
  5
B5E
330
A02
100
AcDbEntity
  8
Mesh_cs002
100
AcDbLine
 10
-450.835
 20
407.804
 30
5.1
 11
-451.044
 21
408.183
 31
5.1
  0
LINE
  5
B5F
330
A02
100
AcDbEntity
  8
Mesh_cs002
100
AcDbLine
 10
-451.044
 20
408.183
 30
5.1
 11
-451.049
 21
408.192
 31
5.1
  0
LINE
  5
B60
330
A02
100
AcDbEntity
  8
Mesh_cs002
100
AcDbLine
 10
-451.049
 20
408.192
 30
5.1
 11
-451.291
 21
408.55
 31
5.1
  0
LINE
  5
B61
330
A02
100
AcDbEntity
  8
Mesh_cs002
100
AcDbLine
 10
-451.291
 20
408.55
 30
5.1
 11
-451.297
 21
408.558
 31
5.1
  0
LINE
  5
B62
330
A02
100
AcDbEntity
  8
Mesh_cs002
100
AcDbLine
 10
-451.297
 20
408.558
 30
5.1
 11
-451.569
 21
408.893
 31
5.1
  0
LINE
  5
B63
330
A02
100
AcDbEntity
  8
Mesh_cs002
100
AcDbLine
 10
-451.569
 20
408.893
 30
5.1
 11
-451.575
 21
408.901
 31
5.1
  0
LINE
  5
B64
330
A02
100
AcDbEntity
  8
Mesh_cs002
100
AcDbLine
 10
-451.575
 20
408.901
 30
5.1
 11
-451.875
 21
409.21
 31
5.1
  0
LINE
  5
B65
330
A02
100
AcDbEntity
  8
Mesh_cs002
100
AcDbLine
 10
-451.875
 20
409.21
 30
5.1
 11
-451.882
 21
409.217
 31
5.1
  0
LINE
  5
B66
330
A02
100
AcDbEntity
  8
Mesh_cs002
100
AcDbLine
 10
-451.882
 20
409.217
 30
5.1
 11
-452.208
 21
409.498
 31
5.1
  0
LINE
  5
B67
330
A02
100
AcDbEntity
  8
Mesh_cs002
100
AcDbLine
 10
-452.208
 20
409.498
 30
5.1
 11
-452.215
 21
409.504
 31
5.1
  0
LINE
  5
B68
330
A02
100
AcDbEntity
  8
Mesh_cs002
100
AcDbLine
 10
-452.215
 20
409.504
 30
5.1
 11
-452.563
 21
409.755
 31
5.1
  0
LINE
  5
B69
330
A02
100
AcDbEntity
  8
Mesh_cs002
100
AcDbLine
 10
-452.563
 20
409.755
 30
5.1
 11
-452.572
 21
409.761
 31
5.1
  0
LINE
  5
B6A
330
A02
100
AcDbEntity
  8
Mesh_cs002
100
AcDbLine
 10
-452.572
 20
409.761
 30
5.1
 11
-452.939
 21
409.98
 31
5.1
  0
LINE
  5
B6B
330
A02
100
AcDbEntity
  8
Mesh_cs002
100
AcDbLine
 10
-452.939
 20
409.98
 30
5.1
 11
-452.948
 21
409.985
 31
5.1
  0
LINE
  5
B6C
330
A02
100
AcDbEntity
  8
Mesh_cs002
100
AcDbLine
 10
-452.948
 20
409.985
 30
5.1
 11
-453.332
 21
410.17
 31
5.1
  0
LINE
  5
B6D
330
A02
100
AcDbEntity
  8
Mesh_cs002
100
AcDbLine
 10
-453.332
 20
410.17
 30
5.1
 11
-453.342
 21
410.174
 31
5.1
  0
LINE
  5
B6E
330
A02
100
AcDbEntity
  8
Mesh_cs002
100
AcDbLine
 10
-453.342
 20
410.174
 30
5.1
 11
-453.55
 21
410.258
 31
5.1
  0
LINE
  5
B6F
330
A02
100
AcDbEntity
  8
Mesh_cs002
100
AcDbLine
 10
-453.55
 20
410.258
 30
5.1
 11
-453.56
 21
410.262
 31
5.1
  0
LINE
  5
B70
330
A02
100
AcDbEntity
  8
Mesh_cs002
100
AcDbLine
 10
-453.56
 20
410.262
 30
5.1
 11
-453.767
 21
410.334
 31
5.1
  0
LINE
  5
B71
330
A02
100
AcDbEntity
  8
Mesh_cs002
100
AcDbLine
 10
-453.767
 20
410.334
 30
5.1
 11
-454.153
 21
410.442
 31
5.1
  0
LINE
  5
B72
330
A02
100
AcDbEntity
  8
Mesh_cs002
100
AcDbLine
 10
-454.153
 20
410.442
 30
5.1
 11
-454.163
 21
410.445
 31
5.1
  0
LINE
  5
B73
330
A02
100
AcDbEntity
  8
Mesh_cs002
100
AcDbLine
 10
-454.163
 20
410.445
 30
5.1
 11
-454.575
 21
410.524
 31
5.1
  0
LINE
  5
B74
330
A02
100
AcDbEntity
  8
Mesh_cs002
100
AcDbLine
 10
-454.575
 20
410.524
 30
5.1
 11
-454.586
 21
410.526
 31
5.1
  0
LINE
  5
B75
330
A02
100
AcDbEntity
  8
Mesh_cs002
100
AcDbLine
 10
-454.586
 20
410.526
 30
5.1
 11
-454.984
 21
410.568
 31
5.1
  0
LINE
  5
B76
330
A02
100
AcDbEntity
  8
Mesh_cs002
100
AcDbLine
 10
-454.984
 20
410.568
 30
5.1
 11
-454.994
 21
410.569
 31
5.1
  0
LINE
  5
B77
330
A02
100
AcDbEntity
  8
Mesh_cs002
100
AcDbLine
 10
-454.994
 20
410.569
 30
5.1
 11
-455.393
 21
410.578
 31
5.1
  0
LINE
  5
B78
330
A02
100
AcDbEntity
  8
Mesh_cs002
100
AcDbLine
 10
-455.393
 20
410.578
 30
5.1
 11
-455.403
 21
410.578
 31
5.1
  0
LINE
  5
B79
330
A02
100
AcDbEntity
  8
Mesh_cs002
100
AcDbLine
 10
-455.403
 20
410.578
 30
5.1
 11
-455.8
 21
410.554
 31
5.1
  0
LINE
  5
B7A
330
A02
100
AcDbEntity
  8
Mesh_cs002
100
AcDbLine
 10
-455.8
 20
410.554
 30
5.1
 11
-455.81
 21
410.554
 31
5.1
  0
LINE
  5
B7B
330
A02
100
AcDbEntity
  8
Mesh_cs002
100
AcDbLine
 10
-455.81
 20
410.554
 30
5.1
 11
-456.204
 21
410.498
 31
5.1
  0
LINE
  5
B7C
330
A02
100
AcDbEntity
  8
Mesh_cs002
100
AcDbLine
 10
-456.204
 20
410.498
 30
5.1
 11
-456.214
 21
410.497
 31
5.1
  0
LINE
  5
B7D
330
A02
100
AcDbEntity
  8
Mesh_cs002
100
AcDbLine
 10
-456.214
 20
410.497
 30
5.1
 11
-456.601
 21
410.409
 31
5.1
  0
LINE
  5
B7E
330
A02
100
AcDbEntity
  8
Mesh_cs002
100
AcDbLine
 10
-456.601
 20
410.409
 30
5.1
 11
-456.611
 21
410.407
 31
5.1
  0
LINE
  5
B7F
330
A02
100
AcDbEntity
  8
Mesh_cs002
100
AcDbLine
 10
-456.611
 20
410.407
 30
5.1
 11
-456.989
 21
410.289
 31
5.1
  0
LINE
  5
B80
330
A02
100
AcDbEntity
  8
Mesh_cs002
100
AcDbLine
 10
-456.989
 20
410.289
 30
5.1
 11
-456.998
 21
410.286
 31
5.1
  0
LINE
  5
B81
330
A02
100
AcDbEntity
  8
Mesh_cs002
100
AcDbLine
 10
-456.998
 20
410.286
 30
5.1
 11
-457.365
 21
410.138
 31
5.1
  0
LINE
  5
B82
330
A02
100
AcDbEntity
  8
Mesh_cs002
100
AcDbLine
 10
-457.365
 20
410.138
 30
5.1
 11
-457.374
 21
410.134
 31
5.1
  0
LINE
  5
B83
330
A02
100
AcDbEntity
  8
Mesh_cs002
100
AcDbLine
 10
-457.374
 20
410.134
 30
5.1
 11
-457.727
 21
409.957
 31
5.1
  0
LINE
  5
B84
330
A02
100
AcDbEntity
  8
Mesh_cs002
100
AcDbLine
 10
-457.727
 20
409.957
 30
5.1
 11
-458.072
 21
409.747
 31
5.1
  0
LINE
  5
B85
330
A02
100
AcDbEntity
  8
Mesh_cs002
100
AcDbLine
 10
-458.072
 20
409.747
 30
5.1
 11
-458.399
 21
409.511
 31
5.1
  0
LINE
  5
B86
330
A02
100
AcDbEntity
  8
Mesh_cs002
100
AcDbLine
 10
-458.399
 20
409.511
 30
5.1
 11
-458.408
 21
409.505
 31
5.1
  0
LINE
  5
B87
330
A02
100
AcDbEntity
  8
Mesh_cs002
100
AcDbLine
 10
-458.408
 20
409.505
 30
5.1
 11
-458.706
 21
409.25
 31
5.1
  0
LINE
  5
B88
330
A02
100
AcDbEntity
  8
Mesh_cs002
100
AcDbLine
 10
-458.706
 20
409.25
 30
5.1
 11
-458.721
 21
409.236
 31
5.1
  0
LINE
  5
B89
330
A02
100
AcDbEntity
  8
Mesh_cs002
100
AcDbLine
 10
-458.721
 20
409.236
 30
5.1
 11
-459.026
 21
408.926
 31
5.1
  0
LINE
  5
B8A
330
A02
100
AcDbEntity
  8
Mesh_cs002
100
AcDbLine
 10
-459.026
 20
408.926
 30
5.1
 11
-459.31
 21
408.582
 31
5.1
  0
LINE
  5
B8B
330
A02
100
AcDbEntity
  8
Mesh_cs002
100
AcDbLine
 10
-459.31
 20
408.582
 30
5.1
 11
-459.561
 21
408.215
 31
5.1
  0
LINE
  5
B8C
330
A02
100
AcDbEntity
  8
Mesh_cs002
100
AcDbLine
 10
-459.561
 20
408.215
 30
5.1
 11
-459.778
 21
407.827
 31
5.1
  0
LINE
  5
B8D
330
A02
100
AcDbEntity
  8
Mesh_cs002
100
AcDbLine
 10
-459.778
 20
407.827
 30
5.1
 11
-459.959
 21
407.423
 31
5.1
  0
LINE
  5
B8E
330
A02
100
AcDbEntity
  8
Mesh_cs002
100
AcDbLine
 10
-459.959
 20
407.423
 30
5.1
 11
-460.104
 21
407.005
 31
5.1
  0
LINE
  5
B8F
330
A02
100
AcDbEntity
  8
Mesh_cs002
100
AcDbLine
 10
-460.104
 20
407.005
 30
5.1
 11
-460.211
 21
406.577
 31
5.1
  0
LINE
  5
B90
330
A02
100
AcDbEntity
  8
Mesh_cs002
100
AcDbLine
 10
-460.211
 20
406.577
 30
5.1
 11
-460.28
 21
406.142
 31
5.1
  0
LINE
  5
B91
330
A02
100
AcDbEntity
  8
Mesh_cs002
100
AcDbLine
 10
-460.28
 20
406.142
 30
5.1
 11
-460.31
 21
405.704
 31
5.1
  0
LINE
  5
B92
330
A02
100
AcDbEntity
  8
Mesh_cs002
100
AcDbLine
 10
-460.31
 20
405.704
 30
5.1
 11
-460.302
 21
405.266
 31
5.1
  0
LINE
  5
B93
330
A02
100
AcDbEntity
  8
Mesh_cs002
100
AcDbLine
 10
-460.302
 20
405.266
 30
5.1
 11
-460.256
 21
404.831
 31
5.1
  0
LINE
  5
B94
330
A02
100
AcDbEntity
  8
Mesh_cs002
100
AcDbLine
 10
-460.256
 20
404.831
 30
5.1
 11
-460.171
 21
404.401
 31
5.1
  0
LINE
  5
B95
330
A02
100
AcDbEntity
  8
Mesh_cs002
100
AcDbLine
 10
-460.171
 20
404.401
 30
5.1
 11
-460.061
 21
404.015
 31
5.1
  0
LINE
  5
B96
330
A02
100
AcDbEntity
  8
Mesh_cs002
100
AcDbLine
 10
-460.061
 20
404.015
 30
5.1
 11
-459.916
 21
403.63
 31
5.1
  0
LINE
  5
B97
330
A02
100
AcDbEntity
  8
Mesh_cs002
100
AcDbLine
 10
-459.916
 20
403.63
 30
5.1
 11
-459.741
 21
403.259
 31
5.1
  0
LINE
  5
B98
330
A02
100
AcDbEntity
  8
Mesh_cs002
100
AcDbLine
 10
-459.741
 20
403.259
 30
5.1
 11
-459.536
 21
402.904
 31
5.1
  0
LINE
  5
B99
330
A02
100
AcDbEntity
  8
Mesh_cs002
100
AcDbLine
 10
-459.536
 20
402.904
 30
5.1
 11
-459.304
 21
402.569
 31
5.1
  0
LINE
  5
B9A
330
A02
100
AcDbEntity
  8
Mesh_cs002
100
AcDbLine
 10
-459.304
 20
402.569
 30
5.1
 11
-459.046
 21
402.254
 31
5.1
  0
LINE
  5
B9B
330
A02
100
AcDbEntity
  8
Mesh_cs002
100
AcDbLine
 10
-459.046
 20
402.254
 30
5.1
 11
-458.763
 21
401.961
 31
5.1
  0
LINE
  5
B9C
330
A02
100
AcDbEntity
  8
Mesh_cs002
100
AcDbLine
 10
-458.763
 20
401.961
 30
5.1
 11
-458.756
 21
401.954
 31
5.1
  0
LINE
  5
B9D
330
A02
100
AcDbEntity
  8
Mesh_cs002
100
AcDbLine
 10
-458.756
 20
401.954
 30
5.1
 11
-458.458
 21
401.693
 31
5.1
  0
LINE
  5
B9E
330
A02
100
AcDbEntity
  8
Mesh_cs002
100
AcDbLine
 10
-458.458
 20
401.693
 30
5.1
 11
-458.451
 21
401.686
 31
5.1
  0
LINE
  5
B9F
330
A02
100
AcDbEntity
  8
Mesh_cs002
100
AcDbLine
 10
-458.451
 20
401.686
 30
5.1
 11
-458.133
 21
401.451
 31
5.1
  0
LINE
  5
BA0
330
A02
100
AcDbEntity
  8
Mesh_cs002
100
AcDbLine
 10
-458.133
 20
401.451
 30
5.1
 11
-457.79
 21
401.236
 31
5.1
  0
LINE
  5
BA1
330
A02
100
AcDbEntity
  8
Mesh_cs002
100
AcDbLine
 10
-457.79
 20
401.236
 30
5.1
 11
-457.432
 21
401.051
 31
5.1
  0
LINE
  5
BA2
330
A02
100
AcDbEntity
  8
Mesh_cs002
100
AcDbLine
 10
-457.432
 20
401.051
 30
5.1
 11
-457.423
 21
401.046
 31
5.1
  0
LINE
  5
BA3
330
A02
100
AcDbEntity
  8
Mesh_cs002
100
AcDbLine
 10
-457.423
 20
401.046
 30
5.1
 11
-457.06
 21
400.895
 31
5.1
  0
LINE
  5
BA4
330
A02
100
AcDbEntity
  8
Mesh_cs002
100
AcDbLine
 10
-457.06
 20
400.895
 30
5.1
 11
-456.677
 21
400.769
 31
5.1
  0
LINE
  5
BA5
330
A02
100
AcDbEntity
  8
Mesh_cs002
100
AcDbLine
 10
-405.621
 20
557.873
 30
5.1
 11
-405.219
 21
557.704
 31
5.1
  0
LINE
  5
BA6
330
A02
100
AcDbEntity
  8
Mesh_cs002
100
AcDbLine
 10
-405.219
 20
557.704
 30
5.1
 11
-405.21
 21
557.7
 31
5.1
  0
LINE
  5
BA7
330
A02
100
AcDbEntity
  8
Mesh_cs002
100
AcDbLine
 10
-405.21
 20
557.7
 30
5.1
 11
-404.826
 21
557.497
 31
5.1
  0
LINE
  5
BA8
330
A02
100
AcDbEntity
  8
Mesh_cs002
100
AcDbLine
 10
-404.826
 20
557.497
 30
5.1
 11
-404.817
 21
557.492
 31
5.1
  0
LINE
  5
BA9
330
A02
100
AcDbEntity
  8
Mesh_cs002
100
AcDbLine
 10
-404.817
 20
557.492
 30
5.1
 11
-404.809
 21
557.487
 31
5.1
  0
LINE
  5
BAA
330
A02
100
AcDbEntity
  8
Mesh_cs002
100
AcDbLine
 10
-404.809
 20
557.487
 30
5.1
 11
-404.445
 21
557.251
 31
5.1
  0
LINE
  5
BAB
330
A02
100
AcDbEntity
  8
Mesh_cs002
100
AcDbLine
 10
-404.445
 20
557.251
 30
5.1
 11
-404.437
 21
557.245
 31
5.1
  0
LINE
  5
BAC
330
A02
100
AcDbEntity
  8
Mesh_cs002
100
AcDbLine
 10
-404.437
 20
557.245
 30
5.1
 11
-404.097
 21
556.978
 31
5.1
  0
LINE
  5
BAD
330
A02
100
AcDbEntity
  8
Mesh_cs002
100
AcDbLine
 10
-404.097
 20
556.978
 30
5.1
 11
-404.089
 21
556.97
 31
5.1
  0
LINE
  5
BAE
330
A02
100
AcDbEntity
  8
Mesh_cs002
100
AcDbLine
 10
-404.089
 20
556.97
 30
5.1
 11
-403.774
 21
556.675
 31
5.1
  0
LINE
  5
BAF
330
A02
100
AcDbEntity
  8
Mesh_cs002
100
AcDbLine
 10
-403.774
 20
556.675
 30
5.1
 11
-403.766
 21
556.666
 31
5.1
  0
LINE
  5
BB0
330
A02
100
AcDbEntity
  8
Mesh_cs002
100
AcDbLine
 10
-403.766
 20
556.666
 30
5.1
 11
-403.479
 21
556.345
 31
5.1
  0
LINE
  5
BB1
330
A02
100
AcDbEntity
  8
Mesh_cs002
100
AcDbLine
 10
-403.479
 20
556.345
 30
5.1
 11
-403.473
 21
556.336
 31
5.1
  0
LINE
  5
BB2
330
A02
100
AcDbEntity
  8
Mesh_cs002
100
AcDbLine
 10
-403.473
 20
556.336
 30
5.1
 11
-403.216
 21
555.991
 31
5.1
  0
LINE
  5
BB3
330
A02
100
AcDbEntity
  8
Mesh_cs002
100
AcDbLine
 10
-403.216
 20
555.991
 30
5.1
 11
-403.21
 21
555.982
 31
5.1
  0
LINE
  5
BB4
330
A02
100
AcDbEntity
  8
Mesh_cs002
100
AcDbLine
 10
-403.21
 20
555.982
 30
5.1
 11
-402.985
 21
555.617
 31
5.1
  0
LINE
  5
BB5
330
A02
100
AcDbEntity
  8
Mesh_cs002
100
AcDbLine
 10
-402.985
 20
555.617
 30
5.1
 11
-402.98
 21
555.607
 31
5.1
  0
LINE
  5
BB6
330
A02
100
AcDbEntity
  8
Mesh_cs002
100
AcDbLine
 10
-402.98
 20
555.607
 30
5.1
 11
-402.788
 21
555.224
 31
5.1
  0
LINE
  5
BB7
330
A02
100
AcDbEntity
  8
Mesh_cs002
100
AcDbLine
 10
-402.788
 20
555.224
 30
5.1
 11
-402.784
 21
555.214
 31
5.1
  0
LINE
  5
BB8
330
A02
100
AcDbEntity
  8
Mesh_cs002
100
AcDbLine
 10
-402.784
 20
555.214
 30
5.1
 11
-402.627
 21
554.816
 31
5.1
  0
LINE
  5
BB9
330
A02
100
AcDbEntity
  8
Mesh_cs002
100
AcDbLine
 10
-402.627
 20
554.816
 30
5.1
 11
-402.624
 21
554.806
 31
5.1
  0
LINE
  5
BBA
330
A02
100
AcDbEntity
  8
Mesh_cs002
100
AcDbLine
 10
-402.624
 20
554.806
 30
5.1
 11
-402.502
 21
554.397
 31
5.1
  0
LINE
  5
BBB
330
A02
100
AcDbEntity
  8
Mesh_cs002
100
AcDbLine
 10
-402.502
 20
554.397
 30
5.1
 11
-402.5
 21
554.387
 31
5.1
  0
LINE
  5
BBC
330
A02
100
AcDbEntity
  8
Mesh_cs002
100
AcDbLine
 10
-402.5
 20
554.387
 30
5.1
 11
-402.414
 21
553.963
 31
5.1
  0
LINE
  5
BBD
330
A02
100
AcDbEntity
  8
Mesh_cs002
100
AcDbLine
 10
-402.414
 20
553.963
 30
5.1
 11
-402.412
 21
553.952
 31
5.1
  0
LINE
  5
BBE
330
A02
100
AcDbEntity
  8
Mesh_cs002
100
AcDbLine
 10
-402.412
 20
553.952
 30
5.1
 11
-402.366
 21
553.554
 31
5.1
  0
LINE
  5
BBF
330
A02
100
AcDbEntity
  8
Mesh_cs002
100
AcDbLine
 10
-402.366
 20
553.554
 30
5.1
 11
-402.353
 21
553.154
 31
5.1
  0
LINE
  5
BC0
330
A02
100
AcDbEntity
  8
Mesh_cs002
100
AcDbLine
 10
-402.353
 20
553.154
 30
5.1
 11
-402.353
 21
553.143
 31
5.1
  0
LINE
  5
BC1
330
A02
100
AcDbEntity
  8
Mesh_cs002
100
AcDbLine
 10
-402.353
 20
553.143
 30
5.1
 11
-402.372
 21
552.744
 31
5.1
  0
LINE
  5
BC2
330
A02
100
AcDbEntity
  8
Mesh_cs002
100
AcDbLine
 10
-402.372
 20
552.744
 30
5.1
 11
-402.373
 21
552.733
 31
5.1
  0
LINE
  5
BC3
330
A02
100
AcDbEntity
  8
Mesh_cs002
100
AcDbLine
 10
-402.373
 20
552.733
 30
5.1
 11
-402.425
 21
552.338
 31
5.1
  0
LINE
  5
BC4
330
A02
100
AcDbEntity
  8
Mesh_cs002
100
AcDbLine
 10
-402.425
 20
552.338
 30
5.1
 11
-402.426
 21
552.327
 31
5.1
  0
LINE
  5
BC5
330
A02
100
AcDbEntity
  8
Mesh_cs002
100
AcDbLine
 10
-402.426
 20
552.327
 30
5.1
 11
-402.51
 21
551.939
 31
5.1
  0
LINE
  5
BC6
330
A02
100
AcDbEntity
  8
Mesh_cs002
100
AcDbLine
 10
-402.51
 20
551.939
 30
5.1
 11
-402.512
 21
551.931
 31
5.1
  0
LINE
  5
BC7
330
A02
100
AcDbEntity
  8
Mesh_cs002
100
AcDbLine
 10
-402.512
 20
551.931
 30
5.1
 11
-402.514
 21
551.923
 31
5.1
  0
LINE
  5
BC8
330
A02
100
AcDbEntity
  8
Mesh_cs002
100
AcDbLine
 10
-402.514
 20
551.923
 30
5.1
 11
-402.629
 21
551.543
 31
5.1
  0
LINE
  5
BC9
330
A02
100
AcDbEntity
  8
Mesh_cs002
100
AcDbLine
 10
-402.629
 20
551.543
 30
5.1
 11
-402.632
 21
551.535
 31
5.1
  0
LINE
  5
BCA
330
A02
100
AcDbEntity
  8
Mesh_cs002
100
AcDbLine
 10
-402.632
 20
551.535
 30
5.1
 11
-402.777
 21
551.167
 31
5.1
  0
LINE
  5
BCB
330
A02
100
AcDbEntity
  8
Mesh_cs002
100
AcDbLine
 10
-402.777
 20
551.167
 30
5.1
 11
-402.78
 21
551.159
 31
5.1
  0
LINE
  5
BCC
330
A02
100
AcDbEntity
  8
Mesh_cs002
100
AcDbLine
 10
-402.78
 20
551.159
 30
5.1
 11
-402.955
 21
550.804
 31
5.1
  0
LINE
  5
BCD
330
A02
100
AcDbEntity
  8
Mesh_cs002
100
AcDbLine
 10
-402.955
 20
550.804
 30
5.1
 11
-402.96
 21
550.794
 31
5.1
  0
LINE
  5
BCE
330
A02
100
AcDbEntity
  8
Mesh_cs002
100
AcDbLine
 10
-402.96
 20
550.794
 30
5.1
 11
-403.162
 21
550.455
 31
5.1
  0
LINE
  5
BCF
330
A02
100
AcDbEntity
  8
Mesh_cs002
100
AcDbLine
 10
-403.162
 20
550.455
 30
5.1
 11
-403.168
 21
550.446
 31
5.1
  0
LINE
  5
BD0
330
A02
100
AcDbEntity
  8
Mesh_cs002
100
AcDbLine
 10
-403.168
 20
550.446
 30
5.1
 11
-403.397
 21
550.125
 31
5.1
  0
LINE
  5
BD1
330
A02
100
AcDbEntity
  8
Mesh_cs002
100
AcDbLine
 10
-403.397
 20
550.125
 30
5.1
 11
-403.404
 21
550.116
 31
5.1
  0
LINE
  5
BD2
330
A02
100
AcDbEntity
  8
Mesh_cs002
100
AcDbLine
 10
-403.404
 20
550.116
 30
5.1
 11
-403.657
 21
549.815
 31
5.1
  0
LINE
  5
BD3
330
A02
100
AcDbEntity
  8
Mesh_cs002
100
AcDbLine
 10
-403.657
 20
549.815
 30
5.1
 11
-403.665
 21
549.807
 31
5.1
  0
LINE
  5
BD4
330
A02
100
AcDbEntity
  8
Mesh_cs002
100
AcDbLine
 10
-403.665
 20
549.807
 30
5.1
 11
-403.941
 21
549.528
 31
5.1
  0
LINE
  5
BD5
330
A02
100
AcDbEntity
  8
Mesh_cs002
100
AcDbLine
 10
-403.941
 20
549.528
 30
5.1
 11
-403.949
 21
549.52
 31
5.1
  0
LINE
  5
BD6
330
A02
100
AcDbEntity
  8
Mesh_cs002
100
AcDbLine
 10
-403.949
 20
549.52
 30
5.1
 11
-404.281
 21
549.238
 31
5.1
  0
LINE
  5
BD7
330
A02
100
AcDbEntity
  8
Mesh_cs002
100
AcDbLine
 10
-404.281
 20
549.238
 30
5.1
 11
-404.29
 21
549.231
 31
5.1
  0
LINE
  5
BD8
330
A02
100
AcDbEntity
  8
Mesh_cs002
100
AcDbLine
 10
-404.29
 20
549.231
 30
5.1
 11
-404.645
 21
548.979
 31
5.1
  0
LINE
  5
BD9
330
A02
100
AcDbEntity
  8
Mesh_cs002
100
AcDbLine
 10
-404.645
 20
548.979
 30
5.1
 11
-404.654
 21
548.974
 31
5.1
  0
LINE
  5
BDA
330
A02
100
AcDbEntity
  8
Mesh_cs002
100
AcDbLine
 10
-404.654
 20
548.974
 30
5.1
 11
-405.029
 21
548.755
 31
5.1
  0
LINE
  5
BDB
330
A02
100
AcDbEntity
  8
Mesh_cs002
100
AcDbLine
 10
-405.029
 20
548.755
 30
5.1
 11
-405.038
 21
548.751
 31
5.1
  0
LINE
  5
BDC
330
A02
100
AcDbEntity
  8
Mesh_cs002
100
AcDbLine
 10
-405.038
 20
548.751
 30
5.1
 11
-405.431
 21
548.567
 31
5.1
  0
LINE
  5
BDD
330
A02
100
AcDbEntity
  8
Mesh_cs002
100
AcDbLine
 10
-405.431
 20
548.567
 30
5.1
 11
-405.44
 21
548.563
 31
5.1
  0
LINE
  5
BDE
330
A02
100
AcDbEntity
  8
Mesh_cs002
100
AcDbLine
 10
-405.44
 20
548.563
 30
5.1
 11
-405.846
 21
548.415
 31
5.1
  0
LINE
  5
BDF
330
A02
100
AcDbEntity
  8
Mesh_cs002
100
AcDbLine
 10
-405.846
 20
548.415
 30
5.1
 11
-405.856
 21
548.412
 31
5.1
  0
LINE
  5
BE0
330
A02
100
AcDbEntity
  8
Mesh_cs002
100
AcDbLine
 10
-405.856
 20
548.412
 30
5.1
 11
-406.273
 21
548.301
 31
5.1
  0
LINE
  5
BE1
330
A02
100
AcDbEntity
  8
Mesh_cs002
100
AcDbLine
 10
-406.273
 20
548.301
 30
5.1
 11
-406.282
 21
548.299
 31
5.1
  0
LINE
  5
BE2
330
A02
100
AcDbEntity
  8
Mesh_cs002
100
AcDbLine
 10
-406.282
 20
548.299
 30
5.1
 11
-406.707
 21
548.225
 31
5.1
  0
LINE
  5
BE3
330
A02
100
AcDbEntity
  8
Mesh_cs002
100
AcDbLine
 10
-406.707
 20
548.225
 30
5.1
 11
-406.717
 21
548.223
 31
5.1
  0
LINE
  5
BE4
330
A02
100
AcDbEntity
  8
Mesh_cs002
100
AcDbLine
 10
-406.717
 20
548.223
 30
5.1
 11
-407.145
 21
548.187
 31
5.1
  0
LINE
  5
BE5
330
A02
100
AcDbEntity
  8
Mesh_cs002
100
AcDbLine
 10
-407.145
 20
548.187
 30
5.1
 11
-407.155
 21
548.187
 31
5.1
  0
LINE
  5
BE6
330
A02
100
AcDbEntity
  8
Mesh_cs002
100
AcDbLine
 10
-407.155
 20
548.187
 30
5.1
 11
-407.583
 21
548.188
 31
5.1
  0
LINE
  5
BE7
330
A02
100
AcDbEntity
  8
Mesh_cs002
100
AcDbLine
 10
-407.583
 20
548.188
 30
5.1
 11
-407.594
 21
548.189
 31
5.1
  0
LINE
  5
BE8
330
A02
100
AcDbEntity
  8
Mesh_cs002
100
AcDbLine
 10
-407.594
 20
548.189
 30
5.1
 11
-408.02
 21
548.228
 31
5.1
  0
LINE
  5
BE9
330
A02
100
AcDbEntity
  8
Mesh_cs002
100
AcDbLine
 10
-408.02
 20
548.228
 30
5.1
 11
-408.03
 21
548.229
 31
5.1
  0
LINE
  5
BEA
330
A02
100
AcDbEntity
  8
Mesh_cs002
100
AcDbLine
 10
-408.03
 20
548.229
 30
5.1
 11
-408.45
 21
548.305
 31
5.1
  0
LINE
  5
BEB
330
A02
100
AcDbEntity
  8
Mesh_cs002
100
AcDbLine
 10
-408.45
 20
548.305
 30
5.1
 11
-408.46
 21
548.307
 31
5.1
  0
LINE
  5
BEC
330
A02
100
AcDbEntity
  8
Mesh_cs002
100
AcDbLine
 10
-408.46
 20
548.307
 30
5.1
 11
-408.678
 21
548.362
 31
5.1
  0
LINE
  5
BED
330
A02
100
AcDbEntity
  8
Mesh_cs002
100
AcDbLine
 10
-408.678
 20
548.362
 30
5.1
 11
-408.688
 21
548.364
 31
5.1
  0
LINE
  5
BEE
330
A02
100
AcDbEntity
  8
Mesh_cs002
100
AcDbLine
 10
-408.688
 20
548.364
 30
5.1
 11
-408.898
 21
548.427
 31
5.1
  0
LINE
  5
BEF
330
A02
100
AcDbEntity
  8
Mesh_cs002
100
AcDbLine
 10
-408.898
 20
548.427
 30
5.1
 11
-409.274
 21
548.567
 31
5.1
  0
LINE
  5
BF0
330
A02
100
AcDbEntity
  8
Mesh_cs002
100
AcDbLine
 10
-409.274
 20
548.567
 30
5.1
 11
-409.284
 21
548.571
 31
5.1
  0
LINE
  5
BF1
330
A02
100
AcDbEntity
  8
Mesh_cs002
100
AcDbLine
 10
-409.284
 20
548.571
 30
5.1
 11
-409.663
 21
548.749
 31
5.1
  0
LINE
  5
BF2
330
A02
100
AcDbEntity
  8
Mesh_cs002
100
AcDbLine
 10
-409.663
 20
548.749
 30
5.1
 11
-409.673
 21
548.754
 31
5.1
  0
LINE
  5
BF3
330
A02
100
AcDbEntity
  8
Mesh_cs002
100
AcDbLine
 10
-409.673
 20
548.754
 30
5.1
 11
-410.019
 21
548.954
 31
5.1
  0
LINE
  5
BF4
330
A02
100
AcDbEntity
  8
Mesh_cs002
100
AcDbLine
 10
-410.019
 20
548.954
 30
5.1
 11
-410.028
 21
548.959
 31
5.1
  0
LINE
  5
BF5
330
A02
100
AcDbEntity
  8
Mesh_cs002
100
AcDbLine
 10
-410.028
 20
548.959
 30
5.1
 11
-410.356
 21
549.186
 31
5.1
  0
LINE
  5
BF6
330
A02
100
AcDbEntity
  8
Mesh_cs002
100
AcDbLine
 10
-410.356
 20
549.186
 30
5.1
 11
-410.365
 21
549.192
 31
5.1
  0
LINE
  5
BF7
330
A02
100
AcDbEntity
  8
Mesh_cs002
100
AcDbLine
 10
-410.365
 20
549.192
 30
5.1
 11
-410.672
 21
549.444
 31
5.1
  0
LINE
  5
BF8
330
A02
100
AcDbEntity
  8
Mesh_cs002
100
AcDbLine
 10
-410.672
 20
549.444
 30
5.1
 11
-410.68
 21
549.451
 31
5.1
  0
LINE
  5
BF9
330
A02
100
AcDbEntity
  8
Mesh_cs002
100
AcDbLine
 10
-410.68
 20
549.451
 30
5.1
 11
-410.966
 21
549.727
 31
5.1
  0
LINE
  5
BFA
330
A02
100
AcDbEntity
  8
Mesh_cs002
100
AcDbLine
 10
-410.966
 20
549.727
 30
5.1
 11
-410.973
 21
549.734
 31
5.1
  0
LINE
  5
BFB
330
A02
100
AcDbEntity
  8
Mesh_cs002
100
AcDbLine
 10
-410.973
 20
549.734
 30
5.1
 11
-411.235
 21
550.032
 31
5.1
  0
LINE
  5
BFC
330
A02
100
AcDbEntity
  8
Mesh_cs002
100
AcDbLine
 10
-411.235
 20
550.032
 30
5.1
 11
-411.241
 21
550.04
 31
5.1
  0
LINE
  5
BFD
330
A02
100
AcDbEntity
  8
Mesh_cs002
100
AcDbLine
 10
-411.241
 20
550.04
 30
5.1
 11
-411.478
 21
550.358
 31
5.1
  0
LINE
  5
BFE
330
A02
100
AcDbEntity
  8
Mesh_cs002
100
AcDbLine
 10
-411.478
 20
550.358
 30
5.1
 11
-411.484
 21
550.366
 31
5.1
  0
LINE
  5
BFF
330
A02
100
AcDbEntity
  8
Mesh_cs002
100
AcDbLine
 10
-411.484
 20
550.366
 30
5.1
 11
-411.693
 21
550.701
 31
5.1
  0
LINE
  5
C00
330
A02
100
AcDbEntity
  8
Mesh_cs002
100
AcDbLine
 10
-411.693
 20
550.701
 30
5.1
 11
-411.698
 21
550.71
 31
5.1
  0
LINE
  5
C01
330
A02
100
AcDbEntity
  8
Mesh_cs002
100
AcDbLine
 10
-411.698
 20
550.71
 30
5.1
 11
-411.879
 21
551.06
 31
5.1
  0
LINE
  5
C02
330
A02
100
AcDbEntity
  8
Mesh_cs002
100
AcDbLine
 10
-411.879
 20
551.06
 30
5.1
 11
-411.884
 21
551.069
 31
5.1
  0
LINE
  5
C03
330
A02
100
AcDbEntity
  8
Mesh_cs002
100
AcDbLine
 10
-411.884
 20
551.069
 30
5.1
 11
-412.036
 21
551.433
 31
5.1
  0
LINE
  5
C04
330
A02
100
AcDbEntity
  8
Mesh_cs002
100
AcDbLine
 10
-412.036
 20
551.433
 30
5.1
 11
-412.04
 21
551.442
 31
5.1
  0
LINE
  5
C05
330
A02
100
AcDbEntity
  8
Mesh_cs002
100
AcDbLine
 10
-412.04
 20
551.442
 30
5.1
 11
-412.162
 21
551.816
 31
5.1
  0
LINE
  5
C06
330
A02
100
AcDbEntity
  8
Mesh_cs002
100
AcDbLine
 10
-412.162
 20
551.816
 30
5.1
 11
-412.165
 21
551.826
 31
5.1
  0
LINE
  5
C07
330
A02
100
AcDbEntity
  8
Mesh_cs002
100
AcDbLine
 10
-412.165
 20
551.826
 30
5.1
 11
-412.256
 21
552.208
 31
5.1
  0
LINE
  5
C08
330
A02
100
AcDbEntity
  8
Mesh_cs002
100
AcDbLine
 10
-412.256
 20
552.208
 30
5.1
 11
-412.258
 21
552.217
 31
5.1
  0
LINE
  5
C09
330
A02
100
AcDbEntity
  8
Mesh_cs002
100
AcDbLine
 10
-412.258
 20
552.217
 30
5.1
 11
-412.26
 21
552.227
 31
5.1
  0
LINE
  5
C0A
330
A02
100
AcDbEntity
  8
Mesh_cs002
100
AcDbLine
 10
-412.26
 20
552.227
 30
5.1
 11
-412.325
 21
552.658
 31
5.1
  0
LINE
  5
C0B
330
A02
100
AcDbEntity
  8
Mesh_cs002
100
AcDbLine
 10
-412.325
 20
552.658
 30
5.1
 11
-412.326
 21
552.669
 31
5.1
  0
LINE
  5
C0C
330
A02
100
AcDbEntity
  8
Mesh_cs002
100
AcDbLine
 10
-412.326
 20
552.669
 30
5.1
 11
-412.352
 21
553.103
 31
5.1
  0
LINE
  5
C0D
330
A02
100
AcDbEntity
  8
Mesh_cs002
100
AcDbLine
 10
-412.352
 20
553.103
 30
5.1
 11
-412.352
 21
553.114
 31
5.1
  0
LINE
  5
C0E
330
A02
100
AcDbEntity
  8
Mesh_cs002
100
AcDbLine
 10
-412.352
 20
553.114
 30
5.1
 11
-412.339
 21
553.548
 31
5.1
  0
LINE
  5
C0F
330
A02
100
AcDbEntity
  8
Mesh_cs002
100
AcDbLine
 10
-412.339
 20
553.548
 30
5.1
 11
-412.338
 21
553.559
 31
5.1
  0
LINE
  5
C10
330
A02
100
AcDbEntity
  8
Mesh_cs002
100
AcDbLine
 10
-412.338
 20
553.559
 30
5.1
 11
-412.287
 21
553.988
 31
5.1
  0
LINE
  5
C11
330
A02
100
AcDbEntity
  8
Mesh_cs002
100
AcDbLine
 10
-412.287
 20
553.988
 30
5.1
 11
-412.285
 21
553.999
 31
5.1
  0
LINE
  5
C12
330
A02
100
AcDbEntity
  8
Mesh_cs002
100
AcDbLine
 10
-412.285
 20
553.999
 30
5.1
 11
-412.197
 21
554.422
 31
5.1
  0
LINE
  5
C13
330
A02
100
AcDbEntity
  8
Mesh_cs002
100
AcDbLine
 10
-412.197
 20
554.422
 30
5.1
 11
-412.193
 21
554.433
 31
5.1
  0
LINE
  5
C14
330
A02
100
AcDbEntity
  8
Mesh_cs002
100
AcDbLine
 10
-412.193
 20
554.433
 30
5.1
 11
-412.068
 21
554.845
 31
5.1
  0
LINE
  5
C15
330
A02
100
AcDbEntity
  8
Mesh_cs002
100
AcDbLine
 10
-412.068
 20
554.845
 30
5.1
 11
-412.064
 21
554.856
 31
5.1
  0
LINE
  5
C16
330
A02
100
AcDbEntity
  8
Mesh_cs002
100
AcDbLine
 10
-412.064
 20
554.856
 30
5.1
 11
-411.903
 21
555.255
 31
5.1
  0
LINE
  5
C17
330
A02
100
AcDbEntity
  8
Mesh_cs002
100
AcDbLine
 10
-411.903
 20
555.255
 30
5.1
 11
-411.898
 21
555.264
 31
5.1
  0
LINE
  5
C18
330
A02
100
AcDbEntity
  8
Mesh_cs002
100
AcDbLine
 10
-411.898
 20
555.264
 30
5.1
 11
-411.703
 21
555.647
 31
5.1
  0
LINE
  5
C19
330
A02
100
AcDbEntity
  8
Mesh_cs002
100
AcDbLine
 10
-411.703
 20
555.647
 30
5.1
 11
-411.697
 21
555.656
 31
5.1
  0
LINE
  5
C1A
330
A02
100
AcDbEntity
  8
Mesh_cs002
100
AcDbLine
 10
-411.697
 20
555.656
 30
5.1
 11
-411.47
 21
556.019
 31
5.1
  0
LINE
  5
C1B
330
A02
100
AcDbEntity
  8
Mesh_cs002
100
AcDbLine
 10
-411.47
 20
556.019
 30
5.1
 11
-411.463
 21
556.028
 31
5.1
  0
LINE
  5
C1C
330
A02
100
AcDbEntity
  8
Mesh_cs002
100
AcDbLine
 10
-411.463
 20
556.028
 30
5.1
 11
-411.206
 21
556.369
 31
5.1
  0
LINE
  5
C1D
330
A02
100
AcDbEntity
  8
Mesh_cs002
100
AcDbLine
 10
-411.206
 20
556.369
 30
5.1
 11
-411.198
 21
556.377
 31
5.1
  0
LINE
  5
C1E
330
A02
100
AcDbEntity
  8
Mesh_cs002
100
AcDbLine
 10
-411.198
 20
556.377
 30
5.1
 11
-410.913
 21
556.694
 31
5.1
  0
LINE
  5
C1F
330
A02
100
AcDbEntity
  8
Mesh_cs002
100
AcDbLine
 10
-410.913
 20
556.694
 30
5.1
 11
-410.905
 21
556.701
 31
5.1
  0
LINE
  5
C20
330
A02
100
AcDbEntity
  8
Mesh_cs002
100
AcDbLine
 10
-410.905
 20
556.701
 30
5.1
 11
-410.591
 21
556.992
 31
5.1
  0
LINE
  5
C21
330
A02
100
AcDbEntity
  8
Mesh_cs002
100
AcDbLine
 10
-410.591
 20
556.992
 30
5.1
 11
-410.275
 21
557.239
 31
5.1
  0
LINE
  5
C22
330
A02
100
AcDbEntity
  8
Mesh_cs002
100
AcDbLine
 10
-410.275
 20
557.239
 30
5.1
 11
-410.267
 21
557.246
 31
5.1
  0
LINE
  5
C23
330
A02
100
AcDbEntity
  8
Mesh_cs002
100
AcDbLine
 10
-410.267
 20
557.246
 30
5.1
 11
-409.932
 21
557.466
 31
5.1
  0
LINE
  5
C24
330
A02
100
AcDbEntity
  8
Mesh_cs002
100
AcDbLine
 10
-409.932
 20
557.466
 30
5.1
 11
-409.923
 21
557.471
 31
5.1
  0
LINE
  5
C25
330
A02
100
AcDbEntity
  8
Mesh_cs002
100
AcDbLine
 10
-409.923
 20
557.471
 30
5.1
 11
-409.572
 21
557.663
 31
5.1
  0
LINE
  5
C26
330
A02
100
AcDbEntity
  8
Mesh_cs002
100
AcDbLine
 10
-409.572
 20
557.663
 30
5.1
 11
-409.563
 21
557.668
 31
5.1
  0
LINE
  5
C27
330
A02
100
AcDbEntity
  8
Mesh_cs002
100
AcDbLine
 10
-409.563
 20
557.668
 30
5.1
 11
-409.198
 21
557.829
 31
5.1
  0
LINE
  5
C28
330
A02
100
AcDbEntity
  8
Mesh_cs002
100
AcDbLine
 10
-409.198
 20
557.829
 30
5.1
 11
-409.189
 21
557.833
 31
5.1
  0
LINE
  5
C29
330
A02
100
AcDbEntity
  8
Mesh_cs002
100
AcDbLine
 10
-409.189
 20
557.833
 30
5.1
 11
-408.813
 21
557.964
 31
5.1
  0
LINE
  5
C2A
330
A02
100
AcDbEntity
  8
Mesh_cs002
100
AcDbLine
 10
-408.813
 20
557.964
 30
5.1
 11
-408.803
 21
557.968
 31
5.1
  0
LINE
  5
C2B
330
A02
100
AcDbEntity
  8
Mesh_cs002
100
AcDbLine
 10
-408.803
 20
557.968
 30
5.1
 11
-408.419
 21
558.067
 31
5.1
  0
LINE
  5
C2C
330
A02
100
AcDbEntity
  8
Mesh_cs002
100
AcDbLine
 10
-408.419
 20
558.067
 30
5.1
 11
-408.409
 21
558.07
 31
5.1
  0
LINE
  5
C2D
330
A02
100
AcDbEntity
  8
Mesh_cs002
100
AcDbLine
 10
-408.409
 20
558.07
 30
5.1
 11
-408.018
 21
558.138
 31
5.1
  0
LINE
  5
C2E
330
A02
100
AcDbEntity
  8
Mesh_cs002
100
AcDbLine
 10
-408.018
 20
558.138
 30
5.1
 11
-408.008
 21
558.14
 31
5.1
  0
LINE
  5
C2F
330
A02
100
AcDbEntity
  8
Mesh_cs002
100
AcDbLine
 10
-408.008
 20
558.14
 30
5.1
 11
-407.614
 21
558.176
 31
5.1
  0
LINE
  5
C30
330
A02
100
AcDbEntity
  8
Mesh_cs002
100
AcDbLine
 10
-407.614
 20
558.176
 30
5.1
 11
-407.604
 21
558.176
 31
5.1
  0
LINE
  5
C31
330
A02
100
AcDbEntity
  8
Mesh_cs002
100
AcDbLine
 10
-407.604
 20
558.176
 30
5.1
 11
-407.209
 21
558.18
 31
5.1
  0
LINE
  5
C32
330
A02
100
AcDbEntity
  8
Mesh_cs002
100
AcDbLine
 10
-407.209
 20
558.18
 30
5.1
 11
-407.199
 21
558.18
 31
5.1
  0
LINE
  5
C33
330
A02
100
AcDbEntity
  8
Mesh_cs002
100
AcDbLine
 10
-407.199
 20
558.18
 30
5.1
 11
-406.805
 21
558.152
 31
5.1
  0
LINE
  5
C34
330
A02
100
AcDbEntity
  8
Mesh_cs002
100
AcDbLine
 10
-406.805
 20
558.152
 30
5.1
 11
-406.795
 21
558.151
 31
5.1
  0
LINE
  5
C35
330
A02
100
AcDbEntity
  8
Mesh_cs002
100
AcDbLine
 10
-406.795
 20
558.151
 30
5.1
 11
-406.406
 21
558.092
 31
5.1
  0
LINE
  5
C36
330
A02
100
AcDbEntity
  8
Mesh_cs002
100
AcDbLine
 10
-406.406
 20
558.092
 30
5.1
 11
-406.396
 21
558.09
 31
5.1
  0
LINE
  5
C37
330
A02
100
AcDbEntity
  8
Mesh_cs002
100
AcDbLine
 10
-406.396
 20
558.09
 30
5.1
 11
-406.013
 21
558
 31
5.1
  0
LINE
  5
C38
330
A02
100
AcDbEntity
  8
Mesh_cs002
100
AcDbLine
 10
-406.013
 20
558
 30
5.1
 11
-406.004
 21
557.997
 31
5.1
  0
LINE
  5
C39
330
A02
100
AcDbEntity
  8
Mesh_cs002
100
AcDbLine
 10
-406.004
 20
557.997
 30
5.1
 11
-405.63
 21
557.876
 31
5.1
  0
LINE
  5
C3A
330
A02
100
AcDbEntity
  8
Mesh_cs002
100
AcDbLine
 10
-273.635
 20
267.785
 30
5.1
 11
-273.86
 21
268.157
 31
5.1
  0
LINE
  5
C3B
330
A02
100
AcDbEntity
  8
Mesh_cs002
100
AcDbLine
 10
-273.86
 20
268.157
 30
5.1
 11
-273.865
 21
268.166
 31
5.1
  0
LINE
  5
C3C
330
A02
100
AcDbEntity
  8
Mesh_cs002
100
AcDbLine
 10
-273.865
 20
268.166
 30
5.1
 11
-274.056
 21
268.556
 31
5.1
  0
LINE
  5
C3D
330
A02
100
AcDbEntity
  8
Mesh_cs002
100
AcDbLine
 10
-274.056
 20
268.556
 30
5.1
 11
-274.061
 21
268.565
 31
5.1
  0
LINE
  5
C3E
330
A02
100
AcDbEntity
  8
Mesh_cs002
100
AcDbLine
 10
-274.061
 20
268.565
 30
5.1
 11
-274.064
 21
268.574
 31
5.1
  0
LINE
  5
C3F
330
A02
100
AcDbEntity
  8
Mesh_cs002
100
AcDbLine
 10
-274.064
 20
268.574
 30
5.1
 11
-274.22
 21
268.979
 31
5.1
  0
LINE
  5
C40
330
A02
100
AcDbEntity
  8
Mesh_cs002
100
AcDbLine
 10
-274.22
 20
268.979
 30
5.1
 11
-274.223
 21
268.989
 31
5.1
  0
LINE
  5
C41
330
A02
100
AcDbEntity
  8
Mesh_cs002
100
AcDbLine
 10
-274.223
 20
268.989
 30
5.1
 11
-274.341
 21
269.405
 31
5.1
  0
LINE
  5
C42
330
A02
100
AcDbEntity
  8
Mesh_cs002
100
AcDbLine
 10
-274.341
 20
269.405
 30
5.1
 11
-274.343
 21
269.416
 31
5.1
  0
LINE
  5
C43
330
A02
100
AcDbEntity
  8
Mesh_cs002
100
AcDbLine
 10
-274.343
 20
269.416
 30
5.1
 11
-274.424
 21
269.84
 31
5.1
  0
LINE
  5
C44
330
A02
100
AcDbEntity
  8
Mesh_cs002
100
AcDbLine
 10
-274.424
 20
269.84
 30
5.1
 11
-274.426
 21
269.851
 31
5.1
  0
LINE
  5
C45
330
A02
100
AcDbEntity
  8
Mesh_cs002
100
AcDbLine
 10
-274.426
 20
269.851
 30
5.1
 11
-274.469
 21
270.28
 31
5.1
  0
LINE
  5
C46
330
A02
100
AcDbEntity
  8
Mesh_cs002
100
AcDbLine
 10
-274.469
 20
270.28
 30
5.1
 11
-274.469
 21
270.291
 31
5.1
  0
LINE
  5
C47
330
A02
100
AcDbEntity
  8
Mesh_cs002
100
AcDbLine
 10
-274.469
 20
270.291
 30
5.1
 11
-274.474
 21
270.721
 31
5.1
  0
LINE
  5
C48
330
A02
100
AcDbEntity
  8
Mesh_cs002
100
AcDbLine
 10
-274.474
 20
270.721
 30
5.1
 11
-274.473
 21
270.732
 31
5.1
  0
LINE
  5
C49
330
A02
100
AcDbEntity
  8
Mesh_cs002
100
AcDbLine
 10
-274.473
 20
270.732
 30
5.1
 11
-274.441
 21
271.16
 31
5.1
  0
LINE
  5
C4A
330
A02
100
AcDbEntity
  8
Mesh_cs002
100
AcDbLine
 10
-274.441
 20
271.16
 30
5.1
 11
-274.439
 21
271.171
 31
5.1
  0
LINE
  5
C4B
330
A02
100
AcDbEntity
  8
Mesh_cs002
100
AcDbLine
 10
-274.439
 20
271.171
 30
5.1
 11
-274.369
 21
271.593
 31
5.1
  0
LINE
  5
C4C
330
A02
100
AcDbEntity
  8
Mesh_cs002
100
AcDbLine
 10
-274.369
 20
271.593
 30
5.1
 11
-274.366
 21
271.604
 31
5.1
  0
LINE
  5
C4D
330
A02
100
AcDbEntity
  8
Mesh_cs002
100
AcDbLine
 10
-274.366
 20
271.604
 30
5.1
 11
-274.26
 21
272.017
 31
5.1
  0
LINE
  5
C4E
330
A02
100
AcDbEntity
  8
Mesh_cs002
100
AcDbLine
 10
-274.26
 20
272.017
 30
5.1
 11
-274.256
 21
272.028
 31
5.1
  0
LINE
  5
C4F
330
A02
100
AcDbEntity
  8
Mesh_cs002
100
AcDbLine
 10
-274.256
 20
272.028
 30
5.1
 11
-274.115
 21
272.43
 31
5.1
  0
LINE
  5
C50
330
A02
100
AcDbEntity
  8
Mesh_cs002
100
AcDbLine
 10
-274.115
 20
272.43
 30
5.1
 11
-274.11
 21
272.44
 31
5.1
  0
LINE
  5
C51
330
A02
100
AcDbEntity
  8
Mesh_cs002
100
AcDbLine
 10
-274.11
 20
272.44
 30
5.1
 11
-273.931
 21
272.833
 31
5.1
  0
LINE
  5
C52
330
A02
100
AcDbEntity
  8
Mesh_cs002
100
AcDbLine
 10
-273.931
 20
272.833
 30
5.1
 11
-273.925
 21
272.843
 31
5.1
  0
LINE
  5
C53
330
A02
100
AcDbEntity
  8
Mesh_cs002
100
AcDbLine
 10
-273.925
 20
272.843
 30
5.1
 11
-273.729
 21
273.192
 31
5.1
  0
LINE
  5
C54
330
A02
100
AcDbEntity
  8
Mesh_cs002
100
AcDbLine
 10
-273.729
 20
273.192
 30
5.1
 11
-273.504
 21
273.524
 31
5.1
  0
LINE
  5
C55
330
A02
100
AcDbEntity
  8
Mesh_cs002
100
AcDbLine
 10
-273.504
 20
273.524
 30
5.1
 11
-273.498
 21
273.533
 31
5.1
  0
LINE
  5
C56
330
A02
100
AcDbEntity
  8
Mesh_cs002
100
AcDbLine
 10
-273.498
 20
273.533
 30
5.1
 11
-273.248
 21
273.844
 31
5.1
  0
LINE
  5
C57
330
A02
100
AcDbEntity
  8
Mesh_cs002
100
AcDbLine
 10
-273.248
 20
273.844
 30
5.1
 11
-273.241
 21
273.852
 31
5.1
  0
LINE
  5
C58
330
A02
100
AcDbEntity
  8
Mesh_cs002
100
AcDbLine
 10
-273.241
 20
273.852
 30
5.1
 11
-272.967
 21
274.141
 31
5.1
  0
LINE
  5
C59
330
A02
100
AcDbEntity
  8
Mesh_cs002
100
AcDbLine
 10
-272.967
 20
274.141
 30
5.1
 11
-272.959
 21
274.149
 31
5.1
  0
LINE
  5
C5A
330
A02
100
AcDbEntity
  8
Mesh_cs002
100
AcDbLine
 10
-272.959
 20
274.149
 30
5.1
 11
-272.663
 21
274.414
 31
5.1
  0
LINE
  5
C5B
330
A02
100
AcDbEntity
  8
Mesh_cs002
100
AcDbLine
 10
-272.663
 20
274.414
 30
5.1
 11
-272.657
 21
274.42
 31
5.1
  0
LINE
  5
C5C
330
A02
100
AcDbEntity
  8
Mesh_cs002
100
AcDbLine
 10
-272.657
 20
274.42
 30
5.1
 11
-272.651
 21
274.424
 31
5.1
  0
LINE
  5
C5D
330
A02
100
AcDbEntity
  8
Mesh_cs002
100
AcDbLine
 10
-272.651
 20
274.424
 30
5.1
 11
-272.335
 21
274.664
 31
5.1
  0
LINE
  5
C5E
330
A02
100
AcDbEntity
  8
Mesh_cs002
100
AcDbLine
 10
-272.335
 20
274.664
 30
5.1
 11
-272.328
 21
274.669
 31
5.1
  0
LINE
  5
C5F
330
A02
100
AcDbEntity
  8
Mesh_cs002
100
AcDbLine
 10
-272.328
 20
274.669
 30
5.1
 11
-271.993
 21
274.882
 31
5.1
  0
LINE
  5
C60
330
A02
100
AcDbEntity
  8
Mesh_cs002
100
AcDbLine
 10
-271.993
 20
274.882
 30
5.1
 11
-271.986
 21
274.886
 31
5.1
  0
LINE
  5
C61
330
A02
100
AcDbEntity
  8
Mesh_cs002
100
AcDbLine
 10
-271.986
 20
274.886
 30
5.1
 11
-271.636
 21
275.071
 31
5.1
  0
LINE
  5
C62
330
A02
100
AcDbEntity
  8
Mesh_cs002
100
AcDbLine
 10
-271.636
 20
275.071
 30
5.1
 11
-271.626
 21
275.076
 31
5.1
  0
LINE
  5
C63
330
A02
100
AcDbEntity
  8
Mesh_cs002
100
AcDbLine
 10
-271.626
 20
275.076
 30
5.1
 11
-271.264
 21
275.231
 31
5.1
  0
LINE
  5
C64
330
A02
100
AcDbEntity
  8
Mesh_cs002
100
AcDbLine
 10
-271.264
 20
275.231
 30
5.1
 11
-271.253
 21
275.235
 31
5.1
  0
LINE
  5
C65
330
A02
100
AcDbEntity
  8
Mesh_cs002
100
AcDbLine
 10
-271.253
 20
275.235
 30
5.1
 11
-270.88
 21
275.361
 31
5.1
  0
LINE
  5
C66
330
A02
100
AcDbEntity
  8
Mesh_cs002
100
AcDbLine
 10
-270.88
 20
275.361
 30
5.1
 11
-270.869
 21
275.364
 31
5.1
  0
LINE
  5
C67
330
A02
100
AcDbEntity
  8
Mesh_cs002
100
AcDbLine
 10
-270.869
 20
275.364
 30
5.1
 11
-270.487
 21
275.458
 31
5.1
  0
LINE
  5
C68
330
A02
100
AcDbEntity
  8
Mesh_cs002
100
AcDbLine
 10
-270.487
 20
275.458
 30
5.1
 11
-270.476
 21
275.46
 31
5.1
  0
LINE
  5
C69
330
A02
100
AcDbEntity
  8
Mesh_cs002
100
AcDbLine
 10
-270.476
 20
275.46
 30
5.1
 11
-270.088
 21
275.524
 31
5.1
  0
LINE
  5
C6A
330
A02
100
AcDbEntity
  8
Mesh_cs002
100
AcDbLine
 10
-270.088
 20
275.524
 30
5.1
 11
-270.077
 21
275.525
 31
5.1
  0
LINE
  5
C6B
330
A02
100
AcDbEntity
  8
Mesh_cs002
100
AcDbLine
 10
-270.077
 20
275.525
 30
5.1
 11
-269.643
 21
275.559
 31
5.1
  0
LINE
  5
C6C
330
A02
100
AcDbEntity
  8
Mesh_cs002
100
AcDbLine
 10
-269.643
 20
275.559
 30
5.1
 11
-269.632
 21
275.559
 31
5.1
  0
LINE
  5
C6D
330
A02
100
AcDbEntity
  8
Mesh_cs002
100
AcDbLine
 10
-269.632
 20
275.559
 30
5.1
 11
-269.197
 21
275.554
 31
5.1
  0
LINE
  5
C6E
330
A02
100
AcDbEntity
  8
Mesh_cs002
100
AcDbLine
 10
-269.197
 20
275.554
 30
5.1
 11
-269.186
 21
275.553
 31
5.1
  0
LINE
  5
C6F
330
A02
100
AcDbEntity
  8
Mesh_cs002
100
AcDbLine
 10
-269.186
 20
275.553
 30
5.1
 11
-268.754
 21
275.509
 31
5.1
  0
LINE
  5
C70
330
A02
100
AcDbEntity
  8
Mesh_cs002
100
AcDbLine
 10
-268.754
 20
275.509
 30
5.1
 11
-268.744
 21
275.507
 31
5.1
  0
LINE
  5
C71
330
A02
100
AcDbEntity
  8
Mesh_cs002
100
AcDbLine
 10
-268.744
 20
275.507
 30
5.1
 11
-268.318
 21
275.425
 31
5.1
  0
LINE
  5
C72
330
A02
100
AcDbEntity
  8
Mesh_cs002
100
AcDbLine
 10
-268.318
 20
275.425
 30
5.1
 11
-268.309
 21
275.423
 31
5.1
  0
LINE
  5
C73
330
A02
100
AcDbEntity
  8
Mesh_cs002
100
AcDbLine
 10
-268.309
 20
275.423
 30
5.1
 11
-267.893
 21
275.304
 31
5.1
  0
LINE
  5
C74
330
A02
100
AcDbEntity
  8
Mesh_cs002
100
AcDbLine
 10
-267.893
 20
275.304
 30
5.1
 11
-267.884
 21
275.301
 31
5.1
  0
LINE
  5
C75
330
A02
100
AcDbEntity
  8
Mesh_cs002
100
AcDbLine
 10
-267.884
 20
275.301
 30
5.1
 11
-267.481
 21
275.146
 31
5.1
  0
LINE
  5
C76
330
A02
100
AcDbEntity
  8
Mesh_cs002
100
AcDbLine
 10
-267.481
 20
275.146
 30
5.1
 11
-267.472
 21
275.142
 31
5.1
  0
LINE
  5
C77
330
A02
100
AcDbEntity
  8
Mesh_cs002
100
AcDbLine
 10
-267.472
 20
275.142
 30
5.1
 11
-267.085
 21
274.952
 31
5.1
  0
LINE
  5
C78
330
A02
100
AcDbEntity
  8
Mesh_cs002
100
AcDbLine
 10
-267.085
 20
274.952
 30
5.1
 11
-267.076
 21
274.947
 31
5.1
  0
LINE
  5
C79
330
A02
100
AcDbEntity
  8
Mesh_cs002
100
AcDbLine
 10
-267.076
 20
274.947
 30
5.1
 11
-266.709
 21
274.725
 31
5.1
  0
LINE
  5
C7A
330
A02
100
AcDbEntity
  8
Mesh_cs002
100
AcDbLine
 10
-266.709
 20
274.725
 30
5.1
 11
-266.7
 21
274.72
 31
5.1
  0
LINE
  5
C7B
330
A02
100
AcDbEntity
  8
Mesh_cs002
100
AcDbLine
 10
-266.7
 20
274.72
 30
5.1
 11
-266.354
 21
274.466
 31
5.1
  0
LINE
  5
C7C
330
A02
100
AcDbEntity
  8
Mesh_cs002
100
AcDbLine
 10
-266.354
 20
274.466
 30
5.1
 11
-266.346
 21
274.46
 31
5.1
  0
LINE
  5
C7D
330
A02
100
AcDbEntity
  8
Mesh_cs002
100
AcDbLine
 10
-266.346
 20
274.46
 30
5.1
 11
-266.025
 21
274.178
 31
5.1
  0
LINE
  5
C7E
330
A02
100
AcDbEntity
  8
Mesh_cs002
100
AcDbLine
 10
-266.025
 20
274.178
 30
5.1
 11
-266.017
 21
274.171
 31
5.1
  0
LINE
  5
C7F
330
A02
100
AcDbEntity
  8
Mesh_cs002
100
AcDbLine
 10
-266.017
 20
274.171
 30
5.1
 11
-265.722
 21
273.863
 31
5.1
  0
LINE
  5
C80
330
A02
100
AcDbEntity
  8
Mesh_cs002
100
AcDbLine
 10
-265.722
 20
273.863
 30
5.1
 11
-265.715
 21
273.855
 31
5.1
  0
LINE
  5
C81
330
A02
100
AcDbEntity
  8
Mesh_cs002
100
AcDbLine
 10
-265.715
 20
273.855
 30
5.1
 11
-265.571
 21
273.683
 31
5.1
  0
LINE
  5
C82
330
A02
100
AcDbEntity
  8
Mesh_cs002
100
AcDbLine
 10
-265.571
 20
273.683
 30
5.1
 11
-265.564
 21
273.675
 31
5.1
  0
LINE
  5
C83
330
A02
100
AcDbEntity
  8
Mesh_cs002
100
AcDbLine
 10
-265.564
 20
273.675
 30
5.1
 11
-265.432
 21
273.5
 31
5.1
  0
LINE
  5
C84
330
A02
100
AcDbEntity
  8
Mesh_cs002
100
AcDbLine
 10
-265.432
 20
273.5
 30
5.1
 11
-265.209
 21
273.166
 31
5.1
  0
LINE
  5
C85
330
A02
100
AcDbEntity
  8
Mesh_cs002
100
AcDbLine
 10
-265.209
 20
273.166
 30
5.1
 11
-265.203
 21
273.158
 31
5.1
  0
LINE
  5
C86
330
A02
100
AcDbEntity
  8
Mesh_cs002
100
AcDbLine
 10
-265.203
 20
273.158
 30
5.1
 11
-265.001
 21
272.79
 31
5.1
  0
LINE
  5
C87
330
A02
100
AcDbEntity
  8
Mesh_cs002
100
AcDbLine
 10
-265.001
 20
272.79
 30
5.1
 11
-264.996
 21
272.78
 31
5.1
  0
LINE
  5
C88
330
A02
100
AcDbEntity
  8
Mesh_cs002
100
AcDbLine
 10
-264.996
 20
272.78
 30
5.1
 11
-264.833
 21
272.415
 31
5.1
  0
LINE
  5
C89
330
A02
100
AcDbEntity
  8
Mesh_cs002
100
AcDbLine
 10
-264.833
 20
272.415
 30
5.1
 11
-264.829
 21
272.406
 31
5.1
  0
LINE
  5
C8A
330
A02
100
AcDbEntity
  8
Mesh_cs002
100
AcDbLine
 10
-264.829
 20
272.406
 30
5.1
 11
-264.697
 21
272.03
 31
5.1
  0
LINE
  5
C8B
330
A02
100
AcDbEntity
  8
Mesh_cs002
100
AcDbLine
 10
-264.697
 20
272.03
 30
5.1
 11
-264.694
 21
272.02
 31
5.1
  0
LINE
  5
C8C
330
A02
100
AcDbEntity
  8
Mesh_cs002
100
AcDbLine
 10
-264.694
 20
272.02
 30
5.1
 11
-264.594
 21
271.635
 31
5.1
  0
LINE
  5
C8D
330
A02
100
AcDbEntity
  8
Mesh_cs002
100
AcDbLine
 10
-264.594
 20
271.635
 30
5.1
 11
-264.591
 21
271.625
 31
5.1
  0
LINE
  5
C8E
330
A02
100
AcDbEntity
  8
Mesh_cs002
100
AcDbLine
 10
-264.591
 20
271.625
 30
5.1
 11
-264.522
 21
271.233
 31
5.1
  0
LINE
  5
C8F
330
A02
100
AcDbEntity
  8
Mesh_cs002
100
AcDbLine
 10
-264.522
 20
271.233
 30
5.1
 11
-264.521
 21
271.223
 31
5.1
  0
LINE
  5
C90
330
A02
100
AcDbEntity
  8
Mesh_cs002
100
AcDbLine
 10
-264.521
 20
271.223
 30
5.1
 11
-264.484
 21
270.828
 31
5.1
  0
LINE
  5
C91
330
A02
100
AcDbEntity
  8
Mesh_cs002
100
AcDbLine
 10
-264.484
 20
270.828
 30
5.1
 11
-264.483
 21
270.818
 31
5.1
  0
LINE
  5
C92
330
A02
100
AcDbEntity
  8
Mesh_cs002
100
AcDbLine
 10
-264.483
 20
270.818
 30
5.1
 11
-264.479
 21
270.422
 31
5.1
  0
LINE
  5
C93
330
A02
100
AcDbEntity
  8
Mesh_cs002
100
AcDbLine
 10
-264.479
 20
270.422
 30
5.1
 11
-264.479
 21
270.412
 31
5.1
  0
LINE
  5
C94
330
A02
100
AcDbEntity
  8
Mesh_cs002
100
AcDbLine
 10
-264.479
 20
270.412
 30
5.1
 11
-264.507
 21
270.018
 31
5.1
  0
LINE
  5
C95
330
A02
100
AcDbEntity
  8
Mesh_cs002
100
AcDbLine
 10
-264.507
 20
270.018
 30
5.1
 11
-264.507
 21
270.008
 31
5.1
  0
LINE
  5
C96
330
A02
100
AcDbEntity
  8
Mesh_cs002
100
AcDbLine
 10
-264.507
 20
270.008
 30
5.1
 11
-264.567
 21
269.618
 31
5.1
  0
LINE
  5
C97
330
A02
100
AcDbEntity
  8
Mesh_cs002
100
AcDbLine
 10
-264.567
 20
269.618
 30
5.1
 11
-264.568
 21
269.608
 31
5.1
  0
LINE
  5
C98
330
A02
100
AcDbEntity
  8
Mesh_cs002
100
AcDbLine
 10
-264.568
 20
269.608
 30
5.1
 11
-264.659
 21
269.224
 31
5.1
  0
LINE
  5
C99
330
A02
100
AcDbEntity
  8
Mesh_cs002
100
AcDbLine
 10
-264.659
 20
269.224
 30
5.1
 11
-264.661
 21
269.214
 31
5.1
  0
LINE
  5
C9A
330
A02
100
AcDbEntity
  8
Mesh_cs002
100
AcDbLine
 10
-264.661
 20
269.214
 30
5.1
 11
-264.783
 21
268.84
 31
5.1
  0
LINE
  5
C9B
330
A02
100
AcDbEntity
  8
Mesh_cs002
100
AcDbLine
 10
-264.783
 20
268.84
 30
5.1
 11
-264.786
 21
268.831
 31
5.1
  0
LINE
  5
C9C
330
A02
100
AcDbEntity
  8
Mesh_cs002
100
AcDbLine
 10
-264.786
 20
268.831
 30
5.1
 11
-264.936
 21
268.468
 31
5.1
  0
LINE
  5
C9D
330
A02
100
AcDbEntity
  8
Mesh_cs002
100
AcDbLine
 10
-264.936
 20
268.468
 30
5.1
 11
-264.94
 21
268.459
 31
5.1
  0
LINE
  5
C9E
330
A02
100
AcDbEntity
  8
Mesh_cs002
100
AcDbLine
 10
-264.94
 20
268.459
 30
5.1
 11
-264.945
 21
268.45
 31
5.1
  0
LINE
  5
C9F
330
A02
100
AcDbEntity
  8
Mesh_cs002
100
AcDbLine
 10
-264.945
 20
268.45
 30
5.1
 11
-265.145
 21
268.063
 31
5.1
  0
LINE
  5
CA0
330
A02
100
AcDbEntity
  8
Mesh_cs002
100
AcDbLine
 10
-265.145
 20
268.063
 30
5.1
 11
-265.151
 21
268.054
 31
5.1
  0
LINE
  5
CA1
330
A02
100
AcDbEntity
  8
Mesh_cs002
100
AcDbLine
 10
-265.151
 20
268.054
 30
5.1
 11
-265.385
 21
267.688
 31
5.1
  0
LINE
  5
CA2
330
A02
100
AcDbEntity
  8
Mesh_cs002
100
AcDbLine
 10
-265.385
 20
267.688
 30
5.1
 11
-265.392
 21
267.679
 31
5.1
  0
LINE
  5
CA3
330
A02
100
AcDbEntity
  8
Mesh_cs002
100
AcDbLine
 10
-265.392
 20
267.679
 30
5.1
 11
-265.657
 21
267.335
 31
5.1
  0
LINE
  5
CA4
330
A02
100
AcDbEntity
  8
Mesh_cs002
100
AcDbLine
 10
-265.657
 20
267.335
 30
5.1
 11
-265.664
 21
267.327
 31
5.1
  0
LINE
  5
CA5
330
A02
100
AcDbEntity
  8
Mesh_cs002
100
AcDbLine
 10
-265.664
 20
267.327
 30
5.1
 11
-265.958
 21
267.009
 31
5.1
  0
LINE
  5
CA6
330
A02
100
AcDbEntity
  8
Mesh_cs002
100
AcDbLine
 10
-265.958
 20
267.009
 30
5.1
 11
-265.966
 21
267.002
 31
5.1
  0
LINE
  5
CA7
330
A02
100
AcDbEntity
  8
Mesh_cs002
100
AcDbLine
 10
-265.966
 20
267.002
 30
5.1
 11
-266.286
 21
266.711
 31
5.1
  0
LINE
  5
CA8
330
A02
100
AcDbEntity
  8
Mesh_cs002
100
AcDbLine
 10
-266.286
 20
266.711
 30
5.1
 11
-266.295
 21
266.705
 31
5.1
  0
LINE
  5
CA9
330
A02
100
AcDbEntity
  8
Mesh_cs002
100
AcDbLine
 10
-266.295
 20
266.705
 30
5.1
 11
-266.639
 21
266.445
 31
5.1
  0
LINE
  5
CAA
330
A02
100
AcDbEntity
  8
Mesh_cs002
100
AcDbLine
 10
-266.639
 20
266.445
 30
5.1
 11
-266.648
 21
266.439
 31
5.1
  0
LINE
  5
CAB
330
A02
100
AcDbEntity
  8
Mesh_cs002
100
AcDbLine
 10
-266.648
 20
266.439
 30
5.1
 11
-267.013
 21
266.211
 31
5.1
  0
LINE
  5
CAC
330
A02
100
AcDbEntity
  8
Mesh_cs002
100
AcDbLine
 10
-267.013
 20
266.211
 30
5.1
 11
-267.023
 21
266.205
 31
5.1
  0
LINE
  5
CAD
330
A02
100
AcDbEntity
  8
Mesh_cs002
100
AcDbLine
 10
-267.023
 20
266.205
 30
5.1
 11
-267.405
 21
266.011
 31
5.1
  0
LINE
  5
CAE
330
A02
100
AcDbEntity
  8
Mesh_cs002
100
AcDbLine
 10
-267.405
 20
266.011
 30
5.1
 11
-267.416
 21
266.007
 31
5.1
  0
LINE
  5
CAF
330
A02
100
AcDbEntity
  8
Mesh_cs002
100
AcDbLine
 10
-267.416
 20
266.007
 30
5.1
 11
-267.813
 21
265.846
 31
5.1
  0
LINE
  5
CB0
330
A02
100
AcDbEntity
  8
Mesh_cs002
100
AcDbLine
 10
-267.813
 20
265.846
 30
5.1
 11
-267.823
 21
265.843
 31
5.1
  0
LINE
  5
CB1
330
A02
100
AcDbEntity
  8
Mesh_cs002
100
AcDbLine
 10
-267.823
 20
265.843
 30
5.1
 11
-268.232
 21
265.719
 31
5.1
  0
LINE
  5
CB2
330
A02
100
AcDbEntity
  8
Mesh_cs002
100
AcDbLine
 10
-268.232
 20
265.719
 30
5.1
 11
-268.243
 21
265.716
 31
5.1
  0
LINE
  5
CB3
330
A02
100
AcDbEntity
  8
Mesh_cs002
100
AcDbLine
 10
-268.243
 20
265.716
 30
5.1
 11
-268.66
 21
265.629
 31
5.1
  0
LINE
  5
CB4
330
A02
100
AcDbEntity
  8
Mesh_cs002
100
AcDbLine
 10
-268.66
 20
265.629
 30
5.1
 11
-268.671
 21
265.627
 31
5.1
  0
LINE
  5
CB5
330
A02
100
AcDbEntity
  8
Mesh_cs002
100
AcDbLine
 10
-268.671
 20
265.627
 30
5.1
 11
-269.096
 21
265.576
 31
5.1
  0
LINE
  5
CB6
330
A02
100
AcDbEntity
  8
Mesh_cs002
100
AcDbLine
 10
-269.096
 20
265.576
 30
5.1
 11
-269.496
 21
265.562
 31
5.1
  0
LINE
  5
CB7
330
A02
100
AcDbEntity
  8
Mesh_cs002
100
AcDbLine
 10
-269.496
 20
265.562
 30
5.1
 11
-269.507
 21
265.562
 31
5.1
  0
LINE
  5
CB8
330
A02
100
AcDbEntity
  8
Mesh_cs002
100
AcDbLine
 10
-269.507
 20
265.562
 30
5.1
 11
-269.907
 21
265.58
 31
5.1
  0
LINE
  5
CB9
330
A02
100
AcDbEntity
  8
Mesh_cs002
100
AcDbLine
 10
-269.907
 20
265.58
 30
5.1
 11
-269.918
 21
265.581
 31
5.1
  0
LINE
  5
CBA
330
A02
100
AcDbEntity
  8
Mesh_cs002
100
AcDbLine
 10
-269.918
 20
265.581
 30
5.1
 11
-270.314
 21
265.632
 31
5.1
  0
LINE
  5
CBB
330
A02
100
AcDbEntity
  8
Mesh_cs002
100
AcDbLine
 10
-270.314
 20
265.632
 30
5.1
 11
-270.325
 21
265.634
 31
5.1
  0
LINE
  5
CBC
330
A02
100
AcDbEntity
  8
Mesh_cs002
100
AcDbLine
 10
-270.325
 20
265.634
 30
5.1
 11
-270.715
 21
265.717
 31
5.1
  0
LINE
  5
CBD
330
A02
100
AcDbEntity
  8
Mesh_cs002
100
AcDbLine
 10
-270.715
 20
265.717
 30
5.1
 11
-270.725
 21
265.72
 31
5.1
  0
LINE
  5
CBE
330
A02
100
AcDbEntity
  8
Mesh_cs002
100
AcDbLine
 10
-270.725
 20
265.72
 30
5.1
 11
-271.106
 21
265.835
 31
5.1
  0
LINE
  5
CBF
330
A02
100
AcDbEntity
  8
Mesh_cs002
100
AcDbLine
 10
-271.106
 20
265.835
 30
5.1
 11
-271.116
 21
265.838
 31
5.1
  0
LINE
  5
CC0
330
A02
100
AcDbEntity
  8
Mesh_cs002
100
AcDbLine
 10
-271.116
 20
265.838
 30
5.1
 11
-271.485
 21
265.983
 31
5.1
  0
LINE
  5
CC1
330
A02
100
AcDbEntity
  8
Mesh_cs002
100
AcDbLine
 10
-271.485
 20
265.983
 30
5.1
 11
-271.495
 21
265.987
 31
5.1
  0
LINE
  5
CC2
330
A02
100
AcDbEntity
  8
Mesh_cs002
100
AcDbLine
 10
-271.495
 20
265.987
 30
5.1
 11
-271.851
 21
266.161
 31
5.1
  0
LINE
  5
CC3
330
A02
100
AcDbEntity
  8
Mesh_cs002
100
AcDbLine
 10
-271.851
 20
266.161
 30
5.1
 11
-271.86
 21
266.166
 31
5.1
  0
LINE
  5
CC4
330
A02
100
AcDbEntity
  8
Mesh_cs002
100
AcDbLine
 10
-271.86
 20
266.166
 30
5.1
 11
-272.2
 21
266.368
 31
5.1
  0
LINE
  5
CC5
330
A02
100
AcDbEntity
  8
Mesh_cs002
100
AcDbLine
 10
-272.2
 20
266.368
 30
5.1
 11
-272.209
 21
266.374
 31
5.1
  0
LINE
  5
CC6
330
A02
100
AcDbEntity
  8
Mesh_cs002
100
AcDbLine
 10
-272.209
 20
266.374
 30
5.1
 11
-272.53
 21
266.603
 31
5.1
  0
LINE
  5
CC7
330
A02
100
AcDbEntity
  8
Mesh_cs002
100
AcDbLine
 10
-272.53
 20
266.603
 30
5.1
 11
-272.539
 21
266.609
 31
5.1
  0
LINE
  5
CC8
330
A02
100
AcDbEntity
  8
Mesh_cs002
100
AcDbLine
 10
-272.539
 20
266.609
 30
5.1
 11
-272.841
 21
266.863
 31
5.1
  0
LINE
  5
CC9
330
A02
100
AcDbEntity
  8
Mesh_cs002
100
AcDbLine
 10
-272.841
 20
266.863
 30
5.1
 11
-272.848
 21
266.869
 31
5.1
  0
LINE
  5
CCA
330
A02
100
AcDbEntity
  8
Mesh_cs002
100
AcDbLine
 10
-272.848
 20
266.869
 30
5.1
 11
-273.128
 21
267.146
 31
5.1
  0
LINE
  5
CCB
330
A02
100
AcDbEntity
  8
Mesh_cs002
100
AcDbLine
 10
-273.128
 20
267.146
 30
5.1
 11
-273.135
 21
267.153
 31
5.1
  0
LINE
  5
CCC
330
A02
100
AcDbEntity
  8
Mesh_cs002
100
AcDbLine
 10
-273.135
 20
267.153
 30
5.1
 11
-273.392
 21
267.452
 31
5.1
  0
LINE
  5
CCD
330
A02
100
AcDbEntity
  8
Mesh_cs002
100
AcDbLine
 10
-273.392
 20
267.452
 30
5.1
 11
-273.398
 21
267.459
 31
5.1
  0
LINE
  5
CCE
330
A02
100
AcDbEntity
  8
Mesh_cs002
100
AcDbLine
 10
-273.398
 20
267.459
 30
5.1
 11
-273.629
 21
267.777
 31
5.1
  0
ENDSEC
  0
SECTION
  2
OBJECTS
  0
DICTIONARY
  5
F000
330
0
100
AcDbDictionary
  3
ACAD_GROUP
350
F001
  0
DICTIONARY
  5
F001
330
F000
100
AcDbDictionary
  0
ENDSEC
  0
EOF