999
FreeCAD v0.21 33771 (Git)
  0
SECTION
  2
HEADER
  9
$ACADVER
  1
AC1014
  9
$ACADMAINTVER
 70
     9
  9
$DWGCODEPAGE
  3
ANSI_1252
  9
$TEXTSTYLE
  7
STANDARD
  9
$DIMSTYLE
  2
STANDARD
  9
$DIMTXSTY
  7
STANDARD
  9
$CMLSTYLE
  2
STANDARD
  9
$LUNITS
 70
2
  9
$INSUNITS
 70
4
  9
$PEXTMAX
 10
50
 20
50
 30
50
  9
$PEXTMIN
 10
0
 20
0
 30
0
  9
$HANDSEED
  5
FFFF
  0
ENDSEC
  0
SECTION
  2
CLASSES
  0
CLASS
  1
ACDBDICTIONARYWDFLT
  2
AcDbDictionaryWithDefault
  3
ObjectDBX Classes
 90
        0
280
     0
281
     0
  0
CLASS
  1
XRECORD
  2
AcDbXrecord
  3
ObjectDBX Classes
 90
        0
280
     0
281
     0
  0
CLASS
  1
LWPOLYLINE
  2
AcDbPolyline
  3
ObjectDBX Classes
 90
        0
280
     0
281
     1
  0
ENDSEC
  0
SECTION
  2
TABLES
  0
TABLE
  2
VPORT
  5
20
330
0
100
AcDbSymbolTable
 70
     1
  0
VPORT
  5
21
330
20
100
AcDbSymbolTableRecord
100
AcDbViewportTableRecord
  2
*ACTIVE
 70
     0
  0
ENDTAB
  0
TABLE
  2
LTYPE
  5
22
330
0
100
AcDbSymbolTable
 70
     1
  0
LTYPE
  5
23
330
21
100
AcDbSymbolTableRecord
100
AcDbLinetypeTableRecord
  2
BYBLOCK
 70
     0
  3

 72
    65
 73
     0
 40
0.0
  0
LTYPE
  5
24
330
21
100
AcDbSymbolTableRecord
100
AcDbLinetypeTableRecord
  2
BYLAYER
 70
     0
  3

 72
    65
 73
     0
 40
0.0
  0
LTYPE
  5
25
330
21
100
AcDbSymbolTableRecord
100
AcDbLinetypeTableRecord
  2
CONTINUOUS
 70
     0
  3
Solid line
 72
    65
 73
     0
 40
0.0
  0
ENDTAB
  0
TABLE
  2
LAYER
  5
B43
330
0
100
AcDbSymbolTable
 70
3
  0
LAYER
  5
B44
330
B43
100
AcDbSymbolTableRecord
100
AcDbLayerTableRecord
  2
0
 70
   0
 62
   7
  6
CONTINUOUS
  0
LAYER
  5
B45
330
B43
100
AcDbSymbolTableRecord
100
AcDbLayerTableRecord
  2
none
 70
    0
 62
    7
  6
CONTINUOUS
  0
LAYER
  5
B46
330
B43
100
AcDbSymbolTableRecord
100
AcDbLayerTableRecord
  2
Mesh_cs001
 70
    0
 62
    7
  6
CONTINUOUS
  0
ENDTAB
  0
TABLE
  2
STYLE
  5
70
330
0
100
AcDbSymbolTable
 70
     2
  0
STYLE
  5
71
330
70
100
AcDbSymbolTableRecord
100
AcDbTextStyleTableRecord
  2
STANDARD
 70
     0
 40
0.0
 41
1.0
 50
0.0
 71
     0
 42
2.5
  3
arial.ttf
  4

  0
STYLE
  5
72
330
70
100
AcDbSymbolTableRecord
100
AcDbTextStyleTableRecord
  2
ANNOTATIVE
 70
     0
 40
0.0
 41
1.0
 50
0.0
 71
     0
 42
2.5
  3
arial.ttf
  4

  0
ENDTAB
  0
TABLE
  2
VIEW
  5
73
330
0
100
AcDbSymbolTable
 70
     0
  0
ENDTAB
  0
TABLE
  2
UCS
  5
74
330
0
100
AcDbSymbolTable
 70
     0
  0
ENDTAB
  0
TABLE
  2
APPID
  5
75
330
0
100
AcDbSymbolTable
 70
     2
  0
APPID
  5
76
330
75
100
AcDbSymbolTableRecord
100
AcDbRegAppTableRecord
  2
ACAD
 70
     0
  0
APPID
  5
77
330
75
100
AcDbSymbolTableRecord
100
AcDbRegAppTableRecord
  2
ACADANNOTATIVE
 70
     0
  0
ENDTAB
  0
TABLE
  2
DIMSTYLE
  5
78
330
0
100
AcDbSymbolTable
 70
     2
  0
DIMSTYLE
105
79
330
78
100
AcDbSymbolTableRecord
100
AcDbDimStyleTableRecord
  2
STANDARD
 70
     0
  3

  4

  5

  6

  7

 40
0.0
 41
2.5
 42
0.625
 43
3.75
 44
1.25
 45
0.0
 46
0.0
 47
0.0
 48
0.0
140
2.5
141
2.5
142
0.0
143
0.03937007874016
144
1.0
145
0.0
146
1.0
147
0.625
 71
     0
 72
     0
 73
     0
 74
     0
 75
     0
 76
     0
 77
     1
 78
     8
170
     0
171
     3
172
     1
173
     0
174
     0
175
     0
176
     0
177
     0
178
     0
270
     2
271
     2
272
     2
273
     2
274
     3
340
71
275
     0
280
     0
281
     0
282
     0
283
     0
284
     8
285
     0
286
     0
287
     3
288
     0
  0
ENDTAB
  0
TABLE
  2
BLOCK_RECORD
  5
A01
330
0
100
AcDbSymbolTable
  70
5
  0
BLOCK_RECORD
  5
A02
330
A01
100
AcDbSymbolTableRecord
100
AcDbBlockTableRecord
  2
*MODEL_SPACE
  0
BLOCK_RECORD
  5
A03
330
A01
100
AcDbSymbolTableRecord
100
AcDbBlockTableRecord
  2
*PAPER_SPACE
  0
ENDTAB
  0
ENDSEC
  0
SECTION
  2
BLOCKS
  0
BLOCK
  5
A04
330
A02
100
AcDbEntity
  8
0
100
AcDbBlockBegin
  2
*MODEL_SPACE
 70
   0
 10
0
 20
0
 30
0
  3
*MODEL_SPACE
  1
 
  0
ENDBLK
  5
A05
330
A02
100
AcDbEntity
  8
0
100
AcDbBlockEnd
  0
BLOCK
  5
A06
330
A03
100
AcDbEntity
 67
1
  8
0
100
AcDbBlockBegin
  2
*PAPER_SPACE
 70
   0
 10
0
 20
0
 30
0
  3
*PAPER_SPACE
  1
 
  0
ENDBLK
  5
A07
330
A03
100
AcDbEntity
 67
    1
  8
0
100
AcDbBlockEnd
  0
ENDSEC
  0
SECTION
  2
ENTITIES
  0
LINE
  5
A08
330
A02
100
AcDbEntity
  8
Mesh_cs001
100
AcDbLine
 10
-282.489
 20
254.927
 30
9.1
 11
-270.98
 21
263.289
 31
9.1
  0
LINE
  5
A09
330
A02
100
AcDbEntity
  8
Mesh_cs001
100
AcDbLine
 10
-270.98
 20
263.289
 30
9.1
 11
-270.583
 21
263.577
 31
9.1
  0
LINE
  5
A0A
330
A02
100
AcDbEntity
  8
Mesh_cs001
100
AcDbLine
 10
-270.583
 20
263.577
 30
9.1
 11
-262.117
 21
251.925
 31
9.1
  0
LINE
  5
A0B
330
A02
100
AcDbEntity
  8
Mesh_cs001
100
AcDbLine
 10
-262.117
 20
251.925
 30
9.1
 11
-261.825
 21
251.523
 31
9.1
  0
LINE
  5
A0C
330
A02
100
AcDbEntity
  8
Mesh_cs001
100
AcDbLine
 10
-261.825
 20
251.523
 30
9.1
 11
-262.227
 21
251.231
 31
9.1
  0
LINE
  5
A0D
330
A02
100
AcDbEntity
  8
Mesh_cs001
100
AcDbLine
 10
-262.227
 20
251.231
 30
9.1
 11
-273.879
 21
242.765
 31
9.1
  0
LINE
  5
A0E
330
A02
100
AcDbEntity
  8
Mesh_cs001
100
AcDbLine
 10
-273.879
 20
242.765
 30
9.1
 11
-275.848
 21
245.495
 31
9.1
  0
LINE
  5
A0F
330
A02
100
AcDbEntity
  8
Mesh_cs001
100
AcDbLine
 10
-275.848
 20
245.495
 30
9.1
 11
-276.475
 21
246.366
 31
9.1
  0
LINE
  5
A10
330
A02
100
AcDbEntity
  8
Mesh_cs001
100
AcDbLine
 10
-276.475
 20
246.366
 30
9.1
 11
-278.424
 21
249.11
 31
9.1
  0
LINE
  5
A11
330
A02
100
AcDbEntity
  8
Mesh_cs001
100
AcDbLine
 10
-278.424
 20
249.11
 30
9.1
 11
-279.046
 21
249.987
 31
9.1
  0
LINE
  5
A12
330
A02
100
AcDbEntity
  8
Mesh_cs001
100
AcDbLine
 10
-279.046
 20
249.987
 30
9.1
 11
-282.375
 21
254.762
 31
9.1
  0
LINE
  5
A13
330
A02
100
AcDbEntity
  8
Mesh_cs001
100
AcDbLine
 10
-282.375
 20
254.762
 30
9.1
 11
-282.432
 21
254.844
 31
9.1
  0
LINE
  5
A14
330
A02
100
AcDbEntity
  8
Mesh_cs001
100
AcDbLine
 10
-282.432
 20
254.844
 30
9.1
 11
-282.489
 21
254.927
 31
9.1
  0
LINE
  5
A15
330
A02
100
AcDbEntity
  8
Mesh_cs001
100
AcDbLine
 10
-389.482
 20
575.074
 30
9.1
 11
-389.273
 21
570.427
 31
9.1
  0
LINE
  5
A16
330
A02
100
AcDbEntity
  8
Mesh_cs001
100
AcDbLine
 10
-389.273
 20
570.427
 30
9.1
 11
-389.212
 21
569.238
 31
9.1
  0
LINE
  5
A17
330
A02
100
AcDbEntity
  8
Mesh_cs001
100
AcDbLine
 10
-389.212
 20
569.238
 30
9.1
 11
-389.012
 21
565.505
 31
9.1
  0
LINE
  5
A18
330
A02
100
AcDbEntity
  8
Mesh_cs001
100
AcDbLine
 10
-389.012
 20
565.505
 30
9.1
 11
-388.942
 21
564.316
 31
9.1
  0
LINE
  5
A19
330
A02
100
AcDbEntity
  8
Mesh_cs001
100
AcDbLine
 10
-388.942
 20
564.316
 30
9.1
 11
-388.711
 21
560.585
 31
9.1
  0
LINE
  5
A1A
330
A02
100
AcDbEntity
  8
Mesh_cs001
100
AcDbLine
 10
-388.711
 20
560.585
 30
9.1
 11
-388.631
 21
559.397
 31
9.1
  0
LINE
  5
A1B
330
A02
100
AcDbEntity
  8
Mesh_cs001
100
AcDbLine
 10
-388.631
 20
559.397
 30
9.1
 11
-388.37
 21
555.668
 31
9.1
  0
LINE
  5
A1C
330
A02
100
AcDbEntity
  8
Mesh_cs001
100
AcDbLine
 10
-388.37
 20
555.668
 30
9.1
 11
-388.281
 21
554.48
 31
9.1
  0
LINE
  5
A1D
330
A02
100
AcDbEntity
  8
Mesh_cs001
100
AcDbLine
 10
-388.281
 20
554.48
 30
9.1
 11
-387.99
 21
550.753
 31
9.1
  0
LINE
  5
A1E
330
A02
100
AcDbEntity
  8
Mesh_cs001
100
AcDbLine
 10
-387.99
 20
550.753
 30
9.1
 11
-387.891
 21
549.566
 31
9.1
  0
LINE
  5
A1F
330
A02
100
AcDbEntity
  8
Mesh_cs001
100
AcDbLine
 10
-387.891
 20
549.566
 30
9.1
 11
-387.569
 21
545.842
 31
9.1
  0
LINE
  5
A20
330
A02
100
AcDbEntity
  8
Mesh_cs001
100
AcDbLine
 10
-387.569
 20
545.842
 30
9.1
 11
-387.461
 21
544.656
 31
9.1
  0
LINE
  5
A21
330
A02
100
AcDbEntity
  8
Mesh_cs001
100
AcDbLine
 10
-387.461
 20
544.656
 30
9.1
 11
-387.109
 21
540.934
 31
9.1
  0
LINE
  5
A22
330
A02
100
AcDbEntity
  8
Mesh_cs001
100
AcDbLine
 10
-387.109
 20
540.934
 30
9.1
 11
-386.991
 21
539.749
 31
9.1
  0
LINE
  5
A23
330
A02
100
AcDbEntity
  8
Mesh_cs001
100
AcDbLine
 10
-386.991
 20
539.749
 30
9.1
 11
-386.609
 21
536.03
 31
9.1
  0
LINE
  5
A24
330
A02
100
AcDbEntity
  8
Mesh_cs001
100
AcDbLine
 10
-386.609
 20
536.03
 30
9.1
 11
-386.481
 21
534.846
 31
9.1
  0
LINE
  5
A25
330
A02
100
AcDbEntity
  8
Mesh_cs001
100
AcDbLine
 10
-386.481
 20
534.846
 30
9.1
 11
-386.07
 21
531.13
 31
9.1
  0
LINE
  5
A26
330
A02
100
AcDbEntity
  8
Mesh_cs001
100
AcDbLine
 10
-386.07
 20
531.13
 30
9.1
 11
-385.932
 21
529.947
 31
9.1
  0
LINE
  5
A27
330
A02
100
AcDbEntity
  8
Mesh_cs001
100
AcDbLine
 10
-385.932
 20
529.947
 30
9.1
 11
-385.49
 21
526.235
 31
9.1
  0
LINE
  5
A28
330
A02
100
AcDbEntity
  8
Mesh_cs001
100
AcDbLine
 10
-385.49
 20
526.235
 30
9.1
 11
-385.343
 21
525.053
 31
9.1
  0
LINE
  5
A29
330
A02
100
AcDbEntity
  8
Mesh_cs001
100
AcDbLine
 10
-385.343
 20
525.053
 30
9.1
 11
-384.871
 21
521.344
 31
9.1
  0
LINE
  5
A2A
330
A02
100
AcDbEntity
  8
Mesh_cs001
100
AcDbLine
 10
-384.871
 20
521.344
 30
9.1
 11
-384.714
 21
520.163
 31
9.1
  0
LINE
  5
A2B
330
A02
100
AcDbEntity
  8
Mesh_cs001
100
AcDbLine
 10
-384.714
 20
520.163
 30
9.1
 11
-384.212
 21
516.459
 31
9.1
  0
LINE
  5
A2C
330
A02
100
AcDbEntity
  8
Mesh_cs001
100
AcDbLine
 10
-384.212
 20
516.459
 30
9.1
 11
-384.046
 21
515.279
 31
9.1
  0
LINE
  5
A2D
330
A02
100
AcDbEntity
  8
Mesh_cs001
100
AcDbLine
 10
-384.046
 20
515.279
 30
9.1
 11
-383.514
 21
511.578
 31
9.1
  0
LINE
  5
A2E
330
A02
100
AcDbEntity
  8
Mesh_cs001
100
AcDbLine
 10
-383.514
 20
511.578
 30
9.1
 11
-383.338
 21
510.4
 31
9.1
  0
LINE
  5
A2F
330
A02
100
AcDbEntity
  8
Mesh_cs001
100
AcDbLine
 10
-383.338
 20
510.4
 30
9.1
 11
-382.776
 21
506.704
 31
9.1
  0
LINE
  5
A30
330
A02
100
AcDbEntity
  8
Mesh_cs001
100
AcDbLine
 10
-382.776
 20
506.704
 30
9.1
 11
-382.591
 21
505.527
 31
9.1
  0
LINE
  5
A31
330
A02
100
AcDbEntity
  8
Mesh_cs001
100
AcDbLine
 10
-382.591
 20
505.527
 30
9.1
 11
-381.999
 21
501.836
 31
9.1
  0
LINE
  5
A32
330
A02
100
AcDbEntity
  8
Mesh_cs001
100
AcDbLine
 10
-381.999
 20
501.836
 30
9.1
 11
-381.804
 21
500.66
 31
9.1
  0
LINE
  5
A33
330
A02
100
AcDbEntity
  8
Mesh_cs001
100
AcDbLine
 10
-381.804
 20
500.66
 30
9.1
 11
-381.182
 21
496.974
 31
9.1
  0
LINE
  5
A34
330
A02
100
AcDbEntity
  8
Mesh_cs001
100
AcDbLine
 10
-381.182
 20
496.974
 30
9.1
 11
-380.977
 21
495.8
 31
9.1
  0
LINE
  5
A35
330
A02
100
AcDbEntity
  8
Mesh_cs001
100
AcDbLine
 10
-380.977
 20
495.8
 30
9.1
 11
-380.325
 21
492.118
 31
9.1
  0
LINE
  5
A36
330
A02
100
AcDbEntity
  8
Mesh_cs001
100
AcDbLine
 10
-380.325
 20
492.118
 30
9.1
 11
-380.112
 21
490.946
 31
9.1
  0
LINE
  5
A37
330
A02
100
AcDbEntity
  8
Mesh_cs001
100
AcDbLine
 10
-380.112
 20
490.946
 30
9.1
 11
-379.43
 21
487.27
 31
9.1
  0
LINE
  5
A38
330
A02
100
AcDbEntity
  8
Mesh_cs001
100
AcDbLine
 10
-379.43
 20
487.27
 30
9.1
 11
-379.206
 21
486.1
 31
9.1
  0
LINE
  5
A39
330
A02
100
AcDbEntity
  8
Mesh_cs001
100
AcDbLine
 10
-379.206
 20
486.1
 30
9.1
 11
-378.495
 21
482.429
 31
9.1
  0
LINE
  5
A3A
330
A02
100
AcDbEntity
  8
Mesh_cs001
100
AcDbLine
 10
-378.495
 20
482.429
 30
9.1
 11
-378.262
 21
481.261
 31
9.1
  0
LINE
  5
A3B
330
A02
100
AcDbEntity
  8
Mesh_cs001
100
AcDbLine
 10
-378.262
 20
481.261
 30
9.1
 11
-377.521
 21
477.596
 31
9.1
  0
LINE
  5
A3C
330
A02
100
AcDbEntity
  8
Mesh_cs001
100
AcDbLine
 10
-377.521
 20
477.596
 30
9.1
 11
-377.278
 21
476.429
 31
9.1
  0
LINE
  5
A3D
330
A02
100
AcDbEntity
  8
Mesh_cs001
100
AcDbLine
 10
-377.278
 20
476.429
 30
9.1
 11
-376.507
 21
472.771
 31
9.1
  0
LINE
  5
A3E
330
A02
100
AcDbEntity
  8
Mesh_cs001
100
AcDbLine
 10
-376.507
 20
472.771
 30
9.1
 11
-376.255
 21
471.606
 31
9.1
  0
LINE
  5
A3F
330
A02
100
AcDbEntity
  8
Mesh_cs001
100
AcDbLine
 10
-376.255
 20
471.606
 30
9.1
 11
-375.455
 21
467.954
 31
9.1
  0
LINE
  5
A40
330
A02
100
AcDbEntity
  8
Mesh_cs001
100
AcDbLine
 10
-375.455
 20
467.954
 30
9.1
 11
-375.193
 21
466.791
 31
9.1
  0
LINE
  5
A41
330
A02
100
AcDbEntity
  8
Mesh_cs001
100
AcDbLine
 10
-375.193
 20
466.791
 30
9.1
 11
-374.363
 21
463.145
 31
9.1
  0
LINE
  5
A42
330
A02
100
AcDbEntity
  8
Mesh_cs001
100
AcDbLine
 10
-374.363
 20
463.145
 30
9.1
 11
-374.093
 21
461.985
 31
9.1
  0
LINE
  5
A43
330
A02
100
AcDbEntity
  8
Mesh_cs001
100
AcDbLine
 10
-374.093
 20
461.985
 30
9.1
 11
-373.233
 21
458.346
 31
9.1
  0
LINE
  5
A44
330
A02
100
AcDbEntity
  8
Mesh_cs001
100
AcDbLine
 10
-373.233
 20
458.346
 30
9.1
 11
-372.953
 21
457.188
 31
9.1
  0
LINE
  5
A45
330
A02
100
AcDbEntity
  8
Mesh_cs001
100
AcDbLine
 10
-372.953
 20
457.188
 30
9.1
 11
-372.063
 21
453.556
 31
9.1
  0
LINE
  5
A46
330
A02
100
AcDbEntity
  8
Mesh_cs001
100
AcDbLine
 10
-372.063
 20
453.556
 30
9.1
 11
-371.774
 21
452.4
 31
9.1
  0
LINE
  5
A47
330
A02
100
AcDbEntity
  8
Mesh_cs001
100
AcDbLine
 10
-371.774
 20
452.4
 30
9.1
 11
-370.855
 21
448.775
 31
9.1
  0
LINE
  5
A48
330
A02
100
AcDbEntity
  8
Mesh_cs001
100
AcDbLine
 10
-370.855
 20
448.775
 30
9.1
 11
-370.556
 21
447.622
 31
9.1
  0
LINE
  5
A49
330
A02
100
AcDbEntity
  8
Mesh_cs001
100
AcDbLine
 10
-370.556
 20
447.622
 30
9.1
 11
-369.608
 21
444.005
 31
9.1
  0
LINE
  5
A4A
330
A02
100
AcDbEntity
  8
Mesh_cs001
100
AcDbLine
 10
-369.608
 20
444.005
 30
9.1
 11
-369.3
 21
442.853
 31
9.1
  0
LINE
  5
A4B
330
A02
100
AcDbEntity
  8
Mesh_cs001
100
AcDbLine
 10
-369.3
 20
442.853
 30
9.1
 11
-368.322
 21
439.244
 31
9.1
  0
LINE
  5
A4C
330
A02
100
AcDbEntity
  8
Mesh_cs001
100
AcDbLine
 10
-368.322
 20
439.244
 30
9.1
 11
-368.005
 21
438.095
 31
9.1
  0
LINE
  5
A4D
330
A02
100
AcDbEntity
  8
Mesh_cs001
100
AcDbLine
 10
-368.005
 20
438.095
 30
9.1
 11
-366.998
 21
434.494
 31
9.1
  0
LINE
  5
A4E
330
A02
100
AcDbEntity
  8
Mesh_cs001
100
AcDbLine
 10
-366.998
 20
434.494
 30
9.1
 11
-366.671
 21
433.348
 31
9.1
  0
LINE
  5
A4F
330
A02
100
AcDbEntity
  8
Mesh_cs001
100
AcDbLine
 10
-366.671
 20
433.348
 30
9.1
 11
-365.635
 21
429.755
 31
9.1
  0
LINE
  5
A50
330
A02
100
AcDbEntity
  8
Mesh_cs001
100
AcDbLine
 10
-365.635
 20
429.755
 30
9.1
 11
-365.299
 21
428.611
 31
9.1
  0
LINE
  5
A51
330
A02
100
AcDbEntity
  8
Mesh_cs001
100
AcDbLine
 10
-365.299
 20
428.611
 30
9.1
 11
-364.234
 21
425.027
 31
9.1
  0
LINE
  5
A52
330
A02
100
AcDbEntity
  8
Mesh_cs001
100
AcDbLine
 10
-364.234
 20
425.027
 30
9.1
 11
-363.889
 21
423.886
 31
9.1
  0
LINE
  5
A53
330
A02
100
AcDbEntity
  8
Mesh_cs001
100
AcDbLine
 10
-363.889
 20
423.886
 30
9.1
 11
-362.795
 21
420.31
 31
9.1
  0
LINE
  5
A54
330
A02
100
AcDbEntity
  8
Mesh_cs001
100
AcDbLine
 10
-362.795
 20
420.31
 30
9.1
 11
-362.44
 21
419.172
 31
9.1
  0
LINE
  5
A55
330
A02
100
AcDbEntity
  8
Mesh_cs001
100
AcDbLine
 10
-362.44
 20
419.172
 30
9.1
 11
-361.317
 21
415.605
 31
9.1
  0
LINE
  5
A56
330
A02
100
AcDbEntity
  8
Mesh_cs001
100
AcDbLine
 10
-361.317
 20
415.605
 30
9.1
 11
-360.953
 21
414.47
 31
9.1
  0
LINE
  5
A57
330
A02
100
AcDbEntity
  8
Mesh_cs001
100
AcDbLine
 10
-360.953
 20
414.47
 30
9.1
 11
-359.801
 21
410.912
 31
9.1
  0
LINE
  5
A58
330
A02
100
AcDbEntity
  8
Mesh_cs001
100
AcDbLine
 10
-359.801
 20
410.912
 30
9.1
 11
-359.466
 21
409.893
 31
9.1
  0
LINE
  5
A59
330
A02
100
AcDbEntity
  8
Mesh_cs001
100
AcDbLine
 10
-359.466
 20
409.893
 30
9.1
 11
-358.404
 21
406.699
 31
9.1
  0
LINE
  5
A5A
330
A02
100
AcDbEntity
  8
Mesh_cs001
100
AcDbLine
 10
-358.404
 20
406.699
 30
9.1
 11
-358.062
 21
405.683
 31
9.1
  0
LINE
  5
A5B
330
A02
100
AcDbEntity
  8
Mesh_cs001
100
AcDbLine
 10
-358.062
 20
405.683
 30
9.1
 11
-356.977
 21
402.497
 31
9.1
  0
LINE
  5
A5C
330
A02
100
AcDbEntity
  8
Mesh_cs001
100
AcDbLine
 10
-356.977
 20
402.497
 30
9.1
 11
-356.627
 21
401.483
 31
9.1
  0
LINE
  5
A5D
330
A02
100
AcDbEntity
  8
Mesh_cs001
100
AcDbLine
 10
-356.627
 20
401.483
 30
9.1
 11
-355.519
 21
398.304
 31
9.1
  0
LINE
  5
A5E
330
A02
100
AcDbEntity
  8
Mesh_cs001
100
AcDbLine
 10
-355.519
 20
398.304
 30
9.1
 11
-355.161
 21
397.293
 31
9.1
  0
LINE
  5
A5F
330
A02
100
AcDbEntity
  8
Mesh_cs001
100
AcDbLine
 10
-355.161
 20
397.293
 30
9.1
 11
-354.03
 21
394.123
 31
9.1
  0
LINE
  5
A60
330
A02
100
AcDbEntity
  8
Mesh_cs001
100
AcDbLine
 10
-354.03
 20
394.123
 30
9.1
 11
-353.665
 21
393.114
 31
9.1
  0
LINE
  5
A61
330
A02
100
AcDbEntity
  8
Mesh_cs001
100
AcDbLine
 10
-353.665
 20
393.114
 30
9.1
 11
-352.511
 21
389.952
 31
9.1
  0
LINE
  5
A62
330
A02
100
AcDbEntity
  8
Mesh_cs001
100
AcDbLine
 10
-352.511
 20
389.952
 30
9.1
 11
-352.138
 21
388.946
 31
9.1
  0
LINE
  5
A63
330
A02
100
AcDbEntity
  8
Mesh_cs001
100
AcDbLine
 10
-352.138
 20
388.946
 30
9.1
 11
-350.961
 21
385.793
 31
9.1
  0
LINE
  5
A64
330
A02
100
AcDbEntity
  8
Mesh_cs001
100
AcDbLine
 10
-350.961
 20
385.793
 30
9.1
 11
-350.581
 21
384.79
 31
9.1
  0
LINE
  5
A65
330
A02
100
AcDbEntity
  8
Mesh_cs001
100
AcDbLine
 10
-350.581
 20
384.79
 30
9.1
 11
-349.381
 21
381.645
 31
9.1
  0
LINE
  5
A66
330
A02
100
AcDbEntity
  8
Mesh_cs001
100
AcDbLine
 10
-349.381
 20
381.645
 30
9.1
 11
-348.994
 21
380.644
 31
9.1
  0
LINE
  5
A67
330
A02
100
AcDbEntity
  8
Mesh_cs001
100
AcDbLine
 10
-348.994
 20
380.644
 30
9.1
 11
-347.77
 21
377.508
 31
9.1
  0
LINE
  5
A68
330
A02
100
AcDbEntity
  8
Mesh_cs001
100
AcDbLine
 10
-347.77
 20
377.508
 30
9.1
 11
-347.376
 21
376.511
 31
9.1
  0
LINE
  5
A69
330
A02
100
AcDbEntity
  8
Mesh_cs001
100
AcDbLine
 10
-347.376
 20
376.511
 30
9.1
 11
-346.13
 21
373.383
 31
9.1
  0
LINE
  5
A6A
330
A02
100
AcDbEntity
  8
Mesh_cs001
100
AcDbLine
 10
-346.13
 20
373.383
 30
9.1
 11
-345.728
 21
372.389
 31
9.1
  0
LINE
  5
A6B
330
A02
100
AcDbEntity
  8
Mesh_cs001
100
AcDbLine
 10
-345.728
 20
372.389
 30
9.1
 11
-344.459
 21
369.271
 31
9.1
  0
LINE
  5
A6C
330
A02
100
AcDbEntity
  8
Mesh_cs001
100
AcDbLine
 10
-344.459
 20
369.271
 30
9.1
 11
-344.051
 21
368.279
 31
9.1
  0
LINE
  5
A6D
330
A02
100
AcDbEntity
  8
Mesh_cs001
100
AcDbLine
 10
-344.051
 20
368.279
 30
9.1
 11
-342.759
 21
365.17
 31
9.1
  0
LINE
  5
A6E
330
A02
100
AcDbEntity
  8
Mesh_cs001
100
AcDbLine
 10
-342.759
 20
365.17
 30
9.1
 11
-342.343
 21
364.182
 31
9.1
  0
LINE
  5
A6F
330
A02
100
AcDbEntity
  8
Mesh_cs001
100
AcDbLine
 10
-342.343
 20
364.182
 30
9.1
 11
-341.028
 21
361.082
 31
9.1
  0
LINE
  5
A70
330
A02
100
AcDbEntity
  8
Mesh_cs001
100
AcDbLine
 10
-341.028
 20
361.082
 30
9.1
 11
-340.605
 21
360.097
 31
9.1
  0
LINE
  5
A71
330
A02
100
AcDbEntity
  8
Mesh_cs001
100
AcDbLine
 10
-340.605
 20
360.097
 30
9.1
 11
-339.268
 21
357.007
 31
9.1
  0
LINE
  5
A72
330
A02
100
AcDbEntity
  8
Mesh_cs001
100
AcDbLine
 10
-339.268
 20
357.007
 30
9.1
 11
-338.837
 21
356.025
 31
9.1
  0
LINE
  5
A73
330
A02
100
AcDbEntity
  8
Mesh_cs001
100
AcDbLine
 10
-338.837
 20
356.025
 30
9.1
 11
-337.478
 21
352.945
 31
9.1
  0
LINE
  5
A74
330
A02
100
AcDbEntity
  8
Mesh_cs001
100
AcDbLine
 10
-337.478
 20
352.945
 30
9.1
 11
-337.04
 21
351.965
 31
9.1
  0
LINE
  5
A75
330
A02
100
AcDbEntity
  8
Mesh_cs001
100
AcDbLine
 10
-337.04
 20
351.965
 30
9.1
 11
-335.658
 21
348.896
 31
9.1
  0
LINE
  5
A76
330
A02
100
AcDbEntity
  8
Mesh_cs001
100
AcDbLine
 10
-335.658
 20
348.896
 30
9.1
 11
-335.213
 21
347.919
 31
9.1
  0
LINE
  5
A77
330
A02
100
AcDbEntity
  8
Mesh_cs001
100
AcDbLine
 10
-335.213
 20
347.919
 30
9.1
 11
-333.809
 21
344.86
 31
9.1
  0
LINE
  5
A78
330
A02
100
AcDbEntity
  8
Mesh_cs001
100
AcDbLine
 10
-333.809
 20
344.86
 30
9.1
 11
-333.357
 21
343.887
 31
9.1
  0
LINE
  5
A79
330
A02
100
AcDbEntity
  8
Mesh_cs001
100
AcDbLine
 10
-333.357
 20
343.887
 30
9.1
 11
-331.93
 21
340.837
 31
9.1
  0
LINE
  5
A7A
330
A02
100
AcDbEntity
  8
Mesh_cs001
100
AcDbLine
 10
-331.93
 20
340.837
 30
9.1
 11
-331.471
 21
339.868
 31
9.1
  0
LINE
  5
A7B
330
A02
100
AcDbEntity
  8
Mesh_cs001
100
AcDbLine
 10
-331.471
 20
339.868
 30
9.1
 11
-330.022
 21
336.829
 31
9.1
  0
LINE
  5
A7C
330
A02
100
AcDbEntity
  8
Mesh_cs001
100
AcDbLine
 10
-330.022
 20
336.829
 30
9.1
 11
-329.556
 21
335.863
 31
9.1
  0
LINE
  5
A7D
330
A02
100
AcDbEntity
  8
Mesh_cs001
100
AcDbLine
 10
-329.556
 20
335.863
 30
9.1
 11
-328.085
 21
332.834
 31
9.1
  0
LINE
  5
A7E
330
A02
100
AcDbEntity
  8
Mesh_cs001
100
AcDbLine
 10
-328.085
 20
332.834
 30
9.1
 11
-327.612
 21
331.871
 31
9.1
  0
LINE
  5
A7F
330
A02
100
AcDbEntity
  8
Mesh_cs001
100
AcDbLine
 10
-327.612
 20
331.871
 30
9.1
 11
-326.119
 21
328.854
 31
9.1
  0
LINE
  5
A80
330
A02
100
AcDbEntity
  8
Mesh_cs001
100
AcDbLine
 10
-326.119
 20
328.854
 30
9.1
 11
-325.638
 21
327.895
 31
9.1
  0
LINE
  5
A81
330
A02
100
AcDbEntity
  8
Mesh_cs001
100
AcDbLine
 10
-325.638
 20
327.895
 30
9.1
 11
-324.123
 21
324.888
 31
9.1
  0
LINE
  5
A82
330
A02
100
AcDbEntity
  8
Mesh_cs001
100
AcDbLine
 10
-324.123
 20
324.888
 30
9.1
 11
-323.636
 21
323.932
 31
9.1
  0
LINE
  5
A83
330
A02
100
AcDbEntity
  8
Mesh_cs001
100
AcDbLine
 10
-323.636
 20
323.932
 30
9.1
 11
-322.099
 21
320.937
 31
9.1
  0
LINE
  5
A84
330
A02
100
AcDbEntity
  8
Mesh_cs001
100
AcDbLine
 10
-322.099
 20
320.937
 30
9.1
 11
-321.605
 21
319.984
 31
9.1
  0
LINE
  5
A85
330
A02
100
AcDbEntity
  8
Mesh_cs001
100
AcDbLine
 10
-321.605
 20
319.984
 30
9.1
 11
-320.045
 21
317
 31
9.1
  0
LINE
  5
A86
330
A02
100
AcDbEntity
  8
Mesh_cs001
100
AcDbLine
 10
-320.045
 20
317
 30
9.1
 11
-319.544
 21
316.051
 31
9.1
  0
LINE
  5
A87
330
A02
100
AcDbEntity
  8
Mesh_cs001
100
AcDbLine
 10
-319.544
 20
316.051
 30
9.1
 11
-317.964
 21
313.079
 31
9.1
  0
LINE
  5
A88
330
A02
100
AcDbEntity
  8
Mesh_cs001
100
AcDbLine
 10
-317.964
 20
313.079
 30
9.1
 11
-317.456
 21
312.134
 31
9.1
  0
LINE
  5
A89
330
A02
100
AcDbEntity
  8
Mesh_cs001
100
AcDbLine
 10
-317.456
 20
312.134
 30
9.1
 11
-315.853
 21
309.173
 31
9.1
  0
LINE
  5
A8A
330
A02
100
AcDbEntity
  8
Mesh_cs001
100
AcDbLine
 10
-315.853
 20
309.173
 30
9.1
 11
-315.338
 21
308.231
 31
9.1
  0
LINE
  5
A8B
330
A02
100
AcDbEntity
  8
Mesh_cs001
100
AcDbLine
 10
-315.338
 20
308.231
 30
9.1
 11
-313.714
 21
305.282
 31
9.1
  0
LINE
  5
A8C
330
A02
100
AcDbEntity
  8
Mesh_cs001
100
AcDbLine
 10
-313.714
 20
305.282
 30
9.1
 11
-313.192
 21
304.344
 31
9.1
  0
LINE
  5
A8D
330
A02
100
AcDbEntity
  8
Mesh_cs001
100
AcDbLine
 10
-313.192
 20
304.344
 30
9.1
 11
-311.547
 21
301.407
 31
9.1
  0
LINE
  5
A8E
330
A02
100
AcDbEntity
  8
Mesh_cs001
100
AcDbLine
 10
-311.547
 20
301.407
 30
9.1
 11
-311.018
 21
300.473
 31
9.1
  0
LINE
  5
A8F
330
A02
100
AcDbEntity
  8
Mesh_cs001
100
AcDbLine
 10
-311.018
 20
300.473
 30
9.1
 11
-309.351
 21
297.548
 31
9.1
  0
LINE
  5
A90
330
A02
100
AcDbEntity
  8
Mesh_cs001
100
AcDbLine
 10
-309.351
 20
297.548
 30
9.1
 11
-308.815
 21
296.618
 31
9.1
  0
LINE
  5
A91
330
A02
100
AcDbEntity
  8
Mesh_cs001
100
AcDbLine
 10
-308.815
 20
296.618
 30
9.1
 11
-307.127
 21
293.704
 31
9.1
  0
LINE
  5
A92
330
A02
100
AcDbEntity
  8
Mesh_cs001
100
AcDbLine
 10
-307.127
 20
293.704
 30
9.1
 11
-306.585
 21
292.778
 31
9.1
  0
LINE
  5
A93
330
A02
100
AcDbEntity
  8
Mesh_cs001
100
AcDbLine
 10
-306.585
 20
292.778
 30
9.1
 11
-304.875
 21
289.878
 31
9.1
  0
LINE
  5
A94
330
A02
100
AcDbEntity
  8
Mesh_cs001
100
AcDbLine
 10
-304.875
 20
289.878
 30
9.1
 11
-304.326
 21
288.956
 31
9.1
  0
LINE
  5
A95
330
A02
100
AcDbEntity
  8
Mesh_cs001
100
AcDbLine
 10
-304.326
 20
288.956
 30
9.1
 11
-302.595
 21
286.067
 31
9.1
  0
LINE
  5
A96
330
A02
100
AcDbEntity
  8
Mesh_cs001
100
AcDbLine
 10
-302.595
 20
286.067
 30
9.1
 11
-302.04
 21
285.149
 31
9.1
  0
LINE
  5
A97
330
A02
100
AcDbEntity
  8
Mesh_cs001
100
AcDbLine
 10
-302.04
 20
285.149
 30
9.1
 11
-300.288
 21
282.274
 31
9.1
  0
LINE
  5
A98
330
A02
100
AcDbEntity
  8
Mesh_cs001
100
AcDbLine
 10
-300.288
 20
282.274
 30
9.1
 11
-299.725
 21
281.36
 31
9.1
  0
LINE
  5
A99
330
A02
100
AcDbEntity
  8
Mesh_cs001
100
AcDbLine
 10
-299.725
 20
281.36
 30
9.1
 11
-297.952
 21
278.497
 31
9.1
  0
LINE
  5
A9A
330
A02
100
AcDbEntity
  8
Mesh_cs001
100
AcDbLine
 10
-297.952
 20
278.497
 30
9.1
 11
-297.383
 21
277.587
 31
9.1
  0
LINE
  5
A9B
330
A02
100
AcDbEntity
  8
Mesh_cs001
100
AcDbLine
 10
-297.383
 20
277.587
 30
9.1
 11
-295.59
 21
274.737
 31
9.1
  0
LINE
  5
A9C
330
A02
100
AcDbEntity
  8
Mesh_cs001
100
AcDbLine
 10
-295.59
 20
274.737
 30
9.1
 11
-295.014
 21
273.832
 31
9.1
  0
LINE
  5
A9D
330
A02
100
AcDbEntity
  8
Mesh_cs001
100
AcDbLine
 10
-295.014
 20
273.832
 30
9.1
 11
-293.199
 21
270.995
 31
9.1
  0
LINE
  5
A9E
330
A02
100
AcDbEntity
  8
Mesh_cs001
100
AcDbLine
 10
-293.199
 20
270.995
 30
9.1
 11
-292.617
 21
270.094
 31
9.1
  0
LINE
  5
A9F
330
A02
100
AcDbEntity
  8
Mesh_cs001
100
AcDbLine
 10
-292.617
 20
270.094
 30
9.1
 11
-290.78
 21
267.267
 31
9.1
  0
LINE
  5
AA0
330
A02
100
AcDbEntity
  8
Mesh_cs001
100
AcDbLine
 10
-290.78
 20
267.267
 30
9.1
 11
-288.184
 21
263.333
 31
9.1
  0
LINE
  5
AA1
330
A02
100
AcDbEntity
  8
Mesh_cs001
100
AcDbLine
 10
-288.184
 20
263.333
 30
9.1
 11
-288.102
 21
263.209
 31
9.1
  0
LINE
  5
AA2
330
A02
100
AcDbEntity
  8
Mesh_cs001
100
AcDbLine
 10
-288.102
 20
263.209
 30
9.1
 11
-287.579
 21
263.589
 31
9.1
  0
LINE
  5
AA3
330
A02
100
AcDbEntity
  8
Mesh_cs001
100
AcDbLine
 10
-287.579
 20
263.589
 30
9.1
 11
-272.416
 21
274.607
 31
9.1
  0
LINE
  5
AA4
330
A02
100
AcDbEntity
  8
Mesh_cs001
100
AcDbLine
 10
-272.416
 20
274.607
 30
9.1
 11
-272.149
 21
274.787
 31
9.1
  0
LINE
  5
AA5
330
A02
100
AcDbEntity
  8
Mesh_cs001
100
AcDbLine
 10
-272.149
 20
274.787
 30
9.1
 11
-272.138
 21
274.794
 31
9.1
  0
LINE
  5
AA6
330
A02
100
AcDbEntity
  8
Mesh_cs001
100
AcDbLine
 10
-272.138
 20
274.794
 30
9.1
 11
-271.852
 21
274.961
 31
9.1
  0
LINE
  5
AA7
330
A02
100
AcDbEntity
  8
Mesh_cs001
100
AcDbLine
 10
-271.852
 20
274.961
 30
9.1
 11
-271.84
 21
274.967
 31
9.1
  0
LINE
  5
AA8
330
A02
100
AcDbEntity
  8
Mesh_cs001
100
AcDbLine
 10
-271.84
 20
274.967
 30
9.1
 11
-271.456
 21
275.152
 31
9.1
  0
LINE
  5
AA9
330
A02
100
AcDbEntity
  8
Mesh_cs001
100
AcDbLine
 10
-271.456
 20
275.152
 30
9.1
 11
-271.445
 21
275.158
 31
9.1
  0
LINE
  5
AAA
330
A02
100
AcDbEntity
  8
Mesh_cs001
100
AcDbLine
 10
-271.445
 20
275.158
 30
9.1
 11
-271.046
 21
275.308
 31
9.1
  0
LINE
  5
AAB
330
A02
100
AcDbEntity
  8
Mesh_cs001
100
AcDbLine
 10
-271.046
 20
275.308
 30
9.1
 11
-271.033
 21
275.313
 31
9.1
  0
LINE
  5
AAC
330
A02
100
AcDbEntity
  8
Mesh_cs001
100
AcDbLine
 10
-271.033
 20
275.313
 30
9.1
 11
-271.02
 21
275.317
 31
9.1
  0
LINE
  5
AAD
330
A02
100
AcDbEntity
  8
Mesh_cs001
100
AcDbLine
 10
-271.02
 20
275.317
 30
9.1
 11
-270.608
 21
275.432
 31
9.1
  0
LINE
  5
AAE
330
A02
100
AcDbEntity
  8
Mesh_cs001
100
AcDbLine
 10
-270.608
 20
275.432
 30
9.1
 11
-270.594
 21
275.434
 31
9.1
  0
LINE
  5
AAF
330
A02
100
AcDbEntity
  8
Mesh_cs001
100
AcDbLine
 10
-270.594
 20
275.434
 30
9.1
 11
-270.173
 21
275.513
 31
9.1
  0
LINE
  5
AB0
330
A02
100
AcDbEntity
  8
Mesh_cs001
100
AcDbLine
 10
-270.173
 20
275.513
 30
9.1
 11
-270.159
 21
275.514
 31
9.1
  0
LINE
  5
AB1
330
A02
100
AcDbEntity
  8
Mesh_cs001
100
AcDbLine
 10
-270.159
 20
275.514
 30
9.1
 11
-269.731
 21
275.555
 31
9.1
  0
LINE
  5
AB2
330
A02
100
AcDbEntity
  8
Mesh_cs001
100
AcDbLine
 10
-269.731
 20
275.555
 30
9.1
 11
-269.718
 21
275.555
 31
9.1
  0
LINE
  5
AB3
330
A02
100
AcDbEntity
  8
Mesh_cs001
100
AcDbLine
 10
-269.718
 20
275.555
 30
9.1
 11
-269.287
 21
275.558
 31
9.1
  0
LINE
  5
AB4
330
A02
100
AcDbEntity
  8
Mesh_cs001
100
AcDbLine
 10
-269.287
 20
275.558
 30
9.1
 11
-269.274
 21
275.557
 31
9.1
  0
LINE
  5
AB5
330
A02
100
AcDbEntity
  8
Mesh_cs001
100
AcDbLine
 10
-269.274
 20
275.557
 30
9.1
 11
-268.844
 21
275.521
 31
9.1
  0
LINE
  5
AB6
330
A02
100
AcDbEntity
  8
Mesh_cs001
100
AcDbLine
 10
-268.844
 20
275.521
 30
9.1
 11
-268.829
 21
275.519
 31
9.1
  0
LINE
  5
AB7
330
A02
100
AcDbEntity
  8
Mesh_cs001
100
AcDbLine
 10
-268.829
 20
275.519
 30
9.1
 11
-268.445
 21
275.454
 31
9.1
  0
LINE
  5
AB8
330
A02
100
AcDbEntity
  8
Mesh_cs001
100
AcDbLine
 10
-268.445
 20
275.454
 30
9.1
 11
-268.431
 21
275.451
 31
9.1
  0
LINE
  5
AB9
330
A02
100
AcDbEntity
  8
Mesh_cs001
100
AcDbLine
 10
-268.431
 20
275.451
 30
9.1
 11
-268.053
 21
275.354
 31
9.1
  0
LINE
  5
ABA
330
A02
100
AcDbEntity
  8
Mesh_cs001
100
AcDbLine
 10
-268.053
 20
275.354
 30
9.1
 11
-268.039
 21
275.35
 31
9.1
  0
LINE
  5
ABB
330
A02
100
AcDbEntity
  8
Mesh_cs001
100
AcDbLine
 10
-268.039
 20
275.35
 30
9.1
 11
-267.669
 21
275.223
 31
9.1
  0
LINE
  5
ABC
330
A02
100
AcDbEntity
  8
Mesh_cs001
100
AcDbLine
 10
-267.669
 20
275.223
 30
9.1
 11
-267.656
 21
275.218
 31
9.1
  0
LINE
  5
ABD
330
A02
100
AcDbEntity
  8
Mesh_cs001
100
AcDbLine
 10
-267.656
 20
275.218
 30
9.1
 11
-267.297
 21
275.061
 31
9.1
  0
LINE
  5
ABE
330
A02
100
AcDbEntity
  8
Mesh_cs001
100
AcDbLine
 10
-267.297
 20
275.061
 30
9.1
 11
-266.952
 21
274.876
 31
9.1
  0
LINE
  5
ABF
330
A02
100
AcDbEntity
  8
Mesh_cs001
100
AcDbLine
 10
-266.952
 20
274.876
 30
9.1
 11
-266.939
 21
274.869
 31
9.1
  0
LINE
  5
AC0
330
A02
100
AcDbEntity
  8
Mesh_cs001
100
AcDbLine
 10
-266.939
 20
274.869
 30
9.1
 11
-266.609
 21
274.657
 31
9.1
  0
LINE
  5
AC1
330
A02
100
AcDbEntity
  8
Mesh_cs001
100
AcDbLine
 10
-266.609
 20
274.657
 30
9.1
 11
-266.596
 21
274.649
 31
9.1
  0
LINE
  5
AC2
330
A02
100
AcDbEntity
  8
Mesh_cs001
100
AcDbLine
 10
-266.596
 20
274.649
 30
9.1
 11
-266.285
 21
274.409
 31
9.1
  0
LINE
  5
AC3
330
A02
100
AcDbEntity
  8
Mesh_cs001
100
AcDbLine
 10
-266.285
 20
274.409
 30
9.1
 11
-266.273
 21
274.4
 31
9.1
  0
LINE
  5
AC4
330
A02
100
AcDbEntity
  8
Mesh_cs001
100
AcDbLine
 10
-266.273
 20
274.4
 30
9.1
 11
-265.981
 21
274.136
 31
9.1
  0
LINE
  5
AC5
330
A02
100
AcDbEntity
  8
Mesh_cs001
100
AcDbLine
 10
-265.981
 20
274.136
 30
9.1
 11
-265.97
 21
274.126
 31
9.1
  0
LINE
  5
AC6
330
A02
100
AcDbEntity
  8
Mesh_cs001
100
AcDbLine
 10
-265.97
 20
274.126
 30
9.1
 11
-265.692
 21
273.828
 31
9.1
  0
LINE
  5
AC7
330
A02
100
AcDbEntity
  8
Mesh_cs001
100
AcDbLine
 10
-265.692
 20
273.828
 30
9.1
 11
-265.684
 21
273.819
 31
9.1
  0
LINE
  5
AC8
330
A02
100
AcDbEntity
  8
Mesh_cs001
100
AcDbLine
 10
-265.684
 20
273.819
 30
9.1
 11
-265.439
 21
273.509
 31
9.1
  0
LINE
  5
AC9
330
A02
100
AcDbEntity
  8
Mesh_cs001
100
AcDbLine
 10
-265.439
 20
273.509
 30
9.1
 11
-265.432
 21
273.5
 31
9.1
  0
LINE
  5
ACA
330
A02
100
AcDbEntity
  8
Mesh_cs001
100
AcDbLine
 10
-265.432
 20
273.5
 30
9.1
 11
-265.042
 21
272.964
 31
9.1
  0
LINE
  5
ACB
330
A02
100
AcDbEntity
  8
Mesh_cs001
100
AcDbLine
 10
-265.042
 20
272.964
 30
9.1
 11
-253.735
 21
257.401
 31
9.1
  0
LINE
  5
ACC
330
A02
100
AcDbEntity
  8
Mesh_cs001
100
AcDbLine
 10
-253.735
 20
257.401
 30
9.1
 11
-251.506
 21
259.02
 31
9.1
  0
LINE
  5
ACD
330
A02
100
AcDbEntity
  8
Mesh_cs001
100
AcDbLine
 10
-251.506
 20
259.02
 30
9.1
 11
-206.712
 21
291.565
 31
9.1
  0
LINE
  5
ACE
330
A02
100
AcDbEntity
  8
Mesh_cs001
100
AcDbLine
 10
-206.712
 20
291.565
 30
9.1
 11
-195
 21
300.074
 31
9.1
  0
LINE
  5
ACF
330
A02
100
AcDbEntity
  8
Mesh_cs001
100
AcDbLine
 10
-195
 20
300.074
 30
9.1
 11
-195
 21
325.594
 31
9.1
  0
LINE
  5
AD0
330
A02
100
AcDbEntity
  8
Mesh_cs001
100
AcDbLine
 10
-195
 20
325.594
 30
9.1
 11
-195
 21
373.124
 31
9.1
  0
LINE
  5
AD1
330
A02
100
AcDbEntity
  8
Mesh_cs001
100
AcDbLine
 10
-195
 20
373.124
 30
9.1
 11
-195
 21
563.032
 31
9.1
  0
LINE
  5
AD2
330
A02
100
AcDbEntity
  8
Mesh_cs001
100
AcDbLine
 10
-195
 20
563.032
 30
9.1
 11
-195
 21
575.248
 31
9.1
  0
LINE
  5
AD3
330
A02
100
AcDbEntity
  8
Mesh_cs001
100
AcDbLine
 10
-195
 20
575.248
 30
9.1
 11
-214.237
 21
575.248
 31
9.1
  0
LINE
  5
AD4
330
A02
100
AcDbEntity
  8
Mesh_cs001
100
AcDbLine
 10
-214.237
 20
575.248
 30
9.1
 11
-214.9
 21
575.248
 31
9.1
  0
LINE
  5
AD5
330
A02
100
AcDbEntity
  8
Mesh_cs001
100
AcDbLine
 10
-214.9
 20
575.248
 30
9.1
 11
-215.222
 21
575.259
 31
9.1
  0
LINE
  5
AD6
330
A02
100
AcDbEntity
  8
Mesh_cs001
100
AcDbLine
 10
-215.222
 20
575.259
 30
9.1
 11
-215.235
 21
575.26
 31
9.1
  0
LINE
  5
AD7
330
A02
100
AcDbEntity
  8
Mesh_cs001
100
AcDbLine
 10
-215.235
 20
575.26
 30
9.1
 11
-215.564
 21
575.293
 31
9.1
  0
LINE
  5
AD8
330
A02
100
AcDbEntity
  8
Mesh_cs001
100
AcDbLine
 10
-215.564
 20
575.293
 30
9.1
 11
-215.577
 21
575.294
 31
9.1
  0
LINE
  5
AD9
330
A02
100
AcDbEntity
  8
Mesh_cs001
100
AcDbLine
 10
-215.577
 20
575.294
 30
9.1
 11
-215.997
 21
575.37
 31
9.1
  0
LINE
  5
ADA
330
A02
100
AcDbEntity
  8
Mesh_cs001
100
AcDbLine
 10
-215.997
 20
575.37
 30
9.1
 11
-216.009
 21
575.373
 31
9.1
  0
LINE
  5
ADB
330
A02
100
AcDbEntity
  8
Mesh_cs001
100
AcDbLine
 10
-216.009
 20
575.373
 30
9.1
 11
-216.421
 21
575.486
 31
9.1
  0
LINE
  5
ADC
330
A02
100
AcDbEntity
  8
Mesh_cs001
100
AcDbLine
 10
-216.421
 20
575.486
 30
9.1
 11
-216.434
 21
575.489
 31
9.1
  0
LINE
  5
ADD
330
A02
100
AcDbEntity
  8
Mesh_cs001
100
AcDbLine
 10
-216.434
 20
575.489
 30
9.1
 11
-216.446
 21
575.494
 31
9.1
  0
LINE
  5
ADE
330
A02
100
AcDbEntity
  8
Mesh_cs001
100
AcDbLine
 10
-216.446
 20
575.494
 30
9.1
 11
-216.848
 21
575.643
 31
9.1
  0
LINE
  5
ADF
330
A02
100
AcDbEntity
  8
Mesh_cs001
100
AcDbLine
 10
-216.848
 20
575.643
 30
9.1
 11
-216.86
 21
575.649
 31
9.1
  0
LINE
  5
AE0
330
A02
100
AcDbEntity
  8
Mesh_cs001
100
AcDbLine
 10
-216.86
 20
575.649
 30
9.1
 11
-217.247
 21
575.833
 31
9.1
  0
LINE
  5
AE1
330
A02
100
AcDbEntity
  8
Mesh_cs001
100
AcDbLine
 10
-217.247
 20
575.833
 30
9.1
 11
-217.259
 21
575.84
 31
9.1
  0
LINE
  5
AE2
330
A02
100
AcDbEntity
  8
Mesh_cs001
100
AcDbLine
 10
-217.259
 20
575.84
 30
9.1
 11
-217.629
 21
576.059
 31
9.1
  0
LINE
  5
AE3
330
A02
100
AcDbEntity
  8
Mesh_cs001
100
AcDbLine
 10
-217.629
 20
576.059
 30
9.1
 11
-217.64
 21
576.066
 31
9.1
  0
LINE
  5
AE4
330
A02
100
AcDbEntity
  8
Mesh_cs001
100
AcDbLine
 10
-217.64
 20
576.066
 30
9.1
 11
-217.99
 21
576.318
 31
9.1
  0
LINE
  5
AE5
330
A02
100
AcDbEntity
  8
Mesh_cs001
100
AcDbLine
 10
-217.99
 20
576.318
 30
9.1
 11
-218
 21
576.326
 31
9.1
  0
LINE
  5
AE6
330
A02
100
AcDbEntity
  8
Mesh_cs001
100
AcDbLine
 10
-218
 20
576.326
 30
9.1
 11
-218.327
 21
576.608
 31
9.1
  0
LINE
  5
AE7
330
A02
100
AcDbEntity
  8
Mesh_cs001
100
AcDbLine
 10
-218.327
 20
576.608
 30
9.1
 11
-218.338
 21
576.618
 31
9.1
  0
LINE
  5
AE8
330
A02
100
AcDbEntity
  8
Mesh_cs001
100
AcDbLine
 10
-218.338
 20
576.618
 30
9.1
 11
-218.61
 21
576.896
 31
9.1
  0
LINE
  5
AE9
330
A02
100
AcDbEntity
  8
Mesh_cs001
100
AcDbLine
 10
-218.61
 20
576.896
 30
9.1
 11
-218.62
 21
576.908
 31
9.1
  0
LINE
  5
AEA
330
A02
100
AcDbEntity
  8
Mesh_cs001
100
AcDbLine
 10
-218.62
 20
576.908
 30
9.1
 11
-218.869
 21
577.207
 31
9.1
  0
LINE
  5
AEB
330
A02
100
AcDbEntity
  8
Mesh_cs001
100
AcDbLine
 10
-218.869
 20
577.207
 30
9.1
 11
-218.878
 21
577.219
 31
9.1
  0
LINE
  5
AEC
330
A02
100
AcDbEntity
  8
Mesh_cs001
100
AcDbLine
 10
-218.878
 20
577.219
 30
9.1
 11
-219.102
 21
577.539
 31
9.1
  0
LINE
  5
AED
330
A02
100
AcDbEntity
  8
Mesh_cs001
100
AcDbLine
 10
-219.102
 20
577.539
 30
9.1
 11
-219.11
 21
577.552
 31
9.1
  0
LINE
  5
AEE
330
A02
100
AcDbEntity
  8
Mesh_cs001
100
AcDbLine
 10
-219.11
 20
577.552
 30
9.1
 11
-219.308
 21
577.889
 31
9.1
  0
LINE
  5
AEF
330
A02
100
AcDbEntity
  8
Mesh_cs001
100
AcDbLine
 10
-219.308
 20
577.889
 30
9.1
 11
-219.479
 21
578.241
 31
9.1
  0
LINE
  5
AF0
330
A02
100
AcDbEntity
  8
Mesh_cs001
100
AcDbLine
 10
-219.479
 20
578.241
 30
9.1
 11
-219.485
 21
578.255
 31
9.1
  0
LINE
  5
AF1
330
A02
100
AcDbEntity
  8
Mesh_cs001
100
AcDbLine
 10
-219.485
 20
578.255
 30
9.1
 11
-219.627
 21
578.621
 31
9.1
  0
LINE
  5
AF2
330
A02
100
AcDbEntity
  8
Mesh_cs001
100
AcDbLine
 10
-219.627
 20
578.621
 30
9.1
 11
-219.632
 21
578.635
 31
9.1
  0
LINE
  5
AF3
330
A02
100
AcDbEntity
  8
Mesh_cs001
100
AcDbLine
 10
-219.632
 20
578.635
 30
9.1
 11
-219.744
 21
579.012
 31
9.1
  0
LINE
  5
AF4
330
A02
100
AcDbEntity
  8
Mesh_cs001
100
AcDbLine
 10
-219.744
 20
579.012
 30
9.1
 11
-219.748
 21
579.026
 31
9.1
  0
LINE
  5
AF5
330
A02
100
AcDbEntity
  8
Mesh_cs001
100
AcDbLine
 10
-219.748
 20
579.026
 30
9.1
 11
-219.829
 21
579.411
 31
9.1
  0
LINE
  5
AF6
330
A02
100
AcDbEntity
  8
Mesh_cs001
100
AcDbLine
 10
-219.829
 20
579.411
 30
9.1
 11
-219.832
 21
579.426
 31
9.1
  0
LINE
  5
AF7
330
A02
100
AcDbEntity
  8
Mesh_cs001
100
AcDbLine
 10
-219.832
 20
579.426
 30
9.1
 11
-219.882
 21
579.83
 31
9.1
  0
LINE
  5
AF8
330
A02
100
AcDbEntity
  8
Mesh_cs001
100
AcDbLine
 10
-219.882
 20
579.83
 30
9.1
 11
-219.883
 21
579.842
 31
9.1
  0
LINE
  5
AF9
330
A02
100
AcDbEntity
  8
Mesh_cs001
100
AcDbLine
 10
-219.883
 20
579.842
 30
9.1
 11
-219.9
 21
580.237
 31
9.1
  0
LINE
  5
AFA
330
A02
100
AcDbEntity
  8
Mesh_cs001
100
AcDbLine
 10
-219.9
 20
580.237
 30
9.1
 11
-219.9
 21
580.248
 31
9.1
  0
LINE
  5
AFB
330
A02
100
AcDbEntity
  8
Mesh_cs001
100
AcDbLine
 10
-219.9
 20
580.248
 30
9.1
 11
-219.9
 21
599.485
 31
9.1
  0
LINE
  5
AFC
330
A02
100
AcDbEntity
  8
Mesh_cs001
100
AcDbLine
 10
-219.9
 20
599.485
 30
9.1
 11
-219.9
 21
600.148
 31
9.1
  0
LINE
  5
AFD
330
A02
100
AcDbEntity
  8
Mesh_cs001
100
AcDbLine
 10
-219.9
 20
600.148
 30
9.1
 11
-222.655
 21
600.148
 31
9.1
  0
LINE
  5
AFE
330
A02
100
AcDbEntity
  8
Mesh_cs001
100
AcDbLine
 10
-222.655
 20
600.148
 30
9.1
 11
-294.864
 21
600.148
 31
9.1
  0
LINE
  5
AFF
330
A02
100
AcDbEntity
  8
Mesh_cs001
100
AcDbLine
 10
-294.864
 20
600.148
 30
9.1
 11
-323.818
 21
600.148
 31
9.1
  0
LINE
  5
B00
330
A02
100
AcDbEntity
  8
Mesh_cs001
100
AcDbLine
 10
-323.818
 20
600.148
 30
9.1
 11
-362.345
 21
600.148
 31
9.1
  0
LINE
  5
B01
330
A02
100
AcDbEntity
  8
Mesh_cs001
100
AcDbLine
 10
-362.345
 20
600.148
 30
9.1
 11
-365.1
 21
600.148
 31
9.1
  0
LINE
  5
B02
330
A02
100
AcDbEntity
  8
Mesh_cs001
100
AcDbLine
 10
-365.1
 20
600.148
 30
9.1
 11
-365.1
 21
599.485
 31
9.1
  0
LINE
  5
B03
330
A02
100
AcDbEntity
  8
Mesh_cs001
100
AcDbLine
 10
-365.1
 20
599.485
 30
9.1
 11
-365.1
 21
580.248
 31
9.1
  0
LINE
  5
B04
330
A02
100
AcDbEntity
  8
Mesh_cs001
100
AcDbLine
 10
-365.1
 20
580.248
 30
9.1
 11
-365.1
 21
580.237
 31
9.1
  0
LINE
  5
B05
330
A02
100
AcDbEntity
  8
Mesh_cs001
100
AcDbLine
 10
-365.1
 20
580.237
 30
9.1
 11
-365.117
 21
579.842
 31
9.1
  0
LINE
  5
B06
330
A02
100
AcDbEntity
  8
Mesh_cs001
100
AcDbLine
 10
-365.117
 20
579.842
 30
9.1
 11
-365.118
 21
579.83
 31
9.1
  0
LINE
  5
B07
330
A02
100
AcDbEntity
  8
Mesh_cs001
100
AcDbLine
 10
-365.118
 20
579.83
 30
9.1
 11
-365.168
 21
579.426
 31
9.1
  0
LINE
  5
B08
330
A02
100
AcDbEntity
  8
Mesh_cs001
100
AcDbLine
 10
-365.168
 20
579.426
 30
9.1
 11
-365.171
 21
579.411
 31
9.1
  0
LINE
  5
B09
330
A02
100
AcDbEntity
  8
Mesh_cs001
100
AcDbLine
 10
-365.171
 20
579.411
 30
9.1
 11
-365.252
 21
579.026
 31
9.1
  0
LINE
  5
B0A
330
A02
100
AcDbEntity
  8
Mesh_cs001
100
AcDbLine
 10
-365.252
 20
579.026
 30
9.1
 11
-365.256
 21
579.012
 31
9.1
  0
LINE
  5
B0B
330
A02
100
AcDbEntity
  8
Mesh_cs001
100
AcDbLine
 10
-365.256
 20
579.012
 30
9.1
 11
-365.368
 21
578.635
 31
9.1
  0
LINE
  5
B0C
330
A02
100
AcDbEntity
  8
Mesh_cs001
100
AcDbLine
 10
-365.368
 20
578.635
 30
9.1
 11
-365.373
 21
578.621
 31
9.1
  0
LINE
  5
B0D
330
A02
100
AcDbEntity
  8
Mesh_cs001
100
AcDbLine
 10
-365.373
 20
578.621
 30
9.1
 11
-365.515
 21
578.255
 31
9.1
  0
LINE
  5
B0E
330
A02
100
AcDbEntity
  8
Mesh_cs001
100
AcDbLine
 10
-365.515
 20
578.255
 30
9.1
 11
-365.521
 21
578.241
 31
9.1
  0
LINE
  5
B0F
330
A02
100
AcDbEntity
  8
Mesh_cs001
100
AcDbLine
 10
-365.521
 20
578.241
 30
9.1
 11
-365.692
 21
577.889
 31
9.1
  0
LINE
  5
B10
330
A02
100
AcDbEntity
  8
Mesh_cs001
100
AcDbLine
 10
-365.692
 20
577.889
 30
9.1
 11
-365.89
 21
577.552
 31
9.1
  0
LINE
  5
B11
330
A02
100
AcDbEntity
  8
Mesh_cs001
100
AcDbLine
 10
-365.89
 20
577.552
 30
9.1
 11
-365.898
 21
577.539
 31
9.1
  0
LINE
  5
B12
330
A02
100
AcDbEntity
  8
Mesh_cs001
100
AcDbLine
 10
-365.898
 20
577.539
 30
9.1
 11
-366.122
 21
577.219
 31
9.1
  0
LINE
  5
B13
330
A02
100
AcDbEntity
  8
Mesh_cs001
100
AcDbLine
 10
-366.122
 20
577.219
 30
9.1
 11
-366.131
 21
577.207
 31
9.1
  0
LINE
  5
B14
330
A02
100
AcDbEntity
  8
Mesh_cs001
100
AcDbLine
 10
-366.131
 20
577.207
 30
9.1
 11
-366.38
 21
576.908
 31
9.1
  0
LINE
  5
B15
330
A02
100
AcDbEntity
  8
Mesh_cs001
100
AcDbLine
 10
-366.38
 20
576.908
 30
9.1
 11
-366.39
 21
576.896
 31
9.1
  0
LINE
  5
B16
330
A02
100
AcDbEntity
  8
Mesh_cs001
100
AcDbLine
 10
-366.39
 20
576.896
 30
9.1
 11
-366.662
 21
576.618
 31
9.1
  0
LINE
  5
B17
330
A02
100
AcDbEntity
  8
Mesh_cs001
100
AcDbLine
 10
-366.662
 20
576.618
 30
9.1
 11
-366.673
 21
576.608
 31
9.1
  0
LINE
  5
B18
330
A02
100
AcDbEntity
  8
Mesh_cs001
100
AcDbLine
 10
-366.673
 20
576.608
 30
9.1
 11
-367
 21
576.326
 31
9.1
  0
LINE
  5
B19
330
A02
100
AcDbEntity
  8
Mesh_cs001
100
AcDbLine
 10
-367
 20
576.326
 30
9.1
 11
-367.01
 21
576.318
 31
9.1
  0
LINE
  5
B1A
330
A02
100
AcDbEntity
  8
Mesh_cs001
100
AcDbLine
 10
-367.01
 20
576.318
 30
9.1
 11
-367.36
 21
576.066
 31
9.1
  0
LINE
  5
B1B
330
A02
100
AcDbEntity
  8
Mesh_cs001
100
AcDbLine
 10
-367.36
 20
576.066
 30
9.1
 11
-367.371
 21
576.059
 31
9.1
  0
LINE
  5
B1C
330
A02
100
AcDbEntity
  8
Mesh_cs001
100
AcDbLine
 10
-367.371
 20
576.059
 30
9.1
 11
-367.741
 21
575.84
 31
9.1
  0
LINE
  5
B1D
330
A02
100
AcDbEntity
  8
Mesh_cs001
100
AcDbLine
 10
-367.741
 20
575.84
 30
9.1
 11
-367.753
 21
575.833
 31
9.1
  0
LINE
  5
B1E
330
A02
100
AcDbEntity
  8
Mesh_cs001
100
AcDbLine
 10
-367.753
 20
575.833
 30
9.1
 11
-368.14
 21
575.649
 31
9.1
  0
LINE
  5
B1F
330
A02
100
AcDbEntity
  8
Mesh_cs001
100
AcDbLine
 10
-368.14
 20
575.649
 30
9.1
 11
-368.152
 21
575.643
 31
9.1
  0
LINE
  5
B20
330
A02
100
AcDbEntity
  8
Mesh_cs001
100
AcDbLine
 10
-368.152
 20
575.643
 30
9.1
 11
-368.554
 21
575.494
 31
9.1
  0
LINE
  5
B21
330
A02
100
AcDbEntity
  8
Mesh_cs001
100
AcDbLine
 10
-368.554
 20
575.494
 30
9.1
 11
-368.566
 21
575.489
 31
9.1
  0
LINE
  5
B22
330
A02
100
AcDbEntity
  8
Mesh_cs001
100
AcDbLine
 10
-368.566
 20
575.489
 30
9.1
 11
-368.579
 21
575.486
 31
9.1
  0
LINE
  5
B23
330
A02
100
AcDbEntity
  8
Mesh_cs001
100
AcDbLine
 10
-368.579
 20
575.486
 30
9.1
 11
-368.991
 21
575.373
 31
9.1
  0
LINE
  5
B24
330
A02
100
AcDbEntity
  8
Mesh_cs001
100
AcDbLine
 10
-368.991
 20
575.373
 30
9.1
 11
-369.003
 21
575.37
 31
9.1
  0
LINE
  5
B25
330
A02
100
AcDbEntity
  8
Mesh_cs001
100
AcDbLine
 10
-369.003
 20
575.37
 30
9.1
 11
-369.423
 21
575.294
 31
9.1
  0
LINE
  5
B26
330
A02
100
AcDbEntity
  8
Mesh_cs001
100
AcDbLine
 10
-369.423
 20
575.294
 30
9.1
 11
-369.436
 21
575.293
 31
9.1
  0
LINE
  5
B27
330
A02
100
AcDbEntity
  8
Mesh_cs001
100
AcDbLine
 10
-369.436
 20
575.293
 30
9.1
 11
-369.765
 21
575.26
 31
9.1
  0
LINE
  5
B28
330
A02
100
AcDbEntity
  8
Mesh_cs001
100
AcDbLine
 10
-369.765
 20
575.26
 30
9.1
 11
-369.778
 21
575.259
 31
9.1
  0
LINE
  5
B29
330
A02
100
AcDbEntity
  8
Mesh_cs001
100
AcDbLine
 10
-369.778
 20
575.259
 30
9.1
 11
-370.1
 21
575.248
 31
9.1
  0
LINE
  5
B2A
330
A02
100
AcDbEntity
  8
Mesh_cs001
100
AcDbLine
 10
-370.1
 20
575.248
 30
9.1
 11
-388.844
 21
575.248
 31
9.1
  0
LINE
  5
B2B
330
A02
100
AcDbEntity
  8
Mesh_cs001
100
AcDbLine
 10
-388.844
 20
575.248
 30
9.1
 11
-389.49
 21
575.248
 31
9.1
  0
LINE
  5
B2C
330
A02
100
AcDbEntity
  8
Mesh_cs001
100
AcDbLine
 10
-389.49
 20
575.248
 30
9.1
 11
-389.486
 21
575.161
 31
9.1
  0
LINE
  5
B2D
330
A02
100
AcDbEntity
  8
Mesh_cs001
100
AcDbLine
 10
-389.486
 20
575.161
 30
9.1
 11
-389.482
 21
575.074
 31
9.1
  0
LINE
  5
B2E
330
A02
100
AcDbEntity
  8
Mesh_cs001
100
AcDbLine
 10
-390
 20
600.148
 30
9.1
 11
-389.994
 21
597.864
 31
9.1
  0
LINE
  5
B2F
330
A02
100
AcDbEntity
  8
Mesh_cs001
100
AcDbLine
 10
-389.994
 20
597.864
 30
9.1
 11
-389.991
 21
596.813
 31
9.1
  0
LINE
  5
B30
330
A02
100
AcDbEntity
  8
Mesh_cs001
100
AcDbLine
 10
-389.991
 20
596.813
 30
9.1
 11
-389.974
 21
594.529
 31
9.1
  0
LINE
  5
B31
330
A02
100
AcDbEntity
  8
Mesh_cs001
100
AcDbLine
 10
-389.974
 20
594.529
 30
9.1
 11
-389.962
 21
593.477
 31
9.1
  0
LINE
  5
B32
330
A02
100
AcDbEntity
  8
Mesh_cs001
100
AcDbLine
 10
-389.962
 20
593.477
 30
9.1
 11
-389.917
 21
590.112
 31
9.1
  0
LINE
  5
B33
330
A02
100
AcDbEntity
  8
Mesh_cs001
100
AcDbLine
 10
-389.917
 20
590.112
 30
9.1
 11
-389.821
 21
585.396
 31
9.1
  0
LINE
  5
B34
330
A02
100
AcDbEntity
  8
Mesh_cs001
100
AcDbLine
 10
-389.821
 20
585.396
 30
9.1
 11
-389.817
 21
585.248
 31
9.1
  0
LINE
  5
B35
330
A02
100
AcDbEntity
  8
Mesh_cs001
100
AcDbLine
 10
-389.817
 20
585.248
 30
9.1
 11
-389.327
 21
585.248
 31
9.1
  0
LINE
  5
B36
330
A02
100
AcDbEntity
  8
Mesh_cs001
100
AcDbLine
 10
-389.327
 20
585.248
 30
9.1
 11
-375.1
 21
585.248
 31
9.1
  0
LINE
  5
B37
330
A02
100
AcDbEntity
  8
Mesh_cs001
100
AcDbLine
 10
-375.1
 20
585.248
 30
9.1
 11
-375.1
 21
599.652
 31
9.1
  0
LINE
  5
B38
330
A02
100
AcDbEntity
  8
Mesh_cs001
100
AcDbLine
 10
-375.1
 20
599.652
 30
9.1
 11
-375.1
 21
600.148
 31
9.1
  0
LINE
  5
B39
330
A02
100
AcDbEntity
  8
Mesh_cs001
100
AcDbLine
 10
-375.1
 20
600.148
 30
9.1
 11
-375.597
 21
600.148
 31
9.1
  0
LINE
  5
B3A
330
A02
100
AcDbEntity
  8
Mesh_cs001
100
AcDbLine
 10
-375.597
 20
600.148
 30
9.1
 11
-390
 21
600.148
 31
9.1
  0
LINE
  5
B3B
330
A02
100
AcDbEntity
  8
Mesh_cs001
100
AcDbLine
 10
-209.403
 20
585.248
 30
9.1
 11
-209.9
 21
585.248
 31
9.1
  0
LINE
  5
B3C
330
A02
100
AcDbEntity
  8
Mesh_cs001
100
AcDbLine
 10
-209.9
 20
585.248
 30
9.1
 11
-209.9
 21
599.652
 31
9.1
  0
LINE
  5
B3D
330
A02
100
AcDbEntity
  8
Mesh_cs001
100
AcDbLine
 10
-209.9
 20
599.652
 30
9.1
 11
-209.9
 21
600.148
 31
9.1
  0
LINE
  5
B3E
330
A02
100
AcDbEntity
  8
Mesh_cs001
100
AcDbLine
 10
-209.9
 20
600.148
 30
9.1
 11
-209.403
 21
600.148
 31
9.1
  0
LINE
  5
B3F
330
A02
100
AcDbEntity
  8
Mesh_cs001
100
AcDbLine
 10
-209.403
 20
600.148
 30
9.1
 11
-195
 21
600.148
 31
9.1
  0
LINE
  5
B40
330
A02
100
AcDbEntity
  8
Mesh_cs001
100
AcDbLine
 10
-195
 20
600.148
 30
9.1
 11
-195
 21
585.745
 31
9.1
  0
LINE
  5
B41
330
A02
100
AcDbEntity
  8
Mesh_cs001
100
AcDbLine
 10
-195
 20
585.745
 30
9.1
 11
-195
 21
585.248
 31
9.1
  0
LINE
  5
B42
330
A02
100
AcDbEntity
  8
Mesh_cs001
100
AcDbLine
 10
-195
 20
585.248
 30
9.1
 11
-209.403
 21
585.248
 31
9.1
  0
ENDSEC
  0
SECTION
  2
OBJECTS
  0
DICTIONARY
  5
F000
330
0
100
AcDbDictionary
  3
ACAD_GROUP
350
F001
  0
DICTIONARY
  5
F001
330
F000
100
AcDbDictionary
  0
ENDSEC
  0
EOF