999
FreeCAD v0.21 33771 (Git)
  0
SECTION
  2
HEADER
  9
$ACADVER
  1
AC1014
  9
$ACADMAINTVER
 70
     9
  9
$DWGCODEPAGE
  3
ANSI_1252
  9
$TEXTSTYLE
  7
STANDARD
  9
$DIMSTYLE
  2
STANDARD
  9
$DIMTXSTY
  7
STANDARD
  9
$CMLSTYLE
  2
STANDARD
  9
$LUNITS
 70
2
  9
$INSUNITS
 70
4
  9
$PEXTMAX
 10
50
 20
50
 30
50
  9
$PEXTMIN
 10
0
 20
0
 30
0
  9
$HANDSEED
  5
FFFF
  0
ENDSEC
  0
SECTION
  2
CLASSES
  0
CLASS
  1
ACDBDICTIONARYWDFLT
  2
AcDbDictionaryWithDefault
  3
ObjectDBX Classes
 90
        0
280
     0
281
     0
  0
CLASS
  1
XRECORD
  2
AcDbXrecord
  3
ObjectDBX Classes
 90
        0
280
     0
281
     0
  0
CLASS
  1
LWPOLYLINE
  2
AcDbPolyline
  3
ObjectDBX Classes
 90
        0
280
     0
281
     1
  0
ENDSEC
  0
SECTION
  2
TABLES
  0
TABLE
  2
VPORT
  5
20
330
0
100
AcDbSymbolTable
 70
     1
  0
VPORT
  5
21
330
20
100
AcDbSymbolTableRecord
100
AcDbViewportTableRecord
  2
*ACTIVE
 70
     0
  0
ENDTAB
  0
TABLE
  2
LTYPE
  5
22
330
0
100
AcDbSymbolTable
 70
     1
  0
LTYPE
  5
23
330
21
100
AcDbSymbolTableRecord
100
AcDbLinetypeTableRecord
  2
BYBLOCK
 70
     0
  3

 72
    65
 73
     0
 40
0.0
  0
LTYPE
  5
24
330
21
100
AcDbSymbolTableRecord
100
AcDbLinetypeTableRecord
  2
BYLAYER
 70
     0
  3

 72
    65
 73
     0
 40
0.0
  0
LTYPE
  5
25
330
21
100
AcDbSymbolTableRecord
100
AcDbLinetypeTableRecord
  2
CONTINUOUS
 70
     0
  3
Solid line
 72
    65
 73
     0
 40
0.0
  0
ENDTAB
  0
TABLE
  2
LAYER
  5
A83
330
0
100
AcDbSymbolTable
 70
3
  0
LAYER
  5
A84
330
A83
100
AcDbSymbolTableRecord
100
AcDbLayerTableRecord
  2
0
 70
   0
 62
   7
  6
CONTINUOUS
  0
LAYER
  5
A85
330
A83
100
AcDbSymbolTableRecord
100
AcDbLayerTableRecord
  2
none
 70
    0
 62
    7
  6
CONTINUOUS
  0
LAYER
  5
A86
330
A83
100
AcDbSymbolTableRecord
100
AcDbLayerTableRecord
  2
Mesh_cs003
 70
    0
 62
    7
  6
CONTINUOUS
  0
ENDTAB
  0
TABLE
  2
STYLE
  5
70
330
0
100
AcDbSymbolTable
 70
     2
  0
STYLE
  5
71
330
70
100
AcDbSymbolTableRecord
100
AcDbTextStyleTableRecord
  2
STANDARD
 70
     0
 40
0.0
 41
1.0
 50
0.0
 71
     0
 42
2.5
  3
arial.ttf
  4

  0
STYLE
  5
72
330
70
100
AcDbSymbolTableRecord
100
AcDbTextStyleTableRecord
  2
ANNOTATIVE
 70
     0
 40
0.0
 41
1.0
 50
0.0
 71
     0
 42
2.5
  3
arial.ttf
  4

  0
ENDTAB
  0
TABLE
  2
VIEW
  5
73
330
0
100
AcDbSymbolTable
 70
     0
  0
ENDTAB
  0
TABLE
  2
UCS
  5
74
330
0
100
AcDbSymbolTable
 70
     0
  0
ENDTAB
  0
TABLE
  2
APPID
  5
75
330
0
100
AcDbSymbolTable
 70
     2
  0
APPID
  5
76
330
75
100
AcDbSymbolTableRecord
100
AcDbRegAppTableRecord
  2
ACAD
 70
     0
  0
APPID
  5
77
330
75
100
AcDbSymbolTableRecord
100
AcDbRegAppTableRecord
  2
ACADANNOTATIVE
 70
     0
  0
ENDTAB
  0
TABLE
  2
DIMSTYLE
  5
78
330
0
100
AcDbSymbolTable
 70
     2
  0
DIMSTYLE
105
79
330
78
100
AcDbSymbolTableRecord
100
AcDbDimStyleTableRecord
  2
STANDARD
 70
     0
  3

  4

  5

  6

  7

 40
0.0
 41
2.5
 42
0.625
 43
3.75
 44
1.25
 45
0.0
 46
0.0
 47
0.0
 48
0.0
140
2.5
141
2.5
142
0.0
143
0.03937007874016
144
1.0
145
0.0
146
1.0
147
0.625
 71
     0
 72
     0
 73
     0
 74
     0
 75
     0
 76
     0
 77
     1
 78
     8
170
     0
171
     3
172
     1
173
     0
174
     0
175
     0
176
     0
177
     0
178
     0
270
     2
271
     2
272
     2
273
     2
274
     3
340
71
275
     0
280
     0
281
     0
282
     0
283
     0
284
     8
285
     0
286
     0
287
     3
288
     0
  0
ENDTAB
  0
TABLE
  2
BLOCK_RECORD
  5
A01
330
0
100
AcDbSymbolTable
  70
5
  0
BLOCK_RECORD
  5
A02
330
A01
100
AcDbSymbolTableRecord
100
AcDbBlockTableRecord
  2
*MODEL_SPACE
  0
BLOCK_RECORD
  5
A03
330
A01
100
AcDbSymbolTableRecord
100
AcDbBlockTableRecord
  2
*PAPER_SPACE
  0
ENDTAB
  0
ENDSEC
  0
SECTION
  2
BLOCKS
  0
BLOCK
  5
A04
330
A02
100
AcDbEntity
  8
0
100
AcDbBlockBegin
  2
*MODEL_SPACE
 70
   0
 10
0
 20
0
 30
0
  3
*MODEL_SPACE
  1
 
  0
ENDBLK
  5
A05
330
A02
100
AcDbEntity
  8
0
100
AcDbBlockEnd
  0
BLOCK
  5
A06
330
A03
100
AcDbEntity
 67
1
  8
0
100
AcDbBlockBegin
  2
*PAPER_SPACE
 70
   0
 10
0
 20
0
 30
0
  3
*PAPER_SPACE
  1
 
  0
ENDBLK
  5
A07
330
A03
100
AcDbEntity
 67
    1
  8
0
100
AcDbBlockEnd
  0
ENDSEC
  0
SECTION
  2
ENTITIES
  0
LINE
  5
A08
330
A02
100
AcDbEntity
  8
Mesh_cs003
100
AcDbLine
 10
272.35
 20
243.876
 30
0.0999999
 11
273.033
 21
243.38
 31
0.0999999
  0
LINE
  5
A09
330
A02
100
AcDbEntity
  8
Mesh_cs003
100
AcDbLine
 10
273.033
 20
243.38
 30
0.0999999
 11
273.291
 21
243.193
 31
0.1
  0
LINE
  5
A0A
330
A02
100
AcDbEntity
  8
Mesh_cs003
100
AcDbLine
 10
273.291
 20
243.193
 30
0.1
 11
273.655
 21
242.928
 31
0.0999999
  0
LINE
  5
A0B
330
A02
100
AcDbEntity
  8
Mesh_cs003
100
AcDbLine
 10
273.655
 20
242.928
 30
0.0999999
 11
273.745
 21
242.862
 31
0.0999999
  0
LINE
  5
A0C
330
A02
100
AcDbEntity
  8
Mesh_cs003
100
AcDbLine
 10
273.745
 20
242.862
 30
0.0999999
 11
273.879
 21
242.765
 31
0.0999999
  0
LINE
  5
A0D
330
A02
100
AcDbEntity
  8
Mesh_cs003
100
AcDbLine
 10
273.879
 20
242.765
 30
0.0999999
 11
273.782
 21
242.631
 31
0.0999999
  0
LINE
  5
A0E
330
A02
100
AcDbEntity
  8
Mesh_cs003
100
AcDbLine
 10
273.782
 20
242.631
 30
0.0999999
 11
259.309
 21
222.71
 31
0.0999999
  0
LINE
  5
A0F
330
A02
100
AcDbEntity
  8
Mesh_cs003
100
AcDbLine
 10
259.309
 20
222.71
 30
0.0999999
 11
259.243
 21
222.621
 31
0.0999999
  0
LINE
  5
A10
330
A02
100
AcDbEntity
  8
Mesh_cs003
100
AcDbLine
 10
259.243
 20
222.621
 30
0.0999999
 11
259.232
 21
222.601
 31
0.0999999
  0
LINE
  5
A11
330
A02
100
AcDbEntity
  8
Mesh_cs003
100
AcDbLine
 10
259.232
 20
222.601
 30
0.0999999
 11
259.218
 21
222.569
 31
0.1
  0
LINE
  5
A12
330
A02
100
AcDbEntity
  8
Mesh_cs003
100
AcDbLine
 10
259.218
 20
222.569
 30
0.1
 11
258.717
 21
221.703
 31
0.1
  0
LINE
  5
A13
330
A02
100
AcDbEntity
  8
Mesh_cs003
100
AcDbLine
 10
258.717
 20
221.703
 30
0.1
 11
258.405
 21
220.751
 31
0.1
  0
LINE
  5
A14
330
A02
100
AcDbEntity
  8
Mesh_cs003
100
AcDbLine
 10
258.405
 20
220.751
 30
0.1
 11
258.295
 21
219.757
 31
0.1
  0
LINE
  5
A15
330
A02
100
AcDbEntity
  8
Mesh_cs003
100
AcDbLine
 10
258.295
 20
219.757
 30
0.1
 11
258.288
 21
219.711
 31
0.0999999
  0
LINE
  5
A16
330
A02
100
AcDbEntity
  8
Mesh_cs003
100
AcDbLine
 10
258.288
 20
219.711
 30
0.0999999
 11
251.734
 21
208.912
 31
0.0999999
  0
LINE
  5
A17
330
A02
100
AcDbEntity
  8
Mesh_cs003
100
AcDbLine
 10
251.734
 20
208.912
 30
0.0999999
 11
251.679
 21
208.821
 31
0.0999999
  0
LINE
  5
A18
330
A02
100
AcDbEntity
  8
Mesh_cs003
100
AcDbLine
 10
251.679
 20
208.821
 30
0.0999999
 11
245.46
 21
197.824
 31
0.0999999
  0
LINE
  5
A19
330
A02
100
AcDbEntity
  8
Mesh_cs003
100
AcDbLine
 10
245.46
 20
197.824
 30
0.0999999
 11
245.408
 21
197.732
 31
0.0999999
  0
LINE
  5
A1A
330
A02
100
AcDbEntity
  8
Mesh_cs003
100
AcDbLine
 10
245.408
 20
197.732
 30
0.0999999
 11
239.532
 21
186.549
 31
0.0999999
  0
LINE
  5
A1B
330
A02
100
AcDbEntity
  8
Mesh_cs003
100
AcDbLine
 10
239.532
 20
186.549
 30
0.0999999
 11
239.483
 21
186.455
 31
0.0999999
  0
LINE
  5
A1C
330
A02
100
AcDbEntity
  8
Mesh_cs003
100
AcDbLine
 10
239.483
 20
186.455
 30
0.0999999
 11
239.436
 21
186.359
 31
0.0999999
  0
LINE
  5
A1D
330
A02
100
AcDbEntity
  8
Mesh_cs003
100
AcDbLine
 10
239.436
 20
186.359
 30
0.0999999
 11
233.908
 21
175
 31
0.0999999
  0
LINE
  5
A1E
330
A02
100
AcDbEntity
  8
Mesh_cs003
100
AcDbLine
 10
233.908
 20
175
 30
0.0999999
 11
228.732
 21
163.476
 31
0.0999999
  0
LINE
  5
A1F
330
A02
100
AcDbEntity
  8
Mesh_cs003
100
AcDbLine
 10
228.732
 20
163.476
 30
0.0999999
 11
228.688
 21
163.38
 31
0.0999999
  0
LINE
  5
A20
330
A02
100
AcDbEntity
  8
Mesh_cs003
100
AcDbLine
 10
228.688
 20
163.38
 30
0.0999999
 11
223.871
 21
151.701
 31
0.0999999
  0
LINE
  5
A21
330
A02
100
AcDbEntity
  8
Mesh_cs003
100
AcDbLine
 10
223.871
 20
151.701
 30
0.0999999
 11
223.83
 21
151.603
 31
0.0999999
  0
LINE
  5
A22
330
A02
100
AcDbEntity
  8
Mesh_cs003
100
AcDbLine
 10
223.83
 20
151.603
 30
0.0999999
 11
223.793
 21
151.504
 31
0.0999999
  0
LINE
  5
A23
330
A02
100
AcDbEntity
  8
Mesh_cs003
100
AcDbLine
 10
223.793
 20
151.504
 30
0.0999999
 11
219.337
 21
139.683
 31
0.0999999
  0
LINE
  5
A24
330
A02
100
AcDbEntity
  8
Mesh_cs003
100
AcDbLine
 10
219.337
 20
139.683
 30
0.0999999
 11
215.249
 21
127.73
 31
0.0999999
  0
LINE
  5
A25
330
A02
100
AcDbEntity
  8
Mesh_cs003
100
AcDbLine
 10
215.249
 20
127.73
 30
0.0999999
 11
215.214
 21
127.629
 31
0.0999999
  0
LINE
  5
A26
330
A02
100
AcDbEntity
  8
Mesh_cs003
100
AcDbLine
 10
215.214
 20
127.629
 30
0.0999999
 11
211.496
 21
115.556
 31
0.0999999
  0
LINE
  5
A27
330
A02
100
AcDbEntity
  8
Mesh_cs003
100
AcDbLine
 10
211.496
 20
115.556
 30
0.0999999
 11
211.465
 21
115.454
 31
0.0999999
  0
LINE
  5
A28
330
A02
100
AcDbEntity
  8
Mesh_cs003
100
AcDbLine
 10
211.465
 20
115.454
 30
0.0999999
 11
211.437
 21
115.352
 31
0.0999999
  0
LINE
  5
A29
330
A02
100
AcDbEntity
  8
Mesh_cs003
100
AcDbLine
 10
211.437
 20
115.352
 30
0.0999999
 11
208.093
 21
103.17
 31
0.0999999
  0
LINE
  5
A2A
330
A02
100
AcDbEntity
  8
Mesh_cs003
100
AcDbLine
 10
208.093
 20
103.17
 30
0.0999999
 11
205.127
 21
90.8899
 31
0.0999999
  0
LINE
  5
A2B
330
A02
100
AcDbEntity
  8
Mesh_cs003
100
AcDbLine
 10
205.127
 20
90.8899
 30
0.0999999
 11
205.102
 21
90.7867
 31
0.0999999
  0
LINE
  5
A2C
330
A02
100
AcDbEntity
  8
Mesh_cs003
100
AcDbLine
 10
205.102
 20
90.7867
 30
0.0999999
 11
202.515
 21
78.4214
 31
0.0999999
  0
LINE
  5
A2D
330
A02
100
AcDbEntity
  8
Mesh_cs003
100
AcDbLine
 10
202.515
 20
78.4214
 30
0.0999999
 11
202.493
 21
78.3175
 31
0.0999999
  0
LINE
  5
A2E
330
A02
100
AcDbEntity
  8
Mesh_cs003
100
AcDbLine
 10
202.493
 20
78.3175
 30
0.0999999
 11
200.289
 21
65.8783
 31
0.0999999
  0
LINE
  5
A2F
330
A02
100
AcDbEntity
  8
Mesh_cs003
100
AcDbLine
 10
200.289
 20
65.8783
 30
0.0999999
 11
200.271
 21
65.7737
 31
0.0999999
  0
LINE
  5
A30
330
A02
100
AcDbEntity
  8
Mesh_cs003
100
AcDbLine
 10
200.271
 20
65.7737
 30
0.0999999
 11
198.452
 21
53.2724
 31
0.0999999
  0
LINE
  5
A31
330
A02
100
AcDbEntity
  8
Mesh_cs003
100
AcDbLine
 10
198.452
 20
53.2724
 30
0.0999999
 11
198.436
 21
53.1674
 31
0.0999999
  0
LINE
  5
A32
330
A02
100
AcDbEntity
  8
Mesh_cs003
100
AcDbLine
 10
198.436
 20
53.1674
 30
0.0999999
 11
197.004
 21
40.616
 31
0.0999999
  0
LINE
  5
A33
330
A02
100
AcDbEntity
  8
Mesh_cs003
100
AcDbLine
 10
197.004
 20
40.616
 30
0.0999999
 11
196.992
 21
40.5105
 31
0.0999999
  0
LINE
  5
A34
330
A02
100
AcDbEntity
  8
Mesh_cs003
100
AcDbLine
 10
196.992
 20
40.5105
 30
0.0999999
 11
196.983
 21
40.4047
 31
0.0999999
  0
LINE
  5
A35
330
A02
100
AcDbEntity
  8
Mesh_cs003
100
AcDbLine
 10
196.983
 20
40.4047
 30
0.0999999
 11
195.933
 21
27.8076
 31
0.0999999
  0
LINE
  5
A36
330
A02
100
AcDbEntity
  8
Mesh_cs003
100
AcDbLine
 10
195.933
 20
27.8076
 30
0.0999999
 11
195.424
 21
26.9157
 31
0.0999999
  0
LINE
  5
A37
330
A02
100
AcDbEntity
  8
Mesh_cs003
100
AcDbLine
 10
195.424
 20
26.9157
 30
0.0999999
 11
195.107
 21
25.93
 31
0.0999999
  0
LINE
  5
A38
330
A02
100
AcDbEntity
  8
Mesh_cs003
100
AcDbLine
 10
195.107
 20
25.93
 30
0.0999999
 11
195.106
 21
25.9185
 31
0.0999999
  0
LINE
  5
A39
330
A02
100
AcDbEntity
  8
Mesh_cs003
100
AcDbLine
 10
195.106
 20
25.9185
 30
0.0999999
 11
195
 21
24.9
 31
0.0999999
  0
LINE
  5
A3A
330
A02
100
AcDbEntity
  8
Mesh_cs003
100
AcDbLine
 10
195
 20
24.9
 30
0.0999999
 11
195
 21
24.7889
 31
0.0999999
  0
LINE
  5
A3B
330
A02
100
AcDbEntity
  8
Mesh_cs003
100
AcDbLine
 10
195
 20
24.7889
 30
0.0999999
 11
195
 21
0.165555
 31
0.0999999
  0
LINE
  5
A3C
330
A02
100
AcDbEntity
  8
Mesh_cs003
100
AcDbLine
 10
195
 20
0.165555
 30
0.0999999
 11
195
 21
-5.55112e-17
 31
0.0999999
  0
LINE
  5
A3D
330
A02
100
AcDbEntity
  8
Mesh_cs003
100
AcDbLine
 10
195
 20
-4.16666e-17
 30
0.0999999
 11
194.834
 21
-2.22222e-17
 31
0.0999999
  0
LINE
  5
A3E
330
A02
100
AcDbEntity
  8
Mesh_cs003
100
AcDbLine
 10
194.834
 20
-2.22222e-17
 30
0.0999999
 11
194.723
 21
-7.77777e-17
 31
0.0999999
  0
LINE
  5
A3F
330
A02
100
AcDbEntity
  8
Mesh_cs003
100
AcDbLine
 10
194.723
 20
-7.77777e-17
 30
0.0999999
 11
194.273
 21
-4.54545e-17
 31
0.0999999
  0
LINE
  5
A40
330
A02
100
AcDbEntity
  8
Mesh_cs003
100
AcDbLine
 10
194.273
 20
-4.54545e-17
 30
0.0999999
 11
193.955
 21
-4.54545e-17
 31
0.0999999
  0
LINE
  5
A41
330
A02
100
AcDbEntity
  8
Mesh_cs003
100
AcDbLine
 10
193.955
 20
-4.54545e-17
 30
0.0999999
 11
193.11
 21
-4.44445e-17
 31
0.0999999
  0
LINE
  5
A42
330
A02
100
AcDbEntity
  8
Mesh_cs003
100
AcDbLine
 10
193.11
 20
-4.44445e-17
 30
0.0999999
 11
0.276667
 21
3.65444e-14
 31
0.0999999
  0
LINE
  5
A43
330
A02
100
AcDbEntity
  8
Mesh_cs003
100
AcDbLine
 10
0.276667
 20
3.65444e-14
 30
0.0999999
 11
0.165555
 21
3.65667e-14
 31
0.0999999
  0
LINE
  5
A44
330
A02
100
AcDbEntity
  8
Mesh_cs003
100
AcDbLine
 10
0.165555
 20
3.65667e-14
 30
0.0999999
 11
0
 21
3.69917e-14
 31
0.0999999
  0
LINE
  5
A45
330
A02
100
AcDbEntity
  8
Mesh_cs003
100
AcDbLine
 10
0
 20
3.69917e-14
 30
0.0999999
 11
0
 21
0.165555
 31
0.0999999
  0
LINE
  5
A46
330
A02
100
AcDbEntity
  8
Mesh_cs003
100
AcDbLine
 10
0
 20
0.165555
 30
0.0999999
 11
-9.88889e-16
 21
24.7889
 31
0.0999999
  0
LINE
  5
A47
330
A02
100
AcDbEntity
  8
Mesh_cs003
100
AcDbLine
 10
-9.88889e-16
 20
24.7889
 30
0.0999999
 11
-1e-15
 21
24.9
 31
0.0999999
  0
LINE
  5
A48
330
A02
100
AcDbEntity
  8
Mesh_cs003
100
AcDbLine
 10
-1e-15
 20
24.9
 30
0.0999999
 11
0.306322
 21
25.5812
 31
0.0999999
  0
LINE
  5
A49
330
A02
100
AcDbEntity
  8
Mesh_cs003
100
AcDbLine
 10
0.306322
 20
25.5812
 30
0.0999999
 11
0.309764
 21
25.5889
 31
0.0999999
  0
LINE
  5
A4A
330
A02
100
AcDbEntity
  8
Mesh_cs003
100
AcDbLine
 10
0.309764
 20
25.5889
 30
0.0999999
 11
0.510532
 21
26.3105
 31
0.0999999
  0
LINE
  5
A4B
330
A02
100
AcDbEntity
  8
Mesh_cs003
100
AcDbLine
 10
0.510532
 20
26.3105
 30
0.0999999
 11
0.601991
 21
27.0603
 31
0.0999999
  0
LINE
  5
A4C
330
A02
100
AcDbEntity
  8
Mesh_cs003
100
AcDbLine
 10
0.601991
 20
27.0603
 30
0.0999999
 11
1.44154
 21
41.8216
 31
0.0999999
  0
LINE
  5
A4D
330
A02
100
AcDbEntity
  8
Mesh_cs003
100
AcDbLine
 10
1.44154
 20
41.8216
 30
0.0999999
 11
1.44859
 21
41.9456
 31
0.0999999
  0
LINE
  5
A4E
330
A02
100
AcDbEntity
  8
Mesh_cs003
100
AcDbLine
 10
1.44859
 20
41.9456
 30
0.0999999
 11
2.64877
 21
56.6757
 31
0.0999999
  0
LINE
  5
A4F
330
A02
100
AcDbEntity
  8
Mesh_cs003
100
AcDbLine
 10
2.64877
 20
56.6757
 30
0.0999999
 11
2.65885
 21
56.7995
 31
0.0999999
  0
LINE
  5
A50
330
A02
100
AcDbEntity
  8
Mesh_cs003
100
AcDbLine
 10
2.65885
 20
56.7995
 30
0.0999999
 11
4.2197
 21
71.4958
 31
0.0999999
  0
LINE
  5
A51
330
A02
100
AcDbEntity
  8
Mesh_cs003
100
AcDbLine
 10
4.2197
 20
71.4958
 30
0.0999999
 11
4.23281
 21
71.6193
 31
0.0999999
  0
LINE
  5
A52
330
A02
100
AcDbEntity
  8
Mesh_cs003
100
AcDbLine
 10
4.23281
 20
71.6193
 30
0.0999999
 11
4.24895
 21
71.7425
 31
0.0999999
  0
LINE
  5
A53
330
A02
100
AcDbEntity
  8
Mesh_cs003
100
AcDbLine
 10
4.24895
 20
71.7425
 30
0.0999999
 11
6.16952
 21
86.3961
 31
0.0999999
  0
LINE
  5
A54
330
A02
100
AcDbEntity
  8
Mesh_cs003
100
AcDbLine
 10
6.16952
 20
86.3961
 30
0.0999999
 11
6.18868
 21
86.5188
 31
0.0999999
  0
LINE
  5
A55
330
A02
100
AcDbEntity
  8
Mesh_cs003
100
AcDbLine
 10
6.18868
 20
86.5188
 30
0.0999999
 11
8.46782
 21
101.121
 31
0.0999999
  0
LINE
  5
A56
330
A02
100
AcDbEntity
  8
Mesh_cs003
100
AcDbLine
 10
8.46782
 20
101.121
 30
0.0999999
 11
11.1042
 21
115.663
 31
0.0999999
  0
LINE
  5
A57
330
A02
100
AcDbEntity
  8
Mesh_cs003
100
AcDbLine
 10
11.1042
 20
115.663
 30
0.0999999
 11
11.1263
 21
115.785
 31
0.0999999
  0
LINE
  5
A58
330
A02
100
AcDbEntity
  8
Mesh_cs003
100
AcDbLine
 10
11.1263
 20
115.785
 30
0.0999999
 11
14.1183
 21
130.258
 31
0.0999999
  0
LINE
  5
A59
330
A02
100
AcDbEntity
  8
Mesh_cs003
100
AcDbLine
 10
14.1183
 20
130.258
 30
0.0999999
 11
14.1434
 21
130.38
 31
0.0999999
  0
LINE
  5
A5A
330
A02
100
AcDbEntity
  8
Mesh_cs003
100
AcDbLine
 10
14.1434
 20
130.38
 30
0.0999999
 11
17.4892
 21
144.775
 31
0.0999999
  0
LINE
  5
A5B
330
A02
100
AcDbEntity
  8
Mesh_cs003
100
AcDbLine
 10
17.4892
 20
144.775
 30
0.0999999
 11
17.5173
 21
144.896
 31
0.0999999
  0
LINE
  5
A5C
330
A02
100
AcDbEntity
  8
Mesh_cs003
100
AcDbLine
 10
17.5173
 20
144.896
 30
0.0999999
 11
17.5484
 21
145.016
 31
0.0999999
  0
LINE
  5
A5D
330
A02
100
AcDbEntity
  8
Mesh_cs003
100
AcDbLine
 10
17.5484
 20
145.016
 30
0.0999999
 11
21.246
 21
159.325
 31
0.0999999
  0
LINE
  5
A5E
330
A02
100
AcDbEntity
  8
Mesh_cs003
100
AcDbLine
 10
21.246
 20
159.325
 30
0.0999999
 11
25.2932
 21
173.539
 31
0.0999999
  0
LINE
  5
A5F
330
A02
100
AcDbEntity
  8
Mesh_cs003
100
AcDbLine
 10
25.2932
 20
173.539
 30
0.0999999
 11
25.3272
 21
173.658
 31
0.0999999
  0
LINE
  5
A60
330
A02
100
AcDbEntity
  8
Mesh_cs003
100
AcDbLine
 10
25.3272
 20
173.658
 30
0.0999999
 11
29.7215
 21
187.769
 31
0.1
  0
LINE
  5
A61
330
A02
100
AcDbEntity
  8
Mesh_cs003
100
AcDbLine
 10
29.7215
 20
187.769
 30
0.1
 11
29.7585
 21
187.887
 31
0.0999999
  0
LINE
  5
A62
330
A02
100
AcDbEntity
  8
Mesh_cs003
100
AcDbLine
 10
29.7585
 20
187.887
 30
0.0999999
 11
34.4973
 21
201.886
 31
0.0999999
  0
LINE
  5
A63
330
A02
100
AcDbEntity
  8
Mesh_cs003
100
AcDbLine
 10
34.4973
 20
201.886
 30
0.0999999
 11
34.5371
 21
202.004
 31
0.0999999
  0
LINE
  5
A64
330
A02
100
AcDbEntity
  8
Mesh_cs003
100
AcDbLine
 10
34.5371
 20
202.004
 30
0.0999999
 11
39.6177
 21
215.882
 31
0.0999999
  0
LINE
  5
A65
330
A02
100
AcDbEntity
  8
Mesh_cs003
100
AcDbLine
 10
39.6177
 20
215.882
 30
0.0999999
 11
39.6604
 21
215.999
 31
0.0999999
  0
LINE
  5
A66
330
A02
100
AcDbEntity
  8
Mesh_cs003
100
AcDbLine
 10
39.6604
 20
215.999
 30
0.0999999
 11
45.0795
 21
229.748
 31
0.1
  0
LINE
  5
A67
330
A02
100
AcDbEntity
  8
Mesh_cs003
100
AcDbLine
 10
45.0795
 20
229.748
 30
0.1
 11
45.125
 21
229.864
 31
0.0999999
  0
LINE
  5
A68
330
A02
100
AcDbEntity
  8
Mesh_cs003
100
AcDbLine
 10
45.125
 20
229.864
 30
0.0999999
 11
50.8796
 21
243.476
 31
0.0999999
  0
LINE
  5
A69
330
A02
100
AcDbEntity
  8
Mesh_cs003
100
AcDbLine
 10
50.8796
 20
243.476
 30
0.0999999
 11
50.9279
 21
243.591
 31
0.0999999
  0
LINE
  5
A6A
330
A02
100
AcDbEntity
  8
Mesh_cs003
100
AcDbLine
 10
50.9279
 20
243.591
 30
0.0999999
 11
57.0143
 21
257.058
 31
0.0999999
  0
LINE
  5
A6B
330
A02
100
AcDbEntity
  8
Mesh_cs003
100
AcDbLine
 10
57.0143
 20
257.058
 30
0.0999999
 11
57.0655
 21
257.171
 31
0.0999999
  0
LINE
  5
A6C
330
A02
100
AcDbEntity
  8
Mesh_cs003
100
AcDbLine
 10
57.0655
 20
257.171
 30
0.0999999
 11
57.1194
 21
257.283
 31
0.0999999
  0
LINE
  5
A6D
330
A02
100
AcDbEntity
  8
Mesh_cs003
100
AcDbLine
 10
57.1194
 20
257.283
 30
0.0999999
 11
63.5341
 21
270.597
 31
0.0999999
  0
LINE
  5
A6E
330
A02
100
AcDbEntity
  8
Mesh_cs003
100
AcDbLine
 10
63.5341
 20
270.597
 30
0.0999999
 11
63.5907
 21
270.708
 31
0.0999999
  0
LINE
  5
A6F
330
A02
100
AcDbEntity
  8
Mesh_cs003
100
AcDbLine
 10
63.5907
 20
270.708
 30
0.0999999
 11
70.3298
 21
283.861
 31
0.0999999
  0
LINE
  5
A70
330
A02
100
AcDbEntity
  8
Mesh_cs003
100
AcDbLine
 10
70.3298
 20
283.861
 30
0.0999999
 11
77.3892
 21
296.845
 31
0.0999999
  0
LINE
  5
A71
330
A02
100
AcDbEntity
  8
Mesh_cs003
100
AcDbLine
 10
77.3892
 20
296.845
 30
0.0999999
 11
77.4485
 21
296.954
 31
0.0999999
  0
LINE
  5
A72
330
A02
100
AcDbEntity
  8
Mesh_cs003
100
AcDbLine
 10
77.4485
 20
296.954
 30
0.0999999
 11
84.824
 21
309.761
 31
0.0999999
  0
LINE
  5
A73
330
A02
100
AcDbEntity
  8
Mesh_cs003
100
AcDbLine
 10
84.824
 20
309.761
 30
0.0999999
 11
84.886
 21
309.869
 31
0.0999999
  0
LINE
  5
A74
330
A02
100
AcDbEntity
  8
Mesh_cs003
100
AcDbLine
 10
84.886
 20
309.869
 30
0.0999999
 11
92.5732
 21
322.491
 31
0.0999999
  0
LINE
  5
A75
330
A02
100
AcDbEntity
  8
Mesh_cs003
100
AcDbLine
 10
92.5732
 20
322.491
 30
0.0999999
 11
92.6378
 21
322.597
 31
0.0999999
  0
LINE
  5
A76
330
A02
100
AcDbEntity
  8
Mesh_cs003
100
AcDbLine
 10
92.6378
 20
322.597
 30
0.0999999
 11
92.7049
 21
322.701
 31
0.0999999
  0
LINE
  5
A77
330
A02
100
AcDbEntity
  8
Mesh_cs003
100
AcDbLine
 10
92.7049
 20
322.701
 30
0.0999999
 11
100.699
 21
335.132
 31
0.0999999
  0
LINE
  5
A78
330
A02
100
AcDbEntity
  8
Mesh_cs003
100
AcDbLine
 10
100.699
 20
335.132
 30
0.0999999
 11
100.711
 21
335.154
 31
0.0999999
  0
LINE
  5
A79
330
A02
100
AcDbEntity
  8
Mesh_cs003
100
AcDbLine
 10
100.711
 20
335.154
 30
0.0999999
 11
101.069
 21
335.798
 31
0.0999999
  0
LINE
  5
A7A
330
A02
100
AcDbEntity
  8
Mesh_cs003
100
AcDbLine
 10
101.069
 20
335.798
 30
0.0999999
 11
101.328
 21
336.493
 31
0.0999999
  0
LINE
  5
A7B
330
A02
100
AcDbEntity
  8
Mesh_cs003
100
AcDbLine
 10
101.328
 20
336.493
 30
0.0999999
 11
101.479
 21
337.214
 31
0.0999999
  0
LINE
  5
A7C
330
A02
100
AcDbEntity
  8
Mesh_cs003
100
AcDbLine
 10
101.479
 20
337.214
 30
0.0999999
 11
101.485
 21
337.239
 31
0.0999999
  0
LINE
  5
A7D
330
A02
100
AcDbEntity
  8
Mesh_cs003
100
AcDbLine
 10
101.485
 20
337.239
 30
0.0999999
 11
101.55
 21
337.329
 31
0.0999999
  0
LINE
  5
A7E
330
A02
100
AcDbEntity
  8
Mesh_cs003
100
AcDbLine
 10
101.55
 20
337.329
 30
0.0999999
 11
116.024
 21
357.249
 31
0.0999999
  0
LINE
  5
A7F
330
A02
100
AcDbEntity
  8
Mesh_cs003
100
AcDbLine
 10
116.024
 20
357.249
 30
0.0999999
 11
116.121
 21
357.383
 31
0.0999999
  0
LINE
  5
A80
330
A02
100
AcDbEntity
  8
Mesh_cs003
100
AcDbLine
 10
116.121
 20
357.383
 30
0.0999999
 11
116.255
 21
357.286
 31
0.0999999
  0
LINE
  5
A81
330
A02
100
AcDbEntity
  8
Mesh_cs003
100
AcDbLine
 10
116.255
 20
357.286
 30
0.0999999
 11
116.345
 21
357.221
 31
0.0999999
  0
LINE
  5
A82
330
A02
100
AcDbEntity
  8
Mesh_cs003
100
AcDbLine
 10
116.345
 20
357.221
 30
0.0999999
 11
272.35
 21
243.876
 31
0.0999999
  0
ENDSEC
  0
SECTION
  2
OBJECTS
  0
DICTIONARY
  5
F000
330
0
100
AcDbDictionary
  3
ACAD_GROUP
350
F001
  0
DICTIONARY
  5
F001
330
F000
100
AcDbDictionary
  0
ENDSEC
  0
EOF