<?xml version="1.0" encoding="UTF-8" standalone="no"?>
<!-- Created with Inkscape (http://www.inkscape.org/) -->

<svg
   width="390mm"
   height="215mm"
   viewBox="0 0 390 215"
   version="1.1"
   id="svg5"
   xml:space="preserve"
   inkscape:version="1.2.2 (732a01da63, 2022-12-09)"
   sodipodi:docname="AssebledLaserFile.svg"
   xmlns:inkscape="http://www.inkscape.org/namespaces/inkscape"
   xmlns:sodipodi="http://sodipodi.sourceforge.net/DTD/sodipodi-0.dtd"
   xmlns="http://www.w3.org/2000/svg"
   xmlns:svg="http://www.w3.org/2000/svg"><sodipodi:namedview
     id="namedview7"
     pagecolor="#ffffff"
     bordercolor="#666666"
     borderopacity="1.0"
     inkscape:showpageshadow="2"
     inkscape:pageopacity="0.0"
     inkscape:pagecheckerboard="0"
     inkscape:deskcolor="#d1d1d1"
     inkscape:document-units="mm"
     showgrid="false"
     inkscape:zoom="0.70710678"
     inkscape:cx="654.07377"
     inkscape:cy="638.51742"
     inkscape:window-width="1920"
     inkscape:window-height="1001"
     inkscape:window-x="-9"
     inkscape:window-y="-9"
     inkscape:window-maximized="1"
     inkscape:current-layer="layer1" /><defs
     id="defs2" /><g
     inkscape:label="Ebene 1"
     inkscape:groupmode="layer"
     id="layer1"><g
       id="Cut001_cs"
       transform="matrix(1,0,0,-1,150.90206,140.7493)"
       style="stroke:#ff0000;stroke-opacity:1;stroke-width:0.1;stroke-dasharray:none"><path
         id="Cut001_cs_w0000"
         d="m -17.6,-37 h 23 v 8.15 H 17 v 16.45 h 4.75 V -10 H 32.5 v -31.169972 h -3 v -10 h 3 v -10 h -3 V -70 H 25 v -3 H 15 v 3 H 5 v -3 H -5 v 3 h -10 v -3 h -10 v 3 h -4.5 v 8.830028 h -3 v 10 h 3 v 10 h -3 V -31.17 h 14.9 V -37"
         stroke="#191919"
         stroke-width="0.35 px"
         style="fill:none;fill-opacity:1;fill-rule:evenodd;stroke-width:0.1;stroke-linecap:square;stroke-miterlimit:4;stroke-dasharray:none;stroke:#ff0000;stroke-opacity:1" /><title
         id="title464">b'Cut001_cs'</title></g><g
       id="Cut004_cs"
       transform="translate(189.68857,221.48298)"
       style="stroke:#ff0000;stroke-opacity:1;stroke-width:0.1;stroke-dasharray:none"><path
         id="Cut004_cs_w0000"
         d="m 10,-14 v -5 h 3 v -5 h 57 v 10 H 10"
         stroke="#191919"
         stroke-width="0.35 px"
         style="fill:none;fill-opacity:1;fill-rule:evenodd;stroke-width:0.1;stroke-linecap:square;stroke-miterlimit:4;stroke-dasharray:none;stroke:#ff0000;stroke-opacity:1" /><title
         id="title477">b'Cut004_cs'</title></g><g
       id="Body005_cs"
       transform="matrix(1,0,0,-1,230.32708,141.0573)"
       style="stroke:#ff0000;stroke-opacity:1;stroke-width:0.1;stroke-dasharray:none"><path
         id="Body005_cs_w0000"
         d="m 29.5,-70 v 3 h -59 v -3 h 4.5 v -3 h 10 v 3 h 10 v -3 H 5 v 3 h 10 v -3 h 10 v 3 h 4.5"
         stroke="#191919"
         stroke-width="0.35 px"
         style="fill:none;fill-opacity:1;fill-rule:evenodd;stroke-width:0.1;stroke-linecap:square;stroke-miterlimit:4;stroke-dasharray:none;stroke:#ff0000;stroke-opacity:1" /><title
         id="title490">b'Body005_cs'</title></g><text
       xml:space="preserve"
       style="font-style:normal;font-weight:normal;font-size:3.52778px;line-height:1.25;font-family:sans-serif;fill:#d9d9d9;fill-opacity:1;stroke:none;stroke-width:0.264583"
       x="206.0816"
       y="211.56639"
       id="text3798-6-4"><tspan
         sodipodi:role="line"
         id="tspan3796-5-3"
         style="font-size:3.52778px;fill:#d9d9d9;fill-opacity:1;stroke-width:0.264583"
         x="206.0816"
         y="211.56639">Rear          Con          Stud</tspan></text><g
       id="Body001_cs"
       transform="matrix(0,1,1,0,208.37259,140.36387)"
       style="stroke:#ff0000;stroke-opacity:1;stroke-width:0.1;stroke-dasharray:none"><path
         id="Body001_cs_w0000"
         d="m 70,-19 h 3 v 5 H 45 v 72 h 25 v 12.15 h 3 v 10 h -3 v 10 h 3 v 10 h -3 v 10 h 3 v 10 h -3 v 12.15 h -8.830028 v -3 h -10 v 3 h -10 v -3 h -10 m 0,0 -0.0244,-0.0971 -0.02465,-0.097 -0.02489,-0.0969 -0.02514,-0.0969 -0.02538,-0.0968 -0.02563,-0.0967 -0.02587,-0.0967 -0.02612,-0.0966 -0.02636,-0.0965 -0.02661,-0.0965 -0.02685,-0.0964 -0.0271,-0.0963 -0.02734,-0.0963 -0.02758,-0.0962 -0.02783,-0.0961 -0.02807,-0.0961 -0.02831,-0.096 -0.02856,-0.0959 -0.0288,-0.0958 -0.02904,-0.0958 -0.02929,-0.0957 -0.02953,-0.0956 -0.02977,-0.0956 -0.03001,-0.0955 -0.03026,-0.0954 -0.0305,-0.0953 -0.03074,-0.0952 -0.03098,-0.0952 -0.03122,-0.0951 -0.03146,-0.095 -0.0317,-0.0949 -0.03194,-0.0948 -0.03218,-0.0948 -0.03242,-0.0947 -0.03266,-0.0946 -0.0329,-0.0945 -0.03314,-0.0944 -0.03338,-0.0943 -0.03362,-0.0943 -0.03386,-0.0942 -0.0341,-0.0941 -0.03433,-0.094 -0.03457,-0.0939 -0.03481,-0.0938 -0.03505,-0.0937 -0.03528,-0.0936 -0.03552,-0.0936 -0.03576,-0.0935 -0.036,-0.0934 -0.03623,-0.0933 -0.03647,-0.0932 -0.03671,-0.0931 -0.03694,-0.093 -0.03718,-0.0929 -0.03741,-0.0928 -0.03765,-0.0927 -0.03788,-0.0926 -0.03811,-0.0925 -0.03835,-0.0924 -0.03858,-0.0923 -0.03882,-0.0922 -0.03905,-0.0922 -0.03928,-0.092 -0.03952,-0.092 -0.03975,-0.0918 -0.03998,-0.0917 -0.04021,-0.0916 -0.04045,-0.0915 -0.04068,-0.0914 -0.04091,-0.0913 -0.04114,-0.0912 -0.04137,-0.0911 -0.0416,-0.091 -0.04183,-0.0909 -0.04206,-0.0908 -0.04229,-0.0907 -0.04252,-0.0906 -0.04275,-0.0905 -0.04298,-0.0904 -0.04321,-0.0903 -0.04344,-0.0902 -0.04367,-0.0901 -0.0439,-0.0899 -0.04412,-0.0898 -0.04435,-0.0897 -0.04458,-0.0896 -0.04481,-0.0895 -0.04503,-0.0894 -0.04526,-0.0893 -0.04548,-0.0892 -0.04571,-0.089 -0.04594,-0.0889 -0.04616,-0.0888 -0.04639,-0.0887 -0.04661,-0.0886 -0.04683,-0.0884 -0.04706,-0.0883 -0.04728,-0.0882 -0.04751,-0.0881 -0.04773,-0.088 -0.04795,-0.0878 -0.04817,-0.0877 -0.04839,-0.0876 -0.04862,-0.0875 -0.04884,-0.0874 -0.04906,-0.0872 -0.04928,-0.0871 -0.0495,-0.087 -0.04972,-0.0868 -0.04994,-0.0867 -0.05016,-0.0866 -0.05038,-0.0865 -0.0506,-0.0863 -0.05082,-0.0862 -0.05104,-0.0861 -0.05125,-0.086 -0.05147,-0.0858 -0.05169,-0.0857 -0.0519,-0.0856 -0.05212,-0.0854 -0.05234,-0.0853 -0.05255,-0.0852 -0.05277,-0.085 -0.05298,-0.0849 -0.0532,-0.0848 -0.05341,-0.0846 -0.05363,-0.0845 -0.05384,-0.0844 -0.05406,-0.0842 -0.05427,-0.0841 -0.05448,-0.084 -0.05469,-0.0838 -0.05491,-0.0837 -0.05512,-0.0835 -0.05533,-0.0834 -0.05554,-0.0832 -0.05575,-0.0831 -0.05596,-0.083 -0.05617,-0.0828 -0.05638,-0.0827 -0.05659,-0.0825 -0.0568,-0.0824 -0.05701,-0.0823 -0.05722,-0.0821 -0.05742,-0.082 -0.05763,-0.0818 -0.05784,-0.0817 -0.05805,-0.0815 -0.05825,-0.0814 -0.05846,-0.0812 -0.05866,-0.0811 -0.05887,-0.0809 -0.05907,-0.0808 -0.05928,-0.0806 -0.05948,-0.0805 -0.05969,-0.0803 -0.05989,-0.0802 -0.06009,-0.08 -0.0603,-0.0799 -0.0605,-0.0797 -0.0607,-0.0796 -0.0609,-0.0794 -0.0611,-0.0793 -0.0613,-0.0791 -0.0615,-0.0789 -0.0617,-0.0788 -0.0619,-0.0786 -0.0621,-0.0785 -0.0623,-0.0783 -0.0625,-0.0782 -0.0627,-0.078 -0.06289,-0.0778 -0.06309,-0.0777 -0.06329,-0.0775 -0.06348,-0.0774 -0.06368,-0.0772 -0.06387,-0.077 -0.06407,-0.0769 -0.06426,-0.0767 -0.06446,-0.0766 -0.06465,-0.0764 -0.06485,-0.0762 -0.06504,-0.0761 -0.06523,-0.0759 -0.06542,-0.0757 -0.06562,-0.0756 -0.06581,-0.0754 -0.066,-0.0752 -0.06619,-0.0751 -0.06638,-0.0749 -0.06657,-0.0747 -0.06676,-0.0746 -0.06694,-0.0744 -0.06713,-0.0742 -0.06732,-0.074 -0.06751,-0.0739 -0.0677,-0.0737 -0.06788,-0.0735 -0.06807,-0.0734 -0.06825,-0.0732 -0.06844,-0.073 -0.06862,-0.0729 -0.06881,-0.0727 -0.06899,-0.0725 -0.06917,-0.0723 -0.06936,-0.0721 -0.06954,-0.072 -0.06972,-0.0718 -0.0699,-0.0716 -0.07009,-0.0714 -0.07027,-0.0713 -0.07045,-0.0711 -0.07063,-0.0709 -0.07081,-0.0707 -0.07098,-0.0705 -0.07116,-0.0704 -0.07134,-0.0702 -0.07152,-0.07 -0.0717,-0.0698 -0.07187,-0.0696 -0.07205,-0.0695 -0.07222,-0.0693 -0.0724,-0.0691 -0.07257,-0.0689 -0.07275,-0.0687 -0.07292,-0.0685 -0.0731,-0.0684 -0.07327,-0.0682 -0.07344,-0.068 -0.07361,-0.0678 -0.07378,-0.0676 -0.07396,-0.0674 -0.07413,-0.0672 -0.0743,-0.067 -0.07447,-0.0669 -0.07464,-0.0667 -0.0748,-0.0665 -0.07497,-0.0663 -0.07514,-0.0661 -0.07531,-0.0659 -0.07547,-0.0657 -0.07564,-0.0655 -0.07581,-0.0653 -0.07597,-0.0652 -0.07614,-0.0649 -0.0763,-0.0648 -0.07647,-0.0646 -0.07663,-0.0644 -0.07679,-0.0642 -0.07695,-0.064 -0.07711,-0.0638 -0.07728,-0.0636 -0.07744,-0.0634 -0.0776,-0.0632 -0.07776,-0.063 -0.07792,-0.0628 -0.07807,-0.0626 -0.07823,-0.0624 -0.07839,-0.0622 -0.07855,-0.062 -0.07871,-0.0618 -0.07886,-0.0616 -0.07902,-0.0614 -0.07917,-0.0612 -0.07933,-0.061 -0.07948,-0.0608 -0.07964,-0.0606 -0.07979,-0.0604 -0.07994,-0.0602 -0.0801,-0.06 -0.08025,-0.0598 -0.0804,-0.0596 -0.08055,-0.0594 -0.0807,-0.0592 -0.08085,-0.059 -0.081,-0.0588 -0.08115,-0.0586 -0.08129,-0.0584 -0.08144,-0.0582 -0.08159,-0.058 -0.08174,-0.0577 -0.08188,-0.0575 -0.08203,-0.0573 -0.08217,-0.0571 -0.08232,-0.0569 -0.08246,-0.0567 -0.0826,-0.0565 -0.08275,-0.0563 -0.08289,-0.0561 -0.08303,-0.0559 -0.08317,-0.0557 -0.08331,-0.0555 -0.08345,-0.0552 -0.08359,-0.055 -0.08373,-0.0548 -0.08387,-0.0546 -0.08401,-0.0544 -0.08415,-0.0542 -0.08428,-0.054 -0.08442,-0.0537 -0.08456,-0.0535 -0.08469,-0.0533 -0.08483,-0.0531 -0.08496,-0.0529 -0.0851,-0.0527 -0.08523,-0.0525 -0.08536,-0.0522 -0.08549,-0.052 -0.08562,-0.0518 -0.08575,-0.0516 -0.08588,-0.0514 -0.08601,-0.0511 -0.08614,-0.0509 -0.08627,-0.0507 -0.0864,-0.0505 -0.08653,-0.0503 -0.08666,-0.0501 -0.08678,-0.0498 -0.08691,-0.0496 -0.08703,-0.0494 -0.08716,-0.0492 -0.08728,-0.049 -0.08741,-0.0487 -0.08753,-0.0485 -0.08765,-0.0483 -0.08778,-0.0481 -0.0879,-0.0478 -0.08802,-0.0476 -0.08814,-0.0474 -0.08826,-0.0472 -0.08838,-0.0469 -0.08849,-0.0467 -0.08861,-0.0465 -0.08873,-0.0463 -0.08885,-0.0461 -0.08896,-0.0458 -0.08908,-0.0456 -0.0892,-0.0454 -0.08931,-0.0452 -0.08942,-0.0449 -0.08954,-0.0447 -0.08965,-0.0445 -0.08976,-0.0442 -0.08987,-0.044 -0.08999,-0.0438 L 10,103.3 v -8 h 3 v -7 h -3 v -7 h 3 v -7 h -3 v -7 h 3 v -7 h -3 v -8 h 19 v -30 H 10 v -7.65 h 3 v -7 h -3 v -7 h 3 v -7 h -3 v -7 h 3 V -21 h 3 v -3 h 6 v 3 h 6 v -3 h 6 v 82 h 3 v -79 l 1.5,-3 H 70 v 5"
         stroke="#191919"
         stroke-width="0.35 px"
         style="fill:none;fill-opacity:1;fill-rule:evenodd;stroke-width:0.1;stroke-linecap:square;stroke-miterlimit:4;stroke-dasharray:none;stroke:#ff0000;stroke-opacity:1" /><title
         id="title503">b'Body001_cs'</title></g><path
       id="Cut002_cs_w0000"
       d="m 64.773932,57.628171 h 3 v -5 h -7.5 v 3 h -10 v -3 h -10 v 3 h -10 v -3 h -10 v 3 h -10 v -3 h -7.5 v 5 h 3 v 5 h -3 v 84.149999 h 3 v 10 h -3 v 10 h 3 v 10 h -3 v 10 h 3 v 10 h -3 v 12.15 h 7.5 v -3 h 10 v 3 h 10 v -3 h 10 v 3 h 10 v -3 h 10 v 3 h 7.5 v -12.15 h -3 v -10 h 3 v -10 h -3 v -10 h 3 v -10 h -3 v -10 h 3 V 62.628171 h -3 v -5"
       stroke="#191919"
       stroke-width="0.35 px"
       style="fill:none;fill-opacity:1;fill-rule:evenodd;stroke:#ff0000;stroke-width:0.1;stroke-linecap:square;stroke-miterlimit:4;stroke-dasharray:none;stroke-opacity:1" /><path
       id="Cut002_cs_w0001"
       d="m 55.773932,96.278171 m 0,0 0.002,-0.100024 0.006,-0.09986 0.01,-0.09954 0.01397,-0.09906 0.01792,-0.09843 0.02184,-0.09763 0.02573,-0.09668 0.02958,-0.09557 0.03338,-0.09431 0.03713,-0.0929 0.04081,-0.09134 0.04443,-0.08964 0.04799,-0.08779 0.05146,-0.08579 0.05485,-0.08367 0.05815,-0.08141 0.06137,-0.07901 0.06448,-0.0765 0.06749,-0.07385 0.07039,-0.07109 0.07317,-0.06822 0.07585,-0.06524 0.0784,-0.06215 0.08082,-0.05897 0.08311,-0.05569 0.08528,-0.05232 0.0873,-0.04886 0.08918,-0.04533 0.09093,-0.04173 0.09252,-0.03805 0.09397,-0.03432 0.09527,-0.03054 0.09642,-0.0267 0.09741,-0.02282 0.09824,-0.0189 0.09892,-0.01496 0.09944,-0.01099 0.0998,-0.007 0.1,-0.003 0.100039,10e-4 0.09992,0.005 0.09964,0.009 0.0992,0.01298 0.0986,0.01693 0.09784,0.02087 0.09693,0.02476 0.09586,0.02862 0.09464,0.03243 0.09327,0.03619 0.09174,0.0399 0.09007,0.04354 0.08826,0.04711 0.08631,0.0506 0.08421,0.05401 0.08198,0.05734 0.07962,0.06057 0.07714,0.06371 0.07453,0.06674 0.0718,0.06967 0.06895,0.07249 0.066,0.07519 0.06293,0.07777 0.05977,0.08022 0.05651,0.08255 0.05317,0.08475 0.04973,0.08681 0.04622,0.08873 0.04263,0.09051 0.03898,0.09214 0.03526,0.09362 0.03149,0.09496 0.02766,0.09614 0.02379,0.09717 0.01989,0.09805 0.01595,0.09876 0.01198,0.09932 0.008,0.09972 0.004,0.09996 v 0.100044 l -0.004,0.09996 -0.008,0.09972 -0.01198,0.09932 -0.01595,0.09876 -0.01989,0.09805 -0.02379,0.09717 -0.02766,0.09614 -0.03149,0.09496 -0.03526,0.09362 -0.03898,0.09214 -0.04263,0.09051 -0.04622,0.08873 -0.04973,0.08681 -0.05317,0.08475 -0.05651,0.08255 -0.05977,0.08022 -0.06293,0.07777 -0.066,0.07519 -0.06895,0.07249 -0.0718,0.06967 -0.07453,0.06674 -0.07714,0.06371 -0.07962,0.06057 -0.08198,0.05734 -0.08421,0.05401 -0.08631,0.0506 -0.08826,0.04711 -0.09007,0.04354 -0.09174,0.0399 -0.09327,0.0362 -0.09464,0.03243 -0.09586,0.02862 -0.09693,0.02476 -0.09784,0.02087 -0.0986,0.01693 -0.0992,0.01298 -0.09964,0.009 -0.09992,0.005 -0.100039,0.001 -0.1,-0.003 -0.0998,-0.007 -0.09944,-0.01099 -0.09892,-0.01496 -0.09824,-0.0189 -0.09741,-0.02282 -0.09642,-0.0267 -0.09527,-0.03053 -0.09397,-0.03432 -0.09252,-0.03805 -0.09093,-0.04173 -0.08918,-0.04533 -0.0873,-0.04886 -0.08528,-0.05232 -0.08311,-0.05569 -0.08082,-0.05897 -0.0784,-0.06215 -0.07585,-0.06524 -0.07317,-0.06822 -0.07039,-0.07109 -0.06749,-0.07385 -0.06448,-0.07649 -0.06137,-0.07901 -0.05815,-0.08141 -0.05485,-0.08367 -0.05146,-0.08579 -0.04799,-0.08778 -0.04443,-0.08964 -0.04081,-0.09134 -0.03713,-0.0929 -0.03338,-0.09431 -0.02958,-0.09557 -0.02573,-0.09668 -0.02184,-0.09763 -0.01792,-0.09843 -0.01397,-0.09906 -0.01,-0.09954 -0.006,-0.09986 -0.002,-0.1"
       stroke="#191919"
       stroke-width="0.35 px"
       style="fill:#000000;fill-opacity:1;fill-rule:evenodd;stroke:none;stroke-width:0.1;stroke-linecap:square;stroke-miterlimit:4;stroke-dasharray:none;stroke-opacity:1" /><path
       id="Cut002_cs_w0002"
       d="m 55.173932,116.62817 m 0,0 0.002,-0.10002 0.006,-0.0999 0.01,-0.0995 0.01397,-0.0991 0.01792,-0.0984 0.02184,-0.0976 0.02573,-0.0967 0.02958,-0.0956 0.03338,-0.0943 0.03713,-0.0929 0.04081,-0.0913 0.04443,-0.0896 0.04799,-0.0878 0.05146,-0.0858 0.05485,-0.0837 0.05815,-0.0814 0.06137,-0.079 0.06448,-0.0765 0.06749,-0.0738 0.07039,-0.0711 0.07317,-0.0682 0.07585,-0.0652 0.0784,-0.0622 0.08082,-0.059 0.08311,-0.0557 0.08528,-0.0523 0.0873,-0.0489 0.08919,-0.0453 0.09093,-0.0417 0.09252,-0.038 0.09397,-0.0343 0.09527,-0.0305 0.09642,-0.0267 0.09741,-0.0228 0.09824,-0.0189 0.09892,-0.015 0.09944,-0.011 0.0998,-0.007 0.1,-0.003 0.100039,0.001 0.09992,0.005 0.09964,0.009 0.0992,0.013 0.0986,0.0169 0.09784,0.0209 0.09693,0.0248 0.09586,0.0286 0.09464,0.0324 0.09327,0.0362 0.09174,0.0399 0.09007,0.0435 0.08826,0.0471 0.08631,0.0506 0.08421,0.054 0.08198,0.0573 0.07962,0.0606 0.07714,0.0637 0.07453,0.0667 0.07179,0.0697 0.06895,0.0725 0.066,0.0752 0.06293,0.0778 0.05977,0.0802 0.05651,0.0825 0.05317,0.0848 0.04973,0.0868 0.04622,0.0887 0.04263,0.0905 0.03898,0.0921 0.03526,0.0936 0.03149,0.095 0.02766,0.0961 0.02379,0.0972 0.01988,0.0981 0.01595,0.0988 0.01198,0.0993 0.008,0.0997 0.004,0.1 v 0.10004 l -0.004,0.1 -0.008,0.0997 -0.01198,0.0993 -0.01595,0.0988 -0.01988,0.0981 -0.02379,0.0972 -0.02766,0.0961 -0.03149,0.095 -0.03526,0.0936 -0.03898,0.0921 -0.04263,0.0905 -0.04622,0.0887 -0.04973,0.0868 -0.05317,0.0847 -0.05651,0.0826 -0.05977,0.0802 -0.06293,0.0778 -0.066,0.0752 -0.06895,0.0725 -0.07179,0.0697 -0.07453,0.0667 -0.07714,0.0637 -0.07962,0.0606 -0.08198,0.0573 -0.08421,0.054 -0.08631,0.0506 -0.08826,0.0471 -0.09007,0.0435 -0.09174,0.0399 -0.09327,0.0362 -0.09464,0.0324 -0.09586,0.0286 -0.09693,0.0248 -0.09784,0.0209 -0.0986,0.0169 -0.0992,0.013 -0.09964,0.009 -0.09992,0.005 -0.100039,0.001 -0.1,-0.003 -0.0998,-0.007 -0.09944,-0.011 -0.09892,-0.015 -0.09824,-0.0189 -0.09741,-0.0228 -0.09642,-0.0267 -0.09527,-0.0305 -0.09397,-0.0343 -0.09252,-0.038 -0.09093,-0.0417 -0.08919,-0.0453 -0.0873,-0.0489 -0.08528,-0.0523 -0.08311,-0.0557 -0.08082,-0.059 -0.0784,-0.0622 -0.07585,-0.0652 -0.07317,-0.0682 -0.07039,-0.0711 -0.06749,-0.0738 -0.06448,-0.0765 -0.06137,-0.079 -0.05815,-0.0814 -0.05485,-0.0837 -0.05146,-0.0858 -0.04799,-0.0878 -0.04443,-0.0896 -0.04081,-0.0913 -0.03713,-0.0929 -0.03338,-0.0943 -0.02958,-0.0956 -0.02573,-0.0967 -0.02184,-0.0976 -0.01792,-0.0984 -0.01397,-0.0991 -0.01,-0.0995 -0.006,-0.0999 -0.002,-0.1"
       stroke="#191919"
       stroke-width="0.35 px"
       style="fill:#000000;fill-opacity:1;fill-rule:evenodd;stroke:none;stroke-width:0.1;stroke-linecap:square;stroke-miterlimit:4;stroke-dasharray:none;stroke-opacity:1" /><path
       id="Cut002_cs_w0005"
       d="m 7.023932,96.278171 m 0,0 0.002,-0.100024 0.006,-0.09986 0.01,-0.09954 0.01397,-0.09906 0.01792,-0.09843 0.02184,-0.09763 0.02573,-0.09668 0.02958,-0.09557 0.03338,-0.09431 0.03713,-0.0929 0.04081,-0.09134 0.04443,-0.08964 0.04799,-0.08779 0.05146,-0.08579 0.05485,-0.08367 0.05815,-0.08141 0.06137,-0.07901 0.06448,-0.0765 0.06749,-0.07385 0.07039,-0.07109 0.07317,-0.06822 0.07585,-0.06524 0.0784,-0.06215 0.08082,-0.05897 0.08311,-0.05569 0.08528,-0.05232 0.0873,-0.04886 0.08918,-0.04533 0.09093,-0.04173 0.09252,-0.03805 0.09397,-0.03432 0.09527,-0.03054 0.09642,-0.0267 0.09741,-0.02282 0.09824,-0.0189 0.09892,-0.01496 0.09944,-0.01099 0.0998,-0.007 0.1,-0.003 0.100039,10e-4 0.09992,0.005 0.09964,0.009 0.0992,0.01298 0.0986,0.01693 0.09784,0.02087 0.09693,0.02476 0.09586,0.02862 0.09464,0.03243 0.09327,0.03619 0.09174,0.0399 0.09007,0.04354 0.08826,0.04711 0.08631,0.0506 0.08421,0.05401 0.08198,0.05734 0.07962,0.06057 0.07714,0.06371 0.07453,0.06674 0.0718,0.06967 0.06895,0.07249 0.066,0.07519 0.06293,0.07777 0.05977,0.08022 0.05651,0.08255 0.05317,0.08475 0.04973,0.08681 0.04622,0.08873 0.04263,0.09051 0.03898,0.09214 0.03526,0.09362 0.03149,0.09496 0.02766,0.09614 0.02379,0.09717 0.01989,0.09805 0.01595,0.09876 0.01198,0.09932 0.008,0.09972 0.004,0.09996 v 0.100044 l -0.004,0.09996 -0.008,0.09972 -0.01198,0.09932 -0.01595,0.09876 -0.01989,0.09805 -0.02379,0.09717 -0.02766,0.09614 -0.03149,0.09496 -0.03526,0.09362 -0.03898,0.09214 -0.04263,0.09051 -0.04622,0.08873 -0.04973,0.08681 -0.05317,0.08475 -0.05651,0.08255 -0.05977,0.08022 -0.06293,0.07777 -0.066,0.07519 -0.06895,0.07249 -0.0718,0.06967 -0.07453,0.06674 -0.07714,0.06371 -0.07962,0.06057 -0.08198,0.05734 -0.08421,0.05401 -0.08631,0.0506 -0.08826,0.04711 -0.09007,0.04354 -0.09174,0.0399 -0.09327,0.0362 -0.09464,0.03243 -0.09586,0.02862 -0.09693,0.02476 -0.09784,0.02087 -0.0986,0.01693 -0.0992,0.01298 -0.09964,0.009 -0.09992,0.005 -0.100039,0.001 -0.1,-0.003 -0.0998,-0.007 -0.09944,-0.01099 -0.09892,-0.01496 -0.09824,-0.0189 -0.09741,-0.02282 -0.09642,-0.0267 -0.09527,-0.03053 -0.09397,-0.03432 -0.09252,-0.03805 -0.09093,-0.04173 -0.08918,-0.04533 -0.0873,-0.04886 -0.08528,-0.05232 -0.08311,-0.05569 -0.08082,-0.05897 -0.0784,-0.06215 -0.07585,-0.06524 -0.07317,-0.06822 -0.07039,-0.07109 -0.06749,-0.07385 -0.06448,-0.07649 -0.06137,-0.07901 -0.05815,-0.08141 -0.05485,-0.08367 -0.05146,-0.08579 -0.04799,-0.08778 -0.04443,-0.08964 -0.04081,-0.09134 -0.03713,-0.0929 -0.03338,-0.09431 -0.02958,-0.09557 -0.02573,-0.09668 -0.02184,-0.09763 -0.01792,-0.09843 -0.01397,-0.09906 -0.01,-0.09954 -0.006,-0.09986 -0.002,-0.1"
       stroke="#191919"
       stroke-width="0.35 px"
       style="fill:#000000;fill-opacity:1;fill-rule:evenodd;stroke:none;stroke-width:0.1;stroke-linecap:square;stroke-miterlimit:4;stroke-dasharray:none;stroke-opacity:1" /><path
       id="Cut002_cs_w0006"
       d="m 7.473932,117.62817 m 0,0 0.002,-0.10002 0.006,-0.0999 0.01,-0.0995 0.01397,-0.0991 0.01792,-0.0984 0.02184,-0.0976 0.02573,-0.0967 0.02958,-0.0956 0.03338,-0.0943 0.03713,-0.0929 0.04081,-0.0913 0.04443,-0.0896 0.04799,-0.0878 0.05146,-0.0858 0.05485,-0.0837 0.05815,-0.0814 0.06137,-0.079 0.06448,-0.0765 0.06749,-0.0738 0.07039,-0.0711 0.07318,-0.0682 0.07585,-0.0652 0.0784,-0.0622 0.08082,-0.059 0.08311,-0.0557 0.08528,-0.0523 0.0873,-0.0489 0.08919,-0.0453 0.09093,-0.0417 0.09252,-0.038 0.09397,-0.0343 0.09527,-0.0305 0.09642,-0.0267 0.09741,-0.0228 0.09824,-0.0189 0.09892,-0.015 0.09944,-0.011 0.0998,-0.007 0.1,-0.003 0.100039,0.001 0.09992,0.005 0.09964,0.009 0.0992,0.013 0.0986,0.0169 0.09784,0.0209 0.09693,0.0248 0.09586,0.0286 0.09464,0.0324 0.09327,0.0362 0.09174,0.0399 0.09007,0.0435 0.08826,0.0471 0.08631,0.0506 0.08421,0.054 0.08198,0.0573 0.07962,0.0606 0.07714,0.0637 0.07453,0.0667 0.07179,0.0697 0.06895,0.0725 0.06599,0.0752 0.06293,0.0778 0.05977,0.0802 0.05651,0.0825 0.05317,0.0848 0.04973,0.0868 0.04622,0.0887 0.04263,0.0905 0.03898,0.0921 0.03526,0.0936 0.03149,0.095 0.02766,0.0961 0.02379,0.0972 0.01988,0.0981 0.01595,0.0988 0.01198,0.0993 0.008,0.0997 0.004,0.1 v 0.10004 l -0.004,0.1 -0.008,0.0997 -0.01198,0.0993 -0.01595,0.0988 -0.01988,0.0981 -0.02379,0.0972 -0.02766,0.0961 -0.03149,0.095 -0.03526,0.0936 -0.03898,0.0921 -0.04263,0.0905 -0.04622,0.0887 -0.04973,0.0868 -0.05317,0.0847 -0.05651,0.0826 -0.05977,0.0802 -0.06293,0.0778 -0.06599,0.0752 -0.06895,0.0725 -0.07179,0.0697 -0.07453,0.0667 -0.07714,0.0637 -0.07962,0.0606 -0.08198,0.0573 -0.08421,0.054 -0.08631,0.0506 -0.08826,0.0471 -0.09007,0.0435 -0.09174,0.0399 -0.09327,0.0362 -0.09464,0.0324 -0.09586,0.0286 -0.09693,0.0248 -0.09784,0.0209 -0.0986,0.0169 -0.0992,0.013 -0.09964,0.009 -0.09992,0.005 -0.100039,0.001 -0.1,-0.003 -0.0998,-0.007 -0.09944,-0.011 -0.09892,-0.015 -0.09824,-0.0189 -0.09741,-0.0228 -0.09642,-0.0267 -0.09527,-0.0305 -0.09397,-0.0343 -0.09252,-0.038 -0.09093,-0.0417 -0.08919,-0.0453 -0.0873,-0.0489 -0.08528,-0.0523 -0.08311,-0.0557 -0.08082,-0.059 -0.0784,-0.0622 -0.07585,-0.0652 -0.07318,-0.0682 -0.07039,-0.0711 -0.06749,-0.0738 -0.06448,-0.0765 -0.06137,-0.079 -0.05815,-0.0814 -0.05485,-0.0837 -0.05146,-0.0858 -0.04799,-0.0878 -0.04443,-0.0896 -0.04081,-0.0913 -0.03713,-0.0929 -0.03338,-0.0943 -0.02958,-0.0956 -0.02573,-0.0967 -0.02184,-0.0976 -0.01792,-0.0984 -0.01397,-0.0991 -0.01,-0.0995 -0.006,-0.0999 -0.002,-0.1"
       stroke="#191919"
       stroke-width="0.35 px"
       style="fill:#000000;fill-opacity:1;fill-rule:evenodd;stroke:none;stroke-width:0.1;stroke-linecap:square;stroke-miterlimit:4;stroke-dasharray:none;stroke-opacity:1" /><path
       id="Cut002_cs_w0008"
       d="m 50.223932,168.52817 m 0,0 0.002,-0.10002 0.006,-0.0999 0.01,-0.0995 0.01397,-0.0991 0.01792,-0.0984 0.02184,-0.0976 0.02573,-0.0967 0.02958,-0.0956 0.03338,-0.0943 0.03713,-0.0929 0.04081,-0.0913 0.04443,-0.0896 0.04799,-0.0878 0.05146,-0.0858 0.05485,-0.0837 0.05815,-0.0814 0.06137,-0.079 0.06448,-0.0765 0.06749,-0.0738 0.07039,-0.0711 0.07317,-0.0682 0.07585,-0.0652 0.0784,-0.0622 0.08082,-0.059 0.08311,-0.0557 0.08528,-0.0523 0.0873,-0.0489 0.08919,-0.0453 0.09093,-0.0417 0.09252,-0.038 0.09397,-0.0343 0.09527,-0.0305 0.09642,-0.0267 0.09741,-0.0228 0.09824,-0.0189 0.09892,-0.015 0.09944,-0.011 0.0998,-0.007 0.1,-0.003 0.100039,0.001 0.09992,0.005 0.09964,0.009 0.0992,0.013 0.0986,0.0169 0.09784,0.0209 0.09693,0.0248 0.09586,0.0286 0.09464,0.0324 0.09327,0.0362 0.09174,0.0399 0.09007,0.0435 0.08826,0.0471 0.08631,0.0506 0.08421,0.054 0.08198,0.0573 0.07962,0.0606 0.07714,0.0637 0.07453,0.0667 0.07179,0.0697 0.06895,0.0725 0.06599,0.0752 0.06293,0.0778 0.05977,0.0802 0.05651,0.0825 0.05317,0.0847 0.04973,0.0868 0.04622,0.0887 0.04263,0.0905 0.03898,0.0921 0.03526,0.0936 0.03149,0.095 0.02766,0.0961 0.02379,0.0972 0.01988,0.0981 0.01595,0.0988 0.01198,0.0993 0.008,0.0997 0.004,0.1 v 0.10004 l -0.004,0.1 -0.008,0.0997 -0.01198,0.0993 -0.01595,0.0988 -0.01988,0.0981 -0.02379,0.0972 -0.02766,0.0961 -0.03149,0.095 -0.03526,0.0936 -0.03898,0.0921 -0.04263,0.0905 -0.04622,0.0887 -0.04973,0.0868 -0.05317,0.0848 -0.05651,0.0825 -0.05977,0.0802 -0.06293,0.0778 -0.06599,0.0752 -0.06895,0.0725 -0.07179,0.0697 -0.07453,0.0667 -0.07714,0.0637 -0.07962,0.0606 -0.08198,0.0573 -0.08421,0.054 -0.08631,0.0506 -0.08826,0.0471 -0.09007,0.0435 -0.09174,0.0399 -0.09327,0.0362 -0.09464,0.0324 -0.09586,0.0286 -0.09693,0.0248 -0.09784,0.0209 -0.0986,0.0169 -0.0992,0.013 -0.09964,0.009 -0.09992,0.005 -0.100039,0.001 -0.1,-0.003 -0.0998,-0.007 -0.09944,-0.011 -0.09892,-0.015 -0.09824,-0.0189 -0.09741,-0.0228 -0.09642,-0.0267 -0.09527,-0.0305 -0.09397,-0.0343 -0.09252,-0.038 -0.09093,-0.0417 -0.08919,-0.0453 -0.0873,-0.0489 -0.08528,-0.0523 -0.08311,-0.0557 -0.08082,-0.059 -0.0784,-0.0621 -0.07585,-0.0652 -0.07317,-0.0682 -0.07039,-0.0711 -0.06749,-0.0738 -0.06448,-0.0765 -0.06137,-0.079 -0.05815,-0.0814 -0.05485,-0.0837 -0.05146,-0.0858 -0.04799,-0.0878 -0.04443,-0.0896 -0.04081,-0.0913 -0.03713,-0.0929 -0.03338,-0.0943 -0.02958,-0.0956 -0.02573,-0.0967 -0.02184,-0.0976 -0.01792,-0.0984 -0.01397,-0.0991 -0.01,-0.0995 -0.006,-0.0999 -0.002,-0.10003"
       stroke="#191919"
       stroke-width="0.35 px"
       style="fill:#000000;fill-opacity:1;fill-rule:evenodd;stroke:none;stroke-width:0.1;stroke-linecap:square;stroke-miterlimit:4;stroke-dasharray:none;stroke-opacity:1" /><path
       id="Cut002_cs_w0009"
       d="m 55.173932,198.62817 m 0,0 0.002,-0.10002 0.006,-0.0999 0.01,-0.0995 0.01397,-0.0991 0.01792,-0.0984 0.02184,-0.0976 0.02573,-0.0967 0.02958,-0.0956 0.03338,-0.0943 0.03713,-0.0929 0.04081,-0.0913 0.04443,-0.0896 0.04799,-0.0878 0.05146,-0.0858 0.05485,-0.0837 0.05815,-0.0814 0.06137,-0.079 0.06448,-0.0765 0.06749,-0.0738 0.07039,-0.0711 0.07317,-0.0682 0.07585,-0.0652 0.0784,-0.0622 0.08082,-0.059 0.08311,-0.0557 0.08528,-0.0523 0.0873,-0.0489 0.08919,-0.0453 0.09093,-0.0417 0.09252,-0.0381 0.09397,-0.0343 0.09527,-0.0305 0.09642,-0.0267 0.09741,-0.0228 0.09824,-0.0189 0.09892,-0.0149 0.09944,-0.011 0.0998,-0.007 0.1,-0.003 0.100039,0.001 0.09992,0.005 0.09964,0.009 0.0992,0.013 0.0986,0.0169 0.09784,0.0209 0.09693,0.0248 0.09586,0.0286 0.09464,0.0324 0.09327,0.0362 0.09174,0.0399 0.09007,0.0435 0.08826,0.0471 0.08631,0.0506 0.08421,0.054 0.08198,0.0573 0.07962,0.0606 0.07714,0.0637 0.07453,0.0667 0.07179,0.0697 0.06895,0.0725 0.066,0.0752 0.06293,0.0778 0.05977,0.0802 0.05651,0.0826 0.05317,0.0847 0.04973,0.0868 0.04622,0.0887 0.04263,0.0905 0.03898,0.0921 0.03526,0.0936 0.03149,0.095 0.02766,0.0961 0.02379,0.0972 0.01988,0.0981 0.01595,0.0988 0.01198,0.0993 0.008,0.0997 0.004,0.1 v 0.10004 l -0.004,0.1 -0.008,0.0997 -0.01198,0.0993 -0.01595,0.0988 -0.01988,0.0981 -0.02379,0.0972 -0.02766,0.0961 -0.03149,0.095 -0.03526,0.0936 -0.03898,0.0921 -0.04263,0.0905 -0.04622,0.0887 -0.04973,0.0868 -0.05317,0.0847 -0.05651,0.0826 -0.05977,0.0802 -0.06293,0.0778 -0.066,0.0752 -0.06895,0.0725 -0.07179,0.0697 -0.07453,0.0667 -0.07714,0.0637 -0.07962,0.0606 -0.08198,0.0573 -0.08421,0.054 -0.08631,0.0506 -0.08826,0.0471 -0.09007,0.0435 -0.09174,0.0399 -0.09327,0.0362 -0.09464,0.0324 -0.09586,0.0286 -0.09693,0.0248 -0.09784,0.0209 -0.0986,0.0169 -0.0992,0.013 -0.09964,0.009 -0.09992,0.005 -0.100039,10e-4 -0.1,-0.003 -0.0998,-0.007 -0.09944,-0.011 -0.09892,-0.0149 -0.09824,-0.0189 -0.09741,-0.0228 -0.09642,-0.0267 -0.09527,-0.0305 -0.09397,-0.0343 -0.09252,-0.0381 -0.09093,-0.0417 -0.08919,-0.0453 -0.0873,-0.0489 -0.08528,-0.0523 -0.08311,-0.0557 -0.08082,-0.059 -0.0784,-0.0622 -0.07585,-0.0652 -0.07317,-0.0682 -0.07039,-0.0711 -0.06749,-0.0738 -0.06448,-0.0765 -0.06137,-0.079 -0.05815,-0.0814 -0.05485,-0.0837 -0.05146,-0.0858 -0.04799,-0.0878 -0.04443,-0.0896 -0.04081,-0.0913 -0.03713,-0.0929 -0.03338,-0.0943 -0.02958,-0.0956 -0.02573,-0.0967 -0.02184,-0.0976 -0.01792,-0.0984 -0.01397,-0.0991 -0.01,-0.0995 -0.006,-0.0999 -0.002,-0.10022"
       stroke="#191919"
       stroke-width="0.35 px"
       style="fill:#000000;fill-opacity:1;fill-rule:evenodd;stroke:none;stroke-width:0.1;stroke-linecap:square;stroke-miterlimit:4;stroke-dasharray:none;stroke-opacity:1" /><path
       id="Cut002_cs_w0010"
       d="m 22.473932,168.52817 m 0,0 0.002,-0.10002 0.006,-0.0999 0.01,-0.0995 0.01397,-0.0991 0.01792,-0.0984 0.02184,-0.0976 0.02573,-0.0967 0.02958,-0.0956 0.03338,-0.0943 0.03713,-0.0929 0.04081,-0.0913 0.04443,-0.0896 0.04799,-0.0878 0.05146,-0.0858 0.05485,-0.0837 0.05815,-0.0814 0.06137,-0.079 0.06448,-0.0765 0.06749,-0.0738 0.07039,-0.0711 0.07317,-0.0682 0.07585,-0.0652 0.0784,-0.0622 0.08082,-0.059 0.08311,-0.0557 0.08528,-0.0523 0.0873,-0.0489 0.08918,-0.0453 0.09093,-0.0417 0.09252,-0.038 0.09397,-0.0343 0.09527,-0.0305 0.09642,-0.0267 0.09741,-0.0228 0.09824,-0.0189 0.09892,-0.015 0.09944,-0.011 0.0998,-0.007 0.1,-0.003 0.100039,0.001 0.09992,0.005 0.09964,0.009 0.0992,0.013 0.0986,0.0169 0.09784,0.0209 0.09693,0.0248 0.09586,0.0286 0.09464,0.0324 0.09327,0.0362 0.09174,0.0399 0.09007,0.0435 0.08826,0.0471 0.0863,0.0506 0.08421,0.054 0.08198,0.0573 0.07962,0.0606 0.07714,0.0637 0.07453,0.0667 0.0718,0.0697 0.06895,0.0725 0.066,0.0752 0.06293,0.0778 0.05977,0.0802 0.05651,0.0825 0.05317,0.0847 0.04973,0.0868 0.04622,0.0887 0.04263,0.0905 0.03898,0.0921 0.03526,0.0936 0.03149,0.095 0.02766,0.0961 0.02379,0.0972 0.01989,0.0981 0.01595,0.0988 0.01198,0.0993 0.008,0.0997 0.004,0.1 v 0.10004 l -0.004,0.1 -0.008,0.0997 -0.01198,0.0993 -0.01595,0.0988 -0.01989,0.0981 -0.02379,0.0972 -0.02766,0.0961 -0.03149,0.095 -0.03526,0.0936 -0.03898,0.0921 -0.04263,0.0905 -0.04622,0.0887 -0.04973,0.0868 -0.05317,0.0848 -0.05651,0.0825 -0.05977,0.0802 -0.06293,0.0778 -0.066,0.0752 -0.06895,0.0725 -0.0718,0.0697 -0.07453,0.0667 -0.07714,0.0637 -0.07962,0.0606 -0.08198,0.0573 -0.08421,0.054 -0.0863,0.0506 -0.08826,0.0471 -0.09007,0.0435 -0.09174,0.0399 -0.09327,0.0362 -0.09464,0.0324 -0.09586,0.0286 -0.09693,0.0248 -0.09784,0.0209 -0.0986,0.0169 -0.0992,0.013 -0.09964,0.009 -0.09992,0.005 -0.100039,0.001 -0.1,-0.003 -0.0998,-0.007 -0.09944,-0.011 -0.09892,-0.015 -0.09824,-0.0189 -0.09741,-0.0228 -0.09642,-0.0267 -0.09527,-0.0305 -0.09397,-0.0343 -0.09252,-0.038 -0.09093,-0.0417 -0.08918,-0.0453 -0.0873,-0.0489 -0.08528,-0.0523 -0.08311,-0.0557 -0.08082,-0.059 -0.0784,-0.0621 -0.07585,-0.0652 -0.07317,-0.0682 -0.07039,-0.0711 -0.06749,-0.0738 -0.06448,-0.0765 -0.06137,-0.079 -0.05815,-0.0814 -0.05485,-0.0837 -0.05146,-0.0858 -0.04799,-0.0878 -0.04443,-0.0896 -0.04081,-0.0913 -0.03713,-0.0929 -0.03338,-0.0943 -0.02958,-0.0956 -0.02573,-0.0967 -0.02184,-0.0976 -0.01792,-0.0984 -0.01397,-0.0991 -0.01,-0.0995 -0.006,-0.0999 -0.002,-0.10003"
       stroke="#191919"
       stroke-width="0.35 px"
       style="fill:#000000;fill-opacity:1;fill-rule:evenodd;stroke:none;stroke-width:0.1;stroke-linecap:square;stroke-miterlimit:4;stroke-dasharray:none;stroke-opacity:1" /><path
       id="Cut002_cs_w0012"
       d="m 7.473932,192.72817 m 0,0 0.002,-0.10002 0.006,-0.0999 0.01,-0.0995 0.01397,-0.0991 0.01792,-0.0984 0.02184,-0.0976 0.02573,-0.0967 0.02958,-0.0956 0.03338,-0.0943 0.03713,-0.0929 0.04081,-0.0913 0.04443,-0.0896 0.04799,-0.0878 0.05146,-0.0858 0.05485,-0.0837 0.05815,-0.0814 0.06137,-0.079 0.06448,-0.0765 0.06749,-0.0739 0.07039,-0.0711 0.07318,-0.0682 0.07585,-0.0652 0.0784,-0.0621 0.08082,-0.059 0.08311,-0.0557 0.08528,-0.0523 0.0873,-0.0489 0.08919,-0.0453 0.09093,-0.0417 0.09252,-0.0381 0.09397,-0.0343 0.09527,-0.0305 0.09642,-0.0267 0.09741,-0.0228 0.09824,-0.0189 0.09892,-0.0149 0.09944,-0.011 0.0998,-0.007 0.1,-0.003 0.100039,0.001 0.09992,0.005 0.09964,0.009 0.0992,0.013 0.0986,0.0169 0.09784,0.0209 0.09693,0.0248 0.09586,0.0286 0.09464,0.0324 0.09327,0.0362 0.09174,0.0399 0.09007,0.0435 0.08826,0.0471 0.08631,0.0506 0.08421,0.054 0.08198,0.0573 0.07962,0.0606 0.07714,0.0637 0.07453,0.0667 0.07179,0.0697 0.06895,0.0725 0.06599,0.0752 0.06293,0.0778 0.05977,0.0802 0.05651,0.0826 0.05317,0.0847 0.04973,0.0868 0.04622,0.0887 0.04263,0.0905 0.03898,0.0921 0.03526,0.0936 0.03149,0.095 0.02766,0.0961 0.02379,0.0972 0.01988,0.098 0.01595,0.0988 0.01198,0.0993 0.008,0.0997 0.004,0.1 v 0.10004 l -0.004,0.1 -0.008,0.0997 -0.01198,0.0993 -0.01595,0.0988 -0.01988,0.0981 -0.02379,0.0972 -0.02766,0.0961 -0.03149,0.095 -0.03526,0.0936 -0.03898,0.0921 -0.04263,0.0905 -0.04622,0.0887 -0.04973,0.0868 -0.05317,0.0847 -0.05651,0.0826 -0.05977,0.0802 -0.06293,0.0778 -0.06599,0.0752 -0.06895,0.0725 -0.07179,0.0697 -0.07453,0.0668 -0.07714,0.0637 -0.07962,0.0606 -0.08198,0.0573 -0.08421,0.054 -0.08631,0.0506 -0.08826,0.0471 -0.09007,0.0435 -0.09174,0.0399 -0.09327,0.0362 -0.09464,0.0324 -0.09586,0.0286 -0.09693,0.0248 -0.09784,0.0209 -0.0986,0.0169 -0.0992,0.013 -0.09964,0.009 -0.09992,0.005 -0.100039,0.001 -0.1,-0.003 -0.0998,-0.007 -0.09944,-0.011 -0.09892,-0.0149 -0.09824,-0.0189 -0.09741,-0.0228 -0.09642,-0.0267 -0.09527,-0.0305 -0.09397,-0.0343 -0.09252,-0.0381 -0.09093,-0.0417 -0.08919,-0.0453 -0.0873,-0.0489 -0.08528,-0.0523 -0.08311,-0.0557 -0.08082,-0.059 -0.0784,-0.0622 -0.07585,-0.0652 -0.07318,-0.0682 -0.07039,-0.0711 -0.06749,-0.0738 -0.06448,-0.0765 -0.06137,-0.079 -0.05815,-0.0814 -0.05485,-0.0837 -0.05146,-0.0858 -0.04799,-0.0878 -0.04443,-0.0896 -0.04081,-0.0913 -0.03713,-0.0929 -0.03338,-0.0943 -0.02958,-0.0956 -0.02573,-0.0967 -0.02184,-0.0976 -0.01792,-0.0984 -0.01397,-0.0991 -0.01,-0.0995 -0.006,-0.0999 -0.002,-0.10022"
       stroke="#191919"
       stroke-width="0.35 px"
       style="fill:#000000;fill-opacity:1;fill-rule:evenodd;stroke:none;stroke-width:0.1;stroke-linecap:square;stroke-miterlimit:4;stroke-dasharray:none;stroke-opacity:1" /><path
       id="Cut002_cs_w0014"
       d="m 57.073932,96.278171 m 0,0 0.0042,0.100413 0.0126,0.09971 0.0209,0.09831 0.02905,0.09621 0.037,0.09344 0.04469,0.09002 0.05206,0.08597 0.05907,0.08131 0.06567,0.07608 0.07181,0.07032 0.07744,0.06406 0.08253,0.05736 0.08704,0.05025 0.09094,0.04279 0.0942,0.03503 0.0968,0.02703 0.09872,0.01883 0.09995,0.01051 0.10048,0.0021 0.100303,-0.0063 0.09942,-0.01468 0.09785,-0.02295 0.09558,-0.03106 0.09265,-0.03895 0.08907,-0.04656 0.08486,-0.05385 0.08005,-0.06076 0.07469,-0.06725 0.0688,-0.07326 0.06243,-0.07876 0.05562,-0.08371 0.04842,-0.08807 0.04088,-0.09181 0.03305,-0.09491 0.02499,-0.09734 0.01676,-0.09909 0.0084,-0.100149 v -0.100502 l -0.0084,-0.100149 -0.01676,-0.09909 -0.02499,-0.09734 -0.03305,-0.09491 -0.04088,-0.09181 -0.04842,-0.08807 -0.05562,-0.08371 -0.06243,-0.07876 -0.0688,-0.07326 -0.07469,-0.06725 -0.08005,-0.06076 -0.08486,-0.05385 -0.08907,-0.04656 -0.09265,-0.03895 -0.09558,-0.03106 -0.09785,-0.02295 -0.09942,-0.01468 -0.100303,-0.0063 -0.10048,0.0021 -0.09995,0.0105 -0.09872,0.01883 -0.0968,0.02703 -0.0942,0.03503 -0.09094,0.04279 -0.08704,0.05025 -0.08253,0.05736 -0.07744,0.06406 -0.07181,0.07032 -0.06567,0.07608 -0.05907,0.08131 -0.05206,0.08597 -0.04469,0.09002 -0.037,0.09344 -0.02905,0.09621 -0.0209,0.09831 -0.0126,0.09971 -0.0042,0.100357"
       stroke="#191919"
       stroke-width="0.35 px"
       style="fill:none;fill-opacity:1;fill-rule:evenodd;stroke:#ff0000;stroke-width:0.1;stroke-linecap:square;stroke-miterlimit:4;stroke-dasharray:none;stroke-opacity:1" /><path
       id="Cut002_cs_w0016"
       d="m 56.473932,116.62817 m 0,0 0.0042,0.10041 0.0126,0.0997 0.02089,0.0983 0.02905,0.0962 0.037,0.0934 0.04469,0.09 0.05206,0.086 0.05907,0.0813 0.06567,0.0761 0.0718,0.0703 0.07744,0.0641 0.08253,0.0574 0.08704,0.0503 0.09094,0.0428 0.0942,0.035 0.0968,0.027 0.09872,0.0188 0.09995,0.0105 0.10048,0.002 0.100303,-0.006 0.09942,-0.0147 0.09785,-0.0229 0.09558,-0.0311 0.09265,-0.0389 0.08907,-0.0466 0.08486,-0.0538 0.08005,-0.0608 0.07469,-0.0673 0.0688,-0.0733 0.06243,-0.0788 0.05562,-0.0837 0.04842,-0.0881 0.04088,-0.0918 0.03305,-0.0949 0.02499,-0.0973 0.01676,-0.0991 0.0084,-0.10015 v -0.1005 l -0.0084,-0.10015 -0.01676,-0.0991 -0.02499,-0.0973 -0.03305,-0.0949 -0.04088,-0.0918 -0.04842,-0.0881 -0.05562,-0.0837 -0.06243,-0.0788 -0.0688,-0.0733 -0.07469,-0.0673 -0.08005,-0.0608 -0.08486,-0.0538 -0.08907,-0.0466 -0.09265,-0.039 -0.09558,-0.0311 -0.09785,-0.0229 -0.09942,-0.0147 -0.100303,-0.006 -0.10048,0.002 -0.09995,0.0105 -0.09872,0.0188 -0.0968,0.027 -0.0942,0.035 -0.09094,0.0428 -0.08704,0.0503 -0.08253,0.0574 -0.07744,0.0641 -0.0718,0.0703 -0.06567,0.0761 -0.05907,0.0813 -0.05206,0.086 -0.04469,0.09 -0.037,0.0934 -0.02905,0.0962 -0.02089,0.0983 -0.0126,0.0997 -0.0042,0.10036"
       stroke="#191919"
       stroke-width="0.35 px"
       style="fill:none;fill-opacity:1;fill-rule:evenodd;stroke:#ff0000;stroke-width:0.1;stroke-linecap:square;stroke-miterlimit:4;stroke-dasharray:none;stroke-opacity:1" /><path
       id="Cut002_cs_w0017"
       d="m 13.073932,100.02817 h 41.8 v -1.499999 h -41.8 v 1.499999"
       stroke="#191919"
       stroke-width="0.35 px"
       style="fill:#000000;fill-opacity:1;fill-rule:evenodd;stroke:none;stroke-width:0.1;stroke-linecap:square;stroke-miterlimit:4;stroke-dasharray:none;stroke-opacity:1" /><path
       id="Cut002_cs_w0018"
       d="m 13.073932,104.52817 h 41.8 v -1.5 h -41.8 v 1.5"
       stroke="#191919"
       stroke-width="0.35 px"
       style="fill:#000000;fill-opacity:1;fill-rule:evenodd;stroke:none;stroke-width:0.1;stroke-linecap:square;stroke-miterlimit:4;stroke-dasharray:none;stroke-opacity:1" /><path
       id="Cut002_cs_w0020"
       d="m 8.323932,96.278171 m 0,0 0.0042,0.100413 0.0126,0.09971 0.0209,0.09831 0.02905,0.09621 0.037,0.09344 0.04469,0.09002 0.05206,0.08597 0.05907,0.08131 0.06567,0.07608 0.07181,0.07032 0.07744,0.06406 0.08253,0.05736 0.08704,0.05025 0.09094,0.04279 0.0942,0.03503 0.0968,0.02703 0.09872,0.01883 0.09995,0.01051 0.10048,0.0021 0.100303,-0.0063 0.09942,-0.01468 0.09785,-0.02295 0.09558,-0.03106 0.09265,-0.03895 0.08907,-0.04656 0.08486,-0.05385 0.08005,-0.06076 0.07469,-0.06725 0.0688,-0.07326 0.06243,-0.07876 0.05562,-0.08371 0.04842,-0.08807 0.04088,-0.09181 0.03305,-0.09491 0.02499,-0.09734 0.01676,-0.09909 0.0084,-0.100149 v -0.100502 l -0.0084,-0.100149 -0.01676,-0.09909 -0.02499,-0.09734 -0.03305,-0.09491 -0.04088,-0.09181 -0.04842,-0.08807 -0.05562,-0.08371 -0.06243,-0.07876 -0.0688,-0.07326 -0.07469,-0.06725 -0.08005,-0.06076 -0.08486,-0.05385 -0.08907,-0.04656 -0.09265,-0.03895 -0.09558,-0.03106 -0.09785,-0.02295 -0.09942,-0.01468 -0.100303,-0.0063 -0.10048,0.0021 -0.09995,0.0105 -0.09872,0.01883 -0.0968,0.02703 -0.0942,0.03503 -0.09094,0.04279 -0.08704,0.05025 -0.08253,0.05736 -0.07744,0.06406 -0.07181,0.07032 -0.06567,0.07608 -0.05907,0.08131 -0.05206,0.08597 -0.04469,0.09002 -0.037,0.09344 -0.02905,0.09621 -0.0209,0.09831 -0.0126,0.09971 -0.0042,0.100357"
       stroke="#191919"
       stroke-width="0.35 px"
       style="fill:none;fill-opacity:1;fill-rule:evenodd;stroke:#ff0000;stroke-width:0.1;stroke-linecap:square;stroke-miterlimit:4;stroke-dasharray:none;stroke-opacity:1" /><path
       id="Cut002_cs_w0022"
       d="m 8.773932,117.62817 m 0,0 0.0042,0.10041 0.0126,0.0997 0.02089,0.0983 0.02905,0.0962 0.037,0.0934 0.04469,0.09 0.05206,0.086 0.05907,0.0813 0.06567,0.0761 0.07181,0.0703 0.07744,0.0641 0.08253,0.0574 0.08704,0.0503 0.09094,0.0428 0.0942,0.035 0.0968,0.027 0.09872,0.0188 0.09995,0.0105 0.10048,0.002 0.100303,-0.006 0.09942,-0.0147 0.09785,-0.0229 0.09558,-0.0311 0.09265,-0.0389 0.08907,-0.0466 0.08486,-0.0538 0.08005,-0.0608 0.07469,-0.0673 0.0688,-0.0733 0.06243,-0.0788 0.05562,-0.0837 0.04842,-0.0881 0.04088,-0.0918 0.03305,-0.0949 0.02499,-0.0973 0.01676,-0.0991 0.0084,-0.10015 v -0.1005 l -0.0084,-0.10015 -0.01676,-0.0991 -0.02499,-0.0973 -0.03305,-0.0949 -0.04088,-0.0918 -0.04842,-0.0881 -0.05562,-0.0837 -0.06243,-0.0788 -0.0688,-0.0733 -0.07469,-0.0673 -0.08005,-0.0608 -0.08486,-0.0539 -0.08907,-0.0466 -0.09265,-0.0389 -0.09558,-0.0311 -0.09785,-0.0229 -0.09942,-0.0147 -0.100303,-0.006 -0.10048,0.002 -0.09995,0.0105 -0.09872,0.0188 -0.0968,0.027 -0.0942,0.035 -0.09094,0.0428 -0.08704,0.0503 -0.08253,0.0574 -0.07744,0.0641 -0.07181,0.0703 -0.06567,0.0761 -0.05907,0.0813 -0.05206,0.086 -0.04469,0.09 -0.037,0.0934 -0.02905,0.0962 -0.02089,0.0983 -0.0126,0.0997 -0.0042,0.10035"
       stroke="#191919"
       stroke-width="0.35 px"
       style="fill:none;fill-opacity:1;fill-rule:evenodd;stroke:#ff0000;stroke-width:0.1;stroke-linecap:square;stroke-miterlimit:4;stroke-dasharray:none;stroke-opacity:1" /><path
       id="Cut002_cs_w0023"
       d="m 48.023932,164.12817 h 12 v -10.1 h -12 v 10.1"
       stroke="#191919"
       stroke-width="0.35 px"
       style="fill:#000000;fill-opacity:1;fill-rule:evenodd;stroke:none;stroke-width:0.1;stroke-linecap:square;stroke-miterlimit:4;stroke-dasharray:none;stroke-opacity:1" /><path
       id="Cut002_cs_w0025"
       d="m 51.523932,168.52817 m 0,0 0.0042,0.10041 0.0126,0.0997 0.02089,0.0983 0.02905,0.0962 0.037,0.0934 0.04469,0.09 0.05206,0.086 0.05907,0.0813 0.06567,0.0761 0.07181,0.0703 0.07744,0.0641 0.08253,0.0574 0.08704,0.0503 0.09094,0.0428 0.0942,0.035 0.0968,0.027 0.09872,0.0188 0.09995,0.0105 0.10048,0.002 0.100303,-0.006 0.09942,-0.0147 0.09785,-0.023 0.09558,-0.0311 0.09265,-0.0389 0.08907,-0.0466 0.08486,-0.0538 0.08005,-0.0608 0.07469,-0.0673 0.0688,-0.0733 0.06243,-0.0788 0.05562,-0.0837 0.04842,-0.0881 0.04088,-0.0918 0.03305,-0.0949 0.02499,-0.0973 0.01676,-0.0991 0.0084,-0.10014 v -0.10051 l -0.0084,-0.10015 -0.01676,-0.0991 -0.02499,-0.0973 -0.03305,-0.0949 -0.04088,-0.0918 -0.04842,-0.0881 -0.05562,-0.0837 -0.06243,-0.0788 -0.0688,-0.0733 -0.07469,-0.0673 -0.08005,-0.0608 -0.08486,-0.0539 -0.08907,-0.0466 -0.09265,-0.0389 -0.09558,-0.0311 -0.09785,-0.023 -0.09942,-0.0147 -0.100303,-0.006 -0.10048,0.002 -0.09995,0.0105 -0.09872,0.0188 -0.0968,0.027 -0.0942,0.035 -0.09094,0.0428 -0.08704,0.0503 -0.08253,0.0574 -0.07744,0.0641 -0.07181,0.0703 -0.06567,0.0761 -0.05907,0.0813 -0.05206,0.086 -0.04469,0.09 -0.037,0.0934 -0.02905,0.0962 -0.02089,0.0983 -0.0126,0.0997 -0.0042,0.10036"
       stroke="#191919"
       stroke-width="0.35 px"
       style="fill:none;fill-opacity:1;fill-rule:evenodd;stroke:#ff0000;stroke-width:0.1;stroke-linecap:square;stroke-miterlimit:4;stroke-dasharray:none;stroke-opacity:1" /><path
       id="Cut002_cs_w0027"
       d="m 56.473932,198.62817 m 0,0 0.0042,0.10041 0.0126,0.0997 0.02089,0.0983 0.02905,0.0962 0.037,0.0934 0.04469,0.09 0.05206,0.086 0.05907,0.0813 0.06567,0.0761 0.0718,0.0703 0.07744,0.0641 0.08253,0.0573 0.08704,0.0503 0.09094,0.0428 0.0942,0.035 0.0968,0.027 0.09872,0.0188 0.09995,0.0105 0.10048,0.002 0.100303,-0.006 0.09942,-0.0147 0.09785,-0.0229 0.09558,-0.0311 0.09265,-0.0389 0.08907,-0.0466 0.08486,-0.0538 0.08005,-0.0608 0.07469,-0.0673 0.0688,-0.0733 0.06243,-0.0788 0.05562,-0.0837 0.04842,-0.0881 0.04088,-0.0918 0.03305,-0.0949 0.02499,-0.0974 0.01676,-0.0991 0.0084,-0.10015 v -0.1005 l -0.0084,-0.10015 -0.01676,-0.0991 -0.02499,-0.0974 -0.03305,-0.0949 -0.04088,-0.0918 -0.04842,-0.0881 -0.05562,-0.0837 -0.06243,-0.0788 -0.0688,-0.0733 -0.07469,-0.0673 -0.08005,-0.0608 -0.08486,-0.0538 -0.08907,-0.0466 -0.09265,-0.0389 -0.09558,-0.0311 -0.09785,-0.0229 -0.09942,-0.0147 -0.100303,-0.006 -0.10048,0.002 -0.09995,0.0105 -0.09872,0.0188 -0.0968,0.027 -0.0942,0.035 -0.09094,0.0428 -0.08704,0.0503 -0.08253,0.0573 -0.07744,0.0641 -0.0718,0.0703 -0.06567,0.0761 -0.05907,0.0813 -0.05206,0.086 -0.04469,0.09 -0.037,0.0934 -0.02905,0.0962 -0.02089,0.0983 -0.0126,0.0997 -0.0042,0.10059"
       stroke="#191919"
       stroke-width="0.35 px"
       style="fill:none;fill-opacity:1;fill-rule:evenodd;stroke:#ff0000;stroke-width:0.1;stroke-linecap:square;stroke-miterlimit:4;stroke-dasharray:none;stroke-opacity:1" /><path
       id="Cut002_cs_w0029"
       d="m 23.773932,168.52817 m 0,0 0.0042,0.10041 0.0126,0.0997 0.02089,0.0983 0.02905,0.0962 0.037,0.0934 0.04469,0.09 0.05206,0.086 0.05907,0.0813 0.06567,0.0761 0.0718,0.0703 0.07744,0.0641 0.08253,0.0574 0.08704,0.0503 0.09094,0.0428 0.0942,0.035 0.0968,0.027 0.09872,0.0188 0.09995,0.0105 0.10048,0.002 0.100303,-0.006 0.09942,-0.0147 0.09785,-0.023 0.09558,-0.0311 0.09265,-0.0389 0.08907,-0.0466 0.08486,-0.0538 0.08005,-0.0608 0.07469,-0.0673 0.0688,-0.0733 0.06243,-0.0788 0.05562,-0.0837 0.04842,-0.0881 0.04088,-0.0918 0.03305,-0.0949 0.02499,-0.0973 0.01676,-0.0991 0.0084,-0.10015 v -0.1005 l -0.0084,-0.10015 -0.01676,-0.0991 -0.02499,-0.0973 -0.03305,-0.0949 -0.04088,-0.0918 -0.04842,-0.0881 -0.05562,-0.0837 -0.06243,-0.0788 -0.0688,-0.0733 -0.07469,-0.0673 -0.08005,-0.0608 -0.08486,-0.0539 -0.08906,-0.0466 -0.09265,-0.039 -0.09558,-0.0311 -0.09785,-0.0229 -0.09942,-0.0147 -0.100303,-0.006 -0.10048,0.002 -0.09995,0.0105 -0.09872,0.0188 -0.0968,0.027 -0.0942,0.035 -0.09094,0.0428 -0.08704,0.0503 -0.08253,0.0574 -0.07744,0.0641 -0.0718,0.0703 -0.06567,0.0761 -0.05907,0.0813 -0.05206,0.086 -0.04469,0.09 -0.037,0.0934 -0.02905,0.0962 -0.02089,0.0983 -0.0126,0.0997 -0.0042,0.10041"
       stroke="#191919"
       stroke-width="0.35 px"
       style="fill:none;fill-opacity:1;fill-rule:evenodd;stroke:#ff0000;stroke-width:0.1;stroke-linecap:square;stroke-miterlimit:4;stroke-dasharray:none;stroke-opacity:1" /><path
       id="Cut002_cs_w0030"
       d="m 7.573932,164.12817 h 12 v -10.1 h -12 v 10.1"
       stroke="#191919"
       stroke-width="0.35 px"
       style="fill:#000000;fill-opacity:1;fill-rule:evenodd;stroke:none;stroke-width:0.1;stroke-linecap:square;stroke-miterlimit:4;stroke-dasharray:none;stroke-opacity:1" /><path
       id="Cut002_cs_w0032"
       d="m 8.773932,192.72817 m 0,0 0.0042,0.10041 0.0126,0.0997 0.02089,0.0983 0.02905,0.0962 0.037,0.0934 0.04469,0.09 0.05206,0.086 0.05907,0.0813 0.06567,0.0761 0.07181,0.0703 0.07744,0.0641 0.08253,0.0573 0.08704,0.0502 0.09094,0.0428 0.0942,0.035 0.0968,0.027 0.09872,0.0188 0.09995,0.0105 0.10048,0.002 0.100303,-0.006 0.09942,-0.0147 0.09785,-0.0229 0.09558,-0.0311 0.09265,-0.0389 0.08907,-0.0466 0.08486,-0.0538 0.08005,-0.0608 0.07469,-0.0673 0.0688,-0.0733 0.06243,-0.0788 0.05562,-0.0837 0.04842,-0.0881 0.04088,-0.0918 0.03305,-0.0949 0.02499,-0.0973 0.01676,-0.0991 0.0084,-0.10015 v -0.1005 l -0.0084,-0.10015 -0.01676,-0.0991 -0.02499,-0.0974 -0.03305,-0.0949 -0.04088,-0.0918 -0.04842,-0.0881 -0.05562,-0.0837 -0.06243,-0.0788 -0.0688,-0.0733 -0.07469,-0.0673 -0.08005,-0.0608 -0.08486,-0.0538 -0.08907,-0.0466 -0.09265,-0.0389 -0.09558,-0.0311 -0.09785,-0.0229 -0.09942,-0.0147 -0.100303,-0.006 -0.10048,0.002 -0.09995,0.0105 -0.09872,0.0188 -0.0968,0.027 -0.0942,0.035 -0.09094,0.0428 -0.08704,0.0503 -0.08253,0.0573 -0.07744,0.0641 -0.07181,0.0703 -0.06567,0.0761 -0.05907,0.0813 -0.05206,0.086 -0.04469,0.09 -0.037,0.0934 -0.02905,0.0962 -0.02089,0.0983 -0.0126,0.0997 -0.0042,0.10059"
       stroke="#191919"
       stroke-width="0.35 px"
       style="fill:none;fill-opacity:1;fill-rule:evenodd;stroke:#ff0000;stroke-width:0.1;stroke-linecap:square;stroke-miterlimit:4;stroke-dasharray:none;stroke-opacity:1" /><g
       id="Cut003_cs"
       transform="matrix(-1,0,0,1,356.77214,191.28026)"
       style="stroke:#ff0000;stroke-opacity:1;stroke-width:0.1;stroke-dasharray:none"><path
         id="Cut003_cs_w0000"
         d="m -22.5,-10 h -10 v -6 h 3 v -6 h -3 v -6 h 3 v -6 h 59 v 3 h -11 v 18 h -5 v 3 h -9 v -3 h -9 v 3 h -9 v -3 h -9 v 3"
         stroke="#191919"
         stroke-width="0.35 px"
         style="fill:none;fill-opacity:1;fill-rule:evenodd;stroke-width:0.1;stroke-linecap:square;stroke-miterlimit:4;stroke-dasharray:none;stroke:#ff0000;stroke-opacity:1" /><title
         id="title577">b'Cut003_cs'</title></g><path
       id="Cut_cs_w0004"
       style="fill:none;fill-opacity:1;fill-rule:evenodd;stroke:#ff0000;stroke-width:0.1;stroke-linecap:square;stroke-miterlimit:4;stroke-dasharray:none;stroke-opacity:1"
       d="m 74.841995,121.86629 m 0,0 0.003,0.10019 0.01,0.0997 0.0167,0.0988 0.0232,0.0975 0.0297,0.0957 0.036,0.0935 0.0422,0.0909 0.0482,0.0879 0.0539,0.0845 0.0595,0.0807 0.0647,0.0765 0.0697,0.0721 0.0743,0.0672 0.0787,0.0621 0.0827,0.0567 0.0863,0.0511 0.0895,0.0452 0.0923,0.0391 0.0947,0.0329 0.0967,0.0265 0.0982,0.02 0.0994,0.0134 0.10002,0.007 h 0.10025 l 0.10002,-0.007 0.0994,-0.0134 0.0982,-0.02 0.0967,-0.0265 0.0947,-0.0329 0.0923,-0.0391 0.0895,-0.0452 0.0863,-0.0511 0.0827,-0.0567 0.0787,-0.0621 0.0743,-0.0672 0.0697,-0.0721 0.0647,-0.0765 0.0595,-0.0807 0.0539,-0.0845 0.0482,-0.0879 0.0422,-0.0909 0.036,-0.0935 0.0297,-0.0957 0.0232,-0.0975 0.0167,-0.0988 0.01,-0.0997 0.003,-0.10019 -0.003,-0.10019 -0.01,-0.0997 -0.0167,-0.0988 -0.0232,-0.0975 -0.0297,-0.0957 -0.036,-0.0935 -0.0422,-0.0909 -0.0482,-0.0879 -0.0539,-0.0845 -0.0595,-0.0807 -0.0647,-0.0765 -0.0697,-0.0721 -0.0744,-0.0672 -0.0787,-0.0621 -0.0827,-0.0567 -0.0863,-0.0511 -0.0895,-0.0452 -0.0923,-0.0391 -0.0947,-0.0329 -0.0967,-0.0265 -0.0982,-0.02 -0.0994,-0.0134 -0.10002,-0.007 h -0.10025 l -0.10002,0.007 -0.0994,0.0134 -0.0982,0.02 -0.0967,0.0265 -0.0947,0.0329 -0.0923,0.0391 -0.0895,0.0452 -0.0863,0.0511 -0.0827,0.0567 -0.0787,0.0621 -0.0744,0.0672 -0.0697,0.0721 -0.0647,0.0765 -0.0595,0.0807 -0.0539,0.0845 -0.0482,0.0879 -0.0422,0.0909 -0.036,0.0935 -0.0297,0.0957 -0.0232,0.0975 -0.0167,0.0988 -0.01,0.0997 -0.003,0.10019 m 2e-4,58 m 0,0 0.003,0.10019 0.01,0.0997 0.0167,0.0988 0.0232,0.0975 0.0297,0.0957 0.036,0.0935 0.0422,0.0909 0.0482,0.0879 0.0539,0.0845 0.0595,0.0807 0.0647,0.0765 0.0697,0.0721 0.0743,0.0672 0.0787,0.0621 0.0827,0.0567 0.0863,0.0511 0.0895,0.0452 0.0923,0.0391 0.0947,0.0329 0.0967,0.0265 0.0982,0.02 0.0994,0.0134 0.10002,0.007 h 0.10025 l 0.10002,-0.007 0.0994,-0.0134 0.0982,-0.02 0.0967,-0.0265 0.0947,-0.0329 0.0923,-0.0391 0.0895,-0.0452 0.0863,-0.0511 0.0827,-0.0567 0.0787,-0.0621 0.0743,-0.0672 0.0697,-0.0721 0.0647,-0.0765 0.0595,-0.0807 0.0539,-0.0845 0.0482,-0.0879 0.0422,-0.0909 0.036,-0.0935 0.0297,-0.0957 0.0232,-0.0975 0.0167,-0.0988 0.01,-0.0997 0.003,-0.10019 -0.003,-0.10019 -0.01,-0.0997 -0.0167,-0.0989 -0.0232,-0.0975 -0.0297,-0.0957 -0.036,-0.0935 -0.0422,-0.0909 -0.0482,-0.0879 -0.0539,-0.0845 -0.0595,-0.0807 -0.0647,-0.0765 -0.0697,-0.0721 -0.0744,-0.0672 -0.0787,-0.0621 -0.0827,-0.0567 -0.0863,-0.0511 -0.0895,-0.0452 -0.0923,-0.0391 -0.0947,-0.0329 -0.0967,-0.0265 -0.0982,-0.02 -0.0994,-0.0134 -0.10002,-0.007 h -0.10025 l -0.10002,0.007 -0.0994,0.0134 -0.0982,0.02 -0.0967,0.0265 -0.0947,0.0329 -0.0923,0.0391 -0.0895,0.0452 -0.0863,0.0511 -0.0827,0.0567 -0.0787,0.0621 -0.0744,0.0672 -0.0697,0.0721 -0.0647,0.0765 -0.0595,0.0807 -0.0539,0.0845 -0.0482,0.0879 -0.0422,0.0909 -0.036,0.0935 -0.0297,0.0957 -0.0232,0.0975 -0.0167,0.0989 -0.01,0.0997 -0.003,0.10019 m 2.2504,-60.949 0.0966,0.0263 0.0961,0.0295 0.0951,0.0326 0.094,0.0362 0.0925,0.0388 0.0915,0.0419 0.0899,0.045 0.0884,0.0481 0.0868,0.0506 0.0853,0.0537 0.0832,0.0563 0.0811,0.0594 0.0796,0.062 0.077,0.0641 0.0749,0.0672 0.0729,0.0692 0.0708,0.0718 0.0677,0.0739 0.0656,0.076 0.0631,0.0785 0.0605,0.0806 0.0579,0.0822 0.0548,0.0842 0.0522,0.0858 0.0491,0.0879 0.0465,0.0894 0.0434,0.0904 0.0403,0.092 0.0377,0.0935 0.0341,0.0946 0.031,0.0956 0.0279,0.0966 0.0248,0.0977 0.0212,0.0982 0.0181,0.0987 0.015,0.0997 0.0119,0.0997 0.008,0.10025 0.005,0.10025 0.002,0.10077 -0.002,0.10025 -0.005,0.10077 -0.008,0.0997 -0.0119,0.10025 -0.015,0.0992 -0.0181,0.0987 -0.0212,0.0987 -0.0248,0.0971 -0.0279,0.0966 -0.031,0.0956 -0.0341,0.0946 -0.0377,0.0935 -0.0403,0.092 -0.0434,0.091 -0.0465,0.0889 -0.0491,0.0879 -0.0522,0.0858 -0.0548,0.0842 -0.0579,0.0827 -0.0605,0.0801 -0.0631,0.0786 -0.0656,0.076 -0.0677,0.0744 -0.0708,0.0713 -0.0729,0.0698 -0.0749,0.0667 -0.077,0.0646 -0.0796,0.0615 -0.0811,0.0594 -0.0832,0.0563 -0.0853,0.0537 -0.0868,0.0506 -0.0884,0.0481 -0.0899,0.045 -0.0915,0.0419 -0.0925,0.0393 -0.094,0.0357 -0.0951,0.0326 -0.0961,0.03 -0.0966,0.0263 v 52.10171 l 0.0966,0.0264 0.0961,0.0294 0.0951,0.0326 0.094,0.0362 0.0925,0.0388 0.0915,0.0419 0.0899,0.045 0.0884,0.0481 0.0868,0.0506 0.0853,0.0537 0.0832,0.0563 0.0811,0.0594 0.0796,0.062 0.077,0.0641 0.0749,0.0672 0.0729,0.0693 0.0708,0.0718 0.0677,0.0739 0.0656,0.076 0.0631,0.0785 0.0605,0.0806 0.0579,0.0822 0.0548,0.0842 0.0522,0.0858 0.0491,0.0879 0.0465,0.0889 0.0434,0.0909 0.0403,0.092 0.0377,0.0935 0.0341,0.0946 0.031,0.0956 0.0279,0.0966 0.0248,0.0977 0.0212,0.0982 0.0181,0.0987 0.015,0.0992 0.0119,0.10026 0.008,0.10025 0.005,0.10025 0.002,0.10077 -0.002,0.10025 -0.005,0.10025 -0.008,0.10026 -0.0119,0.10025 -0.015,0.0992 -0.0181,0.0987 -0.0212,0.0987 -0.0248,0.0971 -0.0279,0.0966 -0.031,0.0956 -0.0341,0.0946 -0.0377,0.0935 -0.0403,0.092 -0.0434,0.091 -0.0465,0.0889 -0.0491,0.0879 -0.0522,0.0858 -0.0548,0.0842 -0.0579,0.0827 -0.0605,0.0801 -0.0631,0.0785 -0.0656,0.076 -0.0677,0.0739 -0.0708,0.0718 -0.0729,0.0693 -0.0749,0.0672 -0.077,0.0646 -0.0796,0.0615 -0.0811,0.0594 -0.0832,0.0563 -0.0853,0.0537 -0.0868,0.0506 -0.0884,0.0481 -0.0899,0.045 -0.0915,0.0419 -0.0925,0.0388 -0.094,0.0362 -0.0951,0.0326 -0.0961,0.0295 -0.0966,0.0269 v 21.75059 h 24.130835 v 9.99993 h -4.781115 v -2.99982 h -8.99996 v 2.99982 h -8.99997 v -2.99982 h -9.99991 v 2.99982 h -3.00033 v -4.9997 h 3.00033 v -5.6503 h 2.99982 v -7.00009 h -2.99982 v -6.99957 h 2.99982 v -7.00009 h -2.99982 v -7.00009 h 2.99982 v -7.65018 h -2.99982 v -29.99972 h 2.99982 v -8.00003 h -2.99982 v -7.00009 h 2.99982 v -7.00008 h -2.99982 v -7.00009 h 2.99982 v -7.00009 h -2.99982 v -6.999583 h 2.99982 v -8.76303 l -0.3762,-2.6e-4 6.0265,-4.73717 v 8.17056 z" /><g
       id="Box009_cs"
       transform="matrix(-1,0,0,1,285.8475,128.74433)"
       style="stroke:#ff0000;stroke-opacity:1;stroke-width:0.1;stroke-dasharray:none"><path
         id="Box009_cs_w0000"
         d="m 32.5,-24 h -65 v 21.6 h 65 V -24"
         stroke="#191919"
         stroke-width="0.35 px"
         style="fill:none;fill-opacity:1;fill-rule:evenodd;stroke-width:0.1;stroke-linecap:square;stroke-miterlimit:4;stroke-dasharray:none;stroke:#ff0000;stroke-opacity:1" /><title
         id="title611">b'Box009_cs'</title></g><g
       id="Body001_cs-0"
       transform="rotate(180,135.8911,94.38756)"
       style="stroke:#ff0000;stroke-opacity:1;stroke-width:0.1;stroke-dasharray:none"><path
         id="Body001_cs_w0000-5"
         d="m 27.458108,24.555405 v -3 h 5 v 28 h 72.000002 v -25 h 12.15 v -3 h 10 v 3 h 10 v -3 h 10 v 3 h 10 v -3 h 10 v 3 h 12.15 v 8.830028 h -3 v 10 h 3 v 10 h -3 v 10 m 0,0 -0.0971,0.0244 -0.097,0.02465 -0.0969,0.02489 -0.0969,0.02514 -0.0968,0.02538 -0.0967,0.02563 -0.0967,0.02587 -0.0966,0.02612 -0.0965,0.02636 -0.0965,0.02661 -0.0964,0.02685 -0.0963,0.0271 -0.0963,0.02734 -0.0962,0.02758 -0.0961,0.02783 -0.0961,0.02807 -0.096,0.02831 -0.0959,0.02856 -0.0958,0.0288 -0.0958,0.02904 -0.0957,0.02929 -0.0956,0.02953 -0.0956,0.02977 -0.0955,0.03001 -0.0954,0.03026 -0.0953,0.0305 -0.0952,0.03074 -0.0952,0.03098 -0.0951,0.03122 -0.095,0.03146 -0.0949,0.0317 -0.0948,0.03194 -0.0948,0.03218 -0.0947,0.03242 -0.0946,0.03266 -0.0945,0.0329 -0.0944,0.03314 -0.0943,0.03338 -0.0943,0.03362 -0.0942,0.03386 -0.0941,0.0341 -0.094,0.03433 -0.0939,0.03457 -0.0938,0.03481 -0.0937,0.03505 -0.0936,0.03528 -0.0936,0.03552 -0.0935,0.03576 -0.0934,0.036 -0.0933,0.03623 -0.0932,0.03647 -0.0931,0.03671 -0.093,0.03694 -0.0929,0.03718 -0.0928,0.03741 -0.0927,0.03765 -0.0926,0.03788 -0.0925,0.03811 -0.0924,0.03835 -0.0923,0.03858 -0.0922,0.03882 -0.0922,0.03905 -0.092,0.03928 -0.092,0.03952 -0.0918,0.03975 -0.0917,0.03998 -0.0916,0.04021 -0.0915,0.04045 -0.0914,0.04068 -0.0913,0.04091 -0.0912,0.04114 -0.0911,0.04137 -0.091,0.0416 -0.0909,0.04183 -0.0908,0.04206 -0.0907,0.04229 -0.0906,0.04252 -0.0905,0.04275 -0.0904,0.04298 -0.0903,0.04321 -0.0902,0.04344 -0.0901,0.04367 -0.0899,0.0439 -0.0898,0.04412 -0.0897,0.04435 -0.0896,0.04458 -0.0895,0.04481 -0.0894,0.04503 -0.0893,0.04526 -0.0892,0.04548 -0.089,0.04571 -0.0889,0.04594 -0.0888,0.04616 -0.0887,0.04639 -0.0886,0.04661 -0.0884,0.04683 -0.0883,0.04706 -0.0882,0.04728 -0.0881,0.04751 -0.088,0.04773 -0.0878,0.04795 -0.0877,0.04817 -0.0876,0.04839 -0.0875,0.04862 -0.0874,0.04884 -0.0872,0.04906 -0.0871,0.04928 -0.087,0.0495 -0.0868,0.04972 -0.0867,0.04994 -0.0866,0.05016 -0.0865,0.05038 -0.0863,0.0506 -0.0862,0.05082 -0.0861,0.05104 -0.086,0.05125 -0.0858,0.05147 -0.0857,0.05169 -0.0856,0.0519 -0.0854,0.05212 -0.0853,0.05234 -0.0852,0.05255 -0.085,0.05277 -0.0849,0.05298 -0.0848,0.0532 -0.0846,0.05341 -0.0845,0.05363 -0.0844,0.05384 -0.0842,0.05406 -0.0841,0.05427 -0.084,0.05448 -0.0838,0.05469 -0.0837,0.05491 -0.0835,0.05512 -0.0834,0.05533 -0.0832,0.05554 -0.0831,0.05575 -0.083,0.05596 -0.0828,0.05617 -0.0827,0.05638 -0.0825,0.05659 -0.0824,0.0568 -0.0823,0.05701 -0.0821,0.05722 -0.082,0.05742 -0.0818,0.05763 -0.0817,0.05784 -0.0815,0.05805 -0.0814,0.05825 -0.0812,0.05846 -0.0811,0.05866 -0.0809,0.05887 -0.0808,0.05907 -0.0806,0.05928 -0.0805,0.05948 -0.0803,0.05969 -0.0802,0.05989 -0.08,0.06009 -0.0799,0.0603 -0.0797,0.0605 -0.0796,0.0607 -0.0794,0.0609 -0.0793,0.0611 -0.0791,0.0613 -0.0789,0.0615 -0.0788,0.0617 -0.0786,0.0619 -0.0785,0.0621 -0.0783,0.0623 -0.0782,0.0625 -0.078,0.0627 -0.0778,0.06289 -0.0777,0.06309 -0.0775,0.06329 -0.0774,0.06348 -0.0772,0.06368 -0.077,0.06387 -0.0769,0.06407 -0.0767,0.06426 -0.0766,0.06446 -0.0764,0.06465 -0.0762,0.06485 -0.0761,0.06504 -0.0759,0.06523 -0.0757,0.06542 -0.0756,0.06562 -0.0754,0.06581 -0.0752,0.066 -0.0751,0.06619 -0.0749,0.06638 -0.0747,0.06657 -0.0746,0.06676 -0.0744,0.06694 -0.0742,0.06713 -0.074,0.06732 -0.0739,0.06751 -0.0737,0.0677 -0.0735,0.06788 -0.0734,0.06807 -0.0732,0.06825 -0.073,0.06844 -0.0729,0.06862 -0.0727,0.06881 -0.0725,0.06899 -0.0723,0.06917 -0.0721,0.06936 -0.072,0.06954 -0.0718,0.06972 -0.0716,0.0699 -0.0714,0.07009 -0.0713,0.07027 -0.0711,0.07045 -0.0709,0.07063 -0.0707,0.07081 -0.0705,0.07098 -0.0704,0.07116 -0.0702,0.07134 -0.07,0.07152 -0.0698,0.0717 -0.0696,0.07187 -0.0695,0.07205 -0.0693,0.07222 -0.0691,0.0724 -0.0689,0.07257 -0.0687,0.07275 -0.0685,0.07292 -0.0684,0.0731 -0.0682,0.07327 -0.068,0.07344 -0.0678,0.07361 -0.0676,0.07378 -0.0674,0.07396 -0.0672,0.07413 -0.067,0.0743 -0.0669,0.07447 -0.0667,0.07464 -0.0665,0.0748 -0.0663,0.07497 -0.0661,0.07514 -0.0659,0.07531 -0.0657,0.07547 -0.0655,0.07564 -0.0653,0.07581 -0.0652,0.07597 -0.0649,0.07614 -0.0648,0.0763 -0.0646,0.07647 -0.0644,0.07663 -0.0642,0.07679 -0.064,0.07695 -0.0638,0.07711 -0.0636,0.07728 -0.0634,0.07744 -0.0632,0.0776 -0.063,0.07776 -0.0628,0.07792 -0.0626,0.07807 -0.0624,0.07823 -0.0622,0.07839 -0.062,0.07855 -0.0618,0.07871 -0.0616,0.07886 -0.0614,0.07902 -0.0612,0.07917 -0.061,0.07933 -0.0608,0.07948 -0.0606,0.07964 -0.0604,0.07979 -0.0602,0.07994 -0.06,0.0801 -0.0598,0.08025 -0.0596,0.0804 -0.0594,0.08055 -0.0592,0.0807 -0.059,0.08085 -0.0588,0.081 -0.0586,0.08115 -0.0584,0.08129 -0.0582,0.08144 -0.058,0.08159 -0.0577,0.08174 -0.0575,0.08188 -0.0573,0.08203 -0.0571,0.08217 -0.0569,0.08232 -0.0567,0.08246 -0.0565,0.0826 -0.0563,0.08275 -0.0561,0.08289 -0.0559,0.08303 -0.0557,0.08317 -0.0555,0.08331 -0.0552,0.08345 -0.055,0.08359 -0.0548,0.08373 -0.0546,0.08387 -0.0544,0.08401 -0.0542,0.08415 -0.054,0.08428 -0.0537,0.08442 -0.0535,0.08456 -0.0533,0.08469 -0.0531,0.08483 -0.0529,0.08496 -0.0527,0.0851 -0.0525,0.08523 -0.0522,0.08536 -0.052,0.08549 -0.0518,0.08562 -0.0516,0.08575 -0.0514,0.08588 -0.0511,0.08601 -0.0509,0.08614 -0.0507,0.08627 -0.0505,0.0864 -0.0503,0.08653 -0.0501,0.08666 -0.0498,0.08678 -0.0496,0.08691 -0.0494,0.08703 -0.0492,0.08716 -0.049,0.08728 -0.0487,0.08741 -0.0485,0.08753 -0.0483,0.08765 -0.0481,0.08778 -0.0478,0.0879 -0.0476,0.08802 -0.0474,0.08814 -0.0472,0.08826 -0.0469,0.08838 -0.0467,0.08849 -0.0465,0.08861 -0.0463,0.08873 -0.0461,0.08885 -0.0458,0.08896 -0.0456,0.08908 -0.0454,0.0892 -0.0452,0.08931 -0.0449,0.08942 -0.0447,0.08954 -0.0445,0.08965 -0.0442,0.08976 -0.044,0.08987 -0.0438,0.08999 -0.044,0.0902 h -8 v -3 h -7 v 3 h -7 v -3 h -7 v 3 h -7 v -3 h -7 v 3 h -8.000002 v -19 h -30 v 19 h -7.65 v -3 h -7 v 3 h -7 v -3 h -7 v 3 h -7 v -3 h -7.65 v -3 h -3 v -6 h 3 v -6 h -3 v -6 h 82.000002 v -3 H 25.458108 l -3,-1.5 v -31.5 h 5"
         stroke="#191919"
         stroke-width="0.35 px"
         style="fill:none;fill-opacity:1;fill-rule:evenodd;stroke-width:0.1;stroke-linecap:square;stroke-miterlimit:4;stroke-dasharray:none;stroke:#ff0000;stroke-opacity:1" /><title
         id="title503-8">b'Body001_cs'</title></g><rect
       style="fill:#01ff00;stroke-width:0.1;stroke-linejoin:round;stroke-miterlimit:4.3;fill-opacity:1"
       id="rect720"
       width="300"
       height="62"
       x="90"
       y="41.5" /><rect
       style="fill:#00ff17;stroke-width:0.1;stroke-linejoin:round;stroke-miterlimit:4.3;fill-opacity:1"
       id="rect722"
       width="70"
       height="53"
       x="320"
       y="103.5" /><g
       id="Cut004_cs-3"
       transform="matrix(1,0,0,-1,189.68243,172.37163)"
       style="stroke:#ff0000;stroke-opacity:1;stroke-width:0.1;stroke-dasharray:none"><path
         id="Cut004_cs_w0000-5"
         d="m 10,-14 v -5 h 3 v -5 h 57 v 10 H 10"
         stroke="#191919"
         stroke-width="0.35 px"
         style="fill:none;fill-opacity:1;fill-rule:evenodd;stroke-width:0.1;stroke-linecap:square;stroke-miterlimit:4;stroke-dasharray:none;stroke:#ff0000;stroke-opacity:1" /><title
         id="title477-4">b'Cut004_cs'</title></g><rect
       style="fill:#00ff03;stroke-width:0.1;stroke-linejoin:round;stroke-miterlimit:4.3;stroke:none;stroke-opacity:1;stroke-dasharray:none;fill-opacity:1"
       id="rect808"
       width="7"
       height="78"
       x="108.5"
       y="33.5" /><path
       id="Cut_cs_w0004-3"
       style="fill:none;fill-opacity:1;fill-rule:evenodd;stroke:#ff0000;stroke-width:0.1;stroke-linecap:square;stroke-miterlimit:4;stroke-dasharray:none;stroke-opacity:1"
       d="m 87.156487,111.30936 m 0,0 0.003,0.10019 0.01,0.0997 0.0167,0.0988 0.0232,0.0975 0.0297,0.0957 0.036,0.0935 0.0422,0.0909 0.0482,0.0879 0.0539,0.0845 0.0595,0.0807 0.0647,0.0765 0.0697,0.0721 0.0743,0.0672 0.0787,0.0621 0.0827,0.0567 0.0863,0.0511 0.0895,0.0452 0.0923,0.0391 0.0947,0.0329 0.0967,0.0265 0.0982,0.02 0.0994,0.0134 0.10002,0.007 h 0.10025 l 0.10002,-0.007 0.0994,-0.0134 0.0982,-0.02 0.0967,-0.0265 0.0947,-0.0329 0.0923,-0.0391 0.0895,-0.0452 0.0863,-0.0511 0.0827,-0.0567 0.0787,-0.0621 0.0743,-0.0672 0.0697,-0.0721 0.0647,-0.0765 0.0595,-0.0807 0.0539,-0.0845 0.0482,-0.0879 0.0422,-0.0909 0.036,-0.0935 0.0297,-0.0957 0.0232,-0.0975 0.0167,-0.0988 0.01,-0.0997 0.003,-0.10019 -0.003,-0.10019 -0.01,-0.0997 -0.0167,-0.0988 -0.0232,-0.0975 -0.0297,-0.0957 -0.036,-0.0935 -0.0422,-0.0909 -0.0482,-0.0879 -0.0539,-0.0845 -0.0595,-0.0807 -0.0647,-0.0765 -0.0697,-0.0721 -0.0744,-0.0672 -0.0787,-0.0621 -0.0827,-0.0567 -0.0863,-0.0511 -0.0895,-0.0452 -0.0923,-0.0391 -0.0947,-0.0329 -0.0967,-0.0265 -0.0982,-0.02 -0.0994,-0.0134 -0.10002,-0.007 h -0.10025 l -0.10002,0.007 -0.0994,0.0134 -0.0982,0.02 -0.0967,0.0265 -0.0947,0.0329 -0.0923,0.0391 -0.0895,0.0452 -0.0863,0.0511 -0.0827,0.0567 -0.0787,0.0621 -0.0744,0.0672 -0.0697,0.0721 -0.0647,0.0765 -0.0595,0.0807 -0.0539,0.0845 -0.0482,0.0879 -0.0422,0.0909 -0.036,0.0935 -0.0297,0.0957 -0.0232,0.0975 -0.0167,0.0988 -0.01,0.0997 -0.003,0.10019 m 2e-4,58 m 0,0 0.003,0.10019 0.01,0.0997 0.0167,0.0988 0.0232,0.0975 0.0297,0.0957 0.036,0.0935 0.0422,0.0909 0.0482,0.0879 0.0539,0.0845 0.0595,0.0807 0.0647,0.0765 0.0697,0.0721 0.0743,0.0672 0.0787,0.0621 0.0827,0.0567 0.0863,0.0511 0.0895,0.0452 0.0923,0.0391 0.0947,0.0329 0.0967,0.0265 0.0982,0.02 0.0994,0.0134 0.10002,0.007 h 0.10025 l 0.10002,-0.007 0.0994,-0.0134 0.0982,-0.02 0.0967,-0.0265 0.0947,-0.0329 0.0923,-0.0391 0.0895,-0.0452 0.0863,-0.0511 0.0827,-0.0567 0.0787,-0.0621 0.0743,-0.0672 0.0697,-0.0721 0.0647,-0.0765 0.0595,-0.0807 0.0539,-0.0845 0.0482,-0.0879 0.0422,-0.0909 0.036,-0.0935 0.0297,-0.0957 0.0232,-0.0975 0.0167,-0.0988 0.01,-0.0997 0.003,-0.10019 -0.003,-0.10019 -0.01,-0.0997 -0.0167,-0.0989 -0.0232,-0.0975 -0.0297,-0.0957 -0.036,-0.0935 -0.0422,-0.0909 -0.0482,-0.0879 -0.0539,-0.0845 -0.0595,-0.0807 -0.0647,-0.0765 -0.0697,-0.0721 -0.0744,-0.0672 -0.0787,-0.0621 -0.0827,-0.0567 -0.0863,-0.0511 -0.0895,-0.0452 -0.0923,-0.0391 -0.0947,-0.0329 -0.0967,-0.0265 -0.0982,-0.02 -0.0994,-0.0134 -0.10002,-0.007 h -0.10025 l -0.10002,0.007 -0.0994,0.0134 -0.0982,0.02 -0.0967,0.0265 -0.0947,0.0329 -0.0923,0.0391 -0.0895,0.0452 -0.0863,0.0511 -0.0827,0.0567 -0.0787,0.0621 -0.0744,0.0672 -0.0697,0.0721 -0.0647,0.0765 -0.0595,0.0807 -0.0539,0.0845 -0.0482,0.0879 -0.0422,0.0909 -0.036,0.0935 -0.0297,0.0957 -0.0232,0.0975 -0.0167,0.0989 -0.01,0.0997 -0.003,0.10019 m 2.2504,-60.949 0.0966,0.0263 0.0961,0.0295 0.0951,0.0326 0.094,0.0362 0.0925,0.0388 0.0915,0.0419 0.0899,0.045 0.0884,0.0481 0.0868,0.0506 0.0853,0.0537 0.0832,0.0563 0.0811,0.0594 0.0796,0.062 0.077,0.0641 0.0749,0.0672 0.0729,0.0692 0.0708,0.0718 0.0677,0.0739 0.0656,0.076 0.0631,0.0785 0.0605,0.0806 0.0579,0.0822 0.0548,0.0842 0.0522,0.0858 0.0491,0.0879 0.0465,0.0894 0.0434,0.0904 0.0403,0.092 0.0377,0.0935 0.0341,0.0946 0.031,0.0956 0.0279,0.0966 0.0248,0.0977 0.0212,0.0982 0.0181,0.0987 0.015,0.0997 0.0119,0.0997 0.008,0.10025 0.005,0.10025 0.002,0.10077 -0.002,0.10025 -0.005,0.10077 -0.008,0.0997 -0.0119,0.10025 -0.015,0.0992 -0.0181,0.0987 -0.0212,0.0987 -0.0248,0.0971 -0.0279,0.0966 -0.031,0.0956 -0.0341,0.0946 -0.0377,0.0935 -0.0403,0.092 -0.0434,0.091 -0.0465,0.0889 -0.0491,0.0879 -0.0522,0.0858 -0.0548,0.0842 -0.0579,0.0827 -0.0605,0.0801 -0.0631,0.0786 -0.0656,0.076 -0.0677,0.0744 -0.0708,0.0713 -0.0729,0.0698 -0.0749,0.0667 -0.077,0.0646 -0.0796,0.0615 -0.0811,0.0594 -0.0832,0.0563 -0.0853,0.0537 -0.0868,0.0506 -0.0884,0.0481 -0.0899,0.045 -0.0915,0.0419 -0.0925,0.0393 -0.094,0.0357 -0.0951,0.0326 -0.0961,0.03 -0.0966,0.0263 v 52.10171 l 0.0966,0.0264 0.0961,0.0294 0.0951,0.0326 0.094,0.0362 0.0925,0.0388 0.0915,0.0419 0.0899,0.045 0.0884,0.0481 0.0868,0.0506 0.0853,0.0537 0.0832,0.0563 0.0811,0.0594 0.0796,0.062 0.077,0.0641 0.0749,0.0672 0.0729,0.0693 0.0708,0.0718 0.0677,0.0739 0.0656,0.076 0.0631,0.0785 0.0605,0.0806 0.0579,0.0822 0.0548,0.0842 0.0522,0.0858 0.0491,0.0879 0.0465,0.0889 0.0434,0.0909 0.0403,0.092 0.0377,0.0935 0.0341,0.0946 0.031,0.0956 0.0279,0.0966 0.0248,0.0977 0.0212,0.0982 0.0181,0.0987 0.015,0.0992 0.0119,0.10026 0.008,0.10025 0.005,0.10025 0.002,0.10077 -0.002,0.10025 -0.005,0.10025 -0.008,0.10026 -0.0119,0.10025 -0.015,0.0992 -0.0181,0.0987 -0.0212,0.0987 -0.0248,0.0971 -0.0279,0.0966 -0.031,0.0956 -0.0341,0.0946 -0.0377,0.0935 -0.0403,0.092 -0.0434,0.091 -0.0465,0.0889 -0.0491,0.0879 -0.0522,0.0858 -0.0548,0.0842 -0.0579,0.0827 -0.0605,0.0801 -0.0631,0.0785 -0.0656,0.076 -0.0677,0.0739 -0.0708,0.0718 -0.0729,0.0693 -0.0749,0.0672 -0.077,0.0646 -0.0796,0.0615 -0.0811,0.0594 -0.0832,0.0563 -0.0853,0.0537 -0.0868,0.0506 -0.0884,0.0481 -0.0899,0.045 -0.0915,0.0419 -0.0925,0.0388 -0.094,0.0362 -0.0951,0.0326 -0.0961,0.0295 -0.0966,0.0269 v 21.75059 h 24.130823 v 9.99993 h -4.78111 v -2.99982 h -8.999958 v 2.99982 h -8.999965 v -2.99982 h -9.99991 v 2.99982 h -3.00033 v -4.9997 h 3.00033 v -5.6503 h 2.99982 v -7.00009 h -2.99982 v -6.99957 h 2.99982 v -7.00009 h -2.99982 v -7.00009 h 2.99982 v -7.65018 h -2.99982 v -29.99972 h 2.99982 v -8.00003 h -2.99982 v -7.00009 h 2.99982 v -7.00008 h -2.99982 v -7.000094 h 2.99982 v -7.00009 h -2.99982 v -6.99958 h 2.99982 v -8.76303 l -0.3762,-2.6e-4 6.0265,-4.73717 v 8.17056 z" /><text
       xml:space="preserve"
       style="font-style:normal;font-weight:normal;font-size:3.52778px;line-height:1.25;font-family:sans-serif;fill:#d9d9d9;fill-opacity:1;stroke:none;stroke-width:0.264583"
       x="27.844112"
       y="109.44003"
       id="text3798"><tspan
         sodipodi:role="line"
         id="tspan3796"
         style="font-size:3.52778px;fill:#d9d9d9;fill-opacity:1;stroke-width:0.264583"
         x="27.844112"
         y="109.44003">TopPlate</tspan></text><text
       xml:space="preserve"
       style="font-style:normal;font-weight:normal;font-size:3.52778px;line-height:1.25;font-family:sans-serif;fill:#d9d9d9;fill-opacity:1;stroke:none;stroke-width:0.264583"
       x="-137.27069"
       y="-157.1084"
       id="text3798-6"
       transform="scale(-1)"><tspan
         sodipodi:role="line"
         id="tspan3796-5"
         style="font-size:3.52778px;fill:#d9d9d9;fill-opacity:1;stroke-width:0.264583"
         x="-137.27069"
         y="-157.1084">SideWall</tspan></text><text
       xml:space="preserve"
       style="font-style:normal;font-weight:normal;font-size:3.52778px;line-height:1.25;font-family:sans-serif;fill:#d9d9d9;fill-opacity:1;stroke:none;stroke-width:0.264583"
       x="-159.29341"
       y="-182.74254"
       id="text3798-6-5"
       transform="scale(-1)"><tspan
         sodipodi:role="line"
         id="tspan3796-5-7"
         style="font-size:3.52778px;fill:#d9d9d9;fill-opacity:1;stroke-width:0.264583"
         x="-159.29341"
         y="-182.74254">FrontWall</tspan></text><text
       xml:space="preserve"
       style="font-style:normal;font-weight:normal;font-size:3.52778px;line-height:1.25;font-family:sans-serif;fill:#d9d9d9;fill-opacity:1;stroke:none;stroke-width:0.264583"
       x="75.177834"
       y="-85.773415"
       id="text3798-6-7"
       transform="rotate(90)"><tspan
         sodipodi:role="line"
         id="tspan3796-5-70"
         style="font-size:3.52778px;fill:#d9d9d9;fill-opacity:1;stroke-width:0.264583"
         x="75.177834"
         y="-85.773415">BottomPlateHigh</tspan></text><text
       xml:space="preserve"
       style="font-style:normal;font-weight:normal;font-size:3.52778px;line-height:1.25;font-family:sans-serif;fill:#d9d9d9;fill-opacity:1;stroke:none;stroke-width:0.264583"
       x="125.24812"
       y="-72.792427"
       id="text3798-6-50"
       transform="rotate(90)"><tspan
         sodipodi:role="line"
         id="tspan3796-5-0"
         style="font-size:3.52778px;fill:#d9d9d9;fill-opacity:1;stroke-width:0.264583"
         x="125.24812"
         y="-72.792427">BottomPlateHigh</tspan></text><text
       xml:space="preserve"
       style="font-style:normal;font-weight:normal;font-size:3.52778px;line-height:1.25;font-family:sans-serif;fill:#d9d9d9;fill-opacity:1;stroke:none;stroke-width:0.264583"
       x="-308.20099"
       y="-174.73305"
       id="text3798-6-0"
       transform="scale(-1)"><tspan
         sodipodi:role="line"
         id="tspan3796-5-9"
         style="font-size:3.52778px;fill:#d9d9d9;fill-opacity:1;stroke-width:0.264583"
         x="-308.20099"
         y="-174.73305">SideWall</tspan></text><text
       xml:space="preserve"
       style="font-style:normal;font-weight:normal;font-size:3.52778px;line-height:1.25;font-family:sans-serif;fill:#d9d9d9;fill-opacity:1;stroke:none;stroke-width:0.264583"
       x="213.9416"
       y="193.00795"
       id="text3798-6-8"><tspan
         sodipodi:role="line"
         id="tspan3796-5-1"
         style="font-size:3.52778px;fill:#d9d9d9;fill-opacity:1;stroke-width:0.264583"
         x="213.9416"
         y="193.00795">OuterLevelConnector</tspan></text><text
       xml:space="preserve"
       style="font-style:normal;font-weight:normal;font-size:3.52778px;line-height:1.25;font-family:sans-serif;fill:#d9d9d9;fill-opacity:1;stroke:none;stroke-width:0.264583"
       x="213.82974"
       y="203.89348"
       id="text3798-6-72"><tspan
         sodipodi:role="line"
         id="tspan3796-5-04"
         style="font-size:3.52778px;fill:#d9d9d9;fill-opacity:1;stroke-width:0.264583"
         x="213.82974"
         y="203.89348">OuterLevelConnector</tspan></text><text
       xml:space="preserve"
       style="font-style:normal;font-weight:normal;font-size:3.52778px;line-height:1.25;font-family:sans-serif;fill:#d9d9d9;fill-opacity:1;stroke:none;stroke-width:0.264583"
       x="272.44986"
       y="116.1426"
       id="text3798-6-2"><tspan
         sodipodi:role="line"
         id="tspan3796-5-6"
         style="font-size:3.52778px;fill:#d9d9d9;fill-opacity:1;stroke-width:0.264583"
         x="272.44986"
         y="116.1426">BottomPlateLow</tspan></text><text
       xml:space="preserve"
       style="font-style:normal;font-weight:normal;font-size:3.52778px;line-height:1.25;font-family:sans-serif;fill:#d9d9d9;fill-opacity:1;stroke:none;stroke-width:0.264583"
       x="355.12274"
       y="166.11681"
       id="text3798-6-3"><tspan
         sodipodi:role="line"
         id="tspan3796-5-5"
         style="font-size:3.52778px;fill:#d9d9d9;fill-opacity:1;stroke-width:0.264583"
         x="355.12274"
         y="166.11681">BackWall</tspan></text></g></svg>
