<?xml version="1.0" encoding="UTF-8" standalone="no"?>
<!-- Created with Inkscape (http://www.inkscape.org/) -->

<svg
   width="210mm"
   height="126mm"
   viewBox="0 0 210 126"
   version="1.1"
   id="svg1"
   xml:space="preserve"
   inkscape:version="1.3 (0e150ed6c4, 2023-07-21)"
   sodipodi:docname="LaserFileTransparent.svg"
   xmlns:inkscape="http://www.inkscape.org/namespaces/inkscape"
   xmlns:sodipodi="http://sodipodi.sourceforge.net/DTD/sodipodi-0.dtd"
   xmlns="http://www.w3.org/2000/svg"
   xmlns:svg="http://www.w3.org/2000/svg"><sodipodi:namedview
     id="namedview1"
     pagecolor="#ffffff"
     bordercolor="#000000"
     borderopacity="0.25"
     inkscape:showpageshadow="2"
     inkscape:pageopacity="0.0"
     inkscape:pagecheckerboard="0"
     inkscape:deskcolor="#d1d1d1"
     inkscape:document-units="mm"
     inkscape:zoom="0.70110129"
     inkscape:cx="325.20265"
     inkscape:cy="300.24192"
     inkscape:window-width="1920"
     inkscape:window-height="1001"
     inkscape:window-x="-9"
     inkscape:window-y="-9"
     inkscape:window-maximized="1"
     inkscape:current-layer="layer1" /><defs
     id="defs1" /><g
     inkscape:label="Ebene 1"
     inkscape:groupmode="layer"
     id="layer1"><g
       id="Body001_cs"
       transform="matrix(0,1,1,0,26.421162,-8.8564164)"
       style="stroke:#ff0000;stroke-width:0.1;stroke-dasharray:none;stroke-opacity:1"><path
         id="Body001_cs_w0000"
         d="m 70,-19 h 3 v 5 H 45 v 72 h 25 v 12.15 h 3 v 10 h -3 v 10 h 3 v 10 h -3 v 10 h 3 v 10 h -3 v 12.15 h -8.830028 v -3 h -10 v 3 h -10 v -3 h -10 m 0,0 -0.0244,-0.0971 -0.02465,-0.097 -0.02489,-0.0969 -0.02514,-0.0969 -0.02538,-0.0968 -0.02563,-0.0967 -0.02587,-0.0967 -0.02612,-0.0966 -0.02636,-0.0965 -0.02661,-0.0965 -0.02685,-0.0964 -0.0271,-0.0963 -0.02734,-0.0963 -0.02758,-0.0962 -0.02783,-0.0961 -0.02807,-0.0961 -0.02831,-0.096 -0.02856,-0.0959 -0.0288,-0.0958 -0.02904,-0.0958 -0.02929,-0.0957 -0.02953,-0.0956 -0.02977,-0.0956 -0.03001,-0.0955 -0.03026,-0.0954 -0.0305,-0.0953 -0.03074,-0.0952 -0.03098,-0.0952 -0.03122,-0.0951 -0.03146,-0.095 -0.0317,-0.0949 -0.03194,-0.0948 -0.03218,-0.0948 -0.03242,-0.0947 -0.03266,-0.0946 -0.0329,-0.0945 -0.03314,-0.0944 -0.03338,-0.0943 -0.03362,-0.0943 -0.03386,-0.0942 -0.0341,-0.0941 -0.03433,-0.094 -0.03457,-0.0939 -0.03481,-0.0938 -0.03505,-0.0937 -0.03528,-0.0936 -0.03552,-0.0936 -0.03576,-0.0935 -0.036,-0.0934 -0.03623,-0.0933 -0.03647,-0.0932 -0.03671,-0.0931 -0.03694,-0.093 -0.03718,-0.0929 -0.03741,-0.0928 -0.03765,-0.0927 -0.03788,-0.0926 -0.03811,-0.0925 -0.03835,-0.0924 -0.03858,-0.0923 -0.03882,-0.0922 -0.03905,-0.0922 -0.03928,-0.092 -0.03952,-0.092 -0.03975,-0.0918 -0.03998,-0.0917 -0.04021,-0.0916 -0.04045,-0.0915 -0.04068,-0.0914 -0.04091,-0.0913 -0.04114,-0.0912 -0.04137,-0.0911 -0.0416,-0.091 -0.04183,-0.0909 -0.04206,-0.0908 -0.04229,-0.0907 -0.04252,-0.0906 -0.04275,-0.0905 -0.04298,-0.0904 -0.04321,-0.0903 -0.04344,-0.0902 -0.04367,-0.0901 -0.0439,-0.0899 -0.04412,-0.0898 -0.04435,-0.0897 -0.04458,-0.0896 -0.04481,-0.0895 -0.04503,-0.0894 -0.04526,-0.0893 -0.04548,-0.0892 -0.04571,-0.089 -0.04594,-0.0889 -0.04616,-0.0888 -0.04639,-0.0887 -0.04661,-0.0886 -0.04683,-0.0884 -0.04706,-0.0883 -0.04728,-0.0882 -0.04751,-0.0881 -0.04773,-0.088 -0.04795,-0.0878 -0.04817,-0.0877 -0.04839,-0.0876 -0.04862,-0.0875 -0.04884,-0.0874 -0.04906,-0.0872 -0.04928,-0.0871 -0.0495,-0.087 -0.04972,-0.0868 -0.04994,-0.0867 -0.05016,-0.0866 -0.05038,-0.0865 -0.0506,-0.0863 -0.05082,-0.0862 -0.05104,-0.0861 -0.05125,-0.086 -0.05147,-0.0858 -0.05169,-0.0857 -0.0519,-0.0856 -0.05212,-0.0854 -0.05234,-0.0853 -0.05255,-0.0852 -0.05277,-0.085 -0.05298,-0.0849 -0.0532,-0.0848 -0.05341,-0.0846 -0.05363,-0.0845 -0.05384,-0.0844 -0.05406,-0.0842 -0.05427,-0.0841 -0.05448,-0.084 -0.05469,-0.0838 -0.05491,-0.0837 -0.05512,-0.0835 -0.05533,-0.0834 -0.05554,-0.0832 -0.05575,-0.0831 -0.05596,-0.083 -0.05617,-0.0828 -0.05638,-0.0827 -0.05659,-0.0825 -0.0568,-0.0824 -0.05701,-0.0823 -0.05722,-0.0821 -0.05742,-0.082 -0.05763,-0.0818 -0.05784,-0.0817 -0.05805,-0.0815 -0.05825,-0.0814 -0.05846,-0.0812 -0.05866,-0.0811 -0.05887,-0.0809 -0.05907,-0.0808 -0.05928,-0.0806 -0.05948,-0.0805 -0.05969,-0.0803 -0.05989,-0.0802 -0.06009,-0.08 -0.0603,-0.0799 -0.0605,-0.0797 -0.0607,-0.0796 -0.0609,-0.0794 -0.0611,-0.0793 -0.0613,-0.0791 -0.0615,-0.0789 -0.0617,-0.0788 -0.0619,-0.0786 -0.0621,-0.0785 -0.0623,-0.0783 -0.0625,-0.0782 -0.0627,-0.078 -0.06289,-0.0778 -0.06309,-0.0777 -0.06329,-0.0775 -0.06348,-0.0774 -0.06368,-0.0772 -0.06387,-0.077 -0.06407,-0.0769 -0.06426,-0.0767 -0.06446,-0.0766 -0.06465,-0.0764 -0.06485,-0.0762 -0.06504,-0.0761 -0.06523,-0.0759 -0.06542,-0.0757 -0.06562,-0.0756 -0.06581,-0.0754 -0.066,-0.0752 -0.06619,-0.0751 -0.06638,-0.0749 -0.06657,-0.0747 -0.06676,-0.0746 -0.06694,-0.0744 -0.06713,-0.0742 -0.06732,-0.074 -0.06751,-0.0739 -0.0677,-0.0737 -0.06788,-0.0735 -0.06807,-0.0734 -0.06825,-0.0732 -0.06844,-0.073 -0.06862,-0.0729 -0.06881,-0.0727 -0.06899,-0.0725 -0.06917,-0.0723 -0.06936,-0.0721 -0.06954,-0.072 -0.06972,-0.0718 -0.0699,-0.0716 -0.07009,-0.0714 -0.07027,-0.0713 -0.07045,-0.0711 -0.07063,-0.0709 -0.07081,-0.0707 -0.07098,-0.0705 -0.07116,-0.0704 -0.07134,-0.0702 -0.07152,-0.07 -0.0717,-0.0698 -0.07187,-0.0696 -0.07205,-0.0695 -0.07222,-0.0693 -0.0724,-0.0691 -0.07257,-0.0689 -0.07275,-0.0687 -0.07292,-0.0685 -0.0731,-0.0684 -0.07327,-0.0682 -0.07344,-0.068 -0.07361,-0.0678 -0.07378,-0.0676 -0.07396,-0.0674 -0.07413,-0.0672 -0.0743,-0.067 -0.07447,-0.0669 -0.07464,-0.0667 -0.0748,-0.0665 -0.07497,-0.0663 -0.07514,-0.0661 -0.07531,-0.0659 -0.07547,-0.0657 -0.07564,-0.0655 -0.07581,-0.0653 -0.07597,-0.0652 -0.07614,-0.0649 -0.0763,-0.0648 -0.07647,-0.0646 -0.07663,-0.0644 -0.07679,-0.0642 -0.07695,-0.064 -0.07711,-0.0638 -0.07728,-0.0636 -0.07744,-0.0634 -0.0776,-0.0632 -0.07776,-0.063 -0.07792,-0.0628 -0.07807,-0.0626 -0.07823,-0.0624 -0.07839,-0.0622 -0.07855,-0.062 -0.07871,-0.0618 -0.07886,-0.0616 -0.07902,-0.0614 -0.07917,-0.0612 -0.07933,-0.061 -0.07948,-0.0608 -0.07964,-0.0606 -0.07979,-0.0604 -0.07994,-0.0602 -0.0801,-0.06 -0.08025,-0.0598 -0.0804,-0.0596 -0.08055,-0.0594 -0.0807,-0.0592 -0.08085,-0.059 -0.081,-0.0588 -0.08115,-0.0586 -0.08129,-0.0584 -0.08144,-0.0582 -0.08159,-0.058 -0.08174,-0.0577 -0.08188,-0.0575 -0.08203,-0.0573 -0.08217,-0.0571 -0.08232,-0.0569 -0.08246,-0.0567 -0.0826,-0.0565 -0.08275,-0.0563 -0.08289,-0.0561 -0.08303,-0.0559 -0.08317,-0.0557 -0.08331,-0.0555 -0.08345,-0.0552 -0.08359,-0.055 -0.08373,-0.0548 -0.08387,-0.0546 -0.08401,-0.0544 -0.08415,-0.0542 -0.08428,-0.054 -0.08442,-0.0537 -0.08456,-0.0535 -0.08469,-0.0533 -0.08483,-0.0531 -0.08496,-0.0529 -0.0851,-0.0527 -0.08523,-0.0525 -0.08536,-0.0522 -0.08549,-0.052 -0.08562,-0.0518 -0.08575,-0.0516 -0.08588,-0.0514 -0.08601,-0.0511 -0.08614,-0.0509 -0.08627,-0.0507 -0.0864,-0.0505 -0.08653,-0.0503 -0.08666,-0.0501 -0.08678,-0.0498 -0.08691,-0.0496 -0.08703,-0.0494 -0.08716,-0.0492 -0.08728,-0.049 -0.08741,-0.0487 -0.08753,-0.0485 -0.08765,-0.0483 -0.08778,-0.0481 -0.0879,-0.0478 -0.08802,-0.0476 -0.08814,-0.0474 -0.08826,-0.0472 -0.08838,-0.0469 -0.08849,-0.0467 -0.08861,-0.0465 -0.08873,-0.0463 -0.08885,-0.0461 -0.08896,-0.0458 -0.08908,-0.0456 -0.0892,-0.0454 -0.08931,-0.0452 -0.08942,-0.0449 -0.08954,-0.0447 -0.08965,-0.0445 -0.08976,-0.0442 -0.08987,-0.044 -0.08999,-0.0438 L 10,103.3 v -8 h 3 v -7 h -3 v -7 h 3 v -7 h -3 v -7 h 3 v -7 h -3 v -8 h 19 v -30 H 10 v -7.65 h 3 v -7 h -3 v -7 h 3 v -7 h -3 v -7 h 3 V -21 h 3 v -3 h 6 v 3 h 6 v -3 h 6 v 82 h 3 v -79 l 1.5,-3 H 70 v 5"
         stroke="#191919"
         stroke-width="0.35 px"
         style="fill:none;fill-opacity:1;fill-rule:evenodd;stroke:#ff0000;stroke-width:0.1;stroke-linecap:square;stroke-miterlimit:4;stroke-dasharray:none;stroke-opacity:1" /><title
         id="title1">b'Body001_cs'</title></g><g
       id="Body001_cs-2"
       transform="matrix(0,-1,-1,0,134.56504,135.25325)"
       style="stroke:#ff0000;stroke-width:0.1;stroke-dasharray:none;stroke-opacity:1"><path
         id="Body001_cs_w0000-7"
         d="m 70,-19 h 3 v 5 H 45 v 72 h 25 v 12.15 h 3 v 10 h -3 v 10 h 3 v 10 h -3 v 10 h 3 v 10 h -3 v 12.15 h -8.830028 v -3 h -10 v 3 h -10 v -3 h -10 m 0,0 -0.0244,-0.0971 -0.02465,-0.097 -0.02489,-0.0969 -0.02514,-0.0969 -0.02538,-0.0968 -0.02563,-0.0967 -0.02587,-0.0967 -0.02612,-0.0966 -0.02636,-0.0965 -0.02661,-0.0965 -0.02685,-0.0964 -0.0271,-0.0963 -0.02734,-0.0963 -0.02758,-0.0962 -0.02783,-0.0961 -0.02807,-0.0961 -0.02831,-0.096 -0.02856,-0.0959 -0.0288,-0.0958 -0.02904,-0.0958 -0.02929,-0.0957 -0.02953,-0.0956 -0.02977,-0.0956 -0.03001,-0.0955 -0.03026,-0.0954 -0.0305,-0.0953 -0.03074,-0.0952 -0.03098,-0.0952 -0.03122,-0.0951 -0.03146,-0.095 -0.0317,-0.0949 -0.03194,-0.0948 -0.03218,-0.0948 -0.03242,-0.0947 -0.03266,-0.0946 -0.0329,-0.0945 -0.03314,-0.0944 -0.03338,-0.0943 -0.03362,-0.0943 -0.03386,-0.0942 -0.0341,-0.0941 -0.03433,-0.094 -0.03457,-0.0939 -0.03481,-0.0938 -0.03505,-0.0937 -0.03528,-0.0936 -0.03552,-0.0936 -0.03576,-0.0935 -0.036,-0.0934 -0.03623,-0.0933 -0.03647,-0.0932 -0.03671,-0.0931 -0.03694,-0.093 -0.03718,-0.0929 -0.03741,-0.0928 -0.03765,-0.0927 -0.03788,-0.0926 -0.03811,-0.0925 -0.03835,-0.0924 -0.03858,-0.0923 -0.03882,-0.0922 -0.03905,-0.0922 -0.03928,-0.092 -0.03952,-0.092 -0.03975,-0.0918 -0.03998,-0.0917 -0.04021,-0.0916 -0.04045,-0.0915 -0.04068,-0.0914 -0.04091,-0.0913 -0.04114,-0.0912 -0.04137,-0.0911 -0.0416,-0.091 -0.04183,-0.0909 -0.04206,-0.0908 -0.04229,-0.0907 -0.04252,-0.0906 -0.04275,-0.0905 -0.04298,-0.0904 -0.04321,-0.0903 -0.04344,-0.0902 -0.04367,-0.0901 -0.0439,-0.0899 -0.04412,-0.0898 -0.04435,-0.0897 -0.04458,-0.0896 -0.04481,-0.0895 -0.04503,-0.0894 -0.04526,-0.0893 -0.04548,-0.0892 -0.04571,-0.089 -0.04594,-0.0889 -0.04616,-0.0888 -0.04639,-0.0887 -0.04661,-0.0886 -0.04683,-0.0884 -0.04706,-0.0883 -0.04728,-0.0882 -0.04751,-0.0881 -0.04773,-0.088 -0.04795,-0.0878 -0.04817,-0.0877 -0.04839,-0.0876 -0.04862,-0.0875 -0.04884,-0.0874 -0.04906,-0.0872 -0.04928,-0.0871 -0.0495,-0.087 -0.04972,-0.0868 -0.04994,-0.0867 -0.05016,-0.0866 -0.05038,-0.0865 -0.0506,-0.0863 -0.05082,-0.0862 -0.05104,-0.0861 -0.05125,-0.086 -0.05147,-0.0858 -0.05169,-0.0857 -0.0519,-0.0856 -0.05212,-0.0854 -0.05234,-0.0853 -0.05255,-0.0852 -0.05277,-0.085 -0.05298,-0.0849 -0.0532,-0.0848 -0.05341,-0.0846 -0.05363,-0.0845 -0.05384,-0.0844 -0.05406,-0.0842 -0.05427,-0.0841 -0.05448,-0.084 -0.05469,-0.0838 -0.05491,-0.0837 -0.05512,-0.0835 -0.05533,-0.0834 -0.05554,-0.0832 -0.05575,-0.0831 -0.05596,-0.083 -0.05617,-0.0828 -0.05638,-0.0827 -0.05659,-0.0825 -0.0568,-0.0824 -0.05701,-0.0823 -0.05722,-0.0821 -0.05742,-0.082 -0.05763,-0.0818 -0.05784,-0.0817 -0.05805,-0.0815 -0.05825,-0.0814 -0.05846,-0.0812 -0.05866,-0.0811 -0.05887,-0.0809 -0.05907,-0.0808 -0.05928,-0.0806 -0.05948,-0.0805 -0.05969,-0.0803 -0.05989,-0.0802 -0.06009,-0.08 -0.0603,-0.0799 -0.0605,-0.0797 -0.0607,-0.0796 -0.0609,-0.0794 -0.0611,-0.0793 -0.0613,-0.0791 -0.0615,-0.0789 -0.0617,-0.0788 -0.0619,-0.0786 -0.0621,-0.0785 -0.0623,-0.0783 -0.0625,-0.0782 -0.0627,-0.078 -0.06289,-0.0778 -0.06309,-0.0777 -0.06329,-0.0775 -0.06348,-0.0774 -0.06368,-0.0772 -0.06387,-0.077 -0.06407,-0.0769 -0.06426,-0.0767 -0.06446,-0.0766 -0.06465,-0.0764 -0.06485,-0.0762 -0.06504,-0.0761 -0.06523,-0.0759 -0.06542,-0.0757 -0.06562,-0.0756 -0.06581,-0.0754 -0.066,-0.0752 -0.06619,-0.0751 -0.06638,-0.0749 -0.06657,-0.0747 -0.06676,-0.0746 -0.06694,-0.0744 -0.06713,-0.0742 -0.06732,-0.074 -0.06751,-0.0739 -0.0677,-0.0737 -0.06788,-0.0735 -0.06807,-0.0734 -0.06825,-0.0732 -0.06844,-0.073 -0.06862,-0.0729 -0.06881,-0.0727 -0.06899,-0.0725 -0.06917,-0.0723 -0.06936,-0.0721 -0.06954,-0.072 -0.06972,-0.0718 -0.0699,-0.0716 -0.07009,-0.0714 -0.07027,-0.0713 -0.07045,-0.0711 -0.07063,-0.0709 -0.07081,-0.0707 -0.07098,-0.0705 -0.07116,-0.0704 -0.07134,-0.0702 -0.07152,-0.07 -0.0717,-0.0698 -0.07187,-0.0696 -0.07205,-0.0695 -0.07222,-0.0693 -0.0724,-0.0691 -0.07257,-0.0689 -0.07275,-0.0687 -0.07292,-0.0685 -0.0731,-0.0684 -0.07327,-0.0682 -0.07344,-0.068 -0.07361,-0.0678 -0.07378,-0.0676 -0.07396,-0.0674 -0.07413,-0.0672 -0.0743,-0.067 -0.07447,-0.0669 -0.07464,-0.0667 -0.0748,-0.0665 -0.07497,-0.0663 -0.07514,-0.0661 -0.07531,-0.0659 -0.07547,-0.0657 -0.07564,-0.0655 -0.07581,-0.0653 -0.07597,-0.0652 -0.07614,-0.0649 -0.0763,-0.0648 -0.07647,-0.0646 -0.07663,-0.0644 -0.07679,-0.0642 -0.07695,-0.064 -0.07711,-0.0638 -0.07728,-0.0636 -0.07744,-0.0634 -0.0776,-0.0632 -0.07776,-0.063 -0.07792,-0.0628 -0.07807,-0.0626 -0.07823,-0.0624 -0.07839,-0.0622 -0.07855,-0.062 -0.07871,-0.0618 -0.07886,-0.0616 -0.07902,-0.0614 -0.07917,-0.0612 -0.07933,-0.061 -0.07948,-0.0608 -0.07964,-0.0606 -0.07979,-0.0604 -0.07994,-0.0602 -0.0801,-0.06 -0.08025,-0.0598 -0.0804,-0.0596 -0.08055,-0.0594 -0.0807,-0.0592 -0.08085,-0.059 -0.081,-0.0588 -0.08115,-0.0586 -0.08129,-0.0584 -0.08144,-0.0582 -0.08159,-0.058 -0.08174,-0.0577 -0.08188,-0.0575 -0.08203,-0.0573 -0.08217,-0.0571 -0.08232,-0.0569 -0.08246,-0.0567 -0.0826,-0.0565 -0.08275,-0.0563 -0.08289,-0.0561 -0.08303,-0.0559 -0.08317,-0.0557 -0.08331,-0.0555 -0.08345,-0.0552 -0.08359,-0.055 -0.08373,-0.0548 -0.08387,-0.0546 -0.08401,-0.0544 -0.08415,-0.0542 -0.08428,-0.054 -0.08442,-0.0537 -0.08456,-0.0535 -0.08469,-0.0533 -0.08483,-0.0531 -0.08496,-0.0529 -0.0851,-0.0527 -0.08523,-0.0525 -0.08536,-0.0522 -0.08549,-0.052 -0.08562,-0.0518 -0.08575,-0.0516 -0.08588,-0.0514 -0.08601,-0.0511 -0.08614,-0.0509 -0.08627,-0.0507 -0.0864,-0.0505 -0.08653,-0.0503 -0.08666,-0.0501 -0.08678,-0.0498 -0.08691,-0.0496 -0.08703,-0.0494 -0.08716,-0.0492 -0.08728,-0.049 -0.08741,-0.0487 -0.08753,-0.0485 -0.08765,-0.0483 -0.08778,-0.0481 -0.0879,-0.0478 -0.08802,-0.0476 -0.08814,-0.0474 -0.08826,-0.0472 -0.08838,-0.0469 -0.08849,-0.0467 -0.08861,-0.0465 -0.08873,-0.0463 -0.08885,-0.0461 -0.08896,-0.0458 -0.08908,-0.0456 -0.0892,-0.0454 -0.08931,-0.0452 -0.08942,-0.0449 -0.08954,-0.0447 -0.08965,-0.0445 -0.08976,-0.0442 -0.08987,-0.044 -0.08999,-0.0438 L 10,103.3 v -8 h 3 v -7 h -3 v -7 h 3 v -7 h -3 v -7 h 3 v -7 h -3 v -8 h 19 v -30 H 10 v -7.65 h 3 v -7 h -3 v -7 h 3 v -7 h -3 v -7 h 3 V -21 h 3 v -3 h 6 v 3 h 6 v -3 h 6 v 82 h 3 v -79 l 1.5,-3 H 70 v 5"
         stroke="#191919"
         stroke-width="0.35 px"
         style="fill:none;fill-opacity:1;fill-rule:evenodd;stroke:#ff0000;stroke-width:0.1;stroke-linecap:square;stroke-miterlimit:4;stroke-dasharray:none;stroke-opacity:1" /><title
         id="title1-7">b'Body001_cs'</title></g></g></svg>
