<?xml version="1.0" encoding="UTF-8" standalone="no"?>
<!-- Created with Inkscape (http://www.inkscape.org/) -->

<svg
   width="560mm"
   height="300mm"
   viewBox="0 0 560 300"
   version="1.1"
   id="svg1"
   xml:space="preserve"
   inkscape:version="1.3 (0e150ed6c4, 2023-07-21)"
   sodipodi:docname="LaserFile2.svg"
   xmlns:inkscape="http://www.inkscape.org/namespaces/inkscape"
   xmlns:sodipodi="http://sodipodi.sourceforge.net/DTD/sodipodi-0.dtd"
   xmlns="http://www.w3.org/2000/svg"
   xmlns:svg="http://www.w3.org/2000/svg"><sodipodi:namedview
     id="namedview1"
     pagecolor="#ffffff"
     bordercolor="#000000"
     borderopacity="0.25"
     inkscape:showpageshadow="2"
     inkscape:pageopacity="0.0"
     inkscape:pagecheckerboard="0"
     inkscape:deskcolor="#d1d1d1"
     inkscape:document-units="mm"
     inkscape:zoom="0.35055065"
     inkscape:cx="918.55486"
     inkscape:cy="183.99624"
     inkscape:window-width="1920"
     inkscape:window-height="1001"
     inkscape:window-x="-9"
     inkscape:window-y="-9"
     inkscape:window-maximized="1"
     inkscape:current-layer="layer1"
     showguides="true" /><defs
     id="defs1" /><g
     inkscape:label="Ebene 1"
     inkscape:groupmode="layer"
     id="layer1"><g
       id="Cut003_cs"
       transform="rotate(180,188.43198,32.779969)"
       style="stroke:#ff0000;stroke-width:0.1;stroke-dasharray:none;stroke-opacity:1"><path
         id="Cut003_cs_w0000"
         d="m -22.5,-10 h -10 v -6 h 3 v -6 h -3 v -6 h 3 v -6 h 59 v 3 h -11 v 18 h -5 v 3 h -9 v -3 h -9 v 3 h -9 v -3 h -9 v 3"
         stroke="#191919"
         stroke-width="0.35 px"
         style="fill:none;fill-opacity:1;fill-rule:evenodd;stroke:#ff0000;stroke-width:0.1;stroke-linecap:square;stroke-miterlimit:4;stroke-dasharray:none;stroke-opacity:1" /><title
         id="title1">b'Cut003_cs'</title></g><g
       id="Box009_cs"
       transform="matrix(0,-1,-1,0,345.40298,134.5699)"
       style="stroke:#ff0000;stroke-width:0.1;stroke-dasharray:none;stroke-opacity:1"><path
         id="Box009_cs_w0000"
         d="m 32.5,-24 h -65 v 21.6 h 65 V -24"
         stroke="#191919"
         stroke-width="0.35 px"
         style="fill:none;fill-opacity:1;fill-rule:evenodd;stroke:#ff0000;stroke-width:0.1;stroke-linecap:square;stroke-miterlimit:4;stroke-dasharray:none;stroke-opacity:1" /><title
         id="title1-4">b'Box009_cs'</title></g><g
       id="Cut_cs"
       transform="matrix(-0.99999112,-0.00421522,-0.00421522,0.99999112,165.08364,93.886699)"
       inkscape:transform-center-x="35.674944"
       inkscape:transform-center-y="66.717302"
       style="stroke:#ff0000;stroke-width:0.1;stroke-dasharray:none;stroke-opacity:1"><path
         id="Cut_cs_w0000"
         d="m -23.85,71.649152 m 0,0 0.0982,-0.02002 0.09748,-0.02329 0.09664,-0.02653 0.0957,-0.02974 0.09466,-0.03292 0.09351,-0.03607 0.09225,-0.03917 0.09089,-0.04223 0.08943,-0.04524 0.08787,-0.0482 0.08621,-0.05111 0.08445,-0.05396 0.0826,-0.05675 0.08066,-0.05948 0.07863,-0.06214 0.07651,-0.06473 0.0743,-0.06725 0.07202,-0.06969 0.06965,-0.07206 0.0672,-0.07435 0.06468,-0.07655 0.06209,-0.07867 0.05943,-0.0807 0.0567,-0.08264 0.05391,-0.08449 0.05106,-0.08624 0.04815,-0.0879 0.04518,-0.08946 0.04217,-0.09091 0.03911,-0.09227 0.03601,-0.09353 0.03286,-0.09468 0.02968,-0.09572 0.02647,-0.09666 0.02322,-0.09749 0.01995,-0.09821 0.01666,-0.09882 0.01335,-0.09932 0.01003,-0.09972 0.0067,-0.09999 0.0033,-0.100163 v -0.100218 l -0.0033,-0.100163 -0.0067,-0.1 -0.01003,-0.09971 -0.01335,-0.09933 -0.01666,-0.09882 -0.01995,-0.09821 -0.02322,-0.09749 -0.02647,-0.09666 -0.02968,-0.09572 -0.03286,-0.09468 -0.03601,-0.09353 -0.03911,-0.09227 -0.04217,-0.09091 -0.04518,-0.08946 -0.04815,-0.0879 -0.05106,-0.08624 -0.05391,-0.08449 -0.0567,-0.08264 -0.05943,-0.0807 -0.06209,-0.07867 -0.06468,-0.07655 -0.0672,-0.07435 -0.06965,-0.07206 -0.07202,-0.06969 -0.0743,-0.06725 -0.07651,-0.06473 -0.07863,-0.06214 -0.08066,-0.05948 -0.0826,-0.05675 -0.08445,-0.05396 -0.08621,-0.05111 -0.08787,-0.0482 -0.08943,-0.04524 -0.09089,-0.04223 -0.09225,-0.03917 -0.09351,-0.03606 -0.09466,-0.03292 -0.0957,-0.02974 -0.09664,-0.02653 -0.09748,-0.02329 -0.0982,-0.02002 V 13.649152 m 0,0 0.0982,-0.02002 0.09748,-0.02329 0.09664,-0.02653 0.0957,-0.02974 0.09466,-0.03292 0.09351,-0.03607 0.09225,-0.03917 0.09089,-0.04223 0.08943,-0.04524 0.08787,-0.0482 0.08621,-0.05111 0.08445,-0.05396 0.0826,-0.05675 0.08066,-0.05948 0.07863,-0.06214 0.07651,-0.06473 0.0743,-0.06725 0.07202,-0.06969 0.06965,-0.07206 0.0672,-0.07435 0.06468,-0.07655 0.06209,-0.07867 0.05943,-0.0807 0.0567,-0.08264 0.05391,-0.08449 0.05106,-0.08624 0.04815,-0.0879 0.04518,-0.08946 0.04217,-0.09091 0.03911,-0.09227 0.03601,-0.09353 0.03286,-0.09468 0.02968,-0.09572 0.02647,-0.09666 0.02322,-0.09749 0.01995,-0.09821 0.01666,-0.09882 0.01335,-0.09933 0.01003,-0.09971 0.0067,-0.09999 0.0033,-0.100163 v -0.100218 l -0.0033,-0.100163 -0.0067,-0.09999 -0.01003,-0.09971 -0.01335,-0.09933 -0.01666,-0.09882 -0.01995,-0.09821 -0.02322,-0.09749 -0.02647,-0.096661 -0.02968,-0.095723 -0.03286,-0.094678 -0.03601,-0.093527 -0.03911,-0.092272 -0.04217,-0.090915 -0.04518,-0.089455 -0.04815,-0.087896 -0.05106,-0.086239 -0.05391,-0.084486 -0.0567,-0.082638 -0.05943,-0.080698 -0.06209,-0.078668 -0.06468,-0.07655 -0.0672,-0.074347 -0.06965,-0.072061 -0.07202,-0.069695 -0.0743,-0.06725 L -22.50082,8.377668 -22.57945,8.315529 -22.66011,8.256051 -22.74271,8.1993 -22.82716,8.14534 -22.91337,8.094231 -23.00124,8.04603 -23.09067,8.000791 -23.18156,7.958564 -23.27381,7.919396 -23.36732,7.883331 -23.46198,7.85041 -23.55768,7.820669 -23.65432,7.794141 -23.7518,7.770856 -23.85,7.75084 V -14 h 47.7 V 7.7508476 m 0,0 -0.09703,0.026388 -0.0961,0.02958 -0.09507,0.032738 -0.09394,0.035862 -0.0927,0.038946 -0.09136,0.041987 -0.08993,0.044983 -0.08839,0.047929 -0.08676,0.050823 -0.08503,0.053662 -0.08321,0.056442 -0.0813,0.05916 -0.07931,0.061814 -0.07722,0.0644 -0.07505,0.066916 -0.0728,0.069359 -0.07047,0.071727 -0.06806,0.074015 -0.06558,0.076224 -0.06302,0.078348 -0.0604,0.080388 -0.05771,0.082339 -0.05496,0.084201 -0.05215,0.085971 -0.04928,0.087647 -0.04635,0.089227 -0.04338,0.09071 -0.04036,0.092093 -0.0373,0.093376 -0.03419,0.094558 -0.03105,0.095636 -0.02787,0.096609 -0.02466,0.097477 -0.02143,0.09824 -0.01817,0.09889 -0.0149,0.09944 -0.0116,0.09988 -0.0083,0.100206 -0.005,0.100426 -0.0017,0.100536 0.0017,0.100536 0.005,0.100426 0.0083,0.100206 0.0116,0.09988 0.0149,0.09944 0.01817,0.09889 0.02143,0.09824 0.02466,0.09748 0.02787,0.09661 0.03105,0.09564 0.03419,0.09456 0.0373,0.09338 0.04036,0.09209 0.04338,0.09071 0.04635,0.08923 0.04928,0.08765 0.05215,0.08597 0.05496,0.0842 0.05771,0.08234 0.0604,0.08039 0.06302,0.07835 0.06558,0.07622 0.06806,0.07402 0.07047,0.07173 0.0728,0.06936 0.07505,0.06692 0.07722,0.0644 0.07931,0.06181 0.0813,0.05916 0.08321,0.05644 0.08503,0.05366 0.08676,0.05082 0.08839,0.04793 0.08993,0.04498 0.09136,0.04199 0.0927,0.03895 0.09394,0.03586 0.09507,0.03274 0.0961,0.02958 0.09703,0.02639 v 52.101696 m 0,0 -0.09703,0.02639 -0.0961,0.02958 -0.09507,0.03274 -0.09394,0.03586 -0.0927,0.03894 -0.09136,0.04199 -0.08993,0.04498 -0.08839,0.04793 -0.08676,0.05082 -0.08503,0.05366 -0.08321,0.05644 -0.0813,0.05916 -0.07931,0.06181 -0.07722,0.0644 -0.07505,0.06692 -0.0728,0.06936 -0.07047,0.07173 -0.06806,0.07402 -0.06558,0.07622 -0.06302,0.07835 -0.0604,0.08039 -0.05771,0.08234 -0.05496,0.0842 -0.05215,0.08597 -0.04928,0.08765 -0.04635,0.08923 -0.04338,0.09071 -0.04036,0.09209 -0.0373,0.09338 -0.03419,0.09456 -0.03105,0.09564 -0.02787,0.09661 -0.02466,0.09748 -0.02143,0.09824 -0.01817,0.09889 -0.0149,0.09944 -0.0116,0.09988 -0.0083,0.100206 -0.005,0.100426 -0.0017,0.100536 0.0017,0.100536 0.005,0.100426 0.0083,0.100206 0.0116,0.09988 0.0149,0.09944 0.01817,0.09889 0.02143,0.09824 0.02466,0.09748 0.02787,0.09661 0.03105,0.09564 0.03419,0.09456 0.0373,0.09338 0.04036,0.09209 0.04338,0.09071 0.04635,0.08923 0.04928,0.08765 0.05215,0.08597 0.05496,0.0842 0.05771,0.08234 0.0604,0.08039 0.06302,0.07835 0.06558,0.07622 0.06806,0.07402 0.07047,0.07173 0.0728,0.06936 0.07505,0.06692 0.07722,0.0644 0.07931,0.06181 0.0813,0.05916 0.08321,0.05644 0.08503,0.05366 0.08676,0.05082 0.08839,0.04793 0.08993,0.04498 0.09136,0.04199 0.0927,0.03894 0.09394,0.03586 0.09507,0.03274 0.0961,0.02958 0.09703,0.02639 v 37.150849 l 6.026051,-4.73724 H 29.5 v -8.762761 h 3 v -7 h -3 v -7 h 3 v -7 h -3 v -7 h 3 v -7 h -3 v -8 h 3 v -30 h -3 v -7.65 h 3 V 7.6500586 h -3 v -7 h 3 v -7 h -3 v -6.9999996 h 3 V -19 h 3 v -5 h -3 v 3 h -10 v -3 h -9 v 3 h -9 v -3 h -9 v 3 h -9 v -3 h -9 v 3 h -10 v -3 h -3 v 5 h 3 v 5.65 h 3 v 7 h -3 v 7 h 3 v 7 h -3 v 7 h 3 v 7.65 h -3 v 30 h 3 v 8 h -3 v 7 h 3 v 7 h -3 v 7 h 3 v 7 h -3 v 7 h 3 v 8.76276 h -0.376051 L -23.85,108.8 V 71.649152"
         stroke="#191919"
         stroke-width="0.35 px"
         style="fill:none;fill-opacity:1;fill-rule:evenodd;stroke:#ff0000;stroke-width:0.1;stroke-linecap:square;stroke-miterlimit:4;stroke-dasharray:none;stroke-opacity:1" /><path
         id="Cut_cs_w0001"
         d="m -22.9,10.7 m 0,0 -0.0034,-0.100189 -0.01003,-0.09974 -0.01667,-0.09885 -0.02324,-0.09751 -0.0297,-0.09574 -0.03603,-0.09355 -0.0422,-0.09093 -0.04818,-0.08791 -0.05394,-0.084496 -0.05946,-0.080704 -0.06472,-0.076552 -0.06969,-0.072058 -0.07435,-0.067243 -0.07867,-0.062127 -0.08265,-0.056733 -0.08625,-0.051087 -0.08947,-0.045211 -0.09229,-0.039135 -0.0947,-0.032883 -0.09668,-0.026484 -0.09824,-0.019967 -0.09935,-0.013361 -0.100022,-0.0067 h -0.100244 l -0.100022,0.0067 -0.09935,0.013361 -0.09824,0.019967 -0.09668,0.026484 -0.0947,0.032883 -0.09229,0.039135 -0.08947,0.045211 -0.08625,0.051087 -0.08265,0.056733 -0.07867,0.062127 -0.07435,0.067243 -0.06969,0.072058 -0.06472,0.076552 -0.05946,0.080704 -0.05394,0.084496 -0.04818,0.08791 -0.0422,0.09093 -0.03603,0.09355 -0.0297,0.09574 -0.02324,0.09751 -0.01667,0.09885 -0.01003,0.09974 L -25.9,10.7 l 0.0033,0.100189 0.01003,0.09974 0.01667,0.09885 0.02324,0.09751 0.0297,0.09574 0.03603,0.09355 0.0422,0.09093 0.04818,0.08791 0.05394,0.0845 0.05946,0.0807 0.06472,0.07655 0.06969,0.07206 0.07435,0.06724 0.07867,0.06213 0.08265,0.05673 0.08625,0.05109 0.08947,0.04521 0.09229,0.03913 0.0947,0.03288 0.09668,0.02648 0.09824,0.01997 0.09935,0.01336 0.100022,0.0067 h 0.100244 l 0.100022,-0.0067 0.09935,-0.01336 0.09824,-0.01997 0.09668,-0.02648 0.0947,-0.03288 0.09229,-0.03913 0.08947,-0.04521 0.08625,-0.05109 0.08265,-0.05673 0.07867,-0.06213 0.07435,-0.06724 0.06969,-0.07206 0.06472,-0.07655 0.05946,-0.0807 0.05394,-0.0845 0.04818,-0.08791 0.0422,-0.09093 0.03603,-0.09355 0.0297,-0.09574 0.02324,-0.09751 0.01667,-0.09885 0.01003,-0.09974 L -22.9,10.7"
         stroke="#191919"
         stroke-width="0.35 px"
         style="fill:none;fill-opacity:1;fill-rule:evenodd;stroke:#ff0000;stroke-width:0.1;stroke-linecap:square;stroke-miterlimit:4;stroke-dasharray:none;stroke-opacity:1" /><path
         id="Cut_cs_w0002"
         d="m 26.1,10.7 m 0,0 -0.0034,-0.100189 -0.01003,-0.09974 -0.01667,-0.09885 -0.02324,-0.09751 -0.0297,-0.09574 -0.03603,-0.09355 -0.0422,-0.09093 L 25.89055,9.935581 25.83661,9.851085 25.77715,9.770381 25.71243,9.693829 25.64274,9.621771 25.56839,9.554528 25.48972,9.492401 25.40707,9.435668 25.32082,9.384581 25.23135,9.33937 25.13906,9.300235 25.04436,9.267352 24.94768,9.240868 24.84944,9.220901 24.75009,9.20754 24.650068,9.20084 h -0.100244 l -0.100022,0.0067 -0.09935,0.013361 -0.09824,0.019967 -0.09668,0.026484 -0.0947,0.032883 -0.09229,0.039135 -0.08947,0.045211 -0.08625,0.051087 -0.08265,0.056733 -0.07867,0.062127 -0.07435,0.067243 -0.06969,0.072058 -0.06472,0.076552 -0.05946,0.080704 -0.05394,0.084496 -0.04818,0.08791 -0.0422,0.09093 -0.03603,0.09355 -0.0297,0.09574 -0.02324,0.09751 -0.01667,0.09885 -0.01003,0.09974 L 23.1,10.7 l 0.0033,0.100189 0.01003,0.09974 0.01667,0.09885 0.02324,0.09751 0.0297,0.09574 0.03603,0.09355 0.0422,0.09093 0.04818,0.08791 0.05394,0.0845 0.05946,0.0807 0.06472,0.07655 0.06969,0.07206 0.07435,0.06724 0.07867,0.06213 0.08265,0.05673 0.08625,0.05109 0.08947,0.04521 0.09229,0.03913 0.0947,0.03288 0.09668,0.02648 0.09824,0.01997 0.09935,0.01336 0.100022,0.0067 h 0.100244 l 0.100022,-0.0067 0.09935,-0.01336 0.09824,-0.01997 0.09668,-0.02648 0.0947,-0.03288 0.09229,-0.03913 0.08947,-0.04521 0.08625,-0.05109 0.08265,-0.05673 0.07867,-0.06213 0.07435,-0.06724 0.06969,-0.07206 0.06472,-0.07655 0.05946,-0.0807 0.05394,-0.0845 0.04818,-0.08791 0.0422,-0.09093 0.03603,-0.09355 0.0297,-0.09574 0.02324,-0.09751 0.01667,-0.09885 0.01003,-0.09974 L 26.1,10.7"
         stroke="#191919"
         stroke-width="0.35 px"
         style="fill:none;fill-opacity:1;fill-rule:evenodd;stroke:#ff0000;stroke-width:0.1;stroke-linecap:square;stroke-miterlimit:4;stroke-dasharray:none;stroke-opacity:1" /><path
         id="Cut_cs_w0003"
         d="m -22.9,68.7 m 0,0 -0.0034,-0.100189 -0.01003,-0.09974 -0.01667,-0.09885 -0.02324,-0.09751 -0.0297,-0.09574 -0.03603,-0.09355 -0.0422,-0.09093 -0.04818,-0.08791 -0.05394,-0.0845 -0.05946,-0.0807 -0.06472,-0.07655 -0.06969,-0.07206 -0.07435,-0.06724 -0.07867,-0.06213 -0.08265,-0.05673 -0.08625,-0.05109 -0.08947,-0.04521 -0.09229,-0.03914 -0.0947,-0.03288 -0.09668,-0.02648 -0.09824,-0.01997 -0.09935,-0.01336 -0.100022,-0.0067 h -0.100244 l -0.100022,0.0067 -0.09935,0.01336 -0.09824,0.01997 -0.09668,0.02648 -0.0947,0.03288 -0.09229,0.03914 -0.08947,0.04521 -0.08625,0.05109 -0.08265,0.05673 -0.07867,0.06213 -0.07435,0.06724 -0.06969,0.07206 -0.06472,0.07655 -0.05946,0.0807 -0.05394,0.0845 -0.04818,0.08791 -0.0422,0.09093 -0.03603,0.09355 -0.0297,0.09574 -0.02324,0.09751 -0.01667,0.09885 -0.01003,0.09974 L -25.9,68.7 l 0.0033,0.100189 0.01003,0.09974 0.01667,0.09885 0.02324,0.09751 0.0297,0.09574 0.03603,0.09355 0.0422,0.09093 0.04818,0.08791 0.05394,0.0845 0.05946,0.0807 0.06472,0.07655 0.06969,0.07206 0.07435,0.06724 0.07867,0.06213 0.08265,0.05673 0.08625,0.05109 0.08947,0.04521 0.09229,0.03914 0.0947,0.03288 0.09668,0.02648 0.09824,0.01997 0.09935,0.01336 0.100022,0.0067 h 0.100244 l 0.100022,-0.0067 0.09935,-0.01336 0.09824,-0.01997 0.09668,-0.02648 0.0947,-0.03288 0.09229,-0.03914 0.08947,-0.04521 0.08625,-0.05109 0.08265,-0.05673 0.07867,-0.06213 0.07435,-0.06724 0.06969,-0.07206 0.06472,-0.07655 0.05946,-0.0807 0.05394,-0.0845 0.04818,-0.08791 0.0422,-0.09093 0.03603,-0.09355 0.0297,-0.09574 0.02324,-0.09751 0.01667,-0.09885 0.01003,-0.09974 L -22.9,68.7"
         stroke="#191919"
         stroke-width="0.35 px"
         style="fill:none;fill-opacity:1;fill-rule:evenodd;stroke:#ff0000;stroke-width:0.1;stroke-linecap:square;stroke-miterlimit:4;stroke-dasharray:none;stroke-opacity:1" /><path
         id="Cut_cs_w0004"
         d="m 26.1,68.7 m 0,0 -0.0034,-0.100189 -0.01003,-0.09974 -0.01667,-0.09885 -0.02324,-0.09751 -0.0297,-0.09574 -0.03603,-0.09355 -0.0422,-0.09093 -0.04818,-0.08791 -0.05394,-0.0845 -0.05946,-0.0807 -0.06472,-0.07655 -0.06969,-0.07206 -0.07435,-0.06724 -0.07867,-0.06213 -0.08265,-0.05673 -0.08625,-0.05109 -0.08947,-0.04521 -0.09229,-0.03914 -0.0947,-0.03288 -0.09668,-0.02648 -0.09824,-0.01997 -0.09935,-0.01336 -0.100022,-0.0067 h -0.100244 l -0.100022,0.0067 -0.09935,0.01336 -0.09824,0.01997 -0.09668,0.02648 -0.0947,0.03288 -0.09229,0.03914 -0.08947,0.04521 -0.08625,0.05109 -0.08265,0.05673 -0.07867,0.06213 -0.07435,0.06724 -0.06969,0.07206 -0.06472,0.07655 -0.05946,0.0807 -0.05394,0.0845 -0.04818,0.08791 -0.0422,0.09093 -0.03603,0.09355 -0.0297,0.09574 -0.02324,0.09751 -0.01667,0.09885 -0.01003,0.09974 L 23.1,68.7 l 0.0033,0.100189 0.01003,0.09974 0.01667,0.09885 0.02324,0.09751 0.0297,0.09574 0.03603,0.09355 0.0422,0.09093 0.04818,0.08791 0.05394,0.0845 0.05946,0.0807 0.06472,0.07655 0.06969,0.07206 0.07435,0.06724 0.07867,0.06213 0.08265,0.05673 0.08625,0.05109 0.08947,0.04521 0.09229,0.03914 0.0947,0.03288 0.09668,0.02648 0.09824,0.01997 0.09935,0.01336 0.100022,0.0067 h 0.100244 l 0.100022,-0.0067 0.09935,-0.01336 0.09824,-0.01997 0.09668,-0.02648 0.0947,-0.03288 0.09229,-0.03914 0.08947,-0.04521 0.08625,-0.05109 0.08265,-0.05673 0.07867,-0.06213 0.07435,-0.06724 0.06969,-0.07206 0.06472,-0.07655 0.05946,-0.0807 0.05394,-0.0845 0.04818,-0.08791 0.0422,-0.09093 0.03603,-0.09355 0.0297,-0.09574 0.02324,-0.09751 0.01667,-0.09885 0.01003,-0.09974 L 26.1,68.7"
         stroke="#191919"
         stroke-width="0.35 px"
         style="fill:none;fill-opacity:1;fill-rule:evenodd;stroke:#ff0000;stroke-width:0.1;stroke-linecap:square;stroke-miterlimit:4;stroke-dasharray:none;stroke-opacity:1" /><title
         id="title1-40">b'Cut_cs'</title></g><g
       id="Box003_cs"
       transform="matrix(0,1,1,0,225.74629,107.08737)"
       style="stroke:#ff0000;stroke-width:0.1;stroke-dasharray:none;stroke-opacity:1"><path
         id="Box003_cs_w0000"
         d="m 32.5,-24 h -65 v 82 h 65 v -82"
         stroke="#191919"
         stroke-width="0.35 px"
         style="fill:none;fill-opacity:1;fill-rule:evenodd;stroke:#ff0000;stroke-width:0.1;stroke-linecap:square;stroke-miterlimit:4;stroke-dasharray:none;stroke-opacity:1" /><title
         id="title1-46">b'Box003_cs'</title></g><g
       id="Body005_cs"
       transform="matrix(1,0,0,-1,401.48082,38.887573)"
       style="stroke:#ff0000;stroke-width:0.1;stroke-dasharray:none;stroke-opacity:1"><path
         id="Body005_cs_w0000"
         d="m 29.5,-70 v 3 h -59 v -3 h 4.5 v -3 h 10 v 3 h 10 v -3 H 5 v 3 h 10 v -3 h 10 v 3 h 4.5"
         stroke="#191919"
         stroke-width="0.35 px"
         style="fill:none;fill-opacity:1;fill-rule:evenodd;stroke:#ff0000;stroke-width:0.1;stroke-linecap:square;stroke-miterlimit:4;stroke-dasharray:none;stroke-opacity:1" /><title
         id="title1-2">b'Body005_cs'</title></g><g
       id="Cut004_cs"
       transform="matrix(1,0,0,-1,400.63913,73.38011)"
       style="stroke:#ff0000;stroke-width:0.1;stroke-dasharray:none;stroke-opacity:1"><path
         id="Cut004_cs_w0000"
         d="m 10,-14 v -5 h 3 v -5 h 57 v 10 H 10"
         stroke="#191919"
         stroke-width="0.35 px"
         style="fill:none;fill-opacity:1;fill-rule:evenodd;stroke:#ff0000;stroke-width:0.1;stroke-linecap:square;stroke-miterlimit:4;stroke-dasharray:none;stroke-opacity:1" /><title
         id="title1-6">b'Cut004_cs'</title></g><g
       id="g1"
       transform="translate(-72.826402,1.6425094)"><path
         id="Cut002_cs_w0000"
         d="m 164.85061,4.695011 v -3 h -5 v 7.5 h 3 v 10 h -3 v 10 h 3 v 10 h -3 v 10 h 3 v 10 h -3 v 7.5 h 5 v -3 h 5 v 3 h 84.15 v -3 h 10 v 3 h 10 v -3 h 10 v 3 h 10 v -3 h 10 v 3 h 12.15 v -7.5 h -3 v -10 h 3 v -10 h -3 v -10 h 3 v -10 h -3 v -10 h 3 v -7.5 h -12.15 v 3 h -10 v -3 h -10 v 3 h -10 v -3 h -10 v 3 h -10 v -3 h -84.15 v 3 h -5"
         stroke="#191919"
         stroke-width="0.35 px"
         style="fill:none;fill-opacity:1;fill-rule:evenodd;stroke:#ff0000;stroke-width:0.1;stroke-linecap:square;stroke-miterlimit:4;stroke-dasharray:none;stroke-opacity:1" /><path
         id="Cut002_cs_w0001"
         d="m 201.50061,5.945011 m 0,0 -0.10002,0.002 -0.0999,0.006 -0.0995,0.01 -0.0991,0.01397 -0.0984,0.01792 -0.0976,0.02184 -0.0967,0.02573 -0.0956,0.02958 -0.0943,0.03338 -0.0929,0.03713 -0.0913,0.04081 -0.0896,0.04443 -0.0878,0.04799 -0.0858,0.05146 -0.0837,0.05485 -0.0814,0.05815 -0.079,0.06137 -0.0765,0.06448 -0.0738,0.06749 -0.0711,0.07039 -0.0682,0.07317 -0.0652,0.07585 -0.0622,0.0784 -0.059,0.08082 -0.0557,0.08311 -0.0523,0.08528 -0.0489,0.0873 -0.0453,0.08918 -0.0417,0.09093 -0.038,0.09252 -0.0343,0.09397 -0.0305,0.09527 -0.0267,0.09642 -0.0228,0.09741 -0.0189,0.09824 -0.015,0.09892 -0.011,0.09944 -0.007,0.0998 -0.003,0.1 0.001,0.100039 0.005,0.09992 0.009,0.09964 0.013,0.0992 0.0169,0.0986 0.0209,0.09784 0.0248,0.09693 0.0286,0.09586 0.0324,0.09464 0.0362,0.09327 0.0399,0.09174 0.0435,0.09007 0.0471,0.08826 0.0506,0.08631 0.054,0.08421 0.0573,0.08198 0.0606,0.07962 0.0637,0.07714 0.0667,0.07453 0.0697,0.0718 0.0725,0.06895 0.0752,0.066 0.0778,0.06293 0.0802,0.05977 0.0825,0.05651 0.0847,0.05317 0.0868,0.04973 0.0887,0.04622 0.0905,0.04263 0.0921,0.03898 0.0936,0.03526 0.095,0.03149 0.0961,0.02766 0.0972,0.02379 0.0981,0.01989 0.0988,0.01595 0.0993,0.01198 0.0997,0.008 0.1,0.004 h 0.10004 l 0.1,-0.004 0.0997,-0.008 0.0993,-0.01198 0.0988,-0.01595 0.0981,-0.01989 0.0972,-0.02379 0.0961,-0.02766 0.095,-0.03149 0.0936,-0.03526 0.0921,-0.03898 0.0905,-0.04263 0.0887,-0.04622 0.0868,-0.04973 0.0848,-0.05317 0.0825,-0.05651 0.0802,-0.05977 0.0778,-0.06293 0.0752,-0.066 0.0725,-0.06895 0.0697,-0.0718 0.0667,-0.07453 0.0637,-0.07714 0.0606,-0.07962 0.0573,-0.08198 0.054,-0.08421 0.0506,-0.08631 0.0471,-0.08826 0.0435,-0.09007 0.0399,-0.09174 0.0362,-0.09327 0.0324,-0.09464 0.0286,-0.09586 0.0248,-0.09693 0.0209,-0.09784 0.0169,-0.0986 0.013,-0.0992 0.009,-0.09964 0.005,-0.09992 0.001,-0.100039 -0.003,-0.1 -0.007,-0.0998 -0.011,-0.09944 -0.015,-0.09892 -0.0189,-0.09824 -0.0228,-0.09741 -0.0267,-0.09642 -0.0305,-0.09527 -0.0343,-0.09397 -0.038,-0.09252 -0.0417,-0.09093 -0.0453,-0.08918 -0.0489,-0.0873 -0.0523,-0.08528 -0.0557,-0.08311 -0.059,-0.08082 -0.0622,-0.0784 -0.0652,-0.07585 -0.0682,-0.07317 -0.0711,-0.07039 -0.0738,-0.06749 -0.0765,-0.06448 -0.079,-0.06137 -0.0814,-0.05815 -0.0837,-0.05485 -0.0858,-0.05146 -0.0878,-0.04799 -0.0896,-0.04443 -0.0913,-0.04081 -0.0929,-0.03713 -0.0943,-0.03338 -0.0956,-0.02958 -0.0967,-0.02573 -0.0976,-0.02184 -0.0984,-0.01792 -0.0991,-0.01397 -0.0995,-0.01 -0.0999,-0.006 -0.10001,-0.002"
         stroke="#191919"
         stroke-width="0.35 px"
         style="fill:#000000;fill-opacity:1;fill-rule:evenodd;stroke:#000000;stroke-width:0.35;stroke-linecap:square;stroke-miterlimit:4;stroke-dasharray:none;stroke-opacity:1" /><path
         id="Cut002_cs_w0002"
         d="m 222.85061,6.395011 m 0,0 -0.10002,0.002 -0.0999,0.006 -0.0995,0.01 -0.0991,0.01397 -0.0984,0.01792 -0.0976,0.02184 -0.0967,0.02573 -0.0956,0.02958 -0.0943,0.03338 -0.0929,0.03713 -0.0913,0.04081 -0.0896,0.04443 -0.0878,0.04799 -0.0858,0.05146 -0.0837,0.05485 -0.0814,0.05815 -0.079,0.06137 -0.0765,0.06448 -0.0738,0.06749 -0.0711,0.07039 -0.0682,0.07318 -0.0652,0.07585 -0.0622,0.0784 -0.059,0.08082 -0.0557,0.08311 -0.0523,0.08528 -0.0489,0.0873 -0.0453,0.08919 -0.0417,0.09093 -0.038,0.09252 -0.0343,0.09397 -0.0305,0.09527 -0.0267,0.09642 -0.0228,0.09741 -0.0189,0.09824 -0.015,0.09892 -0.011,0.09944 -0.007,0.0998 -0.003,0.1 0.001,0.100039 0.005,0.09992 0.009,0.09964 0.013,0.0992 0.0169,0.0986 0.0209,0.09784 0.0248,0.09693 0.0286,0.09586 0.0324,0.09464 0.0362,0.09327 0.0399,0.09174 0.0435,0.09007 0.0471,0.08826 0.0506,0.08631 0.054,0.08421 0.0573,0.08198 0.0606,0.07962 0.0637,0.07714 0.0667,0.07453 0.0697,0.07179 0.0725,0.06895 0.0752,0.06599 0.0778,0.06293 0.0802,0.05977 0.0825,0.05651 0.0848,0.05317 0.0868,0.04973 0.0887,0.04622 0.0905,0.04263 0.0921,0.03898 0.0936,0.03526 0.095,0.03149 0.0961,0.02766 0.0972,0.02379 0.0981,0.01988 0.0988,0.01595 0.0993,0.01198 0.0997,0.008 0.1,0.004 h 0.10004 l 0.1,-0.004 0.0997,-0.008 0.0993,-0.01198 0.0988,-0.01595 0.0981,-0.01988 0.0972,-0.02379 0.0961,-0.02766 0.095,-0.03149 0.0936,-0.03526 0.0921,-0.03898 0.0905,-0.04263 0.0887,-0.04622 0.0868,-0.04973 0.0848,-0.05317 0.0825,-0.05651 0.0802,-0.05977 0.0778,-0.06293 0.0752,-0.06599 0.0725,-0.06895 0.0697,-0.07179 0.0667,-0.07453 0.0637,-0.07714 0.0606,-0.07962 0.0573,-0.08198 0.054,-0.08421 0.0506,-0.08631 0.0471,-0.08826 0.0435,-0.09007 0.0399,-0.09174 0.0362,-0.09327 0.0324,-0.09464 0.0286,-0.09586 0.0248,-0.09693 0.0209,-0.09784 0.0169,-0.0986 0.013,-0.0992 0.009,-0.09964 0.005,-0.09992 0.001,-0.100039 -0.003,-0.1 -0.007,-0.0998 -0.011,-0.09944 -0.015,-0.09892 -0.0189,-0.09824 -0.0228,-0.09741 -0.0267,-0.09642 -0.0305,-0.09527 -0.0343,-0.09397 -0.038,-0.09252 -0.0417,-0.09093 -0.0453,-0.08919 -0.0489,-0.0873 -0.0523,-0.08528 -0.0557,-0.08311 -0.059,-0.08082 -0.0622,-0.0784 -0.0652,-0.07585 -0.0682,-0.07318 -0.0711,-0.07039 -0.0738,-0.06749 -0.0765,-0.06448 -0.079,-0.06137 -0.0814,-0.05815 -0.0837,-0.05485 -0.0858,-0.05146 -0.0878,-0.04799 -0.0896,-0.04443 -0.0913,-0.04081 -0.0929,-0.03713 -0.0943,-0.03338 -0.0956,-0.02958 -0.0967,-0.02573 -0.0976,-0.02184 -0.0984,-0.01792 -0.0991,-0.01397 -0.0995,-0.01 -0.0999,-0.006 -0.1,-0.002"
         stroke="#191919"
         stroke-width="0.35 px"
         style="fill:#000000;fill-opacity:1;fill-rule:evenodd;stroke:#000000;stroke-width:0.35;stroke-linecap:square;stroke-miterlimit:4;stroke-dasharray:none;stroke-opacity:1" /><path
         id="Cut002_cs_w0003"
         d="m 203.75061,11.995011 h 1.5 v 41.8 h -1.5 v -41.8"
         stroke="#191919"
         stroke-width="0.35 px"
         style="fill:none;fill-opacity:1;fill-rule:evenodd;stroke-width:0.35;stroke-linecap:square;stroke-miterlimit:4;stroke-dasharray:none" /><path
         id="Cut002_cs_w0004"
         d="m 208.25061,11.995011 h 1.5 v 41.8 h -1.5 v -41.8"
         stroke="#191919"
         stroke-width="0.35 px"
         style="fill:none;fill-opacity:1;fill-rule:evenodd;stroke-width:0.35;stroke-linecap:square;stroke-miterlimit:4;stroke-dasharray:none" /><path
         id="Cut002_cs_w0005"
         d="m 201.50061,54.695011 m 0,0 -0.10002,0.002 -0.0999,0.006 -0.0995,0.01 -0.0991,0.01397 -0.0984,0.01792 -0.0976,0.02184 -0.0967,0.02573 -0.0956,0.02958 -0.0943,0.03338 -0.0929,0.03713 -0.0913,0.04081 -0.0896,0.04443 -0.0878,0.04799 -0.0858,0.05146 -0.0837,0.05485 -0.0814,0.05815 -0.079,0.06137 -0.0765,0.06448 -0.0738,0.06749 -0.0711,0.07039 -0.0682,0.07317 -0.0652,0.07585 -0.0622,0.0784 -0.059,0.08082 -0.0557,0.08311 -0.0523,0.08528 -0.0489,0.0873 -0.0453,0.08918 -0.0417,0.09093 -0.038,0.09252 -0.0343,0.09397 -0.0305,0.09527 -0.0267,0.09642 -0.0228,0.09741 -0.0189,0.09824 -0.015,0.09892 -0.011,0.09944 -0.007,0.0998 -0.003,0.1 0.001,0.100039 0.005,0.09992 0.009,0.09964 0.013,0.0992 0.0169,0.0986 0.0209,0.09784 0.0248,0.09693 0.0286,0.09586 0.0324,0.09464 0.0362,0.09327 0.0399,0.09174 0.0435,0.09007 0.0471,0.08826 0.0506,0.08631 0.054,0.08421 0.0573,0.08198 0.0606,0.07962 0.0637,0.07714 0.0667,0.07453 0.0697,0.0718 0.0725,0.06895 0.0752,0.066 0.0778,0.06293 0.0802,0.05977 0.0825,0.05651 0.0847,0.05317 0.0868,0.04973 0.0887,0.04622 0.0905,0.04263 0.0921,0.03898 0.0936,0.03526 0.095,0.03149 0.0961,0.02766 0.0972,0.02379 0.0981,0.01989 0.0988,0.01595 0.0993,0.01198 0.0997,0.008 0.1,0.004 h 0.10004 l 0.1,-0.004 0.0997,-0.008 0.0993,-0.01198 0.0988,-0.01595 0.0981,-0.01989 0.0972,-0.02379 0.0961,-0.02766 0.095,-0.03149 0.0936,-0.03526 0.0921,-0.03898 0.0905,-0.04263 0.0887,-0.04622 0.0868,-0.04973 0.0848,-0.05317 0.0825,-0.05651 0.0802,-0.05977 0.0778,-0.06293 0.0752,-0.066 0.0725,-0.06895 0.0697,-0.0718 0.0667,-0.07453 0.0637,-0.07714 0.0606,-0.07962 0.0573,-0.08198 0.054,-0.08421 0.0506,-0.08631 0.0471,-0.08826 0.0435,-0.09007 0.0399,-0.09174 0.0362,-0.09327 0.0324,-0.09464 0.0286,-0.09586 0.0248,-0.09693 0.0209,-0.09784 0.0169,-0.0986 0.013,-0.0992 0.009,-0.09964 0.005,-0.09992 0.001,-0.100039 -0.003,-0.1 -0.007,-0.0998 -0.011,-0.09944 -0.015,-0.09892 -0.0189,-0.09824 -0.0228,-0.09741 -0.0267,-0.09642 -0.0305,-0.09527 -0.0343,-0.09397 -0.038,-0.09252 -0.0417,-0.09093 -0.0453,-0.08918 -0.0489,-0.0873 -0.0523,-0.08528 -0.0557,-0.08311 -0.059,-0.08082 -0.0622,-0.0784 -0.0652,-0.07585 -0.0682,-0.07317 -0.0711,-0.07039 -0.0738,-0.06749 -0.0765,-0.06448 -0.079,-0.06137 -0.0814,-0.05815 -0.0837,-0.05485 -0.0858,-0.05146 -0.0878,-0.04799 -0.0896,-0.04443 -0.0913,-0.04081 -0.0929,-0.03713 -0.0943,-0.03338 -0.0956,-0.02958 -0.0967,-0.02573 -0.0976,-0.02184 -0.0984,-0.01792 -0.0991,-0.01397 -0.0995,-0.01 -0.0999,-0.006 -0.10001,-0.002"
         stroke="#191919"
         stroke-width="0.35 px"
         style="fill:#000000;fill-opacity:1;fill-rule:evenodd;stroke:#000000;stroke-width:0.35;stroke-linecap:square;stroke-miterlimit:4;stroke-dasharray:none;stroke-opacity:1" /><path
         id="Cut002_cs_w0006"
         d="m 221.85061,54.095011 m 0,0 -0.10002,0.002 -0.0999,0.006 -0.0995,0.01 -0.0991,0.01397 -0.0984,0.01792 -0.0976,0.02184 -0.0967,0.02573 -0.0956,0.02958 -0.0943,0.03338 -0.0929,0.03713 -0.0913,0.04081 -0.0896,0.04443 -0.0878,0.04799 -0.0858,0.05146 -0.0837,0.05485 -0.0814,0.05815 -0.079,0.06137 -0.0765,0.06448 -0.0738,0.06749 -0.0711,0.07039 -0.0682,0.07317 -0.0652,0.07585 -0.0622,0.0784 -0.059,0.08082 -0.0557,0.08311 -0.0523,0.08528 -0.0489,0.0873 -0.0453,0.08919 -0.0417,0.09093 -0.038,0.09252 -0.0343,0.09397 -0.0305,0.09527 -0.0267,0.09642 -0.0228,0.09741 -0.0189,0.09824 -0.015,0.09892 -0.011,0.09944 -0.007,0.0998 -0.003,0.1 0.001,0.100039 0.005,0.09992 0.009,0.09964 0.013,0.0992 0.0169,0.0986 0.0209,0.09784 0.0248,0.09693 0.0286,0.09586 0.0324,0.09464 0.0362,0.09327 0.0399,0.09174 0.0435,0.09007 0.0471,0.08826 0.0506,0.08631 0.054,0.08421 0.0573,0.08198 0.0606,0.07962 0.0637,0.07714 0.0667,0.07453 0.0697,0.07179 0.0725,0.06895 0.0752,0.066 0.0778,0.06293 0.0802,0.05977 0.0825,0.05651 0.0848,0.05317 0.0868,0.04973 0.0887,0.04622 0.0905,0.04263 0.0921,0.03898 0.0936,0.03526 0.095,0.03149 0.0961,0.02766 0.0972,0.02379 0.0981,0.01988 0.0988,0.01595 0.0993,0.01198 0.0997,0.008 0.1,0.004 h 0.10004 l 0.1,-0.004 0.0997,-0.008 0.0993,-0.01198 0.0988,-0.01595 0.0981,-0.01988 0.0972,-0.02379 0.0961,-0.02766 0.095,-0.03149 0.0936,-0.03526 0.0921,-0.03898 0.0905,-0.04263 0.0887,-0.04622 0.0868,-0.04973 0.0848,-0.05317 0.0825,-0.05651 0.0802,-0.05977 0.0778,-0.06293 0.0752,-0.066 0.0725,-0.06895 0.0697,-0.07179 0.0667,-0.07453 0.0637,-0.07714 0.0606,-0.07962 0.0573,-0.08198 0.054,-0.08421 0.0506,-0.08631 0.0471,-0.08826 0.0435,-0.09007 0.0399,-0.09174 0.0362,-0.09327 0.0324,-0.09464 0.0286,-0.09586 0.0248,-0.09693 0.0209,-0.09784 0.0169,-0.0986 0.013,-0.0992 0.009,-0.09964 0.005,-0.09992 0.001,-0.100039 -0.003,-0.1 -0.007,-0.0998 -0.011,-0.09944 -0.015,-0.09892 -0.0189,-0.09824 -0.0228,-0.09741 -0.0267,-0.09642 -0.0305,-0.09527 -0.0343,-0.09397 -0.038,-0.09252 -0.0417,-0.09093 -0.0453,-0.08919 -0.0489,-0.0873 -0.0523,-0.08528 -0.0557,-0.08311 -0.059,-0.08082 -0.0622,-0.0784 -0.0652,-0.07585 -0.0682,-0.07317 -0.0711,-0.07039 -0.0738,-0.06749 -0.0765,-0.06448 -0.079,-0.06137 -0.0814,-0.05815 -0.0837,-0.05485 -0.0858,-0.05146 -0.0878,-0.04799 -0.0896,-0.04443 -0.0913,-0.04081 -0.0929,-0.03713 -0.0943,-0.03338 -0.0956,-0.02958 -0.0967,-0.02573 -0.0976,-0.02184 -0.0984,-0.01792 -0.0991,-0.01397 -0.0995,-0.01 -0.0999,-0.006 -0.1,-0.002"
         stroke="#191919"
         stroke-width="0.35 px"
         style="fill:#000000;fill-opacity:1;fill-rule:evenodd;stroke:#000000;stroke-width:0.35;stroke-linecap:square;stroke-miterlimit:4;stroke-dasharray:none;stroke-opacity:1" /><path
         id="Cut002_cs_w0007"
         d="m 259.25061,6.495011 h 10.1 v 12 h -10.1 v -12"
         stroke="#191919"
         stroke-width="0.35 px"
         style="fill:none;fill-opacity:1;fill-rule:evenodd;stroke-width:0.35;stroke-linecap:square;stroke-miterlimit:4;stroke-dasharray:none" /><path
         id="Cut002_cs_w0008"
         d="m 273.75061,21.395011 m 0,0 -0.10002,0.002 -0.0999,0.006 -0.0995,0.01 -0.0991,0.01397 -0.0984,0.01792 -0.0976,0.02184 -0.0967,0.02573 -0.0956,0.02958 -0.0943,0.03338 -0.0929,0.03713 -0.0913,0.04081 -0.0896,0.04443 -0.0878,0.04799 -0.0858,0.05146 -0.0837,0.05485 -0.0814,0.05815 -0.079,0.06137 -0.0765,0.06448 -0.0738,0.06749 -0.0711,0.07039 -0.0682,0.07317 -0.0652,0.07585 -0.0622,0.0784 -0.059,0.08082 -0.0557,0.08311 -0.0523,0.08528 -0.0489,0.0873 -0.0453,0.08918 -0.0417,0.09093 -0.038,0.09252 -0.0343,0.09397 -0.0305,0.09527 -0.0267,0.09642 -0.0228,0.09741 -0.0189,0.09824 -0.015,0.09892 -0.011,0.09944 -0.007,0.0998 -0.003,0.1 10e-4,0.100039 0.005,0.09992 0.009,0.09964 0.013,0.0992 0.0169,0.0986 0.0209,0.09784 0.0248,0.09693 0.0286,0.09586 0.0324,0.09464 0.0362,0.09327 0.0399,0.09174 0.0435,0.09007 0.0471,0.08826 0.0506,0.0863 0.054,0.08421 0.0573,0.08198 0.0606,0.07962 0.0637,0.07714 0.0667,0.07453 0.0697,0.0718 0.0725,0.06895 0.0752,0.066 0.0778,0.06293 0.0802,0.05977 0.0826,0.05651 0.0847,0.05317 0.0868,0.04973 0.0887,0.04622 0.0905,0.04263 0.0921,0.03898 0.0936,0.03526 0.095,0.03149 0.0961,0.02766 0.0972,0.02379 0.0981,0.01989 0.0988,0.01595 0.0993,0.01198 0.0997,0.008 0.1,0.004 h 0.10004 l 0.1,-0.004 0.0997,-0.008 0.0993,-0.01198 0.0988,-0.01595 0.0981,-0.01989 0.0972,-0.02379 0.0961,-0.02766 0.095,-0.03149 0.0936,-0.03526 0.0921,-0.03898 0.0905,-0.04263 0.0887,-0.04622 0.0868,-0.04973 0.0847,-0.05317 0.0826,-0.05651 0.0802,-0.05977 0.0778,-0.06293 0.0752,-0.066 0.0725,-0.06895 0.0697,-0.0718 0.0667,-0.07453 0.0637,-0.07714 0.0606,-0.07962 0.0573,-0.08198 0.054,-0.08421 0.0506,-0.0863 0.0471,-0.08826 0.0435,-0.09007 0.0399,-0.09174 0.0362,-0.09327 0.0324,-0.09464 0.0286,-0.09586 0.0248,-0.09693 0.0209,-0.09784 0.0169,-0.0986 0.013,-0.0992 0.009,-0.09964 0.005,-0.09992 0.001,-0.100039 -0.003,-0.1 -0.007,-0.0998 -0.011,-0.09944 -0.015,-0.09892 -0.0189,-0.09824 -0.0228,-0.09741 -0.0267,-0.09642 -0.0305,-0.09527 -0.0343,-0.09397 -0.038,-0.09252 -0.0417,-0.09093 -0.0453,-0.08918 -0.0489,-0.0873 -0.0523,-0.08528 -0.0557,-0.08311 -0.059,-0.08082 -0.0622,-0.0784 -0.0652,-0.07585 -0.0682,-0.07317 -0.0711,-0.07039 -0.0738,-0.06749 -0.0765,-0.06448 -0.079,-0.06137 -0.0814,-0.05815 -0.0837,-0.05485 -0.0858,-0.05146 -0.0878,-0.04799 -0.0896,-0.04443 -0.0913,-0.04081 -0.0929,-0.03713 -0.0943,-0.03338 -0.0956,-0.02958 -0.0967,-0.02573 -0.0976,-0.02184 -0.0984,-0.01792 -0.0991,-0.01397 -0.0995,-0.01 -0.0999,-0.006 -0.10003,-0.002"
         stroke="#191919"
         stroke-width="0.35 px"
         style="fill:#000000;fill-opacity:1;fill-rule:evenodd;stroke:#000000;stroke-width:0.35;stroke-linecap:square;stroke-miterlimit:4;stroke-dasharray:none;stroke-opacity:1" /><path
         id="Cut002_cs_w0009"
         d="m 297.95061,6.395011 m 0,0 -0.10002,0.002 -0.0999,0.006 -0.0995,0.01 -0.0991,0.01397 -0.0984,0.01792 -0.0976,0.02184 -0.0967,0.02573 -0.0956,0.02958 -0.0943,0.03338 -0.0929,0.03713 -0.0913,0.04081 -0.0896,0.04443 -0.0878,0.04799 -0.0858,0.05146 -0.0837,0.05485 -0.0814,0.05815 -0.079,0.06137 -0.0765,0.06448 -0.0739,0.06749 -0.0711,0.07039 -0.0682,0.07318 -0.0652,0.07585 -0.0621,0.0784 -0.059,0.08082 -0.0557,0.08311 -0.0523,0.08528 -0.0489,0.0873 -0.0453,0.08919 -0.0417,0.09093 -0.0381,0.09252 -0.0343,0.09397 -0.0305,0.09527 -0.0267,0.09642 -0.0228,0.09741 -0.0189,0.09824 -0.0149,0.09892 -0.011,0.09944 -0.007,0.0998 -0.003,0.1 10e-4,0.100039 0.005,0.09992 0.009,0.09964 0.013,0.0992 0.0169,0.0986 0.0209,0.09784 0.0248,0.09693 0.0286,0.09586 0.0324,0.09464 0.0362,0.09327 0.0399,0.09174 0.0435,0.09007 0.0471,0.08826 0.0506,0.08631 0.054,0.08421 0.0573,0.08198 0.0606,0.07962 0.0637,0.07714 0.0667,0.07453 0.0697,0.07179 0.0725,0.06895 0.0752,0.06599 0.0778,0.06293 0.0802,0.05977 0.0826,0.05651 0.0847,0.05317 0.0868,0.04973 0.0887,0.04622 0.0905,0.04263 0.0921,0.03898 0.0936,0.03526 0.095,0.03149 0.0961,0.02766 0.0972,0.02379 0.098,0.01988 0.0988,0.01595 0.0993,0.01198 0.0997,0.008 0.1,0.004 h 0.10004 l 0.1,-0.004 0.0997,-0.008 0.0993,-0.01198 0.0988,-0.01595 0.0981,-0.01988 0.0972,-0.02379 0.0961,-0.02766 0.095,-0.03149 0.0936,-0.03526 0.0921,-0.03898 0.0905,-0.04263 0.0887,-0.04622 0.0868,-0.04973 0.0847,-0.05317 0.0826,-0.05651 0.0802,-0.05977 0.0778,-0.06293 0.0752,-0.06599 0.0725,-0.06895 0.0697,-0.07179 0.0668,-0.07453 0.0637,-0.07714 0.0606,-0.07962 0.0573,-0.08198 0.054,-0.08421 0.0506,-0.08631 0.0471,-0.08826 0.0435,-0.09007 0.0399,-0.09174 0.0362,-0.09327 0.0324,-0.09464 0.0286,-0.09586 0.0248,-0.09693 0.0209,-0.09784 0.0169,-0.0986 0.013,-0.0992 0.009,-0.09964 0.005,-0.09992 0.001,-0.100039 -0.003,-0.1 -0.007,-0.0998 -0.011,-0.09944 -0.0149,-0.09892 -0.0189,-0.09824 -0.0228,-0.09741 -0.0267,-0.09642 -0.0305,-0.09527 -0.0343,-0.09397 -0.0381,-0.09252 -0.0417,-0.09093 -0.0453,-0.08919 -0.0489,-0.0873 -0.0523,-0.08528 -0.0557,-0.08311 -0.059,-0.08082 -0.0622,-0.0784 -0.0652,-0.07585 -0.0682,-0.07318 -0.0711,-0.07039 -0.0738,-0.06749 -0.0765,-0.06448 -0.079,-0.06137 -0.0814,-0.05815 -0.0837,-0.05485 -0.0858,-0.05146 -0.0878,-0.04799 -0.0896,-0.04443 -0.0913,-0.04081 -0.0929,-0.03713 -0.0943,-0.03338 -0.0956,-0.02958 -0.0967,-0.02573 -0.0976,-0.02184 -0.0984,-0.01792 -0.0991,-0.01397 -0.0995,-0.01 -0.0999,-0.006 -0.10022,-0.002"
         stroke="#191919"
         stroke-width="0.35 px"
         style="fill:#000000;fill-opacity:1;fill-rule:evenodd;stroke:#000000;stroke-width:0.35;stroke-linecap:square;stroke-miterlimit:4;stroke-dasharray:none;stroke-opacity:1" /><path
         id="Cut002_cs_w0010"
         d="m 259.25061,46.945011 h 10.1 v 12 h -10.1 v -12"
         stroke="#191919"
         stroke-width="0.35 px"
         style="fill:none;fill-opacity:1;fill-rule:evenodd;stroke-width:0.35;stroke-linecap:square;stroke-miterlimit:4;stroke-dasharray:none" /><path
         id="Cut002_cs_w0011"
         d="m 273.75061,49.145011 m 0,0 -0.10002,0.002 -0.0999,0.006 -0.0995,0.01 -0.0991,0.01397 -0.0984,0.01792 -0.0976,0.02184 -0.0967,0.02573 -0.0956,0.02958 -0.0943,0.03338 -0.0929,0.03713 -0.0913,0.04081 -0.0896,0.04443 -0.0878,0.04799 -0.0858,0.05146 -0.0837,0.05485 -0.0814,0.05815 -0.079,0.06137 -0.0765,0.06448 -0.0738,0.06749 -0.0711,0.07039 -0.0682,0.07317 -0.0652,0.07585 -0.0622,0.0784 -0.059,0.08082 -0.0557,0.08311 -0.0523,0.08528 -0.0489,0.0873 -0.0453,0.08919 -0.0417,0.09093 -0.038,0.09252 -0.0343,0.09397 -0.0305,0.09527 -0.0267,0.09642 -0.0228,0.09741 -0.0189,0.09824 -0.015,0.09892 -0.011,0.09944 -0.007,0.0998 -0.003,0.1 10e-4,0.100039 0.005,0.09992 0.009,0.09964 0.013,0.0992 0.0169,0.0986 0.0209,0.09784 0.0248,0.09693 0.0286,0.09586 0.0324,0.09464 0.0362,0.09327 0.0399,0.09174 0.0435,0.09007 0.0471,0.08826 0.0506,0.08631 0.054,0.08421 0.0573,0.08198 0.0606,0.07962 0.0637,0.07714 0.0667,0.07453 0.0697,0.07179 0.0725,0.06895 0.0752,0.06599 0.0778,0.06293 0.0802,0.05977 0.0826,0.05651 0.0847,0.05317 0.0868,0.04973 0.0887,0.04622 0.0905,0.04263 0.0921,0.03898 0.0936,0.03526 0.095,0.03149 0.0961,0.02766 0.0972,0.02379 0.0981,0.01988 0.0988,0.01595 0.0993,0.01198 0.0997,0.008 0.1,0.004 h 0.10004 l 0.1,-0.004 0.0997,-0.008 0.0993,-0.01198 0.0988,-0.01595 0.0981,-0.01988 0.0972,-0.02379 0.0961,-0.02766 0.095,-0.03149 0.0936,-0.03526 0.0921,-0.03898 0.0905,-0.04263 0.0887,-0.04622 0.0868,-0.04973 0.0847,-0.05317 0.0826,-0.05651 0.0802,-0.05977 0.0778,-0.06293 0.0752,-0.06599 0.0725,-0.06895 0.0697,-0.07179 0.0667,-0.07453 0.0637,-0.07714 0.0606,-0.07962 0.0573,-0.08198 0.054,-0.08421 0.0506,-0.08631 0.0471,-0.08826 0.0435,-0.09007 0.0399,-0.09174 0.0362,-0.09327 0.0324,-0.09464 0.0286,-0.09586 0.0248,-0.09693 0.0209,-0.09784 0.0169,-0.0986 0.013,-0.0992 0.009,-0.09964 0.005,-0.09992 0.001,-0.100039 -0.003,-0.1 -0.007,-0.0998 -0.011,-0.09944 -0.015,-0.09892 -0.0189,-0.09824 -0.0228,-0.09741 -0.0267,-0.09642 -0.0305,-0.09527 -0.0343,-0.09397 -0.038,-0.09252 -0.0417,-0.09093 -0.0453,-0.08919 -0.0489,-0.0873 -0.0523,-0.08528 -0.0557,-0.08311 -0.059,-0.08082 -0.0622,-0.0784 -0.0652,-0.07585 -0.0682,-0.07317 -0.0711,-0.07039 -0.0738,-0.06749 -0.0765,-0.06448 -0.079,-0.06137 -0.0814,-0.05815 -0.0837,-0.05485 -0.0858,-0.05146 -0.0878,-0.04799 -0.0896,-0.04443 -0.0913,-0.04081 -0.0929,-0.03713 -0.0943,-0.03338 -0.0956,-0.02958 -0.0967,-0.02573 -0.0976,-0.02184 -0.0984,-0.01792 -0.0991,-0.01397 -0.0995,-0.01 -0.0999,-0.006 -0.10003,-0.002"
         stroke="#191919"
         stroke-width="0.35 px"
         style="fill:#000000;fill-opacity:1;fill-rule:evenodd;stroke:#000000;stroke-width:0.35;stroke-linecap:square;stroke-miterlimit:4;stroke-dasharray:none;stroke-opacity:1" /><path
         id="Cut002_cs_w0012"
         d="m 303.85061,54.095011 m 0,0 -0.10002,0.002 -0.0999,0.006 -0.0995,0.01 -0.0991,0.01397 -0.0984,0.01792 -0.0976,0.02184 -0.0967,0.02573 -0.0956,0.02958 -0.0943,0.03338 -0.0929,0.03713 -0.0913,0.04081 -0.0896,0.04443 -0.0878,0.04799 -0.0858,0.05146 -0.0837,0.05485 -0.0814,0.05815 -0.079,0.06137 -0.0765,0.06448 -0.0738,0.06749 -0.0711,0.07039 -0.0682,0.07317 -0.0652,0.07585 -0.0622,0.0784 -0.059,0.08082 -0.0557,0.08311 -0.0523,0.08528 -0.0489,0.0873 -0.0453,0.08919 -0.0417,0.09093 -0.0381,0.09252 -0.0343,0.09397 -0.0305,0.09527 -0.0267,0.09642 -0.0228,0.09741 -0.0189,0.09824 -0.0149,0.09892 -0.011,0.09944 -0.007,0.0998 -0.003,0.1 0.001,0.100039 0.005,0.09992 0.009,0.09964 0.013,0.0992 0.0169,0.0986 0.0209,0.09784 0.0248,0.09693 0.0286,0.09586 0.0324,0.09464 0.0362,0.09327 0.0399,0.09174 0.0435,0.09007 0.0471,0.08826 0.0506,0.08631 0.054,0.08421 0.0573,0.08198 0.0606,0.07962 0.0637,0.07714 0.0667,0.07453 0.0697,0.07179 0.0725,0.06895 0.0752,0.066 0.0778,0.06293 0.0802,0.05977 0.0826,0.05651 0.0847,0.05317 0.0868,0.04973 0.0887,0.04622 0.0905,0.04263 0.0921,0.03898 0.0936,0.03526 0.095,0.03149 0.0961,0.02766 0.0972,0.02379 0.0981,0.01988 0.0988,0.01595 0.0993,0.01198 0.0997,0.008 0.1,0.004 h 0.10004 l 0.1,-0.004 0.0997,-0.008 0.0993,-0.01198 0.0988,-0.01595 0.0981,-0.01988 0.0972,-0.02379 0.0961,-0.02766 0.095,-0.03149 0.0936,-0.03526 0.0921,-0.03898 0.0905,-0.04263 0.0887,-0.04622 0.0868,-0.04973 0.0847,-0.05317 0.0826,-0.05651 0.0802,-0.05977 0.0778,-0.06293 0.0752,-0.066 0.0725,-0.06895 0.0697,-0.07179 0.0667,-0.07453 0.0637,-0.07714 0.0606,-0.07962 0.0573,-0.08198 0.054,-0.08421 0.0506,-0.08631 0.0471,-0.08826 0.0435,-0.09007 0.0399,-0.09174 0.0362,-0.09327 0.0324,-0.09464 0.0286,-0.09586 0.0248,-0.09693 0.0209,-0.09784 0.0169,-0.0986 0.013,-0.0992 0.009,-0.09964 0.005,-0.09992 10e-4,-0.100039 -0.003,-0.1 -0.007,-0.0998 -0.011,-0.09944 -0.0149,-0.09892 -0.0189,-0.09824 -0.0228,-0.09741 -0.0267,-0.09642 -0.0305,-0.09527 -0.0343,-0.09397 -0.0381,-0.09252 -0.0417,-0.09093 -0.0453,-0.08919 -0.0489,-0.0873 -0.0523,-0.08528 -0.0557,-0.08311 -0.059,-0.08082 -0.0622,-0.0784 -0.0652,-0.07585 -0.0682,-0.07317 -0.0711,-0.07039 -0.0738,-0.06749 -0.0765,-0.06448 -0.079,-0.06137 -0.0814,-0.05815 -0.0837,-0.05485 -0.0858,-0.05146 -0.0878,-0.04799 -0.0896,-0.04443 -0.0913,-0.04081 -0.0929,-0.03713 -0.0943,-0.03338 -0.0956,-0.02958 -0.0967,-0.02573 -0.0976,-0.02184 -0.0984,-0.01792 -0.0991,-0.01397 -0.0995,-0.01 -0.0999,-0.006 -0.10022,-0.002"
         stroke="#191919"
         stroke-width="0.35 px"
         style="fill:#000000;fill-opacity:1;fill-rule:evenodd;stroke:#000000;stroke-width:0.35;stroke-linecap:square;stroke-miterlimit:4;stroke-dasharray:none;stroke-opacity:1" /><path
         id="Cut002_cs_w0014"
         d="m 201.50061,7.245011 m 0,0 0.10041,0.0042 0.0997,0.0126 0.0983,0.0209 0.0962,0.02905 0.0934,0.037 0.09,0.04469 0.086,0.05206 0.0813,0.05907 0.0761,0.06567 0.0703,0.07181 0.0641,0.07744 0.0574,0.08253 0.0503,0.08704 0.0428,0.09094 0.035,0.0942 0.027,0.0968 0.0188,0.09872 0.0105,0.09995 0.002,0.10048 -0.006,0.100303 -0.0147,0.09942 -0.023,0.09785 -0.0311,0.09558 -0.0389,0.09265 -0.0466,0.08907 -0.0539,0.08486 -0.0608,0.08005 -0.0673,0.07469 -0.0733,0.0688 -0.0788,0.06243 -0.0837,0.05562 -0.0881,0.04842 -0.0918,0.04088 -0.0949,0.03305 -0.0973,0.02499 -0.0991,0.01676 -0.10015,0.0084 h -0.1005 l -0.10015,-0.0084 -0.0991,-0.01676 -0.0973,-0.02499 -0.0949,-0.03305 -0.0918,-0.04088 -0.0881,-0.04842 -0.0837,-0.05562 -0.0788,-0.06243 -0.0733,-0.0688 -0.0673,-0.07469 -0.0608,-0.08005 -0.0538,-0.08486 -0.0466,-0.08907 -0.0389,-0.09265 -0.0311,-0.09558 -0.023,-0.09785 -0.0147,-0.09942 -0.006,-0.100303 0.002,-0.10048 0.0105,-0.09995 0.0188,-0.09872 0.027,-0.0968 0.035,-0.0942 0.0428,-0.09094 0.0503,-0.08704 0.0574,-0.08253 0.0641,-0.07744 0.0703,-0.07181 0.0761,-0.06567 0.0813,-0.05907 0.086,-0.05206 0.09,-0.04469 0.0934,-0.037 0.0962,-0.02905 0.0983,-0.0209 0.0997,-0.0126 0.10036,-0.0042"
         stroke="#191919"
         stroke-width="0.35 px"
         style="fill:none;fill-opacity:1;fill-rule:evenodd;stroke:#ff0000;stroke-width:0.1;stroke-linecap:square;stroke-miterlimit:4;stroke-dasharray:none;stroke-opacity:1" /><path
         id="Cut002_cs_w0016"
         d="m 222.85061,7.695011 m 0,0 0.10041,0.0042 0.0997,0.0126 0.0983,0.02089 0.0962,0.02905 0.0934,0.037 0.09,0.04469 0.086,0.05206 0.0813,0.05907 0.0761,0.06567 0.0703,0.07181 0.0641,0.07744 0.0574,0.08253 0.0503,0.08704 0.0428,0.09094 0.035,0.0942 0.027,0.0968 0.0188,0.09872 0.0105,0.09995 0.002,0.10048 -0.006,0.100303 -0.0147,0.09942 -0.023,0.09785 -0.0311,0.09558 -0.0389,0.09265 -0.0466,0.08907 -0.0538,0.08486 -0.0608,0.08005 -0.0673,0.07469 -0.0733,0.0688 -0.0788,0.06243 -0.0837,0.05562 -0.0881,0.04842 -0.0918,0.04088 -0.0949,0.03305 -0.0973,0.02499 -0.0991,0.01676 -0.10015,0.0084 h -0.1005 l -0.10015,-0.0084 -0.0991,-0.01676 -0.0973,-0.02499 -0.0949,-0.03305 -0.0918,-0.04088 -0.0881,-0.04842 -0.0837,-0.05562 -0.0788,-0.06243 -0.0733,-0.0688 -0.0673,-0.07469 -0.0608,-0.08005 -0.0539,-0.08486 -0.0466,-0.08907 -0.0389,-0.09265 -0.0311,-0.09558 -0.023,-0.09785 -0.0147,-0.09942 -0.006,-0.100303 0.002,-0.10048 0.0105,-0.09995 0.0188,-0.09872 0.027,-0.0968 0.035,-0.0942 0.0428,-0.09094 0.0503,-0.08704 0.0574,-0.08253 0.0641,-0.07744 0.0703,-0.07181 0.0761,-0.06567 0.0813,-0.05907 0.086,-0.05206 0.09,-0.04469 0.0934,-0.037 0.0962,-0.02905 0.0983,-0.02089 0.0997,-0.0126 0.10035,-0.0042"
         stroke="#191919"
         stroke-width="0.35 px"
         style="fill:none;fill-opacity:1;fill-rule:evenodd;stroke:#ff0000;stroke-width:0.1;stroke-linecap:square;stroke-miterlimit:4;stroke-dasharray:none;stroke-opacity:1" /><path
         id="Cut002_cs_w0017"
         d="m 203.75061,53.795011 h 1.5 v -41.8 h -1.5 v 41.8"
         stroke="#191919"
         stroke-width="0.35 px"
         style="fill:#000000;fill-opacity:1;fill-rule:evenodd;stroke:#000000;stroke-width:0.35;stroke-linecap:square;stroke-miterlimit:4;stroke-dasharray:none;stroke-opacity:1" /><path
         id="Cut002_cs_w0018"
         d="m 208.25061,53.795011 h 1.5 v -41.8 h -1.5 v 41.8"
         stroke="#191919"
         stroke-width="0.35 px"
         style="fill:#000000;fill-opacity:1;fill-rule:evenodd;stroke:#000000;stroke-width:0.35;stroke-linecap:square;stroke-miterlimit:4;stroke-dasharray:none;stroke-opacity:1" /><path
         id="Cut002_cs_w0020"
         d="m 201.50061,55.995011 m 0,0 0.10041,0.0042 0.0997,0.0126 0.0983,0.0209 0.0962,0.02905 0.0934,0.037 0.09,0.04469 0.086,0.05206 0.0813,0.05907 0.0761,0.06567 0.0703,0.07181 0.0641,0.07744 0.0574,0.08253 0.0503,0.08704 0.0428,0.09094 0.035,0.0942 0.027,0.0968 0.0188,0.09872 0.0105,0.09995 0.002,0.10048 -0.006,0.100303 -0.0147,0.09942 -0.023,0.09785 -0.0311,0.09558 -0.0389,0.09265 -0.0466,0.08907 -0.0539,0.08486 -0.0608,0.08005 -0.0673,0.07469 -0.0733,0.0688 -0.0788,0.06243 -0.0837,0.05562 -0.0881,0.04842 -0.0918,0.04088 -0.0949,0.03305 -0.0973,0.02499 -0.0991,0.01676 -0.10015,0.0084 h -0.1005 l -0.10015,-0.0084 -0.0991,-0.01676 -0.0973,-0.02499 -0.0949,-0.03305 -0.0918,-0.04088 -0.0881,-0.04842 -0.0837,-0.05562 -0.0788,-0.06243 -0.0733,-0.0688 -0.0673,-0.07469 -0.0608,-0.08005 -0.0538,-0.08486 -0.0466,-0.08907 -0.0389,-0.09265 -0.0311,-0.09558 -0.023,-0.09785 -0.0147,-0.09942 -0.006,-0.100303 0.002,-0.10048 0.0105,-0.09995 0.0188,-0.09872 0.027,-0.0968 0.035,-0.0942 0.0428,-0.09094 0.0503,-0.08704 0.0574,-0.08253 0.0641,-0.07744 0.0703,-0.07181 0.0761,-0.06567 0.0813,-0.05907 0.086,-0.05206 0.09,-0.04469 0.0934,-0.037 0.0962,-0.02905 0.0983,-0.0209 0.0997,-0.0126 0.10036,-0.0042"
         stroke="#191919"
         stroke-width="0.35 px"
         style="fill:none;fill-opacity:1;fill-rule:evenodd;stroke:#ff0000;stroke-width:0.1;stroke-linecap:square;stroke-miterlimit:4;stroke-dasharray:none;stroke-opacity:1" /><path
         id="Cut002_cs_w0022"
         d="m 221.85061,55.395011 m 0,0 0.10041,0.0042 0.0997,0.0126 0.0983,0.02089 0.0962,0.02905 0.0934,0.037 0.09,0.04469 0.086,0.05206 0.0813,0.05907 0.0761,0.06567 0.0703,0.0718 0.0641,0.07744 0.0574,0.08253 0.0503,0.08704 0.0428,0.09094 0.035,0.0942 0.027,0.0968 0.0188,0.09872 0.0105,0.09995 0.002,0.10048 -0.006,0.100303 -0.0147,0.09942 -0.023,0.09785 -0.0311,0.09558 -0.0389,0.09265 -0.0466,0.08907 -0.0538,0.08486 -0.0608,0.08005 -0.0673,0.07469 -0.0733,0.0688 -0.0788,0.06243 -0.0837,0.05562 -0.0881,0.04842 -0.0918,0.04088 -0.0949,0.03305 -0.0973,0.02499 -0.0991,0.01676 -0.10015,0.0084 h -0.1005 l -0.10015,-0.0084 -0.0991,-0.01676 -0.0973,-0.02499 -0.0949,-0.03305 -0.0918,-0.04088 -0.0881,-0.04842 -0.0837,-0.05562 -0.0788,-0.06243 -0.0733,-0.0688 -0.0673,-0.07469 -0.0608,-0.08005 -0.0539,-0.08486 -0.0466,-0.08907 -0.0389,-0.09265 -0.0311,-0.09558 -0.0229,-0.09785 -0.0147,-0.09942 -0.006,-0.100303 0.002,-0.10048 0.0105,-0.09995 0.0188,-0.09872 0.027,-0.0968 0.035,-0.0942 0.0428,-0.09094 0.0503,-0.08704 0.0574,-0.08253 0.0641,-0.07744 0.0703,-0.0718 0.0761,-0.06567 0.0813,-0.05907 0.086,-0.05206 0.09,-0.04469 0.0934,-0.037 0.0962,-0.02905 0.0983,-0.02089 0.0997,-0.0126 0.1004,-0.0042"
         stroke="#191919"
         stroke-width="0.35 px"
         style="fill:none;fill-opacity:1;fill-rule:evenodd;stroke:#ff0000;stroke-width:0.1;stroke-linecap:square;stroke-miterlimit:4;stroke-dasharray:none;stroke-opacity:1" /><path
         id="Cut002_cs_w0023"
         d="m 259.25061,18.495011 h 10.1 v -12 h -10.1 v 12"
         stroke="#191919"
         stroke-width="0.35 px"
         style="fill:#000000;fill-opacity:1;fill-rule:evenodd;stroke:#000000;stroke-width:0.35;stroke-linecap:square;stroke-miterlimit:4;stroke-dasharray:none;stroke-opacity:1" /><path
         id="Cut002_cs_w0025"
         d="m 273.75061,22.695011 m 0,0 0.10041,0.0042 0.0997,0.0126 0.0983,0.02089 0.0962,0.02905 0.0934,0.037 0.09,0.04469 0.086,0.05206 0.0813,0.05907 0.0761,0.06567 0.0703,0.0718 0.0641,0.07744 0.0574,0.08253 0.0503,0.08704 0.0428,0.09094 0.035,0.0942 0.027,0.0968 0.0188,0.09872 0.0105,0.09995 0.002,0.10048 -0.006,0.100303 -0.0147,0.09942 -0.0229,0.09785 -0.0311,0.09558 -0.0389,0.09265 -0.0466,0.08907 -0.0539,0.08486 -0.0608,0.08005 -0.0673,0.07469 -0.0733,0.0688 -0.0788,0.06243 -0.0837,0.05562 -0.0881,0.04842 -0.0918,0.04088 -0.0949,0.03305 -0.0973,0.02499 -0.0991,0.01676 -0.10015,0.0084 h -0.1005 l -0.10015,-0.0084 -0.0991,-0.01676 -0.0973,-0.02499 -0.0949,-0.03305 -0.0918,-0.04088 -0.0881,-0.04842 -0.0837,-0.05562 -0.0788,-0.06243 -0.0733,-0.0688 -0.0673,-0.07469 -0.0608,-0.08005 -0.0539,-0.08485 -0.0466,-0.08907 -0.0389,-0.09265 -0.0311,-0.09558 -0.0229,-0.09785 -0.0147,-0.09942 -0.006,-0.100303 0.002,-0.10048 0.0105,-0.09995 0.0188,-0.09872 0.027,-0.0968 0.035,-0.0942 0.0428,-0.09094 0.0503,-0.08704 0.0574,-0.08253 0.0641,-0.07744 0.0703,-0.0718 0.0761,-0.06567 0.0813,-0.05907 0.086,-0.05206 0.09,-0.04469 0.0934,-0.037 0.0962,-0.02905 0.0983,-0.02089 0.0997,-0.0126 0.10041,-0.0042"
         stroke="#191919"
         stroke-width="0.35 px"
         style="fill:none;fill-opacity:1;fill-rule:evenodd;stroke:#ff0000;stroke-width:0.1;stroke-linecap:square;stroke-miterlimit:4;stroke-dasharray:none;stroke-opacity:1" /><path
         id="Cut002_cs_w0027"
         d="m 297.95061,7.695011 m 0,0 0.10041,0.0042 0.0997,0.0126 0.0983,0.02089 0.0962,0.02905 0.0934,0.037 0.09,0.04469 0.086,0.05206 0.0813,0.05907 0.0761,0.06567 0.0703,0.07181 0.0641,0.07744 0.0573,0.08253 0.0502,0.08704 0.0428,0.09094 0.035,0.0942 0.027,0.0968 0.0188,0.09872 0.0105,0.09995 0.002,0.10048 -0.006,0.100303 -0.0147,0.09942 -0.0229,0.09785 -0.0311,0.09558 -0.0389,0.09265 -0.0466,0.08907 -0.0538,0.08486 -0.0608,0.08005 -0.0673,0.07469 -0.0733,0.0688 -0.0788,0.06243 -0.0837,0.05562 -0.0881,0.04842 -0.0918,0.04088 -0.0949,0.03305 -0.0973,0.02499 -0.0991,0.01676 -0.10015,0.0084 h -0.1005 l -0.10015,-0.0084 -0.0991,-0.01676 -0.0974,-0.02499 -0.0949,-0.03305 -0.0918,-0.04088 -0.0881,-0.04842 -0.0837,-0.05562 -0.0788,-0.06243 -0.0733,-0.0688 -0.0673,-0.07469 -0.0608,-0.08005 -0.0538,-0.08486 -0.0466,-0.08907 -0.0389,-0.09265 -0.0311,-0.09558 -0.0229,-0.09785 -0.0147,-0.09942 -0.006,-0.100303 0.002,-0.10048 0.0105,-0.09995 0.0188,-0.09872 0.027,-0.0968 0.035,-0.0942 0.0428,-0.09094 0.0503,-0.08704 0.0573,-0.08253 0.0641,-0.07744 0.0703,-0.07181 0.0761,-0.06567 0.0813,-0.05907 0.086,-0.05206 0.09,-0.04469 0.0934,-0.037 0.0962,-0.02905 0.0983,-0.02089 0.0997,-0.0126 0.10059,-0.0042"
         stroke="#191919"
         stroke-width="0.35 px"
         style="fill:none;fill-opacity:1;fill-rule:evenodd;stroke:#ff0000;stroke-width:0.1;stroke-linecap:square;stroke-miterlimit:4;stroke-dasharray:none;stroke-opacity:1" /><path
         id="Cut002_cs_w0028"
         d="m 259.25061,58.945011 h 10.1 v -12 h -10.1 v 12"
         stroke="#191919"
         stroke-width="0.35 px"
         style="fill:#000000;fill-opacity:1;fill-rule:evenodd;stroke:#000000;stroke-width:0.35;stroke-linecap:square;stroke-miterlimit:4;stroke-dasharray:none;stroke-opacity:1" /><path
         id="Cut002_cs_w0030"
         d="m 273.75061,50.445011 m 0,0 0.10041,0.0042 0.0997,0.0126 0.0983,0.02089 0.0962,0.02905 0.0934,0.037 0.09,0.04469 0.086,0.05206 0.0813,0.05907 0.0761,0.06567 0.0703,0.07181 0.0641,0.07744 0.0574,0.08253 0.0503,0.08704 0.0428,0.09094 0.035,0.0942 0.027,0.0968 0.0188,0.09872 0.0105,0.09995 0.002,0.10048 -0.006,0.100303 -0.0147,0.09942 -0.0229,0.09785 -0.0311,0.09558 -0.0389,0.09265 -0.0466,0.08907 -0.0539,0.08486 -0.0608,0.08005 -0.0673,0.07469 -0.0733,0.0688 -0.0788,0.06243 -0.0837,0.05562 -0.0881,0.04842 -0.0918,0.04088 -0.0949,0.03305 -0.0973,0.02499 -0.0991,0.01676 -0.10015,0.0084 h -0.1005 l -0.10015,-0.0084 -0.0991,-0.01676 -0.0973,-0.02499 -0.0949,-0.03305 -0.0918,-0.04088 -0.0881,-0.04842 -0.0837,-0.05562 -0.0788,-0.06243 -0.0733,-0.0688 -0.0673,-0.07469 -0.0608,-0.08005 -0.0539,-0.08486 -0.0466,-0.08907 -0.0389,-0.09265 -0.0311,-0.09558 -0.0229,-0.09785 -0.0147,-0.09942 -0.006,-0.100303 0.002,-0.10048 0.0105,-0.09995 0.0188,-0.09872 0.027,-0.0968 0.035,-0.0942 0.0428,-0.09094 0.0503,-0.08704 0.0574,-0.08253 0.0641,-0.07744 0.0703,-0.07181 0.0761,-0.06567 0.0813,-0.05907 0.086,-0.05206 0.09,-0.04469 0.0934,-0.037 0.0962,-0.02905 0.0983,-0.02089 0.0997,-0.0126 0.10036,-0.0042"
         stroke="#191919"
         stroke-width="0.35 px"
         style="fill:none;fill-opacity:1;fill-rule:evenodd;stroke:#ff0000;stroke-width:0.1;stroke-linecap:square;stroke-miterlimit:4;stroke-dasharray:none;stroke-opacity:1" /><path
         id="Cut002_cs_w0032"
         d="m 303.85061,55.395011 m 0,0 0.10041,0.0042 0.0997,0.0126 0.0983,0.02089 0.0962,0.02905 0.0934,0.037 0.09,0.04469 0.086,0.05206 0.0813,0.05907 0.0761,0.06567 0.0703,0.0718 0.0641,0.07744 0.0573,0.08253 0.0503,0.08704 0.0428,0.09094 0.035,0.0942 0.027,0.0968 0.0188,0.09872 0.0105,0.09995 0.002,0.10048 -0.006,0.100303 -0.0147,0.09942 -0.0229,0.09785 -0.0311,0.09558 -0.0389,0.09265 -0.0466,0.08907 -0.0538,0.08486 -0.0608,0.08005 -0.0673,0.07469 -0.0733,0.0688 -0.0788,0.06243 -0.0837,0.05562 -0.0881,0.04842 -0.0918,0.04088 -0.0949,0.03305 -0.0974,0.02499 -0.0991,0.01676 -0.10015,0.0084 h -0.1005 l -0.10015,-0.0084 -0.0991,-0.01676 -0.0974,-0.02499 -0.0949,-0.03305 -0.0918,-0.04088 -0.0881,-0.04842 -0.0837,-0.05562 -0.0788,-0.06243 -0.0733,-0.0688 -0.0673,-0.07469 -0.0608,-0.08005 -0.0538,-0.08486 -0.0466,-0.08907 -0.0389,-0.09265 -0.0311,-0.09558 -0.0229,-0.09785 -0.0147,-0.09942 -0.006,-0.100303 0.002,-0.10048 0.0105,-0.09995 0.0188,-0.09872 0.027,-0.0968 0.035,-0.0942 0.0428,-0.09094 0.0503,-0.08704 0.0573,-0.08253 0.0641,-0.07744 0.0703,-0.0718 0.0761,-0.06567 0.0813,-0.05907 0.086,-0.05206 0.09,-0.04469 0.0934,-0.037 0.0962,-0.02905 0.0983,-0.02089 0.0997,-0.0126 0.10059,-0.0042"
         stroke="#191919"
         stroke-width="0.35 px"
         style="fill:none;fill-opacity:1;fill-rule:evenodd;stroke:#ff0000;stroke-width:0.1;stroke-linecap:square;stroke-miterlimit:4;stroke-dasharray:none;stroke-opacity:1" /></g><g
       id="Cut001_cs"
       transform="matrix(-1,0,0,1,248.68738,213.19647)"
       style="stroke:#ff0000;stroke-width:0.1;stroke-dasharray:none;stroke-opacity:1"><path
         id="Cut001_cs_w0000"
         d="m -17.6,-37 h 23 v 8.15 H 17 v 16.45 h 4.75 V -10 H 32.5 v -31.169972 h -3 v -10 h 3 v -10 h -3 V -70 H 25 v -3 H 15 v 3 H 5 v -3 H -5 v 3 h -10 v -3 h -10 v 3 h -4.5 v 8.830028 h -3 v 10 h 3 v 10 h -3 V -31.17 h 14.9 V -37"
         stroke="#191919"
         stroke-width="0.35 px"
         style="fill:none;fill-opacity:1;fill-rule:evenodd;stroke:#ff0000;stroke-width:0.1;stroke-linecap:square;stroke-miterlimit:4;stroke-dasharray:none;stroke-opacity:1" /><title
         id="title1-8">b'Cut001_cs'</title></g><g
       id="Body005_cs-8"
       transform="matrix(-1,0,0,1,436.71704,171.84131)"
       style="stroke:#ff0000;stroke-width:0.1;stroke-dasharray:none;stroke-opacity:1"><path
         id="Body005_cs_w0000-3"
         d="m 29.5,-70 v 3 h -59 v -3 h 4.5 v -3 h 10 v 3 h 10 v -3 H 5 v 3 h 10 v -3 h 10 v 3 h 4.5"
         stroke="#191919"
         stroke-width="0.35 px"
         style="fill:none;fill-opacity:1;fill-rule:evenodd;stroke:#ff0000;stroke-width:0.1;stroke-linecap:square;stroke-miterlimit:4;stroke-dasharray:none;stroke-opacity:1" /><title
         id="title1-2-2">b'Body005_cs'</title></g><g
       id="Cut004_cs-1"
       transform="matrix(1,0,0,-1,404.10956,61.941585)"
       style="stroke:#ff0000;stroke-width:0.1;stroke-dasharray:none;stroke-opacity:1"><path
         id="Cut004_cs_w0000-4"
         d="m 10,-14 v -5 h 3 v -5 h 57 v 10 H 10"
         stroke="#191919"
         stroke-width="0.35 px"
         style="fill:none;fill-opacity:1;fill-rule:evenodd;stroke:#ff0000;stroke-width:0.1;stroke-linecap:square;stroke-miterlimit:4;stroke-dasharray:none;stroke-opacity:1" /><title
         id="title1-6-8">b'Cut004_cs'</title></g><rect
       style="fill:#0fff00;fill-opacity:1;stroke:none;stroke-width:0.0876947;stroke-opacity:1;paint-order:stroke fill markers"
       id="rect1"
       width="62"
       height="92"
       x="284.5"
       y="79.5" /><rect
       style="fill:#0fff00;fill-opacity:1;stroke:none;stroke-width:0.118776;stroke-opacity:1;paint-order:stroke fill markers"
       id="rect2"
       width="61"
       height="76"
       x="372.5"
       y="112.5" /><rect
       style="fill:#0fff00;fill-opacity:1;stroke:none;stroke-width:0.146255;stroke-opacity:1;paint-order:stroke fill markers"
       id="rect3"
       width="235"
       height="74"
       x="246.5"
       y="0" /><rect
       style="fill:#0fff00;fill-opacity:1;stroke:none;stroke-width:0.101479;stroke-opacity:1;paint-order:stroke fill markers"
       id="rect4"
       width="205"
       height="27.218668"
       x="232.5"
       y="188.5" /><rect
       style="fill:#0fff00;fill-opacity:1;stroke:none;stroke-width:0.1;stroke-opacity:1;paint-order:stroke fill markers"
       id="rect5"
       width="23.482775"
       height="159.04242"
       x="476.30273"
       y="-113.24552"
       transform="rotate(20.805076)" /><rect
       style="fill:#0fff00;fill-opacity:1;stroke:none;stroke-width:0.0237115;stroke-opacity:1;paint-order:stroke fill markers"
       id="rect6"
       width="25"
       height="6"
       x="257.5"
       y="182.5" /></g></svg>
