999
FreeCAD v0.21 33668 +26 (Git)
  0
SECTION
  2
HEADER
  9
$ACADVER
  1
AC1014
  9
$ACADMAINTVER
 70
     9
  9
$DWGCODEPAGE
  3
ANSI_1252
  9
$TEXTSTYLE
  7
STANDARD
  9
$DIMSTYLE
  2
STANDARD
  9
$DIMTXSTY
  7
STANDARD
  9
$CMLSTYLE
  2
STANDARD
  9
$LUNITS
 70
2
  9
$INSUNITS
 70
4
  9
$PEXTMAX
 10
50
 20
50
 30
50
  9
$PEXTMIN
 10
0
 20
0
 30
0
  9
$HANDSEED
  5
FFFF
  0
ENDSEC
  0
SECTION
  2
CLASSES
  0
CLASS
  1
ACDBDICTIONARYWDFLT
  2
AcDbDictionaryWithDefault
  3
ObjectDBX Classes
 90
        0
280
     0
281
     0
  0
CLASS
  1
XRECORD
  2
AcDbXrecord
  3
ObjectDBX Classes
 90
        0
280
     0
281
     0
  0
CLASS
  1
LWPOLYLINE
  2
AcDbPolyline
  3
ObjectDBX Classes
 90
        0
280
     0
281
     1
  0
ENDSEC
  0
SECTION
  2
TABLES
  0
TABLE
  2
VPORT
  5
20
330
0
100
AcDbSymbolTable
 70
     1
  0
VPORT
  5
21
330
20
100
AcDbSymbolTableRecord
100
AcDbViewportTableRecord
  2
*ACTIVE
 70
     0
  0
ENDTAB
  0
TABLE
  2
LTYPE
  5
22
330
0
100
AcDbSymbolTable
 70
     1
  0
LTYPE
  5
23
330
21
100
AcDbSymbolTableRecord
100
AcDbLinetypeTableRecord
  2
BYBLOCK
 70
     0
  3

 72
    65
 73
     0
 40
0.0
  0
LTYPE
  5
24
330
21
100
AcDbSymbolTableRecord
100
AcDbLinetypeTableRecord
  2
BYLAYER
 70
     0
  3

 72
    65
 73
     0
 40
0.0
  0
LTYPE
  5
25
330
21
100
AcDbSymbolTableRecord
100
AcDbLinetypeTableRecord
  2
CONTINUOUS
 70
     0
  3
Solid line
 72
    65
 73
     0
 40
0.0
  0
ENDTAB
  0
TABLE
  2
LAYER
  5
B03
330
0
100
AcDbSymbolTable
 70
3
  0
LAYER
  5
B04
330
B03
100
AcDbSymbolTableRecord
100
AcDbLayerTableRecord
  2
0
 70
   0
 62
   7
  6
CONTINUOUS
  0
LAYER
  5
B05
330
B03
100
AcDbSymbolTableRecord
100
AcDbLayerTableRecord
  2
none
 70
    0
 62
    7
  6
CONTINUOUS
  0
LAYER
  5
B06
330
B03
100
AcDbSymbolTableRecord
100
AcDbLayerTableRecord
  2
Mesh_cs001
 70
    0
 62
    7
  6
CONTINUOUS
  0
ENDTAB
  0
TABLE
  2
STYLE
  5
70
330
0
100
AcDbSymbolTable
 70
     2
  0
STYLE
  5
71
330
70
100
AcDbSymbolTableRecord
100
AcDbTextStyleTableRecord
  2
STANDARD
 70
     0
 40
0.0
 41
1.0
 50
0.0
 71
     0
 42
2.5
  3
arial.ttf
  4

  0
STYLE
  5
72
330
70
100
AcDbSymbolTableRecord
100
AcDbTextStyleTableRecord
  2
ANNOTATIVE
 70
     0
 40
0.0
 41
1.0
 50
0.0
 71
     0
 42
2.5
  3
arial.ttf
  4

  0
ENDTAB
  0
TABLE
  2
VIEW
  5
73
330
0
100
AcDbSymbolTable
 70
     0
  0
ENDTAB
  0
TABLE
  2
UCS
  5
74
330
0
100
AcDbSymbolTable
 70
     0
  0
ENDTAB
  0
TABLE
  2
APPID
  5
75
330
0
100
AcDbSymbolTable
 70
     2
  0
APPID
  5
76
330
75
100
AcDbSymbolTableRecord
100
AcDbRegAppTableRecord
  2
ACAD
 70
     0
  0
APPID
  5
77
330
75
100
AcDbSymbolTableRecord
100
AcDbRegAppTableRecord
  2
ACADANNOTATIVE
 70
     0
  0
ENDTAB
  0
TABLE
  2
DIMSTYLE
  5
78
330
0
100
AcDbSymbolTable
 70
     2
  0
DIMSTYLE
105
79
330
78
100
AcDbSymbolTableRecord
100
AcDbDimStyleTableRecord
  2
STANDARD
 70
     0
  3

  4

  5

  6

  7

 40
0.0
 41
2.5
 42
0.625
 43
3.75
 44
1.25
 45
0.0
 46
0.0
 47
0.0
 48
0.0
140
2.5
141
2.5
142
0.0
143
0.03937007874016
144
1.0
145
0.0
146
1.0
147
0.625
 71
     0
 72
     0
 73
     0
 74
     0
 75
     0
 76
     0
 77
     1
 78
     8
170
     0
171
     3
172
     1
173
     0
174
     0
175
     0
176
     0
177
     0
178
     0
270
     2
271
     2
272
     2
273
     2
274
     3
340
71
275
     0
280
     0
281
     0
282
     0
283
     0
284
     8
285
     0
286
     0
287
     3
288
     0
  0
ENDTAB
  0
TABLE
  2
BLOCK_RECORD
  5
A01
330
0
100
AcDbSymbolTable
  70
5
  0
BLOCK_RECORD
  5
A02
330
A01
100
AcDbSymbolTableRecord
100
AcDbBlockTableRecord
  2
*MODEL_SPACE
  0
BLOCK_RECORD
  5
A03
330
A01
100
AcDbSymbolTableRecord
100
AcDbBlockTableRecord
  2
*PAPER_SPACE
  0
ENDTAB
  0
ENDSEC
  0
SECTION
  2
BLOCKS
  0
BLOCK
  5
A04
330
A02
100
AcDbEntity
  8
0
100
AcDbBlockBegin
  2
*MODEL_SPACE
 70
   0
 10
0
 20
0
 30
0
  3
*MODEL_SPACE
  1
 
  0
ENDBLK
  5
A05
330
A02
100
AcDbEntity
  8
0
100
AcDbBlockEnd
  0
BLOCK
  5
A06
330
A03
100
AcDbEntity
 67
1
  8
0
100
AcDbBlockBegin
  2
*PAPER_SPACE
 70
   0
 10
0
 20
0
 30
0
  3
*PAPER_SPACE
  1
 
  0
ENDBLK
  5
A07
330
A03
100
AcDbEntity
 67
    1
  8
0
100
AcDbBlockEnd
  0
ENDSEC
  0
SECTION
  2
ENTITIES
  0
LINE
  5
A08
330
A02
100
AcDbEntity
  8
Mesh_cs001
100
AcDbLine
 10
15
 20
289.36
 30
9.5
 11
15
 21
285.074
 31
9.5
  0
LINE
  5
A09
330
A02
100
AcDbEntity
  8
Mesh_cs001
100
AcDbLine
 10
15
 20
285.074
 30
9.5
 11
10.7143
 21
285.074
 31
9.5
  0
LINE
  5
A0A
330
A02
100
AcDbEntity
  8
Mesh_cs001
100
AcDbLine
 10
10.7143
 20
285.074
 30
9.5
 11
0
 21
285.074
 31
9.5
  0
LINE
  5
A0B
330
A02
100
AcDbEntity
  8
Mesh_cs001
100
AcDbLine
 10
0
 20
285.074
 30
9.5
 11
0
 21
289.36
 31
9.5
  0
LINE
  5
A0C
330
A02
100
AcDbEntity
  8
Mesh_cs001
100
AcDbLine
 10
0
 20
289.36
 30
9.5
 11
0
 21
300.074
 31
9.5
  0
LINE
  5
A0D
330
A02
100
AcDbEntity
  8
Mesh_cs001
100
AcDbLine
 10
0
 20
300.074
 30
9.5
 11
10.7143
 21
300.074
 31
9.5
  0
LINE
  5
A0E
330
A02
100
AcDbEntity
  8
Mesh_cs001
100
AcDbLine
 10
10.7143
 20
300.074
 30
9.5
 11
15
 21
300.074
 31
9.5
  0
LINE
  5
A0F
330
A02
100
AcDbEntity
  8
Mesh_cs001
100
AcDbLine
 10
15
 20
300.074
 30
9.5
 11
15
 21
289.36
 31
9.5
  0
LINE
  5
A10
330
A02
100
AcDbEntity
  8
Mesh_cs001
100
AcDbLine
 10
174.353
 20
275.117
 30
9.5
 11
174.468
 21
275.103
 31
9.5
  0
LINE
  5
A11
330
A02
100
AcDbEntity
  8
Mesh_cs001
100
AcDbLine
 10
174.468
 20
275.103
 30
9.5
 11
174.678
 21
275.085
 31
9.5
  0
LINE
  5
A12
330
A02
100
AcDbEntity
  8
Mesh_cs001
100
AcDbLine
 10
174.678
 20
275.085
 30
9.5
 11
174.794
 21
275.08
 31
9.5
  0
LINE
  5
A13
330
A02
100
AcDbEntity
  8
Mesh_cs001
100
AcDbLine
 10
174.794
 20
275.08
 30
9.5
 11
175
 21
275.074
 31
9.5
  0
LINE
  5
A14
330
A02
100
AcDbEntity
  8
Mesh_cs001
100
AcDbLine
 10
175
 20
275.074
 30
9.5
 11
180.714
 21
275.074
 31
9.5
  0
LINE
  5
A15
330
A02
100
AcDbEntity
  8
Mesh_cs001
100
AcDbLine
 10
180.714
 20
275.074
 30
9.5
 11
195
 21
275.074
 31
9.5
  0
LINE
  5
A16
330
A02
100
AcDbEntity
  8
Mesh_cs001
100
AcDbLine
 10
195
 20
275.074
 30
9.5
 11
195
 21
203.624
 31
9.5
  0
LINE
  5
A17
330
A02
100
AcDbEntity
  8
Mesh_cs001
100
AcDbLine
 10
195
 20
203.624
 30
9.5
 11
195
 21
25
 31
9.5
  0
LINE
  5
A18
330
A02
100
AcDbEntity
  8
Mesh_cs001
100
AcDbLine
 10
195
 20
25
 30
9.5
 11
180.714
 21
25
 31
9.5
  0
LINE
  5
A19
330
A02
100
AcDbEntity
  8
Mesh_cs001
100
AcDbLine
 10
180.714
 20
25
 30
9.5
 11
175
 21
25
 31
9.5
  0
LINE
  5
A1A
330
A02
100
AcDbEntity
  8
Mesh_cs001
100
AcDbLine
 10
175
 20
25
 30
9.5
 11
174.794
 21
24.994
 31
9.5
  0
LINE
  5
A1B
330
A02
100
AcDbEntity
  8
Mesh_cs001
100
AcDbLine
 10
174.794
 20
24.994
 30
9.5
 11
174.678
 21
24.9894
 31
9.5
  0
LINE
  5
A1C
330
A02
100
AcDbEntity
  8
Mesh_cs001
100
AcDbLine
 10
174.678
 20
24.9894
 30
9.5
 11
174.468
 21
24.971
 31
9.5
  0
LINE
  5
A1D
330
A02
100
AcDbEntity
  8
Mesh_cs001
100
AcDbLine
 10
174.468
 20
24.971
 30
9.5
 11
174.353
 21
24.9569
 31
9.5
  0
LINE
  5
A1E
330
A02
100
AcDbEntity
  8
Mesh_cs001
100
AcDbLine
 10
174.353
 20
24.9569
 30
9.5
 11
174.108
 21
24.9195
 31
9.5
  0
LINE
  5
A1F
330
A02
100
AcDbEntity
  8
Mesh_cs001
100
AcDbLine
 10
174.108
 20
24.9195
 30
9.5
 11
174.006
 21
24.8989
 31
9.5
  0
LINE
  5
A20
330
A02
100
AcDbEntity
  8
Mesh_cs001
100
AcDbLine
 10
174.006
 20
24.8989
 30
9.5
 11
173.759
 21
24.8432
 31
9.5
  0
LINE
  5
A21
330
A02
100
AcDbEntity
  8
Mesh_cs001
100
AcDbLine
 10
173.759
 20
24.8432
 30
9.5
 11
173.668
 21
24.8182
 31
9.5
  0
LINE
  5
A22
330
A02
100
AcDbEntity
  8
Mesh_cs001
100
AcDbLine
 10
173.668
 20
24.8182
 30
9.5
 11
173.42
 21
24.7435
 31
9.5
  0
LINE
  5
A23
330
A02
100
AcDbEntity
  8
Mesh_cs001
100
AcDbLine
 10
173.42
 20
24.7435
 30
9.5
 11
173.331
 21
24.7125
 31
9.5
  0
LINE
  5
A24
330
A02
100
AcDbEntity
  8
Mesh_cs001
100
AcDbLine
 10
173.331
 20
24.7125
 30
9.5
 11
173.086
 21
24.6185
 31
9.5
  0
LINE
  5
A25
330
A02
100
AcDbEntity
  8
Mesh_cs001
100
AcDbLine
 10
173.086
 20
24.6185
 30
9.5
 11
173.015
 21
24.5891
 31
9.5
  0
LINE
  5
A26
330
A02
100
AcDbEntity
  8
Mesh_cs001
100
AcDbLine
 10
173.015
 20
24.5891
 30
9.5
 11
172.775
 21
24.4756
 31
9.5
  0
LINE
  5
A27
330
A02
100
AcDbEntity
  8
Mesh_cs001
100
AcDbLine
 10
172.775
 20
24.4756
 30
9.5
 11
172.711
 21
24.445
 31
9.5
  0
LINE
  5
A28
330
A02
100
AcDbEntity
  8
Mesh_cs001
100
AcDbLine
 10
172.711
 20
24.445
 30
9.5
 11
172.648
 21
24.4113
 31
9.5
  0
LINE
  5
A29
330
A02
100
AcDbEntity
  8
Mesh_cs001
100
AcDbLine
 10
172.648
 20
24.4113
 30
9.5
 11
172.414
 21
24.2785
 31
9.5
  0
LINE
  5
A2A
330
A02
100
AcDbEntity
  8
Mesh_cs001
100
AcDbLine
 10
172.414
 20
24.2785
 30
9.5
 11
172.353
 21
24.2417
 31
9.5
  0
LINE
  5
A2B
330
A02
100
AcDbEntity
  8
Mesh_cs001
100
AcDbLine
 10
172.353
 20
24.2417
 30
9.5
 11
172.127
 21
24.0902
 31
9.5
  0
LINE
  5
A2C
330
A02
100
AcDbEntity
  8
Mesh_cs001
100
AcDbLine
 10
172.127
 20
24.0902
 30
9.5
 11
172.069
 21
24.0505
 31
9.5
  0
LINE
  5
A2D
330
A02
100
AcDbEntity
  8
Mesh_cs001
100
AcDbLine
 10
172.069
 20
24.0505
 30
9.5
 11
172.012
 21
24.0078
 31
9.5
  0
LINE
  5
A2E
330
A02
100
AcDbEntity
  8
Mesh_cs001
100
AcDbLine
 10
172.012
 20
24.0078
 30
9.5
 11
171.797
 21
23.8386
 31
9.5
  0
LINE
  5
A2F
330
A02
100
AcDbEntity
  8
Mesh_cs001
100
AcDbLine
 10
171.797
 20
23.8386
 30
9.5
 11
171.743
 21
23.7932
 31
9.5
  0
LINE
  5
A30
330
A02
100
AcDbEntity
  8
Mesh_cs001
100
AcDbLine
 10
171.743
 20
23.7932
 30
9.5
 11
171.69
 21
23.7451
 31
9.5
  0
LINE
  5
A31
330
A02
100
AcDbEntity
  8
Mesh_cs001
100
AcDbLine
 10
171.69
 20
23.7451
 30
9.5
 11
171.489
 21
23.5593
 31
9.5
  0
LINE
  5
A32
330
A02
100
AcDbEntity
  8
Mesh_cs001
100
AcDbLine
 10
171.489
 20
23.5593
 30
9.5
 11
171.439
 21
23.5087
 31
9.5
  0
LINE
  5
A33
330
A02
100
AcDbEntity
  8
Mesh_cs001
100
AcDbLine
 10
171.439
 20
23.5087
 30
9.5
 11
171.252
 21
23.3079
 31
9.5
  0
LINE
  5
A34
330
A02
100
AcDbEntity
  8
Mesh_cs001
100
AcDbLine
 10
171.252
 20
23.3079
 30
9.5
 11
171.205
 21
23.2549
 31
9.5
  0
LINE
  5
A35
330
A02
100
AcDbEntity
  8
Mesh_cs001
100
AcDbLine
 10
171.205
 20
23.2549
 30
9.5
 11
171.16
 21
23.1997
 31
9.5
  0
LINE
  5
A36
330
A02
100
AcDbEntity
  8
Mesh_cs001
100
AcDbLine
 10
171.16
 20
23.1997
 30
9.5
 11
170.99
 21
22.9858
 31
9.5
  0
LINE
  5
A37
330
A02
100
AcDbEntity
  8
Mesh_cs001
100
AcDbLine
 10
170.99
 20
22.9858
 30
9.5
 11
170.948
 21
22.9283
 31
9.5
  0
LINE
  5
A38
330
A02
100
AcDbEntity
  8
Mesh_cs001
100
AcDbLine
 10
170.948
 20
22.9283
 30
9.5
 11
170.795
 21
22.7034
 31
9.5
  0
LINE
  5
A39
330
A02
100
AcDbEntity
  8
Mesh_cs001
100
AcDbLine
 10
170.795
 20
22.7034
 30
9.5
 11
170.756
 21
22.644
 31
9.5
  0
LINE
  5
A3A
330
A02
100
AcDbEntity
  8
Mesh_cs001
100
AcDbLine
 10
170.756
 20
22.644
 30
9.5
 11
170.72
 21
22.5827
 31
9.5
  0
LINE
  5
A3B
330
A02
100
AcDbEntity
  8
Mesh_cs001
100
AcDbLine
 10
170.72
 20
22.5827
 30
9.5
 11
170.586
 21
22.3488
 31
9.5
  0
LINE
  5
A3C
330
A02
100
AcDbEntity
  8
Mesh_cs001
100
AcDbLine
 10
170.586
 20
22.3488
 30
9.5
 11
170.554
 21
22.2859
 31
9.5
  0
LINE
  5
A3D
330
A02
100
AcDbEntity
  8
Mesh_cs001
100
AcDbLine
 10
170.554
 20
22.2859
 30
9.5
 11
170.439
 21
22.0454
 31
9.5
  0
LINE
  5
A3E
330
A02
100
AcDbEntity
  8
Mesh_cs001
100
AcDbLine
 10
170.439
 20
22.0454
 30
9.5
 11
170.409
 21
21.9809
 31
9.5
  0
LINE
  5
A3F
330
A02
100
AcDbEntity
  8
Mesh_cs001
100
AcDbLine
 10
170.409
 20
21.9809
 30
9.5
 11
170.383
 21
21.9151
 31
9.5
  0
LINE
  5
A40
330
A02
100
AcDbEntity
  8
Mesh_cs001
100
AcDbLine
 10
170.383
 20
21.9151
 30
9.5
 11
170.287
 21
21.6702
 31
9.5
  0
LINE
  5
A41
330
A02
100
AcDbEntity
  8
Mesh_cs001
100
AcDbLine
 10
170.287
 20
21.6702
 30
9.5
 11
170.264
 21
21.6032
 31
9.5
  0
LINE
  5
A42
330
A02
100
AcDbEntity
  8
Mesh_cs001
100
AcDbLine
 10
170.264
 20
21.6032
 30
9.5
 11
170.181
 21
21.3286
 31
9.5
  0
LINE
  5
A43
330
A02
100
AcDbEntity
  8
Mesh_cs001
100
AcDbLine
 10
170.181
 20
21.3286
 30
9.5
 11
170.162
 21
21.2606
 31
9.5
  0
LINE
  5
A44
330
A02
100
AcDbEntity
  8
Mesh_cs001
100
AcDbLine
 10
170.162
 20
21.2606
 30
9.5
 11
170.145
 21
21.1917
 31
9.5
  0
LINE
  5
A45
330
A02
100
AcDbEntity
  8
Mesh_cs001
100
AcDbLine
 10
170.145
 20
21.1917
 30
9.5
 11
170.08
 21
20.8871
 31
9.5
  0
LINE
  5
A46
330
A02
100
AcDbEntity
  8
Mesh_cs001
100
AcDbLine
 10
170.08
 20
20.8871
 30
9.5
 11
170.067
 21
20.8175
 31
9.5
  0
LINE
  5
A47
330
A02
100
AcDbEntity
  8
Mesh_cs001
100
AcDbLine
 10
170.067
 20
20.8175
 30
9.5
 11
170.058
 21
20.7475
 31
9.5
  0
LINE
  5
A48
330
A02
100
AcDbEntity
  8
Mesh_cs001
100
AcDbLine
 10
170.058
 20
20.7475
 30
9.5
 11
170.02
 21
20.4467
 31
9.5
  0
LINE
  5
A49
330
A02
100
AcDbEntity
  8
Mesh_cs001
100
AcDbLine
 10
170.02
 20
20.4467
 30
9.5
 11
170.014
 21
20.3763
 31
9.5
  0
LINE
  5
A4A
330
A02
100
AcDbEntity
  8
Mesh_cs001
100
AcDbLine
 10
170.014
 20
20.3763
 30
9.5
 11
170.013
 21
20.335
 31
9.5
  0
LINE
  5
A4B
330
A02
100
AcDbEntity
  8
Mesh_cs001
100
AcDbLine
 10
170.013
 20
20.335
 30
9.5
 11
170.001
 21
20.0413
 31
9.5
  0
LINE
  5
A4C
330
A02
100
AcDbEntity
  8
Mesh_cs001
100
AcDbLine
 10
170.001
 20
20.0413
 30
9.5
 11
170
 21
20
 31
9.5
  0
LINE
  5
A4D
330
A02
100
AcDbEntity
  8
Mesh_cs001
100
AcDbLine
 10
170
 20
20
 30
9.5
 11
170
 21
14.2857
 31
9.5
  0
LINE
  5
A4E
330
A02
100
AcDbEntity
  8
Mesh_cs001
100
AcDbLine
 10
170
 20
14.2857
 30
9.5
 11
170
 21
0
 31
9.5
  0
LINE
  5
A4F
330
A02
100
AcDbEntity
  8
Mesh_cs001
100
AcDbLine
 10
170
 20
0
 30
9.5
 11
148
 21
0
 31
9.5
  0
LINE
  5
A50
330
A02
100
AcDbEntity
  8
Mesh_cs001
100
AcDbLine
 10
148
 20
0
 30
9.5
 11
125.909
 21
0
 31
9.5
  0
LINE
  5
A51
330
A02
100
AcDbEntity
  8
Mesh_cs001
100
AcDbLine
 10
125.909
 20
0
 30
9.5
 11
95.6818
 21
0
 31
9.5
  0
LINE
  5
A52
330
A02
100
AcDbEntity
  8
Mesh_cs001
100
AcDbLine
 10
95.6818
 20
0
 30
9.5
 11
47
 21
0
 31
9.5
  0
LINE
  5
A53
330
A02
100
AcDbEntity
  8
Mesh_cs001
100
AcDbLine
 10
47
 20
0
 30
9.5
 11
25
 21
0
 31
9.5
  0
LINE
  5
A54
330
A02
100
AcDbEntity
  8
Mesh_cs001
100
AcDbLine
 10
25
 20
0
 30
9.5
 11
25
 21
14.2857
 31
9.5
  0
LINE
  5
A55
330
A02
100
AcDbEntity
  8
Mesh_cs001
100
AcDbLine
 10
25
 20
14.2857
 30
9.5
 11
25
 21
20
 31
9.5
  0
LINE
  5
A56
330
A02
100
AcDbEntity
  8
Mesh_cs001
100
AcDbLine
 10
25
 20
20
 30
9.5
 11
24.9946
 21
20.1245
 31
9.5
  0
LINE
  5
A57
330
A02
100
AcDbEntity
  8
Mesh_cs001
100
AcDbLine
 10
24.9946
 20
20.1245
 30
9.5
 11
24.981
 21
20.4358
 31
9.5
  0
LINE
  5
A58
330
A02
100
AcDbEntity
  8
Mesh_cs001
100
AcDbLine
 10
24.981
 20
20.4358
 30
9.5
 11
24.9647
 21
20.5593
 31
9.5
  0
LINE
  5
A59
330
A02
100
AcDbEntity
  8
Mesh_cs001
100
AcDbLine
 10
24.9647
 20
20.5593
 30
9.5
 11
24.924
 21
20.8682
 31
9.5
  0
LINE
  5
A5A
330
A02
100
AcDbEntity
  8
Mesh_cs001
100
AcDbLine
 10
24.924
 20
20.8682
 30
9.5
 11
24.8971
 21
20.9899
 31
9.5
  0
LINE
  5
A5B
330
A02
100
AcDbEntity
  8
Mesh_cs001
100
AcDbLine
 10
24.8971
 20
20.9899
 30
9.5
 11
24.8296
 21
21.2941
 31
9.5
  0
LINE
  5
A5C
330
A02
100
AcDbEntity
  8
Mesh_cs001
100
AcDbLine
 10
24.8296
 20
21.2941
 30
9.5
 11
24.7922
 21
21.413
 31
9.5
  0
LINE
  5
A5D
330
A02
100
AcDbEntity
  8
Mesh_cs001
100
AcDbLine
 10
24.7922
 20
21.413
 30
9.5
 11
24.6985
 21
21.7101
 31
9.5
  0
LINE
  5
A5E
330
A02
100
AcDbEntity
  8
Mesh_cs001
100
AcDbLine
 10
24.6985
 20
21.7101
 30
9.5
 11
24.5792
 21
21.9979
 31
9.5
  0
LINE
  5
A5F
330
A02
100
AcDbEntity
  8
Mesh_cs001
100
AcDbLine
 10
24.5792
 20
21.9979
 30
9.5
 11
24.5315
 21
22.1131
 31
9.5
  0
LINE
  5
A60
330
A02
100
AcDbEntity
  8
Mesh_cs001
100
AcDbLine
 10
24.5315
 20
22.1131
 30
9.5
 11
24.474
 21
22.2236
 31
9.5
  0
LINE
  5
A61
330
A02
100
AcDbEntity
  8
Mesh_cs001
100
AcDbLine
 10
24.474
 20
22.2236
 30
9.5
 11
24.3301
 21
22.5
 31
9.5
  0
LINE
  5
A62
330
A02
100
AcDbEntity
  8
Mesh_cs001
100
AcDbLine
 10
24.3301
 20
22.5
 30
9.5
 11
24.2632
 21
22.6051
 31
9.5
  0
LINE
  5
A63
330
A02
100
AcDbEntity
  8
Mesh_cs001
100
AcDbLine
 10
24.2632
 20
22.6051
 30
9.5
 11
24.0958
 21
22.8679
 31
9.5
  0
LINE
  5
A64
330
A02
100
AcDbEntity
  8
Mesh_cs001
100
AcDbLine
 10
24.0958
 20
22.8679
 30
9.5
 11
23.9061
 21
23.1151
 31
9.5
  0
LINE
  5
A65
330
A02
100
AcDbEntity
  8
Mesh_cs001
100
AcDbLine
 10
23.9061
 20
23.1151
 30
9.5
 11
23.8302
 21
23.2139
 31
9.5
  0
LINE
  5
A66
330
A02
100
AcDbEntity
  8
Mesh_cs001
100
AcDbLine
 10
23.8302
 20
23.2139
 30
9.5
 11
23.746
 21
23.3058
 31
9.5
  0
LINE
  5
A67
330
A02
100
AcDbEntity
  8
Mesh_cs001
100
AcDbLine
 10
23.746
 20
23.3058
 30
9.5
 11
23.5355
 21
23.5355
 31
9.5
  0
LINE
  5
A68
330
A02
100
AcDbEntity
  8
Mesh_cs001
100
AcDbLine
 10
23.5355
 20
23.5355
 30
9.5
 11
23.3058
 21
23.746
 31
9.5
  0
LINE
  5
A69
330
A02
100
AcDbEntity
  8
Mesh_cs001
100
AcDbLine
 10
23.3058
 20
23.746
 30
9.5
 11
23.2139
 21
23.8302
 31
9.5
  0
LINE
  5
A6A
330
A02
100
AcDbEntity
  8
Mesh_cs001
100
AcDbLine
 10
23.2139
 20
23.8302
 30
9.5
 11
23.1151
 21
23.9061
 31
9.5
  0
LINE
  5
A6B
330
A02
100
AcDbEntity
  8
Mesh_cs001
100
AcDbLine
 10
23.1151
 20
23.9061
 30
9.5
 11
22.8679
 21
24.0958
 31
9.5
  0
LINE
  5
A6C
330
A02
100
AcDbEntity
  8
Mesh_cs001
100
AcDbLine
 10
22.8679
 20
24.0958
 30
9.5
 11
22.7628
 21
24.1627
 31
9.5
  0
LINE
  5
A6D
330
A02
100
AcDbEntity
  8
Mesh_cs001
100
AcDbLine
 10
22.7628
 20
24.1627
 30
9.5
 11
22.5
 21
24.3301
 31
9.5
  0
LINE
  5
A6E
330
A02
100
AcDbEntity
  8
Mesh_cs001
100
AcDbLine
 10
22.5
 20
24.3301
 30
9.5
 11
22.3895
 21
24.3877
 31
9.5
  0
LINE
  5
A6F
330
A02
100
AcDbEntity
  8
Mesh_cs001
100
AcDbLine
 10
22.3895
 20
24.3877
 30
9.5
 11
22.1131
 21
24.5315
 31
9.5
  0
LINE
  5
A70
330
A02
100
AcDbEntity
  8
Mesh_cs001
100
AcDbLine
 10
22.1131
 20
24.5315
 30
9.5
 11
21.8252
 21
24.6508
 31
9.5
  0
LINE
  5
A71
330
A02
100
AcDbEntity
  8
Mesh_cs001
100
AcDbLine
 10
21.8252
 20
24.6508
 30
9.5
 11
21.7101
 21
24.6985
 31
9.5
  0
LINE
  5
A72
330
A02
100
AcDbEntity
  8
Mesh_cs001
100
AcDbLine
 10
21.7101
 20
24.6985
 30
9.5
 11
21.5912
 21
24.7359
 31
9.5
  0
LINE
  5
A73
330
A02
100
AcDbEntity
  8
Mesh_cs001
100
AcDbLine
 10
21.5912
 20
24.7359
 30
9.5
 11
21.2941
 21
24.8296
 31
9.5
  0
LINE
  5
A74
330
A02
100
AcDbEntity
  8
Mesh_cs001
100
AcDbLine
 10
21.2941
 20
24.8296
 30
9.5
 11
20.9899
 21
24.8971
 31
9.5
  0
LINE
  5
A75
330
A02
100
AcDbEntity
  8
Mesh_cs001
100
AcDbLine
 10
20.9899
 20
24.8971
 30
9.5
 11
20.8682
 21
24.924
 31
9.5
  0
LINE
  5
A76
330
A02
100
AcDbEntity
  8
Mesh_cs001
100
AcDbLine
 10
20.8682
 20
24.924
 30
9.5
 11
20.7447
 21
24.9403
 31
9.5
  0
LINE
  5
A77
330
A02
100
AcDbEntity
  8
Mesh_cs001
100
AcDbLine
 10
20.7447
 20
24.9403
 30
9.5
 11
20.4358
 21
24.981
 31
9.5
  0
LINE
  5
A78
330
A02
100
AcDbEntity
  8
Mesh_cs001
100
AcDbLine
 10
20.4358
 20
24.981
 30
9.5
 11
20.3113
 21
24.9864
 31
9.5
  0
LINE
  5
A79
330
A02
100
AcDbEntity
  8
Mesh_cs001
100
AcDbLine
 10
20.3113
 20
24.9864
 30
9.5
 11
20
 21
25
 31
9.5
  0
LINE
  5
A7A
330
A02
100
AcDbEntity
  8
Mesh_cs001
100
AcDbLine
 10
20
 20
25
 30
9.5
 11
5.71429
 21
25
 31
9.5
  0
LINE
  5
A7B
330
A02
100
AcDbEntity
  8
Mesh_cs001
100
AcDbLine
 10
5.71429
 20
25
 30
9.5
 11
0
 21
25
 31
9.5
  0
LINE
  5
A7C
330
A02
100
AcDbEntity
  8
Mesh_cs001
100
AcDbLine
 10
0
 20
25
 30
9.5
 11
7.93016e-16
 21
203.624
 31
9.5
  0
LINE
  5
A7D
330
A02
100
AcDbEntity
  8
Mesh_cs001
100
AcDbLine
 10
7.93016e-16
 20
203.624
 30
9.5
 11
7.93016e-16
 21
275.074
 31
9.5
  0
LINE
  5
A7E
330
A02
100
AcDbEntity
  8
Mesh_cs001
100
AcDbLine
 10
7.93016e-16
 20
275.074
 30
9.5
 11
5.71429
 21
275.074
 31
9.5
  0
LINE
  5
A7F
330
A02
100
AcDbEntity
  8
Mesh_cs001
100
AcDbLine
 10
5.71429
 20
275.074
 30
9.5
 11
20
 21
275.074
 31
9.5
  0
LINE
  5
A80
330
A02
100
AcDbEntity
  8
Mesh_cs001
100
AcDbLine
 10
20
 20
275.074
 30
9.5
 11
20.2061
 21
275.08
 31
9.5
  0
LINE
  5
A81
330
A02
100
AcDbEntity
  8
Mesh_cs001
100
AcDbLine
 10
20.2061
 20
275.08
 30
9.5
 11
20.3218
 21
275.085
 31
9.5
  0
LINE
  5
A82
330
A02
100
AcDbEntity
  8
Mesh_cs001
100
AcDbLine
 10
20.3218
 20
275.085
 30
9.5
 11
20.5319
 21
275.103
 31
9.5
  0
LINE
  5
A83
330
A02
100
AcDbEntity
  8
Mesh_cs001
100
AcDbLine
 10
20.5319
 20
275.103
 30
9.5
 11
20.6469
 21
275.117
 31
9.5
  0
LINE
  5
A84
330
A02
100
AcDbEntity
  8
Mesh_cs001
100
AcDbLine
 10
20.6469
 20
275.117
 30
9.5
 11
20.8919
 21
275.155
 31
9.5
  0
LINE
  5
A85
330
A02
100
AcDbEntity
  8
Mesh_cs001
100
AcDbLine
 10
20.8919
 20
275.155
 30
9.5
 11
20.9944
 21
275.175
 31
9.5
  0
LINE
  5
A86
330
A02
100
AcDbEntity
  8
Mesh_cs001
100
AcDbLine
 10
20.9944
 20
275.175
 30
9.5
 11
21.2414
 21
275.231
 31
9.5
  0
LINE
  5
A87
330
A02
100
AcDbEntity
  8
Mesh_cs001
100
AcDbLine
 10
21.2414
 20
275.231
 30
9.5
 11
21.3324
 21
275.256
 31
9.5
  0
LINE
  5
A88
330
A02
100
AcDbEntity
  8
Mesh_cs001
100
AcDbLine
 10
21.3324
 20
275.256
 30
9.5
 11
21.5795
 21
275.331
 31
9.5
  0
LINE
  5
A89
330
A02
100
AcDbEntity
  8
Mesh_cs001
100
AcDbLine
 10
21.5795
 20
275.331
 30
9.5
 11
21.6687
 21
275.362
 31
9.5
  0
LINE
  5
A8A
330
A02
100
AcDbEntity
  8
Mesh_cs001
100
AcDbLine
 10
21.6687
 20
275.362
 30
9.5
 11
21.9139
 21
275.456
 31
9.5
  0
LINE
  5
A8B
330
A02
100
AcDbEntity
  8
Mesh_cs001
100
AcDbLine
 10
21.9139
 20
275.456
 30
9.5
 11
21.9846
 21
275.485
 31
9.5
  0
LINE
  5
A8C
330
A02
100
AcDbEntity
  8
Mesh_cs001
100
AcDbLine
 10
21.9846
 20
275.485
 30
9.5
 11
22.2255
 21
275.599
 31
9.5
  0
LINE
  5
A8D
330
A02
100
AcDbEntity
  8
Mesh_cs001
100
AcDbLine
 10
22.2255
 20
275.599
 30
9.5
 11
22.2895
 21
275.629
 31
9.5
  0
LINE
  5
A8E
330
A02
100
AcDbEntity
  8
Mesh_cs001
100
AcDbLine
 10
22.2895
 20
275.629
 30
9.5
 11
22.3518
 21
275.663
 31
9.5
  0
LINE
  5
A8F
330
A02
100
AcDbEntity
  8
Mesh_cs001
100
AcDbLine
 10
22.3518
 20
275.663
 30
9.5
 11
22.5863
 21
275.796
 31
9.5
  0
LINE
  5
A90
330
A02
100
AcDbEntity
  8
Mesh_cs001
100
AcDbLine
 10
22.5863
 20
275.796
 30
9.5
 11
22.6469
 21
275.832
 31
9.5
  0
LINE
  5
A91
330
A02
100
AcDbEntity
  8
Mesh_cs001
100
AcDbLine
 10
22.6469
 20
275.832
 30
9.5
 11
22.8727
 21
275.984
 31
9.5
  0
LINE
  5
A92
330
A02
100
AcDbEntity
  8
Mesh_cs001
100
AcDbLine
 10
22.8727
 20
275.984
 30
9.5
 11
22.9314
 21
276.024
 31
9.5
  0
LINE
  5
A93
330
A02
100
AcDbEntity
  8
Mesh_cs001
100
AcDbLine
 10
22.9314
 20
276.024
 30
9.5
 11
22.9881
 21
276.066
 31
9.5
  0
LINE
  5
A94
330
A02
100
AcDbEntity
  8
Mesh_cs001
100
AcDbLine
 10
22.9881
 20
276.066
 30
9.5
 11
23.2029
 21
276.236
 31
9.5
  0
LINE
  5
A95
330
A02
100
AcDbEntity
  8
Mesh_cs001
100
AcDbLine
 10
23.2029
 20
276.236
 30
9.5
 11
23.2575
 21
276.281
 31
9.5
  0
LINE
  5
A96
330
A02
100
AcDbEntity
  8
Mesh_cs001
100
AcDbLine
 10
23.2575
 20
276.281
 30
9.5
 11
23.3097
 21
276.329
 31
9.5
  0
LINE
  5
A97
330
A02
100
AcDbEntity
  8
Mesh_cs001
100
AcDbLine
 10
23.3097
 20
276.329
 30
9.5
 11
23.5115
 21
276.515
 31
9.5
  0
LINE
  5
A98
330
A02
100
AcDbEntity
  8
Mesh_cs001
100
AcDbLine
 10
23.5115
 20
276.515
 30
9.5
 11
23.5612
 21
276.565
 31
9.5
  0
LINE
  5
A99
330
A02
100
AcDbEntity
  8
Mesh_cs001
100
AcDbLine
 10
23.5612
 20
276.565
 30
9.5
 11
23.7482
 21
276.766
 31
9.5
  0
LINE
  5
A9A
330
A02
100
AcDbEntity
  8
Mesh_cs001
100
AcDbLine
 10
23.7482
 20
276.766
 30
9.5
 11
23.7954
 21
276.819
 31
9.5
  0
LINE
  5
A9B
330
A02
100
AcDbEntity
  8
Mesh_cs001
100
AcDbLine
 10
23.7954
 20
276.819
 30
9.5
 11
23.8399
 21
276.874
 31
9.5
  0
LINE
  5
A9C
330
A02
100
AcDbEntity
  8
Mesh_cs001
100
AcDbLine
 10
23.8399
 20
276.874
 30
9.5
 11
24.0104
 21
277.088
 31
9.5
  0
LINE
  5
A9D
330
A02
100
AcDbEntity
  8
Mesh_cs001
100
AcDbLine
 10
24.0104
 20
277.088
 30
9.5
 11
24.0521
 21
277.146
 31
9.5
  0
LINE
  5
A9E
330
A02
100
AcDbEntity
  8
Mesh_cs001
100
AcDbLine
 10
24.0521
 20
277.146
 30
9.5
 11
24.205
 21
277.371
 31
9.5
  0
LINE
  5
A9F
330
A02
100
AcDbEntity
  8
Mesh_cs001
100
AcDbLine
 10
24.205
 20
277.371
 30
9.5
 11
24.2437
 21
277.43
 31
9.5
  0
LINE
  5
AA0
330
A02
100
AcDbEntity
  8
Mesh_cs001
100
AcDbLine
 10
24.2437
 20
277.43
 30
9.5
 11
24.2795
 21
277.491
 31
9.5
  0
LINE
  5
AA1
330
A02
100
AcDbEntity
  8
Mesh_cs001
100
AcDbLine
 10
24.2795
 20
277.491
 30
9.5
 11
24.4137
 21
277.725
 31
9.5
  0
LINE
  5
AA2
330
A02
100
AcDbEntity
  8
Mesh_cs001
100
AcDbLine
 10
24.4137
 20
277.725
 30
9.5
 11
24.4464
 21
277.788
 31
9.5
  0
LINE
  5
AA3
330
A02
100
AcDbEntity
  8
Mesh_cs001
100
AcDbLine
 10
24.4464
 20
277.788
 30
9.5
 11
24.5613
 21
278.029
 31
9.5
  0
LINE
  5
AA4
330
A02
100
AcDbEntity
  8
Mesh_cs001
100
AcDbLine
 10
24.5613
 20
278.029
 30
9.5
 11
24.5909
 21
278.093
 31
9.5
  0
LINE
  5
AA5
330
A02
100
AcDbEntity
  8
Mesh_cs001
100
AcDbLine
 10
24.5909
 20
278.093
 30
9.5
 11
24.6171
 21
278.159
 31
9.5
  0
LINE
  5
AA6
330
A02
100
AcDbEntity
  8
Mesh_cs001
100
AcDbLine
 10
24.6171
 20
278.159
 30
9.5
 11
24.7126
 21
278.404
 31
9.5
  0
LINE
  5
AA7
330
A02
100
AcDbEntity
  8
Mesh_cs001
100
AcDbLine
 10
24.7126
 20
278.404
 30
9.5
 11
24.7355
 21
278.471
 31
9.5
  0
LINE
  5
AA8
330
A02
100
AcDbEntity
  8
Mesh_cs001
100
AcDbLine
 10
24.7355
 20
278.471
 30
9.5
 11
24.8189
 21
278.746
 31
9.5
  0
LINE
  5
AA9
330
A02
100
AcDbEntity
  8
Mesh_cs001
100
AcDbLine
 10
24.8189
 20
278.746
 30
9.5
 11
24.8385
 21
278.814
 31
9.5
  0
LINE
  5
AAA
330
A02
100
AcDbEntity
  8
Mesh_cs001
100
AcDbLine
 10
24.8385
 20
278.814
 30
9.5
 11
24.8547
 21
278.882
 31
9.5
  0
LINE
  5
AAB
330
A02
100
AcDbEntity
  8
Mesh_cs001
100
AcDbLine
 10
24.8547
 20
278.882
 30
9.5
 11
24.9199
 21
279.187
 31
9.5
  0
LINE
  5
AAC
330
A02
100
AcDbEntity
  8
Mesh_cs001
100
AcDbLine
 10
24.9199
 20
279.187
 30
9.5
 11
24.9327
 21
279.257
 31
9.5
  0
LINE
  5
AAD
330
A02
100
AcDbEntity
  8
Mesh_cs001
100
AcDbLine
 10
24.9327
 20
279.257
 30
9.5
 11
24.942
 21
279.327
 31
9.5
  0
LINE
  5
AAE
330
A02
100
AcDbEntity
  8
Mesh_cs001
100
AcDbLine
 10
24.942
 20
279.327
 30
9.5
 11
24.9797
 21
279.627
 31
9.5
  0
LINE
  5
AAF
330
A02
100
AcDbEntity
  8
Mesh_cs001
100
AcDbLine
 10
24.9797
 20
279.627
 30
9.5
 11
24.9855
 21
279.698
 31
9.5
  0
LINE
  5
AB0
330
A02
100
AcDbEntity
  8
Mesh_cs001
100
AcDbLine
 10
24.9855
 20
279.698
 30
9.5
 11
24.9873
 21
279.739
 31
9.5
  0
LINE
  5
AB1
330
A02
100
AcDbEntity
  8
Mesh_cs001
100
AcDbLine
 10
24.9873
 20
279.739
 30
9.5
 11
24.9994
 21
280.033
 31
9.5
  0
LINE
  5
AB2
330
A02
100
AcDbEntity
  8
Mesh_cs001
100
AcDbLine
 10
24.9994
 20
280.033
 30
9.5
 11
25
 21
280.074
 31
9.5
  0
LINE
  5
AB3
330
A02
100
AcDbEntity
  8
Mesh_cs001
100
AcDbLine
 10
25
 20
280.074
 30
9.5
 11
25
 21
285.788
 31
9.5
  0
LINE
  5
AB4
330
A02
100
AcDbEntity
  8
Mesh_cs001
100
AcDbLine
 10
25
 20
285.788
 30
9.5
 11
25
 21
300.074
 31
9.5
  0
LINE
  5
AB5
330
A02
100
AcDbEntity
  8
Mesh_cs001
100
AcDbLine
 10
25
 20
300.074
 30
9.5
 11
47
 21
300.074
 31
9.5
  0
LINE
  5
AB6
330
A02
100
AcDbEntity
  8
Mesh_cs001
100
AcDbLine
 10
47
 20
300.074
 30
9.5
 11
95.6818
 21
300.074
 31
9.5
  0
LINE
  5
AB7
330
A02
100
AcDbEntity
  8
Mesh_cs001
100
AcDbLine
 10
95.6818
 20
300.074
 30
9.5
 11
125.909
 21
300.074
 31
9.5
  0
LINE
  5
AB8
330
A02
100
AcDbEntity
  8
Mesh_cs001
100
AcDbLine
 10
125.909
 20
300.074
 30
9.5
 11
148
 21
300.074
 31
9.5
  0
LINE
  5
AB9
330
A02
100
AcDbEntity
  8
Mesh_cs001
100
AcDbLine
 10
148
 20
300.074
 30
9.5
 11
170
 21
300.074
 31
9.5
  0
LINE
  5
ABA
330
A02
100
AcDbEntity
  8
Mesh_cs001
100
AcDbLine
 10
170
 20
300.074
 30
9.5
 11
170
 21
285.788
 31
9.5
  0
LINE
  5
ABB
330
A02
100
AcDbEntity
  8
Mesh_cs001
100
AcDbLine
 10
170
 20
285.788
 30
9.5
 11
170
 21
280.074
 31
9.5
  0
LINE
  5
ABC
330
A02
100
AcDbEntity
  8
Mesh_cs001
100
AcDbLine
 10
170
 20
280.074
 30
9.5
 11
170.001
 21
280.033
 31
9.5
  0
LINE
  5
ABD
330
A02
100
AcDbEntity
  8
Mesh_cs001
100
AcDbLine
 10
170.001
 20
280.033
 30
9.5
 11
170.013
 21
279.739
 31
9.5
  0
LINE
  5
ABE
330
A02
100
AcDbEntity
  8
Mesh_cs001
100
AcDbLine
 10
170.013
 20
279.739
 30
9.5
 11
170.014
 21
279.698
 31
9.5
  0
LINE
  5
ABF
330
A02
100
AcDbEntity
  8
Mesh_cs001
100
AcDbLine
 10
170.014
 20
279.698
 30
9.5
 11
170.02
 21
279.627
 31
9.5
  0
LINE
  5
AC0
330
A02
100
AcDbEntity
  8
Mesh_cs001
100
AcDbLine
 10
170.02
 20
279.627
 30
9.5
 11
170.058
 21
279.327
 31
9.5
  0
LINE
  5
AC1
330
A02
100
AcDbEntity
  8
Mesh_cs001
100
AcDbLine
 10
170.058
 20
279.327
 30
9.5
 11
170.067
 21
279.257
 31
9.5
  0
LINE
  5
AC2
330
A02
100
AcDbEntity
  8
Mesh_cs001
100
AcDbLine
 10
170.067
 20
279.257
 30
9.5
 11
170.08
 21
279.187
 31
9.5
  0
LINE
  5
AC3
330
A02
100
AcDbEntity
  8
Mesh_cs001
100
AcDbLine
 10
170.08
 20
279.187
 30
9.5
 11
170.145
 21
278.882
 31
9.5
  0
LINE
  5
AC4
330
A02
100
AcDbEntity
  8
Mesh_cs001
100
AcDbLine
 10
170.145
 20
278.882
 30
9.5
 11
170.162
 21
278.814
 31
9.5
  0
LINE
  5
AC5
330
A02
100
AcDbEntity
  8
Mesh_cs001
100
AcDbLine
 10
170.162
 20
278.814
 30
9.5
 11
170.181
 21
278.746
 31
9.5
  0
LINE
  5
AC6
330
A02
100
AcDbEntity
  8
Mesh_cs001
100
AcDbLine
 10
170.181
 20
278.746
 30
9.5
 11
170.264
 21
278.471
 31
9.5
  0
LINE
  5
AC7
330
A02
100
AcDbEntity
  8
Mesh_cs001
100
AcDbLine
 10
170.264
 20
278.471
 30
9.5
 11
170.287
 21
278.404
 31
9.5
  0
LINE
  5
AC8
330
A02
100
AcDbEntity
  8
Mesh_cs001
100
AcDbLine
 10
170.287
 20
278.404
 30
9.5
 11
170.383
 21
278.159
 31
9.5
  0
LINE
  5
AC9
330
A02
100
AcDbEntity
  8
Mesh_cs001
100
AcDbLine
 10
170.383
 20
278.159
 30
9.5
 11
170.409
 21
278.093
 31
9.5
  0
LINE
  5
ACA
330
A02
100
AcDbEntity
  8
Mesh_cs001
100
AcDbLine
 10
170.409
 20
278.093
 30
9.5
 11
170.439
 21
278.029
 31
9.5
  0
LINE
  5
ACB
330
A02
100
AcDbEntity
  8
Mesh_cs001
100
AcDbLine
 10
170.439
 20
278.029
 30
9.5
 11
170.554
 21
277.788
 31
9.5
  0
LINE
  5
ACC
330
A02
100
AcDbEntity
  8
Mesh_cs001
100
AcDbLine
 10
170.554
 20
277.788
 30
9.5
 11
170.586
 21
277.725
 31
9.5
  0
LINE
  5
ACD
330
A02
100
AcDbEntity
  8
Mesh_cs001
100
AcDbLine
 10
170.586
 20
277.725
 30
9.5
 11
170.72
 21
277.491
 31
9.5
  0
LINE
  5
ACE
330
A02
100
AcDbEntity
  8
Mesh_cs001
100
AcDbLine
 10
170.72
 20
277.491
 30
9.5
 11
170.756
 21
277.43
 31
9.5
  0
LINE
  5
ACF
330
A02
100
AcDbEntity
  8
Mesh_cs001
100
AcDbLine
 10
170.756
 20
277.43
 30
9.5
 11
170.795
 21
277.371
 31
9.5
  0
LINE
  5
AD0
330
A02
100
AcDbEntity
  8
Mesh_cs001
100
AcDbLine
 10
170.795
 20
277.371
 30
9.5
 11
170.948
 21
277.146
 31
9.5
  0
LINE
  5
AD1
330
A02
100
AcDbEntity
  8
Mesh_cs001
100
AcDbLine
 10
170.948
 20
277.146
 30
9.5
 11
170.99
 21
277.088
 31
9.5
  0
LINE
  5
AD2
330
A02
100
AcDbEntity
  8
Mesh_cs001
100
AcDbLine
 10
170.99
 20
277.088
 30
9.5
 11
171.16
 21
276.874
 31
9.5
  0
LINE
  5
AD3
330
A02
100
AcDbEntity
  8
Mesh_cs001
100
AcDbLine
 10
171.16
 20
276.874
 30
9.5
 11
171.205
 21
276.819
 31
9.5
  0
LINE
  5
AD4
330
A02
100
AcDbEntity
  8
Mesh_cs001
100
AcDbLine
 10
171.205
 20
276.819
 30
9.5
 11
171.252
 21
276.766
 31
9.5
  0
LINE
  5
AD5
330
A02
100
AcDbEntity
  8
Mesh_cs001
100
AcDbLine
 10
171.252
 20
276.766
 30
9.5
 11
171.439
 21
276.565
 31
9.5
  0
LINE
  5
AD6
330
A02
100
AcDbEntity
  8
Mesh_cs001
100
AcDbLine
 10
171.439
 20
276.565
 30
9.5
 11
171.489
 21
276.515
 31
9.5
  0
LINE
  5
AD7
330
A02
100
AcDbEntity
  8
Mesh_cs001
100
AcDbLine
 10
171.489
 20
276.515
 30
9.5
 11
171.69
 21
276.329
 31
9.5
  0
LINE
  5
AD8
330
A02
100
AcDbEntity
  8
Mesh_cs001
100
AcDbLine
 10
171.69
 20
276.329
 30
9.5
 11
171.743
 21
276.281
 31
9.5
  0
LINE
  5
AD9
330
A02
100
AcDbEntity
  8
Mesh_cs001
100
AcDbLine
 10
171.743
 20
276.281
 30
9.5
 11
171.797
 21
276.236
 31
9.5
  0
LINE
  5
ADA
330
A02
100
AcDbEntity
  8
Mesh_cs001
100
AcDbLine
 10
171.797
 20
276.236
 30
9.5
 11
172.012
 21
276.066
 31
9.5
  0
LINE
  5
ADB
330
A02
100
AcDbEntity
  8
Mesh_cs001
100
AcDbLine
 10
172.012
 20
276.066
 30
9.5
 11
172.069
 21
276.024
 31
9.5
  0
LINE
  5
ADC
330
A02
100
AcDbEntity
  8
Mesh_cs001
100
AcDbLine
 10
172.069
 20
276.024
 30
9.5
 11
172.127
 21
275.984
 31
9.5
  0
LINE
  5
ADD
330
A02
100
AcDbEntity
  8
Mesh_cs001
100
AcDbLine
 10
172.127
 20
275.984
 30
9.5
 11
172.353
 21
275.832
 31
9.5
  0
LINE
  5
ADE
330
A02
100
AcDbEntity
  8
Mesh_cs001
100
AcDbLine
 10
172.353
 20
275.832
 30
9.5
 11
172.414
 21
275.796
 31
9.5
  0
LINE
  5
ADF
330
A02
100
AcDbEntity
  8
Mesh_cs001
100
AcDbLine
 10
172.414
 20
275.796
 30
9.5
 11
172.648
 21
275.663
 31
9.5
  0
LINE
  5
AE0
330
A02
100
AcDbEntity
  8
Mesh_cs001
100
AcDbLine
 10
172.648
 20
275.663
 30
9.5
 11
172.711
 21
275.629
 31
9.5
  0
LINE
  5
AE1
330
A02
100
AcDbEntity
  8
Mesh_cs001
100
AcDbLine
 10
172.711
 20
275.629
 30
9.5
 11
172.775
 21
275.599
 31
9.5
  0
LINE
  5
AE2
330
A02
100
AcDbEntity
  8
Mesh_cs001
100
AcDbLine
 10
172.775
 20
275.599
 30
9.5
 11
173.015
 21
275.485
 31
9.5
  0
LINE
  5
AE3
330
A02
100
AcDbEntity
  8
Mesh_cs001
100
AcDbLine
 10
173.015
 20
275.485
 30
9.5
 11
173.086
 21
275.456
 31
9.5
  0
LINE
  5
AE4
330
A02
100
AcDbEntity
  8
Mesh_cs001
100
AcDbLine
 10
173.086
 20
275.456
 30
9.5
 11
173.331
 21
275.362
 31
9.5
  0
LINE
  5
AE5
330
A02
100
AcDbEntity
  8
Mesh_cs001
100
AcDbLine
 10
173.331
 20
275.362
 30
9.5
 11
173.42
 21
275.331
 31
9.5
  0
LINE
  5
AE6
330
A02
100
AcDbEntity
  8
Mesh_cs001
100
AcDbLine
 10
173.42
 20
275.331
 30
9.5
 11
173.668
 21
275.256
 31
9.5
  0
LINE
  5
AE7
330
A02
100
AcDbEntity
  8
Mesh_cs001
100
AcDbLine
 10
173.668
 20
275.256
 30
9.5
 11
173.759
 21
275.231
 31
9.5
  0
LINE
  5
AE8
330
A02
100
AcDbEntity
  8
Mesh_cs001
100
AcDbLine
 10
173.759
 20
275.231
 30
9.5
 11
174.006
 21
275.175
 31
9.5
  0
LINE
  5
AE9
330
A02
100
AcDbEntity
  8
Mesh_cs001
100
AcDbLine
 10
174.006
 20
275.175
 30
9.5
 11
174.108
 21
275.155
 31
9.5
  0
LINE
  5
AEA
330
A02
100
AcDbEntity
  8
Mesh_cs001
100
AcDbLine
 10
174.108
 20
275.155
 30
9.5
 11
174.353
 21
275.117
 31
9.5
  0
LINE
  5
AEB
330
A02
100
AcDbEntity
  8
Mesh_cs001
100
AcDbLine
 10
15
 20
4.28571
 30
9.5
 11
15
 21
0
 31
9.5
  0
LINE
  5
AEC
330
A02
100
AcDbEntity
  8
Mesh_cs001
100
AcDbLine
 10
15
 20
0
 30
9.5
 11
10.7143
 21
0
 31
9.5
  0
LINE
  5
AED
330
A02
100
AcDbEntity
  8
Mesh_cs001
100
AcDbLine
 10
10.7143
 20
0
 30
9.5
 11
0
 21
0
 31
9.5
  0
LINE
  5
AEE
330
A02
100
AcDbEntity
  8
Mesh_cs001
100
AcDbLine
 10
0
 20
0
 30
9.5
 11
0
 21
10.7143
 31
9.5
  0
LINE
  5
AEF
330
A02
100
AcDbEntity
  8
Mesh_cs001
100
AcDbLine
 10
0
 20
10.7143
 30
9.5
 11
0
 21
15
 31
9.5
  0
LINE
  5
AF0
330
A02
100
AcDbEntity
  8
Mesh_cs001
100
AcDbLine
 10
0
 20
15
 30
9.5
 11
10.7143
 21
15
 31
9.5
  0
LINE
  5
AF1
330
A02
100
AcDbEntity
  8
Mesh_cs001
100
AcDbLine
 10
10.7143
 20
15
 30
9.5
 11
15
 21
15
 31
9.5
  0
LINE
  5
AF2
330
A02
100
AcDbEntity
  8
Mesh_cs001
100
AcDbLine
 10
15
 20
15
 30
9.5
 11
15
 21
4.28571
 31
9.5
  0
LINE
  5
AF3
330
A02
100
AcDbEntity
  8
Mesh_cs001
100
AcDbLine
 10
195
 20
285.074
 30
9.5
 11
195
 21
289.36
 31
9.5
  0
LINE
  5
AF4
330
A02
100
AcDbEntity
  8
Mesh_cs001
100
AcDbLine
 10
195
 20
289.36
 30
9.5
 11
195
 21
300.074
 31
9.5
  0
LINE
  5
AF5
330
A02
100
AcDbEntity
  8
Mesh_cs001
100
AcDbLine
 10
195
 20
300.074
 30
9.5
 11
184.286
 21
300.074
 31
9.5
  0
LINE
  5
AF6
330
A02
100
AcDbEntity
  8
Mesh_cs001
100
AcDbLine
 10
184.286
 20
300.074
 30
9.5
 11
180
 21
300.074
 31
9.5
  0
LINE
  5
AF7
330
A02
100
AcDbEntity
  8
Mesh_cs001
100
AcDbLine
 10
180
 20
300.074
 30
9.5
 11
180
 21
289.36
 31
9.5
  0
LINE
  5
AF8
330
A02
100
AcDbEntity
  8
Mesh_cs001
100
AcDbLine
 10
180
 20
289.36
 30
9.5
 11
180
 21
285.074
 31
9.5
  0
LINE
  5
AF9
330
A02
100
AcDbEntity
  8
Mesh_cs001
100
AcDbLine
 10
180
 20
285.074
 30
9.5
 11
184.286
 21
285.074
 31
9.5
  0
LINE
  5
AFA
330
A02
100
AcDbEntity
  8
Mesh_cs001
100
AcDbLine
 10
184.286
 20
285.074
 30
9.5
 11
195
 21
285.074
 31
9.5
  0
LINE
  5
AFB
330
A02
100
AcDbEntity
  8
Mesh_cs001
100
AcDbLine
 10
195
 20
15
 30
9.5
 11
195
 21
10.7143
 31
9.5
  0
LINE
  5
AFC
330
A02
100
AcDbEntity
  8
Mesh_cs001
100
AcDbLine
 10
195
 20
10.7143
 30
9.5
 11
195
 21
0
 31
9.5
  0
LINE
  5
AFD
330
A02
100
AcDbEntity
  8
Mesh_cs001
100
AcDbLine
 10
195
 20
0
 30
9.5
 11
184.286
 21
0
 31
9.5
  0
LINE
  5
AFE
330
A02
100
AcDbEntity
  8
Mesh_cs001
100
AcDbLine
 10
184.286
 20
0
 30
9.5
 11
180
 21
0
 31
9.5
  0
LINE
  5
AFF
330
A02
100
AcDbEntity
  8
Mesh_cs001
100
AcDbLine
 10
180
 20
0
 30
9.5
 11
180
 21
4.28571
 31
9.5
  0
LINE
  5
B00
330
A02
100
AcDbEntity
  8
Mesh_cs001
100
AcDbLine
 10
180
 20
4.28571
 30
9.5
 11
180
 21
15
 31
9.5
  0
LINE
  5
B01
330
A02
100
AcDbEntity
  8
Mesh_cs001
100
AcDbLine
 10
180
 20
15
 30
9.5
 11
184.286
 21
15
 31
9.5
  0
LINE
  5
B02
330
A02
100
AcDbEntity
  8
Mesh_cs001
100
AcDbLine
 10
184.286
 20
15
 30
9.5
 11
195
 21
15
 31
9.5
  0
ENDSEC
  0
SECTION
  2
OBJECTS
  0
DICTIONARY
  5
F000
330
0
100
AcDbDictionary
  3
ACAD_GROUP
350
F001
  0
DICTIONARY
  5
F001
330
F000
100
AcDbDictionary
  0
ENDSEC
  0
EOF