999
FreeCAD v0.21 33668 +26 (Git)
  0
SECTION
  2
HEADER
  9
$ACADVER
  1
AC1014
  9
$ACADMAINTVER
 70
     9
  9
$DWGCODEPAGE
  3
ANSI_1252
  9
$TEXTSTYLE
  7
STANDARD
  9
$DIMSTYLE
  2
STANDARD
  9
$DIMTXSTY
  7
STANDARD
  9
$CMLSTYLE
  2
STANDARD
  9
$LUNITS
 70
2
  9
$INSUNITS
 70
4
  9
$PEXTMAX
 10
50
 20
50
 30
50
  9
$PEXTMIN
 10
0
 20
0
 30
0
  9
$HANDSEED
  5
FFFF
  0
ENDSEC
  0
SECTION
  2
CLASSES
  0
CLASS
  1
ACDBDICTIONARYWDFLT
  2
AcDbDictionaryWithDefault
  3
ObjectDBX Classes
 90
        0
280
     0
281
     0
  0
CLASS
  1
XRECORD
  2
AcDbXrecord
  3
ObjectDBX Classes
 90
        0
280
     0
281
     0
  0
CLASS
  1
LWPOLYLINE
  2
AcDbPolyline
  3
ObjectDBX Classes
 90
        0
280
     0
281
     1
  0
ENDSEC
  0
SECTION
  2
TABLES
  0
TABLE
  2
VPORT
  5
20
330
0
100
AcDbSymbolTable
 70
     1
  0
VPORT
  5
21
330
20
100
AcDbSymbolTableRecord
100
AcDbViewportTableRecord
  2
*ACTIVE
 70
     0
  0
ENDTAB
  0
TABLE
  2
LTYPE
  5
22
330
0
100
AcDbSymbolTable
 70
     1
  0
LTYPE
  5
23
330
21
100
AcDbSymbolTableRecord
100
AcDbLinetypeTableRecord
  2
BYBLOCK
 70
     0
  3

 72
    65
 73
     0
 40
0.0
  0
LTYPE
  5
24
330
21
100
AcDbSymbolTableRecord
100
AcDbLinetypeTableRecord
  2
BYLAYER
 70
     0
  3

 72
    65
 73
     0
 40
0.0
  0
LTYPE
  5
25
330
21
100
AcDbSymbolTableRecord
100
AcDbLinetypeTableRecord
  2
CONTINUOUS
 70
     0
  3
Solid line
 72
    65
 73
     0
 40
0.0
  0
ENDTAB
  0
TABLE
  2
LAYER
  5
BA4
330
0
100
AcDbSymbolTable
 70
3
  0
LAYER
  5
BA5
330
BA4
100
AcDbSymbolTableRecord
100
AcDbLayerTableRecord
  2
0
 70
   0
 62
   7
  6
CONTINUOUS
  0
LAYER
  5
BA6
330
BA4
100
AcDbSymbolTableRecord
100
AcDbLayerTableRecord
  2
none
 70
    0
 62
    7
  6
CONTINUOUS
  0
LAYER
  5
BA7
330
BA4
100
AcDbSymbolTableRecord
100
AcDbLayerTableRecord
  2
Mesh_cs
 70
    0
 62
    7
  6
CONTINUOUS
  0
ENDTAB
  0
TABLE
  2
STYLE
  5
70
330
0
100
AcDbSymbolTable
 70
     2
  0
STYLE
  5
71
330
70
100
AcDbSymbolTableRecord
100
AcDbTextStyleTableRecord
  2
STANDARD
 70
     0
 40
0.0
 41
1.0
 50
0.0
 71
     0
 42
2.5
  3
arial.ttf
  4

  0
STYLE
  5
72
330
70
100
AcDbSymbolTableRecord
100
AcDbTextStyleTableRecord
  2
ANNOTATIVE
 70
     0
 40
0.0
 41
1.0
 50
0.0
 71
     0
 42
2.5
  3
arial.ttf
  4

  0
ENDTAB
  0
TABLE
  2
VIEW
  5
73
330
0
100
AcDbSymbolTable
 70
     0
  0
ENDTAB
  0
TABLE
  2
UCS
  5
74
330
0
100
AcDbSymbolTable
 70
     0
  0
ENDTAB
  0
TABLE
  2
APPID
  5
75
330
0
100
AcDbSymbolTable
 70
     2
  0
APPID
  5
76
330
75
100
AcDbSymbolTableRecord
100
AcDbRegAppTableRecord
  2
ACAD
 70
     0
  0
APPID
  5
77
330
75
100
AcDbSymbolTableRecord
100
AcDbRegAppTableRecord
  2
ACADANNOTATIVE
 70
     0
  0
ENDTAB
  0
TABLE
  2
DIMSTYLE
  5
78
330
0
100
AcDbSymbolTable
 70
     2
  0
DIMSTYLE
105
79
330
78
100
AcDbSymbolTableRecord
100
AcDbDimStyleTableRecord
  2
STANDARD
 70
     0
  3

  4

  5

  6

  7

 40
0.0
 41
2.5
 42
0.625
 43
3.75
 44
1.25
 45
0.0
 46
0.0
 47
0.0
 48
0.0
140
2.5
141
2.5
142
0.0
143
0.03937007874016
144
1.0
145
0.0
146
1.0
147
0.625
 71
     0
 72
     0
 73
     0
 74
     0
 75
     0
 76
     0
 77
     1
 78
     8
170
     0
171
     3
172
     1
173
     0
174
     0
175
     0
176
     0
177
     0
178
     0
270
     2
271
     2
272
     2
273
     2
274
     3
340
71
275
     0
280
     0
281
     0
282
     0
283
     0
284
     8
285
     0
286
     0
287
     3
288
     0
  0
ENDTAB
  0
TABLE
  2
BLOCK_RECORD
  5
A01
330
0
100
AcDbSymbolTable
  70
5
  0
BLOCK_RECORD
  5
A02
330
A01
100
AcDbSymbolTableRecord
100
AcDbBlockTableRecord
  2
*MODEL_SPACE
  0
BLOCK_RECORD
  5
A03
330
A01
100
AcDbSymbolTableRecord
100
AcDbBlockTableRecord
  2
*PAPER_SPACE
  0
ENDTAB
  0
ENDSEC
  0
SECTION
  2
BLOCKS
  0
BLOCK
  5
A04
330
A02
100
AcDbEntity
  8
0
100
AcDbBlockBegin
  2
*MODEL_SPACE
 70
   0
 10
0
 20
0
 30
0
  3
*MODEL_SPACE
  1
 
  0
ENDBLK
  5
A05
330
A02
100
AcDbEntity
  8
0
100
AcDbBlockEnd
  0
BLOCK
  5
A06
330
A03
100
AcDbEntity
 67
1
  8
0
100
AcDbBlockBegin
  2
*PAPER_SPACE
 70
   0
 10
0
 20
0
 30
0
  3
*PAPER_SPACE
  1
 
  0
ENDBLK
  5
A07
330
A03
100
AcDbEntity
 67
    1
  8
0
100
AcDbBlockEnd
  0
ENDSEC
  0
SECTION
  2
ENTITIES
  0
LINE
  5
A08
330
A02
100
AcDbEntity
  8
Mesh_cs
100
AcDbLine
 10
10.7672
 20
15
 30
9.5
 11
15
 21
15
 31
9.5
  0
LINE
  5
A09
330
A02
100
AcDbEntity
  8
Mesh_cs
100
AcDbLine
 10
15
 20
15
 30
9.5
 11
15
 21
4.28571
 31
9.5
  0
LINE
  5
A0A
330
A02
100
AcDbEntity
  8
Mesh_cs
100
AcDbLine
 10
15
 20
4.28571
 30
9.5
 11
15
 21
-1.77636e-15
 31
9.5
  0
LINE
  5
A0B
330
A02
100
AcDbEntity
  8
Mesh_cs
100
AcDbLine
 10
15
 20
-2.10942e-15
 30
9.5
 11
10.7143
 21
8.90845e-15
 31
9.5
  0
LINE
  5
A0C
330
A02
100
AcDbEntity
  8
Mesh_cs
100
AcDbLine
 10
10.7143
 20
8.90845e-15
 30
9.5
 11
0
 21
3.61756e-14
 31
9.5
  0
LINE
  5
A0D
330
A02
100
AcDbEntity
  8
Mesh_cs
100
AcDbLine
 10
1.00974e-28
 20
3.61756e-14
 30
9.5
 11
2.88498e-29
 21
10.7143
 31
9.5
  0
LINE
  5
A0E
330
A02
100
AcDbEntity
  8
Mesh_cs
100
AcDbLine
 10
2.88498e-29
 20
10.7143
 30
9.5
 11
-1.52259e-16
 21
15
 31
9.5
  0
LINE
  5
A0F
330
A02
100
AcDbEntity
  8
Mesh_cs
100
AcDbLine
 10
-1.52259e-16
 20
15
 30
9.5
 11
0.0528731
 21
15
 31
9.5
  0
LINE
  5
A10
330
A02
100
AcDbEntity
  8
Mesh_cs
100
AcDbLine
 10
0.0528731
 20
15
 30
9.5
 11
10.7672
 21
15
 31
9.5
  0
LINE
  5
A11
330
A02
100
AcDbEntity
  8
Mesh_cs
100
AcDbLine
 10
241.711
 20
241.001
 30
9.5
 11
241.689
 21
240.966
 31
9.5
  0
LINE
  5
A12
330
A02
100
AcDbEntity
  8
Mesh_cs
100
AcDbLine
 10
241.689
 20
240.966
 30
9.5
 11
241.652
 21
240.906
 31
9.5
  0
LINE
  5
A13
330
A02
100
AcDbEntity
  8
Mesh_cs
100
AcDbLine
 10
241.652
 20
240.906
 30
9.5
 11
241.506
 21
240.641
 31
9.5
  0
LINE
  5
A14
330
A02
100
AcDbEntity
  8
Mesh_cs
100
AcDbLine
 10
241.506
 20
240.641
 30
9.5
 11
241.472
 21
240.578
 31
9.5
  0
LINE
  5
A15
330
A02
100
AcDbEntity
  8
Mesh_cs
100
AcDbLine
 10
241.472
 20
240.578
 30
9.5
 11
241.441
 21
240.515
 31
9.5
  0
LINE
  5
A16
330
A02
100
AcDbEntity
  8
Mesh_cs
100
AcDbLine
 10
241.441
 20
240.515
 30
9.5
 11
241.315
 21
240.23
 31
9.5
  0
LINE
  5
A17
330
A02
100
AcDbEntity
  8
Mesh_cs
100
AcDbLine
 10
241.315
 20
240.23
 30
9.5
 11
241.288
 21
240.165
 31
9.5
  0
LINE
  5
A18
330
A02
100
AcDbEntity
  8
Mesh_cs
100
AcDbLine
 10
241.288
 20
240.165
 30
9.5
 11
241.264
 21
240.098
 31
9.5
  0
LINE
  5
A19
330
A02
100
AcDbEntity
  8
Mesh_cs
100
AcDbLine
 10
241.264
 20
240.098
 30
9.5
 11
241.17
 21
239.827
 31
9.5
  0
LINE
  5
A1A
330
A02
100
AcDbEntity
  8
Mesh_cs
100
AcDbLine
 10
241.17
 20
239.827
 30
9.5
 11
241.149
 21
239.759
 31
9.5
  0
LINE
  5
A1B
330
A02
100
AcDbEntity
  8
Mesh_cs
100
AcDbLine
 10
241.149
 20
239.759
 30
9.5
 11
241.082
 21
239.505
 31
9.5
  0
LINE
  5
A1C
330
A02
100
AcDbEntity
  8
Mesh_cs
100
AcDbLine
 10
241.082
 20
239.505
 30
9.5
 11
241.065
 21
239.436
 31
9.5
  0
LINE
  5
A1D
330
A02
100
AcDbEntity
  8
Mesh_cs
100
AcDbLine
 10
241.065
 20
239.436
 30
9.5
 11
241.051
 21
239.367
 31
9.5
  0
LINE
  5
A1E
330
A02
100
AcDbEntity
  8
Mesh_cs
100
AcDbLine
 10
241.051
 20
239.367
 30
9.5
 11
241.002
 21
239.105
 31
9.5
  0
LINE
  5
A1F
330
A02
100
AcDbEntity
  8
Mesh_cs
100
AcDbLine
 10
241.002
 20
239.105
 30
9.5
 11
240.992
 21
239.035
 31
9.5
  0
LINE
  5
A20
330
A02
100
AcDbEntity
  8
Mesh_cs
100
AcDbLine
 10
240.992
 20
239.035
 30
9.5
 11
240.963
 21
238.766
 31
9.5
  0
LINE
  5
A21
330
A02
100
AcDbEntity
  8
Mesh_cs
100
AcDbLine
 10
240.963
 20
238.766
 30
9.5
 11
240.956
 21
238.696
 31
9.5
  0
LINE
  5
A22
330
A02
100
AcDbEntity
  8
Mesh_cs
100
AcDbLine
 10
240.956
 20
238.696
 30
9.5
 11
240.952
 21
238.625
 31
9.5
  0
LINE
  5
A23
330
A02
100
AcDbEntity
  8
Mesh_cs
100
AcDbLine
 10
240.952
 20
238.625
 30
9.5
 11
240.944
 21
238.353
 31
9.5
  0
LINE
  5
A24
330
A02
100
AcDbEntity
  8
Mesh_cs
100
AcDbLine
 10
240.944
 20
238.353
 30
9.5
 11
240.944
 21
238.282
 31
9.5
  0
LINE
  5
A25
330
A02
100
AcDbEntity
  8
Mesh_cs
100
AcDbLine
 10
240.944
 20
238.282
 30
9.5
 11
240.956
 21
238.009
 31
9.5
  0
LINE
  5
A26
330
A02
100
AcDbEntity
  8
Mesh_cs
100
AcDbLine
 10
240.956
 20
238.009
 30
9.5
 11
240.959
 21
237.938
 31
9.5
  0
LINE
  5
A27
330
A02
100
AcDbEntity
  8
Mesh_cs
100
AcDbLine
 10
240.959
 20
237.938
 30
9.5
 11
240.966
 21
237.867
 31
9.5
  0
LINE
  5
A28
330
A02
100
AcDbEntity
  8
Mesh_cs
100
AcDbLine
 10
240.966
 20
237.867
 30
9.5
 11
241
 21
237.595
 31
9.5
  0
LINE
  5
A29
330
A02
100
AcDbEntity
  8
Mesh_cs
100
AcDbLine
 10
241
 20
237.595
 30
9.5
 11
241.01
 21
237.525
 31
9.5
  0
LINE
  5
A2A
330
A02
100
AcDbEntity
  8
Mesh_cs
100
AcDbLine
 10
241.01
 20
237.525
 30
9.5
 11
241.064
 21
237.256
 31
9.5
  0
LINE
  5
A2B
330
A02
100
AcDbEntity
  8
Mesh_cs
100
AcDbLine
 10
241.064
 20
237.256
 30
9.5
 11
241.078
 21
237.186
 31
9.5
  0
LINE
  5
A2C
330
A02
100
AcDbEntity
  8
Mesh_cs
100
AcDbLine
 10
241.078
 20
237.186
 30
9.5
 11
241.096
 21
237.118
 31
9.5
  0
LINE
  5
A2D
330
A02
100
AcDbEntity
  8
Mesh_cs
100
AcDbLine
 10
241.096
 20
237.118
 30
9.5
 11
241.17
 21
236.854
 31
9.5
  0
LINE
  5
A2E
330
A02
100
AcDbEntity
  8
Mesh_cs
100
AcDbLine
 10
241.17
 20
236.854
 30
9.5
 11
241.191
 21
236.787
 31
9.5
  0
LINE
  5
A2F
330
A02
100
AcDbEntity
  8
Mesh_cs
100
AcDbLine
 10
241.191
 20
236.787
 30
9.5
 11
241.215
 21
236.72
 31
9.5
  0
LINE
  5
A30
330
A02
100
AcDbEntity
  8
Mesh_cs
100
AcDbLine
 10
241.215
 20
236.72
 30
9.5
 11
241.308
 21
236.465
 31
9.5
  0
LINE
  5
A31
330
A02
100
AcDbEntity
  8
Mesh_cs
100
AcDbLine
 10
241.308
 20
236.465
 30
9.5
 11
241.336
 21
236.399
 31
9.5
  0
LINE
  5
A32
330
A02
100
AcDbEntity
  8
Mesh_cs
100
AcDbLine
 10
241.336
 20
236.399
 30
9.5
 11
241.448
 21
236.154
 31
9.5
  0
LINE
  5
A33
330
A02
100
AcDbEntity
  8
Mesh_cs
100
AcDbLine
 10
241.448
 20
236.154
 30
9.5
 11
241.478
 21
236.09
 31
9.5
  0
LINE
  5
A34
330
A02
100
AcDbEntity
  8
Mesh_cs
100
AcDbLine
 10
241.478
 20
236.09
 30
9.5
 11
241.512
 21
236.028
 31
9.5
  0
LINE
  5
A35
330
A02
100
AcDbEntity
  8
Mesh_cs
100
AcDbLine
 10
241.512
 20
236.028
 30
9.5
 11
241.64
 21
235.794
 31
9.5
  0
LINE
  5
A36
330
A02
100
AcDbEntity
  8
Mesh_cs
100
AcDbLine
 10
241.64
 20
235.794
 30
9.5
 11
241.68
 21
235.729
 31
9.5
  0
LINE
  5
A37
330
A02
100
AcDbEntity
  8
Mesh_cs
100
AcDbLine
 10
241.68
 20
235.729
 30
9.5
 11
241.823
 21
235.509
 31
9.5
  0
LINE
  5
A38
330
A02
100
AcDbEntity
  8
Mesh_cs
100
AcDbLine
 10
241.823
 20
235.509
 30
9.5
 11
241.877
 21
235.431
 31
9.5
  0
LINE
  5
A39
330
A02
100
AcDbEntity
  8
Mesh_cs
100
AcDbLine
 10
241.877
 20
235.431
 30
9.5
 11
242.033
 21
235.226
 31
9.5
  0
LINE
  5
A3A
330
A02
100
AcDbEntity
  8
Mesh_cs
100
AcDbLine
 10
242.033
 20
235.226
 30
9.5
 11
242.092
 21
235.152
 31
9.5
  0
LINE
  5
A3B
330
A02
100
AcDbEntity
  8
Mesh_cs
100
AcDbLine
 10
242.092
 20
235.152
 30
9.5
 11
242.259
 21
234.962
 31
9.5
  0
LINE
  5
A3C
330
A02
100
AcDbEntity
  8
Mesh_cs
100
AcDbLine
 10
242.259
 20
234.962
 30
9.5
 11
242.33
 21
234.885
 31
9.5
  0
LINE
  5
A3D
330
A02
100
AcDbEntity
  8
Mesh_cs
100
AcDbLine
 10
242.33
 20
234.885
 30
9.5
 11
242.506
 21
234.71
 31
9.5
  0
LINE
  5
A3E
330
A02
100
AcDbEntity
  8
Mesh_cs
100
AcDbLine
 10
242.506
 20
234.71
 30
9.5
 11
242.591
 21
234.631
 31
9.5
  0
LINE
  5
A3F
330
A02
100
AcDbEntity
  8
Mesh_cs
100
AcDbLine
 10
242.591
 20
234.631
 30
9.5
 11
242.75
 21
234.493
 31
9.5
  0
LINE
  5
A40
330
A02
100
AcDbEntity
  8
Mesh_cs
100
AcDbLine
 10
242.75
 20
234.493
 30
9.5
 11
242.841
 21
234.421
 31
9.5
  0
LINE
  5
A41
330
A02
100
AcDbEntity
  8
Mesh_cs
100
AcDbLine
 10
242.841
 20
234.421
 30
9.5
 11
243.004
 21
234.295
 31
9.5
  0
LINE
  5
A42
330
A02
100
AcDbEntity
  8
Mesh_cs
100
AcDbLine
 10
243.004
 20
234.295
 30
9.5
 11
254.562
 21
225.898
 31
9.5
  0
LINE
  5
A43
330
A02
100
AcDbEntity
  8
Mesh_cs
100
AcDbLine
 10
254.562
 20
225.898
 30
9.5
 11
259.185
 21
222.54
 31
9.5
  0
LINE
  5
A44
330
A02
100
AcDbEntity
  8
Mesh_cs
100
AcDbLine
 10
259.185
 20
222.54
 30
9.5
 11
258.963
 21
222.182
 31
9.5
  0
LINE
  5
A45
330
A02
100
AcDbEntity
  8
Mesh_cs
100
AcDbLine
 10
258.963
 20
222.182
 30
9.5
 11
258.799
 21
221.918
 31
9.5
  0
LINE
  5
A46
330
A02
100
AcDbEntity
  8
Mesh_cs
100
AcDbLine
 10
258.799
 20
221.918
 30
9.5
 11
258.781
 21
221.884
 31
9.5
  0
LINE
  5
A47
330
A02
100
AcDbEntity
  8
Mesh_cs
100
AcDbLine
 10
258.781
 20
221.884
 30
9.5
 11
258.773
 21
221.867
 31
9.5
  0
LINE
  5
A48
330
A02
100
AcDbEntity
  8
Mesh_cs
100
AcDbLine
 10
258.773
 20
221.867
 30
9.5
 11
258.765
 21
221.851
 31
9.5
  0
LINE
  5
A49
330
A02
100
AcDbEntity
  8
Mesh_cs
100
AcDbLine
 10
258.765
 20
221.851
 30
9.5
 11
258.758
 21
221.834
 31
9.5
  0
LINE
  5
A4A
330
A02
100
AcDbEntity
  8
Mesh_cs
100
AcDbLine
 10
258.758
 20
221.834
 30
9.5
 11
258.751
 21
221.817
 31
9.5
  0
LINE
  5
A4B
330
A02
100
AcDbEntity
  8
Mesh_cs
100
AcDbLine
 10
258.751
 20
221.817
 30
9.5
 11
258.744
 21
221.8
 31
9.5
  0
LINE
  5
A4C
330
A02
100
AcDbEntity
  8
Mesh_cs
100
AcDbLine
 10
258.744
 20
221.8
 30
9.5
 11
258.74
 21
221.787
 31
9.5
  0
LINE
  5
A4D
330
A02
100
AcDbEntity
  8
Mesh_cs
100
AcDbLine
 10
258.74
 20
221.787
 30
9.5
 11
258.736
 21
221.775
 31
9.5
  0
LINE
  5
A4E
330
A02
100
AcDbEntity
  8
Mesh_cs
100
AcDbLine
 10
258.736
 20
221.775
 30
9.5
 11
258.529
 21
221.297
 31
9.5
  0
LINE
  5
A4F
330
A02
100
AcDbEntity
  8
Mesh_cs
100
AcDbLine
 10
258.529
 20
221.297
 30
9.5
 11
258.494
 21
221.155
 31
9.5
  0
LINE
  5
A50
330
A02
100
AcDbEntity
  8
Mesh_cs
100
AcDbLine
 10
258.494
 20
221.155
 30
9.5
 11
258.349
 21
220.687
 31
9.5
  0
LINE
  5
A51
330
A02
100
AcDbEntity
  8
Mesh_cs
100
AcDbLine
 10
258.349
 20
220.687
 30
9.5
 11
258.283
 21
220.116
 31
9.5
  0
LINE
  5
A52
330
A02
100
AcDbEntity
  8
Mesh_cs
100
AcDbLine
 10
258.283
 20
220.116
 30
9.5
 11
258.23
 21
219.617
 31
9.5
  0
LINE
  5
A53
330
A02
100
AcDbEntity
  8
Mesh_cs
100
AcDbLine
 10
258.23
 20
219.617
 30
9.5
 11
254.567
 21
213.642
 31
9.5
  0
LINE
  5
A54
330
A02
100
AcDbEntity
  8
Mesh_cs
100
AcDbLine
 10
254.567
 20
213.642
 30
9.5
 11
253.603
 21
212.07
 31
9.5
  0
LINE
  5
A55
330
A02
100
AcDbEntity
  8
Mesh_cs
100
AcDbLine
 10
253.603
 20
212.07
 30
9.5
 11
252.673
 21
210.477
 31
9.5
  0
LINE
  5
A56
330
A02
100
AcDbEntity
  8
Mesh_cs
100
AcDbLine
 10
252.673
 20
210.477
 30
9.5
 11
249.139
 21
204.425
 31
9.5
  0
LINE
  5
A57
330
A02
100
AcDbEntity
  8
Mesh_cs
100
AcDbLine
 10
249.139
 20
204.425
 30
9.5
 11
248.244
 21
202.813
 31
9.5
  0
LINE
  5
A58
330
A02
100
AcDbEntity
  8
Mesh_cs
100
AcDbLine
 10
248.244
 20
202.813
 30
9.5
 11
244.84
 21
196.687
 31
9.5
  0
LINE
  5
A59
330
A02
100
AcDbEntity
  8
Mesh_cs
100
AcDbLine
 10
244.84
 20
196.687
 30
9.5
 11
243.979
 21
195.056
 31
9.5
  0
LINE
  5
A5A
330
A02
100
AcDbEntity
  8
Mesh_cs
100
AcDbLine
 10
243.979
 20
195.056
 30
9.5
 11
240.708
 21
188.858
 31
9.5
  0
LINE
  5
A5B
330
A02
100
AcDbEntity
  8
Mesh_cs
100
AcDbLine
 10
240.708
 20
188.858
 30
9.5
 11
239.882
 21
187.209
 31
9.5
  0
LINE
  5
A5C
330
A02
100
AcDbEntity
  8
Mesh_cs
100
AcDbLine
 10
239.882
 20
187.209
 30
9.5
 11
236.745
 21
180.942
 31
9.5
  0
LINE
  5
A5D
330
A02
100
AcDbEntity
  8
Mesh_cs
100
AcDbLine
 10
236.745
 20
180.942
 30
9.5
 11
235.955
 21
179.275
 31
9.5
  0
LINE
  5
A5E
330
A02
100
AcDbEntity
  8
Mesh_cs
100
AcDbLine
 10
235.955
 20
179.275
 30
9.5
 11
232.952
 21
172.943
 31
9.5
  0
LINE
  5
A5F
330
A02
100
AcDbEntity
  8
Mesh_cs
100
AcDbLine
 10
232.952
 20
172.943
 30
9.5
 11
232.198
 21
171.26
 31
9.5
  0
LINE
  5
A60
330
A02
100
AcDbEntity
  8
Mesh_cs
100
AcDbLine
 10
232.198
 20
171.26
 30
9.5
 11
229.332
 21
164.865
 31
9.5
  0
LINE
  5
A61
330
A02
100
AcDbEntity
  8
Mesh_cs
100
AcDbLine
 10
229.332
 20
164.865
 30
9.5
 11
228.614
 21
163.166
 31
9.5
  0
LINE
  5
A62
330
A02
100
AcDbEntity
  8
Mesh_cs
100
AcDbLine
 10
228.614
 20
163.166
 30
9.5
 11
225.885
 21
156.711
 31
9.5
  0
LINE
  5
A63
330
A02
100
AcDbEntity
  8
Mesh_cs
100
AcDbLine
 10
225.885
 20
156.711
 30
9.5
 11
225.204
 21
154.997
 31
9.5
  0
LINE
  5
A64
330
A02
100
AcDbEntity
  8
Mesh_cs
100
AcDbLine
 10
225.204
 20
154.997
 30
9.5
 11
222.614
 21
148.484
 31
9.5
  0
LINE
  5
A65
330
A02
100
AcDbEntity
  8
Mesh_cs
100
AcDbLine
 10
222.614
 20
148.484
 30
9.5
 11
221.97
 21
146.757
 31
9.5
  0
LINE
  5
A66
330
A02
100
AcDbEntity
  8
Mesh_cs
100
AcDbLine
 10
221.97
 20
146.757
 30
9.5
 11
219.52
 21
140.19
 31
9.5
  0
LINE
  5
A67
330
A02
100
AcDbEntity
  8
Mesh_cs
100
AcDbLine
 10
219.52
 20
140.19
 30
9.5
 11
217.212
 21
133.573
 31
9.5
  0
LINE
  5
A68
330
A02
100
AcDbEntity
  8
Mesh_cs
100
AcDbLine
 10
217.212
 20
133.573
 30
9.5
 11
216.605
 21
131.831
 31
9.5
  0
LINE
  5
A69
330
A02
100
AcDbEntity
  8
Mesh_cs
100
AcDbLine
 10
216.605
 20
131.831
 30
9.5
 11
216.035
 21
130.077
 31
9.5
  0
LINE
  5
A6A
330
A02
100
AcDbEntity
  8
Mesh_cs
100
AcDbLine
 10
216.035
 20
130.077
 30
9.5
 11
213.869
 21
123.412
 31
9.5
  0
LINE
  5
A6B
330
A02
100
AcDbEntity
  8
Mesh_cs
100
AcDbLine
 10
213.869
 20
123.412
 30
9.5
 11
211.847
 21
116.702
 31
9.5
  0
LINE
  5
A6C
330
A02
100
AcDbEntity
  8
Mesh_cs
100
AcDbLine
 10
211.847
 20
116.702
 30
9.5
 11
211.315
 21
114.936
 31
9.5
  0
LINE
  5
A6D
330
A02
100
AcDbEntity
  8
Mesh_cs
100
AcDbLine
 10
211.315
 20
114.936
 30
9.5
 11
210.821
 21
113.159
 31
9.5
  0
LINE
  5
A6E
330
A02
100
AcDbEntity
  8
Mesh_cs
100
AcDbLine
 10
210.821
 20
113.159
 30
9.5
 11
208.942
 21
106.407
 31
9.5
  0
LINE
  5
A6F
330
A02
100
AcDbEntity
  8
Mesh_cs
100
AcDbLine
 10
208.942
 20
106.407
 30
9.5
 11
208.486
 21
104.62
 31
9.5
  0
LINE
  5
A70
330
A02
100
AcDbEntity
  8
Mesh_cs
100
AcDbLine
 10
208.486
 20
104.62
 30
9.5
 11
206.754
 21
97.8298
 31
9.5
  0
LINE
  5
A71
330
A02
100
AcDbEntity
  8
Mesh_cs
100
AcDbLine
 10
206.754
 20
97.8298
 30
9.5
 11
206.336
 21
96.0334
 31
9.5
  0
LINE
  5
A72
330
A02
100
AcDbEntity
  8
Mesh_cs
100
AcDbLine
 10
206.336
 20
96.0334
 30
9.5
 11
204.749
 21
89.2072
 31
9.5
  0
LINE
  5
A73
330
A02
100
AcDbEntity
  8
Mesh_cs
100
AcDbLine
 10
204.749
 20
89.2072
 30
9.5
 11
204.37
 21
87.4023
 31
9.5
  0
LINE
  5
A74
330
A02
100
AcDbEntity
  8
Mesh_cs
100
AcDbLine
 10
204.37
 20
87.4023
 30
9.5
 11
202.93
 21
80.5436
 31
9.5
  0
LINE
  5
A75
330
A02
100
AcDbEntity
  8
Mesh_cs
100
AcDbLine
 10
202.93
 20
80.5436
 30
9.5
 11
202.589
 21
78.731
 31
9.5
  0
LINE
  5
A76
330
A02
100
AcDbEntity
  8
Mesh_cs
100
AcDbLine
 10
202.589
 20
78.731
 30
9.5
 11
201.296
 21
71.843
 31
9.5
  0
LINE
  5
A77
330
A02
100
AcDbEntity
  8
Mesh_cs
100
AcDbLine
 10
201.296
 20
71.843
 30
9.5
 11
200.995
 21
70.0235
 31
9.5
  0
LINE
  5
A78
330
A02
100
AcDbEntity
  8
Mesh_cs
100
AcDbLine
 10
200.995
 20
70.0235
 30
9.5
 11
199.85
 21
63.1094
 31
9.5
  0
LINE
  5
A79
330
A02
100
AcDbEntity
  8
Mesh_cs
100
AcDbLine
 10
199.85
 20
63.1094
 30
9.5
 11
198.853
 21
56.1724
 31
9.5
  0
LINE
  5
A7A
330
A02
100
AcDbEntity
  8
Mesh_cs
100
AcDbLine
 10
198.853
 20
56.1724
 30
9.5
 11
198.591
 21
54.3468
 31
9.5
  0
LINE
  5
A7B
330
A02
100
AcDbEntity
  8
Mesh_cs
100
AcDbLine
 10
198.591
 20
54.3468
 30
9.5
 11
198.368
 21
52.5161
 31
9.5
  0
LINE
  5
A7C
330
A02
100
AcDbEntity
  8
Mesh_cs
100
AcDbLine
 10
198.368
 20
52.5161
 30
9.5
 11
197.52
 21
45.5593
 31
9.5
  0
LINE
  5
A7D
330
A02
100
AcDbEntity
  8
Mesh_cs
100
AcDbLine
 10
197.52
 20
45.5593
 30
9.5
 11
197.337
 21
43.7242
 31
9.5
  0
LINE
  5
A7E
330
A02
100
AcDbEntity
  8
Mesh_cs
100
AcDbLine
 10
197.337
 20
43.7242
 30
9.5
 11
196.638
 21
36.7508
 31
9.5
  0
LINE
  5
A7F
330
A02
100
AcDbEntity
  8
Mesh_cs
100
AcDbLine
 10
196.638
 20
36.7508
 30
9.5
 11
196.494
 21
34.9122
 31
9.5
  0
LINE
  5
A80
330
A02
100
AcDbEntity
  8
Mesh_cs
100
AcDbLine
 10
196.494
 20
34.9122
 30
9.5
 11
195.945
 21
27.9254
 31
9.5
  0
LINE
  5
A81
330
A02
100
AcDbEntity
  8
Mesh_cs
100
AcDbLine
 10
195.945
 20
27.9254
 30
9.5
 11
195.9
 21
27.8576
 31
9.5
  0
LINE
  5
A82
330
A02
100
AcDbEntity
  8
Mesh_cs
100
AcDbLine
 10
195.9
 20
27.8576
 30
9.5
 11
195.729
 21
27.6001
 31
9.5
  0
LINE
  5
A83
330
A02
100
AcDbEntity
  8
Mesh_cs
100
AcDbLine
 10
195.729
 20
27.6001
 30
9.5
 11
195.69
 21
27.529
 31
9.5
  0
LINE
  5
A84
330
A02
100
AcDbEntity
  8
Mesh_cs
100
AcDbLine
 10
195.69
 20
27.529
 30
9.5
 11
195.539
 21
27.2588
 31
9.5
  0
LINE
  5
A85
330
A02
100
AcDbEntity
  8
Mesh_cs
100
AcDbLine
 10
195.539
 20
27.2588
 30
9.5
 11
195.505
 21
27.1849
 31
9.5
  0
LINE
  5
A86
330
A02
100
AcDbEntity
  8
Mesh_cs
100
AcDbLine
 10
195.505
 20
27.1849
 30
9.5
 11
195.377
 21
26.9038
 31
9.5
  0
LINE
  5
A87
330
A02
100
AcDbEntity
  8
Mesh_cs
100
AcDbLine
 10
195.377
 20
26.9038
 30
9.5
 11
195.27
 21
26.6135
 31
9.5
  0
LINE
  5
A88
330
A02
100
AcDbEntity
  8
Mesh_cs
100
AcDbLine
 10
195.27
 20
26.6135
 30
9.5
 11
195.242
 21
26.5372
 31
9.5
  0
LINE
  5
A89
330
A02
100
AcDbEntity
  8
Mesh_cs
100
AcDbLine
 10
195.242
 20
26.5372
 30
9.5
 11
195.22
 21
26.4588
 31
9.5
  0
LINE
  5
A8A
330
A02
100
AcDbEntity
  8
Mesh_cs
100
AcDbLine
 10
195.22
 20
26.4588
 30
9.5
 11
195.137
 21
26.1612
 31
9.5
  0
LINE
  5
A8B
330
A02
100
AcDbEntity
  8
Mesh_cs
100
AcDbLine
 10
195.137
 20
26.1612
 30
9.5
 11
195.121
 21
26.0813
 31
9.5
  0
LINE
  5
A8C
330
A02
100
AcDbEntity
  8
Mesh_cs
100
AcDbLine
 10
195.121
 20
26.0813
 30
9.5
 11
195.061
 21
25.7781
 31
9.5
  0
LINE
  5
A8D
330
A02
100
AcDbEntity
  8
Mesh_cs
100
AcDbLine
 10
195.061
 20
25.7781
 30
9.5
 11
195.025
 21
25.471
 31
9.5
  0
LINE
  5
A8E
330
A02
100
AcDbEntity
  8
Mesh_cs
100
AcDbLine
 10
195.025
 20
25.471
 30
9.5
 11
195.015
 21
25.3902
 31
9.5
  0
LINE
  5
A8F
330
A02
100
AcDbEntity
  8
Mesh_cs
100
AcDbLine
 10
195.015
 20
25.3902
 30
9.5
 11
195.004
 21
25.1115
 31
9.5
  0
LINE
  5
A90
330
A02
100
AcDbEntity
  8
Mesh_cs
100
AcDbLine
 10
195.004
 20
25.1115
 30
9.5
 11
195
 21
25
 31
9.5
  0
LINE
  5
A91
330
A02
100
AcDbEntity
  8
Mesh_cs
100
AcDbLine
 10
195
 20
25
 30
9.5
 11
180.714
 21
25
 31
9.5
  0
LINE
  5
A92
330
A02
100
AcDbEntity
  8
Mesh_cs
100
AcDbLine
 10
180.714
 20
25
 30
9.5
 11
175
 21
25
 31
9.5
  0
LINE
  5
A93
330
A02
100
AcDbEntity
  8
Mesh_cs
100
AcDbLine
 10
175
 20
25
 30
9.5
 11
174.794
 21
24.994
 31
9.5
  0
LINE
  5
A94
330
A02
100
AcDbEntity
  8
Mesh_cs
100
AcDbLine
 10
174.794
 20
24.994
 30
9.5
 11
174.678
 21
24.9894
 31
9.5
  0
LINE
  5
A95
330
A02
100
AcDbEntity
  8
Mesh_cs
100
AcDbLine
 10
174.678
 20
24.9894
 30
9.5
 11
174.468
 21
24.971
 31
9.5
  0
LINE
  5
A96
330
A02
100
AcDbEntity
  8
Mesh_cs
100
AcDbLine
 10
174.468
 20
24.971
 30
9.5
 11
174.353
 21
24.9569
 31
9.5
  0
LINE
  5
A97
330
A02
100
AcDbEntity
  8
Mesh_cs
100
AcDbLine
 10
174.353
 20
24.9569
 30
9.5
 11
174.108
 21
24.9195
 31
9.5
  0
LINE
  5
A98
330
A02
100
AcDbEntity
  8
Mesh_cs
100
AcDbLine
 10
174.108
 20
24.9195
 30
9.5
 11
174.006
 21
24.8989
 31
9.5
  0
LINE
  5
A99
330
A02
100
AcDbEntity
  8
Mesh_cs
100
AcDbLine
 10
174.006
 20
24.8989
 30
9.5
 11
173.759
 21
24.8432
 31
9.5
  0
LINE
  5
A9A
330
A02
100
AcDbEntity
  8
Mesh_cs
100
AcDbLine
 10
173.759
 20
24.8432
 30
9.5
 11
173.668
 21
24.8182
 31
9.5
  0
LINE
  5
A9B
330
A02
100
AcDbEntity
  8
Mesh_cs
100
AcDbLine
 10
173.668
 20
24.8182
 30
9.5
 11
173.42
 21
24.7435
 31
9.5
  0
LINE
  5
A9C
330
A02
100
AcDbEntity
  8
Mesh_cs
100
AcDbLine
 10
173.42
 20
24.7435
 30
9.5
 11
173.331
 21
24.7125
 31
9.5
  0
LINE
  5
A9D
330
A02
100
AcDbEntity
  8
Mesh_cs
100
AcDbLine
 10
173.331
 20
24.7125
 30
9.5
 11
173.086
 21
24.6185
 31
9.5
  0
LINE
  5
A9E
330
A02
100
AcDbEntity
  8
Mesh_cs
100
AcDbLine
 10
173.086
 20
24.6185
 30
9.5
 11
173.015
 21
24.5891
 31
9.5
  0
LINE
  5
A9F
330
A02
100
AcDbEntity
  8
Mesh_cs
100
AcDbLine
 10
173.015
 20
24.5891
 30
9.5
 11
172.775
 21
24.4756
 31
9.5
  0
LINE
  5
AA0
330
A02
100
AcDbEntity
  8
Mesh_cs
100
AcDbLine
 10
172.775
 20
24.4756
 30
9.5
 11
172.711
 21
24.445
 31
9.5
  0
LINE
  5
AA1
330
A02
100
AcDbEntity
  8
Mesh_cs
100
AcDbLine
 10
172.711
 20
24.445
 30
9.5
 11
172.648
 21
24.4113
 31
9.5
  0
LINE
  5
AA2
330
A02
100
AcDbEntity
  8
Mesh_cs
100
AcDbLine
 10
172.648
 20
24.4113
 30
9.5
 11
172.414
 21
24.2785
 31
9.5
  0
LINE
  5
AA3
330
A02
100
AcDbEntity
  8
Mesh_cs
100
AcDbLine
 10
172.414
 20
24.2785
 30
9.5
 11
172.353
 21
24.2417
 31
9.5
  0
LINE
  5
AA4
330
A02
100
AcDbEntity
  8
Mesh_cs
100
AcDbLine
 10
172.353
 20
24.2417
 30
9.5
 11
172.127
 21
24.0902
 31
9.5
  0
LINE
  5
AA5
330
A02
100
AcDbEntity
  8
Mesh_cs
100
AcDbLine
 10
172.127
 20
24.0902
 30
9.5
 11
172.069
 21
24.0505
 31
9.5
  0
LINE
  5
AA6
330
A02
100
AcDbEntity
  8
Mesh_cs
100
AcDbLine
 10
172.069
 20
24.0505
 30
9.5
 11
172.012
 21
24.0078
 31
9.5
  0
LINE
  5
AA7
330
A02
100
AcDbEntity
  8
Mesh_cs
100
AcDbLine
 10
172.012
 20
24.0078
 30
9.5
 11
171.797
 21
23.8386
 31
9.5
  0
LINE
  5
AA8
330
A02
100
AcDbEntity
  8
Mesh_cs
100
AcDbLine
 10
171.797
 20
23.8386
 30
9.5
 11
171.743
 21
23.7932
 31
9.5
  0
LINE
  5
AA9
330
A02
100
AcDbEntity
  8
Mesh_cs
100
AcDbLine
 10
171.743
 20
23.7932
 30
9.5
 11
171.69
 21
23.7451
 31
9.5
  0
LINE
  5
AAA
330
A02
100
AcDbEntity
  8
Mesh_cs
100
AcDbLine
 10
171.69
 20
23.7451
 30
9.5
 11
171.489
 21
23.5593
 31
9.5
  0
LINE
  5
AAB
330
A02
100
AcDbEntity
  8
Mesh_cs
100
AcDbLine
 10
171.489
 20
23.5593
 30
9.5
 11
171.439
 21
23.5087
 31
9.5
  0
LINE
  5
AAC
330
A02
100
AcDbEntity
  8
Mesh_cs
100
AcDbLine
 10
171.439
 20
23.5087
 30
9.5
 11
171.252
 21
23.3079
 31
9.5
  0
LINE
  5
AAD
330
A02
100
AcDbEntity
  8
Mesh_cs
100
AcDbLine
 10
171.252
 20
23.3079
 30
9.5
 11
171.205
 21
23.2549
 31
9.5
  0
LINE
  5
AAE
330
A02
100
AcDbEntity
  8
Mesh_cs
100
AcDbLine
 10
171.205
 20
23.2549
 30
9.5
 11
171.16
 21
23.1997
 31
9.5
  0
LINE
  5
AAF
330
A02
100
AcDbEntity
  8
Mesh_cs
100
AcDbLine
 10
171.16
 20
23.1997
 30
9.5
 11
170.99
 21
22.9858
 31
9.5
  0
LINE
  5
AB0
330
A02
100
AcDbEntity
  8
Mesh_cs
100
AcDbLine
 10
170.99
 20
22.9858
 30
9.5
 11
170.948
 21
22.9283
 31
9.5
  0
LINE
  5
AB1
330
A02
100
AcDbEntity
  8
Mesh_cs
100
AcDbLine
 10
170.948
 20
22.9283
 30
9.5
 11
170.795
 21
22.7034
 31
9.5
  0
LINE
  5
AB2
330
A02
100
AcDbEntity
  8
Mesh_cs
100
AcDbLine
 10
170.795
 20
22.7034
 30
9.5
 11
170.756
 21
22.644
 31
9.5
  0
LINE
  5
AB3
330
A02
100
AcDbEntity
  8
Mesh_cs
100
AcDbLine
 10
170.756
 20
22.644
 30
9.5
 11
170.72
 21
22.5827
 31
9.5
  0
LINE
  5
AB4
330
A02
100
AcDbEntity
  8
Mesh_cs
100
AcDbLine
 10
170.72
 20
22.5827
 30
9.5
 11
170.586
 21
22.3488
 31
9.5
  0
LINE
  5
AB5
330
A02
100
AcDbEntity
  8
Mesh_cs
100
AcDbLine
 10
170.586
 20
22.3488
 30
9.5
 11
170.554
 21
22.2859
 31
9.5
  0
LINE
  5
AB6
330
A02
100
AcDbEntity
  8
Mesh_cs
100
AcDbLine
 10
170.554
 20
22.2859
 30
9.5
 11
170.439
 21
22.0454
 31
9.5
  0
LINE
  5
AB7
330
A02
100
AcDbEntity
  8
Mesh_cs
100
AcDbLine
 10
170.439
 20
22.0454
 30
9.5
 11
170.409
 21
21.9809
 31
9.5
  0
LINE
  5
AB8
330
A02
100
AcDbEntity
  8
Mesh_cs
100
AcDbLine
 10
170.409
 20
21.9809
 30
9.5
 11
170.383
 21
21.9151
 31
9.5
  0
LINE
  5
AB9
330
A02
100
AcDbEntity
  8
Mesh_cs
100
AcDbLine
 10
170.383
 20
21.9151
 30
9.5
 11
170.287
 21
21.6702
 31
9.5
  0
LINE
  5
ABA
330
A02
100
AcDbEntity
  8
Mesh_cs
100
AcDbLine
 10
170.287
 20
21.6702
 30
9.5
 11
170.264
 21
21.6032
 31
9.5
  0
LINE
  5
ABB
330
A02
100
AcDbEntity
  8
Mesh_cs
100
AcDbLine
 10
170.264
 20
21.6032
 30
9.5
 11
170.181
 21
21.3286
 31
9.5
  0
LINE
  5
ABC
330
A02
100
AcDbEntity
  8
Mesh_cs
100
AcDbLine
 10
170.181
 20
21.3286
 30
9.5
 11
170.162
 21
21.2606
 31
9.5
  0
LINE
  5
ABD
330
A02
100
AcDbEntity
  8
Mesh_cs
100
AcDbLine
 10
170.162
 20
21.2606
 30
9.5
 11
170.145
 21
21.1917
 31
9.5
  0
LINE
  5
ABE
330
A02
100
AcDbEntity
  8
Mesh_cs
100
AcDbLine
 10
170.145
 20
21.1917
 30
9.5
 11
170.08
 21
20.8871
 31
9.5
  0
LINE
  5
ABF
330
A02
100
AcDbEntity
  8
Mesh_cs
100
AcDbLine
 10
170.08
 20
20.8871
 30
9.5
 11
170.067
 21
20.8175
 31
9.5
  0
LINE
  5
AC0
330
A02
100
AcDbEntity
  8
Mesh_cs
100
AcDbLine
 10
170.067
 20
20.8175
 30
9.5
 11
170.058
 21
20.7475
 31
9.5
  0
LINE
  5
AC1
330
A02
100
AcDbEntity
  8
Mesh_cs
100
AcDbLine
 10
170.058
 20
20.7475
 30
9.5
 11
170.02
 21
20.4467
 31
9.5
  0
LINE
  5
AC2
330
A02
100
AcDbEntity
  8
Mesh_cs
100
AcDbLine
 10
170.02
 20
20.4467
 30
9.5
 11
170.014
 21
20.3763
 31
9.5
  0
LINE
  5
AC3
330
A02
100
AcDbEntity
  8
Mesh_cs
100
AcDbLine
 10
170.014
 20
20.3763
 30
9.5
 11
170.013
 21
20.335
 31
9.5
  0
LINE
  5
AC4
330
A02
100
AcDbEntity
  8
Mesh_cs
100
AcDbLine
 10
170.013
 20
20.335
 30
9.5
 11
170.001
 21
20.0413
 31
9.5
  0
LINE
  5
AC5
330
A02
100
AcDbEntity
  8
Mesh_cs
100
AcDbLine
 10
170.001
 20
20.0413
 30
9.5
 11
170
 21
20
 31
9.5
  0
LINE
  5
AC6
330
A02
100
AcDbEntity
  8
Mesh_cs
100
AcDbLine
 10
170
 20
20
 30
9.5
 11
170
 21
5.71429
 31
9.5
  0
LINE
  5
AC7
330
A02
100
AcDbEntity
  8
Mesh_cs
100
AcDbLine
 10
170
 20
5.71429
 30
9.5
 11
170
 21
-3.55271e-15
 31
9.5
  0
LINE
  5
AC8
330
A02
100
AcDbEntity
  8
Mesh_cs
100
AcDbLine
 10
170
 20
-3.29895e-15
 30
9.5
 11
148
 21
-3.10862e-15
 31
9.5
  0
LINE
  5
AC9
330
A02
100
AcDbEntity
  8
Mesh_cs
100
AcDbLine
 10
148
 20
-3.10862e-15
 30
9.5
 11
125.909
 21
-2.10942e-15
 31
9.5
  0
LINE
  5
ACA
330
A02
100
AcDbEntity
  8
Mesh_cs
100
AcDbLine
 10
125.909
 20
-2.10942e-15
 30
9.5
 11
95.6818
 21
-2.10942e-15
 31
9.5
  0
LINE
  5
ACB
330
A02
100
AcDbEntity
  8
Mesh_cs
100
AcDbLine
 10
95.6818
 20
-2.10942e-15
 30
9.5
 11
47
 21
-3.10862e-15
 31
9.5
  0
LINE
  5
ACC
330
A02
100
AcDbEntity
  8
Mesh_cs
100
AcDbLine
 10
47
 20
-3.10862e-15
 30
9.5
 11
25
 21
-3.29895e-15
 31
9.5
  0
LINE
  5
ACD
330
A02
100
AcDbEntity
  8
Mesh_cs
100
AcDbLine
 10
25
 20
-3.29895e-15
 30
9.5
 11
25
 21
5.71429
 31
9.5
  0
LINE
  5
ACE
330
A02
100
AcDbEntity
  8
Mesh_cs
100
AcDbLine
 10
25
 20
5.71429
 30
9.5
 11
25
 21
20
 31
9.5
  0
LINE
  5
ACF
330
A02
100
AcDbEntity
  8
Mesh_cs
100
AcDbLine
 10
25
 20
20
 30
9.5
 11
24.9864
 21
20.3113
 31
9.5
  0
LINE
  5
AD0
330
A02
100
AcDbEntity
  8
Mesh_cs
100
AcDbLine
 10
24.9864
 20
20.3113
 30
9.5
 11
24.981
 21
20.4358
 31
9.5
  0
LINE
  5
AD1
330
A02
100
AcDbEntity
  8
Mesh_cs
100
AcDbLine
 10
24.981
 20
20.4358
 30
9.5
 11
24.9647
 21
20.5593
 31
9.5
  0
LINE
  5
AD2
330
A02
100
AcDbEntity
  8
Mesh_cs
100
AcDbLine
 10
24.9647
 20
20.5593
 30
9.5
 11
24.924
 21
20.8682
 31
9.5
  0
LINE
  5
AD3
330
A02
100
AcDbEntity
  8
Mesh_cs
100
AcDbLine
 10
24.924
 20
20.8682
 30
9.5
 11
24.8971
 21
20.9899
 31
9.5
  0
LINE
  5
AD4
330
A02
100
AcDbEntity
  8
Mesh_cs
100
AcDbLine
 10
24.8971
 20
20.9899
 30
9.5
 11
24.8296
 21
21.2941
 31
9.5
  0
LINE
  5
AD5
330
A02
100
AcDbEntity
  8
Mesh_cs
100
AcDbLine
 10
24.8296
 20
21.2941
 30
9.5
 11
24.7922
 21
21.413
 31
9.5
  0
LINE
  5
AD6
330
A02
100
AcDbEntity
  8
Mesh_cs
100
AcDbLine
 10
24.7922
 20
21.413
 30
9.5
 11
24.6985
 21
21.7101
 31
9.5
  0
LINE
  5
AD7
330
A02
100
AcDbEntity
  8
Mesh_cs
100
AcDbLine
 10
24.6985
 20
21.7101
 30
9.5
 11
24.5792
 21
21.9979
 31
9.5
  0
LINE
  5
AD8
330
A02
100
AcDbEntity
  8
Mesh_cs
100
AcDbLine
 10
24.5792
 20
21.9979
 30
9.5
 11
24.5315
 21
22.1131
 31
9.5
  0
LINE
  5
AD9
330
A02
100
AcDbEntity
  8
Mesh_cs
100
AcDbLine
 10
24.5315
 20
22.1131
 30
9.5
 11
24.3877
 21
22.3895
 31
9.5
  0
LINE
  5
ADA
330
A02
100
AcDbEntity
  8
Mesh_cs
100
AcDbLine
 10
24.3877
 20
22.3895
 30
9.5
 11
24.3301
 21
22.5
 31
9.5
  0
LINE
  5
ADB
330
A02
100
AcDbEntity
  8
Mesh_cs
100
AcDbLine
 10
24.3301
 20
22.5
 30
9.5
 11
24.2632
 21
22.6051
 31
9.5
  0
LINE
  5
ADC
330
A02
100
AcDbEntity
  8
Mesh_cs
100
AcDbLine
 10
24.2632
 20
22.6051
 30
9.5
 11
24.0958
 21
22.8679
 31
9.5
  0
LINE
  5
ADD
330
A02
100
AcDbEntity
  8
Mesh_cs
100
AcDbLine
 10
24.0958
 20
22.8679
 30
9.5
 11
24.0199
 21
22.9668
 31
9.5
  0
LINE
  5
ADE
330
A02
100
AcDbEntity
  8
Mesh_cs
100
AcDbLine
 10
24.0199
 20
22.9668
 30
9.5
 11
23.8302
 21
23.2139
 31
9.5
  0
LINE
  5
ADF
330
A02
100
AcDbEntity
  8
Mesh_cs
100
AcDbLine
 10
23.8302
 20
23.2139
 30
9.5
 11
23.746
 21
23.3058
 31
9.5
  0
LINE
  5
AE0
330
A02
100
AcDbEntity
  8
Mesh_cs
100
AcDbLine
 10
23.746
 20
23.3058
 30
9.5
 11
23.5355
 21
23.5355
 31
9.5
  0
LINE
  5
AE1
330
A02
100
AcDbEntity
  8
Mesh_cs
100
AcDbLine
 10
23.5355
 20
23.5355
 30
9.5
 11
23.4436
 21
23.6197
 31
9.5
  0
LINE
  5
AE2
330
A02
100
AcDbEntity
  8
Mesh_cs
100
AcDbLine
 10
23.4436
 20
23.6197
 30
9.5
 11
23.2139
 21
23.8302
 31
9.5
  0
LINE
  5
AE3
330
A02
100
AcDbEntity
  8
Mesh_cs
100
AcDbLine
 10
23.2139
 20
23.8302
 30
9.5
 11
23.1151
 21
23.9061
 31
9.5
  0
LINE
  5
AE4
330
A02
100
AcDbEntity
  8
Mesh_cs
100
AcDbLine
 10
23.1151
 20
23.9061
 30
9.5
 11
22.8679
 21
24.0958
 31
9.5
  0
LINE
  5
AE5
330
A02
100
AcDbEntity
  8
Mesh_cs
100
AcDbLine
 10
22.8679
 20
24.0958
 30
9.5
 11
22.7628
 21
24.1627
 31
9.5
  0
LINE
  5
AE6
330
A02
100
AcDbEntity
  8
Mesh_cs
100
AcDbLine
 10
22.7628
 20
24.1627
 30
9.5
 11
22.5
 21
24.3301
 31
9.5
  0
LINE
  5
AE7
330
A02
100
AcDbEntity
  8
Mesh_cs
100
AcDbLine
 10
22.5
 20
24.3301
 30
9.5
 11
22.3895
 21
24.3877
 31
9.5
  0
LINE
  5
AE8
330
A02
100
AcDbEntity
  8
Mesh_cs
100
AcDbLine
 10
22.3895
 20
24.3877
 30
9.5
 11
22.1131
 21
24.5315
 31
9.5
  0
LINE
  5
AE9
330
A02
100
AcDbEntity
  8
Mesh_cs
100
AcDbLine
 10
22.1131
 20
24.5315
 30
9.5
 11
21.9979
 21
24.5792
 31
9.5
  0
LINE
  5
AEA
330
A02
100
AcDbEntity
  8
Mesh_cs
100
AcDbLine
 10
21.9979
 20
24.5792
 30
9.5
 11
21.7101
 21
24.6985
 31
9.5
  0
LINE
  5
AEB
330
A02
100
AcDbEntity
  8
Mesh_cs
100
AcDbLine
 10
21.7101
 20
24.6985
 30
9.5
 11
21.5912
 21
24.7359
 31
9.5
  0
LINE
  5
AEC
330
A02
100
AcDbEntity
  8
Mesh_cs
100
AcDbLine
 10
21.5912
 20
24.7359
 30
9.5
 11
21.2941
 21
24.8296
 31
9.5
  0
LINE
  5
AED
330
A02
100
AcDbEntity
  8
Mesh_cs
100
AcDbLine
 10
21.2941
 20
24.8296
 30
9.5
 11
21.1724
 21
24.8566
 31
9.5
  0
LINE
  5
AEE
330
A02
100
AcDbEntity
  8
Mesh_cs
100
AcDbLine
 10
21.1724
 20
24.8566
 30
9.5
 11
20.8682
 21
24.924
 31
9.5
  0
LINE
  5
AEF
330
A02
100
AcDbEntity
  8
Mesh_cs
100
AcDbLine
 10
20.8682
 20
24.924
 30
9.5
 11
20.7447
 21
24.9403
 31
9.5
  0
LINE
  5
AF0
330
A02
100
AcDbEntity
  8
Mesh_cs
100
AcDbLine
 10
20.7447
 20
24.9403
 30
9.5
 11
20.4358
 21
24.981
 31
9.5
  0
LINE
  5
AF1
330
A02
100
AcDbEntity
  8
Mesh_cs
100
AcDbLine
 10
20.4358
 20
24.981
 30
9.5
 11
20.1245
 21
24.9946
 31
9.5
  0
LINE
  5
AF2
330
A02
100
AcDbEntity
  8
Mesh_cs
100
AcDbLine
 10
20.1245
 20
24.9946
 30
9.5
 11
20
 21
25
 31
9.5
  0
LINE
  5
AF3
330
A02
100
AcDbEntity
  8
Mesh_cs
100
AcDbLine
 10
20
 20
25
 30
9.5
 11
14.4326
 21
25
 31
9.5
  0
LINE
  5
AF4
330
A02
100
AcDbEntity
  8
Mesh_cs
100
AcDbLine
 10
14.4326
 20
25
 30
9.5
 11
0.14691
 21
25
 31
9.5
  0
LINE
  5
AF5
330
A02
100
AcDbEntity
  8
Mesh_cs
100
AcDbLine
 10
0.14691
 20
25
 30
9.5
 11
-8.88178e-16
 21
25
 31
9.5
  0
LINE
  5
AF6
330
A02
100
AcDbEntity
  8
Mesh_cs
100
AcDbLine
 10
-8.88178e-16
 20
25
 30
9.5
 11
0.0483524
 21
25.097
 31
9.5
  0
LINE
  5
AF7
330
A02
100
AcDbEntity
  8
Mesh_cs
100
AcDbLine
 10
0.0483524
 20
25.097
 30
9.5
 11
0.169233
 21
25.3397
 31
9.5
  0
LINE
  5
AF8
330
A02
100
AcDbEntity
  8
Mesh_cs
100
AcDbLine
 10
0.169233
 20
25.3397
 30
9.5
 11
0.199022
 21
25.4129
 31
9.5
  0
LINE
  5
AF9
330
A02
100
AcDbEntity
  8
Mesh_cs
100
AcDbLine
 10
0.199022
 20
25.4129
 30
9.5
 11
0.312219
 21
25.6912
 31
9.5
  0
LINE
  5
AFA
330
A02
100
AcDbEntity
  8
Mesh_cs
100
AcDbLine
 10
0.312219
 20
25.6912
 30
9.5
 11
0.336368
 21
25.7665
 31
9.5
  0
LINE
  5
AFB
330
A02
100
AcDbEntity
  8
Mesh_cs
100
AcDbLine
 10
0.336368
 20
25.7665
 30
9.5
 11
0.428133
 21
26.0525
 31
9.5
  0
LINE
  5
AFC
330
A02
100
AcDbEntity
  8
Mesh_cs
100
AcDbLine
 10
0.428133
 20
26.0525
 30
9.5
 11
0.446502
 21
26.1294
 31
9.5
  0
LINE
  5
AFD
330
A02
100
AcDbEntity
  8
Mesh_cs
100
AcDbLine
 10
0.446502
 20
26.1294
 30
9.5
 11
0.516307
 21
26.4216
 31
9.5
  0
LINE
  5
AFE
330
A02
100
AcDbEntity
  8
Mesh_cs
100
AcDbLine
 10
0.516307
 20
26.4216
 30
9.5
 11
0.528792
 21
26.4997
 31
9.5
  0
LINE
  5
AFF
330
A02
100
AcDbEntity
  8
Mesh_cs
100
AcDbLine
 10
0.528792
 20
26.4997
 30
9.5
 11
0.576234
 21
26.7963
 31
9.5
  0
LINE
  5
B00
330
A02
100
AcDbEntity
  8
Mesh_cs
100
AcDbLine
 10
0.576234
 20
26.7963
 30
9.5
 11
0.582763
 21
26.8751
 31
9.5
  0
LINE
  5
B01
330
A02
100
AcDbEntity
  8
Mesh_cs
100
AcDbLine
 10
0.582763
 20
26.8751
 30
9.5
 11
0.607569
 21
27.1745
 31
9.5
  0
LINE
  5
B02
330
A02
100
AcDbEntity
  8
Mesh_cs
100
AcDbLine
 10
0.607569
 20
27.1745
 30
9.5
 11
0.729677
 21
29.4466
 31
9.5
  0
LINE
  5
B03
330
A02
100
AcDbEntity
  8
Mesh_cs
100
AcDbLine
 10
0.729677
 20
29.4466
 30
9.5
 11
1.19369
 21
38.0807
 31
9.5
  0
LINE
  5
B04
330
A02
100
AcDbEntity
  8
Mesh_cs
100
AcDbLine
 10
1.19369
 20
38.0807
 30
9.5
 11
1.35659
 21
40.3502
 31
9.5
  0
LINE
  5
B05
330
A02
100
AcDbEntity
  8
Mesh_cs
100
AcDbLine
 10
1.35659
 20
40.3502
 30
9.5
 11
1.97561
 21
48.9745
 31
9.5
  0
LINE
  5
B06
330
A02
100
AcDbEntity
  8
Mesh_cs
100
AcDbLine
 10
1.97561
 20
48.9745
 30
9.5
 11
2.17925
 21
51.2408
 31
9.5
  0
LINE
  5
B07
330
A02
100
AcDbEntity
  8
Mesh_cs
100
AcDbLine
 10
2.17925
 20
51.2408
 30
9.5
 11
2.95309
 21
59.8526
 31
9.5
  0
LINE
  5
B08
330
A02
100
AcDbEntity
  8
Mesh_cs
100
AcDbLine
 10
2.95309
 20
59.8526
 30
9.5
 11
3.1974
 21
62.1148
 31
9.5
  0
LINE
  5
B09
330
A02
100
AcDbEntity
  8
Mesh_cs
100
AcDbLine
 10
3.1974
 20
62.1148
 30
9.5
 11
4.1258
 21
70.7113
 31
9.5
  0
LINE
  5
B0A
330
A02
100
AcDbEntity
  8
Mesh_cs
100
AcDbLine
 10
4.1258
 20
70.7113
 30
9.5
 11
4.41072
 21
72.9688
 31
9.5
  0
LINE
  5
B0B
330
A02
100
AcDbEntity
  8
Mesh_cs
100
AcDbLine
 10
4.41072
 20
72.9688
 30
9.5
 11
5.49338
 21
81.5473
 31
9.5
  0
LINE
  5
B0C
330
A02
100
AcDbEntity
  8
Mesh_cs
100
AcDbLine
 10
5.49338
 20
81.5473
 30
9.5
 11
5.8188
 21
83.7993
 31
9.5
  0
LINE
  5
B0D
330
A02
100
AcDbEntity
  8
Mesh_cs
100
AcDbLine
 10
5.8188
 20
83.7993
 30
9.5
 11
7.05538
 21
92.3569
 31
9.5
  0
LINE
  5
B0E
330
A02
100
AcDbEntity
  8
Mesh_cs
100
AcDbLine
 10
7.05538
 20
92.3569
 30
9.5
 11
7.42119
 21
94.6027
 31
9.5
  0
LINE
  5
B0F
330
A02
100
AcDbEntity
  8
Mesh_cs
100
AcDbLine
 10
7.42119
 20
94.6027
 30
9.5
 11
8.81129
 21
103.137
 31
9.5
  0
LINE
  5
B10
330
A02
100
AcDbEntity
  8
Mesh_cs
100
AcDbLine
 10
8.81129
 20
103.137
 30
9.5
 11
9.21738
 21
105.376
 31
9.5
  0
LINE
  5
B11
330
A02
100
AcDbEntity
  8
Mesh_cs
100
AcDbLine
 10
9.21738
 20
105.376
 30
9.5
 11
10.7605
 21
113.883
 31
9.5
  0
LINE
  5
B12
330
A02
100
AcDbEntity
  8
Mesh_cs
100
AcDbLine
 10
10.7605
 20
113.883
 30
9.5
 11
12.4563
 21
122.362
 31
9.5
  0
LINE
  5
B13
330
A02
100
AcDbEntity
  8
Mesh_cs
100
AcDbLine
 10
12.4563
 20
122.362
 30
9.5
 11
12.9025
 21
124.593
 31
9.5
  0
LINE
  5
B14
330
A02
100
AcDbEntity
  8
Mesh_cs
100
AcDbLine
 10
12.9025
 20
124.593
 30
9.5
 11
13.3888
 21
126.816
 31
9.5
  0
LINE
  5
B15
330
A02
100
AcDbEntity
  8
Mesh_cs
100
AcDbLine
 10
13.3888
 20
126.816
 30
9.5
 11
15.2365
 21
135.263
 31
9.5
  0
LINE
  5
B16
330
A02
100
AcDbEntity
  8
Mesh_cs
100
AcDbLine
 10
15.2365
 20
135.263
 30
9.5
 11
15.7626
 21
137.476
 31
9.5
  0
LINE
  5
B17
330
A02
100
AcDbEntity
  8
Mesh_cs
100
AcDbLine
 10
15.7626
 20
137.476
 30
9.5
 11
17.7618
 21
145.889
 31
9.5
  0
LINE
  5
B18
330
A02
100
AcDbEntity
  8
Mesh_cs
100
AcDbLine
 10
17.7618
 20
145.889
 30
9.5
 11
18.3276
 21
148.092
 31
9.5
  0
LINE
  5
B19
330
A02
100
AcDbEntity
  8
Mesh_cs
100
AcDbLine
 10
18.3276
 20
148.092
 30
9.5
 11
20.4775
 21
156.467
 31
9.5
  0
LINE
  5
B1A
330
A02
100
AcDbEntity
  8
Mesh_cs
100
AcDbLine
 10
20.4775
 20
156.467
 30
9.5
 11
21.0828
 21
158.661
 31
9.5
  0
LINE
  5
B1B
330
A02
100
AcDbEntity
  8
Mesh_cs
100
AcDbLine
 10
21.0828
 20
158.661
 30
9.5
 11
23.3829
 21
166.996
 31
9.5
  0
LINE
  5
B1C
330
A02
100
AcDbEntity
  8
Mesh_cs
100
AcDbLine
 10
23.3829
 20
166.996
 30
9.5
 11
24.0274
 21
169.178
 31
9.5
  0
LINE
  5
B1D
330
A02
100
AcDbEntity
  8
Mesh_cs
100
AcDbLine
 10
24.0274
 20
169.178
 30
9.5
 11
26.4768
 21
177.47
 31
9.5
  0
LINE
  5
B1E
330
A02
100
AcDbEntity
  8
Mesh_cs
100
AcDbLine
 10
26.4768
 20
177.47
 30
9.5
 11
27.1605
 21
179.641
 31
9.5
  0
LINE
  5
B1F
330
A02
100
AcDbEntity
  8
Mesh_cs
100
AcDbLine
 10
27.1605
 20
179.641
 30
9.5
 11
29.7585
 21
187.887
 31
9.5
  0
LINE
  5
B20
330
A02
100
AcDbEntity
  8
Mesh_cs
100
AcDbLine
 10
29.7585
 20
187.887
 30
9.5
 11
30.481
 21
190.045
 31
9.5
  0
LINE
  5
B21
330
A02
100
AcDbEntity
  8
Mesh_cs
100
AcDbLine
 10
30.481
 20
190.045
 30
9.5
 11
33.2267
 21
198.244
 31
9.5
  0
LINE
  5
B22
330
A02
100
AcDbEntity
  8
Mesh_cs
100
AcDbLine
 10
33.2267
 20
198.244
 30
9.5
 11
33.9878
 21
200.388
 31
9.5
  0
LINE
  5
B23
330
A02
100
AcDbEntity
  8
Mesh_cs
100
AcDbLine
 10
33.9878
 20
200.388
 30
9.5
 11
36.8803
 21
208.537
 31
9.5
  0
LINE
  5
B24
330
A02
100
AcDbEntity
  8
Mesh_cs
100
AcDbLine
 10
36.8803
 20
208.537
 30
9.5
 11
37.6799
 21
210.667
 31
9.5
  0
LINE
  5
B25
330
A02
100
AcDbEntity
  8
Mesh_cs
100
AcDbLine
 10
37.6799
 20
210.667
 30
9.5
 11
40.7183
 21
218.762
 31
9.5
  0
LINE
  5
B26
330
A02
100
AcDbEntity
  8
Mesh_cs
100
AcDbLine
 10
40.7183
 20
218.762
 30
9.5
 11
43.9016
 21
226.801
 31
9.5
  0
LINE
  5
B27
330
A02
100
AcDbEntity
  8
Mesh_cs
100
AcDbLine
 10
43.9016
 20
226.801
 30
9.5
 11
44.7393
 21
228.917
 31
9.5
  0
LINE
  5
B28
330
A02
100
AcDbEntity
  8
Mesh_cs
100
AcDbLine
 10
44.7393
 20
228.917
 30
9.5
 11
45.6149
 21
231.017
 31
9.5
  0
LINE
  5
B29
330
A02
100
AcDbEntity
  8
Mesh_cs
100
AcDbLine
 10
45.6149
 20
231.017
 30
9.5
 11
48.9421
 21
238.998
 31
9.5
  0
LINE
  5
B2A
330
A02
100
AcDbEntity
  8
Mesh_cs
100
AcDbLine
 10
48.9421
 20
238.998
 30
9.5
 11
52.4121
 21
246.917
 31
9.5
  0
LINE
  5
B2B
330
A02
100
AcDbEntity
  8
Mesh_cs
100
AcDbLine
 10
52.4121
 20
246.917
 30
9.5
 11
53.3253
 21
249.001
 31
9.5
  0
LINE
  5
B2C
330
A02
100
AcDbEntity
  8
Mesh_cs
100
AcDbLine
 10
53.3253
 20
249.001
 30
9.5
 11
54.2757
 21
251.069
 31
9.5
  0
LINE
  5
B2D
330
A02
100
AcDbEntity
  8
Mesh_cs
100
AcDbLine
 10
54.2757
 20
251.069
 30
9.5
 11
57.8874
 21
258.925
 31
9.5
  0
LINE
  5
B2E
330
A02
100
AcDbEntity
  8
Mesh_cs
100
AcDbLine
 10
57.8874
 20
258.925
 30
9.5
 11
58.8749
 21
260.975
 31
9.5
  0
LINE
  5
B2F
330
A02
100
AcDbEntity
  8
Mesh_cs
100
AcDbLine
 10
58.8749
 20
260.975
 30
9.5
 11
62.6271
 21
268.765
 31
9.5
  0
LINE
  5
B30
330
A02
100
AcDbEntity
  8
Mesh_cs
100
AcDbLine
 10
62.6271
 20
268.765
 30
9.5
 11
63.6512
 21
270.797
 31
9.5
  0
LINE
  5
B31
330
A02
100
AcDbEntity
  8
Mesh_cs
100
AcDbLine
 10
63.6512
 20
270.797
 30
9.5
 11
67.5428
 21
278.518
 31
9.5
  0
LINE
  5
B32
330
A02
100
AcDbEntity
  8
Mesh_cs
100
AcDbLine
 10
67.5428
 20
278.518
 30
9.5
 11
71.5724
 21
286.168
 31
9.5
  0
LINE
  5
B33
330
A02
100
AcDbEntity
  8
Mesh_cs
100
AcDbLine
 10
71.5724
 20
286.168
 30
9.5
 11
72.6328
 21
288.181
 31
9.5
  0
LINE
  5
B34
330
A02
100
AcDbEntity
  8
Mesh_cs
100
AcDbLine
 10
72.6328
 20
288.181
 30
9.5
 11
73.7292
 21
290.175
 31
9.5
  0
LINE
  5
B35
330
A02
100
AcDbEntity
  8
Mesh_cs
100
AcDbLine
 10
73.7292
 20
290.175
 30
9.5
 11
77.8956
 21
297.751
 31
9.5
  0
LINE
  5
B36
330
A02
100
AcDbEntity
  8
Mesh_cs
100
AcDbLine
 10
77.8956
 20
297.751
 30
9.5
 11
79.0277
 21
299.725
 31
9.5
  0
LINE
  5
B37
330
A02
100
AcDbEntity
  8
Mesh_cs
100
AcDbLine
 10
79.0277
 20
299.725
 30
9.5
 11
83.3295
 21
307.226
 31
9.5
  0
LINE
  5
B38
330
A02
100
AcDbEntity
  8
Mesh_cs
100
AcDbLine
 10
83.3295
 20
307.226
 30
9.5
 11
84.4968
 21
309.179
 31
9.5
  0
LINE
  5
B39
330
A02
100
AcDbEntity
  8
Mesh_cs
100
AcDbLine
 10
84.4968
 20
309.179
 30
9.5
 11
88.9326
 21
316.601
 31
9.5
  0
LINE
  5
B3A
330
A02
100
AcDbEntity
  8
Mesh_cs
100
AcDbLine
 10
88.9326
 20
316.601
 30
9.5
 11
90.1348
 21
318.533
 31
9.5
  0
LINE
  5
B3B
330
A02
100
AcDbEntity
  8
Mesh_cs
100
AcDbLine
 10
90.1348
 20
318.533
 30
9.5
 11
94.7033
 21
325.874
 31
9.5
  0
LINE
  5
B3C
330
A02
100
AcDbEntity
  8
Mesh_cs
100
AcDbLine
 10
94.7033
 20
325.874
 30
9.5
 11
95.94
 21
327.784
 31
9.5
  0
LINE
  5
B3D
330
A02
100
AcDbEntity
  8
Mesh_cs
100
AcDbLine
 10
95.94
 20
327.784
 30
9.5
 11
100.64
 21
335.041
 31
9.5
  0
LINE
  5
B3E
330
A02
100
AcDbEntity
  8
Mesh_cs
100
AcDbLine
 10
100.64
 20
335.041
 30
9.5
 11
100.818
 21
335.361
 31
9.5
  0
LINE
  5
B3F
330
A02
100
AcDbEntity
  8
Mesh_cs
100
AcDbLine
 10
100.818
 20
335.361
 30
9.5
 11
101.042
 21
335.78
 31
9.5
  0
LINE
  5
B40
330
A02
100
AcDbEntity
  8
Mesh_cs
100
AcDbLine
 10
101.042
 20
335.78
 30
9.5
 11
101.122
 21
335.977
 31
9.5
  0
LINE
  5
B41
330
A02
100
AcDbEntity
  8
Mesh_cs
100
AcDbLine
 10
101.122
 20
335.977
 30
9.5
 11
101.188
 21
336.16
 31
9.5
  0
LINE
  5
B42
330
A02
100
AcDbEntity
  8
Mesh_cs
100
AcDbLine
 10
101.188
 20
336.16
 30
9.5
 11
101.271
 21
336.527
 31
9.5
  0
LINE
  5
B43
330
A02
100
AcDbEntity
  8
Mesh_cs
100
AcDbLine
 10
101.271
 20
336.527
 30
9.5
 11
101.307
 21
336.63
 31
9.5
  0
LINE
  5
B44
330
A02
100
AcDbEntity
  8
Mesh_cs
100
AcDbLine
 10
101.307
 20
336.63
 30
9.5
 11
101.339
 21
336.734
 31
9.5
  0
LINE
  5
B45
330
A02
100
AcDbEntity
  8
Mesh_cs
100
AcDbLine
 10
101.339
 20
336.734
 30
9.5
 11
101.426
 21
337.158
 31
9.5
  0
LINE
  5
B46
330
A02
100
AcDbEntity
  8
Mesh_cs
100
AcDbLine
 10
101.426
 20
337.158
 30
9.5
 11
101.545
 21
337.071
 31
9.5
  0
LINE
  5
B47
330
A02
100
AcDbEntity
  8
Mesh_cs
100
AcDbLine
 10
101.545
 20
337.071
 30
9.5
 11
101.567
 21
337.056
 31
9.5
  0
LINE
  5
B48
330
A02
100
AcDbEntity
  8
Mesh_cs
100
AcDbLine
 10
101.567
 20
337.056
 30
9.5
 11
113.124
 21
328.659
 31
9.5
  0
LINE
  5
B49
330
A02
100
AcDbEntity
  8
Mesh_cs
100
AcDbLine
 10
113.124
 20
328.659
 30
9.5
 11
117.607
 21
325.402
 31
9.5
  0
LINE
  5
B4A
330
A02
100
AcDbEntity
  8
Mesh_cs
100
AcDbLine
 10
117.607
 20
325.402
 30
9.5
 11
117.777
 21
325.286
 31
9.5
  0
LINE
  5
B4B
330
A02
100
AcDbEntity
  8
Mesh_cs
100
AcDbLine
 10
117.777
 20
325.286
 30
9.5
 11
117.873
 21
325.222
 31
9.5
  0
LINE
  5
B4C
330
A02
100
AcDbEntity
  8
Mesh_cs
100
AcDbLine
 10
117.873
 20
325.222
 30
9.5
 11
118.054
 21
325.113
 31
9.5
  0
LINE
  5
B4D
330
A02
100
AcDbEntity
  8
Mesh_cs
100
AcDbLine
 10
118.054
 20
325.113
 30
9.5
 11
118.155
 21
325.057
 31
9.5
  0
LINE
  5
B4E
330
A02
100
AcDbEntity
  8
Mesh_cs
100
AcDbLine
 10
118.155
 20
325.057
 30
9.5
 11
118.375
 21
324.943
 31
9.5
  0
LINE
  5
B4F
330
A02
100
AcDbEntity
  8
Mesh_cs
100
AcDbLine
 10
118.375
 20
324.943
 30
9.5
 11
118.47
 21
324.899
 31
9.5
  0
LINE
  5
B50
330
A02
100
AcDbEntity
  8
Mesh_cs
100
AcDbLine
 10
118.47
 20
324.899
 30
9.5
 11
118.703
 21
324.799
 31
9.5
  0
LINE
  5
B51
330
A02
100
AcDbEntity
  8
Mesh_cs
100
AcDbLine
 10
118.703
 20
324.799
 30
9.5
 11
118.791
 21
324.766
 31
9.5
  0
LINE
  5
B52
330
A02
100
AcDbEntity
  8
Mesh_cs
100
AcDbLine
 10
118.791
 20
324.766
 30
9.5
 11
119.035
 21
324.681
 31
9.5
  0
LINE
  5
B53
330
A02
100
AcDbEntity
  8
Mesh_cs
100
AcDbLine
 10
119.035
 20
324.681
 30
9.5
 11
119.126
 21
324.654
 31
9.5
  0
LINE
  5
B54
330
A02
100
AcDbEntity
  8
Mesh_cs
100
AcDbLine
 10
119.126
 20
324.654
 30
9.5
 11
119.379
 21
324.586
 31
9.5
  0
LINE
  5
B55
330
A02
100
AcDbEntity
  8
Mesh_cs
100
AcDbLine
 10
119.379
 20
324.586
 30
9.5
 11
119.454
 21
324.568
 31
9.5
  0
LINE
  5
B56
330
A02
100
AcDbEntity
  8
Mesh_cs
100
AcDbLine
 10
119.454
 20
324.568
 30
9.5
 11
119.715
 21
324.518
 31
9.5
  0
LINE
  5
B57
330
A02
100
AcDbEntity
  8
Mesh_cs
100
AcDbLine
 10
119.715
 20
324.518
 30
9.5
 11
119.785
 21
324.505
 31
9.5
  0
LINE
  5
B58
330
A02
100
AcDbEntity
  8
Mesh_cs
100
AcDbLine
 10
119.785
 20
324.505
 30
9.5
 11
119.855
 21
324.496
 31
9.5
  0
LINE
  5
B59
330
A02
100
AcDbEntity
  8
Mesh_cs
100
AcDbLine
 10
119.855
 20
324.496
 30
9.5
 11
120.123
 21
324.466
 31
9.5
  0
LINE
  5
B5A
330
A02
100
AcDbEntity
  8
Mesh_cs
100
AcDbLine
 10
120.123
 20
324.466
 30
9.5
 11
120.194
 21
324.46
 31
9.5
  0
LINE
  5
B5B
330
A02
100
AcDbEntity
  8
Mesh_cs
100
AcDbLine
 10
120.194
 20
324.46
 30
9.5
 11
120.465
 21
324.45
 31
9.5
  0
LINE
  5
B5C
330
A02
100
AcDbEntity
  8
Mesh_cs
100
AcDbLine
 10
120.465
 20
324.45
 30
9.5
 11
120.536
 21
324.447
 31
9.5
  0
LINE
  5
B5D
330
A02
100
AcDbEntity
  8
Mesh_cs
100
AcDbLine
 10
120.536
 20
324.447
 30
9.5
 11
120.607
 21
324.448
 31
9.5
  0
LINE
  5
B5E
330
A02
100
AcDbEntity
  8
Mesh_cs
100
AcDbLine
 10
120.607
 20
324.448
 30
9.5
 11
120.88
 21
324.459
 31
9.5
  0
LINE
  5
B5F
330
A02
100
AcDbEntity
  8
Mesh_cs
100
AcDbLine
 10
120.88
 20
324.459
 30
9.5
 11
120.951
 21
324.464
 31
9.5
  0
LINE
  5
B60
330
A02
100
AcDbEntity
  8
Mesh_cs
100
AcDbLine
 10
120.951
 20
324.464
 30
9.5
 11
121.022
 21
324.472
 31
9.5
  0
LINE
  5
B61
330
A02
100
AcDbEntity
  8
Mesh_cs
100
AcDbLine
 10
121.022
 20
324.472
 30
9.5
 11
121.294
 21
324.504
 31
9.5
  0
LINE
  5
B62
330
A02
100
AcDbEntity
  8
Mesh_cs
100
AcDbLine
 10
121.294
 20
324.504
 30
9.5
 11
121.364
 21
324.515
 31
9.5
  0
LINE
  5
B63
330
A02
100
AcDbEntity
  8
Mesh_cs
100
AcDbLine
 10
121.364
 20
324.515
 30
9.5
 11
121.633
 21
324.568
 31
9.5
  0
LINE
  5
B64
330
A02
100
AcDbEntity
  8
Mesh_cs
100
AcDbLine
 10
121.633
 20
324.568
 30
9.5
 11
121.703
 21
324.583
 31
9.5
  0
LINE
  5
B65
330
A02
100
AcDbEntity
  8
Mesh_cs
100
AcDbLine
 10
121.703
 20
324.583
 30
9.5
 11
121.771
 21
324.602
 31
9.5
  0
LINE
  5
B66
330
A02
100
AcDbEntity
  8
Mesh_cs
100
AcDbLine
 10
121.771
 20
324.602
 30
9.5
 11
122.035
 21
324.674
 31
9.5
  0
LINE
  5
B67
330
A02
100
AcDbEntity
  8
Mesh_cs
100
AcDbLine
 10
122.035
 20
324.674
 30
9.5
 11
122.102
 21
324.696
 31
9.5
  0
LINE
  5
B68
330
A02
100
AcDbEntity
  8
Mesh_cs
100
AcDbLine
 10
122.102
 20
324.696
 30
9.5
 11
122.358
 21
324.788
 31
9.5
  0
LINE
  5
B69
330
A02
100
AcDbEntity
  8
Mesh_cs
100
AcDbLine
 10
122.358
 20
324.788
 30
9.5
 11
122.425
 21
324.814
 31
9.5
  0
LINE
  5
B6A
330
A02
100
AcDbEntity
  8
Mesh_cs
100
AcDbLine
 10
122.425
 20
324.814
 30
9.5
 11
122.49
 21
324.842
 31
9.5
  0
LINE
  5
B6B
330
A02
100
AcDbEntity
  8
Mesh_cs
100
AcDbLine
 10
122.49
 20
324.842
 30
9.5
 11
122.736
 21
324.953
 31
9.5
  0
LINE
  5
B6C
330
A02
100
AcDbEntity
  8
Mesh_cs
100
AcDbLine
 10
122.736
 20
324.953
 30
9.5
 11
122.799
 21
324.984
 31
9.5
  0
LINE
  5
B6D
330
A02
100
AcDbEntity
  8
Mesh_cs
100
AcDbLine
 10
122.799
 20
324.984
 30
9.5
 11
123.033
 21
325.111
 31
9.5
  0
LINE
  5
B6E
330
A02
100
AcDbEntity
  8
Mesh_cs
100
AcDbLine
 10
123.033
 20
325.111
 30
9.5
 11
123.095
 21
325.146
 31
9.5
  0
LINE
  5
B6F
330
A02
100
AcDbEntity
  8
Mesh_cs
100
AcDbLine
 10
123.095
 20
325.146
 30
9.5
 11
123.155
 21
325.184
 31
9.5
  0
LINE
  5
B70
330
A02
100
AcDbEntity
  8
Mesh_cs
100
AcDbLine
 10
123.155
 20
325.184
 30
9.5
 11
123.376
 21
325.326
 31
9.5
  0
LINE
  5
B71
330
A02
100
AcDbEntity
  8
Mesh_cs
100
AcDbLine
 10
123.376
 20
325.326
 30
9.5
 11
123.434
 21
325.367
 31
9.5
  0
LINE
  5
B72
330
A02
100
AcDbEntity
  8
Mesh_cs
100
AcDbLine
 10
123.434
 20
325.367
 30
9.5
 11
123.663
 21
325.54
 31
9.5
  0
LINE
  5
B73
330
A02
100
AcDbEntity
  8
Mesh_cs
100
AcDbLine
 10
123.663
 20
325.54
 30
9.5
 11
123.719
 21
325.583
 31
9.5
  0
LINE
  5
B74
330
A02
100
AcDbEntity
  8
Mesh_cs
100
AcDbLine
 10
123.719
 20
325.583
 30
9.5
 11
123.772
 21
325.63
 31
9.5
  0
LINE
  5
B75
330
A02
100
AcDbEntity
  8
Mesh_cs
100
AcDbLine
 10
123.772
 20
325.63
 30
9.5
 11
124.004
 21
325.838
 31
9.5
  0
LINE
  5
B76
330
A02
100
AcDbEntity
  8
Mesh_cs
100
AcDbLine
 10
124.004
 20
325.838
 30
9.5
 11
124.056
 21
325.886
 31
9.5
  0
LINE
  5
B77
330
A02
100
AcDbEntity
  8
Mesh_cs
100
AcDbLine
 10
124.056
 20
325.886
 30
9.5
 11
124.104
 21
325.938
 31
9.5
  0
LINE
  5
B78
330
A02
100
AcDbEntity
  8
Mesh_cs
100
AcDbLine
 10
124.104
 20
325.938
 30
9.5
 11
124.312
 21
326.159
 31
9.5
  0
LINE
  5
B79
330
A02
100
AcDbEntity
  8
Mesh_cs
100
AcDbLine
 10
124.312
 20
326.159
 30
9.5
 11
124.358
 21
326.212
 31
9.5
  0
LINE
  5
B7A
330
A02
100
AcDbEntity
  8
Mesh_cs
100
AcDbLine
 10
124.358
 20
326.212
 30
9.5
 11
124.383
 21
326.245
 31
9.5
  0
LINE
  5
B7B
330
A02
100
AcDbEntity
  8
Mesh_cs
100
AcDbLine
 10
124.383
 20
326.245
 30
9.5
 11
124.566
 21
326.475
 31
9.5
  0
LINE
  5
B7C
330
A02
100
AcDbEntity
  8
Mesh_cs
100
AcDbLine
 10
124.566
 20
326.475
 30
9.5
 11
124.591
 21
326.508
 31
9.5
  0
LINE
  5
B7D
330
A02
100
AcDbEntity
  8
Mesh_cs
100
AcDbLine
 10
124.591
 20
326.508
 30
9.5
 11
132.987
 21
338.066
 31
9.5
  0
LINE
  5
B7E
330
A02
100
AcDbEntity
  8
Mesh_cs
100
AcDbLine
 10
132.987
 20
338.066
 30
9.5
 11
136.346
 21
342.689
 31
9.5
  0
LINE
  5
B7F
330
A02
100
AcDbEntity
  8
Mesh_cs
100
AcDbLine
 10
136.346
 20
342.689
 30
9.5
 11
154.145
 21
329.757
 31
9.5
  0
LINE
  5
B80
330
A02
100
AcDbEntity
  8
Mesh_cs
100
AcDbLine
 10
154.145
 20
329.757
 30
9.5
 11
193.529
 21
301.143
 31
9.5
  0
LINE
  5
B81
330
A02
100
AcDbEntity
  8
Mesh_cs
100
AcDbLine
 10
193.529
 20
301.143
 30
9.5
 11
217.983
 21
283.376
 31
9.5
  0
LINE
  5
B82
330
A02
100
AcDbEntity
  8
Mesh_cs
100
AcDbLine
 10
217.983
 20
283.376
 30
9.5
 11
235.855
 21
270.391
 31
9.5
  0
LINE
  5
B83
330
A02
100
AcDbEntity
  8
Mesh_cs
100
AcDbLine
 10
235.855
 20
270.391
 30
9.5
 11
253.654
 21
257.46
 31
9.5
  0
LINE
  5
B84
330
A02
100
AcDbEntity
  8
Mesh_cs
100
AcDbLine
 10
253.654
 20
257.46
 30
9.5
 11
245.257
 21
245.902
 31
9.5
  0
LINE
  5
B85
330
A02
100
AcDbEntity
  8
Mesh_cs
100
AcDbLine
 10
245.257
 20
245.902
 30
9.5
 11
241.898
 21
241.279
 31
9.5
  0
LINE
  5
B86
330
A02
100
AcDbEntity
  8
Mesh_cs
100
AcDbLine
 10
241.898
 20
241.279
 30
9.5
 11
241.874
 21
241.246
 31
9.5
  0
LINE
  5
B87
330
A02
100
AcDbEntity
  8
Mesh_cs
100
AcDbLine
 10
241.874
 20
241.246
 30
9.5
 11
241.711
 21
241.001
 31
9.5
  0
LINE
  5
B88
330
A02
100
AcDbEntity
  8
Mesh_cs
100
AcDbLine
 10
190.714
 20
15
 30
9.5
 11
195
 21
15
 31
9.5
  0
LINE
  5
B89
330
A02
100
AcDbEntity
  8
Mesh_cs
100
AcDbLine
 10
195
 20
15
 30
9.5
 11
195
 21
10.7143
 31
9.5
  0
LINE
  5
B8A
330
A02
100
AcDbEntity
  8
Mesh_cs
100
AcDbLine
 10
195
 20
10.7143
 30
9.5
 11
195
 21
-1.77636e-15
 31
9.5
  0
LINE
  5
B8B
330
A02
100
AcDbEntity
  8
Mesh_cs
100
AcDbLine
 10
195
 20
-2.10942e-15
 30
9.5
 11
184.286
 21
-2.03012e-15
 31
9.5
  0
LINE
  5
B8C
330
A02
100
AcDbEntity
  8
Mesh_cs
100
AcDbLine
 10
184.286
 20
-2.03012e-15
 30
9.5
 11
180
 21
-2.03012e-15
 31
9.5
  0
LINE
  5
B8D
330
A02
100
AcDbEntity
  8
Mesh_cs
100
AcDbLine
 10
180
 20
-2.03012e-15
 30
9.5
 11
180
 21
4.28571
 31
9.5
  0
LINE
  5
B8E
330
A02
100
AcDbEntity
  8
Mesh_cs
100
AcDbLine
 10
180
 20
4.28571
 30
9.5
 11
180
 21
15
 31
9.5
  0
LINE
  5
B8F
330
A02
100
AcDbEntity
  8
Mesh_cs
100
AcDbLine
 10
180
 20
15
 30
9.5
 11
190.714
 21
15
 31
9.5
  0
LINE
  5
B90
330
A02
100
AcDbEntity
  8
Mesh_cs
100
AcDbLine
 10
252.927
 20
239.447
 30
9.5
 11
259.225
 21
248.115
 31
9.5
  0
LINE
  5
B91
330
A02
100
AcDbEntity
  8
Mesh_cs
100
AcDbLine
 10
259.225
 20
248.115
 30
9.5
 11
261.744
 21
251.582
 31
9.5
  0
LINE
  5
B92
330
A02
100
AcDbEntity
  8
Mesh_cs
100
AcDbLine
 10
261.744
 20
251.582
 30
9.5
 11
265.211
 21
249.063
 31
9.5
  0
LINE
  5
B93
330
A02
100
AcDbEntity
  8
Mesh_cs
100
AcDbLine
 10
265.211
 20
249.063
 30
9.5
 11
273.879
 21
242.765
 31
9.5
  0
LINE
  5
B94
330
A02
100
AcDbEntity
  8
Mesh_cs
100
AcDbLine
 10
273.879
 20
242.765
 30
9.5
 11
267.581
 21
234.097
 31
9.5
  0
LINE
  5
B95
330
A02
100
AcDbEntity
  8
Mesh_cs
100
AcDbLine
 10
267.581
 20
234.097
 30
9.5
 11
265.062
 21
230.63
 31
9.5
  0
LINE
  5
B96
330
A02
100
AcDbEntity
  8
Mesh_cs
100
AcDbLine
 10
265.062
 20
230.63
 30
9.5
 11
261.595
 21
233.149
 31
9.5
  0
LINE
  5
B97
330
A02
100
AcDbEntity
  8
Mesh_cs
100
AcDbLine
 10
261.595
 20
233.149
 30
9.5
 11
252.927
 21
239.447
 31
9.5
  0
LINE
  5
B98
330
A02
100
AcDbEntity
  8
Mesh_cs
100
AcDbLine
 10
107.445
 20
345.146
 30
9.5
 11
107.347
 21
345.217
 31
9.5
  0
LINE
  5
B99
330
A02
100
AcDbEntity
  8
Mesh_cs
100
AcDbLine
 10
107.347
 20
345.217
 30
9.5
 11
107.304
 21
345.248
 31
9.5
  0
LINE
  5
B9A
330
A02
100
AcDbEntity
  8
Mesh_cs
100
AcDbLine
 10
107.304
 20
345.248
 30
9.5
 11
109.823
 21
348.715
 31
9.5
  0
LINE
  5
B9B
330
A02
100
AcDbEntity
  8
Mesh_cs
100
AcDbLine
 10
109.823
 20
348.715
 30
9.5
 11
116.121
 21
357.383
 31
9.5
  0
LINE
  5
B9C
330
A02
100
AcDbEntity
  8
Mesh_cs
100
AcDbLine
 10
116.121
 20
357.383
 30
9.5
 11
116.223
 21
357.309
 31
9.5
  0
LINE
  5
B9D
330
A02
100
AcDbEntity
  8
Mesh_cs
100
AcDbLine
 10
116.223
 20
357.309
 30
9.5
 11
116.612
 21
357.026
 31
9.5
  0
LINE
  5
B9E
330
A02
100
AcDbEntity
  8
Mesh_cs
100
AcDbLine
 10
116.612
 20
357.026
 30
9.5
 11
124.929
 21
350.983
 31
9.5
  0
LINE
  5
B9F
330
A02
100
AcDbEntity
  8
Mesh_cs
100
AcDbLine
 10
124.929
 20
350.983
 30
9.5
 11
128.256
 21
348.566
 31
9.5
  0
LINE
  5
BA0
330
A02
100
AcDbEntity
  8
Mesh_cs
100
AcDbLine
 10
128.256
 20
348.566
 30
9.5
 11
125.737
 21
345.099
 31
9.5
  0
LINE
  5
BA1
330
A02
100
AcDbEntity
  8
Mesh_cs
100
AcDbLine
 10
125.737
 20
345.099
 30
9.5
 11
119.439
 21
336.431
 31
9.5
  0
LINE
  5
BA2
330
A02
100
AcDbEntity
  8
Mesh_cs
100
AcDbLine
 10
119.439
 20
336.431
 30
9.5
 11
116.113
 21
338.848
 31
9.5
  0
LINE
  5
BA3
330
A02
100
AcDbEntity
  8
Mesh_cs
100
AcDbLine
 10
116.113
 20
338.848
 30
9.5
 11
107.445
 21
345.146
 31
9.5
  0
ENDSEC
  0
SECTION
  2
OBJECTS
  0
DICTIONARY
  5
F000
330
0
100
AcDbDictionary
  3
ACAD_GROUP
350
F001
  0
DICTIONARY
  5
F001
330
F000
100
AcDbDictionary
  0
ENDSEC
  0
EOF