999
FreeCAD v0.21 33668 +26 (Git)
  0
SECTION
  2
HEADER
  9
$ACADVER
  1
AC1014
  9
$ACADMAINTVER
 70
     9
  9
$DWGCODEPAGE
  3
ANSI_1252
  9
$TEXTSTYLE
  7
STANDARD
  9
$DIMSTYLE
  2
STANDARD
  9
$DIMTXSTY
  7
STANDARD
  9
$CMLSTYLE
  2
STANDARD
  9
$LUNITS
 70
2
  9
$INSUNITS
 70
4
  9
$PEXTMAX
 10
50
 20
50
 30
50
  9
$PEXTMIN
 10
0
 20
0
 30
0
  9
$HANDSEED
  5
FFFF
  0
ENDSEC
  0
SECTION
  2
CLASSES
  0
CLASS
  1
ACDBDICTIONARYWDFLT
  2
AcDbDictionaryWithDefault
  3
ObjectDBX Classes
 90
        0
280
     0
281
     0
  0
CLASS
  1
XRECORD
  2
AcDbXrecord
  3
ObjectDBX Classes
 90
        0
280
     0
281
     0
  0
CLASS
  1
LWPOLYLINE
  2
AcDbPolyline
  3
ObjectDBX Classes
 90
        0
280
     0
281
     1
  0
ENDSEC
  0
SECTION
  2
TABLES
  0
TABLE
  2
VPORT
  5
20
330
0
100
AcDbSymbolTable
 70
     1
  0
VPORT
  5
21
330
20
100
AcDbSymbolTableRecord
100
AcDbViewportTableRecord
  2
*ACTIVE
 70
     0
  0
ENDTAB
  0
TABLE
  2
LTYPE
  5
22
330
0
100
AcDbSymbolTable
 70
     1
  0
LTYPE
  5
23
330
21
100
AcDbSymbolTableRecord
100
AcDbLinetypeTableRecord
  2
BYBLOCK
 70
     0
  3

 72
    65
 73
     0
 40
0.0
  0
LTYPE
  5
24
330
21
100
AcDbSymbolTableRecord
100
AcDbLinetypeTableRecord
  2
BYLAYER
 70
     0
  3

 72
    65
 73
     0
 40
0.0
  0
LTYPE
  5
25
330
21
100
AcDbSymbolTableRecord
100
AcDbLinetypeTableRecord
  2
CONTINUOUS
 70
     0
  3
Solid line
 72
    65
 73
     0
 40
0.0
  0
ENDTAB
  0
TABLE
  2
LAYER
  5
CDC
330
0
100
AcDbSymbolTable
 70
3
  0
LAYER
  5
CDD
330
CDC
100
AcDbSymbolTableRecord
100
AcDbLayerTableRecord
  2
0
 70
   0
 62
   7
  6
CONTINUOUS
  0
LAYER
  5
CDE
330
CDC
100
AcDbSymbolTableRecord
100
AcDbLayerTableRecord
  2
none
 70
    0
 62
    7
  6
CONTINUOUS
  0
LAYER
  5
CDF
330
CDC
100
AcDbSymbolTableRecord
100
AcDbLayerTableRecord
  2
Mesh_cs002
 70
    0
 62
    7
  6
CONTINUOUS
  0
ENDTAB
  0
TABLE
  2
STYLE
  5
70
330
0
100
AcDbSymbolTable
 70
     2
  0
STYLE
  5
71
330
70
100
AcDbSymbolTableRecord
100
AcDbTextStyleTableRecord
  2
STANDARD
 70
     0
 40
0.0
 41
1.0
 50
0.0
 71
     0
 42
2.5
  3
arial.ttf
  4

  0
STYLE
  5
72
330
70
100
AcDbSymbolTableRecord
100
AcDbTextStyleTableRecord
  2
ANNOTATIVE
 70
     0
 40
0.0
 41
1.0
 50
0.0
 71
     0
 42
2.5
  3
arial.ttf
  4

  0
ENDTAB
  0
TABLE
  2
VIEW
  5
73
330
0
100
AcDbSymbolTable
 70
     0
  0
ENDTAB
  0
TABLE
  2
UCS
  5
74
330
0
100
AcDbSymbolTable
 70
     0
  0
ENDTAB
  0
TABLE
  2
APPID
  5
75
330
0
100
AcDbSymbolTable
 70
     2
  0
APPID
  5
76
330
75
100
AcDbSymbolTableRecord
100
AcDbRegAppTableRecord
  2
ACAD
 70
     0
  0
APPID
  5
77
330
75
100
AcDbSymbolTableRecord
100
AcDbRegAppTableRecord
  2
ACADANNOTATIVE
 70
     0
  0
ENDTAB
  0
TABLE
  2
DIMSTYLE
  5
78
330
0
100
AcDbSymbolTable
 70
     2
  0
DIMSTYLE
105
79
330
78
100
AcDbSymbolTableRecord
100
AcDbDimStyleTableRecord
  2
STANDARD
 70
     0
  3

  4

  5

  6

  7

 40
0.0
 41
2.5
 42
0.625
 43
3.75
 44
1.25
 45
0.0
 46
0.0
 47
0.0
 48
0.0
140
2.5
141
2.5
142
0.0
143
0.03937007874016
144
1.0
145
0.0
146
1.0
147
0.625
 71
     0
 72
     0
 73
     0
 74
     0
 75
     0
 76
     0
 77
     1
 78
     8
170
     0
171
     3
172
     1
173
     0
174
     0
175
     0
176
     0
177
     0
178
     0
270
     2
271
     2
272
     2
273
     2
274
     3
340
71
275
     0
280
     0
281
     0
282
     0
283
     0
284
     8
285
     0
286
     0
287
     3
288
     0
  0
ENDTAB
  0
TABLE
  2
BLOCK_RECORD
  5
A01
330
0
100
AcDbSymbolTable
  70
5
  0
BLOCK_RECORD
  5
A02
330
A01
100
AcDbSymbolTableRecord
100
AcDbBlockTableRecord
  2
*MODEL_SPACE
  0
BLOCK_RECORD
  5
A03
330
A01
100
AcDbSymbolTableRecord
100
AcDbBlockTableRecord
  2
*PAPER_SPACE
  0
ENDTAB
  0
ENDSEC
  0
SECTION
  2
BLOCKS
  0
BLOCK
  5
A04
330
A02
100
AcDbEntity
  8
0
100
AcDbBlockBegin
  2
*MODEL_SPACE
 70
   0
 10
0
 20
0
 30
0
  3
*MODEL_SPACE
  1
 
  0
ENDBLK
  5
A05
330
A02
100
AcDbEntity
  8
0
100
AcDbBlockEnd
  0
BLOCK
  5
A06
330
A03
100
AcDbEntity
 67
1
  8
0
100
AcDbBlockBegin
  2
*PAPER_SPACE
 70
   0
 10
0
 20
0
 30
0
  3
*PAPER_SPACE
  1
 
  0
ENDBLK
  5
A07
330
A03
100
AcDbEntity
 67
    1
  8
0
100
AcDbBlockEnd
  0
ENDSEC
  0
SECTION
  2
ENTITIES
  0
LINE
  5
A08
330
A02
100
AcDbEntity
  8
Mesh_cs002
100
AcDbLine
 10
195
 20
12.3529
 30
7
 11
195
 21
0
 31
7
  0
LINE
  5
A09
330
A02
100
AcDbEntity
  8
Mesh_cs002
100
AcDbLine
 10
195
 20
0
 30
7
 11
182.647
 21
0
 31
7
  0
LINE
  5
A0A
330
A02
100
AcDbEntity
  8
Mesh_cs002
100
AcDbLine
 10
182.647
 20
0
 30
7
 11
174.412
 21
0
 31
7
  0
LINE
  5
A0B
330
A02
100
AcDbEntity
  8
Mesh_cs002
100
AcDbLine
 10
174.412
 20
0
 30
7
 11
144.091
 21
0
 31
7
  0
LINE
  5
A0C
330
A02
100
AcDbEntity
  8
Mesh_cs002
100
AcDbLine
 10
144.091
 20
0
 30
7
 11
121.818
 21
0
 31
7
  0
LINE
  5
A0D
330
A02
100
AcDbEntity
  8
Mesh_cs002
100
AcDbLine
 10
121.818
 20
0
 30
7
 11
55
 21
0
 31
7
  0
LINE
  5
A0E
330
A02
100
AcDbEntity
  8
Mesh_cs002
100
AcDbLine
 10
55
 20
0
 30
7
 11
20.5882
 21
0
 31
7
  0
LINE
  5
A0F
330
A02
100
AcDbEntity
  8
Mesh_cs002
100
AcDbLine
 10
20.5882
 20
0
 30
7
 11
12.3529
 21
0
 31
7
  0
LINE
  5
A10
330
A02
100
AcDbEntity
  8
Mesh_cs002
100
AcDbLine
 10
12.3529
 20
0
 30
7
 11
0
 21
0
 31
7
  0
LINE
  5
A11
330
A02
100
AcDbEntity
  8
Mesh_cs002
100
AcDbLine
 10
0
 20
0
 30
7
 11
0
 21
12.3529
 31
7
  0
LINE
  5
A12
330
A02
100
AcDbEntity
  8
Mesh_cs002
100
AcDbLine
 10
0
 20
12.3529
 30
7
 11
0
 21
20.5882
 31
7
  0
LINE
  5
A13
330
A02
100
AcDbEntity
  8
Mesh_cs002
100
AcDbLine
 10
0
 20
20.5882
 30
7
 11
9.14301e-16
 21
226.532
 31
7
  0
LINE
  5
A14
330
A02
100
AcDbEntity
  8
Mesh_cs002
100
AcDbLine
 10
9.14301e-16
 20
226.532
 30
7
 11
9.14301e-16
 21
279.486
 31
7
  0
LINE
  5
A15
330
A02
100
AcDbEntity
  8
Mesh_cs002
100
AcDbLine
 10
9.14301e-16
 20
279.486
 30
7
 11
0
 21
287.721
 31
7
  0
LINE
  5
A16
330
A02
100
AcDbEntity
  8
Mesh_cs002
100
AcDbLine
 10
0
 20
287.721
 30
7
 11
0
 21
300.074
 31
7
  0
LINE
  5
A17
330
A02
100
AcDbEntity
  8
Mesh_cs002
100
AcDbLine
 10
0
 20
300.074
 30
7
 11
12.3529
 21
300.074
 31
7
  0
LINE
  5
A18
330
A02
100
AcDbEntity
  8
Mesh_cs002
100
AcDbLine
 10
12.3529
 20
300.074
 30
7
 11
20.5882
 21
300.074
 31
7
  0
LINE
  5
A19
330
A02
100
AcDbEntity
  8
Mesh_cs002
100
AcDbLine
 10
20.5882
 20
300.074
 30
7
 11
55
 21
300.074
 31
7
  0
LINE
  5
A1A
330
A02
100
AcDbEntity
  8
Mesh_cs002
100
AcDbLine
 10
55
 20
300.074
 30
7
 11
121.818
 21
300.074
 31
7
  0
LINE
  5
A1B
330
A02
100
AcDbEntity
  8
Mesh_cs002
100
AcDbLine
 10
121.818
 20
300.074
 30
7
 11
144.091
 21
300.074
 31
7
  0
LINE
  5
A1C
330
A02
100
AcDbEntity
  8
Mesh_cs002
100
AcDbLine
 10
144.091
 20
300.074
 30
7
 11
174.412
 21
300.074
 31
7
  0
LINE
  5
A1D
330
A02
100
AcDbEntity
  8
Mesh_cs002
100
AcDbLine
 10
174.412
 20
300.074
 30
7
 11
182.647
 21
300.074
 31
7
  0
LINE
  5
A1E
330
A02
100
AcDbEntity
  8
Mesh_cs002
100
AcDbLine
 10
182.647
 20
300.074
 30
7
 11
195
 21
300.074
 31
7
  0
LINE
  5
A1F
330
A02
100
AcDbEntity
  8
Mesh_cs002
100
AcDbLine
 10
195
 20
300.074
 30
7
 11
195
 21
287.721
 31
7
  0
LINE
  5
A20
330
A02
100
AcDbEntity
  8
Mesh_cs002
100
AcDbLine
 10
195
 20
287.721
 30
7
 11
195
 21
279.486
 31
7
  0
LINE
  5
A21
330
A02
100
AcDbEntity
  8
Mesh_cs002
100
AcDbLine
 10
195
 20
279.486
 30
7
 11
195
 21
226.532
 31
7
  0
LINE
  5
A22
330
A02
100
AcDbEntity
  8
Mesh_cs002
100
AcDbLine
 10
195
 20
226.532
 30
7
 11
195
 21
20.5882
 31
7
  0
LINE
  5
A23
330
A02
100
AcDbEntity
  8
Mesh_cs002
100
AcDbLine
 10
195
 20
20.5882
 30
7
 11
195
 21
12.3529
 31
7
  0
LINE
  5
A24
330
A02
100
AcDbEntity
  8
Mesh_cs002
100
AcDbLine
 10
15.0119
 20
20.2724
 30
7
 11
15.019
 21
20.4358
 31
7
  0
LINE
  5
A25
330
A02
100
AcDbEntity
  8
Mesh_cs002
100
AcDbLine
 10
15.019
 20
20.4358
 30
7
 11
15.0404
 21
20.598
 31
7
  0
LINE
  5
A26
330
A02
100
AcDbEntity
  8
Mesh_cs002
100
AcDbLine
 10
15.0404
 20
20.598
 30
7
 11
15.076
 21
20.8682
 31
7
  0
LINE
  5
A27
330
A02
100
AcDbEntity
  8
Mesh_cs002
100
AcDbLine
 10
15.076
 20
20.8682
 30
7
 11
15.135
 21
21.1344
 31
7
  0
LINE
  5
A28
330
A02
100
AcDbEntity
  8
Mesh_cs002
100
AcDbLine
 10
15.135
 20
21.1344
 30
7
 11
15.1704
 21
21.2941
 31
7
  0
LINE
  5
A29
330
A02
100
AcDbEntity
  8
Mesh_cs002
100
AcDbLine
 10
15.1704
 20
21.2941
 30
7
 11
15.2523
 21
21.5541
 31
7
  0
LINE
  5
A2A
330
A02
100
AcDbEntity
  8
Mesh_cs002
100
AcDbLine
 10
15.2523
 20
21.5541
 30
7
 11
15.3015
 21
21.7101
 31
7
  0
LINE
  5
A2B
330
A02
100
AcDbEntity
  8
Mesh_cs002
100
AcDbLine
 10
15.3015
 20
21.7101
 30
7
 11
15.3641
 21
21.8612
 31
7
  0
LINE
  5
A2C
330
A02
100
AcDbEntity
  8
Mesh_cs002
100
AcDbLine
 10
15.3641
 20
21.8612
 30
7
 11
15.4685
 21
22.1131
 31
7
  0
LINE
  5
A2D
330
A02
100
AcDbEntity
  8
Mesh_cs002
100
AcDbLine
 10
15.4685
 20
22.1131
 30
7
 11
15.5943
 21
22.3549
 31
7
  0
LINE
  5
A2E
330
A02
100
AcDbEntity
  8
Mesh_cs002
100
AcDbLine
 10
15.5943
 20
22.3549
 30
7
 11
15.6699
 21
22.5
 31
7
  0
LINE
  5
A2F
330
A02
100
AcDbEntity
  8
Mesh_cs002
100
AcDbLine
 10
15.6699
 20
22.5
 30
7
 11
15.8164
 21
22.7299
 31
7
  0
LINE
  5
A30
330
A02
100
AcDbEntity
  8
Mesh_cs002
100
AcDbLine
 10
15.8164
 20
22.7299
 30
7
 11
15.9042
 21
22.8679
 31
7
  0
LINE
  5
A31
330
A02
100
AcDbEntity
  8
Mesh_cs002
100
AcDbLine
 10
15.9042
 20
22.8679
 30
7
 11
16.0038
 21
22.9977
 31
7
  0
LINE
  5
A32
330
A02
100
AcDbEntity
  8
Mesh_cs002
100
AcDbLine
 10
16.0038
 20
22.9977
 30
7
 11
16.1698
 21
23.2139
 31
7
  0
LINE
  5
A33
330
A02
100
AcDbEntity
  8
Mesh_cs002
100
AcDbLine
 10
16.1698
 20
23.2139
 30
7
 11
16.354
 21
23.4149
 31
7
  0
LINE
  5
A34
330
A02
100
AcDbEntity
  8
Mesh_cs002
100
AcDbLine
 10
16.354
 20
23.4149
 30
7
 11
16.4645
 21
23.5355
 31
7
  0
LINE
  5
A35
330
A02
100
AcDbEntity
  8
Mesh_cs002
100
AcDbLine
 10
16.4645
 20
23.5355
 30
7
 11
16.6655
 21
23.7197
 31
7
  0
LINE
  5
A36
330
A02
100
AcDbEntity
  8
Mesh_cs002
100
AcDbLine
 10
16.6655
 20
23.7197
 30
7
 11
16.7861
 21
23.8302
 31
7
  0
LINE
  5
A37
330
A02
100
AcDbEntity
  8
Mesh_cs002
100
AcDbLine
 10
16.7861
 20
23.8302
 30
7
 11
16.9158
 21
23.9298
 31
7
  0
LINE
  5
A38
330
A02
100
AcDbEntity
  8
Mesh_cs002
100
AcDbLine
 10
16.9158
 20
23.9298
 30
7
 11
17.1321
 21
24.0958
 31
7
  0
LINE
  5
A39
330
A02
100
AcDbEntity
  8
Mesh_cs002
100
AcDbLine
 10
17.1321
 20
24.0958
 30
7
 11
17.362
 21
24.2422
 31
7
  0
LINE
  5
A3A
330
A02
100
AcDbEntity
  8
Mesh_cs002
100
AcDbLine
 10
17.362
 20
24.2422
 30
7
 11
17.5
 21
24.3301
 31
7
  0
LINE
  5
A3B
330
A02
100
AcDbEntity
  8
Mesh_cs002
100
AcDbLine
 10
17.5
 20
24.3301
 30
7
 11
17.6451
 21
24.4057
 31
7
  0
LINE
  5
A3C
330
A02
100
AcDbEntity
  8
Mesh_cs002
100
AcDbLine
 10
17.6451
 20
24.4057
 30
7
 11
17.8869
 21
24.5315
 31
7
  0
LINE
  5
A3D
330
A02
100
AcDbEntity
  8
Mesh_cs002
100
AcDbLine
 10
17.8869
 20
24.5315
 30
7
 11
18.038
 21
24.5941
 31
7
  0
LINE
  5
A3E
330
A02
100
AcDbEntity
  8
Mesh_cs002
100
AcDbLine
 10
18.038
 20
24.5941
 30
7
 11
18.2899
 21
24.6985
 31
7
  0
LINE
  5
A3F
330
A02
100
AcDbEntity
  8
Mesh_cs002
100
AcDbLine
 10
18.2899
 20
24.6985
 30
7
 11
18.4459
 21
24.7477
 31
7
  0
LINE
  5
A40
330
A02
100
AcDbEntity
  8
Mesh_cs002
100
AcDbLine
 10
18.4459
 20
24.7477
 30
7
 11
18.7059
 21
24.8296
 31
7
  0
LINE
  5
A41
330
A02
100
AcDbEntity
  8
Mesh_cs002
100
AcDbLine
 10
18.7059
 20
24.8296
 30
7
 11
18.9721
 21
24.8886
 31
7
  0
LINE
  5
A42
330
A02
100
AcDbEntity
  8
Mesh_cs002
100
AcDbLine
 10
18.9721
 20
24.8886
 30
7
 11
19.1318
 21
24.924
 31
7
  0
LINE
  5
A43
330
A02
100
AcDbEntity
  8
Mesh_cs002
100
AcDbLine
 10
19.1318
 20
24.924
 30
7
 11
19.402
 21
24.9596
 31
7
  0
LINE
  5
A44
330
A02
100
AcDbEntity
  8
Mesh_cs002
100
AcDbLine
 10
19.402
 20
24.9596
 30
7
 11
19.5642
 21
24.981
 31
7
  0
LINE
  5
A45
330
A02
100
AcDbEntity
  8
Mesh_cs002
100
AcDbLine
 10
19.5642
 20
24.981
 30
7
 11
19.7276
 21
24.9881
 31
7
  0
LINE
  5
A46
330
A02
100
AcDbEntity
  8
Mesh_cs002
100
AcDbLine
 10
19.7276
 20
24.9881
 30
7
 11
20
 21
25
 31
7
  0
LINE
  5
A47
330
A02
100
AcDbEntity
  8
Mesh_cs002
100
AcDbLine
 10
20
 20
25
 30
7
 11
20.2724
 21
24.9881
 31
7
  0
LINE
  5
A48
330
A02
100
AcDbEntity
  8
Mesh_cs002
100
AcDbLine
 10
20.2724
 20
24.9881
 30
7
 11
20.4358
 21
24.981
 31
7
  0
LINE
  5
A49
330
A02
100
AcDbEntity
  8
Mesh_cs002
100
AcDbLine
 10
20.4358
 20
24.981
 30
7
 11
20.598
 21
24.9596
 31
7
  0
LINE
  5
A4A
330
A02
100
AcDbEntity
  8
Mesh_cs002
100
AcDbLine
 10
20.598
 20
24.9596
 30
7
 11
20.8682
 21
24.924
 31
7
  0
LINE
  5
A4B
330
A02
100
AcDbEntity
  8
Mesh_cs002
100
AcDbLine
 10
20.8682
 20
24.924
 30
7
 11
21.0279
 21
24.8886
 31
7
  0
LINE
  5
A4C
330
A02
100
AcDbEntity
  8
Mesh_cs002
100
AcDbLine
 10
21.0279
 20
24.8886
 30
7
 11
21.2941
 21
24.8296
 31
7
  0
LINE
  5
A4D
330
A02
100
AcDbEntity
  8
Mesh_cs002
100
AcDbLine
 10
21.2941
 20
24.8296
 30
7
 11
21.5541
 21
24.7477
 31
7
  0
LINE
  5
A4E
330
A02
100
AcDbEntity
  8
Mesh_cs002
100
AcDbLine
 10
21.5541
 20
24.7477
 30
7
 11
21.7101
 21
24.6985
 31
7
  0
LINE
  5
A4F
330
A02
100
AcDbEntity
  8
Mesh_cs002
100
AcDbLine
 10
21.7101
 20
24.6985
 30
7
 11
21.8612
 21
24.6359
 31
7
  0
LINE
  5
A50
330
A02
100
AcDbEntity
  8
Mesh_cs002
100
AcDbLine
 10
21.8612
 20
24.6359
 30
7
 11
22.1131
 21
24.5315
 31
7
  0
LINE
  5
A51
330
A02
100
AcDbEntity
  8
Mesh_cs002
100
AcDbLine
 10
22.1131
 20
24.5315
 30
7
 11
22.3549
 21
24.4057
 31
7
  0
LINE
  5
A52
330
A02
100
AcDbEntity
  8
Mesh_cs002
100
AcDbLine
 10
22.3549
 20
24.4057
 30
7
 11
22.5
 21
24.3301
 31
7
  0
LINE
  5
A53
330
A02
100
AcDbEntity
  8
Mesh_cs002
100
AcDbLine
 10
22.5
 20
24.3301
 30
7
 11
22.7299
 21
24.1836
 31
7
  0
LINE
  5
A54
330
A02
100
AcDbEntity
  8
Mesh_cs002
100
AcDbLine
 10
22.7299
 20
24.1836
 30
7
 11
22.8679
 21
24.0958
 31
7
  0
LINE
  5
A55
330
A02
100
AcDbEntity
  8
Mesh_cs002
100
AcDbLine
 10
22.8679
 20
24.0958
 30
7
 11
23.0842
 21
23.9298
 31
7
  0
LINE
  5
A56
330
A02
100
AcDbEntity
  8
Mesh_cs002
100
AcDbLine
 10
23.0842
 20
23.9298
 30
7
 11
23.2139
 21
23.8302
 31
7
  0
LINE
  5
A57
330
A02
100
AcDbEntity
  8
Mesh_cs002
100
AcDbLine
 10
23.2139
 20
23.8302
 30
7
 11
23.3345
 21
23.7197
 31
7
  0
LINE
  5
A58
330
A02
100
AcDbEntity
  8
Mesh_cs002
100
AcDbLine
 10
23.3345
 20
23.7197
 30
7
 11
23.5355
 21
23.5355
 31
7
  0
LINE
  5
A59
330
A02
100
AcDbEntity
  8
Mesh_cs002
100
AcDbLine
 10
23.5355
 20
23.5355
 30
7
 11
23.646
 21
23.4149
 31
7
  0
LINE
  5
A5A
330
A02
100
AcDbEntity
  8
Mesh_cs002
100
AcDbLine
 10
23.646
 20
23.4149
 30
7
 11
23.8302
 21
23.2139
 31
7
  0
LINE
  5
A5B
330
A02
100
AcDbEntity
  8
Mesh_cs002
100
AcDbLine
 10
23.8302
 20
23.2139
 30
7
 11
23.9962
 21
22.9977
 31
7
  0
LINE
  5
A5C
330
A02
100
AcDbEntity
  8
Mesh_cs002
100
AcDbLine
 10
23.9962
 20
22.9977
 30
7
 11
24.0958
 21
22.8679
 31
7
  0
LINE
  5
A5D
330
A02
100
AcDbEntity
  8
Mesh_cs002
100
AcDbLine
 10
24.0958
 20
22.8679
 30
7
 11
24.1836
 21
22.7299
 31
7
  0
LINE
  5
A5E
330
A02
100
AcDbEntity
  8
Mesh_cs002
100
AcDbLine
 10
24.1836
 20
22.7299
 30
7
 11
24.3301
 21
22.5
 31
7
  0
LINE
  5
A5F
330
A02
100
AcDbEntity
  8
Mesh_cs002
100
AcDbLine
 10
24.3301
 20
22.5
 30
7
 11
24.4057
 21
22.3549
 31
7
  0
LINE
  5
A60
330
A02
100
AcDbEntity
  8
Mesh_cs002
100
AcDbLine
 10
24.4057
 20
22.3549
 30
7
 11
24.5315
 21
22.1131
 31
7
  0
LINE
  5
A61
330
A02
100
AcDbEntity
  8
Mesh_cs002
100
AcDbLine
 10
24.5315
 20
22.1131
 30
7
 11
24.6359
 21
21.8612
 31
7
  0
LINE
  5
A62
330
A02
100
AcDbEntity
  8
Mesh_cs002
100
AcDbLine
 10
24.6359
 20
21.8612
 30
7
 11
24.6985
 21
21.7101
 31
7
  0
LINE
  5
A63
330
A02
100
AcDbEntity
  8
Mesh_cs002
100
AcDbLine
 10
24.6985
 20
21.7101
 30
7
 11
24.7804
 21
21.4501
 31
7
  0
LINE
  5
A64
330
A02
100
AcDbEntity
  8
Mesh_cs002
100
AcDbLine
 10
24.7804
 20
21.4501
 30
7
 11
24.8296
 21
21.2941
 31
7
  0
LINE
  5
A65
330
A02
100
AcDbEntity
  8
Mesh_cs002
100
AcDbLine
 10
24.8296
 20
21.2941
 30
7
 11
24.8886
 21
21.0279
 31
7
  0
LINE
  5
A66
330
A02
100
AcDbEntity
  8
Mesh_cs002
100
AcDbLine
 10
24.8886
 20
21.0279
 30
7
 11
24.924
 21
20.8682
 31
7
  0
LINE
  5
A67
330
A02
100
AcDbEntity
  8
Mesh_cs002
100
AcDbLine
 10
24.924
 20
20.8682
 30
7
 11
24.9454
 21
20.7061
 31
7
  0
LINE
  5
A68
330
A02
100
AcDbEntity
  8
Mesh_cs002
100
AcDbLine
 10
24.9454
 20
20.7061
 30
7
 11
24.981
 21
20.4358
 31
7
  0
LINE
  5
A69
330
A02
100
AcDbEntity
  8
Mesh_cs002
100
AcDbLine
 10
24.981
 20
20.4358
 30
7
 11
24.9929
 21
20.1634
 31
7
  0
LINE
  5
A6A
330
A02
100
AcDbEntity
  8
Mesh_cs002
100
AcDbLine
 10
24.9929
 20
20.1634
 30
7
 11
25
 21
20
 31
7
  0
LINE
  5
A6B
330
A02
100
AcDbEntity
  8
Mesh_cs002
100
AcDbLine
 10
25
 20
20
 30
7
 11
24.9881
 21
19.7276
 31
7
  0
LINE
  5
A6C
330
A02
100
AcDbEntity
  8
Mesh_cs002
100
AcDbLine
 10
24.9881
 20
19.7276
 30
7
 11
24.981
 21
19.5642
 31
7
  0
LINE
  5
A6D
330
A02
100
AcDbEntity
  8
Mesh_cs002
100
AcDbLine
 10
24.981
 20
19.5642
 30
7
 11
24.9454
 21
19.2939
 31
7
  0
LINE
  5
A6E
330
A02
100
AcDbEntity
  8
Mesh_cs002
100
AcDbLine
 10
24.9454
 20
19.2939
 30
7
 11
24.924
 21
19.1318
 31
7
  0
LINE
  5
A6F
330
A02
100
AcDbEntity
  8
Mesh_cs002
100
AcDbLine
 10
24.924
 20
19.1318
 30
7
 11
24.865
 21
18.8656
 31
7
  0
LINE
  5
A70
330
A02
100
AcDbEntity
  8
Mesh_cs002
100
AcDbLine
 10
24.865
 20
18.8656
 30
7
 11
24.8296
 21
18.7059
 31
7
  0
LINE
  5
A71
330
A02
100
AcDbEntity
  8
Mesh_cs002
100
AcDbLine
 10
24.8296
 20
18.7059
 30
7
 11
24.7477
 21
18.4459
 31
7
  0
LINE
  5
A72
330
A02
100
AcDbEntity
  8
Mesh_cs002
100
AcDbLine
 10
24.7477
 20
18.4459
 30
7
 11
24.6985
 21
18.2899
 31
7
  0
LINE
  5
A73
330
A02
100
AcDbEntity
  8
Mesh_cs002
100
AcDbLine
 10
24.6985
 20
18.2899
 30
7
 11
24.5941
 21
18.038
 31
7
  0
LINE
  5
A74
330
A02
100
AcDbEntity
  8
Mesh_cs002
100
AcDbLine
 10
24.5941
 20
18.038
 30
7
 11
24.5315
 21
17.8869
 31
7
  0
LINE
  5
A75
330
A02
100
AcDbEntity
  8
Mesh_cs002
100
AcDbLine
 10
24.5315
 20
17.8869
 30
7
 11
24.4057
 21
17.6451
 31
7
  0
LINE
  5
A76
330
A02
100
AcDbEntity
  8
Mesh_cs002
100
AcDbLine
 10
24.4057
 20
17.6451
 30
7
 11
24.3301
 21
17.5
 31
7
  0
LINE
  5
A77
330
A02
100
AcDbEntity
  8
Mesh_cs002
100
AcDbLine
 10
24.3301
 20
17.5
 30
7
 11
24.1836
 21
17.2701
 31
7
  0
LINE
  5
A78
330
A02
100
AcDbEntity
  8
Mesh_cs002
100
AcDbLine
 10
24.1836
 20
17.2701
 30
7
 11
24.0958
 21
17.1321
 31
7
  0
LINE
  5
A79
330
A02
100
AcDbEntity
  8
Mesh_cs002
100
AcDbLine
 10
24.0958
 20
17.1321
 30
7
 11
23.9298
 21
16.9158
 31
7
  0
LINE
  5
A7A
330
A02
100
AcDbEntity
  8
Mesh_cs002
100
AcDbLine
 10
23.9298
 20
16.9158
 30
7
 11
23.8302
 21
16.7861
 31
7
  0
LINE
  5
A7B
330
A02
100
AcDbEntity
  8
Mesh_cs002
100
AcDbLine
 10
23.8302
 20
16.7861
 30
7
 11
23.646
 21
16.5851
 31
7
  0
LINE
  5
A7C
330
A02
100
AcDbEntity
  8
Mesh_cs002
100
AcDbLine
 10
23.646
 20
16.5851
 30
7
 11
23.5355
 21
16.4645
 31
7
  0
LINE
  5
A7D
330
A02
100
AcDbEntity
  8
Mesh_cs002
100
AcDbLine
 10
23.5355
 20
16.4645
 30
7
 11
23.3345
 21
16.2803
 31
7
  0
LINE
  5
A7E
330
A02
100
AcDbEntity
  8
Mesh_cs002
100
AcDbLine
 10
23.3345
 20
16.2803
 30
7
 11
23.2139
 21
16.1698
 31
7
  0
LINE
  5
A7F
330
A02
100
AcDbEntity
  8
Mesh_cs002
100
AcDbLine
 10
23.2139
 20
16.1698
 30
7
 11
23.0842
 21
16.0702
 31
7
  0
LINE
  5
A80
330
A02
100
AcDbEntity
  8
Mesh_cs002
100
AcDbLine
 10
23.0842
 20
16.0702
 30
7
 11
22.8679
 21
15.9042
 31
7
  0
LINE
  5
A81
330
A02
100
AcDbEntity
  8
Mesh_cs002
100
AcDbLine
 10
22.8679
 20
15.9042
 30
7
 11
22.638
 21
15.7578
 31
7
  0
LINE
  5
A82
330
A02
100
AcDbEntity
  8
Mesh_cs002
100
AcDbLine
 10
22.638
 20
15.7578
 30
7
 11
22.5
 21
15.6699
 31
7
  0
LINE
  5
A83
330
A02
100
AcDbEntity
  8
Mesh_cs002
100
AcDbLine
 10
22.5
 20
15.6699
 30
7
 11
22.2582
 21
15.544
 31
7
  0
LINE
  5
A84
330
A02
100
AcDbEntity
  8
Mesh_cs002
100
AcDbLine
 10
22.2582
 20
15.544
 30
7
 11
22.1131
 21
15.4685
 31
7
  0
LINE
  5
A85
330
A02
100
AcDbEntity
  8
Mesh_cs002
100
AcDbLine
 10
22.1131
 20
15.4685
 30
7
 11
21.8612
 21
15.3641
 31
7
  0
LINE
  5
A86
330
A02
100
AcDbEntity
  8
Mesh_cs002
100
AcDbLine
 10
21.8612
 20
15.3641
 30
7
 11
21.7101
 21
15.3015
 31
7
  0
LINE
  5
A87
330
A02
100
AcDbEntity
  8
Mesh_cs002
100
AcDbLine
 10
21.7101
 20
15.3015
 30
7
 11
21.4501
 21
15.2196
 31
7
  0
LINE
  5
A88
330
A02
100
AcDbEntity
  8
Mesh_cs002
100
AcDbLine
 10
21.4501
 20
15.2196
 30
7
 11
21.2941
 21
15.1704
 31
7
  0
LINE
  5
A89
330
A02
100
AcDbEntity
  8
Mesh_cs002
100
AcDbLine
 10
21.2941
 20
15.1704
 30
7
 11
21.0279
 21
15.1114
 31
7
  0
LINE
  5
A8A
330
A02
100
AcDbEntity
  8
Mesh_cs002
100
AcDbLine
 10
21.0279
 20
15.1114
 30
7
 11
20.8682
 21
15.076
 31
7
  0
LINE
  5
A8B
330
A02
100
AcDbEntity
  8
Mesh_cs002
100
AcDbLine
 10
20.8682
 20
15.076
 30
7
 11
20.598
 21
15.0404
 31
7
  0
LINE
  5
A8C
330
A02
100
AcDbEntity
  8
Mesh_cs002
100
AcDbLine
 10
20.598
 20
15.0404
 30
7
 11
20.4358
 21
15.019
 31
7
  0
LINE
  5
A8D
330
A02
100
AcDbEntity
  8
Mesh_cs002
100
AcDbLine
 10
20.4358
 20
15.019
 30
7
 11
20.1634
 21
15.0071
 31
7
  0
LINE
  5
A8E
330
A02
100
AcDbEntity
  8
Mesh_cs002
100
AcDbLine
 10
20.1634
 20
15.0071
 30
7
 11
20
 21
15
 31
7
  0
LINE
  5
A8F
330
A02
100
AcDbEntity
  8
Mesh_cs002
100
AcDbLine
 10
20
 20
15
 30
7
 11
19.7276
 21
15.0119
 31
7
  0
LINE
  5
A90
330
A02
100
AcDbEntity
  8
Mesh_cs002
100
AcDbLine
 10
19.7276
 20
15.0119
 30
7
 11
19.5642
 21
15.019
 31
7
  0
LINE
  5
A91
330
A02
100
AcDbEntity
  8
Mesh_cs002
100
AcDbLine
 10
19.5642
 20
15.019
 30
7
 11
19.2939
 21
15.0546
 31
7
  0
LINE
  5
A92
330
A02
100
AcDbEntity
  8
Mesh_cs002
100
AcDbLine
 10
19.2939
 20
15.0546
 30
7
 11
19.1318
 21
15.076
 31
7
  0
LINE
  5
A93
330
A02
100
AcDbEntity
  8
Mesh_cs002
100
AcDbLine
 10
19.1318
 20
15.076
 30
7
 11
18.8656
 21
15.135
 31
7
  0
LINE
  5
A94
330
A02
100
AcDbEntity
  8
Mesh_cs002
100
AcDbLine
 10
18.8656
 20
15.135
 30
7
 11
18.7059
 21
15.1704
 31
7
  0
LINE
  5
A95
330
A02
100
AcDbEntity
  8
Mesh_cs002
100
AcDbLine
 10
18.7059
 20
15.1704
 30
7
 11
18.4459
 21
15.2523
 31
7
  0
LINE
  5
A96
330
A02
100
AcDbEntity
  8
Mesh_cs002
100
AcDbLine
 10
18.4459
 20
15.2523
 30
7
 11
18.2899
 21
15.3015
 31
7
  0
LINE
  5
A97
330
A02
100
AcDbEntity
  8
Mesh_cs002
100
AcDbLine
 10
18.2899
 20
15.3015
 30
7
 11
18.038
 21
15.4059
 31
7
  0
LINE
  5
A98
330
A02
100
AcDbEntity
  8
Mesh_cs002
100
AcDbLine
 10
18.038
 20
15.4059
 30
7
 11
17.8869
 21
15.4685
 31
7
  0
LINE
  5
A99
330
A02
100
AcDbEntity
  8
Mesh_cs002
100
AcDbLine
 10
17.8869
 20
15.4685
 30
7
 11
17.6451
 21
15.5943
 31
7
  0
LINE
  5
A9A
330
A02
100
AcDbEntity
  8
Mesh_cs002
100
AcDbLine
 10
17.6451
 20
15.5943
 30
7
 11
17.5
 21
15.6699
 31
7
  0
LINE
  5
A9B
330
A02
100
AcDbEntity
  8
Mesh_cs002
100
AcDbLine
 10
17.5
 20
15.6699
 30
7
 11
17.362
 21
15.7578
 31
7
  0
LINE
  5
A9C
330
A02
100
AcDbEntity
  8
Mesh_cs002
100
AcDbLine
 10
17.362
 20
15.7578
 30
7
 11
17.1321
 21
15.9042
 31
7
  0
LINE
  5
A9D
330
A02
100
AcDbEntity
  8
Mesh_cs002
100
AcDbLine
 10
17.1321
 20
15.9042
 30
7
 11
17.0023
 21
16.0038
 31
7
  0
LINE
  5
A9E
330
A02
100
AcDbEntity
  8
Mesh_cs002
100
AcDbLine
 10
17.0023
 20
16.0038
 30
7
 11
16.7861
 21
16.1698
 31
7
  0
LINE
  5
A9F
330
A02
100
AcDbEntity
  8
Mesh_cs002
100
AcDbLine
 10
16.7861
 20
16.1698
 30
7
 11
16.5851
 21
16.354
 31
7
  0
LINE
  5
AA0
330
A02
100
AcDbEntity
  8
Mesh_cs002
100
AcDbLine
 10
16.5851
 20
16.354
 30
7
 11
16.4645
 21
16.4645
 31
7
  0
LINE
  5
AA1
330
A02
100
AcDbEntity
  8
Mesh_cs002
100
AcDbLine
 10
16.4645
 20
16.4645
 30
7
 11
16.2803
 21
16.6655
 31
7
  0
LINE
  5
AA2
330
A02
100
AcDbEntity
  8
Mesh_cs002
100
AcDbLine
 10
16.2803
 20
16.6655
 30
7
 11
16.1698
 21
16.7861
 31
7
  0
LINE
  5
AA3
330
A02
100
AcDbEntity
  8
Mesh_cs002
100
AcDbLine
 10
16.1698
 20
16.7861
 30
7
 11
16.0702
 21
16.9158
 31
7
  0
LINE
  5
AA4
330
A02
100
AcDbEntity
  8
Mesh_cs002
100
AcDbLine
 10
16.0702
 20
16.9158
 30
7
 11
15.9042
 21
17.1321
 31
7
  0
LINE
  5
AA5
330
A02
100
AcDbEntity
  8
Mesh_cs002
100
AcDbLine
 10
15.9042
 20
17.1321
 30
7
 11
15.7578
 21
17.362
 31
7
  0
LINE
  5
AA6
330
A02
100
AcDbEntity
  8
Mesh_cs002
100
AcDbLine
 10
15.7578
 20
17.362
 30
7
 11
15.6699
 21
17.5
 31
7
  0
LINE
  5
AA7
330
A02
100
AcDbEntity
  8
Mesh_cs002
100
AcDbLine
 10
15.6699
 20
17.5
 30
7
 11
15.544
 21
17.7418
 31
7
  0
LINE
  5
AA8
330
A02
100
AcDbEntity
  8
Mesh_cs002
100
AcDbLine
 10
15.544
 20
17.7418
 30
7
 11
15.4685
 21
17.8869
 31
7
  0
LINE
  5
AA9
330
A02
100
AcDbEntity
  8
Mesh_cs002
100
AcDbLine
 10
15.4685
 20
17.8869
 30
7
 11
15.3641
 21
18.1388
 31
7
  0
LINE
  5
AAA
330
A02
100
AcDbEntity
  8
Mesh_cs002
100
AcDbLine
 10
15.3641
 20
18.1388
 30
7
 11
15.3015
 21
18.2899
 31
7
  0
LINE
  5
AAB
330
A02
100
AcDbEntity
  8
Mesh_cs002
100
AcDbLine
 10
15.3015
 20
18.2899
 30
7
 11
15.2196
 21
18.5499
 31
7
  0
LINE
  5
AAC
330
A02
100
AcDbEntity
  8
Mesh_cs002
100
AcDbLine
 10
15.2196
 20
18.5499
 30
7
 11
15.1704
 21
18.7059
 31
7
  0
LINE
  5
AAD
330
A02
100
AcDbEntity
  8
Mesh_cs002
100
AcDbLine
 10
15.1704
 20
18.7059
 30
7
 11
15.1114
 21
18.9721
 31
7
  0
LINE
  5
AAE
330
A02
100
AcDbEntity
  8
Mesh_cs002
100
AcDbLine
 10
15.1114
 20
18.9721
 30
7
 11
15.076
 21
19.1318
 31
7
  0
LINE
  5
AAF
330
A02
100
AcDbEntity
  8
Mesh_cs002
100
AcDbLine
 10
15.076
 20
19.1318
 30
7
 11
15.0404
 21
19.402
 31
7
  0
LINE
  5
AB0
330
A02
100
AcDbEntity
  8
Mesh_cs002
100
AcDbLine
 10
15.0404
 20
19.402
 30
7
 11
15.019
 21
19.5642
 31
7
  0
LINE
  5
AB1
330
A02
100
AcDbEntity
  8
Mesh_cs002
100
AcDbLine
 10
15.019
 20
19.5642
 30
7
 11
15.0071
 21
19.8366
 31
7
  0
LINE
  5
AB2
330
A02
100
AcDbEntity
  8
Mesh_cs002
100
AcDbLine
 10
15.0071
 20
19.8366
 30
7
 11
15
 21
20
 31
7
  0
LINE
  5
AB3
330
A02
100
AcDbEntity
  8
Mesh_cs002
100
AcDbLine
 10
15
 20
20
 30
7
 11
15.0119
 21
20.2724
 31
7
  0
LINE
  5
AB4
330
A02
100
AcDbEntity
  8
Mesh_cs002
100
AcDbLine
 10
15.0324
 20
279.507
 30
7
 11
15.0666
 21
279.273
 31
7
  0
LINE
  5
AB5
330
A02
100
AcDbEntity
  8
Mesh_cs002
100
AcDbLine
 10
15.0666
 20
279.273
 30
7
 11
15.0875
 21
279.143
 31
7
  0
LINE
  5
AB6
330
A02
100
AcDbEntity
  8
Mesh_cs002
100
AcDbLine
 10
15.0875
 20
279.143
 30
7
 11
15.1398
 21
278.911
 31
7
  0
LINE
  5
AB7
330
A02
100
AcDbEntity
  8
Mesh_cs002
100
AcDbLine
 10
15.1398
 20
278.911
 30
7
 11
15.1696
 21
278.783
 31
7
  0
LINE
  5
AB8
330
A02
100
AcDbEntity
  8
Mesh_cs002
100
AcDbLine
 10
15.1696
 20
278.783
 30
7
 11
15.2399
 21
278.554
 31
7
  0
LINE
  5
AB9
330
A02
100
AcDbEntity
  8
Mesh_cs002
100
AcDbLine
 10
15.2399
 20
278.554
 30
7
 11
15.2781
 21
278.43
 31
7
  0
LINE
  5
ABA
330
A02
100
AcDbEntity
  8
Mesh_cs002
100
AcDbLine
 10
15.2781
 20
278.43
 30
7
 11
15.3243
 21
278.31
 31
7
  0
LINE
  5
ABB
330
A02
100
AcDbEntity
  8
Mesh_cs002
100
AcDbLine
 10
15.3243
 20
278.31
 30
7
 11
15.4121
 21
278.086
 31
7
  0
LINE
  5
ABC
330
A02
100
AcDbEntity
  8
Mesh_cs002
100
AcDbLine
 10
15.4121
 20
278.086
 30
7
 11
15.4656
 21
277.972
 31
7
  0
LINE
  5
ABD
330
A02
100
AcDbEntity
  8
Mesh_cs002
100
AcDbLine
 10
15.4656
 20
277.972
 30
7
 11
15.5702
 21
277.756
 31
7
  0
LINE
  5
ABE
330
A02
100
AcDbEntity
  8
Mesh_cs002
100
AcDbLine
 10
15.5702
 20
277.756
 30
7
 11
15.6303
 21
277.647
 31
7
  0
LINE
  5
ABF
330
A02
100
AcDbEntity
  8
Mesh_cs002
100
AcDbLine
 10
15.6303
 20
277.647
 30
7
 11
15.7507
 21
277.44
 31
7
  0
LINE
  5
AC0
330
A02
100
AcDbEntity
  8
Mesh_cs002
100
AcDbLine
 10
15.7507
 20
277.44
 30
7
 11
15.8166
 21
277.337
 31
7
  0
LINE
  5
AC1
330
A02
100
AcDbEntity
  8
Mesh_cs002
100
AcDbLine
 10
15.8166
 20
277.337
 30
7
 11
15.9515
 21
277.142
 31
7
  0
LINE
  5
AC2
330
A02
100
AcDbEntity
  8
Mesh_cs002
100
AcDbLine
 10
15.9515
 20
277.142
 30
7
 11
16.0225
 21
277.045
 31
7
  0
LINE
  5
AC3
330
A02
100
AcDbEntity
  8
Mesh_cs002
100
AcDbLine
 10
16.0225
 20
277.045
 30
7
 11
16.1703
 21
276.862
 31
7
  0
LINE
  5
AC4
330
A02
100
AcDbEntity
  8
Mesh_cs002
100
AcDbLine
 10
16.1703
 20
276.862
 30
7
 11
16.2456
 21
276.772
 31
7
  0
LINE
  5
AC5
330
A02
100
AcDbEntity
  8
Mesh_cs002
100
AcDbLine
 10
16.2456
 20
276.772
 30
7
 11
16.4048
 21
276.603
 31
7
  0
LINE
  5
AC6
330
A02
100
AcDbEntity
  8
Mesh_cs002
100
AcDbLine
 10
16.4048
 20
276.603
 30
7
 11
16.4837
 21
276.52
 31
7
  0
LINE
  5
AC7
330
A02
100
AcDbEntity
  8
Mesh_cs002
100
AcDbLine
 10
16.4837
 20
276.52
 30
7
 11
16.5653
 21
276.443
 31
7
  0
LINE
  5
AC8
330
A02
100
AcDbEntity
  8
Mesh_cs002
100
AcDbLine
 10
16.5653
 20
276.443
 30
7
 11
16.734
 21
276.288
 31
7
  0
LINE
  5
AC9
330
A02
100
AcDbEntity
  8
Mesh_cs002
100
AcDbLine
 10
16.734
 20
276.288
 30
7
 11
16.8177
 21
276.219
 31
7
  0
LINE
  5
ACA
330
A02
100
AcDbEntity
  8
Mesh_cs002
100
AcDbLine
 10
16.8177
 20
276.219
 30
7
 11
16.9941
 21
276.079
 31
7
  0
LINE
  5
ACB
330
A02
100
AcDbEntity
  8
Mesh_cs002
100
AcDbLine
 10
16.9941
 20
276.079
 30
7
 11
17.0792
 21
276.016
 31
7
  0
LINE
  5
ACC
330
A02
100
AcDbEntity
  8
Mesh_cs002
100
AcDbLine
 10
17.0792
 20
276.016
 30
7
 11
17.2614
 21
275.892
 31
7
  0
LINE
  5
ACD
330
A02
100
AcDbEntity
  8
Mesh_cs002
100
AcDbLine
 10
17.2614
 20
275.892
 30
7
 11
17.3474
 21
275.836
 31
7
  0
LINE
  5
ACE
330
A02
100
AcDbEntity
  8
Mesh_cs002
100
AcDbLine
 10
17.3474
 20
275.836
 30
7
 11
17.5337
 21
275.727
 31
7
  0
LINE
  5
ACF
330
A02
100
AcDbEntity
  8
Mesh_cs002
100
AcDbLine
 10
17.5337
 20
275.727
 30
7
 11
17.6205
 21
275.677
 31
7
  0
LINE
  5
AD0
330
A02
100
AcDbEntity
  8
Mesh_cs002
100
AcDbLine
 10
17.6205
 20
275.677
 30
7
 11
17.7119
 21
275.63
 31
7
  0
LINE
  5
AD1
330
A02
100
AcDbEntity
  8
Mesh_cs002
100
AcDbLine
 10
17.7119
 20
275.63
 30
7
 11
17.9005
 21
275.536
 31
7
  0
LINE
  5
AD2
330
A02
100
AcDbEntity
  8
Mesh_cs002
100
AcDbLine
 10
17.9005
 20
275.536
 30
7
 11
17.9971
 21
275.494
 31
7
  0
LINE
  5
AD3
330
A02
100
AcDbEntity
  8
Mesh_cs002
100
AcDbLine
 10
17.9971
 20
275.494
 30
7
 11
18.1865
 21
275.415
 31
7
  0
LINE
  5
AD4
330
A02
100
AcDbEntity
  8
Mesh_cs002
100
AcDbLine
 10
18.1865
 20
275.415
 30
7
 11
18.2881
 21
275.377
 31
7
  0
LINE
  5
AD5
330
A02
100
AcDbEntity
  8
Mesh_cs002
100
AcDbLine
 10
18.2881
 20
275.377
 30
7
 11
18.4768
 21
275.312
 31
7
  0
LINE
  5
AD6
330
A02
100
AcDbEntity
  8
Mesh_cs002
100
AcDbLine
 10
18.4768
 20
275.312
 30
7
 11
18.5834
 21
275.279
 31
7
  0
LINE
  5
AD7
330
A02
100
AcDbEntity
  8
Mesh_cs002
100
AcDbLine
 10
18.5834
 20
275.279
 30
7
 11
18.7701
 21
275.228
 31
7
  0
LINE
  5
AD8
330
A02
100
AcDbEntity
  8
Mesh_cs002
100
AcDbLine
 10
18.7701
 20
275.228
 30
7
 11
18.8812
 21
275.201
 31
7
  0
LINE
  5
AD9
330
A02
100
AcDbEntity
  8
Mesh_cs002
100
AcDbLine
 10
18.8812
 20
275.201
 30
7
 11
19.065
 21
275.163
 31
7
  0
LINE
  5
ADA
330
A02
100
AcDbEntity
  8
Mesh_cs002
100
AcDbLine
 10
19.065
 20
275.163
 30
7
 11
19.1803
 21
275.142
 31
7
  0
LINE
  5
ADB
330
A02
100
AcDbEntity
  8
Mesh_cs002
100
AcDbLine
 10
19.1803
 20
275.142
 30
7
 11
19.36
 21
275.116
 31
7
  0
LINE
  5
ADC
330
A02
100
AcDbEntity
  8
Mesh_cs002
100
AcDbLine
 10
19.36
 20
275.116
 30
7
 11
19.479
 21
275.102
 31
7
  0
LINE
  5
ADD
330
A02
100
AcDbEntity
  8
Mesh_cs002
100
AcDbLine
 10
19.479
 20
275.102
 30
7
 11
19.654
 21
275.086
 31
7
  0
LINE
  5
ADE
330
A02
100
AcDbEntity
  8
Mesh_cs002
100
AcDbLine
 10
19.654
 20
275.086
 30
7
 11
19.776
 21
275.08
 31
7
  0
LINE
  5
ADF
330
A02
100
AcDbEntity
  8
Mesh_cs002
100
AcDbLine
 10
19.776
 20
275.08
 30
7
 11
19.872
 21
275.076
 31
7
  0
LINE
  5
AE0
330
A02
100
AcDbEntity
  8
Mesh_cs002
100
AcDbLine
 10
19.872
 20
275.076
 30
7
 11
19.9661
 21
275.074
 31
7
  0
LINE
  5
AE1
330
A02
100
AcDbEntity
  8
Mesh_cs002
100
AcDbLine
 10
19.9661
 20
275.074
 30
7
 11
20.0906
 21
275.076
 31
7
  0
LINE
  5
AE2
330
A02
100
AcDbEntity
  8
Mesh_cs002
100
AcDbLine
 10
20.0906
 20
275.076
 30
7
 11
20.2709
 21
275.082
 31
7
  0
LINE
  5
AE3
330
A02
100
AcDbEntity
  8
Mesh_cs002
100
AcDbLine
 10
20.2709
 20
275.082
 30
7
 11
20.3969
 21
275.092
 31
7
  0
LINE
  5
AE4
330
A02
100
AcDbEntity
  8
Mesh_cs002
100
AcDbLine
 10
20.3969
 20
275.092
 30
7
 11
20.5807
 21
275.108
 31
7
  0
LINE
  5
AE5
330
A02
100
AcDbEntity
  8
Mesh_cs002
100
AcDbLine
 10
20.5807
 20
275.108
 30
7
 11
20.7075
 21
275.127
 31
7
  0
LINE
  5
AE6
330
A02
100
AcDbEntity
  8
Mesh_cs002
100
AcDbLine
 10
20.7075
 20
275.127
 30
7
 11
20.9219
 21
275.16
 31
7
  0
LINE
  5
AE7
330
A02
100
AcDbEntity
  8
Mesh_cs002
100
AcDbLine
 10
20.9219
 20
275.16
 30
7
 11
21.0485
 21
275.188
 31
7
  0
LINE
  5
AE8
330
A02
100
AcDbEntity
  8
Mesh_cs002
100
AcDbLine
 10
21.0485
 20
275.188
 30
7
 11
21.2646
 21
275.237
 31
7
  0
LINE
  5
AE9
330
A02
100
AcDbEntity
  8
Mesh_cs002
100
AcDbLine
 10
21.2646
 20
275.237
 30
7
 11
21.3902
 21
275.274
 31
7
  0
LINE
  5
AEA
330
A02
100
AcDbEntity
  8
Mesh_cs002
100
AcDbLine
 10
21.3902
 20
275.274
 30
7
 11
21.6065
 21
275.339
 31
7
  0
LINE
  5
AEB
330
A02
100
AcDbEntity
  8
Mesh_cs002
100
AcDbLine
 10
21.6065
 20
275.339
 30
7
 11
21.73
 21
275.386
 31
7
  0
LINE
  5
AEC
330
A02
100
AcDbEntity
  8
Mesh_cs002
100
AcDbLine
 10
21.73
 20
275.386
 30
7
 11
21.9445
 21
275.468
 31
7
  0
LINE
  5
AED
330
A02
100
AcDbEntity
  8
Mesh_cs002
100
AcDbLine
 10
21.9445
 20
275.468
 30
7
 11
22.065
 21
275.523
 31
7
  0
LINE
  5
AEE
330
A02
100
AcDbEntity
  8
Mesh_cs002
100
AcDbLine
 10
22.065
 20
275.523
 30
7
 11
22.2758
 21
275.622
 31
7
  0
LINE
  5
AEF
330
A02
100
AcDbEntity
  8
Mesh_cs002
100
AcDbLine
 10
22.2758
 20
275.622
 30
7
 11
22.3924
 21
275.686
 31
7
  0
LINE
  5
AF0
330
A02
100
AcDbEntity
  8
Mesh_cs002
100
AcDbLine
 10
22.3924
 20
275.686
 30
7
 11
22.5975
 21
275.802
 31
7
  0
LINE
  5
AF1
330
A02
100
AcDbEntity
  8
Mesh_cs002
100
AcDbLine
 10
22.5975
 20
275.802
 30
7
 11
22.7093
 21
275.874
 31
7
  0
LINE
  5
AF2
330
A02
100
AcDbEntity
  8
Mesh_cs002
100
AcDbLine
 10
22.7093
 20
275.874
 30
7
 11
22.9068
 21
276.006
 31
7
  0
LINE
  5
AF3
330
A02
100
AcDbEntity
  8
Mesh_cs002
100
AcDbLine
 10
22.9068
 20
276.006
 30
7
 11
23.0128
 21
276.085
 31
7
  0
LINE
  5
AF4
330
A02
100
AcDbEntity
  8
Mesh_cs002
100
AcDbLine
 10
23.0128
 20
276.085
 30
7
 11
23.2008
 21
276.234
 31
7
  0
LINE
  5
AF5
330
A02
100
AcDbEntity
  8
Mesh_cs002
100
AcDbLine
 10
23.2008
 20
276.234
 30
7
 11
23.3005
 21
276.32
 31
7
  0
LINE
  5
AF6
330
A02
100
AcDbEntity
  8
Mesh_cs002
100
AcDbLine
 10
23.3005
 20
276.32
 30
7
 11
23.477
 21
276.482
 31
7
  0
LINE
  5
AF7
330
A02
100
AcDbEntity
  8
Mesh_cs002
100
AcDbLine
 10
23.477
 20
276.482
 30
7
 11
23.5698
 21
276.574
 31
7
  0
LINE
  5
AF8
330
A02
100
AcDbEntity
  8
Mesh_cs002
100
AcDbLine
 10
23.5698
 20
276.574
 30
7
 11
23.7334
 21
276.75
 31
7
  0
LINE
  5
AF9
330
A02
100
AcDbEntity
  8
Mesh_cs002
100
AcDbLine
 10
23.7334
 20
276.75
 30
7
 11
23.8186
 21
276.847
 31
7
  0
LINE
  5
AFA
330
A02
100
AcDbEntity
  8
Mesh_cs002
100
AcDbLine
 10
23.8186
 20
276.847
 30
7
 11
23.9678
 21
277.034
 31
7
  0
LINE
  5
AFB
330
A02
100
AcDbEntity
  8
Mesh_cs002
100
AcDbLine
 10
23.9678
 20
277.034
 30
7
 11
24.0452
 21
277.136
 31
7
  0
LINE
  5
AFC
330
A02
100
AcDbEntity
  8
Mesh_cs002
100
AcDbLine
 10
24.0452
 20
277.136
 30
7
 11
24.179
 21
277.333
 31
7
  0
LINE
  5
AFD
330
A02
100
AcDbEntity
  8
Mesh_cs002
100
AcDbLine
 10
24.179
 20
277.333
 30
7
 11
24.2483
 21
277.438
 31
7
  0
LINE
  5
AFE
330
A02
100
AcDbEntity
  8
Mesh_cs002
100
AcDbLine
 10
24.2483
 20
277.438
 30
7
 11
24.3657
 21
277.642
 31
7
  0
LINE
  5
AFF
330
A02
100
AcDbEntity
  8
Mesh_cs002
100
AcDbLine
 10
24.3657
 20
277.642
 30
7
 11
24.4269
 21
277.75
 31
7
  0
LINE
  5
B00
330
A02
100
AcDbEntity
  8
Mesh_cs002
100
AcDbLine
 10
24.4269
 20
277.75
 30
7
 11
24.4799
 21
277.859
 31
7
  0
LINE
  5
B01
330
A02
100
AcDbEntity
  8
Mesh_cs002
100
AcDbLine
 10
24.4799
 20
277.859
 30
7
 11
24.5804
 21
278.069
 31
7
  0
LINE
  5
B02
330
A02
100
AcDbEntity
  8
Mesh_cs002
100
AcDbLine
 10
24.5804
 20
278.069
 30
7
 11
24.6254
 21
278.18
 31
7
  0
LINE
  5
B03
330
A02
100
AcDbEntity
  8
Mesh_cs002
100
AcDbLine
 10
24.6254
 20
278.18
 30
7
 11
24.7089
 21
278.394
 31
7
  0
LINE
  5
B04
330
A02
100
AcDbEntity
  8
Mesh_cs002
100
AcDbLine
 10
24.7089
 20
278.394
 30
7
 11
24.746
 21
278.504
 31
7
  0
LINE
  5
B05
330
A02
100
AcDbEntity
  8
Mesh_cs002
100
AcDbLine
 10
24.746
 20
278.504
 30
7
 11
24.8189
 21
278.744
 31
7
  0
LINE
  5
B06
330
A02
100
AcDbEntity
  8
Mesh_cs002
100
AcDbLine
 10
24.8189
 20
278.744
 30
7
 11
24.8485
 21
278.854
 31
7
  0
LINE
  5
B07
330
A02
100
AcDbEntity
  8
Mesh_cs002
100
AcDbLine
 10
24.8485
 20
278.854
 30
7
 11
24.9056
 21
279.12
 31
7
  0
LINE
  5
B08
330
A02
100
AcDbEntity
  8
Mesh_cs002
100
AcDbLine
 10
24.9056
 20
279.12
 30
7
 11
24.9279
 21
279.229
 31
7
  0
LINE
  5
B09
330
A02
100
AcDbEntity
  8
Mesh_cs002
100
AcDbLine
 10
24.9279
 20
279.229
 30
7
 11
24.9436
 21
279.335
 31
7
  0
LINE
  5
B0A
330
A02
100
AcDbEntity
  8
Mesh_cs002
100
AcDbLine
 10
24.9436
 20
279.335
 30
7
 11
24.9766
 21
279.598
 31
7
  0
LINE
  5
B0B
330
A02
100
AcDbEntity
  8
Mesh_cs002
100
AcDbLine
 10
24.9766
 20
279.598
 30
7
 11
24.9859
 21
279.702
 31
7
  0
LINE
  5
B0C
330
A02
100
AcDbEntity
  8
Mesh_cs002
100
AcDbLine
 10
24.9859
 20
279.702
 30
7
 11
24.9886
 21
279.76
 31
7
  0
LINE
  5
B0D
330
A02
100
AcDbEntity
  8
Mesh_cs002
100
AcDbLine
 10
24.9886
 20
279.76
 30
7
 11
24.9991
 21
280.017
 31
7
  0
LINE
  5
B0E
330
A02
100
AcDbEntity
  8
Mesh_cs002
100
AcDbLine
 10
24.9991
 20
280.017
 30
7
 11
25
 21
280.074
 31
7
  0
LINE
  5
B0F
330
A02
100
AcDbEntity
  8
Mesh_cs002
100
AcDbLine
 10
25
 20
280.074
 30
7
 11
24.9936
 21
280.229
 31
7
  0
LINE
  5
B10
330
A02
100
AcDbEntity
  8
Mesh_cs002
100
AcDbLine
 10
24.9936
 20
280.229
 30
7
 11
24.9827
 21
280.489
 31
7
  0
LINE
  5
B11
330
A02
100
AcDbEntity
  8
Mesh_cs002
100
AcDbLine
 10
24.9827
 20
280.489
 30
7
 11
24.9527
 21
280.733
 31
7
  0
LINE
  5
B12
330
A02
100
AcDbEntity
  8
Mesh_cs002
100
AcDbLine
 10
24.9527
 20
280.733
 30
7
 11
24.9323
 21
280.894
 31
7
  0
LINE
  5
B13
330
A02
100
AcDbEntity
  8
Mesh_cs002
100
AcDbLine
 10
24.9323
 20
280.894
 30
7
 11
24.8867
 21
281.121
 31
7
  0
LINE
  5
B14
330
A02
100
AcDbEntity
  8
Mesh_cs002
100
AcDbLine
 10
24.8867
 20
281.121
 30
7
 11
24.8549
 21
281.269
 31
7
  0
LINE
  5
B15
330
A02
100
AcDbEntity
  8
Mesh_cs002
100
AcDbLine
 10
24.8549
 20
281.269
 30
7
 11
24.79
 21
281.5
 31
7
  0
LINE
  5
B16
330
A02
100
AcDbEntity
  8
Mesh_cs002
100
AcDbLine
 10
24.79
 20
281.5
 30
7
 11
24.7497
 21
281.636
 31
7
  0
LINE
  5
B17
330
A02
100
AcDbEntity
  8
Mesh_cs002
100
AcDbLine
 10
24.7497
 20
281.636
 30
7
 11
24.6639
 21
281.869
 31
7
  0
LINE
  5
B18
330
A02
100
AcDbEntity
  8
Mesh_cs002
100
AcDbLine
 10
24.6639
 20
281.869
 30
7
 11
24.6119
 21
282.005
 31
7
  0
LINE
  5
B19
330
A02
100
AcDbEntity
  8
Mesh_cs002
100
AcDbLine
 10
24.6119
 20
282.005
 30
7
 11
24.5039
 21
282.239
 31
7
  0
LINE
  5
B1A
330
A02
100
AcDbEntity
  8
Mesh_cs002
100
AcDbLine
 10
24.5039
 20
282.239
 30
7
 11
24.4398
 21
282.374
 31
7
  0
LINE
  5
B1B
330
A02
100
AcDbEntity
  8
Mesh_cs002
100
AcDbLine
 10
24.4398
 20
282.374
 30
7
 11
24.3087
 21
282.604
 31
7
  0
LINE
  5
B1C
330
A02
100
AcDbEntity
  8
Mesh_cs002
100
AcDbLine
 10
24.3087
 20
282.604
 30
7
 11
24.2321
 21
282.737
 31
7
  0
LINE
  5
B1D
330
A02
100
AcDbEntity
  8
Mesh_cs002
100
AcDbLine
 10
24.2321
 20
282.737
 30
7
 11
24.0775
 21
282.961
 31
7
  0
LINE
  5
B1E
330
A02
100
AcDbEntity
  8
Mesh_cs002
100
AcDbLine
 10
24.0775
 20
282.961
 30
7
 11
23.9885
 21
283.089
 31
7
  0
LINE
  5
B1F
330
A02
100
AcDbEntity
  8
Mesh_cs002
100
AcDbLine
 10
23.9885
 20
283.089
 30
7
 11
23.8293
 21
283.284
 31
7
  0
LINE
  5
B20
330
A02
100
AcDbEntity
  8
Mesh_cs002
100
AcDbLine
 10
23.8293
 20
283.284
 30
7
 11
23.7282
 21
283.406
 31
7
  0
LINE
  5
B21
330
A02
100
AcDbEntity
  8
Mesh_cs002
100
AcDbLine
 10
23.7282
 20
283.406
 30
7
 11
23.5691
 21
283.572
 31
7
  0
LINE
  5
B22
330
A02
100
AcDbEntity
  8
Mesh_cs002
100
AcDbLine
 10
23.5691
 20
283.572
 30
7
 11
23.4563
 21
283.687
 31
7
  0
LINE
  5
B23
330
A02
100
AcDbEntity
  8
Mesh_cs002
100
AcDbLine
 10
23.4563
 20
283.687
 30
7
 11
23.283
 21
283.843
 31
7
  0
LINE
  5
B24
330
A02
100
AcDbEntity
  8
Mesh_cs002
100
AcDbLine
 10
23.283
 20
283.843
 30
7
 11
23.1595
 21
283.949
 31
7
  0
LINE
  5
B25
330
A02
100
AcDbEntity
  8
Mesh_cs002
100
AcDbLine
 10
23.1595
 20
283.949
 30
7
 11
22.9728
 21
284.093
 31
7
  0
LINE
  5
B26
330
A02
100
AcDbEntity
  8
Mesh_cs002
100
AcDbLine
 10
22.9728
 20
284.093
 30
7
 11
22.8398
 21
284.188
 31
7
  0
LINE
  5
B27
330
A02
100
AcDbEntity
  8
Mesh_cs002
100
AcDbLine
 10
22.8398
 20
284.188
 30
7
 11
22.641
 21
284.319
 31
7
  0
LINE
  5
B28
330
A02
100
AcDbEntity
  8
Mesh_cs002
100
AcDbLine
 10
22.641
 20
284.319
 30
7
 11
22.5143
 21
284.395
 31
7
  0
LINE
  5
B29
330
A02
100
AcDbEntity
  8
Mesh_cs002
100
AcDbLine
 10
22.5143
 20
284.395
 30
7
 11
22.3049
 21
284.511
 31
7
  0
LINE
  5
B2A
330
A02
100
AcDbEntity
  8
Mesh_cs002
100
AcDbLine
 10
22.3049
 20
284.511
 30
7
 11
22.1862
 21
284.57
 31
7
  0
LINE
  5
B2B
330
A02
100
AcDbEntity
  8
Mesh_cs002
100
AcDbLine
 10
22.1862
 20
284.57
 30
7
 11
21.9679
 21
284.67
 31
7
  0
LINE
  5
B2C
330
A02
100
AcDbEntity
  8
Mesh_cs002
100
AcDbLine
 10
21.9679
 20
284.67
 30
7
 11
21.8457
 21
284.72
 31
7
  0
LINE
  5
B2D
330
A02
100
AcDbEntity
  8
Mesh_cs002
100
AcDbLine
 10
21.8457
 20
284.72
 30
7
 11
21.6204
 21
284.803
 31
7
  0
LINE
  5
B2E
330
A02
100
AcDbEntity
  8
Mesh_cs002
100
AcDbLine
 10
21.6204
 20
284.803
 30
7
 11
21.4957
 21
284.845
 31
7
  0
LINE
  5
B2F
330
A02
100
AcDbEntity
  8
Mesh_cs002
100
AcDbLine
 10
21.4957
 20
284.845
 30
7
 11
21.2654
 21
284.91
 31
7
  0
LINE
  5
B30
330
A02
100
AcDbEntity
  8
Mesh_cs002
100
AcDbLine
 10
21.2654
 20
284.91
 30
7
 11
21.1392
 21
284.942
 31
7
  0
LINE
  5
B31
330
A02
100
AcDbEntity
  8
Mesh_cs002
100
AcDbLine
 10
21.1392
 20
284.942
 30
7
 11
20.906
 21
284.989
 31
7
  0
LINE
  5
B32
330
A02
100
AcDbEntity
  8
Mesh_cs002
100
AcDbLine
 10
20.906
 20
284.989
 30
7
 11
20.7791
 21
285.013
 31
7
  0
LINE
  5
B33
330
A02
100
AcDbEntity
  8
Mesh_cs002
100
AcDbLine
 10
20.7791
 20
285.013
 30
7
 11
20.5451
 21
285.042
 31
7
  0
LINE
  5
B34
330
A02
100
AcDbEntity
  8
Mesh_cs002
100
AcDbLine
 10
20.5451
 20
285.042
 30
7
 11
20.4186
 21
285.057
 31
7
  0
LINE
  5
B35
330
A02
100
AcDbEntity
  8
Mesh_cs002
100
AcDbLine
 10
20.4186
 20
285.057
 30
7
 11
20.1858
 21
285.068
 31
7
  0
LINE
  5
B36
330
A02
100
AcDbEntity
  8
Mesh_cs002
100
AcDbLine
 10
20.1858
 20
285.068
 30
7
 11
20.0605
 21
285.074
 31
7
  0
LINE
  5
B37
330
A02
100
AcDbEntity
  8
Mesh_cs002
100
AcDbLine
 10
20.0605
 20
285.074
 30
7
 11
19.9372
 21
285.071
 31
7
  0
LINE
  5
B38
330
A02
100
AcDbEntity
  8
Mesh_cs002
100
AcDbLine
 10
19.9372
 20
285.071
 30
7
 11
19.7075
 21
285.066
 31
7
  0
LINE
  5
B39
330
A02
100
AcDbEntity
  8
Mesh_cs002
100
AcDbLine
 10
19.7075
 20
285.066
 30
7
 11
19.587
 21
285.055
 31
7
  0
LINE
  5
B3A
330
A02
100
AcDbEntity
  8
Mesh_cs002
100
AcDbLine
 10
19.587
 20
285.055
 30
7
 11
19.3622
 21
285.033
 31
7
  0
LINE
  5
B3B
330
A02
100
AcDbEntity
  8
Mesh_cs002
100
AcDbLine
 10
19.3622
 20
285.033
 30
7
 11
19.245
 21
285.016
 31
7
  0
LINE
  5
B3C
330
A02
100
AcDbEntity
  8
Mesh_cs002
100
AcDbLine
 10
19.245
 20
285.016
 30
7
 11
19.0267
 21
284.978
 31
7
  0
LINE
  5
B3D
330
A02
100
AcDbEntity
  8
Mesh_cs002
100
AcDbLine
 10
19.0267
 20
284.978
 30
7
 11
18.9135
 21
284.954
 31
7
  0
LINE
  5
B3E
330
A02
100
AcDbEntity
  8
Mesh_cs002
100
AcDbLine
 10
18.9135
 20
284.954
 30
7
 11
18.7029
 21
284.902
 31
7
  0
LINE
  5
B3F
330
A02
100
AcDbEntity
  8
Mesh_cs002
100
AcDbLine
 10
18.7029
 20
284.902
 30
7
 11
18.594
 21
284.872
 31
7
  0
LINE
  5
B40
330
A02
100
AcDbEntity
  8
Mesh_cs002
100
AcDbLine
 10
18.594
 20
284.872
 30
7
 11
18.3923
 21
284.808
 31
7
  0
LINE
  5
B41
330
A02
100
AcDbEntity
  8
Mesh_cs002
100
AcDbLine
 10
18.3923
 20
284.808
 30
7
 11
18.2883
 21
284.772
 31
7
  0
LINE
  5
B42
330
A02
100
AcDbEntity
  8
Mesh_cs002
100
AcDbLine
 10
18.2883
 20
284.772
 30
7
 11
18.0963
 21
284.696
 31
7
  0
LINE
  5
B43
330
A02
100
AcDbEntity
  8
Mesh_cs002
100
AcDbLine
 10
18.0963
 20
284.696
 30
7
 11
17.9972
 21
284.655
 31
7
  0
LINE
  5
B44
330
A02
100
AcDbEntity
  8
Mesh_cs002
100
AcDbLine
 10
17.9972
 20
284.655
 30
7
 11
17.8157
 21
284.57
 31
7
  0
LINE
  5
B45
330
A02
100
AcDbEntity
  8
Mesh_cs002
100
AcDbLine
 10
17.8157
 20
284.57
 30
7
 11
17.7218
 21
284.525
 31
7
  0
LINE
  5
B46
330
A02
100
AcDbEntity
  8
Mesh_cs002
100
AcDbLine
 10
17.7218
 20
284.525
 30
7
 11
17.6331
 21
284.477
 31
7
  0
LINE
  5
B47
330
A02
100
AcDbEntity
  8
Mesh_cs002
100
AcDbLine
 10
17.6331
 20
284.477
 30
7
 11
17.4625
 21
284.382
 31
7
  0
LINE
  5
B48
330
A02
100
AcDbEntity
  8
Mesh_cs002
100
AcDbLine
 10
17.4625
 20
284.382
 30
7
 11
17.3763
 21
284.329
 31
7
  0
LINE
  5
B49
330
A02
100
AcDbEntity
  8
Mesh_cs002
100
AcDbLine
 10
17.3763
 20
284.329
 30
7
 11
17.2167
 21
284.228
 31
7
  0
LINE
  5
B4A
330
A02
100
AcDbEntity
  8
Mesh_cs002
100
AcDbLine
 10
17.2167
 20
284.228
 30
7
 11
17.1311
 21
284.168
 31
7
  0
LINE
  5
B4B
330
A02
100
AcDbEntity
  8
Mesh_cs002
100
AcDbLine
 10
17.1311
 20
284.168
 30
7
 11
16.9827
 21
284.061
 31
7
  0
LINE
  5
B4C
330
A02
100
AcDbEntity
  8
Mesh_cs002
100
AcDbLine
 10
16.9827
 20
284.061
 30
7
 11
16.8981
 21
283.995
 31
7
  0
LINE
  5
B4D
330
A02
100
AcDbEntity
  8
Mesh_cs002
100
AcDbLine
 10
16.8981
 20
283.995
 30
7
 11
16.7608
 21
283.883
 31
7
  0
LINE
  5
B4E
330
A02
100
AcDbEntity
  8
Mesh_cs002
100
AcDbLine
 10
16.7608
 20
283.883
 30
7
 11
16.678
 21
283.81
 31
7
  0
LINE
  5
B4F
330
A02
100
AcDbEntity
  8
Mesh_cs002
100
AcDbLine
 10
16.678
 20
283.81
 30
7
 11
16.5516
 21
283.695
 31
7
  0
LINE
  5
B50
330
A02
100
AcDbEntity
  8
Mesh_cs002
100
AcDbLine
 10
16.5516
 20
283.695
 30
7
 11
16.4713
 21
283.615
 31
7
  0
LINE
  5
B51
330
A02
100
AcDbEntity
  8
Mesh_cs002
100
AcDbLine
 10
16.4713
 20
283.615
 30
7
 11
16.3536
 21
283.495
 31
7
  0
LINE
  5
B52
330
A02
100
AcDbEntity
  8
Mesh_cs002
100
AcDbLine
 10
16.3536
 20
283.495
 30
7
 11
16.2765
 21
283.409
 31
7
  0
LINE
  5
B53
330
A02
100
AcDbEntity
  8
Mesh_cs002
100
AcDbLine
 10
16.2765
 20
283.409
 30
7
 11
16.1621
 21
283.279
 31
7
  0
LINE
  5
B54
330
A02
100
AcDbEntity
  8
Mesh_cs002
100
AcDbLine
 10
16.1621
 20
283.279
 30
7
 11
16.0515
 21
283.138
 31
7
  0
LINE
  5
B55
330
A02
100
AcDbEntity
  8
Mesh_cs002
100
AcDbLine
 10
16.0515
 20
283.138
 30
7
 11
15.9783
 21
283.045
 31
7
  0
LINE
  5
B56
330
A02
100
AcDbEntity
  8
Mesh_cs002
100
AcDbLine
 10
15.9783
 20
283.045
 30
7
 11
15.8727
 21
282.893
 31
7
  0
LINE
  5
B57
330
A02
100
AcDbEntity
  8
Mesh_cs002
100
AcDbLine
 10
15.8727
 20
282.893
 30
7
 11
15.8042
 21
282.793
 31
7
  0
LINE
  5
B58
330
A02
100
AcDbEntity
  8
Mesh_cs002
100
AcDbLine
 10
15.8042
 20
282.793
 30
7
 11
15.7047
 21
282.631
 31
7
  0
LINE
  5
B59
330
A02
100
AcDbEntity
  8
Mesh_cs002
100
AcDbLine
 10
15.7047
 20
282.631
 30
7
 11
15.6417
 21
282.524
 31
7
  0
LINE
  5
B5A
330
A02
100
AcDbEntity
  8
Mesh_cs002
100
AcDbLine
 10
15.6417
 20
282.524
 30
7
 11
15.5497
 21
282.351
 31
7
  0
LINE
  5
B5B
330
A02
100
AcDbEntity
  8
Mesh_cs002
100
AcDbLine
 10
15.5497
 20
282.351
 30
7
 11
15.4929
 21
282.238
 31
7
  0
LINE
  5
B5C
330
A02
100
AcDbEntity
  8
Mesh_cs002
100
AcDbLine
 10
15.4929
 20
282.238
 30
7
 11
15.4099
 21
282.054
 31
7
  0
LINE
  5
B5D
330
A02
100
AcDbEntity
  8
Mesh_cs002
100
AcDbLine
 10
15.4099
 20
282.054
 30
7
 11
15.3601
 21
281.936
 31
7
  0
LINE
  5
B5E
330
A02
100
AcDbEntity
  8
Mesh_cs002
100
AcDbLine
 10
15.3601
 20
281.936
 30
7
 11
15.2874
 21
281.742
 31
7
  0
LINE
  5
B5F
330
A02
100
AcDbEntity
  8
Mesh_cs002
100
AcDbLine
 10
15.2874
 20
281.742
 30
7
 11
15.2452
 21
281.62
 31
7
  0
LINE
  5
B60
330
A02
100
AcDbEntity
  8
Mesh_cs002
100
AcDbLine
 10
15.2452
 20
281.62
 30
7
 11
15.1843
 21
281.415
 31
7
  0
LINE
  5
B61
330
A02
100
AcDbEntity
  8
Mesh_cs002
100
AcDbLine
 10
15.1843
 20
281.415
 30
7
 11
15.1503
 21
281.289
 31
7
  0
LINE
  5
B62
330
A02
100
AcDbEntity
  8
Mesh_cs002
100
AcDbLine
 10
15.1503
 20
281.289
 30
7
 11
15.1026
 21
281.076
 31
7
  0
LINE
  5
B63
330
A02
100
AcDbEntity
  8
Mesh_cs002
100
AcDbLine
 10
15.1026
 20
281.076
 30
7
 11
15.0772
 21
280.947
 31
7
  0
LINE
  5
B64
330
A02
100
AcDbEntity
  8
Mesh_cs002
100
AcDbLine
 10
15.0772
 20
280.947
 30
7
 11
15.0439
 21
280.727
 31
7
  0
LINE
  5
B65
330
A02
100
AcDbEntity
  8
Mesh_cs002
100
AcDbLine
 10
15.0439
 20
280.727
 30
7
 11
15.0276
 21
280.595
 31
7
  0
LINE
  5
B66
330
A02
100
AcDbEntity
  8
Mesh_cs002
100
AcDbLine
 10
15.0276
 20
280.595
 30
7
 11
15.01
 21
280.369
 31
7
  0
LINE
  5
B67
330
A02
100
AcDbEntity
  8
Mesh_cs002
100
AcDbLine
 10
15.01
 20
280.369
 30
7
 11
15.003
 21
280.236
 31
7
  0
LINE
  5
B68
330
A02
100
AcDbEntity
  8
Mesh_cs002
100
AcDbLine
 10
15.003
 20
280.236
 30
7
 11
15.0019
 21
280.006
 31
7
  0
LINE
  5
B69
330
A02
100
AcDbEntity
  8
Mesh_cs002
100
AcDbLine
 10
15.0019
 20
280.006
 30
7
 11
15.0043
 21
279.873
 31
7
  0
LINE
  5
B6A
330
A02
100
AcDbEntity
  8
Mesh_cs002
100
AcDbLine
 10
15.0043
 20
279.873
 30
7
 11
15.0206
 21
279.639
 31
7
  0
LINE
  5
B6B
330
A02
100
AcDbEntity
  8
Mesh_cs002
100
AcDbLine
 10
15.0206
 20
279.639
 30
7
 11
15.0324
 21
279.507
 31
7
  0
LINE
  5
B6C
330
A02
100
AcDbEntity
  8
Mesh_cs002
100
AcDbLine
 10
179.968
 20
279.507
 30
7
 11
179.933
 21
279.273
 31
7
  0
LINE
  5
B6D
330
A02
100
AcDbEntity
  8
Mesh_cs002
100
AcDbLine
 10
179.933
 20
279.273
 30
7
 11
179.912
 21
279.143
 31
7
  0
LINE
  5
B6E
330
A02
100
AcDbEntity
  8
Mesh_cs002
100
AcDbLine
 10
179.912
 20
279.143
 30
7
 11
179.86
 21
278.911
 31
7
  0
LINE
  5
B6F
330
A02
100
AcDbEntity
  8
Mesh_cs002
100
AcDbLine
 10
179.86
 20
278.911
 30
7
 11
179.83
 21
278.783
 31
7
  0
LINE
  5
B70
330
A02
100
AcDbEntity
  8
Mesh_cs002
100
AcDbLine
 10
179.83
 20
278.783
 30
7
 11
179.76
 21
278.554
 31
7
  0
LINE
  5
B71
330
A02
100
AcDbEntity
  8
Mesh_cs002
100
AcDbLine
 10
179.76
 20
278.554
 30
7
 11
179.722
 21
278.43
 31
7
  0
LINE
  5
B72
330
A02
100
AcDbEntity
  8
Mesh_cs002
100
AcDbLine
 10
179.722
 20
278.43
 30
7
 11
179.676
 21
278.31
 31
7
  0
LINE
  5
B73
330
A02
100
AcDbEntity
  8
Mesh_cs002
100
AcDbLine
 10
179.676
 20
278.31
 30
7
 11
179.588
 21
278.086
 31
7
  0
LINE
  5
B74
330
A02
100
AcDbEntity
  8
Mesh_cs002
100
AcDbLine
 10
179.588
 20
278.086
 30
7
 11
179.534
 21
277.972
 31
7
  0
LINE
  5
B75
330
A02
100
AcDbEntity
  8
Mesh_cs002
100
AcDbLine
 10
179.534
 20
277.972
 30
7
 11
179.43
 21
277.756
 31
7
  0
LINE
  5
B76
330
A02
100
AcDbEntity
  8
Mesh_cs002
100
AcDbLine
 10
179.43
 20
277.756
 30
7
 11
179.37
 21
277.647
 31
7
  0
LINE
  5
B77
330
A02
100
AcDbEntity
  8
Mesh_cs002
100
AcDbLine
 10
179.37
 20
277.647
 30
7
 11
179.249
 21
277.44
 31
7
  0
LINE
  5
B78
330
A02
100
AcDbEntity
  8
Mesh_cs002
100
AcDbLine
 10
179.249
 20
277.44
 30
7
 11
179.183
 21
277.337
 31
7
  0
LINE
  5
B79
330
A02
100
AcDbEntity
  8
Mesh_cs002
100
AcDbLine
 10
179.183
 20
277.337
 30
7
 11
179.049
 21
277.142
 31
7
  0
LINE
  5
B7A
330
A02
100
AcDbEntity
  8
Mesh_cs002
100
AcDbLine
 10
179.049
 20
277.142
 30
7
 11
178.978
 21
277.045
 31
7
  0
LINE
  5
B7B
330
A02
100
AcDbEntity
  8
Mesh_cs002
100
AcDbLine
 10
178.978
 20
277.045
 30
7
 11
178.83
 21
276.862
 31
7
  0
LINE
  5
B7C
330
A02
100
AcDbEntity
  8
Mesh_cs002
100
AcDbLine
 10
178.83
 20
276.862
 30
7
 11
178.754
 21
276.772
 31
7
  0
LINE
  5
B7D
330
A02
100
AcDbEntity
  8
Mesh_cs002
100
AcDbLine
 10
178.754
 20
276.772
 30
7
 11
178.595
 21
276.603
 31
7
  0
LINE
  5
B7E
330
A02
100
AcDbEntity
  8
Mesh_cs002
100
AcDbLine
 10
178.595
 20
276.603
 30
7
 11
178.516
 21
276.52
 31
7
  0
LINE
  5
B7F
330
A02
100
AcDbEntity
  8
Mesh_cs002
100
AcDbLine
 10
178.516
 20
276.52
 30
7
 11
178.435
 21
276.443
 31
7
  0
LINE
  5
B80
330
A02
100
AcDbEntity
  8
Mesh_cs002
100
AcDbLine
 10
178.435
 20
276.443
 30
7
 11
178.266
 21
276.288
 31
7
  0
LINE
  5
B81
330
A02
100
AcDbEntity
  8
Mesh_cs002
100
AcDbLine
 10
178.266
 20
276.288
 30
7
 11
178.182
 21
276.219
 31
7
  0
LINE
  5
B82
330
A02
100
AcDbEntity
  8
Mesh_cs002
100
AcDbLine
 10
178.182
 20
276.219
 30
7
 11
178.006
 21
276.079
 31
7
  0
LINE
  5
B83
330
A02
100
AcDbEntity
  8
Mesh_cs002
100
AcDbLine
 10
178.006
 20
276.079
 30
7
 11
177.921
 21
276.016
 31
7
  0
LINE
  5
B84
330
A02
100
AcDbEntity
  8
Mesh_cs002
100
AcDbLine
 10
177.921
 20
276.016
 30
7
 11
177.739
 21
275.892
 31
7
  0
LINE
  5
B85
330
A02
100
AcDbEntity
  8
Mesh_cs002
100
AcDbLine
 10
177.739
 20
275.892
 30
7
 11
177.653
 21
275.836
 31
7
  0
LINE
  5
B86
330
A02
100
AcDbEntity
  8
Mesh_cs002
100
AcDbLine
 10
177.653
 20
275.836
 30
7
 11
177.466
 21
275.727
 31
7
  0
LINE
  5
B87
330
A02
100
AcDbEntity
  8
Mesh_cs002
100
AcDbLine
 10
177.466
 20
275.727
 30
7
 11
177.379
 21
275.677
 31
7
  0
LINE
  5
B88
330
A02
100
AcDbEntity
  8
Mesh_cs002
100
AcDbLine
 10
177.379
 20
275.677
 30
7
 11
177.288
 21
275.63
 31
7
  0
LINE
  5
B89
330
A02
100
AcDbEntity
  8
Mesh_cs002
100
AcDbLine
 10
177.288
 20
275.63
 30
7
 11
177.1
 21
275.536
 31
7
  0
LINE
  5
B8A
330
A02
100
AcDbEntity
  8
Mesh_cs002
100
AcDbLine
 10
177.1
 20
275.536
 30
7
 11
177.003
 21
275.494
 31
7
  0
LINE
  5
B8B
330
A02
100
AcDbEntity
  8
Mesh_cs002
100
AcDbLine
 10
177.003
 20
275.494
 30
7
 11
176.814
 21
275.415
 31
7
  0
LINE
  5
B8C
330
A02
100
AcDbEntity
  8
Mesh_cs002
100
AcDbLine
 10
176.814
 20
275.415
 30
7
 11
176.712
 21
275.377
 31
7
  0
LINE
  5
B8D
330
A02
100
AcDbEntity
  8
Mesh_cs002
100
AcDbLine
 10
176.712
 20
275.377
 30
7
 11
176.523
 21
275.312
 31
7
  0
LINE
  5
B8E
330
A02
100
AcDbEntity
  8
Mesh_cs002
100
AcDbLine
 10
176.523
 20
275.312
 30
7
 11
176.417
 21
275.279
 31
7
  0
LINE
  5
B8F
330
A02
100
AcDbEntity
  8
Mesh_cs002
100
AcDbLine
 10
176.417
 20
275.279
 30
7
 11
176.23
 21
275.228
 31
7
  0
LINE
  5
B90
330
A02
100
AcDbEntity
  8
Mesh_cs002
100
AcDbLine
 10
176.23
 20
275.228
 30
7
 11
176.119
 21
275.201
 31
7
  0
LINE
  5
B91
330
A02
100
AcDbEntity
  8
Mesh_cs002
100
AcDbLine
 10
176.119
 20
275.201
 30
7
 11
175.935
 21
275.163
 31
7
  0
LINE
  5
B92
330
A02
100
AcDbEntity
  8
Mesh_cs002
100
AcDbLine
 10
175.935
 20
275.163
 30
7
 11
175.82
 21
275.142
 31
7
  0
LINE
  5
B93
330
A02
100
AcDbEntity
  8
Mesh_cs002
100
AcDbLine
 10
175.82
 20
275.142
 30
7
 11
175.64
 21
275.116
 31
7
  0
LINE
  5
B94
330
A02
100
AcDbEntity
  8
Mesh_cs002
100
AcDbLine
 10
175.64
 20
275.116
 30
7
 11
175.521
 21
275.102
 31
7
  0
LINE
  5
B95
330
A02
100
AcDbEntity
  8
Mesh_cs002
100
AcDbLine
 10
175.521
 20
275.102
 30
7
 11
175.346
 21
275.086
 31
7
  0
LINE
  5
B96
330
A02
100
AcDbEntity
  8
Mesh_cs002
100
AcDbLine
 10
175.346
 20
275.086
 30
7
 11
175.224
 21
275.08
 31
7
  0
LINE
  5
B97
330
A02
100
AcDbEntity
  8
Mesh_cs002
100
AcDbLine
 10
175.224
 20
275.08
 30
7
 11
175.128
 21
275.076
 31
7
  0
LINE
  5
B98
330
A02
100
AcDbEntity
  8
Mesh_cs002
100
AcDbLine
 10
175.128
 20
275.076
 30
7
 11
175.034
 21
275.074
 31
7
  0
LINE
  5
B99
330
A02
100
AcDbEntity
  8
Mesh_cs002
100
AcDbLine
 10
175.034
 20
275.074
 30
7
 11
174.909
 21
275.076
 31
7
  0
LINE
  5
B9A
330
A02
100
AcDbEntity
  8
Mesh_cs002
100
AcDbLine
 10
174.909
 20
275.076
 30
7
 11
174.729
 21
275.082
 31
7
  0
LINE
  5
B9B
330
A02
100
AcDbEntity
  8
Mesh_cs002
100
AcDbLine
 10
174.729
 20
275.082
 30
7
 11
174.603
 21
275.092
 31
7
  0
LINE
  5
B9C
330
A02
100
AcDbEntity
  8
Mesh_cs002
100
AcDbLine
 10
174.603
 20
275.092
 30
7
 11
174.419
 21
275.108
 31
7
  0
LINE
  5
B9D
330
A02
100
AcDbEntity
  8
Mesh_cs002
100
AcDbLine
 10
174.419
 20
275.108
 30
7
 11
174.292
 21
275.127
 31
7
  0
LINE
  5
B9E
330
A02
100
AcDbEntity
  8
Mesh_cs002
100
AcDbLine
 10
174.292
 20
275.127
 30
7
 11
174.078
 21
275.16
 31
7
  0
LINE
  5
B9F
330
A02
100
AcDbEntity
  8
Mesh_cs002
100
AcDbLine
 10
174.078
 20
275.16
 30
7
 11
173.951
 21
275.188
 31
7
  0
LINE
  5
BA0
330
A02
100
AcDbEntity
  8
Mesh_cs002
100
AcDbLine
 10
173.951
 20
275.188
 30
7
 11
173.735
 21
275.237
 31
7
  0
LINE
  5
BA1
330
A02
100
AcDbEntity
  8
Mesh_cs002
100
AcDbLine
 10
173.735
 20
275.237
 30
7
 11
173.61
 21
275.274
 31
7
  0
LINE
  5
BA2
330
A02
100
AcDbEntity
  8
Mesh_cs002
100
AcDbLine
 10
173.61
 20
275.274
 30
7
 11
173.394
 21
275.339
 31
7
  0
LINE
  5
BA3
330
A02
100
AcDbEntity
  8
Mesh_cs002
100
AcDbLine
 10
173.394
 20
275.339
 30
7
 11
173.27
 21
275.386
 31
7
  0
LINE
  5
BA4
330
A02
100
AcDbEntity
  8
Mesh_cs002
100
AcDbLine
 10
173.27
 20
275.386
 30
7
 11
173.055
 21
275.468
 31
7
  0
LINE
  5
BA5
330
A02
100
AcDbEntity
  8
Mesh_cs002
100
AcDbLine
 10
173.055
 20
275.468
 30
7
 11
172.935
 21
275.523
 31
7
  0
LINE
  5
BA6
330
A02
100
AcDbEntity
  8
Mesh_cs002
100
AcDbLine
 10
172.935
 20
275.523
 30
7
 11
172.724
 21
275.622
 31
7
  0
LINE
  5
BA7
330
A02
100
AcDbEntity
  8
Mesh_cs002
100
AcDbLine
 10
172.724
 20
275.622
 30
7
 11
172.608
 21
275.686
 31
7
  0
LINE
  5
BA8
330
A02
100
AcDbEntity
  8
Mesh_cs002
100
AcDbLine
 10
172.608
 20
275.686
 30
7
 11
172.402
 21
275.802
 31
7
  0
LINE
  5
BA9
330
A02
100
AcDbEntity
  8
Mesh_cs002
100
AcDbLine
 10
172.402
 20
275.802
 30
7
 11
172.291
 21
275.874
 31
7
  0
LINE
  5
BAA
330
A02
100
AcDbEntity
  8
Mesh_cs002
100
AcDbLine
 10
172.291
 20
275.874
 30
7
 11
172.093
 21
276.006
 31
7
  0
LINE
  5
BAB
330
A02
100
AcDbEntity
  8
Mesh_cs002
100
AcDbLine
 10
172.093
 20
276.006
 30
7
 11
171.987
 21
276.085
 31
7
  0
LINE
  5
BAC
330
A02
100
AcDbEntity
  8
Mesh_cs002
100
AcDbLine
 10
171.987
 20
276.085
 30
7
 11
171.799
 21
276.234
 31
7
  0
LINE
  5
BAD
330
A02
100
AcDbEntity
  8
Mesh_cs002
100
AcDbLine
 10
171.799
 20
276.234
 30
7
 11
171.7
 21
276.32
 31
7
  0
LINE
  5
BAE
330
A02
100
AcDbEntity
  8
Mesh_cs002
100
AcDbLine
 10
171.7
 20
276.32
 30
7
 11
171.523
 21
276.482
 31
7
  0
LINE
  5
BAF
330
A02
100
AcDbEntity
  8
Mesh_cs002
100
AcDbLine
 10
171.523
 20
276.482
 30
7
 11
171.43
 21
276.574
 31
7
  0
LINE
  5
BB0
330
A02
100
AcDbEntity
  8
Mesh_cs002
100
AcDbLine
 10
171.43
 20
276.574
 30
7
 11
171.267
 21
276.75
 31
7
  0
LINE
  5
BB1
330
A02
100
AcDbEntity
  8
Mesh_cs002
100
AcDbLine
 10
171.267
 20
276.75
 30
7
 11
171.181
 21
276.847
 31
7
  0
LINE
  5
BB2
330
A02
100
AcDbEntity
  8
Mesh_cs002
100
AcDbLine
 10
171.181
 20
276.847
 30
7
 11
171.032
 21
277.034
 31
7
  0
LINE
  5
BB3
330
A02
100
AcDbEntity
  8
Mesh_cs002
100
AcDbLine
 10
171.032
 20
277.034
 30
7
 11
170.955
 21
277.136
 31
7
  0
LINE
  5
BB4
330
A02
100
AcDbEntity
  8
Mesh_cs002
100
AcDbLine
 10
170.955
 20
277.136
 30
7
 11
170.821
 21
277.333
 31
7
  0
LINE
  5
BB5
330
A02
100
AcDbEntity
  8
Mesh_cs002
100
AcDbLine
 10
170.821
 20
277.333
 30
7
 11
170.752
 21
277.438
 31
7
  0
LINE
  5
BB6
330
A02
100
AcDbEntity
  8
Mesh_cs002
100
AcDbLine
 10
170.752
 20
277.438
 30
7
 11
170.634
 21
277.642
 31
7
  0
LINE
  5
BB7
330
A02
100
AcDbEntity
  8
Mesh_cs002
100
AcDbLine
 10
170.634
 20
277.642
 30
7
 11
170.573
 21
277.75
 31
7
  0
LINE
  5
BB8
330
A02
100
AcDbEntity
  8
Mesh_cs002
100
AcDbLine
 10
170.573
 20
277.75
 30
7
 11
170.52
 21
277.859
 31
7
  0
LINE
  5
BB9
330
A02
100
AcDbEntity
  8
Mesh_cs002
100
AcDbLine
 10
170.52
 20
277.859
 30
7
 11
170.42
 21
278.069
 31
7
  0
LINE
  5
BBA
330
A02
100
AcDbEntity
  8
Mesh_cs002
100
AcDbLine
 10
170.42
 20
278.069
 30
7
 11
170.375
 21
278.18
 31
7
  0
LINE
  5
BBB
330
A02
100
AcDbEntity
  8
Mesh_cs002
100
AcDbLine
 10
170.375
 20
278.18
 30
7
 11
170.291
 21
278.394
 31
7
  0
LINE
  5
BBC
330
A02
100
AcDbEntity
  8
Mesh_cs002
100
AcDbLine
 10
170.291
 20
278.394
 30
7
 11
170.254
 21
278.504
 31
7
  0
LINE
  5
BBD
330
A02
100
AcDbEntity
  8
Mesh_cs002
100
AcDbLine
 10
170.254
 20
278.504
 30
7
 11
170.181
 21
278.744
 31
7
  0
LINE
  5
BBE
330
A02
100
AcDbEntity
  8
Mesh_cs002
100
AcDbLine
 10
170.181
 20
278.744
 30
7
 11
170.151
 21
278.854
 31
7
  0
LINE
  5
BBF
330
A02
100
AcDbEntity
  8
Mesh_cs002
100
AcDbLine
 10
170.151
 20
278.854
 30
7
 11
170.094
 21
279.12
 31
7
  0
LINE
  5
BC0
330
A02
100
AcDbEntity
  8
Mesh_cs002
100
AcDbLine
 10
170.094
 20
279.12
 30
7
 11
170.072
 21
279.229
 31
7
  0
LINE
  5
BC1
330
A02
100
AcDbEntity
  8
Mesh_cs002
100
AcDbLine
 10
170.072
 20
279.229
 30
7
 11
170.056
 21
279.335
 31
7
  0
LINE
  5
BC2
330
A02
100
AcDbEntity
  8
Mesh_cs002
100
AcDbLine
 10
170.056
 20
279.335
 30
7
 11
170.023
 21
279.598
 31
7
  0
LINE
  5
BC3
330
A02
100
AcDbEntity
  8
Mesh_cs002
100
AcDbLine
 10
170.023
 20
279.598
 30
7
 11
170.014
 21
279.702
 31
7
  0
LINE
  5
BC4
330
A02
100
AcDbEntity
  8
Mesh_cs002
100
AcDbLine
 10
170.014
 20
279.702
 30
7
 11
170.011
 21
279.76
 31
7
  0
LINE
  5
BC5
330
A02
100
AcDbEntity
  8
Mesh_cs002
100
AcDbLine
 10
170.011
 20
279.76
 30
7
 11
170.001
 21
280.017
 31
7
  0
LINE
  5
BC6
330
A02
100
AcDbEntity
  8
Mesh_cs002
100
AcDbLine
 10
170.001
 20
280.017
 30
7
 11
170
 21
280.074
 31
7
  0
LINE
  5
BC7
330
A02
100
AcDbEntity
  8
Mesh_cs002
100
AcDbLine
 10
170
 20
280.074
 30
7
 11
170.006
 21
280.229
 31
7
  0
LINE
  5
BC8
330
A02
100
AcDbEntity
  8
Mesh_cs002
100
AcDbLine
 10
170.006
 20
280.229
 30
7
 11
170.017
 21
280.489
 31
7
  0
LINE
  5
BC9
330
A02
100
AcDbEntity
  8
Mesh_cs002
100
AcDbLine
 10
170.017
 20
280.489
 30
7
 11
170.047
 21
280.733
 31
7
  0
LINE
  5
BCA
330
A02
100
AcDbEntity
  8
Mesh_cs002
100
AcDbLine
 10
170.047
 20
280.733
 30
7
 11
170.068
 21
280.894
 31
7
  0
LINE
  5
BCB
330
A02
100
AcDbEntity
  8
Mesh_cs002
100
AcDbLine
 10
170.068
 20
280.894
 30
7
 11
170.113
 21
281.121
 31
7
  0
LINE
  5
BCC
330
A02
100
AcDbEntity
  8
Mesh_cs002
100
AcDbLine
 10
170.113
 20
281.121
 30
7
 11
170.145
 21
281.269
 31
7
  0
LINE
  5
BCD
330
A02
100
AcDbEntity
  8
Mesh_cs002
100
AcDbLine
 10
170.145
 20
281.269
 30
7
 11
170.21
 21
281.5
 31
7
  0
LINE
  5
BCE
330
A02
100
AcDbEntity
  8
Mesh_cs002
100
AcDbLine
 10
170.21
 20
281.5
 30
7
 11
170.25
 21
281.636
 31
7
  0
LINE
  5
BCF
330
A02
100
AcDbEntity
  8
Mesh_cs002
100
AcDbLine
 10
170.25
 20
281.636
 30
7
 11
170.336
 21
281.869
 31
7
  0
LINE
  5
BD0
330
A02
100
AcDbEntity
  8
Mesh_cs002
100
AcDbLine
 10
170.336
 20
281.869
 30
7
 11
170.388
 21
282.005
 31
7
  0
LINE
  5
BD1
330
A02
100
AcDbEntity
  8
Mesh_cs002
100
AcDbLine
 10
170.388
 20
282.005
 30
7
 11
170.496
 21
282.239
 31
7
  0
LINE
  5
BD2
330
A02
100
AcDbEntity
  8
Mesh_cs002
100
AcDbLine
 10
170.496
 20
282.239
 30
7
 11
170.56
 21
282.374
 31
7
  0
LINE
  5
BD3
330
A02
100
AcDbEntity
  8
Mesh_cs002
100
AcDbLine
 10
170.56
 20
282.374
 30
7
 11
170.691
 21
282.604
 31
7
  0
LINE
  5
BD4
330
A02
100
AcDbEntity
  8
Mesh_cs002
100
AcDbLine
 10
170.691
 20
282.604
 30
7
 11
170.768
 21
282.737
 31
7
  0
LINE
  5
BD5
330
A02
100
AcDbEntity
  8
Mesh_cs002
100
AcDbLine
 10
170.768
 20
282.737
 30
7
 11
170.922
 21
282.961
 31
7
  0
LINE
  5
BD6
330
A02
100
AcDbEntity
  8
Mesh_cs002
100
AcDbLine
 10
170.922
 20
282.961
 30
7
 11
171.011
 21
283.089
 31
7
  0
LINE
  5
BD7
330
A02
100
AcDbEntity
  8
Mesh_cs002
100
AcDbLine
 10
171.011
 20
283.089
 30
7
 11
171.171
 21
283.284
 31
7
  0
LINE
  5
BD8
330
A02
100
AcDbEntity
  8
Mesh_cs002
100
AcDbLine
 10
171.171
 20
283.284
 30
7
 11
171.272
 21
283.406
 31
7
  0
LINE
  5
BD9
330
A02
100
AcDbEntity
  8
Mesh_cs002
100
AcDbLine
 10
171.272
 20
283.406
 30
7
 11
171.431
 21
283.572
 31
7
  0
LINE
  5
BDA
330
A02
100
AcDbEntity
  8
Mesh_cs002
100
AcDbLine
 10
171.431
 20
283.572
 30
7
 11
171.544
 21
283.687
 31
7
  0
LINE
  5
BDB
330
A02
100
AcDbEntity
  8
Mesh_cs002
100
AcDbLine
 10
171.544
 20
283.687
 30
7
 11
171.717
 21
283.843
 31
7
  0
LINE
  5
BDC
330
A02
100
AcDbEntity
  8
Mesh_cs002
100
AcDbLine
 10
171.717
 20
283.843
 30
7
 11
171.84
 21
283.949
 31
7
  0
LINE
  5
BDD
330
A02
100
AcDbEntity
  8
Mesh_cs002
100
AcDbLine
 10
171.84
 20
283.949
 30
7
 11
172.027
 21
284.093
 31
7
  0
LINE
  5
BDE
330
A02
100
AcDbEntity
  8
Mesh_cs002
100
AcDbLine
 10
172.027
 20
284.093
 30
7
 11
172.16
 21
284.188
 31
7
  0
LINE
  5
BDF
330
A02
100
AcDbEntity
  8
Mesh_cs002
100
AcDbLine
 10
172.16
 20
284.188
 30
7
 11
172.359
 21
284.319
 31
7
  0
LINE
  5
BE0
330
A02
100
AcDbEntity
  8
Mesh_cs002
100
AcDbLine
 10
172.359
 20
284.319
 30
7
 11
172.486
 21
284.395
 31
7
  0
LINE
  5
BE1
330
A02
100
AcDbEntity
  8
Mesh_cs002
100
AcDbLine
 10
172.486
 20
284.395
 30
7
 11
172.695
 21
284.511
 31
7
  0
LINE
  5
BE2
330
A02
100
AcDbEntity
  8
Mesh_cs002
100
AcDbLine
 10
172.695
 20
284.511
 30
7
 11
172.814
 21
284.57
 31
7
  0
LINE
  5
BE3
330
A02
100
AcDbEntity
  8
Mesh_cs002
100
AcDbLine
 10
172.814
 20
284.57
 30
7
 11
173.032
 21
284.67
 31
7
  0
LINE
  5
BE4
330
A02
100
AcDbEntity
  8
Mesh_cs002
100
AcDbLine
 10
173.032
 20
284.67
 30
7
 11
173.154
 21
284.72
 31
7
  0
LINE
  5
BE5
330
A02
100
AcDbEntity
  8
Mesh_cs002
100
AcDbLine
 10
173.154
 20
284.72
 30
7
 11
173.38
 21
284.803
 31
7
  0
LINE
  5
BE6
330
A02
100
AcDbEntity
  8
Mesh_cs002
100
AcDbLine
 10
173.38
 20
284.803
 30
7
 11
173.504
 21
284.845
 31
7
  0
LINE
  5
BE7
330
A02
100
AcDbEntity
  8
Mesh_cs002
100
AcDbLine
 10
173.504
 20
284.845
 30
7
 11
173.735
 21
284.91
 31
7
  0
LINE
  5
BE8
330
A02
100
AcDbEntity
  8
Mesh_cs002
100
AcDbLine
 10
173.735
 20
284.91
 30
7
 11
173.861
 21
284.942
 31
7
  0
LINE
  5
BE9
330
A02
100
AcDbEntity
  8
Mesh_cs002
100
AcDbLine
 10
173.861
 20
284.942
 30
7
 11
174.094
 21
284.989
 31
7
  0
LINE
  5
BEA
330
A02
100
AcDbEntity
  8
Mesh_cs002
100
AcDbLine
 10
174.094
 20
284.989
 30
7
 11
174.221
 21
285.013
 31
7
  0
LINE
  5
BEB
330
A02
100
AcDbEntity
  8
Mesh_cs002
100
AcDbLine
 10
174.221
 20
285.013
 30
7
 11
174.455
 21
285.042
 31
7
  0
LINE
  5
BEC
330
A02
100
AcDbEntity
  8
Mesh_cs002
100
AcDbLine
 10
174.455
 20
285.042
 30
7
 11
174.581
 21
285.057
 31
7
  0
LINE
  5
BED
330
A02
100
AcDbEntity
  8
Mesh_cs002
100
AcDbLine
 10
174.581
 20
285.057
 30
7
 11
174.814
 21
285.068
 31
7
  0
LINE
  5
BEE
330
A02
100
AcDbEntity
  8
Mesh_cs002
100
AcDbLine
 10
174.814
 20
285.068
 30
7
 11
174.94
 21
285.074
 31
7
  0
LINE
  5
BEF
330
A02
100
AcDbEntity
  8
Mesh_cs002
100
AcDbLine
 10
174.94
 20
285.074
 30
7
 11
175.063
 21
285.071
 31
7
  0
LINE
  5
BF0
330
A02
100
AcDbEntity
  8
Mesh_cs002
100
AcDbLine
 10
175.063
 20
285.071
 30
7
 11
175.292
 21
285.066
 31
7
  0
LINE
  5
BF1
330
A02
100
AcDbEntity
  8
Mesh_cs002
100
AcDbLine
 10
175.292
 20
285.066
 30
7
 11
175.413
 21
285.055
 31
7
  0
LINE
  5
BF2
330
A02
100
AcDbEntity
  8
Mesh_cs002
100
AcDbLine
 10
175.413
 20
285.055
 30
7
 11
175.638
 21
285.033
 31
7
  0
LINE
  5
BF3
330
A02
100
AcDbEntity
  8
Mesh_cs002
100
AcDbLine
 10
175.638
 20
285.033
 30
7
 11
175.755
 21
285.016
 31
7
  0
LINE
  5
BF4
330
A02
100
AcDbEntity
  8
Mesh_cs002
100
AcDbLine
 10
175.755
 20
285.016
 30
7
 11
175.973
 21
284.978
 31
7
  0
LINE
  5
BF5
330
A02
100
AcDbEntity
  8
Mesh_cs002
100
AcDbLine
 10
175.973
 20
284.978
 30
7
 11
176.087
 21
284.954
 31
7
  0
LINE
  5
BF6
330
A02
100
AcDbEntity
  8
Mesh_cs002
100
AcDbLine
 10
176.087
 20
284.954
 30
7
 11
176.297
 21
284.902
 31
7
  0
LINE
  5
BF7
330
A02
100
AcDbEntity
  8
Mesh_cs002
100
AcDbLine
 10
176.297
 20
284.902
 30
7
 11
176.406
 21
284.872
 31
7
  0
LINE
  5
BF8
330
A02
100
AcDbEntity
  8
Mesh_cs002
100
AcDbLine
 10
176.406
 20
284.872
 30
7
 11
176.608
 21
284.808
 31
7
  0
LINE
  5
BF9
330
A02
100
AcDbEntity
  8
Mesh_cs002
100
AcDbLine
 10
176.608
 20
284.808
 30
7
 11
176.712
 21
284.772
 31
7
  0
LINE
  5
BFA
330
A02
100
AcDbEntity
  8
Mesh_cs002
100
AcDbLine
 10
176.712
 20
284.772
 30
7
 11
176.904
 21
284.696
 31
7
  0
LINE
  5
BFB
330
A02
100
AcDbEntity
  8
Mesh_cs002
100
AcDbLine
 10
176.904
 20
284.696
 30
7
 11
177.003
 21
284.655
 31
7
  0
LINE
  5
BFC
330
A02
100
AcDbEntity
  8
Mesh_cs002
100
AcDbLine
 10
177.003
 20
284.655
 30
7
 11
177.184
 21
284.57
 31
7
  0
LINE
  5
BFD
330
A02
100
AcDbEntity
  8
Mesh_cs002
100
AcDbLine
 10
177.184
 20
284.57
 30
7
 11
177.278
 21
284.525
 31
7
  0
LINE
  5
BFE
330
A02
100
AcDbEntity
  8
Mesh_cs002
100
AcDbLine
 10
177.278
 20
284.525
 30
7
 11
177.367
 21
284.477
 31
7
  0
LINE
  5
BFF
330
A02
100
AcDbEntity
  8
Mesh_cs002
100
AcDbLine
 10
177.367
 20
284.477
 30
7
 11
177.538
 21
284.382
 31
7
  0
LINE
  5
C00
330
A02
100
AcDbEntity
  8
Mesh_cs002
100
AcDbLine
 10
177.538
 20
284.382
 30
7
 11
177.624
 21
284.329
 31
7
  0
LINE
  5
C01
330
A02
100
AcDbEntity
  8
Mesh_cs002
100
AcDbLine
 10
177.624
 20
284.329
 30
7
 11
177.783
 21
284.228
 31
7
  0
LINE
  5
C02
330
A02
100
AcDbEntity
  8
Mesh_cs002
100
AcDbLine
 10
177.783
 20
284.228
 30
7
 11
177.869
 21
284.168
 31
7
  0
LINE
  5
C03
330
A02
100
AcDbEntity
  8
Mesh_cs002
100
AcDbLine
 10
177.869
 20
284.168
 30
7
 11
178.017
 21
284.061
 31
7
  0
LINE
  5
C04
330
A02
100
AcDbEntity
  8
Mesh_cs002
100
AcDbLine
 10
178.017
 20
284.061
 30
7
 11
178.102
 21
283.995
 31
7
  0
LINE
  5
C05
330
A02
100
AcDbEntity
  8
Mesh_cs002
100
AcDbLine
 10
178.102
 20
283.995
 30
7
 11
178.239
 21
283.883
 31
7
  0
LINE
  5
C06
330
A02
100
AcDbEntity
  8
Mesh_cs002
100
AcDbLine
 10
178.239
 20
283.883
 30
7
 11
178.322
 21
283.81
 31
7
  0
LINE
  5
C07
330
A02
100
AcDbEntity
  8
Mesh_cs002
100
AcDbLine
 10
178.322
 20
283.81
 30
7
 11
178.448
 21
283.695
 31
7
  0
LINE
  5
C08
330
A02
100
AcDbEntity
  8
Mesh_cs002
100
AcDbLine
 10
178.448
 20
283.695
 30
7
 11
178.529
 21
283.615
 31
7
  0
LINE
  5
C09
330
A02
100
AcDbEntity
  8
Mesh_cs002
100
AcDbLine
 10
178.529
 20
283.615
 30
7
 11
178.646
 21
283.495
 31
7
  0
LINE
  5
C0A
330
A02
100
AcDbEntity
  8
Mesh_cs002
100
AcDbLine
 10
178.646
 20
283.495
 30
7
 11
178.723
 21
283.409
 31
7
  0
LINE
  5
C0B
330
A02
100
AcDbEntity
  8
Mesh_cs002
100
AcDbLine
 10
178.723
 20
283.409
 30
7
 11
178.838
 21
283.279
 31
7
  0
LINE
  5
C0C
330
A02
100
AcDbEntity
  8
Mesh_cs002
100
AcDbLine
 10
178.838
 20
283.279
 30
7
 11
178.948
 21
283.138
 31
7
  0
LINE
  5
C0D
330
A02
100
AcDbEntity
  8
Mesh_cs002
100
AcDbLine
 10
178.948
 20
283.138
 30
7
 11
179.022
 21
283.045
 31
7
  0
LINE
  5
C0E
330
A02
100
AcDbEntity
  8
Mesh_cs002
100
AcDbLine
 10
179.022
 20
283.045
 30
7
 11
179.127
 21
282.893
 31
7
  0
LINE
  5
C0F
330
A02
100
AcDbEntity
  8
Mesh_cs002
100
AcDbLine
 10
179.127
 20
282.893
 30
7
 11
179.196
 21
282.793
 31
7
  0
LINE
  5
C10
330
A02
100
AcDbEntity
  8
Mesh_cs002
100
AcDbLine
 10
179.196
 20
282.793
 30
7
 11
179.295
 21
282.631
 31
7
  0
LINE
  5
C11
330
A02
100
AcDbEntity
  8
Mesh_cs002
100
AcDbLine
 10
179.295
 20
282.631
 30
7
 11
179.358
 21
282.524
 31
7
  0
LINE
  5
C12
330
A02
100
AcDbEntity
  8
Mesh_cs002
100
AcDbLine
 10
179.358
 20
282.524
 30
7
 11
179.45
 21
282.351
 31
7
  0
LINE
  5
C13
330
A02
100
AcDbEntity
  8
Mesh_cs002
100
AcDbLine
 10
179.45
 20
282.351
 30
7
 11
179.507
 21
282.238
 31
7
  0
LINE
  5
C14
330
A02
100
AcDbEntity
  8
Mesh_cs002
100
AcDbLine
 10
179.507
 20
282.238
 30
7
 11
179.59
 21
282.054
 31
7
  0
LINE
  5
C15
330
A02
100
AcDbEntity
  8
Mesh_cs002
100
AcDbLine
 10
179.59
 20
282.054
 30
7
 11
179.64
 21
281.936
 31
7
  0
LINE
  5
C16
330
A02
100
AcDbEntity
  8
Mesh_cs002
100
AcDbLine
 10
179.64
 20
281.936
 30
7
 11
179.713
 21
281.742
 31
7
  0
LINE
  5
C17
330
A02
100
AcDbEntity
  8
Mesh_cs002
100
AcDbLine
 10
179.713
 20
281.742
 30
7
 11
179.755
 21
281.62
 31
7
  0
LINE
  5
C18
330
A02
100
AcDbEntity
  8
Mesh_cs002
100
AcDbLine
 10
179.755
 20
281.62
 30
7
 11
179.816
 21
281.415
 31
7
  0
LINE
  5
C19
330
A02
100
AcDbEntity
  8
Mesh_cs002
100
AcDbLine
 10
179.816
 20
281.415
 30
7
 11
179.85
 21
281.289
 31
7
  0
LINE
  5
C1A
330
A02
100
AcDbEntity
  8
Mesh_cs002
100
AcDbLine
 10
179.85
 20
281.289
 30
7
 11
179.897
 21
281.076
 31
7
  0
LINE
  5
C1B
330
A02
100
AcDbEntity
  8
Mesh_cs002
100
AcDbLine
 10
179.897
 20
281.076
 30
7
 11
179.923
 21
280.947
 31
7
  0
LINE
  5
C1C
330
A02
100
AcDbEntity
  8
Mesh_cs002
100
AcDbLine
 10
179.923
 20
280.947
 30
7
 11
179.956
 21
280.727
 31
7
  0
LINE
  5
C1D
330
A02
100
AcDbEntity
  8
Mesh_cs002
100
AcDbLine
 10
179.956
 20
280.727
 30
7
 11
179.972
 21
280.595
 31
7
  0
LINE
  5
C1E
330
A02
100
AcDbEntity
  8
Mesh_cs002
100
AcDbLine
 10
179.972
 20
280.595
 30
7
 11
179.99
 21
280.369
 31
7
  0
LINE
  5
C1F
330
A02
100
AcDbEntity
  8
Mesh_cs002
100
AcDbLine
 10
179.99
 20
280.369
 30
7
 11
179.997
 21
280.236
 31
7
  0
LINE
  5
C20
330
A02
100
AcDbEntity
  8
Mesh_cs002
100
AcDbLine
 10
179.997
 20
280.236
 30
7
 11
179.998
 21
280.006
 31
7
  0
LINE
  5
C21
330
A02
100
AcDbEntity
  8
Mesh_cs002
100
AcDbLine
 10
179.998
 20
280.006
 30
7
 11
179.996
 21
279.873
 31
7
  0
LINE
  5
C22
330
A02
100
AcDbEntity
  8
Mesh_cs002
100
AcDbLine
 10
179.996
 20
279.873
 30
7
 11
179.979
 21
279.639
 31
7
  0
LINE
  5
C23
330
A02
100
AcDbEntity
  8
Mesh_cs002
100
AcDbLine
 10
179.979
 20
279.639
 30
7
 11
179.968
 21
279.507
 31
7
  0
LINE
  5
C24
330
A02
100
AcDbEntity
  8
Mesh_cs002
100
AcDbLine
 10
179.968
 20
20.5668
 30
7
 11
179.933
 21
20.8007
 31
7
  0
LINE
  5
C25
330
A02
100
AcDbEntity
  8
Mesh_cs002
100
AcDbLine
 10
179.933
 20
20.8007
 30
7
 11
179.912
 21
20.931
 31
7
  0
LINE
  5
C26
330
A02
100
AcDbEntity
  8
Mesh_cs002
100
AcDbLine
 10
179.912
 20
20.931
 30
7
 11
179.86
 21
21.1636
 31
7
  0
LINE
  5
C27
330
A02
100
AcDbEntity
  8
Mesh_cs002
100
AcDbLine
 10
179.86
 20
21.1636
 30
7
 11
179.83
 21
21.2913
 31
7
  0
LINE
  5
C28
330
A02
100
AcDbEntity
  8
Mesh_cs002
100
AcDbLine
 10
179.83
 20
21.2913
 30
7
 11
179.76
 21
21.5203
 31
7
  0
LINE
  5
C29
330
A02
100
AcDbEntity
  8
Mesh_cs002
100
AcDbLine
 10
179.76
 20
21.5203
 30
7
 11
179.722
 21
21.6444
 31
7
  0
LINE
  5
C2A
330
A02
100
AcDbEntity
  8
Mesh_cs002
100
AcDbLine
 10
179.722
 20
21.6444
 30
7
 11
179.676
 21
21.7642
 31
7
  0
LINE
  5
C2B
330
A02
100
AcDbEntity
  8
Mesh_cs002
100
AcDbLine
 10
179.676
 20
21.7642
 30
7
 11
179.588
 21
21.9877
 31
7
  0
LINE
  5
C2C
330
A02
100
AcDbEntity
  8
Mesh_cs002
100
AcDbLine
 10
179.588
 20
21.9877
 30
7
 11
179.534
 21
22.1024
 31
7
  0
LINE
  5
C2D
330
A02
100
AcDbEntity
  8
Mesh_cs002
100
AcDbLine
 10
179.534
 20
22.1024
 30
7
 11
179.43
 21
22.3184
 31
7
  0
LINE
  5
C2E
330
A02
100
AcDbEntity
  8
Mesh_cs002
100
AcDbLine
 10
179.43
 20
22.3184
 30
7
 11
179.37
 21
22.4275
 31
7
  0
LINE
  5
C2F
330
A02
100
AcDbEntity
  8
Mesh_cs002
100
AcDbLine
 10
179.37
 20
22.4275
 30
7
 11
179.249
 21
22.634
 31
7
  0
LINE
  5
C30
330
A02
100
AcDbEntity
  8
Mesh_cs002
100
AcDbLine
 10
179.249
 20
22.634
 30
7
 11
179.183
 21
22.7371
 31
7
  0
LINE
  5
C31
330
A02
100
AcDbEntity
  8
Mesh_cs002
100
AcDbLine
 10
179.183
 20
22.7371
 30
7
 11
179.049
 21
22.9325
 31
7
  0
LINE
  5
C32
330
A02
100
AcDbEntity
  8
Mesh_cs002
100
AcDbLine
 10
179.049
 20
22.9325
 30
7
 11
178.978
 21
23.0292
 31
7
  0
LINE
  5
C33
330
A02
100
AcDbEntity
  8
Mesh_cs002
100
AcDbLine
 10
178.978
 20
23.0292
 30
7
 11
178.83
 21
23.2122
 31
7
  0
LINE
  5
C34
330
A02
100
AcDbEntity
  8
Mesh_cs002
100
AcDbLine
 10
178.83
 20
23.2122
 30
7
 11
178.754
 21
23.3021
 31
7
  0
LINE
  5
C35
330
A02
100
AcDbEntity
  8
Mesh_cs002
100
AcDbLine
 10
178.754
 20
23.3021
 30
7
 11
178.595
 21
23.4714
 31
7
  0
LINE
  5
C36
330
A02
100
AcDbEntity
  8
Mesh_cs002
100
AcDbLine
 10
178.595
 20
23.4714
 30
7
 11
178.516
 21
23.5546
 31
7
  0
LINE
  5
C37
330
A02
100
AcDbEntity
  8
Mesh_cs002
100
AcDbLine
 10
178.516
 20
23.5546
 30
7
 11
178.435
 21
23.6309
 31
7
  0
LINE
  5
C38
330
A02
100
AcDbEntity
  8
Mesh_cs002
100
AcDbLine
 10
178.435
 20
23.6309
 30
7
 11
178.266
 21
23.7857
 31
7
  0
LINE
  5
C39
330
A02
100
AcDbEntity
  8
Mesh_cs002
100
AcDbLine
 10
178.266
 20
23.7857
 30
7
 11
178.182
 21
23.8552
 31
7
  0
LINE
  5
C3A
330
A02
100
AcDbEntity
  8
Mesh_cs002
100
AcDbLine
 10
178.182
 20
23.8552
 30
7
 11
178.006
 21
23.9949
 31
7
  0
LINE
  5
C3B
330
A02
100
AcDbEntity
  8
Mesh_cs002
100
AcDbLine
 10
178.006
 20
23.9949
 30
7
 11
177.921
 21
24.0577
 31
7
  0
LINE
  5
C3C
330
A02
100
AcDbEntity
  8
Mesh_cs002
100
AcDbLine
 10
177.921
 20
24.0577
 30
7
 11
177.739
 21
24.182
 31
7
  0
LINE
  5
C3D
330
A02
100
AcDbEntity
  8
Mesh_cs002
100
AcDbLine
 10
177.739
 20
24.182
 30
7
 11
177.653
 21
24.2383
 31
7
  0
LINE
  5
C3E
330
A02
100
AcDbEntity
  8
Mesh_cs002
100
AcDbLine
 10
177.653
 20
24.2383
 30
7
 11
177.466
 21
24.3471
 31
7
  0
LINE
  5
C3F
330
A02
100
AcDbEntity
  8
Mesh_cs002
100
AcDbLine
 10
177.466
 20
24.3471
 30
7
 11
177.379
 21
24.3975
 31
7
  0
LINE
  5
C40
330
A02
100
AcDbEntity
  8
Mesh_cs002
100
AcDbLine
 10
177.379
 20
24.3975
 30
7
 11
177.288
 21
24.4441
 31
7
  0
LINE
  5
C41
330
A02
100
AcDbEntity
  8
Mesh_cs002
100
AcDbLine
 10
177.288
 20
24.4441
 30
7
 11
177.1
 21
24.5376
 31
7
  0
LINE
  5
C42
330
A02
100
AcDbEntity
  8
Mesh_cs002
100
AcDbLine
 10
177.1
 20
24.5376
 30
7
 11
177.003
 21
24.5803
 31
7
  0
LINE
  5
C43
330
A02
100
AcDbEntity
  8
Mesh_cs002
100
AcDbLine
 10
177.003
 20
24.5803
 30
7
 11
176.814
 21
24.6591
 31
7
  0
LINE
  5
C44
330
A02
100
AcDbEntity
  8
Mesh_cs002
100
AcDbLine
 10
176.814
 20
24.6591
 30
7
 11
176.712
 21
24.6972
 31
7
  0
LINE
  5
C45
330
A02
100
AcDbEntity
  8
Mesh_cs002
100
AcDbLine
 10
176.712
 20
24.6972
 30
7
 11
176.523
 21
24.7617
 31
7
  0
LINE
  5
C46
330
A02
100
AcDbEntity
  8
Mesh_cs002
100
AcDbLine
 10
176.523
 20
24.7617
 30
7
 11
176.417
 21
24.7947
 31
7
  0
LINE
  5
C47
330
A02
100
AcDbEntity
  8
Mesh_cs002
100
AcDbLine
 10
176.417
 20
24.7947
 30
7
 11
176.23
 21
24.8456
 31
7
  0
LINE
  5
C48
330
A02
100
AcDbEntity
  8
Mesh_cs002
100
AcDbLine
 10
176.23
 20
24.8456
 30
7
 11
176.119
 21
24.8728
 31
7
  0
LINE
  5
C49
330
A02
100
AcDbEntity
  8
Mesh_cs002
100
AcDbLine
 10
176.119
 20
24.8728
 30
7
 11
175.935
 21
24.9111
 31
7
  0
LINE
  5
C4A
330
A02
100
AcDbEntity
  8
Mesh_cs002
100
AcDbLine
 10
175.935
 20
24.9111
 30
7
 11
175.82
 21
24.9319
 31
7
  0
LINE
  5
C4B
330
A02
100
AcDbEntity
  8
Mesh_cs002
100
AcDbLine
 10
175.82
 20
24.9319
 30
7
 11
175.64
 21
24.9583
 31
7
  0
LINE
  5
C4C
330
A02
100
AcDbEntity
  8
Mesh_cs002
100
AcDbLine
 10
175.64
 20
24.9583
 30
7
 11
175.521
 21
24.9721
 31
7
  0
LINE
  5
C4D
330
A02
100
AcDbEntity
  8
Mesh_cs002
100
AcDbLine
 10
175.521
 20
24.9721
 30
7
 11
175.346
 21
24.9877
 31
7
  0
LINE
  5
C4E
330
A02
100
AcDbEntity
  8
Mesh_cs002
100
AcDbLine
 10
175.346
 20
24.9877
 30
7
 11
175.224
 21
24.9939
 31
7
  0
LINE
  5
C4F
330
A02
100
AcDbEntity
  8
Mesh_cs002
100
AcDbLine
 10
175.224
 20
24.9939
 30
7
 11
175.128
 21
24.9983
 31
7
  0
LINE
  5
C50
330
A02
100
AcDbEntity
  8
Mesh_cs002
100
AcDbLine
 10
175.128
 20
24.9983
 30
7
 11
175.034
 21
24.9997
 31
7
  0
LINE
  5
C51
330
A02
100
AcDbEntity
  8
Mesh_cs002
100
AcDbLine
 10
175.034
 20
24.9997
 30
7
 11
174.909
 21
24.9978
 31
7
  0
LINE
  5
C52
330
A02
100
AcDbEntity
  8
Mesh_cs002
100
AcDbLine
 10
174.909
 20
24.9978
 30
7
 11
174.729
 21
24.9926
 31
7
  0
LINE
  5
C53
330
A02
100
AcDbEntity
  8
Mesh_cs002
100
AcDbLine
 10
174.729
 20
24.9926
 30
7
 11
174.603
 21
24.9822
 31
7
  0
LINE
  5
C54
330
A02
100
AcDbEntity
  8
Mesh_cs002
100
AcDbLine
 10
174.603
 20
24.9822
 30
7
 11
174.419
 21
24.9662
 31
7
  0
LINE
  5
C55
330
A02
100
AcDbEntity
  8
Mesh_cs002
100
AcDbLine
 10
174.419
 20
24.9662
 30
7
 11
174.292
 21
24.947
 31
7
  0
LINE
  5
C56
330
A02
100
AcDbEntity
  8
Mesh_cs002
100
AcDbLine
 10
174.292
 20
24.947
 30
7
 11
174.078
 21
24.9143
 31
7
  0
LINE
  5
C57
330
A02
100
AcDbEntity
  8
Mesh_cs002
100
AcDbLine
 10
174.078
 20
24.9143
 30
7
 11
173.951
 21
24.8861
 31
7
  0
LINE
  5
C58
330
A02
100
AcDbEntity
  8
Mesh_cs002
100
AcDbLine
 10
173.951
 20
24.8861
 30
7
 11
173.735
 21
24.8374
 31
7
  0
LINE
  5
C59
330
A02
100
AcDbEntity
  8
Mesh_cs002
100
AcDbLine
 10
173.735
 20
24.8374
 30
7
 11
173.61
 21
24.8002
 31
7
  0
LINE
  5
C5A
330
A02
100
AcDbEntity
  8
Mesh_cs002
100
AcDbLine
 10
173.61
 20
24.8002
 30
7
 11
173.394
 21
24.7349
 31
7
  0
LINE
  5
C5B
330
A02
100
AcDbEntity
  8
Mesh_cs002
100
AcDbLine
 10
173.394
 20
24.7349
 30
7
 11
173.27
 21
24.6886
 31
7
  0
LINE
  5
C5C
330
A02
100
AcDbEntity
  8
Mesh_cs002
100
AcDbLine
 10
173.27
 20
24.6886
 30
7
 11
173.055
 21
24.6063
 31
7
  0
LINE
  5
C5D
330
A02
100
AcDbEntity
  8
Mesh_cs002
100
AcDbLine
 10
173.055
 20
24.6063
 30
7
 11
172.935
 21
24.5512
 31
7
  0
LINE
  5
C5E
330
A02
100
AcDbEntity
  8
Mesh_cs002
100
AcDbLine
 10
172.935
 20
24.5512
 30
7
 11
172.724
 21
24.4519
 31
7
  0
LINE
  5
C5F
330
A02
100
AcDbEntity
  8
Mesh_cs002
100
AcDbLine
 10
172.724
 20
24.4519
 30
7
 11
172.608
 21
24.3883
 31
7
  0
LINE
  5
C60
330
A02
100
AcDbEntity
  8
Mesh_cs002
100
AcDbLine
 10
172.608
 20
24.3883
 30
7
 11
172.402
 21
24.2721
 31
7
  0
LINE
  5
C61
330
A02
100
AcDbEntity
  8
Mesh_cs002
100
AcDbLine
 10
172.402
 20
24.2721
 30
7
 11
172.291
 21
24.2004
 31
7
  0
LINE
  5
C62
330
A02
100
AcDbEntity
  8
Mesh_cs002
100
AcDbLine
 10
172.291
 20
24.2004
 30
7
 11
172.093
 21
24.0679
 31
7
  0
LINE
  5
C63
330
A02
100
AcDbEntity
  8
Mesh_cs002
100
AcDbLine
 10
172.093
 20
24.0679
 30
7
 11
171.987
 21
23.9887
 31
7
  0
LINE
  5
C64
330
A02
100
AcDbEntity
  8
Mesh_cs002
100
AcDbLine
 10
171.987
 20
23.9887
 30
7
 11
171.799
 21
23.8406
 31
7
  0
LINE
  5
C65
330
A02
100
AcDbEntity
  8
Mesh_cs002
100
AcDbLine
 10
171.799
 20
23.8406
 30
7
 11
171.7
 21
23.7546
 31
7
  0
LINE
  5
C66
330
A02
100
AcDbEntity
  8
Mesh_cs002
100
AcDbLine
 10
171.7
 20
23.7546
 30
7
 11
171.523
 21
23.592
 31
7
  0
LINE
  5
C67
330
A02
100
AcDbEntity
  8
Mesh_cs002
100
AcDbLine
 10
171.523
 20
23.592
 30
7
 11
171.43
 21
23.5
 31
7
  0
LINE
  5
C68
330
A02
100
AcDbEntity
  8
Mesh_cs002
100
AcDbLine
 10
171.43
 20
23.5
 30
7
 11
171.267
 21
23.3244
 31
7
  0
LINE
  5
C69
330
A02
100
AcDbEntity
  8
Mesh_cs002
100
AcDbLine
 10
171.267
 20
23.3244
 30
7
 11
171.181
 21
23.2271
 31
7
  0
LINE
  5
C6A
330
A02
100
AcDbEntity
  8
Mesh_cs002
100
AcDbLine
 10
171.181
 20
23.2271
 30
7
 11
171.032
 21
23.04
 31
7
  0
LINE
  5
C6B
330
A02
100
AcDbEntity
  8
Mesh_cs002
100
AcDbLine
 10
171.032
 20
23.04
 30
7
 11
170.955
 21
22.9384
 31
7
  0
LINE
  5
C6C
330
A02
100
AcDbEntity
  8
Mesh_cs002
100
AcDbLine
 10
170.955
 20
22.9384
 30
7
 11
170.821
 21
22.7416
 31
7
  0
LINE
  5
C6D
330
A02
100
AcDbEntity
  8
Mesh_cs002
100
AcDbLine
 10
170.821
 20
22.7416
 30
7
 11
170.752
 21
22.6366
 31
7
  0
LINE
  5
C6E
330
A02
100
AcDbEntity
  8
Mesh_cs002
100
AcDbLine
 10
170.752
 20
22.6366
 30
7
 11
170.634
 21
22.4319
 31
7
  0
LINE
  5
C6F
330
A02
100
AcDbEntity
  8
Mesh_cs002
100
AcDbLine
 10
170.634
 20
22.4319
 30
7
 11
170.573
 21
22.3244
 31
7
  0
LINE
  5
C70
330
A02
100
AcDbEntity
  8
Mesh_cs002
100
AcDbLine
 10
170.573
 20
22.3244
 30
7
 11
170.52
 21
22.2152
 31
7
  0
LINE
  5
C71
330
A02
100
AcDbEntity
  8
Mesh_cs002
100
AcDbLine
 10
170.52
 20
22.2152
 30
7
 11
170.42
 21
22.0047
 31
7
  0
LINE
  5
C72
330
A02
100
AcDbEntity
  8
Mesh_cs002
100
AcDbLine
 10
170.42
 20
22.0047
 30
7
 11
170.375
 21
21.8946
 31
7
  0
LINE
  5
C73
330
A02
100
AcDbEntity
  8
Mesh_cs002
100
AcDbLine
 10
170.375
 20
21.8946
 30
7
 11
170.291
 21
21.6804
 31
7
  0
LINE
  5
C74
330
A02
100
AcDbEntity
  8
Mesh_cs002
100
AcDbLine
 10
170.291
 20
21.6804
 30
7
 11
170.254
 21
21.5702
 31
7
  0
LINE
  5
C75
330
A02
100
AcDbEntity
  8
Mesh_cs002
100
AcDbLine
 10
170.254
 20
21.5702
 30
7
 11
170.181
 21
21.33
 31
7
  0
LINE
  5
C76
330
A02
100
AcDbEntity
  8
Mesh_cs002
100
AcDbLine
 10
170.181
 20
21.33
 30
7
 11
170.151
 21
21.2204
 31
7
  0
LINE
  5
C77
330
A02
100
AcDbEntity
  8
Mesh_cs002
100
AcDbLine
 10
170.151
 20
21.2204
 30
7
 11
170.094
 21
20.9539
 31
7
  0
LINE
  5
C78
330
A02
100
AcDbEntity
  8
Mesh_cs002
100
AcDbLine
 10
170.094
 20
20.9539
 30
7
 11
170.072
 21
20.8456
 31
7
  0
LINE
  5
C79
330
A02
100
AcDbEntity
  8
Mesh_cs002
100
AcDbLine
 10
170.072
 20
20.8456
 30
7
 11
170.056
 21
20.7391
 31
7
  0
LINE
  5
C7A
330
A02
100
AcDbEntity
  8
Mesh_cs002
100
AcDbLine
 10
170.056
 20
20.7391
 30
7
 11
170.023
 21
20.4759
 31
7
  0
LINE
  5
C7B
330
A02
100
AcDbEntity
  8
Mesh_cs002
100
AcDbLine
 10
170.023
 20
20.4759
 30
7
 11
170.014
 21
20.3717
 31
7
  0
LINE
  5
C7C
330
A02
100
AcDbEntity
  8
Mesh_cs002
100
AcDbLine
 10
170.014
 20
20.3717
 30
7
 11
170.011
 21
20.3139
 31
7
  0
LINE
  5
C7D
330
A02
100
AcDbEntity
  8
Mesh_cs002
100
AcDbLine
 10
170.011
 20
20.3139
 30
7
 11
170.001
 21
20.0569
 31
7
  0
LINE
  5
C7E
330
A02
100
AcDbEntity
  8
Mesh_cs002
100
AcDbLine
 10
170.001
 20
20.0569
 30
7
 11
170
 21
20
 31
7
  0
LINE
  5
C7F
330
A02
100
AcDbEntity
  8
Mesh_cs002
100
AcDbLine
 10
170
 20
20
 30
7
 11
170.006
 21
19.8448
 31
7
  0
LINE
  5
C80
330
A02
100
AcDbEntity
  8
Mesh_cs002
100
AcDbLine
 10
170.006
 20
19.8448
 30
7
 11
170.017
 21
19.585
 31
7
  0
LINE
  5
C81
330
A02
100
AcDbEntity
  8
Mesh_cs002
100
AcDbLine
 10
170.017
 20
19.585
 30
7
 11
170.047
 21
19.3411
 31
7
  0
LINE
  5
C82
330
A02
100
AcDbEntity
  8
Mesh_cs002
100
AcDbLine
 10
170.047
 20
19.3411
 30
7
 11
170.068
 21
19.1799
 31
7
  0
LINE
  5
C83
330
A02
100
AcDbEntity
  8
Mesh_cs002
100
AcDbLine
 10
170.068
 20
19.1799
 30
7
 11
170.113
 21
18.9536
 31
7
  0
LINE
  5
C84
330
A02
100
AcDbEntity
  8
Mesh_cs002
100
AcDbLine
 10
170.113
 20
18.9536
 30
7
 11
170.145
 21
18.8049
 31
7
  0
LINE
  5
C85
330
A02
100
AcDbEntity
  8
Mesh_cs002
100
AcDbLine
 10
170.145
 20
18.8049
 30
7
 11
170.21
 21
18.574
 31
7
  0
LINE
  5
C86
330
A02
100
AcDbEntity
  8
Mesh_cs002
100
AcDbLine
 10
170.21
 20
18.574
 30
7
 11
170.25
 21
18.4383
 31
7
  0
LINE
  5
C87
330
A02
100
AcDbEntity
  8
Mesh_cs002
100
AcDbLine
 10
170.25
 20
18.4383
 30
7
 11
170.336
 21
18.2049
 31
7
  0
LINE
  5
C88
330
A02
100
AcDbEntity
  8
Mesh_cs002
100
AcDbLine
 10
170.336
 20
18.2049
 30
7
 11
170.388
 21
18.0689
 31
7
  0
LINE
  5
C89
330
A02
100
AcDbEntity
  8
Mesh_cs002
100
AcDbLine
 10
170.388
 20
18.0689
 30
7
 11
170.496
 21
17.8355
 31
7
  0
LINE
  5
C8A
330
A02
100
AcDbEntity
  8
Mesh_cs002
100
AcDbLine
 10
170.496
 20
17.8355
 30
7
 11
170.56
 21
17.7005
 31
7
  0
LINE
  5
C8B
330
A02
100
AcDbEntity
  8
Mesh_cs002
100
AcDbLine
 10
170.56
 20
17.7005
 30
7
 11
170.691
 21
17.4699
 31
7
  0
LINE
  5
C8C
330
A02
100
AcDbEntity
  8
Mesh_cs002
100
AcDbLine
 10
170.691
 20
17.4699
 30
7
 11
170.768
 21
17.3375
 31
7
  0
LINE
  5
C8D
330
A02
100
AcDbEntity
  8
Mesh_cs002
100
AcDbLine
 10
170.768
 20
17.3375
 30
7
 11
170.922
 21
17.113
 31
7
  0
LINE
  5
C8E
330
A02
100
AcDbEntity
  8
Mesh_cs002
100
AcDbLine
 10
170.922
 20
17.113
 30
7
 11
171.011
 21
16.9847
 31
7
  0
LINE
  5
C8F
330
A02
100
AcDbEntity
  8
Mesh_cs002
100
AcDbLine
 10
171.011
 20
16.9847
 30
7
 11
171.171
 21
16.7906
 31
7
  0
LINE
  5
C90
330
A02
100
AcDbEntity
  8
Mesh_cs002
100
AcDbLine
 10
171.171
 20
16.7906
 30
7
 11
171.272
 21
16.6682
 31
7
  0
LINE
  5
C91
330
A02
100
AcDbEntity
  8
Mesh_cs002
100
AcDbLine
 10
171.272
 20
16.6682
 30
7
 11
171.431
 21
16.5021
 31
7
  0
LINE
  5
C92
330
A02
100
AcDbEntity
  8
Mesh_cs002
100
AcDbLine
 10
171.431
 20
16.5021
 30
7
 11
171.544
 21
16.3873
 31
7
  0
LINE
  5
C93
330
A02
100
AcDbEntity
  8
Mesh_cs002
100
AcDbLine
 10
171.544
 20
16.3873
 30
7
 11
171.717
 21
16.2312
 31
7
  0
LINE
  5
C94
330
A02
100
AcDbEntity
  8
Mesh_cs002
100
AcDbLine
 10
171.717
 20
16.2312
 30
7
 11
171.84
 21
16.1255
 31
7
  0
LINE
  5
C95
330
A02
100
AcDbEntity
  8
Mesh_cs002
100
AcDbLine
 10
171.84
 20
16.1255
 30
7
 11
172.027
 21
15.9812
 31
7
  0
LINE
  5
C96
330
A02
100
AcDbEntity
  8
Mesh_cs002
100
AcDbLine
 10
172.027
 20
15.9812
 30
7
 11
172.16
 21
15.886
 31
7
  0
LINE
  5
C97
330
A02
100
AcDbEntity
  8
Mesh_cs002
100
AcDbLine
 10
172.16
 20
15.886
 30
7
 11
172.359
 21
15.7552
 31
7
  0
LINE
  5
C98
330
A02
100
AcDbEntity
  8
Mesh_cs002
100
AcDbLine
 10
172.359
 20
15.7552
 30
7
 11
172.486
 21
15.6795
 31
7
  0
LINE
  5
C99
330
A02
100
AcDbEntity
  8
Mesh_cs002
100
AcDbLine
 10
172.486
 20
15.6795
 30
7
 11
172.695
 21
15.5636
 31
7
  0
LINE
  5
C9A
330
A02
100
AcDbEntity
  8
Mesh_cs002
100
AcDbLine
 10
172.695
 20
15.5636
 30
7
 11
172.814
 21
15.5043
 31
7
  0
LINE
  5
C9B
330
A02
100
AcDbEntity
  8
Mesh_cs002
100
AcDbLine
 10
172.814
 20
15.5043
 30
7
 11
173.032
 21
15.4045
 31
7
  0
LINE
  5
C9C
330
A02
100
AcDbEntity
  8
Mesh_cs002
100
AcDbLine
 10
173.032
 20
15.4045
 30
7
 11
173.154
 21
15.3538
 31
7
  0
LINE
  5
C9D
330
A02
100
AcDbEntity
  8
Mesh_cs002
100
AcDbLine
 10
173.154
 20
15.3538
 30
7
 11
173.38
 21
15.2711
 31
7
  0
LINE
  5
C9E
330
A02
100
AcDbEntity
  8
Mesh_cs002
100
AcDbLine
 10
173.38
 20
15.2711
 30
7
 11
173.504
 21
15.2294
 31
7
  0
LINE
  5
C9F
330
A02
100
AcDbEntity
  8
Mesh_cs002
100
AcDbLine
 10
173.504
 20
15.2294
 30
7
 11
173.735
 21
15.1643
 31
7
  0
LINE
  5
CA0
330
A02
100
AcDbEntity
  8
Mesh_cs002
100
AcDbLine
 10
173.735
 20
15.1643
 30
7
 11
173.861
 21
15.1317
 31
7
  0
LINE
  5
CA1
330
A02
100
AcDbEntity
  8
Mesh_cs002
100
AcDbLine
 10
173.861
 20
15.1317
 30
7
 11
174.094
 21
15.0847
 31
7
  0
LINE
  5
CA2
330
A02
100
AcDbEntity
  8
Mesh_cs002
100
AcDbLine
 10
174.094
 20
15.0847
 30
7
 11
174.221
 21
15.0612
 31
7
  0
LINE
  5
CA3
330
A02
100
AcDbEntity
  8
Mesh_cs002
100
AcDbLine
 10
174.221
 20
15.0612
 30
7
 11
174.455
 21
15.0322
 31
7
  0
LINE
  5
CA4
330
A02
100
AcDbEntity
  8
Mesh_cs002
100
AcDbLine
 10
174.455
 20
15.0322
 30
7
 11
174.581
 21
15.0176
 31
7
  0
LINE
  5
CA5
330
A02
100
AcDbEntity
  8
Mesh_cs002
100
AcDbLine
 10
174.581
 20
15.0176
 30
7
 11
174.814
 21
15.0064
 31
7
  0
LINE
  5
CA6
330
A02
100
AcDbEntity
  8
Mesh_cs002
100
AcDbLine
 10
174.814
 20
15.0064
 30
7
 11
174.94
 21
15.0004
 31
7
  0
LINE
  5
CA7
330
A02
100
AcDbEntity
  8
Mesh_cs002
100
AcDbLine
 10
174.94
 20
15.0004
 30
7
 11
175.063
 21
15.0027
 31
7
  0
LINE
  5
CA8
330
A02
100
AcDbEntity
  8
Mesh_cs002
100
AcDbLine
 10
175.063
 20
15.0027
 30
7
 11
175.292
 21
15.0086
 31
7
  0
LINE
  5
CA9
330
A02
100
AcDbEntity
  8
Mesh_cs002
100
AcDbLine
 10
175.292
 20
15.0086
 30
7
 11
175.413
 21
15.0187
 31
7
  0
LINE
  5
CAA
330
A02
100
AcDbEntity
  8
Mesh_cs002
100
AcDbLine
 10
175.413
 20
15.0187
 30
7
 11
175.638
 21
15.0411
 31
7
  0
LINE
  5
CAB
330
A02
100
AcDbEntity
  8
Mesh_cs002
100
AcDbLine
 10
175.638
 20
15.0411
 30
7
 11
175.755
 21
15.0585
 31
7
  0
LINE
  5
CAC
330
A02
100
AcDbEntity
  8
Mesh_cs002
100
AcDbLine
 10
175.755
 20
15.0585
 30
7
 11
175.973
 21
15.0961
 31
7
  0
LINE
  5
CAD
330
A02
100
AcDbEntity
  8
Mesh_cs002
100
AcDbLine
 10
175.973
 20
15.0961
 30
7
 11
176.087
 21
15.1202
 31
7
  0
LINE
  5
CAE
330
A02
100
AcDbEntity
  8
Mesh_cs002
100
AcDbLine
 10
176.087
 20
15.1202
 30
7
 11
176.297
 21
15.1719
 31
7
  0
LINE
  5
CAF
330
A02
100
AcDbEntity
  8
Mesh_cs002
100
AcDbLine
 10
176.297
 20
15.1719
 30
7
 11
176.406
 21
15.2021
 31
7
  0
LINE
  5
CB0
330
A02
100
AcDbEntity
  8
Mesh_cs002
100
AcDbLine
 10
176.406
 20
15.2021
 30
7
 11
176.608
 21
15.2666
 31
7
  0
LINE
  5
CB1
330
A02
100
AcDbEntity
  8
Mesh_cs002
100
AcDbLine
 10
176.608
 20
15.2666
 30
7
 11
176.712
 21
15.3023
 31
7
  0
LINE
  5
CB2
330
A02
100
AcDbEntity
  8
Mesh_cs002
100
AcDbLine
 10
176.712
 20
15.3023
 30
7
 11
176.904
 21
15.3781
 31
7
  0
LINE
  5
CB3
330
A02
100
AcDbEntity
  8
Mesh_cs002
100
AcDbLine
 10
176.904
 20
15.3781
 30
7
 11
177.003
 21
15.4187
 31
7
  0
LINE
  5
CB4
330
A02
100
AcDbEntity
  8
Mesh_cs002
100
AcDbLine
 10
177.003
 20
15.4187
 30
7
 11
177.184
 21
15.5044
 31
7
  0
LINE
  5
CB5
330
A02
100
AcDbEntity
  8
Mesh_cs002
100
AcDbLine
 10
177.184
 20
15.5044
 30
7
 11
177.278
 21
15.5492
 31
7
  0
LINE
  5
CB6
330
A02
100
AcDbEntity
  8
Mesh_cs002
100
AcDbLine
 10
177.278
 20
15.5492
 30
7
 11
177.367
 21
15.5976
 31
7
  0
LINE
  5
CB7
330
A02
100
AcDbEntity
  8
Mesh_cs002
100
AcDbLine
 10
177.367
 20
15.5976
 30
7
 11
177.538
 21
15.6918
 31
7
  0
LINE
  5
CB8
330
A02
100
AcDbEntity
  8
Mesh_cs002
100
AcDbLine
 10
177.538
 20
15.6918
 30
7
 11
177.624
 21
15.7451
 31
7
  0
LINE
  5
CB9
330
A02
100
AcDbEntity
  8
Mesh_cs002
100
AcDbLine
 10
177.624
 20
15.7451
 30
7
 11
177.783
 21
15.8465
 31
7
  0
LINE
  5
CBA
330
A02
100
AcDbEntity
  8
Mesh_cs002
100
AcDbLine
 10
177.783
 20
15.8465
 30
7
 11
177.869
 21
15.9061
 31
7
  0
LINE
  5
CBB
330
A02
100
AcDbEntity
  8
Mesh_cs002
100
AcDbLine
 10
177.869
 20
15.9061
 30
7
 11
178.017
 21
16.0133
 31
7
  0
LINE
  5
CBC
330
A02
100
AcDbEntity
  8
Mesh_cs002
100
AcDbLine
 10
178.017
 20
16.0133
 30
7
 11
178.102
 21
16.0796
 31
7
  0
LINE
  5
CBD
330
A02
100
AcDbEntity
  8
Mesh_cs002
100
AcDbLine
 10
178.102
 20
16.0796
 30
7
 11
178.239
 21
16.1914
 31
7
  0
LINE
  5
CBE
330
A02
100
AcDbEntity
  8
Mesh_cs002
100
AcDbLine
 10
178.239
 20
16.1914
 30
7
 11
178.322
 21
16.2644
 31
7
  0
LINE
  5
CBF
330
A02
100
AcDbEntity
  8
Mesh_cs002
100
AcDbLine
 10
178.322
 20
16.2644
 30
7
 11
178.448
 21
16.3796
 31
7
  0
LINE
  5
CC0
330
A02
100
AcDbEntity
  8
Mesh_cs002
100
AcDbLine
 10
178.448
 20
16.3796
 30
7
 11
178.529
 21
16.4594
 31
7
  0
LINE
  5
CC1
330
A02
100
AcDbEntity
  8
Mesh_cs002
100
AcDbLine
 10
178.529
 20
16.4594
 30
7
 11
178.646
 21
16.5789
 31
7
  0
LINE
  5
CC2
330
A02
100
AcDbEntity
  8
Mesh_cs002
100
AcDbLine
 10
178.646
 20
16.5789
 30
7
 11
178.723
 21
16.6656
 31
7
  0
LINE
  5
CC3
330
A02
100
AcDbEntity
  8
Mesh_cs002
100
AcDbLine
 10
178.723
 20
16.6656
 30
7
 11
178.838
 21
16.7952
 31
7
  0
LINE
  5
CC4
330
A02
100
AcDbEntity
  8
Mesh_cs002
100
AcDbLine
 10
178.838
 20
16.7952
 30
7
 11
178.948
 21
16.9357
 31
7
  0
LINE
  5
CC5
330
A02
100
AcDbEntity
  8
Mesh_cs002
100
AcDbLine
 10
178.948
 20
16.9357
 30
7
 11
179.022
 21
17.0291
 31
7
  0
LINE
  5
CC6
330
A02
100
AcDbEntity
  8
Mesh_cs002
100
AcDbLine
 10
179.022
 20
17.0291
 30
7
 11
179.127
 21
17.1808
 31
7
  0
LINE
  5
CC7
330
A02
100
AcDbEntity
  8
Mesh_cs002
100
AcDbLine
 10
179.127
 20
17.1808
 30
7
 11
179.196
 21
17.2808
 31
7
  0
LINE
  5
CC8
330
A02
100
AcDbEntity
  8
Mesh_cs002
100
AcDbLine
 10
179.196
 20
17.2808
 30
7
 11
179.295
 21
17.4436
 31
7
  0
LINE
  5
CC9
330
A02
100
AcDbEntity
  8
Mesh_cs002
100
AcDbLine
 10
179.295
 20
17.4436
 30
7
 11
179.358
 21
17.5498
 31
7
  0
LINE
  5
CCA
330
A02
100
AcDbEntity
  8
Mesh_cs002
100
AcDbLine
 10
179.358
 20
17.5498
 30
7
 11
179.45
 21
17.7236
 31
7
  0
LINE
  5
CCB
330
A02
100
AcDbEntity
  8
Mesh_cs002
100
AcDbLine
 10
179.45
 20
17.7236
 30
7
 11
179.507
 21
17.8357
 31
7
  0
LINE
  5
CCC
330
A02
100
AcDbEntity
  8
Mesh_cs002
100
AcDbLine
 10
179.507
 20
17.8357
 30
7
 11
179.59
 21
18.0203
 31
7
  0
LINE
  5
CCD
330
A02
100
AcDbEntity
  8
Mesh_cs002
100
AcDbLine
 10
179.59
 20
18.0203
 30
7
 11
179.64
 21
18.1377
 31
7
  0
LINE
  5
CCE
330
A02
100
AcDbEntity
  8
Mesh_cs002
100
AcDbLine
 10
179.64
 20
18.1377
 30
7
 11
179.713
 21
18.3326
 31
7
  0
LINE
  5
CCF
330
A02
100
AcDbEntity
  8
Mesh_cs002
100
AcDbLine
 10
179.713
 20
18.3326
 30
7
 11
179.755
 21
18.4546
 31
7
  0
LINE
  5
CD0
330
A02
100
AcDbEntity
  8
Mesh_cs002
100
AcDbLine
 10
179.755
 20
18.4546
 30
7
 11
179.816
 21
18.659
 31
7
  0
LINE
  5
CD1
330
A02
100
AcDbEntity
  8
Mesh_cs002
100
AcDbLine
 10
179.816
 20
18.659
 30
7
 11
179.85
 21
18.785
 31
7
  0
LINE
  5
CD2
330
A02
100
AcDbEntity
  8
Mesh_cs002
100
AcDbLine
 10
179.85
 20
18.785
 30
7
 11
179.897
 21
18.998
 31
7
  0
LINE
  5
CD3
330
A02
100
AcDbEntity
  8
Mesh_cs002
100
AcDbLine
 10
179.897
 20
18.998
 30
7
 11
179.923
 21
19.1271
 31
7
  0
LINE
  5
CD4
330
A02
100
AcDbEntity
  8
Mesh_cs002
100
AcDbLine
 10
179.923
 20
19.1271
 30
7
 11
179.956
 21
19.3475
 31
7
  0
LINE
  5
CD5
330
A02
100
AcDbEntity
  8
Mesh_cs002
100
AcDbLine
 10
179.956
 20
19.3475
 30
7
 11
179.972
 21
19.4788
 31
7
  0
LINE
  5
CD6
330
A02
100
AcDbEntity
  8
Mesh_cs002
100
AcDbLine
 10
179.972
 20
19.4788
 30
7
 11
179.99
 21
19.7052
 31
7
  0
LINE
  5
CD7
330
A02
100
AcDbEntity
  8
Mesh_cs002
100
AcDbLine
 10
179.99
 20
19.7052
 30
7
 11
179.997
 21
19.8378
 31
7
  0
LINE
  5
CD8
330
A02
100
AcDbEntity
  8
Mesh_cs002
100
AcDbLine
 10
179.997
 20
19.8378
 30
7
 11
179.998
 21
20.0686
 31
7
  0
LINE
  5
CD9
330
A02
100
AcDbEntity
  8
Mesh_cs002
100
AcDbLine
 10
179.998
 20
20.0686
 30
7
 11
179.996
 21
20.2014
 31
7
  0
LINE
  5
CDA
330
A02
100
AcDbEntity
  8
Mesh_cs002
100
AcDbLine
 10
179.996
 20
20.2014
 30
7
 11
179.979
 21
20.4347
 31
7
  0
LINE
  5
CDB
330
A02
100
AcDbEntity
  8
Mesh_cs002
100
AcDbLine
 10
179.979
 20
20.4347
 30
7
 11
179.968
 21
20.5668
 31
7
  0
ENDSEC
  0
SECTION
  2
OBJECTS
  0
DICTIONARY
  5
F000
330
0
100
AcDbDictionary
  3
ACAD_GROUP
350
F001
  0
DICTIONARY
  5
F001
330
F000
100
AcDbDictionary
  0
ENDSEC
  0
EOF