999
FreeCAD v0.21 33668 +26 (Git)
  0
SECTION
  2
HEADER
  9
$ACADVER
  1
AC1014
  9
$ACADMAINTVER
 70
     9
  9
$DWGCODEPAGE
  3
ANSI_1252
  9
$TEXTSTYLE
  7
STANDARD
  9
$DIMSTYLE
  2
STANDARD
  9
$DIMTXSTY
  7
STANDARD
  9
$CMLSTYLE
  2
STANDARD
  9
$LUNITS
 70
2
  9
$INSUNITS
 70
4
  9
$PEXTMAX
 10
50
 20
50
 30
50
  9
$PEXTMIN
 10
0
 20
0
 30
0
  9
$HANDSEED
  5
FFFF
  0
ENDSEC
  0
SECTION
  2
CLASSES
  0
CLASS
  1
ACDBDICTIONARYWDFLT
  2
AcDbDictionaryWithDefault
  3
ObjectDBX Classes
 90
        0
280
     0
281
     0
  0
CLASS
  1
XRECORD
  2
AcDbXrecord
  3
ObjectDBX Classes
 90
        0
280
     0
281
     0
  0
CLASS
  1
LWPOLYLINE
  2
AcDbPolyline
  3
ObjectDBX Classes
 90
        0
280
     0
281
     1
  0
ENDSEC
  0
SECTION
  2
TABLES
  0
TABLE
  2
VPORT
  5
20
330
0
100
AcDbSymbolTable
 70
     1
  0
VPORT
  5
21
330
20
100
AcDbSymbolTableRecord
100
AcDbViewportTableRecord
  2
*ACTIVE
 70
     0
  0
ENDTAB
  0
TABLE
  2
LTYPE
  5
22
330
0
100
AcDbSymbolTable
 70
     1
  0
LTYPE
  5
23
330
21
100
AcDbSymbolTableRecord
100
AcDbLinetypeTableRecord
  2
BYBLOCK
 70
     0
  3

 72
    65
 73
     0
 40
0.0
  0
LTYPE
  5
24
330
21
100
AcDbSymbolTableRecord
100
AcDbLinetypeTableRecord
  2
BYLAYER
 70
     0
  3

 72
    65
 73
     0
 40
0.0
  0
LTYPE
  5
25
330
21
100
AcDbSymbolTableRecord
100
AcDbLinetypeTableRecord
  2
CONTINUOUS
 70
     0
  3
Solid line
 72
    65
 73
     0
 40
0.0
  0
ENDTAB
  0
TABLE
  2
LAYER
  5
D72
330
0
100
AcDbSymbolTable
 70
3
  0
LAYER
  5
D73
330
D72
100
AcDbSymbolTableRecord
100
AcDbLayerTableRecord
  2
0
 70
   0
 62
   7
  6
CONTINUOUS
  0
LAYER
  5
D74
330
D72
100
AcDbSymbolTableRecord
100
AcDbLayerTableRecord
  2
none
 70
    0
 62
    7
  6
CONTINUOUS
  0
LAYER
  5
D75
330
D72
100
AcDbSymbolTableRecord
100
AcDbLayerTableRecord
  2
Mesh_cs
 70
    0
 62
    7
  6
CONTINUOUS
  0
ENDTAB
  0
TABLE
  2
STYLE
  5
70
330
0
100
AcDbSymbolTable
 70
     2
  0
STYLE
  5
71
330
70
100
AcDbSymbolTableRecord
100
AcDbTextStyleTableRecord
  2
STANDARD
 70
     0
 40
0.0
 41
1.0
 50
0.0
 71
     0
 42
2.5
  3
arial.ttf
  4

  0
STYLE
  5
72
330
70
100
AcDbSymbolTableRecord
100
AcDbTextStyleTableRecord
  2
ANNOTATIVE
 70
     0
 40
0.0
 41
1.0
 50
0.0
 71
     0
 42
2.5
  3
arial.ttf
  4

  0
ENDTAB
  0
TABLE
  2
VIEW
  5
73
330
0
100
AcDbSymbolTable
 70
     0
  0
ENDTAB
  0
TABLE
  2
UCS
  5
74
330
0
100
AcDbSymbolTable
 70
     0
  0
ENDTAB
  0
TABLE
  2
APPID
  5
75
330
0
100
AcDbSymbolTable
 70
     2
  0
APPID
  5
76
330
75
100
AcDbSymbolTableRecord
100
AcDbRegAppTableRecord
  2
ACAD
 70
     0
  0
APPID
  5
77
330
75
100
AcDbSymbolTableRecord
100
AcDbRegAppTableRecord
  2
ACADANNOTATIVE
 70
     0
  0
ENDTAB
  0
TABLE
  2
DIMSTYLE
  5
78
330
0
100
AcDbSymbolTable
 70
     2
  0
DIMSTYLE
105
79
330
78
100
AcDbSymbolTableRecord
100
AcDbDimStyleTableRecord
  2
STANDARD
 70
     0
  3

  4

  5

  6

  7

 40
0.0
 41
2.5
 42
0.625
 43
3.75
 44
1.25
 45
0.0
 46
0.0
 47
0.0
 48
0.0
140
2.5
141
2.5
142
0.0
143
0.03937007874016
144
1.0
145
0.0
146
1.0
147
0.625
 71
     0
 72
     0
 73
     0
 74
     0
 75
     0
 76
     0
 77
     1
 78
     8
170
     0
171
     3
172
     1
173
     0
174
     0
175
     0
176
     0
177
     0
178
     0
270
     2
271
     2
272
     2
273
     2
274
     3
340
71
275
     0
280
     0
281
     0
282
     0
283
     0
284
     8
285
     0
286
     0
287
     3
288
     0
  0
ENDTAB
  0
TABLE
  2
BLOCK_RECORD
  5
A01
330
0
100
AcDbSymbolTable
  70
5
  0
BLOCK_RECORD
  5
A02
330
A01
100
AcDbSymbolTableRecord
100
AcDbBlockTableRecord
  2
*MODEL_SPACE
  0
BLOCK_RECORD
  5
A03
330
A01
100
AcDbSymbolTableRecord
100
AcDbBlockTableRecord
  2
*PAPER_SPACE
  0
ENDTAB
  0
ENDSEC
  0
SECTION
  2
BLOCKS
  0
BLOCK
  5
A04
330
A02
100
AcDbEntity
  8
0
100
AcDbBlockBegin
  2
*MODEL_SPACE
 70
   0
 10
0
 20
0
 30
0
  3
*MODEL_SPACE
  1
 
  0
ENDBLK
  5
A05
330
A02
100
AcDbEntity
  8
0
100
AcDbBlockEnd
  0
BLOCK
  5
A06
330
A03
100
AcDbEntity
 67
1
  8
0
100
AcDbBlockBegin
  2
*PAPER_SPACE
 70
   0
 10
0
 20
0
 30
0
  3
*PAPER_SPACE
  1
 
  0
ENDBLK
  5
A07
330
A03
100
AcDbEntity
 67
    1
  8
0
100
AcDbBlockEnd
  0
ENDSEC
  0
SECTION
  2
ENTITIES
  0
LINE
  5
A08
330
A02
100
AcDbEntity
  8
Mesh_cs
100
AcDbLine
 10
132.864
 20
345.219
 30
7
 11
160.617
 21
325.055
 31
7
  0
LINE
  5
A09
330
A02
100
AcDbEntity
  8
Mesh_cs
100
AcDbLine
 10
160.617
 20
325.055
 30
7
 11
214.674
 21
285.78
 31
7
  0
LINE
  5
A0A
330
A02
100
AcDbEntity
  8
Mesh_cs
100
AcDbLine
 10
214.674
 20
285.78
 30
7
 11
232.693
 21
272.689
 31
7
  0
LINE
  5
A0B
330
A02
100
AcDbEntity
  8
Mesh_cs
100
AcDbLine
 10
232.693
 20
272.689
 30
7
 11
257.223
 21
254.867
 31
7
  0
LINE
  5
A0C
330
A02
100
AcDbEntity
  8
Mesh_cs
100
AcDbLine
 10
257.223
 20
254.867
 30
7
 11
263.885
 21
250.026
 31
7
  0
LINE
  5
A0D
330
A02
100
AcDbEntity
  8
Mesh_cs
100
AcDbLine
 10
263.885
 20
250.026
 30
7
 11
273.879
 21
242.765
 31
7
  0
LINE
  5
A0E
330
A02
100
AcDbEntity
  8
Mesh_cs
100
AcDbLine
 10
273.879
 20
242.765
 30
7
 11
266.618
 21
232.771
 31
7
  0
LINE
  5
A0F
330
A02
100
AcDbEntity
  8
Mesh_cs
100
AcDbLine
 10
266.618
 20
232.771
 30
7
 11
264.025
 21
229.202
 31
7
  0
LINE
  5
A10
330
A02
100
AcDbEntity
  8
Mesh_cs
100
AcDbLine
 10
264.025
 20
229.202
 30
7
 11
259.185
 21
222.54
 31
7
  0
LINE
  5
A11
330
A02
100
AcDbEntity
  8
Mesh_cs
100
AcDbLine
 10
259.185
 20
222.54
 30
7
 11
259.048
 21
222.318
 31
7
  0
LINE
  5
A12
330
A02
100
AcDbEntity
  8
Mesh_cs
100
AcDbLine
 10
259.048
 20
222.318
 30
7
 11
258.822
 21
221.927
 31
7
  0
LINE
  5
A13
330
A02
100
AcDbEntity
  8
Mesh_cs
100
AcDbLine
 10
258.822
 20
221.927
 30
7
 11
258.69
 21
221.696
 31
7
  0
LINE
  5
A14
330
A02
100
AcDbEntity
  8
Mesh_cs
100
AcDbLine
 10
258.69
 20
221.696
 30
7
 11
258.405
 21
220.847
 31
7
  0
LINE
  5
A15
330
A02
100
AcDbEntity
  8
Mesh_cs
100
AcDbLine
 10
258.405
 20
220.847
 30
7
 11
258.366
 21
220.73
 31
7
  0
LINE
  5
A16
330
A02
100
AcDbEntity
  8
Mesh_cs
100
AcDbLine
 10
258.366
 20
220.73
 30
7
 11
258.341
 21
220.65
 31
7
  0
LINE
  5
A17
330
A02
100
AcDbEntity
  8
Mesh_cs
100
AcDbLine
 10
258.341
 20
220.65
 30
7
 11
258.337
 21
220.614
 31
7
  0
LINE
  5
A18
330
A02
100
AcDbEntity
  8
Mesh_cs
100
AcDbLine
 10
258.337
 20
220.614
 30
7
 11
258.23
 21
219.617
 31
7
  0
LINE
  5
A19
330
A02
100
AcDbEntity
  8
Mesh_cs
100
AcDbLine
 10
258.23
 20
219.617
 30
7
 11
255.531
 21
215.215
 31
7
  0
LINE
  5
A1A
330
A02
100
AcDbEntity
  8
Mesh_cs
100
AcDbLine
 10
255.531
 20
215.215
 30
7
 11
253.603
 21
212.07
 31
7
  0
LINE
  5
A1B
330
A02
100
AcDbEntity
  8
Mesh_cs
100
AcDbLine
 10
253.603
 20
212.07
 30
7
 11
251.743
 21
208.885
 31
7
  0
LINE
  5
A1C
330
A02
100
AcDbEntity
  8
Mesh_cs
100
AcDbLine
 10
251.743
 20
208.885
 30
7
 11
249.139
 21
204.425
 31
7
  0
LINE
  5
A1D
330
A02
100
AcDbEntity
  8
Mesh_cs
100
AcDbLine
 10
249.139
 20
204.425
 30
7
 11
247.348
 21
201.201
 31
7
  0
LINE
  5
A1E
330
A02
100
AcDbEntity
  8
Mesh_cs
100
AcDbLine
 10
247.348
 20
201.201
 30
7
 11
244.84
 21
196.687
 31
7
  0
LINE
  5
A1F
330
A02
100
AcDbEntity
  8
Mesh_cs
100
AcDbLine
 10
244.84
 20
196.687
 30
7
 11
243.119
 21
193.425
 31
7
  0
LINE
  5
A20
330
A02
100
AcDbEntity
  8
Mesh_cs
100
AcDbLine
 10
243.119
 20
193.425
 30
7
 11
240.708
 21
188.858
 31
7
  0
LINE
  5
A21
330
A02
100
AcDbEntity
  8
Mesh_cs
100
AcDbLine
 10
240.708
 20
188.858
 30
7
 11
239.057
 21
185.559
 31
7
  0
LINE
  5
A22
330
A02
100
AcDbEntity
  8
Mesh_cs
100
AcDbLine
 10
239.057
 20
185.559
 30
7
 11
236.745
 21
180.942
 31
7
  0
LINE
  5
A23
330
A02
100
AcDbEntity
  8
Mesh_cs
100
AcDbLine
 10
236.745
 20
180.942
 30
7
 11
235.164
 21
177.609
 31
7
  0
LINE
  5
A24
330
A02
100
AcDbEntity
  8
Mesh_cs
100
AcDbLine
 10
235.164
 20
177.609
 30
7
 11
232.952
 21
172.943
 31
7
  0
LINE
  5
A25
330
A02
100
AcDbEntity
  8
Mesh_cs
100
AcDbLine
 10
232.952
 20
172.943
 30
7
 11
231.443
 21
169.577
 31
7
  0
LINE
  5
A26
330
A02
100
AcDbEntity
  8
Mesh_cs
100
AcDbLine
 10
231.443
 20
169.577
 30
7
 11
229.332
 21
164.865
 31
7
  0
LINE
  5
A27
330
A02
100
AcDbEntity
  8
Mesh_cs
100
AcDbLine
 10
229.332
 20
164.865
 30
7
 11
227.896
 21
161.467
 31
7
  0
LINE
  5
A28
330
A02
100
AcDbEntity
  8
Mesh_cs
100
AcDbLine
 10
227.896
 20
161.467
 30
7
 11
225.885
 21
156.711
 31
7
  0
LINE
  5
A29
330
A02
100
AcDbEntity
  8
Mesh_cs
100
AcDbLine
 10
225.885
 20
156.711
 30
7
 11
224.522
 21
153.283
 31
7
  0
LINE
  5
A2A
330
A02
100
AcDbEntity
  8
Mesh_cs
100
AcDbLine
 10
224.522
 20
153.283
 30
7
 11
222.614
 21
148.484
 31
7
  0
LINE
  5
A2B
330
A02
100
AcDbEntity
  8
Mesh_cs
100
AcDbLine
 10
222.614
 20
148.484
 30
7
 11
221.325
 21
145.029
 31
7
  0
LINE
  5
A2C
330
A02
100
AcDbEntity
  8
Mesh_cs
100
AcDbLine
 10
221.325
 20
145.029
 30
7
 11
219.52
 21
140.19
 31
7
  0
LINE
  5
A2D
330
A02
100
AcDbEntity
  8
Mesh_cs
100
AcDbLine
 10
219.52
 20
140.19
 30
7
 11
217.82
 21
135.314
 31
7
  0
LINE
  5
A2E
330
A02
100
AcDbEntity
  8
Mesh_cs
100
AcDbLine
 10
217.82
 20
135.314
 30
7
 11
216.605
 21
131.831
 31
7
  0
LINE
  5
A2F
330
A02
100
AcDbEntity
  8
Mesh_cs
100
AcDbLine
 10
216.605
 20
131.831
 30
7
 11
215.465
 21
128.323
 31
7
  0
LINE
  5
A30
330
A02
100
AcDbEntity
  8
Mesh_cs
100
AcDbLine
 10
215.465
 20
128.323
 30
7
 11
213.869
 21
123.412
 31
7
  0
LINE
  5
A31
330
A02
100
AcDbEntity
  8
Mesh_cs
100
AcDbLine
 10
213.869
 20
123.412
 30
7
 11
212.379
 21
118.468
 31
7
  0
LINE
  5
A32
330
A02
100
AcDbEntity
  8
Mesh_cs
100
AcDbLine
 10
212.379
 20
118.468
 30
7
 11
211.315
 21
114.936
 31
7
  0
LINE
  5
A33
330
A02
100
AcDbEntity
  8
Mesh_cs
100
AcDbLine
 10
211.315
 20
114.936
 30
7
 11
210.326
 21
111.383
 31
7
  0
LINE
  5
A34
330
A02
100
AcDbEntity
  8
Mesh_cs
100
AcDbLine
 10
210.326
 20
111.383
 30
7
 11
208.942
 21
106.407
 31
7
  0
LINE
  5
A35
330
A02
100
AcDbEntity
  8
Mesh_cs
100
AcDbLine
 10
208.942
 20
106.407
 30
7
 11
208.03
 21
102.833
 31
7
  0
LINE
  5
A36
330
A02
100
AcDbEntity
  8
Mesh_cs
100
AcDbLine
 10
208.03
 20
102.833
 30
7
 11
206.754
 21
97.8298
 31
7
  0
LINE
  5
A37
330
A02
100
AcDbEntity
  8
Mesh_cs
100
AcDbLine
 10
206.754
 20
97.8298
 30
7
 11
205.918
 21
94.237
 31
7
  0
LINE
  5
A38
330
A02
100
AcDbEntity
  8
Mesh_cs
100
AcDbLine
 10
205.918
 20
94.237
 30
7
 11
204.749
 21
89.2072
 31
7
  0
LINE
  5
A39
330
A02
100
AcDbEntity
  8
Mesh_cs
100
AcDbLine
 10
204.749
 20
89.2072
 30
7
 11
203.991
 21
85.5974
 31
7
  0
LINE
  5
A3A
330
A02
100
AcDbEntity
  8
Mesh_cs
100
AcDbLine
 10
203.991
 20
85.5974
 30
7
 11
202.93
 21
80.5436
 31
7
  0
LINE
  5
A3B
330
A02
100
AcDbEntity
  8
Mesh_cs
100
AcDbLine
 10
202.93
 20
80.5436
 30
7
 11
202.249
 21
76.9184
 31
7
  0
LINE
  5
A3C
330
A02
100
AcDbEntity
  8
Mesh_cs
100
AcDbLine
 10
202.249
 20
76.9184
 30
7
 11
201.296
 21
71.843
 31
7
  0
LINE
  5
A3D
330
A02
100
AcDbEntity
  8
Mesh_cs
100
AcDbLine
 10
201.296
 20
71.843
 30
7
 11
200.694
 21
68.204
 31
7
  0
LINE
  5
A3E
330
A02
100
AcDbEntity
  8
Mesh_cs
100
AcDbLine
 10
200.694
 20
68.204
 30
7
 11
199.85
 21
63.1094
 31
7
  0
LINE
  5
A3F
330
A02
100
AcDbEntity
  8
Mesh_cs
100
AcDbLine
 10
199.85
 20
63.1094
 30
7
 11
199.116
 21
57.9979
 31
7
  0
LINE
  5
A40
330
A02
100
AcDbEntity
  8
Mesh_cs
100
AcDbLine
 10
199.116
 20
57.9979
 30
7
 11
198.591
 21
54.3468
 31
7
  0
LINE
  5
A41
330
A02
100
AcDbEntity
  8
Mesh_cs
100
AcDbLine
 10
198.591
 20
54.3468
 30
7
 11
198.145
 21
50.6854
 31
7
  0
LINE
  5
A42
330
A02
100
AcDbEntity
  8
Mesh_cs
100
AcDbLine
 10
198.145
 20
50.6854
 30
7
 11
197.52
 21
45.5593
 31
7
  0
LINE
  5
A43
330
A02
100
AcDbEntity
  8
Mesh_cs
100
AcDbLine
 10
197.52
 20
45.5593
 30
7
 11
197.153
 21
41.8891
 31
7
  0
LINE
  5
A44
330
A02
100
AcDbEntity
  8
Mesh_cs
100
AcDbLine
 10
197.153
 20
41.8891
 30
7
 11
196.638
 21
36.7508
 31
7
  0
LINE
  5
A45
330
A02
100
AcDbEntity
  8
Mesh_cs
100
AcDbLine
 10
196.638
 20
36.7508
 30
7
 11
196.35
 21
33.0736
 31
7
  0
LINE
  5
A46
330
A02
100
AcDbEntity
  8
Mesh_cs
100
AcDbLine
 10
196.35
 20
33.0736
 30
7
 11
195.945
 21
27.9254
 31
7
  0
LINE
  5
A47
330
A02
100
AcDbEntity
  8
Mesh_cs
100
AcDbLine
 10
195.945
 20
27.9254
 30
7
 11
195.855
 21
27.7899
 31
7
  0
LINE
  5
A48
330
A02
100
AcDbEntity
  8
Mesh_cs
100
AcDbLine
 10
195.855
 20
27.7899
 30
7
 11
195.729
 21
27.6001
 31
7
  0
LINE
  5
A49
330
A02
100
AcDbEntity
  8
Mesh_cs
100
AcDbLine
 10
195.729
 20
27.6001
 30
7
 11
195.65
 21
27.4579
 31
7
  0
LINE
  5
A4A
330
A02
100
AcDbEntity
  8
Mesh_cs
100
AcDbLine
 10
195.65
 20
27.4579
 30
7
 11
195.539
 21
27.2588
 31
7
  0
LINE
  5
A4B
330
A02
100
AcDbEntity
  8
Mesh_cs
100
AcDbLine
 10
195.539
 20
27.2588
 30
7
 11
195.472
 21
27.1109
 31
7
  0
LINE
  5
A4C
330
A02
100
AcDbEntity
  8
Mesh_cs
100
AcDbLine
 10
195.472
 20
27.1109
 30
7
 11
195.377
 21
26.9038
 31
7
  0
LINE
  5
A4D
330
A02
100
AcDbEntity
  8
Mesh_cs
100
AcDbLine
 10
195.377
 20
26.9038
 30
7
 11
195.298
 21
26.6899
 31
7
  0
LINE
  5
A4E
330
A02
100
AcDbEntity
  8
Mesh_cs
100
AcDbLine
 10
195.298
 20
26.6899
 30
7
 11
195.242
 21
26.5372
 31
7
  0
LINE
  5
A4F
330
A02
100
AcDbEntity
  8
Mesh_cs
100
AcDbLine
 10
195.242
 20
26.5372
 30
7
 11
195.198
 21
26.3805
 31
7
  0
LINE
  5
A50
330
A02
100
AcDbEntity
  8
Mesh_cs
100
AcDbLine
 10
195.198
 20
26.3805
 30
7
 11
195.137
 21
26.1612
 31
7
  0
LINE
  5
A51
330
A02
100
AcDbEntity
  8
Mesh_cs
100
AcDbLine
 10
195.137
 20
26.1612
 30
7
 11
195.105
 21
26.0015
 31
7
  0
LINE
  5
A52
330
A02
100
AcDbEntity
  8
Mesh_cs
100
AcDbLine
 10
195.105
 20
26.0015
 30
7
 11
195.061
 21
25.7781
 31
7
  0
LINE
  5
A53
330
A02
100
AcDbEntity
  8
Mesh_cs
100
AcDbLine
 10
195.061
 20
25.7781
 30
7
 11
195.034
 21
25.5518
 31
7
  0
LINE
  5
A54
330
A02
100
AcDbEntity
  8
Mesh_cs
100
AcDbLine
 10
195.034
 20
25.5518
 30
7
 11
195.015
 21
25.3902
 31
7
  0
LINE
  5
A55
330
A02
100
AcDbEntity
  8
Mesh_cs
100
AcDbLine
 10
195.015
 20
25.3902
 30
7
 11
195.003
 21
25.0689
 31
7
  0
LINE
  5
A56
330
A02
100
AcDbEntity
  8
Mesh_cs
100
AcDbLine
 10
195.003
 20
25.0689
 30
7
 11
195
 21
25
 31
7
  0
LINE
  5
A57
330
A02
100
AcDbEntity
  8
Mesh_cs
100
AcDbLine
 10
195
 20
25
 30
7
 11
195
 21
16.7647
 31
7
  0
LINE
  5
A58
330
A02
100
AcDbEntity
  8
Mesh_cs
100
AcDbLine
 10
195
 20
16.7647
 30
7
 11
195
 21
12.3529
 31
7
  0
LINE
  5
A59
330
A02
100
AcDbEntity
  8
Mesh_cs
100
AcDbLine
 10
195
 20
12.3529
 30
7
 11
195
 21
-1.77636e-15
 31
7
  0
LINE
  5
A5A
330
A02
100
AcDbEntity
  8
Mesh_cs
100
AcDbLine
 10
195
 20
-1.55431e-15
 30
7
 11
182.647
 21
-1.46288e-15
 31
7
  0
LINE
  5
A5B
330
A02
100
AcDbEntity
  8
Mesh_cs
100
AcDbLine
 10
182.647
 20
-1.46288e-15
 30
7
 11
174.412
 21
-2.92576e-15
 31
7
  0
LINE
  5
A5C
330
A02
100
AcDbEntity
  8
Mesh_cs
100
AcDbLine
 10
174.412
 20
-2.92576e-15
 30
7
 11
144.091
 21
-1.55431e-15
 31
7
  0
LINE
  5
A5D
330
A02
100
AcDbEntity
  8
Mesh_cs
100
AcDbLine
 10
144.091
 20
-1.55431e-15
 30
7
 11
121.818
 21
-1.55431e-15
 31
7
  0
LINE
  5
A5E
330
A02
100
AcDbEntity
  8
Mesh_cs
100
AcDbLine
 10
121.818
 20
-1.55431e-15
 30
7
 11
55
 21
-2.92576e-15
 31
7
  0
LINE
  5
A5F
330
A02
100
AcDbEntity
  8
Mesh_cs
100
AcDbLine
 10
55
 20
-2.92576e-15
 30
7
 11
20.5882
 21
3.64428e-15
 31
7
  0
LINE
  5
A60
330
A02
100
AcDbEntity
  8
Mesh_cs
100
AcDbLine
 10
20.5882
 20
3.64428e-15
 30
7
 11
12.3529
 21
5.01574e-15
 31
7
  0
LINE
  5
A61
330
A02
100
AcDbEntity
  8
Mesh_cs
100
AcDbLine
 10
12.3529
 20
5.01574e-15
 30
7
 11
0
 21
3.64531e-14
 31
7
  0
LINE
  5
A62
330
A02
100
AcDbEntity
  8
Mesh_cs
100
AcDbLine
 10
1.00974e-28
 20
3.64531e-14
 30
7
 11
1.7819e-29
 21
12.3529
 31
7
  0
LINE
  5
A63
330
A02
100
AcDbEntity
  8
Mesh_cs
100
AcDbLine
 10
1.7819e-29
 20
12.3529
 30
7
 11
-1.56737e-16
 21
16.7647
 31
7
  0
LINE
  5
A64
330
A02
100
AcDbEntity
  8
Mesh_cs
100
AcDbLine
 10
-1.56737e-16
 20
16.7647
 30
7
 11
-8.88178e-16
 21
25
 31
7
  0
LINE
  5
A65
330
A02
100
AcDbEntity
  8
Mesh_cs
100
AcDbLine
 10
-8.88178e-16
 20
25
 30
7
 11
0.0298647
 21
25.0599
 31
7
  0
LINE
  5
A66
330
A02
100
AcDbEntity
  8
Mesh_cs
100
AcDbLine
 10
0.0298647
 20
25.0599
 30
7
 11
0.169233
 21
25.3397
 31
7
  0
LINE
  5
A67
330
A02
100
AcDbEntity
  8
Mesh_cs
100
AcDbLine
 10
0.169233
 20
25.3397
 30
7
 11
0.228811
 21
25.4861
 31
7
  0
LINE
  5
A68
330
A02
100
AcDbEntity
  8
Mesh_cs
100
AcDbLine
 10
0.228811
 20
25.4861
 30
7
 11
0.312219
 21
25.6912
 31
7
  0
LINE
  5
A69
330
A02
100
AcDbEntity
  8
Mesh_cs
100
AcDbLine
 10
0.312219
 20
25.6912
 30
7
 11
0.360516
 21
25.8417
 31
7
  0
LINE
  5
A6A
330
A02
100
AcDbEntity
  8
Mesh_cs
100
AcDbLine
 10
0.360516
 20
25.8417
 30
7
 11
0.428133
 21
26.0525
 31
7
  0
LINE
  5
A6B
330
A02
100
AcDbEntity
  8
Mesh_cs
100
AcDbLine
 10
0.428133
 20
26.0525
 30
7
 11
0.464872
 21
26.2063
 31
7
  0
LINE
  5
A6C
330
A02
100
AcDbEntity
  8
Mesh_cs
100
AcDbLine
 10
0.464872
 20
26.2063
 30
7
 11
0.516307
 21
26.4216
 31
7
  0
LINE
  5
A6D
330
A02
100
AcDbEntity
  8
Mesh_cs
100
AcDbLine
 10
0.516307
 20
26.4216
 30
7
 11
0.541277
 21
26.5778
 31
7
  0
LINE
  5
A6E
330
A02
100
AcDbEntity
  8
Mesh_cs
100
AcDbLine
 10
0.541277
 20
26.5778
 30
7
 11
0.576234
 21
26.7963
 31
7
  0
LINE
  5
A6F
330
A02
100
AcDbEntity
  8
Mesh_cs
100
AcDbLine
 10
0.576234
 20
26.7963
 30
7
 11
0.589291
 21
26.9539
 31
7
  0
LINE
  5
A70
330
A02
100
AcDbEntity
  8
Mesh_cs
100
AcDbLine
 10
0.589291
 20
26.9539
 30
7
 11
0.607569
 21
27.1745
 31
7
  0
LINE
  5
A71
330
A02
100
AcDbEntity
  8
Mesh_cs
100
AcDbLine
 10
0.607569
 20
27.1745
 30
7
 11
0.851785
 21
31.7188
 31
7
  0
LINE
  5
A72
330
A02
100
AcDbEntity
  8
Mesh_cs
100
AcDbLine
 10
0.851785
 20
31.7188
 30
7
 11
1.19369
 21
38.0807
 31
7
  0
LINE
  5
A73
330
A02
100
AcDbEntity
  8
Mesh_cs
100
AcDbLine
 10
1.19369
 20
38.0807
 30
7
 11
1.51949
 21
42.6198
 31
7
  0
LINE
  5
A74
330
A02
100
AcDbEntity
  8
Mesh_cs
100
AcDbLine
 10
1.51949
 20
42.6198
 30
7
 11
1.97561
 21
48.9745
 31
7
  0
LINE
  5
A75
330
A02
100
AcDbEntity
  8
Mesh_cs
100
AcDbLine
 10
1.97561
 20
48.9745
 30
7
 11
2.38289
 21
53.5071
 31
7
  0
LINE
  5
A76
330
A02
100
AcDbEntity
  8
Mesh_cs
100
AcDbLine
 10
2.38289
 20
53.5071
 30
7
 11
2.95309
 21
59.8526
 31
7
  0
LINE
  5
A77
330
A02
100
AcDbEntity
  8
Mesh_cs
100
AcDbLine
 10
2.95309
 20
59.8526
 30
7
 11
3.44172
 21
64.3771
 31
7
  0
LINE
  5
A78
330
A02
100
AcDbEntity
  8
Mesh_cs
100
AcDbLine
 10
3.44172
 20
64.3771
 30
7
 11
4.1258
 21
70.7113
 31
7
  0
LINE
  5
A79
330
A02
100
AcDbEntity
  8
Mesh_cs
100
AcDbLine
 10
4.1258
 20
70.7113
 30
7
 11
4.69563
 21
75.2263
 31
7
  0
LINE
  5
A7A
330
A02
100
AcDbEntity
  8
Mesh_cs
100
AcDbLine
 10
4.69563
 20
75.2263
 30
7
 11
5.49338
 21
81.5473
 31
7
  0
LINE
  5
A7B
330
A02
100
AcDbEntity
  8
Mesh_cs
100
AcDbLine
 10
5.49338
 20
81.5473
 30
7
 11
6.14421
 21
86.0513
 31
7
  0
LINE
  5
A7C
330
A02
100
AcDbEntity
  8
Mesh_cs
100
AcDbLine
 10
6.14421
 20
86.0513
 30
7
 11
7.05538
 21
92.3569
 31
7
  0
LINE
  5
A7D
330
A02
100
AcDbEntity
  8
Mesh_cs
100
AcDbLine
 10
7.05538
 20
92.3569
 30
7
 11
7.787
 21
96.8485
 31
7
  0
LINE
  5
A7E
330
A02
100
AcDbEntity
  8
Mesh_cs
100
AcDbLine
 10
7.787
 20
96.8485
 30
7
 11
8.81129
 21
103.137
 31
7
  0
LINE
  5
A7F
330
A02
100
AcDbEntity
  8
Mesh_cs
100
AcDbLine
 10
8.81129
 20
103.137
 30
7
 11
9.62348
 21
107.614
 31
7
  0
LINE
  5
A80
330
A02
100
AcDbEntity
  8
Mesh_cs
100
AcDbLine
 10
9.62348
 20
107.614
 30
7
 11
10.7605
 21
113.883
 31
7
  0
LINE
  5
A81
330
A02
100
AcDbEntity
  8
Mesh_cs
100
AcDbLine
 10
10.7605
 20
113.883
 30
7
 11
12.01
 21
120.131
 31
7
  0
LINE
  5
A82
330
A02
100
AcDbEntity
  8
Mesh_cs
100
AcDbLine
 10
12.01
 20
120.131
 30
7
 11
12.9025
 21
124.593
 31
7
  0
LINE
  5
A83
330
A02
100
AcDbEntity
  8
Mesh_cs
100
AcDbLine
 10
12.9025
 20
124.593
 30
7
 11
13.875
 21
129.039
 31
7
  0
LINE
  5
A84
330
A02
100
AcDbEntity
  8
Mesh_cs
100
AcDbLine
 10
13.875
 20
129.039
 30
7
 11
15.2365
 21
135.263
 31
7
  0
LINE
  5
A85
330
A02
100
AcDbEntity
  8
Mesh_cs
100
AcDbLine
 10
15.2365
 20
135.263
 30
7
 11
16.2887
 21
139.69
 31
7
  0
LINE
  5
A86
330
A02
100
AcDbEntity
  8
Mesh_cs
100
AcDbLine
 10
16.2887
 20
139.69
 30
7
 11
17.7618
 21
145.889
 31
7
  0
LINE
  5
A87
330
A02
100
AcDbEntity
  8
Mesh_cs
100
AcDbLine
 10
17.7618
 20
145.889
 30
7
 11
18.8934
 21
150.296
 31
7
  0
LINE
  5
A88
330
A02
100
AcDbEntity
  8
Mesh_cs
100
AcDbLine
 10
18.8934
 20
150.296
 30
7
 11
20.4775
 21
156.467
 31
7
  0
LINE
  5
A89
330
A02
100
AcDbEntity
  8
Mesh_cs
100
AcDbLine
 10
20.4775
 20
156.467
 30
7
 11
21.6881
 21
160.854
 31
7
  0
LINE
  5
A8A
330
A02
100
AcDbEntity
  8
Mesh_cs
100
AcDbLine
 10
21.6881
 20
160.854
 30
7
 11
23.3829
 21
166.996
 31
7
  0
LINE
  5
A8B
330
A02
100
AcDbEntity
  8
Mesh_cs
100
AcDbLine
 10
23.3829
 20
166.996
 30
7
 11
24.672
 21
171.36
 31
7
  0
LINE
  5
A8C
330
A02
100
AcDbEntity
  8
Mesh_cs
100
AcDbLine
 10
24.672
 20
171.36
 30
7
 11
26.4768
 21
177.47
 31
7
  0
LINE
  5
A8D
330
A02
100
AcDbEntity
  8
Mesh_cs
100
AcDbLine
 10
26.4768
 20
177.47
 30
7
 11
27.8442
 21
181.811
 31
7
  0
LINE
  5
A8E
330
A02
100
AcDbEntity
  8
Mesh_cs
100
AcDbLine
 10
27.8442
 20
181.811
 30
7
 11
29.7585
 21
187.887
 31
7
  0
LINE
  5
A8F
330
A02
100
AcDbEntity
  8
Mesh_cs
100
AcDbLine
 10
29.7585
 20
187.887
 30
7
 11
31.2035
 21
192.203
 31
7
  0
LINE
  5
A90
330
A02
100
AcDbEntity
  8
Mesh_cs
100
AcDbLine
 10
31.2035
 20
192.203
 30
7
 11
33.2267
 21
198.244
 31
7
  0
LINE
  5
A91
330
A02
100
AcDbEntity
  8
Mesh_cs
100
AcDbLine
 10
33.2267
 20
198.244
 30
7
 11
34.749
 21
202.533
 31
7
  0
LINE
  5
A92
330
A02
100
AcDbEntity
  8
Mesh_cs
100
AcDbLine
 10
34.749
 20
202.533
 30
7
 11
36.8803
 21
208.537
 31
7
  0
LINE
  5
A93
330
A02
100
AcDbEntity
  8
Mesh_cs
100
AcDbLine
 10
36.8803
 20
208.537
 30
7
 11
38.4795
 21
212.797
 31
7
  0
LINE
  5
A94
330
A02
100
AcDbEntity
  8
Mesh_cs
100
AcDbLine
 10
38.4795
 20
212.797
 30
7
 11
40.7183
 21
218.762
 31
7
  0
LINE
  5
A95
330
A02
100
AcDbEntity
  8
Mesh_cs
100
AcDbLine
 10
40.7183
 20
218.762
 30
7
 11
43.0639
 21
224.686
 31
7
  0
LINE
  5
A96
330
A02
100
AcDbEntity
  8
Mesh_cs
100
AcDbLine
 10
43.0639
 20
224.686
 30
7
 11
44.7393
 21
228.917
 31
7
  0
LINE
  5
A97
330
A02
100
AcDbEntity
  8
Mesh_cs
100
AcDbLine
 10
44.7393
 20
228.917
 30
7
 11
46.4905
 21
233.117
 31
7
  0
LINE
  5
A98
330
A02
100
AcDbEntity
  8
Mesh_cs
100
AcDbLine
 10
46.4905
 20
233.117
 30
7
 11
48.9421
 21
238.998
 31
7
  0
LINE
  5
A99
330
A02
100
AcDbEntity
  8
Mesh_cs
100
AcDbLine
 10
48.9421
 20
238.998
 30
7
 11
51.4989
 21
244.833
 31
7
  0
LINE
  5
A9A
330
A02
100
AcDbEntity
  8
Mesh_cs
100
AcDbLine
 10
51.4989
 20
244.833
 30
7
 11
53.3253
 21
249.001
 31
7
  0
LINE
  5
A9B
330
A02
100
AcDbEntity
  8
Mesh_cs
100
AcDbLine
 10
53.3253
 20
249.001
 30
7
 11
55.2262
 21
253.136
 31
7
  0
LINE
  5
A9C
330
A02
100
AcDbEntity
  8
Mesh_cs
100
AcDbLine
 10
55.2262
 20
253.136
 30
7
 11
57.8874
 21
258.925
 31
7
  0
LINE
  5
A9D
330
A02
100
AcDbEntity
  8
Mesh_cs
100
AcDbLine
 10
57.8874
 20
258.925
 30
7
 11
59.8623
 21
263.025
 31
7
  0
LINE
  5
A9E
330
A02
100
AcDbEntity
  8
Mesh_cs
100
AcDbLine
 10
59.8623
 20
263.025
 30
7
 11
62.6271
 21
268.765
 31
7
  0
LINE
  5
A9F
330
A02
100
AcDbEntity
  8
Mesh_cs
100
AcDbLine
 10
62.6271
 20
268.765
 30
7
 11
64.6753
 21
272.829
 31
7
  0
LINE
  5
AA0
330
A02
100
AcDbEntity
  8
Mesh_cs
100
AcDbLine
 10
64.6753
 20
272.829
 30
7
 11
67.5428
 21
278.518
 31
7
  0
LINE
  5
AA1
330
A02
100
AcDbEntity
  8
Mesh_cs
100
AcDbLine
 10
67.5428
 20
278.518
 30
7
 11
70.512
 21
284.155
 31
7
  0
LINE
  5
AA2
330
A02
100
AcDbEntity
  8
Mesh_cs
100
AcDbLine
 10
70.512
 20
284.155
 30
7
 11
72.6328
 21
288.181
 31
7
  0
LINE
  5
AA3
330
A02
100
AcDbEntity
  8
Mesh_cs
100
AcDbLine
 10
72.6328
 20
288.181
 30
7
 11
74.8256
 21
292.169
 31
7
  0
LINE
  5
AA4
330
A02
100
AcDbEntity
  8
Mesh_cs
100
AcDbLine
 10
74.8256
 20
292.169
 30
7
 11
77.8956
 21
297.751
 31
7
  0
LINE
  5
AA5
330
A02
100
AcDbEntity
  8
Mesh_cs
100
AcDbLine
 10
77.8956
 20
297.751
 30
7
 11
80.1597
 21
301.699
 31
7
  0
LINE
  5
AA6
330
A02
100
AcDbEntity
  8
Mesh_cs
100
AcDbLine
 10
80.1597
 20
301.699
 30
7
 11
83.3295
 21
307.226
 31
7
  0
LINE
  5
AA7
330
A02
100
AcDbEntity
  8
Mesh_cs
100
AcDbLine
 10
83.3295
 20
307.226
 30
7
 11
85.6641
 21
311.132
 31
7
  0
LINE
  5
AA8
330
A02
100
AcDbEntity
  8
Mesh_cs
100
AcDbLine
 10
85.6641
 20
311.132
 30
7
 11
88.9326
 21
316.601
 31
7
  0
LINE
  5
AA9
330
A02
100
AcDbEntity
  8
Mesh_cs
100
AcDbLine
 10
88.9326
 20
316.601
 30
7
 11
91.3371
 21
320.464
 31
7
  0
LINE
  5
AAA
330
A02
100
AcDbEntity
  8
Mesh_cs
100
AcDbLine
 10
91.3371
 20
320.464
 30
7
 11
94.7033
 21
325.874
 31
7
  0
LINE
  5
AAB
330
A02
100
AcDbEntity
  8
Mesh_cs
100
AcDbLine
 10
94.7033
 20
325.874
 30
7
 11
97.1768
 21
329.694
 31
7
  0
LINE
  5
AAC
330
A02
100
AcDbEntity
  8
Mesh_cs
100
AcDbLine
 10
97.1768
 20
329.694
 30
7
 11
100.64
 21
335.041
 31
7
  0
LINE
  5
AAD
330
A02
100
AcDbEntity
  8
Mesh_cs
100
AcDbLine
 10
100.64
 20
335.041
 30
7
 11
100.996
 21
335.682
 31
7
  0
LINE
  5
AAE
330
A02
100
AcDbEntity
  8
Mesh_cs
100
AcDbLine
 10
100.996
 20
335.682
 30
7
 11
101.01
 21
335.708
 31
7
  0
LINE
  5
AAF
330
A02
100
AcDbEntity
  8
Mesh_cs
100
AcDbLine
 10
101.01
 20
335.708
 30
7
 11
101.061
 21
335.846
 31
7
  0
LINE
  5
AB0
330
A02
100
AcDbEntity
  8
Mesh_cs
100
AcDbLine
 10
101.061
 20
335.846
 30
7
 11
101.273
 21
336.417
 31
7
  0
LINE
  5
AB1
330
A02
100
AcDbEntity
  8
Mesh_cs
100
AcDbLine
 10
101.273
 20
336.417
 30
7
 11
101.372
 21
336.896
 31
7
  0
LINE
  5
AB2
330
A02
100
AcDbEntity
  8
Mesh_cs
100
AcDbLine
 10
101.372
 20
336.896
 30
7
 11
101.426
 21
337.158
 31
7
  0
LINE
  5
AB3
330
A02
100
AcDbEntity
  8
Mesh_cs
100
AcDbLine
 10
101.426
 20
337.158
 30
7
 11
106.267
 21
343.82
 31
7
  0
LINE
  5
AB4
330
A02
100
AcDbEntity
  8
Mesh_cs
100
AcDbLine
 10
106.267
 20
343.82
 30
7
 11
108.86
 21
347.389
 31
7
  0
LINE
  5
AB5
330
A02
100
AcDbEntity
  8
Mesh_cs
100
AcDbLine
 10
108.86
 20
347.389
 30
7
 11
116.121
 21
357.383
 31
7
  0
LINE
  5
AB6
330
A02
100
AcDbEntity
  8
Mesh_cs
100
AcDbLine
 10
116.121
 20
357.383
 30
7
 11
116.326
 21
357.234
 31
7
  0
LINE
  5
AB7
330
A02
100
AcDbEntity
  8
Mesh_cs
100
AcDbLine
 10
116.326
 20
357.234
 30
7
 11
116.612
 21
357.026
 31
7
  0
LINE
  5
AB8
330
A02
100
AcDbEntity
  8
Mesh_cs
100
AcDbLine
 10
116.612
 20
357.026
 30
7
 11
126.201
 21
350.059
 31
7
  0
LINE
  5
AB9
330
A02
100
AcDbEntity
  8
Mesh_cs
100
AcDbLine
 10
126.201
 20
350.059
 30
7
 11
132.864
 21
345.219
 31
7
  0
LINE
  5
ABA
330
A02
100
AcDbEntity
  8
Mesh_cs
100
AcDbLine
 10
179.968
 20
20.5668
 30
7
 11
179.933
 21
20.8007
 31
7
  0
LINE
  5
ABB
330
A02
100
AcDbEntity
  8
Mesh_cs
100
AcDbLine
 10
179.933
 20
20.8007
 30
7
 11
179.912
 21
20.931
 31
7
  0
LINE
  5
ABC
330
A02
100
AcDbEntity
  8
Mesh_cs
100
AcDbLine
 10
179.912
 20
20.931
 30
7
 11
179.86
 21
21.1636
 31
7
  0
LINE
  5
ABD
330
A02
100
AcDbEntity
  8
Mesh_cs
100
AcDbLine
 10
179.86
 20
21.1636
 30
7
 11
179.83
 21
21.2913
 31
7
  0
LINE
  5
ABE
330
A02
100
AcDbEntity
  8
Mesh_cs
100
AcDbLine
 10
179.83
 20
21.2913
 30
7
 11
179.76
 21
21.5203
 31
7
  0
LINE
  5
ABF
330
A02
100
AcDbEntity
  8
Mesh_cs
100
AcDbLine
 10
179.76
 20
21.5203
 30
7
 11
179.722
 21
21.6444
 31
7
  0
LINE
  5
AC0
330
A02
100
AcDbEntity
  8
Mesh_cs
100
AcDbLine
 10
179.722
 20
21.6444
 30
7
 11
179.676
 21
21.7642
 31
7
  0
LINE
  5
AC1
330
A02
100
AcDbEntity
  8
Mesh_cs
100
AcDbLine
 10
179.676
 20
21.7642
 30
7
 11
179.588
 21
21.9877
 31
7
  0
LINE
  5
AC2
330
A02
100
AcDbEntity
  8
Mesh_cs
100
AcDbLine
 10
179.588
 20
21.9877
 30
7
 11
179.534
 21
22.1024
 31
7
  0
LINE
  5
AC3
330
A02
100
AcDbEntity
  8
Mesh_cs
100
AcDbLine
 10
179.534
 20
22.1024
 30
7
 11
179.43
 21
22.3184
 31
7
  0
LINE
  5
AC4
330
A02
100
AcDbEntity
  8
Mesh_cs
100
AcDbLine
 10
179.43
 20
22.3184
 30
7
 11
179.37
 21
22.4275
 31
7
  0
LINE
  5
AC5
330
A02
100
AcDbEntity
  8
Mesh_cs
100
AcDbLine
 10
179.37
 20
22.4275
 30
7
 11
179.249
 21
22.634
 31
7
  0
LINE
  5
AC6
330
A02
100
AcDbEntity
  8
Mesh_cs
100
AcDbLine
 10
179.249
 20
22.634
 30
7
 11
179.183
 21
22.7371
 31
7
  0
LINE
  5
AC7
330
A02
100
AcDbEntity
  8
Mesh_cs
100
AcDbLine
 10
179.183
 20
22.7371
 30
7
 11
179.049
 21
22.9325
 31
7
  0
LINE
  5
AC8
330
A02
100
AcDbEntity
  8
Mesh_cs
100
AcDbLine
 10
179.049
 20
22.9325
 30
7
 11
178.978
 21
23.0292
 31
7
  0
LINE
  5
AC9
330
A02
100
AcDbEntity
  8
Mesh_cs
100
AcDbLine
 10
178.978
 20
23.0292
 30
7
 11
178.83
 21
23.2122
 31
7
  0
LINE
  5
ACA
330
A02
100
AcDbEntity
  8
Mesh_cs
100
AcDbLine
 10
178.83
 20
23.2122
 30
7
 11
178.754
 21
23.3021
 31
7
  0
LINE
  5
ACB
330
A02
100
AcDbEntity
  8
Mesh_cs
100
AcDbLine
 10
178.754
 20
23.3021
 30
7
 11
178.595
 21
23.4714
 31
7
  0
LINE
  5
ACC
330
A02
100
AcDbEntity
  8
Mesh_cs
100
AcDbLine
 10
178.595
 20
23.4714
 30
7
 11
178.516
 21
23.5546
 31
7
  0
LINE
  5
ACD
330
A02
100
AcDbEntity
  8
Mesh_cs
100
AcDbLine
 10
178.516
 20
23.5546
 30
7
 11
178.435
 21
23.6309
 31
7
  0
LINE
  5
ACE
330
A02
100
AcDbEntity
  8
Mesh_cs
100
AcDbLine
 10
178.435
 20
23.6309
 30
7
 11
178.266
 21
23.7857
 31
7
  0
LINE
  5
ACF
330
A02
100
AcDbEntity
  8
Mesh_cs
100
AcDbLine
 10
178.266
 20
23.7857
 30
7
 11
178.182
 21
23.8552
 31
7
  0
LINE
  5
AD0
330
A02
100
AcDbEntity
  8
Mesh_cs
100
AcDbLine
 10
178.182
 20
23.8552
 30
7
 11
178.006
 21
23.9949
 31
7
  0
LINE
  5
AD1
330
A02
100
AcDbEntity
  8
Mesh_cs
100
AcDbLine
 10
178.006
 20
23.9949
 30
7
 11
177.921
 21
24.0577
 31
7
  0
LINE
  5
AD2
330
A02
100
AcDbEntity
  8
Mesh_cs
100
AcDbLine
 10
177.921
 20
24.0577
 30
7
 11
177.739
 21
24.182
 31
7
  0
LINE
  5
AD3
330
A02
100
AcDbEntity
  8
Mesh_cs
100
AcDbLine
 10
177.739
 20
24.182
 30
7
 11
177.653
 21
24.2383
 31
7
  0
LINE
  5
AD4
330
A02
100
AcDbEntity
  8
Mesh_cs
100
AcDbLine
 10
177.653
 20
24.2383
 30
7
 11
177.466
 21
24.3471
 31
7
  0
LINE
  5
AD5
330
A02
100
AcDbEntity
  8
Mesh_cs
100
AcDbLine
 10
177.466
 20
24.3471
 30
7
 11
177.379
 21
24.3975
 31
7
  0
LINE
  5
AD6
330
A02
100
AcDbEntity
  8
Mesh_cs
100
AcDbLine
 10
177.379
 20
24.3975
 30
7
 11
177.288
 21
24.4441
 31
7
  0
LINE
  5
AD7
330
A02
100
AcDbEntity
  8
Mesh_cs
100
AcDbLine
 10
177.288
 20
24.4441
 30
7
 11
177.1
 21
24.5376
 31
7
  0
LINE
  5
AD8
330
A02
100
AcDbEntity
  8
Mesh_cs
100
AcDbLine
 10
177.1
 20
24.5376
 30
7
 11
177.003
 21
24.5803
 31
7
  0
LINE
  5
AD9
330
A02
100
AcDbEntity
  8
Mesh_cs
100
AcDbLine
 10
177.003
 20
24.5803
 30
7
 11
176.814
 21
24.6591
 31
7
  0
LINE
  5
ADA
330
A02
100
AcDbEntity
  8
Mesh_cs
100
AcDbLine
 10
176.814
 20
24.6591
 30
7
 11
176.712
 21
24.6972
 31
7
  0
LINE
  5
ADB
330
A02
100
AcDbEntity
  8
Mesh_cs
100
AcDbLine
 10
176.712
 20
24.6972
 30
7
 11
176.523
 21
24.7617
 31
7
  0
LINE
  5
ADC
330
A02
100
AcDbEntity
  8
Mesh_cs
100
AcDbLine
 10
176.523
 20
24.7617
 30
7
 11
176.417
 21
24.7947
 31
7
  0
LINE
  5
ADD
330
A02
100
AcDbEntity
  8
Mesh_cs
100
AcDbLine
 10
176.417
 20
24.7947
 30
7
 11
176.23
 21
24.8456
 31
7
  0
LINE
  5
ADE
330
A02
100
AcDbEntity
  8
Mesh_cs
100
AcDbLine
 10
176.23
 20
24.8456
 30
7
 11
176.119
 21
24.8728
 31
7
  0
LINE
  5
ADF
330
A02
100
AcDbEntity
  8
Mesh_cs
100
AcDbLine
 10
176.119
 20
24.8728
 30
7
 11
175.935
 21
24.9111
 31
7
  0
LINE
  5
AE0
330
A02
100
AcDbEntity
  8
Mesh_cs
100
AcDbLine
 10
175.935
 20
24.9111
 30
7
 11
175.82
 21
24.9319
 31
7
  0
LINE
  5
AE1
330
A02
100
AcDbEntity
  8
Mesh_cs
100
AcDbLine
 10
175.82
 20
24.9319
 30
7
 11
175.64
 21
24.9583
 31
7
  0
LINE
  5
AE2
330
A02
100
AcDbEntity
  8
Mesh_cs
100
AcDbLine
 10
175.64
 20
24.9583
 30
7
 11
175.521
 21
24.9721
 31
7
  0
LINE
  5
AE3
330
A02
100
AcDbEntity
  8
Mesh_cs
100
AcDbLine
 10
175.521
 20
24.9721
 30
7
 11
175.346
 21
24.9877
 31
7
  0
LINE
  5
AE4
330
A02
100
AcDbEntity
  8
Mesh_cs
100
AcDbLine
 10
175.346
 20
24.9877
 30
7
 11
175.224
 21
24.9939
 31
7
  0
LINE
  5
AE5
330
A02
100
AcDbEntity
  8
Mesh_cs
100
AcDbLine
 10
175.224
 20
24.9939
 30
7
 11
175.128
 21
24.9983
 31
7
  0
LINE
  5
AE6
330
A02
100
AcDbEntity
  8
Mesh_cs
100
AcDbLine
 10
175.128
 20
24.9983
 30
7
 11
175.034
 21
24.9997
 31
7
  0
LINE
  5
AE7
330
A02
100
AcDbEntity
  8
Mesh_cs
100
AcDbLine
 10
175.034
 20
24.9997
 30
7
 11
174.909
 21
24.9978
 31
7
  0
LINE
  5
AE8
330
A02
100
AcDbEntity
  8
Mesh_cs
100
AcDbLine
 10
174.909
 20
24.9978
 30
7
 11
174.729
 21
24.9926
 31
7
  0
LINE
  5
AE9
330
A02
100
AcDbEntity
  8
Mesh_cs
100
AcDbLine
 10
174.729
 20
24.9926
 30
7
 11
174.603
 21
24.9822
 31
7
  0
LINE
  5
AEA
330
A02
100
AcDbEntity
  8
Mesh_cs
100
AcDbLine
 10
174.603
 20
24.9822
 30
7
 11
174.419
 21
24.9662
 31
7
  0
LINE
  5
AEB
330
A02
100
AcDbEntity
  8
Mesh_cs
100
AcDbLine
 10
174.419
 20
24.9662
 30
7
 11
174.292
 21
24.947
 31
7
  0
LINE
  5
AEC
330
A02
100
AcDbEntity
  8
Mesh_cs
100
AcDbLine
 10
174.292
 20
24.947
 30
7
 11
174.078
 21
24.9143
 31
7
  0
LINE
  5
AED
330
A02
100
AcDbEntity
  8
Mesh_cs
100
AcDbLine
 10
174.078
 20
24.9143
 30
7
 11
173.951
 21
24.8861
 31
7
  0
LINE
  5
AEE
330
A02
100
AcDbEntity
  8
Mesh_cs
100
AcDbLine
 10
173.951
 20
24.8861
 30
7
 11
173.735
 21
24.8374
 31
7
  0
LINE
  5
AEF
330
A02
100
AcDbEntity
  8
Mesh_cs
100
AcDbLine
 10
173.735
 20
24.8374
 30
7
 11
173.61
 21
24.8002
 31
7
  0
LINE
  5
AF0
330
A02
100
AcDbEntity
  8
Mesh_cs
100
AcDbLine
 10
173.61
 20
24.8002
 30
7
 11
173.394
 21
24.7349
 31
7
  0
LINE
  5
AF1
330
A02
100
AcDbEntity
  8
Mesh_cs
100
AcDbLine
 10
173.394
 20
24.7349
 30
7
 11
173.27
 21
24.6886
 31
7
  0
LINE
  5
AF2
330
A02
100
AcDbEntity
  8
Mesh_cs
100
AcDbLine
 10
173.27
 20
24.6886
 30
7
 11
173.055
 21
24.6063
 31
7
  0
LINE
  5
AF3
330
A02
100
AcDbEntity
  8
Mesh_cs
100
AcDbLine
 10
173.055
 20
24.6063
 30
7
 11
172.935
 21
24.5512
 31
7
  0
LINE
  5
AF4
330
A02
100
AcDbEntity
  8
Mesh_cs
100
AcDbLine
 10
172.935
 20
24.5512
 30
7
 11
172.724
 21
24.4519
 31
7
  0
LINE
  5
AF5
330
A02
100
AcDbEntity
  8
Mesh_cs
100
AcDbLine
 10
172.724
 20
24.4519
 30
7
 11
172.608
 21
24.3883
 31
7
  0
LINE
  5
AF6
330
A02
100
AcDbEntity
  8
Mesh_cs
100
AcDbLine
 10
172.608
 20
24.3883
 30
7
 11
172.402
 21
24.2721
 31
7
  0
LINE
  5
AF7
330
A02
100
AcDbEntity
  8
Mesh_cs
100
AcDbLine
 10
172.402
 20
24.2721
 30
7
 11
172.291
 21
24.2004
 31
7
  0
LINE
  5
AF8
330
A02
100
AcDbEntity
  8
Mesh_cs
100
AcDbLine
 10
172.291
 20
24.2004
 30
7
 11
172.093
 21
24.0679
 31
7
  0
LINE
  5
AF9
330
A02
100
AcDbEntity
  8
Mesh_cs
100
AcDbLine
 10
172.093
 20
24.0679
 30
7
 11
171.987
 21
23.9887
 31
7
  0
LINE
  5
AFA
330
A02
100
AcDbEntity
  8
Mesh_cs
100
AcDbLine
 10
171.987
 20
23.9887
 30
7
 11
171.799
 21
23.8406
 31
7
  0
LINE
  5
AFB
330
A02
100
AcDbEntity
  8
Mesh_cs
100
AcDbLine
 10
171.799
 20
23.8406
 30
7
 11
171.7
 21
23.7546
 31
7
  0
LINE
  5
AFC
330
A02
100
AcDbEntity
  8
Mesh_cs
100
AcDbLine
 10
171.7
 20
23.7546
 30
7
 11
171.523
 21
23.592
 31
7
  0
LINE
  5
AFD
330
A02
100
AcDbEntity
  8
Mesh_cs
100
AcDbLine
 10
171.523
 20
23.592
 30
7
 11
171.43
 21
23.5
 31
7
  0
LINE
  5
AFE
330
A02
100
AcDbEntity
  8
Mesh_cs
100
AcDbLine
 10
171.43
 20
23.5
 30
7
 11
171.267
 21
23.3244
 31
7
  0
LINE
  5
AFF
330
A02
100
AcDbEntity
  8
Mesh_cs
100
AcDbLine
 10
171.267
 20
23.3244
 30
7
 11
171.181
 21
23.2271
 31
7
  0
LINE
  5
B00
330
A02
100
AcDbEntity
  8
Mesh_cs
100
AcDbLine
 10
171.181
 20
23.2271
 30
7
 11
171.032
 21
23.04
 31
7
  0
LINE
  5
B01
330
A02
100
AcDbEntity
  8
Mesh_cs
100
AcDbLine
 10
171.032
 20
23.04
 30
7
 11
170.955
 21
22.9384
 31
7
  0
LINE
  5
B02
330
A02
100
AcDbEntity
  8
Mesh_cs
100
AcDbLine
 10
170.955
 20
22.9384
 30
7
 11
170.821
 21
22.7416
 31
7
  0
LINE
  5
B03
330
A02
100
AcDbEntity
  8
Mesh_cs
100
AcDbLine
 10
170.821
 20
22.7416
 30
7
 11
170.752
 21
22.6366
 31
7
  0
LINE
  5
B04
330
A02
100
AcDbEntity
  8
Mesh_cs
100
AcDbLine
 10
170.752
 20
22.6366
 30
7
 11
170.634
 21
22.4319
 31
7
  0
LINE
  5
B05
330
A02
100
AcDbEntity
  8
Mesh_cs
100
AcDbLine
 10
170.634
 20
22.4319
 30
7
 11
170.573
 21
22.3244
 31
7
  0
LINE
  5
B06
330
A02
100
AcDbEntity
  8
Mesh_cs
100
AcDbLine
 10
170.573
 20
22.3244
 30
7
 11
170.52
 21
22.2152
 31
7
  0
LINE
  5
B07
330
A02
100
AcDbEntity
  8
Mesh_cs
100
AcDbLine
 10
170.52
 20
22.2152
 30
7
 11
170.42
 21
22.0047
 31
7
  0
LINE
  5
B08
330
A02
100
AcDbEntity
  8
Mesh_cs
100
AcDbLine
 10
170.42
 20
22.0047
 30
7
 11
170.375
 21
21.8946
 31
7
  0
LINE
  5
B09
330
A02
100
AcDbEntity
  8
Mesh_cs
100
AcDbLine
 10
170.375
 20
21.8946
 30
7
 11
170.291
 21
21.6804
 31
7
  0
LINE
  5
B0A
330
A02
100
AcDbEntity
  8
Mesh_cs
100
AcDbLine
 10
170.291
 20
21.6804
 30
7
 11
170.254
 21
21.5702
 31
7
  0
LINE
  5
B0B
330
A02
100
AcDbEntity
  8
Mesh_cs
100
AcDbLine
 10
170.254
 20
21.5702
 30
7
 11
170.181
 21
21.33
 31
7
  0
LINE
  5
B0C
330
A02
100
AcDbEntity
  8
Mesh_cs
100
AcDbLine
 10
170.181
 20
21.33
 30
7
 11
170.151
 21
21.2204
 31
7
  0
LINE
  5
B0D
330
A02
100
AcDbEntity
  8
Mesh_cs
100
AcDbLine
 10
170.151
 20
21.2204
 30
7
 11
170.094
 21
20.9539
 31
7
  0
LINE
  5
B0E
330
A02
100
AcDbEntity
  8
Mesh_cs
100
AcDbLine
 10
170.094
 20
20.9539
 30
7
 11
170.072
 21
20.8456
 31
7
  0
LINE
  5
B0F
330
A02
100
AcDbEntity
  8
Mesh_cs
100
AcDbLine
 10
170.072
 20
20.8456
 30
7
 11
170.056
 21
20.7391
 31
7
  0
LINE
  5
B10
330
A02
100
AcDbEntity
  8
Mesh_cs
100
AcDbLine
 10
170.056
 20
20.7391
 30
7
 11
170.023
 21
20.4759
 31
7
  0
LINE
  5
B11
330
A02
100
AcDbEntity
  8
Mesh_cs
100
AcDbLine
 10
170.023
 20
20.4759
 30
7
 11
170.014
 21
20.3717
 31
7
  0
LINE
  5
B12
330
A02
100
AcDbEntity
  8
Mesh_cs
100
AcDbLine
 10
170.014
 20
20.3717
 30
7
 11
170.011
 21
20.3139
 31
7
  0
LINE
  5
B13
330
A02
100
AcDbEntity
  8
Mesh_cs
100
AcDbLine
 10
170.011
 20
20.3139
 30
7
 11
170.001
 21
20.0569
 31
7
  0
LINE
  5
B14
330
A02
100
AcDbEntity
  8
Mesh_cs
100
AcDbLine
 10
170.001
 20
20.0569
 30
7
 11
170
 21
20
 31
7
  0
LINE
  5
B15
330
A02
100
AcDbEntity
  8
Mesh_cs
100
AcDbLine
 10
170
 20
20
 30
7
 11
170.006
 21
19.8448
 31
7
  0
LINE
  5
B16
330
A02
100
AcDbEntity
  8
Mesh_cs
100
AcDbLine
 10
170.006
 20
19.8448
 30
7
 11
170.017
 21
19.585
 31
7
  0
LINE
  5
B17
330
A02
100
AcDbEntity
  8
Mesh_cs
100
AcDbLine
 10
170.017
 20
19.585
 30
7
 11
170.047
 21
19.3411
 31
7
  0
LINE
  5
B18
330
A02
100
AcDbEntity
  8
Mesh_cs
100
AcDbLine
 10
170.047
 20
19.3411
 30
7
 11
170.068
 21
19.1799
 31
7
  0
LINE
  5
B19
330
A02
100
AcDbEntity
  8
Mesh_cs
100
AcDbLine
 10
170.068
 20
19.1799
 30
7
 11
170.113
 21
18.9536
 31
7
  0
LINE
  5
B1A
330
A02
100
AcDbEntity
  8
Mesh_cs
100
AcDbLine
 10
170.113
 20
18.9536
 30
7
 11
170.145
 21
18.8049
 31
7
  0
LINE
  5
B1B
330
A02
100
AcDbEntity
  8
Mesh_cs
100
AcDbLine
 10
170.145
 20
18.8049
 30
7
 11
170.21
 21
18.574
 31
7
  0
LINE
  5
B1C
330
A02
100
AcDbEntity
  8
Mesh_cs
100
AcDbLine
 10
170.21
 20
18.574
 30
7
 11
170.25
 21
18.4383
 31
7
  0
LINE
  5
B1D
330
A02
100
AcDbEntity
  8
Mesh_cs
100
AcDbLine
 10
170.25
 20
18.4383
 30
7
 11
170.336
 21
18.2049
 31
7
  0
LINE
  5
B1E
330
A02
100
AcDbEntity
  8
Mesh_cs
100
AcDbLine
 10
170.336
 20
18.2049
 30
7
 11
170.388
 21
18.0689
 31
7
  0
LINE
  5
B1F
330
A02
100
AcDbEntity
  8
Mesh_cs
100
AcDbLine
 10
170.388
 20
18.0689
 30
7
 11
170.496
 21
17.8355
 31
7
  0
LINE
  5
B20
330
A02
100
AcDbEntity
  8
Mesh_cs
100
AcDbLine
 10
170.496
 20
17.8355
 30
7
 11
170.56
 21
17.7005
 31
7
  0
LINE
  5
B21
330
A02
100
AcDbEntity
  8
Mesh_cs
100
AcDbLine
 10
170.56
 20
17.7005
 30
7
 11
170.691
 21
17.4699
 31
7
  0
LINE
  5
B22
330
A02
100
AcDbEntity
  8
Mesh_cs
100
AcDbLine
 10
170.691
 20
17.4699
 30
7
 11
170.768
 21
17.3375
 31
7
  0
LINE
  5
B23
330
A02
100
AcDbEntity
  8
Mesh_cs
100
AcDbLine
 10
170.768
 20
17.3375
 30
7
 11
170.922
 21
17.113
 31
7
  0
LINE
  5
B24
330
A02
100
AcDbEntity
  8
Mesh_cs
100
AcDbLine
 10
170.922
 20
17.113
 30
7
 11
171.011
 21
16.9847
 31
7
  0
LINE
  5
B25
330
A02
100
AcDbEntity
  8
Mesh_cs
100
AcDbLine
 10
171.011
 20
16.9847
 30
7
 11
171.171
 21
16.7906
 31
7
  0
LINE
  5
B26
330
A02
100
AcDbEntity
  8
Mesh_cs
100
AcDbLine
 10
171.171
 20
16.7906
 30
7
 11
171.272
 21
16.6682
 31
7
  0
LINE
  5
B27
330
A02
100
AcDbEntity
  8
Mesh_cs
100
AcDbLine
 10
171.272
 20
16.6682
 30
7
 11
171.431
 21
16.5021
 31
7
  0
LINE
  5
B28
330
A02
100
AcDbEntity
  8
Mesh_cs
100
AcDbLine
 10
171.431
 20
16.5021
 30
7
 11
171.544
 21
16.3873
 31
7
  0
LINE
  5
B29
330
A02
100
AcDbEntity
  8
Mesh_cs
100
AcDbLine
 10
171.544
 20
16.3873
 30
7
 11
171.717
 21
16.2312
 31
7
  0
LINE
  5
B2A
330
A02
100
AcDbEntity
  8
Mesh_cs
100
AcDbLine
 10
171.717
 20
16.2312
 30
7
 11
171.84
 21
16.1255
 31
7
  0
LINE
  5
B2B
330
A02
100
AcDbEntity
  8
Mesh_cs
100
AcDbLine
 10
171.84
 20
16.1255
 30
7
 11
172.027
 21
15.9812
 31
7
  0
LINE
  5
B2C
330
A02
100
AcDbEntity
  8
Mesh_cs
100
AcDbLine
 10
172.027
 20
15.9812
 30
7
 11
172.16
 21
15.886
 31
7
  0
LINE
  5
B2D
330
A02
100
AcDbEntity
  8
Mesh_cs
100
AcDbLine
 10
172.16
 20
15.886
 30
7
 11
172.359
 21
15.7552
 31
7
  0
LINE
  5
B2E
330
A02
100
AcDbEntity
  8
Mesh_cs
100
AcDbLine
 10
172.359
 20
15.7552
 30
7
 11
172.486
 21
15.6795
 31
7
  0
LINE
  5
B2F
330
A02
100
AcDbEntity
  8
Mesh_cs
100
AcDbLine
 10
172.486
 20
15.6795
 30
7
 11
172.695
 21
15.5636
 31
7
  0
LINE
  5
B30
330
A02
100
AcDbEntity
  8
Mesh_cs
100
AcDbLine
 10
172.695
 20
15.5636
 30
7
 11
172.814
 21
15.5043
 31
7
  0
LINE
  5
B31
330
A02
100
AcDbEntity
  8
Mesh_cs
100
AcDbLine
 10
172.814
 20
15.5043
 30
7
 11
173.032
 21
15.4045
 31
7
  0
LINE
  5
B32
330
A02
100
AcDbEntity
  8
Mesh_cs
100
AcDbLine
 10
173.032
 20
15.4045
 30
7
 11
173.154
 21
15.3538
 31
7
  0
LINE
  5
B33
330
A02
100
AcDbEntity
  8
Mesh_cs
100
AcDbLine
 10
173.154
 20
15.3538
 30
7
 11
173.38
 21
15.2711
 31
7
  0
LINE
  5
B34
330
A02
100
AcDbEntity
  8
Mesh_cs
100
AcDbLine
 10
173.38
 20
15.2711
 30
7
 11
173.504
 21
15.2294
 31
7
  0
LINE
  5
B35
330
A02
100
AcDbEntity
  8
Mesh_cs
100
AcDbLine
 10
173.504
 20
15.2294
 30
7
 11
173.735
 21
15.1643
 31
7
  0
LINE
  5
B36
330
A02
100
AcDbEntity
  8
Mesh_cs
100
AcDbLine
 10
173.735
 20
15.1643
 30
7
 11
173.861
 21
15.1317
 31
7
  0
LINE
  5
B37
330
A02
100
AcDbEntity
  8
Mesh_cs
100
AcDbLine
 10
173.861
 20
15.1317
 30
7
 11
174.094
 21
15.0847
 31
7
  0
LINE
  5
B38
330
A02
100
AcDbEntity
  8
Mesh_cs
100
AcDbLine
 10
174.094
 20
15.0847
 30
7
 11
174.221
 21
15.0612
 31
7
  0
LINE
  5
B39
330
A02
100
AcDbEntity
  8
Mesh_cs
100
AcDbLine
 10
174.221
 20
15.0612
 30
7
 11
174.455
 21
15.0322
 31
7
  0
LINE
  5
B3A
330
A02
100
AcDbEntity
  8
Mesh_cs
100
AcDbLine
 10
174.455
 20
15.0322
 30
7
 11
174.581
 21
15.0176
 31
7
  0
LINE
  5
B3B
330
A02
100
AcDbEntity
  8
Mesh_cs
100
AcDbLine
 10
174.581
 20
15.0176
 30
7
 11
174.814
 21
15.0064
 31
7
  0
LINE
  5
B3C
330
A02
100
AcDbEntity
  8
Mesh_cs
100
AcDbLine
 10
174.814
 20
15.0064
 30
7
 11
174.94
 21
15.0004
 31
7
  0
LINE
  5
B3D
330
A02
100
AcDbEntity
  8
Mesh_cs
100
AcDbLine
 10
174.94
 20
15.0004
 30
7
 11
175.063
 21
15.0027
 31
7
  0
LINE
  5
B3E
330
A02
100
AcDbEntity
  8
Mesh_cs
100
AcDbLine
 10
175.063
 20
15.0027
 30
7
 11
175.292
 21
15.0086
 31
7
  0
LINE
  5
B3F
330
A02
100
AcDbEntity
  8
Mesh_cs
100
AcDbLine
 10
175.292
 20
15.0086
 30
7
 11
175.413
 21
15.0187
 31
7
  0
LINE
  5
B40
330
A02
100
AcDbEntity
  8
Mesh_cs
100
AcDbLine
 10
175.413
 20
15.0187
 30
7
 11
175.638
 21
15.0411
 31
7
  0
LINE
  5
B41
330
A02
100
AcDbEntity
  8
Mesh_cs
100
AcDbLine
 10
175.638
 20
15.0411
 30
7
 11
175.755
 21
15.0585
 31
7
  0
LINE
  5
B42
330
A02
100
AcDbEntity
  8
Mesh_cs
100
AcDbLine
 10
175.755
 20
15.0585
 30
7
 11
175.973
 21
15.0961
 31
7
  0
LINE
  5
B43
330
A02
100
AcDbEntity
  8
Mesh_cs
100
AcDbLine
 10
175.973
 20
15.0961
 30
7
 11
176.087
 21
15.1202
 31
7
  0
LINE
  5
B44
330
A02
100
AcDbEntity
  8
Mesh_cs
100
AcDbLine
 10
176.087
 20
15.1202
 30
7
 11
176.297
 21
15.1719
 31
7
  0
LINE
  5
B45
330
A02
100
AcDbEntity
  8
Mesh_cs
100
AcDbLine
 10
176.297
 20
15.1719
 30
7
 11
176.406
 21
15.2021
 31
7
  0
LINE
  5
B46
330
A02
100
AcDbEntity
  8
Mesh_cs
100
AcDbLine
 10
176.406
 20
15.2021
 30
7
 11
176.608
 21
15.2666
 31
7
  0
LINE
  5
B47
330
A02
100
AcDbEntity
  8
Mesh_cs
100
AcDbLine
 10
176.608
 20
15.2666
 30
7
 11
176.712
 21
15.3023
 31
7
  0
LINE
  5
B48
330
A02
100
AcDbEntity
  8
Mesh_cs
100
AcDbLine
 10
176.712
 20
15.3023
 30
7
 11
176.904
 21
15.3781
 31
7
  0
LINE
  5
B49
330
A02
100
AcDbEntity
  8
Mesh_cs
100
AcDbLine
 10
176.904
 20
15.3781
 30
7
 11
177.003
 21
15.4187
 31
7
  0
LINE
  5
B4A
330
A02
100
AcDbEntity
  8
Mesh_cs
100
AcDbLine
 10
177.003
 20
15.4187
 30
7
 11
177.184
 21
15.5044
 31
7
  0
LINE
  5
B4B
330
A02
100
AcDbEntity
  8
Mesh_cs
100
AcDbLine
 10
177.184
 20
15.5044
 30
7
 11
177.278
 21
15.5492
 31
7
  0
LINE
  5
B4C
330
A02
100
AcDbEntity
  8
Mesh_cs
100
AcDbLine
 10
177.278
 20
15.5492
 30
7
 11
177.367
 21
15.5976
 31
7
  0
LINE
  5
B4D
330
A02
100
AcDbEntity
  8
Mesh_cs
100
AcDbLine
 10
177.367
 20
15.5976
 30
7
 11
177.538
 21
15.6918
 31
7
  0
LINE
  5
B4E
330
A02
100
AcDbEntity
  8
Mesh_cs
100
AcDbLine
 10
177.538
 20
15.6918
 30
7
 11
177.624
 21
15.7451
 31
7
  0
LINE
  5
B4F
330
A02
100
AcDbEntity
  8
Mesh_cs
100
AcDbLine
 10
177.624
 20
15.7451
 30
7
 11
177.783
 21
15.8465
 31
7
  0
LINE
  5
B50
330
A02
100
AcDbEntity
  8
Mesh_cs
100
AcDbLine
 10
177.783
 20
15.8465
 30
7
 11
177.869
 21
15.9061
 31
7
  0
LINE
  5
B51
330
A02
100
AcDbEntity
  8
Mesh_cs
100
AcDbLine
 10
177.869
 20
15.9061
 30
7
 11
178.017
 21
16.0133
 31
7
  0
LINE
  5
B52
330
A02
100
AcDbEntity
  8
Mesh_cs
100
AcDbLine
 10
178.017
 20
16.0133
 30
7
 11
178.102
 21
16.0796
 31
7
  0
LINE
  5
B53
330
A02
100
AcDbEntity
  8
Mesh_cs
100
AcDbLine
 10
178.102
 20
16.0796
 30
7
 11
178.239
 21
16.1914
 31
7
  0
LINE
  5
B54
330
A02
100
AcDbEntity
  8
Mesh_cs
100
AcDbLine
 10
178.239
 20
16.1914
 30
7
 11
178.322
 21
16.2644
 31
7
  0
LINE
  5
B55
330
A02
100
AcDbEntity
  8
Mesh_cs
100
AcDbLine
 10
178.322
 20
16.2644
 30
7
 11
178.448
 21
16.3796
 31
7
  0
LINE
  5
B56
330
A02
100
AcDbEntity
  8
Mesh_cs
100
AcDbLine
 10
178.448
 20
16.3796
 30
7
 11
178.529
 21
16.4594
 31
7
  0
LINE
  5
B57
330
A02
100
AcDbEntity
  8
Mesh_cs
100
AcDbLine
 10
178.529
 20
16.4594
 30
7
 11
178.646
 21
16.5789
 31
7
  0
LINE
  5
B58
330
A02
100
AcDbEntity
  8
Mesh_cs
100
AcDbLine
 10
178.646
 20
16.5789
 30
7
 11
178.723
 21
16.6656
 31
7
  0
LINE
  5
B59
330
A02
100
AcDbEntity
  8
Mesh_cs
100
AcDbLine
 10
178.723
 20
16.6656
 30
7
 11
178.838
 21
16.7952
 31
7
  0
LINE
  5
B5A
330
A02
100
AcDbEntity
  8
Mesh_cs
100
AcDbLine
 10
178.838
 20
16.7952
 30
7
 11
178.948
 21
16.9357
 31
7
  0
LINE
  5
B5B
330
A02
100
AcDbEntity
  8
Mesh_cs
100
AcDbLine
 10
178.948
 20
16.9357
 30
7
 11
179.022
 21
17.0291
 31
7
  0
LINE
  5
B5C
330
A02
100
AcDbEntity
  8
Mesh_cs
100
AcDbLine
 10
179.022
 20
17.0291
 30
7
 11
179.127
 21
17.1808
 31
7
  0
LINE
  5
B5D
330
A02
100
AcDbEntity
  8
Mesh_cs
100
AcDbLine
 10
179.127
 20
17.1808
 30
7
 11
179.196
 21
17.2808
 31
7
  0
LINE
  5
B5E
330
A02
100
AcDbEntity
  8
Mesh_cs
100
AcDbLine
 10
179.196
 20
17.2808
 30
7
 11
179.295
 21
17.4436
 31
7
  0
LINE
  5
B5F
330
A02
100
AcDbEntity
  8
Mesh_cs
100
AcDbLine
 10
179.295
 20
17.4436
 30
7
 11
179.358
 21
17.5498
 31
7
  0
LINE
  5
B60
330
A02
100
AcDbEntity
  8
Mesh_cs
100
AcDbLine
 10
179.358
 20
17.5498
 30
7
 11
179.45
 21
17.7236
 31
7
  0
LINE
  5
B61
330
A02
100
AcDbEntity
  8
Mesh_cs
100
AcDbLine
 10
179.45
 20
17.7236
 30
7
 11
179.507
 21
17.8357
 31
7
  0
LINE
  5
B62
330
A02
100
AcDbEntity
  8
Mesh_cs
100
AcDbLine
 10
179.507
 20
17.8357
 30
7
 11
179.59
 21
18.0203
 31
7
  0
LINE
  5
B63
330
A02
100
AcDbEntity
  8
Mesh_cs
100
AcDbLine
 10
179.59
 20
18.0203
 30
7
 11
179.64
 21
18.1377
 31
7
  0
LINE
  5
B64
330
A02
100
AcDbEntity
  8
Mesh_cs
100
AcDbLine
 10
179.64
 20
18.1377
 30
7
 11
179.713
 21
18.3326
 31
7
  0
LINE
  5
B65
330
A02
100
AcDbEntity
  8
Mesh_cs
100
AcDbLine
 10
179.713
 20
18.3326
 30
7
 11
179.755
 21
18.4546
 31
7
  0
LINE
  5
B66
330
A02
100
AcDbEntity
  8
Mesh_cs
100
AcDbLine
 10
179.755
 20
18.4546
 30
7
 11
179.816
 21
18.659
 31
7
  0
LINE
  5
B67
330
A02
100
AcDbEntity
  8
Mesh_cs
100
AcDbLine
 10
179.816
 20
18.659
 30
7
 11
179.85
 21
18.785
 31
7
  0
LINE
  5
B68
330
A02
100
AcDbEntity
  8
Mesh_cs
100
AcDbLine
 10
179.85
 20
18.785
 30
7
 11
179.897
 21
18.998
 31
7
  0
LINE
  5
B69
330
A02
100
AcDbEntity
  8
Mesh_cs
100
AcDbLine
 10
179.897
 20
18.998
 30
7
 11
179.923
 21
19.1271
 31
7
  0
LINE
  5
B6A
330
A02
100
AcDbEntity
  8
Mesh_cs
100
AcDbLine
 10
179.923
 20
19.1271
 30
7
 11
179.956
 21
19.3475
 31
7
  0
LINE
  5
B6B
330
A02
100
AcDbEntity
  8
Mesh_cs
100
AcDbLine
 10
179.956
 20
19.3475
 30
7
 11
179.972
 21
19.4788
 31
7
  0
LINE
  5
B6C
330
A02
100
AcDbEntity
  8
Mesh_cs
100
AcDbLine
 10
179.972
 20
19.4788
 30
7
 11
179.99
 21
19.7052
 31
7
  0
LINE
  5
B6D
330
A02
100
AcDbEntity
  8
Mesh_cs
100
AcDbLine
 10
179.99
 20
19.7052
 30
7
 11
179.997
 21
19.8378
 31
7
  0
LINE
  5
B6E
330
A02
100
AcDbEntity
  8
Mesh_cs
100
AcDbLine
 10
179.997
 20
19.8378
 30
7
 11
179.998
 21
20.0686
 31
7
  0
LINE
  5
B6F
330
A02
100
AcDbEntity
  8
Mesh_cs
100
AcDbLine
 10
179.998
 20
20.0686
 30
7
 11
179.996
 21
20.2014
 31
7
  0
LINE
  5
B70
330
A02
100
AcDbEntity
  8
Mesh_cs
100
AcDbLine
 10
179.996
 20
20.2014
 30
7
 11
179.979
 21
20.4347
 31
7
  0
LINE
  5
B71
330
A02
100
AcDbEntity
  8
Mesh_cs
100
AcDbLine
 10
179.979
 20
20.4347
 30
7
 11
179.968
 21
20.5668
 31
7
  0
LINE
  5
B72
330
A02
100
AcDbEntity
  8
Mesh_cs
100
AcDbLine
 10
15.0119
 20
20.2724
 30
7
 11
15.019
 21
20.4358
 31
7
  0
LINE
  5
B73
330
A02
100
AcDbEntity
  8
Mesh_cs
100
AcDbLine
 10
15.019
 20
20.4358
 30
7
 11
15.0404
 21
20.598
 31
7
  0
LINE
  5
B74
330
A02
100
AcDbEntity
  8
Mesh_cs
100
AcDbLine
 10
15.0404
 20
20.598
 30
7
 11
15.076
 21
20.8682
 31
7
  0
LINE
  5
B75
330
A02
100
AcDbEntity
  8
Mesh_cs
100
AcDbLine
 10
15.076
 20
20.8682
 30
7
 11
15.135
 21
21.1344
 31
7
  0
LINE
  5
B76
330
A02
100
AcDbEntity
  8
Mesh_cs
100
AcDbLine
 10
15.135
 20
21.1344
 30
7
 11
15.1704
 21
21.2941
 31
7
  0
LINE
  5
B77
330
A02
100
AcDbEntity
  8
Mesh_cs
100
AcDbLine
 10
15.1704
 20
21.2941
 30
7
 11
15.2523
 21
21.5541
 31
7
  0
LINE
  5
B78
330
A02
100
AcDbEntity
  8
Mesh_cs
100
AcDbLine
 10
15.2523
 20
21.5541
 30
7
 11
15.3015
 21
21.7101
 31
7
  0
LINE
  5
B79
330
A02
100
AcDbEntity
  8
Mesh_cs
100
AcDbLine
 10
15.3015
 20
21.7101
 30
7
 11
15.3641
 21
21.8612
 31
7
  0
LINE
  5
B7A
330
A02
100
AcDbEntity
  8
Mesh_cs
100
AcDbLine
 10
15.3641
 20
21.8612
 30
7
 11
15.4685
 21
22.1131
 31
7
  0
LINE
  5
B7B
330
A02
100
AcDbEntity
  8
Mesh_cs
100
AcDbLine
 10
15.4685
 20
22.1131
 30
7
 11
15.5943
 21
22.3549
 31
7
  0
LINE
  5
B7C
330
A02
100
AcDbEntity
  8
Mesh_cs
100
AcDbLine
 10
15.5943
 20
22.3549
 30
7
 11
15.6699
 21
22.5
 31
7
  0
LINE
  5
B7D
330
A02
100
AcDbEntity
  8
Mesh_cs
100
AcDbLine
 10
15.6699
 20
22.5
 30
7
 11
15.8164
 21
22.7299
 31
7
  0
LINE
  5
B7E
330
A02
100
AcDbEntity
  8
Mesh_cs
100
AcDbLine
 10
15.8164
 20
22.7299
 30
7
 11
15.9042
 21
22.8679
 31
7
  0
LINE
  5
B7F
330
A02
100
AcDbEntity
  8
Mesh_cs
100
AcDbLine
 10
15.9042
 20
22.8679
 30
7
 11
16.0038
 21
22.9977
 31
7
  0
LINE
  5
B80
330
A02
100
AcDbEntity
  8
Mesh_cs
100
AcDbLine
 10
16.0038
 20
22.9977
 30
7
 11
16.1698
 21
23.2139
 31
7
  0
LINE
  5
B81
330
A02
100
AcDbEntity
  8
Mesh_cs
100
AcDbLine
 10
16.1698
 20
23.2139
 30
7
 11
16.354
 21
23.4149
 31
7
  0
LINE
  5
B82
330
A02
100
AcDbEntity
  8
Mesh_cs
100
AcDbLine
 10
16.354
 20
23.4149
 30
7
 11
16.4645
 21
23.5355
 31
7
  0
LINE
  5
B83
330
A02
100
AcDbEntity
  8
Mesh_cs
100
AcDbLine
 10
16.4645
 20
23.5355
 30
7
 11
16.6655
 21
23.7197
 31
7
  0
LINE
  5
B84
330
A02
100
AcDbEntity
  8
Mesh_cs
100
AcDbLine
 10
16.6655
 20
23.7197
 30
7
 11
16.7861
 21
23.8302
 31
7
  0
LINE
  5
B85
330
A02
100
AcDbEntity
  8
Mesh_cs
100
AcDbLine
 10
16.7861
 20
23.8302
 30
7
 11
16.9158
 21
23.9298
 31
7
  0
LINE
  5
B86
330
A02
100
AcDbEntity
  8
Mesh_cs
100
AcDbLine
 10
16.9158
 20
23.9298
 30
7
 11
17.1321
 21
24.0958
 31
7
  0
LINE
  5
B87
330
A02
100
AcDbEntity
  8
Mesh_cs
100
AcDbLine
 10
17.1321
 20
24.0958
 30
7
 11
17.362
 21
24.2422
 31
7
  0
LINE
  5
B88
330
A02
100
AcDbEntity
  8
Mesh_cs
100
AcDbLine
 10
17.362
 20
24.2422
 30
7
 11
17.5
 21
24.3301
 31
7
  0
LINE
  5
B89
330
A02
100
AcDbEntity
  8
Mesh_cs
100
AcDbLine
 10
17.5
 20
24.3301
 30
7
 11
17.6451
 21
24.4057
 31
7
  0
LINE
  5
B8A
330
A02
100
AcDbEntity
  8
Mesh_cs
100
AcDbLine
 10
17.6451
 20
24.4057
 30
7
 11
17.8869
 21
24.5315
 31
7
  0
LINE
  5
B8B
330
A02
100
AcDbEntity
  8
Mesh_cs
100
AcDbLine
 10
17.8869
 20
24.5315
 30
7
 11
18.038
 21
24.5941
 31
7
  0
LINE
  5
B8C
330
A02
100
AcDbEntity
  8
Mesh_cs
100
AcDbLine
 10
18.038
 20
24.5941
 30
7
 11
18.2899
 21
24.6985
 31
7
  0
LINE
  5
B8D
330
A02
100
AcDbEntity
  8
Mesh_cs
100
AcDbLine
 10
18.2899
 20
24.6985
 30
7
 11
18.4459
 21
24.7477
 31
7
  0
LINE
  5
B8E
330
A02
100
AcDbEntity
  8
Mesh_cs
100
AcDbLine
 10
18.4459
 20
24.7477
 30
7
 11
18.7059
 21
24.8296
 31
7
  0
LINE
  5
B8F
330
A02
100
AcDbEntity
  8
Mesh_cs
100
AcDbLine
 10
18.7059
 20
24.8296
 30
7
 11
18.9721
 21
24.8886
 31
7
  0
LINE
  5
B90
330
A02
100
AcDbEntity
  8
Mesh_cs
100
AcDbLine
 10
18.9721
 20
24.8886
 30
7
 11
19.1318
 21
24.924
 31
7
  0
LINE
  5
B91
330
A02
100
AcDbEntity
  8
Mesh_cs
100
AcDbLine
 10
19.1318
 20
24.924
 30
7
 11
19.402
 21
24.9596
 31
7
  0
LINE
  5
B92
330
A02
100
AcDbEntity
  8
Mesh_cs
100
AcDbLine
 10
19.402
 20
24.9596
 30
7
 11
19.5642
 21
24.981
 31
7
  0
LINE
  5
B93
330
A02
100
AcDbEntity
  8
Mesh_cs
100
AcDbLine
 10
19.5642
 20
24.981
 30
7
 11
19.7276
 21
24.9881
 31
7
  0
LINE
  5
B94
330
A02
100
AcDbEntity
  8
Mesh_cs
100
AcDbLine
 10
19.7276
 20
24.9881
 30
7
 11
20
 21
25
 31
7
  0
LINE
  5
B95
330
A02
100
AcDbEntity
  8
Mesh_cs
100
AcDbLine
 10
20
 20
25
 30
7
 11
20.2724
 21
24.9881
 31
7
  0
LINE
  5
B96
330
A02
100
AcDbEntity
  8
Mesh_cs
100
AcDbLine
 10
20.2724
 20
24.9881
 30
7
 11
20.4358
 21
24.981
 31
7
  0
LINE
  5
B97
330
A02
100
AcDbEntity
  8
Mesh_cs
100
AcDbLine
 10
20.4358
 20
24.981
 30
7
 11
20.598
 21
24.9596
 31
7
  0
LINE
  5
B98
330
A02
100
AcDbEntity
  8
Mesh_cs
100
AcDbLine
 10
20.598
 20
24.9596
 30
7
 11
20.8682
 21
24.924
 31
7
  0
LINE
  5
B99
330
A02
100
AcDbEntity
  8
Mesh_cs
100
AcDbLine
 10
20.8682
 20
24.924
 30
7
 11
21.0279
 21
24.8886
 31
7
  0
LINE
  5
B9A
330
A02
100
AcDbEntity
  8
Mesh_cs
100
AcDbLine
 10
21.0279
 20
24.8886
 30
7
 11
21.2941
 21
24.8296
 31
7
  0
LINE
  5
B9B
330
A02
100
AcDbEntity
  8
Mesh_cs
100
AcDbLine
 10
21.2941
 20
24.8296
 30
7
 11
21.5541
 21
24.7477
 31
7
  0
LINE
  5
B9C
330
A02
100
AcDbEntity
  8
Mesh_cs
100
AcDbLine
 10
21.5541
 20
24.7477
 30
7
 11
21.7101
 21
24.6985
 31
7
  0
LINE
  5
B9D
330
A02
100
AcDbEntity
  8
Mesh_cs
100
AcDbLine
 10
21.7101
 20
24.6985
 30
7
 11
21.8612
 21
24.6359
 31
7
  0
LINE
  5
B9E
330
A02
100
AcDbEntity
  8
Mesh_cs
100
AcDbLine
 10
21.8612
 20
24.6359
 30
7
 11
22.1131
 21
24.5315
 31
7
  0
LINE
  5
B9F
330
A02
100
AcDbEntity
  8
Mesh_cs
100
AcDbLine
 10
22.1131
 20
24.5315
 30
7
 11
22.3549
 21
24.4057
 31
7
  0
LINE
  5
BA0
330
A02
100
AcDbEntity
  8
Mesh_cs
100
AcDbLine
 10
22.3549
 20
24.4057
 30
7
 11
22.5
 21
24.3301
 31
7
  0
LINE
  5
BA1
330
A02
100
AcDbEntity
  8
Mesh_cs
100
AcDbLine
 10
22.5
 20
24.3301
 30
7
 11
22.7299
 21
24.1836
 31
7
  0
LINE
  5
BA2
330
A02
100
AcDbEntity
  8
Mesh_cs
100
AcDbLine
 10
22.7299
 20
24.1836
 30
7
 11
22.8679
 21
24.0958
 31
7
  0
LINE
  5
BA3
330
A02
100
AcDbEntity
  8
Mesh_cs
100
AcDbLine
 10
22.8679
 20
24.0958
 30
7
 11
23.0842
 21
23.9298
 31
7
  0
LINE
  5
BA4
330
A02
100
AcDbEntity
  8
Mesh_cs
100
AcDbLine
 10
23.0842
 20
23.9298
 30
7
 11
23.2139
 21
23.8302
 31
7
  0
LINE
  5
BA5
330
A02
100
AcDbEntity
  8
Mesh_cs
100
AcDbLine
 10
23.2139
 20
23.8302
 30
7
 11
23.3345
 21
23.7197
 31
7
  0
LINE
  5
BA6
330
A02
100
AcDbEntity
  8
Mesh_cs
100
AcDbLine
 10
23.3345
 20
23.7197
 30
7
 11
23.5355
 21
23.5355
 31
7
  0
LINE
  5
BA7
330
A02
100
AcDbEntity
  8
Mesh_cs
100
AcDbLine
 10
23.5355
 20
23.5355
 30
7
 11
23.646
 21
23.4149
 31
7
  0
LINE
  5
BA8
330
A02
100
AcDbEntity
  8
Mesh_cs
100
AcDbLine
 10
23.646
 20
23.4149
 30
7
 11
23.8302
 21
23.2139
 31
7
  0
LINE
  5
BA9
330
A02
100
AcDbEntity
  8
Mesh_cs
100
AcDbLine
 10
23.8302
 20
23.2139
 30
7
 11
23.9962
 21
22.9977
 31
7
  0
LINE
  5
BAA
330
A02
100
AcDbEntity
  8
Mesh_cs
100
AcDbLine
 10
23.9962
 20
22.9977
 30
7
 11
24.0958
 21
22.8679
 31
7
  0
LINE
  5
BAB
330
A02
100
AcDbEntity
  8
Mesh_cs
100
AcDbLine
 10
24.0958
 20
22.8679
 30
7
 11
24.1836
 21
22.7299
 31
7
  0
LINE
  5
BAC
330
A02
100
AcDbEntity
  8
Mesh_cs
100
AcDbLine
 10
24.1836
 20
22.7299
 30
7
 11
24.3301
 21
22.5
 31
7
  0
LINE
  5
BAD
330
A02
100
AcDbEntity
  8
Mesh_cs
100
AcDbLine
 10
24.3301
 20
22.5
 30
7
 11
24.4057
 21
22.3549
 31
7
  0
LINE
  5
BAE
330
A02
100
AcDbEntity
  8
Mesh_cs
100
AcDbLine
 10
24.4057
 20
22.3549
 30
7
 11
24.5315
 21
22.1131
 31
7
  0
LINE
  5
BAF
330
A02
100
AcDbEntity
  8
Mesh_cs
100
AcDbLine
 10
24.5315
 20
22.1131
 30
7
 11
24.6359
 21
21.8612
 31
7
  0
LINE
  5
BB0
330
A02
100
AcDbEntity
  8
Mesh_cs
100
AcDbLine
 10
24.6359
 20
21.8612
 30
7
 11
24.6985
 21
21.7101
 31
7
  0
LINE
  5
BB1
330
A02
100
AcDbEntity
  8
Mesh_cs
100
AcDbLine
 10
24.6985
 20
21.7101
 30
7
 11
24.7804
 21
21.4501
 31
7
  0
LINE
  5
BB2
330
A02
100
AcDbEntity
  8
Mesh_cs
100
AcDbLine
 10
24.7804
 20
21.4501
 30
7
 11
24.8296
 21
21.2941
 31
7
  0
LINE
  5
BB3
330
A02
100
AcDbEntity
  8
Mesh_cs
100
AcDbLine
 10
24.8296
 20
21.2941
 30
7
 11
24.8886
 21
21.0279
 31
7
  0
LINE
  5
BB4
330
A02
100
AcDbEntity
  8
Mesh_cs
100
AcDbLine
 10
24.8886
 20
21.0279
 30
7
 11
24.924
 21
20.8682
 31
7
  0
LINE
  5
BB5
330
A02
100
AcDbEntity
  8
Mesh_cs
100
AcDbLine
 10
24.924
 20
20.8682
 30
7
 11
24.9454
 21
20.7061
 31
7
  0
LINE
  5
BB6
330
A02
100
AcDbEntity
  8
Mesh_cs
100
AcDbLine
 10
24.9454
 20
20.7061
 30
7
 11
24.981
 21
20.4358
 31
7
  0
LINE
  5
BB7
330
A02
100
AcDbEntity
  8
Mesh_cs
100
AcDbLine
 10
24.981
 20
20.4358
 30
7
 11
24.9929
 21
20.1634
 31
7
  0
LINE
  5
BB8
330
A02
100
AcDbEntity
  8
Mesh_cs
100
AcDbLine
 10
24.9929
 20
20.1634
 30
7
 11
25
 21
20
 31
7
  0
LINE
  5
BB9
330
A02
100
AcDbEntity
  8
Mesh_cs
100
AcDbLine
 10
25
 20
20
 30
7
 11
24.9881
 21
19.7276
 31
7
  0
LINE
  5
BBA
330
A02
100
AcDbEntity
  8
Mesh_cs
100
AcDbLine
 10
24.9881
 20
19.7276
 30
7
 11
24.981
 21
19.5642
 31
7
  0
LINE
  5
BBB
330
A02
100
AcDbEntity
  8
Mesh_cs
100
AcDbLine
 10
24.981
 20
19.5642
 30
7
 11
24.9454
 21
19.2939
 31
7
  0
LINE
  5
BBC
330
A02
100
AcDbEntity
  8
Mesh_cs
100
AcDbLine
 10
24.9454
 20
19.2939
 30
7
 11
24.924
 21
19.1318
 31
7
  0
LINE
  5
BBD
330
A02
100
AcDbEntity
  8
Mesh_cs
100
AcDbLine
 10
24.924
 20
19.1318
 30
7
 11
24.865
 21
18.8656
 31
7
  0
LINE
  5
BBE
330
A02
100
AcDbEntity
  8
Mesh_cs
100
AcDbLine
 10
24.865
 20
18.8656
 30
7
 11
24.8296
 21
18.7059
 31
7
  0
LINE
  5
BBF
330
A02
100
AcDbEntity
  8
Mesh_cs
100
AcDbLine
 10
24.8296
 20
18.7059
 30
7
 11
24.7477
 21
18.4459
 31
7
  0
LINE
  5
BC0
330
A02
100
AcDbEntity
  8
Mesh_cs
100
AcDbLine
 10
24.7477
 20
18.4459
 30
7
 11
24.6985
 21
18.2899
 31
7
  0
LINE
  5
BC1
330
A02
100
AcDbEntity
  8
Mesh_cs
100
AcDbLine
 10
24.6985
 20
18.2899
 30
7
 11
24.5941
 21
18.038
 31
7
  0
LINE
  5
BC2
330
A02
100
AcDbEntity
  8
Mesh_cs
100
AcDbLine
 10
24.5941
 20
18.038
 30
7
 11
24.5315
 21
17.8869
 31
7
  0
LINE
  5
BC3
330
A02
100
AcDbEntity
  8
Mesh_cs
100
AcDbLine
 10
24.5315
 20
17.8869
 30
7
 11
24.4057
 21
17.6451
 31
7
  0
LINE
  5
BC4
330
A02
100
AcDbEntity
  8
Mesh_cs
100
AcDbLine
 10
24.4057
 20
17.6451
 30
7
 11
24.3301
 21
17.5
 31
7
  0
LINE
  5
BC5
330
A02
100
AcDbEntity
  8
Mesh_cs
100
AcDbLine
 10
24.3301
 20
17.5
 30
7
 11
24.1836
 21
17.2701
 31
7
  0
LINE
  5
BC6
330
A02
100
AcDbEntity
  8
Mesh_cs
100
AcDbLine
 10
24.1836
 20
17.2701
 30
7
 11
24.0958
 21
17.1321
 31
7
  0
LINE
  5
BC7
330
A02
100
AcDbEntity
  8
Mesh_cs
100
AcDbLine
 10
24.0958
 20
17.1321
 30
7
 11
23.9298
 21
16.9158
 31
7
  0
LINE
  5
BC8
330
A02
100
AcDbEntity
  8
Mesh_cs
100
AcDbLine
 10
23.9298
 20
16.9158
 30
7
 11
23.8302
 21
16.7861
 31
7
  0
LINE
  5
BC9
330
A02
100
AcDbEntity
  8
Mesh_cs
100
AcDbLine
 10
23.8302
 20
16.7861
 30
7
 11
23.646
 21
16.5851
 31
7
  0
LINE
  5
BCA
330
A02
100
AcDbEntity
  8
Mesh_cs
100
AcDbLine
 10
23.646
 20
16.5851
 30
7
 11
23.5355
 21
16.4645
 31
7
  0
LINE
  5
BCB
330
A02
100
AcDbEntity
  8
Mesh_cs
100
AcDbLine
 10
23.5355
 20
16.4645
 30
7
 11
23.3345
 21
16.2803
 31
7
  0
LINE
  5
BCC
330
A02
100
AcDbEntity
  8
Mesh_cs
100
AcDbLine
 10
23.3345
 20
16.2803
 30
7
 11
23.2139
 21
16.1698
 31
7
  0
LINE
  5
BCD
330
A02
100
AcDbEntity
  8
Mesh_cs
100
AcDbLine
 10
23.2139
 20
16.1698
 30
7
 11
23.0842
 21
16.0702
 31
7
  0
LINE
  5
BCE
330
A02
100
AcDbEntity
  8
Mesh_cs
100
AcDbLine
 10
23.0842
 20
16.0702
 30
7
 11
22.8679
 21
15.9042
 31
7
  0
LINE
  5
BCF
330
A02
100
AcDbEntity
  8
Mesh_cs
100
AcDbLine
 10
22.8679
 20
15.9042
 30
7
 11
22.638
 21
15.7578
 31
7
  0
LINE
  5
BD0
330
A02
100
AcDbEntity
  8
Mesh_cs
100
AcDbLine
 10
22.638
 20
15.7578
 30
7
 11
22.5
 21
15.6699
 31
7
  0
LINE
  5
BD1
330
A02
100
AcDbEntity
  8
Mesh_cs
100
AcDbLine
 10
22.5
 20
15.6699
 30
7
 11
22.2582
 21
15.544
 31
7
  0
LINE
  5
BD2
330
A02
100
AcDbEntity
  8
Mesh_cs
100
AcDbLine
 10
22.2582
 20
15.544
 30
7
 11
22.1131
 21
15.4685
 31
7
  0
LINE
  5
BD3
330
A02
100
AcDbEntity
  8
Mesh_cs
100
AcDbLine
 10
22.1131
 20
15.4685
 30
7
 11
21.8612
 21
15.3641
 31
7
  0
LINE
  5
BD4
330
A02
100
AcDbEntity
  8
Mesh_cs
100
AcDbLine
 10
21.8612
 20
15.3641
 30
7
 11
21.7101
 21
15.3015
 31
7
  0
LINE
  5
BD5
330
A02
100
AcDbEntity
  8
Mesh_cs
100
AcDbLine
 10
21.7101
 20
15.3015
 30
7
 11
21.4501
 21
15.2196
 31
7
  0
LINE
  5
BD6
330
A02
100
AcDbEntity
  8
Mesh_cs
100
AcDbLine
 10
21.4501
 20
15.2196
 30
7
 11
21.2941
 21
15.1704
 31
7
  0
LINE
  5
BD7
330
A02
100
AcDbEntity
  8
Mesh_cs
100
AcDbLine
 10
21.2941
 20
15.1704
 30
7
 11
21.0279
 21
15.1114
 31
7
  0
LINE
  5
BD8
330
A02
100
AcDbEntity
  8
Mesh_cs
100
AcDbLine
 10
21.0279
 20
15.1114
 30
7
 11
20.8682
 21
15.076
 31
7
  0
LINE
  5
BD9
330
A02
100
AcDbEntity
  8
Mesh_cs
100
AcDbLine
 10
20.8682
 20
15.076
 30
7
 11
20.598
 21
15.0404
 31
7
  0
LINE
  5
BDA
330
A02
100
AcDbEntity
  8
Mesh_cs
100
AcDbLine
 10
20.598
 20
15.0404
 30
7
 11
20.4358
 21
15.019
 31
7
  0
LINE
  5
BDB
330
A02
100
AcDbEntity
  8
Mesh_cs
100
AcDbLine
 10
20.4358
 20
15.019
 30
7
 11
20.1634
 21
15.0071
 31
7
  0
LINE
  5
BDC
330
A02
100
AcDbEntity
  8
Mesh_cs
100
AcDbLine
 10
20.1634
 20
15.0071
 30
7
 11
20
 21
15
 31
7
  0
LINE
  5
BDD
330
A02
100
AcDbEntity
  8
Mesh_cs
100
AcDbLine
 10
20
 20
15
 30
7
 11
19.7276
 21
15.0119
 31
7
  0
LINE
  5
BDE
330
A02
100
AcDbEntity
  8
Mesh_cs
100
AcDbLine
 10
19.7276
 20
15.0119
 30
7
 11
19.5642
 21
15.019
 31
7
  0
LINE
  5
BDF
330
A02
100
AcDbEntity
  8
Mesh_cs
100
AcDbLine
 10
19.5642
 20
15.019
 30
7
 11
19.2939
 21
15.0546
 31
7
  0
LINE
  5
BE0
330
A02
100
AcDbEntity
  8
Mesh_cs
100
AcDbLine
 10
19.2939
 20
15.0546
 30
7
 11
19.1318
 21
15.076
 31
7
  0
LINE
  5
BE1
330
A02
100
AcDbEntity
  8
Mesh_cs
100
AcDbLine
 10
19.1318
 20
15.076
 30
7
 11
18.8656
 21
15.135
 31
7
  0
LINE
  5
BE2
330
A02
100
AcDbEntity
  8
Mesh_cs
100
AcDbLine
 10
18.8656
 20
15.135
 30
7
 11
18.7059
 21
15.1704
 31
7
  0
LINE
  5
BE3
330
A02
100
AcDbEntity
  8
Mesh_cs
100
AcDbLine
 10
18.7059
 20
15.1704
 30
7
 11
18.4459
 21
15.2523
 31
7
  0
LINE
  5
BE4
330
A02
100
AcDbEntity
  8
Mesh_cs
100
AcDbLine
 10
18.4459
 20
15.2523
 30
7
 11
18.2899
 21
15.3015
 31
7
  0
LINE
  5
BE5
330
A02
100
AcDbEntity
  8
Mesh_cs
100
AcDbLine
 10
18.2899
 20
15.3015
 30
7
 11
18.038
 21
15.4059
 31
7
  0
LINE
  5
BE6
330
A02
100
AcDbEntity
  8
Mesh_cs
100
AcDbLine
 10
18.038
 20
15.4059
 30
7
 11
17.8869
 21
15.4685
 31
7
  0
LINE
  5
BE7
330
A02
100
AcDbEntity
  8
Mesh_cs
100
AcDbLine
 10
17.8869
 20
15.4685
 30
7
 11
17.6451
 21
15.5943
 31
7
  0
LINE
  5
BE8
330
A02
100
AcDbEntity
  8
Mesh_cs
100
AcDbLine
 10
17.6451
 20
15.5943
 30
7
 11
17.5
 21
15.6699
 31
7
  0
LINE
  5
BE9
330
A02
100
AcDbEntity
  8
Mesh_cs
100
AcDbLine
 10
17.5
 20
15.6699
 30
7
 11
17.362
 21
15.7578
 31
7
  0
LINE
  5
BEA
330
A02
100
AcDbEntity
  8
Mesh_cs
100
AcDbLine
 10
17.362
 20
15.7578
 30
7
 11
17.1321
 21
15.9042
 31
7
  0
LINE
  5
BEB
330
A02
100
AcDbEntity
  8
Mesh_cs
100
AcDbLine
 10
17.1321
 20
15.9042
 30
7
 11
17.0023
 21
16.0038
 31
7
  0
LINE
  5
BEC
330
A02
100
AcDbEntity
  8
Mesh_cs
100
AcDbLine
 10
17.0023
 20
16.0038
 30
7
 11
16.7861
 21
16.1698
 31
7
  0
LINE
  5
BED
330
A02
100
AcDbEntity
  8
Mesh_cs
100
AcDbLine
 10
16.7861
 20
16.1698
 30
7
 11
16.5851
 21
16.354
 31
7
  0
LINE
  5
BEE
330
A02
100
AcDbEntity
  8
Mesh_cs
100
AcDbLine
 10
16.5851
 20
16.354
 30
7
 11
16.4645
 21
16.4645
 31
7
  0
LINE
  5
BEF
330
A02
100
AcDbEntity
  8
Mesh_cs
100
AcDbLine
 10
16.4645
 20
16.4645
 30
7
 11
16.2803
 21
16.6655
 31
7
  0
LINE
  5
BF0
330
A02
100
AcDbEntity
  8
Mesh_cs
100
AcDbLine
 10
16.2803
 20
16.6655
 30
7
 11
16.1698
 21
16.7861
 31
7
  0
LINE
  5
BF1
330
A02
100
AcDbEntity
  8
Mesh_cs
100
AcDbLine
 10
16.1698
 20
16.7861
 30
7
 11
16.0702
 21
16.9158
 31
7
  0
LINE
  5
BF2
330
A02
100
AcDbEntity
  8
Mesh_cs
100
AcDbLine
 10
16.0702
 20
16.9158
 30
7
 11
15.9042
 21
17.1321
 31
7
  0
LINE
  5
BF3
330
A02
100
AcDbEntity
  8
Mesh_cs
100
AcDbLine
 10
15.9042
 20
17.1321
 30
7
 11
15.7578
 21
17.362
 31
7
  0
LINE
  5
BF4
330
A02
100
AcDbEntity
  8
Mesh_cs
100
AcDbLine
 10
15.7578
 20
17.362
 30
7
 11
15.6699
 21
17.5
 31
7
  0
LINE
  5
BF5
330
A02
100
AcDbEntity
  8
Mesh_cs
100
AcDbLine
 10
15.6699
 20
17.5
 30
7
 11
15.544
 21
17.7418
 31
7
  0
LINE
  5
BF6
330
A02
100
AcDbEntity
  8
Mesh_cs
100
AcDbLine
 10
15.544
 20
17.7418
 30
7
 11
15.4685
 21
17.8869
 31
7
  0
LINE
  5
BF7
330
A02
100
AcDbEntity
  8
Mesh_cs
100
AcDbLine
 10
15.4685
 20
17.8869
 30
7
 11
15.3641
 21
18.1388
 31
7
  0
LINE
  5
BF8
330
A02
100
AcDbEntity
  8
Mesh_cs
100
AcDbLine
 10
15.3641
 20
18.1388
 30
7
 11
15.3015
 21
18.2899
 31
7
  0
LINE
  5
BF9
330
A02
100
AcDbEntity
  8
Mesh_cs
100
AcDbLine
 10
15.3015
 20
18.2899
 30
7
 11
15.2196
 21
18.5499
 31
7
  0
LINE
  5
BFA
330
A02
100
AcDbEntity
  8
Mesh_cs
100
AcDbLine
 10
15.2196
 20
18.5499
 30
7
 11
15.1704
 21
18.7059
 31
7
  0
LINE
  5
BFB
330
A02
100
AcDbEntity
  8
Mesh_cs
100
AcDbLine
 10
15.1704
 20
18.7059
 30
7
 11
15.1114
 21
18.9721
 31
7
  0
LINE
  5
BFC
330
A02
100
AcDbEntity
  8
Mesh_cs
100
AcDbLine
 10
15.1114
 20
18.9721
 30
7
 11
15.076
 21
19.1318
 31
7
  0
LINE
  5
BFD
330
A02
100
AcDbEntity
  8
Mesh_cs
100
AcDbLine
 10
15.076
 20
19.1318
 30
7
 11
15.0404
 21
19.402
 31
7
  0
LINE
  5
BFE
330
A02
100
AcDbEntity
  8
Mesh_cs
100
AcDbLine
 10
15.0404
 20
19.402
 30
7
 11
15.019
 21
19.5642
 31
7
  0
LINE
  5
BFF
330
A02
100
AcDbEntity
  8
Mesh_cs
100
AcDbLine
 10
15.019
 20
19.5642
 30
7
 11
15.0071
 21
19.8366
 31
7
  0
LINE
  5
C00
330
A02
100
AcDbEntity
  8
Mesh_cs
100
AcDbLine
 10
15.0071
 20
19.8366
 30
7
 11
15
 21
20
 31
7
  0
LINE
  5
C01
330
A02
100
AcDbEntity
  8
Mesh_cs
100
AcDbLine
 10
15
 20
20
 30
7
 11
15.0119
 21
20.2724
 31
7
  0
LINE
  5
C02
330
A02
100
AcDbEntity
  8
Mesh_cs
100
AcDbLine
 10
249.607
 20
234.939
 30
7
 11
249.541
 21
234.871
 31
7
  0
LINE
  5
C03
330
A02
100
AcDbEntity
  8
Mesh_cs
100
AcDbLine
 10
249.541
 20
234.871
 30
7
 11
249.354
 21
234.685
 31
7
  0
LINE
  5
C04
330
A02
100
AcDbEntity
  8
Mesh_cs
100
AcDbLine
 10
249.354
 20
234.685
 30
7
 11
249.283
 21
234.622
 31
7
  0
LINE
  5
C05
330
A02
100
AcDbEntity
  8
Mesh_cs
100
AcDbLine
 10
249.283
 20
234.622
 30
7
 11
249.084
 21
234.45
 31
7
  0
LINE
  5
C06
330
A02
100
AcDbEntity
  8
Mesh_cs
100
AcDbLine
 10
249.084
 20
234.45
 30
7
 11
249.008
 21
234.393
 31
7
  0
LINE
  5
C07
330
A02
100
AcDbEntity
  8
Mesh_cs
100
AcDbLine
 10
249.008
 20
234.393
 30
7
 11
248.8
 21
234.237
 31
7
  0
LINE
  5
C08
330
A02
100
AcDbEntity
  8
Mesh_cs
100
AcDbLine
 10
248.8
 20
234.237
 30
7
 11
248.584
 21
234.097
 31
7
  0
LINE
  5
C09
330
A02
100
AcDbEntity
  8
Mesh_cs
100
AcDbLine
 10
248.584
 20
234.097
 30
7
 11
248.503
 21
234.046
 31
7
  0
LINE
  5
C0A
330
A02
100
AcDbEntity
  8
Mesh_cs
100
AcDbLine
 10
248.503
 20
234.046
 30
7
 11
248.282
 21
233.923
 31
7
  0
LINE
  5
C0B
330
A02
100
AcDbEntity
  8
Mesh_cs
100
AcDbLine
 10
248.282
 20
233.923
 30
7
 11
248.197
 21
233.878
 31
7
  0
LINE
  5
C0C
330
A02
100
AcDbEntity
  8
Mesh_cs
100
AcDbLine
 10
248.197
 20
233.878
 30
7
 11
247.972
 21
233.772
 31
7
  0
LINE
  5
C0D
330
A02
100
AcDbEntity
  8
Mesh_cs
100
AcDbLine
 10
247.972
 20
233.772
 30
7
 11
247.884
 21
233.733
 31
7
  0
LINE
  5
C0E
330
A02
100
AcDbEntity
  8
Mesh_cs
100
AcDbLine
 10
247.884
 20
233.733
 30
7
 11
247.656
 21
233.644
 31
7
  0
LINE
  5
C0F
330
A02
100
AcDbEntity
  8
Mesh_cs
100
AcDbLine
 10
247.656
 20
233.644
 30
7
 11
247.567
 21
233.612
 31
7
  0
LINE
  5
C10
330
A02
100
AcDbEntity
  8
Mesh_cs
100
AcDbLine
 10
247.567
 20
233.612
 30
7
 11
247.338
 21
233.539
 31
7
  0
LINE
  5
C11
330
A02
100
AcDbEntity
  8
Mesh_cs
100
AcDbLine
 10
247.338
 20
233.539
 30
7
 11
247.247
 21
233.515
 31
7
  0
LINE
  5
C12
330
A02
100
AcDbEntity
  8
Mesh_cs
100
AcDbLine
 10
247.247
 20
233.515
 30
7
 11
247.02
 21
233.458
 31
7
  0
LINE
  5
C13
330
A02
100
AcDbEntity
  8
Mesh_cs
100
AcDbLine
 10
247.02
 20
233.458
 30
7
 11
246.929
 21
233.44
 31
7
  0
LINE
  5
C14
330
A02
100
AcDbEntity
  8
Mesh_cs
100
AcDbLine
 10
246.929
 20
233.44
 30
7
 11
246.703
 21
233.399
 31
7
  0
LINE
  5
C15
330
A02
100
AcDbEntity
  8
Mesh_cs
100
AcDbLine
 10
246.703
 20
233.399
 30
7
 11
246.481
 21
233.371
 31
7
  0
LINE
  5
C16
330
A02
100
AcDbEntity
  8
Mesh_cs
100
AcDbLine
 10
246.481
 20
233.371
 30
7
 11
246.39
 21
233.361
 31
7
  0
LINE
  5
C17
330
A02
100
AcDbEntity
  8
Mesh_cs
100
AcDbLine
 10
246.39
 20
233.361
 30
7
 11
246.173
 21
233.347
 31
7
  0
LINE
  5
C18
330
A02
100
AcDbEntity
  8
Mesh_cs
100
AcDbLine
 10
246.173
 20
233.347
 30
7
 11
246.083
 21
233.343
 31
7
  0
LINE
  5
C19
330
A02
100
AcDbEntity
  8
Mesh_cs
100
AcDbLine
 10
246.083
 20
233.343
 30
7
 11
245.872
 21
233.341
 31
7
  0
LINE
  5
C1A
330
A02
100
AcDbEntity
  8
Mesh_cs
100
AcDbLine
 10
245.872
 20
233.341
 30
7
 11
245.783
 21
233.344
 31
7
  0
LINE
  5
C1B
330
A02
100
AcDbEntity
  8
Mesh_cs
100
AcDbLine
 10
245.783
 20
233.344
 30
7
 11
245.578
 21
233.354
 31
7
  0
LINE
  5
C1C
330
A02
100
AcDbEntity
  8
Mesh_cs
100
AcDbLine
 10
245.578
 20
233.354
 30
7
 11
245.492
 21
233.362
 31
7
  0
LINE
  5
C1D
330
A02
100
AcDbEntity
  8
Mesh_cs
100
AcDbLine
 10
245.492
 20
233.362
 30
7
 11
245.292
 21
233.383
 31
7
  0
LINE
  5
C1E
330
A02
100
AcDbEntity
  8
Mesh_cs
100
AcDbLine
 10
245.292
 20
233.383
 30
7
 11
245.09
 21
233.415
 31
7
  0
LINE
  5
C1F
330
A02
100
AcDbEntity
  8
Mesh_cs
100
AcDbLine
 10
245.09
 20
233.415
 30
7
 11
245.007
 21
233.429
 31
7
  0
LINE
  5
C20
330
A02
100
AcDbEntity
  8
Mesh_cs
100
AcDbLine
 10
245.007
 20
233.429
 30
7
 11
244.8
 21
233.474
 31
7
  0
LINE
  5
C21
330
A02
100
AcDbEntity
  8
Mesh_cs
100
AcDbLine
 10
244.8
 20
233.474
 30
7
 11
244.721
 21
233.493
 31
7
  0
LINE
  5
C22
330
A02
100
AcDbEntity
  8
Mesh_cs
100
AcDbLine
 10
244.721
 20
233.493
 30
7
 11
244.511
 21
233.55
 31
7
  0
LINE
  5
C23
330
A02
100
AcDbEntity
  8
Mesh_cs
100
AcDbLine
 10
244.511
 20
233.55
 30
7
 11
244.435
 21
233.574
 31
7
  0
LINE
  5
C24
330
A02
100
AcDbEntity
  8
Mesh_cs
100
AcDbLine
 10
244.435
 20
233.574
 30
7
 11
244.224
 21
233.646
 31
7
  0
LINE
  5
C25
330
A02
100
AcDbEntity
  8
Mesh_cs
100
AcDbLine
 10
244.224
 20
233.646
 30
7
 11
244.151
 21
233.673
 31
7
  0
LINE
  5
C26
330
A02
100
AcDbEntity
  8
Mesh_cs
100
AcDbLine
 10
244.151
 20
233.673
 30
7
 11
243.94
 21
233.76
 31
7
  0
LINE
  5
C27
330
A02
100
AcDbEntity
  8
Mesh_cs
100
AcDbLine
 10
243.94
 20
233.76
 30
7
 11
243.871
 21
233.791
 31
7
  0
LINE
  5
C28
330
A02
100
AcDbEntity
  8
Mesh_cs
100
AcDbLine
 10
243.871
 20
233.791
 30
7
 11
243.66
 21
233.892
 31
7
  0
LINE
  5
C29
330
A02
100
AcDbEntity
  8
Mesh_cs
100
AcDbLine
 10
243.66
 20
233.892
 30
7
 11
243.596
 21
233.926
 31
7
  0
LINE
  5
C2A
330
A02
100
AcDbEntity
  8
Mesh_cs
100
AcDbLine
 10
243.596
 20
233.926
 30
7
 11
243.387
 21
234.044
 31
7
  0
LINE
  5
C2B
330
A02
100
AcDbEntity
  8
Mesh_cs
100
AcDbLine
 10
243.387
 20
234.044
 30
7
 11
243.327
 21
234.08
 31
7
  0
LINE
  5
C2C
330
A02
100
AcDbEntity
  8
Mesh_cs
100
AcDbLine
 10
243.327
 20
234.08
 30
7
 11
243.122
 21
234.213
 31
7
  0
LINE
  5
C2D
330
A02
100
AcDbEntity
  8
Mesh_cs
100
AcDbLine
 10
243.122
 20
234.213
 30
7
 11
243.09
 21
234.234
 31
7
  0
LINE
  5
C2E
330
A02
100
AcDbEntity
  8
Mesh_cs
100
AcDbLine
 10
243.09
 20
234.234
 30
7
 11
243.059
 21
234.256
 31
7
  0
LINE
  5
C2F
330
A02
100
AcDbEntity
  8
Mesh_cs
100
AcDbLine
 10
243.059
 20
234.256
 30
7
 11
242.86
 21
234.405
 31
7
  0
LINE
  5
C30
330
A02
100
AcDbEntity
  8
Mesh_cs
100
AcDbLine
 10
242.86
 20
234.405
 30
7
 11
242.803
 21
234.449
 31
7
  0
LINE
  5
C31
330
A02
100
AcDbEntity
  8
Mesh_cs
100
AcDbLine
 10
242.803
 20
234.449
 30
7
 11
242.611
 21
234.614
 31
7
  0
LINE
  5
C32
330
A02
100
AcDbEntity
  8
Mesh_cs
100
AcDbLine
 10
242.611
 20
234.614
 30
7
 11
242.556
 21
234.663
 31
7
  0
LINE
  5
C33
330
A02
100
AcDbEntity
  8
Mesh_cs
100
AcDbLine
 10
242.556
 20
234.663
 30
7
 11
242.373
 21
234.843
 31
7
  0
LINE
  5
C34
330
A02
100
AcDbEntity
  8
Mesh_cs
100
AcDbLine
 10
242.373
 20
234.843
 30
7
 11
242.311
 21
234.904
 31
7
  0
LINE
  5
C35
330
A02
100
AcDbEntity
  8
Mesh_cs
100
AcDbLine
 10
242.311
 20
234.904
 30
7
 11
242.14
 21
235.098
 31
7
  0
LINE
  5
C36
330
A02
100
AcDbEntity
  8
Mesh_cs
100
AcDbLine
 10
242.14
 20
235.098
 30
7
 11
242.081
 21
235.165
 31
7
  0
LINE
  5
C37
330
A02
100
AcDbEntity
  8
Mesh_cs
100
AcDbLine
 10
242.081
 20
235.165
 30
7
 11
241.922
 21
235.373
 31
7
  0
LINE
  5
C38
330
A02
100
AcDbEntity
  8
Mesh_cs
100
AcDbLine
 10
241.922
 20
235.373
 30
7
 11
241.867
 21
235.445
 31
7
  0
LINE
  5
C39
330
A02
100
AcDbEntity
  8
Mesh_cs
100
AcDbLine
 10
241.867
 20
235.445
 30
7
 11
241.722
 21
235.665
 31
7
  0
LINE
  5
C3A
330
A02
100
AcDbEntity
  8
Mesh_cs
100
AcDbLine
 10
241.722
 20
235.665
 30
7
 11
241.671
 21
235.742
 31
7
  0
LINE
  5
C3B
330
A02
100
AcDbEntity
  8
Mesh_cs
100
AcDbLine
 10
241.671
 20
235.742
 30
7
 11
241.541
 21
235.973
 31
7
  0
LINE
  5
C3C
330
A02
100
AcDbEntity
  8
Mesh_cs
100
AcDbLine
 10
241.541
 20
235.973
 30
7
 11
241.496
 21
236.054
 31
7
  0
LINE
  5
C3D
330
A02
100
AcDbEntity
  8
Mesh_cs
100
AcDbLine
 10
241.496
 20
236.054
 30
7
 11
241.383
 21
236.294
 31
7
  0
LINE
  5
C3E
330
A02
100
AcDbEntity
  8
Mesh_cs
100
AcDbLine
 10
241.383
 20
236.294
 30
7
 11
241.344
 21
236.38
 31
7
  0
LINE
  5
C3F
330
A02
100
AcDbEntity
  8
Mesh_cs
100
AcDbLine
 10
241.344
 20
236.38
 30
7
 11
241.247
 21
236.628
 31
7
  0
LINE
  5
C40
330
A02
100
AcDbEntity
  8
Mesh_cs
100
AcDbLine
 10
241.247
 20
236.628
 30
7
 11
241.214
 21
236.717
 31
7
  0
LINE
  5
C41
330
A02
100
AcDbEntity
  8
Mesh_cs
100
AcDbLine
 10
241.214
 20
236.717
 30
7
 11
241.136
 21
236.97
 31
7
  0
LINE
  5
C42
330
A02
100
AcDbEntity
  8
Mesh_cs
100
AcDbLine
 10
241.136
 20
236.97
 30
7
 11
241.11
 21
237.062
 31
7
  0
LINE
  5
C43
330
A02
100
AcDbEntity
  8
Mesh_cs
100
AcDbLine
 10
241.11
 20
237.062
 30
7
 11
241.05
 21
237.318
 31
7
  0
LINE
  5
C44
330
A02
100
AcDbEntity
  8
Mesh_cs
100
AcDbLine
 10
241.05
 20
237.318
 30
7
 11
241.031
 21
237.412
 31
7
  0
LINE
  5
C45
330
A02
100
AcDbEntity
  8
Mesh_cs
100
AcDbLine
 10
241.031
 20
237.412
 30
7
 11
240.989
 21
237.67
 31
7
  0
LINE
  5
C46
330
A02
100
AcDbEntity
  8
Mesh_cs
100
AcDbLine
 10
240.989
 20
237.67
 30
7
 11
240.977
 21
237.765
 31
7
  0
LINE
  5
C47
330
A02
100
AcDbEntity
  8
Mesh_cs
100
AcDbLine
 10
240.977
 20
237.765
 30
7
 11
240.954
 21
238.023
 31
7
  0
LINE
  5
C48
330
A02
100
AcDbEntity
  8
Mesh_cs
100
AcDbLine
 10
240.954
 20
238.023
 30
7
 11
240.949
 21
238.119
 31
7
  0
LINE
  5
C49
330
A02
100
AcDbEntity
  8
Mesh_cs
100
AcDbLine
 10
240.949
 20
238.119
 30
7
 11
240.943
 21
238.374
 31
7
  0
LINE
  5
C4A
330
A02
100
AcDbEntity
  8
Mesh_cs
100
AcDbLine
 10
240.943
 20
238.374
 30
7
 11
240.946
 21
238.469
 31
7
  0
LINE
  5
C4B
330
A02
100
AcDbEntity
  8
Mesh_cs
100
AcDbLine
 10
240.946
 20
238.469
 30
7
 11
240.958
 21
238.72
 31
7
  0
LINE
  5
C4C
330
A02
100
AcDbEntity
  8
Mesh_cs
100
AcDbLine
 10
240.958
 20
238.72
 30
7
 11
240.968
 21
238.814
 31
7
  0
LINE
  5
C4D
330
A02
100
AcDbEntity
  8
Mesh_cs
100
AcDbLine
 10
240.968
 20
238.814
 30
7
 11
240.995
 21
239.06
 31
7
  0
LINE
  5
C4E
330
A02
100
AcDbEntity
  8
Mesh_cs
100
AcDbLine
 10
240.995
 20
239.06
 30
7
 11
241.038
 21
239.299
 31
7
  0
LINE
  5
C4F
330
A02
100
AcDbEntity
  8
Mesh_cs
100
AcDbLine
 10
241.038
 20
239.299
 30
7
 11
241.055
 21
239.391
 31
7
  0
LINE
  5
C50
330
A02
100
AcDbEntity
  8
Mesh_cs
100
AcDbLine
 10
241.055
 20
239.391
 30
7
 11
241.111
 21
239.622
 31
7
  0
LINE
  5
C51
330
A02
100
AcDbEntity
  8
Mesh_cs
100
AcDbLine
 10
241.111
 20
239.622
 30
7
 11
241.135
 21
239.711
 31
7
  0
LINE
  5
C52
330
A02
100
AcDbEntity
  8
Mesh_cs
100
AcDbLine
 10
241.135
 20
239.711
 30
7
 11
241.204
 21
239.933
 31
7
  0
LINE
  5
C53
330
A02
100
AcDbEntity
  8
Mesh_cs
100
AcDbLine
 10
241.204
 20
239.933
 30
7
 11
241.237
 21
240.028
 31
7
  0
LINE
  5
C54
330
A02
100
AcDbEntity
  8
Mesh_cs
100
AcDbLine
 10
241.237
 20
240.028
 30
7
 11
241.318
 21
240.24
 31
7
  0
LINE
  5
C55
330
A02
100
AcDbEntity
  8
Mesh_cs
100
AcDbLine
 10
241.318
 20
240.24
 30
7
 11
241.362
 21
240.339
 31
7
  0
LINE
  5
C56
330
A02
100
AcDbEntity
  8
Mesh_cs
100
AcDbLine
 10
241.362
 20
240.339
 30
7
 11
241.453
 21
240.541
 31
7
  0
LINE
  5
C57
330
A02
100
AcDbEntity
  8
Mesh_cs
100
AcDbLine
 10
241.453
 20
240.541
 30
7
 11
241.553
 21
240.731
 31
7
  0
LINE
  5
C58
330
A02
100
AcDbEntity
  8
Mesh_cs
100
AcDbLine
 10
241.553
 20
240.731
 30
7
 11
241.604
 21
240.824
 31
7
  0
LINE
  5
C59
330
A02
100
AcDbEntity
  8
Mesh_cs
100
AcDbLine
 10
241.604
 20
240.824
 30
7
 11
241.712
 21
241.004
 31
7
  0
LINE
  5
C5A
330
A02
100
AcDbEntity
  8
Mesh_cs
100
AcDbLine
 10
241.712
 20
241.004
 30
7
 11
241.776
 21
241.101
 31
7
  0
LINE
  5
C5B
330
A02
100
AcDbEntity
  8
Mesh_cs
100
AcDbLine
 10
241.776
 20
241.101
 30
7
 11
241.833
 21
241.186
 31
7
  0
LINE
  5
C5C
330
A02
100
AcDbEntity
  8
Mesh_cs
100
AcDbLine
 10
241.833
 20
241.186
 30
7
 11
241.898
 21
241.279
 31
7
  0
LINE
  5
C5D
330
A02
100
AcDbEntity
  8
Mesh_cs
100
AcDbLine
 10
241.898
 20
241.279
 30
7
 11
242.091
 21
241.523
 31
7
  0
LINE
  5
C5E
330
A02
100
AcDbEntity
  8
Mesh_cs
100
AcDbLine
 10
242.091
 20
241.523
 30
7
 11
242.156
 21
241.604
 31
7
  0
LINE
  5
C5F
330
A02
100
AcDbEntity
  8
Mesh_cs
100
AcDbLine
 10
242.156
 20
241.604
 30
7
 11
242.223
 21
241.676
 31
7
  0
LINE
  5
C60
330
A02
100
AcDbEntity
  8
Mesh_cs
100
AcDbLine
 10
242.223
 20
241.676
 30
7
 11
242.445
 21
241.913
 31
7
  0
LINE
  5
C61
330
A02
100
AcDbEntity
  8
Mesh_cs
100
AcDbLine
 10
242.445
 20
241.913
 30
7
 11
242.513
 21
241.976
 31
7
  0
LINE
  5
C62
330
A02
100
AcDbEntity
  8
Mesh_cs
100
AcDbLine
 10
242.513
 20
241.976
 30
7
 11
242.739
 21
242.179
 31
7
  0
LINE
  5
C63
330
A02
100
AcDbEntity
  8
Mesh_cs
100
AcDbLine
 10
242.739
 20
242.179
 30
7
 11
242.815
 21
242.238
 31
7
  0
LINE
  5
C64
330
A02
100
AcDbEntity
  8
Mesh_cs
100
AcDbLine
 10
242.815
 20
242.238
 30
7
 11
243.039
 21
242.411
 31
7
  0
LINE
  5
C65
330
A02
100
AcDbEntity
  8
Mesh_cs
100
AcDbLine
 10
243.039
 20
242.411
 30
7
 11
243.122
 21
242.466
 31
7
  0
LINE
  5
C66
330
A02
100
AcDbEntity
  8
Mesh_cs
100
AcDbLine
 10
243.122
 20
242.466
 30
7
 11
243.366
 21
242.625
 31
7
  0
LINE
  5
C67
330
A02
100
AcDbEntity
  8
Mesh_cs
100
AcDbLine
 10
243.366
 20
242.625
 30
7
 11
243.456
 21
242.675
 31
7
  0
LINE
  5
C68
330
A02
100
AcDbEntity
  8
Mesh_cs
100
AcDbLine
 10
243.456
 20
242.675
 30
7
 11
243.718
 21
242.818
 31
7
  0
LINE
  5
C69
330
A02
100
AcDbEntity
  8
Mesh_cs
100
AcDbLine
 10
243.718
 20
242.818
 30
7
 11
243.815
 21
242.862
 31
7
  0
LINE
  5
C6A
330
A02
100
AcDbEntity
  8
Mesh_cs
100
AcDbLine
 10
243.815
 20
242.862
 30
7
 11
244.094
 21
242.986
 31
7
  0
LINE
  5
C6B
330
A02
100
AcDbEntity
  8
Mesh_cs
100
AcDbLine
 10
244.094
 20
242.986
 30
7
 11
244.197
 21
243.022
 31
7
  0
LINE
  5
C6C
330
A02
100
AcDbEntity
  8
Mesh_cs
100
AcDbLine
 10
244.197
 20
243.022
 30
7
 11
244.492
 21
243.125
 31
7
  0
LINE
  5
C6D
330
A02
100
AcDbEntity
  8
Mesh_cs
100
AcDbLine
 10
244.492
 20
243.125
 30
7
 11
244.589
 21
243.151
 31
7
  0
LINE
  5
C6E
330
A02
100
AcDbEntity
  8
Mesh_cs
100
AcDbLine
 10
244.589
 20
243.151
 30
7
 11
244.897
 21
243.23
 31
7
  0
LINE
  5
C6F
330
A02
100
AcDbEntity
  8
Mesh_cs
100
AcDbLine
 10
244.897
 20
243.23
 30
7
 11
244.987
 21
243.246
 31
7
  0
LINE
  5
C70
330
A02
100
AcDbEntity
  8
Mesh_cs
100
AcDbLine
 10
244.987
 20
243.246
 30
7
 11
245.305
 21
243.299
 31
7
  0
LINE
  5
C71
330
A02
100
AcDbEntity
  8
Mesh_cs
100
AcDbLine
 10
245.305
 20
243.299
 30
7
 11
245.397
 21
243.309
 31
7
  0
LINE
  5
C72
330
A02
100
AcDbEntity
  8
Mesh_cs
100
AcDbLine
 10
245.397
 20
243.309
 30
7
 11
245.722
 21
243.335
 31
7
  0
LINE
  5
C73
330
A02
100
AcDbEntity
  8
Mesh_cs
100
AcDbLine
 10
245.722
 20
243.335
 30
7
 11
245.816
 21
243.338
 31
7
  0
LINE
  5
C74
330
A02
100
AcDbEntity
  8
Mesh_cs
100
AcDbLine
 10
245.816
 20
243.338
 30
7
 11
246.143
 21
243.336
 31
7
  0
LINE
  5
C75
330
A02
100
AcDbEntity
  8
Mesh_cs
100
AcDbLine
 10
246.143
 20
243.336
 30
7
 11
246.238
 21
243.331
 31
7
  0
LINE
  5
C76
330
A02
100
AcDbEntity
  8
Mesh_cs
100
AcDbLine
 10
246.238
 20
243.331
 30
7
 11
246.532
 21
243.305
 31
7
  0
LINE
  5
C77
330
A02
100
AcDbEntity
  8
Mesh_cs
100
AcDbLine
 10
246.532
 20
243.305
 30
7
 11
246.627
 21
243.293
 31
7
  0
LINE
  5
C78
330
A02
100
AcDbEntity
  8
Mesh_cs
100
AcDbLine
 10
246.627
 20
243.293
 30
7
 11
246.889
 21
243.249
 31
7
  0
LINE
  5
C79
330
A02
100
AcDbEntity
  8
Mesh_cs
100
AcDbLine
 10
246.889
 20
243.249
 30
7
 11
246.983
 21
243.23
 31
7
  0
LINE
  5
C7A
330
A02
100
AcDbEntity
  8
Mesh_cs
100
AcDbLine
 10
246.983
 20
243.23
 30
7
 11
247.24
 21
243.169
 31
7
  0
LINE
  5
C7B
330
A02
100
AcDbEntity
  8
Mesh_cs
100
AcDbLine
 10
247.24
 20
243.169
 30
7
 11
247.333
 21
243.143
 31
7
  0
LINE
  5
C7C
330
A02
100
AcDbEntity
  8
Mesh_cs
100
AcDbLine
 10
247.333
 20
243.143
 30
7
 11
247.583
 21
243.063
 31
7
  0
LINE
  5
C7D
330
A02
100
AcDbEntity
  8
Mesh_cs
100
AcDbLine
 10
247.583
 20
243.063
 30
7
 11
247.673
 21
243.03
 31
7
  0
LINE
  5
C7E
330
A02
100
AcDbEntity
  8
Mesh_cs
100
AcDbLine
 10
247.673
 20
243.03
 30
7
 11
247.916
 21
242.935
 31
7
  0
LINE
  5
C7F
330
A02
100
AcDbEntity
  8
Mesh_cs
100
AcDbLine
 10
247.916
 20
242.935
 30
7
 11
248.002
 21
242.895
 31
7
  0
LINE
  5
C80
330
A02
100
AcDbEntity
  8
Mesh_cs
100
AcDbLine
 10
248.002
 20
242.895
 30
7
 11
248.235
 21
242.784
 31
7
  0
LINE
  5
C81
330
A02
100
AcDbEntity
  8
Mesh_cs
100
AcDbLine
 10
248.235
 20
242.784
 30
7
 11
248.318
 21
242.738
 31
7
  0
LINE
  5
C82
330
A02
100
AcDbEntity
  8
Mesh_cs
100
AcDbLine
 10
248.318
 20
242.738
 30
7
 11
248.54
 21
242.613
 31
7
  0
LINE
  5
C83
330
A02
100
AcDbEntity
  8
Mesh_cs
100
AcDbLine
 10
248.54
 20
242.613
 30
7
 11
248.618
 21
242.562
 31
7
  0
LINE
  5
C84
330
A02
100
AcDbEntity
  8
Mesh_cs
100
AcDbLine
 10
248.618
 20
242.562
 30
7
 11
248.827
 21
242.425
 31
7
  0
LINE
  5
C85
330
A02
100
AcDbEntity
  8
Mesh_cs
100
AcDbLine
 10
248.827
 20
242.425
 30
7
 11
249.024
 21
242.276
 31
7
  0
LINE
  5
C86
330
A02
100
AcDbEntity
  8
Mesh_cs
100
AcDbLine
 10
249.024
 20
242.276
 30
7
 11
249.097
 21
242.22
 31
7
  0
LINE
  5
C87
330
A02
100
AcDbEntity
  8
Mesh_cs
100
AcDbLine
 10
249.097
 20
242.22
 30
7
 11
249.28
 21
242.062
 31
7
  0
LINE
  5
C88
330
A02
100
AcDbEntity
  8
Mesh_cs
100
AcDbLine
 10
249.28
 20
242.062
 30
7
 11
249.348
 21
242.002
 31
7
  0
LINE
  5
C89
330
A02
100
AcDbEntity
  8
Mesh_cs
100
AcDbLine
 10
249.348
 20
242.002
 30
7
 11
249.517
 21
241.836
 31
7
  0
LINE
  5
C8A
330
A02
100
AcDbEntity
  8
Mesh_cs
100
AcDbLine
 10
249.517
 20
241.836
 30
7
 11
249.579
 21
241.773
 31
7
  0
LINE
  5
C8B
330
A02
100
AcDbEntity
  8
Mesh_cs
100
AcDbLine
 10
249.579
 20
241.773
 30
7
 11
249.733
 21
241.6
 31
7
  0
LINE
  5
C8C
330
A02
100
AcDbEntity
  8
Mesh_cs
100
AcDbLine
 10
249.733
 20
241.6
 30
7
 11
249.789
 21
241.534
 31
7
  0
LINE
  5
C8D
330
A02
100
AcDbEntity
  8
Mesh_cs
100
AcDbLine
 10
249.789
 20
241.534
 30
7
 11
249.93
 21
241.357
 31
7
  0
LINE
  5
C8E
330
A02
100
AcDbEntity
  8
Mesh_cs
100
AcDbLine
 10
249.93
 20
241.357
 30
7
 11
249.98
 21
241.289
 31
7
  0
LINE
  5
C8F
330
A02
100
AcDbEntity
  8
Mesh_cs
100
AcDbLine
 10
249.98
 20
241.289
 30
7
 11
250.107
 21
241.109
 31
7
  0
LINE
  5
C90
330
A02
100
AcDbEntity
  8
Mesh_cs
100
AcDbLine
 10
250.107
 20
241.109
 30
7
 11
250.151
 21
241.039
 31
7
  0
LINE
  5
C91
330
A02
100
AcDbEntity
  8
Mesh_cs
100
AcDbLine
 10
250.151
 20
241.039
 30
7
 11
250.263
 21
240.857
 31
7
  0
LINE
  5
C92
330
A02
100
AcDbEntity
  8
Mesh_cs
100
AcDbLine
 10
250.263
 20
240.857
 30
7
 11
250.302
 21
240.787
 31
7
  0
LINE
  5
C93
330
A02
100
AcDbEntity
  8
Mesh_cs
100
AcDbLine
 10
250.302
 20
240.787
 30
7
 11
250.401
 21
240.604
 31
7
  0
LINE
  5
C94
330
A02
100
AcDbEntity
  8
Mesh_cs
100
AcDbLine
 10
250.401
 20
240.604
 30
7
 11
250.488
 21
240.421
 31
7
  0
LINE
  5
C95
330
A02
100
AcDbEntity
  8
Mesh_cs
100
AcDbLine
 10
250.488
 20
240.421
 30
7
 11
250.521
 21
240.351
 31
7
  0
LINE
  5
C96
330
A02
100
AcDbEntity
  8
Mesh_cs
100
AcDbLine
 10
250.521
 20
240.351
 30
7
 11
250.598
 21
240.163
 31
7
  0
LINE
  5
C97
330
A02
100
AcDbEntity
  8
Mesh_cs
100
AcDbLine
 10
250.598
 20
240.163
 30
7
 11
250.626
 21
240.093
 31
7
  0
LINE
  5
C98
330
A02
100
AcDbEntity
  8
Mesh_cs
100
AcDbLine
 10
250.626
 20
240.093
 30
7
 11
250.694
 21
239.896
 31
7
  0
LINE
  5
C99
330
A02
100
AcDbEntity
  8
Mesh_cs
100
AcDbLine
 10
250.694
 20
239.896
 30
7
 11
250.717
 21
239.826
 31
7
  0
LINE
  5
C9A
330
A02
100
AcDbEntity
  8
Mesh_cs
100
AcDbLine
 10
250.717
 20
239.826
 30
7
 11
250.776
 21
239.62
 31
7
  0
LINE
  5
C9B
330
A02
100
AcDbEntity
  8
Mesh_cs
100
AcDbLine
 10
250.776
 20
239.62
 30
7
 11
250.794
 21
239.551
 31
7
  0
LINE
  5
C9C
330
A02
100
AcDbEntity
  8
Mesh_cs
100
AcDbLine
 10
250.794
 20
239.551
 30
7
 11
250.842
 21
239.336
 31
7
  0
LINE
  5
C9D
330
A02
100
AcDbEntity
  8
Mesh_cs
100
AcDbLine
 10
250.842
 20
239.336
 30
7
 11
250.856
 21
239.269
 31
7
  0
LINE
  5
C9E
330
A02
100
AcDbEntity
  8
Mesh_cs
100
AcDbLine
 10
250.856
 20
239.269
 30
7
 11
250.892
 21
239.045
 31
7
  0
LINE
  5
C9F
330
A02
100
AcDbEntity
  8
Mesh_cs
100
AcDbLine
 10
250.892
 20
239.045
 30
7
 11
250.902
 21
238.979
 31
7
  0
LINE
  5
CA0
330
A02
100
AcDbEntity
  8
Mesh_cs
100
AcDbLine
 10
250.902
 20
238.979
 30
7
 11
250.925
 21
238.748
 31
7
  0
LINE
  5
CA1
330
A02
100
AcDbEntity
  8
Mesh_cs
100
AcDbLine
 10
250.925
 20
238.748
 30
7
 11
250.932
 21
238.679
 31
7
  0
LINE
  5
CA2
330
A02
100
AcDbEntity
  8
Mesh_cs
100
AcDbLine
 10
250.932
 20
238.679
 30
7
 11
250.934
 21
238.608
 31
7
  0
LINE
  5
CA3
330
A02
100
AcDbEntity
  8
Mesh_cs
100
AcDbLine
 10
250.934
 20
238.608
 30
7
 11
250.943
 21
238.371
 31
7
  0
LINE
  5
CA4
330
A02
100
AcDbEntity
  8
Mesh_cs
100
AcDbLine
 10
250.943
 20
238.371
 30
7
 11
250.942
 21
238.297
 31
7
  0
LINE
  5
CA5
330
A02
100
AcDbEntity
  8
Mesh_cs
100
AcDbLine
 10
250.942
 20
238.297
 30
7
 11
250.935
 21
238.054
 31
7
  0
LINE
  5
CA6
330
A02
100
AcDbEntity
  8
Mesh_cs
100
AcDbLine
 10
250.935
 20
238.054
 30
7
 11
250.929
 21
237.978
 31
7
  0
LINE
  5
CA7
330
A02
100
AcDbEntity
  8
Mesh_cs
100
AcDbLine
 10
250.929
 20
237.978
 30
7
 11
250.906
 21
237.732
 31
7
  0
LINE
  5
CA8
330
A02
100
AcDbEntity
  8
Mesh_cs
100
AcDbLine
 10
250.906
 20
237.732
 30
7
 11
250.895
 21
237.654
 31
7
  0
LINE
  5
CA9
330
A02
100
AcDbEntity
  8
Mesh_cs
100
AcDbLine
 10
250.895
 20
237.654
 30
7
 11
250.855
 21
237.406
 31
7
  0
LINE
  5
CAA
330
A02
100
AcDbEntity
  8
Mesh_cs
100
AcDbLine
 10
250.855
 20
237.406
 30
7
 11
250.838
 21
237.327
 31
7
  0
LINE
  5
CAB
330
A02
100
AcDbEntity
  8
Mesh_cs
100
AcDbLine
 10
250.838
 20
237.327
 30
7
 11
250.781
 21
237.078
 31
7
  0
LINE
  5
CAC
330
A02
100
AcDbEntity
  8
Mesh_cs
100
AcDbLine
 10
250.781
 20
237.078
 30
7
 11
250.759
 21
236.998
 31
7
  0
LINE
  5
CAD
330
A02
100
AcDbEntity
  8
Mesh_cs
100
AcDbLine
 10
250.759
 20
236.998
 30
7
 11
250.683
 21
236.751
 31
7
  0
LINE
  5
CAE
330
A02
100
AcDbEntity
  8
Mesh_cs
100
AcDbLine
 10
250.683
 20
236.751
 30
7
 11
250.655
 21
236.671
 31
7
  0
LINE
  5
CAF
330
A02
100
AcDbEntity
  8
Mesh_cs
100
AcDbLine
 10
250.655
 20
236.671
 30
7
 11
250.562
 21
236.427
 31
7
  0
LINE
  5
CB0
330
A02
100
AcDbEntity
  8
Mesh_cs
100
AcDbLine
 10
250.562
 20
236.427
 30
7
 11
250.527
 21
236.347
 31
7
  0
LINE
  5
CB1
330
A02
100
AcDbEntity
  8
Mesh_cs
100
AcDbLine
 10
250.527
 20
236.347
 30
7
 11
250.417
 21
236.108
 31
7
  0
LINE
  5
CB2
330
A02
100
AcDbEntity
  8
Mesh_cs
100
AcDbLine
 10
250.417
 20
236.108
 30
7
 11
250.376
 21
236.029
 31
7
  0
LINE
  5
CB3
330
A02
100
AcDbEntity
  8
Mesh_cs
100
AcDbLine
 10
250.376
 20
236.029
 30
7
 11
250.248
 21
235.797
 31
7
  0
LINE
  5
CB4
330
A02
100
AcDbEntity
  8
Mesh_cs
100
AcDbLine
 10
250.248
 20
235.797
 30
7
 11
250.2
 21
235.72
 31
7
  0
LINE
  5
CB5
330
A02
100
AcDbEntity
  8
Mesh_cs
100
AcDbLine
 10
250.2
 20
235.72
 30
7
 11
250.056
 21
235.497
 31
7
  0
LINE
  5
CB6
330
A02
100
AcDbEntity
  8
Mesh_cs
100
AcDbLine
 10
250.056
 20
235.497
 30
7
 11
250.002
 21
235.422
 31
7
  0
LINE
  5
CB7
330
A02
100
AcDbEntity
  8
Mesh_cs
100
AcDbLine
 10
250.002
 20
235.422
 30
7
 11
249.842
 21
235.21
 31
7
  0
LINE
  5
CB8
330
A02
100
AcDbEntity
  8
Mesh_cs
100
AcDbLine
 10
249.842
 20
235.21
 30
7
 11
249.782
 21
235.138
 31
7
  0
LINE
  5
CB9
330
A02
100
AcDbEntity
  8
Mesh_cs
100
AcDbLine
 10
249.782
 20
235.138
 30
7
 11
249.607
 21
234.939
 31
7
  0
LINE
  5
CBA
330
A02
100
AcDbEntity
  8
Mesh_cs
100
AcDbLine
 10
116.178
 20
331.881
 30
7
 11
116.134
 21
331.797
 31
7
  0
LINE
  5
CBB
330
A02
100
AcDbEntity
  8
Mesh_cs
100
AcDbLine
 10
116.134
 20
331.797
 30
7
 11
116.015
 21
331.562
 31
7
  0
LINE
  5
CBC
330
A02
100
AcDbEntity
  8
Mesh_cs
100
AcDbLine
 10
116.015
 20
331.562
 30
7
 11
115.977
 21
331.474
 31
7
  0
LINE
  5
CBD
330
A02
100
AcDbEntity
  8
Mesh_cs
100
AcDbLine
 10
115.977
 20
331.474
 30
7
 11
115.875
 21
331.232
 31
7
  0
LINE
  5
CBE
330
A02
100
AcDbEntity
  8
Mesh_cs
100
AcDbLine
 10
115.875
 20
331.232
 30
7
 11
115.844
 21
331.142
 31
7
  0
LINE
  5
CBF
330
A02
100
AcDbEntity
  8
Mesh_cs
100
AcDbLine
 10
115.844
 20
331.142
 30
7
 11
115.76
 21
330.896
 31
7
  0
LINE
  5
CC0
330
A02
100
AcDbEntity
  8
Mesh_cs
100
AcDbLine
 10
115.76
 20
330.896
 30
7
 11
115.694
 21
330.648
 31
7
  0
LINE
  5
CC1
330
A02
100
AcDbEntity
  8
Mesh_cs
100
AcDbLine
 10
115.694
 20
330.648
 30
7
 11
115.67
 21
330.555
 31
7
  0
LINE
  5
CC2
330
A02
100
AcDbEntity
  8
Mesh_cs
100
AcDbLine
 10
115.67
 20
330.555
 30
7
 11
115.621
 21
330.306
 31
7
  0
LINE
  5
CC3
330
A02
100
AcDbEntity
  8
Mesh_cs
100
AcDbLine
 10
115.621
 20
330.306
 30
7
 11
115.605
 21
330.212
 31
7
  0
LINE
  5
CC4
330
A02
100
AcDbEntity
  8
Mesh_cs
100
AcDbLine
 10
115.605
 20
330.212
 30
7
 11
115.573
 21
329.965
 31
7
  0
LINE
  5
CC5
330
A02
100
AcDbEntity
  8
Mesh_cs
100
AcDbLine
 10
115.573
 20
329.965
 30
7
 11
115.564
 21
329.87
 31
7
  0
LINE
  5
CC6
330
A02
100
AcDbEntity
  8
Mesh_cs
100
AcDbLine
 10
115.564
 20
329.87
 30
7
 11
115.549
 21
329.625
 31
7
  0
LINE
  5
CC7
330
A02
100
AcDbEntity
  8
Mesh_cs
100
AcDbLine
 10
115.549
 20
329.625
 30
7
 11
115.547
 21
329.53
 31
7
  0
LINE
  5
CC8
330
A02
100
AcDbEntity
  8
Mesh_cs
100
AcDbLine
 10
115.547
 20
329.53
 30
7
 11
115.548
 21
329.29
 31
7
  0
LINE
  5
CC9
330
A02
100
AcDbEntity
  8
Mesh_cs
100
AcDbLine
 10
115.548
 20
329.29
 30
7
 11
115.553
 21
329.197
 31
7
  0
LINE
  5
CCA
330
A02
100
AcDbEntity
  8
Mesh_cs
100
AcDbLine
 10
115.553
 20
329.197
 30
7
 11
115.569
 21
328.962
 31
7
  0
LINE
  5
CCB
330
A02
100
AcDbEntity
  8
Mesh_cs
100
AcDbLine
 10
115.569
 20
328.962
 30
7
 11
115.581
 21
328.87
 31
7
  0
LINE
  5
CCC
330
A02
100
AcDbEntity
  8
Mesh_cs
100
AcDbLine
 10
115.581
 20
328.87
 30
7
 11
115.611
 21
328.643
 31
7
  0
LINE
  5
CCD
330
A02
100
AcDbEntity
  8
Mesh_cs
100
AcDbLine
 10
115.611
 20
328.643
 30
7
 11
115.653
 21
328.423
 31
7
  0
LINE
  5
CCE
330
A02
100
AcDbEntity
  8
Mesh_cs
100
AcDbLine
 10
115.653
 20
328.423
 30
7
 11
115.671
 21
328.334
 31
7
  0
LINE
  5
CCF
330
A02
100
AcDbEntity
  8
Mesh_cs
100
AcDbLine
 10
115.671
 20
328.334
 30
7
 11
115.725
 21
328.123
 31
7
  0
LINE
  5
CD0
330
A02
100
AcDbEntity
  8
Mesh_cs
100
AcDbLine
 10
115.725
 20
328.123
 30
7
 11
115.749
 21
328.036
 31
7
  0
LINE
  5
CD1
330
A02
100
AcDbEntity
  8
Mesh_cs
100
AcDbLine
 10
115.749
 20
328.036
 30
7
 11
115.813
 21
327.834
 31
7
  0
LINE
  5
CD2
330
A02
100
AcDbEntity
  8
Mesh_cs
100
AcDbLine
 10
115.813
 20
327.834
 30
7
 11
115.843
 21
327.751
 31
7
  0
LINE
  5
CD3
330
A02
100
AcDbEntity
  8
Mesh_cs
100
AcDbLine
 10
115.843
 20
327.751
 30
7
 11
115.916
 21
327.559
 31
7
  0
LINE
  5
CD4
330
A02
100
AcDbEntity
  8
Mesh_cs
100
AcDbLine
 10
115.916
 20
327.559
 30
7
 11
115.95
 21
327.48
 31
7
  0
LINE
  5
CD5
330
A02
100
AcDbEntity
  8
Mesh_cs
100
AcDbLine
 10
115.95
 20
327.48
 30
7
 11
116.032
 21
327.296
 31
7
  0
LINE
  5
CD6
330
A02
100
AcDbEntity
  8
Mesh_cs
100
AcDbLine
 10
116.032
 20
327.296
 30
7
 11
116.125
 21
327.114
 31
7
  0
LINE
  5
CD7
330
A02
100
AcDbEntity
  8
Mesh_cs
100
AcDbLine
 10
116.125
 20
327.114
 30
7
 11
116.164
 21
327.039
 31
7
  0
LINE
  5
CD8
330
A02
100
AcDbEntity
  8
Mesh_cs
100
AcDbLine
 10
116.164
 20
327.039
 30
7
 11
116.27
 21
326.856
 31
7
  0
LINE
  5
CD9
330
A02
100
AcDbEntity
  8
Mesh_cs
100
AcDbLine
 10
116.27
 20
326.856
 30
7
 11
116.313
 21
326.786
 31
7
  0
LINE
  5
CDA
330
A02
100
AcDbEntity
  8
Mesh_cs
100
AcDbLine
 10
116.313
 20
326.786
 30
7
 11
116.432
 21
326.605
 31
7
  0
LINE
  5
CDB
330
A02
100
AcDbEntity
  8
Mesh_cs
100
AcDbLine
 10
116.432
 20
326.605
 30
7
 11
116.478
 21
326.54
 31
7
  0
LINE
  5
CDC
330
A02
100
AcDbEntity
  8
Mesh_cs
100
AcDbLine
 10
116.478
 20
326.54
 30
7
 11
116.612
 21
326.361
 31
7
  0
LINE
  5
CDD
330
A02
100
AcDbEntity
  8
Mesh_cs
100
AcDbLine
 10
116.612
 20
326.361
 30
7
 11
116.66
 21
326.301
 31
7
  0
LINE
  5
CDE
330
A02
100
AcDbEntity
  8
Mesh_cs
100
AcDbLine
 10
116.66
 20
326.301
 30
7
 11
116.808
 21
326.126
 31
7
  0
LINE
  5
CDF
330
A02
100
AcDbEntity
  8
Mesh_cs
100
AcDbLine
 10
116.808
 20
326.126
 30
7
 11
116.859
 21
326.071
 31
7
  0
LINE
  5
CE0
330
A02
100
AcDbEntity
  8
Mesh_cs
100
AcDbLine
 10
116.859
 20
326.071
 30
7
 11
117.021
 21
325.901
 31
7
  0
LINE
  5
CE1
330
A02
100
AcDbEntity
  8
Mesh_cs
100
AcDbLine
 10
117.021
 20
325.901
 30
7
 11
117.073
 21
325.851
 31
7
  0
LINE
  5
CE2
330
A02
100
AcDbEntity
  8
Mesh_cs
100
AcDbLine
 10
117.073
 20
325.851
 30
7
 11
117.249
 21
325.689
 31
7
  0
LINE
  5
CE3
330
A02
100
AcDbEntity
  8
Mesh_cs
100
AcDbLine
 10
117.249
 20
325.689
 30
7
 11
117.302
 21
325.642
 31
7
  0
LINE
  5
CE4
330
A02
100
AcDbEntity
  8
Mesh_cs
100
AcDbLine
 10
117.302
 20
325.642
 30
7
 11
117.492
 21
325.489
 31
7
  0
LINE
  5
CE5
330
A02
100
AcDbEntity
  8
Mesh_cs
100
AcDbLine
 10
117.492
 20
325.489
 30
7
 11
117.522
 21
325.465
 31
7
  0
LINE
  5
CE6
330
A02
100
AcDbEntity
  8
Mesh_cs
100
AcDbLine
 10
117.522
 20
325.465
 30
7
 11
117.552
 21
325.442
 31
7
  0
LINE
  5
CE7
330
A02
100
AcDbEntity
  8
Mesh_cs
100
AcDbLine
 10
117.552
 20
325.442
 30
7
 11
117.756
 21
325.299
 31
7
  0
LINE
  5
CE8
330
A02
100
AcDbEntity
  8
Mesh_cs
100
AcDbLine
 10
117.756
 20
325.299
 30
7
 11
117.815
 21
325.258
 31
7
  0
LINE
  5
CE9
330
A02
100
AcDbEntity
  8
Mesh_cs
100
AcDbLine
 10
117.815
 20
325.258
 30
7
 11
118.031
 21
325.127
 31
7
  0
LINE
  5
CEA
330
A02
100
AcDbEntity
  8
Mesh_cs
100
AcDbLine
 10
118.031
 20
325.127
 30
7
 11
118.095
 21
325.089
 31
7
  0
LINE
  5
CEB
330
A02
100
AcDbEntity
  8
Mesh_cs
100
AcDbLine
 10
118.095
 20
325.089
 30
7
 11
118.322
 21
324.971
 31
7
  0
LINE
  5
CEC
330
A02
100
AcDbEntity
  8
Mesh_cs
100
AcDbLine
 10
118.322
 20
324.971
 30
7
 11
118.399
 21
324.931
 31
7
  0
LINE
  5
CED
330
A02
100
AcDbEntity
  8
Mesh_cs
100
AcDbLine
 10
118.399
 20
324.931
 30
7
 11
118.637
 21
324.828
 31
7
  0
LINE
  5
CEE
330
A02
100
AcDbEntity
  8
Mesh_cs
100
AcDbLine
 10
118.637
 20
324.828
 30
7
 11
118.719
 21
324.793
 31
7
  0
LINE
  5
CEF
330
A02
100
AcDbEntity
  8
Mesh_cs
100
AcDbLine
 10
118.719
 20
324.793
 30
7
 11
118.966
 21
324.705
 31
7
  0
LINE
  5
CF0
330
A02
100
AcDbEntity
  8
Mesh_cs
100
AcDbLine
 10
118.966
 20
324.705
 30
7
 11
119.051
 21
324.676
 31
7
  0
LINE
  5
CF1
330
A02
100
AcDbEntity
  8
Mesh_cs
100
AcDbLine
 10
119.051
 20
324.676
 30
7
 11
119.305
 21
324.605
 31
7
  0
LINE
  5
CF2
330
A02
100
AcDbEntity
  8
Mesh_cs
100
AcDbLine
 10
119.305
 20
324.605
 30
7
 11
119.394
 21
324.582
 31
7
  0
LINE
  5
CF3
330
A02
100
AcDbEntity
  8
Mesh_cs
100
AcDbLine
 10
119.394
 20
324.582
 30
7
 11
119.654
 21
324.529
 31
7
  0
LINE
  5
CF4
330
A02
100
AcDbEntity
  8
Mesh_cs
100
AcDbLine
 10
119.654
 20
324.529
 30
7
 11
119.745
 21
324.512
 31
7
  0
LINE
  5
CF5
330
A02
100
AcDbEntity
  8
Mesh_cs
100
AcDbLine
 10
119.745
 20
324.512
 30
7
 11
120.009
 21
324.478
 31
7
  0
LINE
  5
CF6
330
A02
100
AcDbEntity
  8
Mesh_cs
100
AcDbLine
 10
120.009
 20
324.478
 30
7
 11
120.103
 21
324.467
 31
7
  0
LINE
  5
CF7
330
A02
100
AcDbEntity
  8
Mesh_cs
100
AcDbLine
 10
120.103
 20
324.467
 30
7
 11
120.368
 21
324.452
 31
7
  0
LINE
  5
CF8
330
A02
100
AcDbEntity
  8
Mesh_cs
100
AcDbLine
 10
120.368
 20
324.452
 30
7
 11
120.463
 21
324.448
 31
7
  0
LINE
  5
CF9
330
A02
100
AcDbEntity
  8
Mesh_cs
100
AcDbLine
 10
120.463
 20
324.448
 30
7
 11
120.727
 21
324.452
 31
7
  0
LINE
  5
CFA
330
A02
100
AcDbEntity
  8
Mesh_cs
100
AcDbLine
 10
120.727
 20
324.452
 30
7
 11
120.823
 21
324.455
 31
7
  0
LINE
  5
CFB
330
A02
100
AcDbEntity
  8
Mesh_cs
100
AcDbLine
 10
120.823
 20
324.455
 30
7
 11
121.085
 21
324.477
 31
7
  0
LINE
  5
CFC
330
A02
100
AcDbEntity
  8
Mesh_cs
100
AcDbLine
 10
121.085
 20
324.477
 30
7
 11
121.181
 21
324.488
 31
7
  0
LINE
  5
CFD
330
A02
100
AcDbEntity
  8
Mesh_cs
100
AcDbLine
 10
121.181
 20
324.488
 30
7
 11
121.439
 21
324.528
 31
7
  0
LINE
  5
CFE
330
A02
100
AcDbEntity
  8
Mesh_cs
100
AcDbLine
 10
121.439
 20
324.528
 30
7
 11
121.533
 21
324.547
 31
7
  0
LINE
  5
CFF
330
A02
100
AcDbEntity
  8
Mesh_cs
100
AcDbLine
 10
121.533
 20
324.547
 30
7
 11
121.785
 21
324.604
 31
7
  0
LINE
  5
D00
330
A02
100
AcDbEntity
  8
Mesh_cs
100
AcDbLine
 10
121.785
 20
324.604
 30
7
 11
121.878
 21
324.629
 31
7
  0
LINE
  5
D01
330
A02
100
AcDbEntity
  8
Mesh_cs
100
AcDbLine
 10
121.878
 20
324.629
 30
7
 11
122.122
 21
324.702
 31
7
  0
LINE
  5
D02
330
A02
100
AcDbEntity
  8
Mesh_cs
100
AcDbLine
 10
122.122
 20
324.702
 30
7
 11
122.212
 21
324.735
 31
7
  0
LINE
  5
D03
330
A02
100
AcDbEntity
  8
Mesh_cs
100
AcDbLine
 10
122.212
 20
324.735
 30
7
 11
122.447
 21
324.823
 31
7
  0
LINE
  5
D04
330
A02
100
AcDbEntity
  8
Mesh_cs
100
AcDbLine
 10
122.447
 20
324.823
 30
7
 11
122.534
 21
324.862
 31
7
  0
LINE
  5
D05
330
A02
100
AcDbEntity
  8
Mesh_cs
100
AcDbLine
 10
122.534
 20
324.862
 30
7
 11
122.759
 21
324.964
 31
7
  0
LINE
  5
D06
330
A02
100
AcDbEntity
  8
Mesh_cs
100
AcDbLine
 10
122.759
 20
324.964
 30
7
 11
122.973
 21
325.078
 31
7
  0
LINE
  5
D07
330
A02
100
AcDbEntity
  8
Mesh_cs
100
AcDbLine
 10
122.973
 20
325.078
 30
7
 11
123.055
 21
325.123
 31
7
  0
LINE
  5
D08
330
A02
100
AcDbEntity
  8
Mesh_cs
100
AcDbLine
 10
123.055
 20
325.123
 30
7
 11
123.257
 21
325.248
 31
7
  0
LINE
  5
D09
330
A02
100
AcDbEntity
  8
Mesh_cs
100
AcDbLine
 10
123.257
 20
325.248
 30
7
 11
123.335
 21
325.298
 31
7
  0
LINE
  5
D0A
330
A02
100
AcDbEntity
  8
Mesh_cs
100
AcDbLine
 10
123.335
 20
325.298
 30
7
 11
123.524
 21
325.432
 31
7
  0
LINE
  5
D0B
330
A02
100
AcDbEntity
  8
Mesh_cs
100
AcDbLine
 10
123.524
 20
325.432
 30
7
 11
123.604
 21
325.493
 31
7
  0
LINE
  5
D0C
330
A02
100
AcDbEntity
  8
Mesh_cs
100
AcDbLine
 10
123.604
 20
325.493
 30
7
 11
123.781
 21
325.635
 31
7
  0
LINE
  5
D0D
330
A02
100
AcDbEntity
  8
Mesh_cs
100
AcDbLine
 10
123.781
 20
325.635
 30
7
 11
123.862
 21
325.708
 31
7
  0
LINE
  5
D0E
330
A02
100
AcDbEntity
  8
Mesh_cs
100
AcDbLine
 10
123.862
 20
325.708
 30
7
 11
124.026
 21
325.857
 31
7
  0
LINE
  5
D0F
330
A02
100
AcDbEntity
  8
Mesh_cs
100
AcDbLine
 10
124.026
 20
325.857
 30
7
 11
124.176
 21
326.011
 31
7
  0
LINE
  5
D10
330
A02
100
AcDbEntity
  8
Mesh_cs
100
AcDbLine
 10
124.176
 20
326.011
 30
7
 11
124.249
 21
326.088
 31
7
  0
LINE
  5
D11
330
A02
100
AcDbEntity
  8
Mesh_cs
100
AcDbLine
 10
124.249
 20
326.088
 30
7
 11
124.386
 21
326.246
 31
7
  0
LINE
  5
D12
330
A02
100
AcDbEntity
  8
Mesh_cs
100
AcDbLine
 10
124.386
 20
326.246
 30
7
 11
124.458
 21
326.336
 31
7
  0
LINE
  5
D13
330
A02
100
AcDbEntity
  8
Mesh_cs
100
AcDbLine
 10
124.458
 20
326.336
 30
7
 11
124.522
 21
326.417
 31
7
  0
LINE
  5
D14
330
A02
100
AcDbEntity
  8
Mesh_cs
100
AcDbLine
 10
124.522
 20
326.417
 30
7
 11
124.591
 21
326.508
 31
7
  0
LINE
  5
D15
330
A02
100
AcDbEntity
  8
Mesh_cs
100
AcDbLine
 10
124.591
 20
326.508
 30
7
 11
124.763
 21
326.767
 31
7
  0
LINE
  5
D16
330
A02
100
AcDbEntity
  8
Mesh_cs
100
AcDbLine
 10
124.763
 20
326.767
 30
7
 11
124.82
 21
326.854
 31
7
  0
LINE
  5
D17
330
A02
100
AcDbEntity
  8
Mesh_cs
100
AcDbLine
 10
124.82
 20
326.854
 30
7
 11
124.868
 21
326.94
 31
7
  0
LINE
  5
D18
330
A02
100
AcDbEntity
  8
Mesh_cs
100
AcDbLine
 10
124.868
 20
326.94
 30
7
 11
125.024
 21
327.224
 31
7
  0
LINE
  5
D19
330
A02
100
AcDbEntity
  8
Mesh_cs
100
AcDbLine
 10
125.024
 20
327.224
 30
7
 11
125.063
 21
327.308
 31
7
  0
LINE
  5
D1A
330
A02
100
AcDbEntity
  8
Mesh_cs
100
AcDbLine
 10
125.063
 20
327.308
 30
7
 11
125.186
 21
327.586
 31
7
  0
LINE
  5
D1B
330
A02
100
AcDbEntity
  8
Mesh_cs
100
AcDbLine
 10
125.186
 20
327.586
 30
7
 11
125.219
 21
327.676
 31
7
  0
LINE
  5
D1C
330
A02
100
AcDbEntity
  8
Mesh_cs
100
AcDbLine
 10
125.219
 20
327.676
 30
7
 11
125.314
 21
327.943
 31
7
  0
LINE
  5
D1D
330
A02
100
AcDbEntity
  8
Mesh_cs
100
AcDbLine
 10
125.314
 20
327.943
 30
7
 11
125.341
 21
328.039
 31
7
  0
LINE
  5
D1E
330
A02
100
AcDbEntity
  8
Mesh_cs
100
AcDbLine
 10
125.341
 20
328.039
 30
7
 11
125.417
 21
328.32
 31
7
  0
LINE
  5
D1F
330
A02
100
AcDbEntity
  8
Mesh_cs
100
AcDbLine
 10
125.417
 20
328.32
 30
7
 11
125.437
 21
328.421
 31
7
  0
LINE
  5
D20
330
A02
100
AcDbEntity
  8
Mesh_cs
100
AcDbLine
 10
125.437
 20
328.421
 30
7
 11
125.491
 21
328.715
 31
7
  0
LINE
  5
D21
330
A02
100
AcDbEntity
  8
Mesh_cs
100
AcDbLine
 10
125.491
 20
328.715
 30
7
 11
125.503
 21
328.82
 31
7
  0
LINE
  5
D22
330
A02
100
AcDbEntity
  8
Mesh_cs
100
AcDbLine
 10
125.503
 20
328.82
 30
7
 11
125.535
 21
329.124
 31
7
  0
LINE
  5
D23
330
A02
100
AcDbEntity
  8
Mesh_cs
100
AcDbLine
 10
125.535
 20
329.124
 30
7
 11
125.538
 21
329.233
 31
7
  0
LINE
  5
D24
330
A02
100
AcDbEntity
  8
Mesh_cs
100
AcDbLine
 10
125.538
 20
329.233
 30
7
 11
125.545
 21
329.546
 31
7
  0
LINE
  5
D25
330
A02
100
AcDbEntity
  8
Mesh_cs
100
AcDbLine
 10
125.545
 20
329.546
 30
7
 11
125.539
 21
329.646
 31
7
  0
LINE
  5
D26
330
A02
100
AcDbEntity
  8
Mesh_cs
100
AcDbLine
 10
125.539
 20
329.646
 30
7
 11
125.519
 21
329.963
 31
7
  0
LINE
  5
D27
330
A02
100
AcDbEntity
  8
Mesh_cs
100
AcDbLine
 10
125.519
 20
329.963
 30
7
 11
125.506
 21
330.054
 31
7
  0
LINE
  5
D28
330
A02
100
AcDbEntity
  8
Mesh_cs
100
AcDbLine
 10
125.506
 20
330.054
 30
7
 11
125.459
 21
330.372
 31
7
  0
LINE
  5
D29
330
A02
100
AcDbEntity
  8
Mesh_cs
100
AcDbLine
 10
125.459
 20
330.372
 30
7
 11
125.44
 21
330.464
 31
7
  0
LINE
  5
D2A
330
A02
100
AcDbEntity
  8
Mesh_cs
100
AcDbLine
 10
125.44
 20
330.464
 30
7
 11
125.364
 21
330.78
 31
7
  0
LINE
  5
D2B
330
A02
100
AcDbEntity
  8
Mesh_cs
100
AcDbLine
 10
125.364
 20
330.78
 30
7
 11
125.338
 21
330.87
 31
7
  0
LINE
  5
D2C
330
A02
100
AcDbEntity
  8
Mesh_cs
100
AcDbLine
 10
125.338
 20
330.87
 30
7
 11
125.234
 21
331.181
 31
7
  0
LINE
  5
D2D
330
A02
100
AcDbEntity
  8
Mesh_cs
100
AcDbLine
 10
125.234
 20
331.181
 30
7
 11
125.201
 21
331.27
 31
7
  0
LINE
  5
D2E
330
A02
100
AcDbEntity
  8
Mesh_cs
100
AcDbLine
 10
125.201
 20
331.27
 30
7
 11
125.085
 21
331.541
 31
7
  0
LINE
  5
D2F
330
A02
100
AcDbEntity
  8
Mesh_cs
100
AcDbLine
 10
125.085
 20
331.541
 30
7
 11
125.044
 21
331.628
 31
7
  0
LINE
  5
D30
330
A02
100
AcDbEntity
  8
Mesh_cs
100
AcDbLine
 10
125.044
 20
331.628
 30
7
 11
124.922
 21
331.864
 31
7
  0
LINE
  5
D31
330
A02
100
AcDbEntity
  8
Mesh_cs
100
AcDbLine
 10
124.922
 20
331.864
 30
7
 11
124.875
 21
331.947
 31
7
  0
LINE
  5
D32
330
A02
100
AcDbEntity
  8
Mesh_cs
100
AcDbLine
 10
124.875
 20
331.947
 30
7
 11
124.737
 21
332.173
 31
7
  0
LINE
  5
D33
330
A02
100
AcDbEntity
  8
Mesh_cs
100
AcDbLine
 10
124.737
 20
332.173
 30
7
 11
124.683
 21
332.253
 31
7
  0
LINE
  5
D34
330
A02
100
AcDbEntity
  8
Mesh_cs
100
AcDbLine
 10
124.683
 20
332.253
 30
7
 11
124.53
 21
332.467
 31
7
  0
LINE
  5
D35
330
A02
100
AcDbEntity
  8
Mesh_cs
100
AcDbLine
 10
124.53
 20
332.467
 30
7
 11
124.471
 21
332.542
 31
7
  0
LINE
  5
D36
330
A02
100
AcDbEntity
  8
Mesh_cs
100
AcDbLine
 10
124.471
 20
332.542
 30
7
 11
124.305
 21
332.743
 31
7
  0
LINE
  5
D37
330
A02
100
AcDbEntity
  8
Mesh_cs
100
AcDbLine
 10
124.305
 20
332.743
 30
7
 11
124.241
 21
332.813
 31
7
  0
LINE
  5
D38
330
A02
100
AcDbEntity
  8
Mesh_cs
100
AcDbLine
 10
124.241
 20
332.813
 30
7
 11
124.063
 21
333
 31
7
  0
LINE
  5
D39
330
A02
100
AcDbEntity
  8
Mesh_cs
100
AcDbLine
 10
124.063
 20
333
 30
7
 11
123.994
 21
333.065
 31
7
  0
LINE
  5
D3A
330
A02
100
AcDbEntity
  8
Mesh_cs
100
AcDbLine
 10
123.994
 20
333.065
 30
7
 11
123.807
 21
333.237
 31
7
  0
LINE
  5
D3B
330
A02
100
AcDbEntity
  8
Mesh_cs
100
AcDbLine
 10
123.807
 20
333.237
 30
7
 11
123.734
 21
333.295
 31
7
  0
LINE
  5
D3C
330
A02
100
AcDbEntity
  8
Mesh_cs
100
AcDbLine
 10
123.734
 20
333.295
 30
7
 11
123.538
 21
333.452
 31
7
  0
LINE
  5
D3D
330
A02
100
AcDbEntity
  8
Mesh_cs
100
AcDbLine
 10
123.538
 20
333.452
 30
7
 11
123.336
 21
333.594
 31
7
  0
LINE
  5
D3E
330
A02
100
AcDbEntity
  8
Mesh_cs
100
AcDbLine
 10
123.336
 20
333.594
 30
7
 11
123.261
 21
333.646
 31
7
  0
LINE
  5
D3F
330
A02
100
AcDbEntity
  8
Mesh_cs
100
AcDbLine
 10
123.261
 20
333.646
 30
7
 11
123.054
 21
333.771
 31
7
  0
LINE
  5
D40
330
A02
100
AcDbEntity
  8
Mesh_cs
100
AcDbLine
 10
123.054
 20
333.771
 30
7
 11
122.976
 21
333.817
 31
7
  0
LINE
  5
D41
330
A02
100
AcDbEntity
  8
Mesh_cs
100
AcDbLine
 10
122.976
 20
333.817
 30
7
 11
122.766
 21
333.926
 31
7
  0
LINE
  5
D42
330
A02
100
AcDbEntity
  8
Mesh_cs
100
AcDbLine
 10
122.766
 20
333.926
 30
7
 11
122.686
 21
333.965
 31
7
  0
LINE
  5
D43
330
A02
100
AcDbEntity
  8
Mesh_cs
100
AcDbLine
 10
122.686
 20
333.965
 30
7
 11
122.475
 21
334.059
 31
7
  0
LINE
  5
D44
330
A02
100
AcDbEntity
  8
Mesh_cs
100
AcDbLine
 10
122.475
 20
334.059
 30
7
 11
122.394
 21
334.092
 31
7
  0
LINE
  5
D45
330
A02
100
AcDbEntity
  8
Mesh_cs
100
AcDbLine
 10
122.394
 20
334.092
 30
7
 11
122.183
 21
334.171
 31
7
  0
LINE
  5
D46
330
A02
100
AcDbEntity
  8
Mesh_cs
100
AcDbLine
 10
122.183
 20
334.171
 30
7
 11
122.102
 21
334.198
 31
7
  0
LINE
  5
D47
330
A02
100
AcDbEntity
  8
Mesh_cs
100
AcDbLine
 10
122.102
 20
334.198
 30
7
 11
121.892
 21
334.262
 31
7
  0
LINE
  5
D48
330
A02
100
AcDbEntity
  8
Mesh_cs
100
AcDbLine
 10
121.892
 20
334.262
 30
7
 11
121.812
 21
334.283
 31
7
  0
LINE
  5
D49
330
A02
100
AcDbEntity
  8
Mesh_cs
100
AcDbLine
 10
121.812
 20
334.283
 30
7
 11
121.604
 21
334.334
 31
7
  0
LINE
  5
D4A
330
A02
100
AcDbEntity
  8
Mesh_cs
100
AcDbLine
 10
121.604
 20
334.334
 30
7
 11
121.525
 21
334.349
 31
7
  0
LINE
  5
D4B
330
A02
100
AcDbEntity
  8
Mesh_cs
100
AcDbLine
 10
121.525
 20
334.349
 30
7
 11
121.321
 21
334.387
 31
7
  0
LINE
  5
D4C
330
A02
100
AcDbEntity
  8
Mesh_cs
100
AcDbLine
 10
121.321
 20
334.387
 30
7
 11
121.12
 21
334.413
 31
7
  0
LINE
  5
D4D
330
A02
100
AcDbEntity
  8
Mesh_cs
100
AcDbLine
 10
121.12
 20
334.413
 30
7
 11
121.043
 21
334.422
 31
7
  0
LINE
  5
D4E
330
A02
100
AcDbEntity
  8
Mesh_cs
100
AcDbLine
 10
121.043
 20
334.422
 30
7
 11
120.841
 21
334.438
 31
7
  0
LINE
  5
D4F
330
A02
100
AcDbEntity
  8
Mesh_cs
100
AcDbLine
 10
120.841
 20
334.438
 30
7
 11
120.765
 21
334.442
 31
7
  0
LINE
  5
D50
330
A02
100
AcDbEntity
  8
Mesh_cs
100
AcDbLine
 10
120.765
 20
334.442
 30
7
 11
120.557
 21
334.446
 31
7
  0
LINE
  5
D51
330
A02
100
AcDbEntity
  8
Mesh_cs
100
AcDbLine
 10
120.557
 20
334.446
 30
7
 11
120.483
 21
334.447
 31
7
  0
LINE
  5
D52
330
A02
100
AcDbEntity
  8
Mesh_cs
100
AcDbLine
 10
120.483
 20
334.447
 30
7
 11
120.269
 21
334.439
 31
7
  0
LINE
  5
D53
330
A02
100
AcDbEntity
  8
Mesh_cs
100
AcDbLine
 10
120.269
 20
334.439
 30
7
 11
120.198
 21
334.435
 31
7
  0
LINE
  5
D54
330
A02
100
AcDbEntity
  8
Mesh_cs
100
AcDbLine
 10
120.198
 20
334.435
 30
7
 11
119.978
 21
334.414
 31
7
  0
LINE
  5
D55
330
A02
100
AcDbEntity
  8
Mesh_cs
100
AcDbLine
 10
119.978
 20
334.414
 30
7
 11
119.91
 21
334.407
 31
7
  0
LINE
  5
D56
330
A02
100
AcDbEntity
  8
Mesh_cs
100
AcDbLine
 10
119.91
 20
334.407
 30
7
 11
119.686
 21
334.372
 31
7
  0
LINE
  5
D57
330
A02
100
AcDbEntity
  8
Mesh_cs
100
AcDbLine
 10
119.686
 20
334.372
 30
7
 11
119.62
 21
334.361
 31
7
  0
LINE
  5
D58
330
A02
100
AcDbEntity
  8
Mesh_cs
100
AcDbLine
 10
119.62
 20
334.361
 30
7
 11
119.394
 21
334.311
 31
7
  0
LINE
  5
D59
330
A02
100
AcDbEntity
  8
Mesh_cs
100
AcDbLine
 10
119.394
 20
334.311
 30
7
 11
119.326
 21
334.296
 31
7
  0
LINE
  5
D5A
330
A02
100
AcDbEntity
  8
Mesh_cs
100
AcDbLine
 10
119.326
 20
334.296
 30
7
 11
119.257
 21
334.277
 31
7
  0
LINE
  5
D5B
330
A02
100
AcDbEntity
  8
Mesh_cs
100
AcDbLine
 10
119.257
 20
334.277
 30
7
 11
119.029
 21
334.212
 31
7
  0
LINE
  5
D5C
330
A02
100
AcDbEntity
  8
Mesh_cs
100
AcDbLine
 10
119.029
 20
334.212
 30
7
 11
118.959
 21
334.187
 31
7
  0
LINE
  5
D5D
330
A02
100
AcDbEntity
  8
Mesh_cs
100
AcDbLine
 10
118.959
 20
334.187
 30
7
 11
118.731
 21
334.106
 31
7
  0
LINE
  5
D5E
330
A02
100
AcDbEntity
  8
Mesh_cs
100
AcDbLine
 10
118.731
 20
334.106
 30
7
 11
118.66
 21
334.077
 31
7
  0
LINE
  5
D5F
330
A02
100
AcDbEntity
  8
Mesh_cs
100
AcDbLine
 10
118.66
 20
334.077
 30
7
 11
118.433
 21
333.979
 31
7
  0
LINE
  5
D60
330
A02
100
AcDbEntity
  8
Mesh_cs
100
AcDbLine
 10
118.433
 20
333.979
 30
7
 11
118.363
 21
333.944
 31
7
  0
LINE
  5
D61
330
A02
100
AcDbEntity
  8
Mesh_cs
100
AcDbLine
 10
118.363
 20
333.944
 30
7
 11
118.139
 21
333.83
 31
7
  0
LINE
  5
D62
330
A02
100
AcDbEntity
  8
Mesh_cs
100
AcDbLine
 10
118.139
 20
333.83
 30
7
 11
118.069
 21
333.79
 31
7
  0
LINE
  5
D63
330
A02
100
AcDbEntity
  8
Mesh_cs
100
AcDbLine
 10
118.069
 20
333.79
 30
7
 11
117.85
 21
333.658
 31
7
  0
LINE
  5
D64
330
A02
100
AcDbEntity
  8
Mesh_cs
100
AcDbLine
 10
117.85
 20
333.658
 30
7
 11
117.781
 21
333.612
 31
7
  0
LINE
  5
D65
330
A02
100
AcDbEntity
  8
Mesh_cs
100
AcDbLine
 10
117.781
 20
333.612
 30
7
 11
117.569
 21
333.464
 31
7
  0
LINE
  5
D66
330
A02
100
AcDbEntity
  8
Mesh_cs
100
AcDbLine
 10
117.569
 20
333.464
 30
7
 11
117.501
 21
333.413
 31
7
  0
LINE
  5
D67
330
A02
100
AcDbEntity
  8
Mesh_cs
100
AcDbLine
 10
117.501
 20
333.413
 30
7
 11
117.298
 21
333.249
 31
7
  0
LINE
  5
D68
330
A02
100
AcDbEntity
  8
Mesh_cs
100
AcDbLine
 10
117.298
 20
333.249
 30
7
 11
117.233
 21
333.191
 31
7
  0
LINE
  5
D69
330
A02
100
AcDbEntity
  8
Mesh_cs
100
AcDbLine
 10
117.233
 20
333.191
 30
7
 11
117.04
 21
333.012
 31
7
  0
LINE
  5
D6A
330
A02
100
AcDbEntity
  8
Mesh_cs
100
AcDbLine
 10
117.04
 20
333.012
 30
7
 11
116.977
 21
332.948
 31
7
  0
LINE
  5
D6B
330
A02
100
AcDbEntity
  8
Mesh_cs
100
AcDbLine
 10
116.977
 20
332.948
 30
7
 11
116.797
 21
332.755
 31
7
  0
LINE
  5
D6C
330
A02
100
AcDbEntity
  8
Mesh_cs
100
AcDbLine
 10
116.797
 20
332.755
 30
7
 11
116.738
 21
332.686
 31
7
  0
LINE
  5
D6D
330
A02
100
AcDbEntity
  8
Mesh_cs
100
AcDbLine
 10
116.738
 20
332.686
 30
7
 11
116.57
 21
332.48
 31
7
  0
LINE
  5
D6E
330
A02
100
AcDbEntity
  8
Mesh_cs
100
AcDbLine
 10
116.57
 20
332.48
 30
7
 11
116.516
 21
332.405
 31
7
  0
LINE
  5
D6F
330
A02
100
AcDbEntity
  8
Mesh_cs
100
AcDbLine
 10
116.516
 20
332.405
 30
7
 11
116.364
 21
332.188
 31
7
  0
LINE
  5
D70
330
A02
100
AcDbEntity
  8
Mesh_cs
100
AcDbLine
 10
116.364
 20
332.188
 30
7
 11
116.314
 21
332.108
 31
7
  0
LINE
  5
D71
330
A02
100
AcDbEntity
  8
Mesh_cs
100
AcDbLine
 10
116.314
 20
332.108
 30
7
 11
116.178
 21
331.881
 31
7
  0
ENDSEC
  0
SECTION
  2
OBJECTS
  0
DICTIONARY
  5
F000
330
0
100
AcDbDictionary
  3
ACAD_GROUP
350
F001
  0
DICTIONARY
  5
F001
330
F000
100
AcDbDictionary
  0
ENDSEC
  0
EOF