999
FreeCAD v0.21 33668 +26 (Git)
  0
SECTION
  2
HEADER
  9
$ACADVER
  1
AC1014
  9
$ACADMAINTVER
 70
     9
  9
$DWGCODEPAGE
  3
ANSI_1252
  9
$TEXTSTYLE
  7
STANDARD
  9
$DIMSTYLE
  2
STANDARD
  9
$DIMTXSTY
  7
STANDARD
  9
$CMLSTYLE
  2
STANDARD
  9
$LUNITS
 70
2
  9
$INSUNITS
 70
4
  9
$PEXTMAX
 10
50
 20
50
 30
50
  9
$PEXTMIN
 10
0
 20
0
 30
0
  9
$HANDSEED
  5
FFFF
  0
ENDSEC
  0
SECTION
  2
CLASSES
  0
CLASS
  1
ACDBDICTIONARYWDFLT
  2
AcDbDictionaryWithDefault
  3
ObjectDBX Classes
 90
        0
280
     0
281
     0
  0
CLASS
  1
XRECORD
  2
AcDbXrecord
  3
ObjectDBX Classes
 90
        0
280
     0
281
     0
  0
CLASS
  1
LWPOLYLINE
  2
AcDbPolyline
  3
ObjectDBX Classes
 90
        0
280
     0
281
     1
  0
ENDSEC
  0
SECTION
  2
TABLES
  0
TABLE
  2
VPORT
  5
20
330
0
100
AcDbSymbolTable
 70
     1
  0
VPORT
  5
21
330
20
100
AcDbSymbolTableRecord
100
AcDbViewportTableRecord
  2
*ACTIVE
 70
     0
  0
ENDTAB
  0
TABLE
  2
LTYPE
  5
22
330
0
100
AcDbSymbolTable
 70
     1
  0
LTYPE
  5
23
330
21
100
AcDbSymbolTableRecord
100
AcDbLinetypeTableRecord
  2
BYBLOCK
 70
     0
  3

 72
    65
 73
     0
 40
0.0
  0
LTYPE
  5
24
330
21
100
AcDbSymbolTableRecord
100
AcDbLinetypeTableRecord
  2
BYLAYER
 70
     0
  3

 72
    65
 73
     0
 40
0.0
  0
LTYPE
  5
25
330
21
100
AcDbSymbolTableRecord
100
AcDbLinetypeTableRecord
  2
CONTINUOUS
 70
     0
  3
Solid line
 72
    65
 73
     0
 40
0.0
  0
ENDTAB
  0
TABLE
  2
LAYER
  5
C2D
330
0
100
AcDbSymbolTable
 70
3
  0
LAYER
  5
C2E
330
C2D
100
AcDbSymbolTableRecord
100
AcDbLayerTableRecord
  2
0
 70
   0
 62
   7
  6
CONTINUOUS
  0
LAYER
  5
C2F
330
C2D
100
AcDbSymbolTableRecord
100
AcDbLayerTableRecord
  2
none
 70
    0
 62
    7
  6
CONTINUOUS
  0
LAYER
  5
C30
330
C2D
100
AcDbSymbolTableRecord
100
AcDbLayerTableRecord
  2
Mesh_cs
 70
    0
 62
    7
  6
CONTINUOUS
  0
ENDTAB
  0
TABLE
  2
STYLE
  5
70
330
0
100
AcDbSymbolTable
 70
     2
  0
STYLE
  5
71
330
70
100
AcDbSymbolTableRecord
100
AcDbTextStyleTableRecord
  2
STANDARD
 70
     0
 40
0.0
 41
1.0
 50
0.0
 71
     0
 42
2.5
  3
arial.ttf
  4

  0
STYLE
  5
72
330
70
100
AcDbSymbolTableRecord
100
AcDbTextStyleTableRecord
  2
ANNOTATIVE
 70
     0
 40
0.0
 41
1.0
 50
0.0
 71
     0
 42
2.5
  3
arial.ttf
  4

  0
ENDTAB
  0
TABLE
  2
VIEW
  5
73
330
0
100
AcDbSymbolTable
 70
     0
  0
ENDTAB
  0
TABLE
  2
UCS
  5
74
330
0
100
AcDbSymbolTable
 70
     0
  0
ENDTAB
  0
TABLE
  2
APPID
  5
75
330
0
100
AcDbSymbolTable
 70
     2
  0
APPID
  5
76
330
75
100
AcDbSymbolTableRecord
100
AcDbRegAppTableRecord
  2
ACAD
 70
     0
  0
APPID
  5
77
330
75
100
AcDbSymbolTableRecord
100
AcDbRegAppTableRecord
  2
ACADANNOTATIVE
 70
     0
  0
ENDTAB
  0
TABLE
  2
DIMSTYLE
  5
78
330
0
100
AcDbSymbolTable
 70
     2
  0
DIMSTYLE
105
79
330
78
100
AcDbSymbolTableRecord
100
AcDbDimStyleTableRecord
  2
STANDARD
 70
     0
  3

  4

  5

  6

  7

 40
0.0
 41
2.5
 42
0.625
 43
3.75
 44
1.25
 45
0.0
 46
0.0
 47
0.0
 48
0.0
140
2.5
141
2.5
142
0.0
143
0.03937007874016
144
1.0
145
0.0
146
1.0
147
0.625
 71
     0
 72
     0
 73
     0
 74
     0
 75
     0
 76
     0
 77
     1
 78
     8
170
     0
171
     3
172
     1
173
     0
174
     0
175
     0
176
     0
177
     0
178
     0
270
     2
271
     2
272
     2
273
     2
274
     3
340
71
275
     0
280
     0
281
     0
282
     0
283
     0
284
     8
285
     0
286
     0
287
     3
288
     0
  0
ENDTAB
  0
TABLE
  2
BLOCK_RECORD
  5
A01
330
0
100
AcDbSymbolTable
  70
5
  0
BLOCK_RECORD
  5
A02
330
A01
100
AcDbSymbolTableRecord
100
AcDbBlockTableRecord
  2
*MODEL_SPACE
  0
BLOCK_RECORD
  5
A03
330
A01
100
AcDbSymbolTableRecord
100
AcDbBlockTableRecord
  2
*PAPER_SPACE
  0
ENDTAB
  0
ENDSEC
  0
SECTION
  2
BLOCKS
  0
BLOCK
  5
A04
330
A02
100
AcDbEntity
  8
0
100
AcDbBlockBegin
  2
*MODEL_SPACE
 70
   0
 10
0
 20
0
 30
0
  3
*MODEL_SPACE
  1
 
  0
ENDBLK
  5
A05
330
A02
100
AcDbEntity
  8
0
100
AcDbBlockEnd
  0
BLOCK
  5
A06
330
A03
100
AcDbEntity
 67
1
  8
0
100
AcDbBlockBegin
  2
*PAPER_SPACE
 70
   0
 10
0
 20
0
 30
0
  3
*PAPER_SPACE
  1
 
  0
ENDBLK
  5
A07
330
A03
100
AcDbEntity
 67
    1
  8
0
100
AcDbBlockEnd
  0
ENDSEC
  0
SECTION
  2
ENTITIES
  0
LINE
  5
A08
330
A02
100
AcDbEntity
  8
Mesh_cs
100
AcDbLine
 10
2.30148
 20
15
 30
11.5
 11
15
 21
15
 31
11.5
  0
LINE
  5
A09
330
A02
100
AcDbEntity
  8
Mesh_cs
100
AcDbLine
 10
15
 20
15
 30
11.5
 11
15
 21
12.8571
 31
11.5
  0
LINE
  5
A0A
330
A02
100
AcDbEntity
  8
Mesh_cs
100
AcDbLine
 10
15
 20
12.8571
 30
11.5
 11
15
 21
-1.77636e-15
 31
11.5
  0
LINE
  5
A0B
330
A02
100
AcDbEntity
  8
Mesh_cs
100
AcDbLine
 10
15
 20
-2.55351e-15
 30
11.5
 11
2.14286
 21
3.05001e-14
 31
11.5
  0
LINE
  5
A0C
330
A02
100
AcDbEntity
  8
Mesh_cs
100
AcDbLine
 10
2.14286
 20
3.05001e-14
 30
11.5
 11
0
 21
3.59535e-14
 31
11.5
  0
LINE
  5
A0D
330
A02
100
AcDbEntity
  8
Mesh_cs
100
AcDbLine
 10
1.00974e-28
 20
3.59535e-14
 30
11.5
 11
8.65493e-29
 21
2.14286
 31
11.5
  0
LINE
  5
A0E
330
A02
100
AcDbEntity
  8
Mesh_cs
100
AcDbLine
 10
8.65493e-29
 20
2.14286
 30
11.5
 11
-4.56777e-16
 21
15
 31
11.5
  0
LINE
  5
A0F
330
A02
100
AcDbEntity
  8
Mesh_cs
100
AcDbLine
 10
-4.56777e-16
 20
15
 30
11.5
 11
0.158619
 21
15
 31
11.5
  0
LINE
  5
A10
330
A02
100
AcDbEntity
  8
Mesh_cs
100
AcDbLine
 10
0.158619
 20
15
 30
11.5
 11
2.30148
 21
15
 31
11.5
  0
LINE
  5
A11
330
A02
100
AcDbEntity
  8
Mesh_cs
100
AcDbLine
 10
101.783
 20
336.899
 30
11.5
 11
101.848
 21
336.852
 31
11.5
  0
LINE
  5
A12
330
A02
100
AcDbEntity
  8
Mesh_cs
100
AcDbLine
 10
101.848
 20
336.852
 30
11.5
 11
104.159
 21
335.172
 31
11.5
  0
LINE
  5
A13
330
A02
100
AcDbEntity
  8
Mesh_cs
100
AcDbLine
 10
104.159
 20
335.172
 30
11.5
 11
117.607
 21
325.402
 31
11.5
  0
LINE
  5
A14
330
A02
100
AcDbEntity
  8
Mesh_cs
100
AcDbLine
 10
117.607
 20
325.402
 30
11.5
 11
117.641
 21
325.379
 31
11.5
  0
LINE
  5
A15
330
A02
100
AcDbEntity
  8
Mesh_cs
100
AcDbLine
 10
117.641
 20
325.379
 30
11.5
 11
117.93
 21
325.186
 31
11.5
  0
LINE
  5
A16
330
A02
100
AcDbEntity
  8
Mesh_cs
100
AcDbLine
 10
117.93
 20
325.186
 30
11.5
 11
117.966
 21
325.164
 31
11.5
  0
LINE
  5
A17
330
A02
100
AcDbEntity
  8
Mesh_cs
100
AcDbLine
 10
117.966
 20
325.164
 30
11.5
 11
118.27
 21
324.996
 31
11.5
  0
LINE
  5
A18
330
A02
100
AcDbEntity
  8
Mesh_cs
100
AcDbLine
 10
118.27
 20
324.996
 30
11.5
 11
118.314
 21
324.973
 31
11.5
  0
LINE
  5
A19
330
A02
100
AcDbEntity
  8
Mesh_cs
100
AcDbLine
 10
118.314
 20
324.973
 30
11.5
 11
118.599
 21
324.842
 31
11.5
  0
LINE
  5
A1A
330
A02
100
AcDbEntity
  8
Mesh_cs
100
AcDbLine
 10
118.599
 20
324.842
 30
11.5
 11
118.646
 21
324.822
 31
11.5
  0
LINE
  5
A1B
330
A02
100
AcDbEntity
  8
Mesh_cs
100
AcDbLine
 10
118.646
 20
324.822
 30
11.5
 11
118.911
 21
324.723
 31
11.5
  0
LINE
  5
A1C
330
A02
100
AcDbEntity
  8
Mesh_cs
100
AcDbLine
 10
118.911
 20
324.723
 30
11.5
 11
118.959
 21
324.706
 31
11.5
  0
LINE
  5
A1D
330
A02
100
AcDbEntity
  8
Mesh_cs
100
AcDbLine
 10
118.959
 20
324.706
 30
11.5
 11
119.231
 21
324.624
 31
11.5
  0
LINE
  5
A1E
330
A02
100
AcDbEntity
  8
Mesh_cs
100
AcDbLine
 10
119.231
 20
324.624
 30
11.5
 11
119.281
 21
324.61
 31
11.5
  0
LINE
  5
A1F
330
A02
100
AcDbEntity
  8
Mesh_cs
100
AcDbLine
 10
119.281
 20
324.61
 30
11.5
 11
119.505
 21
324.557
 31
11.5
  0
LINE
  5
A20
330
A02
100
AcDbEntity
  8
Mesh_cs
100
AcDbLine
 10
119.505
 20
324.557
 30
11.5
 11
119.557
 21
324.547
 31
11.5
  0
LINE
  5
A21
330
A02
100
AcDbEntity
  8
Mesh_cs
100
AcDbLine
 10
119.557
 20
324.547
 30
11.5
 11
119.766
 21
324.508
 31
11.5
  0
LINE
  5
A22
330
A02
100
AcDbEntity
  8
Mesh_cs
100
AcDbLine
 10
119.766
 20
324.508
 30
11.5
 11
119.977
 21
324.48
 31
11.5
  0
LINE
  5
A23
330
A02
100
AcDbEntity
  8
Mesh_cs
100
AcDbLine
 10
119.977
 20
324.48
 30
11.5
 11
120.031
 21
324.474
 31
11.5
  0
LINE
  5
A24
330
A02
100
AcDbEntity
  8
Mesh_cs
100
AcDbLine
 10
120.031
 20
324.474
 30
11.5
 11
120.243
 21
324.456
 31
11.5
  0
LINE
  5
A25
330
A02
100
AcDbEntity
  8
Mesh_cs
100
AcDbLine
 10
120.243
 20
324.456
 30
11.5
 11
120.297
 21
324.454
 31
11.5
  0
LINE
  5
A26
330
A02
100
AcDbEntity
  8
Mesh_cs
100
AcDbLine
 10
120.297
 20
324.454
 30
11.5
 11
120.51
 21
324.447
 31
11.5
  0
LINE
  5
A27
330
A02
100
AcDbEntity
  8
Mesh_cs
100
AcDbLine
 10
120.51
 20
324.447
 30
11.5
 11
120.723
 21
324.451
 31
11.5
  0
LINE
  5
A28
330
A02
100
AcDbEntity
  8
Mesh_cs
100
AcDbLine
 10
120.723
 20
324.451
 30
11.5
 11
120.777
 21
324.453
 31
11.5
  0
LINE
  5
A29
330
A02
100
AcDbEntity
  8
Mesh_cs
100
AcDbLine
 10
120.777
 20
324.453
 30
11.5
 11
120.99
 21
324.467
 31
11.5
  0
LINE
  5
A2A
330
A02
100
AcDbEntity
  8
Mesh_cs
100
AcDbLine
 10
120.99
 20
324.467
 30
11.5
 11
121.201
 21
324.492
 31
11.5
  0
LINE
  5
A2B
330
A02
100
AcDbEntity
  8
Mesh_cs
100
AcDbLine
 10
121.201
 20
324.492
 30
11.5
 11
121.256
 21
324.498
 31
11.5
  0
LINE
  5
A2C
330
A02
100
AcDbEntity
  8
Mesh_cs
100
AcDbLine
 10
121.256
 20
324.498
 30
11.5
 11
121.466
 21
324.533
 31
11.5
  0
LINE
  5
A2D
330
A02
100
AcDbEntity
  8
Mesh_cs
100
AcDbLine
 10
121.466
 20
324.533
 30
11.5
 11
121.52
 21
324.543
 31
11.5
  0
LINE
  5
A2E
330
A02
100
AcDbEntity
  8
Mesh_cs
100
AcDbLine
 10
121.52
 20
324.543
 30
11.5
 11
121.728
 21
324.589
 31
11.5
  0
LINE
  5
A2F
330
A02
100
AcDbEntity
  8
Mesh_cs
100
AcDbLine
 10
121.728
 20
324.589
 30
11.5
 11
121.933
 21
324.645
 31
11.5
  0
LINE
  5
A30
330
A02
100
AcDbEntity
  8
Mesh_cs
100
AcDbLine
 10
121.933
 20
324.645
 30
11.5
 11
121.986
 21
324.659
 31
11.5
  0
LINE
  5
A31
330
A02
100
AcDbEntity
  8
Mesh_cs
100
AcDbLine
 10
121.986
 20
324.659
 30
11.5
 11
122.188
 21
324.725
 31
11.5
  0
LINE
  5
A32
330
A02
100
AcDbEntity
  8
Mesh_cs
100
AcDbLine
 10
122.188
 20
324.725
 30
11.5
 11
122.239
 21
324.743
 31
11.5
  0
LINE
  5
A33
330
A02
100
AcDbEntity
  8
Mesh_cs
100
AcDbLine
 10
122.239
 20
324.743
 30
11.5
 11
122.438
 21
324.819
 31
11.5
  0
LINE
  5
A34
330
A02
100
AcDbEntity
  8
Mesh_cs
100
AcDbLine
 10
122.438
 20
324.819
 30
11.5
 11
122.633
 21
324.905
 31
11.5
  0
LINE
  5
A35
330
A02
100
AcDbEntity
  8
Mesh_cs
100
AcDbLine
 10
122.633
 20
324.905
 30
11.5
 11
122.682
 21
324.927
 31
11.5
  0
LINE
  5
A36
330
A02
100
AcDbEntity
  8
Mesh_cs
100
AcDbLine
 10
122.682
 20
324.927
 30
11.5
 11
122.873
 21
325.022
 31
11.5
  0
LINE
  5
A37
330
A02
100
AcDbEntity
  8
Mesh_cs
100
AcDbLine
 10
122.873
 20
325.022
 30
11.5
 11
122.919
 21
325.047
 31
11.5
  0
LINE
  5
A38
330
A02
100
AcDbEntity
  8
Mesh_cs
100
AcDbLine
 10
122.919
 20
325.047
 30
11.5
 11
123.105
 21
325.152
 31
11.5
  0
LINE
  5
A39
330
A02
100
AcDbEntity
  8
Mesh_cs
100
AcDbLine
 10
123.105
 20
325.152
 30
11.5
 11
123.285
 21
325.265
 31
11.5
  0
LINE
  5
A3A
330
A02
100
AcDbEntity
  8
Mesh_cs
100
AcDbLine
 10
123.285
 20
325.265
 30
11.5
 11
123.329
 21
325.294
 31
11.5
  0
LINE
  5
A3B
330
A02
100
AcDbEntity
  8
Mesh_cs
100
AcDbLine
 10
123.329
 20
325.294
 30
11.5
 11
123.503
 21
325.416
 31
11.5
  0
LINE
  5
A3C
330
A02
100
AcDbEntity
  8
Mesh_cs
100
AcDbLine
 10
123.503
 20
325.416
 30
11.5
 11
123.548
 21
325.45
 31
11.5
  0
LINE
  5
A3D
330
A02
100
AcDbEntity
  8
Mesh_cs
100
AcDbLine
 10
123.548
 20
325.45
 30
11.5
 11
123.716
 21
325.581
 31
11.5
  0
LINE
  5
A3E
330
A02
100
AcDbEntity
  8
Mesh_cs
100
AcDbLine
 10
123.716
 20
325.581
 30
11.5
 11
123.877
 21
325.72
 31
11.5
  0
LINE
  5
A3F
330
A02
100
AcDbEntity
  8
Mesh_cs
100
AcDbLine
 10
123.877
 20
325.72
 30
11.5
 11
123.923
 21
325.761
 31
11.5
  0
LINE
  5
A40
330
A02
100
AcDbEntity
  8
Mesh_cs
100
AcDbLine
 10
123.923
 20
325.761
 30
11.5
 11
124.077
 21
325.907
 31
11.5
  0
LINE
  5
A41
330
A02
100
AcDbEntity
  8
Mesh_cs
100
AcDbLine
 10
124.077
 20
325.907
 30
11.5
 11
124.223
 21
326.061
 31
11.5
  0
LINE
  5
A42
330
A02
100
AcDbEntity
  8
Mesh_cs
100
AcDbLine
 10
124.223
 20
326.061
 30
11.5
 11
124.264
 21
326.105
 31
11.5
  0
LINE
  5
A43
330
A02
100
AcDbEntity
  8
Mesh_cs
100
AcDbLine
 10
124.264
 20
326.105
 30
11.5
 11
124.403
 21
326.266
 31
11.5
  0
LINE
  5
A44
330
A02
100
AcDbEntity
  8
Mesh_cs
100
AcDbLine
 10
124.403
 20
326.266
 30
11.5
 11
124.48
 21
326.363
 31
11.5
  0
LINE
  5
A45
330
A02
100
AcDbEntity
  8
Mesh_cs
100
AcDbLine
 10
124.48
 20
326.363
 30
11.5
 11
124.516
 21
326.409
 31
11.5
  0
LINE
  5
A46
330
A02
100
AcDbEntity
  8
Mesh_cs
100
AcDbLine
 10
124.516
 20
326.409
 30
11.5
 11
124.591
 21
326.508
 31
11.5
  0
LINE
  5
A47
330
A02
100
AcDbEntity
  8
Mesh_cs
100
AcDbLine
 10
124.591
 20
326.508
 30
11.5
 11
126.27
 21
328.82
 31
11.5
  0
LINE
  5
A48
330
A02
100
AcDbEntity
  8
Mesh_cs
100
AcDbLine
 10
126.27
 20
328.82
 30
11.5
 11
136.346
 21
342.689
 31
11.5
  0
LINE
  5
A49
330
A02
100
AcDbEntity
  8
Mesh_cs
100
AcDbLine
 10
136.346
 20
342.689
 30
11.5
 11
158.594
 21
326.524
 31
11.5
  0
LINE
  5
A4A
330
A02
100
AcDbEntity
  8
Mesh_cs
100
AcDbLine
 10
158.594
 20
326.524
 30
11.5
 11
180.842
 21
310.36
 31
11.5
  0
LINE
  5
A4B
330
A02
100
AcDbEntity
  8
Mesh_cs
100
AcDbLine
 10
180.842
 20
310.36
 30
11.5
 11
177.926
 21
306.266
 31
11.5
  0
LINE
  5
A4C
330
A02
100
AcDbEntity
  8
Mesh_cs
100
AcDbLine
 10
177.926
 20
306.266
 30
11.5
 11
175.011
 21
302.171
 31
11.5
  0
LINE
  5
A4D
330
A02
100
AcDbEntity
  8
Mesh_cs
100
AcDbLine
 10
175.011
 20
302.171
 30
11.5
 11
172.173
 21
298.022
 31
11.5
  0
LINE
  5
A4E
330
A02
100
AcDbEntity
  8
Mesh_cs
100
AcDbLine
 10
172.173
 20
298.022
 30
11.5
 11
169.336
 21
293.873
 31
11.5
  0
LINE
  5
A4F
330
A02
100
AcDbEntity
  8
Mesh_cs
100
AcDbLine
 10
169.336
 20
293.873
 30
11.5
 11
166.579
 21
289.67
 31
11.5
  0
LINE
  5
A50
330
A02
100
AcDbEntity
  8
Mesh_cs
100
AcDbLine
 10
166.579
 20
289.67
 30
11.5
 11
163.821
 21
285.467
 31
11.5
  0
LINE
  5
A51
330
A02
100
AcDbEntity
  8
Mesh_cs
100
AcDbLine
 10
163.821
 20
285.467
 30
11.5
 11
161.144
 21
281.213
 31
11.5
  0
LINE
  5
A52
330
A02
100
AcDbEntity
  8
Mesh_cs
100
AcDbLine
 10
161.144
 20
281.213
 30
11.5
 11
158.466
 21
276.959
 31
11.5
  0
LINE
  5
A53
330
A02
100
AcDbEntity
  8
Mesh_cs
100
AcDbLine
 10
158.466
 20
276.959
 30
11.5
 11
155.871
 21
272.654
 31
11.5
  0
LINE
  5
A54
330
A02
100
AcDbEntity
  8
Mesh_cs
100
AcDbLine
 10
155.871
 20
272.654
 30
11.5
 11
153.275
 21
268.35
 31
11.5
  0
LINE
  5
A55
330
A02
100
AcDbEntity
  8
Mesh_cs
100
AcDbLine
 10
153.275
 20
268.35
 30
11.5
 11
150.762
 21
263.996
 31
11.5
  0
LINE
  5
A56
330
A02
100
AcDbEntity
  8
Mesh_cs
100
AcDbLine
 10
150.762
 20
263.996
 30
11.5
 11
148.248
 21
259.643
 31
11.5
  0
LINE
  5
A57
330
A02
100
AcDbEntity
  8
Mesh_cs
100
AcDbLine
 10
148.248
 20
259.643
 30
11.5
 11
145.818
 21
255.243
 31
11.5
  0
LINE
  5
A58
330
A02
100
AcDbEntity
  8
Mesh_cs
100
AcDbLine
 10
145.818
 20
255.243
 30
11.5
 11
143.388
 21
250.843
 31
11.5
  0
LINE
  5
A59
330
A02
100
AcDbEntity
  8
Mesh_cs
100
AcDbLine
 10
143.388
 20
250.843
 30
11.5
 11
141.042
 21
246.397
 31
11.5
  0
LINE
  5
A5A
330
A02
100
AcDbEntity
  8
Mesh_cs
100
AcDbLine
 10
141.042
 20
246.397
 30
11.5
 11
138.697
 21
241.951
 31
11.5
  0
LINE
  5
A5B
330
A02
100
AcDbEntity
  8
Mesh_cs
100
AcDbLine
 10
138.697
 20
241.951
 30
11.5
 11
136.436
 21
237.462
 31
11.5
  0
LINE
  5
A5C
330
A02
100
AcDbEntity
  8
Mesh_cs
100
AcDbLine
 10
136.436
 20
237.462
 30
11.5
 11
134.175
 21
232.972
 31
11.5
  0
LINE
  5
A5D
330
A02
100
AcDbEntity
  8
Mesh_cs
100
AcDbLine
 10
134.175
 20
232.972
 30
11.5
 11
132.001
 21
228.44
 31
11.5
  0
LINE
  5
A5E
330
A02
100
AcDbEntity
  8
Mesh_cs
100
AcDbLine
 10
132.001
 20
228.44
 30
11.5
 11
129.826
 21
223.908
 31
11.5
  0
LINE
  5
A5F
330
A02
100
AcDbEntity
  8
Mesh_cs
100
AcDbLine
 10
129.826
 20
223.908
 30
11.5
 11
127.738
 21
219.336
 31
11.5
  0
LINE
  5
A60
330
A02
100
AcDbEntity
  8
Mesh_cs
100
AcDbLine
 10
127.738
 20
219.336
 30
11.5
 11
125.649
 21
214.764
 31
11.5
  0
LINE
  5
A61
330
A02
100
AcDbEntity
  8
Mesh_cs
100
AcDbLine
 10
125.649
 20
214.764
 30
11.5
 11
123.649
 21
210.152
 31
11.5
  0
LINE
  5
A62
330
A02
100
AcDbEntity
  8
Mesh_cs
100
AcDbLine
 10
123.649
 20
210.152
 30
11.5
 11
121.648
 21
205.541
 31
11.5
  0
LINE
  5
A63
330
A02
100
AcDbEntity
  8
Mesh_cs
100
AcDbLine
 10
121.648
 20
205.541
 30
11.5
 11
119.735
 21
200.893
 31
11.5
  0
LINE
  5
A64
330
A02
100
AcDbEntity
  8
Mesh_cs
100
AcDbLine
 10
119.735
 20
200.893
 30
11.5
 11
117.823
 21
196.244
 31
11.5
  0
LINE
  5
A65
330
A02
100
AcDbEntity
  8
Mesh_cs
100
AcDbLine
 10
117.823
 20
196.244
 30
11.5
 11
115.999
 21
191.56
 31
11.5
  0
LINE
  5
A66
330
A02
100
AcDbEntity
  8
Mesh_cs
100
AcDbLine
 10
115.999
 20
191.56
 30
11.5
 11
114.176
 21
186.876
 31
11.5
  0
LINE
  5
A67
330
A02
100
AcDbEntity
  8
Mesh_cs
100
AcDbLine
 10
114.176
 20
186.876
 30
11.5
 11
112.441
 21
182.158
 31
11.5
  0
LINE
  5
A68
330
A02
100
AcDbEntity
  8
Mesh_cs
100
AcDbLine
 10
112.441
 20
182.158
 30
11.5
 11
110.707
 21
177.44
 31
11.5
  0
LINE
  5
A69
330
A02
100
AcDbEntity
  8
Mesh_cs
100
AcDbLine
 10
110.707
 20
177.44
 30
11.5
 11
109.063
 21
172.689
 31
11.5
  0
LINE
  5
A6A
330
A02
100
AcDbEntity
  8
Mesh_cs
100
AcDbLine
 10
109.063
 20
172.689
 30
11.5
 11
107.419
 21
167.939
 31
11.5
  0
LINE
  5
A6B
330
A02
100
AcDbEntity
  8
Mesh_cs
100
AcDbLine
 10
107.419
 20
167.939
 30
11.5
 11
105.866
 21
163.159
 31
11.5
  0
LINE
  5
A6C
330
A02
100
AcDbEntity
  8
Mesh_cs
100
AcDbLine
 10
105.866
 20
163.159
 30
11.5
 11
104.312
 21
158.378
 31
11.5
  0
LINE
  5
A6D
330
A02
100
AcDbEntity
  8
Mesh_cs
100
AcDbLine
 10
104.312
 20
158.378
 30
11.5
 11
102.85
 21
153.569
 31
11.5
  0
LINE
  5
A6E
330
A02
100
AcDbEntity
  8
Mesh_cs
100
AcDbLine
 10
102.85
 20
153.569
 30
11.5
 11
101.388
 21
148.759
 31
11.5
  0
LINE
  5
A6F
330
A02
100
AcDbEntity
  8
Mesh_cs
100
AcDbLine
 10
101.388
 20
148.759
 30
11.5
 11
100.018
 21
143.923
 31
11.5
  0
LINE
  5
A70
330
A02
100
AcDbEntity
  8
Mesh_cs
100
AcDbLine
 10
100.018
 20
143.923
 30
11.5
 11
98.648
 21
139.087
 31
11.5
  0
LINE
  5
A71
330
A02
100
AcDbEntity
  8
Mesh_cs
100
AcDbLine
 10
98.648
 20
139.087
 30
11.5
 11
97.3701
 21
134.225
 31
11.5
  0
LINE
  5
A72
330
A02
100
AcDbEntity
  8
Mesh_cs
100
AcDbLine
 10
97.3701
 20
134.225
 30
11.5
 11
96.0923
 21
129.364
 31
11.5
  0
LINE
  5
A73
330
A02
100
AcDbEntity
  8
Mesh_cs
100
AcDbLine
 10
96.0923
 20
129.364
 30
11.5
 11
94.9072
 21
124.479
 31
11.5
  0
LINE
  5
A74
330
A02
100
AcDbEntity
  8
Mesh_cs
100
AcDbLine
 10
94.9072
 20
124.479
 30
11.5
 11
93.7221
 21
119.594
 31
11.5
  0
LINE
  5
A75
330
A02
100
AcDbEntity
  8
Mesh_cs
100
AcDbLine
 10
93.7221
 20
119.594
 30
11.5
 11
92.6303
 21
114.687
 31
11.5
  0
LINE
  5
A76
330
A02
100
AcDbEntity
  8
Mesh_cs
100
AcDbLine
 10
92.6303
 20
114.687
 30
11.5
 11
91.5384
 21
109.781
 31
11.5
  0
LINE
  5
A77
330
A02
100
AcDbEntity
  8
Mesh_cs
100
AcDbLine
 10
91.5384
 20
109.781
 30
11.5
 11
90.5402
 21
104.854
 31
11.5
  0
LINE
  5
A78
330
A02
100
AcDbEntity
  8
Mesh_cs
100
AcDbLine
 10
90.5402
 20
104.854
 30
11.5
 11
89.5419
 21
99.9278
 31
11.5
  0
LINE
  5
A79
330
A02
100
AcDbEntity
  8
Mesh_cs
100
AcDbLine
 10
89.5419
 20
99.9278
 30
11.5
 11
88.6377
 21
94.9832
 31
11.5
  0
LINE
  5
A7A
330
A02
100
AcDbEntity
  8
Mesh_cs
100
AcDbLine
 10
88.6377
 20
94.9832
 30
11.5
 11
87.7334
 21
90.0386
 31
11.5
  0
LINE
  5
A7B
330
A02
100
AcDbEntity
  8
Mesh_cs
100
AcDbLine
 10
87.7334
 20
90.0386
 30
11.5
 11
86.9235
 21
85.0776
 31
11.5
  0
LINE
  5
A7C
330
A02
100
AcDbEntity
  8
Mesh_cs
100
AcDbLine
 10
86.9235
 20
85.0776
 30
11.5
 11
86.1135
 21
80.1167
 31
11.5
  0
LINE
  5
A7D
330
A02
100
AcDbEntity
  8
Mesh_cs
100
AcDbLine
 10
86.1135
 20
80.1167
 30
11.5
 11
85.3981
 21
75.1412
 31
11.5
  0
LINE
  5
A7E
330
A02
100
AcDbEntity
  8
Mesh_cs
100
AcDbLine
 10
85.3981
 20
75.1412
 30
11.5
 11
84.6828
 21
70.1657
 31
11.5
  0
LINE
  5
A7F
330
A02
100
AcDbEntity
  8
Mesh_cs
100
AcDbLine
 10
84.6828
 20
70.1657
 30
11.5
 11
84.0623
 21
65.1775
 31
11.5
  0
LINE
  5
A80
330
A02
100
AcDbEntity
  8
Mesh_cs
100
AcDbLine
 10
84.0623
 20
65.1775
 30
11.5
 11
83.4417
 21
60.1894
 31
11.5
  0
LINE
  5
A81
330
A02
100
AcDbEntity
  8
Mesh_cs
100
AcDbLine
 10
83.4417
 20
60.1894
 30
11.5
 11
82.9163
 21
55.1903
 31
11.5
  0
LINE
  5
A82
330
A02
100
AcDbEntity
  8
Mesh_cs
100
AcDbLine
 10
82.9163
 20
55.1903
 30
11.5
 11
82.3909
 21
50.1912
 31
11.5
  0
LINE
  5
A83
330
A02
100
AcDbEntity
  8
Mesh_cs
100
AcDbLine
 10
82.3909
 20
50.1912
 30
11.5
 11
81.9607
 21
45.183
 31
11.5
  0
LINE
  5
A84
330
A02
100
AcDbEntity
  8
Mesh_cs
100
AcDbLine
 10
81.9607
 20
45.183
 30
11.5
 11
81.5306
 21
40.1748
 31
11.5
  0
LINE
  5
A85
330
A02
100
AcDbEntity
  8
Mesh_cs
100
AcDbLine
 10
81.5306
 20
40.1748
 30
11.5
 11
81.1959
 21
35.1593
 31
11.5
  0
LINE
  5
A86
330
A02
100
AcDbEntity
  8
Mesh_cs
100
AcDbLine
 10
81.1959
 20
35.1593
 30
11.5
 11
80.8611
 21
30.1438
 31
11.5
  0
LINE
  5
A87
330
A02
100
AcDbEntity
  8
Mesh_cs
100
AcDbLine
 10
80.8611
 20
30.1438
 30
11.5
 11
80.622
 21
25.1229
 31
11.5
  0
LINE
  5
A88
330
A02
100
AcDbEntity
  8
Mesh_cs
100
AcDbLine
 10
80.622
 20
25.1229
 30
11.5
 11
80.3828
 21
20.102
 31
11.5
  0
LINE
  5
A89
330
A02
100
AcDbEntity
  8
Mesh_cs
100
AcDbLine
 10
80.3828
 20
20.102
 30
11.5
 11
80.2392
 21
15.0774
 31
11.5
  0
LINE
  5
A8A
330
A02
100
AcDbEntity
  8
Mesh_cs
100
AcDbLine
 10
80.2392
 20
15.0774
 30
11.5
 11
80.0957
 21
10.0528
 31
11.5
  0
LINE
  5
A8B
330
A02
100
AcDbEntity
  8
Mesh_cs
100
AcDbLine
 10
80.0957
 20
10.0528
 30
11.5
 11
80.0479
 21
5.0264
 31
11.5
  0
LINE
  5
A8C
330
A02
100
AcDbEntity
  8
Mesh_cs
100
AcDbLine
 10
80.0479
 20
5.0264
 30
11.5
 11
80
 21
-2.66454e-15
 31
11.5
  0
LINE
  5
A8D
330
A02
100
AcDbEntity
  8
Mesh_cs
100
AcDbLine
 10
80
 20
-2.55351e-15
 30
11.5
 11
52.5
 21
-2.55351e-15
 31
11.5
  0
LINE
  5
A8E
330
A02
100
AcDbEntity
  8
Mesh_cs
100
AcDbLine
 10
52.5
 20
-2.55351e-15
 30
11.5
 11
25
 21
-2.79142e-15
 31
11.5
  0
LINE
  5
A8F
330
A02
100
AcDbEntity
  8
Mesh_cs
100
AcDbLine
 10
25
 20
-2.79142e-15
 30
11.5
 11
25
 21
17.1429
 31
11.5
  0
LINE
  5
A90
330
A02
100
AcDbEntity
  8
Mesh_cs
100
AcDbLine
 10
25
 20
17.1429
 30
11.5
 11
25
 21
20
 31
11.5
  0
LINE
  5
A91
330
A02
100
AcDbEntity
  8
Mesh_cs
100
AcDbLine
 10
25
 20
20
 30
11.5
 11
24.9973
 21
20.0623
 31
11.5
  0
LINE
  5
A92
330
A02
100
AcDbEntity
  8
Mesh_cs
100
AcDbLine
 10
24.9973
 20
20.0623
 30
11.5
 11
24.981
 21
20.4358
 31
11.5
  0
LINE
  5
A93
330
A02
100
AcDbEntity
  8
Mesh_cs
100
AcDbLine
 10
24.981
 20
20.4358
 30
11.5
 11
24.9322
 21
20.8065
 31
11.5
  0
LINE
  5
A94
330
A02
100
AcDbEntity
  8
Mesh_cs
100
AcDbLine
 10
24.9322
 20
20.8065
 30
11.5
 11
24.924
 21
20.8682
 31
11.5
  0
LINE
  5
A95
330
A02
100
AcDbEntity
  8
Mesh_cs
100
AcDbLine
 10
24.924
 20
20.8682
 30
11.5
 11
24.8431
 21
21.2333
 31
11.5
  0
LINE
  5
A96
330
A02
100
AcDbEntity
  8
Mesh_cs
100
AcDbLine
 10
24.8431
 20
21.2333
 30
11.5
 11
24.8296
 21
21.2941
 31
11.5
  0
LINE
  5
A97
330
A02
100
AcDbEntity
  8
Mesh_cs
100
AcDbLine
 10
24.8296
 20
21.2941
 30
11.5
 11
24.7172
 21
21.6507
 31
11.5
  0
LINE
  5
A98
330
A02
100
AcDbEntity
  8
Mesh_cs
100
AcDbLine
 10
24.7172
 20
21.6507
 30
11.5
 11
24.6985
 21
21.7101
 31
11.5
  0
LINE
  5
A99
330
A02
100
AcDbEntity
  8
Mesh_cs
100
AcDbLine
 10
24.6985
 20
21.7101
 30
11.5
 11
24.6746
 21
21.7677
 31
11.5
  0
LINE
  5
A9A
330
A02
100
AcDbEntity
  8
Mesh_cs
100
AcDbLine
 10
24.6746
 20
21.7677
 30
11.5
 11
24.5315
 21
22.1131
 31
11.5
  0
LINE
  5
A9B
330
A02
100
AcDbEntity
  8
Mesh_cs
100
AcDbLine
 10
24.5315
 20
22.1131
 30
11.5
 11
24.5028
 21
22.1684
 31
11.5
  0
LINE
  5
A9C
330
A02
100
AcDbEntity
  8
Mesh_cs
100
AcDbLine
 10
24.5028
 20
22.1684
 30
11.5
 11
24.3301
 21
22.5
 31
11.5
  0
LINE
  5
A9D
330
A02
100
AcDbEntity
  8
Mesh_cs
100
AcDbLine
 10
24.3301
 20
22.5
 30
11.5
 11
24.1292
 21
22.8153
 31
11.5
  0
LINE
  5
A9E
330
A02
100
AcDbEntity
  8
Mesh_cs
100
AcDbLine
 10
24.1292
 20
22.8153
 30
11.5
 11
24.0958
 21
22.8679
 31
11.5
  0
LINE
  5
A9F
330
A02
100
AcDbEntity
  8
Mesh_cs
100
AcDbLine
 10
24.0958
 20
22.8679
 30
11.5
 11
23.8682
 21
23.1645
 31
11.5
  0
LINE
  5
AA0
330
A02
100
AcDbEntity
  8
Mesh_cs
100
AcDbLine
 10
23.8682
 20
23.1645
 30
11.5
 11
23.8302
 21
23.2139
 31
11.5
  0
LINE
  5
AA1
330
A02
100
AcDbEntity
  8
Mesh_cs
100
AcDbLine
 10
23.8302
 20
23.2139
 30
11.5
 11
23.5776
 21
23.4896
 31
11.5
  0
LINE
  5
AA2
330
A02
100
AcDbEntity
  8
Mesh_cs
100
AcDbLine
 10
23.5776
 20
23.4896
 30
11.5
 11
23.5355
 21
23.5355
 31
11.5
  0
LINE
  5
AA3
330
A02
100
AcDbEntity
  8
Mesh_cs
100
AcDbLine
 10
23.5355
 20
23.5355
 30
11.5
 11
23.2599
 21
23.7881
 31
11.5
  0
LINE
  5
AA4
330
A02
100
AcDbEntity
  8
Mesh_cs
100
AcDbLine
 10
23.2599
 20
23.7881
 30
11.5
 11
23.2139
 21
23.8302
 31
11.5
  0
LINE
  5
AA5
330
A02
100
AcDbEntity
  8
Mesh_cs
100
AcDbLine
 10
23.2139
 20
23.8302
 30
11.5
 11
22.9173
 21
24.0578
 31
11.5
  0
LINE
  5
AA6
330
A02
100
AcDbEntity
  8
Mesh_cs
100
AcDbLine
 10
22.9173
 20
24.0578
 30
11.5
 11
22.8679
 21
24.0958
 31
11.5
  0
LINE
  5
AA7
330
A02
100
AcDbEntity
  8
Mesh_cs
100
AcDbLine
 10
22.8679
 20
24.0958
 30
11.5
 11
22.5526
 21
24.2966
 31
11.5
  0
LINE
  5
AA8
330
A02
100
AcDbEntity
  8
Mesh_cs
100
AcDbLine
 10
22.5526
 20
24.2966
 30
11.5
 11
22.5
 21
24.3301
 31
11.5
  0
LINE
  5
AA9
330
A02
100
AcDbEntity
  8
Mesh_cs
100
AcDbLine
 10
22.5
 20
24.3301
 30
11.5
 11
22.1684
 21
24.5028
 31
11.5
  0
LINE
  5
AAA
330
A02
100
AcDbEntity
  8
Mesh_cs
100
AcDbLine
 10
22.1684
 20
24.5028
 30
11.5
 11
22.1131
 21
24.5315
 31
11.5
  0
LINE
  5
AAB
330
A02
100
AcDbEntity
  8
Mesh_cs
100
AcDbLine
 10
22.1131
 20
24.5315
 30
11.5
 11
21.7677
 21
24.6746
 31
11.5
  0
LINE
  5
AAC
330
A02
100
AcDbEntity
  8
Mesh_cs
100
AcDbLine
 10
21.7677
 20
24.6746
 30
11.5
 11
21.7101
 21
24.6985
 31
11.5
  0
LINE
  5
AAD
330
A02
100
AcDbEntity
  8
Mesh_cs
100
AcDbLine
 10
21.7101
 20
24.6985
 30
11.5
 11
21.3535
 21
24.8109
 31
11.5
  0
LINE
  5
AAE
330
A02
100
AcDbEntity
  8
Mesh_cs
100
AcDbLine
 10
21.3535
 20
24.8109
 30
11.5
 11
21.2941
 21
24.8296
 31
11.5
  0
LINE
  5
AAF
330
A02
100
AcDbEntity
  8
Mesh_cs
100
AcDbLine
 10
21.2941
 20
24.8296
 30
11.5
 11
20.9291
 21
24.9106
 31
11.5
  0
LINE
  5
AB0
330
A02
100
AcDbEntity
  8
Mesh_cs
100
AcDbLine
 10
20.9291
 20
24.9106
 30
11.5
 11
20.8682
 21
24.924
 31
11.5
  0
LINE
  5
AB1
330
A02
100
AcDbEntity
  8
Mesh_cs
100
AcDbLine
 10
20.8682
 20
24.924
 30
11.5
 11
20.4976
 21
24.9728
 31
11.5
  0
LINE
  5
AB2
330
A02
100
AcDbEntity
  8
Mesh_cs
100
AcDbLine
 10
20.4976
 20
24.9728
 30
11.5
 11
20.4358
 21
24.981
 31
11.5
  0
LINE
  5
AB3
330
A02
100
AcDbEntity
  8
Mesh_cs
100
AcDbLine
 10
20.4358
 20
24.981
 30
11.5
 11
20.3735
 21
24.9837
 31
11.5
  0
LINE
  5
AB4
330
A02
100
AcDbEntity
  8
Mesh_cs
100
AcDbLine
 10
20.3735
 20
24.9837
 30
11.5
 11
20
 21
25
 31
11.5
  0
LINE
  5
AB5
330
A02
100
AcDbEntity
  8
Mesh_cs
100
AcDbLine
 10
20
 20
25
 30
11.5
 11
3.29787
 21
25
 31
11.5
  0
LINE
  5
AB6
330
A02
100
AcDbEntity
  8
Mesh_cs
100
AcDbLine
 10
3.29787
 20
25
 30
11.5
 11
0.440729
 21
25
 31
11.5
  0
LINE
  5
AB7
330
A02
100
AcDbEntity
  8
Mesh_cs
100
AcDbLine
 10
0.440729
 20
25
 30
11.5
 11
-8.88178e-16
 21
25
 31
11.5
  0
LINE
  5
AB8
330
A02
100
AcDbEntity
  8
Mesh_cs
100
AcDbLine
 10
-8.88178e-16
 20
25
 30
11.5
 11
0.145057
 21
25.2911
 31
11.5
  0
LINE
  5
AB9
330
A02
100
AcDbEntity
  8
Mesh_cs
100
AcDbLine
 10
0.145057
 20
25.2911
 30
11.5
 11
0.169233
 21
25.3397
 31
11.5
  0
LINE
  5
ABA
330
A02
100
AcDbEntity
  8
Mesh_cs
100
AcDbLine
 10
0.169233
 20
25.3397
 30
11.5
 11
0.175191
 21
25.3543
 31
11.5
  0
LINE
  5
ABB
330
A02
100
AcDbEntity
  8
Mesh_cs
100
AcDbLine
 10
0.175191
 20
25.3543
 30
11.5
 11
0.312219
 21
25.6912
 31
11.5
  0
LINE
  5
ABC
330
A02
100
AcDbEntity
  8
Mesh_cs
100
AcDbLine
 10
0.312219
 20
25.6912
 30
11.5
 11
0.317049
 21
25.7062
 31
11.5
  0
LINE
  5
ABD
330
A02
100
AcDbEntity
  8
Mesh_cs
100
AcDbLine
 10
0.317049
 20
25.7062
 30
11.5
 11
0.428133
 21
26.0525
 31
11.5
  0
LINE
  5
ABE
330
A02
100
AcDbEntity
  8
Mesh_cs
100
AcDbLine
 10
0.428133
 20
26.0525
 30
11.5
 11
0.431807
 21
26.0679
 31
11.5
  0
LINE
  5
ABF
330
A02
100
AcDbEntity
  8
Mesh_cs
100
AcDbLine
 10
0.431807
 20
26.0679
 30
11.5
 11
0.516307
 21
26.4216
 31
11.5
  0
LINE
  5
AC0
330
A02
100
AcDbEntity
  8
Mesh_cs
100
AcDbLine
 10
0.516307
 20
26.4216
 30
11.5
 11
0.518804
 21
26.4372
 31
11.5
  0
LINE
  5
AC1
330
A02
100
AcDbEntity
  8
Mesh_cs
100
AcDbLine
 10
0.518804
 20
26.4372
 30
11.5
 11
0.576234
 21
26.7963
 31
11.5
  0
LINE
  5
AC2
330
A02
100
AcDbEntity
  8
Mesh_cs
100
AcDbLine
 10
0.576234
 20
26.7963
 30
11.5
 11
0.57754
 21
26.8121
 31
11.5
  0
LINE
  5
AC3
330
A02
100
AcDbEntity
  8
Mesh_cs
100
AcDbLine
 10
0.57754
 20
26.8121
 30
11.5
 11
0.607569
 21
27.1745
 31
11.5
  0
LINE
  5
AC4
330
A02
100
AcDbEntity
  8
Mesh_cs
100
AcDbLine
 10
0.607569
 20
27.1745
 30
11.5
 11
0.631991
 21
27.629
 31
11.5
  0
LINE
  5
AC5
330
A02
100
AcDbEntity
  8
Mesh_cs
100
AcDbLine
 10
0.631991
 20
27.629
 30
11.5
 11
1.19369
 21
38.0807
 31
11.5
  0
LINE
  5
AC6
330
A02
100
AcDbEntity
  8
Mesh_cs
100
AcDbLine
 10
1.19369
 20
38.0807
 30
11.5
 11
1.22627
 21
38.5346
 31
11.5
  0
LINE
  5
AC7
330
A02
100
AcDbEntity
  8
Mesh_cs
100
AcDbLine
 10
1.22627
 20
38.5346
 30
11.5
 11
1.97561
 21
48.9745
 31
11.5
  0
LINE
  5
AC8
330
A02
100
AcDbEntity
  8
Mesh_cs
100
AcDbLine
 10
1.97561
 20
48.9745
 30
11.5
 11
2.01634
 21
49.4278
 31
11.5
  0
LINE
  5
AC9
330
A02
100
AcDbEntity
  8
Mesh_cs
100
AcDbLine
 10
2.01634
 20
49.4278
 30
11.5
 11
2.95309
 21
59.8526
 31
11.5
  0
LINE
  5
ACA
330
A02
100
AcDbEntity
  8
Mesh_cs
100
AcDbLine
 10
2.95309
 20
59.8526
 30
11.5
 11
3.00195
 21
60.305
 31
11.5
  0
LINE
  5
ACB
330
A02
100
AcDbEntity
  8
Mesh_cs
100
AcDbLine
 10
3.00195
 20
60.305
 30
11.5
 11
4.1258
 21
70.7113
 31
11.5
  0
LINE
  5
ACC
330
A02
100
AcDbEntity
  8
Mesh_cs
100
AcDbLine
 10
4.1258
 20
70.7113
 30
11.5
 11
4.18279
 21
71.1628
 31
11.5
  0
LINE
  5
ACD
330
A02
100
AcDbEntity
  8
Mesh_cs
100
AcDbLine
 10
4.18279
 20
71.1628
 30
11.5
 11
5.49338
 21
81.5473
 31
11.5
  0
LINE
  5
ACE
330
A02
100
AcDbEntity
  8
Mesh_cs
100
AcDbLine
 10
5.49338
 20
81.5473
 30
11.5
 11
5.55846
 21
81.9977
 31
11.5
  0
LINE
  5
ACF
330
A02
100
AcDbEntity
  8
Mesh_cs
100
AcDbLine
 10
5.55846
 20
81.9977
 30
11.5
 11
7.05538
 21
92.3569
 31
11.5
  0
LINE
  5
AD0
330
A02
100
AcDbEntity
  8
Mesh_cs
100
AcDbLine
 10
7.05538
 20
92.3569
 30
11.5
 11
7.12854
 21
92.806
 31
11.5
  0
LINE
  5
AD1
330
A02
100
AcDbEntity
  8
Mesh_cs
100
AcDbLine
 10
7.12854
 20
92.806
 30
11.5
 11
8.81129
 21
103.137
 31
11.5
  0
LINE
  5
AD2
330
A02
100
AcDbEntity
  8
Mesh_cs
100
AcDbLine
 10
8.81129
 20
103.137
 30
11.5
 11
8.8925
 21
103.584
 31
11.5
  0
LINE
  5
AD3
330
A02
100
AcDbEntity
  8
Mesh_cs
100
AcDbLine
 10
8.8925
 20
103.584
 30
11.5
 11
10.7605
 21
113.883
 31
11.5
  0
LINE
  5
AD4
330
A02
100
AcDbEntity
  8
Mesh_cs
100
AcDbLine
 10
10.7605
 20
113.883
 30
11.5
 11
12.8133
 21
124.147
 31
11.5
  0
LINE
  5
AD5
330
A02
100
AcDbEntity
  8
Mesh_cs
100
AcDbLine
 10
12.8133
 20
124.147
 30
11.5
 11
12.9025
 21
124.593
 31
11.5
  0
LINE
  5
AD6
330
A02
100
AcDbEntity
  8
Mesh_cs
100
AcDbLine
 10
12.9025
 20
124.593
 30
11.5
 11
12.9998
 21
125.038
 31
11.5
  0
LINE
  5
AD7
330
A02
100
AcDbEntity
  8
Mesh_cs
100
AcDbLine
 10
12.9998
 20
125.038
 30
11.5
 11
15.2365
 21
135.263
 31
11.5
  0
LINE
  5
AD8
330
A02
100
AcDbEntity
  8
Mesh_cs
100
AcDbLine
 10
15.2365
 20
135.263
 30
11.5
 11
15.3417
 21
135.705
 31
11.5
  0
LINE
  5
AD9
330
A02
100
AcDbEntity
  8
Mesh_cs
100
AcDbLine
 10
15.3417
 20
135.705
 30
11.5
 11
17.7618
 21
145.889
 31
11.5
  0
LINE
  5
ADA
330
A02
100
AcDbEntity
  8
Mesh_cs
100
AcDbLine
 10
17.7618
 20
145.889
 30
11.5
 11
17.875
 21
146.329
 31
11.5
  0
LINE
  5
ADB
330
A02
100
AcDbEntity
  8
Mesh_cs
100
AcDbLine
 10
17.875
 20
146.329
 30
11.5
 11
20.4775
 21
156.467
 31
11.5
  0
LINE
  5
ADC
330
A02
100
AcDbEntity
  8
Mesh_cs
100
AcDbLine
 10
20.4775
 20
156.467
 30
11.5
 11
20.5986
 21
156.906
 31
11.5
  0
LINE
  5
ADD
330
A02
100
AcDbEntity
  8
Mesh_cs
100
AcDbLine
 10
20.5986
 20
156.906
 30
11.5
 11
23.3829
 21
166.996
 31
11.5
  0
LINE
  5
ADE
330
A02
100
AcDbEntity
  8
Mesh_cs
100
AcDbLine
 10
23.3829
 20
166.996
 30
11.5
 11
23.5118
 21
167.432
 31
11.5
  0
LINE
  5
ADF
330
A02
100
AcDbEntity
  8
Mesh_cs
100
AcDbLine
 10
23.5118
 20
167.432
 30
11.5
 11
26.4768
 21
177.47
 31
11.5
  0
LINE
  5
AE0
330
A02
100
AcDbEntity
  8
Mesh_cs
100
AcDbLine
 10
26.4768
 20
177.47
 30
11.5
 11
26.6136
 21
177.904
 31
11.5
  0
LINE
  5
AE1
330
A02
100
AcDbEntity
  8
Mesh_cs
100
AcDbLine
 10
26.6136
 20
177.904
 30
11.5
 11
29.7585
 21
187.887
 31
11.5
  0
LINE
  5
AE2
330
A02
100
AcDbEntity
  8
Mesh_cs
100
AcDbLine
 10
29.7585
 20
187.887
 30
11.5
 11
29.903
 21
188.319
 31
11.5
  0
LINE
  5
AE3
330
A02
100
AcDbEntity
  8
Mesh_cs
100
AcDbLine
 10
29.903
 20
188.319
 30
11.5
 11
33.2267
 21
198.244
 31
11.5
  0
LINE
  5
AE4
330
A02
100
AcDbEntity
  8
Mesh_cs
100
AcDbLine
 10
33.2267
 20
198.244
 30
11.5
 11
33.3789
 21
198.673
 31
11.5
  0
LINE
  5
AE5
330
A02
100
AcDbEntity
  8
Mesh_cs
100
AcDbLine
 10
33.3789
 20
198.673
 30
11.5
 11
36.8803
 21
208.537
 31
11.5
  0
LINE
  5
AE6
330
A02
100
AcDbEntity
  8
Mesh_cs
100
AcDbLine
 10
36.8803
 20
208.537
 30
11.5
 11
37.0402
 21
208.963
 31
11.5
  0
LINE
  5
AE7
330
A02
100
AcDbEntity
  8
Mesh_cs
100
AcDbLine
 10
37.0402
 20
208.963
 30
11.5
 11
40.7183
 21
218.762
 31
11.5
  0
LINE
  5
AE8
330
A02
100
AcDbEntity
  8
Mesh_cs
100
AcDbLine
 10
40.7183
 20
218.762
 30
11.5
 11
44.5718
 21
228.494
 31
11.5
  0
LINE
  5
AE9
330
A02
100
AcDbEntity
  8
Mesh_cs
100
AcDbLine
 10
44.5718
 20
228.494
 30
11.5
 11
44.7393
 21
228.917
 31
11.5
  0
LINE
  5
AEA
330
A02
100
AcDbEntity
  8
Mesh_cs
100
AcDbLine
 10
44.7393
 20
228.917
 30
11.5
 11
44.9144
 21
229.337
 31
11.5
  0
LINE
  5
AEB
330
A02
100
AcDbEntity
  8
Mesh_cs
100
AcDbLine
 10
44.9144
 20
229.337
 30
11.5
 11
48.9421
 21
238.998
 31
11.5
  0
LINE
  5
AEC
330
A02
100
AcDbEntity
  8
Mesh_cs
100
AcDbLine
 10
48.9421
 20
238.998
 30
11.5
 11
53.1426
 21
248.585
 31
11.5
  0
LINE
  5
AED
330
A02
100
AcDbEntity
  8
Mesh_cs
100
AcDbLine
 10
53.1426
 20
248.585
 30
11.5
 11
53.3253
 21
249.001
 31
11.5
  0
LINE
  5
AEE
330
A02
100
AcDbEntity
  8
Mesh_cs
100
AcDbLine
 10
53.3253
 20
249.001
 30
11.5
 11
53.5154
 21
249.415
 31
11.5
  0
LINE
  5
AEF
330
A02
100
AcDbEntity
  8
Mesh_cs
100
AcDbLine
 10
53.5154
 20
249.415
 30
11.5
 11
57.8874
 21
258.925
 31
11.5
  0
LINE
  5
AF0
330
A02
100
AcDbEntity
  8
Mesh_cs
100
AcDbLine
 10
57.8874
 20
258.925
 30
11.5
 11
58.0849
 21
259.335
 31
11.5
  0
LINE
  5
AF1
330
A02
100
AcDbEntity
  8
Mesh_cs
100
AcDbLine
 10
58.0849
 20
259.335
 30
11.5
 11
62.6271
 21
268.765
 31
11.5
  0
LINE
  5
AF2
330
A02
100
AcDbEntity
  8
Mesh_cs
100
AcDbLine
 10
62.6271
 20
268.765
 30
11.5
 11
62.8319
 21
269.171
 31
11.5
  0
LINE
  5
AF3
330
A02
100
AcDbEntity
  8
Mesh_cs
100
AcDbLine
 10
62.8319
 20
269.171
 30
11.5
 11
67.5428
 21
278.518
 31
11.5
  0
LINE
  5
AF4
330
A02
100
AcDbEntity
  8
Mesh_cs
100
AcDbLine
 10
67.5428
 20
278.518
 30
11.5
 11
72.4207
 21
287.779
 31
11.5
  0
LINE
  5
AF5
330
A02
100
AcDbEntity
  8
Mesh_cs
100
AcDbLine
 10
72.4207
 20
287.779
 30
11.5
 11
72.6328
 21
288.181
 31
11.5
  0
LINE
  5
AF6
330
A02
100
AcDbEntity
  8
Mesh_cs
100
AcDbLine
 10
72.6328
 20
288.181
 30
11.5
 11
72.8521
 21
288.58
 31
11.5
  0
LINE
  5
AF7
330
A02
100
AcDbEntity
  8
Mesh_cs
100
AcDbLine
 10
72.8521
 20
288.58
 30
11.5
 11
77.8956
 21
297.751
 31
11.5
  0
LINE
  5
AF8
330
A02
100
AcDbEntity
  8
Mesh_cs
100
AcDbLine
 10
77.8956
 20
297.751
 30
11.5
 11
78.122
 21
298.146
 31
11.5
  0
LINE
  5
AF9
330
A02
100
AcDbEntity
  8
Mesh_cs
100
AcDbLine
 10
78.122
 20
298.146
 30
11.5
 11
83.3295
 21
307.226
 31
11.5
  0
LINE
  5
AFA
330
A02
100
AcDbEntity
  8
Mesh_cs
100
AcDbLine
 10
83.3295
 20
307.226
 30
11.5
 11
83.5629
 21
307.616
 31
11.5
  0
LINE
  5
AFB
330
A02
100
AcDbEntity
  8
Mesh_cs
100
AcDbLine
 10
83.5629
 20
307.616
 30
11.5
 11
88.9326
 21
316.601
 31
11.5
  0
LINE
  5
AFC
330
A02
100
AcDbEntity
  8
Mesh_cs
100
AcDbLine
 10
88.9326
 20
316.601
 30
11.5
 11
89.1731
 21
316.987
 31
11.5
  0
LINE
  5
AFD
330
A02
100
AcDbEntity
  8
Mesh_cs
100
AcDbLine
 10
89.1731
 20
316.987
 30
11.5
 11
94.7033
 21
325.874
 31
11.5
  0
LINE
  5
AFE
330
A02
100
AcDbEntity
  8
Mesh_cs
100
AcDbLine
 10
94.7033
 20
325.874
 30
11.5
 11
94.9506
 21
326.256
 31
11.5
  0
LINE
  5
AFF
330
A02
100
AcDbEntity
  8
Mesh_cs
100
AcDbLine
 10
94.9506
 20
326.256
 30
11.5
 11
100.64
 21
335.041
 31
11.5
  0
LINE
  5
B00
330
A02
100
AcDbEntity
  8
Mesh_cs
100
AcDbLine
 10
100.64
 20
335.041
 30
11.5
 11
100.675
 21
335.105
 31
11.5
  0
LINE
  5
B01
330
A02
100
AcDbEntity
  8
Mesh_cs
100
AcDbLine
 10
100.675
 20
335.105
 30
11.5
 11
100.82
 21
335.375
 31
11.5
  0
LINE
  5
B02
330
A02
100
AcDbEntity
  8
Mesh_cs
100
AcDbLine
 10
100.82
 20
335.375
 30
11.5
 11
100.932
 21
335.559
 31
11.5
  0
LINE
  5
B03
330
A02
100
AcDbEntity
  8
Mesh_cs
100
AcDbLine
 10
100.932
 20
335.559
 30
11.5
 11
101.03
 21
335.753
 31
11.5
  0
LINE
  5
B04
330
A02
100
AcDbEntity
  8
Mesh_cs
100
AcDbLine
 10
101.03
 20
335.753
 30
11.5
 11
101.113
 21
335.954
 31
11.5
  0
LINE
  5
B05
330
A02
100
AcDbEntity
  8
Mesh_cs
100
AcDbLine
 10
101.113
 20
335.954
 30
11.5
 11
101.154
 21
336.055
 31
11.5
  0
LINE
  5
B06
330
A02
100
AcDbEntity
  8
Mesh_cs
100
AcDbLine
 10
101.154
 20
336.055
 30
11.5
 11
101.222
 21
336.261
 31
11.5
  0
LINE
  5
B07
330
A02
100
AcDbEntity
  8
Mesh_cs
100
AcDbLine
 10
101.222
 20
336.261
 30
11.5
 11
101.274
 21
336.472
 31
11.5
  0
LINE
  5
B08
330
A02
100
AcDbEntity
  8
Mesh_cs
100
AcDbLine
 10
101.274
 20
336.472
 30
11.5
 11
101.31
 21
336.685
 31
11.5
  0
LINE
  5
B09
330
A02
100
AcDbEntity
  8
Mesh_cs
100
AcDbLine
 10
101.31
 20
336.685
 30
11.5
 11
101.382
 21
336.946
 31
11.5
  0
LINE
  5
B0A
330
A02
100
AcDbEntity
  8
Mesh_cs
100
AcDbLine
 10
101.382
 20
336.946
 30
11.5
 11
101.426
 21
337.158
 31
11.5
  0
LINE
  5
B0B
330
A02
100
AcDbEntity
  8
Mesh_cs
100
AcDbLine
 10
101.426
 20
337.158
 30
11.5
 11
101.783
 21
336.899
 31
11.5
  0
LINE
  5
B0C
330
A02
100
AcDbEntity
  8
Mesh_cs
100
AcDbLine
 10
258.488
 20
221.187
 30
11.5
 11
258.444
 21
221.047
 31
11.5
  0
LINE
  5
B0D
330
A02
100
AcDbEntity
  8
Mesh_cs
100
AcDbLine
 10
258.444
 20
221.047
 30
11.5
 11
258.422
 21
220.976
 31
11.5
  0
LINE
  5
B0E
330
A02
100
AcDbEntity
  8
Mesh_cs
100
AcDbLine
 10
258.422
 20
220.976
 30
11.5
 11
258.406
 21
220.915
 31
11.5
  0
LINE
  5
B0F
330
A02
100
AcDbEntity
  8
Mesh_cs
100
AcDbLine
 10
258.406
 20
220.915
 30
11.5
 11
258.369
 21
220.773
 31
11.5
  0
LINE
  5
B10
330
A02
100
AcDbEntity
  8
Mesh_cs
100
AcDbLine
 10
258.369
 20
220.773
 30
11.5
 11
258.357
 21
220.723
 31
11.5
  0
LINE
  5
B11
330
A02
100
AcDbEntity
  8
Mesh_cs
100
AcDbLine
 10
258.357
 20
220.723
 30
11.5
 11
258.328
 21
220.579
 31
11.5
  0
LINE
  5
B12
330
A02
100
AcDbEntity
  8
Mesh_cs
100
AcDbLine
 10
258.328
 20
220.579
 30
11.5
 11
258.305
 21
220.434
 31
11.5
  0
LINE
  5
B13
330
A02
100
AcDbEntity
  8
Mesh_cs
100
AcDbLine
 10
258.305
 20
220.434
 30
11.5
 11
258.291
 21
220.289
 31
11.5
  0
LINE
  5
B14
330
A02
100
AcDbEntity
  8
Mesh_cs
100
AcDbLine
 10
258.291
 20
220.289
 30
11.5
 11
258.285
 21
220.186
 31
11.5
  0
LINE
  5
B15
330
A02
100
AcDbEntity
  8
Mesh_cs
100
AcDbLine
 10
258.285
 20
220.186
 30
11.5
 11
258.283
 21
220.084
 31
11.5
  0
LINE
  5
B16
330
A02
100
AcDbEntity
  8
Mesh_cs
100
AcDbLine
 10
258.283
 20
220.084
 30
11.5
 11
258.24
 21
219.717
 31
11.5
  0
LINE
  5
B17
330
A02
100
AcDbEntity
  8
Mesh_cs
100
AcDbLine
 10
258.24
 20
219.717
 30
11.5
 11
258.23
 21
219.617
 31
11.5
  0
LINE
  5
B18
330
A02
100
AcDbEntity
  8
Mesh_cs
100
AcDbLine
 10
258.23
 20
219.617
 30
11.5
 11
253.796
 21
212.385
 31
11.5
  0
LINE
  5
B19
330
A02
100
AcDbEntity
  8
Mesh_cs
100
AcDbLine
 10
253.796
 20
212.385
 30
11.5
 11
253.603
 21
212.07
 31
11.5
  0
LINE
  5
B1A
330
A02
100
AcDbEntity
  8
Mesh_cs
100
AcDbLine
 10
253.603
 20
212.07
 30
11.5
 11
253.417
 21
211.752
 31
11.5
  0
LINE
  5
B1B
330
A02
100
AcDbEntity
  8
Mesh_cs
100
AcDbLine
 10
253.417
 20
211.752
 30
11.5
 11
249.139
 21
204.425
 31
11.5
  0
LINE
  5
B1C
330
A02
100
AcDbEntity
  8
Mesh_cs
100
AcDbLine
 10
249.139
 20
204.425
 30
11.5
 11
248.96
 21
204.103
 31
11.5
  0
LINE
  5
B1D
330
A02
100
AcDbEntity
  8
Mesh_cs
100
AcDbLine
 10
248.96
 20
204.103
 30
11.5
 11
244.84
 21
196.687
 31
11.5
  0
LINE
  5
B1E
330
A02
100
AcDbEntity
  8
Mesh_cs
100
AcDbLine
 10
244.84
 20
196.687
 30
11.5
 11
244.668
 21
196.36
 31
11.5
  0
LINE
  5
B1F
330
A02
100
AcDbEntity
  8
Mesh_cs
100
AcDbLine
 10
244.668
 20
196.36
 30
11.5
 11
240.708
 21
188.858
 31
11.5
  0
LINE
  5
B20
330
A02
100
AcDbEntity
  8
Mesh_cs
100
AcDbLine
 10
240.708
 20
188.858
 30
11.5
 11
240.543
 21
188.528
 31
11.5
  0
LINE
  5
B21
330
A02
100
AcDbEntity
  8
Mesh_cs
100
AcDbLine
 10
240.543
 20
188.528
 30
11.5
 11
236.745
 21
180.942
 31
11.5
  0
LINE
  5
B22
330
A02
100
AcDbEntity
  8
Mesh_cs
100
AcDbLine
 10
236.745
 20
180.942
 30
11.5
 11
236.587
 21
180.609
 31
11.5
  0
LINE
  5
B23
330
A02
100
AcDbEntity
  8
Mesh_cs
100
AcDbLine
 10
236.587
 20
180.609
 30
11.5
 11
232.952
 21
172.943
 31
11.5
  0
LINE
  5
B24
330
A02
100
AcDbEntity
  8
Mesh_cs
100
AcDbLine
 10
232.952
 20
172.943
 30
11.5
 11
232.801
 21
172.606
 31
11.5
  0
LINE
  5
B25
330
A02
100
AcDbEntity
  8
Mesh_cs
100
AcDbLine
 10
232.801
 20
172.606
 30
11.5
 11
229.332
 21
164.865
 31
11.5
  0
LINE
  5
B26
330
A02
100
AcDbEntity
  8
Mesh_cs
100
AcDbLine
 10
229.332
 20
164.865
 30
11.5
 11
229.188
 21
164.525
 31
11.5
  0
LINE
  5
B27
330
A02
100
AcDbEntity
  8
Mesh_cs
100
AcDbLine
 10
229.188
 20
164.525
 30
11.5
 11
225.885
 21
156.711
 31
11.5
  0
LINE
  5
B28
330
A02
100
AcDbEntity
  8
Mesh_cs
100
AcDbLine
 10
225.885
 20
156.711
 30
11.5
 11
225.749
 21
156.368
 31
11.5
  0
LINE
  5
B29
330
A02
100
AcDbEntity
  8
Mesh_cs
100
AcDbLine
 10
225.749
 20
156.368
 30
11.5
 11
222.614
 21
148.484
 31
11.5
  0
LINE
  5
B2A
330
A02
100
AcDbEntity
  8
Mesh_cs
100
AcDbLine
 10
222.614
 20
148.484
 30
11.5
 11
222.485
 21
148.139
 31
11.5
  0
LINE
  5
B2B
330
A02
100
AcDbEntity
  8
Mesh_cs
100
AcDbLine
 10
222.485
 20
148.139
 30
11.5
 11
219.52
 21
140.19
 31
11.5
  0
LINE
  5
B2C
330
A02
100
AcDbEntity
  8
Mesh_cs
100
AcDbLine
 10
219.52
 20
140.19
 30
11.5
 11
216.726
 21
132.18
 31
11.5
  0
LINE
  5
B2D
330
A02
100
AcDbEntity
  8
Mesh_cs
100
AcDbLine
 10
216.726
 20
132.18
 30
11.5
 11
216.605
 21
131.831
 31
11.5
  0
LINE
  5
B2E
330
A02
100
AcDbEntity
  8
Mesh_cs
100
AcDbLine
 10
216.605
 20
131.831
 30
11.5
 11
216.491
 21
131.481
 31
11.5
  0
LINE
  5
B2F
330
A02
100
AcDbEntity
  8
Mesh_cs
100
AcDbLine
 10
216.491
 20
131.481
 30
11.5
 11
213.869
 21
123.412
 31
11.5
  0
LINE
  5
B30
330
A02
100
AcDbEntity
  8
Mesh_cs
100
AcDbLine
 10
213.869
 20
123.412
 30
11.5
 11
211.421
 21
115.289
 31
11.5
  0
LINE
  5
B31
330
A02
100
AcDbEntity
  8
Mesh_cs
100
AcDbLine
 10
211.421
 20
115.289
 30
11.5
 11
211.315
 21
114.936
 31
11.5
  0
LINE
  5
B32
330
A02
100
AcDbEntity
  8
Mesh_cs
100
AcDbLine
 10
211.315
 20
114.936
 30
11.5
 11
211.216
 21
114.581
 31
11.5
  0
LINE
  5
B33
330
A02
100
AcDbEntity
  8
Mesh_cs
100
AcDbLine
 10
211.216
 20
114.581
 30
11.5
 11
208.942
 21
106.407
 31
11.5
  0
LINE
  5
B34
330
A02
100
AcDbEntity
  8
Mesh_cs
100
AcDbLine
 10
208.942
 20
106.407
 30
11.5
 11
208.851
 21
106.05
 31
11.5
  0
LINE
  5
B35
330
A02
100
AcDbEntity
  8
Mesh_cs
100
AcDbLine
 10
208.851
 20
106.05
 30
11.5
 11
206.754
 21
97.8298
 31
11.5
  0
LINE
  5
B36
330
A02
100
AcDbEntity
  8
Mesh_cs
100
AcDbLine
 10
206.754
 20
97.8298
 30
11.5
 11
206.67
 21
97.4705
 31
11.5
  0
LINE
  5
B37
330
A02
100
AcDbEntity
  8
Mesh_cs
100
AcDbLine
 10
206.67
 20
97.4705
 30
11.5
 11
204.749
 21
89.2072
 31
11.5
  0
LINE
  5
B38
330
A02
100
AcDbEntity
  8
Mesh_cs
100
AcDbLine
 10
204.749
 20
89.2072
 30
11.5
 11
204.673
 21
88.8462
 31
11.5
  0
LINE
  5
B39
330
A02
100
AcDbEntity
  8
Mesh_cs
100
AcDbLine
 10
204.673
 20
88.8462
 30
11.5
 11
202.93
 21
80.5436
 31
11.5
  0
LINE
  5
B3A
330
A02
100
AcDbEntity
  8
Mesh_cs
100
AcDbLine
 10
202.93
 20
80.5436
 30
11.5
 11
202.862
 21
80.1811
 31
11.5
  0
LINE
  5
B3B
330
A02
100
AcDbEntity
  8
Mesh_cs
100
AcDbLine
 10
202.862
 20
80.1811
 30
11.5
 11
201.296
 21
71.843
 31
11.5
  0
LINE
  5
B3C
330
A02
100
AcDbEntity
  8
Mesh_cs
100
AcDbLine
 10
201.296
 20
71.843
 30
11.5
 11
201.236
 21
71.4791
 31
11.5
  0
LINE
  5
B3D
330
A02
100
AcDbEntity
  8
Mesh_cs
100
AcDbLine
 10
201.236
 20
71.4791
 30
11.5
 11
199.85
 21
63.1094
 31
11.5
  0
LINE
  5
B3E
330
A02
100
AcDbEntity
  8
Mesh_cs
100
AcDbLine
 10
199.85
 20
63.1094
 30
11.5
 11
198.644
 21
54.7119
 31
11.5
  0
LINE
  5
B3F
330
A02
100
AcDbEntity
  8
Mesh_cs
100
AcDbLine
 10
198.644
 20
54.7119
 30
11.5
 11
198.591
 21
54.3468
 31
11.5
  0
LINE
  5
B40
330
A02
100
AcDbEntity
  8
Mesh_cs
100
AcDbLine
 10
198.591
 20
54.3468
 30
11.5
 11
198.547
 21
53.9807
 31
11.5
  0
LINE
  5
B41
330
A02
100
AcDbEntity
  8
Mesh_cs
100
AcDbLine
 10
198.547
 20
53.9807
 30
11.5
 11
197.52
 21
45.5593
 31
11.5
  0
LINE
  5
B42
330
A02
100
AcDbEntity
  8
Mesh_cs
100
AcDbLine
 10
197.52
 20
45.5593
 30
11.5
 11
197.484
 21
45.1923
 31
11.5
  0
LINE
  5
B43
330
A02
100
AcDbEntity
  8
Mesh_cs
100
AcDbLine
 10
197.484
 20
45.1923
 30
11.5
 11
196.638
 21
36.7508
 31
11.5
  0
LINE
  5
B44
330
A02
100
AcDbEntity
  8
Mesh_cs
100
AcDbLine
 10
196.638
 20
36.7508
 30
11.5
 11
196.609
 21
36.3831
 31
11.5
  0
LINE
  5
B45
330
A02
100
AcDbEntity
  8
Mesh_cs
100
AcDbLine
 10
196.609
 20
36.3831
 30
11.5
 11
195.936
 21
27.9119
 31
11.5
  0
LINE
  5
B46
330
A02
100
AcDbEntity
  8
Mesh_cs
100
AcDbLine
 10
195.936
 20
27.9119
 30
11.5
 11
195.729
 21
27.6001
 31
11.5
  0
LINE
  5
B47
330
A02
100
AcDbEntity
  8
Mesh_cs
100
AcDbLine
 10
195.729
 20
27.6001
 30
11.5
 11
195.721
 21
27.5858
 31
11.5
  0
LINE
  5
B48
330
A02
100
AcDbEntity
  8
Mesh_cs
100
AcDbLine
 10
195.721
 20
27.5858
 30
11.5
 11
195.539
 21
27.2588
 31
11.5
  0
LINE
  5
B49
330
A02
100
AcDbEntity
  8
Mesh_cs
100
AcDbLine
 10
195.539
 20
27.2588
 30
11.5
 11
195.533
 21
27.244
 31
11.5
  0
LINE
  5
B4A
330
A02
100
AcDbEntity
  8
Mesh_cs
100
AcDbLine
 10
195.533
 20
27.244
 30
11.5
 11
195.377
 21
26.9038
 31
11.5
  0
LINE
  5
B4B
330
A02
100
AcDbEntity
  8
Mesh_cs
100
AcDbLine
 10
195.377
 20
26.9038
 30
11.5
 11
195.248
 21
26.5524
 31
11.5
  0
LINE
  5
B4C
330
A02
100
AcDbEntity
  8
Mesh_cs
100
AcDbLine
 10
195.248
 20
26.5524
 30
11.5
 11
195.242
 21
26.5372
 31
11.5
  0
LINE
  5
B4D
330
A02
100
AcDbEntity
  8
Mesh_cs
100
AcDbLine
 10
195.242
 20
26.5372
 30
11.5
 11
195.238
 21
26.5215
 31
11.5
  0
LINE
  5
B4E
330
A02
100
AcDbEntity
  8
Mesh_cs
100
AcDbLine
 10
195.238
 20
26.5215
 30
11.5
 11
195.137
 21
26.1612
 31
11.5
  0
LINE
  5
B4F
330
A02
100
AcDbEntity
  8
Mesh_cs
100
AcDbLine
 10
195.137
 20
26.1612
 30
11.5
 11
195.134
 21
26.1452
 31
11.5
  0
LINE
  5
B50
330
A02
100
AcDbEntity
  8
Mesh_cs
100
AcDbLine
 10
195.134
 20
26.1452
 30
11.5
 11
195.061
 21
25.7781
 31
11.5
  0
LINE
  5
B51
330
A02
100
AcDbEntity
  8
Mesh_cs
100
AcDbLine
 10
195.061
 20
25.7781
 30
11.5
 11
195.017
 21
25.4064
 31
11.5
  0
LINE
  5
B52
330
A02
100
AcDbEntity
  8
Mesh_cs
100
AcDbLine
 10
195.017
 20
25.4064
 30
11.5
 11
195.015
 21
25.3902
 31
11.5
  0
LINE
  5
B53
330
A02
100
AcDbEntity
  8
Mesh_cs
100
AcDbLine
 10
195.015
 20
25.3902
 30
11.5
 11
195.013
 21
25.3345
 31
11.5
  0
LINE
  5
B54
330
A02
100
AcDbEntity
  8
Mesh_cs
100
AcDbLine
 10
195.013
 20
25.3345
 30
11.5
 11
195
 21
25
 31
11.5
  0
LINE
  5
B55
330
A02
100
AcDbEntity
  8
Mesh_cs
100
AcDbLine
 10
195
 20
25
 30
11.5
 11
192.143
 21
25
 31
11.5
  0
LINE
  5
B56
330
A02
100
AcDbEntity
  8
Mesh_cs
100
AcDbLine
 10
192.143
 20
25
 30
11.5
 11
175
 21
25
 31
11.5
  0
LINE
  5
B57
330
A02
100
AcDbEntity
  8
Mesh_cs
100
AcDbLine
 10
175
 20
25
 30
11.5
 11
174.959
 21
24.9988
 31
11.5
  0
LINE
  5
B58
330
A02
100
AcDbEntity
  8
Mesh_cs
100
AcDbLine
 10
174.959
 20
24.9988
 30
11.5
 11
174.612
 21
24.9847
 31
11.5
  0
LINE
  5
B59
330
A02
100
AcDbEntity
  8
Mesh_cs
100
AcDbLine
 10
174.612
 20
24.9847
 30
11.5
 11
174.57
 21
24.9811
 31
11.5
  0
LINE
  5
B5A
330
A02
100
AcDbEntity
  8
Mesh_cs
100
AcDbLine
 10
174.57
 20
24.9811
 30
11.5
 11
174.225
 21
24.9389
 31
11.5
  0
LINE
  5
B5B
330
A02
100
AcDbEntity
  8
Mesh_cs
100
AcDbLine
 10
174.225
 20
24.9389
 30
11.5
 11
174.176
 21
24.9314
 31
11.5
  0
LINE
  5
B5C
330
A02
100
AcDbEntity
  8
Mesh_cs
100
AcDbLine
 10
174.176
 20
24.9314
 30
11.5
 11
173.868
 21
24.8694
 31
11.5
  0
LINE
  5
B5D
330
A02
100
AcDbEntity
  8
Mesh_cs
100
AcDbLine
 10
173.868
 20
24.8694
 30
11.5
 11
173.819
 21
24.8583
 31
11.5
  0
LINE
  5
B5E
330
A02
100
AcDbEntity
  8
Mesh_cs
100
AcDbLine
 10
173.819
 20
24.8583
 30
11.5
 11
173.546
 21
24.7831
 31
11.5
  0
LINE
  5
B5F
330
A02
100
AcDbEntity
  8
Mesh_cs
100
AcDbLine
 10
173.546
 20
24.7831
 30
11.5
 11
173.496
 21
24.7682
 31
11.5
  0
LINE
  5
B60
330
A02
100
AcDbEntity
  8
Mesh_cs
100
AcDbLine
 10
173.496
 20
24.7682
 30
11.5
 11
173.228
 21
24.6752
 31
11.5
  0
LINE
  5
B61
330
A02
100
AcDbEntity
  8
Mesh_cs
100
AcDbLine
 10
173.228
 20
24.6752
 30
11.5
 11
173.179
 21
24.6564
 31
11.5
  0
LINE
  5
B62
330
A02
100
AcDbEntity
  8
Mesh_cs
100
AcDbLine
 10
173.179
 20
24.6564
 30
11.5
 11
172.967
 21
24.5681
 31
11.5
  0
LINE
  5
B63
330
A02
100
AcDbEntity
  8
Mesh_cs
100
AcDbLine
 10
172.967
 20
24.5681
 30
11.5
 11
172.919
 21
24.5454
 31
11.5
  0
LINE
  5
B64
330
A02
100
AcDbEntity
  8
Mesh_cs
100
AcDbLine
 10
172.919
 20
24.5454
 30
11.5
 11
172.727
 21
24.4536
 31
11.5
  0
LINE
  5
B65
330
A02
100
AcDbEntity
  8
Mesh_cs
100
AcDbLine
 10
172.727
 20
24.4536
 30
11.5
 11
172.54
 21
24.3524
 31
11.5
  0
LINE
  5
B66
330
A02
100
AcDbEntity
  8
Mesh_cs
100
AcDbLine
 10
172.54
 20
24.3524
 30
11.5
 11
172.493
 21
24.3259
 31
11.5
  0
LINE
  5
B67
330
A02
100
AcDbEntity
  8
Mesh_cs
100
AcDbLine
 10
172.493
 20
24.3259
 30
11.5
 11
172.311
 21
24.2155
 31
11.5
  0
LINE
  5
B68
330
A02
100
AcDbEntity
  8
Mesh_cs
100
AcDbLine
 10
172.311
 20
24.2155
 30
11.5
 11
172.266
 21
24.1852
 31
11.5
  0
LINE
  5
B69
330
A02
100
AcDbEntity
  8
Mesh_cs
100
AcDbLine
 10
172.266
 20
24.1852
 30
11.5
 11
172.09
 21
24.0659
 31
11.5
  0
LINE
  5
B6A
330
A02
100
AcDbEntity
  8
Mesh_cs
100
AcDbLine
 10
172.09
 20
24.0659
 30
11.5
 11
171.92
 21
23.938
 31
11.5
  0
LINE
  5
B6B
330
A02
100
AcDbEntity
  8
Mesh_cs
100
AcDbLine
 10
171.92
 20
23.938
 30
11.5
 11
171.877
 21
23.9041
 31
11.5
  0
LINE
  5
B6C
330
A02
100
AcDbEntity
  8
Mesh_cs
100
AcDbLine
 10
171.877
 20
23.9041
 30
11.5
 11
171.713
 21
23.7679
 31
11.5
  0
LINE
  5
B6D
330
A02
100
AcDbEntity
  8
Mesh_cs
100
AcDbLine
 10
171.713
 20
23.7679
 30
11.5
 11
171.557
 21
23.6237
 31
11.5
  0
LINE
  5
B6E
330
A02
100
AcDbEntity
  8
Mesh_cs
100
AcDbLine
 10
171.557
 20
23.6237
 30
11.5
 11
171.516
 21
23.5865
 31
11.5
  0
LINE
  5
B6F
330
A02
100
AcDbEntity
  8
Mesh_cs
100
AcDbLine
 10
171.516
 20
23.5865
 30
11.5
 11
171.367
 21
23.4347
 31
11.5
  0
LINE
  5
B70
330
A02
100
AcDbEntity
  8
Mesh_cs
100
AcDbLine
 10
171.367
 20
23.4347
 30
11.5
 11
171.33
 21
23.3946
 31
11.5
  0
LINE
  5
B71
330
A02
100
AcDbEntity
  8
Mesh_cs
100
AcDbLine
 10
171.33
 20
23.3946
 30
11.5
 11
171.188
 21
23.2356
 31
11.5
  0
LINE
  5
B72
330
A02
100
AcDbEntity
  8
Mesh_cs
100
AcDbLine
 10
171.188
 20
23.2356
 30
11.5
 11
171.055
 21
23.0697
 31
11.5
  0
LINE
  5
B73
330
A02
100
AcDbEntity
  8
Mesh_cs
100
AcDbLine
 10
171.055
 20
23.0697
 30
11.5
 11
171.02
 21
23.0269
 31
11.5
  0
LINE
  5
B74
330
A02
100
AcDbEntity
  8
Mesh_cs
100
AcDbLine
 10
171.02
 20
23.0269
 30
11.5
 11
170.895
 21
22.8547
 31
11.5
  0
LINE
  5
B75
330
A02
100
AcDbEntity
  8
Mesh_cs
100
AcDbLine
 10
170.895
 20
22.8547
 30
11.5
 11
170.865
 21
22.8097
 31
11.5
  0
LINE
  5
B76
330
A02
100
AcDbEntity
  8
Mesh_cs
100
AcDbLine
 10
170.865
 20
22.8097
 30
11.5
 11
170.749
 21
22.6315
 31
11.5
  0
LINE
  5
B77
330
A02
100
AcDbEntity
  8
Mesh_cs
100
AcDbLine
 10
170.749
 20
22.6315
 30
11.5
 11
170.641
 21
22.4478
 31
11.5
  0
LINE
  5
B78
330
A02
100
AcDbEntity
  8
Mesh_cs
100
AcDbLine
 10
170.641
 20
22.4478
 30
11.5
 11
170.614
 21
22.401
 31
11.5
  0
LINE
  5
B79
330
A02
100
AcDbEntity
  8
Mesh_cs
100
AcDbLine
 10
170.614
 20
22.401
 30
11.5
 11
170.516
 21
22.2122
 31
11.5
  0
LINE
  5
B7A
330
A02
100
AcDbEntity
  8
Mesh_cs
100
AcDbLine
 10
170.516
 20
22.2122
 30
11.5
 11
170.493
 21
22.1641
 31
11.5
  0
LINE
  5
B7B
330
A02
100
AcDbEntity
  8
Mesh_cs
100
AcDbLine
 10
170.493
 20
22.1641
 30
11.5
 11
170.405
 21
21.9707
 31
11.5
  0
LINE
  5
B7C
330
A02
100
AcDbEntity
  8
Mesh_cs
100
AcDbLine
 10
170.405
 20
21.9707
 30
11.5
 11
170.326
 21
21.7733
 31
11.5
  0
LINE
  5
B7D
330
A02
100
AcDbEntity
  8
Mesh_cs
100
AcDbLine
 10
170.326
 20
21.7733
 30
11.5
 11
170.307
 21
21.7243
 31
11.5
  0
LINE
  5
B7E
330
A02
100
AcDbEntity
  8
Mesh_cs
100
AcDbLine
 10
170.307
 20
21.7243
 30
11.5
 11
170.238
 21
21.5233
 31
11.5
  0
LINE
  5
B7F
330
A02
100
AcDbEntity
  8
Mesh_cs
100
AcDbLine
 10
170.238
 20
21.5233
 30
11.5
 11
170.221
 21
21.4684
 31
11.5
  0
LINE
  5
B80
330
A02
100
AcDbEntity
  8
Mesh_cs
100
AcDbLine
 10
170.221
 20
21.4684
 30
11.5
 11
170.162
 21
21.2643
 31
11.5
  0
LINE
  5
B81
330
A02
100
AcDbEntity
  8
Mesh_cs
100
AcDbLine
 10
170.162
 20
21.2643
 30
11.5
 11
170.114
 21
21.0577
 31
11.5
  0
LINE
  5
B82
330
A02
100
AcDbEntity
  8
Mesh_cs
100
AcDbLine
 10
170.114
 20
21.0577
 30
11.5
 11
170.101
 21
20.9967
 31
11.5
  0
LINE
  5
B83
330
A02
100
AcDbEntity
  8
Mesh_cs
100
AcDbLine
 10
170.101
 20
20.9967
 30
11.5
 11
170.063
 21
20.7881
 31
11.5
  0
LINE
  5
B84
330
A02
100
AcDbEntity
  8
Mesh_cs
100
AcDbLine
 10
170.063
 20
20.7881
 30
11.5
 11
170.035
 21
20.5779
 31
11.5
  0
LINE
  5
B85
330
A02
100
AcDbEntity
  8
Mesh_cs
100
AcDbLine
 10
170.035
 20
20.5779
 30
11.5
 11
170.027
 21
20.5177
 31
11.5
  0
LINE
  5
B86
330
A02
100
AcDbEntity
  8
Mesh_cs
100
AcDbLine
 10
170.027
 20
20.5177
 30
11.5
 11
170.01
 21
20.3066
 31
11.5
  0
LINE
  5
B87
330
A02
100
AcDbEntity
  8
Mesh_cs
100
AcDbLine
 10
170.01
 20
20.3066
 30
11.5
 11
170.004
 21
20.1827
 31
11.5
  0
LINE
  5
B88
330
A02
100
AcDbEntity
  8
Mesh_cs
100
AcDbLine
 10
170.004
 20
20.1827
 30
11.5
 11
170.002
 21
20.1239
 31
11.5
  0
LINE
  5
B89
330
A02
100
AcDbEntity
  8
Mesh_cs
100
AcDbLine
 10
170.002
 20
20.1239
 30
11.5
 11
170
 21
20
 31
11.5
  0
LINE
  5
B8A
330
A02
100
AcDbEntity
  8
Mesh_cs
100
AcDbLine
 10
170
 20
20
 30
11.5
 11
170
 21
17.1429
 31
11.5
  0
LINE
  5
B8B
330
A02
100
AcDbEntity
  8
Mesh_cs
100
AcDbLine
 10
170
 20
17.1429
 30
11.5
 11
170
 21
-3.55271e-15
 31
11.5
  0
LINE
  5
B8C
330
A02
100
AcDbEntity
  8
Mesh_cs
100
AcDbLine
 10
170
 20
-2.79142e-15
 30
11.5
 11
142.5
 21
-2.55351e-15
 31
11.5
  0
LINE
  5
B8D
330
A02
100
AcDbEntity
  8
Mesh_cs
100
AcDbLine
 10
142.5
 20
-2.55351e-15
 30
11.5
 11
115
 21
-2.55351e-15
 31
11.5
  0
LINE
  5
B8E
330
A02
100
AcDbEntity
  8
Mesh_cs
100
AcDbLine
 10
115
 20
-2.55351e-15
 30
11.5
 11
115.048
 21
4.83987
 31
11.5
  0
LINE
  5
B8F
330
A02
100
AcDbEntity
  8
Mesh_cs
100
AcDbLine
 10
115.048
 20
4.83987
 30
11.5
 11
115.095
 21
9.67974
 31
11.5
  0
LINE
  5
B90
330
A02
100
AcDbEntity
  8
Mesh_cs
100
AcDbLine
 10
115.095
 20
9.67974
 30
11.5
 11
115.238
 21
14.5177
 31
11.5
  0
LINE
  5
B91
330
A02
100
AcDbEntity
  8
Mesh_cs
100
AcDbLine
 10
115.238
 20
14.5177
 30
11.5
 11
115.38
 21
19.3557
 31
11.5
  0
LINE
  5
B92
330
A02
100
AcDbEntity
  8
Mesh_cs
100
AcDbLine
 10
115.38
 20
19.3557
 30
11.5
 11
115.618
 21
24.19
 31
11.5
  0
LINE
  5
B93
330
A02
100
AcDbEntity
  8
Mesh_cs
100
AcDbLine
 10
115.618
 20
24.19
 30
11.5
 11
115.855
 21
29.0243
 31
11.5
  0
LINE
  5
B94
330
A02
100
AcDbEntity
  8
Mesh_cs
100
AcDbLine
 10
115.855
 20
29.0243
 30
11.5
 11
116.187
 21
33.853
 31
11.5
  0
LINE
  5
B95
330
A02
100
AcDbEntity
  8
Mesh_cs
100
AcDbLine
 10
116.187
 20
33.853
 30
11.5
 11
116.52
 21
38.6816
 31
11.5
  0
LINE
  5
B96
330
A02
100
AcDbEntity
  8
Mesh_cs
100
AcDbLine
 10
116.52
 20
38.6816
 30
11.5
 11
116.947
 21
43.5029
 31
11.5
  0
LINE
  5
B97
330
A02
100
AcDbEntity
  8
Mesh_cs
100
AcDbLine
 10
116.947
 20
43.5029
 30
11.5
 11
117.374
 21
48.3241
 31
11.5
  0
LINE
  5
B98
330
A02
100
AcDbEntity
  8
Mesh_cs
100
AcDbLine
 10
117.374
 20
48.3241
 30
11.5
 11
117.896
 21
53.136
 31
11.5
  0
LINE
  5
B99
330
A02
100
AcDbEntity
  8
Mesh_cs
100
AcDbLine
 10
117.896
 20
53.136
 30
11.5
 11
118.417
 21
57.9479
 31
11.5
  0
LINE
  5
B9A
330
A02
100
AcDbEntity
  8
Mesh_cs
100
AcDbLine
 10
118.417
 20
57.9479
 30
11.5
 11
119.033
 21
62.7486
 31
11.5
  0
LINE
  5
B9B
330
A02
100
AcDbEntity
  8
Mesh_cs
100
AcDbLine
 10
119.033
 20
62.7486
 30
11.5
 11
119.649
 21
67.5494
 31
11.5
  0
LINE
  5
B9C
330
A02
100
AcDbEntity
  8
Mesh_cs
100
AcDbLine
 10
119.649
 20
67.5494
 30
11.5
 11
120.36
 21
72.3371
 31
11.5
  0
LINE
  5
B9D
330
A02
100
AcDbEntity
  8
Mesh_cs
100
AcDbLine
 10
120.36
 20
72.3371
 30
11.5
 11
121.07
 21
77.1248
 31
11.5
  0
LINE
  5
B9E
330
A02
100
AcDbEntity
  8
Mesh_cs
100
AcDbLine
 10
121.07
 20
77.1248
 30
11.5
 11
121.874
 21
81.8976
 31
11.5
  0
LINE
  5
B9F
330
A02
100
AcDbEntity
  8
Mesh_cs
100
AcDbLine
 10
121.874
 20
81.8976
 30
11.5
 11
122.678
 21
86.6705
 31
11.5
  0
LINE
  5
BA0
330
A02
100
AcDbEntity
  8
Mesh_cs
100
AcDbLine
 10
122.678
 20
86.6705
 30
11.5
 11
123.576
 21
91.4266
 31
11.5
  0
LINE
  5
BA1
330
A02
100
AcDbEntity
  8
Mesh_cs
100
AcDbLine
 10
123.576
 20
91.4266
 30
11.5
 11
124.473
 21
96.1828
 31
11.5
  0
LINE
  5
BA2
330
A02
100
AcDbEntity
  8
Mesh_cs
100
AcDbLine
 10
124.473
 20
96.1828
 30
11.5
 11
125.464
 21
100.92
 31
11.5
  0
LINE
  5
BA3
330
A02
100
AcDbEntity
  8
Mesh_cs
100
AcDbLine
 10
125.464
 20
100.92
 30
11.5
 11
126.455
 21
105.658
 31
11.5
  0
LINE
  5
BA4
330
A02
100
AcDbEntity
  8
Mesh_cs
100
AcDbLine
 10
126.455
 20
105.658
 30
11.5
 11
127.538
 21
110.375
 31
11.5
  0
LINE
  5
BA5
330
A02
100
AcDbEntity
  8
Mesh_cs
100
AcDbLine
 10
127.538
 20
110.375
 30
11.5
 11
128.622
 21
115.092
 31
11.5
  0
LINE
  5
BA6
330
A02
100
AcDbEntity
  8
Mesh_cs
100
AcDbLine
 10
128.622
 20
115.092
 30
11.5
 11
129.798
 21
119.787
 31
11.5
  0
LINE
  5
BA7
330
A02
100
AcDbEntity
  8
Mesh_cs
100
AcDbLine
 10
129.798
 20
119.787
 30
11.5
 11
130.974
 21
124.483
 31
11.5
  0
LINE
  5
BA8
330
A02
100
AcDbEntity
  8
Mesh_cs
100
AcDbLine
 10
130.974
 20
124.483
 30
11.5
 11
132.242
 21
129.154
 31
11.5
  0
LINE
  5
BA9
330
A02
100
AcDbEntity
  8
Mesh_cs
100
AcDbLine
 10
132.242
 20
129.154
 30
11.5
 11
133.51
 21
133.825
 31
11.5
  0
LINE
  5
BAA
330
A02
100
AcDbEntity
  8
Mesh_cs
100
AcDbLine
 10
133.51
 20
133.825
 30
11.5
 11
134.87
 21
138.47
 31
11.5
  0
LINE
  5
BAB
330
A02
100
AcDbEntity
  8
Mesh_cs
100
AcDbLine
 10
134.87
 20
138.47
 30
11.5
 11
136.229
 21
143.115
 31
11.5
  0
LINE
  5
BAC
330
A02
100
AcDbEntity
  8
Mesh_cs
100
AcDbLine
 10
136.229
 20
143.115
 30
11.5
 11
137.68
 21
147.733
 31
11.5
  0
LINE
  5
BAD
330
A02
100
AcDbEntity
  8
Mesh_cs
100
AcDbLine
 10
137.68
 20
147.733
 30
11.5
 11
139.13
 21
152.351
 31
11.5
  0
LINE
  5
BAE
330
A02
100
AcDbEntity
  8
Mesh_cs
100
AcDbLine
 10
139.13
 20
152.351
 30
11.5
 11
140.671
 21
156.939
 31
11.5
  0
LINE
  5
BAF
330
A02
100
AcDbEntity
  8
Mesh_cs
100
AcDbLine
 10
140.671
 20
156.939
 30
11.5
 11
142.212
 21
161.527
 31
11.5
  0
LINE
  5
BB0
330
A02
100
AcDbEntity
  8
Mesh_cs
100
AcDbLine
 10
142.212
 20
161.527
 30
11.5
 11
143.842
 21
166.084
 31
11.5
  0
LINE
  5
BB1
330
A02
100
AcDbEntity
  8
Mesh_cs
100
AcDbLine
 10
143.842
 20
166.084
 30
11.5
 11
145.473
 21
170.641
 31
11.5
  0
LINE
  5
BB2
330
A02
100
AcDbEntity
  8
Mesh_cs
100
AcDbLine
 10
145.473
 20
170.641
 30
11.5
 11
147.192
 21
175.166
 31
11.5
  0
LINE
  5
BB3
330
A02
100
AcDbEntity
  8
Mesh_cs
100
AcDbLine
 10
147.192
 20
175.166
 30
11.5
 11
148.912
 21
179.69
 31
11.5
  0
LINE
  5
BB4
330
A02
100
AcDbEntity
  8
Mesh_cs
100
AcDbLine
 10
148.912
 20
179.69
 30
11.5
 11
150.72
 21
184.18
 31
11.5
  0
LINE
  5
BB5
330
A02
100
AcDbEntity
  8
Mesh_cs
100
AcDbLine
 10
150.72
 20
184.18
 30
11.5
 11
152.529
 21
188.669
 31
11.5
  0
LINE
  5
BB6
330
A02
100
AcDbEntity
  8
Mesh_cs
100
AcDbLine
 10
152.529
 20
188.669
 30
11.5
 11
154.425
 21
193.123
 31
11.5
  0
LINE
  5
BB7
330
A02
100
AcDbEntity
  8
Mesh_cs
100
AcDbLine
 10
154.425
 20
193.123
 30
11.5
 11
156.321
 21
197.576
 31
11.5
  0
LINE
  5
BB8
330
A02
100
AcDbEntity
  8
Mesh_cs
100
AcDbLine
 10
156.321
 20
197.576
 30
11.5
 11
158.304
 21
201.991
 31
11.5
  0
LINE
  5
BB9
330
A02
100
AcDbEntity
  8
Mesh_cs
100
AcDbLine
 10
158.304
 20
201.991
 30
11.5
 11
160.287
 21
206.406
 31
11.5
  0
LINE
  5
BBA
330
A02
100
AcDbEntity
  8
Mesh_cs
100
AcDbLine
 10
160.287
 20
206.406
 30
11.5
 11
162.356
 21
210.782
 31
11.5
  0
LINE
  5
BBB
330
A02
100
AcDbEntity
  8
Mesh_cs
100
AcDbLine
 10
162.356
 20
210.782
 30
11.5
 11
164.426
 21
215.157
 31
11.5
  0
LINE
  5
BBC
330
A02
100
AcDbEntity
  8
Mesh_cs
100
AcDbLine
 10
164.426
 20
215.157
 30
11.5
 11
166.581
 21
219.491
 31
11.5
  0
LINE
  5
BBD
330
A02
100
AcDbEntity
  8
Mesh_cs
100
AcDbLine
 10
166.581
 20
219.491
 30
11.5
 11
168.736
 21
223.825
 31
11.5
  0
LINE
  5
BBE
330
A02
100
AcDbEntity
  8
Mesh_cs
100
AcDbLine
 10
168.736
 20
223.825
 30
11.5
 11
170.975
 21
228.116
 31
11.5
  0
LINE
  5
BBF
330
A02
100
AcDbEntity
  8
Mesh_cs
100
AcDbLine
 10
170.975
 20
228.116
 30
11.5
 11
173.215
 21
232.406
 31
11.5
  0
LINE
  5
BC0
330
A02
100
AcDbEntity
  8
Mesh_cs
100
AcDbLine
 10
173.215
 20
232.406
 30
11.5
 11
175.538
 21
236.652
 31
11.5
  0
LINE
  5
BC1
330
A02
100
AcDbEntity
  8
Mesh_cs
100
AcDbLine
 10
175.538
 20
236.652
 30
11.5
 11
177.862
 21
240.898
 31
11.5
  0
LINE
  5
BC2
330
A02
100
AcDbEntity
  8
Mesh_cs
100
AcDbLine
 10
177.862
 20
240.898
 30
11.5
 11
180.268
 21
245.098
 31
11.5
  0
LINE
  5
BC3
330
A02
100
AcDbEntity
  8
Mesh_cs
100
AcDbLine
 10
180.268
 20
245.098
 30
11.5
 11
182.674
 21
249.298
 31
11.5
  0
LINE
  5
BC4
330
A02
100
AcDbEntity
  8
Mesh_cs
100
AcDbLine
 10
182.674
 20
249.298
 30
11.5
 11
185.163
 21
253.449
 31
11.5
  0
LINE
  5
BC5
330
A02
100
AcDbEntity
  8
Mesh_cs
100
AcDbLine
 10
185.163
 20
253.449
 30
11.5
 11
187.651
 21
257.6
 31
11.5
  0
LINE
  5
BC6
330
A02
100
AcDbEntity
  8
Mesh_cs
100
AcDbLine
 10
187.651
 20
257.6
 30
11.5
 11
190.22
 21
261.702
 31
11.5
  0
LINE
  5
BC7
330
A02
100
AcDbEntity
  8
Mesh_cs
100
AcDbLine
 10
190.22
 20
261.702
 30
11.5
 11
192.79
 21
265.804
 31
11.5
  0
LINE
  5
BC8
330
A02
100
AcDbEntity
  8
Mesh_cs
100
AcDbLine
 10
192.79
 20
265.804
 30
11.5
 11
195.439
 21
269.855
 31
11.5
  0
LINE
  5
BC9
330
A02
100
AcDbEntity
  8
Mesh_cs
100
AcDbLine
 10
195.439
 20
269.855
 30
11.5
 11
198.088
 21
273.905
 31
11.5
  0
LINE
  5
BCA
330
A02
100
AcDbEntity
  8
Mesh_cs
100
AcDbLine
 10
198.088
 20
273.905
 30
11.5
 11
200.817
 21
277.903
 31
11.5
  0
LINE
  5
BCB
330
A02
100
AcDbEntity
  8
Mesh_cs
100
AcDbLine
 10
200.817
 20
277.903
 30
11.5
 11
203.545
 21
281.901
 31
11.5
  0
LINE
  5
BCC
330
A02
100
AcDbEntity
  8
Mesh_cs
100
AcDbLine
 10
203.545
 20
281.901
 30
11.5
 11
206.351
 21
285.844
 31
11.5
  0
LINE
  5
BCD
330
A02
100
AcDbEntity
  8
Mesh_cs
100
AcDbLine
 10
206.351
 20
285.844
 30
11.5
 11
209.158
 21
289.788
 31
11.5
  0
LINE
  5
BCE
330
A02
100
AcDbEntity
  8
Mesh_cs
100
AcDbLine
 10
209.158
 20
289.788
 30
11.5
 11
231.406
 21
273.624
 31
11.5
  0
LINE
  5
BCF
330
A02
100
AcDbEntity
  8
Mesh_cs
100
AcDbLine
 10
231.406
 20
273.624
 30
11.5
 11
253.654
 21
257.46
 31
11.5
  0
LINE
  5
BD0
330
A02
100
AcDbEntity
  8
Mesh_cs
100
AcDbLine
 10
253.654
 20
257.46
 30
11.5
 11
251.974
 21
255.148
 31
11.5
  0
LINE
  5
BD1
330
A02
100
AcDbEntity
  8
Mesh_cs
100
AcDbLine
 10
251.974
 20
255.148
 30
11.5
 11
241.898
 21
241.279
 31
11.5
  0
LINE
  5
BD2
330
A02
100
AcDbEntity
  8
Mesh_cs
100
AcDbLine
 10
241.898
 20
241.279
 30
11.5
 11
241.827
 21
241.178
 31
11.5
  0
LINE
  5
BD3
330
A02
100
AcDbEntity
  8
Mesh_cs
100
AcDbLine
 10
241.827
 20
241.178
 30
11.5
 11
241.794
 21
241.129
 31
11.5
  0
LINE
  5
BD4
330
A02
100
AcDbEntity
  8
Mesh_cs
100
AcDbLine
 10
241.794
 20
241.129
 30
11.5
 11
241.726
 21
241.026
 31
11.5
  0
LINE
  5
BD5
330
A02
100
AcDbEntity
  8
Mesh_cs
100
AcDbLine
 10
241.726
 20
241.026
 30
11.5
 11
241.616
 21
240.845
 31
11.5
  0
LINE
  5
BD6
330
A02
100
AcDbEntity
  8
Mesh_cs
100
AcDbLine
 10
241.616
 20
240.845
 30
11.5
 11
241.586
 21
240.792
 31
11.5
  0
LINE
  5
BD7
330
A02
100
AcDbEntity
  8
Mesh_cs
100
AcDbLine
 10
241.586
 20
240.792
 30
11.5
 11
241.485
 21
240.605
 31
11.5
  0
LINE
  5
BD8
330
A02
100
AcDbEntity
  8
Mesh_cs
100
AcDbLine
 10
241.485
 20
240.605
 30
11.5
 11
241.394
 21
240.414
 31
11.5
  0
LINE
  5
BD9
330
A02
100
AcDbEntity
  8
Mesh_cs
100
AcDbLine
 10
241.394
 20
240.414
 30
11.5
 11
241.368
 21
240.357
 31
11.5
  0
LINE
  5
BDA
330
A02
100
AcDbEntity
  8
Mesh_cs
100
AcDbLine
 10
241.368
 20
240.357
 30
11.5
 11
241.286
 21
240.161
 31
11.5
  0
LINE
  5
BDB
330
A02
100
AcDbEntity
  8
Mesh_cs
100
AcDbLine
 10
241.286
 20
240.161
 30
11.5
 11
241.214
 21
239.961
 31
11.5
  0
LINE
  5
BDC
330
A02
100
AcDbEntity
  8
Mesh_cs
100
AcDbLine
 10
241.214
 20
239.961
 30
11.5
 11
241.195
 21
239.907
 31
11.5
  0
LINE
  5
BDD
330
A02
100
AcDbEntity
  8
Mesh_cs
100
AcDbLine
 10
241.195
 20
239.907
 30
11.5
 11
241.133
 21
239.704
 31
11.5
  0
LINE
  5
BDE
330
A02
100
AcDbEntity
  8
Mesh_cs
100
AcDbLine
 10
241.133
 20
239.704
 30
11.5
 11
241.119
 21
239.653
 31
11.5
  0
LINE
  5
BDF
330
A02
100
AcDbEntity
  8
Mesh_cs
100
AcDbLine
 10
241.119
 20
239.653
 30
11.5
 11
241.067
 21
239.447
 31
11.5
  0
LINE
  5
BE0
330
A02
100
AcDbEntity
  8
Mesh_cs
100
AcDbLine
 10
241.067
 20
239.447
 30
11.5
 11
241.025
 21
239.239
 31
11.5
  0
LINE
  5
BE1
330
A02
100
AcDbEntity
  8
Mesh_cs
100
AcDbLine
 10
241.025
 20
239.239
 30
11.5
 11
241.015
 21
239.186
 31
11.5
  0
LINE
  5
BE2
330
A02
100
AcDbEntity
  8
Mesh_cs
100
AcDbLine
 10
241.015
 20
239.186
 30
11.5
 11
240.984
 21
238.976
 31
11.5
  0
LINE
  5
BE3
330
A02
100
AcDbEntity
  8
Mesh_cs
100
AcDbLine
 10
240.984
 20
238.976
 30
11.5
 11
240.978
 21
238.922
 31
11.5
  0
LINE
  5
BE4
330
A02
100
AcDbEntity
  8
Mesh_cs
100
AcDbLine
 10
240.978
 20
238.922
 30
11.5
 11
240.957
 21
238.71
 31
11.5
  0
LINE
  5
BE5
330
A02
100
AcDbEntity
  8
Mesh_cs
100
AcDbLine
 10
240.957
 20
238.71
 30
11.5
 11
240.946
 21
238.498
 31
11.5
  0
LINE
  5
BE6
330
A02
100
AcDbEntity
  8
Mesh_cs
100
AcDbLine
 10
240.946
 20
238.498
 30
11.5
 11
240.944
 21
238.444
 31
11.5
  0
LINE
  5
BE7
330
A02
100
AcDbEntity
  8
Mesh_cs
100
AcDbLine
 10
240.944
 20
238.444
 30
11.5
 11
240.944
 21
238.231
 31
11.5
  0
LINE
  5
BE8
330
A02
100
AcDbEntity
  8
Mesh_cs
100
AcDbLine
 10
240.944
 20
238.231
 30
11.5
 11
240.947
 21
238.176
 31
11.5
  0
LINE
  5
BE9
330
A02
100
AcDbEntity
  8
Mesh_cs
100
AcDbLine
 10
240.947
 20
238.176
 30
11.5
 11
240.957
 21
237.963
 31
11.5
  0
LINE
  5
BEA
330
A02
100
AcDbEntity
  8
Mesh_cs
100
AcDbLine
 10
240.957
 20
237.963
 30
11.5
 11
240.978
 21
237.752
 31
11.5
  0
LINE
  5
BEB
330
A02
100
AcDbEntity
  8
Mesh_cs
100
AcDbLine
 10
240.978
 20
237.752
 30
11.5
 11
240.985
 21
237.697
 31
11.5
  0
LINE
  5
BEC
330
A02
100
AcDbEntity
  8
Mesh_cs
100
AcDbLine
 10
240.985
 20
237.697
 30
11.5
 11
241.017
 21
237.487
 31
11.5
  0
LINE
  5
BED
330
A02
100
AcDbEntity
  8
Mesh_cs
100
AcDbLine
 10
241.017
 20
237.487
 30
11.5
 11
241.027
 21
237.433
 31
11.5
  0
LINE
  5
BEE
330
A02
100
AcDbEntity
  8
Mesh_cs
100
AcDbLine
 10
241.027
 20
237.433
 30
11.5
 11
241.069
 21
237.224
 31
11.5
  0
LINE
  5
BEF
330
A02
100
AcDbEntity
  8
Mesh_cs
100
AcDbLine
 10
241.069
 20
237.224
 30
11.5
 11
241.122
 21
237.018
 31
11.5
  0
LINE
  5
BF0
330
A02
100
AcDbEntity
  8
Mesh_cs
100
AcDbLine
 10
241.122
 20
237.018
 30
11.5
 11
241.137
 21
236.965
 31
11.5
  0
LINE
  5
BF1
330
A02
100
AcDbEntity
  8
Mesh_cs
100
AcDbLine
 10
241.137
 20
236.965
 30
11.5
 11
241.199
 21
236.762
 31
11.5
  0
LINE
  5
BF2
330
A02
100
AcDbEntity
  8
Mesh_cs
100
AcDbLine
 10
241.199
 20
236.762
 30
11.5
 11
241.271
 21
236.561
 31
11.5
  0
LINE
  5
BF3
330
A02
100
AcDbEntity
  8
Mesh_cs
100
AcDbLine
 10
241.271
 20
236.561
 30
11.5
 11
241.29
 21
236.51
 31
11.5
  0
LINE
  5
BF4
330
A02
100
AcDbEntity
  8
Mesh_cs
100
AcDbLine
 10
241.29
 20
236.51
 30
11.5
 11
241.372
 21
236.314
 31
11.5
  0
LINE
  5
BF5
330
A02
100
AcDbEntity
  8
Mesh_cs
100
AcDbLine
 10
241.372
 20
236.314
 30
11.5
 11
241.395
 21
236.265
 31
11.5
  0
LINE
  5
BF6
330
A02
100
AcDbEntity
  8
Mesh_cs
100
AcDbLine
 10
241.395
 20
236.265
 30
11.5
 11
241.487
 21
236.073
 31
11.5
  0
LINE
  5
BF7
330
A02
100
AcDbEntity
  8
Mesh_cs
100
AcDbLine
 10
241.487
 20
236.073
 30
11.5
 11
241.588
 21
235.886
 31
11.5
  0
LINE
  5
BF8
330
A02
100
AcDbEntity
  8
Mesh_cs
100
AcDbLine
 10
241.588
 20
235.886
 30
11.5
 11
241.614
 21
235.84
 31
11.5
  0
LINE
  5
BF9
330
A02
100
AcDbEntity
  8
Mesh_cs
100
AcDbLine
 10
241.614
 20
235.84
 30
11.5
 11
241.733
 21
235.643
 31
11.5
  0
LINE
  5
BFA
330
A02
100
AcDbEntity
  8
Mesh_cs
100
AcDbLine
 10
241.733
 20
235.643
 30
11.5
 11
241.762
 21
235.599
 31
11.5
  0
LINE
  5
BFB
330
A02
100
AcDbEntity
  8
Mesh_cs
100
AcDbLine
 10
241.762
 20
235.599
 30
11.5
 11
241.924
 21
235.367
 31
11.5
  0
LINE
  5
BFC
330
A02
100
AcDbEntity
  8
Mesh_cs
100
AcDbLine
 10
241.924
 20
235.367
 30
11.5
 11
241.955
 21
235.326
 31
11.5
  0
LINE
  5
BFD
330
A02
100
AcDbEntity
  8
Mesh_cs
100
AcDbLine
 10
241.955
 20
235.326
 30
11.5
 11
242.132
 21
235.104
 31
11.5
  0
LINE
  5
BFE
330
A02
100
AcDbEntity
  8
Mesh_cs
100
AcDbLine
 10
242.132
 20
235.104
 30
11.5
 11
242.165
 21
235.066
 31
11.5
  0
LINE
  5
BFF
330
A02
100
AcDbEntity
  8
Mesh_cs
100
AcDbLine
 10
242.165
 20
235.066
 30
11.5
 11
242.378
 21
234.835
 31
11.5
  0
LINE
  5
C00
330
A02
100
AcDbEntity
  8
Mesh_cs
100
AcDbLine
 10
242.378
 20
234.835
 30
11.5
 11
242.413
 21
234.801
 31
11.5
  0
LINE
  5
C01
330
A02
100
AcDbEntity
  8
Mesh_cs
100
AcDbLine
 10
242.413
 20
234.801
 30
11.5
 11
242.667
 21
234.564
 31
11.5
  0
LINE
  5
C02
330
A02
100
AcDbEntity
  8
Mesh_cs
100
AcDbLine
 10
242.667
 20
234.564
 30
11.5
 11
242.699
 21
234.536
 31
11.5
  0
LINE
  5
C03
330
A02
100
AcDbEntity
  8
Mesh_cs
100
AcDbLine
 10
242.699
 20
234.536
 30
11.5
 11
242.972
 21
234.321
 31
11.5
  0
LINE
  5
C04
330
A02
100
AcDbEntity
  8
Mesh_cs
100
AcDbLine
 10
242.972
 20
234.321
 30
11.5
 11
243.004
 21
234.295
 31
11.5
  0
LINE
  5
C05
330
A02
100
AcDbEntity
  8
Mesh_cs
100
AcDbLine
 10
243.004
 20
234.295
 30
11.5
 11
245.316
 21
232.616
 31
11.5
  0
LINE
  5
C06
330
A02
100
AcDbEntity
  8
Mesh_cs
100
AcDbLine
 10
245.316
 20
232.616
 30
11.5
 11
259.185
 21
222.54
 31
11.5
  0
LINE
  5
C07
330
A02
100
AcDbEntity
  8
Mesh_cs
100
AcDbLine
 10
259.185
 20
222.54
 30
11.5
 11
259.074
 21
222.361
 31
11.5
  0
LINE
  5
C08
330
A02
100
AcDbEntity
  8
Mesh_cs
100
AcDbLine
 10
259.074
 20
222.361
 30
11.5
 11
258.956
 21
222.142
 31
11.5
  0
LINE
  5
C09
330
A02
100
AcDbEntity
  8
Mesh_cs
100
AcDbLine
 10
258.956
 20
222.142
 30
11.5
 11
258.828
 21
221.95
 31
11.5
  0
LINE
  5
C0A
330
A02
100
AcDbEntity
  8
Mesh_cs
100
AcDbLine
 10
258.828
 20
221.95
 30
11.5
 11
258.755
 21
221.822
 31
11.5
  0
LINE
  5
C0B
330
A02
100
AcDbEntity
  8
Mesh_cs
100
AcDbLine
 10
258.755
 20
221.822
 30
11.5
 11
258.688
 21
221.691
 31
11.5
  0
LINE
  5
C0C
330
A02
100
AcDbEntity
  8
Mesh_cs
100
AcDbLine
 10
258.688
 20
221.691
 30
11.5
 11
258.618
 21
221.532
 31
11.5
  0
LINE
  5
C0D
330
A02
100
AcDbEntity
  8
Mesh_cs
100
AcDbLine
 10
258.618
 20
221.532
 30
11.5
 11
258.59
 21
221.464
 31
11.5
  0
LINE
  5
C0E
330
A02
100
AcDbEntity
  8
Mesh_cs
100
AcDbLine
 10
258.59
 20
221.464
 30
11.5
 11
258.564
 21
221.395
 31
11.5
  0
LINE
  5
C0F
330
A02
100
AcDbEntity
  8
Mesh_cs
100
AcDbLine
 10
258.564
 20
221.395
 30
11.5
 11
258.512
 21
221.256
 31
11.5
  0
LINE
  5
C10
330
A02
100
AcDbEntity
  8
Mesh_cs
100
AcDbLine
 10
258.512
 20
221.256
 30
11.5
 11
258.488
 21
221.187
 31
11.5
  0
LINE
  5
C11
330
A02
100
AcDbEntity
  8
Mesh_cs
100
AcDbLine
 10
182.143
 20
15
 30
11.5
 11
195
 21
15
 31
11.5
  0
LINE
  5
C12
330
A02
100
AcDbEntity
  8
Mesh_cs
100
AcDbLine
 10
195
 20
15
 30
11.5
 11
195
 21
2.14286
 31
11.5
  0
LINE
  5
C13
330
A02
100
AcDbEntity
  8
Mesh_cs
100
AcDbLine
 10
195
 20
2.14286
 30
11.5
 11
195
 21
-2.66454e-15
 31
11.5
  0
LINE
  5
C14
330
A02
100
AcDbEntity
  8
Mesh_cs
100
AcDbLine
 10
195
 20
-2.55351e-15
 30
11.5
 11
192.857
 21
-2.53765e-15
 31
11.5
  0
LINE
  5
C15
330
A02
100
AcDbEntity
  8
Mesh_cs
100
AcDbLine
 10
192.857
 20
-2.53765e-15
 30
11.5
 11
180
 21
-2.53765e-15
 31
11.5
  0
LINE
  5
C16
330
A02
100
AcDbEntity
  8
Mesh_cs
100
AcDbLine
 10
180
 20
-2.53765e-15
 30
11.5
 11
180
 21
12.8571
 31
11.5
  0
LINE
  5
C17
330
A02
100
AcDbEntity
  8
Mesh_cs
100
AcDbLine
 10
180
 20
12.8571
 30
11.5
 11
180
 21
15
 31
11.5
  0
LINE
  5
C18
330
A02
100
AcDbEntity
  8
Mesh_cs
100
AcDbLine
 10
180
 20
15
 30
11.5
 11
182.143
 21
15
 31
11.5
  0
LINE
  5
C19
330
A02
100
AcDbEntity
  8
Mesh_cs
100
AcDbLine
 10
252.927
 20
239.447
 30
11.5
 11
254.187
 21
241.18
 31
11.5
  0
LINE
  5
C1A
330
A02
100
AcDbEntity
  8
Mesh_cs
100
AcDbLine
 10
254.187
 20
241.18
 30
11.5
 11
261.744
 21
251.582
 31
11.5
  0
LINE
  5
C1B
330
A02
100
AcDbEntity
  8
Mesh_cs
100
AcDbLine
 10
261.744
 20
251.582
 30
11.5
 11
272.146
 21
244.025
 31
11.5
  0
LINE
  5
C1C
330
A02
100
AcDbEntity
  8
Mesh_cs
100
AcDbLine
 10
272.146
 20
244.025
 30
11.5
 11
273.879
 21
242.765
 31
11.5
  0
LINE
  5
C1D
330
A02
100
AcDbEntity
  8
Mesh_cs
100
AcDbLine
 10
273.879
 20
242.765
 30
11.5
 11
272.62
 21
241.031
 31
11.5
  0
LINE
  5
C1E
330
A02
100
AcDbEntity
  8
Mesh_cs
100
AcDbLine
 10
272.62
 20
241.031
 30
11.5
 11
265.062
 21
230.63
 31
11.5
  0
LINE
  5
C1F
330
A02
100
AcDbEntity
  8
Mesh_cs
100
AcDbLine
 10
265.062
 20
230.63
 30
11.5
 11
254.661
 21
238.187
 31
11.5
  0
LINE
  5
C20
330
A02
100
AcDbEntity
  8
Mesh_cs
100
AcDbLine
 10
254.661
 20
238.187
 30
11.5
 11
252.927
 21
239.447
 31
11.5
  0
LINE
  5
C21
330
A02
100
AcDbEntity
  8
Mesh_cs
100
AcDbLine
 10
107.725
 20
344.942
 30
11.5
 11
107.432
 21
345.155
 31
11.5
  0
LINE
  5
C22
330
A02
100
AcDbEntity
  8
Mesh_cs
100
AcDbLine
 10
107.432
 20
345.155
 30
11.5
 11
107.304
 21
345.248
 31
11.5
  0
LINE
  5
C23
330
A02
100
AcDbEntity
  8
Mesh_cs
100
AcDbLine
 10
107.304
 20
345.248
 30
11.5
 11
114.861
 21
355.65
 31
11.5
  0
LINE
  5
C24
330
A02
100
AcDbEntity
  8
Mesh_cs
100
AcDbLine
 10
114.861
 20
355.65
 30
11.5
 11
116.121
 21
357.383
 31
11.5
  0
LINE
  5
C25
330
A02
100
AcDbEntity
  8
Mesh_cs
100
AcDbLine
 10
116.121
 20
357.383
 30
11.5
 11
116.141
 21
357.368
 31
11.5
  0
LINE
  5
C26
330
A02
100
AcDbEntity
  8
Mesh_cs
100
AcDbLine
 10
116.141
 20
357.368
 30
11.5
 11
116.612
 21
357.026
 31
11.5
  0
LINE
  5
C27
330
A02
100
AcDbEntity
  8
Mesh_cs
100
AcDbLine
 10
116.612
 20
357.026
 30
11.5
 11
118.276
 21
355.818
 31
11.5
  0
LINE
  5
C28
330
A02
100
AcDbEntity
  8
Mesh_cs
100
AcDbLine
 10
118.276
 20
355.818
 30
11.5
 11
128.256
 21
348.566
 31
11.5
  0
LINE
  5
C29
330
A02
100
AcDbEntity
  8
Mesh_cs
100
AcDbLine
 10
128.256
 20
348.566
 30
11.5
 11
120.699
 21
338.165
 31
11.5
  0
LINE
  5
C2A
330
A02
100
AcDbEntity
  8
Mesh_cs
100
AcDbLine
 10
120.699
 20
338.165
 30
11.5
 11
119.439
 21
336.431
 31
11.5
  0
LINE
  5
C2B
330
A02
100
AcDbEntity
  8
Mesh_cs
100
AcDbLine
 10
119.439
 20
336.431
 30
11.5
 11
109.459
 21
343.682
 31
11.5
  0
LINE
  5
C2C
330
A02
100
AcDbEntity
  8
Mesh_cs
100
AcDbLine
 10
109.459
 20
343.682
 30
11.5
 11
107.725
 21
344.942
 31
11.5
  0
ENDSEC
  0
SECTION
  2
OBJECTS
  0
DICTIONARY
  5
F000
330
0
100
AcDbDictionary
  3
ACAD_GROUP
350
F001
  0
DICTIONARY
  5
F001
330
F000
100
AcDbDictionary
  0
ENDSEC
  0
EOF