999
FreeCAD v0.21 33668 +26 (Git)
  0
SECTION
  2
HEADER
  9
$ACADVER
  1
AC1014
  9
$ACADMAINTVER
 70
     9
  9
$DWGCODEPAGE
  3
ANSI_1252
  9
$TEXTSTYLE
  7
STANDARD
  9
$DIMSTYLE
  2
STANDARD
  9
$DIMTXSTY
  7
STANDARD
  9
$CMLSTYLE
  2
STANDARD
  9
$LUNITS
 70
2
  9
$INSUNITS
 70
4
  9
$PEXTMAX
 10
50
 20
50
 30
50
  9
$PEXTMIN
 10
0
 20
0
 30
0
  9
$HANDSEED
  5
FFFF
  0
ENDSEC
  0
SECTION
  2
CLASSES
  0
CLASS
  1
ACDBDICTIONARYWDFLT
  2
AcDbDictionaryWithDefault
  3
ObjectDBX Classes
 90
        0
280
     0
281
     0
  0
CLASS
  1
XRECORD
  2
AcDbXrecord
  3
ObjectDBX Classes
 90
        0
280
     0
281
     0
  0
CLASS
  1
LWPOLYLINE
  2
AcDbPolyline
  3
ObjectDBX Classes
 90
        0
280
     0
281
     1
  0
ENDSEC
  0
SECTION
  2
TABLES
  0
TABLE
  2
VPORT
  5
20
330
0
100
AcDbSymbolTable
 70
     1
  0
VPORT
  5
21
330
20
100
AcDbSymbolTableRecord
100
AcDbViewportTableRecord
  2
*ACTIVE
 70
     0
  0
ENDTAB
  0
TABLE
  2
LTYPE
  5
22
330
0
100
AcDbSymbolTable
 70
     1
  0
LTYPE
  5
23
330
21
100
AcDbSymbolTableRecord
100
AcDbLinetypeTableRecord
  2
BYBLOCK
 70
     0
  3

 72
    65
 73
     0
 40
0.0
  0
LTYPE
  5
24
330
21
100
AcDbSymbolTableRecord
100
AcDbLinetypeTableRecord
  2
BYLAYER
 70
     0
  3

 72
    65
 73
     0
 40
0.0
  0
LTYPE
  5
25
330
21
100
AcDbSymbolTableRecord
100
AcDbLinetypeTableRecord
  2
CONTINUOUS
 70
     0
  3
Solid line
 72
    65
 73
     0
 40
0.0
  0
ENDTAB
  0
TABLE
  2
LAYER
  5
B05
330
0
100
AcDbSymbolTable
 70
3
  0
LAYER
  5
B06
330
B05
100
AcDbSymbolTableRecord
100
AcDbLayerTableRecord
  2
0
 70
   0
 62
   7
  6
CONTINUOUS
  0
LAYER
  5
B07
330
B05
100
AcDbSymbolTableRecord
100
AcDbLayerTableRecord
  2
none
 70
    0
 62
    7
  6
CONTINUOUS
  0
LAYER
  5
B08
330
B05
100
AcDbSymbolTableRecord
100
AcDbLayerTableRecord
  2
Mesh_cs
 70
    0
 62
    7
  6
CONTINUOUS
  0
ENDTAB
  0
TABLE
  2
STYLE
  5
70
330
0
100
AcDbSymbolTable
 70
     2
  0
STYLE
  5
71
330
70
100
AcDbSymbolTableRecord
100
AcDbTextStyleTableRecord
  2
STANDARD
 70
     0
 40
0.0
 41
1.0
 50
0.0
 71
     0
 42
2.5
  3
arial.ttf
  4

  0
STYLE
  5
72
330
70
100
AcDbSymbolTableRecord
100
AcDbTextStyleTableRecord
  2
ANNOTATIVE
 70
     0
 40
0.0
 41
1.0
 50
0.0
 71
     0
 42
2.5
  3
arial.ttf
  4

  0
ENDTAB
  0
TABLE
  2
VIEW
  5
73
330
0
100
AcDbSymbolTable
 70
     0
  0
ENDTAB
  0
TABLE
  2
UCS
  5
74
330
0
100
AcDbSymbolTable
 70
     0
  0
ENDTAB
  0
TABLE
  2
APPID
  5
75
330
0
100
AcDbSymbolTable
 70
     2
  0
APPID
  5
76
330
75
100
AcDbSymbolTableRecord
100
AcDbRegAppTableRecord
  2
ACAD
 70
     0
  0
APPID
  5
77
330
75
100
AcDbSymbolTableRecord
100
AcDbRegAppTableRecord
  2
ACADANNOTATIVE
 70
     0
  0
ENDTAB
  0
TABLE
  2
DIMSTYLE
  5
78
330
0
100
AcDbSymbolTable
 70
     2
  0
DIMSTYLE
105
79
330
78
100
AcDbSymbolTableRecord
100
AcDbDimStyleTableRecord
  2
STANDARD
 70
     0
  3

  4

  5

  6

  7

 40
0.0
 41
2.5
 42
0.625
 43
3.75
 44
1.25
 45
0.0
 46
0.0
 47
0.0
 48
0.0
140
2.5
141
2.5
142
0.0
143
0.03937007874016
144
1.0
145
0.0
146
1.0
147
0.625
 71
     0
 72
     0
 73
     0
 74
     0
 75
     0
 76
     0
 77
     1
 78
     8
170
     0
171
     3
172
     1
173
     0
174
     0
175
     0
176
     0
177
     0
178
     0
270
     2
271
     2
272
     2
273
     2
274
     3
340
71
275
     0
280
     0
281
     0
282
     0
283
     0
284
     8
285
     0
286
     0
287
     3
288
     0
  0
ENDTAB
  0
TABLE
  2
BLOCK_RECORD
  5
A01
330
0
100
AcDbSymbolTable
  70
5
  0
BLOCK_RECORD
  5
A02
330
A01
100
AcDbSymbolTableRecord
100
AcDbBlockTableRecord
  2
*MODEL_SPACE
  0
BLOCK_RECORD
  5
A03
330
A01
100
AcDbSymbolTableRecord
100
AcDbBlockTableRecord
  2
*PAPER_SPACE
  0
ENDTAB
  0
ENDSEC
  0
SECTION
  2
BLOCKS
  0
BLOCK
  5
A04
330
A02
100
AcDbEntity
  8
0
100
AcDbBlockBegin
  2
*MODEL_SPACE
 70
   0
 10
0
 20
0
 30
0
  3
*MODEL_SPACE
  1
 
  0
ENDBLK
  5
A05
330
A02
100
AcDbEntity
  8
0
100
AcDbBlockEnd
  0
BLOCK
  5
A06
330
A03
100
AcDbEntity
 67
1
  8
0
100
AcDbBlockBegin
  2
*PAPER_SPACE
 70
   0
 10
0
 20
0
 30
0
  3
*PAPER_SPACE
  1
 
  0
ENDBLK
  5
A07
330
A03
100
AcDbEntity
 67
    1
  8
0
100
AcDbBlockEnd
  0
ENDSEC
  0
SECTION
  2
ENTITIES
  0
LINE
  5
A08
330
A02
100
AcDbEntity
  8
Mesh_cs
100
AcDbLine
 10
15
 20
297.931
 30
11.5
 11
15
 21
285.074
 31
11.5
  0
LINE
  5
A09
330
A02
100
AcDbEntity
  8
Mesh_cs
100
AcDbLine
 10
15
 20
285.074
 30
11.5
 11
2.14286
 21
285.074
 31
11.5
  0
LINE
  5
A0A
330
A02
100
AcDbEntity
  8
Mesh_cs
100
AcDbLine
 10
2.14286
 20
285.074
 30
11.5
 11
0
 21
285.074
 31
11.5
  0
LINE
  5
A0B
330
A02
100
AcDbEntity
  8
Mesh_cs
100
AcDbLine
 10
0
 20
285.074
 30
11.5
 11
0
 21
297.931
 31
11.5
  0
LINE
  5
A0C
330
A02
100
AcDbEntity
  8
Mesh_cs
100
AcDbLine
 10
0
 20
297.931
 30
11.5
 11
0
 21
300.074
 31
11.5
  0
LINE
  5
A0D
330
A02
100
AcDbEntity
  8
Mesh_cs
100
AcDbLine
 10
0
 20
300.074
 30
11.5
 11
2.14286
 21
300.074
 31
11.5
  0
LINE
  5
A0E
330
A02
100
AcDbEntity
  8
Mesh_cs
100
AcDbLine
 10
2.14286
 20
300.074
 30
11.5
 11
15
 21
300.074
 31
11.5
  0
LINE
  5
A0F
330
A02
100
AcDbEntity
  8
Mesh_cs
100
AcDbLine
 10
15
 20
300.074
 30
11.5
 11
15
 21
297.931
 31
11.5
  0
LINE
  5
A10
330
A02
100
AcDbEntity
  8
Mesh_cs
100
AcDbLine
 10
24.9958
 20
279.891
 30
11.5
 11
24.9982
 21
279.95
 31
11.5
  0
LINE
  5
A11
330
A02
100
AcDbEntity
  8
Mesh_cs
100
AcDbLine
 10
24.9982
 20
279.95
 30
11.5
 11
25
 21
280.074
 31
11.5
  0
LINE
  5
A12
330
A02
100
AcDbEntity
  8
Mesh_cs
100
AcDbLine
 10
25
 20
280.074
 30
11.5
 11
25
 21
297.217
 31
11.5
  0
LINE
  5
A13
330
A02
100
AcDbEntity
  8
Mesh_cs
100
AcDbLine
 10
25
 20
297.217
 30
11.5
 11
25
 21
300.074
 31
11.5
  0
LINE
  5
A14
330
A02
100
AcDbEntity
  8
Mesh_cs
100
AcDbLine
 10
25
 20
300.074
 30
11.5
 11
52.5
 21
300.074
 31
11.5
  0
LINE
  5
A15
330
A02
100
AcDbEntity
  8
Mesh_cs
100
AcDbLine
 10
52.5
 20
300.074
 30
11.5
 11
80
 21
300.074
 31
11.5
  0
LINE
  5
A16
330
A02
100
AcDbEntity
  8
Mesh_cs
100
AcDbLine
 10
80
 20
300.074
 30
11.5
 11
80
 21
150.037
 31
11.5
  0
LINE
  5
A17
330
A02
100
AcDbEntity
  8
Mesh_cs
100
AcDbLine
 10
80
 20
150.037
 30
11.5
 11
80
 21
0
 31
11.5
  0
LINE
  5
A18
330
A02
100
AcDbEntity
  8
Mesh_cs
100
AcDbLine
 10
80
 20
0
 30
11.5
 11
52.5
 21
0
 31
11.5
  0
LINE
  5
A19
330
A02
100
AcDbEntity
  8
Mesh_cs
100
AcDbLine
 10
52.5
 20
0
 30
11.5
 11
25
 21
0
 31
11.5
  0
LINE
  5
A1A
330
A02
100
AcDbEntity
  8
Mesh_cs
100
AcDbLine
 10
25
 20
0
 30
11.5
 11
25
 21
2.85714
 31
11.5
  0
LINE
  5
A1B
330
A02
100
AcDbEntity
  8
Mesh_cs
100
AcDbLine
 10
25
 20
2.85714
 30
11.5
 11
25
 21
20
 31
11.5
  0
LINE
  5
A1C
330
A02
100
AcDbEntity
  8
Mesh_cs
100
AcDbLine
 10
25
 20
20
 30
11.5
 11
24.9837
 21
20.3735
 31
11.5
  0
LINE
  5
A1D
330
A02
100
AcDbEntity
  8
Mesh_cs
100
AcDbLine
 10
24.9837
 20
20.3735
 30
11.5
 11
24.981
 21
20.4358
 31
11.5
  0
LINE
  5
A1E
330
A02
100
AcDbEntity
  8
Mesh_cs
100
AcDbLine
 10
24.981
 20
20.4358
 30
11.5
 11
24.9322
 21
20.8065
 31
11.5
  0
LINE
  5
A1F
330
A02
100
AcDbEntity
  8
Mesh_cs
100
AcDbLine
 10
24.9322
 20
20.8065
 30
11.5
 11
24.924
 21
20.8682
 31
11.5
  0
LINE
  5
A20
330
A02
100
AcDbEntity
  8
Mesh_cs
100
AcDbLine
 10
24.924
 20
20.8682
 30
11.5
 11
24.8431
 21
21.2333
 31
11.5
  0
LINE
  5
A21
330
A02
100
AcDbEntity
  8
Mesh_cs
100
AcDbLine
 10
24.8431
 20
21.2333
 30
11.5
 11
24.8296
 21
21.2941
 31
11.5
  0
LINE
  5
A22
330
A02
100
AcDbEntity
  8
Mesh_cs
100
AcDbLine
 10
24.8296
 20
21.2941
 30
11.5
 11
24.7172
 21
21.6507
 31
11.5
  0
LINE
  5
A23
330
A02
100
AcDbEntity
  8
Mesh_cs
100
AcDbLine
 10
24.7172
 20
21.6507
 30
11.5
 11
24.6985
 21
21.7101
 31
11.5
  0
LINE
  5
A24
330
A02
100
AcDbEntity
  8
Mesh_cs
100
AcDbLine
 10
24.6985
 20
21.7101
 30
11.5
 11
24.6746
 21
21.7677
 31
11.5
  0
LINE
  5
A25
330
A02
100
AcDbEntity
  8
Mesh_cs
100
AcDbLine
 10
24.6746
 20
21.7677
 30
11.5
 11
24.5315
 21
22.1131
 31
11.5
  0
LINE
  5
A26
330
A02
100
AcDbEntity
  8
Mesh_cs
100
AcDbLine
 10
24.5315
 20
22.1131
 30
11.5
 11
24.3589
 21
22.4447
 31
11.5
  0
LINE
  5
A27
330
A02
100
AcDbEntity
  8
Mesh_cs
100
AcDbLine
 10
24.3589
 20
22.4447
 30
11.5
 11
24.3301
 21
22.5
 31
11.5
  0
LINE
  5
A28
330
A02
100
AcDbEntity
  8
Mesh_cs
100
AcDbLine
 10
24.3301
 20
22.5
 30
11.5
 11
24.1292
 21
22.8153
 31
11.5
  0
LINE
  5
A29
330
A02
100
AcDbEntity
  8
Mesh_cs
100
AcDbLine
 10
24.1292
 20
22.8153
 30
11.5
 11
24.0958
 21
22.8679
 31
11.5
  0
LINE
  5
A2A
330
A02
100
AcDbEntity
  8
Mesh_cs
100
AcDbLine
 10
24.0958
 20
22.8679
 30
11.5
 11
24.0578
 21
22.9173
 31
11.5
  0
LINE
  5
A2B
330
A02
100
AcDbEntity
  8
Mesh_cs
100
AcDbLine
 10
24.0578
 20
22.9173
 30
11.5
 11
23.8302
 21
23.2139
 31
11.5
  0
LINE
  5
A2C
330
A02
100
AcDbEntity
  8
Mesh_cs
100
AcDbLine
 10
23.8302
 20
23.2139
 30
11.5
 11
23.5776
 21
23.4896
 31
11.5
  0
LINE
  5
A2D
330
A02
100
AcDbEntity
  8
Mesh_cs
100
AcDbLine
 10
23.5776
 20
23.4896
 30
11.5
 11
23.5355
 21
23.5355
 31
11.5
  0
LINE
  5
A2E
330
A02
100
AcDbEntity
  8
Mesh_cs
100
AcDbLine
 10
23.5355
 20
23.5355
 30
11.5
 11
23.4896
 21
23.5776
 31
11.5
  0
LINE
  5
A2F
330
A02
100
AcDbEntity
  8
Mesh_cs
100
AcDbLine
 10
23.4896
 20
23.5776
 30
11.5
 11
23.2139
 21
23.8302
 31
11.5
  0
LINE
  5
A30
330
A02
100
AcDbEntity
  8
Mesh_cs
100
AcDbLine
 10
23.2139
 20
23.8302
 30
11.5
 11
22.9173
 21
24.0578
 31
11.5
  0
LINE
  5
A31
330
A02
100
AcDbEntity
  8
Mesh_cs
100
AcDbLine
 10
22.9173
 20
24.0578
 30
11.5
 11
22.8679
 21
24.0958
 31
11.5
  0
LINE
  5
A32
330
A02
100
AcDbEntity
  8
Mesh_cs
100
AcDbLine
 10
22.8679
 20
24.0958
 30
11.5
 11
22.5526
 21
24.2966
 31
11.5
  0
LINE
  5
A33
330
A02
100
AcDbEntity
  8
Mesh_cs
100
AcDbLine
 10
22.5526
 20
24.2966
 30
11.5
 11
22.5
 21
24.3301
 31
11.5
  0
LINE
  5
A34
330
A02
100
AcDbEntity
  8
Mesh_cs
100
AcDbLine
 10
22.5
 20
24.3301
 30
11.5
 11
22.1684
 21
24.5028
 31
11.5
  0
LINE
  5
A35
330
A02
100
AcDbEntity
  8
Mesh_cs
100
AcDbLine
 10
22.1684
 20
24.5028
 30
11.5
 11
22.1131
 21
24.5315
 31
11.5
  0
LINE
  5
A36
330
A02
100
AcDbEntity
  8
Mesh_cs
100
AcDbLine
 10
22.1131
 20
24.5315
 30
11.5
 11
22.0555
 21
24.5554
 31
11.5
  0
LINE
  5
A37
330
A02
100
AcDbEntity
  8
Mesh_cs
100
AcDbLine
 10
22.0555
 20
24.5554
 30
11.5
 11
21.7101
 21
24.6985
 31
11.5
  0
LINE
  5
A38
330
A02
100
AcDbEntity
  8
Mesh_cs
100
AcDbLine
 10
21.7101
 20
24.6985
 30
11.5
 11
21.3535
 21
24.8109
 31
11.5
  0
LINE
  5
A39
330
A02
100
AcDbEntity
  8
Mesh_cs
100
AcDbLine
 10
21.3535
 20
24.8109
 30
11.5
 11
21.2941
 21
24.8296
 31
11.5
  0
LINE
  5
A3A
330
A02
100
AcDbEntity
  8
Mesh_cs
100
AcDbLine
 10
21.2941
 20
24.8296
 30
11.5
 11
21.2333
 21
24.8431
 31
11.5
  0
LINE
  5
A3B
330
A02
100
AcDbEntity
  8
Mesh_cs
100
AcDbLine
 10
21.2333
 20
24.8431
 30
11.5
 11
20.8682
 21
24.924
 31
11.5
  0
LINE
  5
A3C
330
A02
100
AcDbEntity
  8
Mesh_cs
100
AcDbLine
 10
20.8682
 20
24.924
 30
11.5
 11
20.4976
 21
24.9728
 31
11.5
  0
LINE
  5
A3D
330
A02
100
AcDbEntity
  8
Mesh_cs
100
AcDbLine
 10
20.4976
 20
24.9728
 30
11.5
 11
20.4358
 21
24.981
 31
11.5
  0
LINE
  5
A3E
330
A02
100
AcDbEntity
  8
Mesh_cs
100
AcDbLine
 10
20.4358
 20
24.981
 30
11.5
 11
20.0623
 21
24.9973
 31
11.5
  0
LINE
  5
A3F
330
A02
100
AcDbEntity
  8
Mesh_cs
100
AcDbLine
 10
20.0623
 20
24.9973
 30
11.5
 11
20
 21
25
 31
11.5
  0
LINE
  5
A40
330
A02
100
AcDbEntity
  8
Mesh_cs
100
AcDbLine
 10
20
 20
25
 30
11.5
 11
17.1429
 21
25
 31
11.5
  0
LINE
  5
A41
330
A02
100
AcDbEntity
  8
Mesh_cs
100
AcDbLine
 10
17.1429
 20
25
 30
11.5
 11
0
 21
25
 31
11.5
  0
LINE
  5
A42
330
A02
100
AcDbEntity
  8
Mesh_cs
100
AcDbLine
 10
0
 20
25
 30
11.5
 11
1.58603e-16
 21
60.7249
 31
11.5
  0
LINE
  5
A43
330
A02
100
AcDbEntity
  8
Mesh_cs
100
AcDbLine
 10
1.58603e-16
 20
60.7249
 30
11.5
 11
1.58603e-16
 21
275.074
 31
11.5
  0
LINE
  5
A44
330
A02
100
AcDbEntity
  8
Mesh_cs
100
AcDbLine
 10
1.58603e-16
 20
275.074
 30
11.5
 11
17.1429
 21
275.074
 31
11.5
  0
LINE
  5
A45
330
A02
100
AcDbEntity
  8
Mesh_cs
100
AcDbLine
 10
17.1429
 20
275.074
 30
11.5
 11
20
 21
275.074
 31
11.5
  0
LINE
  5
A46
330
A02
100
AcDbEntity
  8
Mesh_cs
100
AcDbLine
 10
20
 20
275.074
 30
11.5
 11
20.0412
 21
275.075
 31
11.5
  0
LINE
  5
A47
330
A02
100
AcDbEntity
  8
Mesh_cs
100
AcDbLine
 10
20.0412
 20
275.075
 30
11.5
 11
20.3882
 21
275.089
 31
11.5
  0
LINE
  5
A48
330
A02
100
AcDbEntity
  8
Mesh_cs
100
AcDbLine
 10
20.3882
 20
275.089
 30
11.5
 11
20.4303
 21
275.093
 31
11.5
  0
LINE
  5
A49
330
A02
100
AcDbEntity
  8
Mesh_cs
100
AcDbLine
 10
20.4303
 20
275.093
 30
11.5
 11
20.7754
 21
275.135
 31
11.5
  0
LINE
  5
A4A
330
A02
100
AcDbEntity
  8
Mesh_cs
100
AcDbLine
 10
20.7754
 20
275.135
 30
11.5
 11
20.8244
 21
275.143
 31
11.5
  0
LINE
  5
A4B
330
A02
100
AcDbEntity
  8
Mesh_cs
100
AcDbLine
 10
20.8244
 20
275.143
 30
11.5
 11
21.1321
 21
275.205
 31
11.5
  0
LINE
  5
A4C
330
A02
100
AcDbEntity
  8
Mesh_cs
100
AcDbLine
 10
21.1321
 20
275.205
 30
11.5
 11
21.1815
 21
275.216
 31
11.5
  0
LINE
  5
A4D
330
A02
100
AcDbEntity
  8
Mesh_cs
100
AcDbLine
 10
21.1815
 20
275.216
 30
11.5
 11
21.4545
 21
275.291
 31
11.5
  0
LINE
  5
A4E
330
A02
100
AcDbEntity
  8
Mesh_cs
100
AcDbLine
 10
21.4545
 20
275.291
 30
11.5
 11
21.5039
 21
275.306
 31
11.5
  0
LINE
  5
A4F
330
A02
100
AcDbEntity
  8
Mesh_cs
100
AcDbLine
 10
21.5039
 20
275.306
 30
11.5
 11
21.7715
 21
275.399
 31
11.5
  0
LINE
  5
A50
330
A02
100
AcDbEntity
  8
Mesh_cs
100
AcDbLine
 10
21.7715
 20
275.399
 30
11.5
 11
21.8205
 21
275.418
 31
11.5
  0
LINE
  5
A51
330
A02
100
AcDbEntity
  8
Mesh_cs
100
AcDbLine
 10
21.8205
 20
275.418
 30
11.5
 11
22.0326
 21
275.506
 31
11.5
  0
LINE
  5
A52
330
A02
100
AcDbEntity
  8
Mesh_cs
100
AcDbLine
 10
22.0326
 20
275.506
 30
11.5
 11
22.0808
 21
275.529
 31
11.5
  0
LINE
  5
A53
330
A02
100
AcDbEntity
  8
Mesh_cs
100
AcDbLine
 10
22.0808
 20
275.529
 30
11.5
 11
22.2727
 21
275.621
 31
11.5
  0
LINE
  5
A54
330
A02
100
AcDbEntity
  8
Mesh_cs
100
AcDbLine
 10
22.2727
 20
275.621
 30
11.5
 11
22.4598
 21
275.722
 31
11.5
  0
LINE
  5
A55
330
A02
100
AcDbEntity
  8
Mesh_cs
100
AcDbLine
 10
22.4598
 20
275.722
 30
11.5
 11
22.5067
 21
275.748
 31
11.5
  0
LINE
  5
A56
330
A02
100
AcDbEntity
  8
Mesh_cs
100
AcDbLine
 10
22.5067
 20
275.748
 30
11.5
 11
22.6886
 21
275.859
 31
11.5
  0
LINE
  5
A57
330
A02
100
AcDbEntity
  8
Mesh_cs
100
AcDbLine
 10
22.6886
 20
275.859
 30
11.5
 11
22.7338
 21
275.889
 31
11.5
  0
LINE
  5
A58
330
A02
100
AcDbEntity
  8
Mesh_cs
100
AcDbLine
 10
22.7338
 20
275.889
 30
11.5
 11
22.91
 21
276.008
 31
11.5
  0
LINE
  5
A59
330
A02
100
AcDbEntity
  8
Mesh_cs
100
AcDbLine
 10
22.91
 20
276.008
 30
11.5
 11
23.0802
 21
276.136
 31
11.5
  0
LINE
  5
A5A
330
A02
100
AcDbEntity
  8
Mesh_cs
100
AcDbLine
 10
23.0802
 20
276.136
 30
11.5
 11
23.1231
 21
276.17
 31
11.5
  0
LINE
  5
A5B
330
A02
100
AcDbEntity
  8
Mesh_cs
100
AcDbLine
 10
23.1231
 20
276.17
 30
11.5
 11
23.2867
 21
276.306
 31
11.5
  0
LINE
  5
A5C
330
A02
100
AcDbEntity
  8
Mesh_cs
100
AcDbLine
 10
23.2867
 20
276.306
 30
11.5
 11
23.4434
 21
276.45
 31
11.5
  0
LINE
  5
A5D
330
A02
100
AcDbEntity
  8
Mesh_cs
100
AcDbLine
 10
23.4434
 20
276.45
 30
11.5
 11
23.4837
 21
276.488
 31
11.5
  0
LINE
  5
A5E
330
A02
100
AcDbEntity
  8
Mesh_cs
100
AcDbLine
 10
23.4837
 20
276.488
 30
11.5
 11
23.633
 21
276.639
 31
11.5
  0
LINE
  5
A5F
330
A02
100
AcDbEntity
  8
Mesh_cs
100
AcDbLine
 10
23.633
 20
276.639
 30
11.5
 11
23.6704
 21
276.68
 31
11.5
  0
LINE
  5
A60
330
A02
100
AcDbEntity
  8
Mesh_cs
100
AcDbLine
 10
23.6704
 20
276.68
 30
11.5
 11
23.8119
 21
276.839
 31
11.5
  0
LINE
  5
A61
330
A02
100
AcDbEntity
  8
Mesh_cs
100
AcDbLine
 10
23.8119
 20
276.839
 30
11.5
 11
23.9454
 21
277.004
 31
11.5
  0
LINE
  5
A62
330
A02
100
AcDbEntity
  8
Mesh_cs
100
AcDbLine
 10
23.9454
 20
277.004
 30
11.5
 11
23.9795
 21
277.047
 31
11.5
  0
LINE
  5
A63
330
A02
100
AcDbEntity
  8
Mesh_cs
100
AcDbLine
 10
23.9795
 20
277.047
 30
11.5
 11
24.1046
 21
277.219
 31
11.5
  0
LINE
  5
A64
330
A02
100
AcDbEntity
  8
Mesh_cs
100
AcDbLine
 10
24.1046
 20
277.219
 30
11.5
 11
24.1352
 21
277.264
 31
11.5
  0
LINE
  5
A65
330
A02
100
AcDbEntity
  8
Mesh_cs
100
AcDbLine
 10
24.1352
 20
277.264
 30
11.5
 11
24.2515
 21
277.443
 31
11.5
  0
LINE
  5
A66
330
A02
100
AcDbEntity
  8
Mesh_cs
100
AcDbLine
 10
24.2515
 20
277.443
 30
11.5
 11
24.3588
 21
277.626
 31
11.5
  0
LINE
  5
A67
330
A02
100
AcDbEntity
  8
Mesh_cs
100
AcDbLine
 10
24.3588
 20
277.626
 30
11.5
 11
24.3857
 21
277.673
 31
11.5
  0
LINE
  5
A68
330
A02
100
AcDbEntity
  8
Mesh_cs
100
AcDbLine
 10
24.3857
 20
277.673
 30
11.5
 11
24.4837
 21
277.862
 31
11.5
  0
LINE
  5
A69
330
A02
100
AcDbEntity
  8
Mesh_cs
100
AcDbLine
 10
24.4837
 20
277.862
 30
11.5
 11
24.5067
 21
277.91
 31
11.5
  0
LINE
  5
A6A
330
A02
100
AcDbEntity
  8
Mesh_cs
100
AcDbLine
 10
24.5067
 20
277.91
 30
11.5
 11
24.5952
 21
278.103
 31
11.5
  0
LINE
  5
A6B
330
A02
100
AcDbEntity
  8
Mesh_cs
100
AcDbLine
 10
24.5952
 20
278.103
 30
11.5
 11
24.674
 21
278.301
 31
11.5
  0
LINE
  5
A6C
330
A02
100
AcDbEntity
  8
Mesh_cs
100
AcDbLine
 10
24.674
 20
278.301
 30
11.5
 11
24.6931
 21
278.35
 31
11.5
  0
LINE
  5
A6D
330
A02
100
AcDbEntity
  8
Mesh_cs
100
AcDbLine
 10
24.6931
 20
278.35
 30
11.5
 11
24.762
 21
278.551
 31
11.5
  0
LINE
  5
A6E
330
A02
100
AcDbEntity
  8
Mesh_cs
100
AcDbLine
 10
24.762
 20
278.551
 30
11.5
 11
24.7787
 21
278.606
 31
11.5
  0
LINE
  5
A6F
330
A02
100
AcDbEntity
  8
Mesh_cs
100
AcDbLine
 10
24.7787
 20
278.606
 30
11.5
 11
24.8375
 21
278.81
 31
11.5
  0
LINE
  5
A70
330
A02
100
AcDbEntity
  8
Mesh_cs
100
AcDbLine
 10
24.8375
 20
278.81
 30
11.5
 11
24.8861
 21
279.016
 31
11.5
  0
LINE
  5
A71
330
A02
100
AcDbEntity
  8
Mesh_cs
100
AcDbLine
 10
24.8861
 20
279.016
 30
11.5
 11
24.8992
 21
279.077
 31
11.5
  0
LINE
  5
A72
330
A02
100
AcDbEntity
  8
Mesh_cs
100
AcDbLine
 10
24.8992
 20
279.077
 30
11.5
 11
24.9375
 21
279.286
 31
11.5
  0
LINE
  5
A73
330
A02
100
AcDbEntity
  8
Mesh_cs
100
AcDbLine
 10
24.9375
 20
279.286
 30
11.5
 11
24.9654
 21
279.496
 31
11.5
  0
LINE
  5
A74
330
A02
100
AcDbEntity
  8
Mesh_cs
100
AcDbLine
 10
24.9654
 20
279.496
 30
11.5
 11
24.9729
 21
279.556
 31
11.5
  0
LINE
  5
A75
330
A02
100
AcDbEntity
  8
Mesh_cs
100
AcDbLine
 10
24.9729
 20
279.556
 30
11.5
 11
24.9904
 21
279.768
 31
11.5
  0
LINE
  5
A76
330
A02
100
AcDbEntity
  8
Mesh_cs
100
AcDbLine
 10
24.9904
 20
279.768
 30
11.5
 11
24.9958
 21
279.891
 31
11.5
  0
LINE
  5
A77
330
A02
100
AcDbEntity
  8
Mesh_cs
100
AcDbLine
 10
15
 20
12.8571
 30
11.5
 11
15
 21
0
 31
11.5
  0
LINE
  5
A78
330
A02
100
AcDbEntity
  8
Mesh_cs
100
AcDbLine
 10
15
 20
0
 30
11.5
 11
2.14286
 21
0
 31
11.5
  0
LINE
  5
A79
330
A02
100
AcDbEntity
  8
Mesh_cs
100
AcDbLine
 10
2.14286
 20
0
 30
11.5
 11
0
 21
0
 31
11.5
  0
LINE
  5
A7A
330
A02
100
AcDbEntity
  8
Mesh_cs
100
AcDbLine
 10
0
 20
0
 30
11.5
 11
0
 21
2.14286
 31
11.5
  0
LINE
  5
A7B
330
A02
100
AcDbEntity
  8
Mesh_cs
100
AcDbLine
 10
0
 20
2.14286
 30
11.5
 11
0
 21
15
 31
11.5
  0
LINE
  5
A7C
330
A02
100
AcDbEntity
  8
Mesh_cs
100
AcDbLine
 10
0
 20
15
 30
11.5
 11
2.14286
 21
15
 31
11.5
  0
LINE
  5
A7D
330
A02
100
AcDbEntity
  8
Mesh_cs
100
AcDbLine
 10
2.14286
 20
15
 30
11.5
 11
15
 21
15
 31
11.5
  0
LINE
  5
A7E
330
A02
100
AcDbEntity
  8
Mesh_cs
100
AcDbLine
 10
15
 20
15
 30
11.5
 11
15
 21
12.8571
 31
11.5
  0
LINE
  5
A7F
330
A02
100
AcDbEntity
  8
Mesh_cs
100
AcDbLine
 10
195
 20
25
 30
11.5
 11
195
 21
60.7249
 31
11.5
  0
LINE
  5
A80
330
A02
100
AcDbEntity
  8
Mesh_cs
100
AcDbLine
 10
195
 20
60.7249
 30
11.5
 11
195
 21
275.074
 31
11.5
  0
LINE
  5
A81
330
A02
100
AcDbEntity
  8
Mesh_cs
100
AcDbLine
 10
195
 20
275.074
 30
11.5
 11
192.143
 21
275.074
 31
11.5
  0
LINE
  5
A82
330
A02
100
AcDbEntity
  8
Mesh_cs
100
AcDbLine
 10
192.143
 20
275.074
 30
11.5
 11
175
 21
275.074
 31
11.5
  0
LINE
  5
A83
330
A02
100
AcDbEntity
  8
Mesh_cs
100
AcDbLine
 10
175
 20
275.074
 30
11.5
 11
174.959
 21
275.075
 31
11.5
  0
LINE
  5
A84
330
A02
100
AcDbEntity
  8
Mesh_cs
100
AcDbLine
 10
174.959
 20
275.075
 30
11.5
 11
174.612
 21
275.089
 31
11.5
  0
LINE
  5
A85
330
A02
100
AcDbEntity
  8
Mesh_cs
100
AcDbLine
 10
174.612
 20
275.089
 30
11.5
 11
174.57
 21
275.093
 31
11.5
  0
LINE
  5
A86
330
A02
100
AcDbEntity
  8
Mesh_cs
100
AcDbLine
 10
174.57
 20
275.093
 30
11.5
 11
174.225
 21
275.135
 31
11.5
  0
LINE
  5
A87
330
A02
100
AcDbEntity
  8
Mesh_cs
100
AcDbLine
 10
174.225
 20
275.135
 30
11.5
 11
174.176
 21
275.143
 31
11.5
  0
LINE
  5
A88
330
A02
100
AcDbEntity
  8
Mesh_cs
100
AcDbLine
 10
174.176
 20
275.143
 30
11.5
 11
173.868
 21
275.205
 31
11.5
  0
LINE
  5
A89
330
A02
100
AcDbEntity
  8
Mesh_cs
100
AcDbLine
 10
173.868
 20
275.205
 30
11.5
 11
173.819
 21
275.216
 31
11.5
  0
LINE
  5
A8A
330
A02
100
AcDbEntity
  8
Mesh_cs
100
AcDbLine
 10
173.819
 20
275.216
 30
11.5
 11
173.546
 21
275.291
 31
11.5
  0
LINE
  5
A8B
330
A02
100
AcDbEntity
  8
Mesh_cs
100
AcDbLine
 10
173.546
 20
275.291
 30
11.5
 11
173.496
 21
275.306
 31
11.5
  0
LINE
  5
A8C
330
A02
100
AcDbEntity
  8
Mesh_cs
100
AcDbLine
 10
173.496
 20
275.306
 30
11.5
 11
173.228
 21
275.399
 31
11.5
  0
LINE
  5
A8D
330
A02
100
AcDbEntity
  8
Mesh_cs
100
AcDbLine
 10
173.228
 20
275.399
 30
11.5
 11
173.179
 21
275.418
 31
11.5
  0
LINE
  5
A8E
330
A02
100
AcDbEntity
  8
Mesh_cs
100
AcDbLine
 10
173.179
 20
275.418
 30
11.5
 11
172.967
 21
275.506
 31
11.5
  0
LINE
  5
A8F
330
A02
100
AcDbEntity
  8
Mesh_cs
100
AcDbLine
 10
172.967
 20
275.506
 30
11.5
 11
172.919
 21
275.529
 31
11.5
  0
LINE
  5
A90
330
A02
100
AcDbEntity
  8
Mesh_cs
100
AcDbLine
 10
172.919
 20
275.529
 30
11.5
 11
172.727
 21
275.621
 31
11.5
  0
LINE
  5
A91
330
A02
100
AcDbEntity
  8
Mesh_cs
100
AcDbLine
 10
172.727
 20
275.621
 30
11.5
 11
172.54
 21
275.722
 31
11.5
  0
LINE
  5
A92
330
A02
100
AcDbEntity
  8
Mesh_cs
100
AcDbLine
 10
172.54
 20
275.722
 30
11.5
 11
172.493
 21
275.748
 31
11.5
  0
LINE
  5
A93
330
A02
100
AcDbEntity
  8
Mesh_cs
100
AcDbLine
 10
172.493
 20
275.748
 30
11.5
 11
172.311
 21
275.859
 31
11.5
  0
LINE
  5
A94
330
A02
100
AcDbEntity
  8
Mesh_cs
100
AcDbLine
 10
172.311
 20
275.859
 30
11.5
 11
172.266
 21
275.889
 31
11.5
  0
LINE
  5
A95
330
A02
100
AcDbEntity
  8
Mesh_cs
100
AcDbLine
 10
172.266
 20
275.889
 30
11.5
 11
172.09
 21
276.008
 31
11.5
  0
LINE
  5
A96
330
A02
100
AcDbEntity
  8
Mesh_cs
100
AcDbLine
 10
172.09
 20
276.008
 30
11.5
 11
171.92
 21
276.136
 31
11.5
  0
LINE
  5
A97
330
A02
100
AcDbEntity
  8
Mesh_cs
100
AcDbLine
 10
171.92
 20
276.136
 30
11.5
 11
171.877
 21
276.17
 31
11.5
  0
LINE
  5
A98
330
A02
100
AcDbEntity
  8
Mesh_cs
100
AcDbLine
 10
171.877
 20
276.17
 30
11.5
 11
171.713
 21
276.306
 31
11.5
  0
LINE
  5
A99
330
A02
100
AcDbEntity
  8
Mesh_cs
100
AcDbLine
 10
171.713
 20
276.306
 30
11.5
 11
171.557
 21
276.45
 31
11.5
  0
LINE
  5
A9A
330
A02
100
AcDbEntity
  8
Mesh_cs
100
AcDbLine
 10
171.557
 20
276.45
 30
11.5
 11
171.516
 21
276.488
 31
11.5
  0
LINE
  5
A9B
330
A02
100
AcDbEntity
  8
Mesh_cs
100
AcDbLine
 10
171.516
 20
276.488
 30
11.5
 11
171.367
 21
276.639
 31
11.5
  0
LINE
  5
A9C
330
A02
100
AcDbEntity
  8
Mesh_cs
100
AcDbLine
 10
171.367
 20
276.639
 30
11.5
 11
171.33
 21
276.68
 31
11.5
  0
LINE
  5
A9D
330
A02
100
AcDbEntity
  8
Mesh_cs
100
AcDbLine
 10
171.33
 20
276.68
 30
11.5
 11
171.188
 21
276.839
 31
11.5
  0
LINE
  5
A9E
330
A02
100
AcDbEntity
  8
Mesh_cs
100
AcDbLine
 10
171.188
 20
276.839
 30
11.5
 11
171.055
 21
277.004
 31
11.5
  0
LINE
  5
A9F
330
A02
100
AcDbEntity
  8
Mesh_cs
100
AcDbLine
 10
171.055
 20
277.004
 30
11.5
 11
171.02
 21
277.047
 31
11.5
  0
LINE
  5
AA0
330
A02
100
AcDbEntity
  8
Mesh_cs
100
AcDbLine
 10
171.02
 20
277.047
 30
11.5
 11
170.895
 21
277.219
 31
11.5
  0
LINE
  5
AA1
330
A02
100
AcDbEntity
  8
Mesh_cs
100
AcDbLine
 10
170.895
 20
277.219
 30
11.5
 11
170.865
 21
277.264
 31
11.5
  0
LINE
  5
AA2
330
A02
100
AcDbEntity
  8
Mesh_cs
100
AcDbLine
 10
170.865
 20
277.264
 30
11.5
 11
170.749
 21
277.443
 31
11.5
  0
LINE
  5
AA3
330
A02
100
AcDbEntity
  8
Mesh_cs
100
AcDbLine
 10
170.749
 20
277.443
 30
11.5
 11
170.641
 21
277.626
 31
11.5
  0
LINE
  5
AA4
330
A02
100
AcDbEntity
  8
Mesh_cs
100
AcDbLine
 10
170.641
 20
277.626
 30
11.5
 11
170.614
 21
277.673
 31
11.5
  0
LINE
  5
AA5
330
A02
100
AcDbEntity
  8
Mesh_cs
100
AcDbLine
 10
170.614
 20
277.673
 30
11.5
 11
170.516
 21
277.862
 31
11.5
  0
LINE
  5
AA6
330
A02
100
AcDbEntity
  8
Mesh_cs
100
AcDbLine
 10
170.516
 20
277.862
 30
11.5
 11
170.493
 21
277.91
 31
11.5
  0
LINE
  5
AA7
330
A02
100
AcDbEntity
  8
Mesh_cs
100
AcDbLine
 10
170.493
 20
277.91
 30
11.5
 11
170.405
 21
278.103
 31
11.5
  0
LINE
  5
AA8
330
A02
100
AcDbEntity
  8
Mesh_cs
100
AcDbLine
 10
170.405
 20
278.103
 30
11.5
 11
170.326
 21
278.301
 31
11.5
  0
LINE
  5
AA9
330
A02
100
AcDbEntity
  8
Mesh_cs
100
AcDbLine
 10
170.326
 20
278.301
 30
11.5
 11
170.307
 21
278.35
 31
11.5
  0
LINE
  5
AAA
330
A02
100
AcDbEntity
  8
Mesh_cs
100
AcDbLine
 10
170.307
 20
278.35
 30
11.5
 11
170.238
 21
278.551
 31
11.5
  0
LINE
  5
AAB
330
A02
100
AcDbEntity
  8
Mesh_cs
100
AcDbLine
 10
170.238
 20
278.551
 30
11.5
 11
170.221
 21
278.606
 31
11.5
  0
LINE
  5
AAC
330
A02
100
AcDbEntity
  8
Mesh_cs
100
AcDbLine
 10
170.221
 20
278.606
 30
11.5
 11
170.162
 21
278.81
 31
11.5
  0
LINE
  5
AAD
330
A02
100
AcDbEntity
  8
Mesh_cs
100
AcDbLine
 10
170.162
 20
278.81
 30
11.5
 11
170.114
 21
279.016
 31
11.5
  0
LINE
  5
AAE
330
A02
100
AcDbEntity
  8
Mesh_cs
100
AcDbLine
 10
170.114
 20
279.016
 30
11.5
 11
170.101
 21
279.077
 31
11.5
  0
LINE
  5
AAF
330
A02
100
AcDbEntity
  8
Mesh_cs
100
AcDbLine
 10
170.101
 20
279.077
 30
11.5
 11
170.063
 21
279.286
 31
11.5
  0
LINE
  5
AB0
330
A02
100
AcDbEntity
  8
Mesh_cs
100
AcDbLine
 10
170.063
 20
279.286
 30
11.5
 11
170.035
 21
279.496
 31
11.5
  0
LINE
  5
AB1
330
A02
100
AcDbEntity
  8
Mesh_cs
100
AcDbLine
 10
170.035
 20
279.496
 30
11.5
 11
170.027
 21
279.556
 31
11.5
  0
LINE
  5
AB2
330
A02
100
AcDbEntity
  8
Mesh_cs
100
AcDbLine
 10
170.027
 20
279.556
 30
11.5
 11
170.01
 21
279.768
 31
11.5
  0
LINE
  5
AB3
330
A02
100
AcDbEntity
  8
Mesh_cs
100
AcDbLine
 10
170.01
 20
279.768
 30
11.5
 11
170.004
 21
279.891
 31
11.5
  0
LINE
  5
AB4
330
A02
100
AcDbEntity
  8
Mesh_cs
100
AcDbLine
 10
170.004
 20
279.891
 30
11.5
 11
170.002
 21
279.95
 31
11.5
  0
LINE
  5
AB5
330
A02
100
AcDbEntity
  8
Mesh_cs
100
AcDbLine
 10
170.002
 20
279.95
 30
11.5
 11
170
 21
280.074
 31
11.5
  0
LINE
  5
AB6
330
A02
100
AcDbEntity
  8
Mesh_cs
100
AcDbLine
 10
170
 20
280.074
 30
11.5
 11
170
 21
297.217
 31
11.5
  0
LINE
  5
AB7
330
A02
100
AcDbEntity
  8
Mesh_cs
100
AcDbLine
 10
170
 20
297.217
 30
11.5
 11
170
 21
300.074
 31
11.5
  0
LINE
  5
AB8
330
A02
100
AcDbEntity
  8
Mesh_cs
100
AcDbLine
 10
170
 20
300.074
 30
11.5
 11
142.5
 21
300.074
 31
11.5
  0
LINE
  5
AB9
330
A02
100
AcDbEntity
  8
Mesh_cs
100
AcDbLine
 10
142.5
 20
300.074
 30
11.5
 11
115
 21
300.074
 31
11.5
  0
LINE
  5
ABA
330
A02
100
AcDbEntity
  8
Mesh_cs
100
AcDbLine
 10
115
 20
300.074
 30
11.5
 11
115
 21
150.037
 31
11.5
  0
LINE
  5
ABB
330
A02
100
AcDbEntity
  8
Mesh_cs
100
AcDbLine
 10
115
 20
150.037
 30
11.5
 11
115
 21
0
 31
11.5
  0
LINE
  5
ABC
330
A02
100
AcDbEntity
  8
Mesh_cs
100
AcDbLine
 10
115
 20
0
 30
11.5
 11
142.5
 21
0
 31
11.5
  0
LINE
  5
ABD
330
A02
100
AcDbEntity
  8
Mesh_cs
100
AcDbLine
 10
142.5
 20
0
 30
11.5
 11
170
 21
0
 31
11.5
  0
LINE
  5
ABE
330
A02
100
AcDbEntity
  8
Mesh_cs
100
AcDbLine
 10
170
 20
0
 30
11.5
 11
170
 21
2.85714
 31
11.5
  0
LINE
  5
ABF
330
A02
100
AcDbEntity
  8
Mesh_cs
100
AcDbLine
 10
170
 20
2.85714
 30
11.5
 11
170
 21
20
 31
11.5
  0
LINE
  5
AC0
330
A02
100
AcDbEntity
  8
Mesh_cs
100
AcDbLine
 10
170
 20
20
 30
11.5
 11
170.002
 21
20.1239
 31
11.5
  0
LINE
  5
AC1
330
A02
100
AcDbEntity
  8
Mesh_cs
100
AcDbLine
 10
170.002
 20
20.1239
 30
11.5
 11
170.004
 21
20.1827
 31
11.5
  0
LINE
  5
AC2
330
A02
100
AcDbEntity
  8
Mesh_cs
100
AcDbLine
 10
170.004
 20
20.1827
 30
11.5
 11
170.01
 21
20.3066
 31
11.5
  0
LINE
  5
AC3
330
A02
100
AcDbEntity
  8
Mesh_cs
100
AcDbLine
 10
170.01
 20
20.3066
 30
11.5
 11
170.027
 21
20.5177
 31
11.5
  0
LINE
  5
AC4
330
A02
100
AcDbEntity
  8
Mesh_cs
100
AcDbLine
 10
170.027
 20
20.5177
 30
11.5
 11
170.035
 21
20.5779
 31
11.5
  0
LINE
  5
AC5
330
A02
100
AcDbEntity
  8
Mesh_cs
100
AcDbLine
 10
170.035
 20
20.5779
 30
11.5
 11
170.063
 21
20.7881
 31
11.5
  0
LINE
  5
AC6
330
A02
100
AcDbEntity
  8
Mesh_cs
100
AcDbLine
 10
170.063
 20
20.7881
 30
11.5
 11
170.101
 21
20.9967
 31
11.5
  0
LINE
  5
AC7
330
A02
100
AcDbEntity
  8
Mesh_cs
100
AcDbLine
 10
170.101
 20
20.9967
 30
11.5
 11
170.114
 21
21.0577
 31
11.5
  0
LINE
  5
AC8
330
A02
100
AcDbEntity
  8
Mesh_cs
100
AcDbLine
 10
170.114
 20
21.0577
 30
11.5
 11
170.162
 21
21.2643
 31
11.5
  0
LINE
  5
AC9
330
A02
100
AcDbEntity
  8
Mesh_cs
100
AcDbLine
 10
170.162
 20
21.2643
 30
11.5
 11
170.221
 21
21.4684
 31
11.5
  0
LINE
  5
ACA
330
A02
100
AcDbEntity
  8
Mesh_cs
100
AcDbLine
 10
170.221
 20
21.4684
 30
11.5
 11
170.238
 21
21.5233
 31
11.5
  0
LINE
  5
ACB
330
A02
100
AcDbEntity
  8
Mesh_cs
100
AcDbLine
 10
170.238
 20
21.5233
 30
11.5
 11
170.307
 21
21.7243
 31
11.5
  0
LINE
  5
ACC
330
A02
100
AcDbEntity
  8
Mesh_cs
100
AcDbLine
 10
170.307
 20
21.7243
 30
11.5
 11
170.326
 21
21.7733
 31
11.5
  0
LINE
  5
ACD
330
A02
100
AcDbEntity
  8
Mesh_cs
100
AcDbLine
 10
170.326
 20
21.7733
 30
11.5
 11
170.405
 21
21.9707
 31
11.5
  0
LINE
  5
ACE
330
A02
100
AcDbEntity
  8
Mesh_cs
100
AcDbLine
 10
170.405
 20
21.9707
 30
11.5
 11
170.493
 21
22.1641
 31
11.5
  0
LINE
  5
ACF
330
A02
100
AcDbEntity
  8
Mesh_cs
100
AcDbLine
 10
170.493
 20
22.1641
 30
11.5
 11
170.516
 21
22.2122
 31
11.5
  0
LINE
  5
AD0
330
A02
100
AcDbEntity
  8
Mesh_cs
100
AcDbLine
 10
170.516
 20
22.2122
 30
11.5
 11
170.614
 21
22.401
 31
11.5
  0
LINE
  5
AD1
330
A02
100
AcDbEntity
  8
Mesh_cs
100
AcDbLine
 10
170.614
 20
22.401
 30
11.5
 11
170.641
 21
22.4478
 31
11.5
  0
LINE
  5
AD2
330
A02
100
AcDbEntity
  8
Mesh_cs
100
AcDbLine
 10
170.641
 20
22.4478
 30
11.5
 11
170.749
 21
22.6315
 31
11.5
  0
LINE
  5
AD3
330
A02
100
AcDbEntity
  8
Mesh_cs
100
AcDbLine
 10
170.749
 20
22.6315
 30
11.5
 11
170.865
 21
22.8097
 31
11.5
  0
LINE
  5
AD4
330
A02
100
AcDbEntity
  8
Mesh_cs
100
AcDbLine
 10
170.865
 20
22.8097
 30
11.5
 11
170.895
 21
22.8547
 31
11.5
  0
LINE
  5
AD5
330
A02
100
AcDbEntity
  8
Mesh_cs
100
AcDbLine
 10
170.895
 20
22.8547
 30
11.5
 11
171.02
 21
23.0269
 31
11.5
  0
LINE
  5
AD6
330
A02
100
AcDbEntity
  8
Mesh_cs
100
AcDbLine
 10
171.02
 20
23.0269
 30
11.5
 11
171.055
 21
23.0697
 31
11.5
  0
LINE
  5
AD7
330
A02
100
AcDbEntity
  8
Mesh_cs
100
AcDbLine
 10
171.055
 20
23.0697
 30
11.5
 11
171.188
 21
23.2356
 31
11.5
  0
LINE
  5
AD8
330
A02
100
AcDbEntity
  8
Mesh_cs
100
AcDbLine
 10
171.188
 20
23.2356
 30
11.5
 11
171.33
 21
23.3946
 31
11.5
  0
LINE
  5
AD9
330
A02
100
AcDbEntity
  8
Mesh_cs
100
AcDbLine
 10
171.33
 20
23.3946
 30
11.5
 11
171.367
 21
23.4347
 31
11.5
  0
LINE
  5
ADA
330
A02
100
AcDbEntity
  8
Mesh_cs
100
AcDbLine
 10
171.367
 20
23.4347
 30
11.5
 11
171.516
 21
23.5865
 31
11.5
  0
LINE
  5
ADB
330
A02
100
AcDbEntity
  8
Mesh_cs
100
AcDbLine
 10
171.516
 20
23.5865
 30
11.5
 11
171.557
 21
23.6237
 31
11.5
  0
LINE
  5
ADC
330
A02
100
AcDbEntity
  8
Mesh_cs
100
AcDbLine
 10
171.557
 20
23.6237
 30
11.5
 11
171.713
 21
23.7679
 31
11.5
  0
LINE
  5
ADD
330
A02
100
AcDbEntity
  8
Mesh_cs
100
AcDbLine
 10
171.713
 20
23.7679
 30
11.5
 11
171.877
 21
23.9041
 31
11.5
  0
LINE
  5
ADE
330
A02
100
AcDbEntity
  8
Mesh_cs
100
AcDbLine
 10
171.877
 20
23.9041
 30
11.5
 11
171.92
 21
23.938
 31
11.5
  0
LINE
  5
ADF
330
A02
100
AcDbEntity
  8
Mesh_cs
100
AcDbLine
 10
171.92
 20
23.938
 30
11.5
 11
172.09
 21
24.0659
 31
11.5
  0
LINE
  5
AE0
330
A02
100
AcDbEntity
  8
Mesh_cs
100
AcDbLine
 10
172.09
 20
24.0659
 30
11.5
 11
172.266
 21
24.1852
 31
11.5
  0
LINE
  5
AE1
330
A02
100
AcDbEntity
  8
Mesh_cs
100
AcDbLine
 10
172.266
 20
24.1852
 30
11.5
 11
172.311
 21
24.2155
 31
11.5
  0
LINE
  5
AE2
330
A02
100
AcDbEntity
  8
Mesh_cs
100
AcDbLine
 10
172.311
 20
24.2155
 30
11.5
 11
172.493
 21
24.3259
 31
11.5
  0
LINE
  5
AE3
330
A02
100
AcDbEntity
  8
Mesh_cs
100
AcDbLine
 10
172.493
 20
24.3259
 30
11.5
 11
172.54
 21
24.3524
 31
11.5
  0
LINE
  5
AE4
330
A02
100
AcDbEntity
  8
Mesh_cs
100
AcDbLine
 10
172.54
 20
24.3524
 30
11.5
 11
172.727
 21
24.4536
 31
11.5
  0
LINE
  5
AE5
330
A02
100
AcDbEntity
  8
Mesh_cs
100
AcDbLine
 10
172.727
 20
24.4536
 30
11.5
 11
172.919
 21
24.5454
 31
11.5
  0
LINE
  5
AE6
330
A02
100
AcDbEntity
  8
Mesh_cs
100
AcDbLine
 10
172.919
 20
24.5454
 30
11.5
 11
172.967
 21
24.5681
 31
11.5
  0
LINE
  5
AE7
330
A02
100
AcDbEntity
  8
Mesh_cs
100
AcDbLine
 10
172.967
 20
24.5681
 30
11.5
 11
173.179
 21
24.6564
 31
11.5
  0
LINE
  5
AE8
330
A02
100
AcDbEntity
  8
Mesh_cs
100
AcDbLine
 10
173.179
 20
24.6564
 30
11.5
 11
173.228
 21
24.6752
 31
11.5
  0
LINE
  5
AE9
330
A02
100
AcDbEntity
  8
Mesh_cs
100
AcDbLine
 10
173.228
 20
24.6752
 30
11.5
 11
173.496
 21
24.7682
 31
11.5
  0
LINE
  5
AEA
330
A02
100
AcDbEntity
  8
Mesh_cs
100
AcDbLine
 10
173.496
 20
24.7682
 30
11.5
 11
173.546
 21
24.7831
 31
11.5
  0
LINE
  5
AEB
330
A02
100
AcDbEntity
  8
Mesh_cs
100
AcDbLine
 10
173.546
 20
24.7831
 30
11.5
 11
173.819
 21
24.8583
 31
11.5
  0
LINE
  5
AEC
330
A02
100
AcDbEntity
  8
Mesh_cs
100
AcDbLine
 10
173.819
 20
24.8583
 30
11.5
 11
173.868
 21
24.8694
 31
11.5
  0
LINE
  5
AED
330
A02
100
AcDbEntity
  8
Mesh_cs
100
AcDbLine
 10
173.868
 20
24.8694
 30
11.5
 11
174.176
 21
24.9314
 31
11.5
  0
LINE
  5
AEE
330
A02
100
AcDbEntity
  8
Mesh_cs
100
AcDbLine
 10
174.176
 20
24.9314
 30
11.5
 11
174.225
 21
24.9389
 31
11.5
  0
LINE
  5
AEF
330
A02
100
AcDbEntity
  8
Mesh_cs
100
AcDbLine
 10
174.225
 20
24.9389
 30
11.5
 11
174.57
 21
24.9811
 31
11.5
  0
LINE
  5
AF0
330
A02
100
AcDbEntity
  8
Mesh_cs
100
AcDbLine
 10
174.57
 20
24.9811
 30
11.5
 11
174.612
 21
24.9847
 31
11.5
  0
LINE
  5
AF1
330
A02
100
AcDbEntity
  8
Mesh_cs
100
AcDbLine
 10
174.612
 20
24.9847
 30
11.5
 11
174.959
 21
24.9988
 31
11.5
  0
LINE
  5
AF2
330
A02
100
AcDbEntity
  8
Mesh_cs
100
AcDbLine
 10
174.959
 20
24.9988
 30
11.5
 11
175
 21
25
 31
11.5
  0
LINE
  5
AF3
330
A02
100
AcDbEntity
  8
Mesh_cs
100
AcDbLine
 10
175
 20
25
 30
11.5
 11
192.143
 21
25
 31
11.5
  0
LINE
  5
AF4
330
A02
100
AcDbEntity
  8
Mesh_cs
100
AcDbLine
 10
192.143
 20
25
 30
11.5
 11
195
 21
25
 31
11.5
  0
LINE
  5
AF5
330
A02
100
AcDbEntity
  8
Mesh_cs
100
AcDbLine
 10
195
 20
285.074
 30
11.5
 11
195
 21
297.931
 31
11.5
  0
LINE
  5
AF6
330
A02
100
AcDbEntity
  8
Mesh_cs
100
AcDbLine
 10
195
 20
297.931
 30
11.5
 11
195
 21
300.074
 31
11.5
  0
LINE
  5
AF7
330
A02
100
AcDbEntity
  8
Mesh_cs
100
AcDbLine
 10
195
 20
300.074
 30
11.5
 11
192.857
 21
300.074
 31
11.5
  0
LINE
  5
AF8
330
A02
100
AcDbEntity
  8
Mesh_cs
100
AcDbLine
 10
192.857
 20
300.074
 30
11.5
 11
180
 21
300.074
 31
11.5
  0
LINE
  5
AF9
330
A02
100
AcDbEntity
  8
Mesh_cs
100
AcDbLine
 10
180
 20
300.074
 30
11.5
 11
180
 21
297.931
 31
11.5
  0
LINE
  5
AFA
330
A02
100
AcDbEntity
  8
Mesh_cs
100
AcDbLine
 10
180
 20
297.931
 30
11.5
 11
180
 21
285.074
 31
11.5
  0
LINE
  5
AFB
330
A02
100
AcDbEntity
  8
Mesh_cs
100
AcDbLine
 10
180
 20
285.074
 30
11.5
 11
192.857
 21
285.074
 31
11.5
  0
LINE
  5
AFC
330
A02
100
AcDbEntity
  8
Mesh_cs
100
AcDbLine
 10
192.857
 20
285.074
 30
11.5
 11
195
 21
285.074
 31
11.5
  0
LINE
  5
AFD
330
A02
100
AcDbEntity
  8
Mesh_cs
100
AcDbLine
 10
195
 20
15
 30
11.5
 11
195
 21
2.14286
 31
11.5
  0
LINE
  5
AFE
330
A02
100
AcDbEntity
  8
Mesh_cs
100
AcDbLine
 10
195
 20
2.14286
 30
11.5
 11
195
 21
0
 31
11.5
  0
LINE
  5
AFF
330
A02
100
AcDbEntity
  8
Mesh_cs
100
AcDbLine
 10
195
 20
0
 30
11.5
 11
192.857
 21
0
 31
11.5
  0
LINE
  5
B00
330
A02
100
AcDbEntity
  8
Mesh_cs
100
AcDbLine
 10
192.857
 20
0
 30
11.5
 11
180
 21
0
 31
11.5
  0
LINE
  5
B01
330
A02
100
AcDbEntity
  8
Mesh_cs
100
AcDbLine
 10
180
 20
0
 30
11.5
 11
180
 21
12.8571
 31
11.5
  0
LINE
  5
B02
330
A02
100
AcDbEntity
  8
Mesh_cs
100
AcDbLine
 10
180
 20
12.8571
 30
11.5
 11
180
 21
15
 31
11.5
  0
LINE
  5
B03
330
A02
100
AcDbEntity
  8
Mesh_cs
100
AcDbLine
 10
180
 20
15
 30
11.5
 11
192.857
 21
15
 31
11.5
  0
LINE
  5
B04
330
A02
100
AcDbEntity
  8
Mesh_cs
100
AcDbLine
 10
192.857
 20
15
 30
11.5
 11
195
 21
15
 31
11.5
  0
ENDSEC
  0
SECTION
  2
OBJECTS
  0
DICTIONARY
  5
F000
330
0
100
AcDbDictionary
  3
ACAD_GROUP
350
F001
  0
DICTIONARY
  5
F001
330
F000
100
AcDbDictionary
  0
ENDSEC
  0
EOF