<?xml version="1.0" encoding="UTF-8" standalone="no"?>
<!-- Created with Inkscape (http://www.inkscape.org/) -->

<svg
   width="210mm"
   height="310mm"
   viewBox="0 0 210 310"
   version="1.1"
   id="svg5"
   xml:space="preserve"
   inkscape:version="1.2.2 (732a01da63, 2022-12-09)"
   sodipodi:docname="AssebledLaserFile.svg"
   inkscape:export-filename="..\CAD\PiCarX\NewMegaBox\AssebledLaserFile.pdf"
   inkscape:export-xdpi="150"
   inkscape:export-ydpi="150"
   xmlns:inkscape="http://www.inkscape.org/namespaces/inkscape"
   xmlns:sodipodi="http://sodipodi.sourceforge.net/DTD/sodipodi-0.dtd"
   xmlns="http://www.w3.org/2000/svg"
   xmlns:svg="http://www.w3.org/2000/svg"><sodipodi:namedview
     id="namedview7"
     pagecolor="#ffffff"
     bordercolor="#666666"
     borderopacity="1.0"
     inkscape:showpageshadow="2"
     inkscape:pageopacity="0.0"
     inkscape:pagecheckerboard="0"
     inkscape:deskcolor="#d1d1d1"
     inkscape:document-units="mm"
     showgrid="false"
     inkscape:zoom="1.5019781"
     inkscape:cx="338.55354"
     inkscape:cy="858.53448"
     inkscape:window-width="3200"
     inkscape:window-height="1771"
     inkscape:window-x="3191"
     inkscape:window-y="-9"
     inkscape:window-maximized="1"
     inkscape:current-layer="layer1" /><defs
     id="defs2" /><g
     inkscape:label="Ebene 1"
     inkscape:groupmode="layer"
     id="layer1"><g
       id="Cut003_cs"
       transform="matrix(0,-1,-1,0,98.491097,114.85409)"
       style="stroke:#ff0000;stroke-opacity:1;stroke-width:0.1;stroke-dasharray:none"><path
         id="Cut003_cs_w0000"
         d="m -22.5,-10 h -10 v -6 h 3 v -6 h -3 v -6 h 3 v -6 h 59 v 6 h 3 v 6 h -3 v 6 h 3 v 6 h -10 v -3 h -9 v 3 h -9 v -3 h -9 v 3 h -9 v -3 h -9 v 3"
         stroke="#191919"
         stroke-width="0.35 px"
         style="fill:none;fill-opacity:1;fill-rule:evenodd;stroke-width:0.1;stroke-linecap:square;stroke-miterlimit:4;stroke-dasharray:none;stroke:#ff0000;stroke-opacity:1" /><title
         id="title1050">b'Cut003_cs'</title></g><g
       id="Cut_cs"
       transform="matrix(-1,0,0,1,36.464415,183.51631)"
       style="stroke:#ff0000;stroke-opacity:1;stroke-width:0.1;stroke-dasharray:none"><path
         id="Cut_cs_w0000"
         d="m 22.5,-24 h -9 v 3 h -9 v -3 h -9 v 3 h -9 v -3 h -9 v 3 h -10 v 7.65 h 3 v 7 h -3 v 7 h 3 v 7 h -3 v 7 h 3 v 7.65 h -3 v 30 h 3 v 8 h -3 v 7 h 3 v 7 h -3 v 7 h 3 v 7 h -3 v 7 h 3 v 8.76276 h -0.376051 L -23.85,108.8 V 71.649152 m 0,0 V 65.750848 13.649152 m 0,0 V 7.7508476 -14 h 47.7 V 7.7508476 m 0,0 v 5.8983044 52.101696 m 0,0 V 71.649152 108.8 l 6.026051,-4.73724 H 29.5 V 95.3 h 3 v -7 h -3 v -7 h 3 v -7 h -3 v -7 h 3 v -7 h -3 v -8 h 3 v -30 h -3 v -7.65 h 3 v -7 h -3 v -7 h 3 v -7 h -3 v -7 h 3 V -21 h -10 v -3"
         stroke="#191919"
         stroke-width="0.35 px"
         style="fill:none;fill-opacity:1;fill-rule:evenodd;stroke-width:0.1;stroke-linecap:square;stroke-miterlimit:4;stroke-dasharray:none;stroke:#ff0000;stroke-opacity:1" /><path
         id="Cut_cs_w0001"
         d="m -22.9,10.7 m 0,0 v 0"
         stroke="#191919"
         stroke-width="0.35 px"
         style="fill:none;fill-opacity:1;fill-rule:evenodd;stroke-width:0.1;stroke-linecap:square;stroke-miterlimit:4;stroke-dasharray:none;stroke:#ff0000;stroke-opacity:1" /><path
         id="Cut_cs_w0002"
         d="m 26.1,10.7 m 0,0 v 0"
         stroke="#191919"
         stroke-width="0.35 px"
         style="fill:none;fill-opacity:1;fill-rule:evenodd;stroke-width:0.1;stroke-linecap:square;stroke-miterlimit:4;stroke-dasharray:none;stroke:#ff0000;stroke-opacity:1" /><path
         id="Cut_cs_w0003"
         d="m -22.9,68.7 m 0,0 v 0"
         stroke="#191919"
         stroke-width="0.35 px"
         style="fill:none;fill-opacity:1;fill-rule:evenodd;stroke-width:0.1;stroke-linecap:square;stroke-miterlimit:4;stroke-dasharray:none;stroke:#ff0000;stroke-opacity:1" /><path
         id="Cut_cs_w0004"
         d="m 26.1,68.7 m 0,0 v 0"
         stroke="#191919"
         stroke-width="0.35 px"
         style="fill:none;fill-opacity:1;fill-rule:evenodd;stroke-width:0.1;stroke-linecap:square;stroke-miterlimit:4;stroke-dasharray:none;stroke:#ff0000;stroke-opacity:1" /><title
         id="title1067">b'Cut_cs'</title></g><g
       id="Box009_cs"
       transform="matrix(0,1,1,0,38.214231,203.46086)"
       style="stroke:#ff0000;stroke-opacity:1;stroke-width:0.1;stroke-dasharray:none"><path
         id="Box009_cs_w0000"
         d="m 32.5,-24 h -65 v 21.6 h 65 V -24"
         stroke="#191919"
         stroke-width="0.35 px"
         style="fill:none;fill-opacity:1;fill-rule:evenodd;stroke-width:0.1;stroke-linecap:square;stroke-miterlimit:4;stroke-dasharray:none;stroke:#ff0000;stroke-opacity:1" /><title
         id="title1084">b'Box009_cs'</title></g><g
       id="Box003_cs"
       transform="matrix(1,0,0,-1,102.52313,283.34876)"
       style="stroke:#ff0000;stroke-opacity:1;stroke-width:0.1;stroke-dasharray:none"><path
         id="Box003_cs_w0000"
         d="m 32.5,-24 h -65 v 82 h 65 v -82"
         stroke="#191919"
         stroke-width="0.35 px"
         style="fill:none;fill-opacity:1;fill-rule:evenodd;stroke-width:0.1;stroke-linecap:square;stroke-miterlimit:4;stroke-dasharray:none;stroke:#ff0000;stroke-opacity:1" /><title
         id="title1097">b'Box003_cs'</title></g><g
       id="Cut001_cs"
       transform="matrix(-1,0,0,1,102.69929,234.2153)"
       style="stroke:#ff0000;stroke-opacity:1;stroke-width:0.1;stroke-dasharray:none"><path
         id="Cut001_cs_w0000"
         d="m -8,-10 h -24.5 v -31.169972 h 3 v -10 h -3 v -10 h 3 V -70 h 4.5 v -3 h 10 v 3 h 10 v -3 H 5 v 3 h 10 v -3 h 10 v 3 h 4.5 v 8.830028 h 3 v 10 h -3 v 10 h 3 V -10 h -7.8 v -2.4 H 19.95 V -28.85 H 8.35 -3.25 V -12.4 H -8 v 2.4"
         stroke="#191919"
         stroke-width="0.35 px"
         style="fill:none;fill-opacity:1;fill-rule:evenodd;stroke-width:0.1;stroke-linecap:square;stroke-miterlimit:4;stroke-dasharray:none;stroke:#ff0000;stroke-opacity:1" /><title
         id="title1110">b'Cut001_cs'</title></g><g
       id="Body001_cs"
       transform="matrix(1,0,0,-1,62.256228,135.7105)"
       style="stroke:#ff0000;stroke-opacity:1;stroke-width:0.1;stroke-dasharray:none"><path
         id="Body001_cs_w0000"
         d="m 37,58 v -82 h 33 v 5 h 3 v 5 H 45 v 72 h 25 v 12.15 h 3 v 10 h -3 v 10 h 3 v 10 h -3 v 10 h 3 v 10 h -3 v 12.15 h -8.830028 v -3 h -10 v 3 h -10 v -3 h -10 A 39.5,39.5 0 0 0 10,103.3 v -8 h 3 v -7 h -3 v -7 h 3 v -7 h -3 v -7 h 3 v -7 h -3 v -8 h 19 v -30 H 10 v -7.65 h 3 v -7 h -3 v -7 h 3 v -7 h -3 v -7 h 3 V -21 h 3 v -3 h 6 v 3 h 6 v -3 h 6 v 82 h 3"
         stroke="#191919"
         stroke-width="0.35 px"
         style="fill:none;fill-opacity:1;fill-rule:evenodd;stroke-width:0.1;stroke-linecap:square;stroke-miterlimit:4;stroke-dasharray:none;stroke:#ff0000;stroke-opacity:1" /><title
         id="title1136">b'Body001_cs'</title></g><g
       id="Cut002_cs"
       transform="matrix(1,0,0,-1,36.816722,137.64822)"
       style="stroke:#ff0000;stroke-opacity:1;stroke-width:0.1;stroke-dasharray:none"><path
         id="Cut002_cs_w0000"
         d="m -29.5,-19 h -3 v -5 h 3 v 3 h 59 v -3 h 3 v 5 h -3 v 5 h 3 v 84.15 h -3 v 10 h 3 v 10 h -3 v 10 h 3 v 10 h -3 v 10 h 3 V 132.3 H 25 v -3 H 15 v 3 H 5 v -3 H -5 v 3 h -10 v -3 h -10 v 3 h -7.5 v -12.15 h 3 v -10 h -3 v -10 h 3 v -10 h -3 v -10 h 3 v -10 h -3 V -14 h 3 v -5"
         stroke="#191919"
         stroke-width="0.35 px"
         style="fill:none;fill-opacity:1;fill-rule:evenodd;stroke-width:0.1;stroke-linecap:square;stroke-miterlimit:4;stroke-dasharray:none;stroke:#ff0000;stroke-opacity:1" /><title
         id="title1149">b'Cut002_cs'</title></g><g
       id="Body005_cs"
       transform="matrix(0,1,1,0,125.66548,200.29003)"
       style="stroke:#ff0000;stroke-opacity:1;stroke-width:0.1;stroke-dasharray:none"><path
         id="Body005_cs_w0000"
         d="m 29.5,-70 v 3 h -59 v -3 h 4.5 v -3 h 10 v 3 h 10 v -3 H 5 v 3 h 10 v -3 h 10 v 3 h 4.5"
         stroke="#191919"
         stroke-width="0.35 px"
         style="fill:none;fill-opacity:1;fill-rule:evenodd;stroke-width:0.1;stroke-linecap:square;stroke-miterlimit:4;stroke-dasharray:none;stroke:#ff0000;stroke-opacity:1" /><title
         id="title1162">b'Body005_cs'</title></g><g
       id="Body001_cs-8"
       transform="matrix(-1,0,0,1,206.55872,26.705867)"
       style="stroke:#ff0000;stroke-opacity:1;stroke-width:0.1;stroke-dasharray:none"><path
         id="Body001_cs_w0000-9"
         d="m 37,58 v -82 h 33 v 5 h 3 v 5 H 45 v 72 h 25 v 12.15 h 3 v 10 h -3 v 10 h 3 v 10 h -3 v 10 h 3 v 10 h -3 v 12.15 h -8.830028 v -3 h -10 v 3 h -10 v -3 h -10 A 39.5,39.5 0 0 0 10,103.3 v -8 h 3 v -7 h -3 v -7 h 3 v -7 h -3 v -7 h 3 v -7 h -3 v -8 h 19 v -30 H 10 v -7.65 h 3 v -7 h -3 v -7 h 3 v -7 h -3 v -7 h 3 V -21 h 3 v -3 h 6 v 3 h 6 v -3 h 6 v 82 h 3"
         stroke="#191919"
         stroke-width="0.35 px"
         style="fill:none;fill-opacity:1;fill-rule:evenodd;stroke-width:0.1;stroke-linecap:square;stroke-miterlimit:4;stroke-dasharray:none;stroke:#ff0000;stroke-opacity:1" /><title
         id="title1136-9">b'Body001_cs'</title></g></g></svg>
