<?xml version="1.0"?>
<!DOCTYPE svg PUBLIC "-//W3C//DTD SVG 1.1//EN" "http://www.w3.org/Graphics/SVG/1.1/DTD/svg11.dtd">
<svg width="65.00000000000006mm" height="156.3mm" viewBox="-32.500000 -132.300000 65.000000 156.300000" xmlns="http://www.w3.org/2000/svg" version="1.1">
<g id="Cut002_cs" transform="scale(1,-1)">
<path id="Cut002_cs_w0000"  d="M -29.500000000000018 -19.000000000000014 L -32.50000000000002 -19.000000000000014 L -32.5 -24.0 L -25.0 -24.000000000000014 L -25.0 -21.000000000000018 L -15.0 -21.000000000000014 L -15.0 -24.000000000000014 L -5.0 -24.000000000000014 L -5.0 -21.000000000000018 L 5.0 -21.000000000000014 L 5.0 -24.000000000000014 L 15.0 -24.000000000000014 L 15.0 -21.000000000000018 L 25.0 -21.000000000000014 L 25.0 -24.000000000000014 L 32.5 -24.0 L 32.5 -18.99999999999997 L 29.499999999999982 -19.000000000000014 L 29.49999999999995 -13.999999999999996 L 32.49999999999998 -14.000000000000014 L 32.5 70.15000000000005 L 29.49999999999996 70.15 L 29.49999999999999 80.15000000000005 L 32.49999999999996 80.15000000000002 L 32.5 90.15000000000005 L 29.499999999999957 90.15000000000002 L 29.5 100.15000000000005 L 32.49999999999996 100.15000000000002 L 32.5 110.15000000000006 L 29.499999999999954 110.15000000000002 L 29.500000000000007 120.15000000000006 L 32.49999999999995 120.15000000000003 L 32.5 132.3 L 25.0 132.3 L 25.0 129.3 L 15.0 129.3 L 15.0 132.3 L 5.0 132.3 L 5.0 129.3 L -5.0 129.3 L -5.0 132.3 L -15.0 132.3 L -15.0 129.3 L -25.0 129.3 L -25.0 132.3 L -32.5 132.3 L -32.50000000000005 120.15000000000003 L -29.50000000000005 120.15000000000003 L -29.500000000000046 110.15000000000002 L -32.50000000000005 110.15000000000002 L -32.50000000000005 100.15000000000002 L -29.500000000000046 100.15000000000002 L -29.500000000000043 90.15000000000002 L -32.50000000000004 90.15000000000002 L -32.50000000000004 80.15000000000002 L -29.500000000000043 80.15000000000002 L -29.50000000000004 70.15 L -32.500000000000036 70.15 L -32.50000000000002 -14.000000000000016 L -29.50000000000002 -14.000000000000014 L -29.500000000000018 -19.000000000000014 " stroke="#191919" stroke-width="0.35 px" style="stroke-width:0.35;stroke-miterlimit:4;stroke-dasharray:none;stroke-linecap:square;fill:none;fill-opacity:1;fill-rule: evenodd"/>
<path id="Cut002_cs_w0001"  d="M -28.250000000000004 17.650000000000006 M -28.25 17.650000000000006 L -28.247998237821236 17.549975983673846 L -28.24199615692639 17.450112146781976 L -28.23200336910628 17.350568412245735 L -28.2180358769087 17.25150419037152 L -28.200116048011736 17.153078123569372 L -28.178272579403966 17.055447832301667 L -28.152540451428848 16.958769662668033 L -28.12296087176682 16.863198436031297 L -28.089581209444958 16.76888720108488 L -28.05245491897972 16.675986988759377 L -28.01164145477439 16.584646570359865 L -27.96720617590816 16.495012219322348 L -27.919220241469574 16.407227476969865 L -27.867760496601548 16.321432922644135 L -27.8129093494409 16.23776594858029 L -27.7547546391491 16.15636053988584 L -27.69338949524581 16.077347059975352 L -27.628912188470366 16.000852041805388 L -27.561425973410053 15.92699798524336 L -27.49103892314716 15.855903160894997 L -27.41786375618976 15.787681420704672 L -27.342017655963204 15.722442015631856 L -27.26362208315132 15.660289420695392 L -27.18280258118824 15.601323167666436 L -27.09968857521183 15.545637685677065 L -27.014413164801056 15.493322150000665 L -26.927112910828953 15.444460339245808 L -26.83792761677283 15.399130501192275 L -26.747000104831514 15.357405227484378 L -26.654475987208542 15.319351337381988 L -26.56050343292732 15.285029770755443 L -26.465232930551863 15.25449549049597 L -26.368817047192906 15.22779739449743 L -26.271410184185427 15.2049782373509 L -26.173168329828883 15.18607456187695 L -26.074248809586024 15.171116640605703 L -25.97481003414032 15.160128427297934 L -25.875011245715626 15.153127518585592 L -25.775012263064056 15.150125125792016 L -25.67497322553072 15.151126056978313 L -25.575054336605007 15.156128709243546 L -25.475415607369158 15.165125071291612 L -25.376216600254935 15.178100736260689 L -25.27761617351885 15.195034924794442 L -25.179772226844932 15.21590051831842 L -25.082841448482668 15.240664102467804 L -24.986979064324956 15.26928602059769 L -24.89233858932775 15.301720437289532 L -24.799071581669807 15.33791541175242 L -24.707327400045884 15.377812981001597 L -24.617252964482304 15.421349252680926 L -24.52899252105776 15.468454507380812 L -24.442687410906302 15.519053310287404 L -24.35847584387217 15.573064631984721 L -24.276492677179306 15.630401978216014 L -24.196869199469617 15.69097352839637 L -24.11973292055606 15.754682282655153 L -24.04520736722725 15.821426217172586 L -23.973411885430366 15.891098447561689 L -23.904461449149494 15.963587400033845 L -23.83846647628505 16.038776990074354 L -23.77553265182958 16.1165468083411 L -23.715760758622736 16.196772313489447 L -23.659246515956653 16.27932503161378 L -23.606080426290163 16.36407276198699 L -23.556347630317234 16.450879788767963 L -23.51012777062192 16.539607098338223 L -23.46749486413782 16.63011260191982 L -23.428517183616776 16.722251363117437 L -23.39325714829613 16.81587583002127 L -23.361771223939982 16.910836071497755 L -23.334109832414356 17.006980017291056 L -23.310317270941155 17.104153701549592 L -23.29043164116014 17.202201509388658 L -23.274484788112574 17.30096642609351 L -23.262502249244292 17.400290288564264 L -23.254503213509807 17.5000140385998 L -23.250500490642864 17.599977977615282 L -23.250500490642864 17.70002202238473 L -23.254503213509807 17.79998596140021 L -23.262502249244292 17.899709711435747 L -23.274484788112574 17.9990335739065 L -23.29043164116014 18.097798490611353 L -23.310317270941155 18.19584629845042 L -23.334109832414356 18.293019982708955 L -23.361771223939982 18.389163928502256 L -23.39325714829613 18.48412416997874 L -23.428517183616776 18.577748636882575 L -23.46749486413782 18.669887398080192 L -23.51012777062192 18.76039290166179 L -23.556347630317234 18.849120211232048 L -23.606080426290163 18.935927238013022 L -23.659246515956653 19.02067496838623 L -23.715760758622736 19.103227686510564 L -23.77553265182958 19.183453191658913 L -23.83846647628505 19.261223009925658 L -23.904461449149494 19.336412599966167 L -23.973411885430366 19.408901552438323 L -24.04520736722725 19.478573782827425 L -24.11973292055606 19.545317717344858 L -24.196869199469617 19.60902647160364 L -24.276492677179306 19.669598021783997 L -24.35847584387217 19.72693536801529 L -24.442687410906302 19.780946689712607 L -24.52899252105776 19.8315454926192 L -24.617252964482304 19.878650747319085 L -24.707327400045884 19.922187018998414 L -24.799071581669807 19.962084588247592 L -24.89233858932775 19.99827956271048 L -24.986979064324956 20.03071397940232 L -25.082841448482668 20.059335897532208 L -25.179772226844918 20.08409948168159 L -25.27761617351885 20.10496507520557 L -25.376216600254935 20.121899263739323 L -25.475415607369158 20.1348749287084 L -25.575054336605007 20.143871290756465 L -25.67497322553072 20.148873943021698 L -25.775012263064056 20.149874874207995 L -25.875011245715626 20.14687248141442 L -25.97481003414032 20.139871572702077 L -26.074248809586024 20.128883359394308 L -26.173168329828883 20.11392543812306 L -26.271410184185427 20.09502176264911 L -26.368817047192906 20.072202605502582 L -26.465232930551878 20.045504509504042 L -26.56050343292732 20.014970229244568 L -26.654475987208542 19.980648662618023 L -26.747000104831514 19.942594772515633 L -26.83792761677283 19.900869498807737 L -26.927112910828953 19.855539660754204 L -27.014413164801056 19.806677849999346 L -27.09968857521183 19.754362314322947 L -27.18280258118824 19.698676832333575 L -27.26362208315132 19.63971057930462 L -27.342017655963204 19.577557984368156 L -27.41786375618976 19.51231857929534 L -27.49103892314716 19.444096839105015 L -27.561425973410053 19.37300201475665 L -27.628912188470366 19.299147958194624 L -27.69338949524581 19.22265294002466 L -27.7547546391491 19.143639460114173 L -27.8129093494409 19.062234051419722 L -27.867760496601548 18.978567077355876 L -27.919220241469574 18.892772523030146 L -27.96720617590816 18.804987780677664 L -28.01164145477439 18.715353429640146 L -28.05245491897972 18.624013011240635 L -28.089581209444958 18.53111279891513 L -28.12296087176682 18.436801563968714 L -28.152540451428848 18.34123033733198 L -28.178272579403966 18.244552167698345 L -28.200116048011736 18.14692187643064 L -28.2180358769087 18.04849580962849 L -28.23200336910628 17.949431587754276 L -28.24199615692639 17.849887853218036 L -28.247998237821236 17.750024016326165 L -28.25 17.650000000000006 " stroke="#191919" stroke-width="0.35 px" style="stroke-width:0.35;stroke-miterlimit:4;stroke-dasharray:none;stroke-linecap:square;fill:none;fill-opacity:1;fill-rule: evenodd"/>
<path id="Cut002_cs_w0002"  d="M -27.8 39.0 M -27.799999999999997 39.0 L -27.797998237821233 38.89997598367384 L -27.791996156926388 38.80011214678197 L -27.782003369106278 38.70056841224573 L -27.768035876908698 38.601504190371514 L -27.750116048011733 38.50307812356937 L -27.728272579403964 38.40544783230166 L -27.702540451428845 38.30876966266803 L -27.67296087176682 38.21319843603129 L -27.639581209444955 38.118887201084874 L -27.602454918979717 38.02598698875937 L -27.56164145477439 37.93464657035986 L -27.517206175908157 37.84501221932234 L -27.46922024146957 37.75722747696986 L -27.417760496601545 37.67143292264413 L -27.362909349440898 37.587765948580284 L -27.304754639149095 37.50636053988583 L -27.243389495245808 37.42734705997535 L -27.178912188470363 37.35085204180538 L -27.11142597341005 37.276997985243355 L -27.041038923147156 37.20590316089499 L -26.967863756189757 37.137681420704666 L -26.8920176559632 37.07244201563185 L -26.813622083151316 37.010289420695386 L -26.73280258118824 36.95132316766643 L -26.649688575211826 36.89563768567706 L -26.564413164801053 36.84332215000066 L -26.47711291082895 36.7944603392458 L -26.387927616772828 36.74913050119227 L -26.29700010483151 36.70740522748437 L -26.20447598720854 36.66935133738198 L -26.110503432927317 36.63502977075544 L -26.01523293055186 36.604495490495964 L -25.918817047192903 36.57779739449742 L -25.821410184185424 36.554978237350895 L -25.72316832982888 36.536074561876944 L -25.62424880958602 36.5211166406057 L -25.524810034140316 36.51012842729793 L -25.425011245715623 36.503127518585586 L -25.325012263064053 36.50012512579201 L -25.224973225530718 36.50112605697831 L -25.125054336605004 36.50612870924354 L -25.025415607369155 36.51512507129161 L -24.926216600254932 36.52810073626068 L -24.827616173518848 36.545034924794436 L -24.72977222684493 36.565900518318415 L -24.632841448482665 36.5906641024678 L -24.536979064324953 36.619286020597684 L -24.442338589327747 36.651720437289526 L -24.349071581669804 36.687915411752414 L -24.25732740004588 36.72781298100159 L -24.1672529644823 36.77134925268092 L -24.078992521057756 36.81845450738081 L -23.9926874109063 36.8690533102874 L -23.908475843872168 36.923064631984715 L -23.826492677179303 36.98040197821601 L -23.746869199469614 37.040973528396364 L -23.669732920556058 37.10468228265515 L -23.595207367227246 37.17142621717258 L -23.523411885430363 37.24109844756168 L -23.45446144914949 37.31358740003384 L -23.388466476285046 37.38877699007435 L -23.325532651829576 37.46654680834109 L -23.265760758622733 37.54677231348944 L -23.20924651595665 37.629325031613774 L -23.15608042629016 37.71407276198698 L -23.10634763031723 37.80087978876796 L -23.060127770621918 37.88960709833822 L -23.017494864137817 37.980112601919814 L -22.978517183616773 38.07225136311743 L -22.943257148296127 38.165875830021264 L -22.91177122393998 38.26083607149775 L -22.884109832414353 38.35698001729105 L -22.860317270941152 38.454153701549586 L -22.840431641160137 38.55220150938865 L -22.82448478811257 38.650966426093504 L -22.81250224924429 38.75029028856426 L -22.804503213509804 38.850014038599795 L -22.80050049064286 38.949977977615276 L -22.80050049064286 39.050022022384724 L -22.804503213509804 39.149985961400205 L -22.81250224924429 39.24970971143574 L -22.82448478811257 39.349033573906496 L -22.840431641160137 39.44779849061135 L -22.860317270941152 39.545846298450414 L -22.884109832414353 39.64301998270895 L -22.91177122393998 39.73916392850225 L -22.943257148296127 39.834124169978736 L -22.978517183616773 39.92774863688257 L -23.017494864137817 40.019887398080186 L -23.060127770621918 40.11039290166178 L -23.10634763031723 40.19912021123204 L -23.15608042629016 40.28592723801302 L -23.20924651595665 40.370674968386226 L -23.265760758622733 40.45322768651056 L -23.325532651829576 40.53345319165891 L -23.388466476285046 40.61122300992565 L -23.45446144914949 40.68641259996616 L -23.523411885430363 40.75890155243832 L -23.595207367227246 40.82857378282742 L -23.669732920556058 40.89531771734485 L -23.746869199469614 40.959026471603636 L -23.826492677179303 41.01959802178399 L -23.908475843872168 41.076935368015285 L -23.9926874109063 41.1309466897126 L -24.078992521057756 41.18154549261919 L -24.1672529644823 41.22865074731908 L -24.25732740004588 41.27218701899841 L -24.349071581669804 41.312084588247586 L -24.442338589327747 41.348279562710474 L -24.536979064324953 41.380713979402316 L -24.632841448482665 41.4093358975322 L -24.729772226844915 41.434099481681585 L -24.827616173518848 41.454965075205564 L -24.926216600254932 41.47189926373932 L -25.025415607369155 41.48487492870839 L -25.125054336605004 41.49387129075646 L -25.224973225530718 41.49887394302169 L -25.325012263064053 41.49987487420799 L -25.425011245715623 41.496872481414414 L -25.524810034140316 41.48987157270207 L -25.62424880958602 41.4788833593943 L -25.72316832982888 41.463925438123056 L -25.821410184185424 41.445021762649105 L -25.918817047192903 41.42220260550258 L -26.015232930551875 41.395504509504036 L -26.110503432927317 41.36497022924456 L -26.20447598720854 41.33064866261802 L -26.29700010483151 41.29259477251563 L -26.387927616772828 41.25086949880773 L -26.47711291082895 41.2055396607542 L -26.564413164801053 41.15667784999934 L -26.649688575211826 41.10436231432294 L -26.73280258118824 41.04867683233357 L -26.813622083151316 40.989710579304614 L -26.8920176559632 40.92755798436815 L -26.967863756189757 40.862318579295334 L -27.041038923147156 40.79409683910501 L -27.11142597341005 40.723002014756645 L -27.178912188470363 40.64914795819462 L -27.243389495245808 40.57265294002465 L -27.304754639149095 40.49363946011417 L -27.362909349440898 40.412234051419716 L -27.417760496601545 40.32856707735587 L -27.46922024146957 40.24277252303014 L -27.517206175908157 40.15498778067766 L -27.56164145477439 40.06535342964014 L -27.602454918979717 39.97401301124063 L -27.639581209444955 39.881112798915126 L -27.67296087176682 39.78680156396871 L -27.702540451428845 39.69123033733197 L -27.728272579403964 39.59455216769834 L -27.750116048011733 39.49692187643063 L -27.768035876908698 39.398495809628486 L -27.782003369106278 39.29943158775427 L -27.791996156926388 39.19988785321803 L -27.797998237821233 39.10002401632616 L -27.799999999999997 39.0 " stroke="#191919" stroke-width="0.35 px" style="stroke-width:0.35;stroke-miterlimit:4;stroke-dasharray:none;stroke-linecap:square;fill:none;fill-opacity:1;fill-rule: evenodd"/>
<path id="Cut002_cs_w0003"  d="M -22.2 19.900000000000006 L -22.2 21.400000000000006 L 19.6 21.400000000000006 L 19.599999999999998 19.900000000000006 L -22.2 19.900000000000006 " stroke="#191919" stroke-width="0.35 px" style="stroke-width:0.35;stroke-miterlimit:4;stroke-dasharray:none;stroke-linecap:square;fill:none;fill-opacity:1;fill-rule: evenodd"/>
<path id="Cut002_cs_w0004"  d="M -22.2 24.400000000000006 L -22.2 25.900000000000006 L 19.6 25.900000000000006 L 19.599999999999998 24.400000000000006 L -22.2 24.400000000000006 " stroke="#191919" stroke-width="0.35 px" style="stroke-width:0.35;stroke-miterlimit:4;stroke-dasharray:none;stroke-linecap:square;fill:none;fill-opacity:1;fill-rule: evenodd"/>
<path id="Cut002_cs_w0005"  d="M 20.5 17.650000000000006 M 20.5 17.650000000000006 L 20.502001762178764 17.549975983673846 L 20.50800384307361 17.450112146781976 L 20.517996630893713 17.350568412245735 L 20.531964123091292 17.25150419037152 L 20.54988395198826 17.153078123569372 L 20.57172742059603 17.055447832301667 L 20.59745954857115 16.958769662668033 L 20.62703912823317 16.863198436031297 L 20.660418790555035 16.76888720108488 L 20.697545081020273 16.675986988759377 L 20.738358545225612 16.584646570359865 L 20.782793824091833 16.495012219322348 L 20.830779758530426 16.407227476969865 L 20.88223950339845 16.321432922644135 L 20.9370906505591 16.23776594858029 L 20.995245360850898 16.15636053988584 L 21.056610504754183 16.077347059975352 L 21.121087811529627 16.000852041805388 L 21.18857402658995 15.92699798524336 L 21.258961076852845 15.855903160894997 L 21.332136243810233 15.787681420704672 L 21.4079823440368 15.722442015631856 L 21.486377916848678 15.660289420695392 L 21.567197418811755 15.601323167666436 L 21.650311424788164 15.545637685677065 L 21.735586835198948 15.493322150000665 L 21.82288708917104 15.444460339245808 L 21.912072383227162 15.399130501192275 L 22.00299989516848 15.357405227484378 L 22.095524012791458 15.319351337381988 L 22.189496567072677 15.285029770755443 L 22.28476706944813 15.25449549049597 L 22.38118295280709 15.22779739449743 L 22.478589815814573 15.2049782373509 L 22.576831670171114 15.18607456187695 L 22.675751190413976 15.171116640605703 L 22.775189965859674 15.160128427297934 L 22.874988754284367 15.153127518585592 L 22.97498773693594 15.150125125792016 L 23.07502677446928 15.151126056978313 L 23.174945663394993 15.156128709243546 L 23.274584392630846 15.165125071291612 L 23.373783399745065 15.178100736260689 L 23.472383826481153 15.195034924794442 L 23.57022777315507 15.21590051831842 L 23.667158551517325 15.240664102467804 L 23.76302093567504 15.26928602059769 L 23.857661410672243 15.301720437289532 L 23.950928418330193 15.33791541175242 L 24.042672599954116 15.377812981001597 L 24.132747035517696 15.421349252680926 L 24.221007478942234 15.468454507380812 L 24.307312589093698 15.519053310287404 L 24.391524156127822 15.573064631984721 L 24.473507322820687 15.630401978216014 L 24.553130800530383 15.69097352839637 L 24.630267079443936 15.754682282655153 L 24.70479263277275 15.821426217172586 L 24.776588114569627 15.891098447561689 L 24.84553855085051 15.963587400033845 L 24.91153352371495 16.038776990074354 L 24.97446734817042 16.1165468083411 L 25.034239241377264 16.196772313489447 L 25.090753484043347 16.27932503161378 L 25.14391957370984 16.36407276198699 L 25.19365236968276 16.450879788767963 L 25.239872229378083 16.539607098338223 L 25.282505135862174 16.63011260191982 L 25.321482816383217 16.722251363117437 L 25.356742851703864 16.81587583002127 L 25.388228776060014 16.910836071497755 L 25.415890167585637 17.006980017291056 L 25.439682729058838 17.104153701549592 L 25.45956835883986 17.202201509388658 L 25.475515211887426 17.30096642609351 L 25.4874977507557 17.400290288564264 L 25.495496786490186 17.5000140385998 L 25.49949950935713 17.599977977615282 L 25.49949950935713 17.70002202238473 L 25.495496786490186 17.79998596140021 L 25.4874977507557 17.899709711435747 L 25.475515211887426 17.9990335739065 L 25.45956835883986 18.097798490611353 L 25.439682729058838 18.19584629845042 L 25.415890167585637 18.293019982708955 L 25.388228776060014 18.389163928502256 L 25.356742851703864 18.48412416997874 L 25.321482816383217 18.577748636882575 L 25.282505135862174 18.669887398080192 L 25.239872229378083 18.76039290166179 L 25.19365236968276 18.849120211232048 L 25.14391957370984 18.935927238013022 L 25.090753484043347 19.02067496838623 L 25.034239241377264 19.103227686510564 L 24.97446734817042 19.183453191658913 L 24.91153352371495 19.261223009925658 L 24.84553855085051 19.336412599966167 L 24.776588114569627 19.408901552438323 L 24.70479263277275 19.478573782827425 L 24.63026707944394 19.545317717344858 L 24.553130800530383 19.60902647160364 L 24.473507322820687 19.669598021783997 L 24.391524156127822 19.72693536801529 L 24.307312589093698 19.780946689712607 L 24.221007478942234 19.8315454926192 L 24.1327470355177 19.878650747319085 L 24.042672599954116 19.922187018998414 L 23.950928418330193 19.962084588247592 L 23.857661410672243 19.99827956271048 L 23.763020935675044 20.03071397940232 L 23.667158551517325 20.059335897532208 L 23.570227773155075 20.08409948168159 L 23.472383826481153 20.10496507520557 L 23.373783399745065 20.121899263739323 L 23.27458439263085 20.1348749287084 L 23.174945663394993 20.143871290756465 L 23.07502677446928 20.148873943021698 L 22.97498773693594 20.149874874207995 L 22.874988754284367 20.14687248141442 L 22.775189965859674 20.139871572702077 L 22.675751190413976 20.128883359394308 L 22.576831670171114 20.11392543812306 L 22.478589815814573 20.09502176264911 L 22.38118295280709 20.072202605502582 L 22.28476706944813 20.045504509504042 L 22.189496567072677 20.014970229244568 L 22.095524012791458 19.980648662618023 L 22.00299989516848 19.942594772515633 L 21.912072383227162 19.900869498807737 L 21.822887089171044 19.855539660754204 L 21.735586835198948 19.806677849999346 L 21.650311424788164 19.754362314322947 L 21.567197418811755 19.698676832333575 L 21.486377916848678 19.63971057930462 L 21.4079823440368 19.577557984368156 L 21.332136243810233 19.51231857929534 L 21.25896107685284 19.444096839105015 L 21.18857402658995 19.37300201475665 L 21.121087811529627 19.299147958194624 L 21.056610504754183 19.22265294002466 L 20.995245360850898 19.143639460114173 L 20.9370906505591 19.062234051419722 L 20.88223950339845 18.978567077355876 L 20.830779758530426 18.892772523030146 L 20.782793824091833 18.804987780677664 L 20.738358545225616 18.715353429640146 L 20.697545081020273 18.624013011240635 L 20.660418790555035 18.53111279891513 L 20.62703912823317 18.436801563968714 L 20.597459548571152 18.34123033733198 L 20.57172742059603 18.244552167698345 L 20.54988395198826 18.14692187643064 L 20.531964123091292 18.04849580962849 L 20.517996630893713 17.949431587754276 L 20.50800384307361 17.849887853218036 L 20.502001762178764 17.750024016326165 L 20.5 17.650000000000006 " stroke="#191919" stroke-width="0.35 px" style="stroke-width:0.35;stroke-miterlimit:4;stroke-dasharray:none;stroke-linecap:square;fill:none;fill-opacity:1;fill-rule: evenodd"/>
<path id="Cut002_cs_w0006"  d="M 19.9 38.0 M 19.9 38.0 L 19.902001762178767 37.89997598367384 L 19.908003843073615 37.80011214678197 L 19.91799663089371 37.70056841224573 L 19.93196412309129 37.601504190371514 L 19.949883951988262 37.50307812356937 L 19.971727420596032 37.40544783230166 L 19.99745954857115 37.30876966266803 L 20.027039128233174 37.21319843603129 L 20.060418790555033 37.118887201084874 L 20.09754508102027 37.02598698875937 L 20.138358545225614 36.93464657035986 L 20.18279382409184 36.84501221932234 L 20.230779758530428 36.75722747696986 L 20.28223950339845 36.67143292264413 L 20.3370906505591 36.587765948580284 L 20.3952453608509 36.50636053988583 L 20.456610504754185 36.42734705997535 L 20.521087811529625 36.35085204180538 L 20.588574026589953 36.276997985243355 L 20.658961076852847 36.20590316089499 L 20.73213624381023 36.137681420704666 L 20.8079823440368 36.07244201563185 L 20.88637791684868 36.010289420695386 L 20.967197418811757 35.95132316766643 L 21.050311424788163 35.89563768567706 L 21.13558683519895 35.84332215000066 L 21.222887089171046 35.7944603392458 L 21.312072383227168 35.74913050119227 L 21.402999895168485 35.70740522748437 L 21.495524012791464 35.66935133738198 L 21.58949656707268 35.63502977075544 L 21.68476706944813 35.604495490495964 L 21.781182952807093 35.57779739449742 L 21.87858981581457 35.554978237350895 L 21.976831670171116 35.536074561876944 L 22.075751190413982 35.5211166406057 L 22.175189965859673 35.51012842729793 L 22.274988754284372 35.503127518585586 L 22.374987736935942 35.50012512579201 L 22.475026774469278 35.50112605697831 L 22.574945663394992 35.50612870924354 L 22.674584392630848 35.51512507129161 L 22.773783399745064 35.52810073626068 L 22.872383826481155 35.545034924794436 L 22.970227773155074 35.565900518318415 L 23.067158551517323 35.5906641024678 L 23.163020935675043 35.619286020597684 L 23.25766141067225 35.651720437289526 L 23.35092841833019 35.687915411752414 L 23.442672599954115 35.72781298100159 L 23.5327470355177 35.77134925268092 L 23.621007478942236 35.81845450738081 L 23.7073125890937 35.8690533102874 L 23.791524156127828 35.923064631984715 L 23.87350732282069 35.98040197821601 L 23.953130800530385 36.040973528396364 L 24.030267079443938 36.10468228265515 L 24.104792632772753 36.17142621717258 L 24.176588114569633 36.24109844756168 L 24.24553855085051 36.31358740003384 L 24.311533523714953 36.38877699007435 L 24.37446734817042 36.46654680834109 L 24.434239241377266 36.54677231348944 L 24.49075348404335 36.629325031613774 L 24.543919573709843 36.71407276198698 L 24.59365236968276 36.80087978876796 L 24.639872229378085 36.88960709833822 L 24.682505135862176 36.980112601919814 L 24.72148281638322 37.07225136311743 L 24.756742851703866 37.165875830021264 L 24.788228776060016 37.26083607149775 L 24.81589016758564 37.35698001729105 L 24.839682729058836 37.454153701549586 L 24.85956835883986 37.55220150938865 L 24.87551521188743 37.650966426093504 L 24.8874977507557 37.75029028856426 L 24.895496786490188 37.850014038599795 L 24.89949950935713 37.949977977615276 L 24.89949950935713 38.050022022384724 L 24.895496786490188 38.149985961400205 L 24.887497750755703 38.24970971143574 L 24.87551521188743 38.349033573906496 L 24.859568358839862 38.44779849061135 L 24.83968272905884 38.545846298450414 L 24.81589016758564 38.64301998270895 L 24.788228776060016 38.73916392850225 L 24.756742851703866 38.834124169978736 L 24.72148281638322 38.92774863688257 L 24.682505135862176 39.019887398080186 L 24.639872229378085 39.11039290166178 L 24.59365236968276 39.19912021123204 L 24.543919573709843 39.28592723801302 L 24.49075348404335 39.370674968386226 L 24.434239241377266 39.45322768651056 L 24.37446734817042 39.53345319165891 L 24.311533523714957 39.61122300992565 L 24.24553855085051 39.68641259996616 L 24.176588114569633 39.75890155243832 L 24.104792632772757 39.82857378282742 L 24.030267079443938 39.89531771734485 L 23.95313080053039 39.959026471603636 L 23.873507322820693 40.01959802178399 L 23.791524156127828 40.076935368015285 L 23.707312589093704 40.1309466897126 L 23.621007478942236 40.18154549261919 L 23.5327470355177 40.22865074731908 L 23.442672599954115 40.27218701899841 L 23.350928418330195 40.312084588247586 L 23.25766141067225 40.348279562710474 L 23.163020935675043 40.380713979402316 L 23.067158551517327 40.4093358975322 L 22.970227773155074 40.434099481681585 L 22.872383826481155 40.454965075205564 L 22.773783399745067 40.47189926373932 L 22.674584392630848 40.48487492870839 L 22.574945663394995 40.49387129075646 L 22.475026774469278 40.49887394302169 L 22.374987736935942 40.49987487420799 L 22.274988754284372 40.496872481414414 L 22.175189965859676 40.48987157270207 L 22.07575119041398 40.4788833593943 L 21.976831670171116 40.463925438123056 L 21.87858981581457 40.445021762649105 L 21.781182952807093 40.42220260550258 L 21.684767069448128 40.395504509504036 L 21.58949656707268 40.36497022924456 L 21.49552401279146 40.33064866261802 L 21.402999895168485 40.29259477251563 L 21.312072383227168 40.25086949880773 L 21.222887089171046 40.2055396607542 L 21.13558683519895 40.15667784999934 L 21.050311424788166 40.10436231432294 L 20.967197418811757 40.04867683233357 L 20.88637791684868 39.989710579304614 L 20.8079823440368 39.92755798436815 L 20.73213624381023 39.862318579295334 L 20.658961076852847 39.79409683910501 L 20.588574026589953 39.723002014756645 L 20.521087811529625 39.64914795819462 L 20.456610504754188 39.57265294002465 L 20.3952453608509 39.49363946011417 L 20.3370906505591 39.412234051419716 L 20.28223950339845 39.32856707735587 L 20.230779758530428 39.24277252303014 L 20.18279382409184 39.15498778067766 L 20.138358545225614 39.06535342964014 L 20.09754508102027 38.97401301124063 L 20.060418790555033 38.881112798915126 L 20.027039128233174 38.78680156396871 L 19.99745954857115 38.69123033733197 L 19.971727420596032 38.59455216769834 L 19.949883951988262 38.49692187643063 L 19.93196412309129 38.398495809628486 L 19.91799663089371 38.29943158775427 L 19.908003843073615 38.19988785321803 L 19.90200176217877 38.10002401632616 L 19.9 38.0 " stroke="#191919" stroke-width="0.35 px" style="stroke-width:0.35;stroke-miterlimit:4;stroke-dasharray:none;stroke-linecap:square;fill:none;fill-opacity:1;fill-rule: evenodd"/>
<path id="Cut002_cs_w0007"  d="M -27.7 75.4 L -27.7 85.5 L -15.7 85.5 L -15.700000000000003 75.4 L -27.700000000000003 75.4 " stroke="#191919" stroke-width="0.35 px" style="stroke-width:0.35;stroke-miterlimit:4;stroke-dasharray:none;stroke-linecap:square;fill:none;fill-opacity:1;fill-rule: evenodd"/>
<path id="Cut002_cs_w0008"  d="M -12.8 89.9 M -12.799999999999997 89.89999999999999 L -12.797998237821233 89.79997598367383 L -12.791996156926388 89.70011214678195 L -12.782003369106278 89.60056841224574 L -12.768035876908698 89.5015041903715 L -12.750116048011733 89.40307812356936 L -12.728272579403964 89.30544783230165 L -12.702540451428845 89.20876966266803 L -12.672960871766819 89.11319843603127 L -12.639581209444955 89.01888720108488 L -12.602454918979717 88.92598698875935 L -12.561641454774389 88.83464657035985 L -12.517206175908157 88.74501221932233 L -12.469220241469571 88.65722747696985 L -12.417760496601545 88.5714329226441 L -12.362909349440898 88.48776594858028 L -12.304754639149095 88.40636053988581 L -12.243389495245808 88.32734705997532 L -12.178912188470363 88.25085204180537 L -12.11142597341005 88.17699798524335 L -12.041038923147156 88.10590316089498 L -11.967863756189757 88.03768142070467 L -11.892017655963201 87.97244201563183 L -11.813622083151316 87.91028942069539 L -11.732802581188238 87.85132316766642 L -11.649688575211826 87.79563768567704 L -11.564413164801053 87.74332215000065 L -11.47711291082895 87.69446033924578 L -11.387927616772828 87.64913050119226 L -11.297000104831511 87.60740522748438 L -11.20447598720854 87.56935133738197 L -11.110503432927317 87.53502977075544 L -11.01523293055186 87.50449549049596 L -10.918817047192903 87.47779739449741 L -10.821410184185424 87.45497823735089 L -10.72316832982888 87.43607456187695 L -10.624248809586021 87.42111664060567 L -10.524810034140316 87.41012842729793 L -10.425011245715623 87.40312751858556 L -10.325012263064053 87.400125125792 L -10.224973225530718 87.40112605697831 L -10.125054336605004 87.40612870924353 L -10.025415607369155 87.4151250712916 L -9.926216600254932 87.42810073626066 L -9.827616173518848 87.44503492479444 L -9.72977222684493 87.46590051831839 L -9.632841448482665 87.49066410246779 L -9.536979064324953 87.51928602059768 L -9.442338589327747 87.55172043728952 L -9.349071581669804 87.5879154117524 L -9.257327400045881 87.62781298100157 L -9.167252964482302 87.67134925268091 L -9.078992521057756 87.7184545073808 L -8.9926874109063 87.76905331028738 L -8.908475843872168 87.82306463198472 L -8.826492677179303 87.880401978216 L -8.746869199469614 87.94097352839634 L -8.669732920556058 88.00468228265512 L -8.595207367227246 88.07142621717259 L -8.523411885430363 88.14109844756167 L -8.454461449149491 88.21358740003384 L -8.388466476285046 88.28877699007434 L -8.325532651829576 88.3665468083411 L -8.265760758622733 88.44677231348943 L -8.20924651595665 88.52932503161375 L -8.15608042629016 88.61407276198696 L -8.10634763031723 88.70087978876793 L -8.060127770621918 88.78960709833822 L -8.017494864137817 88.88011260191979 L -7.978517183616773 88.97225136311744 L -7.9432571482961265 89.06587583002124 L -7.911771223939979 89.16083607149774 L -7.884109832414353 89.25698001729103 L -7.860317270941152 89.35415370154958 L -7.840431641160137 89.45220150938866 L -7.824484788112571 89.5509664260935 L -7.8125022492442895 89.65029028856424 L -7.804503213509804 89.7500140385998 L -7.800500490642861 89.84997797761525 L -7.800500490642861 89.95002202238473 L -7.804503213509804 90.04998596140018 L -7.8125022492442895 90.14970971143575 L -7.824484788112571 90.24903357390649 L -7.840431641160137 90.34779849061132 L -7.860317270941152 90.4458462984504 L -7.884109832414353 90.54301998270896 L -7.911771223939979 90.63916392850224 L -7.9432571482961265 90.73412416997874 L -7.978517183616773 90.82774863688255 L -8.017494864137817 90.91988739808019 L -8.060127770621918 91.01039290166176 L -8.10634763031723 91.09912021123205 L -8.15608042629016 91.18592723801302 L -8.20924651595665 91.27067496838623 L -8.265760758622733 91.35322768651055 L -8.325532651829576 91.43345319165888 L -8.388466476285046 91.51122300992564 L -8.454461449149491 91.58641259996614 L -8.523411885430363 91.65890155243831 L -8.595207367227246 91.7285737828274 L -8.669732920556058 91.79531771734486 L -8.746869199469614 91.85902647160364 L -8.826492677179303 91.91959802178398 L -8.908475843872168 91.97693536801526 L -8.9926874109063 92.0309466897126 L -9.078992521057756 92.08154549261918 L -9.167252964482302 92.12865074731906 L -9.257327400045881 92.17218701899841 L -9.349071581669804 92.21208458824758 L -9.442338589327747 92.24827956271047 L -9.536979064324953 92.28071397940231 L -9.632841448482665 92.3093358975322 L -9.729772226844915 92.33409948168159 L -9.827616173518848 92.35496507520554 L -9.926216600254932 92.37189926373932 L -10.025415607369155 92.38487492870838 L -10.125054336605004 92.39387129075645 L -10.224973225530718 92.39887394302167 L -10.325012263064053 92.39987487420798 L -10.425011245715623 92.39687248141442 L -10.524810034140316 92.38987157270205 L -10.624248809586021 92.37888335939431 L -10.72316832982888 92.36392543812303 L -10.821410184185424 92.3450217626491 L -10.918817047192903 92.32220260550257 L -11.015232930551875 92.29550450950403 L -11.110503432927317 92.26497022924454 L -11.20447598720854 92.23064866261801 L -11.297000104831511 92.1925947725156 L -11.387927616772828 92.15086949880772 L -11.47711291082895 92.1055396607542 L -11.564413164801053 92.05667784999933 L -11.649688575211826 92.00436231432295 L -11.732802581188238 91.94867683233356 L -11.813622083151316 91.88971057930459 L -11.892017655963201 91.82755798436816 L -11.967863756189757 91.76231857929531 L -12.041038923147156 91.694096839105 L -12.11142597341005 91.62300201475664 L -12.178912188470363 91.54914795819461 L -12.243389495245808 91.47265294002466 L -12.304754639149095 91.39363946011417 L -12.362909349440898 91.31223405141971 L -12.417760496601545 91.22856707735588 L -12.469220241469571 91.14277252303013 L -12.517206175908157 91.05498778067765 L -12.561641454774389 90.96535342964013 L -12.602454918979717 90.87401301124063 L -12.639581209444955 90.78111279891512 L -12.672960871766819 90.68680156396871 L -12.702540451428845 90.59123033733196 L -12.728272579403964 90.49455216769833 L -12.750116048011733 90.39692187643062 L -12.768035876908698 90.29849580962848 L -12.782003369106278 90.19943158775426 L -12.791996156926388 90.09988785321804 L -12.797998237821233 90.00002401632615 L -12.799999999999997 89.89999999999999 " stroke="#191919" stroke-width="0.35 px" style="stroke-width:0.35;stroke-miterlimit:4;stroke-dasharray:none;stroke-linecap:square;fill:none;fill-opacity:1;fill-rule: evenodd"/>
<path id="Cut002_cs_w0009"  d="M -27.8 114.1 M -27.799999999999997 114.10000000000001 L -27.797998237821233 113.99997598367385 L -27.791996156926388 113.90011214678196 L -27.782003369106278 113.80056841224574 L -27.768035876908698 113.70150419037151 L -27.750116048011733 113.60307812356938 L -27.728272579403964 113.50544783230167 L -27.702540451428845 113.40876966266804 L -27.67296087176682 113.31319843603129 L -27.639581209444955 113.21888720108488 L -27.602454918979717 113.12598698875937 L -27.56164145477439 113.03464657035987 L -27.517206175908157 112.94501221932235 L -27.46922024146957 112.85722747696987 L -27.417760496601545 112.77143292264412 L -27.362909349440898 112.68776594858029 L -27.304754639149095 112.60636053988583 L -27.243389495245808 112.52734705997534 L -27.178912188470363 112.45085204180539 L -27.11142597341005 112.37699798524335 L -27.041038923147156 112.30590316089499 L -26.967863756189757 112.23768142070467 L -26.8920176559632 112.17244201563184 L -26.813622083151316 112.11028942069541 L -26.73280258118824 112.05132316766644 L -26.649688575211826 111.99563768567705 L -26.564413164801053 111.94332215000065 L -26.47711291082895 111.8944603392458 L -26.387927616772828 111.84913050119226 L -26.29700010483151 111.8074052274844 L -26.20447598720854 111.76935133738199 L -26.110503432927317 111.73502977075546 L -26.01523293055186 111.70449549049596 L -25.918817047192903 111.67779739449743 L -25.821410184185424 111.6549782373509 L -25.72316832982888 111.63607456187697 L -25.62424880958602 111.62111664060569 L -25.524810034140316 111.61012842729795 L -25.425011245715623 111.60312751858558 L -25.325012263064053 111.60012512579202 L -25.224973225530718 111.60112605697833 L -25.125054336605004 111.60612870924355 L -25.025415607369155 111.61512507129162 L -24.926216600254932 111.62810073626068 L -24.827616173518848 111.64503492479444 L -24.72977222684493 111.66590051831841 L -24.632841448482665 111.6906641024678 L -24.536979064324953 111.71928602059769 L -24.442338589327747 111.75172043728953 L -24.349071581669804 111.78791541175241 L -24.25732740004588 111.82781298100159 L -24.1672529644823 111.87134925268093 L -24.078992521057756 111.9184545073808 L -23.9926874109063 111.96905331028739 L -23.908475843872168 112.02306463198474 L -23.826492677179303 112.08040197821602 L -23.746869199469614 112.14097352839636 L -23.669732920556058 112.20468228265514 L -23.595207367227246 112.2714262171726 L -23.523411885430363 112.34109844756169 L -23.45446144914949 112.41358740003386 L -23.388466476285046 112.48877699007434 L -23.325532651829576 112.5665468083411 L -23.265760758622733 112.64677231348944 L -23.20924651595665 112.72932503161377 L -23.15608042629016 112.81407276198698 L -23.10634763031723 112.90087978876795 L -23.060127770621918 112.98960709833824 L -23.017494864137817 113.08011260191981 L -22.978517183616773 113.17225136311745 L -22.943257148296127 113.26587583002126 L -22.91177122393998 113.36083607149776 L -22.884109832414353 113.45698001729104 L -22.860317270941152 113.5541537015496 L -22.840431641160137 113.65220150938866 L -22.82448478811257 113.75096642609351 L -22.81250224924429 113.85029028856425 L -22.804503213509804 113.95001403859982 L -22.80050049064286 114.04997797761527 L -22.80050049064286 114.15002202238475 L -22.804503213509804 114.2499859614002 L -22.81250224924429 114.34970971143576 L -22.82448478811257 114.44903357390649 L -22.840431641160137 114.54779849061134 L -22.860317270941152 114.64584629845042 L -22.884109832414353 114.74301998270897 L -22.91177122393998 114.83916392850224 L -22.943257148296127 114.93412416997876 L -22.978517183616773 115.02774863688256 L -23.017494864137817 115.1198873980802 L -23.060127770621918 115.21039290166178 L -23.10634763031723 115.29912021123207 L -23.15608042629016 115.38592723801302 L -23.20924651595665 115.47067496838623 L -23.265760758622733 115.55322768651057 L -23.325532651829576 115.6334531916589 L -23.388466476285046 115.71122300992566 L -23.45446144914949 115.78641259996616 L -23.523411885430363 115.85890155243833 L -23.595207367227246 115.92857378282741 L -23.669732920556058 115.99531771734486 L -23.746869199469614 116.05902647160366 L -23.826492677179303 116.11959802178399 L -23.908475843872168 116.17693536801528 L -23.9926874109063 116.23094668971261 L -24.078992521057756 116.2815454926192 L -24.1672529644823 116.32865074731907 L -24.25732740004588 116.37218701899843 L -24.349071581669804 116.4120845882476 L -24.442338589327747 116.44827956271048 L -24.536979064324953 116.48071397940231 L -24.632841448482665 116.50933589753221 L -24.729772226844915 116.53409948168161 L -24.827616173518848 116.55496507520556 L -24.926216600254932 116.57189926373933 L -25.025415607369155 116.5848749287084 L -25.125054336605004 116.59387129075647 L -25.224973225530718 116.59887394302169 L -25.325012263064053 116.599874874208 L -25.425011245715623 116.59687248141444 L -25.524810034140316 116.58987157270207 L -25.62424880958602 116.57888335939433 L -25.72316832982888 116.56392543812305 L -25.821410184185424 116.5450217626491 L -25.918817047192903 116.52220260550257 L -26.015232930551875 116.49550450950404 L -26.110503432927317 116.46497022924456 L -26.20447598720854 116.43064866261801 L -26.29700010483151 116.39259477251562 L -26.387927616772828 116.35086949880774 L -26.47711291082895 116.30553966075422 L -26.564413164801053 116.25667784999935 L -26.649688575211826 116.20436231432296 L -26.73280258118824 116.14867683233358 L -26.813622083151316 116.08971057930461 L -26.8920176559632 116.02755798436817 L -26.967863756189757 115.96231857929533 L -27.041038923147156 115.89409683910502 L -27.11142597341005 115.82300201475665 L -27.178912188470363 115.74914795819463 L -27.243389495245808 115.67265294002468 L -27.304754639149095 115.59363946011418 L -27.362909349440898 115.51223405141971 L -27.417760496601545 115.4285670773559 L -27.46922024146957 115.34277252303013 L -27.517206175908157 115.25498778067765 L -27.56164145477439 115.16535342964013 L -27.602454918979717 115.07401301124065 L -27.639581209444955 114.98111279891512 L -27.67296087176682 114.88680156396873 L -27.702540451428845 114.79123033733197 L -27.728272579403964 114.69455216769835 L -27.750116048011733 114.59692187643064 L -27.768035876908698 114.4984958096285 L -27.782003369106278 114.39943158775426 L -27.791996156926388 114.29988785321804 L -27.797998237821233 114.20002401632617 L -27.799999999999997 114.10000000000001 " stroke="#191919" stroke-width="0.35 px" style="stroke-width:0.35;stroke-miterlimit:4;stroke-dasharray:none;stroke-linecap:square;fill:none;fill-opacity:1;fill-rule: evenodd"/>
<path id="Cut002_cs_w0010"  d="M 12.75 75.4 L 12.75 85.5 L 24.75 85.5 L 24.75 75.4 L 12.75 75.4 " stroke="#191919" stroke-width="0.35 px" style="stroke-width:0.35;stroke-miterlimit:4;stroke-dasharray:none;stroke-linecap:square;fill:none;fill-opacity:1;fill-rule: evenodd"/>
<path id="Cut002_cs_w0011"  d="M 14.95 89.9 M 14.950000000000003 89.89999999999999 L 14.95200176217877 89.79997598367383 L 14.958003843073616 89.70011214678195 L 14.967996630893715 89.60056841224574 L 14.981964123091295 89.5015041903715 L 14.999883951988263 89.40307812356936 L 15.021727420596033 89.30544783230165 L 15.047459548571155 89.20876966266803 L 15.077039128233178 89.11319843603127 L 15.110418790555038 89.01888720108488 L 15.147545081020276 88.92598698875935 L 15.188358545225618 88.83464657035985 L 15.23279382409184 88.74501221932233 L 15.280779758530429 88.65722747696985 L 15.332239503398455 88.5714329226441 L 15.387090650559102 88.48776594858028 L 15.445245360850905 88.40636053988581 L 15.506610504754189 88.32734705997532 L 15.57108781152963 88.25085204180537 L 15.638574026589957 88.17699798524335 L 15.708961076852848 88.10590316089498 L 15.782136243810235 88.03768142070467 L 15.857982344036806 87.97244201563183 L 15.93637791684868 87.91028942069539 L 16.01719741881176 87.85132316766642 L 16.100311424788167 87.79563768567704 L 16.185586835198954 87.74332215000065 L 16.272887089171046 87.69446033924578 L 16.36207238322717 87.64913050119226 L 16.452999895168485 87.60740522748438 L 16.545524012791464 87.56935133738197 L 16.63949656707268 87.53502977075544 L 16.734767069448132 87.50449549049596 L 16.831182952807097 87.47779739449741 L 16.928589815814576 87.45497823735089 L 17.026831670171116 87.43607456187695 L 17.125751190413983 87.42111664060567 L 17.225189965859677 87.41012842729793 L 17.324988754284373 87.40312751858556 L 17.424987736935943 87.400125125792 L 17.525026774469282 87.40112605697831 L 17.624945663394996 87.40612870924353 L 17.724584392630852 87.4151250712916 L 17.823783399745068 87.42810073626066 L 17.922383826481155 87.44503492479444 L 18.020227773155078 87.46590051831839 L 18.117158551517328 87.49066410246779 L 18.213020935675047 87.51928602059768 L 18.30766141067225 87.55172043728952 L 18.400928418330196 87.5879154117524 L 18.49267259995412 87.62781298100157 L 18.582747035517702 87.67134925268091 L 18.671007478942236 87.7184545073808 L 18.757312589093704 87.76905331028738 L 18.84152415612783 87.82306463198472 L 18.92350732282069 87.880401978216 L 19.00313080053039 87.94097352839634 L 19.080267079443942 88.00468228265512 L 19.154792632772757 88.07142621717259 L 19.226588114569633 88.14109844756167 L 19.295538550850516 88.21358740003384 L 19.361533523714957 88.28877699007434 L 19.424467348170424 88.3665468083411 L 19.484239241377267 88.44677231348943 L 19.54075348404335 88.52932503161375 L 19.593919573709847 88.61407276198696 L 19.643652369682762 88.70087978876793 L 19.68987222937809 88.78960709833822 L 19.73250513586218 88.88011260191979 L 19.77148281638322 88.97225136311744 L 19.806742851703866 89.06587583002124 L 19.83822877606002 89.16083607149774 L 19.86589016758564 89.25698001729103 L 19.88968272905884 89.35415370154958 L 19.909568358839863 89.45220150938866 L 19.925515211887433 89.5509664260935 L 19.937497750755703 89.65029028856424 L 19.945496786490192 89.7500140385998 L 19.949499509357135 89.84997797761525 L 19.949499509357135 89.95002202238473 L 19.945496786490192 90.04998596140018 L 19.937497750755703 90.14970971143575 L 19.925515211887433 90.24903357390649 L 19.909568358839863 90.34779849061132 L 19.88968272905884 90.4458462984504 L 19.86589016758564 90.54301998270896 L 19.83822877606002 90.63916392850224 L 19.80674285170387 90.73412416997874 L 19.77148281638322 90.82774863688255 L 19.73250513586218 90.91988739808019 L 19.68987222937809 91.01039290166176 L 19.643652369682766 91.09912021123205 L 19.593919573709847 91.18592723801302 L 19.54075348404335 91.27067496838623 L 19.484239241377267 91.35322768651055 L 19.424467348170424 91.43345319165888 L 19.361533523714957 91.51122300992564 L 19.295538550850516 91.58641259996614 L 19.226588114569633 91.65890155243831 L 19.154792632772757 91.7285737828274 L 19.080267079443942 91.79531771734486 L 19.00313080053039 91.85902647160364 L 18.923507322820694 91.91959802178398 L 18.84152415612783 91.97693536801526 L 18.757312589093704 92.0309466897126 L 18.67100747894224 92.08154549261918 L 18.582747035517706 92.12865074731906 L 18.49267259995412 92.17218701899841 L 18.400928418330196 92.21208458824758 L 18.30766141067225 92.24827956271047 L 18.213020935675047 92.28071397940231 L 18.117158551517328 92.3093358975322 L 18.020227773155078 92.33409948168159 L 17.92238382648116 92.35496507520554 L 17.82378339974507 92.37189926373932 L 17.724584392630852 92.38487492870838 L 17.624945663394996 92.39387129075645 L 17.525026774469282 92.39887394302167 L 17.424987736935943 92.39987487420798 L 17.324988754284373 92.39687248141442 L 17.225189965859677 92.38987157270205 L 17.125751190413983 92.37888335939431 L 17.026831670171116 92.36392543812303 L 16.928589815814576 92.3450217626491 L 16.831182952807097 92.32220260550257 L 16.734767069448132 92.29550450950403 L 16.63949656707268 92.26497022924454 L 16.545524012791464 92.23064866261801 L 16.452999895168485 92.1925947725156 L 16.36207238322717 92.15086949880772 L 16.272887089171046 92.1055396607542 L 16.185586835198954 92.05667784999933 L 16.100311424788167 92.00436231432295 L 16.017197418811758 91.94867683233356 L 15.936377916848684 91.88971057930459 L 15.857982344036802 91.82755798436816 L 15.782136243810235 91.76231857929531 L 15.708961076852848 91.694096839105 L 15.638574026589957 91.62300201475664 L 15.57108781152963 91.54914795819461 L 15.506610504754189 91.47265294002466 L 15.445245360850905 91.39363946011417 L 15.387090650559106 91.31223405141971 L 15.332239503398455 91.22856707735588 L 15.280779758530432 91.14277252303013 L 15.23279382409184 91.05498778067765 L 15.188358545225618 90.96535342964013 L 15.147545081020276 90.87401301124063 L 15.110418790555038 90.78111279891512 L 15.077039128233178 90.68680156396871 L 15.047459548571155 90.59123033733196 L 15.021727420596033 90.49455216769833 L 14.999883951988267 90.39692187643062 L 14.981964123091295 90.29849580962848 L 14.967996630893715 90.19943158775426 L 14.958003843073616 90.09988785321804 L 14.95200176217877 90.00002401632615 L 14.950000000000003 89.89999999999999 " stroke="#191919" stroke-width="0.35 px" style="stroke-width:0.35;stroke-miterlimit:4;stroke-dasharray:none;stroke-linecap:square;fill:none;fill-opacity:1;fill-rule: evenodd"/>
<path id="Cut002_cs_w0012"  d="M 19.9 120.0 M 19.9 120.0 L 19.902001762178767 119.89997598367384 L 19.908003843073615 119.80011214678197 L 19.91799663089371 119.70056841224573 L 19.93196412309129 119.60150419037151 L 19.949883951988262 119.50307812356937 L 19.971727420596032 119.40544783230166 L 19.99745954857115 119.30876966266803 L 20.027039128233174 119.21319843603128 L 20.060418790555033 119.11888720108487 L 20.09754508102027 119.02598698875936 L 20.138358545225614 118.93464657035986 L 20.18279382409184 118.84501221932234 L 20.230779758530428 118.75722747696986 L 20.28223950339845 118.67143292264412 L 20.3370906505591 118.58776594858028 L 20.3952453608509 118.50636053988583 L 20.456610504754185 118.42734705997533 L 20.521087811529625 118.35085204180538 L 20.588574026589953 118.27699798524336 L 20.658961076852847 118.20590316089499 L 20.73213624381023 118.13768142070467 L 20.8079823440368 118.07244201563184 L 20.88637791684868 118.0102894206954 L 20.967197418811757 117.95132316766643 L 21.050311424788163 117.89563768567704 L 21.13558683519895 117.84332215000066 L 21.222887089171046 117.7944603392458 L 21.312072383227168 117.74913050119227 L 21.402999895168485 117.70740522748437 L 21.495524012791464 117.66935133738198 L 21.58949656707268 117.63502977075545 L 21.68476706944813 117.60449549049596 L 21.781182952807093 117.57779739449742 L 21.87858981581457 117.5549782373509 L 21.976831670171116 117.53607456187696 L 22.075751190413982 117.52111664060568 L 22.175189965859673 117.51012842729794 L 22.274988754284372 117.50312751858557 L 22.374987736935942 117.50012512579201 L 22.475026774469278 117.50112605697831 L 22.574945663394992 117.50612870924354 L 22.674584392630848 117.5151250712916 L 22.773783399745064 117.52810073626068 L 22.872383826481155 117.54503492479444 L 22.970227773155074 117.56590051831841 L 23.067158551517323 117.5906641024678 L 23.163020935675043 117.61928602059768 L 23.25766141067225 117.65172043728953 L 23.35092841833019 117.68791541175241 L 23.442672599954115 117.72781298100158 L 23.5327470355177 117.77134925268092 L 23.621007478942236 117.8184545073808 L 23.7073125890937 117.8690533102874 L 23.791524156127828 117.92306463198473 L 23.87350732282069 117.98040197821601 L 23.953130800530385 118.04097352839635 L 24.030267079443938 118.10468228265515 L 24.104792632772753 118.1714262171726 L 24.176588114569633 118.24109844756168 L 24.24553855085051 118.31358740003385 L 24.311533523714953 118.38877699007435 L 24.37446734817042 118.46654680834109 L 24.434239241377266 118.54677231348944 L 24.49075348404335 118.62932503161377 L 24.543919573709843 118.71407276198698 L 24.59365236968276 118.80087978876794 L 24.639872229378085 118.88960709833823 L 24.682505135862176 118.9801126019198 L 24.72148281638322 119.07225136311745 L 24.756742851703866 119.16587583002125 L 24.788228776060016 119.26083607149775 L 24.81589016758564 119.35698001729104 L 24.839682729058836 119.45415370154959 L 24.85956835883986 119.55220150938865 L 24.87551521188743 119.6509664260935 L 24.8874977507557 119.75029028856424 L 24.895496786490188 119.85001403859981 L 24.89949950935713 119.94997797761526 L 24.89949950935713 120.05002202238474 L 24.895496786490188 120.14998596140019 L 24.887497750755703 120.24970971143576 L 24.87551521188743 120.3490335739065 L 24.859568358839862 120.44779849061133 L 24.83968272905884 120.54584629845041 L 24.81589016758564 120.64301998270896 L 24.788228776060016 120.73916392850225 L 24.756742851703866 120.83412416997875 L 24.72148281638322 120.92774863688255 L 24.682505135862176 121.0198873980802 L 24.639872229378085 121.11039290166177 L 24.59365236968276 121.19912021123206 L 24.543919573709843 121.28592723801302 L 24.49075348404335 121.37067496838623 L 24.434239241377266 121.45322768651056 L 24.37446734817042 121.53345319165891 L 24.311533523714957 121.61122300992565 L 24.24553855085051 121.68641259996615 L 24.176588114569633 121.75890155243832 L 24.104792632772757 121.8285737828274 L 24.030267079443938 121.89531771734485 L 23.95313080053039 121.95902647160365 L 23.873507322820693 122.01959802178399 L 23.791524156127828 122.07693536801527 L 23.707312589093704 122.1309466897126 L 23.621007478942236 122.1815454926192 L 23.5327470355177 122.22865074731908 L 23.442672599954115 122.27218701899842 L 23.350928418330195 122.31208458824759 L 23.25766141067225 122.34827956271047 L 23.163020935675043 122.38071397940232 L 23.067158551517327 122.4093358975322 L 22.970227773155074 122.4340994816816 L 22.872383826481155 122.45496507520556 L 22.773783399745067 122.47189926373933 L 22.674584392630848 122.4848749287084 L 22.574945663394995 122.49387129075646 L 22.475026774469278 122.49887394302168 L 22.374987736935942 122.49987487420799 L 22.274988754284372 122.49687248141443 L 22.175189965859676 122.48987157270206 L 22.07575119041398 122.47888335939432 L 21.976831670171116 122.46392543812304 L 21.87858981581457 122.4450217626491 L 21.781182952807093 122.42220260550258 L 21.684767069448128 122.39550450950404 L 21.58949656707268 122.36497022924455 L 21.49552401279146 122.33064866261802 L 21.402999895168485 122.29259477251561 L 21.312072383227168 122.25086949880773 L 21.222887089171046 122.20553966075421 L 21.13558683519895 122.15667784999934 L 21.050311424788166 122.10436231432296 L 20.967197418811757 122.04867683233357 L 20.88637791684868 121.9897105793046 L 20.8079823440368 121.92755798436816 L 20.73213624381023 121.86231857929533 L 20.658961076852847 121.79409683910501 L 20.588574026589953 121.72300201475664 L 20.521087811529625 121.64914795819462 L 20.456610504754188 121.57265294002467 L 20.3952453608509 121.49363946011417 L 20.3370906505591 121.41223405141972 L 20.28223950339845 121.32856707735588 L 20.230779758530428 121.24277252303014 L 20.18279382409184 121.15498778067766 L 20.138358545225614 121.06535342964014 L 20.09754508102027 120.97401301124064 L 20.060418790555033 120.88111279891513 L 20.027039128233174 120.78680156396872 L 19.99745954857115 120.69123033733197 L 19.971727420596032 120.59455216769834 L 19.949883951988262 120.49692187643063 L 19.93196412309129 120.39849580962849 L 19.91799663089371 120.29943158775427 L 19.908003843073615 120.19988785321804 L 19.90200176217877 120.10002401632616 L 19.9 120.0 " stroke="#191919" stroke-width="0.35 px" style="stroke-width:0.35;stroke-miterlimit:4;stroke-dasharray:none;stroke-linecap:square;fill:none;fill-opacity:1;fill-rule: evenodd"/>
<path id="Cut002_cs_w0014"  d="M -26.950000000000006 17.650000000000006 M -26.950000000000006 17.650000000000006 L -26.945791431099412 17.750413411998778 L -26.93319524448461 17.850122496059328 L -26.91229979335436 17.948427864597832 L -26.88325164428498 18.0446399760863 L -26.846254549171125 18.13808397169096 L -26.801568016052638 18.228104408922064 L -26.749505488852126 18.314069859092015 L -26.690432148791015 18.39537733633398 L -26.624762352905694 18.471456527114427 L -26.552956727630633 18.541773790572876 L -26.475518937834853 18.605835901629035 L -26.3929921539748 18.663193510602426 L -26.305955242143835 18.713444295077466 L -26.215018703742526 18.756235781906213 L -26.12082039324994 18.791267819554193 L -26.02402104413279 18.818294683447803 L -25.925299634274896 18.83712679955559 L -25.82534862343518 18.847632074113932 L -25.724869096139972 18.849736820169824 L -25.62456584407882 18.84342627444194 L -25.525142422497137 18.828744700874438 L -25.427296215261688 18.805795080157196 L -25.331713543213827 18.774738387390272 L -25.239064850121917 18.735792462959225 L -25.150000000000002 18.689230484541326 L -25.06514371877869 18.635379050960452 L -24.985091212301572 18.57461589133095 L -24.910403991383962 18.50736721555937 L -24.841605933217895 18.434104724788128 L -24.779179606750066 18.35534230275097 L -24.723562887807393 18.271632411247765 L -24.675145887712706 18.183562215021922 L -24.6342682169341 18.091749463221618 L -24.601216602961525 17.996838156333368 L -24.576222879119438 17.899494028981323 L -24.559462358422632 17.80039988027717 L -24.55105260388137 17.700250784475045 L -24.55105260388137 17.599749215524966 L -24.559462358422632 17.499600119722842 L -24.576222879119438 17.40050597101869 L -24.601216602961525 17.303161843666643 L -24.6342682169341 17.208250536778394 L -24.675145887712706 17.11643778497809 L -24.723562887807393 17.028367588752246 L -24.779179606750066 16.944657697249042 L -24.841605933217895 16.865895275211884 L -24.910403991383962 16.79263278444064 L -24.98509121230158 16.72538410866906 L -25.065143718778682 16.66462094903956 L -25.150000000000002 16.610769515458685 L -25.239064850121917 16.564207537040787 L -25.331713543213827 16.52526161260974 L -25.427296215261688 16.494204919842815 L -25.525142422497137 16.471255299125573 L -25.62456584407882 16.456573725558073 L -25.724869096139972 16.450263179830188 L -25.82534862343518 16.45236792588608 L -25.925299634274896 16.46287320044442 L -26.02402104413279 16.48170531655221 L -26.12082039324994 16.50873218044582 L -26.215018703742526 16.5437642180938 L -26.305955242143835 16.586555704922546 L -26.3929921539748 16.636806489397586 L -26.475518937834853 16.694164098370976 L -26.552956727630633 16.758226209427136 L -26.624762352905694 16.828543472885585 L -26.690432148791007 16.904622663666032 L -26.749505488852126 16.985930140907996 L -26.801568016052638 17.071895591077947 L -26.846254549171125 17.16191602830905 L -26.88325164428498 17.25536002391371 L -26.91229979335436 17.35157213540218 L -26.93319524448461 17.449877503940684 L -26.945791431099412 17.549586588001233 L -26.950000000000006 17.650000000000006 " stroke="#191919" stroke-width="0.35 px" style="stroke-width:0.35;stroke-miterlimit:4;stroke-dasharray:none;stroke-linecap:square;fill:none;fill-opacity:1;fill-rule: evenodd"/>
<path id="Cut002_cs_w0016"  d="M -26.500000000000004 39.0 M -26.500000000000004 39.0 L -26.49579143109941 39.10041341199877 L -26.48319524448461 39.20012249605932 L -26.462299793354358 39.298427864597826 L -26.433251644284976 39.394639976086296 L -26.396254549171122 39.488083971690955 L -26.351568016052635 39.57810440892206 L -26.299505488852123 39.66406985909201 L -26.24043214879101 39.74537733633397 L -26.17476235290569 39.82145652711442 L -26.10295672763063 39.89177379057287 L -26.02551893783485 39.95583590162903 L -25.942992153974796 40.01319351060242 L -25.855955242143832 40.06344429507746 L -25.765018703742523 40.10623578190621 L -25.670820393249937 40.14126781955419 L -25.574021044132788 40.1682946834478 L -25.475299634274894 40.187126799555585 L -25.375348623435176 40.197632074113926 L -25.27486909613997 40.19973682016982 L -25.174565844078817 40.19342627444193 L -25.075142422497134 40.17874470087443 L -24.977296215261685 40.15579508015719 L -24.881713543213824 40.124738387390266 L -24.789064850121914 40.08579246295922 L -24.7 40.03923048454132 L -24.615143718778686 39.98537905096045 L -24.53509121230157 39.924615891330944 L -24.46040399138396 39.857367215559364 L -24.391605933217892 39.78410472478812 L -24.329179606750063 39.705342302750964 L -24.27356288780739 39.62163241124776 L -24.225145887712703 39.53356221502192 L -24.184268216934097 39.44174946322161 L -24.151216602961522 39.34683815633336 L -24.126222879119435 39.24949402898132 L -24.10946235842263 39.15039988027716 L -24.101052603881367 39.05025078447504 L -24.101052603881367 38.94974921552496 L -24.10946235842263 38.84960011972284 L -24.126222879119435 38.75050597101868 L -24.151216602961522 38.65316184366664 L -24.184268216934097 38.55825053677839 L -24.225145887712703 38.46643778497808 L -24.27356288780739 38.37836758875224 L -24.329179606750063 38.294657697249036 L -24.391605933217892 38.21589527521188 L -24.46040399138396 38.142632784440636 L -24.535091212301577 38.075384108669056 L -24.61514371877868 38.01462094903955 L -24.7 37.96076951545868 L -24.789064850121914 37.91420753704078 L -24.881713543213824 37.875261612609734 L -24.977296215261685 37.84420491984281 L -25.075142422497134 37.82125529912557 L -25.174565844078817 37.80657372555807 L -25.27486909613997 37.80026317983018 L -25.375348623435176 37.802367925886074 L -25.475299634274894 37.812873200444415 L -25.574021044132788 37.8317053165522 L -25.670820393249937 37.85873218044581 L -25.765018703742523 37.89376421809379 L -25.855955242143832 37.93655570492254 L -25.942992153974796 37.98680648939758 L -26.02551893783485 38.04416409837097 L -26.10295672763063 38.10822620942713 L -26.17476235290569 38.17854347288558 L -26.240432148791005 38.25462266366603 L -26.299505488852123 38.33593014090799 L -26.351568016052635 38.42189559107794 L -26.396254549171122 38.511916028309045 L -26.433251644284976 38.605360023913704 L -26.462299793354358 38.701572135402174 L -26.48319524448461 38.79987750394068 L -26.49579143109941 38.89958658800123 L -26.500000000000004 39.0 " stroke="#191919" stroke-width="0.35 px" style="stroke-width:0.35;stroke-miterlimit:4;stroke-dasharray:none;stroke-linecap:square;fill:none;fill-opacity:1;fill-rule: evenodd"/>
<path id="Cut002_cs_w0017"  d="M 19.6 19.900000000000006 L 19.6 21.400000000000006 L -22.2 21.400000000000006 L -22.200000000000003 19.900000000000006 L 19.6 19.900000000000006 " stroke="#191919" stroke-width="0.35 px" style="stroke-width:0.35;stroke-miterlimit:4;stroke-dasharray:none;stroke-linecap:square;fill:none;fill-opacity:1;fill-rule: evenodd"/>
<path id="Cut002_cs_w0018"  d="M 19.6 24.400000000000006 L 19.6 25.900000000000006 L -22.2 25.900000000000006 L -22.200000000000003 24.400000000000006 L 19.6 24.400000000000006 " stroke="#191919" stroke-width="0.35 px" style="stroke-width:0.35;stroke-miterlimit:4;stroke-dasharray:none;stroke-linecap:square;fill:none;fill-opacity:1;fill-rule: evenodd"/>
<path id="Cut002_cs_w0020"  d="M 21.799999999999997 17.650000000000006 M 21.799999999999997 17.650000000000006 L 21.804208568900595 17.750413411998778 L 21.816804755515392 17.850122496059328 L 21.837700206645643 17.948427864597832 L 21.86674835571502 18.0446399760863 L 21.90374545082888 18.13808397169096 L 21.948431983947362 18.228104408922064 L 22.000494511147878 18.314069859092015 L 22.059567851208993 18.39537733633398 L 22.125237647094306 18.471456527114427 L 22.19704327236937 18.541773790572876 L 22.27448106216515 18.605835901629035 L 22.357007846025205 18.663193510602426 L 22.444044757856165 18.713444295077466 L 22.534981296257477 18.756235781906213 L 22.629179606750064 18.791267819554193 L 22.725978955867213 18.818294683447803 L 22.824700365725107 18.83712679955559 L 22.924651376564825 18.847632074113932 L 23.025130903860028 18.849736820169824 L 23.125434155921184 18.84342627444194 L 23.224857577502867 18.828744700874438 L 23.322703784738316 18.805795080157196 L 23.418286456786177 18.774738387390272 L 23.510935149878087 18.735792462959225 L 23.599999999999998 18.689230484541326 L 23.684856281221318 18.635379050960452 L 23.764908787698428 18.57461589133095 L 23.839596008616038 18.50736721555937 L 23.908394066782108 18.434104724788128 L 23.970820393249937 18.35534230275097 L 24.026437112192607 18.271632411247765 L 24.074854112287294 18.183562215021922 L 24.1157317830659 18.091749463221618 L 24.14878339703848 17.996838156333368 L 24.173777120880565 17.899494028981323 L 24.19053764157737 17.80039988027717 L 24.19894739611863 17.700250784475045 L 24.19894739611863 17.599749215524966 L 24.19053764157737 17.499600119722842 L 24.173777120880565 17.40050597101869 L 24.14878339703848 17.303161843666643 L 24.1157317830659 17.208250536778394 L 24.074854112287294 17.11643778497809 L 24.026437112192607 17.028367588752246 L 23.970820393249937 16.944657697249042 L 23.908394066782108 16.865895275211884 L 23.839596008616038 16.79263278444064 L 23.764908787698428 16.72538410866906 L 23.684856281221318 16.66462094903956 L 23.6 16.610769515458685 L 23.510935149878087 16.564207537040787 L 23.418286456786177 16.52526161260974 L 23.32270378473832 16.494204919842815 L 23.224857577502867 16.471255299125573 L 23.125434155921184 16.456573725558073 L 23.025130903860028 16.450263179830188 L 22.924651376564825 16.45236792588608 L 22.824700365725107 16.46287320044442 L 22.725978955867213 16.48170531655221 L 22.629179606750064 16.50873218044582 L 22.534981296257477 16.5437642180938 L 22.444044757856165 16.586555704922546 L 22.357007846025205 16.636806489397586 L 22.27448106216515 16.694164098370976 L 22.19704327236937 16.758226209427136 L 22.125237647094306 16.828543472885585 L 22.059567851208993 16.904622663666032 L 22.000494511147878 16.985930140907996 L 21.948431983947362 17.071895591077947 L 21.90374545082888 17.16191602830905 L 21.86674835571502 17.25536002391371 L 21.837700206645643 17.35157213540218 L 21.816804755515392 17.449877503940684 L 21.804208568900595 17.549586588001233 L 21.799999999999997 17.650000000000006 " stroke="#191919" stroke-width="0.35 px" style="stroke-width:0.35;stroke-miterlimit:4;stroke-dasharray:none;stroke-linecap:square;fill:none;fill-opacity:1;fill-rule: evenodd"/>
<path id="Cut002_cs_w0022"  d="M 21.2 38.0 M 21.2 38.0 L 21.204208568900594 38.10041341199877 L 21.216804755515394 38.20012249605932 L 21.23770020664564 38.298427864597826 L 21.266748355715023 38.394639976086296 L 21.303745450828877 38.488083971690955 L 21.348431983947364 38.57810440892206 L 21.40049451114788 38.66406985909201 L 21.45956785120899 38.74537733633397 L 21.525237647094308 38.82145652711442 L 21.59704327236937 38.89177379057287 L 21.67448106216515 38.95583590162903 L 21.757007846025203 39.01319351060242 L 21.844044757856167 39.06344429507746 L 21.934981296257476 39.10623578190621 L 22.029179606750063 39.14126781955419 L 22.12597895586721 39.1682946834478 L 22.224700365725106 39.187126799555585 L 22.324651376564823 39.197632074113926 L 22.42513090386003 39.19973682016982 L 22.525434155921182 39.19342627444193 L 22.62485757750287 39.17874470087443 L 22.722703784738318 39.15579508015719 L 22.818286456786176 39.124738387390266 L 22.910935149878085 39.08579246295922 L 23.0 39.03923048454132 L 23.084856281221317 38.98537905096045 L 23.164908787698426 38.924615891330944 L 23.239596008616036 38.857367215559364 L 23.308394066782107 38.78410472478812 L 23.370820393249936 38.705342302750964 L 23.42643711219261 38.62163241124776 L 23.474854112287296 38.53356221502192 L 23.515731783065903 38.44174946322161 L 23.54878339703848 38.34683815633336 L 23.573777120880568 38.24949402898132 L 23.590537641577374 38.15039988027716 L 23.59894739611863 38.05025078447504 L 23.59894739611863 37.94974921552496 L 23.590537641577374 37.84960011972284 L 23.573777120880568 37.75050597101868 L 23.54878339703848 37.65316184366664 L 23.515731783065903 37.55825053677839 L 23.474854112287296 37.46643778497808 L 23.42643711219261 37.37836758875224 L 23.370820393249936 37.294657697249036 L 23.308394066782107 37.21589527521188 L 23.239596008616036 37.142632784440636 L 23.164908787698426 37.075384108669056 L 23.08485628122132 37.01462094903955 L 23.0 36.96076951545868 L 22.910935149878085 36.91420753704078 L 22.81828645678618 36.875261612609734 L 22.722703784738318 36.84420491984281 L 22.62485757750287 36.82125529912557 L 22.525434155921182 36.80657372555807 L 22.42513090386003 36.80026317983018 L 22.324651376564823 36.802367925886074 L 22.224700365725106 36.812873200444415 L 22.12597895586721 36.8317053165522 L 22.029179606750063 36.85873218044581 L 21.934981296257476 36.89376421809379 L 21.844044757856167 36.93655570492254 L 21.757007846025203 36.98680648939758 L 21.67448106216515 37.04416409837097 L 21.59704327236937 37.10822620942713 L 21.525237647094308 37.17854347288558 L 21.45956785120899 37.25462266366603 L 21.40049451114788 37.33593014090799 L 21.348431983947364 37.42189559107794 L 21.303745450828877 37.511916028309045 L 21.266748355715023 37.605360023913704 L 21.23770020664564 37.701572135402174 L 21.216804755515394 37.79987750394068 L 21.204208568900594 37.89958658800123 L 21.2 38.0 " stroke="#191919" stroke-width="0.35 px" style="stroke-width:0.35;stroke-miterlimit:4;stroke-dasharray:none;stroke-linecap:square;fill:none;fill-opacity:1;fill-rule: evenodd"/>
<path id="Cut002_cs_w0023"  d="M -15.7 75.4 L -15.7 85.5 L -27.700000000000003 85.5 L -27.700000000000003 75.4 L -15.7 75.4 " stroke="#191919" stroke-width="0.35 px" style="stroke-width:0.35;stroke-miterlimit:4;stroke-dasharray:none;stroke-linecap:square;fill:none;fill-opacity:1;fill-rule: evenodd"/>
<path id="Cut002_cs_w0025"  d="M -11.500000000000004 89.9 M -11.500000000000004 89.9 L -11.49579143109941 90.00041341199878 L -11.483195244484609 90.10012249605933 L -11.462299793354358 90.19842786459782 L -11.433251644284976 90.2946399760863 L -11.396254549171122 90.38808397169096 L -11.351568016052635 90.47810440892206 L -11.299505488852123 90.564069859092 L -11.240432148791012 90.64537733633398 L -11.174762352905692 90.72145652711443 L -11.10295672763063 90.79177379057288 L -11.02551893783485 90.85583590162904 L -10.942992153974796 90.91319351060241 L -10.855955242143832 90.96344429507747 L -10.765018703742523 91.0062357819062 L -10.670820393249937 91.04126781955418 L -10.574021044132788 91.06829468344779 L -10.475299634274894 91.08712679955559 L -10.375348623435176 91.09763207411393 L -10.27486909613997 91.09973682016982 L -10.174565844078817 91.09342627444192 L -10.075142422497134 91.07874470087442 L -9.977296215261685 91.0557950801572 L -9.881713543213824 91.02473838739027 L -9.789064850121914 90.98579246295922 L -9.7 90.93923048454133 L -9.615143718778686 90.88537905096044 L -9.53509121230157 90.82461589133095 L -9.46040399138396 90.75736721555936 L -9.391605933217892 90.68410472478813 L -9.329179606750063 90.60534230275097 L -9.27356288780739 90.52163241124777 L -9.225145887712703 90.43356221502191 L -9.184268216934097 90.34174946322162 L -9.151216602961522 90.24683815633337 L -9.126222879119435 90.14949402898131 L -9.109462358422629 90.05039988027715 L -9.101052603881367 89.95025078447503 L -9.101052603881367 89.84974921552495 L -9.109462358422629 89.74960011972283 L -9.126222879119435 89.65050597101869 L -9.151216602961522 89.55316184366663 L -9.184268216934097 89.4582505367784 L -9.225145887712703 89.36643778497809 L -9.27356288780739 89.27836758875225 L -9.329179606750063 89.19465769724903 L -9.391605933217892 89.11589527521187 L -9.46040399138396 89.04263278444063 L -9.535091212301577 88.97538410866906 L -9.615143718778679 88.91462094903954 L -9.7 88.86076951545867 L -9.789064850121914 88.81420753704077 L -9.881713543213824 88.77526161260974 L -9.977296215261685 88.74420491984282 L -10.075142422497134 88.72125529912557 L -10.174565844078817 88.70657372555807 L -10.27486909613997 88.70026317983019 L -10.375348623435176 88.70236792588608 L -10.475299634274894 88.71287320044442 L -10.574021044132788 88.73170531655221 L -10.670820393249937 88.7587321804458 L -10.765018703742523 88.7937642180938 L -10.855955242143832 88.83655570492255 L -10.942992153974796 88.88680648939757 L -11.02551893783485 88.94416409837096 L -11.10295672763063 89.00822620942714 L -11.174762352905692 89.07854347288557 L -11.240432148791005 89.15462266366603 L -11.299505488852123 89.23593014090798 L -11.351568016052635 89.32189559107795 L -11.396254549171122 89.41191602830904 L -11.433251644284976 89.5053600239137 L -11.462299793354358 89.60157213540217 L -11.483195244484609 89.69987750394068 L -11.49579143109941 89.79958658800122 L -11.500000000000004 89.9 " stroke="#191919" stroke-width="0.35 px" style="stroke-width:0.35;stroke-miterlimit:4;stroke-dasharray:none;stroke-linecap:square;fill:none;fill-opacity:1;fill-rule: evenodd"/>
<path id="Cut002_cs_w0027"  d="M -26.500000000000004 114.1 M -26.500000000000004 114.1 L -26.49579143109941 114.20041341199878 L -26.48319524448461 114.30012249605932 L -26.462299793354358 114.39842786459782 L -26.433251644284976 114.4946399760863 L -26.396254549171122 114.58808397169096 L -26.351568016052635 114.67810440892205 L -26.299505488852123 114.76406985909202 L -26.24043214879101 114.84537733633397 L -26.17476235290569 114.92145652711443 L -26.10295672763063 114.99177379057288 L -26.02551893783485 115.05583590162904 L -25.942992153974796 115.11319351060241 L -25.855955242143832 115.16344429507745 L -25.765018703742523 115.2062357819062 L -25.670820393249937 115.24126781955418 L -25.574021044132788 115.26829468344779 L -25.475299634274894 115.28712679955558 L -25.375348623435176 115.29763207411392 L -25.27486909613997 115.29973682016981 L -25.174565844078817 115.29342627444193 L -25.075142422497134 115.27874470087443 L -24.977296215261685 115.25579508015718 L -24.881713543213824 115.22473838739027 L -24.789064850121914 115.18579246295923 L -24.7 115.13923048454133 L -24.615143718778686 115.08537905096044 L -24.53509121230157 115.02461589133094 L -24.46040399138396 114.95736721555936 L -24.391605933217892 114.88410472478813 L -24.329179606750063 114.80534230275097 L -24.27356288780739 114.72163241124775 L -24.225145887712703 114.63356221502191 L -24.184268216934097 114.5417494632216 L -24.151216602961522 114.44683815633337 L -24.126222879119435 114.34949402898131 L -24.10946235842263 114.25039988027717 L -24.101052603881367 114.15025078447503 L -24.101052603881367 114.04974921552495 L -24.10946235842263 113.94960011972283 L -24.126222879119435 113.85050597101869 L -24.151216602961522 113.75316184366663 L -24.184268216934097 113.65825053677838 L -24.225145887712703 113.56643778497809 L -24.27356288780739 113.47836758875225 L -24.329179606750063 113.39465769724903 L -24.391605933217892 113.31589527521187 L -24.46040399138396 113.24263278444063 L -24.535091212301577 113.17538410866905 L -24.61514371877868 113.11462094903956 L -24.7 113.06076951545867 L -24.789064850121914 113.01420753704078 L -24.881713543213824 112.97526161260973 L -24.977296215261685 112.9442049198428 L -25.075142422497134 112.92125529912558 L -25.174565844078817 112.90657372555808 L -25.27486909613997 112.90026317983019 L -25.375348623435176 112.90236792588607 L -25.475299634274894 112.91287320044441 L -25.574021044132788 112.93170531655221 L -25.670820393249937 112.95873218044582 L -25.765018703742523 112.9937642180938 L -25.855955242143832 113.03655570492253 L -25.942992153974796 113.08680648939759 L -26.02551893783485 113.14416409837096 L -26.10295672763063 113.20822620942712 L -26.17476235290569 113.27854347288557 L -26.240432148791005 113.35462266366602 L -26.299505488852123 113.43593014090798 L -26.351568016052635 113.52189559107794 L -26.396254549171122 113.61191602830904 L -26.433251644284976 113.7053600239137 L -26.462299793354358 113.80157213540217 L -26.48319524448461 113.89987750394067 L -26.49579143109941 113.99958658800122 L -26.500000000000004 114.1 " stroke="#191919" stroke-width="0.35 px" style="stroke-width:0.35;stroke-miterlimit:4;stroke-dasharray:none;stroke-linecap:square;fill:none;fill-opacity:1;fill-rule: evenodd"/>
<path id="Cut002_cs_w0028"  d="M 24.75 75.4 L 24.75 85.5 L 12.75 85.5 L 12.75 75.4 L 24.75 75.4 " stroke="#191919" stroke-width="0.35 px" style="stroke-width:0.35;stroke-miterlimit:4;stroke-dasharray:none;stroke-linecap:square;fill:none;fill-opacity:1;fill-rule: evenodd"/>
<path id="Cut002_cs_w0030"  d="M 16.25 89.9 M 16.25 89.9 L 16.254208568900594 90.00041341199878 L 16.266804755515395 90.10012249605933 L 16.287700206645642 90.19842786459782 L 16.31674835571502 90.2946399760863 L 16.353745450828878 90.38808397169096 L 16.39843198394736 90.47810440892206 L 16.45049451114788 90.564069859092 L 16.509567851208992 90.64537733633398 L 16.575237647094305 90.72145652711443 L 16.64704327236937 90.79177379057288 L 16.72448106216515 90.85583590162904 L 16.807007846025204 90.91319351060241 L 16.894044757856165 90.96344429507747 L 16.984981296257477 91.0062357819062 L 17.07917960675006 91.04126781955418 L 17.175978955867212 91.06829468344779 L 17.274700365725103 91.08712679955559 L 17.374651376564824 91.09763207411393 L 17.475130903860027 91.09973682016982 L 17.575434155921183 91.09342627444192 L 17.67485757750287 91.07874470087442 L 17.77270378473832 91.0557950801572 L 17.86828645678618 91.02473838739027 L 17.960935149878086 90.98579246295922 L 18.049999999999997 90.93923048454133 L 18.134856281221317 90.88537905096044 L 18.214908787698427 90.82461589133095 L 18.289596008616037 90.75736721555936 L 18.358394066782108 90.68410472478813 L 18.420820393249937 90.60534230275097 L 18.476437112192606 90.52163241124777 L 18.524854112287294 90.43356221502191 L 18.5657317830659 90.34174946322162 L 18.59878339703848 90.24683815633337 L 18.62377712088057 90.14949402898131 L 18.640537641577374 90.05039988027715 L 18.64894739611863 89.95025078447503 L 18.64894739611863 89.84974921552495 L 18.640537641577374 89.74960011972283 L 18.62377712088057 89.65050597101869 L 18.59878339703848 89.55316184366663 L 18.5657317830659 89.4582505367784 L 18.524854112287294 89.36643778497809 L 18.476437112192606 89.27836758875225 L 18.420820393249937 89.19465769724903 L 18.358394066782108 89.11589527521187 L 18.289596008616037 89.04263278444063 L 18.214908787698427 88.97538410866906 L 18.134856281221317 88.91462094903954 L 18.05 88.86076951545867 L 17.960935149878086 88.81420753704077 L 17.86828645678618 88.77526161260974 L 17.77270378473832 88.74420491984282 L 17.67485757750287 88.72125529912557 L 17.575434155921187 88.70657372555807 L 17.475130903860027 88.70026317983019 L 17.374651376564824 88.70236792588608 L 17.274700365725106 88.71287320044442 L 17.175978955867215 88.73170531655221 L 17.079179606750063 88.7587321804458 L 16.984981296257477 88.7937642180938 L 16.894044757856165 88.83655570492255 L 16.807007846025204 88.88680648939757 L 16.724481062165147 88.94416409837096 L 16.64704327236937 89.00822620942714 L 16.575237647094305 89.07854347288557 L 16.509567851208992 89.15462266366603 L 16.45049451114788 89.23593014090798 L 16.39843198394736 89.32189559107795 L 16.353745450828878 89.41191602830904 L 16.31674835571502 89.5053600239137 L 16.287700206645642 89.60157213540217 L 16.266804755515395 89.69987750394068 L 16.254208568900594 89.79958658800122 L 16.25 89.9 " stroke="#191919" stroke-width="0.35 px" style="stroke-width:0.35;stroke-miterlimit:4;stroke-dasharray:none;stroke-linecap:square;fill:none;fill-opacity:1;fill-rule: evenodd"/>
<path id="Cut002_cs_w0032"  d="M 21.2 120.0 M 21.2 120.0 L 21.204208568900594 120.10041341199877 L 21.216804755515394 120.20012249605932 L 21.23770020664564 120.29842786459783 L 21.266748355715023 120.3946399760863 L 21.303745450828877 120.48808397169095 L 21.348431983947364 120.57810440892206 L 21.40049451114788 120.66406985909201 L 21.45956785120899 120.74537733633397 L 21.525237647094308 120.82145652711442 L 21.59704327236937 120.89177379057287 L 21.67448106216515 120.95583590162903 L 21.757007846025203 121.01319351060242 L 21.844044757856167 121.06344429507746 L 21.934981296257476 121.10623578190621 L 22.029179606750063 121.14126781955419 L 22.12597895586721 121.1682946834478 L 22.224700365725106 121.18712679955559 L 22.324651376564823 121.19763207411393 L 22.42513090386003 121.19973682016982 L 22.525434155921182 121.19342627444193 L 22.62485757750287 121.17874470087443 L 22.722703784738318 121.15579508015719 L 22.818286456786176 121.12473838739027 L 22.910935149878085 121.08579246295922 L 23.0 121.03923048454132 L 23.084856281221317 120.98537905096045 L 23.164908787698426 120.92461589133094 L 23.239596008616036 120.85736721555936 L 23.308394066782107 120.78410472478812 L 23.370820393249936 120.70534230275096 L 23.42643711219261 120.62163241124776 L 23.474854112287296 120.53356221502192 L 23.515731783065903 120.44174946322161 L 23.54878339703848 120.34683815633336 L 23.573777120880568 120.24949402898132 L 23.590537641577374 120.15039988027716 L 23.59894739611863 120.05025078447504 L 23.59894739611863 119.94974921552496 L 23.590537641577374 119.84960011972284 L 23.573777120880568 119.75050597101868 L 23.54878339703848 119.65316184366664 L 23.515731783065903 119.55825053677839 L 23.474854112287296 119.46643778497808 L 23.42643711219261 119.37836758875224 L 23.370820393249936 119.29465769724904 L 23.308394066782107 119.21589527521188 L 23.239596008616036 119.14263278444064 L 23.164908787698426 119.07538410866906 L 23.08485628122132 119.01462094903955 L 23.0 118.96076951545868 L 22.910935149878085 118.91420753704078 L 22.81828645678618 118.87526161260973 L 22.722703784738318 118.84420491984281 L 22.62485757750287 118.82125529912557 L 22.525434155921182 118.80657372555807 L 22.42513090386003 118.80026317983018 L 22.324651376564823 118.80236792588607 L 22.224700365725106 118.81287320044441 L 22.12597895586721 118.8317053165522 L 22.029179606750063 118.85873218044581 L 21.934981296257476 118.89376421809379 L 21.844044757856167 118.93655570492254 L 21.757007846025203 118.98680648939758 L 21.67448106216515 119.04416409837097 L 21.59704327236937 119.10822620942713 L 21.525237647094308 119.17854347288558 L 21.45956785120899 119.25462266366603 L 21.40049451114788 119.33593014090799 L 21.348431983947364 119.42189559107794 L 21.303745450828877 119.51191602830905 L 21.266748355715023 119.6053600239137 L 21.23770020664564 119.70157213540217 L 21.216804755515394 119.79987750394068 L 21.204208568900594 119.89958658800123 L 21.2 120.0 " stroke="#191919" stroke-width="0.35 px" style="stroke-width:0.35;stroke-miterlimit:4;stroke-dasharray:none;stroke-linecap:square;fill:none;fill-opacity:1;fill-rule: evenodd"/>
<title>b'Cut002_cs'</title>
</g>
</svg>