<?xml version="1.0"?>
<!DOCTYPE svg PUBLIC "-//W3C//DTD SVG 1.1//EN" "http://www.w3.org/Graphics/SVG/1.1/DTD/svg11.dtd">
<svg width="71.0mm" height="132.8mm" viewBox="-35.500000 -108.800000 71.000000 132.800000" xmlns="http://www.w3.org/2000/svg" version="1.1">
<g id="Cut_cs" transform="scale(1,-1)">
<path id="Cut_cs_w0000"  d="M -23.85 71.64915242061173 M -23.85 71.64915242061173 L -23.751800776992614 71.6291360103779 L -23.654324925886044 71.6058507676488 L -23.55768122695833 71.57932267809316 L -23.46197753182933 71.54958134630458 L -23.3673206431014 71.51665996276361 L -23.273816195170717 71.48059526679813 L -23.1815685363423 71.44142750558335 L -23.090680612380265 71.39920038922698 L -23.001253851623282 71.35396104199012 L -22.913388051793444 71.30575994969787 L -22.827181268624813 71.25465090339861 L -22.742729706436062 71.20069093933466 L -22.66012761076914 71.14394027529154 L -22.579467163213955 71.08446224339656 L -22.500838378536336 71.022323219442 L -22.424329004224113 70.95759254881165 L -22.350024422563415 70.89034246909326 L -22.27800755535446 70.82064802946346 L -22.208358771373206 70.74858700693508 L -22.14115579668205 70.67423981956014 L -22.07647362788978 70.59768943668566 L -22.014384448457484 70.51902128636212 L -21.954957548143845 70.4383231600083 L -21.89825924567977 70.3556851144385 L -21.844352814758544 70.2711993713617 L -21.793298413424207 70.18496021446477 L -21.745153016936875 70.0970638841945 L -21.699970354189972 70.00760847035608 L -21.65780084775032 69.91669380264761 L -21.618691557587983 69.82442133925305 L -21.58268612855868 69.73089405361769 L -21.549824741697364 69.63621631953276 L -21.520144069377334 69.5404937946573 L -21.493677234384904 69.4438333026071 L -21.47045377295532 69.34634271374267 L -21.45049960181116 69.24813082478899 L -21.43383698924001 69.14930723742135 L -21.420484530243687 69.04998223595318 L -21.410457125786735 68.95026666426169 L -21.4037659661674 68.85027180208941 L -21.400418518529545 68.7501092408591 L -21.400418518529545 68.6498907591409 L -21.4037659661674 68.5497281979106 L -21.410457125786735 68.44973333573832 L -21.420484530243684 68.35001776404684 L -21.43383698924001 68.25069276257865 L -21.45049960181116 68.15186917521102 L -21.47045377295532 68.05365728625733 L -21.493677234384904 67.9561666973929 L -21.52014406937733 67.85950620534271 L -21.549824741697364 67.76378368046724 L -21.58268612855868 67.66910594638233 L -21.618691557587983 67.57557866074696 L -21.65780084775032 67.48330619735239 L -21.69997035418997 67.39239152964393 L -21.745153016936875 67.30293611580552 L -21.793298413424207 67.21503978553524 L -21.844352814758544 67.1288006286383 L -21.89825924567977 67.0443148855615 L -21.954957548143845 66.96167683999171 L -22.01438444845748 66.8809787136379 L -22.07647362788978 66.80231056331435 L -22.14115579668205 66.72576018043986 L -22.208358771373202 66.65141299306494 L -22.27800755535446 66.57935197053655 L -22.350024422563415 66.50965753090675 L -22.424329004224113 66.44240745118836 L -22.500838378536333 66.377676780558 L -22.579467163213952 66.31553775660345 L -22.660127610769138 66.25605972470846 L -22.742729706436062 66.19930906066534 L -22.827181268624813 66.1453490966014 L -22.91338805179344 66.09424005030213 L -23.001253851623282 66.04603895800989 L -23.09068061238026 66.00079961077303 L -23.181568536342297 65.95857249441666 L -23.273816195170717 65.91940473320186 L -23.3673206431014 65.8833400372364 L -23.461977531829326 65.85041865369543 L -23.55768122695833 65.82067732190684 L -23.654324925886048 65.7941492323512 L -23.75180077699261 65.7708639896221 L -23.85 65.75084757938828 L -23.85 13.649152420611724 M -23.85 13.649152420611724 L -23.751800776992614 13.62913601037791 L -23.654324925886044 13.605850767648803 L -23.55768122695833 13.57932267809316 L -23.461977531829326 13.549581346304576 L -23.367320643101397 13.516659962763608 L -23.273816195170713 13.480595266798142 L -23.181568536342297 13.441427505583349 L -23.090680612380265 13.39920038922698 L -23.001253851623282 13.353961041990122 L -22.91338805179344 13.30575994969788 L -22.827181268624813 13.25465090339861 L -22.74272970643606 13.200690939334665 L -22.660127610769138 13.14394027529154 L -22.579467163213952 13.084462243396557 L -22.500838378536333 13.022323219442008 L -22.42432900422411 12.957592548811654 L -22.35002442256341 12.890342469093252 L -22.278007555354456 12.820648029463454 L -22.2083587713732 12.748587006935075 L -22.141155796682046 12.674239819560146 L -22.076473627889776 12.59768943668565 L -22.014384448457477 12.519021286362111 L -21.95495754814384 12.438323160008295 L -21.898259245679768 12.3556851144385 L -21.84435281475854 12.271199371361703 L -21.793298413424203 12.18496021446476 L -21.745153016936868 12.09706388419449 L -21.699970354189965 12.00760847035607 L -21.657800847750313 11.916693802647613 L -21.618691557587976 11.824421339253046 L -21.582686128558674 11.730894053617682 L -21.549824741697357 11.636216319532764 L -21.520144069377327 11.5404937946573 L -21.493677234384897 11.4438333026071 L -21.470453772955313 11.346342713742676 L -21.450499601811156 11.248130824788984 L -21.433836989240007 11.149307237421358 L -21.42048453024368 11.049982235953172 L -21.41045712578673 10.950266664261683 L -21.403765966167395 10.850271802089413 L -21.400418518529538 10.750109240859105 L -21.400418518529538 10.649890759140893 L -21.403765966167395 10.549728197910587 L -21.41045712578673 10.449733335738314 L -21.42048453024368 10.350017764046829 L -21.433836989240007 10.250692762578643 L -21.450499601811156 10.151869175211017 L -21.470453772955313 10.053657286257323 L -21.493677234384897 9.956166697392899 L -21.520144069377327 9.8595062053427 L -21.549824741697357 9.763783680467236 L -21.582686128558674 9.669105946382318 L -21.618691557587976 9.575578660746954 L -21.657800847750313 9.483306197352388 L -21.699970354189965 9.39239152964393 L -21.745153016936868 9.30293611580551 L -21.793298413424203 9.21503978553524 L -21.84435281475854 9.128800628638297 L -21.898259245679764 9.0443148855615 L -21.95495754814384 8.961676839991704 L -22.014384448457477 8.880978713637889 L -22.076473627889776 8.80231056331435 L -22.141155796682046 8.725760180439854 L -22.2083587713732 8.651412993064923 L -22.278007555354456 8.579351970536546 L -22.350024422563408 8.509657530906749 L -22.42432900422411 8.442407451188345 L -22.50083837853633 8.377676780557993 L -22.57946716321395 8.315537756603444 L -22.660127610769138 8.256059724708459 L -22.74272970643606 8.199309060665335 L -22.82718126862481 8.145349096601388 L -22.913388051793437 8.09424005030212 L -23.00125385162328 8.046038958009877 L -23.09068061238026 8.000799610773022 L -23.181568536342297 7.95857249441665 L -23.273816195170717 7.919404733201857 L -23.367320643101397 7.883340037236391 L -23.461977531829326 7.850418653695424 L -23.557681226958326 7.820677321906839 L -23.654324925886044 7.794149232351194 L -23.75180077699261 7.7708639896220895 L -23.85 7.7508475793882745 L -23.85 -13.999999999999998 L 23.85 -13.999999999999998 L 23.85 7.750847579388273 M 23.85 7.750847579388273 L 23.752975003918426 7.777236127222553 L 23.656874802288552 7.806815791996343 L 23.56180431873564 7.839554278192987 L 23.467867352623486 7.8754158414477615 L 23.375166465724732 7.914361327574094 L 23.2838028702424 7.956348215312689 L 23.193876318304923 8.001330662756866 L 23.10548499305527 8.04925955740344 L 23.018725401453157 8.10008256977447 L 22.933692268907286 8.15374421055137 L 22.850478435852786 8.210185891158963 L 22.769174756386597 8.269345987733356 L 22.68986999907166 8.331159908403794 L 22.61265075001807 8.39556016381502 L 22.537601318347054 8.462476440813148 L 22.46480364414107 8.531835679214614 L 22.394337208980367 8.60356215157437 L 22.32627894916384 8.677577545866217 L 22.260703171708826 8.753801050985063 L 22.197681473221607 8.832149444977652 L 22.137282661727177 8.91253718590556 L 22.079572681543606 8.994876505241125 L 22.02461454128308 9.079077503694446 L 21.972468245058128 9.165048249366748 L 21.92319072696828 9.252694878123004 L 21.876835788938543 9.341921696074177 L 21.83345404197769 9.432631284057235 L 21.793092850920374 9.524724603998841 L 21.755796282713533 9.61810110704658 L 21.721605058303425 9.712658843349699 L 21.6905565081759 9.80829457336945 L 21.662684531598423 9.904903880597567 L 21.63801955960835 10.002381285559746 L 21.616588521787868 10.10062036097971 L 21.598414816861883 10.199513847978073 L 21.583518287150945 10.298953773179187 L 21.571915196907092 10.398831566598071 L 21.563618214556325 10.499038180178728 L 21.558636398867016 10.599464206854435 L 21.556975189059415 10.699999999999998 L 21.558636398867016 10.80053579314556 L 21.563618214556325 10.900961819821267 L 21.571915196907092 11.001168433401922 L 21.583518287150945 11.101046226820806 L 21.598414816861883 11.200486152021922 L 21.616588521787868 11.299379639020284 L 21.63801955960835 11.397618714440249 L 21.662684531598423 11.495096119402428 L 21.6905565081759 11.591705426630545 L 21.721605058303425 11.687341156650296 L 21.755796282713533 11.781898892953413 L 21.793092850920374 11.875275396001154 L 21.83345404197769 11.967368715942758 L 21.876835788938543 12.058078303925818 L 21.92319072696828 12.14730512187699 L 21.972468245058128 12.234951750633245 L 22.02461454128308 12.320922496305549 L 22.079572681543606 12.405123494758868 L 22.137282661727173 12.487462814094433 L 22.197681473221607 12.567850555022341 L 22.260703171708823 12.646198949014932 L 22.32627894916384 12.722422454133776 L 22.394337208980367 12.796437848425626 L 22.46480364414107 12.86816432078538 L 22.537601318347054 12.937523559186847 L 22.612650750018066 13.004439836184973 L 22.68986999907166 13.068840091596197 L 22.769174756386597 13.130654012266637 L 22.850478435852786 13.18981410884103 L 22.933692268907286 13.246255789448625 L 23.018725401453153 13.299917430225525 L 23.105484993055274 13.350740442596555 L 23.193876318304927 13.39866933724313 L 23.283802870242404 13.443651784687308 L 23.375166465724732 13.485638672425901 L 23.467867352623486 13.524584158552234 L 23.56180431873564 13.560445721807007 L 23.65687480228855 13.593184208003652 L 23.752975003918422 13.62276387277744 L 23.85 13.649152420611722 L 23.85 65.75084757938828 M 23.85 65.75084757938828 L 23.752975003918426 65.77723612722255 L 23.656874802288552 65.80681579199634 L 23.56180431873564 65.83955427819299 L 23.467867352623486 65.87541584144776 L 23.375166465724732 65.9143613275741 L 23.283802870242404 65.95634821531269 L 23.193876318304923 66.00133066275687 L 23.105484993055274 66.04925955740345 L 23.018725401453153 66.10008256977447 L 22.933692268907286 66.15374421055138 L 22.850478435852786 66.21018589115897 L 22.769174756386597 66.26934598773336 L 22.689869999071664 66.3311599084038 L 22.612650750018066 66.39556016381502 L 22.537601318347054 66.46247644081315 L 22.46480364414107 66.53183567921462 L 22.394337208980367 66.60356215157437 L 22.32627894916384 66.67757754586623 L 22.260703171708823 66.75380105098506 L 22.197681473221607 66.83214944497766 L 22.137282661727177 66.91253718590556 L 22.079572681543606 66.99487650524112 L 22.02461454128308 67.07907750369445 L 21.972468245058128 67.16504824936675 L 21.92319072696828 67.25269487812301 L 21.876835788938543 67.34192169607418 L 21.83345404197769 67.43263128405724 L 21.793092850920374 67.52472460399885 L 21.755796282713533 67.61810110704658 L 21.721605058303425 67.7126588433497 L 21.6905565081759 67.80829457336945 L 21.66268453159842 67.90490388059757 L 21.63801955960835 68.00238128555975 L 21.616588521787868 68.10062036097972 L 21.598414816861883 68.19951384797808 L 21.58351828715094 68.29895377317919 L 21.57191519690709 68.39883156659808 L 21.563618214556325 68.49903818017873 L 21.558636398867016 68.59946420685444 L 21.55697518905941 68.7 L 21.558636398867016 68.80053579314556 L 21.563618214556325 68.90096181982126 L 21.57191519690709 69.00116843340193 L 21.58351828715094 69.10104622682081 L 21.598414816861883 69.20048615202192 L 21.616588521787865 69.29937963902029 L 21.638019559608345 69.39761871444026 L 21.66268453159842 69.49509611940243 L 21.690556508175895 69.59170542663055 L 21.72160505830342 69.6873411566503 L 21.75579628271353 69.78189889295342 L 21.79309285092037 69.87527539600116 L 21.833454041977685 69.96736871594275 L 21.876835788938543 70.05807830392583 L 21.923190726968276 70.147305121877 L 21.972468245058124 70.23495175063324 L 22.024614541283075 70.32092249630556 L 22.079572681543603 70.40512349475887 L 22.137282661727173 70.48746281409444 L 22.197681473221603 70.56785055502235 L 22.26070317170882 70.64619894901493 L 22.326278949163836 70.72242245413378 L 22.394337208980364 70.79643784842563 L 22.464803644141067 70.86816432078538 L 22.53760131834705 70.93752355918684 L 22.612650750018062 71.00443983618497 L 22.689869999071657 71.0688400915962 L 22.76917475638659 71.13065401226665 L 22.85047843585278 71.18981410884103 L 22.933692268907283 71.24625578944863 L 23.01872540145315 71.29991743022553 L 23.105484993055267 71.35074044259656 L 23.19387631830492 71.39866933724313 L 23.283802870242397 71.44365178468732 L 23.375166465724725 71.4856386724259 L 23.467867352623482 71.52458415855224 L 23.561804318735632 71.56044572180701 L 23.656874802288545 71.59318420800366 L 23.75297500391842 71.62276387277744 L 23.849999999999994 71.64915242061173 L 23.849999999999998 108.80000000000003 L 29.876051421152027 104.06275726429666 L 29.49999999999997 104.06275726429669 L 29.499999999999975 95.30000000000005 L 32.49999999999998 95.30000000000005 L 32.49999999999998 88.30000000000005 L 29.49999999999998 88.30000000000005 L 29.49999999999998 81.30000000000005 L 32.49999999999998 81.30000000000005 L 32.49999999999998 74.30000000000004 L 29.49999999999998 74.30000000000004 L 29.499999999999982 67.30000000000004 L 32.499999999999986 67.30000000000004 L 32.499999999999986 60.30000000000004 L 29.499999999999982 60.30000000000004 L 29.499999999999986 52.30000000000004 L 32.499999999999986 52.30000000000004 L 32.49999999999999 22.30000000000003 L 29.499999999999993 22.30000000000003 L 29.499999999999993 14.650000000000015 L 32.49999999999999 14.650000000000016 L 32.5 7.650000000000013 L 29.499999999999996 7.650000000000012 L 29.499999999999996 0.6500000000000082 L 32.5 0.6500000000000091 L 32.5 -6.349999999999993 L 29.499999999999996 -6.349999999999994 L 29.5 -13.349999999999998 L 32.5 -13.349999999999996 L 32.5 -19.0 L 35.5 -19.0 L 35.5 -24.0 L 32.5 -24.0 L 32.5 -21.0 L 22.5 -21.0 L 22.5 -24.0 L 13.5 -24.0 L 13.5 -21.0 L 4.5 -21.0 L 4.499999999999999 -24.0 L -4.500000000000001 -24.0 L -4.500000000000001 -21.0 L -13.5 -21.0 L -13.5 -24.0 L -22.5 -24.0 L -22.5 -21.0 L -32.5 -21.0 L -32.5 -24.0 L -35.5 -24.0 L -35.5 -19.0 L -32.5 -19.0 L -32.5 -13.349999999999994 L -29.5 -13.349999999999996 L -29.500000000000032 -6.349999999999991 L -32.5 -6.349999999999994 L -32.5 0.6500000000000199 L -29.500000000000004 0.6500000000000091 L -29.50000000000003 7.650000000000016 L -32.50000000000001 7.650000000000012 L -32.5 14.65000000000002 L -29.500000000000007 14.650000000000016 L -29.50000000000002 22.30000000000003 L -32.50000000000001 22.30000000000003 L -32.5 52.30000000000004 L -29.500000000000014 52.30000000000004 L -29.500000000000004 60.30000000000004 L -32.500000000000014 60.30000000000004 L -32.5 67.30000000000004 L -29.500000000000018 67.30000000000004 L -29.499999999999996 74.30000000000004 L -32.50000000000002 74.30000000000004 L -32.5 81.30000000000005 L -29.50000000000002 81.30000000000005 L -29.499999999999993 88.30000000000004 L -32.50000000000002 88.30000000000005 L -32.5 95.30000000000005 L -29.500000000000025 95.30000000000005 L -29.499999999999986 104.06275726429669 L -29.87605142115207 104.06275726429669 L -23.85 108.80000000000003 L -23.85 71.64915242061173 " stroke="#191919" stroke-width="0.35 px" style="stroke-width:0.35;stroke-miterlimit:4;stroke-dasharray:none;stroke-linecap:square;fill:none;fill-opacity:1;fill-rule: evenodd"/>
<path id="Cut_cs_w0001"  d="M -22.9 10.7 M -22.9 10.7 L -22.90334968206527 10.599811049382318 L -22.91338376776783 10.500069566939331 L -22.93005744244512 10.401221022344245 L -22.953296237418435 10.30370689719307 L -22.98299636258812 10.207962713240645 L -23.019025169985355 10.114416087254757 L -23.061221746210176 10.023484821175847 L -23.10939763110979 9.935575036112123 L -23.163337659487357 9.851079358504107 L -23.22280092208201 9.770375166559631 L -23.28752184152806 9.693822904791164 L -23.357211358488033 9.621764474183106 L -23.431558222661796 9.554521705179 L -23.510230382905966 9.492394920308655 L -23.59287647025494 9.435661592874803 L -23.679127367219973 9.384575107689992 L -23.768597856357495 9.339363629398488 L -23.860888340743728 9.300229083437596 L -23.955586628671547 9.267346254189631 L -24.052269774598706 9.240862004352444 L -24.1505059681253 9.220894619014956 L -24.24985646256385 9.207533277367244 L -24.34987753448849 9.200837654404618 L -24.45012246551151 9.200837654404618 L -24.550143537436146 9.207533277367244 L -24.649494031874692 9.220894619014956 L -24.74773022540129 9.240862004352444 L -24.84441337132845 9.267346254189631 L -24.939111659256266 9.300229083437596 L -25.031402143642502 9.339363629398488 L -25.120872632780024 9.384575107689992 L -25.207123529745058 9.435661592874803 L -25.28976961709403 9.492394920308655 L -25.3684417773382 9.554521705179 L -25.44278864151196 9.621764474183106 L -25.512478158471936 9.693822904791164 L -25.57719907791799 9.770375166559631 L -25.63666234051264 9.851079358504107 L -25.690602368890207 9.935575036112123 L -25.73877825378982 10.023484821175845 L -25.780974830014642 10.114416087254757 L -25.817003637411876 10.207962713240645 L -25.846703762581562 10.30370689719307 L -25.86994255755488 10.401221022344245 L -25.886616232232168 10.500069566939331 L -25.89665031793473 10.599811049382316 L -25.9 10.7 L -25.89665031793473 10.800188950617681 L -25.886616232232168 10.899930433060668 L -25.86994255755488 10.998778977655753 L -25.846703762581562 11.096293102806928 L -25.817003637411876 11.192037286759353 L -25.780974830014642 11.28558391274524 L -25.73877825378982 11.376515178824151 L -25.690602368890207 11.464424963887875 L -25.63666234051264 11.548920641495892 L -25.57719907791799 11.629624833440367 L -25.512478158471936 11.706177095208835 L -25.442788641511964 11.778235525816893 L -25.3684417773382 11.845478294820998 L -25.28976961709403 11.907605079691344 L -25.207123529745058 11.964338407125195 L -25.120872632780024 12.015424892310007 L -25.031402143642502 12.060636370601511 L -24.939111659256266 12.099770916562402 L -24.84441337132845 12.132653745810368 L -24.74773022540129 12.159137995647555 L -24.649494031874692 12.179105380985042 L -24.550143537436146 12.192466722632755 L -24.45012246551151 12.199162345595381 L -24.34987753448849 12.199162345595381 L -24.24985646256385 12.192466722632755 L -24.150505968125305 12.179105380985042 L -24.052269774598706 12.159137995647555 L -23.955586628671547 12.132653745810368 L -23.86088834074373 12.099770916562404 L -23.768597856357495 12.060636370601511 L -23.679127367219973 12.015424892310007 L -23.59287647025494 11.964338407125195 L -23.510230382905966 11.907605079691344 L -23.431558222661796 11.845478294820998 L -23.357211358488033 11.778235525816893 L -23.28752184152806 11.706177095208835 L -23.22280092208201 11.629624833440367 L -23.163337659487357 11.548920641495892 L -23.10939763110979 11.464424963887875 L -23.061221746210176 11.376515178824153 L -23.019025169985355 11.285583912745242 L -22.98299636258812 11.192037286759353 L -22.953296237418435 11.096293102806928 L -22.93005744244512 10.998778977655753 L -22.91338376776783 10.899930433060668 L -22.90334968206527 10.800188950617681 L -22.9 10.7 " stroke="#191919" stroke-width="0.35 px" style="stroke-width:0.35;stroke-miterlimit:4;stroke-dasharray:none;stroke-linecap:square;fill:none;fill-opacity:1;fill-rule: evenodd"/>
<path id="Cut_cs_w0002"  d="M 26.1 10.7 M 26.1 10.7 L 26.09665031793473 10.599811049382318 L 26.08661623223217 10.500069566939331 L 26.06994255755488 10.401221022344245 L 26.046703762581565 10.30370689719307 L 26.01700363741188 10.207962713240645 L 25.980974830014645 10.114416087254757 L 25.938778253789824 10.023484821175847 L 25.89060236889021 9.935575036112123 L 25.836662340512643 9.851079358504107 L 25.77719907791799 9.770375166559631 L 25.71247815847194 9.693822904791164 L 25.642788641511967 9.621764474183106 L 25.568441777338204 9.554521705179 L 25.489769617094034 9.492394920308655 L 25.40712352974506 9.435661592874803 L 25.320872632780027 9.384575107689992 L 25.231402143642505 9.339363629398488 L 25.139111659256272 9.300229083437596 L 25.044413371328453 9.267346254189631 L 24.947730225401294 9.240862004352444 L 24.8494940318747 9.220894619014956 L 24.75014353743615 9.207533277367244 L 24.65012246551151 9.200837654404618 L 24.54987753448849 9.200837654404618 L 24.449856462563854 9.207533277367244 L 24.350505968125308 9.220894619014956 L 24.25226977459871 9.240862004352444 L 24.15558662867155 9.267346254189631 L 24.060888340743734 9.300229083437596 L 23.968597856357498 9.339363629398488 L 23.879127367219976 9.384575107689992 L 23.792876470254942 9.435661592874803 L 23.71023038290597 9.492394920308655 L 23.6315582226618 9.554521705179 L 23.55721135848804 9.621764474183106 L 23.487521841528064 9.693822904791164 L 23.42280092208201 9.770375166559631 L 23.36333765948736 9.851079358504107 L 23.309397631109793 9.935575036112123 L 23.26122174621018 10.023484821175845 L 23.219025169985358 10.114416087254757 L 23.182996362588124 10.207962713240645 L 23.153296237418438 10.30370689719307 L 23.13005744244512 10.401221022344245 L 23.113383767767832 10.500069566939331 L 23.10334968206527 10.599811049382316 L 23.1 10.7 L 23.10334968206527 10.800188950617681 L 23.113383767767832 10.899930433060668 L 23.13005744244512 10.998778977655753 L 23.153296237418438 11.096293102806928 L 23.182996362588124 11.192037286759353 L 23.219025169985358 11.28558391274524 L 23.26122174621018 11.376515178824151 L 23.309397631109793 11.464424963887875 L 23.36333765948736 11.548920641495892 L 23.42280092208201 11.629624833440367 L 23.487521841528064 11.706177095208835 L 23.557211358488036 11.778235525816893 L 23.6315582226618 11.845478294820998 L 23.71023038290597 11.907605079691344 L 23.792876470254942 11.964338407125195 L 23.879127367219976 12.015424892310007 L 23.968597856357498 12.060636370601511 L 24.060888340743734 12.099770916562402 L 24.15558662867155 12.132653745810368 L 24.25226977459871 12.159137995647555 L 24.350505968125308 12.179105380985042 L 24.449856462563854 12.192466722632755 L 24.54987753448849 12.199162345595381 L 24.65012246551151 12.199162345595381 L 24.75014353743615 12.192466722632755 L 24.849494031874695 12.179105380985042 L 24.947730225401294 12.159137995647555 L 25.044413371328453 12.132653745810368 L 25.13911165925627 12.099770916562404 L 25.231402143642505 12.060636370601511 L 25.320872632780027 12.015424892310007 L 25.40712352974506 11.964338407125195 L 25.489769617094034 11.907605079691344 L 25.568441777338204 11.845478294820998 L 25.642788641511967 11.778235525816893 L 25.71247815847194 11.706177095208835 L 25.77719907791799 11.629624833440367 L 25.836662340512643 11.548920641495892 L 25.89060236889021 11.464424963887875 L 25.938778253789824 11.376515178824153 L 25.980974830014645 11.285583912745242 L 26.01700363741188 11.192037286759353 L 26.046703762581565 11.096293102806928 L 26.06994255755488 10.998778977655753 L 26.08661623223217 10.899930433060668 L 26.09665031793473 10.800188950617681 L 26.1 10.7 " stroke="#191919" stroke-width="0.35 px" style="stroke-width:0.35;stroke-miterlimit:4;stroke-dasharray:none;stroke-linecap:square;fill:none;fill-opacity:1;fill-rule: evenodd"/>
<path id="Cut_cs_w0003"  d="M -22.9 68.7 M -22.9 68.7 L -22.90334968206527 68.59981104938232 L -22.91338376776783 68.50006956693933 L -22.93005744244512 68.40122102234425 L -22.953296237418435 68.30370689719308 L -22.98299636258812 68.20796271324065 L -23.019025169985355 68.11441608725477 L -23.061221746210176 68.02348482117586 L -23.10939763110979 67.93557503611213 L -23.163337659487357 67.85107935850411 L -23.22280092208201 67.77037516655963 L -23.28752184152806 67.69382290479116 L -23.357211358488033 67.62176447418311 L -23.431558222661796 67.554521705179 L -23.510230382905966 67.49239492030866 L -23.59287647025494 67.43566159287481 L -23.679127367219973 67.38457510769 L -23.768597856357495 67.33936362939849 L -23.860888340743728 67.3002290834376 L -23.955586628671547 67.26734625418963 L -24.052269774598706 67.24086200435245 L -24.1505059681253 67.22089461901496 L -24.24985646256385 67.20753327736725 L -24.34987753448849 67.20083765440462 L -24.45012246551151 67.20083765440462 L -24.550143537436146 67.20753327736725 L -24.649494031874692 67.22089461901496 L -24.74773022540129 67.24086200435245 L -24.84441337132845 67.26734625418963 L -24.939111659256266 67.3002290834376 L -25.031402143642502 67.33936362939849 L -25.120872632780024 67.38457510769 L -25.207123529745058 67.43566159287481 L -25.28976961709403 67.49239492030866 L -25.3684417773382 67.554521705179 L -25.44278864151196 67.62176447418311 L -25.512478158471936 67.69382290479116 L -25.57719907791799 67.77037516655963 L -25.63666234051264 67.85107935850411 L -25.690602368890207 67.93557503611213 L -25.73877825378982 68.02348482117586 L -25.780974830014642 68.11441608725477 L -25.817003637411876 68.20796271324065 L -25.846703762581562 68.30370689719307 L -25.86994255755488 68.40122102234425 L -25.886616232232168 68.50006956693933 L -25.89665031793473 68.59981104938232 L -25.9 68.7 L -25.89665031793473 68.80018895061768 L -25.886616232232168 68.89993043306067 L -25.86994255755488 68.99877897765576 L -25.846703762581562 69.09629310280692 L -25.817003637411876 69.19203728675936 L -25.780974830014642 69.28558391274524 L -25.73877825378982 69.37651517882415 L -25.690602368890207 69.46442496388788 L -25.63666234051264 69.5489206414959 L -25.57719907791799 69.62962483344037 L -25.512478158471936 69.70617709520884 L -25.442788641511964 69.7782355258169 L -25.3684417773382 69.845478294821 L -25.28976961709403 69.90760507969135 L -25.207123529745058 69.9643384071252 L -25.120872632780024 70.01542489231001 L -25.031402143642502 70.06063637060151 L -24.939111659256266 70.0997709165624 L -24.84441337132845 70.13265374581037 L -24.74773022540129 70.15913799564755 L -24.649494031874692 70.17910538098505 L -24.550143537436146 70.19246672263276 L -24.45012246551151 70.19916234559538 L -24.34987753448849 70.19916234559538 L -24.24985646256385 70.19246672263276 L -24.150505968125305 70.17910538098505 L -24.052269774598706 70.15913799564755 L -23.955586628671547 70.13265374581037 L -23.86088834074373 70.0997709165624 L -23.768597856357495 70.06063637060151 L -23.679127367219973 70.01542489231001 L -23.59287647025494 69.9643384071252 L -23.510230382905966 69.90760507969135 L -23.431558222661796 69.845478294821 L -23.357211358488033 69.7782355258169 L -23.28752184152806 69.70617709520884 L -23.22280092208201 69.62962483344037 L -23.163337659487357 69.5489206414959 L -23.10939763110979 69.46442496388788 L -23.061221746210176 69.37651517882415 L -23.019025169985355 69.28558391274525 L -22.98299636258812 69.19203728675936 L -22.953296237418435 69.09629310280694 L -22.93005744244512 68.99877897765576 L -22.91338376776783 68.89993043306067 L -22.90334968206527 68.80018895061768 L -22.9 68.7 " stroke="#191919" stroke-width="0.35 px" style="stroke-width:0.35;stroke-miterlimit:4;stroke-dasharray:none;stroke-linecap:square;fill:none;fill-opacity:1;fill-rule: evenodd"/>
<path id="Cut_cs_w0004"  d="M 26.1 68.7 M 26.1 68.7 L 26.09665031793473 68.59981104938232 L 26.08661623223217 68.50006956693933 L 26.06994255755488 68.40122102234425 L 26.046703762581565 68.30370689719308 L 26.01700363741188 68.20796271324065 L 25.980974830014645 68.11441608725477 L 25.938778253789824 68.02348482117586 L 25.89060236889021 67.93557503611213 L 25.836662340512643 67.85107935850411 L 25.77719907791799 67.77037516655963 L 25.71247815847194 67.69382290479116 L 25.642788641511967 67.62176447418311 L 25.568441777338204 67.554521705179 L 25.489769617094034 67.49239492030866 L 25.40712352974506 67.43566159287481 L 25.320872632780027 67.38457510769 L 25.231402143642505 67.33936362939849 L 25.139111659256272 67.3002290834376 L 25.044413371328453 67.26734625418963 L 24.947730225401294 67.24086200435245 L 24.8494940318747 67.22089461901496 L 24.75014353743615 67.20753327736725 L 24.65012246551151 67.20083765440462 L 24.54987753448849 67.20083765440462 L 24.449856462563854 67.20753327736725 L 24.350505968125308 67.22089461901496 L 24.25226977459871 67.24086200435245 L 24.15558662867155 67.26734625418963 L 24.060888340743734 67.3002290834376 L 23.968597856357498 67.33936362939849 L 23.879127367219976 67.38457510769 L 23.792876470254942 67.43566159287481 L 23.71023038290597 67.49239492030866 L 23.6315582226618 67.554521705179 L 23.55721135848804 67.62176447418311 L 23.487521841528064 67.69382290479116 L 23.42280092208201 67.77037516655963 L 23.36333765948736 67.85107935850411 L 23.309397631109793 67.93557503611213 L 23.26122174621018 68.02348482117586 L 23.219025169985358 68.11441608725477 L 23.182996362588124 68.20796271324065 L 23.153296237418438 68.30370689719307 L 23.13005744244512 68.40122102234425 L 23.113383767767832 68.50006956693933 L 23.10334968206527 68.59981104938232 L 23.1 68.7 L 23.10334968206527 68.80018895061768 L 23.113383767767832 68.89993043306067 L 23.13005744244512 68.99877897765576 L 23.153296237418438 69.09629310280692 L 23.182996362588124 69.19203728675936 L 23.219025169985358 69.28558391274524 L 23.26122174621018 69.37651517882415 L 23.309397631109793 69.46442496388788 L 23.36333765948736 69.5489206414959 L 23.42280092208201 69.62962483344037 L 23.487521841528064 69.70617709520884 L 23.557211358488036 69.7782355258169 L 23.6315582226618 69.845478294821 L 23.71023038290597 69.90760507969135 L 23.792876470254942 69.9643384071252 L 23.879127367219976 70.01542489231001 L 23.968597856357498 70.06063637060151 L 24.060888340743734 70.0997709165624 L 24.15558662867155 70.13265374581037 L 24.25226977459871 70.15913799564755 L 24.350505968125308 70.17910538098505 L 24.449856462563854 70.19246672263276 L 24.54987753448849 70.19916234559538 L 24.65012246551151 70.19916234559538 L 24.75014353743615 70.19246672263276 L 24.849494031874695 70.17910538098505 L 24.947730225401294 70.15913799564755 L 25.044413371328453 70.13265374581037 L 25.13911165925627 70.0997709165624 L 25.231402143642505 70.06063637060151 L 25.320872632780027 70.01542489231001 L 25.40712352974506 69.9643384071252 L 25.489769617094034 69.90760507969135 L 25.568441777338204 69.845478294821 L 25.642788641511967 69.7782355258169 L 25.71247815847194 69.70617709520884 L 25.77719907791799 69.62962483344037 L 25.836662340512643 69.5489206414959 L 25.89060236889021 69.46442496388788 L 25.938778253789824 69.37651517882415 L 25.980974830014645 69.28558391274525 L 26.01700363741188 69.19203728675936 L 26.046703762581565 69.09629310280694 L 26.06994255755488 68.99877897765576 L 26.08661623223217 68.89993043306067 L 26.09665031793473 68.80018895061768 L 26.1 68.7 " stroke="#191919" stroke-width="0.35 px" style="stroke-width:0.35;stroke-miterlimit:4;stroke-dasharray:none;stroke-linecap:square;fill:none;fill-opacity:1;fill-rule: evenodd"/>
<title>b'Cut_cs'</title>
</g>
</svg>