<?xml version="1.0"?>
<!DOCTYPE svg PUBLIC "-//W3C//DTD SVG 1.1//EN" "http://www.w3.org/Graphics/SVG/1.1/DTD/svg11.dtd">
<svg width="65.00000000000006mm" height="156.30000000000004mm" viewBox="-32.500000 -132.300000 65.000000 156.300000" xmlns="http://www.w3.org/2000/svg" version="1.1">
<g id="Cut002_cs" transform="scale(1,-1)">
<path id="Cut002_cs_w0000"  d="M -29.500000000000018 -19.000000000004167 L -32.50000000000002 -19.000000000004167 L -32.5 -24.0 L -29.500000000000007 -24.000000000000018 L -29.500000000000007 -20.999999999999982 L 29.500000000000007 -21.000000000000014 L 29.500000000000007 -24.000000000000014 L 32.5 -24.0 L 32.5 -19.000000000004132 L 29.499999999999982 -19.000000000004167 L 29.49999999999995 -14.000000000000021 L 32.49999999999998 -14.000000000000014 L 32.5 70.14999999999597 L 29.49999999999996 70.14999999999593 L 29.49999999999999 80.14999999999594 L 32.49999999999996 80.14999999999594 L 32.5 90.14999999999597 L 29.499999999999957 90.14999999999594 L 29.5 100.14999999999594 L 32.49999999999996 100.14999999999594 L 32.5 110.149999999996 L 29.499999999999954 110.14999999999594 L 29.500000000000007 120.14999999999594 L 32.49999999999995 120.14999999999596 L 32.5 132.3 L 25.0 132.3 L 25.0 129.3 L 15.0 129.3 L 15.0 132.3 L 5.0 132.3 L 5.0 129.3 L -5.0 129.3 L -5.0 132.3 L -15.0 132.3 L -15.0 129.3 L -25.0 129.3 L -25.0 132.3 L -32.5 132.3 L -32.50000000000005 120.14999999999596 L -29.50000000000005 120.14999999999596 L -29.500000000000046 110.14999999999594 L -32.50000000000005 110.14999999999594 L -32.50000000000005 100.14999999999594 L -29.500000000000046 100.14999999999594 L -29.500000000000043 90.14999999999594 L -32.50000000000004 90.14999999999594 L -32.50000000000004 80.14999999999594 L -29.500000000000043 80.14999999999594 L -29.50000000000004 70.14999999999593 L -32.500000000000036 70.14999999999593 L -32.50000000000002 -14.000000000000016 L -29.50000000000002 -14.000000000000014 L -29.500000000000018 -19.000000000004167 " stroke="#191919" stroke-width="0.35 px" style="stroke-width:0.35;stroke-miterlimit:4;stroke-dasharray:none;stroke-linecap:square;fill:none;fill-opacity:1;fill-rule: evenodd"/>
<title>b'Cut002_cs'</title>
</g>
</svg>