<?xml version="1.0"?>
<!DOCTYPE svg PUBLIC "-//W3C//DTD SVG 1.1//EN" "http://www.w3.org/Graphics/SVG/1.1/DTD/svg11.dtd">
<svg width="65.00000000000006mm" height="156.3mm" viewBox="-32.500000 -132.300000 65.000000 156.300000" xmlns="http://www.w3.org/2000/svg" version="1.1">
<g id="Cut002_cs" transform="scale(1,-1)">
<path id="Cut002_cs_w0000"  d="M -29.500000000000018 -19.000000000000014 L -32.50000000000002 -19.000000000000014 L -32.5 -24.0 L -25.0 -24.000000000000014 L -25.0 -21.000000000000018 L -15.0 -21.000000000000014 L -15.0 -24.000000000000014 L -5.0 -24.000000000000014 L -5.0 -21.000000000000018 L 5.0 -21.000000000000014 L 5.0 -24.000000000000014 L 15.0 -24.000000000000014 L 15.0 -21.000000000000018 L 25.0 -21.000000000000014 L 25.0 -24.000000000000014 L 32.5 -24.0 L 32.5 -18.99999999999998 L 29.499999999999982 -19.000000000000014 L 29.49999999999995 -13.999999999999996 L 32.49999999999998 -14.000000000000014 L 32.5 70.15000000000005 L 29.49999999999996 70.15 L 29.49999999999999 80.15000000000003 L 32.49999999999996 80.15000000000002 L 32.5 90.15000000000005 L 29.499999999999957 90.15000000000002 L 29.5 100.15000000000002 L 32.49999999999996 100.15000000000002 L 32.5 110.15000000000006 L 29.499999999999954 110.15000000000002 L 29.500000000000007 120.15000000000005 L 32.49999999999995 120.15000000000003 L 32.5 132.3 L 25.0 132.3 L 25.0 129.3 L 15.0 129.3 L 15.0 132.3 L 5.0 132.3 L 5.0 129.3 L -5.0 129.3 L -5.0 132.3 L -15.0 132.3 L -15.0 129.3 L -25.0 129.3 L -25.0 132.3 L -32.5 132.3 L -32.50000000000005 120.15000000000003 L -29.50000000000005 120.15000000000003 L -29.500000000000046 110.15000000000002 L -32.50000000000005 110.15000000000002 L -32.50000000000005 100.15000000000002 L -29.500000000000046 100.15000000000002 L -29.500000000000043 90.15000000000002 L -32.50000000000004 90.15000000000002 L -32.50000000000004 80.15000000000002 L -29.500000000000043 80.15000000000002 L -29.50000000000004 70.15 L -32.500000000000036 70.15 L -32.50000000000002 -14.000000000000016 L -29.50000000000002 -14.000000000000014 L -29.500000000000018 -19.000000000000014 " stroke="#191919" stroke-width="0.35 px" style="stroke-width:0.35;stroke-miterlimit:4;stroke-dasharray:none;stroke-linecap:square;fill:none;fill-opacity:1;fill-rule: evenodd"/>
<path id="Cut002_cs_w0001"  d="M -20.5 19.650000000000006 M -20.5 19.650000000000006 L -20.502001762178768 19.549975983673846 L -20.508003843073613 19.450112146781976 L -20.517996630893713 19.350568412245735 L -20.531964123091292 19.25150419037152 L -20.54988395198826 19.153078123569372 L -20.57172742059603 19.055447832301667 L -20.597459548571152 18.958769662668033 L -20.627039128233175 18.863198436031297 L -20.660418790555035 18.76888720108488 L -20.697545081020273 18.675986988759377 L -20.738358545225616 18.584646570359865 L -20.782793824091836 18.495012219322348 L -20.830779758530426 18.407227476969865 L -20.882239503398452 18.321432922644135 L -20.9370906505591 18.23776594858029 L -20.9952453608509 18.15636053988584 L -21.056610504754186 18.077347059975352 L -21.121087811529627 18.000852041805388 L -21.188574026589954 17.92699798524336 L -21.258961076852845 17.855903160894997 L -21.332136243810233 17.787681420704672 L -21.407982344036803 17.722442015631856 L -21.486377916848678 17.660289420695392 L -21.56719741881176 17.601323167666436 L -21.650311424788164 17.545637685677065 L -21.73558683519895 17.493322150000665 L -21.822887089171044 17.444460339245808 L -21.912072383227166 17.399130501192275 L -22.002999895168482 17.357405227484378 L -22.09552401279146 17.31935133738199 L -22.189496567072677 17.285029770755443 L -22.28476706944813 17.25449549049597 L -22.381182952807094 17.22779739449743 L -22.478589815814573 17.2049782373509 L -22.576831670171114 17.18607456187695 L -22.67575119041398 17.171116640605703 L -22.775189965859674 17.160128427297934 L -22.87498875428437 17.153127518585592 L -22.97498773693594 17.150125125792016 L -23.07502677446928 17.151126056978313 L -23.174945663394993 17.156128709243546 L -23.27458439263085 17.165125071291612 L -23.373783399745065 17.17810073626069 L -23.472383826481153 17.19503492479444 L -23.570227773155075 17.21590051831842 L -23.667158551517325 17.240664102467804 L -23.763020935675044 17.26928602059769 L -23.857661410672247 17.301720437289532 L -23.950928418330193 17.33791541175242 L -24.042672599954116 17.377812981001597 L -24.1327470355177 17.421349252680926 L -24.221007478942234 17.468454507380812 L -24.3073125890937 17.519053310287404 L -24.391524156127826 17.57306463198472 L -24.473507322820687 17.630401978216014 L -24.553130800530386 17.69097352839637 L -24.63026707944394 17.754682282655153 L -24.704792632772755 17.821426217172586 L -24.77658811456963 17.89109844756169 L -24.845538550850513 17.963587400033845 L -24.911533523714954 18.038776990074354 L -24.97446734817042 18.1165468083411 L -25.034239241377264 18.196772313489447 L -25.090753484043347 18.27932503161378 L -25.143919573709844 18.36407276198699 L -25.19365236968276 18.450879788767963 L -25.239872229378086 18.539607098338223 L -25.282505135862177 18.63011260191982 L -25.321482816383217 18.722251363117437 L -25.356742851703864 18.81587583002127 L -25.388228776060018 18.910836071497755 L -25.415890167585637 19.006980017291056 L -25.439682729058838 19.104153701549592 L -25.45956835883986 19.202201509388658 L -25.47551521188743 19.30096642609351 L -25.4874977507557 19.400290288564264 L -25.49549678649019 19.5000140385998 L -25.499499509357133 19.599977977615282 L -25.499499509357133 19.70002202238473 L -25.49549678649019 19.79998596140021 L -25.4874977507557 19.899709711435747 L -25.47551521188743 19.9990335739065 L -25.45956835883986 20.097798490611353 L -25.439682729058838 20.19584629845042 L -25.415890167585637 20.293019982708955 L -25.388228776060018 20.389163928502256 L -25.356742851703867 20.48412416997874 L -25.321482816383217 20.577748636882575 L -25.282505135862177 20.669887398080192 L -25.239872229378086 20.76039290166179 L -25.193652369682763 20.849120211232048 L -25.143919573709844 20.935927238013022 L -25.090753484043347 21.02067496838623 L -25.034239241377264 21.103227686510564 L -24.97446734817042 21.183453191658913 L -24.911533523714954 21.261223009925658 L -24.845538550850513 21.336412599966167 L -24.77658811456963 21.408901552438323 L -24.704792632772755 21.478573782827425 L -24.63026707944394 21.545317717344858 L -24.553130800530386 21.60902647160364 L -24.47350732282069 21.669598021783997 L -24.391524156127826 21.72693536801529 L -24.3073125890937 21.780946689712607 L -24.221007478942237 21.8315454926192 L -24.132747035517703 21.878650747319085 L -24.042672599954116 21.922187018998414 L -23.950928418330193 21.962084588247592 L -23.857661410672247 21.99827956271048 L -23.763020935675044 22.03071397940232 L -23.667158551517325 22.059335897532208 L -23.570227773155075 22.08409948168159 L -23.472383826481156 22.10496507520557 L -23.37378339974507 22.121899263739323 L -23.27458439263085 22.1348749287084 L -23.174945663394993 22.143871290756465 L -23.07502677446928 22.148873943021698 L -22.97498773693594 22.149874874207995 L -22.87498875428437 22.14687248141442 L -22.775189965859674 22.139871572702077 L -22.67575119041398 22.128883359394308 L -22.576831670171114 22.11392543812306 L -22.478589815814573 22.09502176264911 L -22.381182952807094 22.072202605502582 L -22.28476706944813 22.045504509504042 L -22.189496567072677 22.014970229244568 L -22.09552401279146 21.980648662618023 L -22.002999895168482 21.942594772515633 L -21.912072383227166 21.900869498807737 L -21.822887089171044 21.855539660754204 L -21.73558683519895 21.806677849999346 L -21.650311424788164 21.754362314322947 L -21.567197418811755 21.698676832333575 L -21.48637791684868 21.63971057930462 L -21.4079823440368 21.577557984368156 L -21.332136243810233 21.51231857929534 L -21.258961076852845 21.444096839105015 L -21.188574026589954 21.37300201475665 L -21.121087811529627 21.299147958194624 L -21.056610504754186 21.22265294002466 L -20.9952453608509 21.143639460114173 L -20.937090650559103 21.062234051419722 L -20.882239503398452 20.978567077355876 L -20.83077975853043 20.892772523030146 L -20.782793824091836 20.804987780677664 L -20.738358545225616 20.715353429640146 L -20.697545081020273 20.624013011240635 L -20.660418790555035 20.53111279891513 L -20.627039128233175 20.436801563968714 L -20.597459548571152 20.34123033733198 L -20.57172742059603 20.244552167698345 L -20.549883951988264 20.14692187643064 L -20.531964123091292 20.04849580962849 L -20.517996630893713 19.949431587754276 L -20.508003843073613 19.849887853218036 L -20.502001762178768 19.750024016326165 L -20.5 19.650000000000006 " stroke="#191919" stroke-width="0.35 px" style="stroke-width:0.35;stroke-miterlimit:4;stroke-dasharray:none;stroke-linecap:square;fill:none;fill-opacity:1;fill-rule: evenodd"/>
<path id="Cut002_cs_w0002"  d="M -19.9 40.0 M -19.9 40.0 L -19.902001762178767 39.89997598367384 L -19.90800384307361 39.80011214678197 L -19.91799663089371 39.70056841224573 L -19.93196412309129 39.601504190371514 L -19.94988395198826 39.50307812356937 L -19.97172742059603 39.40544783230166 L -19.99745954857115 39.30876966266803 L -20.027039128233174 39.21319843603129 L -20.060418790555033 39.118887201084874 L -20.09754508102027 39.02598698875937 L -20.138358545225614 38.93464657035986 L -20.182793824091835 38.84501221932234 L -20.230779758530424 38.75722747696986 L -20.28223950339845 38.67143292264413 L -20.337090650559098 38.587765948580284 L -20.3952453608509 38.50636053988583 L -20.456610504754185 38.42734705997535 L -20.521087811529625 38.35085204180538 L -20.588574026589953 38.276997985243355 L -20.658961076852844 38.20590316089499 L -20.73213624381023 38.137681420704666 L -20.8079823440368 38.07244201563185 L -20.886377916848677 38.010289420695386 L -20.967197418811757 37.95132316766643 L -21.050311424788163 37.89563768567706 L -21.13558683519895 37.84332215000066 L -21.222887089171042 37.7944603392458 L -21.312072383227164 37.74913050119227 L -21.40299989516848 37.70740522748437 L -21.49552401279146 37.66935133738198 L -21.589496567072676 37.63502977075544 L -21.684767069448128 37.604495490495964 L -21.781182952807093 37.57779739449742 L -21.87858981581457 37.554978237350895 L -21.976831670171112 37.536074561876944 L -22.07575119041398 37.5211166406057 L -22.175189965859673 37.51012842729793 L -22.27498875428437 37.503127518585586 L -22.37498773693594 37.50012512579201 L -22.475026774469278 37.50112605697831 L -22.574945663394992 37.50612870924354 L -22.674584392630848 37.51512507129161 L -22.773783399745064 37.52810073626068 L -22.87238382648115 37.545034924794436 L -22.970227773155074 37.565900518318415 L -23.067158551517323 37.5906641024678 L -23.163020935675043 37.619286020597684 L -23.257661410672245 37.651720437289526 L -23.35092841833019 37.687915411752414 L -23.442672599954115 37.72781298100159 L -23.532747035517698 37.77134925268092 L -23.621007478942232 37.81845450738081 L -23.7073125890937 37.8690533102874 L -23.791524156127824 37.923064631984715 L -23.873507322820686 37.98040197821601 L -23.953130800530385 38.040973528396364 L -24.030267079443938 38.10468228265515 L -24.104792632772753 38.17142621717258 L -24.17658811456963 38.24109844756168 L -24.24553855085051 38.31358740003384 L -24.311533523714953 38.38877699007435 L -24.37446734817042 38.46654680834109 L -24.434239241377263 38.54677231348944 L -24.490753484043346 38.629325031613774 L -24.543919573709843 38.71407276198698 L -24.593652369682758 38.80087978876796 L -24.639872229378085 38.88960709833822 L -24.682505135862176 38.980112601919814 L -24.721482816383215 39.07225136311743 L -24.756742851703862 39.165875830021264 L -24.788228776060016 39.26083607149775 L -24.815890167585636 39.35698001729105 L -24.839682729058836 39.454153701549586 L -24.85956835883986 39.55220150938865 L -24.87551521188743 39.650966426093504 L -24.8874977507557 39.75029028856426 L -24.895496786490188 39.850014038599795 L -24.89949950935713 39.949977977615276 L -24.89949950935713 40.050022022384724 L -24.895496786490188 40.149985961400205 L -24.8874977507557 40.24970971143574 L -24.87551521188743 40.349033573906496 L -24.85956835883986 40.44779849061135 L -24.839682729058836 40.545846298450414 L -24.815890167585636 40.64301998270895 L -24.788228776060016 40.73916392850225 L -24.756742851703866 40.834124169978736 L -24.721482816383215 40.92774863688257 L -24.682505135862176 41.019887398080186 L -24.639872229378085 41.11039290166178 L -24.59365236968276 41.19912021123204 L -24.543919573709843 41.28592723801302 L -24.490753484043346 41.370674968386226 L -24.434239241377263 41.45322768651056 L -24.37446734817042 41.53345319165891 L -24.311533523714953 41.61122300992565 L -24.24553855085051 41.68641259996616 L -24.17658811456963 41.75890155243832 L -24.104792632772753 41.82857378282742 L -24.030267079443938 41.89531771734485 L -23.953130800530385 41.959026471603636 L -23.87350732282069 42.01959802178399 L -23.791524156127824 42.076935368015285 L -23.7073125890937 42.1309466897126 L -23.621007478942236 42.18154549261919 L -23.5327470355177 42.22865074731908 L -23.442672599954115 42.27218701899841 L -23.35092841833019 42.312084588247586 L -23.257661410672245 42.348279562710474 L -23.163020935675043 42.380713979402316 L -23.067158551517323 42.4093358975322 L -22.970227773155074 42.434099481681585 L -22.872383826481155 42.454965075205564 L -22.773783399745067 42.47189926373932 L -22.674584392630848 42.48487492870839 L -22.574945663394992 42.49387129075646 L -22.475026774469278 42.49887394302169 L -22.37498773693594 42.49987487420799 L -22.27498875428437 42.496872481414414 L -22.175189965859673 42.48987157270207 L -22.07575119041398 42.4788833593943 L -21.976831670171112 42.463925438123056 L -21.87858981581457 42.445021762649105 L -21.781182952807093 42.42220260550258 L -21.684767069448128 42.395504509504036 L -21.589496567072676 42.36497022924456 L -21.49552401279146 42.33064866261802 L -21.40299989516848 42.29259477251563 L -21.312072383227164 42.25086949880773 L -21.222887089171042 42.2055396607542 L -21.13558683519895 42.15667784999934 L -21.050311424788163 42.10436231432294 L -20.967197418811754 42.04867683233357 L -20.88637791684868 41.989710579304614 L -20.807982344036798 41.92755798436815 L -20.73213624381023 41.862318579295334 L -20.658961076852844 41.79409683910501 L -20.588574026589953 41.723002014756645 L -20.521087811529625 41.64914795819462 L -20.456610504754185 41.57265294002465 L -20.3952453608509 41.49363946011417 L -20.3370906505591 41.412234051419716 L -20.28223950339845 41.32856707735587 L -20.230779758530428 41.24277252303014 L -20.182793824091835 41.15498778067766 L -20.138358545225614 41.06535342964014 L -20.09754508102027 40.97401301124063 L -20.060418790555033 40.881112798915126 L -20.027039128233174 40.78680156396871 L -19.99745954857115 40.69123033733197 L -19.97172742059603 40.59455216769834 L -19.949883951988262 40.49692187643063 L -19.93196412309129 40.398495809628486 L -19.91799663089371 40.29943158775427 L -19.90800384307361 40.19988785321803 L -19.902001762178767 40.10002401632616 L -19.9 40.0 " stroke="#191919" stroke-width="0.35 px" style="stroke-width:0.35;stroke-miterlimit:4;stroke-dasharray:none;stroke-linecap:square;fill:none;fill-opacity:1;fill-rule: evenodd"/>
<path id="Cut002_cs_w0003"  d="M 22.2 21.900000000000006 L -19.6 21.900000000000006 L -19.6 23.400000000000006 L 22.199999999999996 23.400000000000006 L 22.199999999999996 21.900000000000006 " stroke="#191919" stroke-width="0.35 px" style="stroke-width:0.35;stroke-miterlimit:4;stroke-dasharray:none;stroke-linecap:square;fill:none;fill-opacity:1;fill-rule: evenodd"/>
<path id="Cut002_cs_w0004"  d="M 22.2 26.400000000000006 L -19.6 26.400000000000006 L -19.6 27.900000000000006 L 22.199999999999996 27.900000000000006 L 22.199999999999996 26.400000000000006 " stroke="#191919" stroke-width="0.35 px" style="stroke-width:0.35;stroke-miterlimit:4;stroke-dasharray:none;stroke-linecap:square;fill:none;fill-opacity:1;fill-rule: evenodd"/>
<path id="Cut002_cs_w0005"  d="M 28.250000000000004 19.650000000000006 M 28.250000000000004 19.650000000000006 L 28.247998237821236 19.549975983673846 L 28.24199615692639 19.450112146781976 L 28.23200336910629 19.350568412245735 L 28.21803587690871 19.25150419037152 L 28.200116048011743 19.153078123569372 L 28.178272579403973 19.055447832301667 L 28.15254045142885 18.958769662668033 L 28.12296087176683 18.863198436031297 L 28.08958120944497 18.76888720108488 L 28.05245491897973 18.675986988759377 L 28.011641454774388 18.584646570359865 L 27.967206175908167 18.495012219322348 L 27.919220241469574 18.407227476969865 L 27.867760496601555 18.321432922644135 L 27.8129093494409 18.23776594858029 L 27.754754639149102 18.15636053988584 L 27.693389495245817 18.077347059975352 L 27.628912188470377 18.000852041805388 L 27.56142597341005 17.92699798524336 L 27.49103892314716 17.855903160894997 L 27.41786375618977 17.787681420704672 L 27.3420176559632 17.722442015631856 L 27.263622083151326 17.660289420695392 L 27.18280258118825 17.601323167666436 L 27.09968857521184 17.545637685677065 L 27.014413164801052 17.493322150000665 L 26.92711291082896 17.444460339245808 L 26.837927616772838 17.399130501192275 L 26.74700010483152 17.357405227484378 L 26.654475987208542 17.31935133738199 L 26.560503432927327 17.285029770755443 L 26.465232930551874 17.25449549049597 L 26.36881704719291 17.22779739449743 L 26.27141018418543 17.2049782373509 L 26.17316832982889 17.18607456187695 L 26.074248809586024 17.171116640605703 L 25.97481003414033 17.160128427297934 L 25.875011245715633 17.153127518585592 L 25.775012263064063 17.150125125792016 L 25.674973225530724 17.151126056978313 L 25.57505433660501 17.156128709243546 L 25.475415607369154 17.165125071291612 L 25.37621660025494 17.17810073626069 L 25.27761617351885 17.19503492479444 L 25.17977222684493 17.21590051831842 L 25.08284144848268 17.240664102467804 L 24.98697906432496 17.26928602059769 L 24.892338589327757 17.301720437289532 L 24.79907158166981 17.33791541175242 L 24.707327400045887 17.377812981001597 L 24.617252964482304 17.421349252680926 L 24.52899252105777 17.468454507380812 L 24.442687410906302 17.519053310287404 L 24.358475843872178 17.57306463198472 L 24.276492677179313 17.630401978216014 L 24.196869199469617 17.69097352839637 L 24.119732920556068 17.754682282655153 L 24.04520736722725 17.821426217172586 L 23.973411885430373 17.89109844756169 L 23.90446144914949 17.963587400033845 L 23.83846647628505 18.038776990074354 L 23.775532651829582 18.1165468083411 L 23.71576075862274 18.196772313489447 L 23.659246515956657 18.27932503161378 L 23.60608042629016 18.36407276198699 L 23.55634763031724 18.450879788767963 L 23.51012777062192 18.539607098338223 L 23.467494864137826 18.63011260191982 L 23.428517183616787 18.722251363117437 L 23.393257148296136 18.81587583002127 L 23.36177122393999 18.910836071497755 L 23.334109832414363 19.006980017291056 L 23.310317270941166 19.104153701549592 L 23.290431641160144 19.202201509388658 L 23.274484788112574 19.30096642609351 L 23.262502249244303 19.400290288564264 L 23.254503213509814 19.5000140385998 L 23.25050049064287 19.599977977615282 L 23.25050049064287 19.70002202238473 L 23.254503213509814 19.79998596140021 L 23.262502249244303 19.899709711435747 L 23.274484788112574 19.9990335739065 L 23.290431641160144 20.097798490611353 L 23.310317270941166 20.19584629845042 L 23.334109832414363 20.293019982708955 L 23.361771223939986 20.389163928502256 L 23.393257148296136 20.48412416997874 L 23.428517183616783 20.577748636882575 L 23.467494864137826 20.669887398080192 L 23.51012777062192 20.76039290166179 L 23.55634763031724 20.849120211232048 L 23.60608042629016 20.935927238013022 L 23.659246515956657 21.02067496838623 L 23.715760758622736 21.103227686510564 L 23.775532651829582 21.183453191658913 L 23.83846647628505 21.261223009925658 L 23.90446144914949 21.336412599966167 L 23.973411885430373 21.408901552438323 L 24.04520736722725 21.478573782827425 L 24.119732920556064 21.545317717344858 L 24.196869199469617 21.60902647160364 L 24.276492677179313 21.669598021783997 L 24.358475843872178 21.72693536801529 L 24.442687410906302 21.780946689712607 L 24.528992521057766 21.8315454926192 L 24.6172529644823 21.878650747319085 L 24.707327400045887 21.922187018998414 L 24.79907158166981 21.962084588247592 L 24.892338589327757 21.99827956271048 L 24.98697906432496 22.03071397940232 L 25.08284144848268 22.059335897532208 L 25.17977222684493 22.08409948168159 L 25.277616173518847 22.10496507520557 L 25.376216600254935 22.121899263739323 L 25.475415607369154 22.1348749287084 L 25.57505433660501 22.143871290756465 L 25.674973225530724 22.148873943021698 L 25.775012263064063 22.149874874207995 L 25.875011245715633 22.14687248141442 L 25.97481003414033 22.139871572702077 L 26.074248809586024 22.128883359394308 L 26.17316832982889 22.11392543812306 L 26.27141018418543 22.09502176264911 L 26.36881704719291 22.072202605502582 L 26.465232930551874 22.045504509504042 L 26.560503432927327 22.014970229244568 L 26.654475987208542 21.980648662618023 L 26.74700010483152 21.942594772515633 L 26.837927616772838 21.900869498807737 L 26.92711291082896 21.855539660754204 L 27.014413164801052 21.806677849999346 L 27.09968857521184 21.754362314322947 L 27.18280258118825 21.698676832333575 L 27.263622083151322 21.63971057930462 L 27.342017655963204 21.577557984368156 L 27.41786375618977 21.51231857929534 L 27.49103892314716 21.444096839105015 L 27.56142597341005 21.37300201475665 L 27.628912188470377 21.299147958194624 L 27.693389495245817 21.22265294002466 L 27.754754639149102 21.143639460114173 L 27.8129093494409 21.062234051419722 L 27.867760496601555 20.978567077355876 L 27.919220241469574 20.892772523030146 L 27.967206175908167 20.804987780677664 L 28.011641454774388 20.715353429640146 L 28.05245491897973 20.624013011240635 L 28.08958120944497 20.53111279891513 L 28.12296087176683 20.436801563968714 L 28.15254045142885 20.34123033733198 L 28.178272579403973 20.244552167698345 L 28.200116048011743 20.14692187643064 L 28.21803587690871 20.04849580962849 L 28.23200336910629 19.949431587754276 L 28.24199615692639 19.849887853218036 L 28.247998237821236 19.750024016326165 L 28.250000000000004 19.650000000000006 " stroke="#191919" stroke-width="0.35 px" style="stroke-width:0.35;stroke-miterlimit:4;stroke-dasharray:none;stroke-linecap:square;fill:none;fill-opacity:1;fill-rule: evenodd"/>
<path id="Cut002_cs_w0006"  d="M 27.8 41.0 M 27.8 41.0 L 27.797998237821233 40.89997598367384 L 27.791996156926388 40.80011214678197 L 27.782003369106288 40.70056841224573 L 27.76803587690871 40.601504190371514 L 27.75011604801174 40.50307812356937 L 27.72827257940397 40.40544783230166 L 27.70254045142885 40.30876966266803 L 27.672960871766826 40.21319843603129 L 27.639581209444966 40.118887201084874 L 27.602454918979728 40.02598698875937 L 27.561641454774385 39.93464657035986 L 27.517206175908164 39.84501221932234 L 27.46922024146957 39.75722747696986 L 27.417760496601552 39.67143292264413 L 27.362909349440898 39.587765948580284 L 27.3047546391491 39.50636053988583 L 27.243389495245815 39.42734705997535 L 27.178912188470374 39.35085204180538 L 27.111425973410046 39.276997985243355 L 27.041038923147156 39.20590316089499 L 26.967863756189768 39.137681420704666 L 26.892017655963198 39.07244201563185 L 26.813622083151323 39.010289420695386 L 26.732802581188245 38.95132316766643 L 26.649688575211837 38.89563768567706 L 26.56441316480105 38.84332215000066 L 26.477112910828957 38.7944603392458 L 26.387927616772835 38.74913050119227 L 26.29700010483152 38.70740522748437 L 26.20447598720854 38.66935133738198 L 26.110503432927324 38.63502977075544 L 26.01523293055187 38.604495490495964 L 25.918817047192906 38.57779739449742 L 25.821410184185428 38.554978237350895 L 25.723168329828887 38.536074561876944 L 25.62424880958602 38.5211166406057 L 25.524810034140327 38.51012842729793 L 25.42501124571563 38.503127518585586 L 25.32501226306406 38.50012512579201 L 25.22497322553072 38.50112605697831 L 25.125054336605007 38.50612870924354 L 25.02541560736915 38.51512507129161 L 24.926216600254936 38.52810073626068 L 24.827616173518848 38.545034924794436 L 24.729772226844926 38.565900518318415 L 24.632841448482676 38.5906641024678 L 24.536979064324957 38.619286020597684 L 24.442338589327754 38.651720437289526 L 24.349071581669808 38.687915411752414 L 24.257327400045885 38.72781298100159 L 24.1672529644823 38.77134925268092 L 24.078992521057767 38.81845450738081 L 23.9926874109063 38.8690533102874 L 23.908475843872175 38.923064631984715 L 23.82649267717931 38.98040197821601 L 23.746869199469614 39.040973528396364 L 23.669732920556065 39.10468228265515 L 23.595207367227246 39.17142621717258 L 23.52341188543037 39.24109844756168 L 23.454461449149488 39.31358740003384 L 23.388466476285046 39.38877699007435 L 23.32553265182958 39.46654680834109 L 23.265760758622736 39.54677231348944 L 23.209246515956654 39.629325031613774 L 23.156080426290156 39.71407276198698 L 23.106347630317238 39.80087978876796 L 23.060127770621918 39.88960709833822 L 23.017494864137824 39.980112601919814 L 22.978517183616784 40.07225136311743 L 22.943257148296134 40.165875830021264 L 22.911771223939986 40.26083607149775 L 22.88410983241436 40.35698001729105 L 22.860317270941163 40.454153701549586 L 22.84043164116014 40.55220150938865 L 22.82448478811257 40.650966426093504 L 22.8125022492443 40.75029028856426 L 22.80450321350981 40.850014038599795 L 22.800500490642868 40.949977977615276 L 22.800500490642868 41.050022022384724 L 22.80450321350981 41.149985961400205 L 22.8125022492443 41.24970971143574 L 22.82448478811257 41.349033573906496 L 22.84043164116014 41.44779849061135 L 22.860317270941163 41.545846298450414 L 22.88410983241436 41.64301998270895 L 22.911771223939983 41.73916392850225 L 22.943257148296134 41.834124169978736 L 22.97851718361678 41.92774863688257 L 23.017494864137824 42.019887398080186 L 23.060127770621918 42.11039290166178 L 23.106347630317238 42.19912021123204 L 23.156080426290156 42.28592723801302 L 23.209246515956654 42.370674968386226 L 23.265760758622733 42.45322768651056 L 23.32553265182958 42.53345319165891 L 23.388466476285046 42.61122300992565 L 23.454461449149488 42.68641259996616 L 23.52341188543037 42.75890155243832 L 23.595207367227246 42.82857378282742 L 23.66973292055606 42.89531771734485 L 23.746869199469614 42.959026471603636 L 23.82649267717931 43.01959802178399 L 23.908475843872175 43.076935368015285 L 23.9926874109063 43.1309466897126 L 24.078992521057764 43.18154549261919 L 24.167252964482298 43.22865074731908 L 24.257327400045885 43.27218701899841 L 24.349071581669808 43.312084588247586 L 24.442338589327754 43.348279562710474 L 24.536979064324957 43.380713979402316 L 24.632841448482676 43.4093358975322 L 24.729772226844926 43.434099481681585 L 24.827616173518845 43.454965075205564 L 24.926216600254932 43.47189926373932 L 25.02541560736915 43.48487492870839 L 25.125054336605007 43.49387129075646 L 25.22497322553072 43.49887394302169 L 25.32501226306406 43.49987487420799 L 25.42501124571563 43.496872481414414 L 25.524810034140327 43.48987157270207 L 25.62424880958602 43.4788833593943 L 25.723168329828887 43.463925438123056 L 25.821410184185428 43.445021762649105 L 25.918817047192906 43.42220260550258 L 26.01523293055187 43.395504509504036 L 26.110503432927324 43.36497022924456 L 26.20447598720854 43.33064866261802 L 26.29700010483152 43.29259477251563 L 26.387927616772835 43.25086949880773 L 26.477112910828957 43.2055396607542 L 26.56441316480105 43.15667784999934 L 26.649688575211837 43.10436231432294 L 26.732802581188245 43.04867683233357 L 26.81362208315132 42.989710579304614 L 26.8920176559632 42.92755798436815 L 26.967863756189768 42.862318579295334 L 27.041038923147156 42.79409683910501 L 27.111425973410046 42.723002014756645 L 27.178912188470374 42.64914795819462 L 27.243389495245815 42.57265294002465 L 27.3047546391491 42.49363946011417 L 27.362909349440898 42.412234051419716 L 27.417760496601552 42.32856707735587 L 27.46922024146957 42.24277252303014 L 27.517206175908164 42.15498778067766 L 27.561641454774385 42.06535342964014 L 27.602454918979728 41.97401301124063 L 27.639581209444966 41.881112798915126 L 27.672960871766826 41.78680156396871 L 27.70254045142885 41.69123033733197 L 27.72827257940397 41.59455216769834 L 27.75011604801174 41.49692187643063 L 27.76803587690871 41.398495809628486 L 27.782003369106288 41.29943158775427 L 27.791996156926388 41.19988785321803 L 27.797998237821233 41.10002401632616 L 27.8 41.0 " stroke="#191919" stroke-width="0.35 px" style="stroke-width:0.35;stroke-miterlimit:4;stroke-dasharray:none;stroke-linecap:square;fill:none;fill-opacity:1;fill-rule: evenodd"/>
<path id="Cut002_cs_w0007"  d="M -12.75 77.4 L -24.75 77.4 L -24.75 87.5 L -12.75 87.5 L -12.75 77.4 " stroke="#191919" stroke-width="0.35 px" style="stroke-width:0.35;stroke-miterlimit:4;stroke-dasharray:none;stroke-linecap:square;fill:none;fill-opacity:1;fill-rule: evenodd"/>
<path id="Cut002_cs_w0008"  d="M -14.95 91.9 M -14.95 91.89999999999999 L -14.952001762178767 91.79997598367383 L -14.958003843073612 91.70011214678195 L -14.967996630893712 91.60056841224574 L -14.981964123091291 91.5015041903715 L -14.999883951988261 91.40307812356936 L -15.02172742059603 91.30544783230165 L -15.047459548571151 91.20876966266803 L -15.077039128233174 91.11319843603127 L -15.110418790555034 91.01888720108488 L -15.147545081020272 90.92598698875935 L -15.188358545225615 90.83464657035985 L -15.232793824091836 90.74501221932233 L -15.280779758530427 90.65722747696985 L -15.33223950339845 90.5714329226441 L -15.3870906505591 90.48776594858028 L -15.4452453608509 90.40636053988581 L -15.506610504754184 90.32734705997532 L -15.571087811529626 90.25085204180537 L -15.638574026589952 90.17699798524335 L -15.708961076852844 90.10590316089498 L -15.782136243810232 90.03768142070467 L -15.8579823440368 89.97244201563183 L -15.936377916848679 89.91028942069539 L -16.017197418811755 89.85132316766642 L -16.100311424788163 89.79563768567704 L -16.18558683519895 89.74332215000065 L -16.272887089171043 89.69446033924578 L -16.362072383227165 89.64913050119226 L -16.45299989516848 89.60740522748438 L -16.54552401279146 89.56935133738197 L -16.639496567072676 89.53502977075544 L -16.73476706944813 89.50449549049596 L -16.831182952807094 89.47779739449741 L -16.928589815814572 89.45497823735089 L -17.026831670171113 89.43607456187695 L -17.12575119041398 89.42111664060567 L -17.225189965859673 89.41012842729793 L -17.32498875428437 89.40312751858556 L -17.42498773693594 89.400125125792 L -17.52502677446928 89.40112605697831 L -17.624945663394993 89.40612870924353 L -17.72458439263085 89.4151250712916 L -17.823783399745064 89.42810073626066 L -17.922383826481152 89.44503492479444 L -18.020227773155074 89.46590051831839 L -18.117158551517324 89.49066410246779 L -18.213020935675043 89.51928602059768 L -18.307661410672246 89.55172043728952 L -18.400928418330192 89.5879154117524 L -18.492672599954115 89.62781298100157 L -18.5827470355177 89.67134925268091 L -18.671007478942233 89.7184545073808 L -18.7573125890937 89.76905331028738 L -18.841524156127825 89.82306463198472 L -18.92350732282069 89.880401978216 L -19.003130800530386 89.94097352839634 L -19.080267079443935 90.00468228265512 L -19.154792632772754 90.07142621717259 L -19.22658811456963 90.14109844756167 L -19.295538550850512 90.21358740003384 L -19.361533523714954 90.28877699007434 L -19.42446734817042 90.3665468083411 L -19.484239241377264 90.44677231348943 L -19.540753484043346 90.52932503161375 L -19.593919573709844 90.61407276198696 L -19.643652369682762 90.70087978876793 L -19.689872229378082 90.78960709833822 L -19.732505135862176 90.88011260191979 L -19.771482816383216 90.97225136311744 L -19.806742851703866 91.06587583002124 L -19.838228776060014 91.16083607149774 L -19.86589016758564 91.25698001729103 L -19.889682729058837 91.35415370154958 L -19.90956835883986 91.45220150938866 L -19.92551521188743 91.5509664260935 L -19.9374977507557 91.65029028856424 L -19.94549678649019 91.7500140385998 L -19.949499509357132 91.84997797761525 L -19.949499509357132 91.95002202238473 L -19.94549678649019 92.04998596140018 L -19.9374977507557 92.14970971143575 L -19.92551521188743 92.24903357390649 L -19.90956835883986 92.34779849061132 L -19.889682729058837 92.4458462984504 L -19.86589016758564 92.54301998270896 L -19.838228776060017 92.63916392850224 L -19.806742851703866 92.73412416997874 L -19.77148281638322 92.82774863688255 L -19.732505135862176 92.91988739808019 L -19.689872229378082 93.01039290166176 L -19.643652369682762 93.09912021123205 L -19.593919573709844 93.18592723801302 L -19.540753484043346 93.27067496838623 L -19.484239241377267 93.35322768651055 L -19.42446734817042 93.43345319165888 L -19.361533523714954 93.51122300992564 L -19.295538550850512 93.58641259996614 L -19.22658811456963 93.65890155243831 L -19.154792632772754 93.7285737828274 L -19.08026707944394 93.79531771734486 L -19.003130800530386 93.85902647160364 L -18.92350732282069 93.91959802178398 L -18.841524156127825 93.97693536801526 L -18.7573125890937 94.0309466897126 L -18.671007478942236 94.08154549261918 L -18.582747035517702 94.12865074731906 L -18.492672599954115 94.17218701899841 L -18.400928418330192 94.21208458824758 L -18.307661410672246 94.24827956271047 L -18.213020935675043 94.28071397940231 L -18.117158551517324 94.3093358975322 L -18.020227773155074 94.33409948168159 L -17.922383826481155 94.35496507520554 L -17.823783399745068 94.37189926373932 L -17.72458439263085 94.38487492870838 L -17.624945663394993 94.39387129075645 L -17.52502677446928 94.39887394302167 L -17.42498773693594 94.39987487420798 L -17.32498875428437 94.39687248141442 L -17.225189965859673 94.38987157270205 L -17.12575119041398 94.37888335939431 L -17.026831670171113 94.36392543812303 L -16.928589815814572 94.3450217626491 L -16.831182952807094 94.32220260550257 L -16.73476706944813 94.29550450950403 L -16.639496567072676 94.26497022924454 L -16.54552401279146 94.23064866261801 L -16.45299989516848 94.1925947725156 L -16.362072383227165 94.15086949880772 L -16.272887089171043 94.1055396607542 L -16.18558683519895 94.05667784999933 L -16.100311424788163 94.00436231432295 L -16.017197418811755 93.94867683233356 L -15.936377916848679 93.88971057930459 L -15.8579823440368 93.82755798436816 L -15.782136243810232 93.76231857929531 L -15.708961076852844 93.694096839105 L -15.638574026589954 93.62300201475664 L -15.571087811529626 93.54914795819461 L -15.506610504754185 93.47265294002466 L -15.4452453608509 93.39363946011417 L -15.3870906505591 93.31223405141971 L -15.33223950339845 93.22856707735588 L -15.280779758530427 93.14277252303013 L -15.232793824091836 93.05498778067765 L -15.188358545225615 92.96535342964013 L -15.147545081020272 92.87401301124063 L -15.110418790555034 92.78111279891512 L -15.077039128233174 92.68680156396871 L -15.047459548571151 92.59123033733196 L -15.02172742059603 92.49455216769833 L -14.999883951988261 92.39692187643062 L -14.981964123091291 92.29849580962848 L -14.967996630893712 92.19943158775426 L -14.958003843073612 92.09988785321804 L -14.952001762178767 92.00002401632615 L -14.95 91.89999999999999 " stroke="#191919" stroke-width="0.35 px" style="stroke-width:0.35;stroke-miterlimit:4;stroke-dasharray:none;stroke-linecap:square;fill:none;fill-opacity:1;fill-rule: evenodd"/>
<path id="Cut002_cs_w0009"  d="M -19.9 122.0 M -19.9 122.0 L -19.902001762178767 121.89997598367384 L -19.90800384307361 121.80011214678197 L -19.91799663089371 121.70056841224573 L -19.93196412309129 121.60150419037151 L -19.94988395198826 121.50307812356937 L -19.97172742059603 121.40544783230166 L -19.99745954857115 121.30876966266803 L -20.027039128233174 121.21319843603128 L -20.060418790555033 121.11888720108487 L -20.09754508102027 121.02598698875936 L -20.138358545225614 120.93464657035986 L -20.182793824091835 120.84501221932234 L -20.230779758530424 120.75722747696986 L -20.28223950339845 120.67143292264412 L -20.337090650559098 120.58776594858028 L -20.3952453608509 120.50636053988583 L -20.456610504754185 120.42734705997533 L -20.521087811529625 120.35085204180538 L -20.588574026589953 120.27699798524336 L -20.658961076852844 120.20590316089499 L -20.73213624381023 120.13768142070467 L -20.8079823440368 120.07244201563184 L -20.886377916848677 120.0102894206954 L -20.967197418811757 119.95132316766643 L -21.050311424788163 119.89563768567704 L -21.13558683519895 119.84332215000066 L -21.222887089171042 119.7944603392458 L -21.312072383227164 119.74913050119227 L -21.40299989516848 119.70740522748437 L -21.49552401279146 119.66935133738198 L -21.589496567072676 119.63502977075545 L -21.684767069448128 119.60449549049596 L -21.781182952807093 119.57779739449742 L -21.87858981581457 119.5549782373509 L -21.976831670171112 119.53607456187696 L -22.07575119041398 119.52111664060568 L -22.175189965859673 119.51012842729794 L -22.27498875428437 119.50312751858557 L -22.37498773693594 119.50012512579201 L -22.475026774469278 119.50112605697831 L -22.574945663394992 119.50612870924354 L -22.674584392630848 119.5151250712916 L -22.773783399745064 119.52810073626068 L -22.87238382648115 119.54503492479444 L -22.970227773155074 119.56590051831841 L -23.067158551517323 119.5906641024678 L -23.163020935675043 119.61928602059768 L -23.257661410672245 119.65172043728953 L -23.35092841833019 119.68791541175241 L -23.442672599954115 119.72781298100158 L -23.532747035517698 119.77134925268092 L -23.621007478942232 119.8184545073808 L -23.7073125890937 119.8690533102874 L -23.791524156127824 119.92306463198473 L -23.873507322820686 119.98040197821601 L -23.953130800530385 120.04097352839635 L -24.030267079443938 120.10468228265515 L -24.104792632772753 120.1714262171726 L -24.17658811456963 120.24109844756168 L -24.24553855085051 120.31358740003385 L -24.311533523714953 120.38877699007435 L -24.37446734817042 120.46654680834109 L -24.434239241377263 120.54677231348944 L -24.490753484043346 120.62932503161377 L -24.543919573709843 120.71407276198698 L -24.593652369682758 120.80087978876794 L -24.639872229378085 120.88960709833823 L -24.682505135862176 120.9801126019198 L -24.721482816383215 121.07225136311745 L -24.756742851703862 121.16587583002125 L -24.788228776060016 121.26083607149775 L -24.815890167585636 121.35698001729104 L -24.839682729058836 121.45415370154959 L -24.85956835883986 121.55220150938865 L -24.87551521188743 121.6509664260935 L -24.8874977507557 121.75029028856424 L -24.895496786490188 121.85001403859981 L -24.89949950935713 121.94997797761526 L -24.89949950935713 122.05002202238474 L -24.895496786490188 122.14998596140019 L -24.8874977507557 122.24970971143576 L -24.87551521188743 122.3490335739065 L -24.85956835883986 122.44779849061133 L -24.839682729058836 122.54584629845041 L -24.815890167585636 122.64301998270896 L -24.788228776060016 122.73916392850225 L -24.756742851703866 122.83412416997875 L -24.721482816383215 122.92774863688255 L -24.682505135862176 123.0198873980802 L -24.639872229378085 123.11039290166177 L -24.59365236968276 123.19912021123206 L -24.543919573709843 123.28592723801302 L -24.490753484043346 123.37067496838623 L -24.434239241377263 123.45322768651056 L -24.37446734817042 123.53345319165891 L -24.311533523714953 123.61122300992565 L -24.24553855085051 123.68641259996615 L -24.17658811456963 123.75890155243832 L -24.104792632772753 123.8285737828274 L -24.030267079443938 123.89531771734485 L -23.953130800530385 123.95902647160365 L -23.87350732282069 124.01959802178399 L -23.791524156127824 124.07693536801527 L -23.7073125890937 124.1309466897126 L -23.621007478942236 124.1815454926192 L -23.5327470355177 124.22865074731908 L -23.442672599954115 124.27218701899842 L -23.35092841833019 124.31208458824759 L -23.257661410672245 124.34827956271047 L -23.163020935675043 124.38071397940232 L -23.067158551517323 124.4093358975322 L -22.970227773155074 124.4340994816816 L -22.872383826481155 124.45496507520556 L -22.773783399745067 124.47189926373933 L -22.674584392630848 124.4848749287084 L -22.574945663394992 124.49387129075646 L -22.475026774469278 124.49887394302168 L -22.37498773693594 124.49987487420799 L -22.27498875428437 124.49687248141443 L -22.175189965859673 124.48987157270206 L -22.07575119041398 124.47888335939432 L -21.976831670171112 124.46392543812304 L -21.87858981581457 124.4450217626491 L -21.781182952807093 124.42220260550258 L -21.684767069448128 124.39550450950404 L -21.589496567072676 124.36497022924455 L -21.49552401279146 124.33064866261802 L -21.40299989516848 124.29259477251561 L -21.312072383227164 124.25086949880773 L -21.222887089171042 124.20553966075421 L -21.13558683519895 124.15667784999934 L -21.050311424788163 124.10436231432296 L -20.967197418811754 124.04867683233357 L -20.88637791684868 123.9897105793046 L -20.807982344036798 123.92755798436816 L -20.73213624381023 123.86231857929533 L -20.658961076852844 123.79409683910501 L -20.588574026589953 123.72300201475664 L -20.521087811529625 123.64914795819462 L -20.456610504754185 123.57265294002467 L -20.3952453608509 123.49363946011417 L -20.3370906505591 123.41223405141972 L -20.28223950339845 123.32856707735588 L -20.230779758530428 123.24277252303014 L -20.182793824091835 123.15498778067766 L -20.138358545225614 123.06535342964014 L -20.09754508102027 122.97401301124064 L -20.060418790555033 122.88111279891513 L -20.027039128233174 122.78680156396872 L -19.99745954857115 122.69123033733197 L -19.97172742059603 122.59455216769834 L -19.949883951988262 122.49692187643063 L -19.93196412309129 122.39849580962849 L -19.91799663089371 122.29943158775427 L -19.90800384307361 122.19988785321804 L -19.902001762178767 122.10002401632616 L -19.9 122.0 " stroke="#191919" stroke-width="0.35 px" style="stroke-width:0.35;stroke-miterlimit:4;stroke-dasharray:none;stroke-linecap:square;fill:none;fill-opacity:1;fill-rule: evenodd"/>
<path id="Cut002_cs_w0010"  d="M 12.8 91.9 M 12.8 91.89999999999999 L 12.797998237821233 91.79997598367383 L 12.791996156926388 91.70011214678195 L 12.782003369106288 91.60056841224574 L 12.768035876908709 91.5015041903715 L 12.750116048011739 91.40307812356936 L 12.72827257940397 91.30544783230165 L 12.702540451428849 91.20876966266803 L 12.672960871766826 91.11319843603127 L 12.639581209444966 91.01888720108488 L 12.602454918979728 90.92598698875935 L 12.561641454774385 90.83464657035985 L 12.517206175908164 90.74501221932233 L 12.469220241469573 90.65722747696985 L 12.41776049660155 90.5714329226441 L 12.3629093494409 90.48776594858028 L 12.3047546391491 90.40636053988581 L 12.243389495245816 90.32734705997532 L 12.178912188470374 90.25085204180537 L 12.111425973410048 90.17699798524335 L 12.041038923147156 90.10590316089498 L 11.967863756189768 90.03768142070467 L 11.8920176559632 89.97244201563183 L 11.813622083151321 89.91028942069539 L 11.732802581188244 89.85132316766642 L 11.649688575211837 89.79563768567704 L 11.56441316480105 89.74332215000065 L 11.477112910828957 89.69446033924578 L 11.387927616772835 89.64913050119226 L 11.297000104831518 89.60740522748438 L 11.20447598720854 89.56935133738197 L 11.110503432927322 89.53502977075544 L 11.01523293055187 89.50449549049596 L 10.918817047192908 89.47779739449741 L 10.821410184185428 89.45497823735089 L 10.723168329828885 89.43607456187695 L 10.624248809586021 89.42111664060567 L 10.524810034140327 89.41012842729793 L 10.42501124571563 89.40312751858556 L 10.325012263064059 89.400125125792 L 10.224973225530722 89.40112605697831 L 10.125054336605007 89.40612870924353 L 10.025415607369153 89.4151250712916 L 9.926216600254936 89.42810073626066 L 9.827616173518846 89.44503492479444 L 9.729772226844927 89.46590051831839 L 9.632841448482676 89.49066410246779 L 9.536979064324958 89.51928602059768 L 9.442338589327754 89.55172043728952 L 9.349071581669808 89.5879154117524 L 9.257327400045885 89.62781298100157 L 9.167252964482302 89.67134925268091 L 9.078992521057765 89.7184545073808 L 8.992687410906301 89.76905331028738 L 8.908475843872175 89.82306463198472 L 8.826492677179312 89.880401978216 L 8.746869199469614 89.94097352839634 L 8.669732920556063 90.00468228265512 L 8.595207367227246 90.07142621717259 L 8.52341188543037 90.14109844756167 L 8.45446144914949 90.21358740003384 L 8.388466476285048 90.28877699007434 L 8.32553265182958 90.3665468083411 L 8.265760758622736 90.44677231348943 L 8.209246515956654 90.52932503161375 L 8.156080426290158 90.61407276198696 L 8.10634763031724 90.70087978876793 L 8.060127770621916 90.78960709833822 L 8.017494864137825 90.88011260191979 L 7.978517183616782 90.97225136311744 L 7.943257148296135 91.06587583002124 L 7.911771223939985 91.16083607149774 L 7.884109832414362 91.25698001729103 L 7.860317270941163 91.35415370154958 L 7.840431641160141 91.45220150938866 L 7.8244847881125725 91.5509664260935 L 7.8125022492443 91.65029028856424 L 7.804503213509812 91.7500140385998 L 7.800500490642869 91.84997797761525 L 7.800500490642869 91.95002202238473 L 7.804503213509812 92.04998596140018 L 7.812502249244299 92.14970971143575 L 7.8244847881125725 92.24903357390649 L 7.84043164116014 92.34779849061132 L 7.860317270941162 92.4458462984504 L 7.884109832414362 92.54301998270896 L 7.911771223939985 92.63916392850224 L 7.943257148296135 92.73412416997874 L 7.978517183616782 92.82774863688255 L 8.017494864137825 92.91988739808019 L 8.060127770621916 93.01039290166176 L 8.10634763031724 93.09912021123205 L 8.156080426290158 93.18592723801302 L 8.209246515956654 93.27067496838623 L 8.265760758622735 93.35322768651055 L 8.32553265182958 93.43345319165888 L 8.388466476285046 93.51122300992564 L 8.45446144914949 93.58641259996614 L 8.52341188543037 93.65890155243831 L 8.595207367227246 93.7285737828274 L 8.669732920556061 93.79531771734486 L 8.746869199469614 93.85902647160364 L 8.82649267717931 93.91959802178398 L 8.908475843872175 93.97693536801526 L 8.9926874109063 94.0309466897126 L 9.078992521057765 94.08154549261918 L 9.1672529644823 94.12865074731906 L 9.257327400045885 94.17218701899841 L 9.349071581669806 94.21208458824758 L 9.442338589327754 94.24827956271047 L 9.536979064324957 94.28071397940231 L 9.632841448482674 94.3093358975322 L 9.729772226844926 94.33409948168159 L 9.827616173518846 94.35496507520554 L 9.926216600254934 94.37189926373932 L 10.025415607369151 94.38487492870838 L 10.125054336605006 94.39387129075645 L 10.224973225530722 94.39887394302167 L 10.325012263064059 94.39987487420798 L 10.42501124571563 94.39687248141442 L 10.524810034140325 94.38987157270205 L 10.624248809586023 94.37888335939431 L 10.723168329828885 94.36392543812303 L 10.821410184185428 94.3450217626491 L 10.918817047192908 94.32220260550257 L 11.015232930551871 94.29550450950403 L 11.110503432927322 94.26497022924454 L 11.204475987208541 94.23064866261801 L 11.297000104831518 94.1925947725156 L 11.387927616772835 94.15086949880772 L 11.477112910828957 94.1055396607542 L 11.564413164801051 94.05667784999933 L 11.649688575211837 94.00436231432295 L 11.732802581188244 93.94867683233356 L 11.813622083151321 93.88971057930459 L 11.8920176559632 93.82755798436816 L 11.967863756189768 93.76231857929531 L 12.041038923147156 93.694096839105 L 12.111425973410046 93.62300201475664 L 12.178912188470374 93.54914795819461 L 12.243389495245815 93.47265294002466 L 12.3047546391491 93.39363946011417 L 12.3629093494409 93.31223405141971 L 12.41776049660155 93.22856707735588 L 12.469220241469573 93.14277252303013 L 12.517206175908164 93.05498778067765 L 12.561641454774385 92.96535342964013 L 12.602454918979728 92.87401301124063 L 12.639581209444966 92.78111279891512 L 12.672960871766826 92.68680156396871 L 12.702540451428849 92.59123033733196 L 12.72827257940397 92.49455216769833 L 12.750116048011739 92.39692187643062 L 12.768035876908709 92.29849580962848 L 12.782003369106288 92.19943158775426 L 12.791996156926388 92.09988785321804 L 12.797998237821233 92.00002401632615 L 12.8 91.89999999999999 " stroke="#191919" stroke-width="0.35 px" style="stroke-width:0.35;stroke-miterlimit:4;stroke-dasharray:none;stroke-linecap:square;fill:none;fill-opacity:1;fill-rule: evenodd"/>
<path id="Cut002_cs_w0011"  d="M 27.7 77.4 L 15.7 77.4 L 15.7 87.5 L 27.7 87.5 L 27.7 77.4 " stroke="#191919" stroke-width="0.35 px" style="stroke-width:0.35;stroke-miterlimit:4;stroke-dasharray:none;stroke-linecap:square;fill:none;fill-opacity:1;fill-rule: evenodd"/>
<path id="Cut002_cs_w0012"  d="M 27.8 116.1 M 27.8 116.10000000000001 L 27.797998237821233 115.99997598367385 L 27.791996156926388 115.90011214678196 L 27.782003369106288 115.80056841224574 L 27.76803587690871 115.70150419037151 L 27.75011604801174 115.60307812356938 L 27.72827257940397 115.50544783230167 L 27.70254045142885 115.40876966266804 L 27.672960871766826 115.31319843603129 L 27.639581209444966 115.21888720108488 L 27.602454918979728 115.12598698875937 L 27.561641454774385 115.03464657035987 L 27.517206175908164 114.94501221932235 L 27.46922024146957 114.85722747696987 L 27.417760496601552 114.77143292264412 L 27.362909349440898 114.68776594858029 L 27.3047546391491 114.60636053988583 L 27.243389495245815 114.52734705997534 L 27.178912188470374 114.45085204180539 L 27.111425973410046 114.37699798524335 L 27.041038923147156 114.30590316089499 L 26.967863756189768 114.23768142070467 L 26.892017655963198 114.17244201563184 L 26.813622083151323 114.11028942069541 L 26.732802581188245 114.05132316766644 L 26.649688575211837 113.99563768567705 L 26.56441316480105 113.94332215000065 L 26.477112910828957 113.8944603392458 L 26.387927616772835 113.84913050119226 L 26.29700010483152 113.8074052274844 L 26.20447598720854 113.76935133738199 L 26.110503432927324 113.73502977075546 L 26.01523293055187 113.70449549049596 L 25.918817047192906 113.67779739449743 L 25.821410184185428 113.6549782373509 L 25.723168329828887 113.63607456187697 L 25.62424880958602 113.62111664060569 L 25.524810034140327 113.61012842729795 L 25.42501124571563 113.60312751858558 L 25.32501226306406 113.60012512579202 L 25.22497322553072 113.60112605697833 L 25.125054336605007 113.60612870924355 L 25.02541560736915 113.61512507129162 L 24.926216600254936 113.62810073626068 L 24.827616173518848 113.64503492479444 L 24.729772226844926 113.66590051831841 L 24.632841448482676 113.6906641024678 L 24.536979064324957 113.71928602059769 L 24.442338589327754 113.75172043728953 L 24.349071581669808 113.78791541175241 L 24.257327400045885 113.82781298100159 L 24.1672529644823 113.87134925268093 L 24.078992521057767 113.9184545073808 L 23.9926874109063 113.96905331028739 L 23.908475843872175 114.02306463198474 L 23.82649267717931 114.08040197821602 L 23.746869199469614 114.14097352839636 L 23.669732920556065 114.20468228265514 L 23.595207367227246 114.2714262171726 L 23.52341188543037 114.34109844756169 L 23.454461449149488 114.41358740003386 L 23.388466476285046 114.48877699007434 L 23.32553265182958 114.5665468083411 L 23.265760758622736 114.64677231348944 L 23.209246515956654 114.72932503161377 L 23.156080426290156 114.81407276198698 L 23.106347630317238 114.90087978876795 L 23.060127770621918 114.98960709833824 L 23.017494864137824 115.08011260191981 L 22.978517183616784 115.17225136311745 L 22.943257148296134 115.26587583002126 L 22.911771223939986 115.36083607149776 L 22.88410983241436 115.45698001729104 L 22.860317270941163 115.5541537015496 L 22.84043164116014 115.65220150938866 L 22.82448478811257 115.75096642609351 L 22.8125022492443 115.85029028856425 L 22.80450321350981 115.95001403859982 L 22.800500490642868 116.04997797761527 L 22.800500490642868 116.15002202238475 L 22.80450321350981 116.2499859614002 L 22.8125022492443 116.34970971143576 L 22.82448478811257 116.44903357390649 L 22.84043164116014 116.54779849061134 L 22.860317270941163 116.64584629845042 L 22.88410983241436 116.74301998270897 L 22.911771223939983 116.83916392850224 L 22.943257148296134 116.93412416997876 L 22.97851718361678 117.02774863688256 L 23.017494864137824 117.1198873980802 L 23.060127770621918 117.21039290166178 L 23.106347630317238 117.29912021123207 L 23.156080426290156 117.38592723801302 L 23.209246515956654 117.47067496838623 L 23.265760758622733 117.55322768651057 L 23.32553265182958 117.6334531916589 L 23.388466476285046 117.71122300992566 L 23.454461449149488 117.78641259996616 L 23.52341188543037 117.85890155243833 L 23.595207367227246 117.92857378282741 L 23.66973292055606 117.99531771734486 L 23.746869199469614 118.05902647160366 L 23.82649267717931 118.11959802178399 L 23.908475843872175 118.17693536801528 L 23.9926874109063 118.23094668971261 L 24.078992521057764 118.2815454926192 L 24.167252964482298 118.32865074731907 L 24.257327400045885 118.37218701899843 L 24.349071581669808 118.4120845882476 L 24.442338589327754 118.44827956271048 L 24.536979064324957 118.48071397940231 L 24.632841448482676 118.50933589753221 L 24.729772226844926 118.53409948168161 L 24.827616173518845 118.55496507520556 L 24.926216600254932 118.57189926373933 L 25.02541560736915 118.5848749287084 L 25.125054336605007 118.59387129075647 L 25.22497322553072 118.59887394302169 L 25.32501226306406 118.599874874208 L 25.42501124571563 118.59687248141444 L 25.524810034140327 118.58987157270207 L 25.62424880958602 118.57888335939433 L 25.723168329828887 118.56392543812305 L 25.821410184185428 118.5450217626491 L 25.918817047192906 118.52220260550257 L 26.01523293055187 118.49550450950404 L 26.110503432927324 118.46497022924456 L 26.20447598720854 118.43064866261801 L 26.29700010483152 118.39259477251562 L 26.387927616772835 118.35086949880774 L 26.477112910828957 118.30553966075422 L 26.56441316480105 118.25667784999935 L 26.649688575211837 118.20436231432296 L 26.732802581188245 118.14867683233358 L 26.81362208315132 118.08971057930461 L 26.8920176559632 118.02755798436817 L 26.967863756189768 117.96231857929533 L 27.041038923147156 117.89409683910502 L 27.111425973410046 117.82300201475665 L 27.178912188470374 117.74914795819463 L 27.243389495245815 117.67265294002468 L 27.3047546391491 117.59363946011418 L 27.362909349440898 117.51223405141971 L 27.417760496601552 117.4285670773559 L 27.46922024146957 117.34277252303013 L 27.517206175908164 117.25498778067765 L 27.561641454774385 117.16535342964013 L 27.602454918979728 117.07401301124065 L 27.639581209444966 116.98111279891512 L 27.672960871766826 116.88680156396873 L 27.70254045142885 116.79123033733197 L 27.72827257940397 116.69455216769835 L 27.75011604801174 116.59692187643064 L 27.76803587690871 116.4984958096285 L 27.782003369106288 116.39943158775426 L 27.791996156926388 116.29988785321804 L 27.797998237821233 116.20002401632617 L 27.8 116.10000000000001 " stroke="#191919" stroke-width="0.35 px" style="stroke-width:0.35;stroke-miterlimit:4;stroke-dasharray:none;stroke-linecap:square;fill:none;fill-opacity:1;fill-rule: evenodd"/>
<path id="Cut002_cs_w0014"  d="M -21.799999999999997 19.650000000000006 M -21.799999999999997 19.650000000000006 L -21.804208568900595 19.750413411998778 L -21.816804755515392 19.850122496059328 L -21.837700206645643 19.948427864597832 L -21.86674835571502 20.0446399760863 L -21.90374545082888 20.13808397169096 L -21.948431983947362 20.228104408922064 L -22.000494511147878 20.314069859092015 L -22.059567851208993 20.39537733633398 L -22.125237647094306 20.471456527114427 L -22.19704327236937 20.541773790572876 L -22.27448106216515 20.605835901629035 L -22.357007846025205 20.663193510602426 L -22.444044757856165 20.713444295077466 L -22.534981296257477 20.756235781906213 L -22.629179606750064 20.791267819554193 L -22.725978955867213 20.818294683447803 L -22.824700365725107 20.83712679955559 L -22.924651376564825 20.847632074113932 L -23.025130903860028 20.849736820169824 L -23.125434155921184 20.84342627444194 L -23.224857577502867 20.828744700874438 L -23.322703784738316 20.805795080157196 L -23.418286456786177 20.774738387390272 L -23.510935149878087 20.735792462959225 L -23.599999999999998 20.689230484541326 L -23.684856281221318 20.635379050960452 L -23.764908787698428 20.57461589133095 L -23.839596008616038 20.50736721555937 L -23.908394066782108 20.434104724788128 L -23.970820393249937 20.35534230275097 L -24.026437112192607 20.271632411247765 L -24.074854112287294 20.183562215021922 L -24.1157317830659 20.091749463221618 L -24.14878339703848 19.996838156333368 L -24.173777120880565 19.899494028981323 L -24.19053764157737 19.80039988027717 L -24.19894739611863 19.700250784475045 L -24.19894739611863 19.599749215524966 L -24.19053764157737 19.499600119722842 L -24.173777120880565 19.40050597101869 L -24.14878339703848 19.303161843666643 L -24.1157317830659 19.208250536778394 L -24.074854112287294 19.11643778497809 L -24.026437112192607 19.028367588752246 L -23.970820393249937 18.944657697249042 L -23.908394066782108 18.865895275211884 L -23.839596008616038 18.79263278444064 L -23.764908787698428 18.72538410866906 L -23.684856281221318 18.66462094903956 L -23.6 18.610769515458685 L -23.510935149878087 18.564207537040787 L -23.418286456786177 18.52526161260974 L -23.32270378473832 18.494204919842815 L -23.224857577502867 18.471255299125573 L -23.125434155921184 18.456573725558073 L -23.025130903860028 18.450263179830188 L -22.924651376564825 18.45236792588608 L -22.824700365725107 18.46287320044442 L -22.725978955867213 18.48170531655221 L -22.629179606750064 18.50873218044582 L -22.534981296257477 18.5437642180938 L -22.444044757856165 18.586555704922546 L -22.357007846025205 18.636806489397586 L -22.27448106216515 18.694164098370976 L -22.19704327236937 18.758226209427136 L -22.125237647094306 18.828543472885585 L -22.059567851208993 18.904622663666032 L -22.000494511147878 18.985930140907996 L -21.948431983947362 19.071895591077947 L -21.90374545082888 19.16191602830905 L -21.86674835571502 19.25536002391371 L -21.837700206645643 19.35157213540218 L -21.816804755515392 19.449877503940684 L -21.804208568900595 19.549586588001233 L -21.799999999999997 19.650000000000006 " stroke="#191919" stroke-width="0.35 px" style="stroke-width:0.35;stroke-miterlimit:4;stroke-dasharray:none;stroke-linecap:square;fill:none;fill-opacity:1;fill-rule: evenodd"/>
<path id="Cut002_cs_w0016"  d="M -21.2 40.0 M -21.2 40.0 L -21.204208568900594 40.10041341199877 L -21.216804755515394 40.20012249605932 L -21.23770020664564 40.298427864597826 L -21.266748355715023 40.394639976086296 L -21.303745450828877 40.488083971690955 L -21.348431983947364 40.57810440892206 L -21.40049451114788 40.66406985909201 L -21.45956785120899 40.74537733633397 L -21.525237647094308 40.82145652711442 L -21.59704327236937 40.89177379057287 L -21.67448106216515 40.95583590162903 L -21.757007846025203 41.01319351060242 L -21.844044757856167 41.06344429507746 L -21.934981296257476 41.10623578190621 L -22.029179606750063 41.14126781955419 L -22.12597895586721 41.1682946834478 L -22.224700365725106 41.187126799555585 L -22.324651376564823 41.197632074113926 L -22.42513090386003 41.19973682016982 L -22.525434155921182 41.19342627444193 L -22.62485757750287 41.17874470087443 L -22.722703784738318 41.15579508015719 L -22.818286456786176 41.124738387390266 L -22.910935149878085 41.08579246295922 L -23.0 41.03923048454132 L -23.084856281221317 40.98537905096045 L -23.164908787698426 40.924615891330944 L -23.239596008616036 40.857367215559364 L -23.308394066782107 40.78410472478812 L -23.370820393249936 40.705342302750964 L -23.42643711219261 40.62163241124776 L -23.474854112287296 40.53356221502192 L -23.515731783065903 40.44174946322161 L -23.54878339703848 40.34683815633336 L -23.573777120880568 40.24949402898132 L -23.590537641577374 40.15039988027716 L -23.59894739611863 40.05025078447504 L -23.59894739611863 39.94974921552496 L -23.590537641577374 39.84960011972284 L -23.573777120880568 39.75050597101868 L -23.54878339703848 39.65316184366664 L -23.515731783065903 39.55825053677839 L -23.474854112287296 39.46643778497808 L -23.42643711219261 39.37836758875224 L -23.370820393249936 39.294657697249036 L -23.308394066782107 39.21589527521188 L -23.239596008616036 39.142632784440636 L -23.164908787698426 39.075384108669056 L -23.08485628122132 39.01462094903955 L -23.0 38.96076951545868 L -22.910935149878085 38.91420753704078 L -22.81828645678618 38.875261612609734 L -22.722703784738318 38.84420491984281 L -22.62485757750287 38.82125529912557 L -22.525434155921182 38.80657372555807 L -22.42513090386003 38.80026317983018 L -22.324651376564823 38.802367925886074 L -22.224700365725106 38.812873200444415 L -22.12597895586721 38.8317053165522 L -22.029179606750063 38.85873218044581 L -21.934981296257476 38.89376421809379 L -21.844044757856167 38.93655570492254 L -21.757007846025203 38.98680648939758 L -21.67448106216515 39.04416409837097 L -21.59704327236937 39.10822620942713 L -21.525237647094308 39.17854347288558 L -21.45956785120899 39.25462266366603 L -21.40049451114788 39.33593014090799 L -21.348431983947364 39.42189559107794 L -21.303745450828877 39.511916028309045 L -21.266748355715023 39.605360023913704 L -21.23770020664564 39.701572135402174 L -21.216804755515394 39.79987750394068 L -21.204208568900594 39.89958658800123 L -21.2 40.0 " stroke="#191919" stroke-width="0.35 px" style="stroke-width:0.35;stroke-miterlimit:4;stroke-dasharray:none;stroke-linecap:square;fill:none;fill-opacity:1;fill-rule: evenodd"/>
<path id="Cut002_cs_w0017"  d="M 22.2 23.400000000000006 L -19.6 23.400000000000006 L -19.6 21.900000000000006 L 22.199999999999996 21.900000000000006 L 22.2 23.400000000000006 " stroke="#191919" stroke-width="0.35 px" style="stroke-width:0.35;stroke-miterlimit:4;stroke-dasharray:none;stroke-linecap:square;fill:none;fill-opacity:1;fill-rule: evenodd"/>
<path id="Cut002_cs_w0018"  d="M 22.2 27.900000000000006 L -19.6 27.900000000000006 L -19.6 26.400000000000006 L 22.199999999999996 26.400000000000006 L 22.2 27.900000000000006 " stroke="#191919" stroke-width="0.35 px" style="stroke-width:0.35;stroke-miterlimit:4;stroke-dasharray:none;stroke-linecap:square;fill:none;fill-opacity:1;fill-rule: evenodd"/>
<path id="Cut002_cs_w0020"  d="M 26.950000000000006 19.650000000000006 M 26.950000000000006 19.650000000000006 L 26.945791431099412 19.750413411998778 L 26.93319524448461 19.850122496059328 L 26.91229979335436 19.948427864597832 L 26.88325164428498 20.0446399760863 L 26.846254549171125 20.13808397169096 L 26.801568016052638 20.228104408922064 L 26.749505488852126 20.314069859092015 L 26.690432148791015 20.39537733633398 L 26.624762352905694 20.471456527114427 L 26.552956727630633 20.541773790572876 L 26.475518937834853 20.605835901629035 L 26.3929921539748 20.663193510602426 L 26.305955242143835 20.713444295077466 L 26.215018703742526 20.756235781906213 L 26.12082039324994 20.791267819554193 L 26.02402104413279 20.818294683447803 L 25.925299634274896 20.83712679955559 L 25.82534862343518 20.847632074113932 L 25.724869096139972 20.849736820169824 L 25.62456584407882 20.84342627444194 L 25.525142422497137 20.828744700874438 L 25.427296215261688 20.805795080157196 L 25.331713543213827 20.774738387390272 L 25.239064850121917 20.735792462959225 L 25.150000000000002 20.689230484541326 L 25.06514371877869 20.635379050960452 L 24.985091212301572 20.57461589133095 L 24.910403991383962 20.50736721555937 L 24.841605933217895 20.434104724788128 L 24.779179606750066 20.35534230275097 L 24.723562887807393 20.271632411247765 L 24.675145887712706 20.183562215021922 L 24.6342682169341 20.091749463221618 L 24.601216602961525 19.996838156333368 L 24.576222879119438 19.899494028981323 L 24.559462358422632 19.80039988027717 L 24.55105260388137 19.700250784475045 L 24.55105260388137 19.599749215524966 L 24.559462358422632 19.499600119722842 L 24.576222879119438 19.40050597101869 L 24.601216602961525 19.303161843666643 L 24.6342682169341 19.208250536778394 L 24.675145887712706 19.11643778497809 L 24.723562887807393 19.028367588752246 L 24.779179606750066 18.944657697249042 L 24.841605933217895 18.865895275211884 L 24.910403991383962 18.79263278444064 L 24.98509121230158 18.72538410866906 L 25.065143718778682 18.66462094903956 L 25.150000000000002 18.610769515458685 L 25.239064850121917 18.564207537040787 L 25.331713543213827 18.52526161260974 L 25.427296215261688 18.494204919842815 L 25.525142422497137 18.471255299125573 L 25.62456584407882 18.456573725558073 L 25.724869096139972 18.450263179830188 L 25.82534862343518 18.45236792588608 L 25.925299634274896 18.46287320044442 L 26.02402104413279 18.48170531655221 L 26.12082039324994 18.50873218044582 L 26.215018703742526 18.5437642180938 L 26.305955242143835 18.586555704922546 L 26.3929921539748 18.636806489397586 L 26.475518937834853 18.694164098370976 L 26.552956727630633 18.758226209427136 L 26.624762352905694 18.828543472885585 L 26.690432148791007 18.904622663666032 L 26.749505488852126 18.985930140907996 L 26.801568016052638 19.071895591077947 L 26.846254549171125 19.16191602830905 L 26.88325164428498 19.25536002391371 L 26.91229979335436 19.35157213540218 L 26.93319524448461 19.449877503940684 L 26.945791431099412 19.549586588001233 L 26.950000000000006 19.650000000000006 " stroke="#191919" stroke-width="0.35 px" style="stroke-width:0.35;stroke-miterlimit:4;stroke-dasharray:none;stroke-linecap:square;fill:none;fill-opacity:1;fill-rule: evenodd"/>
<path id="Cut002_cs_w0022"  d="M 26.500000000000004 41.0 M 26.500000000000004 41.0 L 26.49579143109941 41.10041341199877 L 26.48319524448461 41.20012249605932 L 26.462299793354358 41.298427864597826 L 26.433251644284976 41.394639976086296 L 26.396254549171122 41.488083971690955 L 26.351568016052635 41.57810440892206 L 26.299505488852123 41.66406985909201 L 26.24043214879101 41.74537733633397 L 26.17476235290569 41.82145652711442 L 26.10295672763063 41.89177379057287 L 26.02551893783485 41.95583590162903 L 25.942992153974796 42.01319351060242 L 25.855955242143832 42.06344429507746 L 25.765018703742523 42.10623578190621 L 25.670820393249937 42.14126781955419 L 25.574021044132788 42.1682946834478 L 25.475299634274894 42.187126799555585 L 25.375348623435176 42.197632074113926 L 25.27486909613997 42.19973682016982 L 25.174565844078817 42.19342627444193 L 25.075142422497134 42.17874470087443 L 24.977296215261685 42.15579508015719 L 24.881713543213824 42.124738387390266 L 24.789064850121914 42.08579246295922 L 24.7 42.03923048454132 L 24.615143718778686 41.98537905096045 L 24.53509121230157 41.924615891330944 L 24.46040399138396 41.857367215559364 L 24.391605933217892 41.78410472478812 L 24.329179606750063 41.705342302750964 L 24.27356288780739 41.62163241124776 L 24.225145887712703 41.53356221502192 L 24.184268216934097 41.44174946322161 L 24.151216602961522 41.34683815633336 L 24.126222879119435 41.24949402898132 L 24.10946235842263 41.15039988027716 L 24.101052603881367 41.05025078447504 L 24.101052603881367 40.94974921552496 L 24.10946235842263 40.84960011972284 L 24.126222879119435 40.75050597101868 L 24.151216602961522 40.65316184366664 L 24.184268216934097 40.55825053677839 L 24.225145887712703 40.46643778497808 L 24.27356288780739 40.37836758875224 L 24.329179606750063 40.294657697249036 L 24.391605933217892 40.21589527521188 L 24.46040399138396 40.142632784440636 L 24.535091212301577 40.075384108669056 L 24.61514371877868 40.01462094903955 L 24.7 39.96076951545868 L 24.789064850121914 39.91420753704078 L 24.881713543213824 39.875261612609734 L 24.977296215261685 39.84420491984281 L 25.075142422497134 39.82125529912557 L 25.174565844078817 39.80657372555807 L 25.27486909613997 39.80026317983018 L 25.375348623435176 39.802367925886074 L 25.475299634274894 39.812873200444415 L 25.574021044132788 39.8317053165522 L 25.670820393249937 39.85873218044581 L 25.765018703742523 39.89376421809379 L 25.855955242143832 39.93655570492254 L 25.942992153974796 39.98680648939758 L 26.02551893783485 40.04416409837097 L 26.10295672763063 40.10822620942713 L 26.17476235290569 40.17854347288558 L 26.240432148791005 40.25462266366603 L 26.299505488852123 40.33593014090799 L 26.351568016052635 40.42189559107794 L 26.396254549171122 40.511916028309045 L 26.433251644284976 40.605360023913704 L 26.462299793354358 40.701572135402174 L 26.48319524448461 40.79987750394068 L 26.49579143109941 40.89958658800123 L 26.500000000000004 41.0 " stroke="#191919" stroke-width="0.35 px" style="stroke-width:0.35;stroke-miterlimit:4;stroke-dasharray:none;stroke-linecap:square;fill:none;fill-opacity:1;fill-rule: evenodd"/>
<path id="Cut002_cs_w0023"  d="M -12.75 87.5 L -24.75 87.5 L -24.75 77.4 L -12.75 77.4 L -12.75 87.5 " stroke="#191919" stroke-width="0.35 px" style="stroke-width:0.35;stroke-miterlimit:4;stroke-dasharray:none;stroke-linecap:square;fill:none;fill-opacity:1;fill-rule: evenodd"/>
<path id="Cut002_cs_w0025"  d="M -16.25 91.9 M -16.25 91.9 L -16.254208568900594 92.00041341199878 L -16.266804755515395 92.10012249605933 L -16.287700206645642 92.19842786459782 L -16.31674835571502 92.2946399760863 L -16.353745450828878 92.38808397169096 L -16.39843198394736 92.47810440892206 L -16.45049451114788 92.564069859092 L -16.509567851208992 92.64537733633398 L -16.575237647094305 92.72145652711443 L -16.64704327236937 92.79177379057288 L -16.72448106216515 92.85583590162904 L -16.807007846025204 92.91319351060241 L -16.894044757856165 92.96344429507747 L -16.984981296257477 93.0062357819062 L -17.07917960675006 93.04126781955418 L -17.175978955867212 93.06829468344779 L -17.274700365725103 93.08712679955559 L -17.374651376564824 93.09763207411393 L -17.475130903860027 93.09973682016982 L -17.575434155921183 93.09342627444192 L -17.67485757750287 93.07874470087442 L -17.77270378473832 93.0557950801572 L -17.86828645678618 93.02473838739027 L -17.960935149878086 92.98579246295922 L -18.049999999999997 92.93923048454133 L -18.134856281221317 92.88537905096044 L -18.214908787698427 92.82461589133095 L -18.289596008616037 92.75736721555936 L -18.358394066782108 92.68410472478813 L -18.420820393249937 92.60534230275097 L -18.476437112192606 92.52163241124777 L -18.524854112287294 92.43356221502191 L -18.5657317830659 92.34174946322162 L -18.59878339703848 92.24683815633337 L -18.62377712088057 92.14949402898131 L -18.640537641577374 92.05039988027715 L -18.64894739611863 91.95025078447503 L -18.64894739611863 91.84974921552495 L -18.640537641577374 91.74960011972283 L -18.62377712088057 91.65050597101869 L -18.59878339703848 91.55316184366663 L -18.5657317830659 91.4582505367784 L -18.524854112287294 91.36643778497809 L -18.476437112192606 91.27836758875225 L -18.420820393249937 91.19465769724903 L -18.358394066782108 91.11589527521187 L -18.289596008616037 91.04263278444063 L -18.214908787698427 90.97538410866906 L -18.134856281221317 90.91462094903954 L -18.05 90.86076951545867 L -17.960935149878086 90.81420753704077 L -17.86828645678618 90.77526161260974 L -17.77270378473832 90.74420491984282 L -17.67485757750287 90.72125529912557 L -17.575434155921187 90.70657372555807 L -17.475130903860027 90.70026317983019 L -17.374651376564824 90.70236792588608 L -17.274700365725106 90.71287320044442 L -17.175978955867215 90.73170531655221 L -17.079179606750063 90.7587321804458 L -16.984981296257477 90.7937642180938 L -16.894044757856165 90.83655570492255 L -16.807007846025204 90.88680648939757 L -16.724481062165147 90.94416409837096 L -16.64704327236937 91.00822620942714 L -16.575237647094305 91.07854347288557 L -16.509567851208992 91.15462266366603 L -16.45049451114788 91.23593014090798 L -16.39843198394736 91.32189559107795 L -16.353745450828878 91.41191602830904 L -16.31674835571502 91.5053600239137 L -16.287700206645642 91.60157213540217 L -16.266804755515395 91.69987750394068 L -16.254208568900594 91.79958658800122 L -16.25 91.9 " stroke="#191919" stroke-width="0.35 px" style="stroke-width:0.35;stroke-miterlimit:4;stroke-dasharray:none;stroke-linecap:square;fill:none;fill-opacity:1;fill-rule: evenodd"/>
<path id="Cut002_cs_w0027"  d="M -21.2 122.0 M -21.2 122.0 L -21.204208568900594 122.10041341199877 L -21.216804755515394 122.20012249605932 L -21.23770020664564 122.29842786459783 L -21.266748355715023 122.3946399760863 L -21.303745450828877 122.48808397169095 L -21.348431983947364 122.57810440892206 L -21.40049451114788 122.66406985909201 L -21.45956785120899 122.74537733633397 L -21.525237647094308 122.82145652711442 L -21.59704327236937 122.89177379057287 L -21.67448106216515 122.95583590162903 L -21.757007846025203 123.01319351060242 L -21.844044757856167 123.06344429507746 L -21.934981296257476 123.10623578190621 L -22.029179606750063 123.14126781955419 L -22.12597895586721 123.1682946834478 L -22.224700365725106 123.18712679955559 L -22.324651376564823 123.19763207411393 L -22.42513090386003 123.19973682016982 L -22.525434155921182 123.19342627444193 L -22.62485757750287 123.17874470087443 L -22.722703784738318 123.15579508015719 L -22.818286456786176 123.12473838739027 L -22.910935149878085 123.08579246295922 L -23.0 123.03923048454132 L -23.084856281221317 122.98537905096045 L -23.164908787698426 122.92461589133094 L -23.239596008616036 122.85736721555936 L -23.308394066782107 122.78410472478812 L -23.370820393249936 122.70534230275096 L -23.42643711219261 122.62163241124776 L -23.474854112287296 122.53356221502192 L -23.515731783065903 122.44174946322161 L -23.54878339703848 122.34683815633336 L -23.573777120880568 122.24949402898132 L -23.590537641577374 122.15039988027716 L -23.59894739611863 122.05025078447504 L -23.59894739611863 121.94974921552496 L -23.590537641577374 121.84960011972284 L -23.573777120880568 121.75050597101868 L -23.54878339703848 121.65316184366664 L -23.515731783065903 121.55825053677839 L -23.474854112287296 121.46643778497808 L -23.42643711219261 121.37836758875224 L -23.370820393249936 121.29465769724904 L -23.308394066782107 121.21589527521188 L -23.239596008616036 121.14263278444064 L -23.164908787698426 121.07538410866906 L -23.08485628122132 121.01462094903955 L -23.0 120.96076951545868 L -22.910935149878085 120.91420753704078 L -22.81828645678618 120.87526161260973 L -22.722703784738318 120.84420491984281 L -22.62485757750287 120.82125529912557 L -22.525434155921182 120.80657372555807 L -22.42513090386003 120.80026317983018 L -22.324651376564823 120.80236792588607 L -22.224700365725106 120.81287320044441 L -22.12597895586721 120.8317053165522 L -22.029179606750063 120.85873218044581 L -21.934981296257476 120.89376421809379 L -21.844044757856167 120.93655570492254 L -21.757007846025203 120.98680648939758 L -21.67448106216515 121.04416409837097 L -21.59704327236937 121.10822620942713 L -21.525237647094308 121.17854347288558 L -21.45956785120899 121.25462266366603 L -21.40049451114788 121.33593014090799 L -21.348431983947364 121.42189559107794 L -21.303745450828877 121.51191602830905 L -21.266748355715023 121.6053600239137 L -21.23770020664564 121.70157213540217 L -21.216804755515394 121.79987750394068 L -21.204208568900594 121.89958658800123 L -21.2 122.0 " stroke="#191919" stroke-width="0.35 px" style="stroke-width:0.35;stroke-miterlimit:4;stroke-dasharray:none;stroke-linecap:square;fill:none;fill-opacity:1;fill-rule: evenodd"/>
<path id="Cut002_cs_w0029"  d="M 11.500000000000004 91.9 M 11.500000000000004 91.9 L 11.49579143109941 92.00041341199878 L 11.483195244484609 92.10012249605933 L 11.462299793354358 92.19842786459782 L 11.433251644284976 92.2946399760863 L 11.396254549171122 92.38808397169096 L 11.351568016052635 92.47810440892206 L 11.299505488852123 92.564069859092 L 11.240432148791012 92.64537733633398 L 11.174762352905692 92.72145652711443 L 11.10295672763063 92.79177379057288 L 11.02551893783485 92.85583590162904 L 10.942992153974796 92.91319351060241 L 10.855955242143832 92.96344429507747 L 10.765018703742523 93.0062357819062 L 10.670820393249937 93.04126781955418 L 10.574021044132788 93.06829468344779 L 10.475299634274894 93.08712679955559 L 10.375348623435176 93.09763207411393 L 10.27486909613997 93.09973682016982 L 10.174565844078817 93.09342627444192 L 10.075142422497134 93.07874470087442 L 9.977296215261685 93.0557950801572 L 9.881713543213824 93.02473838739027 L 9.789064850121914 92.98579246295922 L 9.7 92.93923048454133 L 9.615143718778686 92.88537905096044 L 9.53509121230157 92.82461589133095 L 9.46040399138396 92.75736721555936 L 9.391605933217892 92.68410472478813 L 9.329179606750063 92.60534230275097 L 9.27356288780739 92.52163241124777 L 9.225145887712703 92.43356221502191 L 9.184268216934097 92.34174946322162 L 9.151216602961522 92.24683815633337 L 9.126222879119435 92.14949402898131 L 9.109462358422629 92.05039988027715 L 9.101052603881367 91.95025078447503 L 9.101052603881367 91.84974921552495 L 9.109462358422629 91.74960011972283 L 9.126222879119435 91.65050597101869 L 9.151216602961522 91.55316184366663 L 9.184268216934097 91.4582505367784 L 9.225145887712703 91.36643778497809 L 9.27356288780739 91.27836758875225 L 9.329179606750063 91.19465769724903 L 9.391605933217892 91.11589527521187 L 9.46040399138396 91.04263278444063 L 9.535091212301577 90.97538410866906 L 9.615143718778679 90.91462094903954 L 9.7 90.86076951545867 L 9.789064850121914 90.81420753704077 L 9.881713543213824 90.77526161260974 L 9.977296215261685 90.74420491984282 L 10.075142422497134 90.72125529912557 L 10.174565844078817 90.70657372555807 L 10.27486909613997 90.70026317983019 L 10.375348623435176 90.70236792588608 L 10.475299634274894 90.71287320044442 L 10.574021044132788 90.73170531655221 L 10.670820393249937 90.7587321804458 L 10.765018703742523 90.7937642180938 L 10.855955242143832 90.83655570492255 L 10.942992153974796 90.88680648939757 L 11.02551893783485 90.94416409837096 L 11.10295672763063 91.00822620942714 L 11.174762352905692 91.07854347288557 L 11.240432148791005 91.15462266366603 L 11.299505488852123 91.23593014090798 L 11.351568016052635 91.32189559107795 L 11.396254549171122 91.41191602830904 L 11.433251644284976 91.5053600239137 L 11.462299793354358 91.60157213540217 L 11.483195244484609 91.69987750394068 L 11.49579143109941 91.79958658800122 L 11.500000000000004 91.9 " stroke="#191919" stroke-width="0.35 px" style="stroke-width:0.35;stroke-miterlimit:4;stroke-dasharray:none;stroke-linecap:square;fill:none;fill-opacity:1;fill-rule: evenodd"/>
<path id="Cut002_cs_w0030"  d="M 27.7 87.5 L 15.7 87.5 L 15.7 77.4 L 27.7 77.4 L 27.7 87.5 " stroke="#191919" stroke-width="0.35 px" style="stroke-width:0.35;stroke-miterlimit:4;stroke-dasharray:none;stroke-linecap:square;fill:none;fill-opacity:1;fill-rule: evenodd"/>
<path id="Cut002_cs_w0032"  d="M 26.500000000000004 116.1 M 26.500000000000004 116.1 L 26.49579143109941 116.20041341199878 L 26.48319524448461 116.30012249605932 L 26.462299793354358 116.39842786459782 L 26.433251644284976 116.4946399760863 L 26.396254549171122 116.58808397169096 L 26.351568016052635 116.67810440892205 L 26.299505488852123 116.76406985909202 L 26.24043214879101 116.84537733633397 L 26.17476235290569 116.92145652711443 L 26.10295672763063 116.99177379057288 L 26.02551893783485 117.05583590162904 L 25.942992153974796 117.11319351060241 L 25.855955242143832 117.16344429507745 L 25.765018703742523 117.2062357819062 L 25.670820393249937 117.24126781955418 L 25.574021044132788 117.26829468344779 L 25.475299634274894 117.28712679955558 L 25.375348623435176 117.29763207411392 L 25.27486909613997 117.29973682016981 L 25.174565844078817 117.29342627444193 L 25.075142422497134 117.27874470087443 L 24.977296215261685 117.25579508015718 L 24.881713543213824 117.22473838739027 L 24.789064850121914 117.18579246295923 L 24.7 117.13923048454133 L 24.615143718778686 117.08537905096044 L 24.53509121230157 117.02461589133094 L 24.46040399138396 116.95736721555936 L 24.391605933217892 116.88410472478813 L 24.329179606750063 116.80534230275097 L 24.27356288780739 116.72163241124775 L 24.225145887712703 116.63356221502191 L 24.184268216934097 116.5417494632216 L 24.151216602961522 116.44683815633337 L 24.126222879119435 116.34949402898131 L 24.10946235842263 116.25039988027717 L 24.101052603881367 116.15025078447503 L 24.101052603881367 116.04974921552495 L 24.10946235842263 115.94960011972283 L 24.126222879119435 115.85050597101869 L 24.151216602961522 115.75316184366663 L 24.184268216934097 115.65825053677838 L 24.225145887712703 115.56643778497809 L 24.27356288780739 115.47836758875225 L 24.329179606750063 115.39465769724903 L 24.391605933217892 115.31589527521187 L 24.46040399138396 115.24263278444063 L 24.535091212301577 115.17538410866905 L 24.61514371877868 115.11462094903956 L 24.7 115.06076951545867 L 24.789064850121914 115.01420753704078 L 24.881713543213824 114.97526161260973 L 24.977296215261685 114.9442049198428 L 25.075142422497134 114.92125529912558 L 25.174565844078817 114.90657372555808 L 25.27486909613997 114.90026317983019 L 25.375348623435176 114.90236792588607 L 25.475299634274894 114.91287320044441 L 25.574021044132788 114.93170531655221 L 25.670820393249937 114.95873218044582 L 25.765018703742523 114.9937642180938 L 25.855955242143832 115.03655570492253 L 25.942992153974796 115.08680648939759 L 26.02551893783485 115.14416409837096 L 26.10295672763063 115.20822620942712 L 26.17476235290569 115.27854347288557 L 26.240432148791005 115.35462266366602 L 26.299505488852123 115.43593014090798 L 26.351568016052635 115.52189559107794 L 26.396254549171122 115.61191602830904 L 26.433251644284976 115.7053600239137 L 26.462299793354358 115.80157213540217 L 26.48319524448461 115.89987750394067 L 26.49579143109941 115.99958658800122 L 26.500000000000004 116.1 " stroke="#191919" stroke-width="0.35 px" style="stroke-width:0.35;stroke-miterlimit:4;stroke-dasharray:none;stroke-linecap:square;fill:none;fill-opacity:1;fill-rule: evenodd"/>
<title>b'Cut002_cs'</title>
</g>
</svg>