<?xml version="1.0"?>
<!DOCTYPE svg PUBLIC "-//W3C//DTD SVG 1.1//EN" "http://www.w3.org/Graphics/SVG/1.1/DTD/svg11.dtd">
<svg width="63.000000000000085mm" height="156.3000000000001mm" viewBox="10.000000 -132.300000 63.000000 156.300000" xmlns="http://www.w3.org/2000/svg" version="1.1">
<g id="Body001_cs" transform="scale(1,-1)">
<path id="Body001_cs_w0000"  d="M 36.99999999999998 58.00000000000003 L 37.00000000000003 -24.000000000000014 L 70.00000000000004 -23.99999999999999 L 70.00000000000004 -19.00000000000414 L 73.00000000000004 -19.000000000004135 L 73.00000000000003 -13.999999999999982 L 45.00000000000003 -13.999999999999991 L 44.999999999999986 58.00000000000004 L 70.0 58.00000000000005 L 69.99999999999999 70.14999999999597 L 72.99999999999999 70.14999999999597 L 72.99999999999997 80.14999999999597 L 69.99999999999997 80.14999999999597 L 69.99999999999997 90.14999999999597 L 72.99999999999997 90.14999999999597 L 72.99999999999997 100.149999999996 L 69.99999999999997 100.149999999996 L 69.99999999999997 110.149999999996 L 72.99999999999997 110.149999999996 L 72.99999999999996 120.149999999996 L 69.99999999999996 120.149999999996 L 69.99999999999996 132.3000000000001 L 61.16997191792198 132.30000000000007 L 61.16997191792198 129.30000000000007 L 51.16997191792198 129.30000000000007 L 51.16997191792198 132.30000000000007 L 41.16997191792196 132.30000000000007 L 41.16997191792196 129.30000000000007 L 31.169971917921963 129.30000000000007 A 39.5 39.5 0 0 0 10 103.3L 9.999999999999963 95.30000000000001 L 12.999999999999961 95.30000000000003 L 12.999999999999964 88.30000000000001 L 9.999999999999943 88.30000000000003 L 9.999999999999966 81.30000000000001 L 12.999999999999968 81.30000000000003 L 12.999999999999972 74.30000000000001 L 9.999999999999954 74.30000000000003 L 9.999999999999972 67.30000000000001 L 12.999999999999975 67.30000000000003 L 12.999999999999979 60.30000000000002 L 9.999999999999966 60.300000000000026 L 9.999999999999984 52.30000000000003 L 28.999999999999993 52.30000000000005 L 29.000000000000007 22.300000000000026 L 9.999999999999996 22.300000000000022 L 10.000000000000002 14.649999999999757 L 13.000000000000007 14.64999999999976 L 13.000000000000012 7.649999999999755 L 10.000000000000007 7.649999999999755 L 10.00000000000001 0.6499999999997497 L 13.000000000000018 0.6499999999997528 L 13.000000000000018 -6.350000000000255 L 10.000000000000014 -6.350000000000252 L 10.000000000000018 -13.350000000000264 L 13.000000000000028 -13.350000000000254 L 13.000000000000025 -21.000000000000014 L 16.000000000000036 -21.0 L 16.000000000000025 -24.000000000000014 L 22.000000000000043 -24.000000000000007 L 22.000000000000032 -21.0 L 28.00000000000005 -21.0 L 28.000000000000036 -24.000000000000014 L 34.00000000000006 -24.0 L 33.999999999999986 58.00000000000004 L 36.999999999999986 58.00000000000004 " stroke="#191919" stroke-width="0.35 px" style="stroke-width:0.35;stroke-miterlimit:4;stroke-dasharray:none;stroke-linecap:square;fill:none;fill-opacity:1;fill-rule: evenodd"/>
<title>b'Body001_cs'</title>
</g>
</svg>