<?xml version="1.0"?>
<!DOCTYPE svg PUBLIC "-//W3C//DTD SVG 1.1//EN" "http://www.w3.org/Graphics/SVG/1.1/DTD/svg11.dtd">
<svg width="65.00000000000006mm" height="63.000000000000014mm" viewBox="-32.500000 10.000000 65.000000 63.000000" xmlns="http://www.w3.org/2000/svg" version="1.1">
<g id="Cut001_cs" transform="scale(1,-1)">
<path id="Cut001_cs_w0000"  d="M -8.000000000000002 -10.000000000000028 L -32.50000000000001 -10.00000000000003 L -32.50000000000005 -41.16997191792203 L -29.50000000000005 -41.16997191792203 L -29.50000000000005 -51.169971917922034 L -32.50000000000005 -51.169971917922034 L -32.50000000000006 -61.16997191792204 L -29.500000000000057 -61.16997191792204 L -29.50000000000006 -70.00000000000003 L -25.000000000000007 -70.00000000000004 L -25.000000000000007 -73.00000000000004 L -15.000000000000004 -73.00000000000004 L -15.000000000000004 -70.00000000000004 L -5.000000000000001 -70.00000000000004 L -5.000000000000001 -73.00000000000004 L 4.9999999999999964 -73.00000000000004 L 5.000000000000001 -70.00000000000004 L 15.000000000000004 -70.00000000000004 L 15.000000000000004 -73.00000000000004 L 24.999999999999996 -73.00000000000004 L 25.000000000000007 -70.00000000000004 L 29.499999999999954 -70.00000000000003 L 29.500000000000025 -61.16997191792199 L 32.49999999999996 -61.16997191792204 L 32.50000000000001 -51.16997191792198 L 29.49999999999996 -51.169971917922034 L 29.500000000000025 -41.169971917921984 L 32.499999999999964 -41.16997191792203 L 32.50000000000001 -10.00000000000003 L 24.70000000000001 -10.000000000000028 L 24.70000000000001 -12.400000000000029 L 19.950000000000003 -12.400000000000029 L 19.950000000000003 -28.850000000000033 L 8.350000000000003 -28.850000000000033 L -3.2500000000000018 -28.850000000000033 L -3.2500000000000018 -12.40000000000003 L -8.000000000000002 -12.40000000000003 L -8.000000000000002 -10.000000000000028 " stroke="#191919" stroke-width="0.35 px" style="stroke-width:0.35;stroke-miterlimit:4;stroke-dasharray:none;stroke-linecap:square;fill:none;fill-opacity:1;fill-rule: evenodd"/>
<title>b'Cut001_cs'</title>
</g>
</svg>