<?xml version="1.0"?>
<!DOCTYPE svg PUBLIC "-//W3C//DTD SVG 1.1//EN" "http://www.w3.org/Graphics/SVG/1.1/DTD/svg11.dtd">
<svg width="65.00000000000006mm" height="63.000000000000014mm" viewBox="-32.500000 10.000000 65.000000 63.000000" xmlns="http://www.w3.org/2000/svg" version="1.1">
<g id="Cut001_cs" transform="scale(1,-1)">
<path id="Cut001_cs_w0000"  d="M -17.60000000000001 -37.00000000000004 L 5.400000000000002 -37.00000000000004 L 5.400000000000001 -28.850000000000033 L 17.0 -28.850000000000033 L 17.000000000000004 -12.400000000000029 L 21.75 -12.400000000000027 L 21.750000000000004 -10.000000000000028 L 32.5 -10.00000000000003 L 32.499999999999964 -41.16997191792204 L 29.49999999999997 -41.169971917922 L 29.49999999999996 -51.16997191792205 L 32.5 -51.16997191792202 L 32.49999999999996 -61.169971917922055 L 29.499999999999957 -61.16997191792202 L 29.499999999999954 -70.00000000000003 L 25.000000000000004 -70.00000000000004 L 25.000000000000007 -73.00000000000003 L 15.000000000000004 -73.00000000000004 L 15.000000000000004 -70.00000000000003 L 5.0 -70.00000000000004 L 5.000000000000001 -73.00000000000003 L -5.000000000000001 -73.00000000000004 L -5.000000000000001 -70.00000000000003 L -15.000000000000002 -70.00000000000004 L -15.000000000000004 -73.00000000000003 L -25.000000000000007 -73.00000000000004 L -25.000000000000007 -70.00000000000003 L -29.500000000000057 -70.00000000000004 L -29.49999999999999 -61.16997191792197 L -32.50000000000006 -61.16997191792201 L -32.50000000000001 -51.16997191792199 L -29.500000000000004 -51.16997191792201 L -29.49999999999999 -41.169971917921956 L -32.500000000000036 -41.169971917922 L -32.50000000000001 -31.170000000000037 L -17.60000000000001 -31.170000000000044 L -17.60000000000001 -37.00000000000004 " stroke="#191919" stroke-width="0.35 px" style="stroke-width:0.35;stroke-miterlimit:4;stroke-dasharray:none;stroke-linecap:square;fill:none;fill-opacity:1;fill-rule: evenodd"/>
<title>b'Cut001_cs'</title>
</g>
</svg>