<?xml version="1.0"?>
<!DOCTYPE svg PUBLIC "-//W3C//DTD SVG 1.1//EN" "http://www.w3.org/Graphics/SVG/1.1/DTD/svg11.dtd">
<svg width="65.00000000000003mm" height="24.000000000000025mm" viewBox="-32.500000 10.000000 65.000000 24.000000" xmlns="http://www.w3.org/2000/svg" version="1.1">
<g id="Cut003_cs" transform="scale(1,-1)">
<path id="Cut003_cs_w0000"  d="M -22.500000000000004 -9.999999999999996 L -32.50000000000001 -9.999999999999996 L -32.50000000000001 -16.00000000000001 L -29.500000000000014 -16.000000000000018 L -29.500000000000007 -22.000000000000018 L -32.500000000000014 -22.000000000000018 L -32.500000000000014 -28.000000000000025 L -29.500000000000025 -28.00000000000003 L -29.50000000000001 -34.00000000000002 L 29.49999999999999 -34.0 L 29.499999999999957 -28.00000000000002 L 32.499999999999986 -28.000000000000025 L 32.50000000000001 -22.000000000000014 L 29.499999999999986 -22.00000000000002 L 29.499999999999957 -16.000000000000014 L 32.49999999999999 -16.000000000000014 L 32.50000000000001 -9.999999999999996 L 22.500000000000004 -9.999999999999996 L 22.500000000000004 -12.999999999999998 L 13.500000000000004 -12.999999999999998 L 13.500000000000004 -9.999999999999996 L 4.500000000000001 -9.999999999999996 L 4.500000000000001 -12.999999999999998 L -4.500000000000001 -12.999999999999998 L -4.500000000000001 -9.999999999999996 L -13.500000000000004 -9.999999999999996 L -13.500000000000004 -12.999999999999998 L -22.500000000000004 -12.999999999999998 L -22.500000000000004 -9.999999999999996 " stroke="#191919" stroke-width="0.35 px" style="stroke-width:0.35;stroke-miterlimit:4;stroke-dasharray:none;stroke-linecap:square;fill:none;fill-opacity:1;fill-rule: evenodd"/>
<title>b'Cut003_cs'</title>
</g>
</svg>