<?xml version="1.0"?>
<!DOCTYPE svg PUBLIC "-//W3C//DTD SVG 1.1//EN" "http://www.w3.org/Graphics/SVG/1.1/DTD/svg11.dtd">
<svg width="65.00000000000003mm" height="132.8mm" viewBox="-32.500000 -108.800000 65.000000 132.800000" xmlns="http://www.w3.org/2000/svg" version="1.1">
<g id="Cut_cs" transform="scale(1,-1)">
<path id="Cut_cs_w0000"  d="M 22.5 -24.0 L 13.5 -24.0 L 13.5 -21.0 L 4.5 -21.0 L 4.5 -24.0 L -4.5 -24.0 L -4.5 -21.0 L -13.5 -21.0 L -13.5 -24.0 L -22.5 -24.0 L -22.5 -21.0 L -32.5 -21.0 L -32.5 -13.350000000000259 L -29.5 -13.350000000000257 L -29.500000000000032 -6.3500000000002395 L -32.5 -6.3500000000002546 L -32.50000000000001 0.649999999999748 L -29.500000000000004 0.6499999999997489 L -29.50000000000003 7.649999999999768 L -32.50000000000001 7.649999999999752 L -32.50000000000001 14.649999999999753 L -29.500000000000007 14.649999999999755 L -29.50000000000002 22.300000000000036 L -32.50000000000001 22.300000000000022 L -32.500000000000014 52.30000000000003 L -29.500000000000014 52.30000000000003 L -29.500000000000004 60.30000000000004 L -32.500000000000014 60.300000000000026 L -32.50000000000002 67.30000000000003 L -29.500000000000018 67.30000000000003 L -29.499999999999996 74.30000000000004 L -32.50000000000002 74.30000000000003 L -32.50000000000002 81.30000000000004 L -29.50000000000002 81.30000000000004 L -29.499999999999993 88.30000000000004 L -32.50000000000002 88.30000000000004 L -32.50000000000003 95.30000000000004 L -29.500000000000025 95.30000000000004 L -29.499999999999986 104.06275726429669 L -29.876051421152 104.06275726429669 L -23.85 108.8 L -23.85 71.64915242061168 M -23.849999999999643 71.64915242061168 L -23.849999999999643 65.75084757938832 L -23.849999999999643 13.649152420611726 M -23.85 13.649152420611726 L -23.85 7.750847579388273 L -23.85 -13.999999999999998 L 23.85 -14.0 L 23.85 7.7508475793883065 M 23.85 7.7508475793883065 L 23.849999999999998 13.649152420611697 L 23.849999999999998 65.75084757944816 M 23.850000000021847 65.75084757944816 L 23.850000000030924 71.64915242052189 L 23.85 108.8 L 29.876051421152006 104.06275726429666 L 29.49999999999997 104.06275726429669 L 29.499999999999975 95.30000000000004 L 32.49999999999998 95.30000000000004 L 32.5 88.30000000000001 L 29.49999999999998 88.30000000000004 L 29.49999999999998 81.30000000000004 L 32.49999999999998 81.30000000000004 L 32.5 74.30000000000001 L 29.49999999999998 74.30000000000003 L 29.499999999999982 67.30000000000003 L 32.499999999999986 67.30000000000003 L 32.5 60.30000000000001 L 29.499999999999982 60.300000000000026 L 29.499999999999986 52.30000000000003 L 32.499999999999986 52.30000000000003 L 32.5 22.30000000000002 L 29.499999999999993 22.300000000000022 L 29.499999999999993 14.649999999999753 L 32.49999999999999 14.649999999999755 L 32.5 7.649999999999753 L 29.499999999999996 7.649999999999752 L 29.499999999999996 0.649999999999748 L 32.5 0.6499999999997489 L 32.5 -6.350000000000254 L 29.499999999999996 -6.3500000000002546 L 29.5 -13.350000000000259 L 32.5 -13.350000000000257 L 32.5 -21.0 L 22.5 -21.0 L 22.5 -24.0 " stroke="#191919" stroke-width="0.35 px" style="stroke-width:0.35;stroke-miterlimit:4;stroke-dasharray:none;stroke-linecap:square;fill:none;fill-opacity:1;fill-rule: evenodd"/>
<path id="Cut_cs_w0001"  d="M -22.9 10.7 M -22.9 10.7 L -22.9 10.7 " stroke="#191919" stroke-width="0.35 px" style="stroke-width:0.35;stroke-miterlimit:4;stroke-dasharray:none;stroke-linecap:square;fill:none;fill-opacity:1;fill-rule: evenodd"/>
<path id="Cut_cs_w0002"  d="M 26.1 10.7 M 26.1 10.7 L 26.1 10.7 " stroke="#191919" stroke-width="0.35 px" style="stroke-width:0.35;stroke-miterlimit:4;stroke-dasharray:none;stroke-linecap:square;fill:none;fill-opacity:1;fill-rule: evenodd"/>
<path id="Cut_cs_w0003"  d="M -22.9 68.7 M -22.9 68.7 L -22.9 68.7 " stroke="#191919" stroke-width="0.35 px" style="stroke-width:0.35;stroke-miterlimit:4;stroke-dasharray:none;stroke-linecap:square;fill:none;fill-opacity:1;fill-rule: evenodd"/>
<path id="Cut_cs_w0004"  d="M 26.1 68.7 M 26.1 68.7 L 26.1 68.7 " stroke="#191919" stroke-width="0.35 px" style="stroke-width:0.35;stroke-miterlimit:4;stroke-dasharray:none;stroke-linecap:square;fill:none;fill-opacity:1;fill-rule: evenodd"/>
<title>b'Cut_cs'</title>
</g>
</svg>