<?xml version="1.0"?>
<!DOCTYPE svg PUBLIC "-//W3C//DTD SVG 1.1//EN" "http://www.w3.org/Graphics/SVG/1.1/DTD/svg11.dtd">
<svg width="63.000000000000085mm" height="156.3000000000001mm" viewBox="10.000000 -132.300000 63.000000 156.300000" xmlns="http://www.w3.org/2000/svg" version="1.1">
<g id="Body001_cs" transform="scale(1,-1)">
<path id="Body001_cs_w0000"  d="M 70.00000000000004 -18.999999999999986 L 73.00000000000004 -18.999999999999982 L 73.00000000000003 -13.999999999999982 L 45.00000000000003 -13.999999999999991 L 44.999999999999986 58.000000000000014 L 70.0 58.00000000000002 L 69.99999999999999 70.15000000000005 L 72.99999999999999 70.15000000000005 L 72.99999999999997 80.15000000000005 L 69.99999999999997 80.15000000000005 L 69.99999999999997 90.15000000000005 L 72.99999999999997 90.15000000000005 L 72.99999999999997 100.15000000000008 L 69.99999999999997 100.15000000000008 L 69.99999999999997 110.15000000000008 L 72.99999999999997 110.15000000000008 L 72.99999999999996 120.15000000000008 L 69.99999999999996 120.15000000000008 L 69.99999999999996 132.3000000000001 L 61.16997191792199 132.30000000000007 L 61.16997191792199 129.30000000000007 L 51.16997191792199 129.30000000000007 L 51.16997191792199 132.30000000000007 L 41.16997191792198 132.30000000000007 L 41.16997191792198 129.30000000000007 L 31.169971917921977 129.30000000000007 M 31.169971917921963 129.30000000000007 L 31.14557026966787 129.20294320378488 L 31.120922796632485 129.10594854309653 L 31.096029657031373 129.00901664055732 L 31.07089101065708 128.91214811838657 L 31.045507018878062 128.81534359839685 L 31.019877844637705 128.71860370198988 L 30.99400365245325 128.62192905015252 L 30.967884608414742 128.5253202634528 L 30.941520880183965 128.428777962036 L 30.914912636993357 128.33230276562065 L 30.88806004964495 128.2358952934944 L 30.860963290509233 128.1395561645103 L 30.83362253352408 128.04328599708262 L 30.80603795419362 127.94708540918298 L 30.778209729587104 127.85095501833635 L 30.750138038337802 127.75489544161711 L 30.72182306064179 127.65890729564507 L 30.69326497825687 127.5629911965815 L 30.664463974501345 127.46714776012521 L 30.63542023425287 127.3713776015086 L 30.606133943947263 127.2756813354936 L 30.5766052915773 127.18005957636792 L 30.546834466691514 127.08451293794096 L 30.516821660392985 126.98904203353987 L 30.486567065338086 126.8936474760057 L 30.456070875735286 126.79832987768941 L 30.425333287343868 126.70308985044794 L 30.394354497472698 126.6079280056403 L 30.363134704978947 126.51284495412362 L 30.331674110266817 126.41784130624927 L 30.299972915286233 126.32291767185889 L 30.268031323531602 126.22807466028053 L 30.235849540040434 126.13331288032467 L 30.203427771392093 126.03863294028038 L 30.170766225706423 125.9440354479114 L 30.13786511264243 125.84952101045222 L 30.104724643396956 125.75509023460417 L 30.071345030703284 125.66074372653155 L 30.037726488829797 125.56648209185775 L 30.003869233578605 125.47230593566135 L 29.969773482284147 125.37821586247219 L 29.93543945381179 125.28421247626757 L 29.900867368556455 125.19029638046833 L 29.86605744844117 125.09646817793495 L 29.83100991691566 125.00272847096377 L 29.795724998954924 124.90907786128301 L 29.760202921057754 124.81551695004896 L 29.724443911245324 124.72204633784219 L 29.6884481990597 124.62866662466355 L 29.652216015562374 124.53537840993044 L 29.61574759333277 124.4421822924729 L 29.579043166466782 124.34907887052981 L 29.542102970575236 124.25606874174498 L 29.5049272427824 124.1631525031634 L 29.467516221724445 124.07033075122736 L 29.429870147547923 123.9776040817726 L 29.391989261908243 123.88497309002454 L 29.353873807968085 123.79243837059443 L 29.315524030395842 123.7000005174755 L 29.276940175364096 123.60766012403924 L 29.23812249054798 123.51541778303148 L 29.199071225123625 123.42327408656865 L 29.159786629766543 123.33122962613402 L 29.120268956650023 123.23928499257374 L 29.080518459443525 123.14744077609328 L 29.04053539331101 123.05569756625343 L 29.000320014909363 122.96405595196664 L 28.959872582386694 122.87251652149322 L 28.91919335538072 122.78107986243751 L 28.878282595017055 122.68974656174416 L 28.837140563907568 122.59851720569435 L 28.7957675261487 122.50739237990204 L 28.754163747319737 122.41637266931018 L 28.712329494481132 122.32545865818696 L 28.670265036172786 122.23465093012211 L 28.627970642412308 122.14395006802307 L 28.585446584693315 122.05335665411133 L 28.542693135983654 121.96287126991858 L 28.49971057072368 121.87249449628318 L 28.456499164824443 121.78222691334618 L 28.413059195665994 121.69206910054781 L 28.369390942095542 121.60202163662359 L 28.325494684425692 121.51208509960075 L 28.281370704432653 121.4222600667945 L 28.23701928535437 121.33254711480416 L 28.192440711888814 121.24294681950973 L 28.147635270192033 121.15345975606795 L 28.10260324787641 121.06408649890878 L 28.057344934008768 120.97482762173158 L 28.01186061910854 120.88568369750155 L 27.966150595145855 120.79665529844591 L 27.920215155539758 120.70774299605043 L 27.874054595156203 120.61894736105549 L 27.827669210306283 120.53026896345268 L 27.78105929874424 120.441708372481 L 27.734225159665577 120.3532661566232 L 27.687167093705185 120.26494288360222 L 27.639885402935306 120.17673912037739 L 27.592380390863745 120.08865543314103 L 27.544652362431762 120.00069238731454 L 27.496701624012232 119.91285054754502 L 27.448528483407628 119.82513047770142 L 27.40013324984804 119.73753274087113 L 27.351516233989237 119.65005789935623 L 27.302677747910586 119.56270651466987 L 27.253618105113155 119.47547914753282 L 27.20433762051762 119.38837635786965 L 27.154836610462283 119.30139870480535 L 27.105115392701016 119.21454674666154 L 27.055174286401247 119.12782104095308 L 27.005013612141894 119.04122214438434 L 26.95463369191131 118.95475061284571 L 26.904034849105237 118.86840700141 L 26.853217408524685 118.78219186432887 L 26.802181696373886 118.69610575502932 L 26.750928040258188 118.61014922611005 L 26.69945676918195 118.52432282933802 L 26.647768213546428 118.43862711564479 L 26.595862705147674 118.35306263512314 L 26.54374057717436 118.26762993702334 L 26.491402164205702 118.18232956974983 L 26.43884780220926 118.09716208085752 L 26.386077828538802 118.01212801704838 L 26.333092581932156 117.92722792416795 L 26.279892402508978 117.84246234720172 L 26.22647763176866 117.75783183027175 L 26.172848612588027 117.67333691663312 L 26.11900568921925 117.58897814867046 L 26.06494920728754 117.50475606789443 L 26.010679513789 117.42067121493834 L 25.956196957088338 117.33672412955454 L 25.901501886916684 117.25291535061109 L 25.846594654369312 117.16924541608819 L 25.791475611903394 117.08571486307483 L 25.73614511333576 117.00232422776529 L 25.680603513840566 116.91907404545563 L 25.6248511699471 116.83596485054039 L 25.568888439537396 116.75299717650907 L 25.51271568184405 116.67017155594273 L 25.456333257447795 116.58748852051056 L 25.399741528275285 116.50494860096651 L 25.3429408575967 116.42255232714578 L 25.28593161002346 116.34030022796156 L 25.22871415150589 116.25819283140156 L 25.1712888493308 116.17623066452454 L 25.11365607211922 116.0944142534571 L 25.05581618982398 116.01274412339018 L 24.997769573727332 115.93122079857574 L 24.939516596438587 115.8498448023233 L 24.881057631891743 115.76861665699681 L 24.822393055343014 115.68753688401097 L 24.76352324336851 115.60660600382816 L 24.704448573861754 115.52582453595501 L 24.645169426031266 115.44519299893898 L 24.585686180398177 115.36471191036514 L 24.525999218793707 115.28438178685285 L 24.46610892435679 115.20420314405233 L 24.40601568153155 115.12417649664145 L 24.345719876064926 115.04430235832245 L 24.28522189500405 114.96458124181851 L 24.224522126693913 114.88501365887059 L 24.163620960774786 114.80560012023413 L 24.102518788179744 114.72634113567567 L 24.04121600113212 114.64723721396966 L 23.97971299314306 114.5682888628952 L 23.918010159008958 114.4894965892328 L 23.856107894808872 114.41086089876097 L 23.79400659790209 114.33238229625323 L 23.731706666925454 114.25406128547462 L 23.66920850179094 114.17589836917864 L 23.60651250368295 114.09789404910391 L 23.543619075055844 114.02004882597109 L 23.480528619631286 113.94236319947944 L 23.417241542395715 113.86483766830386 L 23.353758249597703 113.78747273009154 L 23.290079148745335 113.71026888145877 L 23.226204648603648 113.63322661798786 L 23.162135159191934 113.55634643422377 L 23.0978710917812 113.47962882367116 L 23.033412858891417 113.40307427879104 L 22.968760874288996 113.3266832909977 L 22.903915552984003 113.25045635065553 L 22.838877311227606 113.17439394707588 L 22.77364656650935 113.09849656851394 L 22.708223737554455 113.02276470216553 L 22.64260924432118 112.94719883416406 L 22.576803507998093 112.87179944957735 L 22.510806951001406 112.7965670324046 L 22.444619996972186 112.72150206557312 L 22.378243070773735 112.64660503093543 L 22.311676598488766 112.57187640926601 L 22.244921007416764 112.49731668025831 L 22.17797672607115 112.42292632252159 L 22.110844184176614 112.34870581357796 L 22.043523812666265 112.27465562985918 L 21.976016043678968 112.2007762467037 L 21.908321310556495 112.1270681383536 L 21.840440047840758 112.05353177795145 L 21.772372691271073 111.98016763753743 L 21.704119677781236 111.90697618804616 L 21.6356814454969 111.83395789930375 L 21.567058433732562 111.76111324002478 L 21.498251082988943 111.68844267780929 L 21.42925983494998 111.61594667913968 L 21.360085132480116 111.5436257093779 L 21.29072741962142 111.47148023276236 L 21.22118714159069 111.39951071240489 L 21.151464744776682 111.32771761028788 L 21.081560676737148 111.25610138726124 L 21.011475386196068 111.1846625030395 L 20.94120932304066 111.11340141619881 L 20.8707629383186 111.04231858417401 L 20.80013668423502 110.97141446325571 L 20.7293310141497 110.90068950858732 L 20.65834638257411 110.8301441741622 L 20.58718324516846 110.75977891282068 L 20.515842058738883 110.68959417624716 L 20.44432328123436 110.61959041496725 L 20.372627371743917 110.54976807834484 L 20.30075479049355 110.48012761457926 L 20.22870599884341 110.41066947070233 L 20.1564814592847 110.34139409257554 L 20.08408163543681 110.27230192488722 L 20.01150699204431 110.20339341114962 L 19.938757994973926 110.13466899369607 L 19.86583511121163 110.0661291136782 L 19.79273880885954 109.99777421106303 L 19.71946955713304 109.92960472463022 L 19.64602782635764 109.8616210919692 L 19.57241408796606 109.79382374947637 L 19.49862881449512 109.72621313235231 L 19.42467247958278 109.658789674599 L 19.350545557965084 109.59155380901704 L 19.276248525473036 109.52450596720278 L 19.201781859029644 109.45764657954567 L 19.12714603664682 109.39097607522541 L 19.052341537422322 109.32449488220931 L 18.977368841536617 109.25820342724936 L 18.902228430249927 109.19210213587968 L 18.826920785898984 109.12619143241363 L 18.751446391894078 109.06047173994124 L 18.67580573271583 108.99494348032634 L 18.599999293912198 108.92960707420399 L 18.524027562095256 108.86446294097766 L 18.447891024938137 108.7995114988166 L 18.371590171171903 108.73475316465321 L 18.295125490582343 108.67018835418025 L 18.218497474006888 108.6058174818482 L 18.141706613331458 108.54164096086268 L 18.064753401487316 108.47765920318174 L 17.9876383324478 108.41387261951317 L 17.91036190122533 108.35028161931194 L 17.83292460386805 108.28688661077754 L 17.755326937456765 108.22368800085137 L 17.67756940010174 108.16068619521411 L 17.599652490939405 108.09788159828314 L 17.52157671012926 108.03527461320988 L 17.443342558850617 107.97286564187732 L 17.36495053929943 107.91065508489734 L 17.286401154684945 107.84864334160818 L 17.20769490922664 107.78683081007185 L 17.12883230815084 107.72521788707158 L 17.04981385768759 107.66380496810933 L 16.970640065067336 107.6025924474032 L 16.89131143851769 107.54158071788486 L 16.811828487260115 107.4807701711971 L 16.732191721506787 107.4201611976913 L 16.6524016524572 107.35975418642492 L 16.57245879229491 107.29954952515897 L 16.49236365418428 107.23954760035556 L 16.41211675226716 107.17974879717539 L 16.33171860165959 107.12015349947532 L 16.251169718448516 107.0607620898059 L 16.170470619688437 107.00157494940882 L 16.089621823398083 106.94259245821459 L 16.008623848557164 106.88381499484004 L 15.927477215102977 106.82524293658591 L 15.84618244392704 106.76687665943437 L 15.764740056871846 106.70871653804673 L 15.683150576727394 106.65076294576087 L 15.601414527227954 106.593016254589 L 15.519532433048584 106.53547683521518 L 15.43750481980189 106.47814505699294 L 15.35533221403451 106.42102128794295 L 15.273015143223875 106.36410589475065 L 15.190554135774734 106.3073992427639 L 15.10794972101578 106.25090169599059 L 15.02520242919624 106.19461361709631 L 14.94231279148252 106.13853536740211 L 14.859281339954775 106.08266730688209 L 14.776108607603424 106.02700979416109 L 14.692795128325857 105.97156318651247 L 14.609341436922874 105.91632783985571 L 14.52574806909538 105.86130410875421 L 14.442015561440817 105.80649234641294 L 14.358144451449844 105.75189290467627 L 14.274135277502777 105.69750613402559 L 14.189988578866226 105.64333238357719 L 14.105704895689579 105.58937200107992 L 14.021284769001513 105.53562533291297 L 13.936728740706618 105.48209272408371 L 13.852037353581787 105.4287745182254 L 13.76721115127287 105.37567105759506 L 13.682250678291032 105.32278268307115 L 13.59715648000943 105.27010973415157 L 13.511929102659545 105.21765254895129 L 13.426569093327798 105.1654114642003 L 13.341076999952 105.1133868152414 L 13.25545337131778 105.06157893602804 L 13.169698757055167 105.00998815912223 L 13.083813707634947 104.95861481569236 L 12.997798774365252 104.90745923551108 L 12.911654509387889 104.85652174695318 L 12.825381465674928 104.8058026769935 L 12.738980197025024 104.7553023512048 L 12.652451258059978 104.70502109375573 L 12.565795204221116 104.65495922740868 L 12.479012591765693 104.60511707351773 L 12.392103977763417 104.55549495202663 L 12.305069920092764 104.5060931814667 L 12.2179109774375 104.45691207895476 L 12.130627709282995 104.40795196019116 L 12.043220675912737 104.35921313945774 L 11.955690438404622 104.31069592961578 L 11.868037558627448 104.26240064210398 L 11.780262599237291 104.21432758693656 L 11.692366123673802 104.16647707270116 L 11.60434869615674 104.11884940655685 L 11.516210881682197 104.0714448942323 L 11.427953246019127 104.02426384002368 L 11.339576355705551 103.9773065467927 L 11.251080778045074 103.93057331596484 L 11.162467081103104 103.88406444752715 L 11.073735833703326 103.83778024002658 L 10.984887605423994 103.7917209905679 L 10.895922966594247 103.74588699481184 L 10.806842488290487 103.7002785469732 L 10.717646742332724 103.65489593981897 L 10.628336301280894 103.60973946466643 L 10.538911738431151 103.56480941138129 L 10.449373627812202 103.52010606837581 L 10.359722544181674 103.47562972260698 L 10.26995906302236 103.43138065957464 L 10.18008376053857 103.38735916331976 L 10.090097213652372 103.34356551642237 L 9.999999999999938 103.30000000000004 L 9.999999999999957 95.30000000000004 L 12.999999999999961 95.30000000000004 L 12.999999999999964 88.30000000000004 L 9.999999999999943 88.30000000000004 L 9.999999999999966 81.30000000000004 L 12.999999999999968 81.30000000000004 L 12.999999999999972 74.30000000000004 L 9.999999999999954 74.30000000000004 L 9.999999999999972 67.30000000000004 L 12.999999999999975 67.30000000000004 L 12.999999999999979 60.30000000000003 L 9.999999999999966 60.30000000000004 L 9.999999999999984 52.30000000000004 L 28.999999999999993 52.30000000000006 L 29.000000000000007 22.300000000000026 L 9.999999999999996 22.30000000000003 L 10.000000000000002 14.650000000000016 L 13.000000000000007 14.650000000000022 L 13.000000000000012 7.6500000000000155 L 10.000000000000007 7.6500000000000155 L 10.00000000000001 0.6500000000000099 L 13.000000000000018 0.650000000000013 L 13.000000000000018 -6.349999999999996 L 10.000000000000014 -6.349999999999992 L 10.000000000000018 -13.350000000000001 L 13.000000000000028 -13.349999999999993 L 13.000000000000025 -21.000000000000014 L 16.000000000000036 -21.0 L 16.000000000000032 -24.000000000000014 L 22.000000000000043 -24.000000000000007 L 22.000000000000032 -21.0 L 28.00000000000005 -21.0 L 28.000000000000036 -24.000000000000014 L 34.00000000000003 -24.0 L 33.999999999999986 58.000000000000014 L 37.0 58.000000000000014 L 37.00000000000003 -21.000000000000014 L 38.50000000000004 -24.000000000000014 L 70.00000000000004 -23.99999999999999 L 70.00000000000004 -18.999999999999986 " stroke="#191919" stroke-width="0.35 px" style="stroke-width:0.35;stroke-miterlimit:4;stroke-dasharray:none;stroke-linecap:square;fill:none;fill-opacity:1;fill-rule: evenodd"/>
<title>b'Body001_cs'</title>
</g>
</svg>